<?xml version="1.0" encoding="UTF-8"?>
<svg width="512px" height="1024px" viewBox="0 0 512 1024" version="1.1" xmlns="http://www.w3.org/2000/svg" xmlns:xlink="http://www.w3.org/1999/xlink">
    <!-- Generator: Sketch 61.2 (89653) - https://sketch.com -->
    <title>2.人物组件/8.程序员/走路/看电脑</title>
    <desc>Created with Sketch.</desc>
    <defs>
        <polygon id="path-1" points="0.253630583 0.0105 58.6064796 0.0105 58.6064796 50.07375 0.253630583 50.07375"></polygon>
    </defs>
    <g id="2.人物组件/8.程序员/走路/看电脑" stroke="none" stroke-width="1" fill="none" fill-rule="evenodd">
        <path d="M165.3127,788.6844 C165.3127,788.6844 163.0702,804.5259 185.5327,819.8574 C193.9567,825.6054 198.5017,837.5184 190.6327,839.7864 C185.2117,841.3494 174.4087,836.5824 163.2682,831.1764 C147.6997,823.6209 152.7007,816.0984 143.6932,813.4179 C138.4717,811.8639 125.2222,805.7694 125.5072,802.1829 C126.0067,795.9159 127.5217,795.1134 132.7957,786.8694 C165.8737,735.1659 175.6522,757.5414 165.3127,788.6844" id="Fill-1" fill="#253368"></path>
        <path d="M138.4072,775.8852 L196.8187,639.3237 C201.5482,628.2642 216.2782,624.3402 228.9532,630.7602 C241.1917,636.9582 246.6862,650.3862 241.1647,660.6057 L170.4352,791.5107 C170.4352,791.5107 154.5367,791.4477 138.4072,775.8852" id="Fill-3" fill="#4E5C93"></path>
        <path d="M223.18135,659.844 L223.18135,659.844 C236.12035,660.501 247.22185,651.6495 248.31535,639.804 L260.49235,507.747 C261.90535,492.417 249.15985,478.9665 232.41385,478.116 C215.66785,477.264 201.62335,489.354 201.47635,504.75 L200.20885,637.3605 C200.09485,649.2555 210.24235,659.187 223.18135,659.844" id="Fill-5" fill="#4E5C93"></path>
        <path d="M241.50955,294.3303 L242.58505,255.3423 L207.51205,254.0823 L202.24255,290.9973 C200.65105,302.1468 208.69705,312.3648 219.90955,313.4328 C231.28105,314.5158 241.19455,305.7483 241.50955,294.3303" id="Fill-7" fill="#FFC999"></path>
        <path d="M252.01315,252.09525 C252.01315,252.09525 257.89015,247.10175 259.76815,251.03775 C261.64615,254.97375 256.40515,267.86625 250.59115,267.63975 C242.82715,267.33825 252.01315,252.09525 252.01315,252.09525" id="Fill-9" fill="#BDC9E0"></path>
        <path d="M215.02885,282.79545 C215.02885,282.79545 225.45235,293.19945 241.37935,285.47295 C252.84385,279.91245 256.53835,256.05795 256.18435,238.24845 C255.98485,228.17145 251.91985,222.36045 242.49685,218.45745 C233.07385,214.55595 206.74735,211.87095 203.70085,241.16895 C200.30785,273.80145 215.02885,282.79545 215.02885,282.79545" id="Fill-11" fill="#FFC999"></path>
        <path d="M238.190356,241.548634 C238.290908,241.269623 238.598604,241.124954 238.877616,241.225506 C239.125625,241.314885 239.267489,241.567935 239.225331,241.819023 L239.200744,241.912766 L237.063,247.842 L238.731958,264.758503 C238.762,265.063158 238.533333,265.32432 238.239517,265.346701 L238.149612,265.346056 L231.120612,264.716056 C230.825219,264.68958 230.607218,264.428654 230.633694,264.133262 C230.657522,263.867408 230.871255,263.664242 231.129105,263.645569 L231.216488,263.646344 L237.599,264.218 L235.983142,247.826897 C235.977919,247.773929 235.980613,247.720628 235.99101,247.668725 L236.012356,247.592134 L238.190356,241.548634 Z" id="Stroke-13" fill="#DD936F" fill-rule="nonzero"></path>
        <path d="M224.918826,268.249411 C225.060868,267.860313 225.491442,267.660035 225.880539,267.802076 L226.111331,267.880268 C226.212126,267.912759 226.336602,267.951344 226.484204,267.995027 L226.639494,268.040373 C227.282542,268.225723 228.036512,268.411733 228.894362,268.585758 C231.521842,269.118776 234.515744,269.423424 237.81023,269.381162 C238.224409,269.375849 238.564475,269.7073 238.569851,270.12148 C238.575101,270.535659 238.24365,270.875725 237.82947,270.881038 C234.424247,270.924721 231.324563,270.609309 228.596143,270.055815 C227.847768,269.903997 227.172338,269.742833 226.573867,269.579729 L226.224051,269.481694 C225.809836,269.362302 225.521563,269.267854 225.366161,269.211124 C224.977063,269.069082 224.776785,268.638508 224.918826,268.249411 Z" id="Stroke-15" fill="#FF7A46" fill-rule="nonzero"></path>
        <g id="分组" transform="translate(200.500000, 203.989500)">
            <mask id="mask-2" fill="white">
                <use xlink:href="#path-1"></use>
            </mask>
            <g id="Clip-18"></g>
            <path d="M5.29515,50.07375 L0.70215,38.21475 C0.70215,38.21475 -1.30185,21.57525 3.16215,14.94675 C10.08915,4.65975 23.44665,6.28125 31.68015,4.17075 C39.91365,2.06025 40.10415,-0.62025 43.28265,0.14325 C46.46115,0.90825 58.07715,10.85175 58.57365,20.09025 C59.01015,28.21425 54.94965,48.39525 54.94965,48.39525 C54.94965,48.39525 54.49215,30.12075 53.22615,25.18125 C47.19165,21.92625 24.32415,19.52325 14.48265,21.51975 C14.48265,21.51975 13.04415,27.58125 12.13665,31.86225 C6.66015,35.01375 5.29515,50.07375 5.29515,50.07375" id="Fill-17" fill="#253368" mask="url(#mask-2)"></path>
        </g>
        <path d="M217.481718,284.359798 C217.61493,284.094822 217.937726,283.988006 218.202702,284.121218 C226.789022,288.437838 233.778034,288.497554 239.124409,286.034816 C239.878602,285.687406 240.527231,285.316234 241.068756,284.946657 L241.315224,284.773447 C241.498084,284.640788 241.624541,284.53858 241.694001,284.476139 C241.914562,284.27787 242.254091,284.29594 242.452361,284.516501 C242.65063,284.737062 242.63256,285.076591 242.411999,285.274861 C242.280214,285.393327 242.033891,285.588258 241.674177,285.833754 C241.08444,286.236235 240.383886,286.637121 239.573752,287.010298 C233.933559,289.60838 226.601672,289.545735 217.720298,285.080782 C217.455322,284.94757 217.348506,284.624774 217.481718,284.359798 Z" id="Stroke-19" fill="#DD936F" fill-rule="nonzero"></path>
        <path d="M232.627981,246.566993 L237.813481,246.866993 C238.405645,246.901252 238.857916,247.409067 238.823657,248.001231 C238.791682,248.553917 238.347187,248.984741 237.806612,249.011875 L237.689419,249.011407 L232.503919,248.711407 C231.911755,248.677148 231.459484,248.169333 231.493743,247.577169 C231.525718,247.024483 231.970213,246.593659 232.510788,246.566525 L232.627981,246.566993 Z" id="Stroke-21" fill="#393C68" fill-rule="nonzero"></path>
        <path d="M232.660382,249.937775 C233.638882,249.599044 234.639139,249.427134 235.613445,249.521493 C236.77553,249.634038 237.793945,250.125844 238.558827,251.051104 C238.936753,251.508273 238.872515,252.185251 238.415346,252.563177 C237.990832,252.914109 237.376789,252.883786 236.988645,252.511628 L236.903273,252.419696 C236.520963,251.957224 236.029361,251.719823 235.406386,251.65949 C234.784678,251.599279 234.074347,251.721361 233.363052,251.967593 L233.080755,252.071505 C232.865403,252.155751 232.702009,252.231824 232.607203,252.282419 C232.083902,252.561683 231.433296,252.363853 231.154031,251.840553 C230.874767,251.317252 231.072597,250.666646 231.595897,250.387381 L231.822907,250.274238 C232.039562,250.17251 232.323148,250.054517 232.660382,249.937775 Z" id="Stroke-23" fill="#393C68" fill-rule="nonzero"></path>
        <path d="M230.061657,274.09395 L234.284157,274.39395 C234.579988,274.414968 234.802768,274.671826 234.78175,274.967657 C234.762833,275.233905 234.552887,275.440981 234.295426,275.464412 L234.208043,275.46525 L229.985543,275.16525 C229.689712,275.144232 229.466932,274.887374 229.48795,274.591543 C229.506867,274.325295 229.716813,274.118219 229.974274,274.094788 L230.061657,274.09395 Z" id="Stroke-25" fill="#DD936F" fill-rule="nonzero"></path>
        <path d="M204.959683,244.514691 L213.452683,245.165691 C214.044102,245.211024 214.486792,245.727214 214.441459,246.318633 C214.399148,246.870624 213.946669,247.293055 213.405681,247.310069 L213.288517,247.307409 L204.795517,246.656409 C204.204098,246.611076 203.761408,246.094886 203.806741,245.503467 C203.849052,244.951476 204.301531,244.529045 204.842519,244.512031 L204.959683,244.514691 Z" id="Stroke-27" fill="#393C68" fill-rule="nonzero"></path>
        <path d="M214.1257,244.6032 L230.3467,245.7537 C231.4807,245.8347 232.3327,246.8142 232.2457,247.9467 C232.0807,250.0587 231.7207,253.4382 230.9662,256.2987 C230.0752,259.6737 226.8502,261.5502 223.3597,261.4647 C219.0007,261.3567 215.1007,261.0852 213.2902,258.6912 C210.5302,255.0417 211.6672,249.4377 211.9432,246.4467 C212.0452,245.3502 213.0262,244.5252 214.1257,244.6032" id="Fill-29" fill="#FFFFFF"></path>
        <path d="M214.15101,244.246346 C212.856569,244.154517 211.706922,245.124277 211.586988,246.413564 L211.518451,247.073936 L211.381531,248.259542 C211.142053,250.359868 211.058366,251.803988 211.158026,253.313957 C211.305515,255.548575 211.877855,257.416772 213.004861,258.906993 C214.647518,261.079057 217.378631,261.674371 223.350839,261.82234 C227.161337,261.915679 230.411153,259.80269 231.312099,256.390017 C231.953782,253.957234 232.364657,251.017209 232.602363,247.974564 C232.704519,246.644778 231.704949,245.492056 230.372189,245.396859 L214.15101,244.246346 Z M214.100384,244.960053 L230.32139,246.110554 C231.259262,246.177544 231.960666,246.986415 231.889001,247.919298 C231.65439,250.922311 231.248783,253.824648 230.620281,256.207459 C229.809474,259.278696 226.865666,261.192722 223.36846,261.107057 L222.587648,261.084365 C217.388714,260.909214 214.962288,260.309086 213.57554,258.475407 C212.543203,257.110367 212.010995,255.373162 211.871973,253.266835 C211.790127,252.026773 211.837083,250.821791 211.997789,249.219623 L212.268747,246.791394 C212.28024,246.680734 212.290326,246.578298 212.299437,246.479572 C212.383226,245.578837 213.193096,244.895689 214.100384,244.960053 Z" id="Stroke-31" fill="#253368" fill-rule="nonzero"></path>
        <path d="M239.4397,246.21825 L257.8057,247.52175 C258.2947,250.25325 256.9042,260.58525 253.5937,262.58625 C249.2152,264.49725 240.7537,262.93575 239.5897,260.58825 C237.8197,257.02725 237.5377,250.45425 237.7717,247.64925 C237.8437,246.79425 238.5847,246.15675 239.4397,246.21825" id="Fill-33" fill="#FFFFFF"></path>
        <path d="M239.465027,245.861398 C238.415339,245.785894 237.503678,246.568696 237.415212,247.61923 C237.083368,251.597104 237.736222,257.663056 239.269342,260.747485 C240.593463,263.41791 249.389392,264.811563 253.736804,262.914131 C256.735047,261.105517 258.869105,251.431691 258.157851,247.458707 C258.128994,247.297513 257.994373,247.176491 257.831027,247.164898 L239.465027,245.861398 Z M257.495,247.858 L257.516278,248.020116 C257.96428,251.983357 255.950112,260.743915 253.40864,262.280083 C249.412225,264.020919 241.032773,262.693254 239.910212,260.429325 C238.44618,257.48389 237.806268,251.538192 238.128212,247.678991 C238.183834,247.018471 238.75539,246.527702 239.414033,246.575078 L257.495,247.858 Z" id="Stroke-35" fill="#253368" fill-rule="nonzero"></path>
        <path d="M212.461669,243.521049 L232.531669,245.474049 C233.122034,245.531497 233.554049,246.056654 233.496601,246.647019 C233.442983,247.198027 232.981938,247.611093 232.440715,247.617012 L232.323631,247.611951 L212.253631,245.658951 C211.663266,245.601503 211.231251,245.076346 211.288699,244.485981 C211.342317,243.934973 211.803362,243.521907 212.344585,243.515988 L212.461669,243.521049 Z" id="Stroke-37" fill="#393C68" fill-rule="nonzero"></path>
        <path d="M238.262812,245.743579 L257.987812,246.864079 C258.580011,246.897719 259.032812,247.405062 258.999171,247.997262 C258.967774,248.549981 258.523728,248.981269 257.983182,249.008966 L257.865988,249.008621 L238.140988,247.888121 C237.548789,247.854481 237.095988,247.347138 237.129629,246.754938 C237.161026,246.202219 237.605072,245.770931 238.145618,245.743234 L238.262812,245.743579 Z" id="Stroke-39" fill="#393C68" fill-rule="nonzero"></path>
        <path d="M204.13255,244.68375 C202.30255,242.32725 199.16305,241.38225 196.62355,243.58575 C192.53155,247.13475 194.28655,262.21425 204.06955,263.92425 C207.86905,263.82225 206.99005,248.36175 204.13255,244.68375" id="Fill-41" fill="#FFC999"></path>
        <path d="M199.112199,245.804111 C199.246647,245.539759 199.569938,245.434452 199.834289,245.568899 L200.002372,245.6609 C200.102122,245.718512 200.22431,245.793514 200.363865,245.885785 C200.747495,246.139435 201.130713,246.439592 201.489915,246.786709 C202.9304,248.178736 203.58022,249.896452 202.936302,251.870807 C202.701065,252.590879 202.324804,252.962131 201.670403,253.28168 L201.372949,253.417131 C200.795079,253.671199 200.64663,253.806184 200.555732,254.2663 C200.377815,255.169831 200.748716,255.88378 201.519718,256.466547 C201.755697,256.644913 202.011273,256.795433 202.266763,256.917471 L202.42906,256.991296 C202.500025,257.021822 202.554773,257.042804 202.589058,257.054411 C202.869971,257.149519 203.020597,257.454344 202.925489,257.735258 C202.830381,258.016171 202.525556,258.166797 202.244642,258.071689 C201.889564,257.951472 201.383045,257.709526 200.87211,257.323332 C199.802724,256.515028 199.233907,255.420112 199.502032,254.058475 C199.664591,253.235618 200.022166,252.865472 200.773569,252.510056 L201.063424,252.379813 C201.573044,252.152499 201.771633,251.977365 201.915316,251.537544 C202.413921,250.008744 201.915668,248.691675 200.743584,247.559022 C200.435204,247.261017 200.103157,247.00094 199.771522,246.781668 L199.559811,246.647038 C199.466816,246.590447 199.394272,246.550034 199.347411,246.526201 C199.083059,246.391753 198.977752,246.068462 199.112199,245.804111 Z" id="Stroke-43" fill="#DD936F" fill-rule="nonzero"></path>
        <path d="M215.385723,238.096775 C215.624987,237.303652 216.461902,236.85466 217.255025,237.093923 C220.695332,238.13177 225.603363,238.992662 229.291096,238.951593 C230.119472,238.942368 230.798482,239.60642 230.807802,240.434796 C230.816932,241.263172 230.15288,241.942182 229.324504,241.951407 C225.293153,241.996302 220.09752,241.084964 216.388575,239.966077 C215.595452,239.726813 215.14646,238.889898 215.385723,238.096775 Z" id="Stroke-45" fill="#253368" fill-rule="nonzero"></path>
        <path d="M240.954209,239.024269 C243.600235,238.500427 246.425709,238.505889 249.12388,239.411007 C250.50423,239.874053 251.783132,240.560731 252.93225,241.49179 C253.575916,242.013313 253.674933,242.957885 253.15341,243.60155 C252.631887,244.245216 251.687315,244.344233 251.04365,243.82271 C250.180802,243.123598 249.21916,242.607266 248.169765,242.25524 C246.039142,241.54051 243.714572,241.536016 241.536821,241.967152 C241.004252,242.072587 240.625924,242.174779 240.443398,242.235067 C239.656769,242.494888 238.808454,242.067826 238.548633,241.281198 C238.288812,240.494569 238.715874,239.646254 239.502502,239.386433 L239.760579,239.307225 C240.055364,239.22236 240.458516,239.122403 240.954209,239.024269 Z" id="Stroke-47" fill="#253368" fill-rule="nonzero"></path>
        <path d="M219.04038,248.935717 C219.453563,248.964921 219.764838,249.323547 219.735633,249.73673 C219.631358,251.211997 220.56094,252.442212 221.754044,252.526728 C222.946177,252.611253 224.040651,251.523882 224.144867,250.04947 C224.174071,249.636287 224.532697,249.325012 224.94588,249.354217 C225.359063,249.383421 225.670338,249.742047 225.641133,250.15523 C225.481441,252.414513 223.714963,254.169528 221.648005,254.022975 C219.580109,253.876491 218.079638,251.890759 218.239367,249.63097 C218.268571,249.217787 218.627197,248.906512 219.04038,248.935717 Z" id="Stroke-49" fill="#755654" fill-rule="nonzero"></path>
        <path d="M241.96458,250.562317 C242.377763,250.591521 242.689038,250.950147 242.659833,251.36333 C242.555526,252.839047 243.484083,254.068843 244.676695,254.153325 C245.869813,254.237842 246.963308,253.15109 247.067567,251.67607 C247.096771,251.262887 247.455397,250.951612 247.86858,250.980817 C248.281763,251.010021 248.593038,251.368647 248.563833,251.78183 C248.404106,254.041611 246.63876,255.796071 244.570705,255.649575 C242.502971,255.503103 241.003821,253.517603 241.163567,251.25757 C241.190338,250.878819 241.493914,250.585699 241.86258,250.561971 L241.96458,250.562317 Z" id="Stroke-51" fill="#755654" fill-rule="nonzero"></path>
        <path d="M258.5932,443.5239 L258.5932,443.5239 C247.7302,442.8279 239.3752,433.6419 239.7097,422.7609 L242.5282,331.1274 C242.9317,317.9964 254.1307,307.8114 267.2407,308.6514 C280.3507,309.4929 290.1562,321.0249 288.8812,334.0989 L279.9727,425.3424 C278.9152,436.1769 269.4577,444.2199 258.5932,443.5239" id="Fill-53" fill="#597EF7"></path>
        <path d="M257.647,509.19075 L235.6855,531.29325 L203.587,517.77825 C203.587,517.77825 179.089,543.82575 170.2195,521.01975 C161.35,498.21375 172.753,457.10625 172.753,457.10625 L256.351,457.66875 C256.351,457.66875 266.0935,493.42425 257.647,509.19075" id="Fill-55" fill="#ADC6FF"></path>
        <path d="M364.98925,408.34575 L365.17975,438.39225 L258.42325,444.08475 C246.99025,444.69375 237.36775,435.62775 237.295327,424.18125 C237.22225,412.73325 246.72925,403.54575 258.16825,404.01075 L364.98925,408.34575 Z" id="Fill-57" fill="#FFC999"></path>
        <path d="M263.707216,403.375858 L364.457716,407.599858 C364.824202,407.615223 365.120463,407.891845 365.169249,408.246056 L365.176285,408.344445 L365.366845,438.389445 C365.369307,438.787155 365.060937,439.117679 364.664008,439.142713 L350.911824,439.989947 C341.93486,440.534579 332.723745,441.079211 323.651177,441.597173 L317.130257,441.966116 L304.665299,442.650121 C275.697174,444.203166 257.469668,444.900968 254.298747,444.4109 C253.889393,444.347634 253.608834,443.9645 253.6721,443.555147 C253.735366,443.145793 254.1185,442.865234 254.527853,442.9285 L254.738454,442.956341 C258.5107,443.385751 278.534336,442.576335 309.246093,440.900073 L319.043727,440.356186 L328.110902,439.838582 C332.664158,439.575581 337.23656,439.307022 341.781507,439.03624 L363.862,437.689 L363.681,409.068 L263.644384,404.874542 C263.265021,404.858637 262.96332,404.563586 262.929036,404.195752 L262.926458,404.093784 C262.942363,403.714421 263.237414,403.41272 263.605248,403.378436 L263.707216,403.375858 Z" id="Stroke-59" fill="#597EF7" fill-rule="nonzero"></path>
        <path d="M348.671681,410.4288 C349.051369,410.426401 349.366952,410.706554 349.418941,411.072306 L349.426435,411.174031 L349.59295,437.359531 C349.595569,437.773736 349.261924,438.111651 348.847719,438.1143 C348.468031,438.116699 348.152448,437.836546 348.100459,437.470794 L348.092965,437.369069 L347.92645,411.183569 C347.923831,410.769364 348.257476,410.431449 348.671681,410.4288 Z" id="Stroke-61" fill="#597EF7" fill-rule="nonzero"></path>
        <path d="M357.2329,428.41616 C358.5229,428.4087 359.5759,429.4467 359.58344,430.7367 C359.5909,432.0267 358.5514,433.0782 357.2629,433.0872 C355.9729,433.0962 354.9199,432.0567 354.9124,430.7667 C354.9034,429.4767 355.9429,428.4237 357.2329,428.41616" id="Fill-63" fill="#FFFFFF"></path>
        <path d="M257.5891,434.14605 C257.5891,434.14605 279.9016,353.96955 274.0606,311.24505 C263.1826,306.19755 258.1021,303.64005 239.7331,298.85355 C235.8031,297.83055 227.0911,304.80105 222.2926,304.57155 C215.1976,304.23405 204.3061,295.21605 197.6206,296.34855 C172.0141,300.68655 157.9216,309.01905 157.9216,309.01905 L163.9906,375.86355 C164.7481,380.66505 165.1411,412.36455 166.9456,433.30155 C168.1576,447.35805 166.4716,453.99555 179.1931,453.99555 C202.8451,453.99555 240.8596,457.37055 256.3441,452.86605 C263.0371,450.91905 260.5366,441.96405 257.5891,434.14605" id="Fill-65" fill="#597EF7"></path>
        <polygon id="Fill-67" fill="#597EF7" points="240.955 294.14505 247.765 302.81205 237.739 318.00255 224.365 302.93955"></polygon>
        <polygon id="Fill-69" fill="#597EF7" points="223.16155 303.3582 202.38655 288.5967 194.18605 298.4382 207.63505 316.8732"></polygon>
        <path d="M196.154728,298.389729 C196.453198,298.189138 196.848122,298.243036 197.083237,298.501163 L197.148721,298.584678 L208.353,315.257 L223.347293,302.948591 C223.594533,302.745632 223.941513,302.733746 224.199788,302.906645 L224.292115,302.980131 L239.016,316.809 L246.407124,301.360111 C246.562311,301.035706 246.92986,300.881507 247.263508,300.984405 L247.362339,301.023074 C247.686744,301.178261 247.840943,301.54581 247.738045,301.879458 L247.699376,301.978289 L239.885876,318.311789 C239.691644,318.717815 239.18283,318.839569 238.828258,318.589194 L238.749385,318.524769 L223.769,304.455 L208.653207,316.864309 C208.353792,317.110098 207.919985,317.07052 207.668198,316.792055 L207.604279,316.710222 L195.959779,299.383722 C195.739129,299.055405 195.82641,298.610379 196.154728,298.389729 Z" id="Stroke-71" fill="#1D39C4" fill-rule="nonzero"></path>
        <path d="M223.751502,302.787865 C224.146101,302.760113 224.488484,303.057502 224.516235,303.452102 L224.704339,306.313033 L224.890895,309.354039 C225.171709,314.064996 225.452507,319.350094 225.714579,325.086879 C226.582461,344.084935 227.041983,363.294452 226.882366,381.338151 L226.856743,383.7913 C226.602829,404.841275 225.490375,422.641368 223.360184,436.179203 L223.189,437.233 L223.404118,437.422974 C225.385909,439.225644 226.433707,441.478126 226.663593,444.057213 L226.688949,444.395458 C226.848581,447.013379 226.192212,449.784178 225.004948,452.528803 C224.634106,453.386089 224.236873,454.178382 223.839061,454.88771 C223.734191,455.0747 223.634726,455.246096 223.542023,455.400933 L223.297468,455.79524 C223.079929,456.125627 222.635747,456.217107 222.30536,455.999568 C221.974973,455.782029 221.883493,455.337847 222.101032,455.00746 L222.262572,454.749835 C222.329287,454.639793 222.408193,454.506083 222.49726,454.350206 L222.589638,454.186996 C222.964475,453.518635 223.339891,452.769856 223.690188,451.960067 C224.795826,449.404136 225.402928,446.841314 225.259104,444.482645 C225.103082,441.923914 224.066094,439.764934 221.968634,438.079703 C221.766779,437.917519 221.668176,437.659015 221.710745,437.403599 C223.98096,423.782313 225.162007,405.52258 225.424347,383.774022 C225.640327,365.868812 225.22848,346.730828 224.39922,327.74076 L224.283571,325.152251 C224.039264,319.804332 223.778675,314.849637 223.517014,310.387804 L223.217514,305.508799 L223.087265,303.552598 C223.059513,303.157999 223.356902,302.815616 223.751502,302.787865 Z" id="Stroke-73" fill="#1D39C4" fill-rule="nonzero"></path>
        <path d="M273.029446,332.490999 C273.390183,332.527802 273.660961,332.826283 273.672661,333.178894 L273.661283,333.354533 L273.181901,337.895822 C272.847777,341.003952 272.471476,344.412549 272.057042,348.058078 L271.827229,350.069663 C270.471783,361.876385 269.003146,373.683278 267.465243,384.799442 L267.156751,387.013261 C264.542213,405.640196 261.989265,420.36406 259.586438,429.736213 C259.197027,431.2551 258.81272,432.627639 258.433553,433.849906 L258.355,434.096 L258.439057,434.277522 C262.058294,442.214534 261.900085,447.811728 259.330842,451.406588 L259.188318,451.600687 C258.423603,452.61461 257.645255,453.222783 257.092208,453.504342 C256.739689,453.683811 256.308427,453.543527 256.128958,453.191008 C255.949489,452.838489 256.089773,452.407227 256.442292,452.227758 C256.518451,452.188986 256.681921,452.086688 256.904139,451.913055 C257.289892,451.611641 257.679123,451.222733 258.044637,450.738105 C260.451836,447.546443 260.623579,442.313852 256.940611,434.449828 C256.863978,434.286199 256.85202,434.099652 256.907133,433.927577 C257.329553,432.608697 257.760375,431.090585 258.198817,429.380456 L258.434015,428.447784 C260.751796,419.107049 263.216092,404.782263 265.738158,386.814142 C267.386369,375.071681 268.959535,362.489078 270.404077,349.906281 L271.070131,344.019637 C271.280591,342.131321 271.479274,340.320343 271.665522,338.59702 L272.244199,333.130854 C272.281002,332.770117 272.579483,332.499339 272.932094,332.487639 L273.029446,332.490999 Z" id="Stroke-75" fill="#1D39C4" fill-rule="nonzero"></path>
        <path d="M271.845588,340.371327 L246.506088,339.807147 C246.13143,339.798988 245.81368,340.080862 245.777286,340.453841 L243.524286,363.543341 C243.504583,363.745258 243.571433,363.946058 243.708234,364.095872 L255.534234,377.046872 C255.785609,377.32216 256.206118,377.3586 256.501101,377.130656 L268.889601,367.557656 C269.039488,367.441834 269.137392,367.271352 269.161886,367.08352 L272.539886,341.18002 C272.594969,340.75763 272.271449,340.380806 271.845588,340.371327 Z M247.138,341.254 L271.016,341.785 L267.779,366.605 L256.148,375.593 L244.981,363.364 L247.138,341.254 Z" id="Stroke-77" fill="#1D39C4" fill-rule="nonzero"></path>
        <path d="M228.7177,318.77115 C228.8557,320.10015 229.8652,321.08415 230.9722,320.96865 C232.0807,320.85315 232.8667,319.68315 232.7272,318.35415 C232.5892,317.02515 231.5797,316.04115 230.4727,316.15665 C229.3657,316.27065 228.5797,317.44215 228.7177,318.77115" id="Fill-79" fill="#FFFFFF"></path>
        <path d="M229.8442,342.98505 C229.9822,344.31405 230.9917,345.29805 232.0987,345.18255 C233.2072,345.06705 233.9932,343.89705 233.8537,342.56805 C233.7157,341.23905 232.7062,340.25505 231.5992,340.37055 C230.4922,340.48605 229.7062,341.65605 229.8442,342.98505" id="Fill-81" fill="#FFFFFF"></path>
        <path d="M230.96995,370.01505 C231.10795,371.34405 232.11895,372.32805 233.22595,372.21255 C234.33295,372.09705 235.11895,370.92705 234.98095,369.59805 C234.84295,368.26905 233.83195,367.28505 232.72495,367.40055 C231.61795,367.51455 230.83195,368.68605 230.96995,370.01505" id="Fill-83" fill="#FFFFFF"></path>
        <path d="M230.44405,396.9624 C230.15455,398.2674 230.80105,399.5199 231.88855,399.7614 C232.97455,400.0014 234.09055,399.1404 234.38005,397.8369 C234.66955,396.5319 234.02305,395.2779 232.93705,395.0379 C231.84955,394.7964 230.73355,395.6574 230.44405,396.9624" id="Fill-85" fill="#FFFFFF"></path>
        <path d="M226.56805,436.43115 C226.12555,437.69115 226.61755,439.01265 227.66905,439.38165 C228.71905,439.75065 229.92955,439.02765 230.37205,437.76765 C230.81455,436.50615 230.32255,435.18615 229.27255,434.81715 C228.22255,434.44815 227.01055,435.17115 226.56805,436.43115" id="Fill-87" fill="#FFFFFF"></path>
        <path d="M141.57205,438.02925 L141.57205,438.02925 C130.98055,435.51075 124.29505,425.04825 126.45955,414.37875 L144.68305,324.53175 C147.29455,311.65725 160.05055,303.50625 172.83055,306.54525 C185.61055,309.58425 193.33405,322.60275 189.87205,335.27625 L165.71155,423.71175 C162.84205,434.21325 152.16355,440.54625 141.57205,438.02925" id="Fill-89" fill="#FFC999"></path>
        <path d="M173.8477,399.08865 L191.0152,334.34565 C194.4772,321.67515 186.7552,308.65365 173.9752,305.61615 C161.1937,302.57715 146.6137,311.31915 144.0022,324.19365 L130.4872,390.07815 C130.4872,390.07815 173.4082,398.64915 173.8477,399.08865" id="Fill-91" fill="#597EF7"></path>
        <path d="M303.6994,821.75025 C303.6994,821.75025 314.5579,836.47275 338.8414,828.60825 C348.6949,825.41775 360.9634,831.96825 354.8899,840.43425 C351.1639,845.62875 341.4154,850.48275 330.8179,853.94775 C314.9329,859.14225 314.6494,851.42475 306.6829,855.85575 C302.0644,858.42525 288.7894,863.12925 286.3864,859.89075 C282.1894,854.23425 281.6404,852.60375 280.1899,841.55625 C274.8754,801.11625 288.0964,787.79625 303.6994,821.75025" id="Fill-93" fill="#253368"></path>
        <path d="M272.33125,827.4045 L230.36425,663.6165 C226.84525,650.352 235.25725,636.8715 248.71825,634.206 C261.71575,631.6305 274.30825,640.182 276.70975,653.2125 L307.46575,820.1235 C307.46575,820.1235 294.15325,830.7525 272.33125,827.4045" id="Fill-95" fill="#ADC6FF"></path>
        <path d="M182.160692,360.63214 C182.2513,360.247083 182.636903,360.008385 183.02196,360.098992 C183.374929,360.18205 183.604916,360.512984 183.571005,360.864155 L183.555108,360.96026 L174.544608,399.25226 C174.462614,399.600708 174.138615,399.830083 173.791189,399.802321 L173.696021,399.78827 L132.026021,390.77777 C131.639382,390.694166 131.393725,390.312959 131.47733,389.926321 C131.553967,389.571902 131.880674,389.335947 132.232402,389.363479 L132.328779,389.37763 L173.311,398.239 L182.160692,360.63214 Z" id="Stroke-97" fill="#1D39C4" fill-rule="nonzero"></path>
        <path d="M355.9804,449.1951 L256.0579,450.132864 C252.2584,450.1686 249.5119,446.5161 250.6009,442.8756 L271.6669,372.4506 C272.3764,370.0821 274.5454,368.4501 277.0189,368.4276 L376.9414,367.488336 C380.7409,367.4526 383.4874,371.1066 382.3984,374.7471 L361.3324,445.1706 C360.6229,447.5391 358.4539,449.1711 355.9804,449.1951" id="Fill-99" fill="#ADC6FF"></path>
        <path d="M358.7959,449.1951 L258.8734,450.132864 C255.0754,450.1686 252.3274,446.5161 253.4164,442.8756 L274.4824,372.4506 C275.1919,370.0821 277.3609,368.4501 279.8344,368.4276 L379.7569,367.488336 C383.5564,367.4526 386.3029,371.1066 385.2139,374.7471 L364.1479,445.1706 C363.4384,447.5391 361.2694,449.1711 358.7959,449.1951" id="Fill-101" fill="#12183F"></path>
        <path d="M252.7171,447.44385 C252.7171,447.44385 230.4076,443.62185 227.5246,433.38285 C224.9131,424.11135 231.8491,419.36085 231.8491,419.36085 C231.8491,419.36085 245.6266,416.33385 256.5106,416.00535 C263.6416,415.78785 277.1371,413.35785 278.2291,416.97735 C279.6511,421.69935 265.4476,421.93335 264.1396,425.27385 C261.4891,432.04185 283.8751,434.02635 287.3326,436.29735 C294.0886,440.73435 279.4426,452.23335 252.7171,447.44385" id="Fill-103" fill="#FFC999"></path>
        <path d="M264.814335,435.896647 C264.936392,435.626351 265.254457,435.506179 265.524753,435.628235 L265.908629,435.793246 L266.317504,435.961046 C266.46215,436.019307 266.615067,436.079813 266.776008,436.142316 L267.023404,436.237537 C268.23235,436.698761 269.592365,437.160332 271.072251,437.591224 C276.191781,439.081853 281.402703,439.83837 286.299158,439.467186 C286.594887,439.444768 286.852795,439.66633 286.875214,439.962058 C286.897632,440.257787 286.67607,440.515695 286.380342,440.538114 C281.338086,440.92035 276.005198,440.146127 270.772008,438.622403 C269.478584,438.245802 268.274529,437.846072 267.179132,437.442819 L266.640577,437.24099 C266.294051,437.108787 265.979302,436.984014 265.698298,436.86866 L265.082747,436.607065 C264.812451,436.485008 264.692279,436.166943 264.814335,435.896647 Z" id="Stroke-105" fill="#DD936F" fill-rule="nonzero"></path>
        <path d="M261.073422,441.078249 C261.167973,440.797148 261.4725,440.64592 261.753601,440.740472 C269.745815,443.428753 276.618382,444.222503 281.714731,443.963016 L282.124043,443.939685 C282.459109,443.918522 282.684887,443.897644 282.795706,443.884301 C283.090156,443.848847 283.357596,444.058806 283.393049,444.353256 C283.428503,444.647706 283.218544,444.915146 282.924094,444.950599 L282.642253,444.978554 C282.51996,444.989016 282.369555,445.000319 282.191744,445.011549 C276.92501,445.34421 269.759957,444.566638 261.411199,441.758428 C261.130098,441.663877 260.97887,441.35935 261.073422,441.078249 Z" id="Stroke-107" fill="#DD936F" fill-rule="nonzero"></path>
        <path d="M256.293627,444.619174 C256.406722,444.345007 256.720659,444.214432 256.994826,444.327527 L257.331617,444.454672 C257.623257,444.559917 257.974725,444.67768 258.386033,444.80488 C259.567523,445.170265 260.988544,445.536412 262.649233,445.878667 C265.554608,446.477441 268.873079,446.936893 272.605,447.201293 C272.900836,447.222252 273.123667,447.479065 273.102707,447.7749 C273.081748,448.070736 272.824935,448.293567 272.5291,448.272607 C268.749626,448.004838 265.384097,447.538871 262.432446,446.93056 C260.925952,446.620084 259.609283,446.289457 258.482402,445.956056 L258.068718,445.830934 C257.812374,445.751658 257.577638,445.675653 257.364507,445.603587 L256.967053,445.464904 C256.779804,445.397332 256.652547,445.348124 256.585274,445.320373 C256.311107,445.207278 256.180532,444.893341 256.293627,444.619174 Z" id="Stroke-109" fill="#DD936F" fill-rule="nonzero"></path>
        <path d="M241.9966,430.1382 L241.9966,430.1382 C241.6726,436.1382 236.7961,440.8842 230.7901,441.0462 L146.5411,443.3202 C134.7721,443.5317 125.1916,434.1372 125.5081,422.6937 C125.8231,411.2502 135.9076,402.3987 147.6481,403.2612 L232.4731,418.1547 C238.2226,419.1642 242.3116,424.3092 241.9966,430.1382" id="Fill-111" fill="#FFC999"></path>
        <path d="M260.2192,674.91285 L260.2192,674.91285 C272.3137,670.26435 278.5672,656.88735 274.3807,644.62635 L227.6947,507.93735 C222.2752,492.06885 204.7582,483.87885 189.1072,489.89385 C173.4562,495.91035 165.9337,513.72435 172.5367,529.13685 L229.4182,661.90785 C234.5212,673.81635 248.1247,679.56135 260.2192,674.91285" id="Fill-113" fill="#ADC6FF"></path>
        <polygon id="Fill-115" fill="#ADC6FF" points="258.6511 464.9949 172.4986 464.9949 174.3811 453.1779 257.1511 452.7954"></polygon>
        <path d="M167.519115,311.385505 L167.815462,311.456763 C167.940446,311.489394 168.090985,311.531167 168.26513,311.582877 C168.836499,311.752537 169.470783,311.97463 170.152387,312.255606 C172.094823,313.056331 174.036056,314.169892 175.849347,315.649079 C181.028731,319.87415 184.13785,326.174184 184.13785,334.8939 C184.13785,335.289474 183.817174,335.61015 183.4216,335.61015 C183.026026,335.61015 182.70535,335.289474 182.70535,334.8939 C182.70535,326.612804 179.795719,320.716994 174.943853,316.759096 C173.246206,315.374244 171.425721,314.329949 169.606438,313.579991 C169.09844,313.37058 168.620345,313.196869 168.180217,313.055823 L167.857366,312.956116 C167.547357,312.864063 167.331005,312.809798 167.224085,312.787295 C166.836991,312.705824 166.589235,312.325978 166.670705,311.938885 C166.745387,311.584049 167.070786,311.346295 167.422662,311.371887 L167.519115,311.385505 Z" id="Stroke-117" fill="#1D39C4" fill-rule="nonzero"></path>
        <path d="M366.28195,409.51095 C366.28195,409.51095 379.15645,404.03595 382.17295,405.58095 C386.84695,407.97495 379.87945,416.13945 379.87945,416.13945 C379.87945,416.13945 382.97695,420.49545 378.37045,424.23195 C378.31045,429.56895 374.86795,430.80495 374.86795,430.80495 C374.86795,430.80495 376.20895,435.39645 371.23495,436.77195 C366.25945,438.14745 357.81145,433.90995 361.48195,428.32695 C359.27695,423.58095 363.48145,421.35045 363.48145,421.35045 C363.48145,421.35045 362.17795,417.14295 366.31795,415.06995 C364.31995,412.62345 364.94395,410.09595 366.28195,409.51095" id="Fill-119" fill="#FFC999"></path>
        <path d="M377.659798,412.741132 C377.952768,412.695015 378.227652,412.895129 378.273768,413.188098 C378.315273,413.451771 378.157331,413.700794 377.911753,413.781581 L377.826802,413.802068 L366.401302,415.600568 C366.108332,415.646685 365.833448,415.446571 365.787332,415.153602 C365.745827,414.889929 365.903769,414.640906 366.149347,414.560119 L366.234298,414.539632 L377.659798,412.741132 Z" id="Stroke-121" fill="#DD936F" fill-rule="nonzero"></path>
        <path d="M363.533872,420.815613 L373.507372,421.774113 C373.802588,421.802485 374.018909,422.064805 373.990537,422.360022 C373.965003,422.625717 373.74997,422.827506 373.492006,422.844524 L373.404628,422.843187 L363.431128,421.884687 C363.135912,421.856315 362.919591,421.593995 362.947963,421.298778 C362.973497,421.033083 363.18853,420.831294 363.446494,420.814276 L363.533872,420.815613 Z" id="Stroke-123" fill="#DD936F" fill-rule="nonzero"></path>
        <path d="M361.583768,427.80002 L370.859768,429.59402 C371.150949,429.650335 371.341345,429.932036 371.28503,430.223218 C371.234347,430.485281 371.0011,430.665708 370.742687,430.658119 L370.655832,430.64848 L361.379832,428.85448 C361.088651,428.798165 360.898255,428.516464 360.95457,428.225282 C361.005253,427.963219 361.2385,427.782792 361.496913,427.790381 L361.583768,427.80002 Z" id="Stroke-125" fill="#DD936F" fill-rule="nonzero"></path>
        <path d="M235.1968,459.7089 C235.3348,461.0379 236.3443,462.0219 237.4513,461.9064 C238.5598,461.7909 239.3443,460.6209 239.2063,459.2919 C239.0683,457.9629 238.0588,456.9789 236.9503,457.0944 C235.8448,457.2084 235.0588,458.3799 235.1968,459.7089" id="Fill-127" fill="#FFFFFF"></path>
        <path d="M258.41815,451.95765 C258.714727,451.95765 258.95515,452.198073 258.95515,452.49465 C258.95515,452.761569 258.760407,452.983004 258.505254,453.024622 L258.41815,453.03165 L173.76565,453.03165 C173.469073,453.03165 173.22865,452.791227 173.22865,452.49465 C173.22865,452.227731 173.423393,452.006296 173.678546,451.964678 L173.76565,451.95765 L258.41815,451.95765 Z" id="Stroke-129" fill="#597EF7" fill-rule="nonzero"></path>
        <path d="M255.6511,463.36065 C255.947677,463.36065 256.1881,463.601073 256.1881,463.89765 C256.1881,464.164569 255.993357,464.386004 255.738204,464.427622 L255.6511,464.43465 L173.9986,464.43465 C173.702023,464.43465 173.4616,464.194227 173.4616,463.89765 C173.4616,463.630731 173.656343,463.409296 173.911496,463.367678 L173.9986,463.36065 L255.6511,463.36065 Z" id="Stroke-131" fill="#597EF7" fill-rule="nonzero"></path>
        <path d="M230.696412,452.802138 C230.962999,452.789503 231.193872,452.972958 231.248167,453.225717 L231.259531,453.312362 L231.817,464.483 L231.910187,464.719421 L232.057725,465.115651 L232.248457,465.653167 C232.412083,466.12583 232.587122,466.660389 232.771359,467.257331 C233.506083,469.637905 234.239941,472.523612 234.924283,475.925118 C237.891931,490.675746 239.001111,509.829677 237.170117,533.62435 C237.147363,533.920053 236.889203,534.141321 236.5935,534.118567 C236.297797,534.095813 236.076529,533.837653 236.099283,533.54195 L236.264135,531.299092 C237.850865,508.639244 236.725751,490.324529 233.87138,476.136949 C233.194165,472.770864 232.469211,469.920167 231.745124,467.574061 L231.533222,466.902261 C231.429672,466.581282 231.329828,466.282661 231.234169,466.006292 L230.997425,465.34377 L230.790785,464.809544 L230.749369,464.627938 L230.186869,453.365938 C230.172074,453.06973 230.400204,452.817613 230.696412,452.802138 Z" id="Stroke-133" fill="#597EF7" fill-rule="nonzero"></path>
        <path d="M241.146754,462.814438 C241.433921,462.740324 241.726798,462.913037 241.800912,463.200204 L242.01709,464.069119 L242.384062,465.612976 C242.449072,465.892899 242.515887,466.183855 242.584325,466.485434 C243.170696,469.069334 243.756985,471.902371 244.304204,474.895928 C245.333882,480.528771 246.102871,486.057969 246.503792,491.24122 C247.211726,500.393643 246.723414,507.764411 244.735548,512.745902 L244.591003,513.097652 L244.526084,513.210554 C242.267418,516.222777 240.154844,518.173012 238.239495,519.267463 C237.04983,519.94725 236.166024,520.1829 235.64995,520.1829 C235.353373,520.1829 235.11295,519.942477 235.11295,519.6459 C235.11295,519.349323 235.353373,519.1089 235.64995,519.1089 C235.709204,519.1089 235.867304,519.088504 236.118821,519.021441 C236.568601,518.901516 237.099783,518.681735 237.706655,518.334962 C239.409527,517.361923 241.31794,515.626204 243.384094,512.938648 L243.625,512.619 L243.740727,512.341103 C245.604768,507.664373 246.105394,500.665155 245.480704,491.963762 L245.432991,491.324046 C245.035223,486.181564 244.271182,480.687946 243.247711,475.089054 C242.763847,472.442085 242.249248,469.921146 241.731292,467.588788 L241.536955,466.723116 C241.366936,465.973909 241.207074,465.290991 241.06019,464.680795 L240.760988,463.468596 C240.686874,463.181429 240.859587,462.888552 241.146754,462.814438 Z" id="Stroke-135" fill="#597EF7" fill-rule="nonzero"></path>
    </g>
</svg>