<?xml version="1.0" encoding="UTF-8"?>
<svg width="512px" height="1024px" viewBox="0 0 512 1024" version="1.1" xmlns="http://www.w3.org/2000/svg" xmlns:xlink="http://www.w3.org/1999/xlink">
    <!-- Generator: Sketch 61.2 (89653) - https://sketch.com -->
    <title>2.人物组件/7.设计师/坐姿/专注工作</title>
    <desc>Created with Sketch.</desc>
    <defs>
        <polygon id="path-1" points="1.49318017 0 154.997377 0 154.997377 133.254807 1.49318017 133.254807"></polygon>
        <polygon id="path-3" points="0.8598 0.92835 204.957 0.92835 204.957 156.660407 0.8598 156.660407"></polygon>
    </defs>
    <g id="2.人物组件/7.设计师/坐姿/专注工作" stroke="none" stroke-width="1" fill="none" fill-rule="evenodd">
        <g id="分组" transform="translate(188.500000, 339.000000)">
            <mask id="mask-2" fill="white">
                <use xlink:href="#path-1"></use>
            </mask>
            <g id="Clip-2"></g>
            <path d="M35.29125,51.58935 C35.29125,51.58935 19.13175,49.24635 14.86125,66.32685 C-0.79875,72.02235 3.47325,89.10435 3.47325,89.10435 C3.47325,89.10435 -4.39275,102.52335 11.23125,109.39785 C12.48075,123.14535 28.10475,120.64635 28.10475,120.64635 C28.10475,120.64635 31.85475,131.27085 43.72875,126.89535 C56.54025,136.85985 80.68425,134.86035 89.25825,122.67885 C106.25625,135.36735 135.83475,119.87835 132.12375,108.29535 C151.97625,107.09235 161.60175,86.03685 149.96925,68.15085 C158.90475,54.00285 148.71825,45.65235 148.71825,45.65235 C148.71825,45.65235 151.53075,13.15485 129.03375,8.78085 C117.47175,-8.71815 92.47425,5.34285 92.47425,5.34285 C92.47425,5.34285 75.91275,1.90635 69.97575,16.27935 C51.47025,19.12635 52.33875,29.29935 50.91525,37.84035 C34.35375,38.77785 35.29125,51.58935 35.29125,51.58935" id="Fill-1" fill="#253368" mask="url(#mask-2)"></path>
        </g>
        <path d="M275.14135,374.7222 C288.11485,376.9992 292.05985,367.1817 292.05985,367.1817 C292.05985,367.1817 297.41335,353.3532 298.78585,361.8417 C299.51335,366.3537 306.48835,360.3672 309.69535,365.1762 C311.85385,368.4132 306.45835,372.5847 313.47085,381.2157 C317.53435,386.2152 301.50685,390.2037 311.39485,399.4197 C311.39485,399.4197 304.36435,410.6682 316.43935,414.3372 L317.71885,427.5282 C318.46435,435.2037 312.42385,441.8472 304.71235,441.835216 C297.35935,441.8232 291.46735,435.7407 291.68935,428.3907 L292.17685,412.3092 C273.42985,412.3092 272.51485,386.5407 275.14135,374.7222" id="Fill-3" fill="#FFC999"></path>
        <path d="M297.883105,388.438562 C298.208146,388.11338 298.735256,388.113265 299.060438,388.438305 C299.38562,388.763346 299.385735,389.290456 299.060695,389.615638 C298.63856,390.037957 297.87449,390.641725 296.79995,391.23956 C294.681386,392.418253 292.250847,393.03136 289.574511,392.77171 C289.116882,392.727312 288.781893,392.320339 288.82629,391.862711 C288.870688,391.405082 289.277661,391.070093 289.735289,391.11449 C292.048276,391.338889 294.149423,390.808873 295.990455,389.784588 C296.533537,389.482437 297.011185,389.159321 297.417856,388.83797 L297.628441,388.666631 C297.750592,388.563995 297.836003,388.485685 297.883105,388.438562 Z" id="Stroke-5" fill="#F5222D" fill-rule="nonzero"></path>
        <path d="M288.283142,376.261709 L288.28198,376.037895 C288.307895,375.754193 288.536163,375.522919 288.829563,375.502174 C289.122964,375.481428 289.381503,375.678281 289.447081,375.955514 L289.463008,376.075954 L289.46411,376.101549 C289.484504,376.671374 289.381913,377.541057 289.054432,378.673373 C288.616165,380.188748 287.857239,381.846743 286.71288,383.623273 L286.506,383.935 L286.835915,384.139471 L287.636068,384.626215 C288.411553,385.0927 289.113156,385.498808 289.741953,385.848149 L290.050289,386.018105 C290.359047,386.186907 290.630343,386.330845 290.864599,386.451344 L291.343601,386.689584 C291.64038,386.82644 291.770023,387.177972 291.633166,387.474751 C291.49631,387.77153 291.144778,387.901173 290.847999,387.764316 L290.596417,387.642221 L290.134842,387.406 C290.003814,387.337434 289.863531,387.262896 289.713938,387.182209 L289.482561,387.056545 C288.353103,386.439058 286.980257,385.632351 285.35733,384.614225 C285.070865,384.434514 284.992996,384.051703 285.18649,383.774362 C286.572086,381.788341 287.448171,379.967427 287.917525,378.344564 C288.185196,377.419051 288.281295,376.716366 288.283142,376.261709 Z" id="Stroke-7" fill="#DD936F" fill-rule="nonzero"></path>
        <path d="M306.3559,375.345 C306.797866,375.345 307.15615,375.703284 307.15615,376.14525 C307.15615,379.221609 304.838346,381.7425 301.9459,381.7425 C299.053649,381.7425 296.73715,379.221844 296.73715,376.14525 C296.73715,375.703284 297.095434,375.345 297.5374,375.345 C297.979366,375.345 298.33765,375.703284 298.33765,376.14525 C298.33765,378.366684 299.969177,380.142 301.9459,380.142 C303.923,380.142 305.55565,378.366297 305.55565,376.14525 C305.55565,375.703284 305.913934,375.345 306.3559,375.345 Z" id="Stroke-9" fill="#373A65" fill-rule="nonzero"></path>
        <path d="M285.2707,375.89445 C285.690298,375.89445 286.03045,376.234602 286.03045,376.6542 C286.03045,379.693942 283.948346,382.21095 281.3032,382.21095 C278.65702,382.21095 276.57595,379.694535 276.57595,376.6542 C276.57595,376.234602 276.916102,375.89445 277.3357,375.89445 C277.755298,375.89445 278.09545,376.234602 278.09545,376.6542 C278.09545,378.912338 279.566772,380.69145 281.3032,380.69145 C283.038698,380.69145 284.51095,378.911679 284.51095,376.6542 C284.51095,376.234602 284.851102,375.89445 285.2707,375.89445 Z" id="Stroke-11" fill="#373A65" fill-rule="nonzero"></path>
        <path d="M297.232508,366.541741 C300.291252,365.559167 303.526883,365.429367 306.582819,366.718025 C307.145562,366.955328 307.693563,367.239267 308.225234,367.57151 C308.600037,367.805725 308.714006,368.299431 308.47979,368.674234 C308.245575,369.049037 307.751869,369.163006 307.377066,368.92879 C306.917922,368.64187 306.445611,368.397149 305.960935,368.192766 C303.310039,367.074909 300.448511,367.189701 297.722008,368.065549 C297.37771,368.176149 297.05883,368.29246 296.768706,368.40985 L296.48829,368.527428 C296.276873,368.619309 296.133723,368.688496 296.066634,368.7239 C295.675754,368.930169 295.191669,368.780513 294.9854,368.389634 C294.779131,367.998754 294.928787,367.514669 295.319666,367.3084 C295.69611,367.109748 296.352985,366.824274 297.232508,366.541741 Z" id="Stroke-13" fill="#373A65" fill-rule="nonzero"></path>
        <path d="M303.382715,408.880373 C303.669752,408.724113 304.029116,408.830128 304.185377,409.117165 C304.341637,409.404202 304.235622,409.763566 303.948585,409.919827 C300.143397,411.991343 296.18472,413.034973 292.203223,413.089295 C291.876439,413.093753 291.607914,412.832457 291.603399,412.505673 C291.598997,412.178889 291.860293,411.910364 292.187077,411.905905 C295.975675,411.854215 299.745763,410.860303 303.382715,408.880373 Z" id="Stroke-15" fill="#DD936F" fill-rule="nonzero"></path>
        <path d="M258.38935,555.6516 L258.38935,555.6516 C249.73285,554.3721 243.75085,546.3186 245.03035,537.6621 L257.48785,453.3066 C258.76585,444.6501 266.81935,438.6681 275.47735,439.9461 C284.13235,441.2256 290.11285,449.2791 288.83635,457.9356 L276.37735,542.2926 C275.09935,550.9491 267.04585,556.9296 258.38935,555.6516" id="Fill-17" fill="#FFC999"></path>
        <path d="M283.55395,493.6953 L288.83545,457.9353 C290.10895,449.3148 284.09695,441.2193 275.47645,439.9458 C266.85595,438.6738 258.76195,444.6858 257.48845,453.3063 L252.25645,488.7258 L283.55395,493.6953 Z" id="Fill-19" fill="#597EF7"></path>
        <path d="M275.998398,439.54127 C284.775774,440.837719 290.925596,448.995271 289.804227,457.759121 L289.761078,458.072363 L284.478078,493.832363 C284.443593,494.065789 284.245613,494.234272 284.017914,494.239593 L283.931394,494.233748 L252.635394,489.264248 C252.375214,489.222934 252.197788,488.978524 252.239102,488.718344 C252.275826,488.487073 252.47302,488.321188 252.69912,488.316196 L252.785006,488.322052 L283.604,493.215 L288.817309,457.93302 C290.035548,449.676871 284.364346,441.916321 276.171332,440.534429 L275.859002,440.48503 C275.598389,440.446537 275.418326,440.204064 275.45682,439.943452 C275.491036,439.711796 275.686421,439.543785 275.912454,439.536344 L275.998398,439.54127 Z" id="Stroke-21" fill="#1D39C4" fill-rule="nonzero"></path>
        <path d="M203.15155,527.8569 L203.15155,527.8569 C203.02705,530.9499 205.35655,533.5929 208.43905,533.8569 L267.95605,538.9809 C273.44005,539.2704 278.10655,535.0224 278.32705,529.5339 C278.55205,523.9974 274.16905,519.3639 268.62805,519.2784 L208.64305,522.3099 C205.65355,522.4614 203.27305,524.8659 203.15155,527.8569" id="Fill-23" fill="#FFC999"></path>
        <path d="M197.3215,520.02075 C197.3215,520.02075 208.012,519.17475 210.748,524.87325 C213.2275,530.03475 208.378,533.12925 208.378,533.12925 C208.378,533.12925 204.0415,536.96775 197.956,539.06475 C193.9465,540.44475 186.0535,542.29725 185.044,540.28875 C183.727,537.66975 192.7825,536.09325 192.445,533.98875 C192.1,531.82725 190.204,532.01475 185.755,531.02175 C182.9755,530.40075 179.9905,530.88375 177.733,529.90875 C173.323,528.00225 181.1815,519.95475 197.3215,520.02075" id="Fill-25" fill="#FFC999"></path>
        <path d="M178.320902,527.057371 C182.314839,526.081184 185.926706,526.246496 188.989656,527.115087 C189.544212,527.272348 190.033773,527.441414 190.454388,527.611343 L190.726365,527.725466 C190.843627,527.776786 190.932609,527.81897 190.992461,527.849669 C191.283256,527.998819 191.398082,528.355466 191.248931,528.646261 C191.099781,528.937056 190.743134,529.051882 190.452339,528.902731 L190.243315,528.8059 C190.178153,528.777504 190.100648,528.744867 190.011063,528.708674 C189.628993,528.554317 189.179525,528.399097 188.666771,528.25369 C185.791256,527.438252 182.385079,527.282355 178.601898,528.207029 C178.284429,528.284624 177.964166,528.090167 177.886571,527.772698 C177.808976,527.455229 178.003433,527.134966 178.320902,527.057371 Z" id="Stroke-27" fill="#DD936F" fill-rule="nonzero"></path>
        <path d="M183.027135,523.770776 C185.975887,523.287572 189.178705,523.305788 192.274527,524.166316 C192.589403,524.25384 192.773709,524.58005 192.686184,524.894927 C192.59866,525.209803 192.27245,525.394109 191.957573,525.306584 C189.049563,524.498261 186.011727,524.480983 183.21852,524.938699 C182.92479,524.986832 182.654339,525.037451 182.40943,525.088581 L182.173119,525.139807 C181.99396,525.180145 181.872131,525.210856 181.812978,525.227237 C181.498018,525.314458 181.171985,525.129839 181.084763,524.814878 C180.997542,524.499918 181.182161,524.173885 181.497122,524.086663 L181.801143,524.010856 L181.913164,523.98521 C182.238856,523.911881 182.611915,523.838817 183.027135,523.770776 Z" id="Stroke-29" fill="#DD936F" fill-rule="nonzero"></path>
        <path d="M186.027672,521.129212 C189.233244,520.768456 191.858066,520.875782 193.905631,521.276786 L194.346584,521.369741 C194.82164,521.4776 195.158888,521.581405 195.35885,521.660224 C195.662897,521.780069 195.812222,522.123703 195.692376,522.42775 C195.572531,522.731797 195.228897,522.881122 194.92485,522.761276 L194.764317,522.704603 C194.538269,522.631482 194.176491,522.535815 193.678171,522.438222 C191.749016,522.060409 189.245537,521.958044 186.160028,522.305288 C185.835264,522.341837 185.542361,522.108192 185.505812,521.783428 C185.469263,521.458664 185.702908,521.165761 186.027672,521.129212 Z" id="Stroke-31" fill="#DD936F" fill-rule="nonzero"></path>
        <path d="M172.22635,786.6762 L134.95735,643.3392 C132.27235,633.0132 138.71485,622.5267 149.13985,620.2542 C159.56335,617.9817 169.78585,624.8352 171.64135,635.3427 L195.285156,782.172852 C196.488156,788.990352 194.22235,794.5572 187.45585,796.0317 C180.69085,797.5062 173.96935,793.3767 172.22635,786.6762 Z" id="Fill-33" fill="#FFC999"></path>
        <path d="M295.17745,569.16255 L295.17745,569.16255 C289.69495,557.84955 275.97295,553.27005 264.79495,559.02255 L144.61045,620.85255 C135.35395,625.61655 131.58895,636.89505 136.13095,646.26255 C140.67145,655.63005 151.85845,659.66205 161.33095,655.34505 L284.31895,599.29605 C295.75795,594.08355 300.66145,580.47405 295.17745,569.16255" id="Fill-35" fill="#FFC999"></path>
        <polygon id="Fill-37" fill="#597EF7" points="175.11445 797.88405 198.20695 793.60005 192.73045 756.83355 166.21795 761.75055"></polygon>
        <path d="M192.18962,763.686334 C192.608288,763.608666 193.010648,763.885101 193.088316,764.30377 C193.159512,764.687549 192.933162,765.057625 192.572462,765.176463 L192.47088,765.202466 L167.99538,769.742966 C167.576712,769.820634 167.174352,769.544199 167.096684,769.12553 C167.025488,768.741751 167.251838,768.371675 167.612538,768.252837 L167.71412,768.226834 L192.18962,763.686334 Z" id="Stroke-39" fill="#DFE5F1" fill-rule="nonzero"></path>
        <path d="M172.5451,796.87185 L197.9341,792.16185 L207.8446,838.43085 L150.6391,849.04185 L149.1736,841.92885 C148.6441,839.31135 150.0661,836.69085 152.5486,835.70985 L166.9066,828.42735 L173.8846,822.53835 C175.9876,820.76385 176.9446,817.98735 176.3716,815.29635 C175.1386,809.51385 173.0641,799.70385 172.5451,796.87185" id="Fill-41" fill="#4E5C93"></path>
        <path d="M207.574,840.04875 L150.541,850.62825 C149.9995,850.72875 149.4805,850.37175 149.38,849.83025 L148.1935,843.43425 C148.0945,842.89425 148.45,842.37525 148.9915,842.27475 L206.0245,831.69525 C206.5645,831.59475 207.085,831.95175 207.184,832.49175 L208.3705,838.88775 C208.471,839.42925 208.114,839.94825 207.574,840.04875" id="Fill-43" fill="#C9D4EA"></path>
        <path d="M148.99195,842.2746 L148.99195,842.2746 C148.24345,838.2426 150.53095,834.2646 154.39195,832.8831 L166.90195,828.4056 L169.62145,838.3011 L148.99195,842.2746 Z" id="Fill-45" fill="#C9D4EA"></path>
        <path d="M205.951497,831.307217 C206.165718,831.267479 206.371594,831.408925 206.411333,831.623147 C206.446104,831.810591 206.342156,831.991645 206.172113,832.060601 L206.095403,832.082983 L149.063903,842.662483 C148.849682,842.702221 148.643806,842.560775 148.604067,842.346553 C148.569296,842.159109 148.673244,841.978055 148.843287,841.909099 L148.919997,841.886717 L205.951497,831.307217 Z" id="Stroke-47" fill="#96A7CA" fill-rule="nonzero"></path>
        <path d="M176.329809,812.884726 L176.561575,812.895782 C176.628139,812.900003 176.704446,812.905518 176.789903,812.912566 C177.139268,812.94138 177.526883,812.987247 177.943555,813.053983 C179.135454,813.244883 180.328713,813.565786 181.450469,814.05047 C182.349119,814.438757 183.164614,814.918012 183.875831,815.498833 C184.384235,815.914025 184.174359,816.734102 183.529009,816.854024 C182.900142,816.970882 181.98436,817.26658 180.865762,817.701934 L180.555724,817.8241 C180.235179,817.951905 179.903069,818.088812 179.561613,818.233557 C179.054163,818.448669 178.541822,818.67426 178.036646,818.903354 L177.773,819.024 L177.839948,819.060361 C178.860279,819.628188 179.882127,820.327632 180.85602,821.16963 L181.270322,821.539246 C181.767202,821.996637 181.477615,822.826512 180.804043,822.875471 C180.030432,822.931702 179.144324,823.086618 178.169145,823.328303 C177.219033,823.563776 176.208203,823.875431 175.165526,824.244692 C174.947451,824.321923 174.731084,824.400555 174.516946,824.480235 L173.988,824.681 L174.148232,824.739781 C174.491389,824.873142 174.830156,825.031569 175.161717,825.2172 L175.490772,825.41198 C176.008657,825.735624 176.491401,826.121798 176.93153,826.574632 C177.22831,826.879979 177.221366,827.3681 176.916018,827.66488 C176.610671,827.96166 176.12255,827.954716 175.82577,827.649368 C175.473742,827.287179 175.088102,826.978684 174.673575,826.719632 C173.540891,826.011779 172.385732,825.747579 171.541223,825.726529 L171.365133,825.725667 L171.259552,825.722563 C170.50637,825.653919 170.289152,824.595821 171.015229,824.256509 L171.299009,824.127601 C171.52355,824.027249 171.779923,823.915669 172.064083,823.795658 C172.874865,823.453237 173.747747,823.110951 174.650759,822.791152 C175.737696,822.406216 176.795284,822.080146 177.798202,821.831585 C178.099414,821.756934 178.393725,821.689772 178.680785,821.630439 L178.909,821.585 L178.682036,821.417449 C178.287778,821.134549 177.889019,820.874769 177.4896,820.637522 L177.090102,820.407764 C176.811755,820.25286 176.549236,820.117659 176.306436,820.001518 L176.070352,819.891706 C175.891766,819.811065 175.768733,819.76069 175.710487,819.73899 C175.076391,819.502758 175.03245,818.622626 175.639864,818.324412 L176.376463,817.971938 L176.634017,817.851254 C177.391943,817.497781 178.1803,817.14428 178.959789,816.813849 L179.649769,816.526795 C179.762565,816.480808 179.874211,816.435779 179.984632,816.391753 L180.637648,816.137718 C180.743057,816.097817 180.846732,816.059154 180.948641,816.021753 L181.551,815.808 L181.482143,815.77066 L181.165599,815.613811 L180.838855,815.465989 C179.845949,815.036977 178.7735,814.748564 177.69969,814.576578 C177.417445,814.531372 177.150718,814.496858 176.903594,814.471589 L176.396677,814.430691 C176.351845,814.428262 176.316912,814.426865 176.292491,814.426274 C175.866804,814.415969 175.530071,814.062528 175.540376,813.636841 C175.550681,813.211154 175.904122,812.874421 176.329809,812.884726 Z" id="Stroke-49" fill="#DFE5F1" fill-rule="nonzero"></path>
        <path d="M177.789494,805.685443 C176.717535,805.778396 175.817493,805.902481 175.157163,806.019624 L174.897818,806.067683 C174.811507,806.08438 174.728687,806.115715 174.65294,806.160333 C173.754192,806.689732 173.321908,807.381812 173.482668,808.159349 C173.597859,808.716489 173.981143,809.157135 174.531634,809.547276 C174.866964,809.78493 175.194574,809.955878 175.429172,810.056368 L175.51837,810.112257 L176.330876,810.568083 C176.589665,810.711044 176.866024,810.862064 177.158134,811.019808 C178.548901,811.770844 180.012988,812.521882 181.483505,813.223517 C182.448032,813.683727 183.384452,814.107573 184.282664,814.48745 C187.294305,815.761149 189.711346,816.479241 191.392523,816.478684 C193.804782,816.477883 194.793856,814.92234 193.827418,812.264407 C192.362558,808.231864 188.577402,806.205259 183.366102,805.687262 C181.544683,805.506215 179.655522,805.523634 177.789494,805.685443 Z M183.213581,807.2217 C187.77497,807.675097 190.985644,809.341782 192.277623,812.529326 L192.378162,812.791114 C192.99066,814.475629 192.697779,814.93625 191.392011,814.936684 C189.978306,814.937153 187.714192,814.264494 184.883307,813.067241 C184.007671,812.696912 183.092124,812.282514 182.147533,811.831817 C180.702193,811.142194 179.260415,810.4026 177.890829,809.663003 L177.076897,809.218559 L176.11863,808.680164 C175.893274,808.577655 175.654405,808.453012 175.423257,808.289194 C175.16241,808.104327 175.009577,807.928622 174.99273,807.847137 L174.993161,807.835868 C175.000174,807.80443 175.053391,807.736042 175.240427,807.610755 L175.325,807.556 L175.645837,807.500311 C176.238652,807.402204 177.014379,807.300442 177.922705,807.221678 C179.700021,807.067562 181.496251,807.050999 183.213581,807.2217 Z" id="Stroke-51" fill="#DFE5F1" fill-rule="nonzero"></path>
        <path d="M332.52955,583.2558 L332.52955,583.2558 C326.39005,572.2863 313.28455,568.0383 303.50605,573.8523 L198.38605,636.3558 C190.29055,641.1693 187.88455,652.2648 192.96805,661.3488 C198.05305,670.4328 208.76605,674.1873 217.10455,669.8043 L325.36255,612.9108 C335.43205,607.6188 338.66755,594.2268 332.52955,583.2558" id="Fill-53" fill="#FFC999"></path>
        <path d="M154.3885,809.25705 L154.3885,809.25705 C147.829,807.04155 144.187,800.04105 146.14,793.39905 L187.9105,651.30855 C190.9195,641.07255 201.838,635.39355 211.945,638.80605 C222.0535,642.22005 227.2945,653.35455 223.483,663.31905 L170.5615,801.64455 C168.088,808.11255 160.9495,811.47255 154.3885,809.25705" id="Fill-55" fill="#FFC999"></path>
        <polygon id="Fill-57" fill="#597EF7" points="142.8514 803.702626 166.546294 812.69985 181.8514 775.031275 154.650398 764.69985"></polygon>
        <path d="M150.768528,775.710204 C150.904887,775.34447 151.289359,775.143542 151.659809,775.227174 L151.760296,775.257128 L175.086796,783.954128 C175.485779,784.102884 175.688628,784.546914 175.539872,784.945896 C175.403513,785.31163 175.019041,785.512558 174.648591,785.428926 L174.548104,785.398972 L151.221604,776.701972 C150.822621,776.553216 150.619772,776.109186 150.768528,775.710204 Z" id="Stroke-59" fill="#DFE5F1" fill-rule="nonzero"></path>
        <path d="M144.6225,798 L168.8175,807.021 L153.5175,851.796 L99,831.4695 L101.4045,824.6175 C102.2955,822.1005 104.862,820.5855 107.496,821.0205 L123.555,822.1605 L132.5685,820.6995 C135.2835,820.2585 137.532,818.37 138.426,815.7675 C140.3445,810.1755 143.61,800.694 144.6225,798" id="Fill-61" fill="#4E5C93"></path>
        <path d="M97.6478889,833.023562 C97.1333889,832.831562 96.8708889,832.257062 97.0628889,831.742562 L99.3353889,825.648062 C99.5273889,825.132062 100.100389,824.871062 100.614889,825.063062 L154.967389,845.326562 C155.481889,845.518562 155.744389,846.091562 155.552389,846.606062 L153.279889,852.702062 C153.087889,853.218062 152.514889,853.479062 151.998889,853.287062 L97.6478889,833.023562 Z" id="Fill-63" fill="#C9D4EA"></path>
        <path d="M99.6150389,824.437443 C101.047539,820.595943 106.555539,818.360943 110.577039,819.161943 L122.110539,821.756943 L119.350539,831.641943 L99.6150389,824.437443 Z" id="Fill-65" fill="#C9D4EA"></path>
        <path d="M99.6303559,824.862183 C99.6969559,824.683553 99.8792293,824.581758 100.060521,824.610091 L100.137817,824.630356 L154.487317,844.893856 C154.691466,844.96997 154.795258,845.197168 154.719144,845.401317 C154.652544,845.579947 154.470271,845.681742 154.288979,845.653409 L154.211683,845.633144 L99.862183,825.369644 C99.6580343,825.29353 99.5542417,825.066332 99.6303559,824.862183 Z" id="Stroke-67" fill="#96A7CA" fill-rule="nonzero"></path>
        <path d="M134.422578,816.587579 C134.650352,816.227809 135.12665,816.120805 135.486421,816.348578 L135.674042,816.472741 C135.853927,816.595966 136.090675,816.768271 136.369513,816.987333 C137.015053,817.494483 137.66001,818.079867 138.263747,818.738332 C139.315341,819.885252 140.130507,821.132058 140.612908,822.471803 C140.83529,823.089412 140.233374,823.684686 139.61827,823.455465 C138.918251,823.1946 137.761079,822.942703 136.294023,822.713948 C135.585529,822.603474 134.837529,822.503234 134.079491,822.413732 L133.566,822.355 L133.633646,822.468648 C133.786276,822.735528 133.937114,823.016032 134.08457,823.309618 L134.303018,823.75974 C134.681705,824.567663 135.009684,825.42001 135.272137,826.311834 C135.462773,826.959624 134.787605,827.522141 134.184878,827.217686 C133.281183,826.761204 132.13184,826.3524 130.797274,825.993952 C129.942009,825.764238 129.043563,825.563463 128.130495,825.390315 L127.407,825.259 L127.498756,825.370924 C128.11282,826.155612 128.586629,827.050465 128.872258,828.057329 L128.960432,828.397102 C129.05813,828.811554 128.80135,829.226734 128.386898,829.324432 C127.972446,829.42213 127.557266,829.16535 127.459568,828.750898 C127.22149,827.74093 126.750669,826.862909 126.112843,826.110717 C125.778349,825.716247 125.419723,825.382343 125.062851,825.109134 L124.873254,824.969319 C124.759966,824.889182 124.674221,824.835159 124.623953,824.807075 C123.892616,824.398477 124.245971,823.280954 125.07927,823.367086 L125.612501,823.430154 L126.272695,823.519318 C126.503561,823.552284 126.744744,823.588528 126.994796,823.628146 C128.425189,823.854774 129.856353,824.144581 131.19726,824.504732 C131.832084,824.675238 132.430446,824.857349 132.988094,825.051892 L133.222,825.136 L133.108998,824.862543 L132.906782,824.414178 C132.578485,823.71376 132.227188,823.088051 131.877157,822.546821 L131.640905,822.193794 C131.549769,822.062795 131.478262,821.966778 131.43096,821.907527 C131.008815,821.378743 131.423898,820.601487 132.098139,820.658214 L132.961036,820.739904 C133.128485,820.756862 133.30345,820.775149 133.48487,820.794754 C134.522395,820.906875 135.560305,821.038908 136.531593,821.190359 C137.132818,821.284106 137.686044,821.381686 138.186093,821.483736 L138.46,821.541 L138.338622,821.342133 C138.06456,820.912817 137.749114,820.493141 137.397546,820.084666 L137.127179,819.780434 C136.584026,819.188045 136.000172,818.65812 135.416901,818.19989 L135.140433,817.987787 C134.928253,817.829112 134.763608,817.716017 134.661579,817.651422 C134.301809,817.423648 134.194805,816.94735 134.422578,816.587579 Z" id="Stroke-69" fill="#DFE5F1" fill-rule="nonzero" transform="translate(132.443515, 822.787038) rotate(14.000000) translate(-132.443515, -822.787038) "></path>
        <path d="M139.352562,813.229026 C137.734466,813.215728 137.001471,814.155377 137.290526,815.429127 C137.358831,815.73012 137.478292,816.03304 137.633969,816.336281 C137.773973,816.608992 137.913766,816.828799 138.014692,816.968543 L138.147599,817.214171 L138.659989,818.103576 C138.843196,818.417267 139.039148,818.74867 139.246617,819.094854 C140.234879,820.743873 141.282435,822.393196 142.344567,823.934966 C143.186343,825.156872 144.00362,826.261166 144.785676,827.220325 C146.445482,829.256008 147.886994,830.577305 149.136383,831.051146 C150.903251,831.721247 152.195064,830.711787 152.658079,828.328146 C153.481554,824.084517 151.239899,820.378024 146.980854,817.240805 C145.500355,816.150267 143.863604,815.197528 142.179156,814.383079 C141.331672,813.973311 140.595962,813.656296 140.028067,813.433655 L139.608754,813.275073 C139.526584,813.245315 139.439952,813.229744 139.352562,813.229026 Z M139.034907,814.771953 L139.206,814.77 L139.679202,814.954507 C140.17881,815.156744 140.80133,815.429673 141.507925,815.77132 C143.112683,816.547238 144.669597,817.453505 146.066335,818.482344 C149.897741,821.304564 151.830202,824.499814 151.144344,828.034257 C150.845594,829.57225 150.433807,829.894032 149.683195,829.609356 C148.763589,829.260587 147.478082,828.082285 145.980772,826.245896 C145.227371,825.321882 144.434155,824.250099 143.614407,823.060168 C142.572666,821.547997 141.541982,819.925239 140.569277,818.302179 L139.991747,817.326282 L139.347891,816.204071 C139.335093,816.181188 139.323788,816.16089 139.314002,816.143242 C139.205754,815.984017 139.10565,815.826616 139.005757,815.632036 C138.904469,815.434738 138.830363,815.246825 138.794292,815.087874 L138.769713,814.969739 C138.744848,814.818796 138.784767,814.779997 139.034907,814.771953 Z" id="Stroke-71" fill="#DFE5F1" fill-rule="nonzero"></path>
        <path d="M265.33135,459.57105 C262.61335,466.63605 257.52085,478.82355 257.28685,486.67755 C256.90735,499.41105 265.74385,508.31205 265.74385,508.31205 C265.74385,508.31205 265.59235,504.58305 268.46185,537.33105 C306.63385,541.57455 330.26035,533.01405 330.26035,533.01405 L328.97635,524.36655 L333.81085,503.42805 C333.81085,503.42805 337.05385,495.53955 343.63135,477.98205 C348.20485,465.77655 346.90735,451.08405 345.69085,443.26155 C345.17035,439.91055 342.64135,437.22405 339.32485,436.51305 C327.73735,434.03055 323.42185,434.20155 323.42185,434.20155 L321.87385,426.75855 C321.61135,425.48355 320.44735,424.59855 319.14985,424.67955 L291.39685,426.43005 C290.20435,426.50505 289.21435,427.37805 288.99085,428.55255 L287.45785,436.61205 L270.49435,441.06255 C267.83185,441.76005 265.93735,444.11805 265.82935,446.86905 L265.33135,459.57105 Z" id="Fill-73" fill="#597EF7"></path>
        <path d="M315.642066,434.607946 C315.904983,434.591359 316.131566,434.791049 316.148154,435.053966 C316.162898,435.28767 316.006756,435.492666 315.787221,435.546985 L315.702134,435.560054 L290.713634,437.136554 C290.450717,437.153141 290.224134,436.953451 290.207546,436.690534 C290.192802,436.45683 290.348944,436.251834 290.568479,436.197515 L290.653566,436.184446 L315.642066,434.607946 Z" id="Stroke-75" fill="#1D39C4" fill-rule="nonzero"></path>
        <path d="M323.181047,432.135304 C323.4164,431.892711 323.803853,431.886843 324.046446,432.122197 C324.262084,432.3314 324.290681,432.66078 324.129077,432.901774 L324.059553,432.987596 L292.312053,465.711596 C291.9925,466.040979 291.450515,465.910913 291.299426,465.500473 L291.273256,465.408295 L285.474256,437.106295 C285.406411,436.775176 285.619836,436.451751 285.950955,436.383906 C286.248962,436.322845 286.540737,436.489614 286.645571,436.764964 L286.673344,436.860605 L292.24,464.028 L323.181047,432.135304 Z" id="Stroke-77" fill="#C9D4EA" fill-rule="nonzero"></path>
        <path d="M281.15455,470.63205 C278.67955,475.48005 280.29805,481.26255 284.76955,483.54855 C289.24255,485.83305 294.87505,483.75405 297.35305,478.90605 C299.82955,474.05805 298.21105,468.27555 293.73805,465.99105 C289.26505,463.70505 283.63105,465.78405 281.15455,470.63205" id="Fill-79" fill="#C9D4EA"></path>
        <path d="M280.1584,470.6724 C277.6819,475.5204 279.3004,481.3029 283.7719,483.5874 C288.2464,485.8719 293.8789,483.7944 296.3554,478.9464 C298.8319,474.0969 297.2134,468.3144 292.7419,466.0299 C288.2674,463.7454 282.6334,465.8244 280.1584,470.6724" id="Fill-81" fill="#F0F0F5"></path>
        <path d="M281.96905,471.37545 C280.04605,475.14045 281.30305,479.62995 284.77555,481.40445 C288.24955,483.17745 292.62355,481.56345 294.54505,477.79995 C296.46805,474.03495 295.21105,469.54545 291.74005,467.77245 C288.26605,465.99795 283.89205,467.61195 281.96905,471.37545" id="Fill-83" fill="#FAAD14"></path>
        <path d="M345.647784,442.786375 C345.910133,442.762425 346.142225,442.955686 346.166175,443.218034 L346.322464,445.054791 L346.439264,446.532824 C346.516745,447.543192 346.593067,448.600913 346.665922,449.689935 C346.806435,451.79031 346.923179,453.84607 347.008727,455.805779 L347.048866,456.777391 C347.222656,461.24434 347.210766,464.829417 346.965173,467.224449 C346.709514,469.723296 345.456651,473.852137 343.444056,479.196003 L343.246925,479.716931 C342.854882,480.748088 342.43948,481.811942 342.003645,482.90303 C341.131236,485.087054 340.209158,487.301388 339.277155,489.471609 L338.178164,492.000562 L337.127085,494.355545 L337.045534,494.523844 L329.03,524.572 L330.464477,533.397906 C330.498371,533.60653 330.391126,533.808508 330.208265,533.900458 L330.125457,533.932828 L329.488119,534.106359 L329.327739,534.148478 C328.676608,534.318633 327.91104,534.508071 327.03604,534.711959 C324.538668,535.293882 321.663709,535.875572 318.451195,536.418346 C302.989274,539.030734 285.898168,539.822321 268.313321,537.693442 C268.085114,537.665815 267.909072,537.479355 267.894597,537.249938 L267.771293,535.772484 C267.623917,534.136131 267.355875,531.33517 266.991005,527.603491 L265.745284,515.011473 L265.195,509.514 L264.894887,509.026997 L264.537182,508.431823 C264.351072,508.118391 264.154463,507.78159 263.949103,507.423212 C262.971627,505.717397 261.994267,503.871823 261.081691,501.952556 C259.849371,499.360823 258.832704,496.837151 258.105427,494.455134 C257.442485,492.283828 257.035941,490.27942 256.922098,488.474452 C256.633188,483.897887 257.001078,480.288258 258.089608,476.576783 C258.668499,474.602985 259.450554,472.576407 260.601892,470.000873 L261.071538,468.967746 C261.319673,468.431769 261.666394,467.692329 262.051844,466.874268 L264.934,460.793 L264.740801,453.087883 C264.734918,452.853788 264.898711,452.654853 265.120146,452.608887 L265.205667,452.599051 C265.439762,452.593168 265.638697,452.756961 265.684663,452.978396 L265.694499,453.063917 L265.890999,460.883417 L265.845761,461.09848 L262.102941,469.011804 C261.937765,469.366435 261.801598,469.661279 261.706073,469.872074 C260.441525,472.662545 259.608021,474.789364 259.005048,476.845271 C257.948684,480.447072 257.592106,483.94571 257.874204,488.414374 C257.982899,490.137723 258.375089,492.071358 259.017847,494.176555 C259.730042,496.509177 260.729698,498.990621 261.943257,501.542898 C262.844634,503.438612 263.810794,505.263037 264.776837,506.948899 L265.170223,507.627482 C265.297121,507.843775 265.419615,508.04999 265.537188,508.24559 L266.060683,509.097693 L266.13326,509.30671 L268.311071,531.326698 C268.508915,533.382007 268.657003,534.958467 268.748068,535.985317 L268.817,536.792 L269.619411,536.886201 C286.288583,538.781363 302.492986,538.052911 317.241302,535.652003 L318.292263,535.477678 C321.218928,534.983199 323.862493,534.456467 326.192026,533.927227 L326.819544,533.782849 C327.541745,533.614566 328.18804,533.456379 328.755526,533.311082 L329.453,533.128 L328.072323,524.622894 L328.082266,524.423456 L336.15078,494.202694 L336.929045,492.467459 C337.111231,492.056792 337.302323,491.623325 337.501104,491.169337 L337.702404,490.708593 C338.866816,488.037664 340.031209,485.269135 341.11771,482.549143 C341.551637,481.462831 341.965116,480.403902 342.3552,479.377899 L342.907722,477.904262 C344.682965,473.098654 345.786508,469.371673 346.016138,467.127242 L346.071372,466.517497 C346.248241,464.296524 346.253309,461.170571 346.116147,457.363027 L346.095588,456.814479 C346.00853,454.57682 345.877427,452.195756 345.714049,449.753615 L345.602784,448.150302 C345.565023,447.624996 345.526685,447.109492 345.48806,446.605803 L345.216125,443.304766 C345.192175,443.042417 345.385436,442.810325 345.647784,442.786375 Z" id="Stroke-85" fill="#1D39C4" fill-rule="nonzero"></path>
        <g id="分组" transform="translate(166.000000, 537.000000)">
            <mask id="mask-4" fill="white">
                <use xlink:href="#path-3"></use>
            </mask>
            <g id="Clip-88"></g>
            <path d="M153.7473,5.99685 C176.5533,5.99685 189.2223,85.39635 204.9573,115.33185 C202.7223,121.11285 191.9928,130.54635 191.9928,130.54635 C191.9928,130.54635 192.4788,135.40335 192.7878,138.32385 C180.5838,146.25285 158.4168,148.80885 158.4168,148.80885 L157.9113,152.87985 C121.5798,164.89185 77.0433,144.43935 77.0433,144.43935 C77.0433,144.43935 76.2798,143.45985 77.2593,140.33385 C61.5963,138.38535 30.2583,114.70635 30.2583,114.70635 L34.6098,106.71135 L0.8598,63.85635 C0.8598,63.85635 66.5508,24.13185 85.3278,12.75435 C102.2238,2.51535 99.2658,0.92835 99.2658,0.92835 C99.2658,0.92835 130.3023,5.99685 153.7473,5.99685" id="Fill-87" fill="#4E5C93" mask="url(#mask-4)"></path>
        </g>
        <path d="M217.056219,620.378946 C217.23726,620.111348 217.600955,620.041179 217.868554,620.222219 C218.106419,620.383145 218.188291,620.688389 218.076397,620.942177 L218.025281,621.034554 L197.675,651.114 L197.890797,651.315193 L198.56437,651.926364 L198.817652,652.151615 C200.060467,653.251582 201.530033,654.478251 203.21857,655.799981 C208.047006,659.579518 213.658406,663.360181 219.990367,666.889086 C227.226332,670.921808 234.949454,674.363909 243.114468,677.032189 C243.421572,677.132549 243.589171,677.462864 243.488811,677.769968 C243.388451,678.077072 243.058136,678.244671 242.751032,678.144311 C234.511738,675.451757 226.720174,671.979152 219.42079,667.911085 C213.033332,664.35125 207.371832,660.536833 202.497399,656.721291 C200.960679,655.518398 199.602041,654.392306 198.427069,653.366089 L198.042222,653.027747 C197.777051,652.793055 197.533396,652.574022 197.311465,652.371501 L196.614991,651.722991 C196.567534,651.677606 196.530192,651.641461 196.503029,651.614807 C196.326629,651.441717 196.28048,651.179975 196.377725,650.960525 L196.428219,650.869446 L217.056219,620.378946 Z" id="Stroke-89" fill="#253368" fill-rule="nonzero"></path>
        <path d="M337.326106,598.182121 C337.605938,598.103092 337.895745,598.241694 338.014921,598.496869 L338.048079,598.586106 L359.859579,675.818106 C359.935599,676.087281 359.810439,676.37261 359.560913,676.498985 L359.320811,676.618024 C359.153822,676.699595 358.931262,676.806418 358.655268,676.936111 L357.997916,677.240705 C357.42613,677.502114 356.794787,677.781996 356.107076,678.076795 C353.358979,679.254812 350.274302,680.432408 346.922927,681.531418 C339.613521,683.928376 332.089711,685.611686 324.631639,686.264869 C324.309785,686.293058 324.026019,686.054994 323.997831,685.733139 C323.969642,685.411285 324.207706,685.127519 324.529561,685.099331 C331.890377,684.454665 339.328627,682.790497 346.558353,680.419669 C349.875575,679.331859 352.928368,678.166435 355.646104,677.001432 L356.433427,676.659697 C356.8134,676.49265 357.172683,676.331505 357.510585,676.177028 L358.455173,675.736447 L358.6,675.666 L336.922121,598.904094 C336.843092,598.624262 336.981694,598.334455 337.236869,598.215279 L337.326106,598.182121 Z" id="Stroke-91" fill="#253368" fill-rule="nonzero"></path>
        <path d="M312.650116,533.242218 C312.939841,533.217497 313.198232,533.408371 313.267036,533.681471 L313.286139,533.815305 L314.527553,548.715924 C314.727577,551.152119 314.935278,553.696972 315.149678,556.340827 L315.795568,564.355002 C316.763383,576.439125 317.724316,588.783446 318.647398,601.081826 L319.256839,609.27058 C319.707872,615.383936 320.140471,621.372116 320.552394,627.212945 L321.170605,636.095447 C322.621192,657.22925 323.730935,675.594313 324.423214,690.433839 C324.436502,690.71867 324.242499,690.971588 323.963955,691.032566 C302.81391,695.662718 280.489073,693.745765 259.081043,687.739938 C254.535129,686.464623 250.403149,685.09801 246.762861,683.730938 L245.8351,683.3783 C245.085995,683.090039 244.397279,682.816152 243.771329,682.559412 L242.930872,682.209068 L242.221363,681.901158 C241.980798,681.792402 241.84661,681.538752 241.883215,681.285016 L241.905074,681.190144 L282.649574,553.597144 C282.747856,553.289369 283.077031,553.119542 283.384806,553.217824 C283.661804,553.306278 283.827064,553.581755 283.785698,553.860334 L283.764126,553.953056 L243.18,681.043 L243.852479,681.327102 L244.594287,681.631328 C245.237458,681.891655 245.942808,682.168627 246.707952,682.459475 L247.174194,682.635627 C250.784201,683.991328 254.884576,685.347488 259.397075,686.613428 C280.314241,692.481548 302.106585,694.414475 322.761267,690.093512 L323.231,689.992 L322.97675,684.785378 C322.298305,671.383442 321.322503,655.478909 320.097058,637.543879 L319.733171,632.263879 L319.207531,624.783587 C318.849509,619.742582 318.476531,614.595618 318.09001,609.356667 L317.480674,601.16931 C316.557746,588.872996 315.596963,576.530603 314.629297,564.44834 L313.276243,547.774481 L312.116968,533.874834 C312.089501,533.552917 312.328199,533.269685 312.650116,533.242218 Z" id="Stroke-93" fill="#253368" fill-rule="nonzero"></path>
        <path d="M298.468028,533.903234 C298.75835,533.920434 298.987331,534.145747 299.017048,534.425808 L299.019384,534.520978 L293.001384,641.922478 C292.983309,642.245058 292.707153,642.491909 292.384572,642.474766 C292.09425,642.457566 291.865269,642.232253 291.835552,641.952192 L291.833216,641.857022 L297.851216,534.455522 C297.869291,534.132942 298.145447,533.886091 298.468028,533.903234 Z" id="Stroke-95" fill="#253368" fill-rule="nonzero"></path>
        <path d="M274.090373,545.006118 C274.278747,544.74363 274.644244,544.683549 274.906732,544.871923 C275.140055,545.039367 275.213451,545.346759 275.094579,545.597355 L275.040927,545.688282 L230.594427,607.621782 C230.406053,607.88427 230.040556,607.944351 229.778068,607.755977 C229.544745,607.588533 229.471349,607.281141 229.590221,607.030545 L229.643873,606.939618 L274.090373,545.006118 Z" id="Stroke-97" fill="#253368" fill-rule="nonzero"></path>
        <polygon id="Fill-99" fill="#253368" points="216.5623 565.54875 288.7903 561.83625 220.6528 533.06625 160.5343 542.01975"></polygon>
        <polygon id="Fill-101" fill="#4E5C93" points="214.4104 560.3127 266.8684 557.6157 218.6074 536.7537 173.7184 543.2247"></polygon>
        <polygon id="Fill-103" fill="#597EF7" points="288.3586 565.4976 288.8026 561.8616 215.1496 565.0686 215.9641 569.0871"></polygon>
        <path d="M208.413604,538.953571 C208.477524,538.823581 208.621396,538.759102 208.7567,538.790295 L208.823229,538.814004 L247.847229,558.003504 C247.998884,558.078078 248.061371,558.261473 247.986796,558.413129 C247.922876,558.543119 247.779004,558.607598 247.6437,558.576405 L247.577171,558.552696 L208.553171,539.363196 C208.401516,539.288622 208.339029,539.105227 208.413604,538.953571 Z" id="Stroke-105" fill="#BAC9E5" fill-rule="nonzero"></path>
        <path d="M214.028733,537.366533 C214.090471,537.235492 214.233244,537.168616 214.369051,537.197541 L214.435967,537.220133 L258.159467,557.819633 C258.312348,557.891661 258.377894,558.073985 258.305867,558.226867 C258.244129,558.357908 258.101356,558.424784 257.965549,558.395859 L257.898633,558.373267 L214.175133,537.773767 C214.022252,537.701739 213.956706,537.519415 214.028733,537.366533 Z" id="Stroke-107" fill="#BAC9E5" fill-rule="nonzero"></path>
        <path d="M207.411105,542.579621 C207.476825,542.450531 207.621578,542.388056 207.756436,542.421125 L207.822629,542.445755 L240.536129,559.100255 C240.686734,559.176929 240.746668,559.361174 240.669995,559.511779 C240.604275,559.640869 240.459522,559.703344 240.324664,559.670275 L240.258471,559.645645 L207.544971,542.991145 C207.394366,542.914471 207.334432,542.730226 207.411105,542.579621 Z" id="Stroke-109" fill="#BAC9E5" fill-rule="nonzero"></path>
        <path d="M197.96966,542.520361 C198.035385,542.391273 198.18014,542.328804 198.314997,542.361878 L198.381189,542.38651 L231.094689,559.04251 C231.245292,559.119189 231.305218,559.303437 231.22854,559.454039 C231.162815,559.583127 231.01806,559.645596 230.883203,559.612522 L230.817011,559.58789 L198.103511,542.93189 C197.952908,542.855211 197.892982,542.670963 197.96966,542.520361 Z" id="Stroke-111" fill="#BAC9E5" fill-rule="nonzero"></path>
        <path d="M189.186405,543.074771 C189.252125,542.945681 189.396878,542.883206 189.531736,542.916275 L189.597929,542.940905 L222.311429,559.595405 C222.462034,559.672079 222.521968,559.856324 222.445295,560.006929 C222.379575,560.136019 222.234822,560.198494 222.099964,560.165425 L222.033771,560.140795 L189.320271,543.486295 C189.169666,543.409621 189.109732,543.225376 189.186405,543.074771 Z" id="Stroke-113" fill="#BAC9E5" fill-rule="nonzero"></path>
        <path d="M258.666867,554.486445 C258.835841,554.483555 258.975165,554.618193 258.978101,554.787167 C258.980532,554.932002 258.881969,555.055053 258.747348,555.089075 L258.677333,555.098355 L213.950333,555.863355 C213.781359,555.866245 213.642035,555.731607 213.639099,555.562633 C213.636668,555.417798 213.735231,555.294747 213.869852,555.260725 L213.939867,555.251445 L258.666867,554.486445 Z" id="Stroke-115" fill="#BAC9E5" fill-rule="nonzero"></path>
        <path d="M249.238607,549.994245 C249.407581,549.991349 249.546909,550.125982 249.549851,550.294957 C249.552287,550.439792 249.453728,550.562846 249.319108,550.596872 L249.249093,550.606155 L204.523593,551.372655 C204.354619,551.375551 204.215291,551.240918 204.212349,551.071943 C204.209913,550.927108 204.308472,550.804054 204.443092,550.770028 L204.513107,550.760745 L249.238607,549.994245 Z" id="Stroke-117" fill="#BAC9E5" fill-rule="nonzero"></path>
        <path d="M237.344667,546.404295 C237.513641,546.401405 237.652965,546.536043 237.655901,546.705017 C237.658332,546.849852 237.559769,546.972903 237.425148,547.006925 L237.355133,547.016205 L192.628133,547.781205 C192.459159,547.784095 192.319835,547.649457 192.316899,547.480483 C192.314468,547.335648 192.413031,547.212597 192.547652,547.178575 L192.617667,547.169295 L237.344667,546.404295 Z" id="Stroke-119" fill="#BAC9E5" fill-rule="nonzero"></path>
        <path d="M229.781657,539.423595 C229.950631,539.420699 230.089959,539.555332 230.092901,539.724307 C230.095337,539.869142 229.996778,539.992196 229.862157,540.026222 L229.792143,540.035505 L185.065143,540.802005 C184.896169,540.804901 184.756841,540.670268 184.753899,540.501293 C184.751463,540.356458 184.850022,540.233404 184.984643,540.199378 L185.054657,540.190095 L229.781657,539.423595 Z" id="Stroke-121" fill="#BAC9E5" fill-rule="nonzero"></path>
        <polygon id="Fill-123" fill="#597EF7" points="215.90755 569.08275 212.68705 569.02125 159.74155 546.00825 147.42205 451.07175 205.16605 469.10325"></polygon>
        <path d="M212.572,569.01465 L156.7345,544.77165 C156.226,544.55115 155.8675,544.07715 155.7955,543.52515 L143.857,452.28015 C143.707,451.13265 144.7975,450.21765 145.9015,450.56415 L200.6665,467.74665 C201.2665,467.93565 201.6985,468.46065 201.766,469.08615 L212.572,569.01465 Z" id="Fill-125" fill="#253368"></path>
        <path d="M356.80195,546.2847 L355.59445,546.5007 C347.31295,547.9722 339.40495,542.4537 337.93195,534.1722 L324.34195,457.7742 C322.87045,449.4927 328.39045,441.5862 336.67045,440.1117 L337.87945,439.8972 C346.15945,438.4242 354.06895,443.9442 355.54045,452.2257 L369.13045,528.6222 C370.60345,536.9037 365.08345,544.8117 356.80195,546.2847" id="Fill-127" fill="#FFC999"></path>
        <path d="M361.39285,485.1186 L355.06135,449.5296 C353.53585,440.9496 345.26785,435.1791 336.68785,436.7046 C328.10935,438.2316 322.33735,446.4996 323.86285,455.0781 L330.13435,490.3311 L361.39285,485.1186 Z" id="Fill-129" fill="#597EF7"></path>
        <path d="M355.429473,448.97927 C355.660024,448.938265 355.88132,449.070293 355.96005,449.282302 L355.98263,449.365373 L362.31263,484.955873 C362.353784,485.187264 362.220661,485.409168 362.007578,485.487199 L361.924108,485.509454 L329.542108,491.096954 C329.314283,491.136265 329.095795,491.006903 329.015756,490.79825 L328.992484,490.716463 L323.502484,461.997463 C323.45302,461.738708 323.622683,461.488848 323.881437,461.439384 C324.111441,461.395416 324.334418,461.524585 324.415869,461.735564 L324.439516,461.818337 L329.841,490.076 L361.289,484.65 L355.04337,449.532427 C355.002365,449.301876 355.134393,449.08058 355.346402,449.00185 L355.429473,448.97927 Z" id="Stroke-131" fill="#1D39C4" fill-rule="nonzero"></path>
        <path d="M262.87765,543.70215 L262.87765,543.70215 C263.22715,548.11665 266.98765,551.47515 271.41265,551.32665 L356.84365,548.45265 C364.68565,547.92915 370.58815,541.09665 369.96715,533.26215 C369.34015,525.35865 362.32465,519.52365 354.43765,520.34715 L269.73265,534.88515 C265.51315,535.60815 262.53865,539.43315 262.87765,543.70215" id="Fill-133" fill="#FFC999"></path>
        <path d="M279.1711,550.8111 C273.1921,555.4911 253.8286,553.6311 253.8286,553.6311 L241.3486,560.6346 C239.4076,561.5301 238.8676,560.2341 237.8881,560.2851 C235.2466,560.4231 235.1026,557.6496 235.1026,557.6496 C234.1696,557.2641 232.7386,558.0366 232.2121,555.5481 C232.2121,555.5481 230.3566,555.5121 230.1076,553.2741 C229.9771,552.0921 241.1266,534.3441 241.1266,534.3441 L259.1146,533.9016 C259.1146,533.9016 285.3796,533.0301 288.6286,538.7631 C291.8761,544.4961 279.1711,550.8111 279.1711,550.8111" id="Fill-135" fill="#FFC999"></path>
        <path d="M240.762901,533.097057 L273.305401,533.958057 C273.632101,533.966701 273.889937,534.238551 273.881504,534.565251 C273.873514,534.859281 273.652537,535.097531 273.370255,535.135939 L273.274099,535.141143 L241.069,534.289 L239.52847,536.762232 L237.98581,539.260324 C237.730542,539.675565 237.476654,540.089548 237.224837,540.501219 L235.038393,544.106754 C232.293033,548.683113 230.372607,552.129687 230.318672,552.530799 L230.317853,552.553007 C230.35408,552.877807 230.120144,553.170477 229.795343,553.206703 C229.470543,553.24293 229.177873,553.008994 229.141647,552.684193 C229.071156,552.052179 230.402627,549.571621 233.137573,544.977955 L234.731542,542.32268 C235.696699,540.726489 236.716848,539.059907 237.747979,537.390237 L240.246184,533.373798 C240.341535,533.222028 240.499477,533.123052 240.674297,533.101353 L240.762901,533.097057 Z" id="Stroke-137" fill="#DD936F" fill-rule="nonzero"></path>
        <path d="M247.702624,538.51647 C247.999714,538.38029 248.35095,538.510734 248.48713,538.807824 C248.609692,539.075205 248.516289,539.386444 248.279804,539.545293 L248.195776,539.59233 L241.59,542.619 L232.704251,555.877862 C232.54049,556.122191 232.226374,556.205405 231.967282,556.086958 L231.883238,556.039951 C231.638909,555.87619 231.555695,555.562074 231.674142,555.302982 L231.721149,555.218938 L240.700149,541.822438 C240.745781,541.754356 240.804884,541.696748 240.873493,541.652988 L240.945124,541.61397 L247.702624,538.51647 Z" id="Stroke-139" fill="#DD936F" fill-rule="nonzero"></path>
        <path d="M249.103949,543.306554 C249.399309,543.16666 249.752152,543.29269 249.892046,543.588049 C250.017951,543.853873 249.928457,544.166258 249.693982,544.32806 L249.610551,544.376146 L244.386,546.85 L235.567105,558.015651 C235.387035,558.243612 235.073006,558.30345 234.825327,558.171656 L234.735949,558.113205 C234.507988,557.933135 234.44815,557.619106 234.579944,557.371427 L234.638395,557.282049 L243.543895,546.008049 C243.581548,545.960382 243.6262,545.918941 243.676184,545.885054 L243.754949,545.840054 L249.103949,543.306554 Z" id="Stroke-141" fill="#DD936F" fill-rule="nonzero"></path>
        <path d="M254.426426,545.853845 C254.714169,545.698888 255.073048,545.806533 255.228005,546.094276 C255.367466,546.353245 255.29422,546.669834 255.068412,546.843525 L254.987574,546.895855 L247.751,550.792 L238.626695,560.311329 C238.425674,560.521047 238.107365,560.550616 237.873407,560.395766 L237.790021,560.329045 C237.580303,560.128024 237.550734,559.809715 237.705584,559.575757 L237.772305,559.492371 L246.959805,549.907371 L247.106426,549.795845 L254.426426,545.853845 Z" id="Stroke-143" fill="#DD936F" fill-rule="nonzero"></path>
        <path d="M166.498156,600.397062 C166.723777,600.219376 167.039463,600.234175 167.247224,600.417926 L167.319688,600.494706 L201.069688,643.349706 C201.269585,643.60353 201.225868,643.971342 200.972044,644.171238 C200.746423,644.348924 200.430737,644.334125 200.222976,644.150374 L200.150512,644.073594 L166.400512,601.218594 C166.200615,600.96477 166.244332,600.596958 166.498156,600.397062 Z" id="Stroke-145" fill="#253368" fill-rule="nonzero"></path>
    </g>
</svg>