<?xml version="1.0" encoding="UTF-8"?>
<svg width="512px" height="1024px" viewBox="0 0 512 1024" version="1.1" xmlns="http://www.w3.org/2000/svg" xmlns:xlink="http://www.w3.org/1999/xlink">
    <!-- Generator: Sketch 61.2 (89653) - https://sketch.com -->
    <title>2.人物组件/5.用研/摆手/欢呼</title>
    <desc>Created with Sketch.</desc>
    <g id="2.人物组件/5.用研/摆手/欢呼" stroke="none" stroke-width="1" fill="none" fill-rule="evenodd">
        <path d="M342.44025,231.9364 C342.44025,231.9364 338.47275,252.9859 328.74075,255.5539 C319.92675,257.8789 315.43725,247.0339 315.43725,247.0339 C315.43725,247.0339 312.89325,238.1554 312.75225,227.8534 C312.65925,221.1019 310.57275,208.2949 314.01525,207.3184 C318.50475,206.0464 318.50175,219.4909 321.64275,220.7809 C328.00575,223.3954 330.23475,202.2439 332.43675,199.0084 C336.74175,192.6844 347.39325,206.7229 342.44025,231.9364" id="Fill-1" fill="#FFC999"></path>
        <path d="M335.894818,199.449472 C336.201627,199.431312 336.465067,199.665308 336.483228,199.972118 C336.762333,204.687459 335.971889,209.655843 334.484209,214.533206 C334.035591,216.004001 333.554836,217.357428 333.073709,218.563302 C332.947141,218.880524 332.827235,219.170567 332.715662,219.431832 L332.426028,220.085888 C332.294922,220.363869 331.963292,220.482934 331.685312,220.351828 C331.407331,220.220722 331.288266,219.889092 331.419372,219.611112 L331.587244,219.237338 L331.803159,218.731536 C331.840967,218.640915 331.879646,218.547174 331.919132,218.450372 L332.039953,218.150847 C332.510023,216.972689 332.980464,215.648296 333.41963,214.208491 C334.871876,209.447296 335.642438,204.603883 335.372172,200.037882 C335.354012,199.731073 335.588008,199.467633 335.894818,199.449472 Z" id="Stroke-3" fill="#DD936F" fill-rule="nonzero"></path>
        <path d="M339.993691,202.814014 C340.2994,202.782335 340.572907,203.004481 340.604586,203.310191 L340.626245,203.573447 C340.631659,203.651726 340.637328,203.743074 340.642961,203.847257 C340.909966,208.78559 340.085922,215.630347 337.243995,223.637195 C337.14119,223.926838 336.823048,224.0783 336.533405,223.975495 C336.243762,223.87269 336.0923,223.554548 336.195105,223.264905 C337.780096,218.79935 338.754745,214.531435 339.233661,210.553412 C339.540786,208.002339 339.613667,205.868606 339.546794,204.228718 L339.516279,203.655566 C339.508969,203.549103 339.502389,203.471954 339.497514,203.424909 C339.465835,203.1192 339.687981,202.845693 339.993691,202.814014 Z" id="Stroke-5" fill="#DD936F" fill-rule="nonzero"></path>
        <path d="M343.079238,212.605025 C343.385411,212.63186 343.611859,212.901816 343.585025,213.207988 C343.289216,216.583062 342.831216,219.610941 342.254636,222.29233 C341.882212,224.024291 341.482564,225.509625 341.082061,226.748782 L340.917784,227.242624 C340.864713,227.397423 340.813401,227.542407 340.764059,227.67758 L340.583499,228.151034 C340.564499,228.198145 340.548946,228.235472 340.53705,228.26302 C340.50085,228.346852 340.444576,228.420487 340.373193,228.477433 L339.852117,228.905402 C339.433938,229.254431 338.96758,229.654261 338.465144,230.098335 C337.029538,231.367182 335.594009,232.73484 334.25568,234.148171 C332.621562,235.873867 331.248224,237.547495 330.221563,239.118986 C328.461446,241.813164 327.828095,244.04427 328.490826,245.645025 C328.608393,245.928997 328.473496,246.254508 328.189525,246.372076 C327.905553,246.489643 327.580042,246.354746 327.462474,246.070775 C326.621893,244.040441 327.348039,241.482444 329.289785,238.510251 C330.35736,236.876134 331.77113,235.153232 333.447519,233.382897 C334.810556,231.943473 336.269348,230.553652 337.728062,229.264381 L338.32257,228.744695 C338.514421,228.578883 338.699699,228.420624 338.877634,228.270332 L339.565,227.699 L339.65026,227.479936 C339.762253,227.183234 339.887595,226.82544 340.023003,226.406488 C340.412073,225.202704 340.801998,223.753508 341.166508,222.05835 C341.733424,219.421906 342.184513,216.43971 342.476275,213.110812 C342.500426,212.835256 342.721506,212.624278 342.98868,212.6044 L343.079238,212.605025 Z" id="Stroke-7" fill="#DD936F" fill-rule="nonzero"></path>
        <path d="M97.2855,233.6584 C97.2855,233.6584 101.253,254.7079 110.985,257.2759 C119.799,259.6009 124.29,248.7559 124.29,248.7559 C124.29,248.7559 126.834,239.8774 126.9735,229.5754 C127.0665,222.8239 129.1545,210.0154 125.7105,209.0404 C121.2225,207.7684 121.224,221.2129 118.083,222.5029 C111.7215,225.1174 109.491,203.9659 107.289,200.7304 C102.984,194.4064 92.334,208.4449 97.2855,233.6584" id="Fill-9" fill="#FFC999"></path>
        <path d="M103.830932,201.171472 C104.137742,201.189633 104.371738,201.453073 104.353578,201.759882 C104.083317,206.325794 104.854156,211.169119 106.306863,215.930243 C106.683428,217.164402 107.082979,218.313766 107.485579,219.358926 L107.687041,219.872732 C107.810208,220.181329 107.926656,220.462922 108.034715,220.715893 L108.307848,221.333048 C108.438989,221.611012 108.319965,221.942657 108.042002,222.073798 C107.764038,222.204939 107.432393,222.085915 107.301252,221.807952 L107.120285,221.405492 L106.89718,220.883059 C106.81919,220.696203 106.737742,220.496793 106.653333,220.285303 C106.172028,219.079382 105.691097,217.725905 105.242314,216.255057 C103.754153,211.377737 102.96342,206.40941 103.242522,201.694118 C103.260683,201.387308 103.524123,201.153312 103.830932,201.171472 Z" id="Stroke-11" fill="#DD936F" fill-rule="nonzero"></path>
        <path d="M99.7334092,204.536014 C100.039119,204.567693 100.261265,204.8412 100.229586,205.146909 L100.210821,205.377565 C100.205948,205.448541 100.20075,205.532544 100.195516,205.629343 C100.104757,207.307935 100.165839,209.554154 100.493438,212.275127 C100.972354,216.252894 101.947,220.520407 103.531987,224.985384 C103.634804,225.275023 103.483355,225.593171 103.193716,225.695987 C102.904077,225.798804 102.585929,225.647355 102.483113,225.357716 C99.7159667,217.562548 98.8619018,210.868557 99.0653434,205.963062 L99.1008546,205.295445 C99.1089752,205.178028 99.1165221,205.090014 99.1225139,205.032191 C99.1510247,204.757052 99.3754165,204.5496 99.642872,204.533955 L99.7334092,204.536014 Z" id="Stroke-13" fill="#DD936F" fill-rule="nonzero"></path>
        <path d="M96.6465117,214.326875 C96.9526845,214.300041 97.2226402,214.526489 97.2494748,214.832662 C97.5412365,218.161557 97.9923253,221.14358 98.5592391,223.77972 C98.9237478,225.474679 99.3136699,226.923634 99.7027367,228.127157 C99.7839802,228.378473 99.8615999,228.607773 99.9348868,228.815072 L100.16,229.419 L100.586844,229.771348 C101.012841,230.126947 101.487138,230.533633 101.997713,230.984954 C103.456426,232.274378 104.915216,233.664355 106.278251,235.103928 C107.95437,236.874165 109.367959,238.596966 110.435476,240.230989 C112.377591,243.203739 113.103928,245.762119 112.263276,247.792625 C112.145708,248.076596 111.820197,248.211493 111.536225,248.093926 C111.252254,247.976358 111.117357,247.650847 111.234924,247.366875 C111.897719,245.765966 111.264182,243.534457 109.503698,240.839725 C108.477082,239.268308 107.103913,237.594768 105.47005,235.869159 C104.131719,234.455678 102.696189,233.087864 101.260581,231.818864 L100.675749,231.30757 C100.487094,231.144499 100.304986,230.988926 100.130199,230.841273 L99.3525297,230.197761 C99.2811757,230.140832 99.2249211,230.067224 99.188724,229.983426 L99.0342167,229.593475 C98.9159155,229.280141 98.7846442,228.905508 98.6436995,228.469516 C98.2431934,227.230606 97.8435426,225.7455 97.4711167,224.013725 C96.8945351,221.33263 96.4365345,218.304916 96.1407252,214.929838 C96.1138906,214.623666 96.340339,214.35371 96.6465117,214.326875 Z" id="Stroke-15" fill="#DD936F" fill-rule="nonzero"></path>
        <path d="M174.09165,732.19225 C181.51815,730.77925 188.54865,736.06075 189.24165,743.58925 C190.42665,756.45925 192.49815,776.22325 195.44715,794.46025 C198.09015,810.80575 203.08815,821.26975 200.91165,826.19425 C198.56565,831.50575 190.45215,829.42525 185.98365,836.59525 C181.51215,843.76525 178.35765,849.20275 161.68515,849.60175 C142.18815,850.06825 157.36815,841.11025 164.06565,831.16525 C175.89465,813.60175 176.13915,806.59225 174.47565,796.15975 C171.06465,774.79375 167.06415,758.65225 164.14065,748.19575 C162.12465,740.98225 166.73415,733.59325 174.09165,732.19225" id="Fill-17" fill="#FFC6A0"></path>
        <path d="M198.7962,810.1783 C198.7962,810.1783 197.0232,814.2613 189.7527,823.7173 C184.0152,831.1768 180.2247,835.7713 175.9362,835.0243 C168.1047,833.6623 162.2682,833.4253 162.2682,833.4253 C162.2682,833.4253 156.4812,838.3813 152.4357,843.3658 C148.3902,848.3518 150.4842,854.4418 161.8362,853.5418 C173.1897,852.6433 179.3262,850.4938 187.8012,840.0763 C196.2777,829.6573 201.5742,831.8623 202.0947,826.9318 C202.9092,819.2293 198.7962,810.1783 198.7962,810.1783" id="Fill-19" fill="#253368"></path>
        <path d="M185.82795,684.7321 L211.20945,605.6806 C216.24795,589.2661 205.63845,572.1796 188.68995,569.4166 C174.02295,567.0256 160.00095,576.3796 156.57645,590.8411 L137.32545,672.1066 C137.32545,672.1066 130.57245,694.9561 154.82745,701.0371 C178.41795,706.9501 185.82795,684.7321 185.82795,684.7321" id="Fill-21" fill="#253368"></path>
        <path d="M185.9217,671.3917 L201.5262,784.3732 C201.8982,787.8847 199.6617,791.1457 196.2522,792.0622 L172.1832,798.5302 C168.1287,799.6192 164.0082,797.0122 163.2597,792.8812 L137.2287,683.3092 C137.2287,683.3092 131.8872,659.0887 158.0307,654.3952 C182.4192,650.0182 185.9217,671.3917 185.9217,671.3917" id="Fill-23" fill="#253368"></path>
        <path d="M203.6595,791.0344 L164.199,801.6379 C163.3635,801.8614 162.5115,801.3364 162.339,800.4889 L158.838,783.2839 C158.6805,782.5084 159.153,781.7434 159.918,781.5364 L201.852,770.2684 C202.7715,770.0224 203.685,770.6809 203.7405,771.6304 L204.768,789.4999 C204.81,790.2094 204.3465,790.8499 203.6595,791.0344" id="Fill-25" fill="#4E5C93"></path>
        <path d="M226.31775,681.42745 L209.28675,600.16795 C205.97925,583.31845 218.30775,567.42595 235.45125,566.43895 C250.28625,565.58545 263.26125,576.34495 265.16475,591.08395 L275.86875,673.90945 C275.86875,673.90945 280.21275,697.33645 255.45675,700.86445 C231.38025,704.29645 226.31775,681.42745 226.31775,681.42745" id="Fill-27" fill="#253368"></path>
        <path d="M300.2118,657.1183 C296.6778,650.8663 299.2878,642.9298 305.8503,640.0108 C317.0718,635.0203 334.2273,627.1303 349.7418,618.9163 C363.6453,611.5543 371.5398,603.8653 376.6353,604.3213 C382.1298,604.8148 382.7313,612.7498 390.5478,614.5873 C398.3628,616.4248 404.2188,617.6053 409.6608,632.4883 C416.0238,649.8928 403.3338,638.9638 392.3418,635.9668 C372.9303,630.6763 366.5463,632.5933 357.6648,637.2718 C339.4743,646.8538 326.1678,655.3768 317.6478,661.1953 C311.7708,665.2093 303.7158,663.3133 300.2118,657.1183" id="Fill-29" fill="#FFC6A0"></path>
        <path d="M362.86605,611.1097 C362.86605,611.1097 367.08105,611.4592 377.80755,615.1207 C386.27055,618.0097 391.55955,620.0197 392.19705,624.1087 C393.35655,631.5712 394.92405,636.8947 394.92405,636.8947 C394.92405,636.8947 401.14755,640.5922 406.86855,642.7147 C412.58805,644.8357 417.43005,641.0932 413.15955,631.1512 C408.88905,621.2077 405.08505,616.3417 393.12405,611.8897 C381.16305,607.4377 381.53205,601.9987 376.93905,603.0322 C369.75705,604.6492 362.86605,611.1097 362.86605,611.1097" id="Fill-31" fill="#253368"></path>
        <path d="M236.0253,663.24505 L340.9833,617.82055 C343.4928,616.73455 346.6293,617.86255 348.3783,620.48155 L360.7293,638.96155 C362.8098,642.07405 362.1453,646.05955 359.2908,647.59405 L260.1363,700.88755 C260.1363,700.88755 243.6933,710.66905 232.0233,690.08005 C221.1363,670.87405 236.0253,663.24505 236.0253,663.24505" id="Fill-33" fill="#253368"></path>
        <path d="M344.15415,612.56875 L365.72715,644.85025 C366.18465,645.53275 365.97015,646.45975 365.25915,646.87375 L350.84415,655.27075 C350.19315,655.64875 349.36065,655.45675 348.94215,654.83125 L326.01615,620.52625 C325.51365,619.77475 325.82865,618.75175 326.66715,618.41275 L342.43515,612.03925 C343.06065,611.78725 343.77765,612.00775 344.15415,612.56875" id="Fill-35" fill="#4E5C93"></path>
        <path d="M207.7713,605.86345 L162.1233,587.52295 C159.0213,585.29095 157.3398,581.57995 157.7073,577.77595 L161.9538,530.10445 L264.4758,533.69395 L265.9203,578.59345 C266.0088,581.38495 265.0068,584.09095 263.1318,586.16245 C257.3838,592.51345 243.9003,591.42145 218.5473,605.28145 C215.1078,607.16245 210.8643,608.27395 207.7713,605.86345" id="Fill-37" fill="#253368"></path>
        <path d="M257.60325,546.58165 C257.920952,546.58165 258.1785,546.839198 258.1785,547.1569 C258.1785,547.442832 257.969886,547.680039 257.696559,547.724621 L257.60325,547.73215 L164.68875,547.73215 C164.371048,547.73215 164.1135,547.474602 164.1135,547.1569 C164.1135,546.870968 164.322114,546.633761 164.595441,546.589179 L164.68875,546.58165 L257.60325,546.58165 Z" id="Stroke-39" fill="#253368" fill-rule="nonzero"></path>
        <path d="M217.90365,533.91145 C218.189582,533.91145 218.426789,534.120064 218.471371,534.393391 L218.4789,534.4867 L218.4789,547.1572 C218.4789,547.474902 218.221352,547.73245 217.90365,547.73245 C217.617718,547.73245 217.380511,547.523836 217.335929,547.250509 L217.3284,547.1572 L217.3284,534.4867 C217.3284,534.168998 217.585948,533.91145 217.90365,533.91145 Z" id="Stroke-41" fill="#253368" fill-rule="nonzero"></path>
        <path d="M123.3627,334.48495 L123.3627,334.48495 C113.4057,340.33045 110.0742,353.14195 115.9197,363.09895 L149.4027,420.12745 C155.2497,430.08295 168.0612,433.41595 178.0182,427.57045 C187.9737,421.72495 191.3067,408.91345 185.4597,398.95645 L151.9767,341.92795 C146.1312,331.97095 133.3212,328.63945 123.3627,334.48495" id="Fill-43" fill="#E4EBF7"></path>
        <path d="M134.3079,247.38325 L98.9784,253.25275 L112.0059,349.96375 C113.8989,361.35325 124.6644,369.05275 136.0554,367.16125 C147.4449,365.26825 155.1444,354.50125 153.2529,343.11025 L134.3079,247.38325 Z" id="Fill-45" fill="#E4EBF7"></path>
        <path d="M134.097528,246.121992 C134.50614,246.054104 134.89242,246.330315 134.960308,246.738928 C135.022539,247.113489 134.79563,247.469285 134.442644,247.578274 L134.343372,247.601708 L99.0153723,253.471208 C98.6067599,253.539096 98.2204799,253.262885 98.1525918,252.854272 C98.0903611,252.479711 98.3172697,252.123915 98.6702555,252.014926 L98.7695277,251.991492 L134.097528,246.121992 Z" id="Stroke-47" fill="#96A7CA" fill-rule="nonzero"></path>
        <path d="M133.935961,261.961545 C134.344572,261.893647 134.730858,262.16985 134.798755,262.578461 C134.860995,262.953021 134.634094,263.308822 134.281111,263.417819 L134.181839,263.441255 L104.184839,268.425755 C103.776228,268.493653 103.389942,268.21745 103.322045,267.808839 C103.259805,267.434279 103.486706,267.078478 103.839689,266.969481 L103.938961,266.946045 L133.935961,261.961545 Z" id="Stroke-49" fill="#96A7CA" fill-rule="nonzero"></path>
        <path d="M311.63895,332.6107 L311.63895,332.6107 C321.37695,338.8147 324.24195,351.7372 318.03945,361.4752 L282.50445,417.2497 C276.30045,426.9877 263.37795,429.8527 253.63995,423.6487 C243.90195,417.4447 241.03845,404.5222 247.24095,394.7842 L282.77445,339.0097 C288.97845,329.2717 301.90245,326.4067 311.63895,332.6107" id="Fill-51" fill="#E4EBF7"></path>
        <path d="M307.39095,245.6605 L342.29145,253.69 L323.34795,349.417 C320.75895,360.6685 309.53895,367.6915 298.28745,365.104 C287.03445,362.515 280.01145,351.295 282.60045,340.0435 L307.39095,245.6605 Z" id="Fill-53" fill="#E4EBF7"></path>
        <path d="M306.778095,244.976792 C306.863226,244.606763 307.208553,244.364219 307.576444,244.397899 L307.677158,244.414045 L342.577658,252.443545 C342.981326,252.536416 343.233277,252.93894 343.140405,253.342608 C343.055274,253.712637 342.709947,253.955181 342.342056,253.921501 L342.241342,253.905355 L307.340842,245.875855 C306.937174,245.782984 306.685223,245.38046 306.778095,244.976792 Z" id="Stroke-55" fill="#96A7CA" fill-rule="nonzero"></path>
        <path d="M305.966893,260.79775 C306.052021,260.42772 306.397345,260.185172 306.765235,260.218848 L306.86595,260.234993 L336.49995,267.052493 C336.903619,267.145359 337.155574,267.547881 337.062707,267.95155 C336.977579,268.32158 336.632255,268.564128 336.264365,268.530452 L336.16365,268.514307 L306.52965,261.696807 C306.125981,261.603941 305.874026,261.201419 305.966893,260.79775 Z" id="Stroke-57" fill="#96A7CA" fill-rule="nonzero"></path>
        <path d="M197.2743,366.47425 L197.7318,339.18625 L233.3088,340.00675 C233.3088,340.00675 233.1738,358.63825 233.8773,366.19675 C257.7243,399.90025 181.7028,398.63275 192.5613,374.14825 C194.9133,368.84575 197.2743,366.47425 197.2743,366.47425" id="Fill-59" fill="#FFC6A0"></path>
        <path d="M190.46715,323.43715 C192.87015,329.09065 191.16165,335.22565 186.65415,337.14115 C182.14515,339.05665 176.54415,336.02665 174.14115,330.37465 C171.73965,324.71965 173.44665,318.58465 177.95415,316.66915 C182.46315,314.75365 188.06415,317.78365 190.46715,323.43715" id="Fill-61" fill="#FFC6A0"></path>
        <path d="M241.05555,323.43715 C238.65255,329.09065 240.36105,335.22565 244.86855,337.14115 C249.37755,339.05665 254.97855,336.02665 257.38155,330.37465 C259.78305,324.71965 258.07605,318.58465 253.56855,316.66915 C249.05955,314.75365 243.45855,317.78365 241.05555,323.43715" id="Fill-63" fill="#FFC6A0"></path>
        <path d="M229.8129,284.24455 C229.8129,292.21855 223.3479,298.68205 215.3739,298.68205 C207.4014,298.68205 200.9364,292.21855 200.9364,284.24455 C200.9364,276.27055 207.4014,269.80705 215.3739,269.80705 C223.3479,269.80705 229.8129,276.27055 229.8129,284.24455" id="Fill-65" fill="#253368"></path>
        <path d="M230.9379,282.8368 C230.9379,290.8108 224.4744,297.2743 216.5004,297.2743 C208.5279,297.2743 202.0629,290.8108 202.0629,282.8368 C202.0629,274.8628 208.5279,268.3993 216.5004,268.3993 C224.4744,268.3993 230.9379,274.8628 230.9379,282.8368" id="Fill-67" fill="#090D33"></path>
        <path d="M248.6112,322.6381 C248.6112,345.0226 238.4757,356.6581 216.0912,356.6581 C195.1152,356.6581 183.5712,345.2551 183.5712,322.6381 C183.5712,291.8071 198.1317,284.2051 216.0912,284.2051 C234.0522,284.2051 248.6112,294.3421 248.6112,322.6381" id="Fill-69" fill="#FFC6A0"></path>
        <path d="M199.80148,353.437019 C199.920846,353.150206 200.250119,353.014464 200.536931,353.13383 C205.312789,355.121451 210.537286,356.23615 215.9508,356.23615 C220.90084,356.23615 225.385231,355.361491 230.14782,353.68796 C230.440912,353.58497 230.762,353.739079 230.86499,354.03217 C230.96798,354.325262 230.813871,354.64635 230.52078,354.74934 C225.645481,356.462475 221.037962,357.36115 215.9508,357.36115 C210.38363,357.36115 205.013234,356.215322 200.104669,354.17247 C199.817856,354.053104 199.682114,353.723831 199.80148,353.437019 Z" id="Stroke-71" fill="#DD9987" fill-rule="nonzero"></path>
        <path d="M190.0467,286.5985 C190.0467,286.5985 201.1917,277.4965 217.7367,275.992 C223.9317,275.428 230.8047,279.7555 235.4697,283.0315 C248.7027,292.3225 250.0182,297.9535 250.8642,307.8085 C251.5647,315.9775 247.7667,329.206 247.7667,329.206 C247.7667,329.206 247.1067,317.224 246.0777,312.8755 C243.5427,302.176 237.6312,296.827 232.5627,295.4185 C228.3387,316.255 210.0372,312.313 210.0372,312.313 C210.0372,312.313 215.4567,302.176 212.0787,295.4185 C210.1782,313.369 185.8242,311.1865 185.8242,311.1865 C185.8242,311.1865 184.1352,321.886 183.9942,329.206 C183.1482,326.2495 180.6012,320.62 180.1932,311.7505 C179.3472,293.4475 190.0467,286.5985 190.0467,286.5985" id="Fill-73" fill="#253368"></path>
        <path d="M213.6219,324.1762 C213.6219,331.1527 207.9654,336.8077 200.9904,336.8077 C194.0139,336.8077 188.3574,331.1527 188.3574,324.1762 C188.3574,317.1997 194.0139,311.5447 200.9904,311.5447 C207.9654,311.5447 213.6219,317.1997 213.6219,324.1762" id="Fill-75" fill="#FFFFFF"></path>
        <path d="M200.9904,310.7947 C193.599428,310.7947 187.6074,316.785745 187.6074,324.1762 C187.6074,331.566655 193.599428,337.5577 200.9904,337.5577 C208.380118,337.5577 214.3719,331.566409 214.3719,324.1762 C214.3719,316.785991 208.380118,310.7947 200.9904,310.7947 Z M200.9904,312.2947 C207.551718,312.2947 212.8719,317.614445 212.8719,324.1762 C212.8719,330.737955 207.551718,336.0577 200.9904,336.0577 C194.4278,336.0577 189.1074,330.738173 189.1074,324.1762 C189.1074,317.614227 194.4278,312.2947 200.9904,312.2947 Z" id="Stroke-77" fill="#253368" fill-rule="nonzero"></path>
        <path d="M244.59315,324.1762 C244.59315,331.1527 238.93665,336.8077 231.96165,336.8077 C224.98515,336.8077 219.32865,331.1527 219.32865,324.1762 C219.32865,317.1997 224.98515,311.5447 231.96165,311.5447 C238.93665,311.5447 244.59315,317.1997 244.59315,324.1762" id="Fill-79" fill="#FFFFFF"></path>
        <path d="M231.96165,310.7947 C224.570678,310.7947 218.57865,316.785745 218.57865,324.1762 C218.57865,331.566655 224.570678,337.5577 231.96165,337.5577 C239.351368,337.5577 245.34315,331.566409 245.34315,324.1762 C245.34315,316.785991 239.351368,310.7947 231.96165,310.7947 Z M231.96165,312.2947 C238.522968,312.2947 243.84315,317.614445 243.84315,324.1762 C243.84315,330.737955 238.522968,336.0577 231.96165,336.0577 C225.39905,336.0577 220.07865,330.738173 220.07865,324.1762 C220.07865,317.614227 225.39905,312.2947 231.96165,312.2947 Z" id="Stroke-81" fill="#253368" fill-rule="nonzero"></path>
        <path d="M214.362267,319.071639 C215.275961,318.803001 216.206982,318.670238 217.099976,318.751894 C217.88461,318.823641 218.595862,319.060809 219.202133,319.493268 C219.539349,319.733806 219.617721,320.202168 219.377182,320.539383 C219.136644,320.876599 218.668282,320.954971 218.331067,320.714432 C217.956849,320.4475 217.498213,320.294567 216.963384,320.245662 C216.285409,320.183667 215.532714,320.291001 214.785378,320.510728 L214.497828,320.600698 C214.278034,320.673849 214.109837,320.74055 214.008402,320.786648 C213.631304,320.958023 213.186678,320.791251 213.015302,320.414152 C212.843927,320.037054 213.010699,319.592428 213.387798,319.421052 C213.589789,319.329256 213.926787,319.199676 214.362267,319.071639 Z" id="Stroke-83" fill="#253368" fill-rule="nonzero"></path>
        <g id="分组" transform="translate(198.000000, 319.631500)">
            <path d="M1.05705,4.314 C1.05705,2.1345 2.57055,0.369 4.43505,0.369 C6.30105,0.369 7.81455,2.1345 7.81455,4.314" id="Fill-85" fill="#FFFFFF"></path>
            <path d="M1.05705,4.314 C1.05705,2.1345 2.57055,0.369 4.43505,0.369 C6.30105,0.369 7.81455,2.1345 7.81455,4.314" id="Stroke-87" stroke="#253368" stroke-width="1.5" stroke-linecap="round" stroke-linejoin="round"></path>
        </g>
        <g id="分组" transform="translate(226.500000, 319.631500)">
            <path d="M1.0863,4.314 C1.0863,2.1345 2.5998,0.369 4.4658,0.369 C6.3318,0.369 7.8438,2.1345 7.8438,4.314" id="Fill-88" fill="#FFFFFF"></path>
            <path d="M1.0863,4.314 C1.0863,2.1345 2.5998,0.369 4.4658,0.369 C6.3318,0.369 7.8438,2.1345 7.8438,4.314" id="Stroke-90" stroke="#253368" stroke-width="1.5" stroke-linecap="round" stroke-linejoin="round"></path>
        </g>
        <path d="M216.2322,328.0807 C216.511794,328.0807 216.743744,328.28469 216.787338,328.55196 L216.7947,328.6432 L216.7947,333.1477 C216.7947,333.45836 216.54286,333.7102 216.2322,333.7102 C215.952606,333.7102 215.720656,333.50621 215.677062,333.23894 L215.6697,333.1477 L215.6697,328.6432 C215.6697,328.33254 215.92154,328.0807 216.2322,328.0807 Z" id="Stroke-91" fill="#DD9987" fill-rule="nonzero"></path>
        <path d="M222.51795,336.52705 L209.94495,336.52705 C209.94495,336.52705 209.41545,343.31755 216.59445,343.31755 C222.78945,343.31755 222.51795,336.52705 222.51795,336.52705" id="Fill-93" fill="#FFFFFF"></path>
        <path d="M222.51795,335.77705 L209.94495,335.77705 C209.58895,335.77705 209.287424,336.026041 209.21267,336.364637 L209.194948,336.502404 L209.191225,336.576382 C209.175847,336.94545 209.191107,337.411211 209.259754,337.940169 C209.361467,338.723912 209.564112,339.498825 209.893795,340.230431 C210.969834,342.618287 213.155092,344.06755 216.59445,344.06755 C219.625921,344.06755 221.578117,342.598046 222.571755,340.210468 C222.887055,339.452844 223.084242,338.650179 223.188401,337.841848 C223.244696,337.404966 223.267653,337.022466 223.269787,336.717273 L223.267351,336.497087 C223.251269,336.094851 222.920507,335.77705 222.51795,335.77705 Z M210.701,337.277 L221.746,337.277 L221.743799,337.318045 C221.683773,338.025691 221.516511,338.842109 221.186895,339.634132 C220.414283,341.490616 218.983604,342.56755 216.59445,342.56755 C213.752183,342.56755 212.097816,341.470375 211.261355,339.614169 C210.997,339.027533 210.831136,338.39327 210.74728,337.74712 L210.712637,337.429646 L210.701,337.277 Z" id="Stroke-95" fill="#F5222D" fill-rule="nonzero"></path>
        <path d="M180.373792,316.607616 C180.551431,316.272037 180.947609,316.126706 181.294385,316.25408 L181.387534,316.295642 L188.568034,320.096642 C188.93412,320.29043 189.073796,320.744298 188.880008,321.110384 C188.702369,321.445963 188.306191,321.591294 187.959415,321.46392 L187.866266,321.422358 L180.685766,317.621358 C180.31968,317.42757 180.180004,316.973702 180.373792,316.607616 Z" id="Stroke-97" fill="#253368" fill-rule="nonzero"></path>
        <path d="M249.836188,315.946848 C250.161871,315.690912 250.633367,315.747454 250.889302,316.073138 C251.121971,316.369214 251.096394,316.785795 250.84513,317.051379 L250.763012,317.126252 L244.851512,321.771752 C244.525829,322.027688 244.054333,321.971146 243.798398,321.645462 C243.565729,321.349386 243.591306,320.932805 243.84257,320.667221 L243.924688,320.592348 L249.836188,315.946848 Z" id="Stroke-99" fill="#253368" fill-rule="nonzero"></path>
        <path d="M254.0985,379.28875 L238.05,371.68675 C239.5365,381.83725 198.5805,385.50175 192.378,373.82425 C192.219,373.52725 192.0945,373.24825 191.988,372.97975 L165.8295,383.51275 L186.2595,556.27525 C186.2595,556.27525 217.7955,570.30925 249.612,557.54125 C260.3115,415.63525 254.0985,379.28875 254.0985,379.28875" id="Fill-101" fill="#597EF7"></path>
        <path d="M232.241859,384.713322 C232.526025,384.571251 232.871558,384.686442 233.013628,384.970609 C233.155699,385.254775 233.040508,385.600308 232.756341,385.742378 C231.657079,386.291961 230.535599,386.783165 229.393312,387.217637 C220.560564,390.577192 211.152553,390.441596 202.288025,388.200903 C200.912611,387.853238 199.671673,387.480492 198.585199,387.107286 L198.047867,386.917939 C197.964187,386.88765 197.883471,386.858027 197.805758,386.829119 L197.22346,386.602978 C196.930402,386.480294 196.792287,386.143268 196.914972,385.85021 C197.037656,385.557152 197.374682,385.419037 197.66774,385.541722 L197.992931,385.670103 L198.440576,385.836537 C198.601687,385.894846 198.774588,385.955858 198.958961,386.019191 C200.016095,386.382318 201.22654,386.745905 202.56997,387.085485 C211.225333,389.273307 220.404592,389.405606 228.984303,386.142294 C230.090931,385.721386 231.177206,385.245601 232.241859,384.713322 Z" id="Stroke-103" fill="#3C65D6" fill-rule="nonzero"></path>
        <path d="M150.82995,552.93715 L156.46095,376.11715 C162.14145,366.82615 170.53995,366.54415 181.80045,372.17665 C186.76845,374.65915 192.58095,367.54615 196.36245,366.22165 C209.06595,473.91865 201.51045,591.22915 182.34645,686.81965 C153.62745,691.04365 129.99345,666.68665 129.99345,666.68665 L150.82995,552.93715 Z" id="Fill-105" fill="#E4EBF7"></path>
        <path d="M196.785271,365.105969 C197.253597,364.866784 197.816268,365.171305 197.872153,365.694197 L198.079094,367.730906 L198.384275,370.909053 C198.498245,372.127785 198.617943,373.44195 198.742485,374.848425 L199.009197,377.917659 C199.571785,384.514435 200.129917,391.848762 200.655601,399.821398 C203.197063,438.36578 204.212852,479.001658 202.822939,518.612703 C201.572586,554.243806 197.723554,591.16818 192.088616,627.660063 C189.733741,642.910246 187.216628,657.095258 184.693589,669.882715 L184.413235,671.297775 C183.668992,675.0388 182.967888,678.437764 182.321611,681.469808 L181.595129,684.829993 L180.921923,687.834713 C180.84268,688.175608 180.538198,688.4149 180.188218,688.4149 L179.516484,688.400104 L178.829877,688.373611 C178.466614,688.357265 178.073749,688.336133 177.652807,688.309587 C175.652313,688.183429 173.42483,687.962328 171.026731,687.623019 C164.173396,686.653337 157.31861,684.930807 150.912629,682.266011 C142.241749,678.659049 135.08151,673.597193 129.960773,666.859205 C129.710143,666.529421 129.774311,666.058902 130.104095,665.808273 C130.433879,665.557643 130.904398,665.621811 131.155027,665.951595 C136.100466,672.458922 143.046016,677.369005 151.488748,680.881061 C157.766203,683.492392 164.500813,685.184723 171.236874,686.137812 C173.595063,686.471474 175.784134,686.688762 177.747214,686.81256 L178.532271,686.857546 C178.656745,686.863924 178.777997,686.869756 178.895969,686.875067 L179.596,686.901 L180.130114,684.507919 C180.221482,684.091825 180.317208,683.65314 180.417147,683.19217 L181.15614,679.734373 C181.715822,677.079484 182.313491,674.164702 182.942065,671.005099 L183.50186,668.167859 C185.927093,655.773803 188.341718,642.095855 190.606186,627.431152 C196.232705,590.993792 200.075776,554.126601 201.323861,518.560099 C202.675284,480.045992 201.74897,440.553242 199.356068,402.963664 L198.99201,397.426887 C198.46048,389.599644 197.899527,382.420885 197.337138,375.989918 L196.948171,371.665185 C196.851826,370.625298 196.75936,369.65131 196.671282,368.745031 L196.492,366.939 L184.272,373.181 L184.419878,375.157935 L184.662145,378.16529 C184.894171,380.947708 185.173307,384.05177 185.502731,387.450212 L185.895976,391.408819 C187.009088,402.353716 188.424341,414.180154 190.174984,426.602658 L191.746958,437.550942 C192.275126,441.192422 192.781325,444.646006 193.284715,448.047059 L197.012084,472.946286 C198.189979,480.922657 199.234819,488.331697 200.565195,498.213835 C200.620459,498.624345 200.332476,499.00193 199.921965,499.057195 C199.511455,499.112459 199.13387,498.824476 199.078605,498.413965 L197.961133,490.207742 C197.118769,484.101558 196.356398,478.773894 195.528151,473.165246 L191.951895,449.285982 C190.995773,442.838786 190.036431,436.250774 188.942438,428.593466 C187.071879,415.499553 185.571746,403.045926 184.403655,391.560402 L184.093288,388.452235 C183.670159,384.134481 183.326114,380.27333 183.054929,376.921993 L182.816948,373.850663 L182.741546,372.788057 C182.724181,372.526362 182.844612,372.27761 183.053819,372.128179 L183.148771,372.070469 L196.785271,365.105969 Z" id="Stroke-107" fill="#96A7CA" fill-rule="nonzero"></path>
        <path d="M152.041626,536.424452 L171.751626,538.677452 C172.098549,538.717108 172.367261,538.989211 172.41039,539.326922 L172.416413,539.430037 L171.85245,596.2966 C171.85245,601.294127 167.525398,605.167165 162.553631,604.654246 L162.295915,604.623788 L143.878915,601.175288 C143.471777,601.099053 143.203527,600.707203 143.279762,600.300065 C143.349644,599.926855 143.684731,599.67035 144.053693,599.688911 L144.154985,599.700912 L162.532834,603.143147 C166.597035,603.683713 170.216042,600.591174 170.348721,596.520599 L170.352487,596.289163 L170.909,540.09 L151.871274,537.914748 C151.494035,537.871626 151.214313,537.555661 151.206547,537.186314 L151.211302,537.084424 C151.254424,536.707185 151.570389,536.427463 151.939736,536.419697 L152.041626,536.424452 Z" id="Stroke-109" fill="#96A7CA" fill-rule="nonzero"></path>
        <path d="M244.54335,667.7728 C221.17335,565.8478 219.34485,478.1833 233.94585,366.2218 C237.72735,367.5463 246.49335,373.1383 248.81235,372.7393 C265.14285,369.9238 275.58135,373.0603 282.55335,381.4273 C288.88785,389.0278 275.08485,441.3598 271.15035,523.3333 C271.15035,523.3333 273.30885,528.7228 270.77385,538.8598 C278.42235,589.8628 289.35735,626.7058 289.35735,626.7058 C289.35735,626.7058 283.82085,644.9653 244.54335,667.7728" id="Fill-111" fill="#E4EBF7"></path>
        <path d="M233.404794,365.057409 L233.497176,365.093107 L248.564676,372.057607 C248.885452,372.205876 249.059208,372.55795 248.981772,372.902746 L248.254947,376.192922 L247.003942,381.964496 C246.64425,383.639159 246.264406,385.419741 245.865597,387.302621 L244.806613,392.331528 C242.753513,402.137412 240.568988,412.89523 238.304841,424.447028 L238.009071,425.958274 C234.88978,441.916786 232.840196,454.236772 230.887341,468.2602 L230.49296,471.123833 C230.310862,472.459907 230.125139,473.840912 229.930964,475.301419 L226.280295,503.159965 C226.22503,503.570476 225.847445,503.858459 225.436935,503.803195 C225.402725,503.798589 225.369367,503.791746 225.336987,503.782831 L225.281,503.763 L225.280021,503.94962 C225.275452,506.065506 225.277264,508.181735 225.28559,510.297926 L225.302982,513.472137 C225.35381,520.714767 225.599144,528.226777 226.028304,535.982765 C227.425705,561.237251 230.700214,588.238729 235.283004,615.643323 C237.468782,628.714039 239.81069,641.020762 242.152484,652.19518 L242.840116,655.44284 C243.1763,657.014035 243.500694,658.505472 243.811761,659.913527 L244.613789,663.490781 L245.2728,666.33091 C245.369444,666.733691 245.121272,667.138555 244.71849,667.2352 C244.315709,667.331844 243.910845,667.083672 243.8142,666.68089 L243.336604,664.634053 L242.952541,662.947925 C242.26809,659.918168 241.505524,656.421147 240.684376,652.502847 L240.072531,649.557321 C237.9318,639.159712 235.802493,627.844204 233.803548,615.890728 C229.212301,588.435564 225.931373,561.381155 224.530596,536.065637 C224.100141,528.286255 223.854022,520.750217 223.803019,513.482671 C223.54983,477.459938 225.20051,441.376423 228.107969,407.096302 L228.451767,403.119839 C229.183242,394.818563 229.949131,387.11384 230.719751,380.091268 L231.085018,376.816143 C231.412993,373.922761 231.719375,371.348269 231.997516,369.11184 L232.439369,365.672625 C232.502927,365.206258 232.970549,364.921302 233.404794,365.057409 Z M247.386,373.165 L233.792,366.882 L233.554801,368.74644 L233.272727,371.033508 C233.078603,372.632738 232.872656,374.380057 232.656856,376.26978 L232.575473,376.985091 C231.562056,385.925416 230.548565,396.06979 229.602603,407.223069 C227.125809,436.425467 225.56218,466.938461 225.312745,497.603368 L225.302,499.136 L228.206462,476.898298 C228.448754,475.06091 228.676102,473.357868 228.89686,471.729376 L229.224098,469.335077 C231.175618,455.177137 233.195152,442.884108 236.255789,427.113931 L237.127897,422.655361 C239.386302,411.166391 241.562839,400.478468 243.605707,390.749498 L244.900771,384.625693 C245.392753,382.316525 245.852544,380.179047 246.27762,378.220951 L247.386,373.165 Z" id="Stroke-113" fill="#96A7CA" fill-rule="nonzero"></path>
        <path d="M268.971288,538.118067 C269.380687,538.055099 269.763616,538.335938 269.826583,538.745338 C269.884304,539.12062 269.653131,539.473661 269.298859,539.578396 L269.199312,539.600633 L247.99,542.862 L257.194455,596.39527 L257.2053,596.52235 C257.2053,600.620794 260.749569,603.799646 264.707651,603.409762 L264.932114,603.383864 L281.846114,598.949864 C282.246789,598.844828 282.656749,599.08449 282.761786,599.485164 C282.858069,599.852449 282.66471,600.227537 282.323194,600.368406 L282.226486,600.400836 L265.221693,604.852735 C260.269236,605.514897 255.857276,601.737002 255.709141,596.779792 L255.706,596.591 L246.383145,542.36443 C246.318004,541.985545 246.54927,541.625188 246.907552,541.518652 L247.008288,541.496067 L268.971288,538.118067 Z" id="Stroke-115" fill="#96A7CA" fill-rule="nonzero"></path>
    </g>
</svg>