<svg xmlns="http://www.w3.org/2000/svg" xmlns:xlink="http://www.w3.org/1999/xlink" width="512" height="1024" version="1.1" viewBox="0 0 512 1024"><title>2.人物组件/3.商务经理/坐姿/讨论</title><desc>Created with Sketch.</desc><defs><polygon id="path-1" points="0 .085 78.696 .085 78.696 74.454 0 74.454"/></defs><g id="2.人物组件/3.商务经理/坐姿/讨论" fill="none" fill-rule="evenodd" stroke="none" stroke-width="1"><path id="Fill-1" fill="#A08889" d="M183.1739,432.16055 C183.1739,432.16055 183.6584,425.84855 181.5044,417.97655 C179.3504,410.10455 173.5049,400.67855 173.4434,391.21505 C173.3819,381.75305 165.2849,389.69105 169.8689,407.53655 C157.7579,404.46155 145.0364,398.69555 141.2309,389.45405 C139.8404,386.07755 136.5794,386.62505 136.5014,389.87855 C136.4234,393.13205 137.7254,396.18005 137.7254,396.18005 C137.7254,396.18005 135.3764,398.82305 136.9784,402.49355 C133.8599,408.03455 139.0079,411.54905 139.0079,411.54905 C139.0079,411.54905 135.8669,413.54105 142.2299,421.78055 C148.8224,430.31855 166.3739,435.94955 166.3739,435.94955 L178.1429,466.89305 L194.8964,456.26855 L183.1739,432.16055 Z"/><path id="Stroke-3" fill="#7C5B4D" fill-rule="nonzero" d="M169.349276,407.322904 C169.467435,407.035592 169.796135,406.898466 170.083446,407.016626 C170.370758,407.134785 170.507884,407.463485 170.389724,407.750796 L170.294906,407.994594 C170.255045,408.100995 170.207442,408.231928 170.15364,408.385588 C169.972934,408.901691 169.791936,409.480089 169.622942,410.106204 C169.08322,412.105855 168.788237,414.116053 168.864397,415.977153 C168.960386,418.322781 169.642966,420.234002 171.016091,421.588963 C171.237218,421.807165 171.239589,422.163313 171.021387,422.384441 C170.803185,422.605568 170.447037,422.607939 170.225909,422.389737 C168.625511,420.810509 167.84705,418.63082 167.740338,416.023152 C167.658869,414.032327 167.969689,411.91421 168.536809,409.813048 C168.713277,409.159243 168.902415,408.554832 169.091845,408.013814 L169.284405,407.486681 C169.309823,407.420652 169.331599,407.365885 169.349276,407.322904 Z"/><path id="Stroke-5" fill="#7C5B4D" fill-rule="nonzero" d="M141.430956,407.356344 C142.381364,406.482921 143.27798,406.160243 144.046954,406.729154 C144.893364,407.355945 145.104654,408.726292 144.943525,410.67633 C144.886906,411.361541 144.783474,412.088732 144.64673,412.829288 C144.596884,413.099234 144.544675,413.359741 144.491653,413.607327 L144.361,414.186 L144.430531,414.293618 C144.588934,414.539502 144.775562,414.81432 144.988944,415.11077 C145.5994,415.95887 146.299755,416.807175 147.077359,417.597183 C149.27875,419.83369 151.641972,421.157005 154.053991,421.141712 C162.153285,421.088306 170.083563,423.281098 171.578595,427.312098 C171.686624,427.60337 171.538075,427.927067 171.246802,428.035095 C170.95553,428.143124 170.631833,427.994575 170.523805,427.703302 C169.265349,424.310177 161.693037,422.216365 154.061266,422.266689 C151.287128,422.284278 148.669617,420.818571 146.275594,418.386358 C145.454451,417.552117 144.718052,416.660154 144.075878,415.767987 C143.907099,415.533504 143.753833,415.311326 143.616625,415.10449 L143.334892,414.665465 C143.30929,414.623867 143.288869,414.589941 143.273714,414.564147 C143.198171,414.435571 143.176776,414.28226 143.214233,414.137914 L143.314997,413.717864 C143.391801,413.381897 143.46869,413.013535 143.540432,412.625009 C143.670826,411.918842 143.769132,411.227691 143.822346,410.583688 C143.951539,409.020153 143.78413,407.934408 143.377651,407.633398 C143.187457,407.492687 142.789237,407.636 142.192194,408.18468 C141.802465,408.54284 141.379706,409.032901 140.941671,409.62004 C140.582192,410.101882 140.233417,410.620314 139.909836,411.138967 L139.595639,411.656456 C139.556236,411.723561 139.523652,411.780212 139.498397,411.825085 C139.34603,412.095814 139.003043,412.191765 138.732315,412.039397 C138.461586,411.88703 138.365635,411.544043 138.518003,411.273315 L138.691698,410.975046 C138.765139,410.851946 138.853575,410.706631 138.95536,410.543483 C139.294323,410.000174 139.659984,409.456644 140.039964,408.947321 C140.516414,408.308692 140.982222,407.768729 141.430956,407.356344 Z"/><path id="Stroke-7" fill="#7C5B4D" fill-rule="nonzero" d="M139.699026,398.284894 C140.965077,397.236745 142.158892,397.046627 142.938311,398.198876 C143.574439,399.13989 143.629379,400.46141 143.262799,402.06753 C143.082775,402.856279 142.805243,403.68877 142.456597,404.539209 C142.290015,404.945546 142.114678,405.337814 141.937078,405.709001 L141.62644,406.333414 C141.545732,406.489355 141.481064,406.608988 141.436997,406.687285 C141.28463,406.958014 140.941643,407.053965 140.670915,406.901597 C140.400186,406.74923 140.304235,406.406243 140.456603,406.135515 L140.629,405.813086 C140.66651,405.740569 140.708026,405.659094 140.752971,405.569309 C140.978872,405.118043 141.204949,404.626487 141.415674,404.112473 C141.742553,403.315128 142.001184,402.539334 142.166004,401.817199 C142.469867,400.485865 142.426846,399.451047 142.006382,398.829062 C141.711416,398.393 141.242353,398.467699 140.416445,399.151459 C139.983491,399.509897 139.514277,400.003811 139.028322,400.597533 C138.636343,401.076441 138.256417,401.591624 137.904193,402.106996 L137.600939,402.561359 C137.540462,402.654527 137.492008,402.731135 137.456745,402.788388 C137.293827,403.052902 136.947326,403.135262 136.682812,402.972345 C136.418298,402.809427 136.335938,402.462926 136.498855,402.198412 L136.654814,401.952688 C136.719366,401.853185 136.79611,401.737 136.883924,401.60688 L136.975388,401.472215 C137.344663,400.931895 137.743265,400.391386 138.157751,399.884982 C138.685897,399.23971 139.202281,398.696144 139.699026,398.284894 Z"/><path id="Stroke-9" fill="#7C5B4D" fill-rule="nonzero" d="M144.394783,410.522286 C144.632135,410.321852 144.987031,410.351781 145.187464,410.589133 C147.503505,413.331774 149.641612,414.945433 153.056354,416.512832 C153.338692,416.642428 153.462514,416.976366 153.332918,417.258704 C153.203322,417.541042 152.869384,417.664864 152.587046,417.535268 C149.023185,415.899422 146.751529,414.184971 144.327936,411.314967 C144.127502,411.077615 144.157431,410.722719 144.394783,410.522286 Z"/><path id="Stroke-11" fill="#7C5B4D" fill-rule="nonzero" d="M142.394744,405.108099 C142.596936,404.872243 142.952044,404.844953 143.187901,405.047144 L143.443863,405.259222 L143.542041,405.338634 C143.83558,405.574986 144.175532,405.838845 144.557452,406.123316 C145.650032,406.937118 146.857685,407.751222 148.144406,408.510487 C150.117253,409.674619 152.093302,410.60089 154.011823,411.201381 C154.3083,411.294177 154.473415,411.609746 154.380619,411.906223 C154.287823,412.2027 153.972254,412.367815 153.675777,412.275019 C151.666615,411.646158 149.614654,410.684303 147.572683,409.479382 C146.249033,408.698326 145.008542,407.862085 143.885432,407.025543 L143.327477,406.602161 L142.836494,406.214892 C142.652537,406.066773 142.524155,405.95994 142.455699,405.901256 C142.219843,405.699064 142.192553,405.343956 142.394744,405.108099 Z"/><path id="Stroke-13" fill="#7C5B4D" fill-rule="nonzero" d="M142.783434,399.40004 C142.987757,399.166028 143.343098,399.14196 143.57711,399.346284 L144.012823,399.713252 L144.468758,400.084242 C144.709502,400.277409 144.969127,400.481672 145.246351,400.695174 C146.567429,401.712596 148.01344,402.730209 149.536437,403.679254 C151.414388,404.849484 153.2776,405.831667 155.081342,406.564354 C155.369162,406.681268 155.50771,407.009371 155.390796,407.297192 C155.273882,407.585012 154.945779,407.72356 154.657958,407.606646 C152.789245,406.847567 150.870483,405.836101 148.941465,404.634048 C147.384653,403.663932 145.90878,402.625304 144.559914,401.586483 L144.017048,401.162767 C143.844238,401.026012 143.679697,400.893922 143.523798,400.767043 L142.83719,400.193716 C142.603178,399.989393 142.57911,399.634052 142.783434,399.40004 Z"/><path id="Stroke-15" fill="#7C5B4D" fill-rule="nonzero" d="M156.692155,404.497298 C156.984812,404.601517 157.137571,404.923248 157.033352,405.215905 L156.906792,405.581399 L156.659429,406.322841 L156.569459,406.599842 C156.220028,407.682875 155.87053,408.847573 155.54447,410.048148 C155.170173,411.426333 154.851268,412.763266 154.60506,414.024599 L154.46788,414.762901 C153.915245,417.902259 153.908802,420.252572 154.552514,421.435301 C154.701023,421.708165 154.600213,422.049755 154.327349,422.198264 C154.054485,422.346773 153.712895,422.245963 153.564386,421.973099 C152.701142,420.387011 152.766253,417.572687 153.500899,413.809071 C153.752729,412.518936 154.077806,411.156126 154.458796,409.753294 C154.789781,408.534584 155.144259,407.353294 155.498806,406.254406 L155.841983,405.218349 L155.973548,404.838495 C156.077767,404.545838 156.399498,404.393079 156.692155,404.497298 Z"/><path id="Stroke-17" fill="#7C5B4D" fill-rule="nonzero" d="M139.363959,392.621884 C140.025633,391.917265 140.662259,391.592747 141.301038,391.906888 C142.276562,392.386884 142.743544,393.394992 142.84506,394.722778 C142.896651,395.397549 142.850375,396.109133 142.742332,396.804953 L142.687328,397.128606 C142.660643,397.272114 142.635887,397.386937 142.616237,397.467654 C142.542754,397.769498 142.23849,397.954621 141.936646,397.881137 C141.634802,397.807654 141.449679,397.50339 141.523163,397.201546 L141.560218,397.03206 C141.581422,396.926636 141.605944,396.791471 141.630653,396.632338 C141.726499,396.015073 141.767443,395.385465 141.723334,394.80854 C141.648974,393.835947 141.346555,393.183092 140.804466,392.916363 C140.767955,392.898408 140.537007,393.016133 140.184052,393.391995 C139.906494,393.687568 139.603399,394.091835 139.288789,394.575424 C139.025626,394.979934 138.76984,395.415607 138.532349,395.851539 L138.301735,396.286399 C138.272828,396.342744 138.248937,396.390277 138.23044,396.427881 C138.093318,396.706642 137.756179,396.821462 137.477419,396.68434 C137.198658,396.547218 137.083838,396.210079 137.22096,395.931319 L137.407504,395.56825 C137.448537,395.490703 137.494303,395.405367 137.544441,395.313336 C137.794942,394.853523 138.065052,394.393452 138.345786,393.961933 C138.693625,393.427268 139.034071,392.973182 139.363959,392.621884 Z"/><path id="Fill-19" fill="#253368" d="M199.4462,810.5573 C199.4462,810.5573 188.8457,836.0258 164.0507,842.0933 C147.8177,846.0653 164.9072,860.5928 193.4027,853.7048 C209.6477,849.7793 205.7192,841.5593 214.8257,841.1438 C220.1057,840.9038 230.6027,837.7148 230.9462,833.6978 C231.5447,826.6793 231.7022,824.7113 231.8702,816.5303 C232.8647,768.0563 213.8777,767.1983 199.4462,810.5573"/><path id="Fill-21" fill="#4E5C93" d="M126.42515,624.79625 L126.42515,624.79625 C125.58365,611.85725 135.10265,600.55925 147.99665,599.19275 L278.21915,585.39725 C294.88115,583.63175 309.66065,596.08475 310.74965,612.80375 C311.83715,629.52275 298.79315,643.78625 282.04565,644.19425 L151.13165,647.38775 C138.17015,647.70425 127.26815,637.73525 126.42515,624.79625"/><g id="分组" transform="translate(110.000000, 759.531500)"><mask id="mask-2" fill="#fff"><use xlink:href="#path-1"/></mask><path id="Fill-23" fill="#253368" d="M43.7496,30.6732 C43.7496,30.6732 31.6776,55.4772 6.5706,60.0837 C-9.8679,63.0987 6.3426,78.6012 35.1921,73.3932 C51.6381,70.4247 48.1986,61.9887 57.3141,62.1072 C62.5986,62.1762 77.8251,57.5097 78.4026,53.5212 C79.4106,46.5477 77.6046,44.5287 76.2861,37.2402 C67.6641,-10.4733 60.6951,-11.7663 43.7496,30.6732" mask="url(#mask-2)"/></g><path id="Fill-25" fill="#4E5C93" d="M186.06695,783.74405 L172.99595,621.30905 C171.90695,607.76255 159.76595,597.84305 146.27495,599.47205 C132.93095,601.08455 123.53345,613.36655 125.46395,626.66705 L150.42395,788.22155 C150.42395,788.22155 166.54145,794.04905 186.06695,783.74405"/><path id="Fill-27" fill="#ADC6FF" d="M385.95005,550.0214 L385.95005,550.0214 C396.49805,547.3319 403.01255,536.7614 400.67405,526.1294 L380.98655,436.5914 C378.16805,423.7604 365.28005,415.8179 352.54955,419.0654 C339.82205,422.3114 332.31305,435.4559 335.98055,448.0694 L361.58105,536.0999 C364.62005,546.5519 375.40205,552.7124 385.95005,550.0214"/><path id="Fill-29" fill="#ADC6FF" d="M206.6663,541.8998 L206.6663,541.8998 C216.2618,547.0403 228.2048,543.6458 233.6618,534.2258 L279.6188,454.8998 C286.2038,443.5328 282.0653,428.9723 270.4853,422.7683 C258.9053,416.5658 244.4903,421.1873 238.6763,432.9668 L198.0983,515.1743 C193.2803,524.9348 197.0708,536.7593 206.6663,541.8998"/><path id="Fill-31" fill="#ADC6FF" d="M183.85145,425.0888 L157.14845,438.8363 L195.10745,535.2848 C200.01395,545.6603 212.60045,549.9368 222.78845,544.6913 C232.97795,539.4458 236.66795,526.7903 230.90495,516.8558 L183.85145,425.0888 Z"/><path id="Stroke-33" fill="#597EF7" fill-rule="nonzero" d="M188.26754,439.932746 C188.643511,439.758909 189.089217,439.92277 189.263054,440.29874 C189.422405,440.64338 189.297995,441.046617 188.986561,441.245329 L188.89706,441.294254 L165.14006,452.278754 C164.764089,452.452591 164.318383,452.28873 164.144546,451.91276 C163.985195,451.56812 164.109605,451.164883 164.421039,450.966171 L164.51054,450.917246 L188.26754,439.932746 Z"/><path id="Stroke-35" fill="#597EF7" fill-rule="nonzero" d="M183.352906,425.032048 C183.691802,424.848459 184.108331,424.953093 184.323564,425.259795 L184.377063,425.348386 L221.469063,497.444386 C221.658559,497.812712 221.51359,498.264916 221.145264,498.454413 C220.807632,498.628118 220.399518,498.520779 220.187884,498.217978 L220.135237,498.130614 L183.393,426.715 L158.814894,440.030952 C158.481039,440.211811 158.070732,440.11319 157.852694,439.814966 L157.798198,439.728744 C157.617339,439.394889 157.71596,438.984582 158.014184,438.766544 L158.100406,438.712048 L183.352906,425.032048 Z"/><path id="Fill-37" fill="#FFF" d="M169.2821,440.219 C168.7301,439.0505 167.3336,438.5435 166.1636,439.0835 C164.9936,439.625 164.4926,441.011 165.0431,442.178 C165.5951,443.3465 166.9916,443.855 168.1616,443.3135 C169.3316,442.772 169.8341,441.3875 169.2821,440.219"/><path id="Fill-39" fill="#A08889" d="M322.80215,405.5924 L317.54165,372.3539 L281.33315,374.5694 L283.36715,408.5519 C283.49465,416.6219 288.58415,423.9569 296.27915,426.3899 C297.08015,426.6434 297.90215,426.8624 298.74965,427.0364 C311.51615,429.6779 324.48215,418.5209 322.80215,405.5924"/><path id="Fill-41" fill="#A08889" d="M327.0794,355.7057 C325.4024,381.9767 308.3789,395.1767 291.2114,397.4852 C270.7439,400.2362 264.6659,382.9487 263.6669,357.2402 C262.6529,331.1357 273.0734,321.3317 292.3469,319.1072 C312.4379,316.7882 328.7789,329.0957 327.0794,355.7057"/><path id="Fill-43" fill="#604346" d="M313.19855,360.7151 C313.62905,358.6391 313.91705,355.1951 317.05055,353.5661 C321.36455,351.3221 325.74455,356.0441 325.57655,361.5326 C325.37255,368.1836 319.90055,372.6701 316.61255,372.9791 C317.35055,378.2891 318.87905,382.4261 318.87905,382.4261 C318.87905,382.4261 324.92705,375.0071 327.99455,363.5276 C332.77955,345.6176 326.75855,321.6476 306.76055,317.7686 C275.59505,312.6371 267.22805,334.8911 267.22805,334.8911 L303.97655,332.6111 L304.10855,345.3251 C304.10855,345.3251 310.87655,345.1136 310.80605,360.1781 L313.19855,360.7151 Z"/><path id="Stroke-45" fill="#604346" fill-rule="nonzero" d="M296.102777,348.631268 C296.156089,348.625489 296.209789,348.625453 296.262959,348.63111 L296.342202,348.643862 L300.210702,349.480862 C300.615548,349.568455 300.872732,349.967656 300.785138,350.372502 C300.704844,350.743611 300.362713,350.990643 299.994414,350.961768 L299.893498,350.946938 L296.144,350.135 L284.238923,351.426032 C283.861438,351.46695 283.519064,351.220255 283.430241,350.861663 L283.412468,350.761223 C283.37155,350.383738 283.618245,350.041364 283.976837,349.952541 L284.077277,349.934768 L296.102777,348.631268 Z"/><path id="Fill-47" fill="#7F6567" d="M302.7821,382.16735 C297.9221,376.41935 298.7486,371.84135 282.0311,372.21335 C271.1936,372.45485 270.5336,376.26335 268.0316,383.49785 C271.3526,394.00235 280.6976,399.99185 292.2356,398.07935 C316.4726,394.06085 315.4421,369.55385 315.4421,369.55385 C315.4421,369.55385 312.0806,370.73435 311.1296,372.66185 C308.5031,377.99135 304.5611,380.02085 302.7821,382.16735"/><path id="Fill-49" fill="#FFF" d="M276.17165,376.22255 C276.17165,376.22255 283.78565,376.16705 292.34465,375.88955 C292.34465,375.88955 291.46565,380.12255 284.49965,380.77805 C279.03215,381.29105 276.17165,376.22255 276.17165,376.22255"/><path id="Stroke-51" fill="#604346" fill-rule="nonzero" d="M292.326422,375.327345 C289.634097,375.414636 286.89046,375.484983 284.171731,375.540281 L280.823556,375.601185 L276.167298,375.660067 C275.738669,375.663383 275.471104,376.125722 275.68178,376.499017 L275.780717,376.664422 C275.87983,376.82285 276.0206,377.031026 276.202976,377.275972 C276.624427,377.842014 277.126735,378.407226 277.710546,378.935593 C279.600348,380.645925 281.889085,381.587963 284.552197,381.33809 C287.496918,381.060992 289.651922,380.148621 291.12282,378.789325 C292.226492,377.769393 292.744153,376.732281 292.895401,376.003916 C292.969435,375.64739 292.690363,375.315546 292.326422,375.327345 Z M289.651635,376.533609 L291.511,376.477 L291.544093,376.415422 C291.282639,376.939235 290.89619,377.466937 290.359287,377.963103 C289.075551,379.149438 287.15303,379.963382 284.446952,380.218024 C282.130216,380.435397 280.138435,379.615585 278.465447,378.101478 L278.158444,377.811899 C277.860112,377.518704 277.587843,377.215516 277.342148,376.910054 L277.237,376.774 L279.013346,376.753174 C279.792108,376.742596 280.617591,376.730085 281.483117,376.715472 C284.180861,376.669928 286.929046,376.609942 289.651635,376.533609 Z"/><path id="Stroke-53" fill="#604346" fill-rule="nonzero" d="M275.031213,350.320927 C275.293471,350.224007 275.581751,350.334946 275.71529,350.570532 L275.753823,350.653563 L277.268823,354.753063 C277.289603,354.809292 277.301194,354.868295 277.303336,354.927823 L277.29943,355.017228 L275.55163,369.120237 C275.477087,369.830813 276.028147,370.442386 276.79885,370.460068 L276.937054,370.456922 L286.492054,371.238422 C286.80168,371.263746 287.032152,371.535277 287.006828,371.844904 C286.984036,372.123567 286.761817,372.338116 286.491883,372.359778 L286.400346,372.359778 L276.933876,371.578429 C275.531897,371.685101 274.366615,370.53976 274.422666,369.147978 L274.43397,368.992372 L276.165,355.014 L274.698577,351.043537 C274.601657,350.781279 274.712596,350.492999 274.948182,350.35946 L275.031213,350.320927 Z"/><path id="Stroke-55" fill="#604346" fill-rule="nonzero" d="M287.332656,384.67347 C287.642531,384.651409 287.911619,384.88473 287.93368,385.194606 C287.953535,385.473494 287.766531,385.719344 287.503032,385.781807 L287.412544,385.79563 L282.882544,386.11813 C282.572669,386.140191 282.303581,385.90687 282.28152,385.596994 C282.261665,385.318106 282.448669,385.072256 282.712168,385.009793 L282.802656,384.99597 L287.332656,384.67347 Z"/><path id="Stroke-57" fill="#604346" fill-rule="nonzero" d="M264.69911,350.032753 L274.67261,350.151253 C275.086795,350.156174 275.418568,350.495926 275.413701,350.91011 C275.409136,351.289779 275.123274,351.6002 274.756634,351.64551 L274.65479,351.651147 L264.68129,351.532647 C264.267105,351.527726 263.935332,351.187974 263.940199,350.77379 C263.944764,350.394121 264.230626,350.0837 264.597266,350.03839 L264.69911,350.032753 Z"/><path id="Stroke-59" fill="#604346" fill-rule="nonzero" d="M305.162541,392.508994 C305.418086,392.332341 305.768452,392.396296 305.945106,392.651841 C306.121759,392.907386 306.057804,393.257752 305.802259,393.434406 C298.6638,398.369078 291.198704,399.631404 284.83594,398.859028 L284.370012,398.797008 C284.224573,398.775817 284.089104,398.754224 283.963909,398.73258 L283.644844,398.672129 C283.341402,398.605548 283.149389,398.305585 283.215971,398.002144 C283.282552,397.698702 283.582515,397.506689 283.885956,397.573271 L284.170956,397.627634 C284.370943,397.661914 284.639393,397.701911 284.971508,397.742227 C291.083523,398.484164 298.279034,397.267424 305.162541,392.508994 Z"/><path id="Stroke-61" fill="#7C5B4D" fill-rule="nonzero" d="M317.763237,356.574035 C318.567873,356.142382 319.399688,356.031094 320.115541,356.094302 L320.223049,356.105825 C320.237323,356.107692 320.249734,356.109494 320.260221,356.111173 C320.566975,356.160282 320.775837,356.448767 320.726727,356.755521 C320.682529,357.031599 320.444436,357.228385 320.173636,357.229181 L320.016591,357.214942 C319.500262,357.169351 318.878165,357.252581 318.295059,357.565393 C317.188602,358.158961 316.496008,359.444427 316.451567,361.700932 L316.45,361.79 L316.616465,361.814822 C318.074927,362.055551 319.004597,362.772497 319.296534,363.837409 L319.335528,363.999739 C319.564926,365.10639 319.070629,366.394864 318.140197,367.330695 C317.921163,367.551 317.565009,367.55203 317.344705,367.332997 C317.1244,367.113963 317.12337,366.757809 317.342403,366.537505 C318.025615,365.850329 318.379178,364.928704 318.233947,364.228086 C318.075266,363.462588 317.33018,362.948683 315.858769,362.862129 C315.567274,362.844983 315.337369,362.607643 315.329504,362.31575 C315.248116,359.295098 316.159956,357.434128 317.763237,356.574035 Z"/><path id="Stroke-63" fill="#604346" fill-rule="nonzero" d="M269.565984,355.495211 C271.548793,355.309697 273.220815,357.373187 273.466536,359.978527 C273.50543,360.39091 273.202657,360.756743 272.790273,360.795636 C272.37789,360.83453 272.012057,360.531757 271.973164,360.119373 C271.795986,358.240786 270.705621,356.895136 269.70639,356.988625 C268.704993,357.08323 267.884637,358.607168 268.060583,360.486022 C268.099203,360.898431 267.796187,361.264063 267.383778,361.302683 C266.971369,361.341303 266.605737,361.038287 266.567117,360.625878 C266.323106,358.020184 267.581406,355.682699 269.565984,355.495211 Z"/><path id="Stroke-65" fill="#604346" fill-rule="nonzero" d="M291.4615,355.558088 C293.390508,355.376866 295.011831,357.377647 295.248376,359.900794 C295.287039,360.3132 294.984061,360.678863 294.571656,360.717526 C294.15925,360.756189 293.793587,360.453211 293.754924,360.040806 C293.586564,358.244964 292.547465,356.962671 291.6018,357.051512 C290.656519,357.140317 289.874954,358.593296 290.043376,360.389794 C290.082039,360.8022 289.779061,361.167863 289.366656,361.206526 C288.95425,361.245189 288.588587,360.942211 288.549924,360.529806 C288.313346,358.006298 289.532785,355.739282 291.4615,355.558088 Z"/><path id="Fill-67" fill="#ADC6FF" d="M266.68685,539.30225 C266.68685,539.30225 244.30685,441.82175 246.09035,424.55675 C258.08735,416.09525 263.54435,416.23925 284.81285,410.66825 C288.74135,409.63925 294.74885,417.27425 299.49485,416.53325 C306.51335,415.43825 311.84735,406.73825 318.61235,407.16875 C344.90585,408.84125 368.97935,422.49125 368.97935,422.49125 L359.32535,537.73025 C359.32535,537.73025 369.03485,560.59925 344.53685,560.75825 C328.06685,560.86475 295.01285,564.34775 272.31185,559.96025 C265.96835,558.73475 264.59285,547.39025 266.68685,539.30225"/><polygon id="Fill-69" fill="#ADC6FF" points="281.917 406.43 274.862 413.582 283.43 432.108 296.006 417.668"/><polygon id="Fill-71" fill="#ADC6FF" points="296.423 416.82 321.185 401.697 328.042 408.168 314.254 431.064"/><polygon id="Fill-73" fill="#253368" points="287.203 427.861 296.845 416.818 307.609 426.602 304.876 439.571 291.087 440.506"/><path id="Fill-75" fill="#253368" d="M305.46425,438.4064 L291.08975,438.4844 C291.08975,438.4844 284.95775,491.4584 284.24075,510.8909 C284.14925,513.3719 301.30475,536.9654 301.30475,536.9654 C301.30475,536.9654 319.41575,510.9479 318.85475,508.1309 C314.48975,486.1979 310.07825,457.5074 305.46425,438.4064"/><path id="Stroke-77" fill="#597EF7" fill-rule="nonzero" d="M327.398873,408.208188 C327.609659,407.851618 328.069592,407.733437 328.426162,407.944223 C328.753018,408.137443 328.879561,408.540016 328.736023,408.88042 L328.690127,408.971512 L314.905127,432.290512 C314.683708,432.66507 314.19778,432.767604 313.846834,432.535304 L313.76214,432.470217 L296.382,417.072 L283.471014,433.975116 C283.141423,434.406602 282.48943,434.350109 282.228026,433.899883 L282.181164,433.804616 L274.171164,414.288116 C274.013892,413.90492 274.197039,413.466786 274.580234,413.309514 C274.931497,413.165348 275.328923,413.307229 275.513861,413.627035 L275.558836,413.718584 L283.071,432.025 L295.679986,415.520584 C295.92241,415.203213 296.365116,415.135765 296.688394,415.349266 L296.77336,415.414483 L314.076,430.744 L327.398873,408.208188 Z"/><path id="Stroke-79" fill="#597EF7" fill-rule="nonzero" d="M249.982927,461.385738 C250.38856,461.301861 250.785385,461.562695 250.869262,461.968327 L251.368356,464.377631 C251.894093,466.911069 252.431353,469.486133 252.979389,472.099719 L254.452132,479.094015 C256.682817,489.645257 259.005019,500.442564 261.343866,511.175169 L264.504614,525.595486 L267.416127,538.7156 C267.446184,538.849642 267.438849,538.989365 267.394923,539.119523 L267.277928,539.494258 C267.252354,539.58027 267.224005,539.677721 267.193274,539.786107 C267.038101,540.333394 266.882585,540.952031 266.737303,541.628253 C266.15005,544.36165 265.904468,547.154142 266.192562,549.740408 C266.720771,554.48223 268.953063,557.806494 273.386221,559.241135 C273.780312,559.368669 273.996399,559.79153 273.868865,560.185621 C273.741331,560.579712 273.31847,560.795799 272.924379,560.668265 C267.871349,559.033025 265.290261,555.189344 264.701782,549.906472 C264.393306,547.137228 264.652355,544.191606 265.270767,541.313177 C265.392634,540.745941 265.521557,540.216598 265.652066,539.731943 L265.79792,539.210473 L265.907,538.845 L263.03981,525.918516 C262.526715,523.591403 261.992329,521.160723 261.439517,518.638369 L259.878225,511.494382 C257.018865,498.37322 254.184344,485.155235 251.511316,472.407555 L249.899647,464.682416 L249.400338,462.272073 C249.316461,461.86644 249.577295,461.469615 249.982927,461.385738 Z"/><path id="Fill-81" fill="#4E5C93" d="M362.28845,562.47275 C362.28845,562.47275 278.82095,573.64025 272.64995,565.71875 C269.93495,562.23125 266.03195,591.52025 259.59245,617.48225 C263.02595,624.15575 288.94295,635.19425 303.84245,641.77625 C309.47645,644.26475 314.58845,642.78275 314.58845,642.78275 C321.97445,644.61275 366.89195,621.00875 366.89195,621.00875 C366.89195,621.00875 372.66245,599.00825 362.28845,562.47275"/><path id="Fill-83" fill="#12183F" d="M270.92165,558.14435 L270.67565,568.27685 C270.67565,568.27685 278.83415,569.20985 307.14215,569.02535 C335.86265,568.83935 362.29715,563.99735 362.29715,563.99735 L361.89365,554.80985 C361.89365,554.80985 303.11765,556.09985 270.92165,558.14435"/><path id="Fill-85" fill="#F1F2F6" d="M284.2151,567.57485 L283.9031,560.21735 C283.8146,558.14435 285.4241,556.43735 287.4086,556.50935 C292.1681,556.68185 300.5726,556.84385 306.6476,556.16435 C308.6336,555.94385 310.3631,557.57285 310.3886,559.65935 L310.4846,567.18335 C310.5056,568.94285 309.2981,570.44285 307.6376,570.73685 C303.6926,571.43435 296.0756,572.31335 287.1551,570.95285 C285.5291,570.70535 284.2886,569.28935 284.2151,567.57485"/><path id="Fill-87" fill="#12183F" d="M287.24885,566.52875 L287.01485,561.32525 C286.94735,559.85825 288.19085,558.64775 289.72085,558.69725 C293.39285,558.81575 299.87735,558.92375 304.56485,558.43925 C306.09635,558.28025 307.42985,559.43225 307.44935,560.90825 L307.515528,566.23025 C307.53035,567.47525 306.59735,568.53725 305.31635,568.74575 C302.27285,569.24225 296.39585,569.87075 289.51385,568.91525 C288.25985,568.74125 287.30435,567.74075 287.24885,566.52875"/><path id="Stroke-89" fill="#597EF7" fill-rule="nonzero" d="M342.831289,462.067512 C343.226387,461.943131 343.647507,462.162591 343.771888,462.557689 L344.014073,463.350623 L344.497175,464.986318 L345.002146,466.744525 C345.573879,468.75796 346.212964,471.081566 346.91714,473.724643 L347.457442,475.766997 C350.437353,487.108393 353.858185,501.35025 357.668549,518.704055 C357.757382,519.10863 357.501421,519.508617 357.096845,519.597449 C356.69227,519.686282 356.292283,519.430321 356.203451,519.025745 L355.219443,514.574224 C351.887874,499.605122 348.869683,487.093826 346.201306,476.890636 L345.293764,473.459495 C344.602546,470.877401 343.976687,468.61404 343.41845,466.660118 L342.952117,465.046153 L342.341112,463.008111 C342.216731,462.613013 342.436191,462.191893 342.831289,462.067512 Z"/><path id="Fill-91" fill="#4E5C93" d="M286.9676,553.9526 L224.9366,554.356174 C223.1966,554.3666 221.6501,553.2521 221.1101,551.5976 L199.5446,485.3966 C198.7061,482.8256 200.6126,480.1811 203.3171,480.1631 L265.3496,479.759526 C267.0881,479.7491 268.6346,480.8636 269.1746,482.5181 L290.7416,548.7191 C291.5786,551.2916 289.6736,553.9346 286.9676,553.9526"/><path id="Fill-93" fill="#253368" d="M282.46325,553.98185 L220.43225,554.385424 C218.69225,554.39585 217.14575,553.28135 216.60575,551.62685 L195.03875,485.42585 C194.20175,482.85485 196.10825,480.21035 198.81275,480.19235 L260.84525,479.788776 C262.58375,479.77835 264.13025,480.89285 264.67025,482.54735 L286.23725,548.74835 C287.07425,551.32085 285.16925,553.96385 282.46325,553.98185"/><path id="Fill-95" fill="#A08889" d="M237.38345,558.92765 C237.38345,558.92765 259.99145,560.09165 265.13195,550.73165 C269.78645,542.25515 259.82195,534.94265 259.82195,534.94265 C259.82195,534.94265 251.37695,530.11715 240.84845,527.40815 C233.94845,525.63365 221.35295,520.29965 219.46595,523.59365 C217.00445,527.88965 230.78945,531.23465 231.30395,534.78215 C232.34495,541.97015 210.08195,538.99565 206.19545,540.45215 C198.60245,543.30065 210.25445,557.73815 237.38345,558.92765"/><path id="Stroke-97" fill="#7C5B4D" fill-rule="nonzero" d="M205.782029,544.12135 C205.873128,543.824347 206.187747,543.657429 206.48475,543.748529 C207.293413,543.99657 208.124665,544.21476 208.976785,544.404117 C214.194825,545.563659 219.773066,545.598638 224.976298,544.960645 C225.551389,544.89013 226.079466,544.815642 226.55535,544.740432 L227.325814,544.61011 C227.440187,544.589239 227.527371,544.572374 227.586104,544.560307 C227.890408,544.497791 228.187776,544.693799 228.250293,544.998104 C228.312809,545.302408 228.116801,545.599776 227.812496,545.662293 L227.254115,545.76529 L227.088443,545.79345 C226.510674,545.890332 225.84893,545.987073 225.113214,546.077282 C219.793621,546.729543 214.094495,546.693806 208.732743,545.502328 C207.852226,545.306662 206.99236,545.08096 206.15485,544.824071 C205.857847,544.732972 205.690929,544.418353 205.782029,544.12135 Z"/><path id="Stroke-99" fill="#7C5B4D" fill-rule="nonzero" d="M208.17472,549.171271 C208.278897,548.878599 208.600607,548.725794 208.893279,548.82997 L209.139289,548.911737 C209.313718,548.96701 209.550732,549.037958 209.848615,549.120894 C210.650296,549.344094 211.593802,549.567798 212.672112,549.776915 C217.618461,550.73616 223.485514,551.062313 230.098156,550.376898 C230.407161,550.344869 230.683623,550.569402 230.715652,550.878406 C230.747681,551.187411 230.523148,551.463873 230.214144,551.495902 C223.486723,552.193215 217.509128,551.860917 212.457931,550.881338 C211.349695,550.666418 210.377016,550.435797 209.546874,550.204673 L209.137396,550.087066 L208.785962,549.979242 C208.65481,549.937536 208.564539,549.9071 208.516021,549.88983 C208.223349,549.785653 208.070544,549.463943 208.17472,549.171271 Z"/><path id="Stroke-101" fill="#7C5B4D" fill-rule="nonzero" d="M218.061349,554.302903 C224.205463,555.234204 229.113945,555.375771 232.710496,555.061602 L233.205339,555.013785 C233.281512,555.005647 233.35453,554.997448 233.424384,554.989224 L233.809813,554.939209 C233.858611,554.932133 233.894395,554.92651 233.917102,554.922621 C234.223305,554.870183 234.514041,555.0759 234.566479,555.382102 C234.618917,555.688305 234.4132,555.979041 234.106998,556.031479 L233.76917,556.080163 L233.32672,556.132218 C233.166569,556.149341 232.993772,556.166141 232.808396,556.182334 L232.027395,556.242163 C228.428784,556.480484 223.696237,556.294868 217.892751,555.415197 C217.5856,555.368641 217.374346,555.081903 217.420903,554.774751 C217.462804,554.498315 217.699251,554.299555 217.970035,554.296508 L218.061349,554.302903 Z"/><path id="Stroke-103" fill="#7C5B4D" fill-rule="nonzero" d="M218.935165,523.406341 C219.038944,523.113528 219.360446,522.960285 219.653259,523.064065 C219.946072,523.167844 220.099315,523.489346 219.995535,523.782159 C219.750928,524.472319 219.7522,524.86218 219.992585,525.245361 L220.130105,525.448816 C220.248734,525.652363 220.072861,525.568312 220.816832,526.099092 L223.891036,528.247813 C224.349943,528.567736 224.79307,528.846233 225.491167,529.255076 L226.616064,529.90372 C229.049307,531.297692 230.10832,532.03102 230.889206,533.066152 C231.985334,534.519167 231.886897,536.130687 230.446507,537.899459 C228.892748,539.807297 224.973575,540.761537 219.328777,541.063605 C216.354168,541.222784 213.177444,541.182271 210.128127,541.018475 L209.130107,540.959651 L208.175384,540.8922 C208.076937,540.884521 208.000617,540.87824 207.947654,540.873638 C207.63816,540.846744 207.409068,540.574048 207.435962,540.264554 C207.462856,539.95506 207.735552,539.725968 208.045046,539.752862 L208.616732,539.797059 L209.202898,539.837009 C209.510632,539.856846 209.839869,539.876369 210.188471,539.895094 C213.200943,540.056911 216.339827,540.096942 219.268662,539.940212 L220.11668,539.88863 C224.980098,539.555942 228.371117,538.666281 229.57418,537.189057 C230.699252,535.807489 230.762829,534.766666 229.991098,533.743668 C229.395356,532.953959 228.515462,532.311866 226.625071,531.208275 L224.910634,530.218853 C224.324107,529.875225 223.909199,529.618856 223.511626,529.35149 L220.863909,527.519345 C220.789414,527.466759 220.727933,527.422945 220.683271,527.390495 C219.927008,526.84101 219.469462,526.438608 219.159018,526.018134 C218.603902,525.266267 218.552973,524.484694 218.935165,523.406341 Z"/><path id="Fill-105" fill="#ADC6FF" d="M258.70055,533.6678 L262.50905,562.7888 L383.17955,554.0228 C394.61705,553.0748 403.04405,542.7938 401.71355,531.4118 C400.38305,520.0283 389.83055,512.1278 378.50405,514.0313 L258.70055,533.6678 Z"/><path id="Stroke-107" fill="#597EF7" fill-rule="nonzero" d="M276.420607,530.584941 C276.798054,530.543684 277.14065,530.790071 277.229795,531.148583 L277.247659,531.249007 L280.091659,557.268007 C280.136667,557.679768 279.839354,558.050052 279.427593,558.095059 C279.050146,558.136316 278.70755,557.889929 278.618405,557.531417 L278.600541,557.430993 L275.756541,531.411993 C275.711533,531.000232 276.008846,530.629948 276.420607,530.584941 Z"/><path id="Stroke-109" fill="#597EF7" fill-rule="nonzero" d="M371.311186,514.55589 C371.719744,514.487676 372.106245,514.763578 372.17446,515.172136 C372.23699,515.546648 372.010366,515.902625 371.657467,516.011896 L371.558214,516.03541 L260.602,534.56 L263.624401,559.84365 C263.669458,560.220663 263.426534,560.565723 263.068939,560.658476 L262.9687,560.677351 C262.591687,560.722408 262.246627,560.479484 262.153874,560.121889 L262.134999,560.02165 L259.028499,534.02815 C258.984916,533.663472 259.211135,533.326426 259.553539,533.22196 L259.649686,533.19939 L371.311186,514.55589 Z"/><path id="Fill-111" fill="#FFF" d="M270.03395,551.86985 C268.75145,552.02135 267.82445,553.18235 267.96395,554.46335 C268.10495,555.74585 269.25695,556.66235 270.54095,556.51085 C271.82345,556.36085 272.75045,555.19835 272.61095,553.91735 C272.46995,552.63485 271.31645,551.71835 270.03395,551.86985"/><path id="Fill-113" fill="#4E5C93" d="M201.28445,635.93495 L201.28445,635.93495 C201.79745,625.03745 209.54045,615.83345 220.18895,613.46195 L327.78095,589.50545 C343.59545,583.97345 360.83495,592.71395 365.72045,608.73845 L365.72045,608.73845 C370.60745,624.76445 361.17545,641.63495 344.96345,645.86645 L228.57545,661.05695 C213.64145,663.00545 200.57645,650.97995 201.28445,635.93495"/><path id="Fill-115" fill="#4E5C93" d="M232.69295,801.2654 L250.54445,639.2864 C252.03245,625.7789 241.98545,613.7429 228.42845,612.7949 C215.02145,611.8574 203.47145,622.1429 202.85495,635.5679 L195.37145,798.6554 C195.37145,798.6554 211.57295,807.6959 232.69295,801.2654"/><path id="Stroke-117" fill="#090D33" fill-rule="nonzero" d="M308.879602,594.178305 C309.288235,594.110541 309.674431,594.386869 309.742195,594.795502 C309.804312,595.170083 309.577296,595.52581 309.224277,595.634692 L309.106922,595.661094 L304.952321,596.365558 L300.610552,597.118146 C298.498525,597.487624 296.270772,597.882121 293.94614,598.299279 C283.31968,600.206213 272.6934,602.221183 262.685376,604.266865 L260.550487,604.705668 C251.963539,606.480524 244.238791,608.200548 237.589642,609.838865 L235.736111,610.300498 C225.616537,612.848775 218.472262,615.122709 214.887624,617.030293 C210.496624,619.366907 207.417576,625.586944 205.52141,634.492516 C204.64219,638.621878 204.076184,643.053361 203.76186,647.48688 L203.67688,648.791096 C203.626414,649.641367 203.58808,650.452066 203.560409,651.216244 L203.533968,652.046707 L203.510818,653.289443 L203.5103,653.411956 L203.503488,653.513717 C203.453951,653.879809 203.140252,654.1622 202.760556,654.1622 C202.38086,654.1622 202.066969,653.880283 202.017181,653.514158 L202.0103,653.412371 L202.014332,652.963782 C202.019325,652.608312 202.028323,652.197221 202.042321,651.73513 C202.082166,650.41975 202.153939,648.956003 202.265616,647.3808 C202.584498,642.88299 203.158993,638.385041 204.054297,634.18014 C206.035678,624.874344 209.283543,618.313276 214.182966,615.706112 C218.054954,613.645613 225.710963,611.240581 236.599042,608.538635 L237.230782,608.382425 C243.9003,606.739089 251.642779,605.015117 260.246867,603.236717 C270.176798,601.184276 280.767423,599.157554 291.401926,597.23355 L296.618011,596.298677 C298.538303,595.957798 300.381445,595.63432 302.135576,595.329726 L308.879602,594.178305 Z"/></g></svg>