<?xml version="1.0" encoding="UTF-8"?>
<svg width="512px" height="1024px" viewBox="0 0 512 1024" version="1.1" xmlns="http://www.w3.org/2000/svg" xmlns:xlink="http://www.w3.org/1999/xlink">
    <!-- Generator: Sketch 61.2 (89653) - https://sketch.com -->
    <title>2.人物组件/1.商人/跪姿/介绍</title>
    <desc>Created with Sketch.</desc>
    <defs>
        <polygon id="path-1" points="0.285717099 1.36709765 48.8205 1.36709765 48.8205 72.6774861 0.285717099 72.6774861"></polygon>
        <polygon id="path-3" points="0 0.328443491 28.8015 0.328443491 28.8015 99.6345019 0 99.6345019"></polygon>
        <polygon id="path-5" points="0.613573828 0.321 79.9827083 0.321 79.9827083 52.7900058 0.613573828 52.7900058"></polygon>
        <polygon id="path-7" points="1.44958408 0.885171206 101.564876 0.885171206 101.564876 21 1.44958408 21"></polygon>
    </defs>
    <g id="2.人物组件/1.商人/跪姿/介绍" stroke="none" stroke-width="1" fill="none" fill-rule="evenodd">
        <g id="分组" transform="translate(410.500000, 371.179000)">
            <mask id="mask-2" fill="white">
                <use xlink:href="#path-1"></use>
            </mask>
            <g id="Clip-2"></g>
            <path d="M3.20865,65.90865 C3.20865,65.90865 -3.50385,55.72365 3.41565,37.30365 C8.61915,23.45115 1.15815,12.51915 5.73915,10.90065 C10.32015,9.28365 16.09965,19.92915 16.86465,30.44865 C26.19615,22.35765 27.52815,7.12665 35.11065,2.34015 C43.17015,-2.74785 60.29565,11.79315 37.23165,53.62965 C17.06565,87.46965 3.20865,65.90865 3.20865,65.90865" id="Fill-1" fill="#B69882" mask="url(#mask-2)"></path>
        </g>
        <path d="M426.264694,396.583503 C426.562732,396.495852 426.875395,396.666405 426.963047,396.964444 C427.437321,398.577109 427.745734,399.953516 427.920679,401.096886 L427.982014,401.528345 C428.0166,401.793656 428.039053,402.014356 428.052222,402.19072 L428.059,402.3 L428.09591,402.344889 C428.345227,402.658469 428.649703,403.120624 428.957544,403.727091 L429.073041,403.961272 C430.706671,407.370387 430.739326,411.676882 428.146232,416.724199 C428.004268,417.000525 427.665177,417.109446 427.388851,416.967482 C427.112525,416.825518 427.003604,416.486427 427.145568,416.210101 C429.57365,411.483969 429.543798,407.546981 428.058509,404.44743 C427.840254,403.991969 427.607353,403.598442 427.375995,403.268779 C427.241136,403.076617 427.140234,402.951925 427.089726,402.896672 C426.995956,402.794093 426.943481,402.660433 426.942416,402.521458 L426.936296,402.359528 C426.922746,402.131823 426.885304,401.768212 426.808621,401.267039 C426.641378,400.174003 426.343979,398.846753 425.883753,397.281856 C425.796102,396.983818 425.966655,396.671155 426.264694,396.583503 Z" id="Stroke-3" fill="#7C5B4D" fill-rule="nonzero"></path>
        <path d="M457.901081,383.711401 C458.211464,383.724507 458.452455,383.986747 458.439349,384.297131 C458.426243,384.607514 458.164003,384.848505 457.853619,384.835399 C456.456627,384.77641 455.562243,385.597371 455.027011,387.095638 C454.836044,387.630207 454.709049,388.209559 454.635232,388.789963 L454.599778,389.109397 C454.590726,389.205891 454.584276,389.291877 454.579943,389.36579 L454.572808,389.549737 L454.534477,389.747099 L454.19512,390.605259 L453.478733,392.379097 L453.280737,392.862191 C452.320942,395.197076 451.320965,397.532143 450.330928,399.712809 C449.954249,400.542487 449.585625,401.334885 449.226619,402.085131 L448.959193,402.639836 C447.702072,405.227451 446.606362,407.198865 445.706778,408.424781 C445.204016,409.109608 444.57714,409.786136 443.762691,410.545248 L443.448356,410.833963 C442.801365,411.420065 440.326327,413.51281 440.340841,413.500279 C436.034495,417.218136 434.085728,420.151152 433.971658,424.512108 C433.963534,424.822662 433.705196,425.067831 433.394642,425.060091 C433.084088,425.051584 432.838919,424.793246 432.846846,424.482692 C432.96814,419.853088 434.975593,416.717711 439.26248,412.947718 L439.684669,412.581886 C440.110157,412.221746 442.130419,410.509894 442.693062,410.000203 C443.611912,409.167827 444.286136,408.458865 444.799849,407.759119 C445.649127,406.601758 446.717721,404.679132 447.947289,402.14823 C448.3854,401.246438 448.839564,400.276346 449.306558,399.247739 C450.290361,397.080804 451.285202,394.757727 452.240219,392.434468 L452.809409,391.037572 L453.45,389.429 L453.456257,389.311109 C453.463763,389.179384 453.476651,389.019899 453.496708,388.837662 L453.519222,388.648028 C453.602583,387.992575 453.746491,387.33607 453.967582,386.717173 C454.625313,384.875999 455.833265,383.719618 457.6768,383.707352 L457.901081,383.711401 Z" id="Stroke-5" fill="#7C5B4D" fill-rule="nonzero"></path>
        <path d="M451.164529,379.621199 C452.602488,378.046301 454.155146,377.610555 455.476017,377.830472 L455.661337,377.867978 C455.685927,377.874062 455.707303,377.879937 455.725369,377.885416 C456.022655,377.975587 456.190555,378.289683 456.100384,378.586969 C456.01923,378.854526 455.756697,379.017281 455.488281,378.981422 L455.344542,378.949798 L455.291256,378.940196 C454.324821,378.779291 453.15751,379.106891 451.995323,380.379754 C450.6223,381.883531 449.531968,384.483334 448.865644,388.399972 C448.641889,389.716176 448.171964,391.174018 447.487663,392.752131 C446.810944,394.312756 445.93884,395.958904 444.917406,397.65246 C444.030618,399.122771 443.081289,400.547372 442.131892,401.872463 L441.744811,402.407002 C441.619889,402.577634 441.499241,402.740572 441.383366,402.895383 L440.860816,403.579606 C440.66812,403.823282 440.314371,403.864611 440.070694,403.671916 C439.827018,403.47922 439.785689,403.125471 439.978384,402.881794 L440.316276,402.442363 L440.837391,401.74201 C440.959964,401.574583 441.086798,401.399514 441.217391,401.217244 C442.150557,399.914806 443.08379,398.51436 443.954059,397.071437 C444.951358,395.417898 445.800662,393.814787 446.45552,392.304573 C447.10651,390.803283 447.549645,389.428553 447.756568,388.211359 C448.456252,384.098636 449.628503,381.303501 451.164529,379.621199 Z" id="Stroke-7" fill="#7C5B4D" fill-rule="nonzero"></path>
        <path d="M450.395508,373.354525 C450.704553,373.322884 450.980733,373.547764 451.012375,373.856808 C451.044016,374.165853 450.819136,374.442033 450.510092,374.473675 L450.346246,374.498758 C450.182367,374.53003 449.952501,374.588601 449.674387,374.68478 C449.014015,374.913152 448.351999,375.271022 447.733524,375.786029 C446.294688,376.984153 445.30558,378.839309 444.975371,381.516273 L444.936054,381.870117 C444.687734,384.373831 443.025596,388.542957 440.548873,393.430786 C439.640567,395.223335 438.680333,396.988463 437.891524,398.338276 L437.529039,398.948503 C437.342948,399.255874 437.184148,399.507591 437.061679,399.689077 L436.939383,399.863664 C436.902526,399.913582 436.869086,399.95568 436.837583,399.991334 L436.747006,400.081495 C436.725933,400.098483 436.699023,400.11563 436.631747,400.158498 L436.522075,400.207655 C436.379906,400.262128 436.309482,400.224093 435.922148,400.014903 L435.820568,399.786264 C435.792819,399.717576 435.785507,399.683258 435.787589,399.645166 L435.80954,399.500439 C435.813063,399.483126 435.816895,399.469392 435.824561,399.441923 C435.859173,399.322577 435.929863,399.223493 436.021327,399.153094 L436.099,399.102 L436.129141,399.059793 C436.263933,398.860045 436.453796,398.55601 436.681094,398.175555 L436.920217,397.770659 C437.697565,396.440461 438.647075,394.695044 439.545352,392.922289 L439.988464,392.03757 C442.084272,387.802403 443.504033,384.180001 443.790926,381.98143 L443.816544,381.759104 C444.129572,378.601771 445.281365,376.363982 447.013638,374.921512 C448.26589,373.878757 449.523665,373.443788 450.395508,373.354525 Z" id="Stroke-9" fill="#7C5B4D" fill-rule="nonzero"></path>
        <path d="M432.337866,398.038572 C432.491223,397.768403 432.834559,397.673708 433.104728,397.827066 L433.553181,398.092607 L433.683789,398.172253 C434.138128,398.450613 434.643728,398.774392 435.187855,399.140436 C436.742114,400.186015 438.296412,401.362286 439.749206,402.64494 C441.853694,404.502967 443.564982,406.427004 444.743792,408.390183 C444.903715,408.656518 444.817452,409.002069 444.551117,409.161992 C444.284782,409.321915 443.939231,409.235652 443.779308,408.969317 C442.667365,407.117496 441.029532,405.276047 439.004628,403.488284 C437.591856,402.240965 436.075904,401.093713 434.559912,400.073878 C434.029452,399.717027 433.53722,399.401809 433.096069,399.131529 L432.549372,398.805434 C432.279203,398.652077 432.184508,398.308741 432.337866,398.038572 Z" id="Stroke-11" fill="#7C5B4D" fill-rule="nonzero"></path>
        <path d="M103.48615,746.7997 L73.40665,740.5177 C73.40665,740.5177 68.38465,753.4447 68.22565,766.2262 C67.95415,788.0917 63.18565,781.7122 57.80815,807.1087 C53.07115,829.4782 62.33815,845.5702 68.34865,836.2267 C85.64965,809.3302 99.23515,798.0187 99.23515,798.0187 C99.23515,798.0187 134.81515,791.8012 139.88815,778.0162 C147.85615,756.3607 103.48615,746.7997 103.48615,746.7997" id="Fill-13" fill="#E4EBF7"></path>
        <g id="分组" transform="translate(52.000000, 740.179000)">
            <mask id="mask-4" fill="white">
                <use xlink:href="#path-3"></use>
            </mask>
            <g id="Clip-16"></g>
            <path d="M16.149,93.01425 C16.149,93.01425 12.8655,92.66025 9.204,79.06725 C4.938,63.23325 16.0155,41.29275 21.2325,28.31775 C29.271,8.33325 25.4505,6.02625 28.8015,2.52825 C23.712,-1.62225 17.8725,1.37475 17.8725,1.37475 C17.8725,1.37475 15,5.50875 13.3005,21.19725 C11.6025,36.88275 7.4025,36.19725 2.7915,55.52325 C-3.7035,82.74825 2.439,97.41375 7.9845,99.10575 C14.961,101.23425 18.45,96.47625 16.149,93.01425" id="Fill-15" fill="#B0BEDC" mask="url(#mask-4)"></path>
        </g>
        <path d="M441.2623,443.65165 L419.4433,424.87765 C413.7553,419.98465 405.2233,420.43765 400.0858,425.90515 L338.7658,491.17315 C327.1288,504.70015 328.6588,525.09865 342.1858,536.73715 C355.7113,548.37415 376.1113,546.84415 387.7498,533.31865 L443.1358,462.94465 C447.7753,457.04965 446.9503,448.54465 441.2623,443.65165" id="Fill-17" fill="#E4EBF7"></path>
        <path d="M386.0179,536.62825 L386.0179,536.62825 C399.0139,524.40025 399.6364,503.95375 387.4084,490.95775 L333.4144,433.57375 C321.1864,420.57775 300.7384,419.95525 287.7439,432.18325 L287.7424,432.18325 C274.7479,444.41125 274.1254,464.85925 286.3534,477.85375 L340.3474,535.23775 C352.5754,548.23375 373.0219,548.85625 386.0179,536.62825" id="Fill-19" fill="#E4EBF7"></path>
        <path d="M207.62335,385.6849 C207.62335,385.6849 203.18935,399.6904 211.27735,403.7929 C218.38435,407.3959 225.25135,406.1149 225.94885,396.3889 C226.64635,386.6629 222.86335,360.1099 216.54085,361.0519 C210.21985,361.9924 207.62335,385.6849 207.62335,385.6849" id="Fill-21" fill="#51342D"></path>
        <path d="M243.34585,413.38435 C243.34585,413.38435 259.39735,414.97285 269.37235,408.41035 C281.34535,400.53235 277.82485,374.96335 277.43785,366.61585 C276.75685,351.97285 270.22885,344.28835 270.22885,344.28835 C270.22885,344.28835 263.63185,332.02435 237.99535,332.41435 C212.35735,332.80285 211.80385,356.62285 211.97035,367.61035 C212.13685,378.59785 215.23885,399.41785 222.15535,405.00535 C230.49985,411.74785 243.34585,413.38435 243.34585,413.38435" id="Fill-23" fill="#B69882"></path>
        <g id="分组" transform="translate(203.500000, 329.179000)">
            <mask id="mask-6" fill="white">
                <use xlink:href="#path-5"></use>
            </mask>
            <g id="Clip-26"></g>
            <path d="M72.4254,28.30185 C72.4254,28.30185 83.2449,17.14785 78.9924,8.51235 C74.7399,-0.12465 66.4869,-0.91515 57.3639,1.51335 C48.2424,3.94185 12.3159,-5.70765 8.5524,13.70235 C-6.7566,30.87885 4.7874,45.51585 4.7874,45.51585 C4.7874,45.51585 11.1174,38.33985 13.4979,44.25735 C15.8769,50.17485 17.7309,54.19035 19.5339,52.33185 C21.3369,50.47185 19.5714,43.42785 22.7274,40.17435 C25.8834,36.92085 29.7084,26.97435 26.9694,20.29185 C25.9914,16.18485 61.8939,12.79485 67.6944,18.29985 C70.6284,21.08385 72.4254,28.30185 72.4254,28.30185" id="Fill-25" fill="#51342D" mask="url(#mask-6)"></path>
        </g>
        <path d="M264.525774,360.803313 C268.007467,360.398997 270.757799,360.766336 272.832418,361.654574 C273.792323,362.065553 274.433952,362.507734 274.78933,362.86003 C275.377662,363.443259 275.381799,364.392997 274.79857,364.98133 C274.251793,365.532892 273.382888,365.571 272.79164,365.093043 L272.67727,364.99057 C272.683062,364.996312 272.63446,364.955753 272.527037,364.881722 C272.304891,364.728629 272.014876,364.567946 271.651654,364.412435 C270.069484,363.735037 267.845373,363.437981 264.871826,363.783287 C264.048929,363.878847 263.304373,363.289224 263.208813,362.466326 C263.113253,361.643429 263.702876,360.898873 264.525774,360.803313 Z" id="Stroke-27" fill="#51342D" fill-rule="nonzero"></path>
        <path d="M240.263546,361.948479 C243.242602,360.776516 246.304033,360.449217 248.85586,360.572904 L249.203222,360.595104 C250.02836,360.668846 250.637487,361.397533 250.563746,362.222672 C250.494341,362.999273 249.844779,363.584528 249.080676,363.589215 L248.71062,363.569387 C246.545942,363.464464 243.88028,363.749451 241.361819,364.740217 C240.919414,364.914259 240.492156,365.107595 240.081509,365.320849 C239.346308,365.702649 238.4408,365.41616 238.059001,364.680959 C237.677201,363.945758 237.96369,363.04025 238.698891,362.658451 C239.203812,362.396239 239.725931,362.159978 240.263546,361.948479 Z" id="Stroke-29" fill="#51342D" fill-rule="nonzero"></path>
        <path d="M259.373827,368.978927 C259.610521,368.777717 259.965513,368.806482 260.166723,369.043177 L260.376465,369.298409 L260.634207,369.623872 C260.724302,369.739538 260.818387,369.862248 260.915897,369.991594 C261.472435,370.72984 262.028807,371.534693 262.548814,372.380631 C263.405994,373.775077 264.078636,375.14187 264.496428,376.436879 C266.036331,381.210046 263.896707,384.268503 257.150231,384.371501 C256.839607,384.376174 256.583955,384.128205 256.579215,383.817581 C256.574476,383.506957 256.822445,383.251305 257.133069,383.246565 C263.117067,383.155268 264.735457,380.84188 263.425767,376.782292 C263.039045,375.583588 262.404283,374.293766 261.59041,372.969772 C261.090402,372.156369 260.553901,371.380261 260.017567,370.668815 L259.747128,370.315764 L259.309577,369.771823 C259.108367,369.535129 259.137132,369.180137 259.373827,368.978927 Z" id="Stroke-31" fill="#7C5B4D" fill-rule="nonzero"></path>
        <path d="M271.783058,371.21854 C272.197221,371.21211 272.53818,371.542644 272.54461,371.956808 C272.576158,373.988922 271.168705,375.704163 269.332538,375.731864 C267.499048,375.759584 266.040827,374.087908 266.00929,372.056592 C266.00286,371.642429 266.333394,371.30147 266.747558,371.29504 C267.161721,371.28861 267.50268,371.619144 267.50911,372.033308 C267.528574,373.287021 268.365376,374.246315 269.309887,374.232035 C270.256934,374.217748 271.064256,373.233877 271.04479,371.980092 C271.03836,371.565929 271.368894,371.22497 271.783058,371.21854 Z" id="Stroke-33" fill="#51342D" fill-rule="nonzero"></path>
        <path d="M247.976418,371.57974 C248.390582,371.573316 248.731536,371.903854 248.73796,372.318018 C248.769491,374.350829 247.362737,376.065346 245.528184,376.093052 C243.692978,376.122748 242.234179,374.451084 242.20264,372.417782 C242.196216,372.003618 242.526754,371.662664 242.940918,371.65624 C243.355082,371.649816 243.696036,371.980354 243.70246,372.394518 C243.72193,373.649786 244.558604,374.608544 245.504724,374.593236 C246.450932,374.578945 247.257599,373.595799 247.23814,372.341282 C247.231716,371.927118 247.562254,371.586164 247.976418,371.57974 Z" id="Stroke-35" fill="#51342D" fill-rule="nonzero"></path>
        <path d="M269.26105,384.8821 L271.50355,411.3406 C272.78155,426.4246 262.08355,439.8931 247.10155,442.0651 L247.10155,442.0651 C230.61205,444.4531 215.57905,432.3016 214.45855,415.6786 L212.61655,388.3606 L269.26105,384.8821 Z" id="Fill-37" fill="#B69882"></path>
        <path d="M270.7531,390.07795 C270.7531,390.07795 270.0736,383.89045 261.0736,383.18545 C254.1376,382.64245 249.1996,383.02045 246.5356,388.55545 C243.8731,394.09045 259.7686,389.96395 259.7686,389.96395 C259.7686,389.96395 273.1321,395.99545 270.7531,390.07795" id="Fill-39" fill="#51342D"></path>
        <path d="M204.4843,381.2545 C205.5253,387.445 209.9068,391.8685 214.2718,391.135 C218.6353,390.4015 221.3293,384.787 220.2883,378.5965 C219.2473,372.406 214.8643,367.9825 210.5008,368.716 C206.1373,369.4495 203.4433,375.064 204.4843,381.2545" id="Fill-41" fill="#B69882"></path>
        <path d="M231.468134,408.479387 C231.583514,408.190947 231.910874,408.050655 232.199313,408.166034 C244.533296,413.099793 255.236829,413.132422 263.89159,410.238189 C265.133998,409.822716 266.216861,409.378324 267.133385,408.935056 L267.578188,408.713008 L267.956181,408.511104 C268.090934,408.436408 268.179031,408.384543 268.219618,408.359275 C268.483348,408.195091 268.83024,408.275789 268.994425,408.539518 C269.158609,408.803248 269.077911,409.15014 268.814182,409.314325 L268.501597,409.495048 L268.096167,409.711669 C267.949734,409.78729 267.792044,409.866167 267.623202,409.947826 C266.664447,410.411519 265.53729,410.874089 264.248379,411.305113 C255.349942,414.280834 244.373078,414.247371 231.781487,409.210566 C231.493047,409.095186 231.352755,408.767826 231.468134,408.479387 Z" id="Stroke-43" fill="#7C5B4D" fill-rule="nonzero"></path>
        <path d="M256.940942,404.651946 C257.249865,404.619136 257.526894,404.84297 257.559704,405.151892 L257.580435,405.420974 C257.645668,406.514002 257.572419,407.761136 257.249449,408.959701 C256.697262,411.008909 255.516341,412.434174 253.565366,412.854673 C253.261679,412.920127 252.962431,412.727002 252.896977,412.423316 C252.831523,412.119629 253.024648,411.820381 253.328334,411.754927 C254.808279,411.435951 255.710471,410.347085 256.163195,408.666995 C256.417634,407.722751 256.498546,406.721571 256.472208,405.820779 L256.444244,405.304416 C256.44303,405.290812 256.441935,405.279551 256.440996,405.270708 C256.408186,404.961785 256.63202,404.684756 256.940942,404.651946 Z" id="Stroke-45" fill="#7C5B4D" fill-rule="nonzero"></path>
        <path d="M210.814409,373.812255 C211.542982,373.80682 212.552519,374.018289 213.560104,374.661878 C215.212931,375.717611 216.214984,377.617166 216.258785,380.487818 C216.262767,380.74884 216.086641,380.9783 215.833463,381.041933 C213.8194,381.548141 212.953245,382.219817 212.907339,382.961702 C212.867029,383.613141 213.412955,384.483528 214.467569,385.489347 C214.692378,385.703755 214.700811,386.05981 214.486403,386.284619 C214.271995,386.509428 213.91594,386.517861 213.691131,386.303453 C212.414547,385.085935 211.71751,383.974625 211.784486,382.892223 C211.861897,381.641194 212.938231,380.714916 215.018305,380.098519 L215.118,380.07 L215.10833,379.899191 C214.963183,377.847612 214.239922,376.511783 213.117549,375.719481 L212.954514,375.609973 C212.492369,375.314781 211.994702,375.124694 211.495266,375.020077 C211.242581,374.967146 211.036311,374.944268 210.897783,374.938696 L210.822965,374.937328 C210.514684,374.941971 210.259085,374.693946 210.254414,374.383321 C210.250209,374.103759 210.450688,373.868768 210.717272,373.82116 L210.814409,373.812255 Z" id="Stroke-47" fill="#7C5B4D" fill-rule="nonzero"></path>
        <path d="M261.022432,393.645996 C261.321165,393.560741 261.632449,393.7338 261.717704,394.032532 C261.802959,394.331265 261.6299,394.642549 261.331168,394.727804 C260.791675,394.881768 260.16274,394.965522 259.460027,394.991035 C258.64297,395.0207 257.7747,394.97114 256.91871,394.870556 L256.445067,394.809474 C256.260514,394.783355 256.112364,394.759338 256.007795,394.740348 C255.702134,394.684841 255.499344,394.392056 255.554852,394.086395 C255.610359,393.780734 255.903144,393.577944 256.208805,393.633452 L256.607454,393.69625 C256.735852,393.714379 256.88441,393.733786 257.050001,393.753244 C257.853384,393.847646 258.667003,393.894086 259.419209,393.866776 C260.038185,393.844303 260.580724,393.772055 261.022432,393.645996 Z" id="Stroke-49" fill="#7C5B4D" fill-rule="nonzero"></path>
        <path d="M324.11215,587.2444 C324.11215,587.2444 331.14415,639.5659 328.61065,658.1494 C326.07715,676.7314 276.20065,702.2524 247.52065,703.7614 C223.44715,705.0289 133.48915,710.0974 169.76065,599.0689 C172.65565,590.2069 175.67365,586.3999 175.67365,586.3999 C175.67365,586.3999 311.44165,587.2444 324.11215,587.2444" id="Fill-51" fill="#4E5C93"></path>
        <path d="M290.092095,674.268656 C290.329132,673.928971 290.796658,673.845758 291.136344,674.082795 C291.476029,674.319832 291.559242,674.787358 291.322205,675.127044 L291.219224,675.267736 C291.115179,675.404899 290.96525,675.591161 290.767066,675.821233 C290.314554,676.346554 289.754488,676.928704 289.080408,677.553134 C287.168805,679.323937 284.723724,681.089504 281.694348,682.733305 C273.085802,687.404481 261.530207,690.20035 246.62665,690.20035 C246.212436,690.20035 245.87665,689.864564 245.87665,689.45035 C245.87665,689.036136 246.212436,688.70035 246.62665,688.70035 C261.285843,688.70035 272.595311,685.964031 280.978952,681.414895 C283.896842,679.831587 286.240112,678.139537 288.061048,676.452722 C288.693357,675.866987 289.214389,675.32541 289.630574,674.84226 L289.817118,674.621347 C289.954034,674.455566 290.044917,674.336264 290.092095,674.268656 Z" id="Stroke-53" fill="#3B4A7A" fill-rule="nonzero"></path>
        <path d="M267.885146,618.198682 C268.299267,618.190261 268.642076,618.518875 268.650832,618.932996 L268.654243,619.16948 C268.667222,620.36209 268.648729,622.013952 268.575256,624.061791 L268.558661,624.506651 C268.427566,627.893315 268.17356,631.573388 267.767662,635.469119 C266.64996,646.196627 264.576241,656.850053 261.312155,666.808768 C259.935898,671.007721 258.367679,675.010417 256.596592,678.788679 C256.420784,679.163732 255.974223,679.325251 255.599171,679.149442 C255.224118,678.973634 255.062599,678.527073 255.238408,678.152021 C256.982745,674.430823 258.528857,670.484553 259.886765,666.34158 C263.114433,656.493977 265.168329,645.942386 266.275739,635.313675 C266.641551,631.802677 266.882884,628.46883 267.021319,625.37088 L267.059784,624.44863 C267.123051,622.814204 267.15171,621.420945 267.157115,620.299657 L267.151168,618.964704 C267.142411,618.550583 267.471025,618.207774 267.885146,618.198682 Z" id="Stroke-55" fill="#3B4A7A" fill-rule="nonzero"></path>
        <path d="M208.124803,669.253207 C208.315457,668.924848 208.717027,668.795155 209.058544,668.936023 L209.149993,668.981203 L235.335493,684.185203 C235.693703,684.393189 235.815483,684.852182 235.607497,685.210393 C235.416843,685.538752 235.015273,685.668445 234.673756,685.527577 L234.582307,685.482397 L208.396807,670.278397 C208.038597,670.070411 207.916817,669.611418 208.124803,669.253207 Z" id="Stroke-57" fill="#3B4A7A" fill-rule="nonzero"></path>
        <path d="M172.032382,602.245486 C172.118353,601.840292 172.51652,601.581511 172.921714,601.667482 C173.609258,601.81336 174.29841,601.957138 174.989156,602.098824 C217.74187,610.868267 263.304392,611.340084 305.635814,606.880264 L307.700787,606.657984 C312.116096,606.172478 316.14714,605.662788 319.75359,605.15146 L321.56627,604.889053 C322.046072,604.818087 322.504516,604.749005 322.941252,604.682004 L325.22761,604.318158 L325.945592,604.196172 C326.353443,604.123846 326.742702,604.395842 326.815028,604.803692 C326.887354,605.211543 326.615358,605.600802 326.207508,605.673128 L324.81085,605.906348 L323.169547,606.164529 C322.437065,606.276905 321.644255,606.395041 320.792727,606.518036 L319.121247,606.755007 C315.150903,607.307541 310.691384,607.855937 305.792976,608.372008 C263.321405,612.846593 217.614037,612.373277 174.687751,603.56823 C173.993701,603.425866 173.301241,603.281398 172.610386,603.134818 C172.205192,603.048847 171.946411,602.65068 172.032382,602.245486 Z" id="Stroke-59" fill="#3B4A7A" fill-rule="nonzero"></path>
        <path d="M267.76859,587.338745 C268.148061,587.351827 268.451948,587.644625 268.488969,588.012194 L268.492305,588.11414 L267.647805,612.61064 C267.633533,613.024608 267.286377,613.348626 266.87241,613.334355 C266.492939,613.321273 266.189052,613.028475 266.152031,612.660906 L266.148695,612.55896 L266.993195,588.06246 C267.007467,587.648492 267.354623,587.324474 267.76859,587.338745 Z" id="Stroke-61" fill="#3B4A7A" fill-rule="nonzero"></path>
        <path d="M202.63781,611.387734 C202.84835,611.031018 203.308201,610.91252 203.664916,611.12306 C204.021632,611.3336 204.14013,611.793451 203.92959,612.150166 C201.155115,616.850927 198.113351,620.911888 194.846379,624.374521 C189.061431,630.505933 182.852096,634.507591 176.63496,636.792412 C174.451799,637.594733 172.421296,638.124659 170.594742,638.434586 C169.951483,638.543734 169.378426,638.617515 168.88194,638.662471 L168.395181,638.69843 C168.334537,638.701566 168.284292,638.703436 168.244679,638.704453 C167.83056,638.713105 167.487695,638.384549 167.478697,637.970429 C167.470045,637.55631 167.798601,637.213445 168.212721,637.20462 L168.410644,637.195057 C168.499901,637.189319 168.612176,637.180761 168.74667,637.168583 C169.204975,637.127084 169.739476,637.058267 170.34381,636.955724 C172.08181,636.660822 174.023237,636.154143 176.11754,635.384479 C182.121729,633.177917 188.133719,629.303439 193.755341,623.345134 C196.945008,619.964437 199.919628,615.993117 202.63781,611.387734 Z" id="Stroke-63" fill="#3B4A7A" fill-rule="nonzero"></path>
        <path d="M323.49175,586.4944 C323.905964,586.4944 324.24175,586.830186 324.24175,587.2444 C324.24175,587.624096 323.959596,587.937891 323.593521,587.987553 L323.49175,587.9944 L174.82825,587.9944 C174.414036,587.9944 174.07825,587.658614 174.07825,587.2444 C174.07825,586.864704 174.360404,586.550909 174.726479,586.501247 L174.82825,586.4944 L323.49175,586.4944 Z" id="Stroke-65" fill="#3B4A7A" fill-rule="nonzero"></path>
        <path d="M236.4706,794.8252 L236.4706,794.8252 C215.8891,798.4717 196.0621,785.3422 191.3836,764.9707 L172.8421,684.2257 C167.3341,660.2392 183.0286,636.5272 207.2611,632.2267 C231.3481,627.9517 254.1481,644.5927 257.4226,668.8357 L268.5106,750.9367 C271.3276,771.7927 257.1916,791.1547 236.4706,794.8252" id="Fill-67" fill="#3B4A7A"></path>
        <path d="M269.40385,749.6194 C273.20485,771.5254 257.83285,792.1279 235.74985,794.7139 C193.33435,799.6804 132.94885,806.7364 132.94885,806.7364 L132.94735,806.7364 C126.62035,813.4639 105.98635,811.9594 108.73285,798.1069 C113.75635,772.7629 102.64435,753.4564 107.40835,744.1279 C112.17235,734.8009 126.12235,739.9549 126.12835,739.9564 C126.12835,739.9564 182.46985,727.5214 222.73285,718.4509 C244.34035,713.5849 265.61785,727.7974 269.40385,749.6194" id="Fill-69" fill="#3B4A7A"></path>
        <path d="M297.1546,811.00735 L295.2406,841.67485 C295.2406,841.67485 308.7526,844.79785 321.4261,843.12685 C343.1056,840.26785 337.4746,845.89885 363.3781,847.58785 C386.1946,849.07585 400.7971,837.60235 390.6886,832.98985 C361.5946,819.71485 348.4546,807.88735 348.4546,807.88735 C348.4546,807.88735 337.2121,773.56285 322.8436,770.51485 C300.2701,765.72685 297.1546,811.00735 297.1546,811.00735" id="Fill-71" fill="#E4EBF7"></path>
        <g id="分组" transform="translate(293.500000, 831.679000)">
            <mask id="mask-8" fill="white">
                <use xlink:href="#path-7"></use>
            </mask>
            <g id="Clip-74"></g>
            <path d="M94.21575,1.94265 C94.21575,1.94265 94.33425,5.24265 81.40425,10.81215 C66.34425,17.29965 43.04475,9.47415 29.45625,6.16665 C8.52825,1.06965 6.79125,5.18115 2.84925,2.36565 C-0.53025,7.99665 3.27225,13.34565 3.27225,13.34565 C3.27225,13.34565 7.77375,15.59865 23.54475,15.03615 C39.31125,14.47215 39.23475,18.72615 59.02125,20.52615 C86.89575,23.05965 100.53075,14.88165 101.41275,9.15165 C102.52125,1.94265 97.31175,-0.82935 94.21575,1.94265" id="Fill-73" fill="#B0BEDC" mask="url(#mask-8)"></path>
        </g>
        <path d="M356.1673,677.1382 L356.1673,677.1382 C359.8273,656.1742 345.9853,636.1537 325.0798,632.1742 L214.2973,611.0827 C190.5448,606.5602 167.6893,622.3582 163.5223,646.1752 C159.2173,670.7917 176.5738,693.9337 201.4093,696.6952 L313.4908,709.1542 C333.9403,711.4282 352.6303,697.4062 356.1673,677.1382" id="Fill-75" fill="#4E5C93"></path>
        <path d="M321.2125,634.51795 C298.9795,634.26745 281.0995,652.73395 282.076,674.94595 C283.9525,717.61045 286.639,778.34845 286.639,778.34845 L286.639,778.34995 C281.008,785.66995 285.016,799.11595 299.0275,800.87395 C325.843,804.23545 342.5785,802.74745 351.025,796.55245 C359.47,790.36045 353.653,774.41245 353.65,774.40645 L353.65,775.90645 C353.65,775.90645 356.9215,716.80195 359.4385,675.60745 C360.79,653.50045 343.3585,634.76845 321.2125,634.51795" id="Fill-77" fill="#4E5C93"></path>
        <path d="M328.1881,521.7337 C328.1881,521.7337 356.0626,574.1032 322.2751,592.6867 C297.9301,606.0772 176.0041,596.6287 169.6696,589.8712 C154.6111,573.8077 165.1801,554.7037 163.2136,519.2242 C161.4196,486.8722 135.4891,456.2077 153.7621,438.9547 C176.5681,422.4832 193.9996,418.0792 210.0931,414.4837 C223.9846,411.3802 232.5316,434.5957 245.9911,434.7562 C257.1631,434.8897 262.3771,413.3587 272.4391,416.1487 C287.1361,420.2242 304.5361,419.5267 325.6546,431.3527 C325.6546,431.3527 332.4586,458.7652 323.9836,494.4472 C323.9836,494.4472 329.7196,507.4852 328.1881,521.7337" id="Fill-79" fill="#E4EBF7"></path>
        <path d="M273.2623,423.24355 C273.2623,423.24355 269.0968,476.73805 258.5383,501.65605 C229.2553,447.59605 210.2428,415.05205 209.4058,414.93505 L246.9943,432.25105 L273.2623,423.24355 Z" id="Fill-81" fill="#FFFFFF"></path>
        <polygon id="Fill-83" fill="#253368" points="262.8847 439.40215 249.7927 429.68815 235.4332 441.09115 243.2287 452.14615 260.2282 452.24215"></polygon>
        <polygon id="Fill-85" fill="#253368" points="267.2791 466.8292 260.0506 451.3432 243.0346 452.0722 238.8286 465.0532 257.9746 503.3452"></polygon>
        <polygon id="Fill-87" fill="#FFFFFF" points="270.92665 444.2179 248.40115 430.1404 270.64465 414.0904 274.30465 417.7504"></polygon>
        <polygon id="Fill-89" fill="#FFFFFF" points="248.40175 430.13995 228.69175 444.77995 208.98325 414.93595 213.20725 409.86745"></polygon>
        <polygon id="Fill-91" fill="#FFFFFF" points="271.7542 445.31425 249.2467 429.71725 271.1422 412.04125 278.1502 418.82875"></polygon>
        <path d="M278.979852,418.588191 L271.18737,411.040892 L247.996001,429.763032 L272.226386,446.553938 L278.979852,418.588191 Z M271.097,413.041 L277.32,419.069 L271.282,444.074 L250.497,429.671 L271.097,413.041 Z" id="Stroke-93" fill="#E4EBF7" fill-rule="nonzero"></path>
        <polygon id="Fill-95" fill="#FFFFFF" points="249.24625 429.7174 228.25225 447.0034 208.40275 415.3279 213.70975 407.5369"></polygon>
        <path d="M250.528164,429.633418 L213.495569,406.519114 L207.506936,415.310792 L228.069998,448.124981 L250.528164,429.633418 Z M213.923,408.555 L247.964,429.801 L228.434,445.882 L209.298,415.344 L213.923,408.555 Z" id="Stroke-97" fill="#E4EBF7" fill-rule="nonzero"></path>
        <path d="M258.480845,501.471158 C258.859448,501.442375 259.19373,501.699929 259.271,502.061186 L259.285542,502.162145 L261.535,531.755 L261.900076,532.797246 L262.179851,533.621655 C262.419981,534.337021 262.677133,535.122609 262.948033,535.973349 C264.030986,539.37428 265.113717,543.118727 266.124305,547.095605 C268.242601,555.431551 269.757396,563.647612 270.406206,571.343062 C271.341482,582.436248 270.413794,591.726585 267.20696,598.633825 C267.032535,599.009523 266.586572,599.172686 266.210875,598.99826 C265.835177,598.823835 265.672014,598.377872 265.84644,598.002175 C268.923238,591.375019 269.826848,582.325804 268.911509,571.469082 C268.270398,563.86495 266.770001,555.726981 264.67051,547.465038 C263.758803,543.877277 262.787859,540.4799 261.811697,537.35702 L261.518746,536.428475 C261.250325,535.585519 260.995673,534.807562 260.758065,534.099698 L260.25673,532.636942 L260.090564,532.169882 L260.047358,531.969855 L257.789858,502.275855 C257.758458,501.862833 258.067823,501.502558 258.480845,501.471158 Z" id="Stroke-99" fill="#96A7CA" fill-rule="nonzero"></path>
        <path d="M324.484651,488.068309 C324.863051,488.036971 325.199063,488.292264 325.278769,488.652992 L325.293991,488.753851 L328.074,522.337 L328.381348,522.852442 L328.478768,523.019697 C328.87131,523.696278 329.308104,524.482363 329.778072,525.369868 C331.119008,527.902142 332.459306,530.742537 333.710244,533.826617 C338.079723,544.599187 340.285281,555.511528 339.146641,565.727462 C337.826213,577.574417 332.046052,587.551884 321.004405,594.998555 C320.919783,595.055625 320.824403,595.094823 320.724104,595.113747 L319.597513,595.311377 L318.48397,595.494115 C317.825158,595.599522 317.099579,595.711189 316.308183,595.828032 L314.923584,596.028046 C311.624551,596.494398 307.848388,596.95719 303.616014,597.39265 L301.298646,597.624465 C265.216175,601.131477 221.558952,600.615459 172.656993,593.428279 C172.247182,593.368048 171.963791,592.987004 172.024021,592.577193 C172.084252,592.167382 172.465296,591.883991 172.875107,591.944221 C222.174022,599.189743 266.121433,599.637571 302.31017,596.017441 L303.462493,595.900527 C307.976373,595.436103 311.966847,594.940712 315.408162,594.443562 L316.089095,594.344118 C317.345155,594.158671 318.432805,593.986572 319.348141,593.832251 L320.291,593.668 L320.661997,593.41596 C330.841582,586.374239 336.230387,577.102074 337.593075,566.095246 L337.655873,565.561305 C338.762618,555.631528 336.604097,544.951908 332.320235,534.390421 C331.089372,531.355834 329.770596,528.561049 328.452459,526.07183 L328.003263,525.235726 C327.784625,524.834781 327.575237,524.459727 327.376483,524.111586 L326.925113,523.335874 C326.828304,523.173099 326.754763,523.052385 326.706557,522.975258 C326.664311,522.907667 326.633246,522.833995 326.614306,522.757086 L326.595109,522.639649 L323.799109,488.877649 C323.764923,488.464849 324.07185,488.102495 324.484651,488.068309 Z" id="Stroke-101" fill="#96A7CA" fill-rule="nonzero"></path>
        <path d="M207.529442,414.73031 C207.860061,414.480784 208.330363,414.546522 208.57989,414.877142 C213.701485,421.663188 220.581361,432.799879 228.794486,447.326023 C230.301599,449.991578 231.844556,452.755679 233.419221,455.609088 C238.823662,465.402328 244.384799,475.847313 249.830017,486.335607 L252.377093,491.261135 C253.280269,493.014742 254.146288,494.703898 254.971023,496.319402 L257.070007,500.447282 L257.786,501.864 L258.067666,500.876921 C260.280032,493.059388 262.606293,483.735549 265.005592,473.215424 L265.262937,472.083704 C267.798755,460.89917 270.288405,448.964152 272.640008,436.982032 L273.698033,431.539714 C274.210044,428.880353 274.689507,426.351375 275.13318,423.977628 L276.184277,418.275014 L276.316432,417.541591 C276.389256,417.133829 276.778848,416.862308 277.186609,416.935132 C277.594371,417.007956 277.865892,417.397548 277.793068,417.805309 L276.934022,422.500353 L276.09305,426.990714 C275.62249,429.480039 275.117337,432.115334 274.580831,434.871767 C272.245495,446.870127 269.765743,458.868696 267.23303,470.165565 L266.725809,472.415375 C264.316152,483.043464 261.977448,492.48691 259.749289,500.439082 L259.510982,501.28538 C259.236707,502.254548 258.964491,503.199466 258.694391,504.119679 C258.502494,504.773455 257.608668,504.853295 257.303939,504.243878 L255.650097,500.963592 L253.219597,496.188251 C252.102839,494.003972 250.91394,491.691528 249.662685,489.272743 L247.331526,484.782648 C242.266215,475.061829 237.11808,465.41622 232.105927,456.333835 C231.057768,454.434493 230.023737,452.574887 229.00507,450.757766 L227.488745,448.064292 C219.306079,433.59202 212.453859,422.500095 207.38261,415.780758 C207.133084,415.450139 207.198822,414.979837 207.529442,414.73031 Z" id="Stroke-103" fill="#96A7CA" fill-rule="nonzero"></path>
        <path d="M230.364223,537.069843 C248.798849,533.524949 264.394747,533.500102 276.72472,535.589188 C278.309809,535.857752 279.710746,536.143721 280.923,536.432065 L281.368742,536.540276 C281.645346,536.608821 281.899522,536.674534 282.131097,536.736837 L282.77829,536.918986 C282.869822,536.946131 282.93794,536.967171 282.982471,536.981526 C283.376705,537.108618 283.593266,537.531237 283.466174,537.925471 C283.339082,538.319705 282.916463,538.536266 282.522229,538.409174 L282.152191,538.299073 L281.739531,538.184828 C281.591942,538.14513 281.434337,538.103873 281.266764,538.061226 L281.007938,537.996236 C279.733377,537.680386 278.219966,537.363907 276.474144,537.06811 C264.316552,535.008232 248.900981,535.032791 230.647477,538.542857 C230.240716,538.621075 229.847562,538.354738 229.769343,537.947977 C229.691125,537.541216 229.957462,537.148062 230.364223,537.069843 Z" id="Stroke-105" fill="#96A7CA" fill-rule="nonzero"></path>
        <path d="M273.36491,526.962843 C273.383305,527.376648 273.062762,527.727015 272.648957,527.74541 L269.966866,527.858124 L267.213785,527.966324 C265.960618,528.014018 264.672211,528.060925 263.365353,528.105993 L261.049082,528.18314 C259.904499,528.219855 258.781585,528.2537 257.686378,528.284295 L254.133816,528.374084 C247.946863,528.512269 243.554884,528.503734 241.570384,528.304914 C241.158234,528.263622 240.857594,527.896035 240.898886,527.483884 C240.940178,527.071734 241.307765,526.771094 241.719916,526.812386 L242.032203,526.840297 C244.352891,527.025632 249.487812,527.000909 256.561075,526.814314 L258.746818,526.753269 C259.857765,526.72061 260.994478,526.68483 262.150895,526.646307 L265.255296,526.53813 L272.582343,526.24689 C272.996148,526.228495 273.346515,526.549038 273.36491,526.962843 Z" id="Stroke-107" fill="#96A7CA" fill-rule="nonzero"></path>
        <path d="M326.616479,461.352133 C327.03026,461.333206 327.381039,461.653298 327.399967,462.067079 C327.877024,472.496239 327.370041,482.087025 325.589229,490.180517 C325.500218,490.585054 325.100119,490.840839 324.695583,490.751829 C324.291046,490.662818 324.035261,490.262719 324.124271,489.858183 C325.872623,481.912214 326.373095,472.444624 325.901533,462.135621 C325.882606,461.72184 326.202698,461.371061 326.616479,461.352133 Z" id="Stroke-109" fill="#96A7CA" fill-rule="nonzero"></path>
        <path d="M145.75345,572.78575 L145.75345,572.78575 C163.15345,576.73825 180.46345,565.83625 184.41595,548.43475 L201.86695,471.59875 C205.81945,454.19875 194.91745,436.88875 177.51595,432.93775 C160.11595,428.98525 142.80595,439.88725 138.85345,457.28725 L121.40245,534.12325 C117.44995,551.52325 128.35195,568.83325 145.75345,572.78575" id="Fill-111" fill="#E4EBF7"></path>
        <path d="M183.930838,443.655529 C184.133814,443.290185 184.594528,443.158561 184.959871,443.361538 C185.415214,443.614516 186.178631,444.137643 187.146447,444.968159 C188.741346,446.336796 190.3319,448.08669 191.813238,450.254255 C199.515322,461.524307 201.346868,478.834134 193.76185,503.373526 C193.638428,503.772828 193.214676,503.996472 192.815374,503.87305 C192.416072,503.749628 192.192428,503.325876 192.31585,502.926574 C199.771154,478.806839 197.990189,461.975056 190.563671,451.108224 C189.159214,449.053156 187.657843,447.401379 186.160818,446.116731 C185.727533,445.744914 185.321487,445.42755 184.950073,445.16208 L184.731439,445.009005 C184.480765,444.837233 184.307616,444.730557 184.224829,444.684562 C183.859485,444.481586 183.727861,444.020872 183.930838,443.655529 Z" id="Stroke-113" fill="#96A7CA" fill-rule="nonzero"></path>
        <path d="M293.60605,541.3165 C293.60605,541.3165 266.73955,547.7185 258.59755,537.6115 C251.22355,528.4585 261.62905,517.468 261.62905,517.468 C261.62905,517.468 270.74155,509.803 282.79555,504.2185 C290.69605,500.5585 304.67455,491.3635 307.63555,494.9035 C311.49355,499.519 295.66705,506.5885 295.79905,510.964 C296.06905,519.829 322.14055,511.3285 327.10855,512.2195 C336.81805,513.961 325.89205,533.8825 293.60605,541.3165" id="Fill-115" fill="#B69882"></path>
        <path d="M327.511097,516.353584 C327.786751,516.21032 328.126351,516.317643 328.269616,516.593297 C328.41288,516.868951 328.305557,517.208551 328.029903,517.351816 C326.397592,518.200168 324.66824,518.951517 322.854099,519.611159 C318.550666,521.175936 313.949331,522.171016 309.320118,522.709566 C307.646075,522.90432 306.067362,523.026732 304.617828,523.090686 L304.009892,523.114405 C303.528251,523.130624 303.109815,523.13829 302.760398,523.139774 L302.291976,523.137582 C301.981381,523.131217 301.734753,522.874271 301.740882,522.563676 C301.746846,522.28414 301.955546,522.056419 302.223652,522.018309 L302.321933,522.012955 L302.970061,522.013152 C303.335607,522.009182 303.768822,521.998726 304.263852,521.979434 L304.568242,521.966779 C305.991791,521.903972 307.543814,521.783629 309.190116,521.592103 C313.738276,521.062983 318.256232,520.085934 322.469662,518.553883 C324.239146,517.910478 325.923714,517.178587 327.511097,516.353584 Z" id="Stroke-117" fill="#7C5B4D" fill-rule="nonzero"></path>
        <path d="M325.700065,522.988202 C325.96911,522.83288 326.313127,522.925071 326.468448,523.194115 C326.62377,523.46316 326.531579,523.807177 326.262535,523.962498 L325.937945,524.140227 L325.68468,524.272451 C325.217193,524.513172 324.663066,524.780714 324.024065,525.068315 C322.204214,525.887391 320.066159,526.705453 317.624048,527.46834 C312.566162,529.048362 306.885369,530.182293 300.63226,530.67809 C300.322572,530.702645 300.051614,530.471498 300.02706,530.16181 C300.002505,529.852122 300.233652,529.581164 300.54334,529.55661 C306.710353,529.067639 312.308793,527.950146 317.288598,526.394515 C319.68673,525.645368 321.782736,524.843394 323.562338,524.042433 L324.154933,523.770085 C324.437091,523.637568 324.697991,523.510722 324.937409,523.390391 L325.502872,523.097219 C325.591348,523.049595 325.657154,523.012975 325.700065,522.988202 Z" id="Stroke-119" fill="#7C5B4D" fill-rule="nonzero"></path>
        <path d="M315.837532,531.602165 C316.131146,531.500673 316.451443,531.656418 316.552935,531.950032 C316.654427,532.243646 316.498682,532.563943 316.205068,532.665435 C310.853878,534.515156 306.102126,535.721669 302.003525,536.410948 C300.72486,536.625987 299.591081,536.776206 298.606898,536.872674 L298.244851,536.906351 C297.963774,536.931054 297.710839,536.949762 297.486398,536.963305 L297.060444,536.984278 C297.003307,536.986295 296.959409,536.987373 296.928855,536.987756 C296.618219,536.991652 296.363241,536.742991 296.359255,536.432355 C296.355448,536.121719 296.604109,535.866741 296.914745,535.862844 L297.215708,535.851541 L297.643219,535.825655 C297.798362,535.814758 297.966109,535.801512 298.146358,535.785671 L298.864914,535.715168 C299.735903,535.621258 300.720957,535.485845 301.81695,535.301527 C305.854443,534.622525 310.54566,533.431382 315.837532,531.602165 Z" id="Stroke-121" fill="#7C5B4D" fill-rule="nonzero"></path>
        <path d="M274.8604,544.4044 L270.3589,513.7804 C269.1844,505.7989 261.6334,500.1139 253.2259,500.8834 L152.8774,510.0754 C132.9859,512.7394 119.1244,530.2879 121.9144,549.2719 C124.7059,568.2559 143.0929,581.4859 162.9859,578.8219 L262.1089,561.3034 C270.4129,559.8364 276.0334,552.3874 274.8604,544.4044" id="Fill-123" fill="#E4EBF7"></path>
        <path d="M255.423166,502.780107 C263.321532,502.044941 270.395595,507.472232 271.613367,515.144735 L271.660103,515.461297 L275.55109,543.979198 C276.607266,551.712532 271.365823,558.921262 263.627686,560.486314 L263.308284,560.54744 L169.993284,577.65794 C169.582197,577.733319 169.187838,577.461172 169.11246,577.050084 C169.043363,576.673254 169.266283,576.31048 169.620559,576.194575 L169.720316,576.16926 L263.037331,559.058393 C270.055299,557.791182 274.868479,551.406006 274.090098,544.493744 L274.051497,544.183903 L270.160513,515.666022 C269.214281,508.739099 262.956418,503.764524 255.885884,504.260693 L255.568765,504.286578 L181.932265,511.666578 C181.516407,511.708256 181.1455,511.404923 181.103822,510.989065 C181.065617,510.607862 181.317317,510.26443 181.679849,510.177736 L181.781335,510.160622 L255.423166,502.780107 Z" id="Stroke-125" fill="#96A7CA" fill-rule="nonzero"></path>
    </g>
</svg>