<svg xmlns="http://www.w3.org/2000/svg" xmlns:xlink="http://www.w3.org/1999/xlink" width="512" height="1024" version="1.1" viewBox="0 0 512 1024"><title>2.人物组件/3.商务经理/摆手/欢呼</title><desc>Created with Sketch.</desc><defs><polygon id="path-1" points="0 .234 36.773 .234 36.773 58.665 0 58.665"/><polygon id="path-3" points=".305 1.058 79.618 1.058 79.618 54.685 .305 54.685"/><polygon id="path-5" points="1.251 1.403 77.51 1.403 77.51 81 1.251 81"/></defs><g id="2.人物组件/3.商务经理/摆手/欢呼" fill="none" fill-rule="evenodd" stroke="none" stroke-width="1"><path id="Fill-1" fill="#A08889" d="M370.17715,175.34895 C370.17715,175.34895 362.80315,168.37845 365.95765,154.28595 C368.39665,143.38845 366.00865,141.81645 366.05515,135.72495 C366.10315,129.63195 371.73115,134.76345 373.93765,145.91145 C374.95165,154.11795 388.93315,135.48195 390.58165,124.66245 C392.17915,114.15945 414.75865,140.67645 388.97665,169.73295 C376.26715,184.05645 370.17715,175.34895 370.17715,175.34895"/><path id="Stroke-3" fill="#7C5B4D" fill-rule="nonzero" d="M398.398725,133.134549 L398.476013,133.147135 C398.779502,133.213499 398.97173,133.513324 398.905365,133.816813 C398.845637,134.089953 398.596806,134.272971 398.326394,134.258464 L398.268463,134.251982 C398.176288,134.241237 398.01871,134.301798 397.800585,134.59058 C397.364976,135.167294 397.046899,136.307717 396.944683,138.139112 L396.928906,138.469497 C396.665258,145.100458 392.661381,150.647901 384.660287,156.195456 C383.597168,156.932333 382.717488,157.710462 382.008841,158.523882 C379.66152,161.218254 379.306532,164.047534 380.095371,166.619989 C380.22785,167.052013 380.357617,167.356549 380.437525,167.507547 C380.582833,167.782129 380.478036,168.122517 380.203453,168.267825 C379.928871,168.413133 379.588483,168.308336 379.443175,168.033753 C379.331702,167.823107 379.174397,167.453945 379.019804,166.949809 C378.125666,164.033965 378.531021,160.803249 381.160594,157.784895 C381.931945,156.899499 382.881493,156.059568 384.019344,155.270892 C391.61517,150.00433 395.41557,144.836171 395.787411,138.769069 L395.804799,138.424681 C395.894109,136.190621 396.27919,134.738249 396.902887,133.912521 C397.332581,133.343638 397.833242,133.117578 398.2787,133.1264 L398.398725,133.134549 Z"/><path id="Stroke-5" fill="#7C5B4D" fill-rule="nonzero" d="M394.593154,129.699179 C395.476114,128.283037 396.663233,127.723515 397.65626,128.500618 C397.900912,128.692073 397.944037,129.045608 397.752582,129.29026 C397.5824,129.507729 397.284155,129.565966 397.048152,129.441758 L396.96294,129.386582 C396.633201,129.128542 396.125506,129.367833 395.547796,130.294396 C394.811974,131.474549 394.272866,133.387762 394.101041,135.700944 C394.074708,136.053963 394.029955,136.413464 393.967507,136.779064 C393.634913,138.726215 392.818069,140.787619 391.665828,142.871892 C391.132517,143.836591 390.561636,144.743055 389.990464,145.565807 L389.701196,145.975006 L389.257321,146.570858 C389.243115,146.589084 389.230881,146.604622 389.220692,146.617422 C389.027215,146.860478 388.673335,146.900669 388.430278,146.707192 C388.187222,146.513715 388.147031,146.159835 388.340508,145.916778 L388.536017,145.66123 L388.788906,145.31671 C388.877486,145.193741 388.970155,145.062782 389.066326,144.924251 C389.616848,144.131245 390.167659,143.256648 390.681262,142.327599 C391.777528,140.344578 392.550296,138.394406 392.858568,136.589646 C392.915157,136.258348 392.955527,135.934055 392.979145,135.617432 C393.163509,133.135452 393.751339,131.04933 394.593154,129.699179 Z"/><path id="Stroke-7" fill="#7C5B4D" fill-rule="nonzero" d="M391.690747,127.156706 C392.500382,125.313668 393.485448,124.675796 394.36935,124.875429 C394.429462,124.889006 394.466622,124.901156 394.5185,124.921809 C394.8048,125.0424 394.939133,125.372251 394.818541,125.65855 C394.710009,125.91622 394.431977,126.050796 394.168743,125.987224 L394.121505,125.972789 C394.059364,125.958754 393.95211,125.975225 393.78544,126.083151 C393.449986,126.300372 393.083826,126.782664 392.720744,127.609178 C392.286874,128.596832 391.901493,129.985318 391.584459,131.822343 C391.119843,134.515082 390.236983,137.005942 389.057603,139.268225 C388.426221,140.479341 387.749259,141.548959 387.071119,142.467555 C386.892255,142.709841 386.722609,142.928808 386.56451,143.123949 L386.410348,143.311129 C386.288101,143.457036 386.198851,143.557812 386.148109,143.612246 C385.936282,143.839489 385.580346,143.851986 385.353104,143.640159 C385.125861,143.428332 385.113364,143.072396 385.325191,142.845154 L385.548012,142.588632 C385.733667,142.367044 385.941508,142.103528 386.166034,141.799389 C386.810783,140.926023 387.456711,139.90544 388.060025,138.748164 C389.101187,136.751011 389.900515,134.568156 390.366379,132.221187 L390.475844,131.631038 C390.807307,129.710406 391.216389,128.236524 391.690747,127.156706 Z"/><g id="分组" transform="translate(84.500000, 109.266000)"><mask id="mask-2" fill="#fff"><use xlink:href="#path-1"/></mask><path id="Fill-9" fill="#A08889" d="M22.31235,57.3189 C22.31235,57.3189 31.23885,52.4949 31.84185,38.0664 C32.30535,26.9079 35.02035,26.0094 36.55185,20.1129 C38.08485,14.2164 31.31835,17.7144 26.30235,27.9114 C23.19735,35.5764 14.51835,13.9554 15.72735,3.0789 C16.90185,-7.4811 -11.77215,12.2874 5.60835,47.0274 C14.17635,64.1529 22.31235,57.3189 22.31235,57.3189" mask="url(#mask-2)"/></g><path id="Stroke-11" fill="#7C5B4D" fill-rule="nonzero" d="M89.4039383,118.495367 C89.6762344,118.508131 90.0169372,118.644524 90.3257932,118.986501 C91.0519333,119.790511 91.2319423,121.372458 90.685383,123.967779 L90.6162968,124.284097 C89.2718382,130.240645 91.4703499,136.197507 97.3070522,143.209167 L97.6413178,143.607187 C101.332979,147.96551 101.605127,152.075937 99.8188231,155.529118 C99.4279459,156.284739 99.0328662,156.822836 98.7567075,157.120099 C98.5452656,157.3477 98.1893512,157.360799 97.9617506,157.149357 C97.7341499,156.937916 97.7210506,156.582001 97.9324925,156.354401 L98.0096935,156.26504 C98.0583902,156.205957 98.121503,156.12545 98.1957542,156.02432 C98.4074725,155.735961 98.6203927,155.397321 98.819599,155.012227 C100.368358,152.018254 100.175778,148.495954 97.0138281,144.612356 L96.782908,144.334344 C90.6067267,137.043879 88.1491457,130.747299 89.4417657,124.39583 L89.5189383,124.036248 C90.0756964,121.572814 89.9453805,120.243761 89.4908955,119.740538 C89.4016932,119.64177 89.3443378,119.618808 89.3512617,119.619133 C89.0409423,119.604587 88.8011707,119.341231 88.815717,119.030912 C88.8302632,118.720592 89.0936188,118.480821 89.4039383,118.495367 Z"/><path id="Stroke-13" fill="#7C5B4D" fill-rule="nonzero" d="M91.3991635,114.220236 C92.5595983,113.726602 93.5611993,114.574032 94.0474401,116.170319 C94.5109019,117.691823 94.5390006,119.858617 94.0754831,122.303745 C93.9198153,123.123872 93.8626361,124.02117 93.8960767,124.983478 C93.9578098,126.759951 94.3207906,128.674896 94.887997,130.602837 C95.1079427,131.350435 95.3436008,132.047641 95.5789975,132.674953 L95.7853734,133.207012 C95.8276171,133.31172 95.8622879,133.39452 95.8881255,133.453891 C96.0120908,133.738746 95.881664,134.07016 95.596809,134.194126 C95.311954,134.318091 94.9805397,134.187664 94.8565745,133.902809 L94.6965543,133.513972 C94.6463087,133.387118 94.588942,133.238695 94.5257128,133.070195 C94.2811172,132.418369 94.036783,131.695494 93.8087358,130.920359 C93.2169806,128.908976 92.8371819,126.905307 92.7717553,125.022549 C92.7355623,123.981035 92.7979948,123.001298 92.9701925,122.094084 C93.4021526,119.815426 93.3763813,117.82811 92.9712599,116.498131 C92.6718519,115.515201 92.2749628,115.136484 91.9079669,115.232024 L91.8395365,115.255464 C91.5536663,115.37707 91.2233418,115.243907 91.1017361,114.958037 C90.9801304,114.672166 91.1132932,114.341842 91.3991635,114.220236 Z"/><path id="Stroke-15" fill="#7C5B4D" fill-rule="nonzero" d="M96.7033947,112.257271 C97.5266779,113.307785 97.8569085,115.467462 97.5246151,119.102299 C97.2173861,122.463664 97.6348087,125.64437 98.5186876,128.504794 C98.7571777,129.2766 99.0122908,129.964 99.2666915,130.557605 L99.4397518,130.947464 C99.5067909,131.092582 99.5598488,131.199727 99.5956769,131.267152 C99.7414514,131.541487 99.6372329,131.882052 99.3628982,132.027827 C99.0885635,132.173601 98.7479976,132.069383 98.6022231,131.795048 L98.475924,131.541728 C98.4082779,131.399689 98.3260979,131.218803 98.2326524,131.000762 C97.963136,130.371887 97.694332,129.647596 97.4438328,128.836927 C96.5190522,125.844136 96.0826539,122.518837 96.4042859,118.99989 C96.7128613,115.624496 96.4219498,113.721962 95.8179188,112.951214 C95.6483321,112.734821 95.5328241,112.689653 95.4828125,112.693253 L95.5096149,112.690351 C95.2018537,112.732692 94.9180398,112.517526 94.8756989,112.209765 C94.8333581,111.902004 95.0485238,111.61819 95.3562851,111.575849 L95.4020433,111.571156 C95.8083549,111.541909 96.290535,111.73046 96.7033947,112.257271 Z"/><g id="分组" transform="translate(357.000000, 526.000000)"><mask id="mask-4" fill="#fff"><use xlink:href="#path-3"/></mask><path id="Fill-17" fill="#253368" d="M31.6668,37.32495 C31.6668,37.32495 55.9743,35.07045 71.0238,51.54495 C80.8773,62.32995 85.1238,43.37145 67.8933,24.40245 C58.0728,13.58895 53.2818,19.93095 49.1718,13.14195 C46.7883,9.20745 38.5383,-0.49305 35.4603,1.26945 C31.4418,3.57195 25.8198,9.16245 20.9358,13.87695 C17.7243,16.97745 7.2198,24.80145 5.2698,27.86445 C-8.3772,49.31145 7.9713,53.56695 31.6668,37.32495" mask="url(#mask-4)"/></g><g id="分组" transform="translate(161.500000, 772.266000)"><mask id="mask-6" fill="#fff"><use xlink:href="#path-5"/></mask><path id="Fill-19" fill="#253368" d="M42.3954,35.71845 C42.3954,35.71845 32.1744,61.33995 7.4724,67.77495 C-8.7006,71.98845 8.6019,86.25945 36.9924,78.95145 C53.1759,74.78445 49.1274,66.62445 58.2279,66.07395 C63.5019,65.75445 77.7324,62.58195 77.5074,58.55595 C77.2149,53.30145 74.3664,44.70195 72.0399,37.30395 C70.5084,32.44095 67.8834,17.75295 65.7399,14.17695 C50.7309,-10.85805 37.9224,3.32895 42.3954,35.71845" mask="url(#mask-6)"/></g><path id="Fill-21" fill="#A08889" d="M231.1606,308.42925 L231.1606,308.42925 C219.6271,307.53825 211.1011,297.30675 212.3056,285.80175 L214.5346,264.49425 C215.2771,257.38275 221.5501,252.15675 228.6781,252.70725 L240.6796,253.63425 C247.8091,254.18625 253.2016,260.31375 252.8446,267.45525 L251.6971,290.35125 C251.1601,301.08375 241.8751,309.25725 231.1606,308.42925"/><path id="Fill-23" fill="#A08889" d="M213.0682,247.2648 C214.2712,252.6123 212.2072,255.6708 209.2117,256.0743 C205.3507,256.5933 201.5452,252.3423 199.9507,247.0983 C197.6887,239.6673 200.8462,235.5183 205.2502,236.0703 C208.8952,236.5278 211.8652,241.9173 213.0682,247.2648"/><path id="Fill-25" fill="#A08889" d="M256.94035,250.65555 C254.92885,255.75555 256.49935,259.09305 259.39885,259.95255 C263.13085,261.05955 267.54535,257.44305 269.92735,252.50655 C273.30535,245.51205 270.82285,240.92655 266.38585,240.79605 C262.71385,240.68655 258.95035,245.55555 256.94035,250.65555"/><path id="Fill-27" fill="#A08889" d="M264.42715,242.91345 C262.70815,265.16745 250.17565,282.34545 232.20865,280.95795 C215.30965,279.65145 205.52515,260.72445 206.21965,238.41495 C207.17215,207.83745 221.53915,199.06395 238.43815,200.37045 C255.33715,201.67695 266.73865,213.00645 264.42715,242.91345"/><path id="Fill-29" fill="#604346" d="M214.0438,215.46435 L259.8808,218.90085 C259.8808,218.90085 260.4013,224.02485 260.4433,231.72285 C265.8223,238.84635 263.8258,248.22285 263.8258,248.22285 C263.8258,248.22285 276.4048,203.30535 238.4383,200.36985 C199.7683,197.38185 206.3713,243.78135 206.3713,243.78135 C207.3793,230.72835 211.5658,228.34785 211.5658,228.34785 C211.5658,228.34785 212.6248,222.87285 214.0438,215.46435"/><path id="Stroke-31" fill="#604346" fill-rule="nonzero" d="M242.005818,232.20777 L255.250818,233.91027 C255.330147,233.920467 255.407074,233.943252 255.478773,233.97754 L255.582048,234.037464 L257.994048,235.706964 C258.334634,235.942706 258.419627,236.409912 258.183886,236.750498 C257.969575,237.060121 257.563972,237.158511 257.23611,236.996726 L257.140352,236.940336 L254.88,235.375 L241.814582,233.69553 C241.437985,233.647122 241.162722,233.327265 241.160136,232.957845 L241.16632,232.856032 C241.214728,232.479435 241.534585,232.204172 241.904005,232.201586 L242.005818,232.20777 Z"/><path id="Fill-33" fill="#7F6567" d="M207.18835,252.10515 C207.18835,252.10515 209.75185,252.78015 211.15585,255.58815 C212.80585,258.89415 215.40985,263.54265 215.40985,263.54265 C215.40985,263.54265 217.19485,255.55065 221.69185,253.58115 C224.38885,252.40065 228.43135,252.16065 234.10285,252.75765 C239.45935,253.32165 243.94135,254.77065 246.40585,256.43865 C250.51435,259.21815 250.92985,267.25215 250.92985,267.25215 C250.92985,267.25215 254.50735,264.65865 256.72735,260.59365 C258.91735,256.58415 258.91585,256.95015 261.70285,256.53015 C258.19885,268.96815 248.07235,282.16365 232.07035,280.92765 C213.40285,279.48465 208.82035,261.12765 207.18835,252.10515"/><path id="Stroke-35" fill="#604346" fill-rule="nonzero" d="M230.222139,233.676372 C230.59428,233.601009 230.957835,233.815267 231.079168,234.164202 L231.106078,234.262589 L232.025578,238.803089 C232.039338,238.871035 232.043578,238.940393 232.038313,239.009187 L232.023288,239.111706 L229.402,251.134 L237.011265,252.082709 C237.388045,252.129672 237.664532,252.448472 237.668535,252.817879 L237.662741,252.919715 C237.615778,253.296495 237.296978,253.572982 236.927571,253.576985 L236.825735,253.571191 L228.401735,252.521191 C227.997765,252.470839 227.714197,252.110331 227.746848,251.716253 L227.761712,251.617194 L230.524,238.945 L229.635922,234.560311 C229.560559,234.18817 229.774817,233.824615 230.123752,233.703282 L230.222139,233.676372 Z"/><path id="Stroke-37" fill="#604346" fill-rule="nonzero" d="M222.083705,237.918085 L222.26292,237.92639 C224.243676,238.079815 225.591769,240.220703 225.403722,242.628057 C225.371465,243.041013 225.010548,243.34963 224.597593,243.317372 C224.184637,243.285115 223.87602,242.924198 223.908278,242.511243 C224.038015,240.850356 223.189377,239.502644 222.147137,239.421915 C221.104284,239.341218 220.058893,240.542145 219.930265,242.204509 C219.89831,242.617489 219.53762,242.92637 219.124641,242.894415 C218.711661,242.86246 218.40278,242.50177 218.434735,242.088791 C218.615434,239.753467 220.182193,237.889125 222.083705,237.918085 Z"/><path id="Stroke-39" fill="#604346" fill-rule="nonzero" d="M248.15997,239.92784 C250.140195,240.081224 251.487122,242.221163 251.300815,244.628959 C251.26886,245.041939 250.90817,245.35082 250.495191,245.318865 C250.082211,245.28691 249.77333,244.92622 249.805285,244.513241 C249.933878,242.851333 249.085868,241.504051 248.044187,241.423365 C247.000843,241.34263 245.954685,242.544026 245.827357,244.205412 C245.795705,244.618414 245.435241,244.927559 245.022238,244.895907 C244.609236,244.864255 244.300091,244.503791 244.331743,244.090788 C244.510697,241.75578 246.078683,239.890592 247.980709,239.919534 L248.15997,239.92784 Z"/><path id="Fill-41" fill="#FFF" d="M224.1688,255.8952 C224.1688,255.8952 231.4528,257.4807 241.8688,257.7357 C241.8688,257.7357 239.0863,263.9697 232.1323,263.2032 C226.6738,262.6032 224.1688,255.8952 224.1688,255.8952"/><path id="Stroke-43" fill="#604346" fill-rule="nonzero" d="M223.641844,256.091984 L223.734538,256.32252 L223.782062,256.434034 C223.895142,256.695927 224.031117,256.986666 224.190354,257.299152 C224.64473,258.190824 225.196158,259.082391 225.84876,259.917065 C227.540037,262.080198 229.607036,263.49151 232.07084,263.762332 C235.445034,264.134251 238.171334,263.002714 240.269702,260.899379 C240.904696,260.262882 241.433872,259.581936 241.863521,258.900071 C242.123718,258.487129 242.2949,258.161131 242.382456,257.964967 C242.546109,257.598314 242.283965,257.183195 241.882567,257.173368 C237.692463,257.070788 233.709771,256.74825 230.033481,256.27477 C228.648116,256.096345 227.388793,255.906846 226.269524,255.716072 L225.546534,255.589205 L224.288437,255.34557 C223.853493,255.250896 223.486121,255.674983 223.641844,256.091984 Z M225.192715,256.788371 L225.126,256.655 L225.602415,256.742051 L226.574528,256.907707 C227.580858,257.072873 228.688866,257.235885 229.889776,257.390554 L230.82446,257.506897 C233.612561,257.841958 236.565085,258.090114 239.642115,258.223125 L240.929,258.271 L240.911714,258.30033 C240.52427,258.915216 240.045715,259.531022 239.473267,260.104825 C237.602359,261.980162 235.203465,262.97581 232.193928,262.644086 C230.074533,262.411122 228.256018,261.16947 226.735023,259.224127 C226.130398,258.450816 225.61626,257.619541 225.192715,256.788371 Z"/><path id="Stroke-45" fill="#604346" fill-rule="nonzero" d="M216.362259,273.605574 C216.587661,273.39179 216.943692,273.401207 217.157476,273.626609 C220.632693,277.290674 225.547784,279.859012 232.11369,280.366372 C238.736801,280.878203 243.731659,279.126958 247.275209,276.166524 C247.513617,275.967347 247.86835,275.999151 248.067526,276.237559 C248.266703,276.475967 248.234899,276.8307 247.996491,277.029876 C244.235618,280.171871 238.954736,282.023399 232.027014,281.488028 C225.167161,280.957955 219.999078,278.257418 216.341224,274.400791 C216.12744,274.175389 216.136857,273.819358 216.362259,273.605574 Z"/><path id="Stroke-47" fill="#604346" fill-rule="nonzero" d="M216.433779,230.910164 L229.854279,231.625664 C230.267905,231.647716 230.585338,232.000903 230.563286,232.414529 C230.543072,232.793686 230.244612,233.092015 229.876412,233.122118 L229.774421,233.123536 L216.546,232.418 L214.078991,233.612234 C213.737197,233.777599 213.331841,233.660275 213.127702,233.35237 L213.077216,233.263741 C212.911851,232.921947 213.029175,232.516591 213.33708,232.312452 L213.425709,232.261966 L216.067209,230.983966 C216.152709,230.9426 216.24502,230.917977 216.339183,230.911095 L216.433779,230.910164 Z"/><path id="Stroke-49" fill="#604346" fill-rule="nonzero" d="M228.770066,266.70805 C228.933128,266.443625 229.279675,266.361454 229.5441,266.524516 C229.709184,266.626318 230.037336,266.790579 230.496837,266.95767 C232.244311,267.593113 234.150789,267.628273 236.030792,266.674196 C236.307821,266.533608 236.646366,266.644214 236.786954,266.921242 C236.927542,267.198271 236.816936,267.536816 236.539908,267.677404 C234.349204,268.789157 232.128881,268.74821 230.112376,268.014938 C229.575679,267.819775 229.18014,267.621783 228.9536,267.482084 C228.689175,267.319022 228.607004,266.972475 228.770066,266.70805 Z"/><path id="Fill-51" fill="#ADC6FF" d="M355.73815,260.49015 L355.73815,260.49015 C362.47615,268.94715 361.58365,280.97565 353.72065,287.67915 L287.49565,344.13015 C278.00665,352.21965 263.40115,350.46615 255.26965,340.26165 C247.13965,330.05565 248.71165,315.45765 258.74365,308.04765 L328.74565,256.33515 C337.05715,250.19565 349.00015,252.03315 355.73815,260.49015"/><path id="Fill-53" fill="#ADC6FF" d="M361.4325,164.73285 L388.452,175.13985 L360.5895,277.12935 C357.4515,288.13785 345.75,294.29235 334.9005,290.63985 C324.051,286.98735 318.453,275.00985 322.6095,264.34335 L361.4325,164.73285 Z"/><path id="Stroke-55" fill="#597EF7" fill-rule="nonzero" d="M355.701801,179.860305 C355.833351,179.504126 356.206747,179.307521 356.567356,179.387765 L356.665195,179.416601 L381.886195,188.731601 C382.274754,188.87511 382.473407,189.306436 382.329899,189.694995 C382.198349,190.051174 381.824953,190.247779 381.464344,190.167535 L381.366505,190.138699 L356.145505,180.823699 C355.756946,180.68019 355.558293,180.248864 355.701801,179.860305 Z"/><path id="Fill-57" fill="#FFF" d="M375.8914,178.5921 C376.3024,177.3696 377.6284,176.7126 378.8509,177.1236 C380.0734,177.5346 380.7304,178.8591 380.3194,180.0816 C379.9084,181.3041 378.5824,181.9626 377.3599,181.5501 C376.1374,181.1391 375.4819,179.8146 375.8914,178.5921"/><path id="Fill-59" fill="#ADC6FF" d="M126.72295,243.7179 L126.72295,243.7179 C117.95245,250.1739 115.44145,261.3969 121.04545,269.0859 L168.24595,333.8424 C175.00795,343.1229 189.38395,344.3559 199.96945,336.5664 C210.55345,328.7754 213.13495,315.0594 205.66795,306.2979 L153.55195,245.1594 C147.36445,237.8994 135.49495,237.2619 126.72295,243.7179"/><path id="Fill-61" fill="#ADC6FF" d="M117.52625,149.1308 L90.42125,159.3098 L117.42275,261.5303 C120.46925,272.5658 132.11825,278.8163 142.99775,275.2553 C153.87725,271.6958 159.57575,259.7663 155.50925,249.0653 L117.52625,149.1308 Z"/><path id="Stroke-63" fill="#597EF7" fill-rule="nonzero" d="M119.170963,161.83758 C119.560722,161.697362 119.990353,161.899654 120.13057,162.289413 C120.259104,162.646692 120.099833,163.037474 119.772181,163.208127 L119.678737,163.24902 L94.378237,172.35102 C93.9884783,172.491238 93.5588474,172.288946 93.4186295,171.899187 C93.2900964,171.541908 93.4493674,171.151126 93.7770186,170.980473 L93.870463,170.93958 L119.170963,161.83758 Z"/><path id="Fill-65" fill="#FFF" d="M99.95005,163.85085 C99.54955,162.62535 98.23105,161.95635 97.00405,162.35835 C95.77855,162.75885 95.10955,164.07735 95.51155,165.30435 C95.91355,166.52985 97.23205,167.19885 98.45755,166.79685 C99.68305,166.39635 100.35205,165.07635 99.95005,163.85085"/><path id="Fill-67" fill="#4E5C93" d="M291.8446,513.18795 L249.8926,545.01495 C249.8926,545.01495 194.5576,541.55295 183.6451,519.64995 C174.0151,500.32095 186.5656,457.75995 188.4046,451.66095 L273.4816,453.18045 C273.4816,453.18045 297.2461,491.40795 291.8446,513.18795"/><path id="Fill-69" fill="#ADC6FF" d="M274.8715,424.3737 L293.6935,326.3112 C295.8685,314.5002 292.672,304.7067 281.365,300.6627 C274.4515,298.1892 260.29,300.4587 250.273,297.1512 C243.835,295.0257 236.674,305.0127 229.5745,305.1777 C224.7715,305.2887 215.848,296.4477 211.8055,296.0727 C196.456,294.6447 185.4355,295.8117 178.921,297.5952 C170.4205,299.9247 167.143,314.6907 168.589,323.3847 L184.786,420.6837 C184.786,420.6837 178.549,441.6552 190.372,441.9432 C281.5705,444.1722 269.3905,443.0292 269.3905,443.0292 C269.3905,443.0292 282.0865,443.5602 274.8715,424.3737"/><polygon id="Fill-71" fill="#ADC6FF" points="211.028 290.028 204.179 295.537 214.976 318.894 230.762 303.859"/><polygon id="Fill-73" fill="#253368" points="218.712 315.659 230.763 303.981 242.222 316.445 236.613 328.058 223.362 327.581"/><path id="Fill-75" fill="#253368" d="M223.4335,327.48045 L236.5465,327.55695 L247.0405,403.77195 C247.132,404.43045 246.973,405.09795 246.5965,405.64545 L231.451,427.63395 C230.368,429.20595 228.031,429.16095 227.0095,427.54845 L212.245,404.25195 C211.9,403.70745 211.765,403.05795 211.8625,402.42045 L223.4335,327.48045 Z"/><path id="Stroke-77" fill="#597EF7" fill-rule="nonzero" d="M203.397745,295.702009 C203.736682,295.530864 204.143971,295.641291 204.353308,295.945685 L204.405291,296.033445 L215.143,317.3 L230.257132,303.428478 C230.534541,303.17384 230.951859,303.167473 231.235886,303.397684 L231.316822,303.473832 C231.57146,303.751241 231.577827,304.168559 231.347616,304.452586 L231.271468,304.533522 L215.428468,319.076022 C215.088301,319.388265 214.558565,319.318443 214.305167,318.951476 L214.251809,318.861555 L203.066309,296.709555 C202.879606,296.339805 203.027995,295.888711 203.397745,295.702009 Z"/><polygon id="Fill-79" fill="#ADC6FF" points="252.033 290.792 259.289 297.307 245.489 319.639 230.453 303.853"/><path id="Stroke-81" fill="#597EF7" fill-rule="nonzero" d="M258.583987,297.807958 L258.691304,297.813026 L269.081804,299.052026 C269.493103,299.101071 269.786769,299.474254 269.737724,299.885554 C269.692766,300.262578 269.375442,300.540758 269.006062,300.546726 L268.904196,300.541474 L258.984,299.358 L246.193158,319.672387 C245.955502,320.049805 245.450482,320.131923 245.107131,319.871948 L245.02491,319.7998 L229.91391,304.5013 C229.622828,304.206607 229.625756,303.731742 229.92045,303.44066 C230.188353,303.17604 230.605158,303.154404 230.897421,303.374064 L230.98109,303.4472 L245.427,318.072 L257.967842,298.158113 C258.102861,297.943691 258.33534,297.814048 258.583987,297.807958 Z"/><path id="Stroke-83" fill="#597EF7" fill-rule="nonzero" d="M222.934316,326.842762 L236.921816,327.184762 C237.128861,327.189824 237.2926,327.361771 237.287652,327.568816 C237.283108,327.74998 237.150908,327.897989 236.979223,327.928769 L236.903484,327.934538 L222.915984,327.592538 C222.708939,327.587476 222.5452,327.415529 222.550148,327.208484 C222.554692,327.02732 222.686892,326.879311 222.858577,326.848531 L222.934316,326.842762 Z"/><path id="Fill-85" fill="#4E5C93" d="M196.09945,670.4814 L196.09945,670.4814 C208.93945,671.4084 220.30495,661.4034 221.95495,647.7204 L238.76095,508.4469 C240.68545,490.5969 228.38095,474.7554 211.65745,473.5479 C194.93395,472.3419 180.48295,486.2529 179.82295,504.1944 L173.79895,643.7139 C173.19445,657.6894 183.06895,669.5409 196.09945,670.4814"/><path id="Fill-87" fill="#4E5C93" d="M279.989859,656.91679 L279.989859,656.91679 C292.865859,655.47979 302.378859,644.80579 301.526859,632.75179 L292.027359,498.36379 C290.924859,482.76229 276.154359,471.33979 259.490859,473.19829 C242.825859,475.05829 230.936859,489.45529 233.299359,504.91579 L253.654359,638.09329 C255.481359,650.03929 267.112359,658.35379 279.989859,656.91679"/><path id="Fill-89" fill="#4E5C93" d="M197.253471,805.153679 L174.223971,651.181679 C172.359471,638.713679 182.355471,627.211679 196.032471,626.088179 C209.236971,625.003679 220.677471,634.050179 221.461971,646.197179 L231.501471,801.781679 C231.501471,801.781679 218.484471,810.345179 197.253471,805.153679"/><path id="Fill-91" fill="#4E5C93" d="M392.203412,563.673 L294.044912,651.18 C283.531412,660 267.754412,658.11 259.622912,647.055 C251.771912,636.381 254.165912,621.348 264.943412,613.641 L373.724912,540 C373.724912,540 386.681912,545.346 392.203412,563.673"/><path id="Stroke-93" fill="#253368" fill-rule="nonzero" d="M210.34331,533.664895 C210.528383,533.302215 210.972425,533.158236 211.335105,533.34331 L212.140373,533.741264 L212.829952,534.072395 C213.310796,534.300866 213.833315,534.544319 214.394066,534.800026 C216.798674,535.896551 219.408379,536.993269 222.129804,538.016556 C226.060065,539.494379 229.886832,540.691079 233.480013,541.506091 C235.4768,541.959006 237.373421,542.286884 239.154359,542.47848 C239.49249,542.514856 239.761866,542.777801 239.806401,543.114955 L240.393804,547.526363 C245.180231,583.196995 251.970747,627.386811 254.373182,637.929487 C254.463648,638.326481 254.215157,638.721647 253.818162,638.812113 C253.421168,638.902579 253.026002,638.654088 252.935536,638.257093 L252.778902,637.551109 C250.291522,626.066604 243.904842,584.517291 239.234834,549.968073 L238.419,543.877 L238.301134,543.863742 C236.899791,543.689207 235.436782,543.437079 233.917912,543.112417 L233.15385,542.944064 C229.488701,542.112729 225.599692,540.896565 221.610849,539.396714 C218.855969,538.360848 216.215808,537.251331 213.782285,536.141621 L212.959293,535.762534 C212.694847,535.639463 212.440428,535.519797 212.196464,535.403876 L211.181632,534.914075 C210.944518,534.797679 210.770869,534.710768 210.664895,534.65669 C210.302215,534.471617 210.158236,534.027575 210.34331,533.664895 Z"/><polygon id="Fill-95" fill="#12183F" points="274.206 453.963 188.643 451.872 188.904 441.176 273.531 443.244"/><path id="Fill-97" fill="#FFF" d="M233.68735,454.85055 L213.78835,454.36455 C211.55335,454.31055 209.76985,452.43555 209.82385,450.20055 L210.00385,442.81005 C210.05785,440.57505 211.93135,438.79005 214.16785,438.84405 L234.06685,439.33155 C236.30185,439.38555 238.08685,441.25905 238.03135,443.49555 L237.85135,450.88605 C237.79585,453.12105 235.92235,454.90455 233.68735,454.85055"/><path id="Fill-99" fill="#12183F" d="M231.6073,452.29215 L215.6278,451.90215 C214.2838,451.86915 213.2113,450.74265 213.2443,449.39865 L213.3448,443.65815 C213.3778,442.31415 214.5373,441.51315 215.8813,441.54615 L231.8608,441.93615 C233.2033,441.96915 234.2758,443.09565 234.2443,444.43965 L234.1093,449.90865 C234.0763,451.25265 232.9513,452.32515 231.6073,452.29215"/></g></svg>