<?xml version="1.0" encoding="UTF-8"?>
<svg width="512px" height="1024px" viewBox="0 0 512 1024" version="1.1" xmlns="http://www.w3.org/2000/svg" xmlns:xlink="http://www.w3.org/1999/xlink">
    <!-- Generator: Sketch 61.2 (89653) - https://sketch.com -->
    <title>2.人物组件/5.用研/起身/打招呼</title>
    <desc>Created with Sketch.</desc>
    <defs>
        <polygon id="path-1" points="0 1.35151124 114.991939 1.35151124 114.991939 104.478783 0 104.478783"></polygon>
    </defs>
    <g id="2.人物组件/5.用研/起身/打招呼" stroke="none" stroke-width="1" fill="none" fill-rule="evenodd">
        <path d="M254.96145,673.0031 C250.49145,667.3541 242.40045,667.0016 237.51795,672.2546 C229.17045,681.2366 216.16995,694.8716 203.43495,706.8131 C192.02145,717.5171 182.35845,722.3291 181.03845,727.3886 C179.61495,732.8441 186.61245,736.2806 185.61795,744.4481 C184.62495,752.6171 183.70395,758.6681 195.35745,769.2566 C208.98645,781.6406 203.38695,765.5126 204.40995,753.8756 C206.21445,733.3226 210.12645,727.8821 217.39695,721.0361 C232.28445,707.0171 244.54695,697.3061 252.72645,691.2191 C258.36795,687.0206 259.39095,678.5996 254.96145,673.0031" id="Fill-1" fill="#FFC6A0"></path>
        <path d="M191.88375,716.6078 C191.88375,716.6078 190.76775,720.7823 190.43925,732.4058 C190.17975,741.5738 190.20375,747.3803 193.69725,749.4623 C200.07525,753.2663 204.37275,756.6908 204.37275,756.6908 C204.37275,756.6908 205.60875,764.0003 205.588015,770.2598 C205.56675,776.5178 200.52225,779.8208 192.95325,772.1363 C185.38275,764.4518 182.26125,759.0458 182.29125,745.9523 C182.32425,732.8603 177.26325,731.2568 179.76525,727.2143 C183.67575,720.8993 191.88375,716.6078 191.88375,716.6078" id="Fill-3" fill="#253368"></path>
        <path d="M323.9937,643.47845 L225.7527,719.71295 C221.6922,722.86445 215.9577,721.89845 212.9247,717.55295 L204.5352,705.53195 C201.6822,701.44295 202.2117,695.75495 205.7562,692.42645 L294.4257,609.16745 C294.4257,609.16745 312.1572,597.41645 324.7437,614.20145 C337.0317,630.58745 323.9937,643.47845 323.9937,643.47845" id="Fill-5" fill="#253368"></path>
        <path d="M219.84615,729.03185 L199.75065,699.41435 C199.33965,698.80835 199.42515,697.97285 199.94865,697.47335 L212.02665,685.99085 C212.63865,685.40885 213.59265,685.51835 214.07115,686.22485 L235.77915,718.21835 C236.24415,718.90385 236.06565,719.86085 235.39215,720.30935 L221.70315,729.41735 C221.08515,729.82835 220.27215,729.65885 219.84615,729.03185" id="Fill-7" fill="#4E5C93"></path>
        <path d="M218.7447,737.7089 C211.2027,737.1884 204.8502,743.2694 205.0572,750.8249 C205.4112,763.7444 205.7037,783.6149 204.9432,802.0739 C204.2622,818.6159 200.5422,829.6019 203.2887,834.2339 C206.2497,839.2274 214.0587,836.1974 219.3477,842.7854 C224.6397,849.3719 228.4182,854.3969 245.0202,852.8114 C264.4332,850.9574 248.2977,843.8654 240.4632,834.7889 C226.6317,818.7554 225.5547,811.8239 225.9672,801.2684 C226.8132,779.6474 228.8682,763.1459 230.5257,752.4164 C231.6717,745.0139 226.2162,738.2249 218.7447,737.7089" id="Fill-9" fill="#FFC6A0"></path>
        <path d="M203.48535,813.5783 C203.48535,813.5783 205.73085,817.4213 214.07535,825.9458 C220.65735,832.6703 224.96685,836.7818 229.13835,835.5308 C236.75235,833.2463 242.51685,832.3193 242.51685,832.3193 C242.51685,832.3193 248.85285,836.5508 253.46235,841.0193 C258.07335,845.4878 256.71585,851.7848 245.33685,852.2408 C233.95785,852.6983 227.60985,851.2943 217.95585,841.9568 C208.30185,832.6193 203.30535,835.4378 202.20285,830.6063 C200.47785,823.0538 203.48535,813.5783 203.48535,813.5783" id="Fill-11" fill="#253368"></path>
        <path d="M196.93755,655.7531 L163.24905,579.8696 C156.48255,564.0881 165.20505,545.9651 181.76055,541.4066 C196.08855,537.4601 211.03005,545.2601 215.98155,559.2731 L243.81255,638.0126 C243.81255,638.0126 252.97005,660.0086 229.50405,668.6486 C206.68305,677.0516 196.93755,655.7531 196.93755,655.7531" id="Fill-13" fill="#253368"></path>
        <path d="M195.7422,640.58675 L197.7087,788.27975 C197.7552,791.81075 200.3637,794.78375 203.8587,795.28775 L228.5262,798.84875 C232.6812,799.44875 236.4612,796.36925 236.7147,792.17825 L245.5062,646.63175 C245.5062,646.63175 247.9317,621.94775 221.4147,620.39675 C196.6797,618.94925 195.7422,640.58675 195.7422,640.58675" id="Fill-15" fill="#253368"></path>
        <path d="M196.3809,799.64765 L236.8224,805.48565 C237.6774,805.60865 238.4619,804.98465 238.5324,804.12365 L239.9649,786.62465 C240.0294,785.83565 239.4684,785.13215 238.6839,785.01815 L195.7074,778.81415 C194.7654,778.67915 193.9374,779.44265 193.9959,780.39215 L195.0984,798.25565 C195.1419,798.96515 195.6774,799.54715 196.3809,799.64765" id="Fill-17" fill="#4E5C93"></path>
        <path d="M209.2671,596.462 L175.4211,553.1045 C173.0676,550.091 172.4946,546.056 173.9166,542.5085 L190.1916,501.839 L288.7641,530.1575 L277.5516,573.6575 C276.8556,576.3635 275.1321,578.6795 272.7516,580.1405 C265.4526,584.624 247.9956,592.739 219.7731,598.9265 C215.9436,599.7665 211.5576,599.6435 209.2671,596.462" id="Fill-19" fill="#253368"></path>
        <path d="M188.65681,514.918238 C188.737041,514.643793 189.003833,514.474652 189.278689,514.508555 L189.370362,514.52751 L278.552862,540.59901 C278.857801,540.688155 279.032736,541.007623 278.94359,541.312562 C278.863359,541.587007 278.596567,541.756148 278.321711,541.722245 L278.230038,541.70329 L189.047538,515.63179 C188.742599,515.542645 188.567664,515.223177 188.65681,514.918238 Z" id="Stroke-21" fill="#253368" fill-rule="nonzero"></path>
        <path d="M243.28966,517.689037 C243.378806,517.384099 243.698274,517.209164 244.003213,517.29831 C244.277657,517.378541 244.446799,517.645334 244.412895,517.92019 L244.39394,518.011863 L240.83894,530.172363 C240.749794,530.477301 240.430326,530.652236 240.125387,530.56309 C239.850943,530.482859 239.681801,530.216066 239.715705,529.94121 L239.73466,529.849537 L243.28966,517.689037 Z" id="Stroke-23" fill="#253368" fill-rule="nonzero"></path>
        <path d="M325.0527,329.5733 C325.0527,329.5733 339.3642,301.8098 302.1627,290.1473 C280.9242,285.0248 269.2797,319.2038 269.2797,319.2038 C269.2797,319.2038 265.3077,325.8368 265.3707,334.1408 C265.4427,343.4438 272.2707,348.9818 282.2262,353.5748 C301.5822,359.7113 313.0287,351.9473 313.0287,351.9473 C313.0287,351.9473 325.8402,357.6218 330.6387,340.6688 C334.9842,324.9068 325.0527,329.5733 325.0527,329.5733" id="Fill-25" fill="#FFC6A0"></path>
        <path d="M329.17335,308.369 C326.34585,315.824 330.09735,324.161 337.55235,326.9885 C345.00885,329.816 353.34435,326.0645 356.17185,318.6095 C359.00085,311.1545 355.24935,302.8175 347.79285,299.99 C340.33785,297.1625 332.00235,300.9125 329.17335,308.369" id="Fill-27" fill="#253368"></path>
        <path d="M269.05905,320.31995 C269.05905,320.31995 267.53955,310.95095 268.35555,300.77645 C269.17155,290.60345 293.56755,278.88995 296.49255,278.30945 C299.41905,277.72745 301.16205,276.69695 315.17955,288.77795 C362.71755,309.02045 334.49055,348.90395 334.49055,348.90395 C334.49055,348.90395 338.56905,355.10195 331.16805,364.80845 C323.17605,374.28845 307.91955,368.93795 307.91955,368.93795 L313.88505,351.62645 C313.88505,351.62645 318.84555,353.94845 324.93255,349.49345 C331.01805,345.03845 330.42255,336.59345 328.28055,335.10395 C326.77605,332.72645 321.21105,331.51895 318.81405,337.83695 C317.60655,341.01845 314.25705,331.59245 316.48005,318.58295 C300.86205,308.93945 301.09005,295.60895 301.09005,295.60895 C301.09005,295.60895 296.23755,306.61895 297.10455,312.35795 C289.24455,306.33245 286.30905,299.80895 289.69305,295.34345 C277.96005,295.96595 269.05905,320.31995 269.05905,320.31995" id="Fill-29" fill="#253368"></path>
        <path d="M307.12155,371.0438 L316.37205,345.3683 L282.81555,333.5183 C282.81555,333.5183 276.33555,350.9858 272.99505,357.8033 C246.82305,361.4993 290.67405,393.6128 307.08855,384.4808 C312.15555,381.6608 307.12155,371.0438 307.12155,371.0438" id="Fill-31" fill="#FFC6A0"></path>
        <path d="M290.1924,322.06385 C288.3624,328.76735 291.5859,335.48435 297.3894,337.06985 C303.1944,338.65385 309.3819,334.50485 311.2119,327.80135 C313.0419,321.09935 309.8199,314.38085 304.0149,312.79685 C298.2114,311.21285 292.0224,315.36185 290.1924,322.06385" id="Fill-33" fill="#FFFFFF"></path>
        <path d="M289.468876,321.866334 C287.535849,328.947234 290.963026,336.091668 297.191746,337.793336 C303.421513,339.493242 310.002153,335.080662 311.935424,327.998866 C313.868794,320.918296 310.441751,313.773113 304.212333,312.073303 C298.077183,310.398783 291.598545,314.655773 289.558541,321.551065 L289.468876,321.866334 Z M303.81742,313.520384 C309.197597,314.988463 312.215149,321.279881 310.488387,327.603793 C308.761636,333.929081 302.967249,337.814448 297.586833,336.346303 C292.207206,334.876604 289.189445,328.585656 290.915913,322.261407 C292.642591,315.937804 298.438367,312.052232 303.81742,313.520384 Z" id="Stroke-35" fill="#253368" fill-rule="nonzero"></path>
        <path d="M267.8784,312.60605 C266.0484,319.30955 268.9719,325.94555 274.4064,327.42905 C279.8409,328.91255 285.7284,324.68105 287.5584,317.97905 C289.3884,311.27555 286.4664,304.63955 281.0319,303.15605 C275.5974,301.67255 269.7084,305.90405 267.8784,312.60605" id="Fill-37" fill="#FFFFFF"></path>
        <path d="M267.154876,312.408534 C265.223974,319.481649 268.337056,326.549693 274.208893,328.152577 C280.079957,329.755249 286.350731,325.249164 288.281913,318.176607 C290.212928,311.103078 287.100965,304.03533 281.229407,302.432523 C275.448492,300.85446 269.278898,305.198962 267.247081,312.083913 L267.154876,312.408534 Z M280.834393,303.879577 C285.831992,305.243812 288.563819,311.448215 286.834876,317.781534 C285.105786,324.113969 279.601006,328.069622 274.603907,326.705523 C269.605937,325.341186 266.873098,319.136456 268.601913,312.803607 C270.330939,306.471404 275.837058,302.515413 280.834393,303.879577 Z" id="Stroke-39" fill="#253368" fill-rule="nonzero"></path>
        <path d="M287.085967,322.686494 C287.361754,322.550834 287.695297,322.66443 287.830956,322.940217 C287.951542,323.185361 287.875186,323.47614 287.663035,323.633008 L287.577233,323.685206 L282.909,325.981 L285.315018,330.510197 C285.443223,330.751444 285.376011,331.044471 285.168878,331.207908 L285.084753,331.262768 C284.843506,331.390973 284.550479,331.323761 284.387042,331.116628 L284.332182,331.032503 L281.656182,325.997003 C281.52349,325.747312 281.600378,325.443378 281.822599,325.283995 L281.901967,325.236494 L287.085967,322.686494 Z" id="Stroke-41" fill="#DD936F" fill-rule="nonzero"></path>
        <path d="M281.970749,333.420027 C282.198165,333.073826 282.663173,332.977532 283.009373,333.204949 C283.778013,333.709861 285.021912,334.159798 286.593308,334.536056 C287.641821,334.787114 288.770226,334.990678 289.899331,335.149925 L290.470291,335.226516 L291.346712,335.327086 C291.366333,335.329009 291.383351,335.330626 291.397689,335.331943 C291.810167,335.369823 292.113838,335.734911 292.075957,336.147389 C292.038077,336.559867 291.672989,336.863538 291.260511,336.825657 L290.822952,336.779647 L290.281758,336.714622 C290.092512,336.690575 289.894813,336.664133 289.689846,336.635225 C288.517184,336.469835 287.343821,336.25816 286.244018,335.994822 C284.517848,335.581504 283.132128,335.080269 282.185827,334.458651 C281.839626,334.231235 281.743332,333.766227 281.970749,333.420027 Z" id="Stroke-43" fill="#F5222D" fill-rule="nonzero"></path>
        <path d="M287.63973,316.938632 C288.886817,316.578896 290.020328,316.906068 290.971495,317.64753 C291.369058,317.957443 291.650773,318.269143 291.8134,318.496821 C292.054157,318.833881 291.976088,319.302293 291.639029,319.54305 C291.301969,319.783807 290.833557,319.705738 290.5928,319.368679 C290.507674,319.249503 290.319159,319.040922 290.049293,318.830553 C289.44586,318.360159 288.785026,318.169419 288.05547,318.379868 C287.657484,318.494671 287.241786,318.265107 287.126982,317.86712 C287.012179,317.469134 287.241743,317.053436 287.63973,316.938632 Z" id="Stroke-45" fill="#253368" fill-rule="nonzero"></path>
        <path d="M277.121098,350.915378 C277.238029,350.631144 277.563237,350.495518 277.847472,350.612448 L278.373252,350.822997 C278.800874,350.991698 279.289746,351.179813 279.831576,351.382482 C281.380325,351.961786 283.04174,352.541161 284.749233,353.081711 C286.594205,353.665784 288.383178,354.169055 290.073972,354.56724 C291.583124,354.922648 292.987064,355.187736 294.264822,355.351093 C294.569687,355.390069 294.785233,355.668807 294.746257,355.973672 C294.707281,356.278537 294.428543,356.494083 294.123678,356.455107 C292.804525,356.286458 291.36337,356.014343 289.818838,355.650603 C288.098699,355.245507 286.283359,354.734819 284.413315,354.142809 C282.974197,353.687219 281.568297,353.20466 280.23361,352.717565 L278.809856,352.186183 L277.424028,351.641752 C277.139794,351.524821 277.004168,351.199613 277.121098,350.915378 Z" id="Stroke-47" fill="#DD936F" fill-rule="nonzero"></path>
        <path d="M296.59515,322.58165 C295.98765,324.18065 296.20215,325.74515 297.07515,326.07665 C297.94815,326.40815 299.14665,325.37915 299.75265,323.78015 C300.36015,322.18115 300.14415,320.61515 299.27265,320.28515 C298.39965,319.95515 297.20115,320.98265 296.59515,322.58165" id="Fill-49" fill="#253368"></path>
        <path d="M275.95995,315.056 C275.35395,316.655 275.56845,318.2195 276.44145,318.551 C277.31295,318.8825 278.51295,317.8535 279.11895,316.2545 C279.72645,314.6555 279.51045,313.0895 278.63895,312.7595 C277.76595,312.4295 276.56745,313.457 275.95995,315.056" id="Fill-51" fill="#253368"></path>
        <path d="M310.516092,327.520621 C310.658366,327.168588 311.037544,326.98338 311.395558,327.074506 L311.492479,327.106292 L320.600479,330.787292 C320.984515,330.9425 321.170016,331.379643 321.014808,331.763679 C320.872534,332.115712 320.493356,332.30092 320.135342,332.209794 L320.038421,332.178008 L310.930421,328.497008 C310.546385,328.3418 310.360884,327.904657 310.516092,327.520621 Z" id="Stroke-53" fill="#253368" fill-rule="nonzero"></path>
        <path d="M359.3799,501.8858 L359.3799,501.8858 C369.8859,497.0978 374.5209,484.6988 369.7314,474.1928 L342.3024,414.0158 C337.5144,403.5113 325.1139,398.8763 314.6079,403.6643 C304.1019,408.4538 299.4684,420.8528 304.2564,431.3588 L331.6854,491.5343 C336.4749,502.0403 348.8739,506.6753 359.3799,501.8858" id="Fill-55" fill="#E4EBF7"></path>
        <path d="M428.7417,401.681 C428.7417,401.681 418.9137,416.159 408.8622,413.831 C399.7602,411.722 400.7682,402.389 400.7682,402.389 C400.7682,402.389 400.3002,392.951 403.8402,383.06 C406.1742,376.544 411.8667,364.604 415.4562,365.3675 C420.1332,366.362 412.9032,379.5005 415.9302,381.2195 C419.0352,382.985 420.7287,380.381 426.5307,375.728 C430.1577,372.8195 432.5877,368.525 436.1322,366.647 C443.0607,362.972 445.2927,381.1925 428.7417,401.681" id="Fill-57" fill="#FFC6A0"></path>
        <path d="M436.998832,368.382851 C437.128536,368.104214 437.459561,367.983479 437.738199,368.113182 C438.016836,368.242886 438.137571,368.573911 438.007868,368.852549 C436.675873,371.714028 435.073751,374.248371 433.259028,376.473694 C431.30513,378.869682 429.210037,380.787068 427.112385,382.271769 C426.498483,382.706284 425.920161,383.077647 425.387371,383.389202 L425.07324,383.568984 C424.698413,383.778759 424.426486,383.914832 424.274609,383.982958 C423.994182,384.108746 423.66488,383.983386 423.539092,383.702959 C423.413304,383.422532 423.538664,383.09323 423.819091,382.967442 L424.041426,382.85974 C424.136688,382.811348 424.252651,382.75032 424.387964,382.676218 L424.529677,382.597743 C425.113176,382.271183 425.765445,381.861541 426.469379,381.363302 C428.487775,379.934698 430.50873,378.085162 432.396476,375.770293 C434.15375,373.615418 435.706412,371.159314 436.998832,368.382851 Z" id="Stroke-59" fill="#DD936F" fill-rule="nonzero"></path>
        <path d="M436.736611,374.223582 C436.857764,373.941122 437.184958,373.810357 437.467418,373.931511 C437.749878,374.052664 437.880643,374.379858 437.759489,374.662318 L437.643266,374.920496 C437.593213,375.028149 437.531821,375.156937 437.45901,375.305487 L437.38239,375.460574 C437.071933,376.084228 436.697199,376.77793 436.257137,377.524244 C435.001095,379.654402 433.471524,381.78405 431.659055,383.773376 C430.171026,385.406604 428.552417,386.874756 426.800254,388.136541 C426.550848,388.316146 426.203064,388.259561 426.023459,388.010154 C425.843854,387.760748 425.900439,387.412964 426.149846,387.233359 C427.836564,386.018702 429.398271,384.602164 430.836324,383.023788 C432.593614,381.095025 434.079127,379.02672 435.298396,376.958926 C435.724693,376.235957 436.086964,375.565324 436.386019,374.964576 L436.631179,374.457409 C436.677499,374.357917 436.71262,374.279515 436.736611,374.223582 Z" id="Stroke-61" fill="#DD936F" fill-rule="nonzero"></path>
        <path d="M435.992457,382.800148 C436.156597,382.540302 436.500306,382.462717 436.760152,382.626857 C437.019998,382.790997 437.097583,383.134706 436.933443,383.394552 C434.582287,387.116606 432.205541,390.008118 429.921564,392.16863 C429.117461,392.929265 428.380878,393.544708 427.726645,394.027466 L427.448576,394.228338 C427.234727,394.379252 427.066051,394.489373 426.946165,394.561769 L426.880118,394.600703 L426.719683,394.662076 L426.083335,394.808542 L425.92714,394.846252 C425.291033,395.000834 424.581654,395.186073 423.817454,395.401778 C421.634869,396.017842 419.452788,396.75367 417.419848,397.606774 L416.699339,397.916885 C411.392893,400.2602 408.291702,402.994835 408.36329,405.981515 C408.370655,406.288773 408.127543,406.543825 407.820285,406.551353 C407.513027,406.558555 407.257975,406.315443 407.25061,406.008185 C407.160627,402.254112 410.846048,399.158379 416.989172,396.580476 C419.068269,395.708003 421.291941,394.95815 423.515109,394.330631 C423.981797,394.198902 424.428569,394.078292 424.851479,393.968819 L425.824959,393.725947 L426.397,393.593 L426.704448,393.390547 C426.773804,393.342645 426.850571,393.288456 426.93452,393.227785 L427.065802,393.131891 C427.683815,392.675859 428.38565,392.08945 429.156711,391.36007 C431.373203,389.263395 433.6908,386.443844 435.992457,382.800148 Z" id="Stroke-63" fill="#DD936F" fill-rule="nonzero"></path>
        <path d="M397.45845,395.63855 L425.19795,418.29005 L365.82945,495.73655 C358.52745,504.67955 345.35745,506.01005 336.41445,498.70655 C327.47145,491.40455 326.14095,478.23455 333.44295,469.29155 L397.45845,395.63855 Z" id="Fill-65" fill="#E4EBF7"></path>
        <path d="M397.211861,394.755598 C397.450022,394.463922 397.862144,394.397967 398.176161,394.585213 L398.267152,394.649011 L426.006652,417.299011 C426.327496,417.560988 426.375217,418.033458 426.113239,418.354302 C425.875078,418.645978 425.462956,418.711933 425.148939,418.524687 L425.057948,418.460889 L397.318448,395.810889 C396.997604,395.548912 396.949883,395.076442 397.211861,394.755598 Z" id="Stroke-67" fill="#96A7CA" fill-rule="nonzero"></path>
        <path d="M389.480277,408.581078 C389.718449,408.28941 390.130573,408.22347 390.444584,408.410727 L390.535572,408.474527 L414.088572,427.707527 C414.409407,427.969516 414.457111,428.441987 414.195123,428.762822 C413.956951,429.05449 413.544827,429.12043 413.230816,428.933173 L413.139828,428.869373 L389.586828,409.636373 C389.265993,409.374384 389.218289,408.901913 389.480277,408.581078 Z" id="Stroke-69" fill="#96A7CA" fill-rule="nonzero"></path>
        <path d="M310.6284,379.44695 L309.0504,378.82595 C306.7179,388.81595 270.1584,376.97945 268.6599,363.84245 C268.6224,363.50795 268.6074,363.20195 268.6059,362.91395 L264.2529,361.20095 L201.2754,527.04095 C201.2754,527.04095 232.8249,547.31345 267.1059,547.08095 C329.0169,418.94645 310.6284,379.44695 310.6284,379.44695" id="Fill-71" fill="#597EF7"></path>
        <path d="M267.753036,378.006619 C267.974492,377.778821 268.338684,377.77368 268.566481,377.995136 L268.814868,378.22737 C268.899586,378.304731 269.001134,378.396153 269.119205,378.500698 C269.581983,378.910462 270.126983,379.36792 270.750293,379.861163 C272.534403,381.272982 274.585276,382.68568 276.871348,384.004203 C284.368726,388.328417 292.542622,390.639754 301.04397,389.882618 C301.360419,389.854435 301.639799,390.088121 301.667982,390.40457 C301.696165,390.721019 301.462479,391.000399 301.14603,391.028582 C292.382014,391.809112 283.983095,389.434145 276.296537,385.000818 C273.959357,383.652818 271.862617,382.208526 270.036361,380.763356 C269.396044,380.256653 268.834832,379.785589 268.356513,379.362064 L268.034937,379.073158 C267.914458,378.963073 267.824082,378.877969 267.764519,378.820064 C267.536721,378.598608 267.53158,378.234416 267.753036,378.006619 Z" id="Stroke-73" fill="#3C65D6" fill-rule="nonzero"></path>
        <path d="M305.7783,372.78335 C305.7783,372.78335 307.2273,397.26185 278.9463,480.72635 C256.4238,547.20485 261.4743,559.04735 261.4743,559.04735 C261.4743,559.04735 292.4463,592.27235 303.1458,604.09685 C312.2703,614.18285 291.6198,567.47735 306.0198,524.96435 C332.2473,447.53735 337.7103,427.01735 337.4958,407.56835 C331.7538,400.90535 325.6803,394.77335 316.6773,384.83135 C314.4888,382.41635 311.1783,376.81685 309.7938,375.27035 C306.0273,371.06435 305.7783,372.78335 305.7783,372.78335" id="Fill-75" fill="#E4EBF7"></path>
        <path d="M333.540485,426.980437 C333.946173,427.064045 334.20727,427.460697 334.123663,427.866385 L333.788053,429.445857 L333.487168,430.826338 C333.325782,431.560339 333.151713,432.342395 332.965031,433.170745 L332.523743,435.11191 C331.202622,440.875555 329.636838,447.309031 327.832808,454.251867 C322.678216,474.089383 316.647832,494.037025 309.792102,512.812247 C309.650029,513.201333 309.219439,513.401576 308.830353,513.259502 C308.441267,513.117429 308.241024,512.686839 308.383098,512.297753 C315.220681,493.572225 321.23764,473.668992 326.381017,453.874633 L327.006515,451.450732 C328.442914,445.845482 329.717466,440.598126 330.826536,435.798405 L331.06166,434.776777 C331.369113,433.435453 331.648333,432.195277 331.899079,431.062197 L332.502113,428.288173 L332.654537,427.563615 C332.731177,427.191735 333.070862,426.94135 333.439427,426.966601 L333.540485,426.980437 Z" id="Stroke-77" fill="#96A7CA" fill-rule="nonzero"></path>
        <path d="M222.4302,361.3664 C235.5987,360.1934 248.6532,362.5964 257.2182,361.2419 C262.7052,360.3734 267.6312,358.2884 271.6347,358.4414 C256.7712,470.1869 197.1507,604.9469 170.8122,662.6609 C142.5402,656.0774 133.0842,608.0384 133.0842,608.0384 C133.0842,608.0384 164.2212,522.8444 186.9687,469.9544 C205.8897,425.9624 219.0642,361.6664 222.4302,361.3664" id="Fill-79" fill="#E4EBF7"></path>
        <path d="M271.280869,357.245463 C271.682649,357.144737 272.090011,357.388789 272.190737,357.790569 C272.283069,358.158867 272.085692,358.531856 271.742682,358.669048 L271.645631,358.700437 L258.078,362.101 L257.955812,362.39563 L257.732226,362.951413 C257.339105,363.94437 256.90039,365.128199 256.427416,366.499689 C255.073457,370.425792 253.71849,375.06407 252.453192,380.388861 C250.244174,389.685144 248.551762,400.048222 247.577552,411.421246 L247.356714,414.136628 C247.190152,416.236842 247.02658,418.359386 246.852847,420.66794 L245.747354,435.674485 C244.89658,447.091128 244.240747,454.369706 243.328327,461.776604 C241.982723,472.700033 240.149188,482.824823 237.426077,493.904948 C237.327219,494.307191 236.920996,494.553134 236.518752,494.454277 C236.116509,494.355419 235.870566,493.949196 235.969423,493.546952 C238.542639,483.07674 240.316551,473.468146 241.635119,463.21732 L241.839581,461.593212 C242.621579,455.245059 243.214907,448.985376 243.90623,440.102767 L245.471668,419.04038 C245.585003,417.549878 245.695126,416.125839 245.805935,414.719737 L245.973152,412.617971 C246.933388,400.649186 248.682429,389.769218 250.993828,380.042082 C252.270729,374.668457 253.639546,369.982771 255.009371,366.010661 C255.429679,364.791887 255.824079,363.717061 256.184963,362.788327 L256.537205,361.901839 L256.849122,361.159827 C256.927268,360.984357 257.069035,360.846954 257.243508,360.773589 L257.351869,360.737463 L271.280869,357.245463 Z" id="Stroke-81" fill="#96A7CA" fill-rule="nonzero"></path>
        <path d="M306.22083,371.041449 C306.515273,370.806718 306.932023,370.829384 307.199356,371.078787 L307.274801,371.16038 L318.047801,384.67388 C318.178673,384.838044 318.234745,385.049546 318.20239,385.256984 L318.128354,385.691002 L318.044089,386.151296 L317.88491,386.971829 C317.626824,388.264593 317.289288,389.804298 316.8624,391.59507 L316.731642,392.139838 C315.383938,397.717256 313.481163,404.49079 310.9284,412.500018 L310.652398,413.36288 C302.966657,437.305989 291.211907,467.084671 274.54433,503.050751 C274.370166,503.42657 273.924317,503.590044 273.548499,503.41588 C273.17268,503.241716 273.009206,502.795867 273.18337,502.420049 L274.92719,498.640754 C290.648818,464.417669 301.828462,435.944023 309.224177,412.90442 C311.720342,405.128207 313.609922,398.503054 314.978111,392.993516 L315.273604,391.787524 C315.714217,389.964067 316.064779,388.392274 316.335203,387.06802 L316.522111,386.126031 L316.665,385.346 L306.101899,372.09542 C305.867168,371.800977 305.889834,371.384227 306.139237,371.116894 L306.22083,371.041449 Z" id="Stroke-83" fill="#96A7CA" fill-rule="nonzero"></path>
        <path d="M172.365659,505.151416 C172.551575,504.820351 172.95124,504.684901 173.294746,504.820847 L173.386834,504.864709 L196.189834,517.670209 C196.483852,517.835321 196.62761,518.172921 196.553422,518.492964 L196.520528,518.598734 L176.837522,568.62825 C175.008976,573.275668 169.570208,575.296082 165.166532,573.023027 L164.931637,572.89714 L148.985137,564.03064 C148.62312,563.829353 148.492823,563.372705 148.69411,563.010687 C148.878623,562.678838 149.277711,562.541698 149.621789,562.676188 L149.714063,562.71966 L165.660538,571.586147 C169.240572,573.576529 173.735976,572.027408 175.350077,568.30078 L175.441672,568.079066 L194.885,518.658 L172.652366,506.172591 C172.321301,505.986675 172.185851,505.58701 172.321797,505.243504 L172.365659,505.151416 Z" id="Stroke-85" fill="#96A7CA" fill-rule="nonzero"></path>
        <path d="M147.55755,421.5677 L147.55755,421.5677 C142.24155,411.3182 146.24205,398.7002 156.49155,393.3842 L215.19705,362.9357 C225.44655,357.6197 238.06455,361.6187 243.38055,371.8682 C248.69655,382.1177 244.69755,394.7357 234.44805,400.0532 L175.74255,430.5017 C165.49305,435.8177 152.87355,431.8172 147.55755,421.5677" id="Fill-87" fill="#E4EBF7"></path>
        <path d="M321.45795,611.5265 L263.83545,554.081 C253.29495,543.5795 239.23395,546.473 228.51495,557.192 C228.51495,557.192 210.20595,580.0415 233.08845,601.4195 L291.39495,650.6675 C291.39495,650.6675 303.92595,661.9235 320.77095,643.8245 C336.12045,627.332 321.45795,611.5265 321.45795,611.5265" id="Fill-89" fill="#253368"></path>
        <path d="M180.5151,504.53435 L184.1106,505.97885 C186.7056,507.01985 187.9626,509.96735 186.9216,512.55935 L162.5526,573.23285 C161.5116,575.82635 158.5656,577.08335 155.9721,576.04235 L152.3751,574.59785 C149.7831,573.55685 148.5246,570.60935 149.5656,568.01735 L173.9331,507.34385 C174.9756,504.75035 177.9216,503.49335 180.5151,504.53435" id="Fill-91" fill="#96A7CA"></path>
        <g id="分组" transform="translate(69.000000, 470.606000)">
            <mask id="mask-2" fill="white">
                <use xlink:href="#path-1"></use>
            </mask>
            <g id="Clip-94"></g>
            <path d="M31.3149,1.71705 L111.8169,34.04955 C114.4089,35.09205 115.6674,38.03655 114.6264,40.63005 L90.2589,101.30355 C89.2179,103.89705 86.2704,105.15405 83.6769,104.11305 L3.1749,71.78055 C0.5829,70.73955 -0.6756,67.79205 0.3654,65.20005 L24.7344,4.52655 C25.7754,1.93455 28.7214,0.67605 31.3149,1.71705" id="Fill-93" fill="#253368" mask="url(#mask-2)"></path>
        </g>
        <polygon id="Stroke-95" fill="#96A7CA" fill-rule="nonzero" points="80.3799877 515.639775 168.510988 551.035275 168.091712 552.079225 79.9607123 516.683725"></polygon>
        <path d="M107.37105,515.2094 C107.37105,515.2094 112.72605,498.5504 123.02805,497.9564 C132.35655,497.4179 134.01555,506.6579 134.01555,506.6579 C134.01555,506.6579 137.11905,515.5844 136.50555,526.0694 C136.09905,532.9799 133.99755,546.0389 130.34055,546.3164 C125.57055,546.6794 128.81055,532.0364 125.42355,531.2384 C121.94655,530.4179 121.05405,533.3939 116.79555,539.4914 C114.13455,543.3029 113.01105,548.1074 110.13855,550.9079 C104.52405,556.3829 97.25505,539.5274 107.37105,515.2094" id="Fill-97" fill="#FFC6A0"></path>
        <path d="M115.523321,529.930544 C115.757024,529.730932 116.108295,529.758568 116.307906,529.992271 C116.507518,530.225974 116.479882,530.577245 116.246179,530.776856 L116.141992,530.869897 C116.097587,530.910694 116.043698,530.96128 115.980895,531.02167 L115.88008,531.11961 C115.576712,531.417156 115.237263,531.776555 114.870663,532.198043 C113.818151,533.408141 112.763748,534.869756 111.778565,536.58488 C109.822484,539.99026 108.390401,543.952364 107.704982,548.480488 C107.658983,548.784373 107.375347,548.993431 107.071462,548.947432 C106.767577,548.901433 106.558519,548.617797 106.604518,548.313912 C107.311263,543.644903 108.790529,539.552255 110.813452,536.03051 C111.835844,534.250609 112.932413,532.730543 114.030874,531.467616 C114.339866,531.112361 114.631819,530.797629 114.902129,530.523241 L115.100731,530.325013 C115.298223,530.131311 115.442078,529.999935 115.523321,529.930544 Z" id="Stroke-99" fill="#DD936F" fill-rule="nonzero"></path>
        <path d="M110.816449,525.651983 C111.00523,525.409447 111.354881,525.365869 111.597417,525.554649 C111.839953,525.74343 111.883531,526.093081 111.694751,526.335617 C110.95191,527.289984 110.26745,528.300273 109.639097,529.359636 C108.024085,532.08244 106.843647,535.003969 106.031414,537.925827 C105.794573,538.777818 105.603907,539.578609 105.454475,540.313818 L105.369724,540.746958 C105.274499,541.253639 105.219999,541.612371 105.197609,541.798325 C105.160868,542.103468 104.883717,542.32105 104.578575,542.284309 C104.273432,542.247568 104.05585,541.970417 104.092591,541.665275 L104.134983,541.363948 L104.234423,540.766912 C104.247531,540.693896 104.261343,540.618703 104.275875,540.541381 C104.441307,539.661139 104.666081,538.681729 104.959076,537.627733 C105.795998,534.61706 107.012587,531.606059 108.681824,528.791836 C109.333513,527.693131 110.044179,526.64416 110.816449,525.651983 Z" id="Stroke-101" fill="#DD936F" fill-rule="nonzero"></path>
        <path d="M108.920929,519.47177 C109.133851,519.250126 109.486136,519.243056 109.70778,519.455979 C109.929424,519.668901 109.936494,520.021186 109.723571,520.24283 L109.584653,520.39848 C109.543566,520.446533 109.495835,520.503639 109.441797,520.569949 L109.356052,520.676336 C109.047991,521.062566 108.702829,521.540508 108.329633,522.114283 C107.255514,523.765697 106.178293,525.849753 105.170615,528.39964 C104.56725,529.92643 104.007104,531.578076 103.498876,533.358549 C103.414515,533.654091 103.106543,533.825287 102.811001,533.740926 C102.515459,533.656565 102.344263,533.348593 102.428624,533.053051 C102.946841,531.237584 103.518709,529.551375 104.135511,527.990582 C105.170603,525.371325 106.282063,523.221028 107.396626,521.507433 C107.789467,520.903455 108.155627,520.396437 108.485932,519.982319 L108.669768,519.756859 C108.779832,519.62518 108.864459,519.530553 108.920929,519.47177 Z" id="Stroke-103" fill="#DD936F" fill-rule="nonzero"></path>
        <path d="M145.58745,513.68225 L111.79995,501.81125 L141.30045,408.79325 C145.12545,397.90025 157.05945,392.17175 167.95245,395.99825 C178.84695,399.82625 184.57395,411.75875 180.74745,422.65175 L145.58745,513.68225 Z" id="Fill-105" fill="#E4EBF7"></path>
        <path d="M110.917456,502.061381 C111.043323,501.703154 111.413544,501.500633 111.775383,501.57513 L111.873669,501.602406 L145.659669,513.473406 C146.050462,513.610715 146.255952,514.038826 146.118644,514.429619 C145.992777,514.787846 145.622556,514.990367 145.260717,514.91587 L145.162431,514.888594 L111.376431,503.017594 C110.985638,502.880285 110.780148,502.452174 110.917456,502.061381 Z" id="Stroke-107" fill="#96A7CA" fill-rule="nonzero"></path>
        <path d="M118.585906,488.221484 C118.71177,487.863256 119.08199,487.660734 119.44383,487.735229 L119.542116,487.762506 L148.231116,497.842506 C148.62191,497.979812 148.827401,498.407923 148.690094,498.798716 C148.56423,499.156944 148.19401,499.359466 147.83217,499.284971 L147.733884,499.257694 L119.044884,489.177694 C118.65409,489.040388 118.448599,488.612277 118.585906,488.221484 Z" id="Stroke-109" fill="#96A7CA" fill-rule="nonzero"></path>
    </g>
</svg>