<svg xmlns="http://www.w3.org/2000/svg" xmlns:xlink="http://www.w3.org/1999/xlink" width="512" height="1024" version="1.1" viewBox="0 0 512 1024"><title>2.人物组件/9.互联网人群/站立/叉腰</title><desc>Created with Sketch.</desc><defs><polygon id="path-1" points=".883 1.226 94.074 1.226 94.074 104.706 .883 104.706"/><polygon id="path-3" points=".672 1.341 73.498 1.341 73.498 59.242 .672 59.242"/><polygon id="path-5" points="1.457 .901 91.05 .901 91.05 28.5 1.457 28.5"/><polygon id="path-7" points=".173 .901 89.766 .901 89.766 28.5 .173 28.5"/></defs><g id="2.人物组件/9.互联网人群/站立/叉腰" fill="none" fill-rule="evenodd" stroke="none" stroke-width="1"><g id="分组" transform="translate(293.000000, 272.159000)"><mask id="mask-2" fill="#fff"><use xlink:href="#path-1"/></mask><path id="Fill-1" fill="#FFC999" d="M89.41965,76.5885 C89.41965,76.5885 71.69715,49.488 52.06815,26.982 C34.16865,6.4605 20.65965,-5.505 7.18815,5.265 C-9.73035,18.786 11.41515,42.963 23.67765,57.8865 C32.50215,68.625 52.99815,89.3175 64.53315,99.3105 C82.93365,115.2495 103.47465,92.3115 89.41965,76.5885" mask="url(#mask-2)"/></g><path id="Fill-3" fill="#E4EBF7" d="M325.6058,341.7287 C313.3433,326.8052 275.3468,297.9227 296.8568,275.0807 C316.1798,254.5622 332.6093,281.3747 355.1888,309.7742 L325.6058,341.7287 Z"/><path id="Fill-5" fill="#FFC999" d="M128.1551,348.7475 C128.1551,348.7475 145.8776,321.647 165.5066,299.141 C183.4061,278.6195 196.9136,266.654 210.3866,277.424 C227.3051,290.945 206.1596,315.122 193.8971,330.0455 C185.0726,340.784 164.5766,361.4765 153.0416,371.4695 C134.6411,387.4085 114.1001,364.4705 128.1551,348.7475"/><path id="Fill-7" fill="#E4EBF7" d="M184.96895,341.7287 C197.23145,326.8052 237.73145,294.5117 216.22145,271.6682 C196.89845,251.1512 177.96545,281.3747 155.38595,309.7742 L184.96895,341.7287 Z"/><path id="Fill-9" fill="#FFC999" d="M275.5784,225.3161 L275.6294,207.9956 C275.6294,207.9956 288.9314,199.5176 290.6339,208.3091 C292.3664,217.2701 286.5059,224.8136 280.6589,225.8411 C276.8189,226.5161 275.5784,225.3161 275.5784,225.3161"/><path id="Fill-11" fill="#FFC999" d="M233.49635,225.3161 L233.44385,207.9956 C233.44385,207.9956 220.14185,199.5176 218.44085,208.3091 C216.70685,217.2701 222.59135,225.9401 228.41585,225.8411 C232.31435,225.7751 233.49635,225.3161 233.49635,225.3161"/><path id="Fill-13" fill="#FFC999" d="M281.15645,213.0371 C278.91545,232.0316 273.13145,246.1211 254.12645,246.1211 C234.27695,246.1211 229.62995,227.3966 227.51945,211.4891 C223.57145,181.7456 241.12145,174.6041 255.81545,174.6041 C270.51095,174.6041 284.11295,187.9781 281.15645,213.0371"/><path id="Fill-15" fill="#FFC999" d="M226.63655,259.08215 C226.63655,259.08215 233.66555,277.65515 255.81605,277.65515 C281.53055,277.65515 282.78155,258.39065 282.78155,258.39065 L276.79955,256.47365 C275.41355,256.02815 274.43405,254.79665 274.32605,253.34465 C273.95855,248.44415 273.13655,236.39315 272.62805,220.56515 C250.54355,213.30965 238.32605,219.93815 238.32605,219.93815 C238.32605,219.93815 237.09155,239.15615 235.94855,253.04765 C235.83605,254.41115 234.96005,255.59165 233.68355,256.08815 C231.49505,256.93865 228.15905,258.27515 226.63655,259.08215"/><g id="分组" transform="translate(216.500000, 158.159000)"><mask id="mask-4" fill="#fff"><use xlink:href="#path-3"/></mask><path id="Fill-17" fill="#253368" d="M59.928,41.3649 C54.594,37.7274 53.253,31.2264 53.253,31.2264 C53.685,31.4259 39.7335,38.4624 32.559,40.0959 C26.4375,41.4894 22.446,39.8289 29.6025,32.0724 C21.7005,36.4779 16.7265,39.8964 14.1555,41.7984 C12.798,42.8019 11.988,44.3709 11.958,46.0614 L11.7225,58.9599 L6.654,46.8534 C6.654,46.8534 2.9955,48.2619 1.305,44.6019 C-0.8325,39.9669 5.106,30.5934 5.106,30.5934 C5.106,30.5934 0.0165,32.0889 0.7425,26.5809 C1.4685,21.0744 15.384,13.9104 15.384,13.9104 C15.384,13.9104 11.1465,13.6854 12.7455,9.4269 C14.343,5.1699 31.1505,6.3084 31.1505,6.3084 C31.1505,6.3084 28.335,1.8039 34.398,1.3614 C41.256,0.8604 52.8315,9.6879 52.8315,9.6879 C52.8315,9.6879 61.2765,1.8039 62.919,14.8329 C71.4135,16.1634 74.793,23.7654 68.598,26.0184 C74.793,31.3674 75.285,34.8879 69.09,35.4504 C72.4695,39.9564 73.5255,46.2204 67.191,48.5424 L63.8115,59.2419 L63.1875,47.1684 C63.0675,44.8314 61.8615,42.6834 59.928,41.3649" mask="url(#mask-4)"/></g><path id="Stroke-19" fill="#253368" fill-rule="nonzero" d="M261.336656,202.117241 C264.201714,201.421034 267.158175,201.175013 269.955861,201.653223 C271.120642,201.852319 272.225629,202.175542 273.259505,202.634439 C273.827397,202.886505 274.083426,203.551212 273.831361,204.119105 C273.579295,204.686997 272.914588,204.943026 272.346695,204.690961 C271.489938,204.310679 270.56379,204.039769 269.576766,203.871056 C267.125087,203.45199 264.459895,203.673773 261.867944,204.303615 C261.403661,204.416436 260.972607,204.535515 260.580718,204.655505 L260.294239,204.745583 C260.020795,204.833887 259.833292,204.900719 259.743174,204.93555 C259.163634,205.159542 258.512243,204.871314 258.28825,204.291774 C258.064258,203.712234 258.352486,203.060843 258.932026,202.83685 L259.317391,202.698903 C259.402495,202.66999 259.497766,202.638378 259.6028,202.604459 C260.118795,202.437828 260.700339,202.271865 261.336656,202.117241 Z"/><path id="Stroke-21" fill="#DD936F" fill-rule="nonzero" d="M247.523512,203.257941 C247.762865,203.126233 248.056841,203.189166 248.223279,203.393896 L248.279359,203.477212 L250.602859,207.699712 C250.633968,207.756247 250.654888,207.817538 250.664925,207.880794 L250.67173,207.9768 L250.467,220.882 L254.511022,221.641063 C254.78288,221.692121 254.971161,221.932825 254.964741,222.200661 L254.955237,222.290722 C254.904179,222.56258 254.663475,222.750861 254.395639,222.7446 L254.305578,222.734937 L249.801078,221.888937 C249.564283,221.844464 249.386585,221.654092 249.35303,221.421991 L249.34737,221.3332 L249.556,208.106 L247.304241,204.013788 C247.172533,203.774435 247.235466,203.480459 247.440196,203.314021 L247.523512,203.257941 Z"/><path id="Fill-23" fill="#253368" d="M244.5545,211.9106 C244.5545,214.2431 243.23,216.1346 241.5965,216.1346 C239.9645,216.1346 238.6415,214.2431 238.6415,211.9106 C238.6415,209.5781 239.9645,207.6881 241.5965,207.6881 C243.23,207.6881 244.5545,209.5781 244.5545,211.9106"/><path id="Fill-25" fill="#253368" d="M268.90895,211.9106 C268.90895,214.2431 267.58445,216.1346 265.95245,216.1346 C264.31895,216.1346 262.99595,214.2431 262.99595,211.9106 C262.99595,209.5781 264.31895,207.6881 265.95245,207.6881 C267.58445,207.6881 268.90895,209.5781 268.90895,211.9106"/><path id="Stroke-27" fill="#DD936F" fill-rule="nonzero" d="M257.1047,234.0152 C257.412046,234.0152 257.6612,234.264354 257.6612,234.5717 C257.6612,234.848312 257.459386,235.077787 257.194967,235.120916 L257.1047,235.1282 L252.3182,235.1282 C252.010854,235.1282 251.7617,234.879046 251.7617,234.5717 C251.7617,234.295088 251.963514,234.065613 252.227933,234.022484 L252.3182,234.0152 L257.1047,234.0152 Z"/><path id="Stroke-29" fill="#253368" fill-rule="nonzero" d="M235.822116,202.477674 C239.040963,201.507757 242.437315,201.552063 245.639679,202.202204 C246.502166,202.377305 247.145831,202.554806 247.515723,202.679074 C248.104694,202.876942 248.421745,203.514802 248.223876,204.103773 C248.039199,204.65348 247.47124,204.966313 246.917478,204.844707 L246.39467,204.692272 C246.044234,204.595634 245.640911,204.498354 245.192019,204.407221 C242.322752,203.824705 239.28205,203.785039 236.471266,204.631996 C235.947017,204.789965 235.437894,204.977796 234.945069,205.196665 C234.37723,205.448849 233.712469,205.192959 233.460285,204.625119 C233.208101,204.05728 233.463991,203.392519 234.031831,203.140335 C234.611873,202.882732 235.209181,202.662366 235.822116,202.477674 Z"/><path id="Stroke-31" fill="#DD936F" fill-rule="nonzero" d="M242.518595,243.292202 C242.679667,243.030444 243.02244,242.948822 243.284198,243.109895 C246.822649,245.287277 250.612864,246.50585 254.50055,246.50585 C258.389612,246.50585 262.283712,245.339987 265.983998,243.266381 C266.252115,243.116131 266.591268,243.211681 266.741519,243.479798 C266.891769,243.747915 266.796219,244.087068 266.528102,244.237319 C262.671603,246.398465 258.595394,247.61885 254.50055,247.61885 C250.391807,247.61885 246.404841,246.337021 242.700902,244.057805 C242.439144,243.896733 242.357522,243.55396 242.518595,243.292202 Z"/><path id="Fill-33" fill="#FFF" d="M246.2156,226.19645 C246.2156,226.19645 254.3036,227.37545 261.7886,225.63845 C261.7886,225.63845 260.1146,230.38895 254.7701,230.77445 C248.0246,231.26195 246.2156,226.19645 246.2156,226.19645"/><path id="Stroke-35" fill="#FF7A46" fill-rule="nonzero" d="M261.645167,225.020375 C261.145391,225.136355 260.634299,225.241044 260.112637,225.334752 C256.419884,225.998096 252.490339,226.086105 248.807209,225.818051 L248.074012,225.759758 C247.780611,225.73446 247.505646,225.708097 247.250526,225.681328 L246.767166,225.62744 C246.540949,225.600635 246.385432,225.580001 246.307125,225.568586 C245.833745,225.499581 245.457172,225.959328 245.618061,226.409844 C245.853337,227.068658 246.395826,228.013201 247.343464,228.952594 C249.095525,230.689412 251.563334,231.642359 254.815836,231.407299 C257.238469,231.232554 259.157175,230.22007 260.608147,228.649398 C261.167535,228.043862 261.617764,227.396264 261.969926,226.747538 C262.183871,226.353427 262.319583,226.040735 262.387032,225.849328 C262.553443,225.377085 262.132911,224.907187 261.645167,225.020375 Z M260.629,226.528 L260.521217,226.701854 C260.279434,227.073305 259.998347,227.439375 259.676013,227.788301 C258.433535,229.13328 256.807457,229.991347 254.724452,230.141594 C251.844064,230.349761 249.733128,229.53462 248.236854,228.051364 L248.011703,227.817713 C247.794457,227.581639 247.600802,227.338781 247.429646,227.093483 L247.344,226.966 L247.964999,227.024067 C251.958237,227.368378 256.271312,227.314097 260.337001,226.58376 L260.629,226.528 Z"/><path id="Fill-37" fill="#E4EBF7" d="M212.8421,385.70105 C202.4066,404.63855 213.9686,405.97355 213.9686,405.97355 C238.7141,407.65505 296.1851,405.97355 296.1851,405.97355 C309.3251,396.31055 300.6881,383.44805 300.6881,383.44805 C300.6881,383.44805 327.4541,276.16055 318.9041,270.05255 C311.0201,264.42155 296.9996,259.98605 278.4986,256.89005 C277.9841,258.04205 272.7986,267.02705 255.4826,267.23855 C236.5286,267.46955 232.4531,258.96455 231.7661,257.47355 C216.2471,259.39955 206.4536,260.60105 196.7936,266.60105 C193.8101,268.45205 195.8366,314.58455 212.8421,385.70105"/><path id="Stroke-39" fill="#96A7CA" fill-rule="nonzero" d="M281.820023,264.914867 C282.076605,264.739723 282.426588,264.805741 282.601733,265.062323 C282.776877,265.318905 282.710859,265.668888 282.454277,265.844033 C268.465748,275.392682 253.639418,276.145112 239.982379,271.701157 C238.280898,271.147501 236.755907,270.553922 235.428806,269.959644 L234.897472,269.716556 C234.729686,269.638063 234.571283,269.56221 234.422433,269.489311 L233.897738,269.224157 C233.845171,269.196519 233.803364,269.17403 233.772489,269.157001 C233.500461,269.006967 233.401565,268.664818 233.551599,268.392789 C233.701633,268.120761 234.043782,268.021865 234.315811,268.171899 L234.599974,268.320678 L234.710848,268.376682 C235.044451,268.544059 235.437939,268.731088 235.888588,268.932889 C237.180335,269.511336 238.668247,270.090482 240.330484,270.631368 C253.683842,274.976507 268.155933,274.242054 281.820023,264.914867 Z"/><path id="Stroke-41" fill="#96A7CA" fill-rule="nonzero" d="M198.397668,301.52143 C198.704805,301.474772 198.991612,301.685932 199.03827,301.993068 L200.137918,309.143166 L201.153025,315.6583 C202.643878,325.175479 204.168203,334.69261 205.650623,343.662363 L206.675847,349.816453 L207.614932,355.357572 C210.0856,369.80308 212.066275,380.278897 213.387364,385.564658 C213.462691,385.866047 213.279431,386.171436 212.978042,386.246764 C212.676653,386.322091 212.371264,386.138831 212.295936,385.837442 L212.025881,384.724134 C210.633902,378.827491 208.619775,368.00443 206.137909,353.386888 L205.34011,348.653386 L204.88215,345.906699 C203.519583,337.704383 202.116447,329.000182 200.731982,320.224318 L199.446793,312.023666 C199.158892,310.174238 198.885653,308.410304 198.628985,306.745726 L197.92603,302.162032 C197.879372,301.854895 198.090532,301.568088 198.397668,301.52143 Z"/><path id="Stroke-43" fill="#96A7CA" fill-rule="nonzero" d="M316.842848,304.059253 C317.148011,304.117435 317.348229,304.411985 317.290047,304.717148 L314.860985,317.345648 L313.590392,323.894862 C312.460459,329.702599 311.332499,335.455185 310.233316,341.005515 L307.798787,353.194543 C304.677047,368.673321 302.388391,379.356557 301.231671,383.596837 C301.149912,383.896546 300.840672,384.073229 300.540963,383.991471 C300.241254,383.909712 300.064571,383.600472 300.146329,383.300763 L300.398094,382.345764 C301.753926,377.051335 304.32155,364.87114 307.751564,347.714469 L308.3114,344.908363 C309.664958,338.110064 311.073991,330.938094 312.486124,323.679876 L316.184953,304.506452 C316.237317,304.231805 316.481139,304.042164 316.751843,304.048658 L316.842848,304.059253 Z"/><path id="Fill-45" fill="#FFC999" d="M264.242,622.29905 C255.872,558.45005 262.4075,504.82655 262.4075,504.82655 C262.4075,504.82655 280.928,453.96905 307.1765,487.29155 C319.889,503.43005 318.6815,546.32705 311.372,617.75255 C311.372,617.75255 310.982,651.18155 286.433,650.75705 C265.8845,650.40155 264.242,622.29905 264.242,622.29905"/><path id="Fill-47" fill="#597EF7" d="M259.4636,578.66495 C286.1201,587.33795 315.8291,577.30745 315.8291,577.30745 C316.7381,557.84645 318.8936,534.05195 315.3671,465.72395 C281.2766,443.05895 257.2511,487.91795 257.2511,487.91795 L259.4636,578.66495 Z"/><path id="Stroke-49" fill="#1D39C4" fill-rule="nonzero" d="M313.199943,565.333586 C313.288813,565.631264 313.119541,565.944623 312.821864,566.033493 L312.254378,566.192667 L311.662825,566.349 C311.452821,566.40321 311.230071,566.459443 310.99479,566.517474 L310.632499,566.60584 C308.866074,567.031993 306.82989,567.457845 304.551063,567.85513 C290.850511,570.243651 275.615479,570.538801 260.135866,567.39122 C259.831436,567.329318 259.634828,567.032347 259.69673,566.727916 C259.758632,566.423486 260.055603,566.226878 260.360034,566.28878 C275.687744,569.405474 290.785716,569.112979 304.357848,566.746846 C306.612401,566.353793 308.625092,565.932854 310.368661,565.512215 L311.062184,565.341212 C311.280817,565.286064 311.486835,565.232844 311.680022,565.181778 L312.500036,564.955507 C312.797714,564.866637 313.111073,565.035909 313.199943,565.333586 Z"/><path id="Stroke-51" fill="#1D39C4" fill-rule="nonzero" d="M257.23799,487.355134 C257.517501,487.348652 257.754354,487.546929 257.804449,487.813056 L257.814033,487.90409 L260.016,578.254 L260.13496,578.292147 C260.460601,578.394944 260.832987,578.507311 261.250509,578.627346 L261.572088,578.71878 C263.14705,579.161748 264.963997,579.605097 266.997775,580.019111 C282.317839,583.137799 299.189359,582.834587 315.635351,576.779441 C315.926879,576.672105 316.250223,576.821423 316.357559,577.112951 C316.464895,577.404479 316.315577,577.727823 316.024049,577.835159 C299.357154,583.971637 282.281692,584.278515 266.773363,581.121501 C264.711923,580.701856 262.868309,580.252 261.267493,579.801761 L260.627497,579.617802 C260.425513,579.558417 260.234945,579.501044 260.055991,579.445924 L259.279525,579.19612 C259.085752,579.128769 258.946313,578.962435 258.910652,578.764887 L258.901867,578.67851 L256.689034,487.93151 C256.681795,487.620942 256.927422,487.363039 257.23799,487.355134 Z"/><path id="Fill-53" fill="#FFC999" d="M259.5911,621.56585 C265.1756,557.41235 256.3121,504.12485 256.3121,504.12485 C256.3121,504.12485 235.5971,454.12085 210.8231,488.55485 C198.8246,505.23035 201.8981,548.03435 212.3081,619.07285 C212.3081,619.07285 214.1516,652.45385 238.6601,650.96285 C259.1741,649.71335 259.5911,621.56585 259.5911,621.56585"/><path id="Fill-55" fill="#597EF7" d="M262.4666,577.7648 C236.2136,587.5898 206.0951,578.8613 206.0951,578.8613 C204.3401,559.4573 201.1511,535.7798 201.7016,467.3633 C234.7736,443.2358 260.7281,487.0073 260.7281,487.0073 L262.4666,577.7648 Z"/><path id="Stroke-57" fill="#1D39C4" fill-rule="nonzero" d="M261.032409,565.440224 C261.33386,565.365145 261.639098,565.548657 261.714176,565.850109 C261.789255,566.15156 261.605743,566.456798 261.304291,566.531876 C245.246092,570.531273 229.38425,570.742692 215.323174,568.703697 C213.671268,568.464155 212.180473,568.209282 210.864889,567.952543 L210.379785,567.856205 C209.978401,567.775081 209.617683,567.698521 209.298916,567.627751 L208.609073,567.467542 C208.307806,567.391726 208.125042,567.08604 208.200858,566.784773 C208.276674,566.483506 208.58236,566.300742 208.883627,566.376558 L209.317529,566.478863 C209.608147,566.545046 209.940968,566.617382 210.314702,566.694647 L210.602653,566.753501 C212.013193,567.038586 213.647239,567.323904 215.484622,567.590342 C229.411912,569.609937 245.131639,569.400412 261.032409,565.440224 Z"/><path id="Stroke-59" fill="#1D39C4" fill-rule="nonzero" d="M261.340897,499.156042 C261.620462,499.152155 261.855309,499.352803 261.902725,499.619421 L261.911392,499.710547 L263.029007,577.757047 C263.032235,577.990481 262.891038,578.201717 262.674064,578.287884 L262.076876,578.511058 C261.59323,578.6858 261.025341,578.880185 260.376995,579.089279 C258.528314,579.685486 256.403345,580.281236 254.032335,580.837015 C238.888631,584.386796 222.300289,584.629704 205.923757,579.397416 C205.627834,579.302869 205.464586,578.98633 205.559134,578.690407 C205.653681,578.394484 205.97022,578.231236 206.266143,578.325784 C222.425422,583.488659 238.814544,583.248668 253.775587,579.741705 C256.115899,579.193121 258.211431,578.605624 260.031692,578.018583 C260.540318,577.854549 260.997609,577.700034 261.401616,577.557559 L261.898,577.378 L260.786508,499.726653 C260.782505,499.447088 260.983153,499.212241 261.249771,499.164825 L261.340897,499.156042 Z"/><path id="Fill-61" fill="#597EF7" d="M272.04965,499.15535 C272.04965,499.15535 256.84415,500.84435 246.14465,498.10085 C230.95265,494.20235 212.92115,480.57185 201.65915,469.87385 C201.09515,434.39735 212.54765,416.58485 212.54765,416.58485 L304.48565,417.24185 C304.48565,417.24185 313.71965,434.39735 315.40865,470.43635 C315.40865,470.43635 281.62565,497.79485 272.04965,499.15535"/><path id="Fill-63" fill="#597EF7" d="M211.68485,417.4106 L212.77685,406.4516 L303.87485,406.8086 L305.04785,417.2546 C305.04785,417.2546 220.97285,417.6191 211.68485,417.4106"/><path id="Stroke-65" fill="#1D39C4" fill-rule="nonzero" d="M274.30512,418.066834 C274.615772,418.069141 274.86576,418.322818 274.863516,418.63347 L274.695045,438.945343 L274.502062,457.738609 C274.464611,460.885107 274.427885,463.646711 274.392132,465.970789 L274.308345,470.672397 C274.305841,470.788692 274.303345,470.902244 274.300857,471.013038 C274.212188,474.943075 271.785814,477.579731 267.869796,479.139526 C266.49803,479.685917 265.034484,480.060857 263.571881,480.296974 C263.060399,480.379546 262.585014,480.438966 262.157435,480.479055 L261.67907,480.51665 C261.651664,480.518218 261.627497,480.519435 261.606664,480.520331 C261.296291,480.533676 261.033865,480.292888 261.020519,479.982514 C261.007174,479.672141 261.247962,479.409715 261.558336,479.396369 L261.700322,479.388079 C261.7604,479.38395 261.832972,479.378378 261.917271,479.371129 L262.052419,479.358968 C262.455973,479.321131 262.906709,479.264792 263.392587,479.186354 C264.779585,478.962442 266.165641,478.607353 267.453503,478.094383 C270.99163,476.685106 273.099272,474.394805 273.176142,470.987722 L273.274429,465.482823 C273.312682,462.943142 273.352029,459.909453 273.392166,456.445759 L273.499134,446.408772 C273.541283,442.154447 273.582243,437.687368 273.621308,433.156459 L273.738515,418.62523 C273.740791,418.314578 273.994468,418.06459 274.30512,418.066834 Z"/><path id="Stroke-67" fill="#1D39C4" fill-rule="nonzero" d="M211.686646,416.848091 L259.695153,416.972068 L298.589644,417.016196 C300.678991,417.015514 302.626949,417.013994 304.426102,417.0116 C304.736762,417.011187 304.98935,417.262692 304.98935,417.573352 C304.98935,417.884012 304.738258,418.136186 304.427598,418.1366 L278.718588,418.129044 L255.856447,418.089138 L211.683054,417.973097 C211.372395,417.972105 211.121361,417.719463 211.122341,417.408804 C211.123345,417.098145 211.375987,416.847111 211.686646,416.848091 Z"/><path id="Stroke-69" fill="#1D39C4" fill-rule="nonzero" d="M296.743276,418.382979 C297.051242,418.342152 297.333994,418.558711 297.374821,418.866676 L297.432705,419.255783 C297.459573,419.424469 297.494188,419.631158 297.537076,419.872912 C297.680689,420.682448 297.865793,421.58543 298.096538,422.558302 C298.755615,425.337117 299.647028,428.115258 300.802351,430.703355 C303.371294,436.458175 306.850756,440.418025 311.350843,441.813851 C311.647557,441.905885 311.813483,442.221028 311.721449,442.517743 C311.629415,442.814457 311.314272,442.980383 311.017557,442.888349 C306.148941,441.378214 302.463044,437.183426 299.775059,431.161936 C298.588343,428.503513 297.676077,425.660383 297.001905,422.817926 C296.805329,421.989115 296.64104,421.209361 296.506526,420.492141 L296.429371,420.069421 C296.390615,419.850955 296.356881,419.650643 296.327943,419.469714 L296.259579,419.014524 C296.218752,418.706558 296.435311,418.423806 296.743276,418.382979 Z"/><path id="Stroke-71" fill="#1D39C4" fill-rule="nonzero" d="M217.824539,417.2735 C218.130809,417.325547 218.336896,417.61602 218.28485,417.922289 L218.236597,418.190612 C218.196755,418.40572 218.148522,418.654798 218.091726,418.935027 C217.929775,419.734078 217.731525,420.623791 217.495574,421.581652 C216.821193,424.319358 215.979319,427.057651 214.95762,429.617559 C212.487297,435.807052 209.37829,439.983361 205.48709,441.199442 C205.190573,441.29211 204.875076,441.126857 204.782408,440.83034 C204.68974,440.533823 204.854993,440.218326 205.15151,440.125658 C208.625663,439.039913 211.557636,435.101414 213.912765,429.200541 C214.91326,426.693762 215.740378,424.003461 216.403227,421.312573 C216.557947,420.684475 216.696133,420.086407 216.818165,419.525102 L216.989144,418.711558 C217.084198,418.242566 217.145964,417.909089 217.17575,417.733811 C217.222593,417.458168 217.46256,417.263673 217.733355,417.265448 L217.824539,417.2735 Z"/><path id="Fill-73" fill="#1D39C4" d="M258.28145,411.69845 C258.25745,412.78745 257.10395,413.64245 255.70445,413.61095 C254.30645,413.57945 253.19045,412.67195 253.21445,411.58445 C253.23995,410.49695 254.39345,409.63895 255.79295,409.67045 C257.19095,409.70195 258.30695,410.60945 258.28145,411.69845"/><path id="Stroke-75" fill="#1D39C4" fill-rule="nonzero" d="M261.34895,406.8044 C261.628544,406.8044 261.860494,407.00839 261.904088,407.27566 L261.91145,407.3669 L261.91145,499.7189 C261.91145,500.02956 261.65961,500.2814 261.34895,500.2814 C261.069356,500.2814 260.837406,500.07741 260.793812,499.81014 L260.78645,499.7189 L260.78645,407.3669 C260.78645,407.05624 261.03829,406.8044 261.34895,406.8044 Z"/><path id="Stroke-77" fill="#1D39C4" fill-rule="nonzero" d="M303.0206,405.8888 C303.33126,405.8888 303.5831,406.14064 303.5831,406.4513 C303.5831,406.730894 303.37911,406.962844 303.11184,407.006438 L303.0206,407.0138 L212.7761,407.0138 C212.46544,407.0138 212.2136,406.76196 212.2136,406.4513 C212.2136,406.171706 212.41759,405.939756 212.68486,405.896162 L212.7761,405.8888 L303.0206,405.8888 Z"/><path id="Fill-79" fill="#FFC999" d="M259.34645,684.092 C256.87145,733.5875 250.41095,767.4545 254.69195,816.6815 C255.21245,822.653 246.65495,823.934 238.51595,824.1725 C221.81195,840.695 188.40845,848.468 183.17795,842.303 C180.03545,838.601 190.67495,822.5585 201.75995,818.6525 C226.53695,809.924 223.15895,780.6425 223.15895,780.6425 C223.15895,780.6425 215.09645,705.9605 209.93345,648.6155 C209.93345,648.6155 208.24895,606.4475 230.20445,605.96 C268.21445,605.114 260.18945,667.199 259.34645,684.092"/><g id="分组" transform="translate(167.000000, 827.159000)"><mask id="mask-6" fill="#fff"><use xlink:href="#path-5"/></mask><path id="Fill-81" fill="#96A7CA" d="M1.8132,15.9462 C1.8132,15.9462 5.8707,23.4927 25.3077,21.8322 C44.7447,20.1717 53.4897,11.3322 63.6477,9.4797 C82.6317,6.0192 90.6732,0.9012 90.6732,0.9012 C90.6732,0.9012 91.7517,3.7557 90.2592,7.7082 C87.9552,13.8072 69.9957,12.4047 59.5842,17.6712 C52.0497,21.4797 46.1397,23.6907 33.4797,27.0762 C20.8212,30.4632 4.6182,27.2817 2.6157,23.0412 C0.6132,18.8022 1.8132,15.9462 1.8132,15.9462" mask="url(#mask-6)"/></g><path id="Fill-83" fill="#4E5C93" d="M257.114,828.776 C257.114,828.776 252.917,831.392 238.6505,835.289 C235.2395,836.222 231.8945,837.26 225.9815,839.513 C216.8945,842.975 188.3465,856.9745 170.747,845.711 C168.0275,842.8685 168.6485,839.432 169.904,836.753 C171.0965,834.2045 173.2625,832.2455 175.895,831.251 C183.8705,828.239 202.937,821.0825 212.387,806.0675 C213.4925,804.3095 215.549,803.42 217.5845,803.831 C220.049,804.3275 223.2575,805.4315 225.6005,807.8825 C227.5505,809.9225 222.488,818.036 224.579,818.345 C230.327,819.1955 239.8895,817.304 245.933,813.0575 C250.9925,809.501 254.138,806.1485 254.138,806.1485 C254.138,806.1485 259.3985,820.439 257.114,828.776"/><path id="Stroke-85" fill="#96A7CA" fill-rule="nonzero" d="M198.227593,835.901026 C198.563423,835.800948 198.916796,835.992063 199.016874,836.327893 C199.116952,836.663723 198.925837,837.017096 198.590007,837.117174 C190.12546,839.639626 183.241578,839.64472 177.994986,838.127122 C177.223452,837.903953 176.55735,837.663844 175.997385,837.422358 L175.614817,837.24942 C175.471147,837.180926 175.362654,837.124311 175.289454,837.082474 C174.985215,836.90859 174.879541,836.520994 175.053426,836.216754 C175.22731,835.912515 175.614906,835.806841 175.919146,835.980726 L176.130081,836.089256 C176.226902,836.135955 176.350205,836.192538 176.499906,836.257097 C177.011685,836.477803 177.627779,836.699885 178.347594,836.908095 C183.361872,838.358495 189.997586,838.353584 198.227593,835.901026 Z"/><path id="Stroke-87" fill="#96A7CA" fill-rule="nonzero" d="M207.202614,813.183766 C207.282162,812.842489 207.623308,812.630317 207.964584,812.709864 L208.196955,812.769848 C208.264048,812.788278 208.341136,812.810173 208.427603,812.835662 C208.782318,812.940226 209.176142,813.071271 209.599476,813.230887 C210.807904,813.686517 212.016427,814.281362 213.148119,815.033886 C214.404348,815.869221 215.488044,816.849883 216.345128,817.989405 C216.555767,818.269456 216.499497,818.667239 216.219445,818.877878 C215.939394,819.088517 215.541611,819.032247 215.330972,818.752195 C214.566279,817.73551 213.588369,816.850576 212.445458,816.090592 C211.400047,815.395442 210.275958,814.842156 209.151773,814.418289 C208.856963,814.307132 208.578356,814.211161 208.320103,814.129627 L208.068788,814.052877 C207.876748,813.996266 207.74272,813.961167 207.676516,813.945736 C207.335239,813.866188 207.123067,813.525042 207.202614,813.183766 Z"/><path id="Fill-89" fill="#FFC999" d="M263.3762,684.092 C265.8512,733.5875 272.3117,767.4545 268.0307,816.6815 C267.5102,822.653 276.0692,823.934 284.2067,824.1725 C300.9107,840.695 334.3142,848.468 339.5447,842.303 C342.6872,838.601 332.0477,822.5585 320.9627,818.6525 C296.1857,809.924 299.5637,780.6425 299.5637,780.6425 C299.5637,780.6425 307.6262,705.9605 312.7892,648.6155 C312.7892,648.6155 314.4737,606.4475 292.5182,605.96 C254.5082,605.114 262.5332,667.199 263.3762,684.092"/><g id="分组" transform="translate(264.500000, 827.159000)"><mask id="mask-8" fill="#fff"><use xlink:href="#path-7"/></mask><path id="Fill-91" fill="#96A7CA" d="M89.40945,15.9462 C89.40945,15.9462 85.35195,23.4927 65.91495,21.8322 C46.47795,20.1717 37.73295,11.3322 27.57495,9.4797 C8.59095,6.0192 0.54945,0.9012 0.54945,0.9012 C0.54945,0.9012 -0.52905,3.7557 0.96495,7.7082 C3.26745,13.8072 21.22695,12.4047 31.63995,17.6712 C39.17295,21.4797 45.08295,23.6907 57.74295,27.0762 C70.40145,30.4632 86.60445,27.2817 88.60695,23.0412 C90.60945,18.8022 89.40945,15.9462 89.40945,15.9462" mask="url(#mask-8)"/></g><path id="Fill-93" fill="#4E5C93" d="M265.60865,828.776 C265.60865,828.776 269.80565,831.392 284.07215,835.289 C287.48315,836.222 290.82815,837.26 296.74115,839.513 C305.82815,842.975 334.37615,856.9745 351.97565,845.711 C354.69515,842.8685 354.07415,839.432 352.81865,836.753 C351.62615,834.2045 349.46015,832.2455 346.82765,831.251 C338.85215,828.239 319.78565,821.0825 310.33565,806.0675 C309.23015,804.3095 307.17365,803.42 305.13815,803.831 C302.67365,804.3275 299.46515,805.4315 297.12215,807.8825 C295.17215,809.9225 300.23465,818.036 298.14365,818.345 C292.39715,819.1955 282.83315,817.304 276.78965,813.0575 C271.73015,809.501 268.58465,806.1485 268.58465,806.1485 C268.58465,806.1485 263.32415,820.439 265.60865,828.776"/><path id="Stroke-95" fill="#96A7CA" fill-rule="nonzero" d="M323.705776,836.327893 C323.805854,835.992063 324.159227,835.800948 324.495057,835.901026 C332.725067,838.353585 339.361235,838.358496 344.376189,836.908089 C345.096106,836.699877 345.712298,836.477791 346.224168,836.257082 L346.488399,836.139161 C346.641051,836.06839 346.746668,836.014061 346.80505,835.9807 C347.109304,835.80684 347.496891,835.912546 347.67075,836.2168 C347.84461,836.521054 347.738904,836.908641 347.43465,837.0825 L347.210411,837.200343 C347.084318,837.262715 346.923015,837.337691 346.72662,837.422373 C346.166572,837.663855 345.500381,837.903961 344.728755,838.127128 C339.481505,839.644719 332.597187,839.639625 324.132643,837.117174 C323.796813,837.017096 323.605698,836.663723 323.705776,836.327893 Z"/><path id="Stroke-97" fill="#96A7CA" fill-rule="nonzero" d="M314.758066,812.709864 C315.099342,812.630317 315.440488,812.842489 315.520036,813.183766 C315.599583,813.525042 315.387411,813.866188 315.046134,813.945736 L314.653862,814.052877 C314.328232,814.148867 313.963957,814.27008 313.570877,814.418289 C312.446692,814.842156 311.322603,815.395442 310.277192,816.090592 C309.134281,816.850576 308.156371,817.73551 307.391678,818.752195 C307.181039,819.032247 306.783256,819.088517 306.503205,818.877878 C306.223153,818.667239 306.166883,818.269456 306.377522,817.989405 C307.234606,816.849883 308.318302,815.869221 309.574531,815.033886 C310.706223,814.281362 311.914746,813.686517 313.123174,813.230887 C313.546508,813.071271 313.940332,812.940226 314.295047,812.835662 L314.61876,812.744785 C314.675704,812.729788 314.722345,812.718191 314.758066,812.709864 Z"/><path id="Fill-99" fill="#FFC999" d="M311.678,421.8761 C311.678,421.8761 368.984,389.5331 383.2295,369.2186 C391.1975,357.8576 379.049,335.4491 362.843,338.8181 C349.5425,341.5841 297.0665,402.7736 297.0665,402.7736 C297.0665,402.7736 290.921,407.3096 298.2545,417.4661 C305.8625,428.0066 311.678,421.8761 311.678,421.8761"/><path id="Fill-101" fill="#FFC999" d="M290.32355,399.40625 C290.32355,399.40625 299.46305,385.86875 303.40055,385.46825 C309.49955,384.84575 307.85555,397.26875 307.85555,397.26875 C307.85555,397.26875 313.65605,399.57125 311.51405,406.15775 C314.84255,411.42425 312.25505,414.82175 312.25505,414.82175 C312.25505,414.82175 316.48355,418.46975 312.48155,422.97575 C308.48105,427.48175 297.51155,428.69075 297.56405,420.89075 C292.39205,417.64175 295.09655,412.78475 295.09655,412.78475 C295.09655,412.78475 291.14705,409.48925 293.88755,404.83175 C290.37755,403.70225 289.38455,400.82825 290.32355,399.40625"/><path id="Stroke-103" fill="#DD936F" fill-rule="nonzero" d="M303.541358,395.369572 C303.788079,395.148359 304.167415,395.169037 304.388628,395.415758 C304.585262,395.635065 304.590772,395.959155 304.416289,396.183833 L304.342442,396.263028 L294.287942,405.278028 C294.041221,405.499241 293.661885,405.478563 293.440672,405.231842 C293.244038,405.012535 293.238528,404.688445 293.413011,404.463767 L293.486858,404.384572 L303.541358,395.369572 Z"/><path id="Stroke-105" fill="#DD936F" fill-rule="nonzero" d="M303.317379,384.87385 C306.496821,384.430464 308.088035,386.992061 308.524676,391.287493 C308.691384,392.927481 308.67558,394.669615 308.549269,396.322449 L308.493,396.964 L308.71821,397.121151 L308.869246,397.231471 C309.387064,397.615735 309.904347,398.064882 310.38853,398.576942 C312.364989,400.667196 313.216818,403.131618 312.277073,405.849083 L312.191,406.083 L312.20754,406.106343 C314.264768,409.144221 314.459317,411.821527 313.478316,413.978141 L313.379734,414.185215 C313.255505,414.434919 313.129792,414.647523 313.012037,414.822294 L312.902,414.977 L313.984307,420.003805 C314.047083,420.295357 313.886447,420.583028 313.617534,420.688495 L313.524045,420.716657 C313.232493,420.779433 312.944822,420.618797 312.839355,420.349884 L312.811193,420.256395 L311.668193,414.947895 C311.626709,414.755228 311.682487,414.554475 311.817414,414.410824 C311.926514,414.29467 312.112964,414.037409 312.305351,413.650705 C313.23526,411.781555 313.082795,409.399011 311.024884,406.506965 C310.90346,406.336324 310.8798,406.114717 310.962461,405.922286 C312.006197,403.492529 311.326973,401.31601 309.5166,399.401403 C309.083864,398.943752 308.618733,398.539889 308.154138,398.195121 L307.900955,398.01283 C307.748249,397.906467 307.629342,397.830643 307.554039,397.786641 C307.346611,397.665432 307.231482,397.432178 307.26143,397.193805 L307.309355,396.74369 C307.323168,396.596632 307.337944,396.424854 307.352757,396.23101 C307.474102,394.643169 307.4893,392.967816 307.330828,391.408851 C306.954329,387.705054 305.738534,385.747823 303.483121,386.06235 C303.154926,386.108118 302.851769,385.879165 302.806,385.550971 C302.760232,385.222776 302.989185,384.919619 303.317379,384.87385 Z"/><path id="Stroke-107" fill="#DD936F" fill-rule="nonzero" d="M305.200726,406.860097 C305.494792,406.707349 305.857006,406.82191 306.009753,407.115976 C306.147226,407.380635 306.068179,407.700494 305.836621,407.873173 L305.753874,407.925003 L295.372374,413.317503 C295.078308,413.470251 294.716094,413.35569 294.563347,413.061624 C294.425874,412.796965 294.504921,412.477106 294.736479,412.304427 L294.819226,412.252597 L305.200726,406.860097 Z"/><path id="Stroke-109" fill="#DD936F" fill-rule="nonzero" d="M307.56868,416.204581 C307.875954,416.080527 308.225614,416.229056 308.349669,416.53633 C308.461317,416.812877 308.352174,417.123756 308.105226,417.273602 L308.01792,417.317319 L297.78942,421.446819 C297.482146,421.570873 297.132486,421.422344 297.008431,421.11507 C296.896783,420.838523 297.005926,420.527644 297.252874,420.377798 L297.34018,420.334081 L307.56868,416.204581 Z"/><path id="Fill-111" fill="#FFC999" d="M198.89675,421.8761 C198.89675,421.8761 141.59075,389.5331 127.34525,369.2186 C119.37725,357.8576 131.52575,335.4491 147.73025,338.8181 C161.03225,341.5841 213.50825,402.7736 213.50825,402.7736 C213.50825,402.7736 219.65375,407.3096 212.32025,417.4661 C204.71225,428.0066 198.89675,421.8761 198.89675,421.8761"/><path id="Fill-113" fill="#FFC999" d="M223.2512,399.40625 C223.2512,399.40625 214.1102,385.86875 210.1742,385.46825 C204.0752,384.84575 205.7192,397.26875 205.7192,397.26875 C205.7192,397.26875 199.9187,399.57125 202.0607,406.15775 C198.7322,411.42425 201.3197,414.82175 201.3197,414.82175 C201.3197,414.82175 197.0912,418.46975 201.0932,422.97575 C205.0937,427.48175 216.0632,428.69075 216.0107,420.89075 C221.1827,417.64175 218.4782,412.78475 218.4782,412.78475 C218.4782,412.78475 222.4277,409.48925 219.6872,404.83175 C223.1972,403.70225 224.1902,400.82825 223.2512,399.40625"/><path id="Stroke-115" fill="#DD936F" fill-rule="nonzero" d="M209.185972,395.415758 C209.382606,395.19645 209.704177,395.155744 209.946489,395.304771 L210.033242,395.369572 L220.087742,404.384572 C220.334463,404.605785 220.355141,404.985121 220.133928,405.231842 C219.937294,405.45115 219.615723,405.491856 219.373411,405.342829 L219.286658,405.278028 L209.232158,396.263028 C208.985437,396.041815 208.964759,395.662479 209.185972,395.415758 Z"/><path id="Stroke-117" fill="#DD936F" fill-rule="nonzero" d="M205.049527,391.287532 C205.485887,386.992104 207.077264,384.430482 210.25735,384.873848 C210.585547,384.919605 210.814509,385.222754 210.768752,385.55095 C210.722995,385.879147 210.419846,386.108109 210.09165,386.062352 C207.835532,385.747806 206.619641,387.705012 206.243382,391.408812 C206.085044,392.967449 206.100357,394.642468 206.221814,396.230118 L206.278779,396.882064 C206.291872,397.012462 206.303691,397.117237 206.313311,397.193736 C206.343291,397.43213 206.228161,397.66542 206.020711,397.786641 L205.781834,397.938804 C205.680439,398.007064 205.558652,398.092683 205.420612,398.195121 C204.956017,398.539889 204.490886,398.943752 204.05815,399.401403 C202.247777,401.31601 201.568553,403.492529 202.612289,405.922286 C202.69495,406.114717 202.67129,406.336324 202.549866,406.506965 C200.491955,409.399011 200.33949,411.781555 201.269399,413.650705 C201.461786,414.037409 201.648236,414.29467 201.757336,414.410824 C201.869776,414.530533 201.92725,414.689897 201.919278,414.851189 L201.906557,414.947895 L200.763557,420.256395 C200.693807,420.580341 200.374652,420.786408 200.050705,420.716657 C199.759153,420.653882 199.563084,420.389089 199.577634,420.100601 L199.590443,420.003805 L200.672,414.977 L200.64939,414.946268 C200.536204,414.790459 200.412699,414.596634 200.288319,414.365525 L200.195016,414.185215 C199.138888,412.062361 199.236145,409.413649 201.173915,406.3992 L201.383,406.083 L201.297677,405.849083 C200.389256,403.2222 201.154963,400.831772 202.992347,398.78721 L203.18622,398.576942 C203.670403,398.064882 204.187686,397.615735 204.705504,397.231471 L204.99568,397.022788 L205.081,396.964 L205.046847,396.588298 L205.02531,396.321652 C204.89888,394.669003 204.882958,392.927197 205.049527,391.287532 Z"/><path id="Stroke-119" fill="#DD936F" fill-rule="nonzero" d="M207.564997,407.115976 C207.702469,406.851316 208.00961,406.732056 208.284038,406.822204 L208.374024,406.860097 L218.755524,412.252597 C219.04959,412.405344 219.164151,412.767558 219.011403,413.061624 C218.873931,413.326284 218.56679,413.445544 218.292362,413.355396 L218.202376,413.317503 L207.820876,407.925003 C207.52681,407.772256 207.412249,407.410042 207.564997,407.115976 Z"/><path id="Stroke-121" fill="#DD936F" fill-rule="nonzero" d="M205.225081,416.53633 C205.33673,416.259784 205.63112,416.111821 205.912884,416.175429 L206.00607,416.204581 L216.23457,420.334081 C216.541844,420.458136 216.690373,420.807796 216.566319,421.11507 C216.45467,421.391616 216.16028,421.539579 215.878516,421.475971 L215.78533,421.446819 L205.55683,417.317319 C205.249556,417.193264 205.101027,416.843604 205.225081,416.53633 Z"/></g></svg>