<?xml version="1.0" encoding="UTF-8"?>
<svg width="512px" height="1024px" viewBox="0 0 512 1024" version="1.1" xmlns="http://www.w3.org/2000/svg" xmlns:xlink="http://www.w3.org/1999/xlink">
    <!-- Generator: Sketch 61.2 (89653) - https://sketch.com -->
    <title>2.人物组件/9.互联网人群/站立/思考</title>
    <desc>Created with Sketch.</desc>
    <defs>
        <polygon id="path-1" points="0.0679521228 0.3375 79.4978286 0.3375 79.4978286 60.8038751 0.0679521228 60.8038751"></polygon>
        <polygon id="path-3" points="0.33312905 0.0405 48.8715 0.0405 48.8715 16.4999408 0.33312905 16.4999408"></polygon>
    </defs>
    <g id="2.人物组件/9.互联网人群/站立/思考" stroke="none" stroke-width="1" fill="none" fill-rule="evenodd">
        <path d="M167.50415,371.28575 C167.50415,371.28575 169.15715,340.17425 174.61265,311.96675 C179.59115,286.24475 187.80815,264.42125 204.22265,266.87225 C224.83115,269.94875 216.15965,305.62025 213.16565,323.96075 C211.01315,337.15925 203.95865,364.27775 199.18865,378.16625 C191.58215,400.31825 163.40765,391.15775 167.50415,371.28575" id="Fill-1" fill="#FFC999"></path>
        <path d="M211.9592,331.35785 C214.9517,313.01735 228.367244,268.148322 205.98245,266.072836 C183.597656,263.99735 178.1372,286.86485 173.0732,321.40385 L211.9592,331.35785 Z" id="Fill-3" fill="#E4EBF7"></path>
        <path d="M260.8703,619.2377 C265.9388,555.0422 256.6478,501.8267 256.6478,501.8267 C256.6478,501.8267 235.5293,451.9907 211.0328,486.6227 C199.1708,503.3942 202.5878,546.1727 213.5678,617.1257 C213.5678,617.1257 215.6798,650.4902 240.1748,648.8012 C260.6783,647.3867 260.8703,619.2377 260.8703,619.2377" id="Fill-5" fill="#FFC999"></path>
        <path d="M263.39285,575.4155 C237.21935,585.4505 207.03185,576.965 207.03185,576.965 C205.12085,557.576 201.74135,533.9255 201.74135,465.506 C234.61835,441.1145 260.92385,484.6745 260.92385,484.6745 L263.39285,575.4155 Z" id="Fill-7" fill="#597EF7"></path>
        <path d="M261.860386,563.102532 C262.161226,563.025038 262.467925,563.206096 262.545418,563.506936 C262.622912,563.807776 262.441854,564.114475 262.141014,564.191968 C245.974751,568.356241 229.996893,568.664471 215.877913,566.692052 C214.097965,566.443393 212.514514,566.176828 211.14638,565.910042 L210.348879,565.749186 L209.666677,565.601032 C209.570578,565.579232 209.499288,565.562505 209.453316,565.551329 C209.151449,565.477939 208.966232,565.173733 209.039621,564.871866 C209.113011,564.569999 209.417217,564.384782 209.719084,564.458171 L210.133382,564.5525 C210.41104,564.613548 210.729117,564.680274 211.086403,564.751548 L211.3617,564.80584 C212.710421,565.068841 214.274011,565.332062 216.033563,565.577871 C230.017756,567.53146 245.852567,567.22599 261.860386,563.102532 Z" id="Stroke-9" fill="#1D39C4" fill-rule="nonzero"></path>
        <path d="M261.548986,509.213836 C261.828472,509.206482 262.066012,509.403935 262.117032,509.669886 L262.126932,509.760886 L263.955857,575.399386 C263.961964,575.633882 263.822284,575.84781 263.604965,575.936146 L262.993277,576.170159 L262.357595,576.399642 C262.019309,576.518997 261.650542,576.645026 261.252137,576.77661 C259.358733,577.401957 257.183002,578.026833 254.756144,578.609793 C239.683823,582.230339 223.185787,582.572297 206.865258,577.501722 C206.568586,577.40955 206.402806,577.094329 206.494978,576.797658 C206.58715,576.500986 206.902371,576.335206 207.199042,576.427378 C223.303009,581.430671 239.602698,581.092824 254.493381,577.515909 C256.888993,576.940456 259.034793,576.324176 260.899321,575.708366 L261.641197,575.458065 C261.758193,575.417707 261.871844,575.378055 261.982117,575.33915 L262.819,575.034 L261.002368,509.792214 C260.994582,509.512728 261.192035,509.275188 261.457986,509.224168 L261.548986,509.213836 Z" id="Stroke-11" fill="#1D39C4" fill-rule="nonzero"></path>
        <path d="M264.2483,676.6757 C261.7748,726.1712 255.3143,760.0382 259.5953,809.2652 C260.1143,815.2367 251.5568,816.5177 243.4193,816.7562 C226.7138,833.2787 193.3118,841.0517 188.0798,834.8867 C184.9388,831.1847 195.5768,815.1422 206.6618,811.2362 C231.4403,802.5077 228.0608,773.2262 228.0608,773.2262 C228.0608,773.2262 219.4268,675.8042 214.2638,618.4577 C214.2638,618.4577 213.1523,599.0312 235.1063,598.5437 C273.1178,597.6977 265.0928,659.7827 264.2483,676.6757" id="Fill-13" fill="#FFC999"></path>
        <path d="M173.71505,835.6889 C173.71505,835.6889 177.77405,843.2354 197.21105,841.5749 C216.64805,839.9144 225.39305,831.0749 235.55105,829.2224 C254.53505,825.7619 262.57505,820.6439 262.57505,820.6439 C262.57505,820.6439 263.65355,823.4984 262.16105,827.4509 C259.85855,833.5499 241.89905,832.1474 231.48605,837.4139 C223.95305,841.2224 218.04305,843.4334 205.38155,846.8189 C192.72305,850.2059 176.52005,847.0244 174.51755,842.7839 C172.51655,838.5449 173.71505,835.6889 173.71505,835.6889" id="Fill-15" fill="#96A7CA"></path>
        <path d="M262.01735,821.3597 C262.01735,821.3597 257.81885,823.9757 243.55385,827.8727 C240.14285,828.8057 236.79785,829.8437 230.88335,832.0967 C221.79785,835.5587 193.24985,849.5582 175.64885,838.2947 C172.93085,835.4522 173.55185,832.0157 174.80585,829.3367 C175.99985,826.7882 178.16435,824.8292 180.79835,823.8347 C188.77385,820.8227 207.83885,813.6662 217.28885,798.6512 C218.39585,796.8932 220.45085,796.0037 222.48635,796.4147 C224.95085,796.9112 228.16085,798.0152 230.50235,800.4662 C232.45385,802.5062 227.39135,810.6197 229.48235,810.9287 C235.22885,811.7792 244.79285,809.8892 250.83485,805.6412 C255.89585,802.0847 259.03985,798.7322 259.03985,798.7322 C259.03985,798.7322 264.30035,813.0227 262.01735,821.3597" id="Fill-17" fill="#4E5C93"></path>
        <path d="M203.096437,828.374192 C203.493396,828.255886 203.911102,828.481778 204.029408,828.878737 C204.147714,829.275696 203.921822,829.693402 203.524863,829.811708 C195.039796,832.340527 188.133327,832.345638 182.865094,830.821929 L182.31802,830.656132 C181.275992,830.325191 180.546868,830.002531 180.134046,829.766632 C179.774408,829.561125 179.64946,829.102984 179.854968,828.743346 C180.060475,828.383708 180.518616,828.25876 180.878254,828.464268 L180.997483,828.527421 C181.100516,828.579292 181.250608,828.649949 181.447561,828.734873 C181.955038,828.953692 182.566665,829.174137 183.281851,829.380988 C188.27549,830.825277 194.888618,830.820383 203.096437,828.374192 Z" id="Stroke-19" fill="#96A7CA" fill-rule="nonzero"></path>
        <path d="M211.99348,805.741247 C212.087508,805.337847 212.490753,805.087051 212.894153,805.18108 L213.036001,805.216623 C213.122698,805.239449 213.232593,805.269953 213.363612,805.308575 C213.720973,805.41392 214.117486,805.54586 214.543575,805.706514 C215.759669,806.165035 216.975877,806.763663 218.115423,807.521408 C219.381966,808.363601 220.47529,809.352976 221.340783,810.503678 C221.589765,810.834708 221.523252,811.304901 221.192222,811.553883 C220.861192,811.802865 220.390999,811.736352 220.142017,811.405322 C219.385733,810.399816 218.417452,809.523596 217.284854,808.77047 C216.247296,808.080541 215.130892,807.531038 214.014375,807.110062 C213.72163,806.999684 213.445052,806.904411 213.188801,806.823506 L212.740116,806.690375 C212.654972,806.666905 212.592108,806.650885 212.553647,806.64192 C212.150247,806.547892 211.899451,806.144647 211.99348,805.741247 Z" id="Stroke-21" fill="#96A7CA" fill-rule="nonzero"></path>
        <path d="M229.7981,257.40515 C229.7981,257.40515 232.9691,277.61615 255.0626,279.23765 C280.7051,281.12015 285.8426,260.82365 285.8426,260.82365 L279.8411,258.40415 C278.5976,257.90165 277.7816,256.70915 277.7801,255.36815 C277.7696,250.58465 277.8266,238.39265 278.4866,222.35765 C256.9916,213.50465 241.3301,219.00065 241.3301,219.00065 C241.3301,219.00065 240.3266,238.02215 239.3381,252.02465 C239.2421,253.38215 238.3271,254.54165 237.0236,254.94065 C234.7781,255.62915 231.3701,256.71365 229.7981,257.40515" id="Fill-23" fill="#FFC999"></path>
        <path d="M285.33905,206.99555 C285.33905,206.99555 288.71405,176.22605 265.49555,173.82305 C237.45155,170.92055 235.04855,186.73055 232.80905,194.04455 C230.43305,201.81605 226.30805,234.85655 242.80505,242.90255 C249.84305,245.80655 254.21105,247.45655 266.94755,241.06955 C285.48305,231.77705 285.33905,206.99555 285.33905,206.99555" id="Fill-25" fill="#FFC999"></path>
        <path d="M277.19315,229.4801 L278.51315,212.2091 C278.51315,212.2091 292.40165,204.7286 293.45465,213.6191 C294.52715,222.6851 288.00665,228.5606 282.22265,230.3756 C278.50265,231.5426 277.19315,229.4801 277.19315,229.4801" id="Fill-27" fill="#FFC999"></path>
        <g id="分组" transform="translate(219.500000, 159.162500)">
            <mask id="mask-2" fill="white">
                <use xlink:href="#path-1"></use>
            </mask>
            <g id="Clip-30"></g>
            <path d="M58.074,10.0722 C58.074,10.0722 44.1045,-0.5208 37.2915,0.3927 C30.477,1.3077 35.5485,6.7887 35.5485,6.7887 C35.5485,6.7887 17.0115,2.7237 15.105,6.8532 C13.1985,10.9827 19.845,13.3017 19.845,13.3017 C19.845,13.3017 1.2975,17.5542 0.1695,22.9932 C-0.9585,28.4322 7.683,27.6132 7.683,27.6132 C7.683,27.6132 0.8055,35.1507 2.6745,39.8997 C4.542,44.6487 8.79,44.3052 8.79,44.3052 L11.433,50.6442 L13.0845,37.6212 C13.0845,37.6212 19.785,35.0772 32.181,29.8002 C24.477,37.0122 29.0205,37.2447 35.2275,36.3027 C42.5025,35.1987 51.0465,33.1032 50.6295,32.8737 C50.6295,32.8737 50.4135,41.3892 55.893,45.5532 C62.61,50.6562 57.162,60.2097 58.968,60.7272 C62.4375,61.7532 62.442,52.1667 69.279,50.8302 C74.5725,50.6832 75.7515,44.2602 74.3895,42.0042 C81.4005,41.3817 81.4905,34.1967 72.8145,27.5427 C80.6715,26.8947 76.194,19.4727 64.749,15.9162 C69.0015,3.2397 58.074,10.0722 58.074,10.0722" id="Fill-29" fill="#253368" mask="url(#mask-2)"></path>
        </g>
        <path d="M256.937351,201.588903 C260.263118,201.310991 263.799656,201.614182 267.268114,202.287802 C268.16799,202.46257 268.994372,202.649994 269.729945,202.837836 L270.208207,202.963662 L270.671362,203.094714 C271.265972,203.274931 271.601903,203.903052 271.421686,204.497662 C271.241469,205.092272 270.613348,205.428203 270.018738,205.247986 L269.633429,205.138799 C269.503865,205.103642 269.349998,205.063015 269.173235,205.017875 C268.478546,204.840475 267.694521,204.662657 266.839149,204.496533 C263.557149,203.859125 260.216506,203.572728 257.124716,203.831088 C256.710563,203.865696 256.303906,203.910087 255.905211,203.964512 C255.2896,204.048548 254.722424,203.617622 254.638388,203.002011 C254.554352,202.3864 254.985278,201.819224 255.600889,201.735188 C256.039056,201.675374 256.48468,201.62673 256.937351,201.588903 Z" id="Stroke-31" fill="#253368" fill-rule="nonzero"></path>
        <path d="M234.832011,201.005885 C238.419062,199.718449 241.917133,199.851799 245.043826,200.848747 C245.955419,201.139409 246.625207,201.435598 247.0104,201.646789 C247.555208,201.945492 247.754715,202.629292 247.456011,203.1741 C247.177222,203.682587 246.56297,203.890279 246.039359,203.672855 L245.752598,203.531909 C245.696214,203.505256 245.628523,203.474194 245.549908,203.43943 C245.208101,203.288279 244.809546,203.135653 244.360315,202.992416 C241.670727,202.134838 238.666142,202.0203 235.592089,203.123615 C235.007294,203.333505 234.363075,203.029584 234.153185,202.444789 C233.943295,201.859994 234.247216,201.215775 234.832011,201.005885 Z" id="Stroke-33" fill="#253368" fill-rule="nonzero"></path>
        <path d="M246.829209,203.262071 C247.097459,203.194575 247.369243,203.334295 247.475589,203.580197 L247.504679,203.665959 L248.439179,207.379959 L248.452186,207.580791 L246.967,220.198 L251.536521,221.472713 C251.802962,221.547033 251.969775,221.803083 251.940274,222.069366 L251.923037,222.158271 C251.848717,222.424712 251.592667,222.591525 251.326384,222.562024 L251.237479,222.544787 L246.209479,221.142287 C245.974707,221.0768 245.813436,220.867977 245.803004,220.63112 L245.806314,220.541209 L247.334,207.552 L246.425321,203.937541 C246.357825,203.669291 246.497545,203.397507 246.743447,203.291161 L246.829209,203.262071 Z" id="Stroke-35" fill="#DD936F" fill-rule="nonzero"></path>
        <path d="M258.598831,211.525912 C261.381757,209.818167 263.98151,209.947688 266.163831,211.203891 C266.775143,211.555779 267.211893,211.912808 267.459437,212.168982 C267.74727,212.46685 267.739135,212.941654 267.441268,213.229487 C267.1434,213.51732 266.668596,213.509185 266.380763,213.211318 C266.224265,213.049364 265.893779,212.779202 265.415512,212.503898 C263.681541,211.505778 261.663418,211.405234 259.383369,212.804388 C259.030328,213.021032 258.568506,212.91046 258.351862,212.557419 C258.135218,212.204378 258.24579,211.742556 258.598831,211.525912 Z" id="Stroke-37" fill="#253368" fill-rule="nonzero"></path>
        <path d="M238.186087,208.942751 C239.658059,208.515938 241.185796,208.815815 242.654601,209.556997 C243.244389,209.854613 243.693308,210.154234 243.958469,210.36525 C244.282577,210.623177 244.336228,211.09501 244.0783,211.419119 C243.843821,211.713763 243.43256,211.784888 243.116215,211.6016 L242.757315,211.349193 C242.526643,211.195237 242.264848,211.04048 241.978841,210.896157 C240.816908,210.309827 239.648525,210.080487 238.60382,210.38341 C238.122478,210.52298 237.669743,210.775534 237.245017,211.158261 C236.937305,211.435545 236.463072,211.410879 236.185789,211.103167 C235.908505,210.795455 235.933171,210.321222 236.240883,210.043939 C236.833536,209.50989 237.486637,209.145563 238.186087,208.942751 Z" id="Stroke-39" fill="#253368" fill-rule="nonzero"></path>
        <path d="M259.1507,225.26285 C259.1507,225.26285 251.1017,226.67585 243.5672,225.15635 C243.5672,225.15635 245.3792,229.85585 250.7327,230.08685 C257.4887,230.37935 259.1507,225.26285 259.1507,225.26285" id="Fill-41" fill="#FFFFFF"></path>
        <path d="M243.692636,224.534372 C243.20176,224.435376 242.795031,224.917386 242.975182,225.384616 C243.045964,225.568192 243.186056,225.867787 243.403823,226.245213 C243.762103,226.866171 244.214604,227.485947 244.770722,228.065364 C246.273134,229.630716 248.241173,230.614433 250.705347,230.72076 C253.914384,230.859695 256.331585,229.867163 258.032434,228.124004 C258.993632,227.138896 259.530033,226.148855 259.754161,225.458873 C259.901962,225.003865 259.512197,224.555187 259.040991,224.637907 L258.458713,224.728213 L257.852093,224.810686 C257.532723,224.851652 257.189707,224.891989 256.825048,224.930691 C252.956207,225.341304 248.854732,225.370982 245.026956,224.772529 C244.574205,224.701744 244.129272,224.62243 243.692636,224.534372 Z M244.840518,226.146697 L244.752,226.013 L244.830935,226.026298 C248.783959,226.644333 252.989457,226.613902 256.958978,226.192604 L257.678007,226.111137 L258.043,226.065 L257.93785,226.233004 C257.709662,226.576121 257.439451,226.914642 257.124161,227.237776 C255.671576,228.726494 253.602674,229.576011 250.760145,229.452944 C248.641505,229.361526 246.973448,228.527754 245.686259,227.18664 C245.365652,226.852603 245.084249,226.502202 244.840518,226.146697 Z" id="Stroke-43" fill="#FF7A46" fill-rule="nonzero"></path>
        <path d="M239.96786,241.341626 C240.192378,241.131735 240.544534,241.143593 240.754424,241.36811 L240.867348,241.482343 C241.004894,241.615822 241.216224,241.80536 241.500604,242.035828 C242.141591,242.555297 242.909341,243.076444 243.802137,243.563757 C248.63562,246.202003 254.789754,246.776806 262.256488,243.976587 C262.544263,243.868664 262.86504,244.014463 262.972963,244.302238 C263.080886,244.590013 262.935087,244.91079 262.647312,245.018713 C254.868666,247.935907 248.378621,247.329729 243.268895,244.540702 C242.314889,244.01998 241.491539,243.46109 240.799838,242.900522 C240.379399,242.559789 240.092923,242.290298 239.941376,242.12819 C239.731485,241.903672 239.743343,241.551516 239.96786,241.341626 Z" id="Stroke-45" fill="#DD936F" fill-rule="nonzero"></path>
        <path d="M249.386347,233.36103 L253.196347,233.44353 C253.503622,233.450184 253.747323,233.704673 253.74067,234.011947 C253.734681,234.288494 253.527946,234.513547 253.262656,234.550942 L253.172253,234.55627 L249.362253,234.47377 C249.054978,234.467116 248.811277,234.212627 248.81793,233.905353 C248.823919,233.628806 249.030654,233.403753 249.295944,233.366358 L249.386347,233.36103 Z" id="Stroke-47" fill="#DD936F" fill-rule="nonzero"></path>
        <path d="M284.81611,216.053586 C286.545929,213.511382 288.361435,212.987424 289.890037,213.753822 C290.123803,213.871025 290.294339,213.992487 290.397908,214.085893 C290.626143,214.291734 290.644298,214.643622 290.438457,214.871858 C290.255487,215.074734 289.957122,215.11162 289.732781,214.972743 L289.585352,214.861404 C289.538838,214.829663 289.473394,214.789984 289.391196,214.748773 C288.372909,214.238232 287.159238,214.588499 285.736263,216.679754 L285.478713,217.061827 C285.200951,217.478436 285.001499,217.794736 284.86789,218.028534 L284.758,218.232 L284.850937,218.2539 C285.076204,218.308642 285.189755,218.349456 285.348433,218.434578 L285.432258,218.4811 C285.885712,218.739582 286.231396,219.170839 286.456534,219.810104 C287.392416,222.464488 284.741574,224.297071 281.699801,224.138899 C281.392869,224.122939 281.15699,223.861183 281.172951,223.554251 C281.188911,223.247319 281.450667,223.01144 281.757599,223.027401 C284.133838,223.150965 285.999542,221.861165 285.406801,220.18001 C285.268077,219.786112 285.094691,219.569803 284.881077,219.448038 L284.791191,219.401149 C284.732961,219.374713 284.670307,219.355387 284.556366,219.32796 L284.341129,219.278844 C283.069422,218.996182 283.252178,218.351571 284.81611,216.053586 Z" id="Stroke-49" fill="#DD936F" fill-rule="nonzero"></path>
        <path d="M277.432591,228.977745 C277.710034,229.109985 277.827744,229.442098 277.695505,229.719541 L277.522026,230.073188 L277.177728,230.748376 C277.135984,230.82856 277.093115,230.910343 277.049162,230.993604 C276.546605,231.945599 276.004858,232.897855 275.443226,233.788739 C274.753191,234.883301 274.0804,235.80928 273.43698,236.516195 C272.982188,237.015868 272.545756,237.401917 272.123566,237.663273 C271.86224,237.825046 271.519251,237.744342 271.357477,237.483016 C271.195704,237.22169 271.276408,236.878701 271.537734,236.716927 C271.860449,236.517151 272.223053,236.196407 272.613874,235.767019 C273.206677,235.115716 273.843577,234.239134 274.501706,233.195184 C275.046583,232.330878 275.574702,231.402574 276.064891,230.474009 L276.421163,229.785182 L276.690795,229.240659 C276.823035,228.963216 277.155148,228.845506 277.432591,228.977745 Z" id="Stroke-51" fill="#DD936F" fill-rule="nonzero"></path>
        <path d="M213.69905,412.92275 C238.40255,415.13825 300.25955,414.63125 300.25955,414.63125 C310.45355,411.34025 304.84055,390.75725 304.84055,390.75725 C304.84055,390.75725 310.76405,344.69375 315.30455,308.46125 C317.25755,292.86125 323.44055,270.92525 322.38155,270.45125 C310.47905,265.12475 297.26105,261.74375 278.83355,258.25025 C278.29205,259.38875 272.91455,268.26125 255.59855,268.09925 C236.64305,267.92075 232.75205,259.33025 232.09955,257.82425 C222.86105,260.14625 215.71955,261.59375 204.90905,265.32275 C201.62255,266.45675 199.65455,269.83025 200.26205,273.25325 L201.23555,287.13275 C201.23555,287.13275 199.76555,320.33225 213.34505,395.81975 C206.95805,404.69375 213.69905,412.92275 213.69905,412.92275 Z" id="Fill-53" fill="#E4EBF7"></path>
        <path d="M281.978432,266.343359 C282.238719,266.17377 282.587202,266.247295 282.756791,266.507582 C282.92638,266.767869 282.852855,267.116352 282.592568,267.285941 C268.537021,276.443773 253.825458,276.955526 240.319945,272.334712 C238.547295,271.728213 236.958678,271.078008 235.576345,270.427065 L235.022975,270.160834 C234.935606,270.117852 234.850681,270.075594 234.768222,270.034101 L234.072475,269.671231 C233.973682,269.617536 233.899912,269.576146 233.851767,269.54822 C233.583042,269.392347 233.491557,269.048142 233.64743,268.779417 C233.803303,268.510692 234.147508,268.419207 234.416233,268.57508 L234.712643,268.738291 L234.828239,268.799696 C235.175923,268.983146 235.585998,269.188118 236.055627,269.409267 C237.401623,270.043098 238.952036,270.677667 240.684129,271.27029 C253.889311,275.788348 268.2488,275.288842 281.978432,266.343359 Z" id="Stroke-55" fill="#96A7CA" fill-rule="nonzero"></path>
        <path d="M201.780097,287.708307 C202.09073,287.712584 202.339236,287.967713 202.335151,288.278347 L202.330398,289.708148 C202.333942,291.616386 202.37197,294.153919 202.463672,297.283428 L202.496254,298.348471 C202.709006,305.027241 203.111936,312.574171 203.750523,320.900795 C205.523316,344.01649 208.784427,369.189811 213.89753,395.712972 C213.91937,395.826262 213.905845,395.943526 213.858789,396.048869 C210.206883,404.224201 210.888537,408.852921 214.108754,411.00413 C214.694207,411.395231 215.324327,411.668153 215.954334,411.842364 L216.216803,411.909662 C216.459756,411.966981 216.63997,411.995289 216.719722,412.002956 L224.227074,412.048791 C226.567771,412.065373 229.060809,412.0849 231.678493,412.107596 L238.403777,412.170515 C246.608956,412.253045 254.733752,412.356434 262.483324,412.483068 L272.25033,412.659765 C284.018577,412.895516 293.663371,413.180668 300.593221,413.520124 C300.903509,413.535323 301.142726,413.799183 301.127526,414.109471 C301.112327,414.419759 300.848467,414.658976 300.538179,414.643776 L298.015763,414.527755 C290.82488,414.216574 281.225483,413.953978 269.733424,413.735909 L264.568147,413.643019 C254.798258,413.476501 244.376717,413.347965 233.91169,413.252505 L222.493051,413.161877 L216.671916,413.126124 C216.4559,413.108677 216.101887,413.050385 215.654499,412.926672 C214.915331,412.722275 214.176276,412.402171 213.483832,411.939596 C209.805601,409.48242 209.002176,404.384278 212.651547,395.998369 L212.759,395.753 L212.412226,393.93595 C207.634651,368.761953 204.522975,344.823661 202.764813,322.727423 L202.628817,320.986821 L202.443886,318.50721 C201.939721,311.548447 201.602828,305.159637 201.40525,299.395075 L201.371824,298.38429 C201.256027,294.74915 201.209331,291.839922 201.205398,289.707768 L201.210249,288.263553 C201.214334,287.95292 201.469463,287.704414 201.780097,287.708307 Z" id="Stroke-57" fill="#96A7CA" fill-rule="nonzero"></path>
        <g id="分组" transform="translate(294.500000, 840.162500)">
            <mask id="mask-4" fill="white">
                <use xlink:href="#path-3"></use>
            </mask>
            <g id="Clip-60"></g>
            <path d="M1.4709,1.221 C1.4709,1.221 24.3204,12.4635 48.3744,0.0405 C50.1699,7.464 48.1524,16.188 24.5019,16.4955 C12.4104,16.653 5.9424,12.582 2.4954,10.494 C-1.0596,8.343 0.6519,3.2025 1.4709,1.221" id="Fill-59" fill="#96A7CA" mask="url(#mask-4)"></path>
        </g>
        <path d="M334.267784,833.08802 L334.270705,833.041018 C334.262549,832.626885 334.591659,832.284551 335.005792,832.276395 C335.385414,832.268919 335.704704,832.544839 335.761565,832.909866 L335.770499,833.011482 C335.774182,833.387993 335.651944,833.925201 335.304761,834.563962 C334.772562,835.543127 333.834003,836.496259 332.408446,837.363435 C330.278046,838.659371 327.198367,839.678857 323.014307,840.338606 C316.888825,841.303966 311.391544,840.499893 306.682064,838.567444 C305.519612,838.090452 304.496841,837.578429 303.62138,837.064804 L303.252866,836.843363 C302.915142,836.635197 302.670147,836.468416 302.521097,836.357034 C302.189293,836.109084 302.121316,835.639101 302.369266,835.307297 C302.617216,834.975493 303.087199,834.907516 303.419003,835.155466 L303.566912,835.260822 C303.746022,835.3839 304.018348,835.558603 304.380425,835.77103 C305.196659,836.249907 306.156416,836.730384 307.251488,837.179727 C311.719172,839.01296 316.942601,839.776977 322.780732,838.856903 C326.784374,838.225604 329.681416,837.266576 331.62889,836.081915 C332.835126,835.348154 333.585426,834.586204 333.98685,833.847646 C334.179293,833.493581 334.253143,833.230488 334.267784,833.08802 Z" id="Stroke-61" fill="#96A7CA" fill-rule="nonzero"></path>
        <path d="M330.58235,377.0111 C330.58235,377.0111 335.07935,346.1816 335.27435,317.4506 C335.45285,291.2531 331.68485,268.2401 315.11135,267.4166 C294.30035,266.3801 295.78835,303.0611 295.11485,321.6326 C294.63185,334.9961 296.21735,362.9726 298.16285,377.5271 C301.26635,400.7426 330.69185,397.3001 330.58235,377.0111" id="Fill-63" fill="#FFC999"></path>
        <path d="M294.84455,329.1224 C295.51655,310.5509 284.37155,263.6924 315.12155,267.1349 C333.25805,269.1644 336.75305,292.1489 334.92905,327.0089 L294.84455,329.1224 Z" id="Fill-65" fill="#E4EBF7"></path>
        <path d="M250.29125,294.47885 C250.29125,294.47885 279.98075,365.31485 298.93325,386.23835 C309.53075,397.94135 330.82475,390.82685 327.87725,372.35435 C325.45625,357.19385 268.50575,283.80185 268.50575,283.80185 C268.50575,283.80185 264.31475,275.91785 254.63525,281.12135 C244.59275,286.52135 250.29125,294.47885 250.29125,294.47885" id="Fill-67" fill="#FFC999"></path>
        <path d="M237.9134,273.4196 C237.9134,273.4196 245.8214,293.3261 255.8654,293.9906 C264.9614,294.5921 267.3014,283.0901 267.3014,283.0901 C267.3014,283.0901 268.1069,273.8891 266.2784,263.7506 C265.0814,257.1056 264.6899,244.1336 261.1244,243.8321 C256.4744,243.4406 259.0394,256.6376 256.2029,258.5021 C250.4549,262.2821 244.2329,241.9436 241.4534,239.1881 C236.0219,233.8001 228.2459,249.6131 237.9134,273.4196" id="Fill-69" fill="#FFC999"></path>
        <path d="M233.09992,245.796411 C234.580817,239.248075 238.296649,236.210989 241.467195,239.356143 C242.001085,239.885423 242.605678,240.893561 243.461094,242.606417 L243.918046,243.54113 C244.454167,244.663231 245.850636,247.626752 246.485868,248.94062 L246.633246,249.243651 C249.528747,255.14923 251.803036,258.395124 253.852907,258.910739 C254.427547,259.055281 254.969219,258.96112 255.517836,258.600244 C256.213947,258.142916 256.542275,256.842776 256.822133,253.706274 L257.028423,251.113051 C257.483124,245.698261 258.248544,243.626704 260.791771,243.840827 C263.176477,244.042394 264.236985,247.482295 265.267069,255.340763 L265.974599,261.042663 C266.146413,262.367013 266.290736,263.340384 266.448081,264.21367 C267.587746,270.538905 267.830635,276.865267 267.566168,282.271579 L267.520413,283.089917 L267.493,283.483 L316.415649,346.948096 C316.582441,347.164469 316.565246,347.464613 316.388405,347.660427 L316.314654,347.728599 C316.098281,347.895391 315.798137,347.878196 315.602323,347.701355 L315.534151,347.627604 L266.481151,283.993104 C266.395902,283.882514 266.355343,283.743918 266.36752,283.604817 L266.394367,283.249352 L266.439899,282.502156 C266.444835,282.410109 266.449708,282.315106 266.454498,282.217198 C266.70333,277.130497 266.496123,271.207723 265.50037,265.260684 L265.273284,263.955504 C265.142254,263.179231 265.016424,262.307728 264.871695,261.192446 L264.2731,256.338767 L264.059144,254.717325 C263.15997,248.228613 262.1554,245.073057 260.698211,244.949888 C259.122775,244.817246 258.502571,246.642755 258.110401,251.53852 L257.987121,253.146408 C257.656838,257.269828 257.309125,258.755117 256.129228,259.530282 C255.321893,260.06134 254.460123,260.211145 253.581405,259.990117 C251.059112,259.35567 248.70255,255.992354 245.633901,249.733629 L244.611876,247.600123 C243.85268,246.001938 242.974703,244.141188 242.755459,243.691783 L242.464236,243.101772 C241.666934,241.507067 241.10274,240.562073 240.68348,240.146434 C238.371361,237.852832 235.508237,240.192969 234.185505,246.041914 C232.576684,253.155911 233.721641,263.113929 238.050997,273.773441 C238.16665,274.058197 238.029566,274.382793 237.744809,274.498447 C237.460053,274.6141 237.135457,274.477016 237.019803,274.192259 C232.609111,263.332485 231.437863,253.145806 233.09992,245.796411 Z" id="Stroke-71" fill="#DD936F" fill-rule="nonzero"></path>
        <path d="M238.143599,240.280352 C238.448239,240.239648 238.728194,240.45361 238.768898,240.758249 C239.285734,244.62641 240.595248,248.578229 242.455488,252.44937 C243.316993,254.242154 244.240195,255.89855 245.162925,257.37767 L245.538171,257.969098 C245.659184,258.156514 245.775962,258.334095 245.888006,258.501516 L246.255944,259.039541 C246.311459,259.118656 246.354336,259.17849 246.383604,259.21841 C246.565328,259.466277 246.511708,259.81453 246.26384,259.996254 C246.015973,260.177978 245.66772,260.124358 245.485996,259.87649 L245.132921,259.372056 L244.786952,258.855013 C244.607009,258.581229 244.417002,258.284789 244.21861,257.966769 C243.275291,256.454646 242.332445,254.763005 241.452305,252.93144 C239.545034,248.962429 238.199758,244.902686 237.665702,240.905651 C237.624998,240.601011 237.83896,240.321056 238.143599,240.280352 Z" id="Stroke-73" fill="#DD936F" fill-rule="nonzero"></path>
        <path d="M234.763156,244.364524 C235.069302,244.337383 235.339484,244.56356 235.366626,244.869706 L235.408078,245.223713 L235.462964,245.610841 C235.494184,245.81704 235.531184,246.042057 235.574477,246.285279 C235.781641,247.449122 236.087271,248.781383 236.510374,250.25945 C237.721911,254.491828 239.631451,259.036891 242.391105,263.714579 C242.547275,263.979292 242.459284,264.320484 242.194571,264.476655 C241.929858,264.632825 241.588666,264.544834 241.432495,264.280121 C238.623212,259.518309 236.677095,254.886184 235.440351,250.56575 C235.006556,249.050333 234.692416,247.680977 234.478701,246.480327 L234.396958,245.998193 C234.372472,245.845712 234.350696,245.70152 234.331477,245.565799 L234.257974,244.967994 C234.230833,244.661848 234.45701,244.391666 234.763156,244.364524 Z" id="Stroke-75" fill="#DD936F" fill-rule="nonzero"></path>
        <path d="M233.60186,254.565157 C233.8973,254.480442 234.205477,254.651269 234.290193,254.94671 C234.518746,255.74378 234.753799,256.520881 234.994835,257.278124 C236.096701,260.73977 237.275912,263.65294 238.453315,266.03481 C238.805151,266.74657 239.134843,267.365441 239.43616,267.892769 L239.742453,268.413991 C239.861549,268.610559 239.948682,268.746192 240.000247,268.821665 C240.173628,269.075438 240.108458,269.421715 239.854685,269.595097 C239.600912,269.768478 239.254635,269.703308 239.081253,269.449535 L238.932828,269.221391 C238.871185,269.123463 238.797634,269.003599 238.712959,268.861633 L238.624603,268.712293 C238.270892,268.109789 237.877899,267.382402 237.455561,266.528019 C236.253495,264.096258 235.053238,261.131095 233.934267,257.61571 C233.689979,256.84825 233.45182,256.06088 233.220307,255.25349 C233.135592,254.95805 233.306419,254.649873 233.60186,254.565157 Z" id="Stroke-77" fill="#DD936F" fill-rule="nonzero"></path>
        <path d="M331.6736,606.63275 C337.5851,641.26475 332.5751,713.18675 331.1786,756.25175 C330.4946,777.37325 331.5206,790.10825 331.5206,790.10825 C331.5206,790.10825 336.4391,817.57925 335.1431,821.96075 C333.0971,828.88475 289.5941,840.53375 305.2676,800.69075 C300.1226,740.64875 292.5326,706.79075 285.2156,653.93525 C283.6226,642.42725 282.5231,621.01325 280.9931,610.01225 C280.9931,610.01225 277.7051,590.51825 302.2031,585.44975 C326.6981,580.38275 331.6736,606.63275 331.6736,606.63275" id="Fill-79" fill="#FFC999"></path>
        <path d="M329.23175,594.7418 C325.85225,537.3038 325.00925,518.4383 315.43475,472.8263 C315.43475,472.8263 281.92925,438.4763 267.57125,494.2253 C264.96725,504.3263 270.29375,539.0708 278.45825,597.3413 C278.45825,597.3413 278.55275,627.7403 305.57975,626.8388 C330.92075,625.9943 329.23175,594.7418 329.23175,594.7418" id="Fill-81" fill="#FFC999"></path>
        <path d="M336.5135,846.8165 C347.8925,845.33 341.3195,828.9185 336.7055,811.5935 C335.2985,806.312 335.381,807.77 333.713,802.9745 C331.373,796.247 302.717,799.3715 302.9225,804.4355 C303.3215,814.1915 300.158,822.7925 300.158,822.7925 C295.253,830.3615 293.153,841.1165 299.042,845.039 C314.3795,855.257 336.5135,846.8165 336.5135,846.8165" id="Fill-83" fill="#4E5C93"></path>
        <path d="M320.271494,810.755798 C324.911875,810.6742 328.547725,811.128224 330.853176,812.287039 C331.223268,812.473063 331.372484,812.923884 331.186461,813.293976 C331.000437,813.664068 330.549616,813.813284 330.179524,813.627261 C328.1504,812.607338 324.711828,812.17795 320.297867,812.255566 C317.700401,812.30124 314.913426,812.518293 312.106832,812.851716 C311.363286,812.940049 310.652657,813.032582 309.983491,813.126491 L308.772858,813.30453 L307.836677,813.455915 C307.428669,813.527341 307.04001,813.254486 306.968585,812.846477 C306.897159,812.438469 307.170014,812.04981 307.578023,811.978385 L308.314257,811.857864 L308.787668,811.784891 C309.741143,811.640733 310.798046,811.496652 311.929876,811.36219 C314.782764,811.023267 317.617983,810.802458 320.271494,810.755798 Z" id="Stroke-85" fill="#96A7CA" fill-rule="nonzero"></path>
        <path d="M320.05145,466.9298 C320.05145,466.9298 285.82145,432.9608 258.87395,494.8448 C265.03595,529.7018 271.16495,574.5413 271.16495,574.5413 C271.16495,574.5413 301.35695,582.0713 330.07595,568.5563 C322.41545,483.3323 320.05145,466.9298 320.05145,466.9298" id="Fill-87" fill="#597EF7"></path>
        <path d="M312.267915,462.413746 C312.576175,462.375205 312.857313,462.593855 312.895854,462.902115 L313.378322,466.829362 C314.408321,475.339598 315.823973,487.738109 317.540053,503.193613 L319.268504,518.866108 C320.065149,526.133198 320.881181,533.631872 321.700159,541.201798 L324.723044,569.341897 C324.755906,569.650814 324.53212,569.927881 324.223203,569.960744 C323.945177,569.99032 323.692951,569.812011 323.621329,569.550853 L323.591551,569.340591 L321.127899,546.377956 C320.126383,537.0974 319.123812,527.870081 318.150211,518.988768 L315.236349,492.702064 C313.786287,479.802342 312.611393,469.694986 311.779546,463.041685 C311.741005,462.733425 311.959655,462.452287 312.267915,462.413746 Z" id="Stroke-89" fill="#1D39C4" fill-rule="nonzero"></path>
        <path d="M325.535974,556.266446 C325.792651,556.091441 326.142598,556.157648 326.317604,556.414324 C326.492609,556.671001 326.426402,557.020948 326.169726,557.195954 C320.880095,560.802501 314.170415,563.134118 306.371727,564.373344 C297.580554,565.770278 288.207846,565.697518 279.359924,564.736956 C278.16361,564.60708 277.067365,564.469206 276.084247,564.330124 L275.057944,564.17823 L274.22847,564.042351 C273.922696,563.987465 273.719312,563.695093 273.774199,563.38932 C273.829085,563.083546 274.121457,562.880162 274.42723,562.935049 L275.231158,563.066645 C275.39756,563.092483 275.576024,563.119503 275.766223,563.147538 C276.854956,563.308014 278.100278,563.468594 279.481345,563.618528 C288.238354,564.56922 297.517076,564.64125 306.195178,563.262284 C313.842481,562.047113 320.39957,559.768521 325.535974,556.266446 Z" id="Stroke-91" fill="#1D39C4" fill-rule="nonzero"></path>
        <path d="M245.346085,505.00283 L261.958585,508.38083 C262.162652,508.422325 262.324545,508.572264 262.384252,508.766951 L262.40341,508.852943 L271.666,574.064 L272.487868,574.213583 L273.065277,574.312802 C274.512974,574.556715 276.162408,574.800754 277.983798,575.02859 C288.064929,576.28963 298.624512,576.535599 308.488258,575.129137 C316.771893,573.947982 323.973407,571.651769 329.780692,568.077994 C330.045267,567.915176 330.391737,567.997666 330.554556,568.262242 C330.717374,568.526817 330.634884,568.873287 330.370308,569.036106 C324.417302,572.699557 317.072269,575.041531 308.647064,576.242872 C298.670148,577.665471 288.016217,577.417304 277.844161,576.144891 C276.236201,575.943752 274.760332,575.729989 273.436404,575.514562 L272.878367,575.422167 C272.36563,575.335779 271.914574,575.255499 271.528903,575.183371 L271.05365,575.091716 C270.849688,575.05014 270.687909,574.900228 270.628237,574.705615 L270.60909,574.619657 L261.345,509.404 L245.121915,506.10527 C244.847927,506.049557 244.661277,505.803438 244.67139,505.532842 L244.68278,505.441965 C244.738493,505.167977 244.984612,504.981327 245.255208,504.991864 L245.346085,505.00283 Z" id="Stroke-93" fill="#1D39C4" fill-rule="nonzero"></path>
        <path d="M320.69315,471.06215 L267.11015,504.18965 C267.11015,504.18965 253.54115,507.72665 243.54815,503.63615 C229.03265,497.69315 212.77115,488.04215 201.643321,477.20315 C201.52865,441.72215 213.51515,421.73615 213.51515,421.73615 L304.64315,421.22615 C304.64315,421.22615 315.61415,427.07165 320.69315,471.06215" id="Fill-95" fill="#597EF7"></path>
        <path d="M212.64035,422.5502 L213.86885,411.6062 L304.64285,411.5117 L305.99885,423.5702 C305.99885,423.5702 221.92535,422.8757 212.64035,422.5502" id="Fill-97" fill="#597EF7"></path>
        <path d="M253.022834,412.311432 C253.30242,412.309322 253.535964,412.511485 253.581654,412.778404 L253.590223,412.929573 L253.640671,417.299442 L253.710818,421.908195 C253.748471,424.150086 253.79316,426.514808 253.845532,428.982358 L253.947834,433.512871 C254.18284,443.322137 254.505342,453.06473 254.929259,462.30799 L255.028892,464.431989 C255.83095,481.151603 256.90502,494.608473 258.287232,503.609119 C258.334387,503.916179 258.123692,504.203328 257.816631,504.250482 C257.509571,504.297637 257.222422,504.086942 257.175268,503.779881 L257.024909,502.775148 C255.707672,493.745428 254.67976,480.632603 253.905184,464.485895 C253.397449,453.901715 253.026362,442.609816 252.770441,431.273821 L252.677731,426.915356 C252.643396,425.194733 252.612889,423.529511 252.585975,421.926976 L252.508807,416.794042 L252.46475,412.878416 C252.462328,412.567765 252.712183,412.313956 253.022834,412.311432 Z" id="Stroke-99" fill="#1D39C4" fill-rule="nonzero"></path>
        <path d="M266.693869,422.278394 C267.004364,422.268575 267.264277,422.512074 267.274401,422.822569 L267.577678,431.65833 L267.839612,438.866556 C267.92859,441.255125 268.019064,443.622435 268.110524,445.947234 L268.467937,454.676311 C268.629418,458.451159 268.786804,461.887005 268.938626,464.922829 L269.146986,468.897936 C269.307484,471.804452 269.458556,474.16098 269.599356,475.936577 C269.4621,479.857762 266.796783,482.609511 262.511614,484.390619 C260.998512,485.019532 259.382933,485.482614 257.768136,485.806589 C257.316279,485.897245 256.889985,485.97166 256.495925,486.031431 L255.948024,486.108016 C255.793969,486.127571 255.67712,486.140422 255.601355,486.147477 C255.292033,486.176281 255.017928,485.948877 254.989123,485.639555 C254.960319,485.330233 255.187723,485.056128 255.497045,485.027323 L256.051429,484.959282 C256.501898,484.896579 257.004809,484.812316 257.546839,484.70357 C259.094473,484.393069 260.641325,483.949687 262.079826,483.351781 C266.001978,481.721559 268.356252,479.29094 268.47653,475.96224 L268.379839,474.693684 C268.24876,472.879055 268.109131,470.574909 267.96187,467.821741 L267.779872,464.270891 C267.5918,460.455728 267.395508,456.042179 267.19371,451.143634 L266.917975,444.239814 C266.827009,441.894294 266.737159,439.511608 266.648934,437.112997 L266.149999,422.859231 C266.139875,422.548736 266.383374,422.288823 266.693869,422.278394 Z" id="Stroke-101" fill="#1D39C4" fill-rule="nonzero"></path>
        <path d="M273.675826,421.796836 C286.888737,421.798427 297.805062,421.840615 305.77571,421.930736 C306.08635,421.934248 306.335326,422.188919 306.331956,422.49956 C306.328302,422.8102 306.073631,423.059176 305.76299,423.055664 L300.022974,423.002635 C291.1903,422.936567 279.798759,422.912747 266.415849,422.924795 L252.952553,422.947392 C248.369791,422.958358 243.705999,422.972599 239.003078,422.989644 L225.209014,423.046967 L212.643775,423.11269 C212.33312,423.114581 212.079752,422.864279 212.077819,422.553625 C212.075969,422.24297 212.326271,421.989602 212.636925,421.98771 L228.506051,421.906939 L243.68787,421.848557 C248.360522,421.833432 252.980093,421.821268 257.504689,421.812538 L273.675826,421.796836 Z" id="Stroke-103" fill="#1D39C4" fill-rule="nonzero"></path>
        <path d="M294.474579,423.198573 C294.784702,423.180309 295.050913,423.416906 295.069177,423.727029 L295.090606,424.031225 L295.14439,424.666535 L295.1671,424.907485 C295.258519,425.854262 295.38493,426.910019 295.551856,428.047313 C296.028583,431.295315 296.733479,434.542488 297.70929,437.56791 C299.950225,444.515748 303.258309,449.213348 307.774514,450.676482 C308.070052,450.772229 308.232014,451.089427 308.136268,451.384964 C308.040521,451.680502 307.723323,451.842464 307.427786,451.746718 C302.481662,450.1443 298.979559,445.171188 296.638604,437.913246 C295.64163,434.822209 294.923925,431.516033 294.438782,428.210685 C294.297342,427.247037 294.18446,426.340539 294.09686,425.506914 L294.003292,424.536823 L293.946123,423.793171 C293.927859,423.483048 294.164456,423.216837 294.474579,423.198573 Z" id="Stroke-105" fill="#1D39C4" fill-rule="nonzero"></path>
        <path d="M301.446221,422.829094 C301.727034,422.696225 302.062388,422.816158 302.195256,423.096971 L302.361698,423.463166 C302.468136,423.702384 302.587984,423.979029 302.720346,424.29301 L302.82195,424.535494 C303.260606,425.588553 303.743351,426.824156 304.260347,428.241287 L304.455807,428.781218 C306.142241,433.475508 307.827753,439.070792 309.400278,445.55548 C311.711674,455.087081 313.576034,465.718673 314.832592,477.433559 C314.865724,477.742448 314.642179,478.01971 314.333291,478.052842 C314.024402,478.085974 313.74714,477.862429 313.714008,477.553541 C312.462743,465.887998 310.606881,455.304866 308.306965,445.820606 C306.744006,439.375363 305.070071,433.818512 303.397057,429.161576 L303.013644,428.110484 C302.636789,427.093395 302.280068,426.178364 301.947626,425.365817 L301.589131,424.507065 C301.52752,424.362716 301.469108,424.227695 301.414006,424.102014 L301.178344,423.578129 C301.045475,423.297316 301.165408,422.961962 301.446221,422.829094 Z" id="Stroke-107" fill="#1D39C4" fill-rule="nonzero"></path>
        <path d="M218.782713,422.49054 C219.088298,422.546466 219.290686,422.839528 219.23476,423.145113 L219.183401,423.411329 C219.141079,423.624738 219.089988,423.871846 219.029992,424.149859 L218.941349,424.553614 L218.74533,425.40361 C218.641046,425.842151 218.527319,426.300385 218.40401,426.775521 C217.699154,429.491491 216.827878,432.20803 215.780218,434.747551 C213.228726,440.932354 210.060674,445.089003 206.143534,446.259792 C205.845884,446.348756 205.532472,446.179583 205.443508,445.881934 C205.354544,445.584284 205.523717,445.270872 205.821366,445.181908 C209.319096,444.136476 212.307438,440.215617 214.74024,434.318516 C215.766231,431.83152 216.622266,429.162503 217.315084,426.492919 C217.476796,425.869804 217.621699,425.276481 217.750083,424.71963 L217.999102,423.589157 C218.061404,423.291681 218.104274,423.072993 218.12814,422.942587 C218.178473,422.667561 218.420887,422.476124 218.691638,422.481151 L218.782713,422.49054 Z" id="Stroke-109" fill="#1D39C4" fill-rule="nonzero"></path>
        <path d="M259.30595,417.4247 C259.26845,418.5137 258.10295,419.3552 256.70495,419.3057 C255.30695,419.2562 254.20445,418.3352 254.24195,417.2477 C254.27945,416.1602 255.44495,415.3172 256.84295,415.3667 C258.24095,415.4162 259.34345,416.3372 259.30595,417.4247" id="Fill-111" fill="#1D39C4"></path>
        <path d="M334.444942,830.87751 C334.436978,830.46679 334.766198,830.124563 335.180334,830.116541 C335.559958,830.109187 335.879159,830.38521 335.935903,830.750255 L335.944878,830.851874 C335.948419,831.22787 335.826214,831.764749 335.479203,832.40323 C334.947167,833.382145 334.008966,834.335065 332.583994,835.202047 C330.4535,836.498283 327.373413,837.517823 323.188593,838.177258 C317.062268,839.142632 311.564818,838.338863 306.85565,836.406904 C305.69336,835.930069 304.670764,835.418212 303.795477,834.904754 L303.427035,834.683381 C303.089378,834.47528 302.844434,834.308549 302.695416,834.197198 C302.363604,833.949259 302.295613,833.479278 302.543552,833.147466 C302.791491,832.815654 303.261472,832.747663 303.593284,832.995602 L303.838426,833.166669 C304.013449,833.283209 304.252791,833.433979 304.554452,833.610938 C305.370504,834.089649 306.330079,834.569961 307.424983,835.01915 C311.892375,836.85192 317.116009,837.615655 322.955107,836.695542 C326.95948,836.064541 329.856841,835.105485 331.804331,833.920592 C333.01001,833.187033 333.759987,832.425289 334.161275,831.686942 C334.353613,831.333052 334.427427,831.070156 334.442076,830.927922 L334.444942,830.87751 Z" id="Stroke-113" fill="#96A7CA" fill-rule="nonzero"></path>
        <path d="M288.8138,392.60225 C288.8138,392.60225 208.4018,396.51125 179.9123,389.54975 C163.9808,385.65725 161.4578,361.23575 179.9123,355.19975 C187.2293,352.80725 211.4543,358.28975 240.1658,364.77275 C266.3513,370.68575 287.7503,374.62775 287.7503,374.62775 C287.7503,374.62775 299.0123,374.62775 299.0123,382.51175 C299.0123,393.91475 288.8138,392.60225 288.8138,392.60225" id="Fill-115" fill="#FFC999"></path>
        <path d="M304.451,394.2575 C304.451,394.2575 283.034,394.5635 278.579,385.538 C274.544,377.363 282.9635,372.938 282.9635,372.938 C282.9635,372.938 292.4705,366.5405 302.5385,364.3505 C309.1355,362.915 321.2705,358.3175 322.913,361.496 C325.0535,365.642 311.879,368.3195 311.24,371.6525 C309.9455,378.41 331.1165,376.3805 334.727,377.894 C341.7815,380.852 330.146,394.0865 304.451,394.2575" id="Fill-117" fill="#FFC999"></path>
        <path d="M197.391117,355.207437 L197.481012,355.218397 L282.528,372.621 L282.683666,372.493969 L282.873068,372.342418 C283.325805,371.983773 283.861491,371.585112 284.478111,371.156495 C286.234991,369.935275 288.291127,368.715312 290.630443,367.577279 C293.988375,365.943708 297.643661,364.619975 301.574686,363.712836 L303.404577,363.307222 C304.193417,363.1231 305.057081,362.892653 307.130344,362.320058 L310.54241,361.377709 L311.770668,361.048677 C318.930633,359.1639 322.344022,358.901485 323.406364,360.959165 C324.60862,363.286221 322.899164,364.785522 317.752188,367.410097 L315.411519,368.601865 C315.231173,368.697049 315.075082,368.781924 314.862232,368.89835 C312.918837,369.961354 311.918691,370.788969 311.787007,371.475824 C311.512565,372.908138 312.484592,373.951951 314.753964,374.729514 C316.639771,375.375655 319.229545,375.772536 322.74406,376.033173 L324.68277,376.161028 L329.662054,376.408731 C332.725287,376.574883 334.083539,376.739738 334.941142,377.09939 C339.059352,378.826183 337.674416,383.421218 332.190799,387.294038 C326.150153,391.560262 316.540276,394.349842 305.108359,394.525406 L304.392813,394.533189 L303.85122,394.532321 C303.644635,394.530476 303.412568,394.52693 303.156734,394.52125 L302.893043,394.514843 C301.941276,394.489774 300.907003,394.44127 299.811979,394.363798 C296.794321,394.1503 293.796741,393.754283 290.991908,393.130428 C290.311834,392.979165 289.649316,392.815608 289.005896,392.639319 C288.709474,392.558103 288.535015,392.251968 288.616231,391.955546 C288.697447,391.659124 289.003582,391.484665 289.300004,391.565881 C289.925632,391.737295 290.570691,391.896542 291.233558,392.043978 C293.979078,392.654641 296.923872,393.043683 299.890527,393.253573 C300.968516,393.32984 301.986458,393.377578 302.922348,393.402229 L303.858852,393.419347 L304.447747,393.419612 C315.952799,393.343046 325.591259,390.59239 331.548726,386.384912 C336.446669,382.925725 337.513831,379.385019 334.510731,378.125799 C333.738094,377.80178 332.17022,377.643706 328.545551,377.465884 L324.616853,377.272099 C324.123712,377.244332 323.749093,377.219297 323.176046,377.179867 C319.310708,376.913904 316.485209,376.499216 314.393202,375.782424 C311.663682,374.847199 310.290354,373.372447 310.693904,371.266317 C310.904881,370.165866 311.979828,369.236099 314.040935,368.080849 L314.889334,367.618902 L316.93088,366.57879 C321.624567,364.207476 323.164895,362.916604 322.417463,361.469894 C321.719908,360.118779 318.137103,360.487426 311.23646,362.342957 L305.419557,363.942105 C304.122573,364.29084 303.583805,364.414754 302.653568,364.613351 C298.491142,365.501421 294.636816,366.86597 291.117338,368.57813 C288.831568,369.690114 286.824637,370.880883 285.11337,372.070396 C284.615678,372.416345 284.173634,372.741244 283.788454,373.039289 L283.334823,373.39891 C283.201217,373.507708 283.106311,373.588186 283.050724,373.637371 C282.945906,373.730118 282.811077,373.779112 282.673582,373.777043 L282.570388,373.765803 L197.257888,356.308803 C196.956781,356.247189 196.762633,355.953146 196.824247,355.652038 C196.8797,355.381042 197.12342,355.196682 197.391117,355.207437 Z" id="Stroke-119" fill="#DD936F" fill-rule="nonzero"></path>
        <path d="M334.302074,380.974767 C334.599111,380.895831 334.903897,381.072637 334.982833,381.369674 C335.061769,381.666711 334.884963,381.971497 334.587926,382.050433 C333.963717,382.216314 333.327472,382.363936 332.679916,382.493832 C327.637103,383.505394 322.266539,383.415405 317.176359,382.657669 C316.334782,382.53239 315.573958,382.398058 314.906614,382.263545 L314.335348,382.143271 C314.222888,382.118332 314.133643,382.097551 314.068616,382.081624 C313.770092,382.008511 313.587362,381.707239 313.660476,381.408716 C313.733589,381.110192 314.034861,380.927462 314.333384,381.000576 L314.823934,381.110149 L315.126532,381.172489 C315.775769,381.303352 316.51797,381.434395 317.340237,381.5568 C322.313906,382.297192 327.562731,382.38514 332.461014,381.402571 C333.086405,381.277121 333.700335,381.134676 334.302074,380.974767 Z" id="Stroke-121" fill="#DD936F" fill-rule="nonzero"></path>
        <path d="M331.804425,385.692484 C332.097697,385.600542 332.409974,385.763753 332.501916,386.057025 C332.593858,386.350297 332.430647,386.662574 332.137375,386.754516 L331.877097,386.830288 C331.766652,386.860794 331.632667,386.896268 331.475572,386.935871 L331.310791,386.976818 C330.646812,387.139535 329.868811,387.301846 328.982273,387.453075 C324.076654,388.289889 318.192476,388.450402 311.548492,387.51102 C311.244172,387.467992 311.032353,387.186412 311.07538,386.882092 C311.118408,386.577772 311.399988,386.365953 311.704308,386.40898 C318.229187,387.331523 323.998502,387.174143 328.795118,386.355923 C329.511821,386.233666 330.153558,386.104327 330.717134,385.974041 L331.045875,385.895806 C331.425044,385.802886 331.679736,385.731574 331.804425,385.692484 Z" id="Stroke-123" fill="#DD936F" fill-rule="nonzero"></path>
        <path d="M322.906504,390.540766 C323.211881,390.506029 323.487598,390.725427 323.522334,391.030804 C323.557071,391.336181 323.337673,391.611898 323.032296,391.646634 C317.690839,392.254224 313.287107,392.282874 309.862301,391.953915 L309.439302,391.910948 C309.035162,391.867625 308.675049,391.821721 308.359324,391.775182 L307.896592,391.701244 C307.796519,391.683784 307.72207,391.669527 307.673396,391.659293 C307.372626,391.596054 307.180069,391.300966 307.243307,391.000196 C307.306546,390.699426 307.601634,390.506869 307.902404,390.570107 L308.305875,390.641035 L308.756999,390.707443 C308.999161,390.74046 309.266188,390.773014 309.557932,390.804288 C312.959932,391.168972 317.424516,391.164341 322.906504,390.540766 Z" id="Stroke-125" fill="#DD936F" fill-rule="nonzero"></path>
        <path d="M172.534057,321.244753 C172.613286,320.976619 172.874643,320.811982 173.143311,320.845912 L173.232897,320.864707 L203.498397,329.807707 C203.796323,329.89574 203.966476,330.208621 203.878443,330.506547 C203.799214,330.774681 203.537857,330.939318 203.269189,330.905388 L203.179603,330.886593 L172.914103,321.943593 C172.616177,321.85556 172.446024,321.542679 172.534057,321.244753 Z" id="Stroke-127" fill="#96A7CA" fill-rule="nonzero"></path>
        <path d="M334.910499,326.446856 C335.22099,326.43661 335.480998,326.680007 335.491556,326.990499 C335.500465,327.269941 335.304236,327.508492 335.038549,327.560877 L334.947601,327.571244 L303.173101,328.619744 C302.86261,328.62999 302.602602,328.386593 302.592044,328.076101 C302.583135,327.796659 302.779364,327.558108 303.045051,327.505723 L303.135999,327.495356 L334.910499,326.446856 Z" id="Stroke-129" fill="#96A7CA" fill-rule="nonzero"></path>
    </g>
</svg>