<svg xmlns="http://www.w3.org/2000/svg" xmlns:xlink="http://www.w3.org/1999/xlink" width="512" height="1024" version="1.1" viewBox="0 0 512 1024"><title>2.人物组件/9.互联网人群/站立/自信</title><desc>Created with Sketch.</desc><defs><polygon id="path-1" points=".643 1.429 49.201 1.429 49.201 16.5 .643 16.5"/></defs><g id="2.人物组件/9.互联网人群/站立/自信" fill="none" fill-rule="evenodd" stroke="none" stroke-width="1"><path id="Fill-1" fill="#FF7A46" d="M167.2217,546.8039 L208.1972,546.8789 L212.0012,665.9129 L189.3392,683.7089 L167.4152,681.2399 C167.4152,681.2399 165.4907,567.4634 167.2217,546.8039"/><path id="Fill-3" fill="#FFC999" d="M166.08215,334.2872 C166.08215,334.2872 166.93565,371.4812 167.38115,389.2352 C167.79365,405.5987 164.27015,490.1297 164.27015,490.1297 L186.40715,491.0492 C186.40715,491.0492 196.71065,437.6297 198.57515,411.0572 C199.80665,393.4997 200.72465,334.2197 200.72465,334.2197 C200.72465,334.2197 171.33815,325.9562 166.08215,334.2872"/><path id="Fill-5" fill="#597EF7" d="M314.10455,477.3014 L260.57705,503.1359 C260.57705,503.1359 247.38905,507.3584 238.08455,501.8804 C223.49855,493.2869 203.19005,477.4259 193.95905,472.3484 C195.26855,439.1459 205.94855,421.3619 205.94855,421.3619 L297.88505,422.0189 C297.88505,422.0189 309.90155,432.4274 314.10455,477.3014"/><path id="Fill-7" fill="#E4EBF7" d="M164.9204,348.3425 C164.9204,348.3425 163.1729,294.512 172.7474,282.0545 C183.8219,264.329 207.8894,265.052 207.8894,265.052 L205.3739,352.913 C205.3739,352.913 183.2954,353.72 164.9204,348.3425"/><path id="Fill-9" fill="#E4EBF7" d="M206.16605,411.65 C230.91155,413.333 297.24305,412.9925 297.24305,412.9925 C304.62605,410.342 302.80805,395.0255 302.80805,395.0255 L315.31055,274.1315 C315.31055,274.1315 298.95305,263.8895 273.25955,256.148 C245.98505,247.931 214.07105,257.213 194.59355,268.604 L195.47555,304.532 C195.47555,304.532 197.47955,363.251 204.28655,388.8335 C197.64905,402.2015 206.16605,411.65 206.16605,411.65"/><path id="Fill-11" fill="#FFC999" d="M335.273,341.468 C335.273,341.468 336.4535,381.1865 326.777,402.11 C323.3825,409.4465 318.011,413.696 308.18,412.9565 C286.8605,411.3515 271.2935,333.2705 271.2935,333.2705 L290.8025,329.9075 L304.811,353.078 L335.273,341.468 Z"/><path id="Fill-13" fill="#FFC999" d="M303.776,467.54405 C303.776,467.54405 269.927,474.84305 262.496,496.27205 C258.6785,507.28955 265.907,563.43755 274.9655,628.55405 C276.4955,639.55505 277.2275,645.81755 278.8205,657.32555 C286.1375,710.18105 292.9325,742.82555 298.0775,802.86755 C282.404,842.70905 324.449,833.65655 326.4965,826.73255 C327.7925,822.35105 324.3305,792.28355 324.3305,792.28355 C324.3305,792.28355 323.3045,779.55005 323.99,758.42705 C325.3835,715.36355 326.9915,659.62955 318.9815,621.51305 C303.8525,549.51605 326.0705,529.52705 303.776,467.54405"/><path id="Fill-15" fill="#FFC999" d="M202.85255,471.6647 C191.53055,488.8082 196.44455,534.0737 204.34205,614.4902 C209.86805,670.7612 217.85705,774.9797 217.85705,774.9797 C217.85705,774.9797 221.23505,804.2612 196.45805,812.9897 C185.37305,816.8942 174.73355,832.9397 177.87605,836.6402 C183.10655,842.8067 216.50855,835.0322 233.21555,818.5097 C241.35305,818.2697 249.91055,816.9917 249.39155,811.0187 C245.10905,761.7932 249.76505,728.0522 250.32755,678.4967 C250.55255,658.7882 246.84755,637.1417 246.94955,619.5587 C247.30355,558.3362 246.01655,492.0107 246.01655,492.0107 C246.01655,492.0107 229.81055,430.8422 202.85255,471.6647"/><path id="Fill-17" fill="#597EF7" d="M312.8609,469.9508 C312.8609,469.9508 278.6309,435.9818 251.6834,497.8658 C255.1859,530.0498 263.9744,577.5623 263.9744,577.5623 C263.9744,577.5623 291.4154,584.6558 323.7704,573.5543 C316.1099,488.3303 312.8609,469.9508 312.8609,469.9508"/><path id="Fill-19" fill="#597EF7" d="M252.76565,575.05775 C227.30915,583.50125 196.40465,576.60725 196.40465,576.60725 C195.77165,554.62625 189.25415,532.80275 194.42915,463.91075 C230.76065,432.77375 250.29815,484.31675 250.29815,484.31675 L252.76565,575.05775 Z"/><path id="Fill-21" fill="#4E5C93" d="M329.3228,848.9924 C340.7018,847.5059 334.1288,831.0944 329.5148,813.7709 C328.1078,808.4879 328.1918,809.9474 326.5223,805.1504 C324.1823,798.4229 295.5263,801.5474 295.7318,806.6114 C296.1308,816.3689 292.9673,824.9684 292.9673,824.9684 C288.0623,832.5374 285.9623,843.2924 291.8513,847.2149 C307.1888,857.4344 329.3228,848.9924 329.3228,848.9924"/><path id="Fill-23" fill="#4E5C93" d="M251.8121,823.1144 C251.8121,823.1144 226.1051,830.4614 217.4681,834.9254 C208.8281,839.3894 183.0461,851.3129 165.4451,840.0494 C162.7256,837.2069 163.3481,833.7689 164.6021,831.0899 C165.7946,828.5414 167.9606,826.5839 170.5931,825.5879 C178.5686,822.5759 197.6351,815.4194 207.0851,800.4044 C208.1906,798.6464 210.2471,797.7584 212.2826,798.1679 C214.7471,798.6644 217.9556,799.7699 220.2986,802.2194 C222.2501,804.2609 217.1876,812.3744 219.2786,812.6834 C225.0251,813.5324 234.5876,811.6424 240.6311,807.3959 C245.6921,803.8379 248.1326,800.2229 248.1326,800.2229 C248.1326,800.2229 254.0966,814.7759 251.8121,823.1144"/><path id="Fill-25" fill="#FFC999" d="M225.60455,256.2038 C225.60455,256.2038 228.05405,264.7088 247.89905,265.1543 C268.16705,265.6103 273.86405,256.4438 273.86405,256.4438 L268.98305,254.3618 C268.98305,254.3618 267.76805,240.0578 267.09755,219.1868 C245.01155,211.9313 229.79555,218.5598 229.79555,218.5598 C229.79555,218.5598 230.26055,240.1853 230.25905,254.3378 C230.25905,254.3378 227.69705,255.5483 225.60455,256.2038"/><path id="Fill-27" fill="#FFC999" d="M272.80775,203.3639 C272.80775,203.3639 273.92075,172.4309 250.58825,171.7334 C222.40625,170.8934 221.16725,186.8339 219.47075,194.2934 C217.66775,202.2179 215.97125,235.4714 233.01575,242.2889 C240.24725,244.6694 244.72325,245.9954 256.96025,238.6934 C274.76375,228.0689 272.80775,203.3639 272.80775,203.3639"/><path id="Fill-29" fill="#FFC999" d="M266.32865,226.38545 L266.38115,209.06345 C266.38115,209.06345 279.68315,200.58695 281.38415,209.37695 C283.11815,218.33945 277.04615,224.67545 271.40915,226.91045 C267.78515,228.34745 266.32865,226.38545 266.32865,226.38545"/><path id="Fill-31" fill="#253368" d="M262.2989,166.27415 C262.2989,166.27415 247.5914,156.73115 240.8624,158.14265 C234.1349,159.55415 239.5934,164.64665 239.5934,164.64665 C239.5934,164.64665 220.8074,161.94965 219.2084,166.20815 C217.6109,170.46815 224.4074,172.29365 224.4074,172.29365 C224.4074,172.29365 206.2214,177.89165 205.4954,183.39965 C204.7679,188.90615 213.3269,187.45565 213.3269,187.45565 C213.3269,187.45565 207.0194,195.47615 209.2304,200.07515 C211.4414,204.67565 215.6519,204.02165 215.6519,204.02165 L218.7539,210.15065 L219.4454,197.04215 C219.4454,197.04215 225.9419,194.01515 237.9194,187.84565 C230.7644,195.60215 235.3124,195.50015 241.4339,194.10665 C248.6084,192.47315 256.9754,189.75815 256.5434,189.55865 C256.5434,189.55865 256.9514,198.06815 262.7189,201.81815 C269.7944,206.41715 265.0589,216.34415 266.8964,216.72815 C270.4334,217.49615 269.7374,207.93515 276.4559,206.10365 C281.7254,205.56815 282.4319,199.07465 280.9064,196.92665 C287.8529,195.79115 287.4179,188.61815 278.2784,182.61815 C286.0679,181.39565 281.0579,174.32165 269.3834,171.61565 C272.6984,158.66015 262.2989,166.27415 262.2989,166.27415"/><path id="Stroke-33" fill="#253368" fill-rule="nonzero" d="M242.646114,200.325942 C249.284515,198.153603 255.926722,199.570508 258.504134,202.606578 C258.906237,203.080237 258.84823,203.790181 258.374572,204.192284 C257.900913,204.594387 257.190969,204.53638 256.788866,204.062722 C254.844086,201.771862 249.164466,200.560295 243.345886,202.464358 C242.755379,202.657594 242.120029,202.335543 241.926792,201.745036 C241.733556,201.154529 242.055607,200.519179 242.646114,200.325942 Z" transform="translate(250.321109, 201.868362) rotate(-8.000000) translate(-250.321109, -201.868362)"/><path id="Stroke-35" fill="#DD936F" fill-rule="nonzero" d="M234.12655,202.460182 C234.389129,202.373197 234.670427,202.492611 234.794518,202.730053 L234.829818,202.81345 L236.034318,206.44945 L236.062016,206.648832 L235.505,219.341 L240.154927,220.277905 C240.426093,220.33252 240.611205,220.57567 240.601277,220.843398 L240.590595,220.933327 C240.53598,221.204493 240.29283,221.389605 240.025102,221.379677 L239.935173,221.368995 L234.818673,220.338495 C234.579744,220.290373 234.403621,220.093927 234.375869,219.858477 L234.372584,219.768568 L234.945,206.704 L233.773282,203.16345 C233.686297,202.900871 233.805711,202.619573 234.043153,202.495482 L234.12655,202.460182 Z"/><path id="Stroke-37" fill="#253368" fill-rule="nonzero" d="M246.469522,209.840505 C249.187618,207.884835 251.844614,207.870549 254.133065,209.035258 C254.703236,209.325447 255.116613,209.620574 255.354409,209.833156 C255.663215,210.109221 255.689758,210.583352 255.413694,210.892159 C255.137629,211.200965 254.663498,211.227508 254.354691,210.951444 L254.21411,210.837164 C254.043905,210.708728 253.786146,210.541792 253.452689,210.372078 C251.632726,209.445807 249.571017,209.456892 247.345578,211.058095 C247.00935,211.300011 246.540671,211.223556 246.298755,210.887328 C246.056839,210.5511 246.133294,210.082421 246.469522,209.840505 Z"/><path id="Stroke-39" fill="#253368" fill-rule="nonzero" d="M226.547047,208.574635 C227.864219,208.280619 229.232363,208.52511 230.556594,209.100701 C231.109978,209.341234 231.533126,209.583916 231.784205,209.755286 C232.126326,209.988795 232.214373,210.455435 231.980864,210.797555 C231.747355,211.139676 231.280715,211.227723 230.938595,210.994214 L230.774655,210.889945 C230.581335,210.773851 230.30224,210.625713 229.958647,210.476367 C228.899354,210.015935 227.830832,209.824987 226.873832,210.038607 C226.235344,210.181129 225.659691,210.502255 225.14705,211.037513 C224.860545,211.336658 224.385782,211.346905 224.086637,211.0604 C223.787492,210.773895 223.777245,210.299132 224.06375,209.999987 C224.782627,209.249394 225.622088,208.781103 226.547047,208.574635 Z"/><path id="Fill-41" fill="#FFF" d="M248.0255,223.49975 C248.0255,223.49975 240.1025,225.49775 232.478,224.53475 C232.478,224.53475 234.6275,229.09025 239.9825,228.92825 C246.743,228.72275 248.0255,223.49975 248.0255,223.49975"/><path id="Stroke-43" fill="#FF7A46" fill-rule="nonzero" d="M247.870351,222.884511 L247.328607,223.010197 L246.996981,223.081657 C246.287195,223.23157 245.484179,223.381666 244.604876,223.521838 C240.836892,224.122502 236.969041,224.352239 233.371658,223.996745 C233.097491,223.969652 232.826074,223.939172 232.557508,223.905251 C232.060838,223.84252 231.690544,224.352763 231.904171,224.80551 C232.194628,225.421084 232.786988,226.30906 233.723557,227.194643 C235.355546,228.737788 237.444149,229.639831 240.001686,229.56246 C243.083363,229.468786 245.366717,228.387686 246.939419,226.641778 C247.936418,225.534979 248.451932,224.423869 248.641695,223.651056 C248.755776,223.186459 248.334226,222.767532 247.870351,222.884511 Z M246.981,224.38 L246.873123,224.580283 C246.637386,224.994375 246.347019,225.403384 245.996551,225.792449 C244.653039,227.283925 242.694985,228.211005 239.963222,228.294043 C237.765266,228.360536 235.995037,227.595995 234.595426,226.272577 L234.321528,226.001146 C234.145128,225.817949 233.981105,225.630627 233.829322,225.441345 L233.721,225.301 L233.246863,225.259594 C236.967278,225.627246 240.938083,225.391393 244.804648,224.775015 C245.255127,224.703203 245.686304,224.628804 246.096093,224.553089 L246.981,224.38 Z"/><path id="Stroke-45" fill="#DD936F" fill-rule="nonzero" d="M230.031855,240.988093 C230.213285,240.74001 230.561473,240.685976 230.809557,240.867405 L230.949664,240.964588 C231.093402,241.060502 231.304252,241.19249 231.579663,241.351169 C232.230734,241.726286 232.994634,242.102542 233.864359,242.454347 C239.188134,244.607818 245.50561,244.848238 252.511949,241.927934 C252.795639,241.809689 253.121472,241.943809 253.239716,242.227499 C253.357961,242.511189 253.223841,242.837022 252.940151,242.955266 C245.645991,245.995537 239.028081,245.743684 233.447001,243.486132 C232.528182,243.114469 231.718337,242.715583 231.024029,242.315555 L230.694351,242.120429 C230.446194,241.969247 230.264794,241.847886 230.152543,241.765795 C229.90446,241.584365 229.850426,241.236177 230.031855,240.988093 Z"/><path id="Stroke-47" fill="#DD936F" fill-rule="nonzero" d="M242.686664,232.09474 C242.993602,232.078897 243.255267,232.314876 243.27111,232.621814 C243.285369,232.898058 243.095651,233.137632 242.833808,233.194333 L242.744036,233.20626 L238.937036,233.40276 C238.630098,233.418603 238.368433,233.182624 238.35259,232.875686 C238.338331,232.599442 238.528049,232.359868 238.789892,232.303167 L238.879664,232.29124 L242.686664,232.09474 Z"/><path id="Stroke-49" fill="#DD936F" fill-rule="nonzero" d="M272.949038,212.437623 C274.515107,209.728059 276.317006,209.100846 277.900443,209.797849 C278.11409,209.891892 278.272231,209.989819 278.369888,210.065733 C278.612544,210.254359 278.656344,210.603982 278.467717,210.846638 C278.300049,211.062333 278.005174,211.120906 277.771291,210.998781 L277.686812,210.944467 C277.657168,210.921424 277.575604,210.870917 277.452039,210.816525 C276.39665,210.351961 275.199109,210.768806 273.912584,212.994713 L273.485617,213.749635 C273.30699,214.075083 273.179055,214.325141 273.094643,214.511645 L273.05,214.613 L273.064276,214.615135 C273.38116,214.665426 273.567041,214.716174 273.789369,214.834628 L273.904346,214.899809 C274.30143,215.137086 274.621811,215.517632 274.860325,216.063349 C275.987043,218.642899 273.476732,220.664637 270.431833,220.727482 C270.124552,220.733824 269.870311,220.489864 269.863968,220.182583 C269.857626,219.875302 270.101586,219.621061 270.408867,219.614718 C272.787324,219.565629 274.554047,218.142757 273.840427,216.50897 C273.691629,216.168522 273.523473,215.968787 273.333434,215.85523 C273.226998,215.791629 273.142724,215.760222 272.978759,215.729739 L272.737232,215.691601 C272.112934,215.602701 271.747702,215.324264 271.876655,214.644816 C271.952335,214.246067 272.250688,213.645102 272.949038,212.437623 Z"/><path id="Fill-51" fill="#E4EBF7" d="M305.4209,352.22435 L336.4244,349.14635 C336.4244,349.14635 336.7604,292.23335 322.3274,278.37335 C305.5109,262.22435 295.7339,283.69085 295.7339,283.69085 C295.7339,283.69085 295.0949,295.50485 297.4424,316.39685 C299.1404,331.52885 300.8324,343.70585 301.6379,349.27085 C301.9034,351.11285 303.5714,352.40735 305.4209,352.22435"/><path id="Fill-53" fill="#FFC999" d="M291.33215,329.2145 C291.33215,329.2145 292.05815,283.121 280.86365,282.869 C275.96015,275.8925 274.79615,279.4805 274.79615,279.4805 C274.79615,279.4805 270.17465,276.1235 269.35415,280.4405 C264.67565,279.614 266.38265,286.4105 269.30765,294.08 C271.71365,300.3845 268.39865,309.2675 265.87115,309.2105 C263.34365,309.1535 257.55815,299.006 251.84465,303.896 C249.03965,306.299 257.51765,308.7215 260.58965,316.7405 C263.66165,324.758 266.21165,333.4235 273.37715,336.113 C280.54565,338.804 291.23465,333.5495 291.33215,329.2145"/><path id="Stroke-55" fill="#DD936F" fill-rule="nonzero" d="M280.406203,282.550406 C280.581826,282.298179 280.928667,282.23608 281.180894,282.411703 C281.405096,282.567813 281.479073,282.859205 281.369399,283.099179 L281.319597,283.186394 C281.284131,283.23733 281.21308,283.372025 281.13625,283.588298 C280.713146,284.779313 280.822654,286.397454 281.872126,288.454841 L282.021101,288.738117 C283.78531,291.991452 284.402331,298.774581 284.275257,304.554502 C284.265816,304.971328 284.094487,305.54315 283.701046,306.55537 L282.497696,309.529374 C282.309752,309.999121 282.143035,310.425523 281.97964,310.855901 C280.973521,313.506 280.300045,315.797383 279.969722,317.974889 C279.446017,321.427179 279.862953,324.258946 281.416902,326.401689 C281.59734,326.650495 281.541916,326.998465 281.293111,327.178902 C281.044305,327.35934 280.696335,327.303916 280.515898,327.055111 C278.764602,324.640246 278.30569,321.523382 278.869311,317.807959 C279.213442,315.539433 279.907413,313.17832 280.939106,310.460859 L281.324938,309.466235 L282.485441,306.603163 L282.802054,305.787183 C283.044464,305.134674 283.15784,304.736925 283.162534,304.529668 C283.281729,299.10812 282.710299,292.644246 281.172903,289.520854 L281.042545,289.268398 C279.705575,286.799503 279.539003,284.759604 280.087463,283.21572 C280.198915,282.901987 280.316148,282.679742 280.406203,282.550406 Z"/><path id="Stroke-57" fill="#DD936F" fill-rule="nonzero" d="M274.463575,279.033452 C274.710307,278.850189 275.058886,278.901642 275.242148,279.148375 C275.405048,279.367692 275.382494,279.667482 275.202183,279.860105 L275.127225,279.926948 C275.111545,279.938595 275.051472,280.003779 274.979114,280.13183 C274.535364,280.917136 274.635337,282.278241 275.772283,284.393883 L275.913726,284.651393 C277.04231,286.662841 277.858179,289.09445 278.43426,291.924387 C278.779683,293.621245 279.029409,295.405391 279.224093,297.39827 L279.295504,298.164989 C279.318499,298.42412 279.340873,298.688647 279.363184,298.964073 L279.582779,301.896486 L279.622916,302.394072 C279.675115,303.010835 279.722965,303.448051 279.777528,303.792012 C279.82568,304.095563 279.618639,304.380675 279.315088,304.428828 C279.011537,304.47698 278.726425,304.269939 278.678272,303.966388 L278.635267,303.66862 C278.600512,303.404878 278.56804,303.098984 278.534706,302.72735 L278.401776,301.019226 L278.320621,299.911952 C278.252953,299.01137 278.189845,298.258652 278.116366,297.506483 C277.925139,295.548989 277.68053,293.8014 277.343628,292.146404 C276.825769,289.602475 276.111289,287.406343 275.152296,285.581328 L274.943038,285.195942 C273.498106,282.619872 273.336057,280.777163 274.010116,279.58428 C274.163347,279.313106 274.328863,279.13351 274.463575,279.033452 Z"/><path id="Stroke-59" fill="#DD936F" fill-rule="nonzero" d="M269.292274,279.887984 C269.597751,279.854142 269.872824,280.074346 269.906666,280.379824 L269.938847,280.620088 C269.949522,280.692191 269.962645,280.776384 269.978418,280.871903 C270.044877,281.274379 270.134153,281.723981 270.249317,282.208713 C270.578247,283.593204 271.047394,284.977038 271.679396,286.263747 C271.83784,286.586327 272.004926,286.899051 272.180879,287.201087 L272.451487,287.646021 C273.306058,288.993296 273.887265,291.391331 274.269768,294.578734 C274.474095,296.281396 274.607599,298.102401 274.684402,299.922938 L274.712433,300.664399 C274.720411,300.903654 274.72706,301.13469 274.73249,301.356547 L274.749053,302.354276 C274.750054,302.661621 274.501719,302.91159 274.194374,302.912603 C273.887029,302.913604 273.63706,302.665269 273.636053,302.357924 L273.626957,301.704532 C273.616518,301.181384 273.598895,300.598112 273.572391,299.96985 C273.496707,298.175827 273.365215,296.382274 273.164696,294.711347 C272.817107,291.814877 272.296773,289.604419 271.60689,288.400343 L271.511765,288.242419 C271.212237,287.77073 270.935459,287.273717 270.680398,286.754432 C270.00845,285.386396 269.513299,283.92586 269.166458,282.465981 C269.075441,282.082883 268.999653,281.720023 268.937692,281.38234 L268.880288,281.053233 C268.837526,280.794266 268.811995,280.60673 268.800434,280.502376 C268.766592,280.196899 268.986796,279.921826 269.292274,279.887984 Z"/><path id="Fill-61" fill="#597EF7" d="M205.0835,422.18675 L206.1755,411.22775 L297.275,411.58625 L298.448,422.03075 C298.448,422.03075 214.373,422.39675 205.0835,422.18675"/><path id="Stroke-63" fill="#1D39C4" fill-rule="nonzero" d="M242.348759,411.478091 C242.628352,411.478091 242.859644,411.683737 242.902378,411.951145 L242.90906,412.205042 L242.913577,416.371963 L242.934421,420.467741 C242.952132,423.111636 242.978838,425.897758 243.015947,428.79784 L243.032491,430.047627 C243.179034,440.760289 243.443834,451.393522 243.853527,461.410978 L243.943546,463.547956 C244.669101,480.277168 245.751517,493.735117 247.247317,502.722249 C247.298321,503.028694 247.091246,503.318463 246.784801,503.369467 C246.478356,503.420471 246.188587,503.213396 246.137583,502.906951 C244.659773,494.027913 243.586604,480.857564 242.859634,464.50826 L242.819603,463.596702 C242.388575,453.658439 242.104569,443.067505 241.940848,432.359243 L241.875755,427.575372 C241.851332,425.525883 241.832117,423.53663 241.817598,421.617909 L241.783674,414.338859 L241.784453,412.038791 C241.785452,411.728133 242.0381,411.477104 242.348759,411.478091 Z"/><path id="Stroke-65" fill="#1D39C4" fill-rule="nonzero" d="M256.149816,422.773187 C256.429143,422.760968 256.669786,422.954626 256.72502,423.219734 L256.739318,423.378302 L256.970897,428.895898 L257.168147,433.81763 C257.233486,435.482289 257.298205,437.167306 257.361689,438.861507 L257.486824,442.258844 C257.539721,443.720878 257.590545,445.161114 257.639078,446.575636 L257.877223,453.92643 C258.171772,463.659172 258.298846,470.943122 258.209757,474.910335 C258.120964,478.846581 255.473125,481.636392 251.187204,483.470088 C249.688371,484.111352 248.087942,484.589903 246.488259,484.930841 C246.040611,485.026248 245.618282,485.105265 245.227885,485.169388 L244.685059,485.252095 C244.532423,485.273394 244.416645,485.287588 244.341567,485.29553 C244.03263,485.328207 243.755697,485.104254 243.72302,484.795317 C243.690343,484.48638 243.914296,484.209447 244.223233,484.17677 L244.492105,484.143085 C244.572476,484.132053 244.666173,484.118567 244.772356,484.10245 C245.218599,484.034719 245.716797,483.944995 246.253756,483.830554 C247.786983,483.503778 249.319465,483.045545 250.744682,482.435777 C254.668576,480.756971 257.00819,478.291912 257.085042,474.885022 L257.099371,474.089725 C257.160583,469.726374 257.009428,462.089784 256.69429,452.066752 L256.562473,448.019169 C256.499864,446.157591 256.433055,444.247943 256.36256,442.29952 L256.109095,435.532075 L255.758014,426.789826 L255.612437,423.359734 C255.59886,423.049371 255.839452,422.786765 256.149816,422.773187 Z"/><path id="Stroke-67" fill="#1D39C4" fill-rule="nonzero" d="M225.89039,498.146525 L252.21689,504.652025 C252.404087,504.698283 252.552229,504.836331 252.613708,505.014624 L252.637005,505.106885 L264.473,577.128 L264.971038,577.272962 C265.1235,577.315881 265.285737,577.360463 265.457626,577.406524 L265.722686,577.476703 C267.023253,577.817014 268.541097,578.157732 270.261141,578.475992 C285.886062,581.367072 304.248541,580.454033 323.569683,573.029532 C323.85967,572.918099 324.185085,573.062846 324.296518,573.352833 C324.407951,573.64282 324.263204,573.968235 323.973217,574.079668 C304.441009,581.585275 285.872075,582.508579 270.056456,579.582215 C268.30898,579.25888 266.764465,578.912174 265.437902,578.565061 L264.908026,578.423098 C264.741101,578.377261 264.583916,578.332969 264.43659,578.290405 L264.004903,578.162146 C263.91175,578.133571 263.842539,578.111571 263.797675,578.096766 C263.627213,578.040513 263.495634,577.907084 263.440133,577.739975 L263.418895,577.653815 L251.586,505.655 L225.62051,499.238675 C225.349081,499.171602 225.17284,498.917925 225.194635,498.648003 L225.209375,498.55766 C225.276448,498.286231 225.530125,498.10999 225.800047,498.131785 L225.89039,498.146525 Z"/><path id="Fill-69" fill="#96A7CA" d="M163.5113,836.59835 C163.5113,836.59835 167.5703,844.14485 187.0058,842.48435 C206.4428,840.82385 215.1683,831.87035 225.3473,830.13185 C244.2713,826.90085 252.3713,821.55335 252.3713,821.55335 C252.3713,821.55335 253.4498,824.40635 251.9573,828.36035 C249.6533,834.45785 231.6938,833.05685 221.2823,838.32185 C213.7493,842.13185 207.8378,844.34285 195.1778,847.72835 C182.5193,851.11535 166.3163,847.93385 164.3138,843.69335 C162.3113,839.45435 163.5113,836.59835 163.5113,836.59835"/><path id="Fill-71" fill="#FFC999" d="M186.46535,533.79755 C186.46535,533.79755 169.05635,534.58505 168.15785,529.89155 C164.67935,511.67405 164.47235,489.70655 164.47235,489.70655 C164.47235,489.70655 165.80585,479.70155 173.32535,478.58855 C180.42335,477.53855 186.65285,488.05655 190.84985,497.16305 C196.51235,509.44805 192.89285,516.91955 192.93485,530.48255 C192.94685,534.79055 192.14135,537.18305 186.46535,533.79755"/><g id="分组" transform="translate(287.000000, 838.752500)"><mask id="mask-2" fill="#fff"><use xlink:href="#path-1"/></mask><path id="Fill-73" fill="#96A7CA" d="M1.78035,2.60805 C1.78035,2.60805 24.62985,13.85055 48.68535,1.42905 C50.47935,8.85105 48.69735,16.18455 25.04835,16.49355 C12.95535,16.65105 6.25185,13.96905 2.80485,11.88255 C-0.75015,9.73005 0.96135,4.58955 1.78035,2.60805" mask="url(#mask-2)"/></g><path id="Stroke-75" fill="#1D39C4" fill-rule="nonzero" d="M250.948167,504.610433 C251.227732,504.606542 251.462624,504.807137 251.510102,505.073743 L251.51879,505.164867 L252.514964,573.623367 C252.517985,573.842924 252.393128,574.044269 252.195036,574.139004 C247.24605,576.505813 241.648354,578.11342 235.521323,579.042206 C225.271617,580.595942 214.32091,580.19319 203.807612,578.581889 C201.999568,578.304782 200.339162,578.010008 198.85037,577.713148 L198.300164,577.601758 C197.958189,577.531463 197.640725,577.464148 197.348695,577.400412 L196.269033,577.153531 C195.967496,577.078798 195.783635,576.77377 195.858369,576.472233 C195.933102,576.170696 196.23813,575.986835 196.539667,576.061569 L197.048655,576.180984 L197.885105,576.365337 C198.087908,576.408705 198.301859,576.453585 198.526681,576.499799 C200.134804,576.830362 201.963371,577.161098 203.978043,577.469874 C214.388312,579.065384 225.231444,579.464179 235.352712,577.929913 C241.102125,577.058369 246.367575,575.581618 251.045411,573.435278 L251.384,573.276 L250.39391,505.181233 C250.389842,504.901668 250.590437,504.666776 250.857043,504.619298 L250.948167,504.610433 Z"/><path id="Stroke-77" fill="#1D39C4" fill-rule="nonzero" d="M245.673616,507.052788 C245.971552,506.96479 246.284414,507.134979 246.372412,507.432916 C246.45161,507.701058 246.321677,507.98129 246.077703,508.098806 L245.992284,508.131712 L224.728284,514.412212 C224.430348,514.50021 224.117486,514.330021 224.029488,514.032084 C223.95029,513.763942 224.080223,513.48371 224.324197,513.366194 L224.409616,513.333288 L245.673616,507.052788 Z"/><path id="Stroke-79" fill="#1D39C4" fill-rule="nonzero" d="M205.07704,421.624287 L212.392179,421.55498 L221.854395,421.488339 C231.968495,421.428961 242.212415,421.407033 252.051188,421.437627 L259.20363,421.469815 C276.153504,421.571049 289.645631,421.841167 298.458703,422.315061 C298.768915,422.331742 299.006869,422.596741 298.990189,422.906953 C298.973508,423.217165 298.708509,423.455119 298.398297,423.438439 L295.932411,423.316652 C287.17322,422.918907 274.6176,422.686895 259.196028,422.59479 L257.36856,422.584598 C245.940509,422.525306 233.810074,422.543169 221.860792,422.613321 L212.401531,422.679941 L205.08996,422.749213 C204.779321,422.752781 204.524605,422.50385 204.52089,422.19321 C204.517469,421.882571 204.7664,421.627855 205.07704,421.624287 Z"/><path id="Stroke-81" fill="#1D39C4" fill-rule="nonzero" d="M285.587356,424.29522 C285.890356,424.226657 286.191567,424.416706 286.26013,424.719706 L286.332361,425.024267 C286.393588,425.276372 286.467405,425.569285 286.553884,425.899592 C286.80141,426.845027 287.10046,427.899214 287.451575,429.034817 C288.454543,432.278695 289.672474,435.522068 291.10852,438.545303 C294.444994,445.569418 298.425816,450.306782 303.00508,451.726582 C303.301805,451.818581 303.467768,452.133705 303.375768,452.43043 C303.283769,452.727155 302.968645,452.893118 302.67192,452.801118 C297.713742,451.263836 293.551683,446.310793 290.092334,439.027995 C288.630874,435.951255 287.394564,432.658941 286.376776,429.367132 C286.079985,428.407226 285.819748,427.504248 285.595674,426.673897 L285.401806,425.938952 L285.16287,424.967994 C285.094307,424.664994 285.284356,424.363783 285.587356,424.29522 Z"/><path id="Stroke-83" fill="#1D39C4" fill-rule="nonzero" d="M292.705419,423.717287 C292.970882,423.55592 293.316896,423.640306 293.478263,423.905769 L293.675661,424.244326 L293.984618,424.798609 C294.058993,424.934765 294.137116,425.079572 294.218852,425.233031 C294.800686,426.325408 295.448148,427.633595 296.14475,429.157288 C298.131609,433.503192 300.117134,438.70748 301.969384,444.767674 C304.936233,454.474611 307.272124,465.44175 308.739091,477.664416 L309.061107,480.469825 C309.710001,486.352753 310.475995,494.591257 311.338186,504.822271 L312.043325,513.367083 C312.223051,515.587523 312.405511,517.872395 312.590454,520.217383 L312.813561,523.059947 C313.595816,533.073656 314.389035,543.707038 315.162078,554.423017 L316.120156,567.892254 L316.673802,575.87876 C316.694894,576.188703 316.460734,576.45706 316.15079,576.479472 C315.840847,576.499244 315.57249,576.265084 315.551398,575.95514 L314.395179,559.452891 L313.861298,552.033336 C313.204839,542.981138 312.53566,534.017734 311.872636,525.468623 L311.248292,517.521979 L310.472178,507.967063 C309.356158,494.515012 308.391551,484.209036 307.622108,477.79848 C306.163146,465.642514 303.841126,454.740501 300.893515,445.096505 C299.055956,439.08438 297.088114,433.92644 295.121606,429.625049 C294.587213,428.456158 294.082882,427.417355 293.616356,426.508781 L293.225916,425.761899 C293.066531,425.462658 292.921679,425.197945 292.792413,424.96778 L292.516937,424.490131 C292.35557,424.224668 292.439956,423.878654 292.705419,423.717287 Z"/><path id="Stroke-85" fill="#1D39C4" fill-rule="nonzero" d="M322.095593,560.356729 C322.367881,560.207166 322.709859,560.306655 322.859421,560.578943 C323.008984,560.851231 322.909495,561.193209 322.637207,561.342771 C317.123096,564.371563 308.80345,566.010309 298.412835,566.521515 C290.705431,566.90071 282.455411,566.637561 274.41095,565.967767 L273.01269,565.8468 C271.873895,565.744514 270.802331,565.638896 269.806824,565.532706 L268.314976,565.366582 L267.288087,565.241452 C266.980077,565.200963 266.763209,564.918448 266.803698,564.610437 C266.844187,564.302427 267.126702,564.085559 267.434713,564.126048 L268.445668,564.249199 L269.34194,564.350715 C270.875859,564.519743 272.608737,564.68882 274.504296,564.846647 C282.503289,565.512655 290.706329,565.774305 298.357554,565.397874 C308.591966,564.894353 316.765659,563.284356 322.095593,560.356729 Z"/><path id="Stroke-87" fill="#1D39C4" fill-rule="nonzero" d="M251.193174,561.256838 C251.487439,561.157247 251.806721,561.31506 251.906312,561.609324 C252.005903,561.903589 251.84809,562.222871 251.553826,562.322462 C235.516627,567.750108 219.611132,568.057489 205.482513,565.325228 C203.62987,564.966955 201.979742,564.582847 200.552275,564.198358 L199.981707,564.041196 C199.801745,563.990457 199.632063,563.941433 199.472823,563.89433 L198.781734,563.680488 C198.48718,563.581758 198.328433,563.262938 198.427162,562.968384 C198.525892,562.67383 198.844712,562.515083 199.139266,562.613812 L199.568439,562.748597 L200.032632,562.885858 C200.28031,562.957351 200.551237,563.032984 200.844867,563.112073 C202.246795,563.489683 203.87064,563.867673 205.696114,564.220692 C219.647473,566.918674 235.361289,566.614997 251.193174,561.256838 Z"/><path id="Stroke-89" fill="#96A7CA" fill-rule="nonzero" d="M195.231849,302.08565 C195.646063,302.08565 195.982163,302.420736 195.98255,302.834949 L195.994107,304.254421 C196.008004,305.415247 196.032332,306.762253 196.069644,308.279909 L196.120463,310.168965 C196.232448,314.006408 196.407232,318.195497 196.657664,322.657961 C197.492335,337.531028 198.983538,352.403221 201.293611,366.27835 C202.582579,374.020363 204.096657,381.239963 205.85136,387.838404 C205.907239,388.048535 205.869175,388.272574 205.747032,388.452459 L205.591601,388.692932 C205.486278,388.861632 205.350765,389.087961 205.192228,389.367522 C204.765539,390.119935 204.338039,390.973176 203.938921,391.908964 C202.145632,396.11358 201.524865,400.430635 202.747861,404.423621 C203.405274,406.570022 204.587261,408.555245 206.35662,410.353439 L206.478,410.474 L211.148051,410.413684 C212.470994,410.398419 213.888326,410.3834 215.391446,410.368999 C228.72329,410.241268 242.679391,410.212472 255.9036,410.341031 L258.941731,410.373518 C275.138505,410.562774 288.367015,410.985337 297.593904,411.686808 C298.006926,411.718208 298.316292,412.078483 298.284892,412.491504 C298.253492,412.904526 297.893217,413.213892 297.480196,413.182492 L295.850192,413.064359 C286.94522,412.448963 274.67149,412.067231 259.853627,411.884573 L258.924205,411.873416 C245.831914,411.720435 231.901526,411.729167 218.490765,411.841255 L211.834264,411.905978 L206.186803,411.978558 C205.988748,411.981662 205.797508,411.906291 205.654826,411.768898 C203.513242,409.706689 202.086875,407.387504 201.313627,404.862907 C199.970227,400.476811 200.639714,395.820935 202.559173,391.320495 C202.981463,390.330377 203.434042,389.427082 203.887433,388.627582 C204.007051,388.416651 204.120531,388.224015 204.226327,388.050582 L204.317,387.902 L204.09232,387.044432 C202.557849,381.115231 201.212606,374.709317 200.04511,367.893338 L199.813977,366.524694 C197.493947,352.589754 195.997519,337.665444 195.160021,322.742009 C194.908802,318.265523 194.733456,314.062943 194.621091,310.212368 L194.570097,308.316775 C194.541995,307.173723 194.521221,306.126727 194.506696,305.182331 L194.48255,302.836351 C194.48255,302.422137 194.817636,302.08565 195.231849,302.08565 Z"/><path id="Stroke-91" fill="#96A7CA" fill-rule="nonzero" d="M164.192186,348.163045 C164.291296,347.760864 164.697673,347.515176 165.099855,347.614286 L166.160742,347.86809 L167.756813,348.23717 C168.185061,348.33459 168.634678,348.435669 169.104419,348.53995 C172.236915,349.235354 175.618192,349.93082 179.121559,350.579849 C183.55384,351.400967 187.860955,352.087414 191.920851,352.594675 C194.28043,352.889491 196.527131,353.119786 198.644361,353.279628 C199.057399,353.310811 199.366954,353.670923 199.335772,354.083961 C199.304589,354.496999 198.944477,354.806554 198.531439,354.775372 C196.388545,354.613592 194.117714,354.380824 191.73488,354.083102 C187.64336,353.571889 183.307797,352.880909 178.848321,352.054753 C175.717821,351.4748 172.684895,350.858087 169.838022,350.237246 L168.779338,350.0043 C167.834417,349.794531 166.970129,349.597567 166.196403,349.417066 L164.740945,349.070714 C164.338764,348.971604 164.093076,348.565227 164.192186,348.163045 Z"/><path id="Stroke-93" fill="#96A7CA" fill-rule="nonzero" d="M275.691176,263.459701 C276.04345,263.241812 276.505659,263.350752 276.723549,263.703026 C276.941438,264.0553 276.832498,264.517509 276.480224,264.735399 C261.527687,273.983878 246.374076,274.762838 232.810101,270.539779 C231.140414,270.019933 229.650949,269.462384 228.360106,268.903859 C228.087772,268.786026 227.835825,268.673066 227.604761,268.565969 L226.953891,268.252822 C226.86093,268.206133 226.79119,268.169928 226.745168,268.145196 C226.380304,267.949117 226.243476,267.494383 226.439554,267.129518 C226.635633,266.764654 227.090367,266.627826 227.455232,266.823904 L227.827272,267.011252 L228.237368,267.205892 C228.456296,267.307344 228.69593,267.414774 228.955762,267.527199 C230.199041,268.065143 231.638742,268.604064 233.256004,269.107588 C246.436472,273.211244 261.147951,272.455012 275.691176,263.459701 Z"/><path id="Stroke-95" fill="#96A7CA" fill-rule="nonzero" d="M224.31687,256.25502 C224.609763,255.962127 225.084637,255.962127 225.37753,256.25502 L225.543997,256.412802 C225.596141,256.460744 225.658356,256.517011 225.730581,256.581087 C226.037826,256.853667 226.4058,257.158928 226.833546,257.48879 C228.062648,258.436627 229.519806,259.386449 231.197364,260.273937 C242.681813,266.34962 257.103683,266.381649 274.11141,256.287391 C274.467611,256.075982 274.92775,256.193359 275.139159,256.54956 C275.350568,256.905761 275.233191,257.3659 274.87699,257.577309 C257.406229,267.946382 242.429514,267.91312 230.495922,261.599825 C228.740262,260.671018 227.21194,259.67481 225.917539,258.676617 C225.462059,258.325368 225.067642,257.99817 224.735111,257.703157 L224.521734,257.510518 C224.430366,257.426358 224.362018,257.360828 224.31687,257.31568 C224.023977,257.022787 224.023977,256.547913 224.31687,256.25502 Z"/><path id="Stroke-97" fill="#96A7CA" fill-rule="nonzero" d="M336.353948,348.399202 C336.766338,348.360375 337.132121,348.663208 337.170948,349.075598 C337.206539,349.453622 336.955041,349.792484 336.595233,349.876242 L336.494552,349.892598 L304.312052,352.922598 C303.899662,352.961425 303.533879,352.658592 303.495052,352.246202 C303.459461,351.868178 303.710959,351.529316 304.070767,351.445558 L304.171448,351.429202 L336.353948,348.399202 Z"/><path id="Stroke-99" fill="#DD936F" fill-rule="nonzero" d="M290.989423,331.778916 C291.246143,331.60993 291.591247,331.681052 291.760234,331.937773 L313.197191,364.609464 C316.624681,369.857948 319.051074,373.597815 320.233813,375.462133 C320.398459,375.721659 320.321543,376.065518 320.062017,376.230163 C319.802491,376.394809 319.458632,376.317893 319.293987,376.058367 L316.711088,372.045596 C314.67528,368.905425 311.783609,364.474898 308.19801,358.999033 L301.527044,348.824622 L290.830566,332.549727 C290.66158,332.293007 290.732702,331.947903 290.989423,331.778916 Z"/><path id="Stroke-101" fill="#1D39C4" fill-rule="nonzero" d="M211.226919,422.050297 C211.532831,422.104404 211.736959,422.396257 211.682853,422.702169 L211.51427,423.58025 L211.334164,424.449323 C211.237605,424.901521 211.131295,425.379271 211.015269,425.878344 C210.462545,428.255823 209.803908,430.633799 209.039875,432.856701 C206.557968,440.07764 203.565973,444.125706 199.837779,443.177339 C199.536707,443.100753 199.354725,442.794601 199.431311,442.493529 C199.507897,442.192457 199.814049,442.010475 200.115121,442.087061 C202.979436,442.815677 205.685828,439.154022 207.975965,432.491025 C208.726137,430.308449 209.374859,427.966271 209.919492,425.623595 L210.135501,424.668752 C210.203222,424.360718 210.266658,424.063351 210.325793,423.777917 L210.545073,422.670791 C210.557311,422.605014 210.567304,422.550008 210.575047,422.506231 C210.623743,422.23091 210.865013,422.038034 211.135791,422.041509 L211.226919,422.050297 Z"/><path id="Fill-103" fill="#1D39C4" d="M251.68175,416.4752 C251.65625,417.5642 250.50275,418.4207 249.10325,418.3877 C247.70525,418.3577 246.58925,417.4487 246.61475,416.3612 C246.64025,415.2722 247.79225,414.4157 249.19325,414.4472 C250.59125,414.4787 251.70575,415.3862 251.68175,416.4752"/><path id="Fill-105" fill="#4E5C93" d="M180.14015,517.09985 C180.14015,517.09985 173.96165,529.56635 172.32365,561.07685 C172.26965,562.11935 173.48315,564.89885 174.51665,564.77435 C177.48215,564.41885 177.68615,560.31935 177.68615,560.31935 C177.68615,560.31935 177.61115,535.63085 183.36515,523.93235 C184.27715,520.99535 180.14015,517.09985 180.14015,517.09985"/><path id="Stroke-107" fill="#DD936F" fill-rule="nonzero" d="M175.554566,514.328447 C175.853941,514.335325 176.345584,514.402114 176.966638,514.580346 C177.989227,514.873811 179.010073,515.382777 179.961322,516.158954 C181.84657,517.697234 183.209426,520.077287 183.842476,523.432351 L184.053908,524.62767 C185.317939,531.428118 187.542589,533.99916 190.506238,534.064083 C190.813511,534.070815 191.057148,534.325365 191.050553,534.632638 C191.043685,534.939911 190.789135,535.183548 190.481862,535.176953 C186.843479,535.097112 184.225174,531.996046 182.887606,524.432723 L182.817177,524.023268 C182.263314,520.712362 181.002922,518.445351 179.257679,517.021309 C178.429418,516.345484 177.543647,515.903863 176.659619,515.650163 C176.136702,515.500095 175.738591,515.446012 175.529534,515.441309 C175.222265,515.434397 174.978778,515.179703 174.985547,514.872434 C174.992603,514.565165 175.247297,514.321678 175.554566,514.328447 Z"/><path id="Stroke-109" fill="#96A7CA" fill-rule="nonzero" d="M192.907318,829.332486 C193.276887,829.222343 193.66577,829.432649 193.775914,829.802218 C193.886057,830.171787 193.675751,830.56067 193.306182,830.670814 C184.83068,833.196782 177.934331,833.201886 172.675572,831.680917 C171.342358,831.295317 170.433979,830.903634 169.955821,830.630401 C169.620998,830.439073 169.504672,830.012544 169.695999,829.677721 C169.887327,829.342898 170.313856,829.226572 170.648679,829.417899 L170.769586,829.48197 C170.873754,829.534436 171.025016,829.605652 171.223171,829.691094 C171.732612,829.910759 172.346278,830.13194 173.063573,830.3394 C178.066686,831.786429 184.689933,831.781528 192.907318,829.332486 Z"/><path id="Stroke-111" fill="#96A7CA" fill-rule="nonzero" d="M201.433038,807.170645 L201.680039,807.212713 C201.751446,807.225833 201.833536,807.241535 201.925653,807.259959 C202.303994,807.335627 202.72419,807.4326 203.176037,807.553107 C204.467631,807.89757 205.760005,808.362919 206.972388,808.969277 C208.70473,809.835685 210.130049,810.919832 211.135711,812.257065 C211.384672,812.588111 211.31813,813.058299 210.987085,813.307261 C210.656039,813.556222 210.185851,813.48968 209.936889,813.158635 C209.086728,812.028172 207.841834,811.081262 206.30142,810.310844 C205.188445,809.754203 203.989364,809.322447 202.789503,809.002448 C202.369341,808.890393 201.979814,808.800496 201.63148,808.73083 L201.330325,808.673857 C201.279267,808.664896 201.239122,808.658338 201.210562,808.654055 C200.80093,808.59262 200.51866,808.210744 200.580095,807.801112 C200.636411,807.425616 200.961985,807.157139 201.331378,807.162322 L201.433038,807.170645 Z"/><path id="Stroke-113" fill="#96A7CA" fill-rule="nonzero" d="M327.0815,829.218785 C327.073473,828.80465 327.402689,828.462418 327.816824,828.454391 C328.196449,828.447032 328.515653,828.723052 328.572401,829.088096 L328.581378,829.189715 C328.584924,829.565979 328.46247,830.103206 328.114793,830.742038 C327.581794,831.721386 326.641943,832.674685 325.214474,833.542006 C323.08393,834.836511 320.005266,835.855223 315.823607,836.515106 C309.698125,837.480466 304.200844,836.676393 299.491364,834.743944 C298.328912,834.266952 297.306141,833.754929 296.43068,833.241304 C295.898433,832.92904 295.529131,832.682043 295.330397,832.533534 C294.998593,832.285584 294.930616,831.815601 295.178566,831.483797 C295.426516,831.151993 295.896499,831.084016 296.228303,831.331966 L296.376212,831.437322 C296.555322,831.5604 296.827648,831.735103 297.189725,831.94753 C298.005959,832.426407 298.965716,832.906884 300.060788,833.356227 C304.528472,835.18946 309.751901,835.953477 315.589943,835.033417 C319.591389,834.401972 322.487712,833.443596 324.435585,832.260081 C325.643702,831.526037 326.395196,830.76379 326.797277,830.024995 C326.98996,829.670953 327.063897,829.407991 327.078571,829.265767 L327.0815,829.218785 Z"/><path id="Stroke-115" fill="#96A7CA" fill-rule="nonzero" d="M313.080742,812.931442 C317.721139,812.849522 321.357005,813.303363 323.662476,814.462189 C324.032568,814.648213 324.181784,815.099034 323.995761,815.469126 C323.809737,815.839218 323.358916,815.988434 322.988824,815.802411 C320.95972,814.782498 317.521164,814.353286 313.107219,814.431208 C310.510211,814.477055 307.723736,814.694257 304.917582,815.027822 C303.801931,815.160439 302.760344,815.302512 301.82168,815.444508 L300.646042,815.632554 C300.23804,815.704016 299.849357,815.431195 299.777896,815.023192 C299.706434,814.61519 299.979255,814.226507 300.387258,814.155046 L301.353501,813.998626 L301.597321,813.961382 C302.551116,813.817097 303.608357,813.672889 304.740525,813.538309 C307.592972,813.199241 310.427691,812.978278 313.080742,812.931442 Z"/><path id="Stroke-117" fill="#DD936F" fill-rule="nonzero" d="M266.53069,225.866921 C266.817065,225.978505 266.958762,226.301114 266.847179,226.58749 L266.696905,226.960535 C266.576527,227.253798 266.438349,227.580226 266.284352,227.931609 C265.84412,228.936102 265.36467,229.940901 264.861215,230.881048 C264.059217,232.378692 263.273199,233.569545 262.5145,234.351606 C262.29853,234.574227 262.084709,234.763536 261.871938,234.917896 C261.623164,235.098376 261.275184,235.043013 261.094704,234.794238 C260.914224,234.545464 260.969587,234.197484 261.218362,234.017004 C261.375631,233.902909 261.542019,233.755594 261.715649,233.576618 C262.386714,232.88489 263.12282,231.769656 263.880043,230.355624 C264.368286,229.443883 264.835601,228.464517 265.264954,227.484845 L265.576123,226.758034 L265.810121,226.18341 C265.921705,225.897035 266.244314,225.755338 266.53069,225.866921 Z"/><path id="Stroke-119" fill="#253368" fill-rule="nonzero" d="M221.749447,202.23835 C224.106744,200.348234 226.673979,199.510601 229.898205,200.167432 C231.284056,200.449753 232.739997,201.013935 234.274162,201.879826 C234.815248,202.185219 235.006316,202.871425 234.700924,203.412512 C234.395531,203.953598 233.709325,204.144666 233.168238,203.839274 C231.831404,203.084757 230.594718,202.605537 229.449067,202.372148 C226.951905,201.863433 225.032951,202.489546 223.156953,203.99375 C222.672213,204.382422 221.964172,204.304543 221.5755,203.819803 C221.186828,203.335063 221.264707,202.627022 221.749447,202.23835 Z"/><polygon id="Fill-121" fill="#FAAD14" points="189.763 683.716 185.804 547.031 164.969 546.563 159.5 680.81"/></g></svg>