<?xml version="1.0" encoding="UTF-8"?>
<svg width="512px" height="1024px" viewBox="0 0 512 1024" version="1.1" xmlns="http://www.w3.org/2000/svg" xmlns:xlink="http://www.w3.org/1999/xlink">
    <!-- Generator: Sketch 61.2 (89653) - https://sketch.com -->
    <title>2.人物组件/9.互联网人群/站立/讲解</title>
    <desc>Created with Sketch.</desc>
    <defs>
        <polygon id="path-1" points="0.615204399 0.65338806 43.365 0.65338806 43.365 83.6266984 0.615204399 83.6266984"></polygon>
        <polygon id="path-3" points="0.815346593 1.251 79.8242251 1.251 79.8242251 62.3137604 0.815346593 62.3137604"></polygon>
        <polygon id="path-5" points="0 0.216227646 131.969139 0.216227646 131.969139 36.4472946 0 36.4472946"></polygon>
    </defs>
    <g id="2.人物组件/9.互联网人群/站立/讲解" stroke="none" stroke-width="1" fill="none" fill-rule="evenodd">
        <path d="M325.8791,351.05375 C325.8791,351.05375 313.5131,322.45775 298.5896,297.90575 C284.9786,275.51975 269.6861,257.91575 255.1496,265.91975 C236.8961,275.96975 257.4296,306.40025 266.6111,322.55675 C273.2186,334.18325 289.2626,357.15725 298.5626,368.52125 C313.3976,386.64575 336.6296,368.26175 325.8791,351.05375" id="Fill-1" fill="#FFC999"></path>
        <path d="M270.3146,329.07305 C261.1331,312.91655 232.4831,278.39105 255.0101,265.67405 C270.9041,256.70255 286.5581,275.59655 303.3146,306.22055 L270.3146,329.07305 Z" id="Fill-3" fill="#E4EBF7"></path>
        <g id="分组" transform="translate(356.000000, 195.749000)">
            <mask id="mask-2" fill="white">
                <use xlink:href="#path-1"></use>
            </mask>
            <g id="Clip-6"></g>
            <path d="M0.98505,67.27425 L14.99655,28.84725 C14.99655,28.84725 35.54205,-1.65075 41.96505,0.79275 C47.86905,3.91575 33.40455,12.00975 30.00255,20.80575 C35.83905,20.82075 32.56455,29.26275 32.56455,29.26275 C32.56455,29.26275 37.19955,29.43525 35.43555,36.38175 C39.53955,39.24075 35.50155,47.06175 35.50155,47.06175 C35.50155,47.06175 25.30305,67.70025 14.69805,81.18375 C14.69805,81.18375 -2.05995,92.25075 0.98505,67.27425" id="Fill-5" fill="#FFC999" mask="url(#mask-2)"></path>
        </g>
        <path d="M360.43475,249.94445 C360.43475,249.94445 363.08825,236.60645 364.83575,229.84145 C366.58175,223.07645 364.60175,210.47795 369.35825,214.13045 C372.55775,216.58595 371.42675,223.90895 370.90475,229.33145 C370.38275,234.75545 378.20225,248.28095 371.00375,256.71095 C366.14225,262.40495 359.11625,262.68095 360.43475,249.94445" id="Fill-7" fill="#FFC999"></path>
        <path d="M385.628235,216.14254 C385.855892,215.93606 386.20783,215.953228 386.41431,216.180885 C386.62079,216.408542 386.603622,216.76048 386.375965,216.96696 L386.011837,217.305984 L385.548271,217.749872 C385.386006,217.907251 385.216352,218.073819 385.040371,218.248889 C384.034682,219.24937 383.029052,220.320464 382.09174,221.417597 C381.128028,222.545632 380.29203,223.637647 379.621591,224.667524 C377.536337,227.870734 377.286382,230.024816 379.160151,230.974349 C379.434306,231.113277 379.543929,231.448146 379.405001,231.722301 C379.266073,231.996456 378.931204,232.106079 378.657049,231.967151 C375.957626,230.599219 376.28854,227.747439 378.688825,224.060304 C379.388215,222.985953 380.252639,221.856808 381.245511,220.694641 C382.204094,219.572609 383.22978,218.480155 384.255407,217.459839 L384.773745,216.950572 L385.578935,216.187545 C385.597695,216.17033 385.614151,216.155314 385.628235,216.14254 Z" id="Stroke-9" fill="#DD936F" fill-rule="nonzero"></path>
        <path d="M388.45969,224.925996 C388.628167,225.183051 388.55636,225.528013 388.299304,225.69649 L387.927099,225.947545 L387.452662,226.277514 C387.286586,226.394644 387.112944,226.518751 386.932825,226.649344 C385.903731,227.395475 384.874803,228.198798 383.91628,229.027239 C382.778641,230.010487 381.818633,230.962649 381.095013,231.853756 C379.490593,233.829532 379.225797,235.218152 380.391939,236.057948 C381.02014,236.510302 381.785805,236.586278 382.699761,236.322412 C383.609038,236.059896 384.60931,235.475597 385.633257,234.665433 C386.149098,234.257291 386.63706,233.818745 387.080692,233.380322 L387.289136,233.171151 C387.446884,233.010253 387.563979,232.884358 387.634696,232.804531 C387.838499,232.574475 388.190212,232.553192 388.420269,232.756996 C388.650325,232.960799 388.671608,233.312512 388.467804,233.542569 L388.271019,233.756292 C388.162064,233.871347 388.025145,234.011765 387.86304,234.171966 C387.392042,234.637434 386.874263,235.102778 386.323858,235.538268 C385.19652,236.430236 384.080192,237.082328 383.008484,237.391738 C381.789864,237.743563 380.674414,237.632879 379.74154,236.961137 C377.8838,235.623287 378.277718,233.557535 380.231006,231.152143 C381.00121,230.203669 382.005339,229.207748 383.188486,228.185167 C384.17328,227.334021 385.226477,226.51175 386.279508,225.748263 C386.555888,225.547877 386.81756,225.362281 387.060883,225.193089 L387.689196,224.76561 C387.946251,224.597133 388.291213,224.66894 388.45969,224.925996 Z" id="Stroke-11" fill="#DD936F" fill-rule="nonzero"></path>
        <path d="M389.804313,231.974995 C390.110612,231.949652 390.379462,232.177413 390.404805,232.483713 C390.430148,232.790012 390.202387,233.058862 389.896087,233.084205 C388.913938,233.165467 387.637473,233.933143 386.068945,235.524346 C382.765189,238.874598 381.947834,241.177762 382.903627,241.836111 C383.856817,242.492667 386.187883,241.631955 387.779343,239.679498 C388.216208,239.143539 389.044397,239.726558 388.687187,240.318593 C387.037172,243.05331 385.213548,245.077558 383.125191,246.631469 L382.77606,246.887885 C381.358747,247.913609 380.354262,248.436398 377.71167,249.600046 L376.686027,250.048621 C371.87857,252.140698 369.974472,253.90721 368.618231,258.768642 C368.535642,259.064684 368.2287,259.237721 367.932658,259.155131 C367.636616,259.072542 367.463579,258.7656 367.546169,258.469558 C369.006383,253.235434 371.155642,251.241476 376.241909,249.028068 L377.832787,248.329063 C380.166207,247.288129 381.042659,246.793737 382.460777,245.73854 C383.504411,244.96199 384.479303,244.059562 385.399595,242.994588 L385.635,242.715 C384.429482,243.239031 383.247804,243.320852 382.415463,242.842894 L382.272273,242.752714 C380.48133,241.519115 381.542258,238.529605 385.276381,234.742929 C387.014118,232.980072 388.506822,232.082348 389.804313,231.974995 Z" id="Stroke-13" fill="#DD936F" fill-rule="nonzero"></path>
        <path d="M371.553858,221.996 C371.830459,221.99359 372.0617,222.193379 372.107152,222.457408 L372.115228,222.547608 L372.205,232.826 L372.26129,232.940935 C372.351352,233.127425 372.451366,233.343236 372.558835,233.586058 C372.864855,234.277494 373.17051,235.048887 373.455771,235.881895 C374.329759,238.434082 374.829026,241.000209 374.758337,243.412623 C374.693619,245.621254 374.146822,247.587758 373.037435,249.236208 C372.865835,249.49119 372.520023,249.558784 372.265042,249.387185 C372.01006,249.215585 371.942466,248.869773 372.114065,248.614792 C373.096469,247.155028 373.586879,245.391316 373.645814,243.380024 C373.71204,241.119915 373.237078,238.678705 372.4028,236.242481 C372.128483,235.441431 371.83459,234.699723 371.541062,234.036509 L371.339668,233.593442 C371.300521,233.509857 371.265347,233.436408 371.234612,233.373539 L371.156186,233.217111 C371.129345,233.165331 371.110894,233.109819 371.101348,233.052644 L371.093772,232.965892 L371.00225,222.557392 C370.99957,222.250057 371.246523,221.998723 371.553858,221.996 Z" id="Stroke-15" fill="#DD936F" fill-rule="nonzero"></path>
        <path d="M241.7516,256.55885 C241.7516,256.55885 239.1671,275.35385 217.1321,277.61585 C191.5526,280.24085 185.8301,260.10185 185.8301,260.10185 L191.7581,257.50835 C192.9866,256.97135 193.7681,255.75335 193.7306,254.41385 C193.6001,249.63185 193.1921,237.44735 192.0671,221.43785 C213.2966,211.96535 229.1096,217.00535 229.1096,217.00535 C229.1096,217.00535 230.6651,235.98935 232.0586,249.95735 C232.1951,251.31185 233.1446,253.94435 234.4571,254.30585 C236.7206,254.92985 240.1601,255.91235 241.7516,256.55885" id="Fill-17" fill="#FFC999"></path>
        <path d="M184.77215,206.2811 C184.77215,206.2811 180.50615,175.6241 203.64665,172.5476 C231.59315,168.8336 234.45515,184.5656 236.90315,191.8121 C239.50565,199.5116 244.58765,232.4186 228.32915,240.9401 C221.37815,244.0466 217.05965,245.8226 204.14315,239.8076 C185.34815,231.0566 184.77215,206.2811 184.77215,206.2811" id="Fill-19" fill="#FFC999"></path>
        <path d="M193.5671,228.51965 L191.7461,211.29515 C191.7461,211.29515 177.6476,204.21965 176.8526,213.13865 C176.0426,222.23015 182.7311,227.91515 188.5661,229.56065 C192.3176,230.61965 193.5671,228.51965 193.5671,228.51965" id="Fill-21" fill="#FFC999"></path>
        <g id="分组" transform="translate(170.000000, 156.749000)">
            <mask id="mask-4" fill="white">
                <use xlink:href="#path-3"></use>
            </mask>
            <g id="Clip-24"></g>
            <path d="M21.4386,11.5626 C21.4386,11.5626 35.0946,0.5676 41.9331,1.2846 C48.7716,2.0016 43.8591,7.6251 43.8591,7.6251 C43.8591,7.6251 62.2716,3.0261 64.2966,7.0986 C66.3216,11.1711 59.7456,13.6821 59.7456,13.6821 C59.7456,13.6821 78.4071,17.3946 79.6941,22.7991 C80.9796,28.2036 72.3171,27.6351 72.3171,27.6351 C72.3171,27.6351 79.4091,34.9686 77.6796,39.7701 C75.9516,44.5716 71.6961,44.3511 71.6961,44.3511 L69.2361,50.7636 L67.2096,37.7946 C67.2096,37.7946 60.4371,35.4471 47.8926,30.5316 C55.8036,37.5171 51.2691,37.8801 45.0366,37.1196 C37.7316,36.2271 29.1321,34.3806 29.5401,34.1391 C29.5401,34.1391 30.0051,42.6441 24.6486,46.9641 C18.0816,52.2606 23.8056,61.6536 22.0161,62.2221 C18.5766,63.3471 18.2931,53.7666 11.4201,52.6281 C6.1251,52.6341 4.7601,46.2486 6.0561,43.9536 C-0.9684,43.5351 -1.2684,36.3561 7.2126,29.4531 C-0.6609,29.0316 3.5991,21.4836 14.9361,17.5986 C10.3176,5.0496 21.4386,11.5626 21.4386,11.5626" id="Fill-23" fill="#253368" mask="url(#mask-4)"></path>
        </g>
        <path d="M203.020089,200.980187 C206.465533,200.232205 209.958992,199.858942 213.244309,200.06684 C213.615946,200.090358 213.982944,200.121389 214.345082,200.160134 C214.962877,200.226233 215.410114,200.780638 215.344016,201.398432 C215.277917,202.016227 214.723512,202.463464 214.105718,202.397366 C213.77635,202.362126 213.441763,202.333836 213.102211,202.312349 C210.052392,202.119353 206.755969,202.471563 203.49743,203.17897 C202.570449,203.380211 201.71773,203.595664 200.959793,203.810655 L200.278643,204.011739 C200.176048,204.043552 200.09423,204.069892 200.034263,204.089982 C199.445123,204.287348 198.807534,203.969752 198.610168,203.380613 C198.412802,202.791473 198.730398,202.153884 199.319537,201.956518 L199.59695,201.86787 L199.946704,201.761749 C200.071615,201.724702 200.20475,201.686059 200.345799,201.646051 C201.147329,201.418695 202.045324,201.191802 203.020089,200.980187 Z" id="Stroke-25" fill="#253368" fill-rule="nonzero"></path>
        <path d="M225.00899,198.921269 C228.080766,197.873789 231.522622,197.66607 235.083793,198.828866 C235.674425,199.021719 235.996888,199.65686 235.804034,200.247493 C235.611181,200.838125 234.97604,201.160588 234.385407,200.967734 C231.333577,199.971248 228.378115,200.149613 225.735183,201.050857 C225.258576,201.21338 224.835665,201.386629 224.472878,201.558289 L224.257169,201.663616 C224.167068,201.709203 224.103902,201.743578 224.069043,201.764037 C223.533196,202.078532 222.843857,201.89909 222.529363,201.363243 C222.214868,200.827396 222.39431,200.138057 222.930157,199.823563 C223.3362,199.585252 224.044077,199.250306 225.00899,198.921269 Z" id="Stroke-27" fill="#253368" fill-rule="nonzero"></path>
        <path d="M223.069084,201.421248 L223.158795,201.433624 C223.428883,201.493343 223.609377,201.73994 223.594402,202.007434 L223.582026,202.097145 L222.777,205.736 L224.679733,218.675065 C224.715173,218.916156 224.589851,219.148266 224.377689,219.253974 L224.294202,219.28746 L219.309702,220.83546 C219.016184,220.926616 218.704345,220.762569 218.61319,220.469052 C218.53115,220.204886 218.655823,219.92588 218.895553,219.806268 L218.979598,219.77254 L223.509,218.365 L221.661567,205.795935 L221.668774,205.594855 L222.495274,201.856855 C222.554993,201.586767 222.80159,201.406273 223.069084,201.421248 Z" id="Stroke-29" fill="#DD936F" fill-rule="nonzero"></path>
        <path d="M204.113776,209.899272 C206.252493,208.608687 208.827585,208.423727 211.631049,210.034831 C211.990182,210.241219 212.114007,210.699665 211.907619,211.058799 C211.701231,211.417932 211.242785,211.541757 210.883651,211.335369 C208.586233,210.01508 206.587186,210.158665 204.888765,211.183559 C204.600947,211.357239 204.348685,211.542894 204.135222,211.72694 L203.962574,211.883538 C203.935065,211.910146 203.914888,211.930845 203.902231,211.944735 C203.623253,212.250911 203.148891,212.27296 202.842715,211.993981 C202.536539,211.715003 202.51449,211.240641 202.793469,210.934465 C203.043507,210.66005 203.487699,210.277071 204.113776,209.899272 Z" id="Stroke-31" fill="#253368" fill-rule="nonzero"></path>
        <path d="M227.562103,207.577928 C229.105684,206.754268 230.718204,206.434933 232.270428,206.951748 C232.861881,207.148673 233.420668,207.464829 233.938646,207.904969 C234.254294,208.173184 234.292746,208.646498 234.024531,208.962146 C233.756316,209.277794 233.283002,209.316246 232.967354,209.048031 C232.594955,208.731593 232.204829,208.510864 231.796576,208.374936 C230.703993,208.011159 229.483488,208.252861 228.268263,208.901309 C227.976486,209.057002 227.709561,209.224021 227.474504,209.390227 L227.276507,209.535848 C227.243766,209.561126 227.218742,209.58129 227.201852,209.59555 C226.885365,209.862775 226.412174,209.822839 226.14495,209.506352 C225.877725,209.189865 225.917661,208.716674 226.234148,208.44945 C226.50337,208.222133 226.960249,207.899079 227.562103,207.577928 Z" id="Stroke-33" fill="#253368" fill-rule="nonzero"></path>
        <path d="M211.4792,223.7816 C211.4792,223.7816 219.5672,224.9606 227.0522,223.2236 C227.0522,223.2236 225.3782,227.9726 220.0352,228.3596 C213.2897,228.8471 211.4792,223.7816 211.4792,223.7816" id="Fill-35" fill="#FFFFFF"></path>
        <path d="M226.908767,222.605525 C226.408991,222.721505 225.897899,222.826194 225.376237,222.919902 C221.683484,223.583246 217.753939,223.671255 214.070809,223.403201 L213.337612,223.344908 C213.044211,223.31961 212.769246,223.293247 212.514126,223.266478 L211.570725,223.153736 C211.097273,223.08472 210.720685,223.544608 210.881717,223.995151 C211.117179,224.653937 211.659935,225.598451 212.607832,226.537813 C214.360382,228.274582 216.82846,229.227507 220.080936,228.992449 C222.502656,228.817041 224.420655,227.804712 225.871284,226.234693 C226.430789,225.62914 226.881125,224.981522 227.233382,224.332776 C227.447385,223.938652 227.583139,223.62595 227.650611,223.434537 C227.817078,222.962284 227.396538,222.49233 226.908767,222.605525 Z M225.892,224.113 L225.784642,224.287009 C225.542793,224.658479 225.261637,225.024569 224.939227,225.373513 C223.697002,226.717976 222.071452,227.57595 219.989362,227.726758 C217.109138,227.934913 214.997865,227.11975 213.501083,225.636445 L213.275851,225.402785 C213.058524,225.166702 212.864787,224.923835 212.69355,224.678527 L212.608,224.551 L213.228599,224.609217 C217.221837,224.953528 221.534912,224.899247 225.600601,224.16891 L225.892,224.113 Z" id="Stroke-37" fill="#FF7A46" fill-rule="nonzero"></path>
        <path d="M230.334713,239.346674 C230.537996,239.116157 230.88966,239.09408 231.120176,239.297363 C231.350693,239.500646 231.37277,239.85231 231.169487,240.082826 L231.027894,240.235061 C230.860295,240.407847 230.614674,240.640456 230.290991,240.916414 C229.580687,241.521987 228.731823,242.125812 227.744338,242.688446 C222.728884,245.546071 216.315871,246.286607 208.556329,243.629743 C208.265555,243.530182 208.110546,243.213753 208.210107,242.922979 C208.309668,242.632205 208.626097,242.477196 208.916871,242.576757 C216.365909,245.127306 222.448321,244.424945 227.193349,241.721399 C228.117972,241.194582 228.910066,240.631139 229.568902,240.069444 L229.836124,239.835469 C230.078124,239.617438 230.244428,239.449054 230.334713,239.346674 Z" id="Stroke-39" fill="#DD936F" fill-rule="nonzero"></path>
        <path d="M221.474701,231.592817 C221.781651,231.577216 222.043131,231.813401 222.058733,232.120351 C222.072774,232.396606 221.882868,232.63603 221.62098,232.692526 L221.531199,232.704383 L217.724199,232.897883 C217.417249,232.913484 217.155769,232.677299 217.140167,232.370349 C217.126126,232.094094 217.316032,231.85467 217.57792,231.798174 L217.667701,231.786317 L221.474701,231.592817 Z" id="Stroke-41" fill="#DD936F" fill-rule="nonzero"></path>
        <path d="M180.442306,213.156031 C181.947452,212.363414 183.766636,212.846501 185.557992,215.32042 L185.846305,215.723082 C187.159272,217.581346 187.303646,218.18652 186.249997,218.496056 L185.862151,218.598996 C185.734788,218.634837 185.696389,218.654007 185.612508,218.701862 C185.390754,218.828373 185.217152,219.050725 185.085345,219.462685 C184.543183,221.159393 186.446027,222.395244 188.816915,222.203609 C189.123263,222.178847 189.391679,222.407118 189.416441,222.713465 C189.441203,223.019813 189.212932,223.288229 188.906585,223.312991 C185.871742,223.558292 183.169091,221.802986 184.025218,219.123716 C184.239949,218.452582 184.590581,218.003486 185.06098,217.735122 L185.227798,217.645098 C185.302562,217.608692 185.372633,217.582125 185.475243,217.551584 L185.679,217.496 L185.664959,217.469097 C185.517941,217.203972 185.240508,216.786327 184.795181,216.165556 L184.656508,215.97318 C183.181976,213.936804 181.963021,213.613109 180.960905,214.140828 C180.875819,214.185634 180.80813,214.22886 180.759983,214.263549 L180.690383,214.319481 C180.468264,214.531908 180.115995,214.524051 179.903569,214.301933 C179.691142,214.079814 179.698999,213.727545 179.921117,213.515119 C180.026461,213.414372 180.201185,213.283007 180.442306,213.156031 Z" id="Stroke-43" fill="#DD936F" fill-rule="nonzero"></path>
        <path d="M193.313206,228.024443 C193.586702,227.884221 193.922086,227.992261 194.062307,228.265756 L194.235273,228.593899 C194.376728,228.8582 194.538611,229.153042 194.718164,229.470717 C195.230948,230.377965 195.781692,231.284968 196.347703,232.129481 C196.980199,233.073192 197.591903,233.878082 198.163755,234.498795 C198.629625,235.00447 199.057476,235.37444 199.430602,235.590642 C199.696532,235.74473 199.787197,236.085222 199.633108,236.351152 C199.47902,236.617082 199.138528,236.707747 198.872598,236.553658 C198.388134,236.272944 197.880522,235.834002 197.345188,235.252927 C196.729346,234.584467 196.084901,233.736496 195.423151,232.749136 C194.839833,231.878799 194.274919,230.948462 193.749224,230.01837 L193.366818,229.328423 L193.071893,228.773544 C192.931671,228.500048 193.039711,228.164664 193.313206,228.024443 Z" id="Stroke-45" fill="#DD936F" fill-rule="nonzero"></path>
        <path d="M258.6134,392.86925 C265.0019,401.74475 258.2609,409.97225 258.2609,409.97225 C230.5754,410.18525 171.7004,410.182251 171.7004,410.182251 C161.5064,406.88975 167.1194,387.80675 167.1194,387.80675 C167.1194,387.80675 161.1959,341.74325 156.6554,305.51225 C154.7024,289.91075 151.0244,266.56475 152.0849,266.09075 C163.9874,260.76425 174.6989,258.79325 193.1264,255.29975 C193.6664,256.43825 198.4244,265.52975 215.6519,263.77475 C231.5189,262.15775 234.7064,255.51725 235.3619,254.01275 C244.5989,256.33325 256.2404,260.14475 267.0509,263.87375 C270.3374,265.00775 272.3054,268.37975 271.6979,271.80425 L270.7244,284.18225 C270.7244,284.18225 272.1944,317.38325 258.6134,392.86925" id="Fill-47" fill="#E4EBF7"></path>
        <path d="M189.202995,263.557852 C189.372573,263.297558 189.721053,263.224018 189.981348,263.393595 C203.711017,272.338263 218.070552,272.83777 231.275757,268.320203 C233.007833,267.727651 234.558231,267.093159 235.904213,266.459403 L236.438995,266.202163 C236.5233,266.160697 236.605178,266.119964 236.684606,266.080006 L237.346318,265.735093 C237.437175,265.685756 237.503137,265.648778 237.54359,265.625316 C237.812323,265.469456 238.156524,265.560957 238.312384,265.82969 C238.468244,266.098423 238.376743,266.442624 238.10801,266.598484 L237.780193,266.779228 L237.656535,266.844921 C237.294023,267.036174 236.868733,267.248728 236.383452,267.477222 C235.001135,268.128086 233.412536,268.778212 231.639905,269.384638 C218.134392,274.004942 203.422819,273.493189 189.367252,264.336205 C189.106958,264.166627 189.033418,263.818147 189.202995,263.557852 Z" id="Stroke-49" fill="#96A7CA" fill-rule="nonzero"></path>
        <path d="M269.631947,300.760982 C269.942368,300.748803 270.203888,300.990576 270.216068,301.300997 L270.229868,301.830091 C270.264939,303.632685 270.240732,306.230014 270.113142,309.64077 L270.05472,311.085299 C269.863587,315.488437 269.528606,320.51797 269.022006,326.185672 L268.935979,327.136199 C267.298838,345.005675 264.241771,366.446476 259.430505,391.600317 L259.199,392.803 L259.307648,393.04842 C262.898232,401.298448 262.178751,406.366486 258.652007,408.868387 L258.476303,408.989365 C257.784006,409.451983 257.045106,409.772156 256.30609,409.976637 C255.858792,410.100401 255.504847,410.15874 255.231532,410.177923 L246.278601,410.012912 C244.064901,409.97601 241.734328,409.939713 239.307498,409.904868 L232.769653,409.817911 C224.799361,409.720551 216.92795,409.65689 209.420014,409.637794 L204.769639,409.631776 C190.710033,409.631964 179.299763,409.8069 171.420988,410.193062 C171.110699,410.207559 170.846853,409.968327 170.830988,409.658038 C170.816491,409.347749 171.055723,409.083903 171.366012,409.068722 L173.893837,408.95695 C182.153489,408.627178 193.573659,408.488461 207.383254,408.5087 C217.53363,408.523576 228.403881,408.623193 239.32365,408.779983 L248.166493,408.91984 L255.198129,409.054883 C255.347187,409.042821 255.632054,408.995868 256.006083,408.892376 C256.635947,408.718097 257.265927,408.44512 257.85125,408.053986 C261.071028,405.902417 261.75239,401.273694 258.10042,393.098987 C258.053357,392.99364 258.039829,392.876368 258.06167,392.763072 L258.585803,390.022872 C263.154302,365.947871 266.100997,345.319118 267.725148,328.00979 L267.81567,327.033561 C268.398096,320.676356 268.767216,315.107981 268.961148,310.312278 L268.988928,309.598715 C269.102379,306.565931 269.133541,304.184454 269.114022,302.440886 L269.094059,301.404784 C269.093291,301.381424 269.092577,301.361532 269.091932,301.345103 C269.079753,301.034682 269.321526,300.773162 269.631947,300.760982 Z" id="Stroke-51" fill="#96A7CA" fill-rule="nonzero"></path>
        <path d="M374.4239,272.9645 C374.4239,272.9645 345.2369,347.45 326.3549,369.8915 C315.7964,382.4405 294.2684,376.004 297.0494,356.7875 C299.3309,341.015 355.9619,262.7135 355.9619,262.7135 C355.9619,262.7135 360.1034,254.3855 369.9074,259.346 C380.0834,264.494 374.4239,272.9645 374.4239,272.9645" id="Fill-53" fill="#FFC999"></path>
        <path d="M251.2745,388.4534 L272.978,320.5604 C273.335,319.4414 274.3685,318.6764 275.5445,318.6614 L336.404,317.83764 C338.294,317.8124 339.638,319.6679 339.0245,321.4559 L316.367,387.5444 C316.004,388.6079 315.026,389.3384 313.904,389.3879 L253.9955,392.0159 C252.0965,392.0984 250.694,390.2654 251.2745,388.4534" id="Fill-55" fill="#7B8DAF"></path>
        <path d="M254.48255,387.62585 L275.80805,320.91635 C276.24155,319.56185 277.49255,318.63485 278.91455,318.61535 L340.52555,317.781165 C341.84705,317.76335 342.78755,319.06235 342.36005,320.31185 L319.38905,387.31535 C318.98555,388.49285 317.90255,389.30285 316.65905,389.35685 L257.77805,391.93835 C255.47855,392.04035 253.78055,389.81885 254.48255,387.62585" id="Fill-57" fill="#253368"></path>
        <path d="M284.15,325.0433 C284.8385,325.8098 284.591,327.1568 283.5965,328.0508 C282.602,328.9448 281.237,329.0498 280.5485,328.2833 C279.8585,327.5168 280.1075,326.1698 281.102,325.2758 C282.0965,324.3818 283.4615,324.2768 284.15,325.0433" id="Fill-59" fill="#253368"></path>
        <path d="M283.33265,325.8446 C283.68965,326.2421 283.56065,326.9411 283.04615,327.4061 C282.52865,327.8711 281.81915,327.9251 281.46215,327.5276 C281.10515,327.1286 281.23415,326.4296 281.74865,325.9661 C282.26615,325.5011 282.97565,325.4471 283.33265,325.8446" id="Fill-61" fill="#E1E7F3"></path>
        <path d="M269.65985,397.28945 C273.15635,396.95045 274.99685,395.48945 274.66535,392.57495 C278.87135,391.25195 278.40035,387.68945 278.40035,387.68945 C278.40035,387.68945 286.49585,387.56645 287.85935,384.10595 C288.38735,382.76345 287.36135,381.32495 285.91985,381.22745 C268.57535,380.05295 256.20785,370.86245 256.20785,370.86245 C256.20785,370.86245 263.02685,360.84845 262.30685,356.22695 C262.09235,354.86045 260.30735,354.41945 259.47035,355.52195 C252.31985,364.95845 237.98135,372.35795 237.98135,372.35795 C237.98135,372.35795 220.76885,388.48445 239.44085,395.79845 C239.44085,395.79845 253.67285,401.46845 263.58185,400.75145 C268.27385,400.41095 269.65985,397.28945 269.65985,397.28945" id="Fill-63" fill="#FFC999"></path>
        <path d="M265.627335,384.606777 C265.777293,384.338497 266.116342,384.242577 266.384623,384.392535 C267.624503,385.085578 269.07368,385.650493 270.689989,386.096827 C272.617635,386.629133 274.687883,386.969553 276.771138,387.154601 C277.861898,387.251489 278.785618,387.293052 279.468212,387.301384 L279.872497,387.302352 C280.179815,387.298153 280.432349,387.543879 280.436601,387.851197 C280.440327,388.127783 280.241667,388.359994 279.977862,388.406732 L279.887703,388.415248 L279.665077,388.41591 C278.937232,388.413803 277.907376,388.372911 276.672662,388.263236 C274.527207,388.072663 272.392712,387.721679 270.39373,387.169673 C268.696711,386.701052 267.165939,386.104329 265.841577,385.364065 C265.573297,385.214107 265.477377,384.875058 265.627335,384.606777 Z" id="Stroke-65" fill="#DD936F" fill-rule="nonzero"></path>
        <path d="M263.993566,389.936357 C264.127326,389.659644 264.46008,389.543757 264.736793,389.677516 L265.224198,389.905106 C267.281288,390.832608 269.490663,391.427676 271.709418,391.754158 C272.868925,391.924776 273.833385,391.997633 274.516272,392.013152 L274.860311,392.016173 C275.17583,392.011911 275.428358,392.257644 275.432548,392.564962 C275.43632,392.841548 275.237653,393.073754 274.973847,393.120484 L274.868009,393.129146 L274.499095,393.126028 C273.770285,393.109828 272.758056,393.033447 271.547389,392.855301 C269.233193,392.514774 266.926238,391.893425 264.766719,390.91974 C264.593803,390.841776 264.42235,390.761732 264.252407,390.679584 C263.975694,390.545824 263.859807,390.21307 263.993566,389.936357 Z" id="Stroke-67" fill="#DD936F" fill-rule="nonzero"></path>
        <path d="M260.907288,395.892314 C261.041016,395.615586 261.373757,395.499661 261.650486,395.633388 C262.219448,395.908337 263.566682,396.16592 265.39805,396.377179 C266.335505,396.48532 267.341755,396.575428 268.348262,396.648241 L269.688104,396.733668 C269.995054,396.749272 270.231236,397.010754 270.215632,397.317704 C270.200028,397.624654 269.938546,397.860836 269.631596,397.845232 L268.783599,397.794087 C268.618781,397.783171 268.446549,397.77126 268.267955,397.75834 C267.246849,397.68447 266.225487,397.59301 265.270504,397.482847 L264.600412,397.401004 C262.983178,397.191516 261.805323,396.944358 261.166214,396.635512 C260.889486,396.501784 260.773561,396.169043 260.907288,395.892314 Z" id="Stroke-69" fill="#DD936F" fill-rule="nonzero"></path>
        <g id="分组" transform="translate(111.500000, 360.749000)">
            <mask id="mask-6" fill="white">
                <use xlink:href="#path-5"></use>
            </mask>
            <g id="Clip-72"></g>
            <path d="M121.7409,33.5814 C121.7409,33.5814 42.0204,40.2624 13.5504,33.2229 C-2.3706,29.2854 -6.0981,7.1259 12.3744,1.1409 C27.5364,-3.7716 122.7909,12.4899 122.7909,12.4899 C122.7909,12.4899 132.0924,12.5304 131.969139,23.5194 C131.8389,34.9224 121.7409,33.5814 121.7409,33.5814" id="Fill-71" fill="#FFC999" mask="url(#mask-6)"></path>
        </g>
        <path d="M112.86725,364.86725 C112.86725,364.86725 118.45625,334.21775 127.45175,306.92975 C135.65375,282.04925 146.57825,261.44675 162.54575,265.96025 C182.59775,271.63025 169.46525,305.91275 164.16875,323.72375 C160.35725,336.54275 149.91575,362.54525 143.42075,375.71525 C133.06325,396.72275 106.27775,384.05825 112.86725,364.86725" id="Fill-73" fill="#FFC999"></path>
        <path d="M162.03335,330.9086 C167.32985,313.0961 187.44185,272.9921 162.62735,265.6916 C145.11785,260.5406 134.13335,282.4811 124.72535,316.0961 L162.03335,330.9086 Z" id="Fill-75" fill="#E4EBF7"></path>
        <path d="M171.763538,302.718177 C171.870418,302.426481 172.193527,302.276658 172.485223,302.383538 C172.747749,302.47973 172.895358,302.751067 172.84434,303.017019 L172.819862,303.105223 L162.561362,331.102723 C162.463347,331.370225 162.184125,331.517555 161.914783,331.459191 L161.825631,331.432001 L124.517631,316.619501 C124.228896,316.504864 124.087761,316.177866 124.202399,315.889131 C124.305572,315.629269 124.580758,315.488964 124.845251,315.547072 L124.932769,315.573899 L161.704,330.173 L171.763538,302.718177 Z" id="Stroke-77" fill="#96A7CA" fill-rule="nonzero"></path>
        <path d="M181.7252,498.42215 C181.7252,498.42215 168.7607,481.36865 173.3807,472.42565 C177.5627,464.32565 188.6207,468.26315 188.6207,468.26315 C188.6207,468.26315 196.9142,472.32515 204.6542,479.12615 C209.7257,483.58265 220.6307,490.61615 219.0467,493.82615 C216.9827,498.00965 207.0062,488.99765 203.9447,490.46315 C197.7392,493.43315 211.9427,509.26565 212.8667,513.06815 C214.6757,520.50065 197.1182,518.99615 181.7252,498.42215" id="Fill-79" fill="#FFC999"></path>
        <path d="M197.531871,498.2038 C197.815497,498.085401 198.141402,498.219345 198.2598,498.502971 L198.464775,498.967278 C198.521812,499.092288 198.588453,499.235974 198.66466,499.397233 C199.005125,500.117683 199.412225,500.921437 199.885198,501.787567 C201.237063,504.263162 202.843724,506.738826 204.69798,509.047008 C206.385396,511.147508 208.198913,513.00563 210.134705,514.556547 C210.374564,514.748717 210.413224,515.098946 210.221053,515.338805 C210.028883,515.578664 209.678654,515.617324 209.438795,515.425153 C207.435539,513.820185 205.56594,511.904604 203.830288,509.744059 C201.931575,507.380536 200.289823,504.850801 198.908356,502.320998 C198.505279,501.582865 198.148622,500.888315 197.838706,500.249374 L197.569554,499.683489 L197.2327,498.931729 C197.114301,498.648103 197.248245,498.322198 197.531871,498.2038 Z" id="Stroke-81" fill="#DD936F" fill-rule="nonzero"></path>
        <path d="M191.593548,499.374 C191.863974,499.227947 192.201597,499.328771 192.34765,499.599198 C192.936484,500.68946 193.54671,501.745084 194.176331,502.766393 C196.522458,506.572043 199.034575,509.751719 201.544341,512.33216 C202.311037,513.120446 203.028917,513.801702 203.683848,514.378148 L203.960637,514.618786 C204.393479,514.990365 204.699298,515.23214 204.856967,515.347427 C205.105067,515.528834 205.159131,515.877018 204.977723,516.125117 C204.796316,516.373217 204.448132,516.427281 204.200033,516.245873 L204.026582,516.113808 L203.6107,515.779372 C203.493165,515.682274 203.368043,515.57693 203.235664,515.463288 C202.483171,514.817301 201.64638,514.033408 200.746481,513.108168 C198.181615,510.471076 195.619099,507.227608 193.228901,503.35047 C192.588192,502.311176 191.967334,501.23716 191.36835,500.128102 C191.222297,499.857676 191.323121,499.520053 191.593548,499.374 Z" id="Stroke-83" fill="#DD936F" fill-rule="nonzero"></path>
        <path d="M186.002834,498.734057 C186.282396,498.60636 186.612546,498.729471 186.740243,499.009034 L186.845908,499.226862 C186.908001,499.350106 186.990551,499.508292 187.094693,499.700216 L187.176866,499.850466 C187.564491,500.553923 188.057775,501.37185 188.665804,502.294619 C190.409325,504.940659 192.720844,507.890415 195.673174,511.06689 C195.882413,511.292014 195.869535,511.644135 195.64441,511.853374 C195.419286,512.062613 195.067165,512.049735 194.857926,511.82461 C191.863319,508.602648 189.513681,505.604247 187.736421,502.907006 C187.190207,502.078049 186.732669,501.328984 186.357717,500.666308 L186.202062,500.387612 C186.095898,500.194946 186.002824,500.020362 185.92236,499.864369 L185.727857,499.471466 C185.60016,499.191904 185.723271,498.861754 186.002834,498.734057 Z" id="Stroke-85" fill="#DD936F" fill-rule="nonzero"></path>
        <path d="M220.69895,617.9132 C213.40445,553.9322 220.84295,500.4272 220.84295,500.4272 C220.84295,500.4272 240.21545,449.8877 265.89995,483.6482 C278.33795,499.9982 276.40895,542.8682 267.89945,614.1602 C267.89945,614.1602 266.94695,647.5772 242.40845,646.7402 C221.86745,646.0382 220.69895,617.9132 220.69895,617.9132" id="Fill-87" fill="#FFC999"></path>
        <path d="M216.65585,574.2044 C243.16235,583.3244 273.03635,573.7964 273.03635,573.7964 C274.27235,554.3519 276.82685,530.5979 274.45085,462.2204 C240.74885,438.9854 215.97035,483.4334 215.97035,483.4334 L216.65585,574.2044 Z" id="Fill-89" fill="#597EF7"></path>
        <path d="M269.915313,561.390366 C270.214449,561.306537 270.524904,561.481077 270.608734,561.780213 C270.692563,562.079349 270.518023,562.389804 270.218887,562.473634 L269.693347,562.611908 L269.145504,562.747631 C268.853711,562.818224 268.535259,562.892766 268.190804,562.970597 C266.553713,563.340501 264.664314,563.710132 262.546954,564.054956 C248.698439,566.31027 233.220537,566.41312 217.516293,562.944764 C217.212942,562.877768 217.02134,562.577543 217.088336,562.274193 C217.155332,561.970842 217.455557,561.77924 217.758907,561.846236 C233.309146,565.280579 248.648062,565.178653 262.366123,562.944585 C264.460458,562.60351 266.327526,562.238248 267.942858,561.87326 L268.880007,561.654408 L269.775384,561.428407 C269.835385,561.412421 269.882093,561.399676 269.915313,561.390366 Z" id="Stroke-91" fill="#1D39C4" fill-rule="nonzero"></path>
        <path d="M215.966102,482.870584 C216.245688,482.868505 216.479172,483.070737 216.524783,483.33767 L216.532834,483.428852 L217.215,573.803 L217.366105,573.853929 C217.798387,573.997962 218.308005,574.158746 218.891558,574.332117 C220.562493,574.828543 222.488456,575.32538 224.642208,575.789329 C239.828319,579.060631 256.513594,578.970207 272.850901,573.265049 C273.144193,573.162629 273.464981,573.31736 273.567401,573.610651 C273.669821,573.903943 273.51509,574.224731 273.221799,574.327151 C256.664949,580.108975 239.777523,580.200495 224.405301,576.889101 C222.222695,576.418937 220.268973,575.914939 218.571167,575.41053 L217.892369,575.20446 C217.570983,575.104676 217.276778,575.00997 217.010485,574.921243 L216.462239,574.73223 C216.269637,574.661622 216.133026,574.49297 216.100696,574.294857 L216.093366,574.208348 L215.407834,483.437348 C215.40552,483.126697 215.655451,482.872962 215.966102,482.870584 Z" id="Stroke-93" fill="#1D39C4" fill-rule="nonzero"></path>
        <path d="M219.3161,675.43385 C223.5086,724.81385 231.1421,758.43635 228.5711,807.78185 C228.2591,813.76835 236.8571,814.74935 244.9976,814.70735 C262.2686,830.63885 295.9196,837.24785 300.9341,830.90435 C303.9446,827.09585 292.7561,811.43135 281.5406,807.91235 C256.4756,800.05085 258.8366,770.66885 258.8366,770.66885 C258.8366,770.66885 264.2996,695.75285 267.4691,638.26235 C267.4691,638.26235 267.6866,596.06135 245.7266,596.334517 C207.7106,596.81135 217.8866,658.57985 219.3161,675.43385" id="Fill-95" fill="#FFC999"></path>
        <path d="M315.31745,831.2069 C315.31745,831.2069 311.52395,838.8914 292.04045,837.9059 C272.55695,836.9219 263.51045,828.3914 253.29395,826.8929 C234.20195,824.0924 225.98795,819.2579 225.98795,819.2579 C225.98795,819.2579 225.00995,822.1454 226.63895,826.0454 C229.15295,832.0604 247.05245,830.0354 257.64245,834.9374 C265.30145,838.4834 271.28645,840.4874 284.05595,843.4304 C296.82545,846.3749 312.90845,842.6324 314.76095,838.3259 C316.61495,834.0194 315.31745,831.2069 315.31745,831.2069" id="Fill-97" fill="#96A7CA"></path>
        <path d="M226.57145,819.95315 C226.57145,819.95315 230.85695,822.42215 245.24945,825.82115 C248.69195,826.63415 252.07145,827.55665 258.05795,829.60265 C267.26045,832.74665 296.27645,845.74565 313.47695,833.87915 C316.09445,830.94365 315.35195,827.52965 314.00645,824.89715 C312.72545,822.39065 310.49345,820.50815 307.82945,819.60665 C299.75195,816.87215 280.44995,810.38315 270.48395,795.70415 C269.31695,793.98665 267.23045,793.16915 265.21145,793.65065 C262.76645,794.23265 259.59845,795.44765 257.34095,797.97815 C255.46295,800.08415 260.80295,808.01765 258.72545,808.39865 C253.01195,809.44865 243.38795,807.89015 237.20195,803.85665 C232.01945,800.47715 228.76145,797.23565 228.76145,797.23565 C228.76145,797.23565 223.99895,811.70015 226.57145,819.95315" id="Fill-99" fill="#4E5C93"></path>
        <path d="M307.968713,824.333181 C308.266764,824.14889 308.657779,824.241112 308.842069,824.539163 C309.02636,824.837214 308.934138,825.228229 308.636087,825.412519 L308.487156,825.499294 C308.338672,825.581892 308.12926,825.689308 307.858963,825.814808 C307.24159,826.101455 306.505187,826.386555 305.649966,826.651597 C300.466086,828.258134 293.693019,828.429657 285.351429,826.256353 C285.012324,826.168003 284.809048,825.821483 284.897397,825.482379 C284.985747,825.143274 285.332267,824.939998 285.671371,825.028347 C293.783077,827.141757 300.315255,826.976335 305.274316,825.439471 C305.960249,825.226893 306.560358,825.002129 307.074595,824.776597 L307.324558,824.66382 C307.656494,824.509702 307.871268,824.393432 307.968713,824.333181 Z" id="Stroke-101" fill="#96A7CA" fill-rule="nonzero"></path>
        <path d="M275.133876,802.189471 C275.472167,802.098054 275.820513,802.298185 275.911929,802.636476 C276.003346,802.974767 275.803215,803.323113 275.464924,803.414529 L275.282153,803.46879 C275.226786,803.486107 275.161885,803.506977 275.088056,803.531491 C274.774983,803.635441 274.424726,803.765058 274.046741,803.921707 C272.965477,804.369818 271.884192,804.942676 270.878391,805.64959 C269.717284,806.465659 268.733873,807.408755 267.981953,808.484504 C267.781196,808.771721 267.385614,808.841811 267.098396,808.641053 C266.811179,808.440296 266.741089,808.044714 266.941847,807.757496 C267.784426,806.552045 268.873479,805.507637 270.148692,804.611371 C271.236703,803.846676 272.39879,803.231009 273.560897,802.749395 C273.866293,802.622828 274.155739,802.512328 274.425337,802.417188 L274.688175,802.327142 C274.896191,802.258074 275.047845,802.212719 275.133876,802.189471 Z" id="Stroke-103" fill="#96A7CA" fill-rule="nonzero"></path>
        <path d="M156.08465,475.5896 L210.46565,503.1521 C210.46565,503.1521 224.15015,506.2151 233.99465,501.7796 C248.29715,495.3356 264.21215,485.1266 274.95665,473.9066 C273.84065,438.4436 261.16715,418.8851 261.16715,418.8851 L168.51815,419.5106 C168.51815,419.5106 159.63065,431.4491 156.08465,475.5896" id="Fill-105" fill="#597EF7"></path>
        <path d="M262.0676,419.6693 L260.4611,408.7748 L169.4786,407.4398 L167.8631,419.3468 C167.8631,419.3468 252.7991,420.3173 262.0676,419.6693" id="Fill-107" fill="#597EF7"></path>
        <path d="M224.717341,407.473043 C225.027452,407.454592 225.293806,407.691029 225.312257,408.001141 L225.56739,412.612719 L225.628491,413.777842 C225.84735,417.988923 226.066204,422.593304 226.272626,427.47291 L226.323965,428.698478 C226.756363,439.123331 227.073776,449.40523 227.229575,459.101573 L227.26047,461.170237 C227.509102,479.20757 227.157054,493.554013 226.057863,502.855563 C226.021405,503.164076 225.741751,503.384621 225.433237,503.348163 C225.124724,503.311705 224.904179,503.032051 224.940637,502.723537 L225.049124,501.766523 C226.037937,492.672339 226.36374,479.054662 226.14767,462.097358 L226.135577,461.185742 C226.00266,451.543134 225.703449,441.276589 225.285162,430.83551 L225.096815,426.307317 C224.975338,423.490295 224.849987,420.770215 224.723227,418.170527 L224.474198,413.246089 L224.189243,408.067959 C224.170792,407.757848 224.407229,407.491494 224.717341,407.473043 Z" id="Stroke-109" fill="#1D39C4" fill-rule="nonzero"></path>
        <path d="M211.087485,422.670039 C211.367077,422.669052 211.599756,422.87221 211.644307,423.139321 L211.653191,423.530856 L211.691867,430.321414 L211.750883,437.566525 C211.780849,440.759455 211.816018,443.920231 211.856817,446.995281 L211.9388,452.572419 C212.107141,462.929892 212.331159,470.664647 212.618135,474.767889 C212.852149,478.121088 215.243524,480.455517 219.155398,481.952163 C220.629933,482.516306 222.21579,482.91725 223.802534,483.181148 C224.247175,483.255099 224.666157,483.313799 225.052482,483.359043 L225.686001,483.424087 C225.781347,483.432276 225.854804,483.437598 225.904669,483.440499 C226.214805,483.458542 226.451593,483.724583 226.433551,484.034719 C226.415508,484.344855 226.149467,484.581643 225.839331,484.563601 L225.484031,484.535528 C225.405075,484.528249 225.31658,484.51958 225.219044,484.509385 C224.735228,484.458816 224.197083,484.38722 223.617965,484.290905 C221.962084,484.015508 220.305315,483.596635 218.7534,483.002888 C214.476133,481.366446 211.766288,478.721131 211.495871,474.846295 L211.409461,473.470213 C211.144955,468.811007 210.938885,460.916372 210.783633,450.657788 L210.731919,447.010422 C210.6911,443.933844 210.655914,440.771637 210.625935,437.577327 L210.561989,429.610538 L210.526989,423.234565 C210.525891,422.923907 210.776827,422.671166 211.087485,422.670039 Z" id="Stroke-111" fill="#1D39C4" fill-rule="nonzero"></path>
        <path d="M262.066096,419.106794 C262.376755,419.105971 262.6301,419.357137 262.6301,419.667796 C262.6301,419.978455 262.379763,420.230967 262.069104,420.231798 L234.259555,420.290131 L192.640999,420.324104 C183.376164,420.320859 175.543206,420.307547 169.434321,420.282795 C169.123663,420.281537 168.872846,420.028679 168.874086,419.718021 C168.875363,419.407363 169.128221,419.156546 169.438879,419.157805 L186.344446,419.195124 L210.579861,419.194536 L262.066096,419.106794 Z" id="Stroke-113" fill="#1D39C4" fill-rule="nonzero"></path>
        <path d="M183.356309,420.046657 C183.663597,420.092308 183.875695,420.378422 183.830043,420.685709 L183.701577,421.463322 C183.674182,421.62026 183.644266,421.787502 183.611785,421.964602 C183.426499,422.974881 183.196048,424.099911 182.917638,425.311171 C182.121947,428.772927 181.100946,432.235316 179.831046,435.471304 C176.897973,442.945427 173.098569,448.095679 168.259962,449.850836 C167.967921,449.956771 167.645299,449.805902 167.539364,449.513862 C167.433429,449.221821 167.584298,448.899199 167.876338,448.793264 C172.331068,447.177356 175.958169,442.260667 178.783799,435.060332 C180.031324,431.881359 181.037107,428.470576 181.821228,425.059159 C182.049998,424.063867 182.245846,423.128019 182.410314,422.268256 L182.551129,421.508513 L182.717257,420.520391 C182.758343,420.243832 182.994204,420.044377 183.264978,420.040531 L183.356309,420.046657 Z" id="Stroke-115" fill="#1D39C4" fill-rule="nonzero"></path>
        <path d="M175.037098,420.363744 C175.325007,420.480441 175.463802,420.808439 175.347106,421.096348 L175.077821,421.795074 C175.004472,421.990477 174.925008,422.20554 174.839745,422.440112 L174.561635,423.217273 C174.229366,424.159828 173.870296,425.227667 173.489924,426.41815 C172.091112,430.796133 170.691711,435.917778 169.385233,441.738186 C166.918403,452.727999 165.078565,464.883924 164.124837,478.081593 C164.102446,478.391445 163.833109,478.624478 163.523257,478.602087 C163.213405,478.579696 162.980372,478.310359 163.002763,478.000507 C163.960617,464.745738 165.808792,452.534728 168.287546,441.491794 C169.528441,435.963564 170.853402,431.059542 172.183529,426.817474 L172.418295,426.075753 C172.911883,424.530927 173.370495,423.189074 173.782426,422.055792 L174.024859,421.398971 L174.304494,420.673752 C174.421191,420.385843 174.749189,420.247048 175.037098,420.363744 Z" id="Stroke-117" fill="#1D39C4" fill-rule="nonzero"></path>
        <path d="M255.928177,419.822881 C256.231641,419.7564 256.531539,419.948513 256.598019,420.251977 L256.746943,420.883727 L256.825614,421.199719 C257.017254,421.960022 257.248169,422.807867 257.518558,423.721227 C258.290865,426.33004 259.22362,428.938338 260.317294,431.368887 C262.964154,437.251191 266.107384,441.119131 269.66819,442.049105 C269.968768,442.127607 270.148797,442.434912 270.070295,442.73549 C269.991793,443.036068 269.684488,443.216097 269.38391,443.137595 C265.39697,442.096328 262.06659,437.998089 259.29137,431.830521 C258.174806,429.349102 257.225521,426.694578 256.439834,424.040569 C256.210744,423.266713 256.009419,422.538728 255.835673,421.869249 L255.618968,421.006758 C255.563799,420.778962 255.523861,420.605837 255.499081,420.492723 C255.4326,420.189259 255.624713,419.889361 255.928177,419.822881 Z" id="Stroke-119" fill="#1D39C4" fill-rule="nonzero"></path>
        <path d="M215.6642,413.29355 C215.7407,414.37955 216.9347,415.18055 218.3297,415.08305 C219.7262,414.98555 220.7957,414.02555 220.7207,412.94105 C220.6442,411.85505 219.4502,411.05255 218.0552,411.15155 C216.6587,411.24905 215.5877,412.20755 215.6642,413.29355" id="Fill-121" fill="#1D39C4"></path>
        <path d="M192.6998,841.5626 C192.6998,841.5626 170.4938,855.4826 146.8613,843.1556 C145.5488,849.9056 148.0823,856.0046 170.5028,855.7406 C182.5973,855.5981 188.0663,852.0626 191.4398,849.8561 C194.9168,847.5836 193.5863,843.5156 192.6998,841.5626" id="Fill-123" fill="#96A7CA"></path>
        <path d="M151.56125,632.77025 C146.71325,665.55275 152.78225,721.17425 155.49425,761.61725 C156.82475,781.45475 156.18725,793.46675 156.18725,793.46675 C156.18725,793.46675 152.11325,819.47975 153.54125,823.55225 C155.79875,829.98875 199.62575,839.33975 182.74475,802.45175 C186.04925,745.80125 191.84075,714.85625 197.53475,664.88525 C198.77675,654.00575 199.31525,648.08975 200.50925,637.68875 C200.50925,637.68875 203.85725,603.80525 179.22425,599.94275 C154.59275,596.07875 151.56125,632.77025 151.56125,632.77025" id="Fill-125" fill="#FFC999"></path>
        <path d="M153.98555,609.46025 C154.94855,545.97125 153.50105,525.12725 161.15255,474.49625 C161.15255,474.49625 192.77855,436.63325 209.47655,497.70725 C212.50205,508.77275 209.41355,545.44325 203.70155,610.00025 C203.70155,610.00025 202.49705,645.29675 175.45205,646.08875 C147.53255,646.90775 153.98555,609.46025 153.98555,609.46025" id="Fill-127" fill="#FFC999"></path>
        <path d="M153.0041,847.98155 C141.5816,846.89105 147.5801,830.26205 151.5896,812.78705 C152.8106,807.45905 151.4771,808.86305 152.9786,804.01205 C155.0846,797.20655 184.4546,799.43255 185.1026,804.45905 C186.3251,813.93905 188.9201,821.84105 188.9201,821.84105 C194.0846,829.23455 196.1411,840.78005 190.3931,844.90355 C175.4171,855.64955 153.0041,847.98155 153.0041,847.98155" id="Fill-129" fill="#4E5C93"></path>
        <path d="M168.090272,811.492292 C170.973985,811.44774 174.059008,811.599134 177.120521,811.878801 L178.216613,811.98477 C178.569603,812.02082 178.909778,812.057466 179.235813,812.094316 L180.610264,812.261841 C180.642184,812.266149 180.671004,812.270101 180.696666,812.273678 C181.043733,812.322067 181.28586,812.642648 181.237472,812.989716 C181.189083,813.336783 180.868502,813.57891 180.521434,813.530522 L179.564621,813.409861 L178.600155,813.300917 C178.097136,813.246823 177.563941,813.193591 177.00508,813.142539 C173.984988,812.866656 170.942941,812.717371 168.109875,812.761141 C163.630271,812.830348 160.156068,813.380955 158.12703,814.49077 C157.81959,814.65893 157.434039,814.546021 157.26588,814.23858 C157.09772,813.93114 157.210629,813.545589 157.51807,813.37743 C159.777829,812.141417 163.418215,811.564473 168.090272,811.492292 Z" id="Stroke-131" fill="#96A7CA" fill-rule="nonzero"></path>
        <path d="M157.088,467.34185 C157.088,467.34185 188.8475,438.48635 217.928,499.39835 C212.9795,534.44585 208.8575,573.60035 208.8575,573.60035 C208.8575,573.60035 178.9445,582.17585 149.774,569.66585 C154.4705,484.22735 157.088,467.34185 157.088,467.34185" id="Fill-133" fill="#597EF7"></path>
        <path d="M164.907884,461.992175 C165.217298,462.020805 165.445592,462.29417 165.417793,462.603584 L163.80677,481.016411 L161.159968,512.082192 L156.272613,570.350891 C156.246854,570.660482 155.974999,570.890572 155.665409,570.864813 C155.355818,570.839054 155.125728,570.567199 155.151487,570.257609 L158.590743,529.16391 L162.852625,478.98671 C163.43595,472.229741 163.922044,466.679761 164.297307,462.502916 C164.322326,462.224443 164.546253,462.011678 164.816351,461.992175 L164.907884,461.992175 Z" id="Stroke-135" fill="#1D39C4" fill-rule="nonzero"></path>
        <path d="M153.109137,557.399481 C153.275137,557.136891 153.622578,557.058588 153.885169,557.224587 C159.007153,560.462502 165.440556,562.492537 172.88675,563.472272 C181.309509,564.580498 190.333831,564.290847 198.998408,563.135671 C200.467102,562.939862 201.817095,562.731872 203.029204,562.522449 L203.540181,562.43264 C203.914762,562.365665 204.253103,562.30256 204.553373,562.244354 L205.195065,562.115181 C205.498749,562.049716 205.798004,562.242831 205.863469,562.546515 C205.928934,562.850199 205.735819,563.149454 205.432135,563.214919 L204.990034,563.305186 L204.280977,563.441125 C204.109279,563.473063 203.928275,563.50609 203.738192,563.540077 L202.687317,563.721605 C201.602806,563.902604 200.418724,564.081266 199.14708,564.250804 C190.392564,565.417971 181.274761,565.710622 172.739993,564.587658 C165.144361,563.588261 158.559437,561.510415 153.284031,558.175513 C153.021441,558.009513 152.943138,557.662072 153.109137,557.399481 Z" id="Stroke-137" fill="#1D39C4" fill-rule="nonzero"></path>
        <path d="M233.440664,499.77264 C233.723799,499.644794 234.056964,499.77068 234.18481,500.053814 C234.299872,500.308635 234.20941,500.603982 233.983762,500.753702 L233.903636,500.79796 L216.738,508.548 L209.416627,573.663653 C209.393481,573.869505 209.259723,574.043397 209.072436,574.120705 L208.989059,574.147735 L208.41993,574.277464 L207.506817,574.473272 C207.285869,574.519282 207.053053,574.566863 206.80868,574.615831 C205.065232,574.965183 203.091138,575.31438 200.925151,575.640223 C190.866949,577.153341 180.477615,577.651134 170.761941,576.525808 C162.584908,575.578697 155.403408,573.513485 149.496158,570.155306 C149.226087,570.001775 149.131613,569.658378 149.285144,569.388308 C149.438675,569.118237 149.782072,569.023763 150.052142,569.177294 C155.814201,572.452935 162.85369,574.477308 170.891379,575.408279 C180.494542,576.520573 190.789803,576.027288 200.757793,574.527741 C202.666608,574.240586 204.424396,573.935262 206.003789,573.628028 L206.587646,573.512758 C206.949703,573.440209 207.285805,573.370798 207.594899,573.30515 L208.342,573.141 L215.656173,508.104947 C215.674652,507.940607 215.764155,507.794515 215.898144,507.703121 L215.983664,507.65514 L233.440664,499.77264 Z" id="Stroke-139" fill="#1D39C4" fill-rule="nonzero"></path>
        <path d="M154.006317,833.513376 C154.324847,833.508439 154.592187,833.739097 154.642242,834.044323 L154.650574,834.137967 C154.652255,834.246444 154.715033,834.507898 154.915148,834.878757 C155.27963,835.554228 155.945274,836.24842 157.002323,836.914154 C158.991285,838.166811 162.069467,839.129551 166.438135,839.663488 C172.187515,840.36626 177.303379,839.477306 181.675262,837.566752 C182.839296,837.058058 183.857536,836.513886 184.722147,835.971167 C184.947489,835.829719 185.149611,835.696261 185.328099,835.572749 L185.679208,835.320157 C185.708627,835.297909 185.730883,835.280602 185.745914,835.268534 C186.019166,835.049146 186.418529,835.092812 186.637916,835.366064 C186.857304,835.639316 186.813638,836.038679 186.540386,836.258066 L186.32036,836.424471 L186.238212,836.483873 C186.000448,836.654376 185.719676,836.843301 185.396804,837.045969 C184.480475,837.621152 183.406923,838.194883 182.183422,838.729565 C177.613079,840.726849 172.271677,841.654993 166.284175,840.923113 C161.743013,840.368095 158.489587,839.350545 156.326049,837.987939 C155.088464,837.208503 154.269388,836.354298 153.79836,835.481372 C153.497168,834.923193 153.386444,834.462062 153.381573,834.157633 C153.376296,833.80725 153.655935,833.518807 154.006317,833.513376 Z" id="Stroke-141" fill="#96A7CA" fill-rule="nonzero"></path>
        <path d="M170.493244,406.816753 L213.50956,407.425924 L251.85968,408.024881 C256.598806,408.109525 259.552624,408.172959 260.483735,408.212199 C260.794119,408.22528 261.035132,408.4875 261.022051,408.797885 C261.00897,409.108269 260.74675,409.349282 260.436365,409.336201 L257.868586,409.266659 C255.049173,409.204308 250.219264,409.1179 243.640589,409.010779 L219.677764,408.641844 L170.477856,407.941647 C170.167224,407.937398 169.918853,407.682137 169.922896,407.371506 C169.927352,407.060874 170.182613,406.812503 170.493244,406.816753 Z" id="Stroke-143" fill="#1D39C4" fill-rule="nonzero"></path>
    </g>
</svg>