<svg xmlns="http://www.w3.org/2000/svg" xmlns:xlink="http://www.w3.org/1999/xlink" width="512" height="1024" version="1.1" viewBox="0 0 512 1024"><title>2.人物组件/2.保安/站立/双手交叉</title><desc>Created with Sketch.</desc><defs><polygon id="path-1" points="0 .532 175.822 .532 175.822 65.491 0 65.491"/></defs><g id="2.人物组件/2.保安/站立/双手交叉" fill="none" fill-rule="evenodd" stroke="none" stroke-width="1"><path id="Fill-1" fill="#FFC2BD" d="M160.147,282.1663 C160.147,282.1663 158.524,336.7678 192.181,373.3948 C187.261,404.2243 179.2405,428.4253 173.3605,440.0278 C167.4805,451.6318 132.532,462.2803 119.674,435.3718 C108.142,411.2368 130.003,335.7868 132.4435,322.6843 C136.0855,303.1228 153.598,284.5633 160.147,282.1663"/><path id="Fill-3" fill="#597EF7" d="M119.8015,376.31395 C124.147,351.73195 129.9265,327.89395 131.197,321.07195 C134.8405,301.51045 150.6325,280.86445 168.37,279.59695 C168.37,279.59695 158.779,335.15545 192.4345,371.78245 C190.3495,384.85645 190.6645,383.64295 187.864,393.87745 C187.864,393.87745 177.2995,389.84395 154.4335,383.91595 C131.6275,378.00295 119.8015,376.31395 119.8015,376.31395"/><path id="Fill-5" fill="#597EF7" d="M285.4981,423.4183 C285.4981,423.4183 343.0141,307.3858 337.5136,296.3833 C332.0116,285.3808 291.4051,260.6413 230.0266,264.8668 C168.3811,269.1103 146.8261,294.1528 146.8261,294.1528 C146.8261,294.1528 162.6751,367.6933 175.9681,415.4173 C168.9661,427.9198 181.6936,436.7953 181.6936,436.7953 C181.6936,436.7953 261.5896,433.1023 280.5946,434.1028 C289.4701,430.2973 285.4981,423.4183 285.4981,423.4183"/><path id="Fill-7" fill="#4E5C93" d="M168.3808,520.48105 L236.6818,552.05605 L306.7453,524.44405 C306.7453,524.44405 298.1878,471.18955 282.2578,446.46505 C279.7228,439.49005 278.6923,434.26105 278.6923,434.26105 C278.6923,434.26105 215.9293,424.75105 181.6933,436.79605 L180.4258,448.20805 C180.4258,448.20805 174.9988,461.11405 172.1848,472.93255 C167.4298,492.90355 168.3808,520.48105 168.3808,520.48105"/><path id="Fill-9" fill="#4E5C93" d="M304.7248,515.92015 C304.7248,515.92015 255.6568,442.66015 231.8818,536.80465 C289.6288,738.88465 299.1343,770.77765 299.1343,770.77765 C299.1343,770.77765 298.7083,787.89415 310.1188,794.55115 L350.0593,794.55115 C350.0593,794.55115 365.2753,785.04265 345.3043,763.16965 C311.0698,550.15465 304.7248,515.92015 304.7248,515.92015"/><path id="Fill-11" fill="#4E5C93" d="M168.3808,517.3111 C168.3808,517.3111 201.4963,507.3616 236.6818,552.0571 C239.7028,760.7566 242.6998,765.3826 242.6998,765.3826 C242.6998,765.3826 251.4718,783.8776 239.1088,793.3876 L197.9068,793.3876 C197.9068,793.3876 187.2328,781.2376 191.9878,767.9251 C170.1148,584.3896 168.3808,517.3111 168.3808,517.3111"/><path id="Fill-13" fill="#253368" d="M380.87035,857.4427 L327.68185,857.4427 L308.24185,792.6742 L349.80085,792.6742 L356.93335,835.8817 L382.25335,852.9052 C384.28585,854.2717 383.31835,857.4427 380.87035,857.4427"/><path id="Fill-15" fill="#253368" d="M238.9204,792.3706 L199.5949,792.5581 L205.9339,833.3521 L185.5129,851.7256 C183.2779,853.7356 184.7014,857.4421 187.7059,857.4421 L241.8574,857.4421 L238.9204,792.3706 Z"/><polygon id="Fill-17" fill="#FFC2BD" points="272.987 256.114 269.822 200.904 217.52 200.904 217.569 260.551 232.571 289.081"/><path id="Fill-19" fill="#FFC2BD" d="M252.8086,170.1556 C252.8086,170.1556 223.6456,162.5476 215.7211,176.1781 C208.0141,189.4351 207.4801,237.3571 222.6946,244.6486 C235.0966,250.5901 260.4166,247.8181 266.4391,224.6776 C266.4391,224.6776 271.5106,206.9266 269.6086,191.0776 C267.7066,175.2271 252.8086,170.1556 252.8086,170.1556"/><path id="Fill-21" fill="#FFC2BD" d="M266.43895,210.7303 C266.43895,210.7303 274.36345,195.5143 280.38595,203.7568 C286.40845,211.9978 276.26545,227.2138 267.38995,226.5793 C258.51445,225.9463 266.43895,210.7303 266.43895,210.7303"/><path id="Fill-23" fill="#253368" d="M210.6496,203.7562 C210.6496,203.7562 206.8456,185.3707 211.2826,173.9602 C215.7211,162.5482 221.4271,151.1362 225.5476,157.1602 C226.1821,154.3072 229.9861,148.6012 232.8376,146.6992 C235.6906,144.7972 244.5676,157.1602 244.5676,157.1602 C244.5676,157.1602 243.9331,151.4542 247.4206,154.9402 C250.9066,158.4277 272.1451,169.2052 275.6311,174.9112 C279.1186,180.6172 277.2661,201.5932 277.2661,201.5932 C277.2661,201.5932 270.4501,200.9587 266.8051,213.9547 C267.7561,203.4937 263.4016,198.0262 261.1666,195.9457 C260.3191,195.1582 259.8331,194.0617 259.7446,192.9067 C259.5766,190.6912 259.3276,186.9712 259.2346,183.3367 C259.1926,181.7362 258.0226,180.4117 256.4431,180.1372 C240.3721,177.3547 222.7051,179.8567 216.4126,180.9412 C214.9906,181.1872 213.9001,182.3287 213.7111,183.7597 L212.1256,195.6487 C212.1256,195.6487 211.2826,197.7337 210.6496,203.7562"/><path id="Stroke-25" fill="#253368" fill-rule="nonzero" d="M249.28992,199.499787 C249.425354,199.476134 249.563428,199.474739 249.698745,199.495366 L249.832943,199.523326 L255.193943,200.946826 C255.870119,201.12637 256.272718,201.820068 256.093174,202.496243 C255.924852,203.130158 255.304636,203.523625 254.670615,203.422392 L254.543757,203.395474 L249.452,202.043 L239.44478,203.791013 C238.798678,203.90385 238.181507,203.505624 238.007712,202.887542 L237.978987,202.76108 C237.86615,202.114978 238.264376,201.497807 238.882458,201.324012 L239.00892,201.295287 L249.28992,199.499787 Z"/><path id="Stroke-27" fill="#253368" fill-rule="nonzero" d="M217.916372,198.416224 C218.090582,198.367495 218.272687,198.356783 218.450455,198.384166 L218.582777,198.411848 L228.725777,201.105848 C229.40194,201.285438 229.804492,201.979164 229.624902,202.655327 C229.456536,203.28923 228.836294,203.682655 228.20228,203.581379 L228.075423,203.554452 L218.266,200.949 L214.635828,201.964576 C214.004191,202.141252 213.3504,201.806528 213.115861,201.208847 L213.074674,201.085878 C212.897998,200.454241 213.232722,199.80045 213.830403,199.565911 L213.953372,199.524724 L217.916372,198.416224 Z"/><path id="Fill-29" fill="#EFADAB" d="M265.9636,216.83215 C265.9636,216.83215 257.7721,223.22665 253.4926,229.88365 C247.5481,222.51415 241.2871,219.34315 241.2871,219.34315 C241.2871,219.34315 234.1066,224.67715 230.3026,223.01365 C229.1146,221.58715 229.2421,220.13665 229.2421,220.13665 C229.2421,220.13665 222.8236,222.51415 218.3071,229.16965 C216.4036,224.41615 211.0456,218.25865 211.0456,218.25865 C211.0456,218.25865 209.9056,249.29965 232.7296,249.77365 C255.7906,249.77365 263.4766,237.01615 266.0911,226.31665 C266.6956,222.96415 267.6271,214.45465 265.9636,216.83215"/><path id="Stroke-31" fill="#D18682" fill-rule="nonzero" d="M245.354711,224.423497 C245.875379,224.218412 246.463718,224.474243 246.668803,224.994911 C246.873888,225.515579 246.618057,226.103918 246.097389,226.309003 L245.819243,226.413573 C245.60225,226.492969 245.351127,226.581003 245.068399,226.675497 C244.264873,226.944053 243.365706,227.212092 242.390958,227.462125 C239.070111,228.313954 235.710033,228.75598 232.548426,228.565245 C230.967515,228.469871 229.478729,228.215183 228.098769,227.78386 C227.564649,227.616914 227.266995,227.048589 227.43394,226.514469 C227.600886,225.980349 228.169211,225.682695 228.703331,225.84964 C229.918011,226.229302 231.246038,226.456489 232.67046,226.542422 C235.593106,226.718742 238.754111,226.302904 241.887442,225.499174 C242.8134,225.261657 243.666595,225.007322 244.426027,224.753503 L244.999327,224.555682 C245.154975,224.499956 245.274303,224.455169 245.354711,224.423497 Z"/><path id="Stroke-33" fill="#965C56" fill-rule="nonzero" d="M231.044811,202.561652 C231.32326,202.536382 231.572698,202.718574 231.640269,202.980809 L231.655848,203.071011 L231.972348,206.558511 L231.961462,206.730438 L231.731518,207.826243 L231.676276,208.099369 C231.461786,209.166503 231.24727,210.309066 231.047112,211.480539 C230.882357,212.444806 230.734866,213.38548 230.60866,214.289426 L230.518058,214.960294 C229.971421,219.154453 230.010215,222.073283 230.647513,222.569356 C231.236098,223.02719 232.856482,222.773779 235.076579,221.893 C235.71332,221.640386 236.384077,221.343618 237.077108,221.011718 C237.904138,220.615643 238.719663,220.190746 239.487339,219.76588 L239.989356,219.483967 L240.473695,219.202541 C240.740067,219.042679 241.085597,219.129023 241.245459,219.395395 C241.405321,219.661767 241.318977,220.007297 241.052605,220.167159 L240.776384,220.329225 C240.55683,220.45639 240.307261,220.597901 240.032098,220.750188 C239.246273,221.185099 238.411589,221.619978 237.563032,222.026361 C236.847947,222.368824 236.153925,222.675886 235.491444,222.938712 C232.886277,223.972259 230.998331,224.267514 229.956636,223.457227 C228.819455,222.572043 228.779851,219.592225 229.402493,214.8149 C229.548694,213.693148 229.729874,212.510239 229.938182,211.291067 C230.099881,210.344684 230.270782,209.417403 230.443536,208.532782 L230.682793,207.339838 L230.843,206.576 L230.535452,203.172689 C230.510182,202.89424 230.692374,202.644802 230.954609,202.577231 L231.044811,202.561652 Z"/><path id="Stroke-35" fill="#965C56" fill-rule="nonzero" d="M231.860336,232.886806 L237.200336,232.912306 C237.510993,232.91379 237.761627,233.166829 237.76015,233.477486 C237.758808,233.757077 237.553713,233.98805 237.286238,234.030367 L237.194964,234.037294 L231.854964,234.011794 C231.544307,234.01031 231.293673,233.757271 231.29515,233.446614 C231.296492,233.167023 231.501587,232.93605 231.769062,232.893733 L231.860336,232.886806 Z"/><path id="Fill-37" fill="#253368" d="M246.4687,210.88855 C246.4687,212.72755 247.5337,214.21705 248.8462,214.21705 C250.1587,214.21705 251.2237,212.72755 251.2237,210.88855 C251.2237,209.04955 250.1587,207.56005 248.8462,207.56005 C247.5337,207.56005 246.4687,209.04955 246.4687,210.88855"/><path id="Fill-39" fill="#253368" d="M221.5063,210.88855 C221.5063,212.72755 222.5698,214.21705 223.8838,214.21705 C225.1963,214.21705 226.2613,212.72755 226.2613,210.88855 C226.2613,209.04955 225.1963,207.56005 223.8838,207.56005 C222.5698,207.56005 221.5063,209.04955 221.5063,210.88855"/><path id="Stroke-41" fill="#D18682" fill-rule="nonzero" d="M243.927073,222.300416 C244.193292,222.034101 244.609951,222.00982 244.903602,222.227621 L244.987734,222.300223 L249.109734,226.420723 C249.40268,226.713563 249.402767,227.188437 249.109927,227.481384 C248.843708,227.747699 248.427049,227.77198 248.133398,227.554179 L248.049266,227.481577 L243.927266,223.361077 C243.63432,223.068237 243.634233,222.593363 243.927073,222.300416 Z"/><path id="Stroke-43" fill="#D18682" fill-rule="nonzero" d="M265.23984,227.117336 C265.32327,226.777841 265.666119,226.570259 266.005614,226.65369 C266.345109,226.73712 266.552691,227.079969 266.46926,227.419464 L266.395807,227.693266 C266.335644,227.90745 266.261374,228.154785 266.172204,228.432523 C265.918791,229.221831 265.596307,230.099573 265.198353,231.043781 C264.062557,233.738634 262.548231,236.432951 260.602772,238.950015 C253.448473,248.206356 242.612753,252.624026 227.450713,249.523062 C227.108207,249.453013 226.887338,249.11857 226.957388,248.776063 C227.027437,248.433557 227.36188,248.212688 227.704387,248.282738 C242.377366,251.283678 252.733131,247.061683 259.601093,238.175809 C261.474842,235.751524 262.93615,233.151538 264.031736,230.552089 C264.350928,229.794758 264.619185,229.083184 264.83999,228.430187 L264.966806,228.045521 C265.110906,227.596691 265.199887,227.279913 265.23984,227.117336 Z"/><path id="Stroke-45" fill="#965C56" fill-rule="nonzero" d="M233.275559,241.246138 C233.43363,240.9787 233.778573,240.890039 234.046012,241.048109 C234.31345,241.20618 234.402111,241.551123 234.244041,241.818562 L234.188587,241.918581 C234.164676,241.963486 234.135674,242.019709 234.10259,242.086502 C233.989797,242.314216 233.876473,242.572648 233.770588,242.85566 C233.326712,244.042065 233.154878,245.251237 233.402298,246.353624 C233.650473,247.459369 234.311544,248.3982 235.486635,249.14024 C235.749308,249.306111 235.827781,249.653513 235.66191,249.916185 C235.496039,250.178858 235.148637,250.257331 234.885965,250.09146 C233.457912,249.189682 232.618179,247.997121 232.304606,246.59999 C232.001877,245.251178 232.203195,243.834542 232.716918,242.461445 L232.870815,242.073556 C233.023003,241.711658 233.167028,241.429761 233.275559,241.246138 Z"/><path id="Stroke-47" fill="#D18682" fill-rule="nonzero" d="M275.253957,206.915206 C277.217522,206.160281 278.46074,206.892219 278.771334,208.45231 C278.857984,208.887548 278.863954,209.331599 278.82402,209.745747 L278.79834,209.954353 C278.731733,210.363176 278.34632,210.640597 277.937497,210.57399 C277.528674,210.507383 277.251253,210.12197 277.31786,209.713147 L277.330945,209.601776 C277.358001,209.321185 277.353882,209.014808 277.300205,208.745192 C277.167363,208.077933 276.868018,207.901696 275.792129,208.315338 C273.818509,209.07376 273.517169,210.480381 274.215315,213.533048 L274.348756,214.089044 C275.095014,217.077486 273.847763,219.11227 270.993187,219.683186 C270.587017,219.764419 270.191898,219.501007 270.110664,219.094837 C270.029431,218.688667 270.292843,218.293548 270.699013,218.212314 C272.704107,217.811296 273.434602,216.619557 272.893544,214.452854 L272.761933,213.904624 C271.90082,210.146271 272.322542,208.041688 275.253957,206.915206 Z"/><path id="Fill-49" fill="#D18682" d="M241.96135,232.26055 C242.01535,232.58455 242.32135,232.80355 242.64535,232.74955 C242.96935,232.69705 243.18835,232.38955 243.13435,232.06705 C243.08035,231.74155 242.77435,231.52255 242.45035,231.57655 C242.12635,231.63055 241.90735,231.93655 241.96135,232.26055"/><path id="Fill-51" fill="#D18682" d="M250.88455,234.49735 C250.93855,234.82135 251.24455,235.04035 251.56855,234.98635 C251.89255,234.93385 252.11155,234.62635 252.05755,234.30385 C252.00355,233.97985 251.69755,233.76085 251.37355,233.81335 C251.04955,233.86735 250.83055,234.17335 250.88455,234.49735"/><path id="Fill-53" fill="#D18682" d="M222.1384,236.44045 C222.0244,236.74795 222.1804,237.08995 222.4879,237.20545 C222.7954,237.31945 223.1389,237.16195 223.2529,236.85445 C223.3669,236.54695 223.2109,236.20495 222.9034,236.09095 C222.5959,235.97545 222.2524,236.13295 222.1384,236.44045"/><path id="Fill-55" fill="#D18682" d="M216.56035,233.5987 C216.44635,233.9062 216.60235,234.2482 216.90985,234.3637 C217.21735,234.4777 217.56085,234.3202 217.67485,234.0127 C217.78885,233.7052 217.63285,233.3632 217.32535,233.2492 C217.01785,233.1337 216.67585,233.2912 216.56035,233.5987"/><path id="Fill-57" fill="#D18682" d="M226.9798,238.1719 C226.8643,238.4794 227.0218,238.8214 227.3293,238.9354 C227.6368,239.0494 227.9803,238.8934 228.0943,238.5859 C228.2083,238.2784 228.0508,237.9364 227.7433,237.8224 C227.4358,237.7069 227.0938,237.8644 226.9798,238.1719"/><path id="Fill-59" fill="#D18682" d="M233.9158,236.8081 C233.8018,237.1156 233.9578,237.4576 234.2653,237.5731 C234.5728,237.6871 234.9163,237.5296 235.0303,237.2221 C235.1443,236.9146 234.9868,236.5726 234.6793,236.4586 C234.3718,236.3431 234.0298,236.5006 233.9158,236.8081"/><path id="Fill-61" fill="#D18682" d="M257.80885,232.05325 C257.69335,232.36075 257.85085,232.70275 258.15835,232.81825 C258.46585,232.93225 258.80785,232.77475 258.92335,232.46725 C259.03735,232.15975 258.87985,231.81775 258.57235,231.70375 C258.26485,231.58825 257.92285,231.74575 257.80885,232.05325"/><path id="Fill-63" fill="#D18682" d="M246.4453,240.6028 C246.4993,240.9268 246.8053,241.1458 247.1293,241.0918 C247.4533,241.0378 247.6723,240.7318 247.6183,240.4078 C247.5643,240.0838 247.2583,239.8648 246.9343,239.9188 C246.6103,239.9728 246.3913,240.2788 246.4453,240.6028"/><path id="Fill-65" fill="#D18682" d="M241.834,239.68075 C241.888,240.00475 242.194,240.22375 242.518,240.16975 C242.842,240.11575 243.061,239.80975 243.007,239.48575 C242.953,239.16175 242.647,238.94275 242.323,238.99675 C241.999,239.05075 241.78,239.35675 241.834,239.68075"/><path id="Fill-67" fill="#D18682" d="M223.21,241.2811 C223.264,241.6051 223.57,241.8241 223.894,241.7701 C224.2165,241.7176 224.4355,241.4101 224.383,241.0876 C224.329,240.7621 224.023,240.5446 223.699,240.5971 C223.375,240.6511 223.156,240.9571 223.21,241.2811"/><path id="Fill-69" fill="#D18682" d="M226.1602,234.26005 C226.2142,234.58405 226.5202,234.80305 226.8442,234.74905 C227.1667,234.69505 227.3857,234.38905 227.3332,234.06505 C227.2792,233.74105 226.9732,233.52205 226.6492,233.57605 C226.3252,233.63005 226.1062,233.93605 226.1602,234.26005"/><path id="Fill-71" fill="#D18682" d="M224.02,228.31645 C224.074,228.64045 224.38,228.85945 224.704,228.80545 C225.028,228.75145 225.247,228.44545 225.193,228.12145 C225.139,227.79745 224.833,227.57845 224.509,227.63245 C224.185,227.68645 223.966,227.99245 224.02,228.31645"/><path id="Fill-73" fill="#D18682" d="M251.4697,238.20265 C251.5237,238.52665 251.8297,238.74565 252.1537,238.69165 C252.4762,238.63765 252.6952,238.33165 252.6427,238.00765 C252.5887,237.68365 252.2827,237.46465 251.9587,237.51865 C251.6347,237.57265 251.4157,237.87865 251.4697,238.20265"/><path id="Fill-75" fill="#597EF7" d="M210.6247,268.7938 L214.5022,256.1248 L225.1762,257.0758 L231.5707,284.6383 L245.7262,257.5948 L277.3147,254.3698 L281.7577,269.5858 C281.7577,269.5858 262.6822,297.5428 229.3162,292.4098 C212.8327,289.8733 210.6247,268.7938 210.6247,268.7938"/><path id="Stroke-77" fill="#1D39C4" fill-rule="nonzero" d="M159.001786,318.950841 C159.311181,319.023017 159.503485,319.332341 159.431309,319.641736 L159.377995,319.887269 C159.349233,320.026527 159.31402,320.205802 159.273572,320.424467 L159.242273,320.595841 C159.097922,321.396082 158.953308,322.343204 158.818162,323.432177 C158.003786,329.994216 157.902036,338.110652 158.974028,347.543627 C160.458714,360.608078 164.03958,374.514044 170.178392,389.024922 C170.302174,389.317518 170.165324,389.655059 169.872728,389.778842 C169.580132,389.902624 169.242591,389.765774 169.118808,389.473178 C162.936306,374.859023 159.327827,360.845826 157.830886,347.673537 C156.748294,338.147293 156.851183,329.940043 157.676421,323.290482 L157.796737,322.373883 C157.878282,321.786181 157.962189,321.245364 158.046637,320.752369 L158.110046,320.391604 C158.149089,320.175162 158.18611,319.980476 158.220592,319.807812 L158.310891,319.380364 C158.37585,319.101909 158.632898,318.918297 158.909207,318.936976 L159.001786,318.950841 Z"/><path id="Fill-79" fill="#4E5C93" d="M180.268,448.366 C228.529,442.1845 282.496,445.726 282.496,445.726 L280.594,432.175 C280.594,432.175 219.2575,424.33 181.378,434.473 C180.505,440.971 180.268,448.366 180.268,448.366"/><path id="Stroke-81" fill="#253368" fill-rule="nonzero" d="M226.676857,446.09544 C227.107118,446.080858 227.47349,446.390353 227.540185,446.80467 L227.559179,447.150279 L227.707862,450.873369 L227.876516,454.693764 C228.023383,457.894344 228.195366,461.347263 228.393608,465.000986 C229.129896,478.57118 230.073883,492.141022 231.245528,504.80387 L231.513875,507.645881 C233.230646,525.461631 235.275391,539.766524 237.668783,549.339619 C237.781908,549.792097 237.506808,550.250608 237.054331,550.363733 C236.601853,550.476858 236.143342,550.201758 236.030217,549.749281 C233.484667,539.567583 231.341941,524.178144 229.563712,504.959482 C228.458914,493.0191 227.556466,480.27822 226.839376,467.490546 L226.707089,465.092493 C226.488729,461.067995 226.302181,457.286676 226.145912,453.817062 L225.86252,446.969593 C225.846149,446.503476 226.210739,446.112342 226.676857,446.09544 Z"/><path id="Stroke-83" fill="#253368" fill-rule="nonzero" d="M208.312988,446.728968 C208.77937,446.7245 209.161169,447.098856 209.165759,447.565238 L209.207213,450.530656 C209.245791,452.891523 209.2993,455.522401 209.370145,458.355726 C209.572541,466.45031 209.873107,474.54461 210.290977,482.097412 L210.496466,485.601363 C211.572591,502.927192 213.208947,514.275034 215.180394,515.808036 C216.148777,516.561506 217.329144,517.386142 218.694069,518.269552 C219.727312,518.93829 220.85659,519.634421 222.066641,520.351567 C224.272647,521.658973 226.638595,522.973481 229.004845,524.229689 L229.969191,524.738295 C230.280307,524.901279 230.580665,525.057539 230.868995,525.206556 L232.155972,525.863706 C232.573137,526.072289 232.742226,526.579557 232.533644,526.996722 C232.325061,527.413887 231.817793,527.582976 231.400628,527.374394 L230.521096,526.927233 C229.824424,526.569676 229.048428,526.165085 228.212866,525.721497 C225.824949,524.453786 223.43673,523.126904 221.205515,521.804558 C219.977337,521.076669 218.829424,520.369051 217.776354,519.68748 C216.373329,518.779411 215.154289,517.927757 214.1434,517.141215 C211.405321,515.012078 209.732897,502.584922 208.604557,482.190716 C208.21786,475.201364 207.931494,467.752891 207.730225,460.269323 L207.636904,456.536445 C207.601697,455.011451 207.571683,453.553639 207.54645,452.17458 L207.476718,447.581862 C207.47225,447.11548 207.846606,446.733681 208.312988,446.728968 Z"/><path id="Fill-85" fill="#E1E7F3" d="M239.06905,444.0067 L239.06905,430.4707 C239.06905,428.7022 237.72055,427.2547 236.01355,427.2037 C230.35255,427.0342 217.77205,426.8827 206.36005,428.3302 C204.76855,428.5312 203.56705,429.9202 203.56705,431.5792 L203.56705,444.3052 C203.56705,446.1262 204.99355,447.5962 206.75305,447.5737 C213.22105,447.4942 227.95855,447.3187 235.93855,447.2737 C237.67555,447.2647 239.06905,445.8037 239.06905,444.0067"/><path id="Fill-87" fill="#4E5C93" d="M235.40695,441.67015 L235.40395,432.70915 C235.40395,431.54065 234.30295,430.58215 232.90945,430.54915 C228.29095,430.43815 218.02795,430.34365 208.71745,431.30365 C207.41845,431.43865 206.43895,432.35815 206.43895,433.45615 L206.44195,441.88015 C206.44345,443.08465 207.60745,444.05665 209.04295,444.04315 C214.31995,443.98765 226.34395,443.86615 232.85395,443.83465 C234.27145,443.82715 235.40695,442.85965 235.40695,441.67015"/><polygon id="Fill-89" fill="#E1E7F3" points="206.539 429.575 236.509 442.951 235.271 445.675 205.052 432.052"/><polygon id="Fill-91" fill="#E1E7F3" points="205.251 442.521 235.29 429.302 236.478 432.05 206.088 445.286"/><path id="Stroke-93" fill="#253368" fill-rule="nonzero" d="M266.15716,446.113305 C266.613703,446.017904 267.061143,446.310667 267.156545,446.76721 L267.306516,447.424764 C267.338838,447.560307 267.374048,447.704997 267.412172,447.858433 C267.630737,448.738087 267.898432,449.71946 268.216861,450.776884 C269.126367,453.797129 270.258281,456.816586 271.623428,459.628543 C276.447863,469.566011 282.747965,474.30047 290.76243,471.347527 C291.200074,471.186277 291.685573,471.410337 291.846823,471.84798 C292.008073,472.285624 291.784013,472.771123 291.34637,472.932373 C282.290113,476.269166 275.259642,470.985842 270.104019,460.366185 C268.695808,457.465524 267.533248,454.364318 266.599599,451.2639 C266.327369,450.359893 266.091084,449.509335 265.889678,448.726888 L265.715974,448.033891 L265.528965,447.231874 C265.517644,447.180442 265.509084,447.140581 265.503255,447.11269 C265.407854,446.656147 265.700617,446.208707 266.15716,446.113305 Z"/><path id="Stroke-95" fill="#253368" fill-rule="nonzero" d="M223.076307,529.916284 C223.467361,529.662099 223.990431,529.773053 224.244616,530.164107 C224.477619,530.522573 224.403803,530.991969 224.088672,531.2635 L223.996793,531.332416 L204.976793,543.695416 C204.585739,543.949601 204.062669,543.838647 203.808484,543.447593 C203.575481,543.089127 203.649297,542.619731 203.964428,542.3482 L204.056307,542.279284 L223.076307,529.916284 Z"/><path id="Stroke-97" fill="#253368" fill-rule="nonzero" d="M231.384598,527.314794 C231.63683,526.922477 232.15934,526.808916 232.551656,527.061148 C232.91128,527.292361 233.036671,527.750682 232.860789,528.127646 L232.805302,528.228206 L224.246302,541.540706 C223.99407,541.933023 223.47156,542.046584 223.079244,541.794352 C222.71962,541.563139 222.594229,541.104818 222.770111,540.727854 L222.825598,540.627294 L231.384598,527.314794 Z"/><path id="Stroke-99" fill="#1D39C4" fill-rule="nonzero" d="M278.462826,269.534167 C278.754119,269.407349 279.093065,269.540683 279.219883,269.831976 C279.334019,270.094139 279.237433,270.394902 279.004621,270.544883 L278.922074,270.589033 L258.001574,279.697033 C257.710281,279.823851 257.371335,279.690517 257.244517,279.399224 C257.130381,279.137061 257.226967,278.836298 257.459779,278.686317 L257.542326,278.642167 L278.462826,269.534167 Z"/><path id="Stroke-101" fill="#1D39C4" fill-rule="nonzero" d="M231.730868,284.085091 C232.035982,284.173632 232.21155,284.492753 232.123009,284.797868 L231.936798,285.466464 L231.749763,286.164943 C231.652397,286.534374 231.549465,286.933706 231.441893,287.361212 L231.100495,288.75086 C230.703053,290.408011 230.310141,292.187919 229.937904,294.060406 C228.809528,299.736545 228.047784,305.356201 227.821053,310.600891 C227.670854,314.075246 227.762832,317.285777 228.124357,320.177692 C228.163767,320.49294 227.940156,320.780447 227.624908,320.819857 C227.30966,320.859267 227.022153,320.635656 226.982743,320.320408 C226.612601,317.359561 226.518816,314.085967 226.671626,310.5512 C226.901183,305.241137 227.670512,299.565528 228.809485,293.836084 C229.238404,291.678467 229.694562,289.642706 230.153843,287.773517 L230.326172,287.080466 C230.434853,286.648553 230.538906,286.244878 230.637404,285.871161 L231.018091,284.477232 C231.106632,284.172118 231.425753,283.99655 231.730868,284.085091 Z"/><path id="Fill-103" fill="#FFC2BD" d="M171.32665,433.56235 C197.43115,439.82185 264.53815,452.88085 301.27915,455.27035 C301.27915,455.27035 339.63115,456.81085 340.94365,423.03835 C342.22465,390.11035 302.98315,390.43585 302.98315,390.43585 C259.06465,389.85385 201.04165,394.90735 176.55865,393.73885 C176.55865,393.73885 163.40665,393.75385 159.81565,409.75735 C155.55415,428.74585 171.32665,433.56235 171.32665,433.56235"/><g id="分组" transform="translate(115.000000, 389.443000)"><mask id="mask-2" fill="#fff"><use xlink:href="#path-1"/></mask><path id="Fill-105" fill="#FFC2BD" d="M161.76975,51.83025 C135.17325,55.46625 73.14525,66.66075 36.34875,65.39175 C36.34875,65.39175 -1.96575,63.11775 0.07875,29.38275 C2.07375,-3.51075 41.08875,0.70725 41.08875,0.70725 C84.84825,4.48875 136.03875,10.41675 160.51725,11.68425 C160.51725,11.68425 173.60325,13.00425 175.58775,29.28525 C177.94275,48.60225 161.76975,51.83025 161.76975,51.83025" mask="url(#mask-2)"/></g><path id="Fill-107" fill="#FFC2BD" d="M281.1262,328.61425 C282.5752,317.79625 289.4347,289.84375 318.9622,291.54175 C342.5737,292.89775 349.2622,312.73525 350.9617,327.88525 C353.8987,354.06025 347.3842,393.52975 341.3887,423.05275 C341.3887,423.05275 336.9502,449.47075 304.4677,443.92675 C276.9772,439.23475 279.4222,410.96425 279.4222,410.96425 C279.4222,410.96425 279.4702,340.97875 281.1262,328.61425"/><path id="Fill-109" fill="#597EF7" d="M278.46895,382.4275 C278.46895,382.4275 272.82895,322.885 281.69395,305.128 C290.56045,287.3725 311.71495,272.938 334.27195,289.5685 C360.90895,309.208 349.57195,381.019 349.57195,381.019 C349.57195,381.019 315.44395,381.1405 278.46895,382.4275"/><path id="Fill-111" fill="#FFC2BD" d="M274.3777,442.19905 C274.3777,442.19905 269.0812,439.31005 265.3417,424.35955 C261.9547,410.82055 268.7467,404.46955 268.7467,404.46955 C268.7467,404.46955 280.6507,395.37655 296.3392,395.45905 C306.6202,395.51455 328.4812,391.95055 326.7487,397.14955 C323.9332,405.59605 306.8062,405.90205 304.7857,410.66455 C300.6952,420.31405 335.4157,425.36755 340.3042,428.82655 C347.8087,434.14105 335.5657,450.75805 306.2947,448.44205 C298.3117,447.80905 285.2302,446.71105 274.3777,442.19905"/><path id="Stroke-113" fill="#965C56" fill-rule="nonzero" d="M275.03719,397.805467 C281.391869,394.987003 288.424161,393.705355 295.815809,394.807156 L296.432604,394.904508 C298.983374,395.329778 301.925307,395.465425 305.431012,395.371946 L306.09498,395.351748 C308.026248,395.285939 309.865742,395.171916 312.66474,394.96024 L316.499297,394.673978 C320.876754,394.363614 322.383124,394.350429 324.109125,394.583526 C327.144326,394.99343 328.178073,396.520026 326.672391,399.120702 C324.471764,402.921447 321.336642,405.220393 317.139864,406.651758 C316.126988,406.997212 315.068721,407.28894 313.845368,407.57334 L312.954791,407.77332 L310.796659,408.22905 C307.256934,408.982945 305.846604,409.604527 305.304473,410.882927 C304.360074,413.110296 305.685417,415.225666 309.184338,417.357816 C312.141297,419.159709 316.379275,420.82718 322.271118,422.666005 L324.135738,423.232497 C327.325621,424.187684 332.389521,425.662304 332.815686,425.791046 L333.930033,426.13273 C336.875508,427.051019 338.588825,427.721328 339.502143,428.367771 C343.692755,431.334865 342.573783,437.682133 336.995277,442.733316 C330.565021,448.555735 319.804869,451.701441 306.43125,450.642599 C296.852905,449.88504 280.574982,446.322253 270.844287,442.410319 L270.369,442.215 L265.34483,443.011175 C263.039626,443.37245 260.524585,443.762327 257.828515,444.175211 L256.92316,444.313684 C247.542839,445.74657 237.802122,447.179456 228.099193,448.534999 L224.866829,448.983876 C219.603219,449.710381 214.483772,450.394564 209.54531,451.029269 L204.225091,451.702772 C176.978194,455.097044 158.207151,456.551376 151.255801,455.388642 C150.949398,455.337391 150.742556,455.047455 150.793808,454.741051 C150.845059,454.434648 151.134995,454.227806 151.441399,454.279058 L151.891553,454.34813 C159.508112,455.419017 180.034995,453.687769 209.401901,449.913447 L213.136424,449.428601 C216.903761,448.9347 220.76781,448.413974 224.71301,447.869441 C234.397388,446.532764 244.164278,445.110119 253.615217,443.678877 L261.141378,442.527065 L268.321597,441.403057 L270.345491,441.080033 C270.448723,441.063375 270.554555,441.075822 270.651105,441.115977 C280.179196,445.078662 296.845146,448.755914 306.519996,449.521105 C319.600585,450.556746 330.054127,447.500677 336.240173,441.899384 C341.355447,437.267645 342.328613,431.747447 338.852129,429.28598 C338.033365,428.706462 336.269085,428.03041 333.217555,427.089812 L331.313087,426.521944 C329.090024,425.870624 324.378402,424.491588 322.270798,423.843573 L321.935953,423.739918 C315.962051,421.875482 311.655191,420.18091 308.598922,418.3185 C304.682468,415.931916 303.047926,413.323038 304.268741,410.443741 C304.970891,408.788001 306.451822,408.053709 309.875162,407.279361 L312.714126,406.674362 C312.922254,406.629073 313.117828,406.58567 313.308155,406.542455 L313.590626,406.477561 C314.780021,406.201055 315.803375,405.918952 316.776709,405.586984 C320.733283,404.237544 323.646763,402.101124 325.6988,398.557013 C326.725275,396.784042 326.29926,396.055258 324.163778,395.727935 L323.715949,395.667307 C322.140963,395.476644 320.558565,395.510505 316.2636,395.81879 L311.793643,396.153229 C309.957374,396.2876 308.537731,396.376087 307.162349,396.436127 L306.133293,396.476096 C302.492073,396.600173 299.424418,396.4944 296.745449,396.092953 L296.247652,396.014201 C288.868472,394.784695 281.837227,396.020162 275.493307,398.833856 C273.872333,399.5528 272.425224,400.322708 271.172148,401.091684 L270.674619,401.403727 C270.439445,401.554612 270.224775,401.697481 270.031152,401.830928 L269.695277,402.068725 C269.677649,402.081721 269.662638,402.092944 269.650265,402.102339 C269.402847,402.290207 269.049979,402.241932 268.862111,401.994515 C268.674243,401.747097 268.722518,401.394229 268.969935,401.206361 L269.176761,401.05559 C269.238417,401.011786 269.310459,400.961325 269.39273,400.904622 L269.827457,400.612389 C270.058828,400.460465 270.311094,400.300145 270.58373,400.132836 C271.877842,399.338677 273.368782,398.54545 275.03719,397.805467 Z"/><path id="Stroke-115" fill="#965C56" fill-rule="nonzero" d="M305.492847,426.619683 C305.699991,426.388164 306.055598,426.368403 306.287117,426.575547 L306.382973,426.658147 C306.444033,426.709447 306.524796,426.775502 306.625292,426.855213 L306.732365,426.939436 C307.117106,427.239682 307.581291,427.575516 308.125148,427.938149 C309.686407,428.979164 311.569272,430.02207 313.775726,430.9967 C320.547858,433.988072 328.800718,435.692031 338.558609,435.441435 C338.869167,435.43346 339.127389,435.678751 339.135554,435.989309 C339.14334,436.299867 338.898049,436.558089 338.587491,436.566065 C328.659998,436.821016 320.242541,435.083073 313.321165,432.025777 C311.054258,431.024444 309.114897,429.950245 307.501037,428.874157 C307.047091,428.571474 306.644723,428.285513 306.293795,428.020808 L306.040242,427.826336 C305.792791,427.633228 305.62513,427.49282 305.536983,427.413953 C305.305464,427.206809 305.285703,426.851202 305.492847,426.619683 Z"/><path id="Stroke-117" fill="#965C56" fill-rule="nonzero" d="M304.280231,435.760041 C304.414993,435.480132 304.751151,435.362468 305.031059,435.497231 C310.945161,438.344588 317.102023,440.120199 323.224137,441.026739 C327.120894,441.603757 330.485644,441.764102 333.079172,441.682941 L333.482232,441.668144 C333.751126,441.656786 333.933387,441.645558 334.023741,441.638338 C334.333414,441.61359 334.604515,441.844568 334.629262,442.154241 C334.65401,442.463914 334.423032,442.735015 334.113359,442.759762 L333.664031,442.786168 L333.529712,442.792142 C330.818466,442.906669 327.235941,442.758059 323.059348,442.139605 C316.830704,441.21729 310.565698,439.410491 304.543041,436.510869 C304.263132,436.376107 304.145468,436.039949 304.280231,435.760041 Z"/><path id="Stroke-119" fill="#965C56" fill-rule="nonzero" d="M296.387855,441.408987 C296.51312,441.124702 296.845127,440.99579 297.129413,441.121055 L297.954264,441.498805 C298.796159,441.889349 299.925749,442.420198 300.084593,442.493427 C301.505606,443.148527 302.768885,443.690128 304.131657,444.211558 C309.360704,446.21232 315.009936,447.480093 321.709072,447.831573 C322.019305,447.847849 322.257604,448.112538 322.241327,448.422772 C322.225051,448.733005 321.960362,448.971304 321.650128,448.955027 C314.828734,448.597134 309.064677,447.303592 303.729628,445.262271 C302.572426,444.819497 301.486946,444.363015 300.322759,443.838439 L296.887234,442.245736 C296.800871,442.206383 296.728971,442.173979 296.675787,442.150545 C296.391502,442.02528 296.26259,441.693273 296.387855,441.408987 Z"/><path id="Stroke-121" fill="#965C56" fill-rule="nonzero" d="M178.169699,391.384151 L179.731139,391.61907 C181.32472,391.855283 183.014374,392.09536 184.796944,392.339107 L187.327857,392.679424 C195.04852,393.70091 204.234078,394.771016 214.590482,395.872176 L215.704564,395.990275 C226.08123,397.086973 237.106952,398.162325 248.21387,399.182547 L252.977293,399.616312 C255.714207,399.863401 258.330808,400.09592 260.802411,400.312403 L269.919041,401.093608 C270.228648,401.119174 270.458908,401.390885 270.433342,401.700491 C270.410333,401.979137 270.187946,402.193512 269.917995,402.214963 L269.808407,402.213301 L265.164462,401.820029 L256.889737,401.096417 L252.87614,400.736755 C240.163978,399.5891 227.451722,398.363084 215.586322,397.109044 L212.268152,396.755155 C202.0715,395.657548 193.066366,394.592111 185.545359,393.576159 L182.888637,393.210606 C181.164152,392.968735 179.533508,392.730556 177.999801,392.496249 C177.692704,392.449333 177.481786,392.162348 177.528701,391.855251 C177.570926,391.578864 177.807606,391.380381 178.078393,391.37765 L178.169699,391.384151 Z"/><path id="Stroke-123" fill="#1D39C4" fill-rule="nonzero" d="M283.999281,311.86014 C284.141361,311.575979 284.486898,311.4608 284.77106,311.602881 C285.055221,311.744961 285.1704,312.090498 285.028319,312.37466 C282.746084,316.939131 281.140691,329.051159 280.137799,346.270574 C279.712621,353.570775 279.421042,361.353744 279.239253,369.174034 L279.161246,372.883565 C279.12337,374.898833 279.095045,376.803314 279.07497,378.572749 L279.046,381.839 L349.560407,380.443263 C349.846282,380.4376 350.087575,380.641475 350.137562,380.913866 L350.147163,381.007007 C350.1526,381.292882 349.948725,381.534175 349.676334,381.584162 L349.583193,381.593537 L278.480193,383.002264 C278.157587,383.008428 277.892823,382.748271 277.893548,382.425602 L277.916429,379.310943 L277.943831,377.008202 C277.968764,375.160762 278.00233,373.185139 278.045831,371.105565 C278.209742,363.269947 278.481642,355.434126 278.885514,348.042166 L279.071649,344.822047 C280.089833,328.149305 281.679361,316.499979 283.999281,311.86014 Z"/><path id="Stroke-125" fill="#965C56" fill-rule="nonzero" d="M119.257032,376.172668 C119.327257,375.902036 119.582966,375.728758 119.852617,375.753691 L119.942782,375.769482 L169.789282,388.703982 C170.089984,388.78201 170.270496,389.089031 170.192468,389.389732 C170.122243,389.660364 169.866534,389.833642 169.596883,389.808709 L169.506718,389.792918 L119.660218,376.858418 C119.359516,376.78039 119.179004,376.473369 119.257032,376.172668 Z"/><path id="Fill-127" fill="#FFC2BD" d="M181.14625,392.5789 C181.14625,392.5789 154.22575,362.0254 146.15575,361.5484 C138.08425,361.0714 123.88675,363.8584 121.62625,368.1499 C116.29825,378.2659 118.11175,393.2074 118.11175,393.2074 L143.45125,390.7894 L181.14625,392.5789 Z"/><path id="Stroke-129" fill="#965C56" fill-rule="nonzero" d="M120.836794,367.887802 C119.226846,370.944981 118.150615,374.95866 117.524483,379.702389 C116.833574,384.93688 116.742877,390.486295 117.001596,395.549542 L117.035772,396.173794 C117.053215,396.471595 117.071095,396.7476 117.088985,397.000429 L117.129147,397.523999 L117.144172,397.613317 C117.216773,397.901555 117.5076,398.089804 117.808508,398.024667 L142.668,392.642 L180.527041,392.269873 C181.003168,392.265182 181.25847,391.70795 180.951105,391.344294 L179.836322,390.043553 L178.785114,388.833308 C178.175391,388.135047 177.523829,387.395053 176.835564,386.62051 C173.689008,383.079514 170.419389,379.538386 167.194548,376.232229 C165.790551,374.79283 164.422941,373.427251 163.099759,372.146803 L162.323262,371.400135 C155.527458,364.907926 150.41314,361.165146 147.39719,360.98688 C137.923042,360.426884 123.382376,363.665161 120.923338,367.734759 L120.836794,367.887802 Z M147.33081,362.10992 C150.0652,362.271544 155.368752,366.230993 162.317426,372.955246 C163.632471,374.227819 164.992478,375.585807 166.389211,377.017759 C169.60063,380.310155 172.858818,383.838904 175.994611,387.367787 L177.568035,389.150657 C177.942489,389.577974 178.302272,389.990802 178.646272,390.387583 L179.31,391.156 L142.601959,391.518427 L142.488492,391.531133 L118.202,396.788 L118.158815,396.107474 C118.147361,395.911885 118.13609,395.706634 118.12513,395.492133 C117.869606,390.491404 117.959264,385.005581 118.639809,379.849602 C119.223517,375.427294 120.204063,371.672833 121.634348,368.798523 L121.83218,368.412047 C123.726681,364.815386 138.160628,361.567891 147.33081,362.10992 Z"/><path id="Stroke-131" fill="#965C56" fill-rule="nonzero" d="M137.230378,369.633512 C137.919297,369.614967 138.593981,369.619841 139.253387,369.649103 C139.563742,369.662875 139.804169,369.925632 139.790397,370.235987 C139.776625,370.546342 139.513868,370.786769 139.203513,370.772997 C138.571387,370.744946 137.92339,370.740264 137.260651,370.758104 C133.833648,370.850357 130.1504,371.530397 126.449045,372.607164 C125.047646,373.014847 123.742025,373.451644 122.567683,373.888177 L121.987274,374.108211 L121.283547,374.388661 C121.200221,374.423009 121.13885,374.448881 121.100388,374.465485 C120.815169,374.58861 120.48414,374.457207 120.361015,374.171988 C120.23789,373.886769 120.369293,373.55574 120.654512,373.432615 L121.057985,373.265729 L121.580489,373.05933 C121.766956,372.987168 121.965541,372.911797 122.175698,372.833676 C123.374572,372.388023 124.705874,371.942635 126.134796,371.526945 C129.921239,370.425425 133.694949,369.728683 137.230378,369.633512 Z"/><path id="Stroke-133" fill="#965C56" fill-rule="nonzero" d="M130.029132,377.817153 C134.429309,376.908969 137.780974,376.524853 139.739313,376.836176 C140.046121,376.88495 140.255298,377.173206 140.206524,377.480013 C140.15775,377.786821 139.869494,377.995998 139.562687,377.947224 C137.784327,377.664513 134.52374,378.038191 130.256536,378.91893 C129.021051,379.173931 127.725605,379.466533 126.388801,379.789536 C124.981718,380.12952 123.585994,380.489023 122.24172,380.85242 L120.579172,381.310985 L119.117963,381.731678 C118.820294,381.820575 118.506919,381.651332 118.418022,381.353663 C118.329125,381.055994 118.498368,380.742619 118.796037,380.653722 L119.374022,380.484728 C119.83736,380.350868 120.363796,380.20177 120.943607,380.041241 C122.599904,379.58267 124.352756,379.124118 126.124578,378.696004 C127.203333,378.435352 128.255928,378.194204 129.273069,377.976231 L130.029132,377.817153 Z"/><path id="Stroke-135" fill="#965C56" fill-rule="nonzero" d="M129.184535,384.99712 C133.585205,384.088888 136.937176,383.704745 138.895563,384.016076 C139.202371,384.06485 139.411548,384.353106 139.362774,384.659913 C139.314,384.966721 139.025744,385.175898 138.718937,385.127124 C136.940527,384.844405 133.679622,385.218111 129.411926,386.098899 C128.176441,386.353885 126.880998,386.646464 125.544198,386.969439 C124.136995,387.309423 122.741147,387.668926 121.39675,388.032323 L119.734048,388.490889 L118.272699,388.911582 C117.975027,389.000472 117.661657,388.83122 117.572768,388.533549 C117.483878,388.235877 117.65313,387.922507 117.950801,387.833618 L119.114566,387.496922 C119.42195,387.409657 119.750652,387.317455 120.098571,387.221137 C121.755019,386.762567 123.508026,386.304015 125.279997,385.875902 C126.628434,385.550115 127.935996,385.254799 129.184535,384.99712 Z"/><path id="Stroke-137" fill="#965C56" fill-rule="nonzero" d="M288.428262,389.26681 C288.738558,389.251767 289.002297,389.491116 289.018012,389.801412 C289.030879,390.080678 288.83836,390.322234 288.573515,390.378718 L288.482738,390.39049 L195.568238,394.89499 C195.257942,394.910033 194.994203,394.670684 194.978488,394.360388 C194.965621,394.081122 195.15814,393.839566 195.422985,393.783082 L195.513762,393.77131 L288.428262,389.26681 Z"/></g></svg>