<?xml version="1.0" encoding="UTF-8"?>
<svg width="512px" height="1024px" viewBox="0 0 512 1024" version="1.1" xmlns="http://www.w3.org/2000/svg" xmlns:xlink="http://www.w3.org/1999/xlink">
    <!-- Generator: Sketch 61.2 (89653) - https://sketch.com -->
    <title>2.人物组件/2.保安/站立/思考</title>
    <desc>Created with Sketch.</desc>
    <defs>
        <polygon id="path-1" points="0.25455 1.2303 58.948319 1.2303 58.948319 66 0.25455 66"></polygon>
        <polygon id="path-3" points="1.33547205 0.9276 70.86855 0.9276 70.86855 66 1.33547205 66"></polygon>
        <polygon id="path-5" points="0.62982704 1.053 69.2878075 1.053 69.2878075 69.96675 0.62982704 69.96675"></polygon>
        <polygon id="path-7" points="1.18918305 0.5736405 73.995 0.5736405 73.995 153.8204 1.18918305 153.8204"></polygon>
    </defs>
    <g id="2.人物组件/2.保安/站立/思考" stroke="none" stroke-width="1" fill="none" fill-rule="evenodd">
        <path d="M314.57185,423.9229 C314.57185,423.9229 372.59185,299.8099 367.09135,288.8059 C361.58935,277.8034 320.47885,261.1444 259.09885,265.3699 C197.45485,269.6134 175.89985,294.6559 175.89985,294.6559 C175.89985,294.6559 191.74885,368.1979 205.04185,415.9204 C198.03985,428.4229 210.76735,437.2999 210.76735,437.2999 C210.76735,437.2999 290.66185,433.6054 309.66685,434.6059 C318.54235,430.8019 314.57185,423.9229 314.57185,423.9229" id="Fill-1" fill="#597EF7"></path>
        <path d="M192.52405,517.7146 C192.52405,517.7146 195.08905,497.7031 199.84405,477.7336 C202.65805,465.9136 209.49955,448.7116 209.49955,448.7116 L210.76855,437.3011 C245.00155,425.2546 307.76605,434.7646 307.76605,434.7646 C307.76605,434.7646 308.79655,439.9951 311.33155,446.9686 C334.99255,478.8601 331.61455,526.1611 331.61455,526.1611 L265.75555,552.5596 L192.52405,517.7146 Z" id="Fill-3" fill="#4E5C93"></path>
        <path d="M331.61395,510.9574 C331.61395,510.9574 284.72995,443.1649 260.95645,537.3094 C264.88495,726.7729 263.70745,762.2809 263.70745,762.2809 C263.70745,762.2809 257.28145,788.3989 268.69195,795.0544 C308.63245,795.0544 312.43495,796.4584 312.43495,796.4584 C312.43495,796.4584 327.97345,783.7894 315.87745,763.6744 C336.68245,546.4339 331.61395,510.9574 331.61395,510.9574" id="Fill-5" fill="#4E5C93"></path>
        <path d="M197.0284,491.247624 C197.0284,491.247624 227.1649,490.75735 262.3504,535.45285 C233.2099,671.02435 213.6484,762.88735 213.6484,762.88735 C213.6484,762.88735 214.9189,784.38085 202.5574,793.89085 L159.8539,793.89085 C159.8539,793.89085 146.5579,777.45385 159.9349,762.42835 C174.4324,597.87235 197.0284,491.247624 197.0284,491.247624" id="Fill-7" fill="#4E5C93"></path>
        <g id="分组" transform="translate(268.000000, 791.947000)">
            <mask id="mask-2" fill="white">
                <use xlink:href="#path-1"></use>
            </mask>
            <g id="Clip-10"></g>
            <path d="M56.62005,66.0003 L0.25455,66.0003 L1.81455,1.2303 L43.37355,1.2303 L37.00605,44.4393 L58.10055,61.8843 C59.77905,63.2733 58.79805,66.0003 56.62005,66.0003" id="Fill-9" fill="#253368" mask="url(#mask-2)"></path>
        </g>
        <g id="分组" transform="translate(131.500000, 791.947000)">
            <mask id="mask-4" fill="white">
                <use xlink:href="#path-3"></use>
            </mask>
            <g id="Clip-12"></g>
            <path d="M70.86855,0.9276 L28.54305,1.1151 L24.38205,41.9091 L2.11005,61.9491 C0.52605,63.3726 1.53405,66.0006 3.66405,66.0006 L57.30555,66.0006 L70.86855,0.9276 Z" id="Fill-11" fill="#253368" mask="url(#mask-4)"></path>
        </g>
        <polygon id="Fill-13" fill="#FFC2BD" points="302.0599 256.618 298.8964 201.4075 246.5929 201.4075 246.6424 261.055 261.6439 289.585"></polygon>
        <path d="M283.162,171.01765 C283.162,171.01765 254.38,162.07765 245.8375,175.33015 C237.529,188.21815 234.793,236.06515 249.658,244.04665 C261.772,250.55215 287.194,248.94715 294.2725,226.10815 C294.2725,226.10815 300.1555,208.60915 298.984,192.68815 C297.8125,176.76865 283.162,171.01765 283.162,171.01765" id="Fill-15" fill="#FFC2BD"></path>
        <path d="M294.91375,212.1754 C294.91375,212.1754 303.52975,197.3404 309.16675,205.8499 C314.80525,214.3594 303.97375,229.0924 295.13575,228.0514 C286.29775,227.0104 294.91375,212.1754 294.91375,212.1754" id="Fill-17" fill="#FFC2BD"></path>
        <g id="分组" transform="translate(238.000000, 145.447000)">
            <mask id="mask-6" fill="white">
                <use xlink:href="#path-5"></use>
            </mask>
            <g id="Clip-20"></g>
            <path d="M1.50375,57.19875 C1.50375,57.19875 -1.45125,38.65725 3.50625,27.46275 C8.46375,16.26675 14.68725,5.12925 18.52725,11.33475 C19.29075,8.51475 23.35275,2.98875 26.29125,1.22025 C29.22825,-0.54825 37.52625,12.20925 37.52625,12.20925 C37.52625,12.20925 37.15575,6.47925 40.47825,10.12425 C43.80075,13.76625 64.52175,25.50975 67.74225,31.36875 C70.96425,37.22925 68.14875,58.09725 68.14875,58.09725 C68.14875,58.09725 61.37025,57.15075 57.13125,69.96675 C58.56225,59.55975 54.46425,53.89875 52.32525,51.71775 C51.51525,50.88975 51.08175,49.77375 51.04575,48.61575 C50.97975,46.39425 50.90025,42.66675 50.97525,39.03375 C51.00675,37.43175 49.89825,36.05325 48.33375,35.70825 C32.40825,32.19075 14.64525,33.87825 8.30925,34.67175 C6.87675,34.85175 5.73675,35.94375 5.48025,37.36425 L3.35025,49.16775 C3.35025,49.16775 2.41275,51.21075 1.50375,57.19875" id="Fill-19" fill="#253368" mask="url(#mask-6)"></path>
        </g>
        <path d="M294.15865,218.24935 C294.15865,218.24935 285.68065,224.25985 281.09965,230.71285 C275.50165,223.07785 269.39365,219.62485 269.39365,219.62485 C269.39365,219.62485 262.13965,223.71685 258.41665,221.87935 C257.29465,220.40035 256.53415,219.15085 256.53415,219.15085 C256.53415,219.15085 250.80265,221.94235 245.98465,228.38335 C244.30315,223.54735 239.23315,217.15135 239.23315,217.15135 C239.23315,217.15135 236.66815,248.10535 259.44565,249.62935 C282.48265,250.68835 290.74765,238.29685 293.85115,227.72935 C294.60865,224.40835 295.93015,215.94985 294.15865,218.24935" id="Fill-21" fill="#EFADAB"></path>
        <path d="M256.425386,225.333982 C262.584763,224.536751 267.028577,224.49789 272.515246,225.504225 C273.065666,225.60518 273.43003,226.133225 273.329075,226.683646 C273.22812,227.234066 272.700075,227.59843 272.149654,227.497475 C266.897374,226.53413 262.653633,226.571242 256.685514,227.343718 C256.130541,227.41555 255.622415,227.023887 255.550582,226.468914 C255.47875,225.913941 255.870413,225.405815 256.425386,225.333982 Z" id="Stroke-23" fill="#D18682" fill-rule="nonzero"></path>
        <path d="M259.344454,202.18549 C259.65183,202.104707 259.965833,202.264355 260.087146,202.54808 L260.11756,202.636804 L261.01756,206.061304 C261.050949,206.188347 261.043987,206.322632 260.99764,206.445542 L260.65614,207.380735 C260.589311,207.567322 260.519446,207.764238 260.446981,207.970584 C260.032786,209.150003 259.618574,210.394278 259.232219,211.645532 C258.963883,212.514573 258.718538,213.356807 258.501308,214.161466 L258.328688,214.817772 C257.449234,218.25475 257.230363,220.659262 257.74905,221.102448 C258.338332,221.605954 260.192556,221.567641 262.76786,221.02315 C263.560013,220.855667 264.398463,220.646646 265.26391,220.405532 C265.889041,220.23137 266.502582,220.047771 267.090411,219.86184 L268.028455,219.55623 C268.302083,219.464423 268.509612,219.392175 268.638947,219.345616 C268.967879,219.227205 269.330523,219.397865 269.448934,219.726797 C269.567345,220.055729 269.396685,220.418373 269.067753,220.536784 L268.326746,220.791326 C268.242086,220.819573 268.154373,220.848598 268.063761,220.878323 C267.287767,221.132883 266.456895,221.38738 265.603679,221.625086 C264.713945,221.872967 263.850027,222.088337 263.029739,222.261769 C260.038176,222.894268 257.947797,222.937461 256.92665,222.064952 C255.814392,221.114595 256.061043,218.441132 257.180945,214.198956 L257.279064,213.831502 C257.500458,213.011419 257.749983,212.154836 258.022571,211.272025 C258.316197,210.321083 258.625405,209.37501 258.938517,208.4578 L259.360561,207.244885 L259.742,206.189 L258.89314,202.958596 C258.812357,202.65122 258.972005,202.337217 259.25573,202.215904 L259.344454,202.18549 Z" id="Stroke-25" fill="#D18682" fill-rule="nonzero"></path>
        <path d="M259.356601,232.649409 L264.690601,232.919409 C265.03975,232.937083 265.308464,233.234451 265.290791,233.583601 C265.274724,233.901009 265.027504,234.151942 264.720367,234.181665 L264.626599,234.183791 L259.292599,233.913791 C258.94345,233.896117 258.674736,233.598749 258.692409,233.249599 C258.708476,232.932191 258.955696,232.681258 259.262833,232.651535 L259.356601,232.649409 Z" id="Stroke-27" fill="#D18682" fill-rule="nonzero"></path>
        <path d="M273.59725,208.34995 C273.51175,210.18745 274.50775,211.72495 275.81875,211.78495 C277.12975,211.84495 278.26225,210.40495 278.34775,208.56895 C278.43175,206.73295 277.43725,205.19395 276.12475,205.13395 C274.81375,205.07395 273.68125,206.51395 273.59725,208.34995" id="Fill-29" fill="#253368"></path>
        <path d="M248.6086,206.4325 C248.5246,208.2685 249.5191,209.8075 250.8301,209.8675 C252.1426,209.9275 253.2736,208.4875 253.3591,206.6515 C253.4431,204.8155 252.4486,203.2765 251.1361,203.2165 C249.8251,203.1565 248.6926,204.5965 248.6086,206.4325" id="Fill-31" fill="#253368"></path>
        <path d="M292.962635,228.489634 C293.061586,228.154333 293.413616,227.962734 293.748916,228.061685 C294.084217,228.160636 294.275816,228.512666 294.176865,228.847966 L294.094899,229.106015 C294.028295,229.307678 293.946873,229.540527 293.850016,229.801977 C293.574803,230.544867 293.23047,231.370936 292.812016,232.259503 C291.617891,234.795171 290.067526,237.330158 288.119672,239.698164 C280.559443,248.889137 269.433011,252.99153 254.185038,249.134976 C253.846114,249.049254 253.640853,248.705011 253.726574,248.366088 C253.812296,248.027164 254.156539,247.821903 254.495462,247.907624 C269.250247,251.63944 279.882473,247.719264 287.141949,238.893917 C289.018572,236.612506 290.514839,234.165974 291.666667,231.720122 C292.002192,231.007652 292.287638,230.338265 292.525694,229.724016 L292.662862,229.36218 C292.819223,228.94011 292.917577,228.642316 292.962635,228.489634 Z" id="Stroke-33" fill="#D18682" fill-rule="nonzero"></path>
        <path d="M260.953928,241.476318 C261.12521,241.171555 261.51112,241.063347 261.815882,241.234628 C262.120645,241.40591 262.228853,241.79182 262.057572,242.096582 L261.965934,242.273905 C261.880194,242.45132 261.77365,242.700847 261.666056,243.00746 C261.251184,244.189732 261.122629,245.404158 261.439738,246.510532 C261.733722,247.536223 262.401354,248.419436 263.532681,249.133701 C263.828291,249.320335 263.916633,249.711271 263.729999,250.006881 C263.543365,250.302491 263.152429,250.390833 262.856819,250.204199 C261.46409,249.324897 260.602866,248.185581 260.22274,246.859348 C259.822243,245.462037 259.977411,243.996203 260.471471,242.588267 C260.64858,242.083556 260.827746,241.700835 260.953928,241.476318 Z" id="Stroke-35" fill="#D18682" fill-rule="nonzero"></path>
        <path d="M303.930822,208.880469 C305.835241,208.246874 306.973336,208.964937 307.216153,210.444445 C307.283434,210.85439 307.276026,211.276259 307.224505,211.677766 L307.191181,211.895127 C307.187785,211.913484 307.184561,211.929802 307.181578,211.943977 C307.109573,212.286077 306.773874,212.505033 306.431773,212.433028 C306.089673,212.361023 305.870717,212.025324 305.942722,211.683223 L305.958479,211.591166 C305.961752,211.569293 305.965244,211.544351 305.968801,211.516633 C306.006007,211.22669 306.011379,210.920697 305.966867,210.649469 C305.848344,209.927312 305.484543,209.697777 304.330478,210.081731 C302.128315,210.814384 301.83329,212.387187 302.546168,215.918515 C303.141426,218.871462 301.845945,220.781836 299.035079,221.212789 C298.68952,221.265769 298.366441,221.028587 298.313461,220.683029 C298.260481,220.33747 298.497663,220.014391 298.843221,219.961411 C300.931911,219.64118 301.759201,218.421223 301.305167,216.168858 C300.478129,212.072023 300.88683,209.893195 303.930822,208.880469 Z" id="Stroke-37" fill="#D18682" fill-rule="nonzero"></path>
        <path d="M269.473,232.5586 C269.512,232.8841 269.8075,233.1166 270.133,233.0791 C270.4585,233.0401 270.691,232.7446 270.6535,232.4176 C270.6145,232.0921 270.319,231.8596 269.9935,231.8986 C269.6665,231.9361 269.434,232.2331 269.473,232.5586" id="Fill-39" fill="#D18682"></path>
        <path d="M278.284,235.20265 C278.323,235.52815 278.6185,235.76215 278.944,235.72315 C279.2695,235.68415 279.502,235.38865 279.4645,235.06315 C279.4255,234.73615 279.13,234.50365 278.8045,234.54265 C278.4775,234.58165 278.245,234.87715 278.284,235.20265" id="Fill-41" fill="#D18682"></path>
        <path d="M249.4786,235.82305 C249.3511,236.12455 249.4906,236.47405 249.7921,236.60305 C250.0951,236.73055 250.4446,236.58955 250.5721,236.28805 C250.7011,235.98655 250.5601,235.63705 250.2586,235.50955 C249.9556,235.38055 249.6061,235.52005 249.4786,235.82305" id="Fill-43" fill="#D18682"></path>
        <path d="M244.0375,232.7278 C243.9085,233.0293 244.0495,233.3788 244.351,233.5078 C244.654,233.6353 245.0035,233.4958 245.131,233.1928 C245.26,232.8913 245.119,232.5418 244.8175,232.4143 C244.5145,232.2853 244.165,232.4263 244.0375,232.7278" id="Fill-45" fill="#D18682"></path>
        <path d="M254.23495,237.775 C254.10745,238.0765 254.24695,238.426 254.54845,238.555 C254.85145,238.6825 255.20095,238.5415 255.32845,238.24 C255.45745,237.937 255.31645,237.589 255.01495,237.46 C254.71195,237.3325 254.36245,237.472 254.23495,237.775" id="Fill-47" fill="#D18682"></path>
        <path d="M261.22675,236.7313 C261.09775,237.0343 261.23875,237.3823 261.54025,237.5113 C261.84325,237.6388 262.19275,237.4993 262.32025,237.1963 C262.44925,236.8948 262.30825,236.5453 262.00675,236.4178 C261.70375,236.2888 261.35425,236.4298 261.22675,236.7313" id="Fill-49" fill="#D18682"></path>
        <path d="M285.3124,233.0794 C285.1849,233.3824 285.3244,233.7304 285.6259,233.8594 C285.9289,233.9869 286.2784,233.8474 286.4059,233.5444 C286.5349,233.2429 286.3939,232.8934 286.0924,232.7659 C285.7894,232.6369 285.4414,232.7779 285.3124,233.0794" id="Fill-51" fill="#D18682"></path>
        <path d="M273.56875,241.0972 C273.60775,241.4227 273.90325,241.6567 274.22875,241.6177 C274.55575,241.5787 274.78825,241.2832 274.74925,240.9577 C274.71025,240.6307 274.41475,240.3982 274.08925,240.4372 C273.76225,240.4762 273.52975,240.7717 273.56875,241.0972" id="Fill-53" fill="#D18682"></path>
        <path d="M269.005,239.96485 C269.044,240.29035 269.3395,240.52435 269.665,240.48535 C269.9905,240.44635 270.223,240.15085 270.1855,239.82385 C270.1465,239.49835 269.851,239.26585 269.5255,239.30485 C269.1985,239.34235 268.966,239.63935 269.005,239.96485" id="Fill-55" fill="#D18682"></path>
        <path d="M250.3261,240.7075 C250.3651,241.033 250.6606,241.267 250.9861,241.228 C251.3131,241.189 251.5456,240.8935 251.5066,240.5665 C251.4676,240.241 251.1721,240.0085 250.8466,240.0475 C250.5196,240.0865 250.2871,240.382 250.3261,240.7075" id="Fill-57" fill="#D18682"></path>
        <path d="M253.59565,233.8294 C253.63465,234.1549 253.93015,234.3889 254.25565,234.3499 C254.58265,234.3109 254.81515,234.0154 254.77615,233.6884 C254.73715,233.3629 254.44165,233.1304 254.11615,233.1694 C253.78915,233.2069 253.55665,233.5039 253.59565,233.8294" id="Fill-59" fill="#D18682"></path>
        <path d="M251.7316,227.79355 C251.7706,228.11905 252.0661,228.35305 252.3916,228.31405 C252.7186,228.27505 252.9511,227.97955 252.9121,227.65405 C252.8731,227.32705 252.5776,227.09455 252.2521,227.13355 C251.9251,227.17255 251.6926,227.46805 251.7316,227.79355" id="Fill-61" fill="#D18682"></path>
        <path d="M278.69785,238.93075 C278.73685,239.25625 279.03235,239.49025 279.35785,239.45125 C279.68485,239.41225 279.91585,239.11675 279.87835,238.78975 C279.83935,238.46425 279.54385,238.23175 279.21835,238.27075 C278.89135,238.30825 278.65885,238.60525 278.69785,238.93075" id="Fill-63" fill="#D18682"></path>
        <path d="M241.1986,269.29765 L243.5761,259.62865 L254.2501,260.57965 L260.6446,285.14215 L274.7986,258.09865 L306.3886,254.87515 L310.8316,270.08965 C310.8316,270.08965 290.2561,298.04665 256.8886,292.91365 C240.4066,290.37715 241.1986,269.29765 241.1986,269.29765" id="Fill-65" fill="#597EF7"></path>
        <path d="M198.500232,286.61365 C198.500232,286.61365 179.499407,333.94465 197.312865,376.83865 C183.062986,402.27865 168.218683,420.91615 159.312693,429.19915 C150.406703,437.48065 116.242185,435.60565 113.593898,407.89915 C111.219165,383.05165 154.730315,323.93815 161.094483,313.23715 C170.593417,297.26365 191.968976,286.61365 198.500232,286.61365" id="Fill-67" fill="#FFC2BD"></path>
        <path d="M137,349.523 C148.9025,329.375 158.69,316.1375 162.1475,310.6235 C176.0615,288.4205 193.4675,284 200.093,284 C200.093,284 180.818,331.331 198.8885,374.2235 C192.758,385.013 193.436,384.05 187.5935,392.1215 C187.5935,392.1215 183.077,382.3595 165.911,368.1605 C148.0595,353.3945 137,349.523 137,349.523" id="Fill-69" fill="#597EF7"></path>
        <path d="M188.075714,319.454698 C188.385105,319.526889 188.577393,319.836223 188.505202,320.145614 L188.451868,320.391186 C188.423095,320.530465 188.387868,320.709768 188.347405,320.928467 L188.316094,321.099867 C188.171688,321.900232 188.027019,322.847499 187.891821,323.936639 C187.07724,330.49881 186.975369,338.615283 188.04736,348.048216 C189.532026,361.112457 193.113067,375.018165 199.252285,389.528756 C199.376076,389.821348 199.239236,390.158893 198.946644,390.282685 C198.654052,390.406476 198.316507,390.269636 198.192715,389.977044 C192.009799,375.363169 188.40114,361.350217 186.904218,348.178127 C185.855457,338.949607 185.919357,330.958859 186.674829,324.422877 L186.750084,323.794912 C186.887907,322.684625 187.03576,321.716508 187.183876,320.895586 L187.294464,320.311702 L187.384798,319.884186 C187.44977,319.605734 187.706827,319.422135 187.983135,319.440827 L188.075714,319.454698 Z" id="Stroke-71" fill="#1D39C4" fill-rule="nonzero"></path>
        <path d="M209.34115,448.87 C257.60215,442.6885 311.56915,446.23 311.56915,446.23 L309.66715,432.6805 C309.66715,432.6805 248.33065,424.834 210.45115,434.977 C209.57965,441.4765 209.34115,448.87 209.34115,448.87" id="Fill-73" fill="#253368"></path>
        <path d="M251.221407,446.490566 C251.682004,446.563941 251.995909,446.99681 251.922534,447.457407 L251.777223,448.418741 C251.694171,448.98414 251.604297,449.617563 251.508819,450.315886 L251.391633,451.184827 C250.992278,454.185961 250.592815,457.583416 250.21993,461.308615 C248.539362,478.097873 247.952135,495.399958 249.104056,511.54461 C250.12705,525.882289 252.485436,538.344781 256.380347,548.381528 C256.549082,548.81634 256.333384,549.305611 255.898572,549.474347 C255.46376,549.643082 254.974489,549.427384 254.805753,548.992572 C250.841633,538.77748 248.453361,526.157067 247.419339,511.664815 C246.259624,495.410929 246.849943,478.017734 248.539329,461.14039 L248.714106,459.435952 C249.008252,456.63492 249.315839,454.03446 249.624705,451.665688 L249.892516,449.672113 L250.229816,447.349598 C250.239491,447.287108 250.247758,447.234429 250.254566,447.191693 C250.322297,446.766527 250.696342,446.466352 251.115759,446.480399 L251.221407,446.490566 Z" id="Stroke-75" fill="#253368" fill-rule="nonzero"></path>
        <path d="M266.908676,448.171335 C267.374149,448.200786 267.727616,448.602002 267.698165,449.067476 L267.6306,449.987716 C267.550374,450.957859 267.430202,452.100859 267.252449,453.625091 L266.518678,459.747393 C266.446381,460.364897 266.379155,460.950412 266.312974,461.539893 C265.324049,470.348394 264.82132,478.121175 264.884327,486.737424 C264.89073,487.605884 264.905046,488.497099 264.926987,489.415263 L264.976512,491.159645 C265.051757,493.473876 265.164258,495.808251 265.339831,498.855737 L265.767359,506.142464 C266.390713,517.369155 266.210331,519.856149 264.617273,521.149433 L264.558359,521.19623 C264.09099,521.55978 263.611181,521.918803 263.119869,522.273192 C260.775758,523.964025 258.268612,525.484024 255.761756,526.811582 C255.176801,527.121357 254.619476,527.405811 254.095857,527.664087 L253.148869,528.120357 L252.402869,528.460922 C251.974974,528.6465 251.477656,528.450064 251.292078,528.022169 C251.1065,527.594274 251.302936,527.096956 251.730831,526.911378 L252.458829,526.578453 L252.612056,526.505999 C253.323078,526.168415 254.116407,525.771693 254.971308,525.318962 C257.413974,524.025398 259.856352,522.544666 262.131796,520.903363 C262.448491,520.674927 262.760057,520.444639 263.066267,520.212504 L263.521536,519.862918 C264.599806,519.024676 264.624708,515.268794 263.846315,502.197448 L263.622957,498.416493 C263.444121,495.263428 263.334425,492.863963 263.263161,490.391222 C263.226834,489.130761 263.204003,487.920354 263.195373,486.749825 C263.135553,478.569557 263.581026,471.146437 264.463876,462.906415 L264.735502,460.461964 L265.574181,453.434885 C265.808266,451.427843 265.940705,450.096101 266.012535,448.960824 C266.041986,448.495351 266.443202,448.141884 266.908676,448.171335 Z" id="Stroke-77" fill="#253368" fill-rule="nonzero"></path>
        <path d="M268.1422,444.51055 L268.1422,430.97455 C268.1422,429.20605 266.7937,427.75855 265.0867,427.70755 C259.4257,427.53805 246.8452,427.38655 235.4332,428.83405 C233.8417,429.03655 232.6402,430.42405 232.6402,432.08305 L232.6402,444.80905 C232.6402,446.63005 234.0667,448.10005 235.8262,448.07755 C242.2957,447.99805 257.0317,447.82255 265.0117,447.77755 C266.7487,447.76855 268.1422,446.30755 268.1422,444.51055" id="Fill-79" fill="#E1E7F3"></path>
        <path d="M264.48085,442.17415 L264.47785,433.21465 C264.47635,432.04465 263.37535,431.08615 261.98335,431.05315 C257.36485,430.94215 247.10035,430.84765 237.79135,431.80765 C236.49235,431.94265 235.51285,432.86215 235.51285,433.96015 L235.51585,442.38415 C235.51585,443.58865 236.68135,444.56065 238.11535,444.54715 C243.39385,444.49165 255.41785,444.37015 261.92635,444.33865 C263.34535,444.33115 264.48085,443.36365 264.48085,442.17415" id="Fill-81" fill="#253368"></path>
        <polygon id="Fill-83" fill="#E1E7F3" points="235.61245 430.0789 265.58245 443.4544 264.34495 446.1784 234.12595 432.5554"></polygon>
        <polygon id="Fill-85" fill="#E1E7F3" points="234.3241 443.02525 264.3646 429.80575 265.5511 432.55375 235.1611 445.78975"></polygon>
        <path d="M295.23016,446.617305 C295.686703,446.521904 296.134143,446.814667 296.229545,447.27121 L296.379516,447.928764 C296.411838,448.064307 296.447048,448.208997 296.485172,448.362433 C296.703737,449.242087 296.971432,450.22346 297.289861,451.280884 C298.199367,454.301129 299.331281,457.320586 300.696428,460.132543 C305.520863,470.070011 311.820965,474.80447 319.83543,471.851527 C320.273074,471.690277 320.758573,471.914337 320.919823,472.35198 C321.081073,472.789624 320.857013,473.275123 320.41937,473.436373 C311.363113,476.773166 304.332642,471.489842 299.177019,460.870185 C297.768808,457.969524 296.606248,454.868318 295.672599,451.7679 C295.400369,450.863893 295.164084,450.013335 294.962678,449.230888 L294.788974,448.537891 L294.601965,447.735874 C294.590644,447.684442 294.582084,447.644581 294.576255,447.61669 C294.480854,447.160147 294.773617,446.712707 295.23016,446.617305 Z" id="Stroke-87" fill="#253368" fill-rule="nonzero"></path>
        <path d="M307.56885,270.024838 C307.867421,269.916259 308.197482,270.070278 308.306062,270.36885 C308.403783,270.637564 308.2888,270.931785 308.047167,271.067096 L307.96205,271.106062 L287.04155,278.714062 C286.742979,278.822641 286.412918,278.668622 286.304338,278.37005 C286.206617,278.101336 286.3216,277.807115 286.563233,277.671804 L286.64835,277.632838 L307.56885,270.024838 Z" id="Stroke-89" fill="#1D39C4" fill-rule="nonzero"></path>
        <path d="M260.804768,284.588941 C261.109882,284.677482 261.28545,284.996603 261.196909,285.301718 L261.010698,285.970314 L260.823663,286.668793 C260.758752,286.91508 260.691368,287.174657 260.621784,287.447011 L260.515793,287.865062 C260.003162,289.902328 259.490394,292.156773 259.011804,294.564256 C257.883428,300.240395 257.121684,305.860051 256.894953,311.104741 C256.744754,314.579096 256.836732,317.789627 257.198257,320.681542 C257.237667,320.99679 257.014056,321.284297 256.698808,321.323707 C256.38356,321.363117 256.096053,321.139506 256.056643,320.824258 C255.686501,317.863411 255.592716,314.589817 255.745526,311.05505 C255.975083,305.744987 256.744412,300.069378 257.883385,294.339934 C258.312304,292.182317 258.768462,290.146556 259.227743,288.277367 L259.610989,286.75865 C259.679054,286.496319 259.744788,286.247047 259.807915,286.011345 L260.091991,284.981082 C260.180532,284.675968 260.499653,284.5004 260.804768,284.588941 Z" id="Stroke-91" fill="#1D39C4" fill-rule="nonzero"></path>
        <path d="M282.337124,201.183814 C283.573558,201.064944 284.655936,201.404777 285.546829,202.036693 C286.010264,202.365411 286.332807,202.703204 286.524771,202.967121 C286.936294,203.532893 286.811251,204.325147 286.245479,204.736671 C285.717425,205.120759 284.99208,205.037439 284.56313,204.564629 L284.475929,204.457379 C284.434288,204.40013 284.296831,204.256174 284.081083,204.103142 C283.705593,203.836804 283.275526,203.685283 282.771914,203.694574 L282.695,203.698 L282.474076,203.769204 C281.291056,204.126335 279.951839,204.351998 278.480291,204.464296 L277.984907,204.497555 C275.778462,204.625955 273.433834,204.5101 271.13949,204.23927 C270.795198,204.198628 270.467971,204.156211 270.160137,204.113041 L269.268992,203.977664 C269.137907,203.956028 269.037232,203.938416 268.969312,203.925845 C268.281389,203.798523 267.826932,203.137636 267.954255,202.449712 C268.081577,201.761789 268.742464,201.307332 269.430388,201.434655 L269.687726,201.479007 L269.960593,201.52263 C270.39901,201.590857 270.894705,201.659284 271.43649,201.723238 C273.595246,201.978064 275.799148,202.086965 277.837723,201.968333 C279.301103,201.883174 280.602472,201.682382 281.696986,201.357234 L282.054102,201.244234 C282.145825,201.213348 282.240785,201.193076 282.337124,201.183814 Z" id="Stroke-93" fill="#253368" fill-rule="nonzero"></path>
        <path d="M246.794142,196.098669 C247.116034,195.896074 247.511922,195.848833 247.872447,195.969998 L249.952967,196.664911 C251.20685,197.082009 252.468888,197.499093 253.687552,197.898297 L256.460539,198.7992 C256.94937,198.956428 257.412534,199.104374 257.84744,199.242141 C258.514384,199.453412 258.88378,200.165346 258.672509,200.83229 C258.461238,201.499234 257.749304,201.86863 257.08236,201.657359 L255.185357,201.050034 L253.807397,200.602814 C252.609352,200.21227 251.355516,199.799518 250.097132,199.382335 L247.635,198.562 L243.958658,200.876831 C243.406037,201.224645 242.687911,201.092873 242.291632,200.592363 L242.211819,200.479508 C241.864005,199.926887 241.995777,199.208761 242.496287,198.812482 L242.609142,198.732669 L246.794142,196.098669 Z" id="Stroke-95" fill="#253368" fill-rule="nonzero"></path>
        <g id="分组" transform="translate(307.000000, 275.947000)">
            <mask id="mask-8" fill="white">
                <use xlink:href="#path-7"></use>
            </mask>
            <g id="Clip-98"></g>
            <path d="M1.31115,39.91005 C2.08965,29.02305 7.21215,0.70155 36.78765,0.5736405 C60.43815,0.47205 69.44265,19.44555 72.07515,34.46355 C76.62165,60.40755 72.20265,93.21705 68.04015,123.05205 C68.04015,123.05205 64.48365,157.09455 31.71915,153.56355 C3.99315,150.57555 4.68915,122.20755 4.68915,122.20755 C4.68915,122.20755 0.42165,52.35255 1.31115,39.91005" id="Fill-97" fill="#FFC2BD" mask="url(#mask-8)"></path>
        </g>
        <path d="M311.447875,362.153893 C310.999375,350.815393 309.760375,319.534393 310.040875,315.614893 C310.819375,304.727893 309.262375,275.222893 343.139875,275 C366.790375,274.844893 378.172375,295.150393 380.803375,310.166893 C382.618375,320.519893 381.166375,352.492393 380.711875,364.406893 L311.447875,362.153893 Z" id="Fill-99" fill="#597EF7"></path>
        <path d="M319.635104,284.912275 C319.853519,284.68156 320.217611,284.671589 320.448325,284.890004 C320.67904,285.108419 320.689011,285.472511 320.470596,285.703225 C313.49687,293.06967 310.078057,303.655833 309.21212,314.453258 L309.166633,315.053313 C309.047684,316.715418 309.196505,323.476948 309.548935,334.030618 L309.842108,342.407234 L310.490861,359.408984 L310.553,360.994 L379.282539,363.229304 C379.56832,363.238593 379.798624,363.454804 379.834303,363.729435 L379.838796,363.822939 C379.829507,364.10872 379.613296,364.339024 379.338665,364.374703 L379.245161,364.379196 L309.981161,362.127696 C309.679681,362.117896 309.436972,361.876889 309.42505,361.575487 L308.88,347.524257 L308.39789,334.035865 C308.055283,323.778216 307.906062,317.134752 308.007844,315.156337 L308.019062,314.971265 C308.822253,303.726585 312.311429,292.648375 319.635104,284.912275 Z" id="Stroke-101" fill="#1D39C4" fill-rule="nonzero"></path>
        <path d="M255.2575,293.86975 C255.49,295.80025 256.093,297.66475 256.927,299.42125 C268.8205,324.46675 290.965,384.11275 311.842,413.51275 C311.842,413.51275 334.831,444.24775 361.8685,423.96925 C388.231,404.19625 363.2305,373.94725 363.2305,373.94725 C335.9845,339.49525 302.8555,300.02425 288.3235,280.28575 C288.3235,280.28575 280.0165,270.08875 265.333,277.39375 C253.51,283.27675 254.641,288.73975 255.2575,293.86975" id="Fill-103" fill="#FFC2BD"></path>
        <path d="M272.58145,383.01355 C270.87745,382.31155 269.05495,381.91105 267.21145,381.80755 C226.15645,379.51255 175.21345,370.21405 147.19495,373.76005 C147.19495,373.76005 111.01645,378.24055 115.07545,409.52905 C119.03245,440.03455 155.75395,433.69855 155.75395,433.69855 C196.99945,427.47655 248.68795,417.07405 271.81195,414.38305 C271.81195,414.38305 280.60195,414.06655 281.45995,398.78455 C282.15145,386.48005 277.10845,384.87955 272.58145,383.01355" id="Fill-105" fill="#FFC2BD"></path>
        <path d="M255.0136,296.41405 C255.0136,296.41405 261.7111,305.05105 276.8266,302.05255 C290.5171,299.33755 290.5231,289.61905 290.5231,289.61905 C290.5231,289.61905 293.3551,274.94605 286.5841,260.79355 C282.1471,251.52055 276.3616,232.64755 270.9691,233.61655 C263.9371,234.87955 272.9296,252.51955 269.4841,256.37905 C262.5031,264.19555 246.0136,239.10955 240.7996,236.16505 C232.7911,231.64555 222.9886,249.80905 237.5731,275.29105 C241.5511,282.24355 246.3016,288.52555 255.0136,296.41405" id="Fill-107" fill="#FFC2BD"></path>
        <path d="M235.650965,237.692338 C235.972898,237.556043 236.344366,237.706532 236.480662,238.028465 C238.366537,242.482944 241.062618,246.833339 244.359595,251.008641 C246.735961,254.01808 249.283239,256.760957 251.830055,259.18139 C252.593594,259.90704 253.310016,260.558382 253.965825,261.131071 L254.654231,261.722268 L255.210367,262.181117 C255.484374,262.39823 255.530496,262.796361 255.313383,263.070367 C255.09627,263.344374 254.698139,263.390496 254.424133,263.173383 L254.168673,262.965747 C254.015688,262.839693 253.844643,262.696443 253.656667,262.536353 L253.463088,262.370664 C252.706512,261.719945 251.864334,260.960505 250.957916,260.099067 C248.369835,257.639415 245.782217,254.853101 243.366012,251.793211 C240.003285,247.534642 237.248681,243.089814 235.314838,238.522035 C235.178543,238.200102 235.329032,237.828634 235.650965,237.692338 Z" id="Stroke-109" fill="#D18682" fill-rule="nonzero"></path>
        <path d="M232.281201,245.02447 C232.60886,244.902581 232.973291,245.069391 233.09518,245.397051 L233.207647,245.681302 C233.234781,245.747648 233.266169,245.823355 233.301898,245.908232 C233.482665,246.33765 233.70728,246.839435 233.978127,247.408492 C234.754793,249.040293 235.745001,250.880173 236.967801,252.887428 C240.467333,258.63199 245.126095,264.558456 251.096818,270.342085 C251.347923,270.585321 251.354302,270.986064 251.111065,271.237168 C250.867829,271.488273 250.467086,271.494652 250.215982,271.251415 C244.165517,265.390544 239.440374,259.379635 235.886624,253.546072 C234.640776,251.500983 233.629996,249.622879 232.835001,247.95257 L232.522195,247.281166 C232.425299,247.068345 232.335725,246.866611 232.25332,246.676293 L232.033962,246.155874 C231.975218,246.012112 231.933675,245.905801 231.90862,245.838449 C231.786731,245.51079 231.953541,245.146359 232.281201,245.02447 Z" id="Stroke-111" fill="#D18682" fill-rule="nonzero"></path>
        <path d="M233.036963,259.648587 C233.344897,259.483074 233.728701,259.59853 233.894213,259.906463 C236.726363,265.175641 239.371869,268.936117 242.064391,271.79879 C242.942422,272.732307 243.795133,273.542425 244.748823,274.368044 L245.416571,274.934048 C245.883841,275.320167 246.916751,276.163685 247.522589,276.668997 L247.882973,276.973518 C248.147039,277.202618 248.175383,277.602408 247.946282,277.866473 C247.740092,278.104132 247.395643,278.150857 247.136312,277.990811 L247.05181,277.928466 L246.701809,277.632911 C246.007199,277.053846 244.723788,276.007739 244.419057,275.751052 C243.227906,274.747692 242.202929,273.793915 241.142207,272.666162 C238.37052,269.719321 235.661574,265.868667 232.779087,260.505837 C232.613574,260.197903 232.72903,259.814099 233.036963,259.648587 Z" id="Stroke-113" fill="#D18682" fill-rule="nonzero"></path>
        <path d="M270.747803,233.023699 C271.075309,232.901397 271.43995,233.067748 271.562251,233.395253 C271.684553,233.722759 271.518202,234.0874 271.190697,234.209701 L270.636208,234.419425 C269.194284,234.99372 269.107467,235.483341 269.570674,240.801254 L269.751747,242.842463 C269.836166,243.788916 269.96812,244.685857 270.23403,246.198615 L270.53433,247.884996 C271.174581,251.541652 271.305809,253.15985 270.946674,254.865795 C270.408657,257.421454 268.604969,258.799013 265.335469,258.846633 C262.732012,258.884552 259.468037,256.967264 255.627582,253.485468 C253.838422,251.863397 251.959541,249.929794 250.022958,247.749562 C247.896539,245.355611 245.811956,242.792645 243.855489,240.229866 L243.192782,239.355058 C242.872628,238.92909 242.569576,238.520865 242.284984,238.133035 L241.32842,236.80755 C241.127747,236.521284 241.197135,236.126542 241.4834,235.92587 C241.769666,235.725197 242.164408,235.794585 242.36508,236.08085 L243.030223,237.007156 L243.593712,237.774993 C243.985589,238.304712 244.409359,238.869037 244.861772,239.461653 C246.800512,242.001212 248.865906,244.540585 250.96948,246.908817 C252.877836,249.05727 254.725868,250.959127 256.477911,252.547546 C260.094289,255.826192 263.135358,257.612543 265.317031,257.580767 C268.013145,257.541499 269.295878,256.561817 269.707828,254.604993 C270.033013,253.06032 269.885218,251.464396 269.217157,247.706037 L268.929613,246.088074 C268.695437,244.734637 268.572709,243.873769 268.490752,242.954925 L268.112697,238.903059 L268.069553,238.314828 C268.009488,237.388948 268.009148,236.724514 268.076153,236.155319 C268.265496,234.546899 269.033688,233.663807 270.747803,233.023699 Z" id="Stroke-115" fill="#D18682" fill-rule="nonzero"></path>
        <path d="M260.7778,412.8055 C260.7778,412.8055 251.8588,414.694 246.3328,401.3755 C241.3273,389.314 256.9048,381.9805 256.9048,381.9805 C256.9048,381.9805 267.0628,372.2395 281.8288,370.2445 C291.5053,368.938 309.5008,363.7525 311.5528,368.452 C314.2273,374.5795 295.5328,376.633 294.2743,381.2995 C291.7228,390.7555 320.2453,390.7165 325.3063,393.268 C329.4613,395.362 328.1878,400.087 322.3693,405.3175 C320.5723,406.933 317.9428,408.7435 316.3513,410.836 C313.4563,414.6415 310.2568,418.5595 295.2853,418.126 C287.6788,417.9055 271.5913,415.5415 260.7778,412.8055" id="Fill-117" fill="#FFC2BD"></path>
        <path d="M325.822755,397.704414 C326.079974,397.498801 326.455173,397.540636 326.660786,397.797855 C328.674568,400.317066 327.651391,402.480558 324.916673,404.044679 C324.346415,404.370838 323.73951,404.648414 323.133009,404.879475 C322.768195,405.018459 322.481787,405.111945 322.28152,405.168269 L322.012935,405.223459 C321.932621,405.238787 321.838588,405.255997 321.730902,405.274768 C321.288852,405.351821 320.763533,405.428585 320.155981,405.500038 C313.821674,406.244997 305.231623,405.862637 294.556017,403.53471 C294.234277,403.464552 294.030331,403.146856 294.10049,402.825117 C294.170648,402.503377 294.488344,402.299431 294.810083,402.36959 C305.354794,404.668973 313.811976,405.045419 320.016694,404.3157 L320.67988,404.231124 C320.887772,404.202392 321.082471,404.173226 321.263913,404.143946 L321.526125,404.099982 C321.774392,404.056706 321.937551,404.023722 321.984369,404.013807 L322.160416,403.959679 C322.301495,403.913979 322.488062,403.849073 322.708464,403.765106 C323.260993,403.554607 323.813118,403.302085 324.324621,403.009531 C326.510449,401.759348 327.175947,400.352162 325.729314,398.542445 C325.523701,398.285226 325.565536,397.910027 325.822755,397.704414 Z" id="Stroke-119" fill="#D18682" fill-rule="nonzero"></path>
        <path d="M322.242487,403.998924 C322.567604,404.051246 322.788748,404.357221 322.736426,404.682337 C322.262496,407.627226 319.770415,409.672593 315.971786,411.010834 C314.525995,411.52018 312.982904,411.891727 311.440678,412.148412 C311.036207,412.215732 310.65321,412.271417 310.296932,412.316592 L309.949756,412.358306 C309.677349,412.38918 309.480753,412.407285 309.357312,412.416166 C302.556625,412.742311 295.323397,411.616617 288.911619,409.852999 C288.594111,409.765665 288.407518,409.437477 288.494851,409.119969 C288.582185,408.802461 288.910373,408.615868 289.227881,408.703201 C295.528745,410.436312 302.64697,411.544107 309.285038,411.225954 L309.670827,411.189355 L309.815463,411.173392 C310.246097,411.124586 310.726819,411.058321 311.244894,410.972094 C312.723721,410.725961 314.201684,410.370096 315.575543,409.886091 C319.005482,408.677737 321.171718,406.899806 321.559074,404.492863 C321.606164,404.200258 321.858712,403.991871 322.145761,403.991262 L322.242487,403.998924 Z" id="Stroke-121" fill="#D18682" fill-rule="nonzero"></path>
        <path d="M309.536095,368.536386 C309.525922,368.397228 309.471138,368.217985 309.340576,368.041103 C308.621304,367.06665 306.349143,366.895124 301.83236,368.330767 L300.955175,368.611533 C298.028653,369.516341 295.239867,369.927642 289.921499,370.377518 L286.731421,370.638689 C278.647516,371.322023 274.805583,371.998911 269.968506,373.91395 C265.376605,375.731923 261.217038,378.465279 257.329543,382.399866 C257.098099,382.634114 256.720581,382.636387 256.486334,382.404943 C256.252086,382.173499 256.249813,381.795981 256.481257,381.561734 C260.485772,377.508708 264.784964,374.6836 269.529537,372.805184 C274.392867,370.879751 278.251541,370.175672 286.075825,369.49791 L290.274667,369.150409 C295.519428,368.696023 298.183523,368.268784 301.118287,367.308177 C306.298739,365.611176 309.167946,365.799211 310.300016,367.332913 C310.604707,367.745702 310.722494,368.172212 310.730095,368.541897 L310.729,368.603 L310.745652,368.678608 C311.301258,371.33561 309.841243,372.756511 303.987562,375.928109 L302.5861,376.677406 L302.032417,376.964509 C301.841863,377.061514 301.644484,377.16028 301.437785,377.262182 L298.015231,378.904938 L297.906139,378.958877 C295.823663,379.997309 294.685453,380.795664 294.205174,381.641924 C293.68616,382.556435 293.986594,383.610125 295.416956,385.06366 C298.376584,388.07224 307.539082,390.437491 319.214932,391.519595 C323.02948,391.873174 326.171848,392.921108 327.73312,394.297399 C329.530072,395.881447 329.012946,397.724683 326.409112,398.726742 C323.488098,399.851238 319.387755,400.09063 314.393514,399.625611 C311.407858,399.347613 308.226447,398.828352 304.984302,398.137764 C303.481743,397.817714 302.047278,397.478094 300.713674,397.135606 L300.055429,396.964201 C299.630709,396.852067 299.241705,396.746291 298.891756,396.648571 L298.123602,396.428414 C297.808184,396.333808 297.629181,396.001419 297.723786,395.686002 C297.818392,395.370584 298.150781,395.191581 298.466198,395.286186 L298.961832,395.429505 C299.367843,395.544574 299.836034,395.672914 300.359841,395.811209 C301.857707,396.206674 303.499547,396.602254 305.232735,396.971429 C308.432554,397.653002 311.569508,398.165006 314.504071,398.438246 C319.331107,398.887697 323.268942,398.657793 325.98075,397.613835 C327.802352,396.91281 328.019337,396.139392 326.944555,395.191951 C325.653033,394.053449 322.897041,393.109087 319.48648,392.745047 L317.95536,392.595649 C306.544446,391.441711 297.696162,389.081017 294.566914,385.900011 C292.800661,384.105144 292.344341,382.504729 293.168057,381.053328 C293.805488,379.930165 295.082984,379.034112 297.373988,377.891698 L300.59881,376.345194 C301.129214,376.087192 301.593194,375.853462 302.0287,375.623194 L303.040422,375.084074 C308.637138,372.075205 309.970327,370.856101 309.575416,368.910782 L309.550734,368.797729 L309.538118,368.602878 L309.536095,368.536386 Z" id="Stroke-123" fill="#D18682" fill-rule="nonzero"></path>
        <path d="M352.630874,360.099729 C352.881674,359.909741 353.228351,359.93511 353.449068,360.145232 L353.517671,360.222074 L367.595171,378.805574 C367.806269,379.084241 367.751493,379.481273 367.472826,379.692371 C367.222026,379.882359 366.875349,379.85699 366.654632,379.646868 L366.586029,379.570026 L352.508529,360.986526 C352.297431,360.707859 352.352207,360.310827 352.630874,360.099729 Z" id="Stroke-125" fill="#D18682" fill-rule="nonzero"></path>
        <path d="M315.914921,410.107881 C316.031795,409.7784 316.393637,409.606047 316.723119,409.722921 C317.0526,409.839795 317.224953,410.201637 317.108079,410.531119 L317.020316,410.753407 C316.895903,411.043604 316.693046,411.438989 316.397397,411.909912 C315.773888,412.903063 314.936416,413.892656 313.855159,414.81367 C311.478844,416.837815 308.273366,418.243165 304.131048,418.761108 C300.571965,419.206191 294.883704,419.002272 287.627395,418.295155 C284.870901,418.026539 281.961324,417.691679 278.96204,417.305578 C276.504571,416.989226 274.101447,416.653533 271.822915,416.315064 L268.604407,415.822091 L267.338062,415.617908 C266.99321,415.560505 266.760188,415.234413 266.817592,414.889562 C266.874995,414.54471 267.201087,414.311688 267.545938,414.369092 L269.187124,414.63231 C269.710846,414.7145 270.277909,414.80205 270.884169,414.893986 C273.482843,415.288061 276.266672,415.682154 279.12368,416.049939 C282.110749,416.434468 285.007598,416.767863 287.750183,417.035124 L288.998788,417.153192 C295.570848,417.755076 300.737302,417.909653 303.973963,417.504891 C307.87199,417.017493 310.846535,415.71339 313.03423,413.849912 C314.01376,413.015549 314.767937,412.12438 315.325186,411.23677 C315.518062,410.929549 315.672187,410.646118 315.791018,410.394228 L315.884384,410.185591 C315.898679,410.151253 315.908784,410.125183 315.914921,410.107881 Z" id="Stroke-127" fill="#D18682" fill-rule="nonzero"></path>
        <path d="M146.605105,369.955594 L257.258605,380.935594 C257.606493,380.970114 257.860527,381.280117 257.826006,381.628005 C257.794624,381.944266 257.53557,382.182963 257.227356,382.197813 L257.133595,382.195406 L146.480095,371.215406 C146.132207,371.180886 145.878173,370.870883 145.912694,370.522995 C145.944076,370.206734 146.20313,369.968037 146.511344,369.953187 L146.605105,369.955594 Z" id="Stroke-129" fill="#D18682" fill-rule="nonzero"></path>
        <path d="M236.20164,542.810097 C236.326492,542.398071 236.737843,542.151483 237.151465,542.222367 L237.254753,542.24679 L265.129253,550.69329 C265.575615,550.828546 265.827816,551.300041 265.69256,551.746403 C265.567708,552.158429 265.156357,552.405017 264.742735,552.334133 L264.639447,552.30971 L236.764947,543.86321 C236.318585,543.727954 236.066384,543.256459 236.20164,542.810097 Z" id="Stroke-131" fill="#253368" fill-rule="nonzero"></path>
        <path d="M216.853313,450.148567 C217.315345,450.21228 217.638246,450.63848 217.574533,451.100513 L217.526301,451.42189 C217.496298,451.61325 217.461039,451.827099 217.420315,452.062041 L217.377762,452.303963 C217.209199,453.248928 216.995394,454.300641 216.732355,455.43269 C215.980485,458.668528 214.983782,461.905372 213.708099,464.933512 C210.46041,472.642683 205.979395,477.724407 200.000548,478.845192 C199.542129,478.931126 199.100843,478.629168 199.014908,478.170748 C198.928974,477.712329 199.230932,477.271043 199.689352,477.185108 C204.978362,476.193639 209.101598,471.517656 212.151581,464.277788 C213.386269,461.346959 214.355543,458.199193 215.087182,455.050423 C215.300672,454.131619 215.480717,453.26787 215.629484,452.474682 L215.756008,451.774282 L215.901367,450.869787 C215.960179,450.443296 216.327856,450.135354 216.747474,450.140358 L216.853313,450.148567 Z" id="Stroke-133" fill="#253368" fill-rule="nonzero"></path>
    </g>
</svg>