<svg xmlns="http://www.w3.org/2000/svg" xmlns:xlink="http://www.w3.org/1999/xlink" width="512" height="1024" version="1.1" viewBox="0 0 512 1024"><title>2.人物组件/2.保安/站立/打电话</title><desc>Created with Sketch.</desc><defs><polygon id="path-1" points=".178 .927 57.614 .927 57.614 66 .178 66"/><polygon id="path-3" points="0 .845 126.376 .845 126.376 138.524 0 138.524"/><polygon id="path-5" points=".886 .111 134.949 .111 134.949 115.726 .886 115.726"/><polygon id="path-7" points="0 0 79 0 79 69 0 69"/><polygon id="path-9" points="1.407 .435 70.231 .435 70.231 66.364 1.407 66.364"/></defs><g id="2.人物组件/2.保安/站立/打电话" fill="none" fill-rule="evenodd" stroke="none" stroke-width="1"><path id="Fill-1" fill="#4E5C93" d="M251.17015,540.63925 C254.19115,749.34025 257.45665,765.00475 257.45665,765.00475 C257.45665,765.00475 268.363,779.49 256,789 L216.697266,789 C216.697266,789 196.724609,788 206.74465,767.54575 C178.52815,578.65075 184.44115,508.54225 184.44115,508.54225 C184.44115,508.54225 215.98465,495.94525 251.17015,540.63925 Z"/><g id="分组" transform="translate(202.000000, 788.000000)"><mask id="mask-2" fill="#fff"><use xlink:href="#path-1"/></mask><path id="Fill-3" fill="#253368" d="M54.67725,0.92745 L15.35175,1.11645 L21.69225,41.90895 L1.26975,60.28245 C-0.96375,62.29395 0.45825,66.00045 3.46275,66.00045 L57.61425,66.00045 L54.67725,0.92745 Z" mask="url(#mask-2)"/></g><path id="Fill-5" fill="#FFC2BD" d="M224.09155,267.7255 C224.09155,267.7255 189.82555,295.198 178.52905,343.6405 C146.36155,363.6505 113.48755,369.826 101.11705,367.585 C88.31605,365.2675 59.72905,346.3915 74.71555,320.608 C88.15705,297.4825 162.80905,273.0325 175.00855,267.6655 C193.22155,259.6555 218.42155,263.665 224.09155,267.7255"/><path id="Fill-7" fill="#597EF7" d="M130.69495,285.448 C153.45145,275.188 170.61595,270.673 176.48395,266.968 C193.73245,256.075 212.87845,256.639 234.27745,261.706 C234.27745,261.706 215.16595,290.974 203.86795,339.4165 C191.89195,345.0595 159.84295,354.5485 149.80945,358 C149.80945,358 149.63995,342.292 143.80945,319.402 C137.74495,295.597 130.69495,285.448 130.69495,285.448"/><g id="分组" transform="translate(68.500000, 228.565000)"><mask id="mask-4" fill="#fff"><use xlink:href="#path-3"/></mask><path id="Fill-9" fill="#FFC2BD" d="M122.98005,27.5106 C108.47355,50.0976 90.60105,83.8221 66.10455,123.5226 C66.10455,123.5226 35.24505,152.8986 10.91955,129.4356 C-12.79995,106.5576 9.51105,78.7551 9.51105,78.7551 C41.60955,46.6566 96.34755,8.0706 99.32955,7.2381 C103.41405,6.0981 110.51355,-2.3619 117.34905,2.1696 C133.56855,12.9246 122.98005,27.5106 122.98005,27.5106" mask="url(#mask-4)"/></g><path id="Fill-11" fill="#FFC2BD" d="M206.4028,243.96865 C213.7228,235.52215 218.3683,229.02565 224.1403,223.41415 C229.9138,217.80415 219.7843,216.02365 206.8318,224.56015 C197.9308,231.30415 201.1633,203.68765 209.7868,192.54115 C218.1568,181.72015 173.0863,184.55965 166.8298,238.76515 C164.2243,261.32665 185.4343,268.16365 206.4028,243.96865"/><path id="Stroke-13" fill="#965C56" fill-rule="nonzero" d="M192.671945,193.015545 C192.903272,192.808187 193.258897,192.827617 193.466255,193.058945 C193.569197,193.173786 193.700627,193.368708 193.825039,193.644664 C194.63458,195.440298 194.051443,197.898135 191.231455,200.915446 L190.984244,201.17544 C185.27021,207.083876 184.199929,214.777979 187.142965,225.541975 C187.293335,226.091651 187.422002,226.649156 187.529479,227.214095 C188.524104,232.442176 187.705048,238.016638 185.737511,243.459971 C185.25515,244.794459 184.738218,246.016503 184.220787,247.100872 C184.084595,247.386287 183.955537,247.646944 183.835405,247.881508 L183.522485,248.469753 C183.369031,248.739867 183.025661,248.834439 182.755547,248.680985 C182.485433,248.527531 182.390861,248.184161 182.544315,247.914047 L182.722331,247.584219 L182.952696,247.13422 C183.033394,246.97278 183.117824,246.800033 183.205456,246.616384 C183.707607,245.564039 184.210257,244.375756 184.679506,243.077546 C186.584427,237.807443 187.375439,232.423847 186.424302,227.424351 C186.322316,226.888278 186.200315,226.359655 186.057815,225.838751 C183.067022,214.900084 184.111894,206.881782 189.896489,200.687001 L190.175531,200.393386 C192.907977,197.56762 193.427805,195.500787 192.799449,194.10704 C192.740072,193.975337 192.685187,193.885209 192.650514,193.837587 L192.628545,193.809855 C192.421187,193.578528 192.440617,193.222903 192.671945,193.015545 Z"/><path id="Stroke-15" fill="#965C56" fill-rule="nonzero" d="M198.692444,189.314347 C200.319976,189.349481 200.975904,191.067682 200.561726,193.380085 C200.148119,195.689302 198.758002,198.370082 196.610586,200.746603 C195.455289,202.024345 194.490219,203.613836 193.701639,205.445719 C192.923105,207.254264 192.356838,209.19771 191.970637,211.141961 C191.862448,211.686616 191.774919,212.199865 191.705865,212.673181 L191.657505,213.020547 C191.61287,213.357673 191.58762,213.596099 191.577435,213.719221 C191.551825,214.028824 191.280082,214.259045 190.970479,214.233435 C190.660876,214.207825 190.430655,213.936082 190.456265,213.626479 L190.485947,213.330336 C190.500091,213.204054 190.51867,213.050888 190.542237,212.872888 C190.620245,212.283697 190.72707,211.62821 190.867196,210.922776 C191.267743,208.906304 191.855522,206.889028 192.668314,205.000899 C193.502625,203.062781 194.530727,201.369475 195.775994,199.992229 C197.787544,197.766069 199.079494,195.274599 199.454349,193.18174 C199.75138,191.523381 199.414321,190.538938 198.75593,190.446236 L198.668256,190.43922 C198.357668,190.432541 198.111301,190.175344 198.11798,189.864756 C198.124659,189.554168 198.381856,189.307801 198.692444,189.314347 Z"/><path id="Stroke-17" fill="#965C56" fill-rule="nonzero" d="M204.71778,188.600689 C204.90664,188.354028 205.2597,188.307171 205.506361,188.49603 C205.662126,188.615295 205.860082,188.834468 206.046193,189.167647 C207.11549,191.081923 206.516807,194.180359 203.250327,198.684366 L203.018092,199.000882 C200.664161,202.172575 199.154766,205.493366 198.321168,208.767227 C198.027612,209.920131 197.839916,210.98711 197.737024,211.943173 L197.697636,212.349666 C197.676254,212.600054 197.664182,212.808702 197.658774,212.972475 L197.655328,213.184086 L197.648878,213.275842 C197.607955,213.543533 197.378055,213.74983 197.098474,213.752651 C196.818894,213.755414 196.584919,213.553751 196.538658,213.28693 L196.530385,213.195768 C196.525388,212.203516 196.701147,210.570389 197.230953,208.489634 C198.055788,205.25019 199.514025,201.970716 201.754427,198.825847 L202.114697,198.330433 C205.347004,193.97491 205.907522,191.2263 205.064034,189.716271 C204.97493,189.556756 204.894052,189.457066 204.846657,189.410725 L204.822439,189.38927 C204.575778,189.20041 204.528921,188.84735 204.71778,188.600689 Z"/><path id="Fill-19" fill="#394772" d="M194.40205,237.43255 L181.51555,217.96555 C180.44905,216.35455 180.89155,214.18255 182.50255,213.11755 L224.39605,185.38555 C226.00855,184.31905 228.17905,184.76005 229.24555,186.37105 L242.13205,205.83955 C243.19855,207.45055 242.75605,209.62105 241.14505,210.68755 L199.25155,238.41955 C197.63905,239.48605 195.46855,239.04505 194.40205,237.43255"/><g id="分组" transform="translate(292.000000, 350.065000)"><mask id="mask-6" fill="#fff"><use xlink:href="#path-5"/></mask><path id="Fill-21" fill="#FFC2BD" d="M25.05555,113.5197 C56.30805,102.5397 91.70955,84.7737 119.96505,61.1682 C119.96505,61.1682 148.80255,35.8392 126.46605,10.4757 C104.68755,-14.2563 76.49205,13.0392 76.49205,13.0392 C44.28405,42.9042 34.30155,64.5417 15.76455,80.5782 C15.76455,80.5782 -5.57595,91.3467 2.85855,105.4137 C12.86655,122.1027 25.05555,113.5197 25.05555,113.5197" mask="url(#mask-6)"/></g><path id="Fill-23" fill="#FFC2BD" d="M313.26025,335.80495 C306.81025,326.99995 292.39375,302.08945 314.86375,282.85795 C332.83375,267.47995 347.57875,276.48295 359.47825,286.01245 C379.94425,302.39995 395.61025,322.52395 417.93175,356.03395 C417.93175,356.03395 437.24275,384.29395 409.97425,402.79795 C386.89825,418.45645 369.07825,396.37345 369.07825,396.37345 C369.07825,396.37345 320.63125,345.86845 313.26025,335.80495"/><path id="Fill-25" fill="#597EF7" d="M302.10175,421.318 C302.10175,421.318 359.56975,295.516 354.06775,284.512 C348.56575,273.5095 308.00875,258.541 246.62875,262.7665 C184.98475,267.01 175.14925,294.367 175.14925,294.367 C175.14925,294.367 175.71325,360.8155 192.57175,413.317 C185.56975,425.8195 198.29875,434.695 198.29875,434.695 C198.29875,434.695 278.19325,431.002 297.19825,432.0025 C306.07375,428.197 302.10175,421.318 302.10175,421.318"/><path id="Stroke-27" fill="#1D39C4" fill-rule="nonzero" d="M176.88548,308.435131 C177.202143,308.460801 177.43804,308.738317 177.412369,309.05498 L177.386945,309.416524 L177.34682,310.101193 C177.331312,310.392262 177.316045,310.711954 177.301396,311.059918 L177.259833,312.165949 C177.048084,318.548954 177.24593,326.890457 178.129282,336.936909 C179.450357,351.961639 182.112401,368.220366 186.416381,385.444512 L186.812184,387.012996 L193.130184,413.181996 C193.163118,413.318409 193.145052,413.462157 193.079386,413.586178 L192.886792,413.971782 C192.825181,414.099967 192.754206,414.251275 192.675519,414.424094 C192.367761,415.100016 192.059659,415.852516 191.772132,416.660899 C190.997324,418.839279 190.515585,421.007098 190.468301,423.014625 C190.357206,427.731313 192.61084,430.845353 198.081043,431.806428 C198.393952,431.861404 198.603048,432.159634 198.548072,432.472543 C198.493096,432.785452 198.194866,432.994548 197.881957,432.939572 C191.820427,431.874605 189.194269,428.245815 189.31812,422.987534 C189.368674,420.8412 189.875704,418.559569 190.688157,416.27535 C190.987255,415.434433 191.307678,414.651841 191.628446,413.947345 L191.842474,413.489544 L191.961,413.246 L185.695563,387.290043 C181.278199,369.954457 178.515529,353.570129 177.107484,338.41228 L176.983203,337.03768 C176.069503,326.646074 175.885575,318.062527 176.129928,311.563476 L176.151914,311.011526 C176.171703,310.541473 176.192639,310.121712 176.213823,309.753068 L176.265631,308.96202 C176.291301,308.645357 176.568817,308.40946 176.88548,308.435131 Z"/><path id="Fill-29" fill="#4E5C93" d="M188.78845,470.8327 C191.60245,459.0142 197.02945,446.1082 197.02945,446.1082 L198.29845,434.6962 C232.53295,422.6497 295.29595,432.1597 295.29595,432.1597 C295.29595,432.1597 296.32645,437.3902 298.86145,444.3637 C315.92695,462.3922 322.89295,522.4777 322.89295,522.4777 L253.28545,549.9562 L183.59695,526.0912 C183.59695,526.0912 184.03345,490.8022 188.78845,470.8327"/><path id="Fill-31" fill="#4E5C93" d="M321.3286,513.82 C321.3286,513.82 272.2591,440.56 248.4856,534.7045 C306.2326,736.7845 315.7381,768.6775 315.7381,768.6775 C315.7381,768.6775 315.3121,785.794 326.7226,792.451 L366.6631,792.451 C366.6631,792.451 381.8791,782.941 361.9081,761.0695 C327.6736,548.0545 321.3286,513.82 321.3286,513.82"/><g id="分组" transform="translate(325.000000, 789.000000)"><mask id="mask-8" fill="#fff"><use xlink:href="#path-7"/></mask><path id="Fill-33" fill="#253368" d="M76.3873657,69 L20.4461112,69 L0,0 L43.7098733,0 L51.2115136,46.0308939 L77.8419425,64.1661649 C79.9796339,65.6219083 78.9620612,69 76.3873657,69" mask="url(#mask-8)"/></g><polygon id="Fill-35" fill="#FFC2BD" points="288.247 254.278 282.661 199.259 230.408 201.556 233.077 261.145 249.317 288.986"/><path id="Fill-37" fill="#FFC2BD" d="M264.3139,169.288 C264.3139,169.288 234.8449,162.9685 227.5264,176.9335 C220.4089,190.5145 221.9794,238.414 237.4999,245.0305 C250.1509,250.4215 275.3239,246.541 280.3249,223.159 C280.3249,223.159 284.6119,205.201 282.0169,189.451 C279.4204,173.701 264.3139,169.288 264.3139,169.288"/><path id="Fill-39" fill="#FFC2BD" d="M279.71275,209.22475 C279.71275,209.22475 286.96225,193.67575 293.34025,201.64525 C299.71975,209.61475 290.25325,225.25975 281.35825,225.01675 C272.46325,224.77375 279.71275,209.22475 279.71275,209.22475"/><g id="分组" transform="translate(220.000000, 146.065000)"><mask id="mask-10" fill="#fff"><use xlink:href="#path-9"/></mask><path id="Fill-41" fill="#253368" d="M3.67065,58.6422 C3.67065,58.6422 -0.93735,40.4412 2.99565,28.8462 C6.92865,17.2512 12.12765,5.6007 16.50915,11.4357 C17.01615,8.5572 20.56665,2.6907 23.33265,0.6657 C26.10015,-1.3593 35.50965,10.6017 35.50965,10.6017 C35.50965,10.6017 34.62615,4.9287 38.26215,8.2587 C41.89965,11.5887 63.58965,21.4242 67.32315,26.9712 C71.05815,32.5182 70.12815,53.5557 70.12815,53.5557 C70.12815,53.5557 63.29115,53.2212 60.22065,66.3642 C60.71115,55.8732 56.12115,50.6007 53.79615,48.6207 C52.91415,47.8707 52.38165,46.7967 52.24365,45.6477 C51.97665,43.4412 51.56415,39.7362 51.31215,36.1092 C51.20115,34.5117 49.97265,33.2382 48.38265,33.0357 C32.20515,30.9612 14.66565,34.2357 8.42715,35.5962 C7.01565,35.9037 5.97765,37.0932 5.85015,38.5317 L4.78815,50.4777 C4.78815,50.4777 4.03965,52.5972 3.67065,58.6422" mask="url(#mask-10)"/></g><path id="Stroke-43" fill="#253368" fill-rule="nonzero" d="M262.266196,197.230689 C262.347463,197.224733 262.42902,197.226638 262.509737,197.236324 L262.630042,197.25668 L268.049542,198.44468 C268.732922,198.594483 269.165472,199.269911 269.01567,199.953292 C268.87523,200.593961 268.272814,201.014174 267.634972,200.940764 L267.507058,200.91942 L262.267,199.77 L252.260404,200.504411 C251.606278,200.552358 251.031823,200.094662 250.92043,199.462347 L250.904439,199.333654 C250.856492,198.679528 251.314188,198.105073 251.946503,197.99368 L252.075196,197.977689 L262.266196,197.230689 Z"/><path id="Stroke-45" fill="#253368" fill-rule="nonzero" d="M231.181702,198.992249 L241.434202,199.739249 C242.131959,199.790088 242.65639,200.396945 242.605551,201.094702 C242.55789,201.748849 242.021541,202.250659 241.379749,202.26894 L241.250098,202.266051 L231.246,201.537 L227.575546,202.741775 C226.952349,202.946239 226.284382,202.640783 226.023615,202.054071 L225.977025,201.933046 C225.772561,201.309849 226.078017,200.641882 226.664729,200.381115 L226.785754,200.334525 L230.694754,199.052025 C230.812406,199.013425 230.934867,198.992352 231.05821,198.98929 L231.181702,198.992249 Z"/><path id="Fill-47" fill="#EFADAB" d="M279.50575,215.34205 C279.50575,215.34205 271.60225,222.09055 267.61825,228.92755 C261.35725,221.82655 254.96425,218.93455 254.96425,218.93455 C254.96425,218.93455 250.32925,221.65105 245.50975,221.01805 C244.26025,219.64555 242.96425,220.25455 242.96425,220.25455 C242.96425,220.25455 236.65675,222.91105 232.43575,229.76005 C230.32675,225.09355 224.70325,219.17755 224.70325,219.17755 C224.70325,219.17755 224.92825,250.23805 247.74925,249.71155 C270.78775,248.69905 277.90675,235.61455 280.05025,224.81155 C280.50625,221.43505 281.06425,212.89405 279.50575,215.34205"/><g id="分组" transform="translate(239.500000, 224.065000)"><path id="Fill-49" fill="#FFF" d="M20.16195,0.69075 C20.16195,0.69075 12.23445,1.60125 1.41795,1.40175 C1.41795,1.40175 3.64695,8.07825 10.40445,7.65525 C13.28145,7.47525 17.15595,6.13875 20.16195,0.69075"/><path id="Stroke-51" stroke="#D18682" stroke-linecap="round" stroke-linejoin="round" stroke-width="2.026" d="M20.16195,0.69075 C20.16195,0.69075 12.23445,1.60125 1.41795,1.40175 C1.41795,1.40175 3.64695,8.07825 10.40445,7.65525 C13.28145,7.47525 17.15595,6.13875 20.16195,0.69075"/></g><path id="Stroke-52" fill="#965C56" fill-rule="nonzero" d="M243.993569,202.618881 C244.270638,202.581387 244.527847,202.75243 244.606888,203.01144 L244.626419,203.100869 L245.095919,206.570369 C245.106484,206.648437 245.100532,206.727854 245.078449,206.803476 L244.79716,207.812623 L244.729531,208.063848 C244.466922,209.045168 244.20428,210.092255 243.959257,211.160948 C243.728622,212.16689 243.525446,213.141465 243.357281,214.065516 C242.696233,217.697909 242.672,220.221057 243.304032,220.669568 C243.96184,221.136371 245.520474,221.150352 247.633834,220.753727 C248.414391,220.607236 249.244311,220.410813 250.099574,220.176773 C250.793183,219.98697 251.463805,219.783467 252.085483,219.580045 L252.875698,219.311011 C253.16774,219.205081 253.49036,219.355956 253.596289,219.647998 C253.702219,219.94004 253.551344,220.26266 253.259302,220.368589 L252.593646,220.597141 L252.435347,220.649259 C251.797067,220.858115 251.10907,221.06689 250.396509,221.261879 C249.513549,221.503498 248.654516,221.706811 247.841345,221.859423 C245.431161,222.311754 243.651738,222.295793 242.652968,221.587032 C241.458786,220.7396 241.48439,218.073565 242.25046,213.864089 C242.421883,212.92214 242.628476,211.931173 242.862709,210.909539 C243.110975,209.826699 243.376856,208.766702 243.642771,207.773024 L243.965,206.602 L243.511581,203.251731 C243.474087,202.974662 243.64513,202.717453 243.90414,202.638412 L243.993569,202.618881 Z"/><path id="Stroke-54" fill="#253368" fill-rule="nonzero" d="M262.986955,207.801952 C263.400781,207.784033 263.750779,208.104979 263.768698,208.518805 C263.864238,210.725246 262.612305,212.651745 260.823795,212.729506 C259.033085,212.809321 257.616995,210.999775 257.519629,208.792806 C257.501372,208.378995 257.822033,208.028735 258.235844,208.010479 C258.649655,207.992222 258.999915,208.312883 259.018171,208.726694 C259.082879,210.193409 259.923917,211.268126 260.757822,211.230958 C261.589808,211.194785 262.333603,210.050217 262.270102,208.583695 C262.252183,208.169869 262.573129,207.819871 262.986955,207.801952 Z"/><path id="Stroke-56" fill="#253368" fill-rule="nonzero" d="M238.048255,208.898302 C238.462081,208.880383 238.812079,209.201329 238.829998,209.615155 C238.92551,211.820936 237.674114,213.746026 235.885095,213.825856 C234.094385,213.905671 232.678295,212.096125 232.580929,209.889156 C232.562672,209.475345 232.883333,209.125085 233.297144,209.106829 C233.710955,209.088572 234.061215,209.409233 234.079471,209.823044 C234.144179,211.289759 234.985217,212.364476 235.818266,212.327346 C236.651292,212.290174 237.39489,211.146257 237.331402,209.680045 C237.313483,209.266219 237.634429,208.916221 238.048255,208.898302 Z"/><path id="Stroke-58" fill="#D18682" fill-rule="nonzero" d="M279.978446,225.151703 C280.321275,225.220157 280.5437,225.553567 280.475247,225.896396 L280.410971,226.185557 L280.321064,226.551113 C280.287682,226.68149 280.250845,226.820272 280.210433,226.967096 C279.980697,227.801749 279.682035,228.729978 279.306557,229.728555 C278.234753,232.578995 276.761021,235.42906 274.820648,238.091855 C268.048478,247.385384 257.502395,252.084646 242.395332,249.675508 L242.134488,249.59812 L241.872066,249.515594 C241.464406,249.384884 241.011038,249.228179 240.523231,249.045333 C239.129125,248.52278 237.734578,247.894249 236.428912,247.157175 C233.796327,245.67103 231.855682,243.935836 230.906448,241.912838 C230.757946,241.59635 230.894124,241.219401 231.210612,241.070898 C231.5271,240.922396 231.904049,241.058574 232.052552,241.375062 C232.868485,243.113971 234.626536,244.685902 237.051273,246.054713 C238.294441,246.756505 239.630788,247.358805 240.967577,247.859875 C241.318581,247.991442 241.650555,248.108749 241.95865,248.211778 L242.665514,248.440821 C257.217646,250.757376 267.297949,246.265662 273.797482,237.346277 C275.665752,234.782428 277.087696,232.032517 278.121559,229.28298 C278.422813,228.481801 278.672279,227.728991 278.874283,227.038114 L278.989826,226.631128 C279.120568,226.156128 279.199356,225.820776 279.233753,225.648504 C279.295983,225.336842 279.577186,225.124686 279.885372,225.140118 L279.978446,225.151703 Z"/><path id="Stroke-60" fill="#965C56" fill-rule="nonzero" d="M249.901861,241.362567 C250.047986,241.088419 250.388685,240.984636 250.662833,241.130761 C250.936981,241.276886 251.040764,241.617585 250.894639,241.891733 C250.799466,242.070288 250.648558,242.408572 250.496026,242.862013 C250.111611,244.004782 249.968699,245.173088 250.200005,246.239668 C250.458487,247.431559 251.171161,248.416049 252.457964,249.151841 C252.72765,249.306047 252.821265,249.649679 252.667059,249.919364 C252.512853,250.18905 252.169221,250.282665 251.899536,250.128459 C250.333819,249.233185 249.42612,247.979287 249.100562,246.478101 C248.819707,245.183045 248.986221,243.821792 249.429739,242.503325 C249.603732,241.986087 249.77935,241.592412 249.901861,241.362567 Z"/><path id="Stroke-62" fill="#D18682" fill-rule="nonzero" d="M288.397474,205.132955 C290.27785,204.313542 291.477485,204.971806 291.827967,206.470273 C291.909848,206.820352 291.938257,207.176053 291.932406,207.510734 L291.921893,207.757386 C291.917786,207.818201 291.913819,207.860175 291.90998,207.893498 C291.868975,208.240681 291.554285,208.488886 291.207102,208.44788 C290.891481,208.410602 290.65766,208.14714 290.648564,207.838702 L290.658771,207.672076 C290.678258,207.383546 290.664388,207.054253 290.595237,206.758601 C290.419896,206.00894 290.037653,205.799195 288.903467,206.29344 C286.7761,207.221536 286.623497,208.813213 287.649124,212.266433 C288.50777,215.155817 287.389004,217.176309 284.628569,217.855422 C284.289096,217.938938 283.946194,217.731443 283.862678,217.391969 C283.779162,217.052496 283.986657,216.709594 284.326131,216.626078 C286.376291,216.121705 287.090678,214.831519 286.435548,212.626974 C285.245642,208.620636 285.457035,206.415765 288.397474,205.132955 Z"/><path id="Fill-64" fill="#D18682" d="M256.20385,231.80905 C256.27135,232.13005 256.58785,232.33555 256.90885,232.26805 C257.22985,232.20055 257.43535,231.88405 257.36635,231.56305 C257.29885,231.24205 256.98385,231.03655 256.66285,231.10405 C256.34185,231.17305 256.13635,231.48805 256.20385,231.80905"/><path id="Fill-66" fill="#D18682" d="M265.21705,233.6518 C265.28455,233.9728 265.59955,234.1783 265.92055,234.1108 C266.24305,234.0433 266.44855,233.7268 266.37955,233.4058 C266.31205,233.0848 265.99705,232.8793 265.67605,232.9483 C265.35505,233.0158 265.14955,233.3308 265.21705,233.6518"/><path id="Fill-68" fill="#D18682" d="M236.5837,236.85535 C236.4832,237.16735 236.6542,237.50335 236.9662,237.60385 C237.2797,237.70435 237.6142,237.53335 237.7147,237.21985 C237.8152,236.90785 237.6442,236.57335 237.3322,236.47285 C237.0202,236.37085 236.6842,236.54335 236.5837,236.85535"/><path id="Fill-70" fill="#D18682" d="M230.8861,234.26125 C230.7856,234.57325 230.9566,234.90925 231.2686,235.00975 C231.5821,235.11025 231.9166,234.93925 232.0171,234.62725 C232.1191,234.31375 231.9466,233.97925 231.6346,233.87875 C231.3226,233.77675 230.9866,233.94925 230.8861,234.26125"/><path id="Fill-72" fill="#D18682" d="M241.49605,238.3723 C241.39555,238.6843 241.56655,239.0203 241.87855,239.1208 C242.19205,239.2213 242.52655,239.0503 242.62705,238.7383 C242.72755,238.4248 242.55655,238.0903 242.24455,237.9898 C241.93255,237.8878 241.59655,238.0603 241.49605,238.3723"/><path id="Fill-74" fill="#D18682" d="M248.36545,236.7052 C248.26495,237.0172 248.43595,237.3532 248.74795,237.4537 C249.06145,237.5542 249.39595,237.3832 249.49645,237.0712 C249.59845,236.7592 249.42595,236.4232 249.11395,236.3227 C248.80195,236.2222 248.46595,236.3932 248.36545,236.7052"/><path id="Fill-76" fill="#D18682" d="M272.0266,230.9059 C271.9261,231.2179 272.0971,231.5539 272.4091,231.6544 C272.7226,231.7549 273.0571,231.5839 273.1576,231.2719 C273.2581,230.9599 273.0871,230.6239 272.7751,230.5234 C272.4631,230.4229 272.1271,230.5939 272.0266,230.9059"/><path id="Fill-78" fill="#D18682" d="M261.0499,239.94625 C261.1174,240.26725 261.4339,240.47275 261.7549,240.40525 C262.0759,240.33625 262.2814,240.02125 262.2124,239.70025 C262.1449,239.37925 261.8299,239.17375 261.5089,239.24125 C261.1879,239.31025 260.9824,239.62525 261.0499,239.94625"/><path id="Fill-80" fill="#D18682" d="M256.4026,239.22775 C256.4701,239.54875 256.7866,239.75425 257.1076,239.68675 C257.4286,239.61775 257.6341,239.30275 257.5651,238.98175 C257.4976,238.66075 257.1826,238.45525 256.8616,238.52275 C256.5406,238.59175 256.3351,238.90675 256.4026,239.22775"/><path id="Fill-82" fill="#D18682" d="M237.8662,241.64395 C237.9337,241.96495 238.2502,242.17045 238.5712,242.10295 C238.8922,242.03545 239.0977,241.71895 239.0287,241.39795 C238.9612,241.07695 238.6462,240.87145 238.3252,240.94045 C238.0042,241.00795 237.7987,241.32295 237.8662,241.64395"/><path id="Fill-84" fill="#D18682" d="M240.50545,234.4999 C240.57295,234.8209 240.88795,235.0264 241.20895,234.9589 C241.53145,234.8914 241.73695,234.5749 241.66795,234.2539 C241.60045,233.9329 241.28545,233.7274 240.96445,233.7964 C240.64345,233.8639 240.43795,234.1789 240.50545,234.4999"/><path id="Fill-86" fill="#D18682" d="M238.1068,228.65665 C238.1743,228.97765 238.4908,229.18315 238.8118,229.11565 C239.1328,229.04665 239.3383,228.73165 239.2693,228.41065 C239.2018,228.08965 238.8868,227.88415 238.5658,227.95165 C238.2448,228.02065 238.0393,228.33565 238.1068,228.65665"/><path id="Fill-88" fill="#D18682" d="M265.96375,237.32785 C266.03125,237.64885 266.34775,237.85435 266.66875,237.78685 C266.98975,237.71785 267.19525,237.40285 267.12625,237.08185 C267.05875,236.76085 266.74375,236.55535 266.42275,236.62285 C266.10175,236.69185 265.89625,237.00685 265.96375,237.32785"/><path id="Fill-90" fill="#597EF7" d="M227.86975,262.71505 L231.15925,253.67455 L241.68925,255.64555 L251.17075,277.75555 L262.37575,255.30205 L293.40475,251.14855 L297.08425,270.37855 C297.08425,270.37855 273.93775,295.16305 241.22575,286.92955 C225.06625,282.86155 227.86975,262.71505 227.86975,262.71505"/><path id="Fill-92" fill="#253368" d="M196.87135,446.26585 C245.13235,440.08435 299.09935,443.62585 299.09935,443.62585 L297.19735,430.07485 C297.19735,430.07485 235.86085,422.22985 197.98135,432.37285 C197.10985,438.87085 196.87135,446.26585 196.87135,446.26585"/><path id="Stroke-94" fill="#253368" fill-rule="nonzero" d="M243.309065,443.9953 C243.739592,443.9953 244.095344,444.316316 244.148064,444.732643 L244.155089,444.954983 L244.177849,448.220589 L244.216706,451.47662 C244.263528,454.843842 244.334343,458.51392 244.433849,462.420166 C244.769817,475.609099 245.359114,488.797586 246.263584,501.103889 L246.404218,502.976551 C247.688558,519.715672 249.476754,533.341117 251.836583,542.779969 C251.949708,543.232447 251.674608,543.690958 251.222131,543.804083 C250.769653,543.917208 250.311142,543.642108 250.198017,543.189631 C247.72183,533.285373 245.878965,518.913406 244.579128,501.227691 C243.725786,489.617039 243.152559,477.22864 242.807445,464.794863 L242.745396,462.463177 C242.636656,458.194399 242.562116,454.206988 242.515665,450.587418 L242.471629,446.110225 L242.465797,444.841035 C242.465119,444.374631 242.842661,443.9953 243.309065,443.9953 Z"/><path id="Stroke-96" fill="#253368" fill-rule="nonzero" d="M224.923349,444.628895 C225.389753,444.628017 225.768564,445.005395 225.769448,445.471799 L225.783873,447.871481 L225.821409,451.346854 C225.839092,452.694491 225.861175,454.111573 225.888169,455.587234 C226.015419,462.543297 226.226306,469.499103 226.539183,476.063667 L226.687917,479.00719 C227.615735,496.325275 229.212939,507.780792 231.26335,509.375735 C232.85001,510.609526 234.91136,511.891761 237.331074,513.189234 C239.466327,514.334178 241.757945,515.426809 244.050032,516.428875 L244.984196,516.832072 C245.285551,516.960431 245.57646,517.08265 245.855684,517.198431 L246.83388,517.597059 C246.945885,517.641739 247.034667,517.676674 247.098704,517.701499 C247.533573,517.870086 247.749438,518.359284 247.580851,518.794154 C247.412264,519.229023 246.923066,519.444888 246.488196,519.276301 L245.794677,518.999225 L244.774333,518.577251 C244.331022,518.390922 243.862684,518.190325 243.373459,517.976444 C241.04299,516.957598 238.712052,515.846219 236.532919,514.677747 C234.036321,513.339047 231.898937,512.009517 230.226441,510.70898 C227.49482,508.584147 225.911194,496.935298 224.940256,477.930185 C224.60772,471.421141 224.37926,464.48774 224.236327,457.519213 L224.199452,455.618127 C224.172401,454.139415 224.150273,452.71936 224.132552,451.368809 L224.091983,447.519207 L224.080445,445.475001 C224.079567,445.008597 224.456945,444.629786 224.923349,444.628895 Z"/><path id="Fill-98" fill="#E1E7F3" d="M255.6724,441.9064 L255.6724,428.3704 C255.6724,426.6019 254.3239,425.1544 252.6169,425.1034 C246.9559,424.9339 234.3754,424.7824 222.9634,426.2299 C221.3719,426.4309 220.1704,427.8184 220.1704,429.4789 L220.1704,442.2049 C220.1704,444.0259 221.5969,445.4944 223.3564,445.4734 C229.8259,445.3939 244.5619,445.2184 252.5419,445.1734 C254.2789,445.1644 255.6724,443.7034 255.6724,441.9064"/><path id="Fill-100" fill="#253368" d="M252.01105,439.57 L252.00805,430.609 C252.00655,429.4405 250.90555,428.482 249.51355,428.449 C244.89505,428.338 234.63055,428.2435 225.32155,429.2035 C224.02255,429.3385 223.04305,430.258 223.04305,431.356 L223.04605,439.78 C223.04605,440.9845 224.21155,441.9565 225.64555,441.9415 C230.92405,441.8875 242.94805,441.766 249.45655,441.733 C250.87405,441.727 252.01105,440.7595 252.01105,439.57"/><polygon id="Fill-102" fill="#E1E7F3" points="223.142 427.475 253.112 440.85 251.875 443.574 221.656 429.951"/><polygon id="Fill-104" fill="#E1E7F3" points="221.855 440.421 251.895 427.202 253.082 429.95 222.692 443.186"/><path id="Stroke-106" fill="#253368" fill-rule="nonzero" d="M282.73237,444.019613 C283.185346,443.908504 283.642628,444.185643 283.753737,444.63862 L283.898985,445.18682 C283.939941,445.334665 283.98809,445.504702 284.043519,445.695618 C284.291407,446.549424 284.594426,447.50215 284.954172,448.528832 C285.981891,451.461855 287.255976,454.394264 288.787078,457.125371 C293.626359,465.757449 299.826533,470.413903 307.527131,469.20551 C307.987897,469.133205 308.420036,469.448116 308.49234,469.908881 C308.564645,470.369647 308.249734,470.801786 307.788969,470.87409 C299.23253,472.216784 292.459637,467.130207 287.313803,457.951313 C285.73034,455.126808 284.418184,452.106776 283.360192,449.087357 C283.051647,448.206796 282.783368,447.378219 282.554267,446.615883 L282.356508,445.940541 L282.125805,445.090853 C282.120877,445.071351 282.116731,445.05471 282.113363,445.04098 C282.002254,444.588004 282.279393,444.130722 282.73237,444.019613 Z"/><path id="Stroke-108" fill="#253368" fill-rule="nonzero" d="M239.680082,527.816151 C240.071127,527.561952 240.5942,527.672887 240.848399,528.063932 C241.081415,528.422389 241.007616,528.891788 240.692495,529.16333 L240.600618,529.232249 L221.582118,541.595249 C221.191073,541.849448 220.668,541.738513 220.413801,541.347468 C220.180785,540.989011 220.254584,540.519612 220.569705,540.24807 L220.661582,540.179151 L239.680082,527.816151 Z"/><path id="Stroke-110" fill="#253368" fill-rule="nonzero" d="M247.788315,526.455521 C248.053841,526.072078 248.579936,525.976488 248.963379,526.242015 C249.314868,526.485414 249.424481,526.947763 249.235786,527.318479 L249.176885,527.417079 L240.833885,539.465079 C240.568359,539.848522 240.042264,539.944112 239.658821,539.678585 C239.307332,539.435186 239.197719,538.972837 239.386414,538.602121 L239.445315,538.503521 L247.788315,526.455521 Z"/><path id="Stroke-112" fill="#1D39C4" fill-rule="nonzero" d="M295.09905,267.420838 C295.397621,267.312259 295.727682,267.466278 295.836262,267.76485 C295.933983,268.033564 295.819,268.327785 295.577367,268.463096 L295.49225,268.502062 L274.57175,276.110062 C274.273179,276.218641 273.943118,276.064622 273.834538,275.76605 C273.736817,275.497336 273.8518,275.203115 274.093433,275.067804 L274.17855,275.028838 L295.09905,267.420838 Z"/><path id="Stroke-114" fill="#1D39C4" fill-rule="nonzero" d="M248.334518,281.984041 C248.639632,282.072582 248.8152,282.391703 248.726659,282.696818 L248.540448,283.365414 L248.353413,284.063893 C248.288502,284.31018 248.221118,284.569757 248.151534,284.842111 L248.045543,285.260162 C247.532912,287.297428 247.020144,289.551873 246.541554,291.959356 C245.413178,297.635495 244.651434,303.255151 244.424703,308.499841 C244.274504,311.974196 244.366482,315.184727 244.728007,318.076642 C244.767417,318.39189 244.543806,318.679397 244.228558,318.718807 C243.91331,318.758217 243.625803,318.534606 243.586393,318.219358 C243.216251,315.258511 243.122466,311.984917 243.275276,308.45015 C243.504833,303.140087 244.274162,297.464478 245.413135,291.735034 C245.842054,289.577417 246.298212,287.541656 246.757493,285.672467 L246.929822,284.979416 C247.07473,284.403532 247.21141,283.877848 247.337665,283.406445 L247.621741,282.376182 C247.710282,282.071068 248.029403,281.8955 248.334518,281.984041 Z"/><path id="Fill-116" fill="#597EF7" d="M349.29055,375.63325 C341.61355,367.27825 310.08805,337.10275 307.76605,333.93325 C301.31605,325.12825 289.25155,300.88225 311.72155,281.65075 C329.69005,266.27275 347.08555,272.76025 358.80805,282.50875 C366.88855,289.22875 392.69905,318.24025 397.05655,325.77625 L349.29055,375.63325 Z"/><path id="Stroke-118" fill="#1D39C4" fill-rule="nonzero" d="M395.38478,325.946053 C395.606714,325.718721 395.970915,325.714345 396.198247,325.93628 C396.40032,326.133554 396.42623,326.443238 396.273621,326.669284 L396.20802,326.749747 L348.65652,375.457747 C348.42602,375.693854 348.044567,375.688084 347.821313,375.445113 L345.689084,373.145913 C344.768574,372.161938 343.702797,371.032292 342.329265,369.584686 L325.321843,351.720209 C320.384329,346.497767 318.086076,343.971123 317.287278,342.880258 C317.09958,342.623931 317.155214,342.263977 317.411542,342.076278 C317.667869,341.88858 318.027823,341.944214 318.215522,342.200542 L318.498411,342.567315 C319.479636,343.791334 321.799235,346.31967 326.216245,350.99115 L343.858041,369.524988 L348.257,374.22 L395.38478,325.946053 Z"/><path id="Stroke-120" fill="#965C56" fill-rule="nonzero" d="M371.728989,357.919411 C380.972226,352.810853 390.731631,351.353603 400.076673,355.803284 C400.357159,355.936839 400.476271,356.272486 400.342716,356.552973 C400.209161,356.833459 399.873514,356.952571 399.593027,356.819016 C390.628841,352.550681 381.229206,353.954212 372.273173,358.904037 C370.45387,359.90953 368.805346,360.986928 367.358377,362.063606 C366.954021,362.364484 366.589158,362.647868 366.265741,362.909101 L365.650651,363.415231 L365.638528,363.422947 L324.249028,414.104947 C324.052527,414.345565 323.698172,414.381329 323.457553,414.184828 C323.243671,414.01016 323.191648,413.710768 323.320737,413.477399 L323.377672,413.393353 L364.826574,362.649032 L365.101795,362.410962 L365.314633,362.233349 C365.707159,361.909198 366.165779,361.548736 366.686795,361.161053 C368.17257,360.055499 369.863073,358.950666 371.728989,357.919411 Z"/><path id="Stroke-122" fill="#1D39C4" fill-rule="nonzero" d="M333.817127,273.81679 C334.126328,273.743793 334.436162,273.935275 334.50916,274.244477 C334.582157,274.553678 334.390675,274.863512 334.081473,274.93651 L333.787042,275.016717 C333.534182,275.090184 333.239261,275.184734 332.905787,275.302378 C331.946664,275.640743 330.875231,276.095675 329.719477,276.683247 C326.407973,278.366777 323.093198,280.774074 319.996766,284.034611 C315.304991,288.975042 311.544372,295.432719 309.058205,303.615382 C308.965846,303.919362 308.644549,304.090915 308.340568,303.998555 C308.036588,303.906196 307.865035,303.584899 307.957395,303.280918 C310.495601,294.926976 314.347503,288.31255 319.162516,283.24235 C322.35281,279.882976 325.773812,277.398534 329.198087,275.657673 C330.399854,275.046709 331.517549,274.572133 332.523028,274.217415 L333.024823,274.047594 C333.103481,274.022178 333.179615,273.998184 333.25317,273.97558 L333.713445,273.842948 C333.756285,273.831652 333.79092,273.822977 333.817127,273.81679 Z"/><path id="Stroke-124" fill="#253368" fill-rule="nonzero" d="M203.650952,447.616951 C204.116251,447.64904 204.467438,448.052252 204.435349,448.517552 L204.376191,449.218407 C204.363072,449.359252 204.348493,449.509292 204.332391,449.668131 L204.230313,450.606556 C204.155283,451.253689 204.066097,451.9426 203.961534,452.66578 C203.513115,455.767159 202.876836,458.869656 202.018056,461.772563 C199.609886,469.912827 195.940612,475.013982 190.595671,475.425459 C190.130643,475.461258 189.724641,475.1133 189.688841,474.648271 C189.653042,474.183243 190.001,473.777241 190.466029,473.741441 C194.877009,473.401865 198.171171,468.822204 200.398443,461.293425 C201.23174,458.476656 201.852274,455.45093 202.289917,452.424085 C202.443195,451.363976 202.562573,450.37997 202.652003,449.497784 L202.750351,448.401348 C202.78244,447.936049 203.185652,447.584862 203.650952,447.616951 Z"/><path id="Fill-126" fill="#FFC2BD" d="M293.3332,426.2941 C293.3332,426.2941 309.9817,409.7401 315.6442,410.2666 C324.4207,411.0856 318.6517,428.1481 318.6517,428.1481 C318.6517,428.1481 326.1922,433.0066 321.3412,441.7006 C324.5737,450.0526 319.9822,454.1251 319.9822,454.1251 C319.9822,454.1251 324.9322,460.4446 318.0382,465.6871 C311.1442,470.9311 295.3372,469.5916 297.5782,458.6056 C291.1852,452.5846 296.3467,446.4856 296.3467,446.4856 C296.3467,446.4856 291.6937,440.7436 296.8522,434.9341 C292.2157,432.3661 291.6127,428.0386 293.3332,426.2941"/><path id="Stroke-128" fill="#965C56" fill-rule="nonzero" d="M313.24906,424.529317 C313.51608,424.370541 313.861256,424.45829 314.020033,424.72531 C314.161167,424.962661 314.107517,425.261765 313.906315,425.436816 L313.82404,425.496283 L297.13954,435.417283 C296.87252,435.576059 296.527344,435.48831 296.368567,435.22129 C296.227433,434.983939 296.281083,434.684835 296.482285,434.509784 L296.56456,434.450317 L313.24906,424.529317 Z"/><path id="Stroke-130" fill="#965C56" fill-rule="nonzero" d="M315.675587,409.705585 C319.881693,409.941778 321.40924,413.567474 321.008561,419.242248 C320.882531,421.027187 320.569654,422.928844 320.127139,424.855004 C319.962903,425.569887 319.789291,426.250658 319.613728,426.884913 L319.370321,427.731117 L319.294,427.982 L319.468009,428.155607 L319.732048,428.431584 C320.251866,428.988737 320.771046,429.623813 321.256111,430.32732 C323.731698,433.917754 324.402033,437.770186 322.147348,441.488657 L321.979,441.756 L322.019548,441.846377 C323.948001,446.34095 323.675696,449.943274 321.994535,452.651624 L321.851194,452.875251 C321.439523,453.497545 321.024162,453.965072 320.67359,454.284837 L320.549,454.394 L320.682462,461.918753 C320.687406,462.198304 320.487549,462.433824 320.221093,462.482138 L320.129997,462.491372 C319.850446,462.496056 319.614926,462.296199 319.566612,462.029743 L319.557638,461.938647 L319.419638,454.135647 C319.416372,453.950999 319.503951,453.776511 319.653959,453.668795 C319.718861,453.62219 319.849898,453.513241 320.025313,453.34088 C320.326329,453.045104 320.629256,452.683347 320.912922,452.254548 C322.556608,449.769904 322.834416,446.376475 320.828367,441.932637 C320.747577,441.753668 320.765961,441.545524 320.876869,441.383487 C323.225784,437.951706 322.686258,434.383391 320.329927,430.965919 C319.878099,430.310616 319.393466,429.717799 318.90947,429.199041 C318.62138,428.89026 318.400135,428.677051 318.279337,428.570439 C318.110424,428.421362 318.046753,428.185882 318.117525,427.971997 L318.253059,427.540329 C318.296248,427.397878 318.345909,427.230389 318.400902,427.039802 C318.615513,426.296026 318.830273,425.475529 319.030702,424.60311 C319.461126,422.729577 319.764888,420.883322 319.886354,419.163012 L319.923094,418.532835 C320.139063,413.786708 318.837965,411.00994 315.612513,410.828815 C315.302341,410.811398 315.065017,410.545834 315.082435,410.235663 C315.099852,409.925491 315.365416,409.688167 315.675587,409.705585 Z"/><path id="Stroke-132" fill="#965C56" fill-rule="nonzero" d="M312.328499,441.225967 C312.626668,441.138761 312.939077,441.30978 313.026283,441.607949 C313.104769,441.876302 312.974091,442.156188 312.729806,442.273054 L312.644301,442.305733 L296.504301,447.026233 C296.206132,447.113439 295.893723,446.94242 295.806517,446.644251 C295.728031,446.375898 295.858709,446.096012 296.102994,445.979146 L296.188499,445.946467 L312.328499,441.225967 Z"/><path id="Stroke-134" fill="#965C56" fill-rule="nonzero" d="M313.044859,455.067857 C313.349965,455.009375 313.644711,455.209303 313.703193,455.514409 C313.755827,455.789004 313.599149,456.055208 313.344864,456.148336 L313.256641,456.172743 L297.683641,459.157743 C297.378535,459.216225 297.083789,459.016297 297.025307,458.711191 C296.972673,458.436596 297.129351,458.170392 297.383636,458.077264 L297.471859,458.052857 L313.044859,455.067857 Z"/><path id="Stroke-136" fill="#965C56" fill-rule="nonzero" d="M254.127695,237.549938 C254.438058,237.53635 254.700673,237.776933 254.714262,238.087295 C254.726491,238.366622 254.532842,238.607272 254.267736,238.662516 L254.176905,238.673862 L248.832405,238.907862 C248.522042,238.92145 248.259427,238.680867 248.245838,238.370505 C248.233609,238.091178 248.427258,237.850528 248.692364,237.795284 L248.783195,237.783938 L254.127695,237.549938 Z"/></g></svg>