<svg xmlns="http://www.w3.org/2000/svg" xmlns:xlink="http://www.w3.org/1999/xlink" width="512" height="1024" version="1.1" viewBox="0 0 512 1024"><title>2.人物组件/2.保安/站立/摸后脑勺</title><desc>Created with Sketch.</desc><defs><polygon id="path-1" points=".692 .371 154.884 .371 154.884 99.405 .692 99.405"/><polygon id="path-3" points=".627 .38 63.226 .38 63.226 59.529 .627 59.529"/></defs><g id="2.人物组件/2.保安/站立/摸后脑勺" fill="none" fill-rule="evenodd" stroke="none" stroke-width="1"><g id="分组" transform="translate(248.000000, 215.620500)"><mask id="mask-2" fill="#fff"><use xlink:href="#path-1"/></mask><path id="Fill-1" fill="#FFC2BD" d="M27.8145,32.7141 C17.904,37.2831 -6.8445,51.9561 2.937,78.5721 C10.758,99.8556 31.5015,101.1996 46.413,98.2251 C72.177,93.0861 108.261,73.7301 134.7465,59.3841 C134.7465,59.3841 165.3615,44.0856 151.095,15.9051 C139.0215,-7.9419 112.749,2.7696 112.749,2.7696 C112.749,2.7696 39.144,27.4911 27.8145,32.7141" mask="url(#mask-2)"/></g><path id="Fill-3" fill="#597EF7" d="M319.9634,232.0125 C309.1949,235.5885 279.4844,246.954 275.9144,248.598 C265.9994,253.164 241.3019,267.9405 251.6069,295.6635 C259.8464,317.832 272.6534,328.758 287.6339,325.9275 C297.9629,323.976 335.4944,302.1615 346.4834,297.537 L319.9634,232.0125 Z"/><path id="Stroke-5" fill="#1D39C4" fill-rule="nonzero" d="M319.785264,232.029737 C320.049431,231.920317 320.348415,232.022278 320.4942,232.25774 L320.536863,232.341064 L347.056863,296.367064 C347.17844,296.660583 347.039054,296.997085 346.745536,297.118663 C346.481369,297.228083 346.182385,297.126122 346.0366,296.89066 L345.993937,296.807336 L319.473937,232.781336 C319.35236,232.487817 319.491746,232.151315 319.785264,232.029737 Z"/><path id="Fill-7" fill="#FFC2BD" d="M283.68425,162.6675 C306.30275,175.4925 361.37975,197.259 388.97075,219.855 C388.97075,219.855 415.32125,241.7655 393.92825,266.544 C373.06775,290.703 343.61525,264.6375 343.61525,264.6375 C312.13625,236.019 279.90275,203.6235 261.79775,188.268 C261.79775,188.268 252.49625,179.5635 260.53175,165.861 C270.06725,149.601 283.68425,162.6675 283.68425,162.6675"/><path id="Fill-9" fill="#FFC2BD" d="M284.2343,162.69975 C284.2343,162.69975 253.1093,123.08475 221.0393,137.70525 C197.1353,148.60275 212.8208,179.17275 224.4758,182.25525 C236.1308,185.33625 260.1818,188.16675 267.2573,190.52475 C274.5398,192.95175 288.9503,164.11425 284.2343,162.69975"/><path id="Stroke-11" fill="#965C56" fill-rule="nonzero" d="M241.170864,146.595357 C247.096781,144.97764 257.142975,152.356124 260.141834,161.261133 L260.248384,161.587593 C261.268615,164.817896 262.994112,167.411999 265.228878,169.445038 C266.539252,170.637128 267.943727,171.562886 269.346877,172.253366 C269.836357,172.494236 270.28975,172.688216 270.694955,172.839263 L271.123381,172.988066 C271.146499,172.995231 271.16634,173.00113 271.182809,173.005795 C271.481708,173.090465 271.655375,173.40141 271.570705,173.700309 C271.486035,173.999208 271.17509,174.172875 270.876191,174.088205 L270.588011,173.996102 C270.50481,173.967512 270.409218,173.933371 270.302005,173.893405 C269.862404,173.729536 269.374442,173.520766 268.850157,173.262769 C267.356831,172.527914 265.86483,171.544464 264.471828,170.277205 C262.202875,168.213064 260.425986,165.602926 259.327876,162.389635 L259.175641,161.926484 C256.480821,153.398317 246.806357,146.223089 241.467136,147.680643 C241.167443,147.762457 240.85817,147.58583 240.776357,147.286136 C240.694543,146.986443 240.87117,146.67717 241.170864,146.595357 Z"/><path id="Fill-13" fill="#4E5C93" d="M281.40065,674.7102 L281.40065,674.7102 C296.45315,672.5952 305.71265,659.2497 304.33865,644.1117 L290.81165,495.1797 C288.95915,474.7797 273.38765,459.6612 253.10165,462.5127 C232.81715,465.3627 219.04265,484.6032 222.88265,504.7242 L247.94915,652.0347 C250.79915,666.9657 266.34815,676.8252 281.40065,674.7102"/><path id="Fill-15" fill="#4E5C93" d="M272.08055,792.51735 L312.09155,787.97385 C322.56005,776.70585 312.30755,760.29285 312.30755,760.29285 L303.46205,639.09435 C301.86155,622.99185 288.67055,611.24685 272.64605,613.49835 C256.62155,615.74985 244.20605,631.09335 247.10405,647.01285 L266.36405,768.81585 C266.36405,768.81585 258.73055,785.42535 272.08055,792.51735"/><path id="Fill-17" fill="#253368" d="M335.00585,853.120333 L281.78435,852.6567 L272.63285,791.5677 L310.78685,787.2852 L311.47235,828.2142 L336.86135,847.7427 C339.14135,849.4962 337.88285,853.1457 335.00585,853.120333"/><path id="Fill-19" fill="#4E5C93" d="M192.13445,674.8824 L192.13445,674.8824 C176.93345,674.8824 165.90695,662.9544 165.16295,647.7729 L157.83695,498.4074 C156.83345,477.9474 170.15045,460.8114 190.63445,460.8114 C211.11845,460.8114 227.43695,477.9474 226.43345,498.4074 L222.10595,647.7729 C221.36195,662.9544 207.33545,674.8824 192.13445,674.8824"/><path id="Fill-21" fill="#4E5C93" d="M215.57855,790.54935 L175.14755,790.07085 C163.32905,780.22785 171.57455,763.71135 171.57455,763.71135 L164.90705,642.37485 C164.44205,626.19885 176.03105,612.86985 192.21155,613.06185 C208.39205,613.25235 222.66155,626.88885 221.81405,643.04835 L218.22905,766.31235 C218.22905,766.31235 227.91755,781.81485 215.57855,790.54935"/><path id="Fill-23" fill="#253368" d="M160.0097,853.12044 L213.7487,852.4752 L215.0432,790.7157 L176.4872,790.2597 L180.9977,830.5257 L158.1677,847.7247 C155.8532,849.4677 157.1117,853.1547 160.0097,853.12044"/><path id="Fill-25" fill="#FFC2BD" d="M197.9009,187.3011 C197.9009,187.3011 192.6854,170.9571 185.3459,178.0521 C178.0064,185.1471 185.4089,201.8691 194.2619,202.7571 C203.1164,203.6451 197.9009,187.3011 197.9009,187.3011"/><path id="Stroke-27" fill="#D18682" fill-rule="nonzero" d="M186.034944,183.214641 C186.50489,181.710329 187.764759,181.123842 189.596502,182.135472 C192.404808,183.685634 192.409271,185.901568 190.849938,189.780706 C189.992484,191.914165 190.582858,193.26454 192.57663,193.95831 C192.906807,194.073201 193.081332,194.434002 192.96644,194.76418 C192.851549,195.094357 192.490748,195.268882 192.16057,195.15399 C189.55067,194.245827 188.604153,192.221438 189.586357,189.539994 L189.886697,188.767214 C191.012732,185.788641 190.903265,184.302861 188.984577,183.243761 C187.884435,182.636177 187.48372,182.822716 187.24335,183.592147 C187.160492,183.857379 187.121586,184.13754 187.1109,184.365422 L187.103293,184.619201 C187.065388,184.925436 186.80795,185.165875 186.490226,185.173469 C186.172502,185.181064 185.90387,184.9532 185.851377,184.649125 L185.842029,184.541129 C185.837473,184.172593 185.884238,183.697058 186.034944,183.214641 Z"/><path id="Fill-29" fill="#FFC2BD" d="M249.87575,189.765 C249.87575,189.765 256.61375,173.988 263.24975,181.7445 C269.88425,189.5025 260.93375,205.449 252.03575,205.495603 C243.13775,205.542 249.87575,189.765 249.87575,189.765"/><path id="Stroke-31" fill="#D18682" fill-rule="nonzero" d="M258.630556,185.408545 C260.510732,184.591077 261.709475,185.249837 262.058687,186.74784 C262.140203,187.097515 262.168357,187.45285 262.162299,187.787363 L262.151641,188.033929 C262.147457,188.09534 262.143416,188.13775 262.139512,188.171372 C262.098189,188.518518 261.783273,188.766436 261.436128,188.725112 C261.120541,188.687546 260.88696,188.423869 260.878146,188.115423 L260.888568,187.947884 C260.908223,187.659367 260.894567,187.330481 260.825745,187.035261 C260.651132,186.286229 260.269437,186.076471 259.135239,186.569601 C257.121611,187.444659 256.874213,188.91856 257.718994,191.997545 L257.874387,192.541282 C258.729999,195.430015 257.608366,197.449995 254.84684,198.125425 C254.507254,198.208484 254.164633,198.000526 254.081575,197.66094 C253.998516,197.321354 254.206474,196.978733 254.54606,196.895675 C256.528537,196.410788 257.263897,195.189306 256.721219,193.118135 L256.504179,192.353504 C255.499806,188.691884 255.825259,186.627637 258.630556,185.408545 Z"/><path id="Fill-33" fill="#FFC2BD" d="M195.1088,237.9165 L196.6088,207.5505 C197.3318,192.8775 209.7998,181.56 224.4758,182.256 C238.8068,182.934 250.0253,194.841 249.8513,209.187 L249.4838,239.604 C249.3008,254.6715 236.6678,266.589 221.6153,265.893 L220.4843,265.8405 C205.7558,265.1595 194.3828,252.642 195.1088,237.9165"/><path id="Fill-35" fill="#FFC2BD" d="M254.0015,187.76625 C253.646,193.88925 253.169,202.58325 251.5355,208.57875 C250.511,212.33475 243.593,220.04175 236.3825,224.98425 C232.652,227.54175 228.554,227.57325 223.1645,227.31825 C218.993,227.12025 214.0715,226.45275 209.9855,224.36775 C203.5805,221.09925 195.287,208.87275 194.774,206.31075 C193.6715,200.80275 192.8615,192.84225 193.2905,185.59275 C195.281,151.97025 209.021,146.73525 225.989,147.53925 C242.957,148.34475 255.9455,154.35225 254.0015,187.76625"/><g id="分组" transform="translate(192.500000, 131.620500)"><mask id="mask-4" fill="#fff"><use xlink:href="#path-3"/></mask><path id="Fill-37" fill="#253368" d="M60.84585,59.2893 C60.85935,59.5923 61.30185,59.6148 61.33335,59.3148 C62.06085,52.4553 63.64335,36.3438 63.12285,30.8538 C62.69985,26.3943 58.79085,19.6563 54.02985,13.0878 C49.26585,6.5193 45.24885,6.5403 43.82385,9.8553 C42.64785,7.8978 34.03785,-2.2362 31.34535,1.0188 C28.65585,4.2738 19.50585,9.9723 19.50585,9.9723 C19.50585,9.9723 18.84285,6.1338 16.15185,9.3888 C13.45935,12.6438 6.73185,18.8223 4.10085,22.7718 C0.32085,28.4448 0.49635,47.4003 0.73335,55.0758 C0.74385,55.4073 1.22235,55.4328 1.27035,55.1058 C1.89135,50.7978 3.25185,43.4628 5.55135,41.2323 C7.99185,38.8113 6.73335,27.3768 9.64635,26.2053 C14.81835,24.1248 47.09985,25.0203 53.90985,28.5138 C56.96985,30.0843 55.58535,41.3748 57.22935,43.6818 C60.29535,47.9808 60.58485,53.2263 60.84585,59.2893" mask="url(#mask-4)"/></g><path id="Stroke-39" fill="#253368" fill-rule="nonzero" d="M232.0162,174.73693 L244.2637,176.00443 C244.491913,176.028047 244.708536,176.113088 244.891041,176.24932 L244.996269,176.337121 L248.065269,179.193121 C248.577419,179.669725 248.606234,180.471269 248.129629,180.983419 C247.684798,181.461426 246.956909,181.518394 246.445437,181.136368 L246.339331,181.047779 L243.581,178.48 L231.7554,177.25697 C231.103003,177.189453 230.617723,176.638104 230.618948,175.996053 L230.62578,175.86655 C230.693297,175.214153 231.244646,174.728873 231.886697,174.730098 L232.0162,174.73693 Z"/><path id="Fill-41" fill="#EFADAB" d="M193.4558,193.98735 C193.4558,193.98735 201.3308,198.37185 205.2908,205.22385 C210.4253,197.99685 217.5683,195.97635 217.5683,195.97635 C217.5683,195.97635 221.3438,199.57185 224.8313,200.30085 C226.0868,198.93285 229.8068,196.45035 229.8068,196.45035 C229.8068,196.45035 238.6373,200.21085 242.8328,207.07485 C244.9583,202.41435 253.0043,197.65485 253.0043,197.65485 C253.0043,197.65485 253.6598,204.32985 250.9883,211.19535 C247.7168,219.60585 238.6118,228.47235 224.5163,227.80485 C207.8168,227.01285 197.0513,219.45585 194.9453,208.64385 C194.5013,205.26735 193.3313,196.62435 193.4558,193.98735"/><path id="Stroke-43" fill="#D18682" fill-rule="nonzero" d="M199.163367,216.449307 C199.400431,216.248533 199.755369,216.277952 199.956143,216.515017 C200.818346,217.533065 201.749256,218.493868 202.738895,219.398432 C204.743609,221.23081 206.893084,222.752552 209.041881,223.978605 C209.66783,224.335757 210.255971,224.645772 210.795744,224.909796 L211.113719,225.0627 C211.431942,225.213044 211.670092,225.317993 211.813227,225.377472 L212.027454,225.458803 C212.209315,225.523143 212.484587,225.613581 212.851147,225.723092 C213.674068,225.968941 214.649252,226.21541 215.771681,226.445856 C220.592341,227.435586 226.404073,227.816192 233.044406,227.238436 C238.089392,226.279914 242.433582,223.176032 246.066164,218.674789 C246.261264,218.433034 246.615406,218.395213 246.857161,218.590314 C247.098916,218.785414 247.136737,219.139556 246.941636,219.381311 C243.156037,224.072161 238.598818,227.328251 233.198396,228.351412 C226.390572,228.946665 220.469977,228.55893 215.545427,227.547869 C214.390299,227.31071 213.38319,227.056173 212.529115,226.801016 L212.108103,226.671079 C212.042978,226.650276 211.980381,226.629922 211.920323,226.610049 L211.465512,226.450525 L211.300971,226.382294 C211.138547,226.312987 210.913736,226.212454 210.633151,226.079892 C209.983688,225.773056 209.261375,225.399088 208.484353,224.955737 C206.266975,223.690554 204.050276,222.121219 201.979894,220.228819 C200.955747,219.292713 199.991579,218.297585 199.097657,217.242083 C198.896883,217.005019 198.926302,216.650081 199.163367,216.449307 Z"/><path id="Stroke-45" fill="#965C56" fill-rule="nonzero" d="M219.037122,175.885866 C219.302368,175.79745 219.586922,175.917623 219.712797,176.157392 L219.748634,176.241622 L221.437634,181.308622 C221.474306,181.418637 221.476079,181.537298 221.442709,181.648359 L220.791764,183.832501 L220.207892,185.810956 L219.227133,189.182069 C218.378651,192.131063 217.764957,194.364319 217.474919,195.593306 L217.444,195.725 L224.025,199.437 L228.747861,196.667333 C228.986039,196.527598 229.284822,196.583009 229.458686,196.785238 L229.517667,196.867861 C229.657402,197.106039 229.601991,197.404822 229.399762,197.578686 L229.317139,197.637667 L224.316139,200.571667 C224.172137,200.65615 223.999747,200.671493 223.845299,200.6173 L223.755154,200.576438 L216.529654,196.500938 C216.317284,196.381152 216.206267,196.138185 216.254717,195.899225 L216.310644,195.637174 C216.49002,194.830332 216.845933,193.480294 217.34651,191.686931 L218.278647,188.410757 L218.839964,186.478711 L220.314,181.495 L218.681366,176.597378 C218.59295,176.332132 218.713123,176.047578 218.952892,175.921703 L219.037122,175.885866 Z"/><path id="Fill-47" fill="#FFF" d="M233.37785,202.917 C223.52135,202.731 214.24085,201.504 214.24085,201.504 C214.24085,201.504 216.24935,207.4605 223.56185,207.8085 C230.87435,208.155 233.37785,202.917 233.37785,202.917"/><path id="Stroke-49" fill="#D18682" fill-rule="nonzero" d="M213.280715,201.827753 C213.590948,202.747794 214.305271,204.059495 215.558314,205.365641 C217.495496,207.384919 220.129211,208.659538 223.513684,208.820605 C227.065423,208.988902 229.887968,207.961278 232.015825,206.140929 C233.210572,205.11884 233.94227,204.085771 234.292048,203.353941 C234.609347,202.690066 234.135549,201.920017 233.399919,201.90399 L232.580064,201.886129 C228.842265,201.79396 224.956154,201.554466 221.100777,201.212955 L219.800865,201.093778 C218.950627,201.013167 218.134029,200.930469 217.356476,200.847087 L215.917824,200.68707 L214.373659,200.499491 C213.629984,200.401168 213.041029,201.116929 213.280715,201.827753 Z M216.11507,202.860007 L216.034,202.74 L217.736437,202.925018 C218.742628,203.02978 219.807964,203.132872 220.921969,203.231551 L222.383959,203.356033 C225.309636,203.594985 228.241431,203.772791 231.106425,203.870178 L231.444,203.88 L231.225334,204.111413 C231.061005,204.277409 230.885459,204.441067 230.698469,204.601034 C228.952894,206.094347 226.631369,206.939561 223.609809,206.796386 C220.761909,206.660855 218.610032,205.619427 217.020685,203.962724 C216.679368,203.606943 216.378162,203.236407 216.11507,202.860007 Z"/><path id="Stroke-51" fill="#965C56" fill-rule="nonzero" d="M221.130586,212.234131 L226.826086,212.504131 C227.136398,212.518842 227.37603,212.782324 227.361319,213.092636 C227.348079,213.371916 227.133335,213.593946 226.864301,213.624836 L226.772814,213.627869 L221.077314,213.357869 C220.767002,213.343158 220.52737,213.079676 220.542081,212.769364 C220.555321,212.490084 220.770065,212.268054 221.039099,212.237164 L221.130586,212.234131 Z"/><path id="Stroke-53" fill="#965C56" fill-rule="nonzero" d="M223.471531,220.848783 C223.75081,220.862045 223.972823,221.076808 224.003691,221.345844 L224.006717,221.437331 L223.726217,227.344331 C223.711481,227.654641 223.44798,227.894252 223.137669,227.879517 C222.85839,227.866255 222.636377,227.651492 222.605509,227.382456 L222.602483,227.290969 L222.882983,221.383969 C222.897719,221.073659 223.16122,220.834048 223.471531,220.848783 Z"/><path id="Fill-55" fill="#D18682" d="M217.10795,212.3733 C217.03895,212.6943 216.72245,212.8983 216.40145,212.8293 C216.08045,212.7603 215.87645,212.4438 215.94545,212.1228 C216.01445,211.8018 216.33095,211.5978 216.65195,211.6668 C216.97295,211.7358 217.17695,212.0523 217.10795,212.3733"/><path id="Fill-57" fill="#D18682" d="M211.99415,212.51475 C211.92515,212.83575 211.60865,213.03975 211.28765,212.97075 C210.96665,212.90175 210.76265,212.58525 210.83165,212.26425 C210.90065,211.94475 211.21715,211.73925 211.53815,211.80825 C211.85915,211.87875 212.06315,212.19375 211.99415,212.51475"/><path id="Fill-59" fill="#D18682" d="M240.61565,215.8164 C240.71465,216.1284 240.54365,216.4644 240.23015,216.5634 C239.91815,216.6624 239.58365,216.4899 239.48315,216.1779 C239.38415,215.8659 239.55515,215.5314 239.86865,215.4309 C240.18065,215.3319 240.51665,215.5044 240.61565,215.8164"/><path id="Fill-61" fill="#D18682" d="M246.32195,213.24195 C246.42095,213.55395 246.24845,213.88995 245.93645,213.98895 C245.62445,214.08795 245.28995,213.91545 245.18945,213.60345 C245.09045,213.29145 245.26145,212.95695 245.57495,212.85645 C245.88695,212.75745 246.22295,212.92995 246.32195,213.24195"/><path id="Fill-63" fill="#D18682" d="M235.6982,217.3164 C235.7972,217.6284 235.6262,217.9644 235.3127,218.0634 C235.0007,218.1624 234.6662,217.9899 234.5657,217.6779 C234.4667,217.3659 234.6377,217.0314 234.9512,216.9309 C235.2632,216.8319 235.5992,217.0044 235.6982,217.3164"/><path id="Fill-65" fill="#D18682" d="M230.2307,219.41775 C230.3312,219.72975 230.1587,220.06425 229.8452,220.16475 C229.5332,220.26375 229.1987,220.09125 229.0982,219.77925 C228.9992,219.46575 229.1717,219.13275 229.4837,219.03225 C229.7972,218.93175 230.1317,219.10575 230.2307,219.41775"/><path id="Fill-67" fill="#D18682" d="M205.1936,209.74545 C205.2926,210.05745 205.1201,210.39345 204.8081,210.49245 C204.4961,210.59145 204.1616,210.42045 204.0611,210.10695 C203.9606,209.79495 204.1331,209.46045 204.4466,209.35995 C204.7586,209.26095 205.0946,209.43345 205.1936,209.74545"/><path id="Fill-69" fill="#D18682" d="M216.13895,218.823 C216.06995,219.144 215.75345,219.348 215.43245,219.279 C215.11145,219.21 214.90745,218.8935 214.97645,218.5725 C215.04545,218.253 215.36195,218.0475 215.68295,218.1165 C216.00395,218.1855 216.20795,218.502 216.13895,218.823"/><path id="Fill-71" fill="#D18682" d="M220.7891,218.1207 C220.7201,218.4417 220.4036,218.6457 220.0826,218.5767 C219.7616,218.5077 219.5576,218.1912 219.6266,217.8702 C219.6956,217.5507 220.0121,217.3452 220.3331,217.4142 C220.6541,217.4832 220.8581,217.7997 220.7891,218.1207"/><path id="Fill-73" fill="#D18682" d="M239.31635,220.6014 C239.24735,220.9224 238.93235,221.1264 238.60985,221.0574 C238.28885,220.9884 238.08635,220.6719 238.15535,220.3509 C238.22285,220.0299 238.53935,219.8259 238.86035,219.8949 C239.18135,219.9639 239.38535,220.2804 239.31635,220.6014"/><path id="Fill-75" fill="#D18682" d="M236.7023,213.44775 C236.6333,213.76875 236.3168,213.97275 235.9958,213.90375 C235.6748,213.83475 235.4708,213.51825 235.5398,213.19725 C235.6088,212.87775 235.9253,212.67225 236.2463,212.74125 C236.5673,212.81175 236.7713,213.12675 236.7023,213.44775"/><path id="Fill-77" fill="#D18682" d="M239.1209,207.6126 C239.0519,207.9336 238.7354,208.1376 238.4144,208.0686 C238.0934,207.9996 237.8894,207.6831 237.9584,207.3621 C238.0274,207.0426 238.3439,206.8371 238.6649,206.9061 C238.9859,206.9751 239.1899,207.2916 239.1209,207.6126"/><path id="Fill-79" fill="#D18682" d="M211.2338,216.1878 C211.1648,216.5088 210.8498,216.7128 210.5273,216.6438 C210.2063,216.5748 210.0023,216.2583 210.0728,215.9373 C210.1403,215.6178 210.4568,215.4123 210.7778,215.4813 C211.0988,215.5518 211.3028,215.8668 211.2338,216.1878"/><path id="Stroke-81" fill="#253368" fill-rule="nonzero" d="M237.590608,181.599401 C239.603939,181.695367 241.032243,183.837823 240.91556,186.300545 C240.895956,186.714294 240.544654,187.033813 240.130905,187.01421 C239.717156,186.994606 239.397637,186.643304 239.41724,186.229555 C239.49859,184.512577 238.589345,183.148709 237.519157,183.097698 C236.450179,183.046695 235.415379,184.318991 235.334061,186.03652 C235.314471,186.45027 234.96318,186.7698 234.54943,186.750211 C234.13568,186.730621 233.81615,186.37933 233.835739,185.96558 C233.948844,183.576676 235.480813,181.62493 237.408737,181.596396 L237.590608,181.599401 Z"/><path id="Stroke-83" fill="#253368" fill-rule="nonzero" d="M210.348243,179.967552 C212.360503,180.063561 213.78981,182.20667 213.67316,184.668695 C213.653556,185.082444 213.302254,185.401963 212.888505,185.38236 C212.474756,185.362756 212.155237,185.011454 212.17484,184.597705 C212.256155,182.881481 211.34605,181.516866 210.277485,181.465882 C209.207551,181.415876 208.172959,182.687554 208.091661,184.40467 C208.072071,184.81842 207.72078,185.13795 207.30703,185.118361 C206.89328,185.098771 206.57375,184.74748 206.593339,184.33373 C206.706412,181.945492 208.237862,179.994937 210.166318,179.964714 L210.348243,179.967552 Z"/><path id="Stroke-85" fill="#253368" fill-rule="nonzero" d="M205.66643,173.041186 L205.817983,173.046284 L219.332983,174.313784 C220.029533,174.37911 220.541241,174.996733 220.475916,175.693283 C220.414673,176.346298 219.868013,176.836856 219.22598,176.841798 L219.096417,176.836216 L205.969,175.604 L202.809645,177.344685 C202.235087,177.661013 201.522109,177.484529 201.157209,176.95625 L201.089015,176.845945 C200.772687,176.271387 200.949171,175.558409 201.47745,175.193509 L201.587755,175.125315 L205.088755,173.197815 C205.266674,173.09986 205.464857,173.046482 205.66643,173.041186 Z"/><path id="Fill-87" fill="#597EF7" d="M309.34985,264.55995 C309.31235,260.98845 307.18835,257.75745 303.91685,256.32645 C294.06785,252.01395 287.26535,237.83445 247.51235,241.74195 C240.06185,242.47395 231.76385,263.71995 223.93835,264.10995 C218.64485,264.37245 204.66935,241.52745 200.22485,242.11095 C176.76185,245.19195 156.25985,248.33445 140.78585,255.48795 C135.87485,257.75745 132.94835,262.87395 133.58585,268.24695 C135.90935,287.80395 146.79785,340.87995 170.78735,395.85945 C170.78735,395.85945 161.05235,412.88145 176.01785,415.52445 C276.64835,415.52445 274.52735,415.07745 274.52735,415.07745 C274.52735,415.07745 282.42485,410.67645 277.72835,396.00795 C277.72835,396.00795 309.79385,307.73295 309.34985,264.55995"/><path id="Fill-89" fill="#597EF7" d="M185.36405,246.3702 L193.99505,231.4032 L210.47105,234.4032 L222.15155,261.0597 L234.82205,235.7622 L251.47205,231.4437 L257.41655,246.6582 C257.41655,246.6582 251.62205,267.4437 222.34355,267.4437 C193.05905,267.4437 185.36405,246.3702 185.36405,246.3702"/><path id="Stroke-91" fill="#1D39C4" fill-rule="nonzero" d="M186.474654,245.946782 C186.708501,245.731724 187.072411,245.746956 187.287468,245.980804 L187.551908,246.253866 C187.614037,246.316144 187.685141,246.386521 187.765141,246.464571 C188.169195,246.858781 188.649066,247.299114 189.202586,247.774072 C190.78799,249.13446 192.642467,250.496031 194.748508,251.767087 C197.252826,253.278515 199.947028,254.558516 202.817086,255.533522 C203.117904,255.635715 203.278921,255.962419 203.176728,256.263236 C203.074535,256.564054 202.747831,256.725071 202.447014,256.622878 C199.49538,255.620159 196.726671,254.304761 194.154027,252.752096 C191.990828,251.446543 190.085262,250.047462 188.453384,248.647197 C187.995361,248.254182 187.585099,247.883176 187.223638,247.540072 L186.961709,247.288068 C186.706528,247.039105 186.532154,246.859115 186.440632,246.759596 C186.225574,246.525749 186.240806,246.161839 186.474654,245.946782 Z"/><path id="Stroke-93" fill="#1D39C4" fill-rule="nonzero" d="M257.861874,246.295394 C258.062578,246.541671 258.025633,246.904021 257.779356,247.104724 L257.183529,247.581393 L256.259528,248.304384 C256.039947,248.474319 255.811202,248.650091 255.573957,248.831017 C253.879361,250.123337 252.097632,251.41571 250.311525,252.622779 C249.182992,253.385454 248.087323,254.090082 247.035829,254.724831 C243.825692,256.662672 241.173691,257.868141 239.222782,258.146771 C238.908272,258.19169 238.616897,257.973143 238.571979,257.658632 C238.52706,257.344122 238.745607,257.052747 239.060118,257.007829 C240.815963,256.757057 243.355001,255.602936 246.441251,253.739881 C247.474923,253.115891 248.554275,252.421756 249.667321,251.669547 C251.433573,250.475896 253.19801,249.196066 254.876295,247.916185 L255.555125,247.394732 C255.772496,247.226508 255.980739,247.064106 256.179181,246.908215 L257.052544,246.212876 C257.298821,246.012172 257.661171,246.049117 257.861874,246.295394 Z"/><path id="Stroke-95" fill="#1D39C4" fill-rule="nonzero" d="M222.1514,260.48445 C222.437332,260.48445 222.674539,260.693064 222.719121,260.966391 L222.72665,261.0597 L222.72665,291.3642 C222.72665,291.681902 222.469102,291.93945 222.1514,291.93945 C221.865468,291.93945 221.628261,291.730836 221.583679,291.457509 L221.57615,291.3642 L221.57615,261.0597 C221.57615,260.741998 221.833698,260.48445 222.1514,260.48445 Z"/><path id="Stroke-97" fill="#1D39C4" fill-rule="nonzero" d="M303.238133,305.812121 C303.551985,305.86143 303.766439,306.155831 303.717129,306.469683 L303.483145,307.885156 L303.246361,309.256568 C303.161729,309.739007 303.071384,310.246481 302.9753,310.778182 L302.775473,311.873646 C301.985268,316.166731 301.025518,320.949901 299.892311,326.100774 C296.654348,340.818593 292.675721,355.53698 287.924226,369.278065 C284.635285,378.789517 281.084316,387.494969 277.264681,395.219791 L276.867,396.017 L276.941769,396.177894 C280.54068,404.032434 279.872265,409.747659 276.487607,413.565865 L276.306968,413.765073 C275.647271,414.476384 274.94031,415.054226 274.231696,415.510178 C273.801072,415.78726 273.45995,415.964376 273.252822,416.052621 C273.205295,416.07287 273.155368,416.086577 273.104404,416.093466 L273.02735,416.09865 L176.01785,416.09865 L175.884353,416.082945 L175.598944,416.00442 L175.49681,415.973377 C175.202707,415.882373 174.8765,415.767212 174.526073,415.625677 C173.526882,415.222108 172.527958,414.686538 171.593006,413.999794 C166.818997,410.49317 165.565167,404.722633 169.869231,396.363365 L170.136,395.854 L169.840133,395.280476 C165.770665,387.33604 162.028415,377.941215 158.604247,367.384666 L158.238588,366.249175 C154.306347,353.949826 150.999045,340.775957 148.294875,327.602635 L147.868222,325.498572 C147.104596,321.68543 146.443015,318.119991 145.881891,314.86861 L145.416903,312.101848 L145.090303,310.031652 C145.043772,309.717376 145.260822,309.424885 145.575098,309.378353 C145.889374,309.331822 146.181865,309.548872 146.228397,309.863148 L146.423479,311.117448 L146.621713,312.339586 C146.739769,313.056279 146.871049,313.835182 147.015631,314.672949 L147.330736,316.471835 C147.926698,319.82539 148.62323,323.480697 149.421876,327.371288 C152.118387,340.507308 155.416051,353.642782 159.334444,365.898818 C162.960288,377.23981 166.946026,387.258185 171.2973,395.593698 C171.386096,395.7638 171.384231,395.966978 171.292326,396.135422 C166.771412,404.421348 167.827687,409.806564 172.274088,413.072552 C173.126018,413.698315 174.041611,414.189207 174.956938,414.558903 C175.276591,414.688009 175.572602,414.79251 175.8369,414.874292 L176.091,414.948 L272.901,414.948 L272.962291,414.918698 C273.089704,414.854458 273.256669,414.762096 273.454822,414.639914 L273.609154,414.54266 C274.240153,414.136649 274.872804,413.619544 275.463412,412.982727 C278.735031,409.45514 279.39391,404.049639 275.708296,396.254279 C275.632566,396.094105 275.634871,395.907969 275.714544,395.749719 C279.708425,387.816847 283.414183,378.800397 286.836897,368.90208 C291.572248,355.207683 295.539625,340.530912 298.768683,325.853572 C299.823583,321.058634 300.727701,316.583548 301.484145,312.527973 L301.84308,310.573908 C301.938805,310.044197 302.028799,309.5387 302.113087,309.058226 L302.580571,306.291117 C302.624949,306.008651 302.867852,305.806696 303.144786,305.805077 L303.238133,305.812121 Z"/><path id="Fill-99" fill="#4E5C93" d="M157.91945,500.7762 L214.80695,529.4772 L236.41745,529.0557 L290.53445,499.5087 C290.53445,499.5087 289.26695,464.0322 274.80695,427.6932 C272.27045,420.7197 271.59995,417.0057 271.59995,417.0057 C271.59995,417.0057 214.41245,419.5422 174.60245,419.5422 L171.83345,430.9527 C171.83345,430.9527 158.28545,464.4552 157.91945,500.7762"/><path id="Fill-101" fill="#253368" d="M172.28225,431.11185 C221.96675,431.11185 274.51025,428.47185 274.51025,428.47185 L272.60825,414.92085 C272.60825,414.92085 210.98525,415.71885 173.39225,415.71885 C172.52075,422.21685 172.28225,431.11185 172.28225,431.11185"/><path id="Stroke-103" fill="#253368" fill-rule="nonzero" d="M241.893534,429.476522 C242.359042,429.447629 242.759834,429.801575 242.788728,430.267084 L242.931086,432.715952 L243.095046,435.759885 C243.205624,437.887507 243.315164,440.151609 243.420047,442.519435 L243.464701,443.540472 C243.752687,450.210901 243.964223,456.795303 244.068636,463.016694 L244.11027,465.951662 C244.337621,485.540909 243.448481,497.430305 240.739274,499.537546 C239.205138,500.730584 237.350551,501.836963 235.243552,502.860239 C233.089179,503.906522 230.786778,504.812224 228.485077,505.576047 L227.547399,505.879095 C227.396088,505.926663 227.247362,505.972758 227.101371,506.017379 L226.259438,506.267384 C225.853797,506.384171 225.561872,506.463087 225.402481,506.503724 C224.950533,506.618947 224.49075,506.345979 224.375526,505.894031 C224.260303,505.442083 224.533271,504.9823 224.985219,504.867076 L225.487318,504.731006 L225.792144,504.644313 C226.443425,504.456805 227.170096,504.232853 227.953106,503.97301 C230.189267,503.230937 232.424728,502.351567 234.505694,501.340935 C236.514262,500.365462 238.270793,499.317579 239.702365,498.204301 C241.752006,496.610076 242.650343,484.123227 242.413368,465.317211 L242.405593,464.727471 C242.313463,458.033257 242.090776,450.874789 241.777272,443.613325 L241.64192,440.594618 C241.56546,438.950695 241.487157,437.364391 241.408328,435.847663 L241.102972,430.371716 C241.074079,429.906208 241.428025,429.505416 241.893534,429.476522 Z"/><path id="Stroke-105" fill="#253368" fill-rule="nonzero" d="M261.794271,428.123294 C262.256758,428.062968 262.680581,428.388984 262.740906,428.851471 L262.801994,429.273113 C262.830229,429.456185 262.866493,429.680712 262.911254,429.943485 C263.061294,430.824309 263.252822,431.80703 263.489526,432.865897 C264.165489,435.889738 265.066379,438.91255 266.219497,441.726684 C269.888844,450.681568 275.144937,455.429591 282.303338,454.055834 C282.761384,453.967931 283.203963,454.267992 283.291866,454.726038 C283.379769,455.184084 283.079708,455.626663 282.621662,455.714566 C274.465269,457.279846 268.594,451.976111 264.656614,442.36709 C263.463775,439.456017 262.536501,436.344679 261.841209,433.23437 C261.638513,432.327632 261.467913,431.474511 261.32714,430.689686 L261.171525,429.775499 L261.072943,429.120982 C261.070205,429.100998 261.067924,429.083964 261.066094,429.069929 C261.005768,428.607442 261.331784,428.183619 261.794271,428.123294 Z"/><path id="Stroke-107" fill="#253368" fill-rule="nonzero" d="M185.918479,428.123294 C186.380966,428.183619 186.706982,428.607442 186.646656,429.069929 L186.602613,429.379132 C186.566049,429.624434 186.520844,429.90815 186.466513,430.227104 C186.311792,431.135407 186.114776,432.146285 185.871541,433.23437 C185.176249,436.344679 184.248975,439.456017 183.056136,442.36709 L182.723536,443.157821 C178.790805,452.265463 173.020914,457.236366 165.091088,455.714566 C164.633042,455.626663 164.332981,455.184084 164.420884,454.726038 C164.508787,454.267992 164.951366,453.967931 165.409412,454.055834 C172.567813,455.429591 177.823906,450.681568 181.493253,441.726684 C182.646371,438.91255 183.547261,435.889738 184.223224,432.865897 C184.420477,431.983508 184.586359,431.153998 184.723002,430.392269 L184.888067,429.418139 C184.928415,429.163641 184.956036,428.972661 184.971844,428.851471 C185.027529,428.42456 185.392939,428.113932 185.812585,428.116094 L185.918479,428.123294 Z"/><path id="Stroke-109" fill="#253368" fill-rule="nonzero" d="M223.03577,427.882198 C223.466248,427.875782 223.826364,428.192532 223.884771,428.6081 L223.892953,428.71392 L225.392953,527.82342 C225.400011,528.289771 225.027681,528.673545 224.56133,528.680702 C224.130852,528.687118 223.770736,528.370368 223.712329,527.9548 L223.704147,527.84898 L222.204147,428.73948 C222.197089,428.273129 222.569419,427.889355 223.03577,427.882198 Z"/><path id="Fill-111" fill="#E1E7F3" d="M239.6474,429.264 L239.6474,415.728 C239.6474,413.9595 238.2989,412.512 236.5919,412.461 C230.9309,412.2915 218.2214,411.6765 206.8094,413.1225 C205.2179,413.325 204.1454,415.1775 204.1454,416.8365 L204.1454,429.564 C204.1454,431.3835 205.5719,432.8535 207.3314,432.831 C213.8009,432.7515 228.5369,432.576 236.5169,432.5325 C238.2539,432.522 239.6474,431.0625 239.6474,429.264"/><path id="Fill-113" fill="#253368" d="M235.98605,426.9276 L235.98305,417.9681 C235.98155,416.7981 234.88205,415.8396 233.48855,415.8066 C228.87005,415.6956 219.24305,415.0776 209.93255,416.0391 C208.63505,416.1741 207.65405,417.0921 207.65405,418.1901 L207.65555,427.1376 C207.65555,428.3421 208.81955,429.3141 210.25505,429.3006 C215.53355,429.2451 226.92305,429.1236 233.43155,429.0921 C234.85055,429.0846 235.98605,428.1171 235.98605,426.9276"/><polygon id="Fill-115" fill="#E1E7F3" points="207.118 414.832 237.088 428.208 235.85 430.932 205.631 417.309"/><polygon id="Fill-117" fill="#E1E7F3" points="205.83 427.779 235.869 414.559 237.056 417.307 206.667 430.543"/><path id="Stroke-119" fill="#253368" fill-rule="nonzero" d="M242.38745,527.8062 C242.853854,527.8062 243.23195,528.184296 243.23195,528.6507 C243.23195,529.081227 242.909786,529.436509 242.493382,529.48862 L242.38745,529.4952 L211.80695,529.4952 C211.340546,529.4952 210.96245,529.117104 210.96245,528.6507 C210.96245,528.220173 211.284614,527.864891 211.701018,527.81278 L211.80695,527.8062 L242.38745,527.8062 Z"/><path id="Fill-121" fill="#FFC2BD" d="M145.16945,507.4236 C137.30345,481.7586 113.33195,428.2296 108.66995,391.7061 C108.66995,391.7061 104.45195,356.5776 138.07745,353.1726 C170.86295,349.8516 174.45995,390.2976 174.45995,390.2976 C177.76445,434.0961 178.95695,481.2621 181.64195,505.6251 C181.64195,505.6251 182.44295,518.7531 166.69445,523.3296 C148.00595,528.7596 145.16945,507.4236 145.16945,507.4236"/><path id="Fill-123" fill="#FFC2BD" d="M188.30975,295.8738 C189.16175,284.9928 188.31575,256.2243 159.08975,251.6913 C135.71675,248.0673 123.98675,265.4883 119.14775,279.9453 C110.78675,304.9233 110.16275,345.8703 109.83425,375.9933 C109.83425,375.9933 108.28175,410.1843 141.20525,411.5733 C169.06775,412.7493 172.60475,384.5943 172.60475,384.5943 C172.60475,384.5943 187.33625,308.3103 188.30975,295.8738"/><path id="Fill-125" fill="#597EF7" d="M181.20605,341.6421 C183.33905,330.4986 189.22505,299.7501 189.53105,295.8321 C190.38305,284.9511 190.63805,255.2556 158.81105,251.6496 C135.30905,248.9871 123.70655,265.4466 118.86755,279.9036 C115.53305,289.8711 112.20455,321.7026 110.88005,333.5511 L181.20605,341.6421 Z"/><path id="Stroke-127" fill="#1D39C4" fill-rule="nonzero" d="M188.201609,294.423714 C188.518337,294.448572 188.754944,294.725482 188.730086,295.042209 L188.685002,295.544789 C188.081094,301.701998 183.726657,331.353197 181.896596,340.915332 C181.846289,341.178188 181.623382,341.367037 181.364396,341.381589 L181.265851,341.37868 L110.939851,333.28768 C110.624231,333.251368 110.397808,332.966071 110.43412,332.650451 C110.466801,332.366393 110.701159,332.154584 110.977791,332.141535 L111.071349,332.14472 L180.865,340.174 L181.062025,339.103921 C183.042063,328.115085 187.057164,300.646975 187.556214,295.263822 L187.583114,294.952191 C187.607972,294.635463 187.884882,294.398856 188.201609,294.423714 Z"/><path id="Fill-129" fill="#597EF7" d="M231.56,609.50055 L126.7445,609.50055 C123.9665,609.50055 121.715,607.24905 121.715,604.47105 L121.715,530.90805 C121.715,528.13005 123.9665,525.87705 126.7445,525.87705 L231.56,525.87705 C234.338,525.87705 236.591,528.13005 236.591,530.90805 L236.591,604.47105 C236.591,607.24905 234.338,609.50055 231.56,609.50055"/><path id="Fill-131" fill="#253368" d="M227.9924,609.50055 L123.1769,609.50055 C120.3989,609.50055 118.1459,607.24905 118.1459,604.47105 L118.1459,530.90805 C118.1459,528.13005 120.3989,525.87705 123.1769,525.87705 L227.9924,525.87705 C230.7704,525.87705 233.0219,528.13005 233.0219,530.90805 L233.0219,604.47105 C233.0219,607.24905 230.7704,609.50055 227.9924,609.50055"/><path id="Fill-133" fill="#FFC2BD" d="M200.21015,525.6939 C191.64665,525.6939 187.03115,525.9009 182.47115,525.2724 C173.23265,523.9974 176.24165,556.1769 174.44765,561.1704 C171.71765,568.7709 153.85565,565.8114 146.48615,538.5204 C144.39065,530.7579 144.24215,517.9239 144.01715,506.7369 C144.01715,506.7369 145.93115,483.4809 159.37865,486.2454 C171.48515,488.7324 176.10515,490.4649 176.10515,490.4649 C176.10515,490.4649 185.44115,498.8979 190.86215,511.1109 L200.21015,525.6939 Z"/><path id="Stroke-135" fill="#965C56" fill-rule="nonzero" d="M167.401975,533.88509 C167.709078,533.931965 167.920035,534.218921 167.87316,534.526025 L167.798608,535.066139 L167.756347,535.400527 C167.667844,536.117588 167.579254,536.945248 167.496518,537.87217 C166.836959,545.261423 166.942509,553.400016 168.340432,561.270784 C168.394758,561.576657 168.190839,561.868656 167.884966,561.922982 C167.579093,561.977308 167.287094,561.773389 167.232768,561.467516 C165.815068,553.4854 165.708293,545.252385 166.375973,537.772151 L166.461656,536.865945 C166.505284,536.429857 166.549928,536.019604 166.594842,535.636595 L166.702551,534.77224 C166.727117,534.587724 166.746984,534.448367 166.76104,534.356275 C166.803228,534.079882 167.039881,533.881368 167.310668,533.878601 L167.401975,533.88509 Z"/><path id="Stroke-137" fill="#965C56" fill-rule="nonzero" d="M158.37252,531.562867 C158.677344,531.622801 158.875866,531.918496 158.815933,532.22332 C157.143756,540.72804 157.645679,548.391403 159.493921,554.905476 C159.860645,556.197984 160.25302,557.333678 160.644576,558.302529 C160.746798,558.555462 160.843321,558.782831 160.932748,558.984107 L161.138928,559.428148 C161.145365,559.441127 161.150893,559.452097 161.155485,559.46105 C161.297285,559.73746 161.188161,560.076486 160.91175,560.218285 C160.63534,560.360085 160.296314,560.250961 160.154515,559.97455 L159.997672,559.646733 L159.808219,559.220217 C159.742057,559.066388 159.673025,558.900953 159.601537,558.724067 C159.195177,557.718586 158.789638,556.544789 158.411641,555.212552 C156.517269,548.535894 156.003717,540.694979 157.712067,532.00628 C157.766008,531.731939 158.010914,531.543701 158.281573,531.552489 L158.37252,531.562867 Z"/><path id="Stroke-139" fill="#965C56" fill-rule="nonzero" d="M150.172218,526.779569 C150.48157,526.808049 150.709262,527.081916 150.680781,527.391268 L150.645376,527.884532 C150.637184,528.020807 150.628555,528.179461 150.6199,528.360145 C150.377951,533.411458 150.727606,540.377363 152.142478,548.856114 C152.193612,549.162537 151.986659,549.452394 151.680236,549.503528 C151.373813,549.554662 151.083956,549.347709 151.032822,549.041286 C149.646223,540.731961 149.272284,533.850373 149.476082,528.763783 L149.522711,527.812074 C149.537029,527.574645 149.55027,527.399459 149.560519,527.288132 C149.586151,527.009715 149.810547,526.797443 150.080687,526.778535 L150.172218,526.779569 Z"/><path id="Stroke-141" fill="#965C56" fill-rule="nonzero" d="M265.121066,191.239691 C265.309633,191.037955 265.611832,191.006051 265.836055,191.150443 L265.916109,191.212866 L345.078609,265.207866 C345.305561,265.420004 345.317571,265.775957 345.105434,266.002909 C344.916867,266.204645 344.614668,266.236549 344.390445,266.092157 L344.310391,266.029734 L265.147891,192.034734 C264.920939,191.822596 264.908929,191.466643 265.121066,191.239691 Z"/></g></svg>