<svg xmlns="http://www.w3.org/2000/svg" xmlns:xlink="http://www.w3.org/1999/xlink" width="512" height="1024" version="1.1" viewBox="0 0 512 1024"><title>2.人物组件/2.保安/站立/自信</title><desc>Created with Sketch.</desc><defs><polygon id="path-1" points=".001 1.23 75.113 1.23 75.113 66 .001 66"/><polygon id="path-3" points=".498 .928 57.935 .928 57.935 66 .498 66"/><polygon id="path-5" points=".597 .057 69.223 .057 69.223 67.512 .597 67.512"/></defs><g id="2.人物组件/2.保安/站立/自信" fill="none" fill-rule="evenodd" stroke="none" stroke-width="1"><path id="Fill-1" fill="#FFC2BD" d="M329.49295,471.2985 C367.21495,458.619 392.72395,439.5015 397.01095,424.068 C401.76595,406.95 398.59645,380.6415 363.41095,385.395 C347.26495,387.5775 328.39345,408.654 316.39345,425.019 C305.93245,439.2825 296.89795,452.121 296.89795,452.121 C296.89795,452.121 292.08895,461.1555 294.94195,466.227 C297.79495,471.2985 293.99095,475.578 301.91545,485.4045 C305.02345,489.2595 300.01345,491.268 309.83995,494.121 C314.94295,495.603 326.79895,486.831 329.49295,471.2985"/><path id="Fill-3" fill="#597EF7" d="M193.35685,422.4189 C193.35685,422.4189 135.84085,306.3864 141.34135,295.3839 C146.84335,284.3799 187.44985,259.6404 248.82835,263.8659 C310.47385,268.1094 332.02885,293.1519 332.02885,293.1519 C332.02885,293.1519 316.17985,366.6939 302.88685,414.4164 C309.88885,426.9189 297.16135,435.7959 297.16135,435.7959 C297.16135,435.7959 217.26535,432.1014 198.26035,433.1019 C189.38485,429.2979 193.35685,422.4189 193.35685,422.4189"/><path id="Fill-5" fill="#4E5C93" d="M310.47415,519.4809 L242.17315,551.0559 L172.10965,523.4439 C172.10965,523.4439 180.66715,470.1894 196.59715,445.4649 C199.13215,438.4899 200.16265,433.2609 200.16265,433.2609 C200.16265,433.2609 262.92565,423.7509 297.16165,435.7959 L298.42915,447.2079 C298.42915,447.2079 303.85615,460.1139 306.67015,471.9324 C311.42515,491.9034 310.47415,519.4809 310.47415,519.4809"/><path id="Fill-7" fill="#4E5C93" d="M174.13015,514.92015 C174.13015,514.92015 223.19815,441.66015 246.97315,535.80615 C189.22615,737.88465 179.72065,769.77765 179.72065,769.77765 C179.72065,769.77765 180.14665,786.89415 168.73615,793.55115 L128.79565,793.55115 C128.79565,793.55115 113.57965,784.04265 133.55065,762.16965 C167.78515,549.15465 174.13015,514.92015 174.13015,514.92015"/><path id="Fill-9" fill="#4E5C93" d="M310.47415,516.31095 C310.47415,516.31095 277.35865,506.36145 242.17315,551.05695 C239.15215,759.75645 236.15515,764.38245 236.15515,764.38245 C236.15515,764.38245 227.38315,782.87745 239.74615,792.38745 L280.94815,792.38745 C280.94815,792.38745 291.62215,780.23745 286.86715,766.92495 C308.74015,583.38945 310.47415,516.31095 310.47415,516.31095"/><g id="分组" transform="translate(95.500000, 790.443000)"><mask id="mask-2" fill="#fff"><use xlink:href="#path-1"/></mask><path id="Fill-11" fill="#253368" d="M2.4846,66.0003 L55.6731,66.0003 L75.1131,1.2303 L33.5541,1.2303 L26.4216,44.4393 L1.1016,61.4628 C-0.9309,62.8278 0.0366,66.0003 2.4846,66.0003" mask="url(#mask-2)"/></g><g id="分组" transform="translate(236.500000, 790.443000)"><mask id="mask-4" fill="#fff"><use xlink:href="#path-3"/></mask><path id="Fill-13" fill="#253368" d="M3.43455,0.9276 L42.76005,1.1151 L36.42105,41.9091 L56.84205,60.2826 C59.07705,62.2941 57.65355,66.0006 54.64905,66.0006 L0.49755,66.0006 L3.43455,0.9276 Z" mask="url(#mask-4)"/></g><polygon id="Fill-15" fill="#FFC2BD" points="205.868 255.114 209.033 199.904 261.335 199.904 261.286 259.551 246.284 288.081"/><path id="Fill-17" fill="#FFC2BD" d="M226.04635,169.1562 C226.04635,169.1562 255.20935,161.5482 263.13385,175.1787 C270.84085,188.4357 271.37485,236.3577 256.16035,243.6477 C243.75835,249.5907 218.43835,246.8172 212.41585,223.6782 C212.41585,223.6782 207.34435,205.9257 209.24635,190.0767 C211.14685,174.2277 226.04635,169.1562 226.04635,169.1562"/><path id="Fill-19" fill="#FFC2BD" d="M212.416,209.73015 C212.416,209.73015 204.4915,194.51415 198.469,202.75665 C192.4465,210.99765 202.5895,226.21365 211.465,225.57915 C220.3405,224.94615 212.416,209.73015 212.416,209.73015"/><g id="分组" transform="translate(200.500000, 145.443000)"><mask id="mask-6" fill="#fff"><use xlink:href="#path-5"/></mask><path id="Fill-21" fill="#253368" d="M67.70535,57.3138 C67.70535,57.3138 71.50935,38.9283 67.07235,27.5163 C62.63385,16.1043 56.92785,4.6938 52.80735,10.7163 C52.17285,7.8633 48.36885,2.1573 45.51735,0.2553 C42.66285,-1.6467 33.78735,10.7163 33.78735,10.7163 C33.78735,10.7163 34.42185,5.0103 30.93435,8.4978 C27.44835,11.9838 6.20985,22.7613 2.72385,28.4673 C-0.76365,34.1733 1.08885,55.1493 1.08885,55.1493 C1.08885,55.1493 7.90485,54.5148 11.54985,67.5123 C10.59885,57.0513 14.95335,51.5838 17.18835,49.5033 C18.03585,48.7143 18.52185,47.6178 18.61035,46.4643 C18.77835,44.2488 19.02735,40.5288 19.12035,36.8943 C19.16235,35.2923 20.33235,33.9678 21.91185,33.6948 C37.98285,30.9108 55.64985,33.4143 61.94235,34.4988 C63.36435,34.7433 64.45485,35.8863 64.64385,37.3173 L66.22935,49.2063 C66.22935,49.2063 67.07235,51.2898 67.70535,57.3138" mask="url(#mask-6)"/></g><path id="Stroke-23" fill="#253368" fill-rule="nonzero" d="M229.021687,198.522661 C229.154682,198.48731 229.292246,198.473944 229.428967,198.482798 L229.565207,198.499068 L239.846207,200.296068 C240.535365,200.416525 240.996389,201.072848 240.875932,201.762007 C240.763004,202.408093 240.179099,202.85367 239.538703,202.80759 L239.409993,202.791732 L229.404,201.042 L224.311513,202.396139 C223.677643,202.564628 223.028238,202.22147 222.801453,201.620805 L222.761861,201.497313 C222.593372,200.863443 222.93653,200.214038 223.537195,199.987253 L223.660687,199.947661 L229.021687,198.522661 Z"/><path id="Stroke-25" fill="#253368" fill-rule="nonzero" d="M260.272173,197.411698 C260.447008,197.365261 260.629238,197.356941 260.806631,197.386657 L260.938578,197.416074 L264.901578,198.524574 C265.575325,198.713029 265.968731,199.411982 265.780276,200.085728 C265.603599,200.717366 264.978243,201.10261 264.345614,200.993016 L264.219122,200.964426 L260.589,199.948 L250.779527,202.554302 C250.145624,202.722668 249.496285,202.379385 249.269616,201.778676 L249.230048,201.655177 C249.061682,201.021274 249.404965,200.371935 250.005674,200.145266 L250.129173,200.105698 L260.272173,197.411698 Z"/><path id="Fill-27" fill="#EFADAB" d="M212.89135,215.832 C212.89135,215.832 221.08285,222.2265 225.36235,228.8835 C231.30685,221.514 237.56785,218.343 237.56785,218.343 C237.56785,218.343 244.74835,223.677 248.55235,222.0135 C249.74035,220.587 249.61285,219.1365 249.61285,219.1365 C249.61285,219.1365 256.03135,221.514 260.54785,228.171 C262.45135,223.416 267.80935,217.2585 267.80935,217.2585 C267.80935,217.2585 268.94935,248.2995 246.12535,248.7735 C223.06435,248.7735 215.37835,236.016 212.76385,225.3165 C212.15935,221.964 211.22785,213.4545 212.89135,215.832"/><path id="Stroke-29" fill="#D18682" fill-rule="nonzero" d="M232.186147,223.994761 C232.391232,223.474093 232.979571,223.218262 233.500239,223.423347 L233.855623,223.555532 C234.01127,223.611258 234.203237,223.677924 234.428923,223.753353 C235.188355,224.007172 236.04155,224.261507 236.967508,224.499024 C240.100839,225.302754 243.261844,225.718592 246.18449,225.542272 C247.608912,225.456339 248.936939,225.229152 250.151619,224.84949 C250.685739,224.682545 251.254064,224.980199 251.42101,225.514319 C251.587955,226.048439 251.290301,226.616764 250.756181,226.78371 C249.376221,227.215033 247.887435,227.469721 246.306524,227.565095 C243.144917,227.75583 239.784839,227.313804 236.463992,226.461975 C235.489244,226.211942 234.590077,225.943903 233.786551,225.675347 L233.204812,225.474555 L232.757561,225.308853 C232.236893,225.103768 231.981062,224.515429 232.186147,223.994761 Z"/><path id="Stroke-31" fill="#D18682" fill-rule="nonzero" d="M247.827086,201.37492 C248.205228,201.409237 248.492237,201.718597 248.50861,202.087663 L248.50623,202.189636 L248.199,205.562 L248.409518,206.564252 L248.465439,206.840735 C248.682306,207.919698 248.899138,209.074592 249.10159,210.259488 C249.310292,211.480967 249.49184,212.666282 249.638384,213.790667 L249.737932,214.585611 C250.265634,218.991111 250.16614,221.707958 249.013284,222.605342 C247.896247,223.474235 245.963707,223.172006 243.294362,222.112997 C242.627591,221.848469 241.929691,221.539692 241.21093,221.195469 C240.358786,220.787367 239.520908,220.350824 238.732058,219.914239 L237.814347,219.392218 C237.767707,219.364811 237.731361,219.343233 237.70586,219.327929 C237.350697,219.11478 237.235572,218.654073 237.448721,218.29891 C237.66187,217.943747 238.122577,217.828622 238.47774,218.041771 L238.73639,218.193477 C238.948768,218.316486 239.190942,218.453803 239.458405,218.601829 C240.223056,219.025021 241.035388,219.448254 241.85883,219.84261 C242.548185,220.172751 243.215064,220.467803 243.847516,220.718715 C246.003434,221.574033 247.579224,221.82047 248.092115,221.421515 C248.630442,221.00248 248.682303,218.245678 248.195332,214.332755 L248.150964,213.984527 C248.007165,212.881209 247.828566,211.715144 247.623017,210.512118 C247.463152,209.576473 247.2941,208.659231 247.12323,207.784253 L246.83615,206.361259 L246.710384,205.770801 C246.69933,205.720658 246.69347,205.66958 246.692854,205.618372 L246.69587,205.541564 L247.01237,202.054064 C247.046687,201.675922 247.356047,201.388913 247.725113,201.37254 L247.827086,201.37492 Z"/><path id="Stroke-33" fill="#D18682" fill-rule="nonzero" d="M246.993719,231.69915 C247.407927,231.697181 247.745313,232.03136 247.7473,232.445569 C247.749105,232.82526 247.468452,233.140399 247.102618,233.191809 L247.000881,233.19915 L241.660881,233.22465 C241.246673,233.226619 240.909287,232.89244 240.9073,232.478231 C240.905495,232.09854 241.186148,231.783401 241.551982,231.731991 L241.653719,231.724659 L246.993719,231.69915 Z"/><path id="Fill-35" fill="#253368" d="M232.38625,209.8884 C232.38625,211.7274 231.32125,213.2169 230.00875,213.2169 C228.69625,213.2169 227.63125,211.7274 227.63125,209.8884 C227.63125,208.0509 228.69625,206.5599 230.00875,206.5599 C231.32125,206.5599 232.38625,208.0509 232.38625,209.8884"/><path id="Fill-37" fill="#253368" d="M257.34865,209.8884 C257.34865,211.7274 256.28515,213.2169 254.97115,213.2169 C253.65865,213.2169 252.59365,211.7274 252.59365,209.8884 C252.59365,208.0509 253.65865,206.5599 254.97115,206.5599 C256.28515,206.5599 257.34865,208.0509 257.34865,209.8884"/><path id="Stroke-39" fill="#D18682" fill-rule="nonzero" d="M233.867216,221.300073 C234.160163,221.007233 234.635037,221.00732 234.927877,221.300266 C235.194095,221.566581 235.218225,221.98325 235.000317,222.276821 L234.927684,222.360927 L230.805684,226.481427 C230.512737,226.774267 230.037863,226.77418 229.745023,226.481234 C229.478805,226.214919 229.454675,225.79825 229.672583,225.504679 L229.745216,225.420573 L233.867216,221.300073 Z"/><path id="Stroke-41" fill="#D18682" fill-rule="nonzero" d="M212.849336,225.65354 C213.188831,225.570109 213.53168,225.777691 213.61511,226.117186 L213.712572,226.473934 C213.746511,226.590649 213.787773,226.727491 213.836679,226.883293 L213.888144,227.045371 C214.130499,227.800235 214.440184,228.643141 214.823214,229.551939 C215.9188,232.151388 217.380108,234.751374 219.253857,237.175659 C226.121819,246.061533 236.477584,250.283528 251.150563,247.282588 C251.49307,247.212538 251.827513,247.433407 251.897562,247.775913 C251.967612,248.11842 251.746743,248.452863 251.404237,248.522912 C236.242197,251.623876 225.406477,247.206206 218.252178,237.949865 C216.306719,235.432801 214.792393,232.738484 213.656597,230.043631 C213.258643,229.099423 212.936159,228.221681 212.682746,227.432373 L212.506922,226.859927 L212.38569,226.419314 C212.302259,226.079819 212.509841,225.73697 212.849336,225.65354 Z"/><path id="Stroke-43" fill="#D18682" fill-rule="nonzero" d="M244.713534,239.886546 C245.070119,239.675785 245.530044,239.793999 245.740804,240.150584 C245.890744,240.404267 246.103316,240.833424 246.313643,241.395593 C246.839008,242.799805 247.045239,244.251018 246.733293,245.640902 C246.40882,247.086597 245.53931,248.321445 244.069097,249.249847 C243.718868,249.471008 243.255664,249.366377 243.034503,249.016147 C242.813342,248.665918 242.917973,248.202714 243.268203,247.981553 C244.401134,247.266136 245.032429,246.369593 245.269703,245.312412 C245.507906,244.251096 245.340985,243.076503 244.90875,241.921212 C244.732042,241.448901 244.557579,241.096682 244.449496,240.913816 C244.238735,240.557231 244.356949,240.097306 244.713534,239.886546 Z"/><path id="Stroke-45" fill="#D18682" fill-rule="nonzero" d="M200.198364,207.475155 C200.495093,205.984705 201.664689,205.296112 203.558911,206.024376 C206.553481,207.175128 206.862152,209.372262 205.847991,213.42411 C205.290836,215.655275 206.061637,216.912772 208.132992,217.327042 C208.475799,217.395604 208.698119,217.729084 208.629558,218.071892 C208.560996,218.414699 208.227516,218.637019 207.884708,218.568458 C205.096393,218.010794 203.889448,216.041768 204.619793,213.117054 C205.493896,209.624773 205.271054,208.038575 203.104693,207.206087 C201.959671,206.765865 201.586704,206.985447 201.439997,207.722347 C201.39781,207.934248 201.384865,208.165601 201.392868,208.390803 L201.413202,208.667249 L201.421612,208.731961 C201.477829,209.077008 201.243685,209.402296 200.898639,209.458512 C200.553592,209.514729 200.228304,209.280585 200.172088,208.935539 L200.14739,208.734517 C200.10846,208.330787 200.114286,207.897475 200.198364,207.475155 Z"/><path id="Fill-47" fill="#D18682" d="M236.8936,231.2604 C236.8396,231.5844 236.5336,231.8034 236.2096,231.7494 C235.8856,231.6969 235.6666,231.3894 235.7206,231.0669 C235.7746,230.7429 236.0806,230.5239 236.4046,230.5764 C236.7286,230.6304 236.9476,230.9364 236.8936,231.2604"/><path id="Fill-49" fill="#D18682" d="M227.9704,233.49735 C227.9164,233.82135 227.6104,234.04035 227.2864,233.98635 C226.9624,233.93385 226.7434,233.62635 226.7974,233.30385 C226.8514,232.97985 227.1574,232.76085 227.4814,232.81335 C227.8054,232.86735 228.0244,233.17335 227.9704,233.49735"/><path id="Fill-51" fill="#D18682" d="M256.71655,235.44045 C256.83055,235.74795 256.67455,236.08995 256.36705,236.20545 C256.05955,236.31945 255.71605,236.16195 255.60205,235.85445 C255.48805,235.54695 255.64405,235.20495 255.95155,235.09095 C256.25905,234.97545 256.60255,235.13295 256.71655,235.44045"/><path id="Fill-53" fill="#D18682" d="M262.2946,232.59855 C262.4086,232.90605 262.2526,233.24805 261.9451,233.36355 C261.6376,233.47755 261.2941,233.32005 261.1801,233.01255 C261.0661,232.70505 261.2221,232.36305 261.5296,232.24905 C261.8371,232.13355 262.1791,232.29105 262.2946,232.59855"/><path id="Fill-55" fill="#D18682" d="M251.8753,237.1719 C251.9893,237.4794 251.8333,237.8214 251.5258,237.9354 C251.2183,238.0494 250.8748,237.8934 250.7608,237.5859 C250.6468,237.2784 250.8043,236.9364 251.1118,236.8224 C251.4193,236.7069 251.7613,236.8644 251.8753,237.1719"/><path id="Fill-57" fill="#D18682" d="M244.93915,235.8081 C245.05315,236.1156 244.89715,236.4576 244.58965,236.5731 C244.28215,236.6871 243.93865,236.5296 243.82465,236.2221 C243.71065,235.9146 243.86815,235.5726 244.17565,235.4586 C244.48315,235.3431 244.82515,235.5006 244.93915,235.8081"/><path id="Fill-59" fill="#D18682" d="M221.0461,231.05325 C221.1616,231.36075 221.0041,231.70425 220.6966,231.81825 C220.3891,231.93225 220.0471,231.77475 219.9316,231.46725 C219.8176,231.15975 219.9751,230.81775 220.2826,230.70375 C220.5901,230.58825 220.9321,230.74575 221.0461,231.05325"/><path id="Fill-61" fill="#D18682" d="M232.40965,239.6028 C232.35565,239.9268 232.04965,240.1458 231.72565,240.0918 C231.40165,240.0378 231.18265,239.7318 231.23665,239.4078 C231.29065,239.0838 231.59665,238.8648 231.92065,238.9188 C232.24465,238.9728 232.46365,239.2788 232.40965,239.6028"/><path id="Fill-63" fill="#D18682" d="M237.02095,238.6806 C236.96695,239.0046 236.66095,239.2236 236.33695,239.1696 C236.01295,239.1156 235.79395,238.8096 235.84795,238.4856 C235.90195,238.1616 236.20795,237.9426 236.53195,237.9966 C236.85595,238.0506 237.07495,238.3566 237.02095,238.6806"/><path id="Fill-65" fill="#D18682" d="M255.64495,240.28095 C255.59095,240.60495 255.28495,240.82395 254.96095,240.76995 C254.63845,240.71745 254.41945,240.40995 254.47195,240.08745 C254.52595,239.76345 254.83195,239.54445 255.15595,239.59695 C255.47995,239.65095 255.69895,239.95695 255.64495,240.28095"/><path id="Fill-67" fill="#D18682" d="M252.69475,233.2599 C252.64075,233.5839 252.33475,233.8029 252.01075,233.7489 C251.68825,233.6949 251.46925,233.3889 251.52175,233.0649 C251.57575,232.7409 251.88175,232.5219 252.20575,232.5759 C252.52975,232.6299 252.74875,232.9359 252.69475,233.2599"/><path id="Fill-69" fill="#D18682" d="M254.83495,227.3163 C254.78095,227.6403 254.47495,227.8593 254.15095,227.8053 C253.82695,227.7513 253.60795,227.4453 253.66195,227.1213 C253.71595,226.7973 254.02195,226.5783 254.34595,226.6323 C254.66995,226.6863 254.88895,226.9923 254.83495,227.3163"/><path id="Fill-71" fill="#D18682" d="M227.38525,237.20265 C227.33125,237.52665 227.02525,237.74565 226.70125,237.69165 C226.37875,237.63765 226.15975,237.33165 226.21225,237.00765 C226.26625,236.68365 226.57225,236.46465 226.89625,236.51865 C227.22025,236.57265 227.43925,236.87865 227.38525,237.20265"/><path id="Fill-73" fill="#597EF7" d="M266.7295,267.79365 L264.352,258.12465 L253.678,259.07565 L247.285,283.63815 L233.1295,256.59465 L201.541,253.37115 L197.0965,268.58565 C197.0965,268.58565 217.672,296.54265 251.0395,291.40965 C267.5215,288.87315 266.7295,267.79365 266.7295,267.79365"/><path id="Fill-75" fill="#FFC2BD" d="M306.66985,279.20475 C306.66985,279.20475 326.95735,329.92275 307.93735,375.88575 C323.15335,403.14675 339.00235,423.11625 348.51235,431.99175 C358.02235,440.86725 394.50085,438.85875 397.32835,409.16925 C399.86335,382.54275 353.40535,319.20075 346.61035,307.73325 C336.46735,290.61675 313.64335,279.20475 306.66985,279.20475"/><path id="Fill-77" fill="#597EF7" d="M372.28615,347.991 C359.75815,326.4 349.35565,312.2775 345.81715,306.3075 C335.67415,289.1895 312.85165,277.779 305.87815,277.779 C305.87815,277.779 326.16415,328.4955 307.14565,374.46 C313.59865,386.0205 312.88315,384.9885 319.03315,393.6375 C319.03315,393.6375 323.78665,383.1765 341.85565,367.9605 C360.64465,352.1385 372.28615,347.991 372.28615,347.991"/><path id="Stroke-79" fill="#1D39C4" fill-rule="nonzero" d="M319.853164,317.950691 C320.162559,317.878515 320.471883,318.070819 320.544059,318.380214 L320.60074,318.642348 C320.644385,318.852953 320.692846,319.102865 320.744904,319.391454 C320.892962,320.212249 321.040759,321.180216 321.178529,322.290332 C322.003767,328.939893 322.106656,337.147143 321.024064,346.673387 C319.527123,359.845676 315.918644,373.858873 309.736142,388.473028 C309.612359,388.765624 309.274818,388.902474 308.982222,388.778692 C308.689626,388.654909 308.552776,388.317368 308.676558,388.024772 C314.81537,373.513894 318.396236,359.607928 319.880922,346.543477 C320.952914,337.110502 320.851164,328.994066 320.036788,322.432027 C319.920948,321.498621 319.798153,320.669433 319.674529,319.947629 L319.552043,319.267714 C319.495411,318.969318 319.451242,318.759901 319.423641,318.641586 C319.351465,318.332191 319.543769,318.022867 319.853164,317.950691 Z"/><path id="Fill-81" fill="#253368" d="M298.58695,447.366 C250.32595,441.1845 196.35895,444.726 196.35895,444.726 L198.26095,431.1765 C198.26095,431.1765 259.59745,423.33 297.47695,433.473 C298.34845,439.9725 298.58695,447.366 298.58695,447.366"/><path id="Stroke-83" fill="#D18682" fill-rule="nonzero" d="M344.117323,389.054378 C344.372325,388.727963 344.843657,388.670071 345.170072,388.925073 C345.466813,389.156893 345.541634,389.567498 345.361199,389.885478 L345.299377,389.977822 L329.450377,410.265322 C329.195375,410.591737 328.724043,410.649629 328.397628,410.394627 C328.100887,410.162807 328.026066,409.752202 328.206501,409.434222 L328.268323,409.341878 L344.117323,389.054378 Z"/><path id="Stroke-85" fill="#253368" fill-rule="nonzero" d="M252.178093,445.094943 C252.608355,445.111083 252.95211,445.445519 252.989572,445.863496 L252.98805,446.091457 L252.791282,450.95587 L252.574394,455.724001 C252.464368,458.036889 252.34191,460.468436 252.206626,463.000983 L252.147861,464.092493 C251.453874,476.883072 250.575591,489.673963 249.49602,501.711464 L249.291238,503.959482 C247.513009,523.178144 245.370283,538.567583 242.824733,548.749281 C242.711608,549.201758 242.253097,549.476858 241.800619,549.363733 C241.348142,549.250608 241.073042,548.792097 241.186167,548.339619 L241.436816,547.314501 C243.847328,537.237105 245.897603,522.304783 247.609422,503.80387 C248.712147,491.885895 249.613209,479.164493 250.329248,466.395538 L250.461342,464.000986 C250.699233,459.616518 250.899309,455.521208 251.06355,451.804108 L251.205294,448.471571 L251.30447,445.910307 C251.320842,445.444189 251.711976,445.079599 252.178093,445.094943 Z"/><path id="Stroke-87" fill="#253368" fill-rule="nonzero" d="M270.541962,445.729489 C271.008344,445.734281 271.3827,446.11608 271.378311,446.582462 L271.33651,449.558859 C271.297854,451.924435 271.244245,454.560165 271.173271,457.398572 C270.986074,464.885064 270.715046,472.371796 270.344952,479.434741 L270.250356,481.191403 C269.122023,501.58483 267.449594,514.011985 264.711635,516.141749 C263.699637,516.928888 262.479302,517.781143 261.074677,518.689938 C260.022661,519.370594 258.876055,520.077244 257.649388,520.80413 C255.790051,521.905917 253.821683,523.010903 251.835318,524.082212 L250.642067,524.720661 C249.97362,525.075511 249.343295,525.405408 248.761209,525.706237 L247.454322,526.373494 C247.037157,526.582076 246.529889,526.412987 246.321306,525.995822 C246.112724,525.578657 246.281813,525.071389 246.698978,524.862806 L247.098309,524.661019 L248.427324,523.976778 C248.877386,523.74259 249.353082,523.492693 249.850122,523.228836 C252.216382,521.972691 254.582339,520.658303 256.788357,519.351083 L257.969517,518.642143 C258.738302,518.174491 259.469027,517.717105 260.157183,517.271867 C261.52371,516.387721 262.705372,515.562474 263.674641,514.80857 C265.775966,513.174022 267.496636,500.388408 268.563936,481.098096 C268.949675,474.126262 269.235459,466.693032 269.436339,459.224087 L269.529488,455.498198 C269.557604,454.280412 269.582401,453.105581 269.60409,451.979637 L269.671049,448.005256 L269.689191,446.565838 C269.693781,446.099456 270.07558,445.7251 270.541962,445.729489 Z"/><path id="Fill-89" fill="#E1E7F3" d="M239.7859,443.00655 L239.7859,429.47055 C239.7859,427.70205 241.1344,426.25455 242.8414,426.20355 C248.5024,426.03405 261.0829,425.88255 272.4949,427.33005 C274.0864,427.53255 275.2879,428.92005 275.2879,430.57905 L275.2879,443.30505 C275.2879,445.12605 273.8614,446.59605 272.1019,446.57355 C265.6324,446.49405 250.8964,446.31855 242.9164,446.27355 C241.1794,446.26455 239.7859,444.80355 239.7859,443.00655"/><path id="Fill-91" fill="#253368" d="M243.44725,440.67015 L243.45175,431.71065 C243.45175,430.54065 244.55275,429.58215 245.94625,429.54915 C250.56325,429.43815 260.82775,429.34365 270.13675,430.30365 C271.43575,430.43865 272.41525,431.35815 272.41525,432.45615 L272.41225,440.88015 C272.41225,442.08465 271.24675,443.05665 269.81275,443.04315 C264.53425,442.98765 252.51025,442.86615 246.00175,442.83465 C244.58425,442.82715 243.44725,441.85965 243.44725,440.67015"/><polygon id="Fill-93" fill="#E1E7F3" points="272.316 428.575 242.346 441.95 243.584 444.674 273.803 431.051"/><polygon id="Fill-95" fill="#E1E7F3" points="273.604 441.521 243.564 428.302 242.377 431.05 272.767 444.286"/><path id="Stroke-97" fill="#253368" fill-rule="nonzero" d="M212.69794,445.113305 C213.154483,445.208707 213.447246,445.656147 213.351845,446.11269 L213.191754,446.815549 C213.158134,446.956551 213.121588,447.106737 213.082088,447.26571 C212.857092,448.17125 212.582177,449.179092 212.255501,450.2639 C211.321852,453.364318 210.159292,456.465524 208.751081,459.366185 L208.388343,460.098392 C203.267364,470.226916 196.354377,475.191566 187.50873,471.932373 C187.071087,471.771123 186.847027,471.285624 187.008277,470.84798 C187.169527,470.410337 187.655026,470.186277 188.09267,470.347527 C196.107135,473.30047 202.407237,468.566011 207.231672,458.628543 C208.596819,455.816586 209.728733,452.797129 210.638239,449.776884 C210.903597,448.895698 211.133722,448.067324 211.329544,447.306618 L211.548584,446.424764 L211.698555,445.76721 C211.793957,445.310667 212.241397,445.017904 212.69794,445.113305 Z"/><path id="Stroke-99" fill="#253368" fill-rule="nonzero" d="M254.610351,529.163932 C254.843367,528.805474 255.302312,528.682386 255.678388,528.860159 L255.778668,528.916151 L274.797168,541.279151 C275.188213,541.53335 275.299148,542.056423 275.044949,542.447468 C274.811933,542.805926 274.352988,542.929014 273.976912,542.751241 L273.876632,542.695249 L254.858132,530.332249 C254.467087,530.07805 254.356152,529.554977 254.610351,529.163932 Z"/><path id="Stroke-101" fill="#253368" fill-rule="nonzero" d="M246.303294,526.061148 C246.662917,525.829936 247.131939,525.906091 247.401895,526.222572 L247.470352,526.314794 L256.029352,539.627294 C256.281584,540.01961 256.168023,540.54212 255.775706,540.794352 C255.416083,541.025564 254.947061,540.949409 254.677105,540.632928 L254.608648,540.540706 L246.049648,527.228206 C245.797416,526.83589 245.910977,526.31338 246.303294,526.061148 Z"/><path id="Fill-103" fill="#FFC2BD" d="M126.1924,569.9646 L123.8089,496.2021 C123.7324,493.8381 125.5294,491.8326 127.8874,491.6481 L225.4624,483.1041 C227.9629,482.9091 230.1259,484.8291 230.2279,487.3356 L233.4589,566.5971 C233.5594,569.0616 231.6259,571.1316 229.1614,571.2006 L130.7374,574.2456 C128.3029,574.3116 126.2704,572.3991 126.1924,569.9646"/><path id="Fill-105" fill="#597EF7" d="M121.8799,570.79665 L119.4499,495.59865 C119.3854,493.62765 120.8839,491.95515 122.8489,491.80215 L221.8879,483.14415 C223.9729,482.98215 225.7759,484.58115 225.8614,486.67065 L229.1539,567.44265 C229.2379,569.49615 227.6254,571.22265 225.5704,571.27965 L125.6674,574.36365 C123.6379,574.42065 121.9459,572.82615 121.8799,570.79665"/><path id="Fill-107" fill="#FFC2BD" d="M150.71245,284.27685 C150.71245,284.27685 133.59595,288.08085 125.98795,317.24385 C118.37995,346.40535 121.23295,373.03335 123.13495,409.80435 C125.03695,446.57385 138.35095,510.92235 144.05695,534.37935 C149.76145,557.83635 151.85095,565.66635 157.68595,574.00185 C161.01445,578.75685 166.56145,579.86685 170.36695,578.44035 C175.43695,583.51185 183.52045,580.02585 183.52045,580.02585 C183.52045,580.02585 195.72445,583.19535 198.26095,576.22185 C208.24495,577.64835 203.96695,563.85885 205.23445,558.78735 C206.50195,553.71435 201.27295,543.57135 187.32445,529.62435 C178.44895,513.77535 186.37345,372.39885 190.17745,354.64785 C193.98145,336.89685 193.82245,288.08085 150.71245,284.27685"/><path id="Fill-109" fill="#597EF7" d="M187.8001,377.47095 C187.8001,377.47095 196.9921,320.41245 188.1166,302.66145 C179.2411,284.91045 165.0181,271.43895 142.4716,288.07995 C115.8436,307.73295 121.2331,365.10795 121.2331,365.10795 C121.2331,365.10795 150.7126,371.76495 187.8001,377.47095"/><path id="Stroke-111" fill="#1D39C4" fill-rule="nonzero" d="M164.428024,295.084933 C165.9432,294.99054 167.652533,295.088229 169.636589,295.543107 C172.542296,296.209289 175.390759,297.535274 178.053752,299.675688 C186.025374,306.082977 191.063285,318.590575 191.835692,338.79086 L191.86037,339.482489 L188.37287,379.422989 C188.345234,379.739486 188.066259,379.973655 187.749761,379.94602 C187.464913,379.921147 187.246752,379.69269 187.226114,379.416521 L187.22673,379.322911 L190.71237,339.451621 C190.037795,319.2214 185.101733,306.816656 177.332985,300.572429 C174.810637,298.545061 172.121165,297.293088 169.379488,296.664512 C167.66919,296.272398 166.180795,296.162804 164.856659,296.21504 L164.45471,296.236717 C164.335076,296.245477 164.022098,296.266659 163.959213,296.259275 C163.643679,296.222223 163.417924,295.936397 163.454975,295.620863 C163.492027,295.305329 163.777853,295.079574 164.093387,295.116625 C164.045051,295.11095 164.1988,295.099214 164.428024,295.084933 Z"/><path id="Stroke-113" fill="#D18682" fill-rule="nonzero" d="M197.026705,557.403621 C197.440492,557.422401 197.760709,557.773067 197.741929,558.186855 L197.708811,559.083082 C197.70302,559.263412 197.697327,559.454468 197.691828,559.655506 C197.619644,562.294455 197.616527,565.09925 197.727838,567.722597 L197.766712,568.538626 C197.950811,572.008094 198.338568,574.600571 198.941293,575.907824 C199.114725,576.283981 198.950384,576.729511 198.574226,576.902943 C198.198069,577.076375 197.752539,576.912034 197.579107,576.535876 C196.819557,574.888486 196.402133,571.862166 196.229186,567.786186 C196.132321,565.503296 196.1208,563.092544 196.165493,560.768371 L196.200878,559.316755 L196.243471,558.118845 C196.262251,557.705058 196.612917,557.384841 197.026705,557.403621 Z"/><path id="Stroke-115" fill="#1D39C4" fill-rule="nonzero" d="M199.622038,268.86485 C199.71976,268.596135 199.996881,268.444508 200.268987,268.496024 L200.35925,268.520838 L221.27975,276.128838 C221.578322,276.237418 221.732341,276.567479 221.623762,276.86605 C221.52604,277.134765 221.248919,277.286392 220.976813,277.234876 L220.88655,277.210062 L199.96605,269.602062 C199.667478,269.493482 199.513459,269.163421 199.622038,268.86485 Z"/><path id="Stroke-117" fill="#1D39C4" fill-rule="nonzero" d="M247.124082,283.084941 C247.429197,282.9964 247.748318,283.171968 247.836859,283.477082 L247.946013,283.864432 L248.217546,284.871011 C248.283211,285.120156 248.351345,285.382615 248.421674,285.65788 L248.528778,286.080316 C249.045923,288.13552 249.562932,290.408615 250.045465,292.835934 C251.184438,298.565378 251.953767,304.240987 252.183324,309.55105 C252.336134,313.085817 252.242349,316.359411 251.872207,319.320258 C251.832797,319.635506 251.54529,319.859117 251.230042,319.819707 C250.914794,319.780297 250.691183,319.49279 250.730593,319.177542 C251.092118,316.285627 251.184096,313.075096 251.033897,309.600741 C250.807166,304.356051 250.045422,298.736395 248.917046,293.060256 C248.438456,290.652773 247.925688,288.398328 247.413057,286.361062 L247.105187,285.164793 L246.751153,283.864513 C246.743928,283.83921 246.737517,283.816933 246.731941,283.797718 C246.6434,283.492603 246.818968,283.173482 247.124082,283.084941 Z"/></g></svg>