<svg xmlns="http://www.w3.org/2000/svg" xmlns:xlink="http://www.w3.org/1999/xlink" width="512" height="1024" version="1.1" viewBox="0 0 512 1024"><title>2.人物组件/2.保安/站立/讨论</title><desc>Created with Sketch.</desc><defs><polygon id="path-1" points="0 .974 157.527 .974 157.527 119.616 0 119.616"/><polygon id="path-3" points=".727 1.23 75.839 1.23 75.839 66 .727 66"/><polygon id="path-5" points=".895 1.23 73.007 1.23 73.007 66 .895 66"/><polygon id="path-7" points="1.323 .057 69.949 .057 69.949 67.512 1.323 67.512"/></defs><g id="2.人物组件/2.保安/站立/讨论" fill="none" fill-rule="evenodd" stroke="none" stroke-width="1"><g id="分组" transform="translate(92.500000, 362.943000)"><mask id="mask-2" fill="#fff"><use xlink:href="#path-1"/></mask><path id="Fill-1" fill="#FFC2BD" d="M131.39985,118.671 C106.95435,107.5785 48.49785,84.009 18.03435,63.33 C18.03435,63.33 -13.18065,40.995 6.52335,13.5345 C25.73385,-13.239 56.50485,11.115 56.50485,11.115 C91.52385,37.6275 131.68635,69.9165 151.72635,84.0285 C151.72635,84.0285 162.09735,92.1165 155.10435,106.953 C146.80635,124.5555 131.39985,118.671 131.39985,118.671" mask="url(#mask-2)"/></g><path id="Fill-3" fill="#FFC2BD" d="M190.11685,333.88305 C193.86835,323.63355 200.80585,295.70055 173.88235,283.46055 C152.35135,273.67305 136.35985,287.28855 127.80385,299.90805 C113.02285,321.70755 103.60285,353.44605 95.16985,382.36455 C95.16985,382.36455 84.45985,414.87405 115.79185,425.08305 C142.30735,433.72305 153.29935,407.56305 153.29935,407.56305 C153.29935,407.56305 185.82685,345.59805 190.11685,333.88305"/><path id="Fill-5" fill="#FFC2BD" d="M302.3422,278.1084 C302.3422,278.1084 320.0347,319.9734 303.4477,357.9129 C316.7182,380.4144 330.5407,396.8979 338.8342,404.2254 C347.1277,411.5499 378.9427,409.8924 381.4087,385.3854 C383.6212,363.4074 343.1017,311.1219 337.1767,301.6569 C328.3297,287.5284 308.4247,278.1084 302.3422,278.1084"/><path id="Fill-7" fill="#597EF7" d="M359.5693,334.8864 C348.6418,317.0649 339.5698,305.4069 336.4843,300.4794 C327.6373,286.3509 307.7323,276.9309 301.6513,276.9309 C301.6513,276.9309 319.3453,318.7944 302.7568,356.7339 C308.3848,366.2769 307.7608,365.4264 313.1248,372.5649 C313.1248,372.5649 317.2708,363.9294 333.0298,351.3714 C349.4158,338.3094 359.5693,334.8864 359.5693,334.8864"/><path id="Fill-9" fill="#FFC2BD" d="M380.01265,276.0297 C368.83315,295.4982 355.72315,330.1872 328.91665,368.8887 C328.91665,368.8887 318.94015,399.1302 347.08765,407.4102 C374.53315,415.4847 383.13865,384.1317 383.13865,384.1317 C397.71415,349.3617 406.55515,314.8482 410.55865,290.2332 C410.96965,287.7087 411.57565,285.1872 410.96065,282.6987 C410.11915,279.2907 407.69365,275.0967 401.35915,271.9512 C386.33065,264.4887 380.01265,276.0297 380.01265,276.0297"/><path id="Fill-11" fill="#FFC2BD" d="M381.9769,292.0617 L385.3384,241.4877 C385.3384,241.4877 401.1919,200.9592 409.9024,201.7512 C418.2004,203.4987 403.1674,217.5147 401.9539,228.8187 C409.1254,226.9752 407.9449,237.8292 407.9449,237.8292 C407.9449,237.8292 413.6959,236.5527 413.8699,245.1867 C419.8699,247.1997 418.7344,256.3632 418.7344,256.3632 C418.7344,256.3632 414.3154,276.3492 407.4394,300.0552 C407.4394,300.0552 386.6494,322.0557 381.9769,292.0617"/><path id="Fill-13" fill="#FFC2BD" d="M379.44505,274.95525 C379.44505,274.95525 377.48005,265.19475 378.95455,250.31925 C379.78405,241.93725 373.63255,228.57975 380.70355,231.30525 C385.45705,233.13975 386.53555,242.00925 387.72055,248.47725 C388.90555,254.94525 404.10655,266.58375 398.10805,278.67375 C394.05505,286.83975 381.41005,286.57575 379.44505,274.95525"/><path id="Stroke-15" fill="#D18682" fill-rule="nonzero" d="M402.253287,228.372852 C402.499439,228.538282 402.564878,228.871935 402.399448,229.118087 L402.119131,229.546282 L401.762709,230.106274 C401.637952,230.30482 401.507516,230.51496 401.372216,230.735833 C400.598769,231.998455 399.825261,233.350601 399.103865,234.736749 C398.357778,236.170341 397.710502,237.559297 397.191055,238.871875 C395.122808,244.098082 395.331917,247.298252 398.37021,247.885818 C398.661392,247.942129 398.851792,248.223828 398.795482,248.51501 C398.739171,248.806192 398.457472,248.996592 398.16629,248.940282 C394.161154,248.165741 393.905622,244.255108 396.192413,238.476667 C396.72659,237.126866 397.389099,235.705221 398.151162,234.240932 C398.884995,232.830888 399.67066,231.457491 400.456387,230.174822 L400.776733,229.657081 C400.880116,229.491709 400.97996,229.333689 401.075851,229.183458 L401.508052,228.519013 C401.673482,228.272861 402.007135,228.207422 402.253287,228.372852 Z"/><path id="Stroke-17" fill="#D18682" fill-rule="nonzero" d="M407.687795,237.871831 C407.904743,238.074048 407.916685,238.413847 407.714469,238.630795 L407.385528,238.992571 L406.967065,239.465231 C406.820591,239.632701 406.66745,239.809839 406.508599,239.995898 C405.600733,241.059258 404.692886,242.194079 403.846541,243.351985 C403.044545,244.449215 402.339511,245.51137 401.75853,246.516274 C399.599357,250.25093 399.414244,252.633885 401.56297,253.391121 C403.410552,254.041549 405.428367,252.87535 407.424644,250.450043 C408.005088,249.744853 408.536982,248.986913 409.007619,248.228885 L409.239722,247.846325 C409.312064,247.724167 409.379318,247.607642 409.441299,247.497567 L409.588666,247.228496 C409.725442,246.965342 410.049649,246.862891 410.312804,246.999666 C410.575958,247.136442 410.678409,247.460649 410.541634,247.723804 L410.377136,248.024526 L410.16426,248.392866 C410.088025,248.521611 410.006569,248.656053 409.920059,248.795391 C409.425875,249.591346 408.867241,250.387389 408.25387,251.132582 C406.000045,253.870788 403.611877,255.251033 401.206164,254.40412 C398.132855,253.32105 398.373299,250.225819 400.828739,245.97872 C401.430587,244.937723 402.156301,243.844413 402.979468,242.718218 C403.843155,241.536587 404.767486,240.38116 405.691798,239.298537 L406.158963,238.757808 C406.308309,238.587057 406.450963,238.426043 406.585973,238.275502 L406.928831,237.898505 C407.131048,237.681557 407.470847,237.669615 407.687795,237.871831 Z"/><path id="Stroke-19" fill="#D18682" fill-rule="nonzero" d="M411.880317,245.646786 C412.160554,245.549703 412.466432,245.69818 412.563514,245.978417 C412.660597,246.258654 412.51212,246.564532 412.231883,246.661614 C411.007311,247.085841 409.6732,248.410438 408.267228,250.785208 L407.917722,251.388654 C405.285859,256.03665 405.131233,258.821986 406.598019,259.305857 C408.105095,259.80302 410.758348,258.004376 412.084037,255.165487 C412.365492,254.562768 413.275304,254.908708 413.085205,255.546163 C411.371992,261.291036 408.756524,264.925486 404.621089,268.325974 L404.17802,268.685554 C404.027099,268.806486 403.871915,268.929338 403.709375,269.056648 L401.273182,270.920914 L400.67315,271.391267 C396.296443,274.886554 394.681752,277.706373 394.656095,283.409116 C394.65476,283.70569 394.413258,283.945029 394.116684,283.943711 C393.82011,283.94236 393.580771,283.700858 393.582089,283.404284 C393.609441,277.328592 395.393405,274.23314 400.012603,270.544474 L400.907959,269.84795 L402.265722,268.814843 C402.926943,268.309556 403.441151,267.905748 403.938957,267.496412 C406.953831,265.01734 409.113627,262.430732 410.700001,258.920082 L410.775,258.748 L410.653573,258.859843 C409.268101,260.080831 407.690248,260.695062 406.431218,260.375227 L406.261556,260.325793 C403.78174,259.507738 404.07203,255.764884 407.343013,250.238123 C408.866479,247.664898 410.373243,246.168879 411.880317,245.646786 Z"/><path id="Stroke-21" fill="#D18682" fill-rule="nonzero" d="M386.085365,239.877126 C386.337881,239.801409 386.602459,239.920395 386.717963,240.14729 L386.753974,240.237265 L390.334,252.179 L390.559996,252.42321 C390.807839,252.695592 391.083426,253.011173 391.379839,253.36655 C392.225479,254.38041 393.070747,255.51206 393.860258,256.734718 C396.269825,260.466237 397.656954,264.223129 397.483437,267.769905 C397.430673,268.848428 397.2309,269.890723 396.875035,270.890995 C396.775627,271.170416 396.468525,271.316344 396.189105,271.216935 C395.909684,271.117527 395.763756,270.810425 395.863165,270.531005 C396.183064,269.631825 396.362988,268.693088 396.41072,267.717425 C396.571207,264.436988 395.256998,260.877593 392.958015,257.317327 C392.193729,256.133734 391.374215,255.036563 390.555072,254.054471 C390.340376,253.797067 390.137376,253.561719 389.949007,253.349916 L389.557672,252.920886 C389.52211,252.88312 389.493869,252.853641 389.473394,252.832673 C389.432998,252.791304 389.399682,252.743822 389.374579,252.692149 L389.343226,252.611735 L385.725226,240.545735 C385.640044,240.261655 385.801284,239.962308 386.085365,239.877126 Z"/><path id="Stroke-23" fill="#D18682" fill-rule="nonzero" d="M353.69318,327.044708 C353.847097,326.791198 354.177382,326.710462 354.430892,326.86438 C354.656234,327.001195 354.745063,327.277363 354.65392,327.515093 L354.61122,327.602092 L329.37522,369.167092 C329.221303,369.420602 328.891018,369.501338 328.637508,369.34742 C328.412166,369.210605 328.323337,368.934437 328.41448,368.696707 L328.45718,368.609708 L353.69318,327.044708 Z"/><path id="Fill-25" fill="#597EF7" d="M192.583,423.9189 C192.583,423.9189 135.115,298.1169 140.617,287.1129 C146.119,276.1104 186.676,261.1404 248.056,265.3659 C309.7,269.6094 331.255,294.6519 331.255,294.6519 C331.255,294.6519 315.406,368.1939 302.1145,415.9164 C309.115,428.4189 296.3875,437.2959 296.3875,437.2959 C296.3875,437.2959 216.4915,433.6014 197.488,434.6019 C188.6125,430.7979 192.583,423.9189 192.583,423.9189"/><path id="Stroke-27" fill="#1D39C4" fill-rule="nonzero" d="M319.079136,319.450698 C319.388527,319.378507 319.697861,319.570795 319.770052,319.880186 L319.826755,320.142362 C319.870417,320.353 319.918897,320.602951 319.970974,320.891586 C320.097931,321.595233 320.224694,322.407024 320.345114,323.323794 L320.404766,323.790912 C321.230212,330.440615 321.333224,338.647913 320.250632,348.174127 C318.791133,361.016915 315.324164,374.659047 309.448281,388.79552 L308.991532,389.883911 L302.717,415.869 L302.859507,416.238986 L302.918551,416.399632 C303.121181,416.957417 303.323447,417.584448 303.512114,418.267609 C304.24388,420.917312 304.570954,423.62121 304.26229,426.163353 C303.736039,430.497534 301.414277,433.783639 296.909822,435.511011 C296.613184,435.624766 296.280494,435.47651 296.166739,435.179872 C296.052984,434.883234 296.20124,434.550544 296.497878,434.436789 C300.583302,432.870107 302.642968,429.954961 303.120178,426.024679 C303.408162,423.652858 303.098262,421.090937 302.403128,418.573877 C302.258917,418.051693 302.106544,417.564306 301.952724,417.118712 L301.837193,416.792462 C301.722597,416.477008 301.634521,416.256407 301.586133,416.144215 C301.549129,416.058417 301.533766,415.965347 301.540732,415.873084 L301.555168,415.781389 L307.902565,389.524756 C314.041783,375.014165 317.622824,361.108457 319.10749,348.044216 C320.179481,338.611283 320.07761,330.49481 319.263029,323.932639 L319.145053,323.033952 C319.065158,322.458147 318.983079,321.929137 318.900632,321.44786 L318.778098,320.767839 C318.721445,320.469397 318.677259,320.259947 318.649648,320.141614 C318.577457,319.832223 318.769745,319.522889 319.079136,319.450698 Z"/><path id="Fill-29" fill="#4E5C93" d="M305.8966,473.43285 C303.0826,461.61435 297.6541,448.70835 297.6541,448.70835 L296.3866,437.29635 C262.1521,425.24985 199.3891,434.75985 199.3891,434.75985 C199.3891,434.75985 198.3586,439.99035 195.8236,446.96385 C178.7581,464.99235 171.7921,525.07785 171.7921,525.07785 L241.3981,552.55635 L312.8626,527.68935 C312.8626,527.68935 310.6516,493.40235 305.8966,473.43285"/><path id="Fill-31" fill="#4E5C93" d="M206.0932,677.3544 C183.5902,755.7024 178.9462,771.2769 178.9462,771.2769 C178.9462,771.2769 179.3737,788.3949 167.9617,795.0504 L128.0212,795.0504 C128.0212,795.0504 112.8067,785.5419 132.7762,763.6689 C167.0107,550.6539 173.3557,516.4194 173.3557,516.4194 C173.3557,516.4194 222.4252,443.1609 246.1987,537.3054 C228.8077,598.1664 215.7922,643.5894 206.0932,677.3544"/><g id="分组" transform="translate(94.000000, 791.943000)"><mask id="mask-4" fill="#fff"><use xlink:href="#path-3"/></mask><path id="Fill-33" fill="#253368" d="M3.2106,66.0003 L56.3991,66.0003 L75.8391,1.2303 L34.2801,1.2303 L27.1476,44.4393 L1.8276,61.4628 C-0.2049,62.8278 0.7626,66.0003 3.2106,66.0003" mask="url(#mask-4)"/></g><path id="Fill-35" fill="#4E5C93" d="M311.2426,509.26365 C311.2426,509.26365 261.3091,443.16015 237.5341,537.30615 C278.7226,742.81815 289.7866,771.27765 289.7866,771.27765 C289.7866,771.27765 289.3606,788.39415 300.7726,795.05115 L340.7116,795.05115 C340.7116,795.05115 355.9276,785.54265 335.9581,763.66965 C318.0001,554.03265 311.2426,509.26365 311.2426,509.26365"/><g id="分组" transform="translate(298.000000, 791.943000)"><mask id="mask-6" fill="#fff"><use xlink:href="#path-5"/></mask><path id="Fill-37" fill="#253368" d="M70.5231,66.0003 L17.3346,66.0003 L0.8946,1.2303 L42.4536,1.2303 L46.5861,44.4393 L71.9061,61.4628 C73.9386,62.8278 72.9711,66.0003 70.5231,66.0003" mask="url(#mask-6)"/></g><polygon id="Fill-39" fill="#FFC2BD" points="205.095 256.614 208.258 201.404 260.562 201.404 260.512 261.051 245.511 289.581"/><path id="Fill-41" fill="#FFC2BD" d="M225.27235,170.6562 C225.27235,170.6562 254.43535,163.0482 262.35985,176.6787 C270.06685,189.9357 270.60085,237.8577 255.38635,245.1477 C242.98435,251.0907 217.66435,248.3172 211.64185,225.1782 C211.64185,225.1782 206.57035,207.4257 208.47235,191.5767 C210.37435,175.7277 225.27235,170.6562 225.27235,170.6562"/><path id="Fill-43" fill="#FFC2BD" d="M211.642,211.23015 C211.642,211.23015 203.7175,196.01415 197.695,204.25665 C191.6725,212.49765 201.8155,227.71365 210.691,227.07915 C219.5665,226.44615 211.642,211.23015 211.642,211.23015"/><g id="分组" transform="translate(199.000000, 146.943000)"><mask id="mask-8" fill="#fff"><use xlink:href="#path-7"/></mask><path id="Fill-45" fill="#253368" d="M68.43135,57.3138 C68.43135,57.3138 72.23535,38.9283 67.79835,27.5163 C63.35985,16.1043 57.65385,4.6938 53.53335,10.7163 C52.90035,7.8633 49.09485,2.1573 46.24335,0.2553 C43.39035,-1.6467 34.51485,10.7163 34.51485,10.7163 C34.51485,10.7163 35.14785,5.0103 31.66185,8.4978 C28.17435,11.9838 6.93585,22.7613 3.44985,28.4673 C-0.03765,34.1733 1.81485,55.1493 1.81485,55.1493 C1.81485,55.1493 8.63085,54.5148 12.27585,67.5123 C11.32485,57.0513 15.67935,51.5838 17.91435,49.5033 C18.76335,48.7143 19.24785,47.6178 19.33635,46.4643 C19.50435,44.2488 19.75485,40.5288 19.84785,36.8943 C19.88835,35.2923 21.05985,33.9678 22.63785,33.6948 C38.70885,30.9108 56.37585,33.4143 62.66835,34.4988 C64.09185,34.7433 65.18085,35.8863 65.37135,37.3173 L66.95685,49.2063 C66.95685,49.2063 67.79835,51.2898 68.43135,57.3138" mask="url(#mask-8)"/></g><path id="Stroke-47" fill="#253368" fill-rule="nonzero" d="M228.247687,200.022661 C228.380682,199.98731 228.518246,199.973944 228.654967,199.982798 L228.791207,199.999068 L239.072207,201.796068 C239.761365,201.916525 240.222389,202.572848 240.101932,203.262007 C239.989004,203.908093 239.405099,204.35367 238.764703,204.30759 L238.635993,204.291732 L228.63,202.542 L223.537513,203.896139 C222.903643,204.064628 222.254238,203.72147 222.027453,203.120805 L221.987861,202.997313 C221.819372,202.363443 222.16253,201.714038 222.763195,201.487253 L222.886687,201.447661 L228.247687,200.022661 Z"/><path id="Stroke-49" fill="#253368" fill-rule="nonzero" d="M259.498173,198.911698 C259.673008,198.865261 259.855238,198.856941 260.032631,198.886657 L260.164578,198.916074 L264.127578,200.024574 C264.801325,200.213029 265.194731,200.911982 265.006276,201.585728 C264.829599,202.217366 264.204243,202.60261 263.571614,202.493016 L263.445122,202.464426 L259.815,201.448 L250.005527,204.054302 C249.371624,204.222668 248.722285,203.879385 248.495616,203.278676 L248.456048,203.155177 C248.287682,202.521274 248.630965,201.871935 249.231674,201.645266 L249.355173,201.605698 L259.498173,198.911698 Z"/><path id="Fill-51" fill="#EFADAB" d="M212.11735,217.332 C212.11735,217.332 220.31035,223.7265 224.58835,230.3835 C230.53285,223.014 236.79385,219.843 236.79385,219.843 C236.79385,219.843 243.97435,225.177 247.77835,223.5135 C248.96635,222.087 248.83885,220.6365 248.83885,220.6365 C248.83885,220.6365 255.25735,223.014 259.77385,229.671 C261.67735,224.916 267.03535,218.7585 267.03535,218.7585 C267.03535,218.7585 268.17535,249.7995 245.35135,250.2735 C222.29185,250.2735 214.60435,237.516 211.98985,226.8165 C211.38535,223.464 210.45385,214.9545 212.11735,217.332"/><path id="Stroke-53" fill="#D18682" fill-rule="nonzero" d="M231.412917,225.494711 C231.618029,224.974054 232.206381,224.718254 232.727039,224.923367 L233.205847,225.099359 C233.33606,225.145153 233.486336,225.196794 233.655577,225.253365 C234.414906,225.507181 235.268003,225.761514 236.193873,225.999029 C239.328528,226.803168 242.490974,227.219003 245.414945,227.042016 C246.837891,226.955885 248.164681,226.728767 249.378423,226.349473 C249.912552,226.182558 250.480861,226.480243 250.647777,227.014373 C250.814692,227.548502 250.517007,228.116811 249.982877,228.283727 C248.604041,228.714613 247.116662,228.96922 245.537384,229.064814 C242.37428,229.256275 239.012619,228.814246 235.690317,227.961969 C234.715645,227.711935 233.816566,227.443893 233.013132,227.175335 L232.431461,226.974541 L231.984261,226.808833 C231.463604,226.603721 231.207804,226.015369 231.412917,225.494711 Z"/><path id="Stroke-55" fill="#D18682" fill-rule="nonzero" d="M247.042511,202.991441 C247.359025,203.020165 247.59989,203.277205 247.617328,203.585284 L247.615709,203.679061 L247.308,207.07 L247.467202,207.825587 L247.576733,208.36379 C247.793389,209.441699 248.010014,210.595494 248.212261,211.779193 C248.420718,212.999233 248.602035,214.183047 248.748365,215.305788 C249.375771,220.119658 249.336116,223.103299 248.167449,224.012991 C247.09752,224.845241 245.192806,224.547364 242.563508,223.504243 C241.899414,223.240777 241.203934,222.93307 240.487466,222.589946 C239.850037,222.284674 239.220495,221.963384 238.613563,221.638075 L237.812902,221.199561 L237.099783,220.791439 C237.053404,220.764186 237.017314,220.742761 236.992067,220.727608 C236.692309,220.547711 236.595144,220.158874 236.775042,219.859117 C236.954939,219.559359 237.343776,219.462194 237.643533,219.642092 L237.90375,219.794721 C238.116767,219.9181 238.359601,220.055791 238.62775,220.204197 C239.394288,220.628433 240.208613,221.052705 241.034294,221.448133 C241.725943,221.779372 242.395241,222.075495 243.03037,222.327469 C245.226336,223.198675 246.829952,223.449463 247.389982,223.013841 C247.978796,222.555507 248.03218,219.791596 247.538008,215.822702 L247.492983,215.469406 C247.34897,214.364444 247.170141,213.196878 246.964345,211.992413 C246.804317,211.055811 246.635101,210.137674 246.464062,209.261836 L246.227334,208.081487 L246.050641,207.245614 L246.038391,207.052139 L246.354891,203.564639 C246.383615,203.248125 246.640655,203.00726 246.948734,202.989822 L247.042511,202.991441 Z"/><path id="Stroke-57" fill="#D18682" fill-rule="nonzero" d="M246.221027,233.31615 C246.57062,233.314488 246.855373,233.596535 246.85705,233.946127 C246.85856,234.263938 246.625602,234.528164 246.320579,234.574833 L246.227073,234.582143 L240.887073,234.60765 C240.53748,234.609312 240.252727,234.327265 240.25105,233.977673 C240.24954,233.659862 240.482498,233.395636 240.787521,233.348967 L240.881027,233.341657 L246.221027,233.31615 Z"/><path id="Fill-59" fill="#253368" d="M231.61225,211.3884 C231.61225,213.2274 230.54875,214.7169 229.23475,214.7169 C227.92225,214.7169 226.85725,213.2274 226.85725,211.3884 C226.85725,209.5509 227.92225,208.0599 229.23475,208.0599 C230.54875,208.0599 231.61225,209.5509 231.61225,211.3884"/><path id="Fill-61" fill="#253368" d="M256.57465,211.3884 C256.57465,213.2274 255.51115,214.7169 254.19715,214.7169 C252.88465,214.7169 251.81965,213.2274 251.81965,211.3884 C251.81965,209.5509 252.88465,208.0599 254.19715,208.0599 C255.51115,208.0599 256.57465,209.5509 256.57465,211.3884"/><path id="Stroke-63" fill="#D18682" fill-rule="nonzero" d="M233.09312,222.80017 C233.386013,222.507277 233.860887,222.507277 234.15378,222.80017 C234.420047,223.066436 234.444253,223.4831 234.226398,223.776712 L234.15378,223.86083 L230.03328,227.98133 C229.740387,228.274223 229.265513,228.274223 228.97262,227.98133 C228.706353,227.715064 228.682147,227.2984 228.900002,227.004788 L228.97262,226.92067 L233.09312,222.80017 Z"/><path id="Stroke-65" fill="#D18682" fill-rule="nonzero" d="M212.076086,227.15354 C212.415581,227.070109 212.75843,227.277691 212.84186,227.617186 L212.907812,227.863971 C212.9563,228.035917 213.024831,228.264854 213.114893,228.545373 C213.357245,229.300238 213.666926,230.143145 214.049948,231.051943 C215.145515,233.651394 216.606786,236.251381 218.480477,238.675667 C225.348223,247.561536 235.703549,251.783525 250.375808,248.782589 C250.718313,248.712536 251.052758,248.933402 251.122811,249.275908 C251.192864,249.618413 250.971998,249.952858 250.629492,250.022911 C235.468158,253.123879 224.632867,248.706203 217.478786,239.449858 C215.533388,236.932794 214.019102,234.238479 212.883328,231.543627 C212.485382,230.59942 212.162903,229.721678 211.909493,228.932371 L211.786815,228.53891 L211.685892,228.193115 C211.649136,228.062258 211.624914,227.970076 211.61244,227.919314 C211.529009,227.579819 211.736591,227.23697 212.076086,227.15354 Z"/><path id="Stroke-67" fill="#D18682" fill-rule="nonzero" d="M243.999932,241.487199 C244.300928,241.309381 244.689083,241.409237 244.866901,241.710232 C245.013486,241.958359 245.222956,242.381462 245.430531,242.936555 C245.948375,244.321361 246.151391,245.751012 245.84522,247.115269 C245.527583,248.530621 244.676902,249.739069 243.233458,250.650869 C242.937892,250.837573 242.546935,250.749323 242.360231,250.453758 C242.173527,250.158192 242.261777,249.767235 242.557342,249.580531 C243.716178,248.848513 244.365881,247.925569 244.609946,246.838045 C244.853902,245.751007 244.684029,244.554751 244.244728,243.379982 C244.139784,243.099344 244.027484,242.843119 243.915781,242.617495 L243.831059,242.45195 C243.807576,242.407812 243.789187,242.374968 243.776899,242.354168 C243.599081,242.053172 243.698937,241.665017 243.999932,241.487199 Z"/><path id="Stroke-69" fill="#D18682" fill-rule="nonzero" d="M199.424364,208.975155 C199.721093,207.484705 200.890689,206.796112 202.784911,207.524376 C205.70984,208.648366 206.072343,210.770636 205.14266,214.644115 L205.074074,214.923781 C204.51799,217.15575 205.288277,218.4129 207.358992,218.827042 C207.701799,218.895604 207.924119,219.229084 207.855558,219.571892 C207.786996,219.914699 207.453516,220.137019 207.110708,220.068458 C204.323038,219.510924 203.116933,217.542496 203.845793,214.617054 C204.719896,211.124773 204.497054,209.538575 202.330693,208.706087 C201.185671,208.265865 200.812704,208.485447 200.665997,209.222347 C200.62381,209.434248 200.610865,209.665601 200.618868,209.890803 L200.639202,210.167249 L200.647612,210.231961 C200.703829,210.577008 200.469685,210.902296 200.124639,210.958512 C199.779592,211.014729 199.454304,210.780585 199.398088,210.435539 L199.37339,210.234517 C199.33446,209.830787 199.340286,209.397475 199.424364,208.975155 Z"/><path id="Fill-71" fill="#D18682" d="M236.1196,232.7604 C236.0656,233.0844 235.7596,233.3034 235.4356,233.2494 C235.1131,233.1969 234.8941,232.8894 234.9466,232.5669 C235.0006,232.2429 235.3066,232.0239 235.6306,232.0764 C235.9546,232.1304 236.1736,232.4364 236.1196,232.7604"/><path id="Fill-73" fill="#D18682" d="M227.1964,234.99735 C227.1424,235.32135 226.8364,235.54035 226.5124,235.48635 C226.1899,235.43385 225.9709,235.12635 226.0234,234.80385 C226.0774,234.47985 226.3834,234.26085 226.7074,234.31335 C227.0314,234.36735 227.2504,234.67335 227.1964,234.99735"/><path id="Fill-75" fill="#D18682" d="M255.94255,236.94045 C256.05805,237.24795 255.90055,237.58995 255.59305,237.70545 C255.28555,237.81945 254.94205,237.66195 254.82805,237.35445 C254.71405,237.04695 254.87155,236.70495 255.17905,236.59095 C255.48655,236.47545 255.82855,236.63295 255.94255,236.94045"/><path id="Fill-77" fill="#D18682" d="M261.52075,234.09855 C261.63475,234.40605 261.47875,234.74805 261.17125,234.86355 C260.86375,234.97755 260.52025,234.82005 260.40625,234.51255 C260.29225,234.20505 260.44825,233.86305 260.75575,233.74905 C261.06325,233.63355 261.40675,233.79105 261.52075,234.09855"/><path id="Fill-79" fill="#D18682" d="M251.1019,238.6719 C251.2159,238.9794 251.0599,239.3214 250.7524,239.4354 C250.4449,239.5494 250.1014,239.3934 249.9874,239.0859 C249.8734,238.7784 250.0294,238.4364 250.3369,238.3224 C250.6444,238.2069 250.9864,238.3644 251.1019,238.6719"/><path id="Fill-81" fill="#D18682" d="M244.1659,237.3081 C244.2799,237.6156 244.1239,237.9576 243.8164,238.0731 C243.5089,238.1871 243.1654,238.0296 243.0514,237.7221 C242.9374,237.4146 243.0934,237.0726 243.4009,236.9586 C243.7084,236.8431 244.0504,237.0006 244.1659,237.3081"/><path id="Fill-83" fill="#D18682" d="M220.27285,232.55325 C220.38685,232.86075 220.23085,233.20425 219.92335,233.31825 C219.61585,233.43225 219.27235,233.27475 219.15835,232.96725 C219.04435,232.65975 219.20035,232.31775 219.50785,232.20375 C219.81535,232.08825 220.15885,232.24575 220.27285,232.55325"/><path id="Fill-85" fill="#D18682" d="M231.63565,241.1028 C231.58165,241.4268 231.27565,241.6458 230.95165,241.5918 C230.62915,241.5378 230.41015,241.2318 230.46265,240.9078 C230.51665,240.5838 230.82265,240.3648 231.14665,240.4188 C231.47065,240.4728 231.68965,240.7788 231.63565,241.1028"/><path id="Fill-87" fill="#D18682" d="M236.24695,240.1806 C236.19295,240.5046 235.88695,240.7236 235.56295,240.6696 C235.23895,240.6156 235.02145,240.3096 235.07395,239.9856 C235.12795,239.6616 235.43395,239.4426 235.75795,239.4966 C236.08195,239.5506 236.30095,239.8566 236.24695,240.1806"/><path id="Fill-89" fill="#D18682" d="M254.8717,241.78095 C254.8177,242.10495 254.5117,242.32395 254.1877,242.26995 C253.8637,242.21745 253.6447,241.90995 253.6987,241.58745 C253.7527,241.26345 254.0587,241.04445 254.3827,241.09695 C254.7067,241.15095 254.9257,241.45695 254.8717,241.78095"/><path id="Fill-91" fill="#D18682" d="M251.9215,234.7599 C251.8675,235.0839 251.5615,235.3029 251.2375,235.2489 C250.9135,235.1949 250.6945,234.8889 250.7485,234.5649 C250.8025,234.2409 251.1085,234.0219 251.4325,234.0759 C251.7565,234.1299 251.9755,234.4359 251.9215,234.7599"/><path id="Fill-93" fill="#D18682" d="M254.06095,228.8163 C254.00695,229.1403 253.70095,229.3593 253.37695,229.3053 C253.05445,229.2513 252.83545,228.9453 252.88795,228.6213 C252.94195,228.2973 253.24795,228.0783 253.57195,228.1323 C253.89595,228.1863 254.11495,228.4923 254.06095,228.8163"/><path id="Fill-95" fill="#D18682" d="M226.612,238.70265 C226.558,239.02665 226.252,239.24565 225.928,239.19165 C225.604,239.13765 225.385,238.83165 225.439,238.50765 C225.493,238.18365 225.799,237.96465 226.123,238.01865 C226.447,238.07265 226.666,238.37865 226.612,238.70265"/><path id="Fill-97" fill="#597EF7" d="M265.95625,268.7436 L263.57875,259.4211 L252.90475,260.3376 L246.51025,284.0211 L232.35625,257.9466 L200.76625,254.8371 L196.32325,269.5071 C196.32325,269.5071 216.89875,296.4636 250.26625,291.5151 C266.74825,289.0686 265.95625,268.7436 265.95625,268.7436"/><path id="Fill-99" fill="#253368" d="M297.81295,448.866 C249.55195,442.6845 195.58495,446.226 195.58495,446.226 L197.48695,432.6765 C197.48695,432.6765 258.82345,424.83 296.70445,434.973 C297.57595,441.4725 297.81295,448.866 297.81295,448.866"/><path id="Stroke-101" fill="#253368" fill-rule="nonzero" d="M251.375685,446.59545 C251.806211,446.59545 252.161022,446.918764 252.212524,447.335243 L252.21827,447.677355 L252.200139,450.381756 L252.180116,452.290389 C252.13482,456.144524 252.057156,460.438817 251.939354,465.063327 C251.60275,478.277202 251.012298,491.491524 250.105622,503.827841 L249.964272,505.710006 C248.673344,522.534426 246.874484,536.239246 244.486733,545.789781 C244.373608,546.242258 243.915097,546.517358 243.462619,546.404233 C243.010142,546.291108 242.735042,545.832597 242.848167,545.380119 L243.108021,544.314184 C245.4256,534.566685 247.174056,520.672331 248.421166,503.704039 C249.272432,492.121636 249.844513,479.757783 250.18897,467.347591 L250.250901,465.020316 C250.359453,460.758957 250.43386,456.778657 250.480223,453.165996 L250.524155,448.699794 L250.529951,447.438715 C250.530633,446.972311 250.909281,446.59545 251.375685,446.59545 Z"/><path id="Stroke-103" fill="#253368" fill-rule="nonzero" d="M269.761251,447.229645 C270.227655,447.230536 270.605033,447.609347 270.604155,448.075751 L270.586382,450.867164 L270.552061,453.969404 C270.534345,455.319919 270.512222,456.739937 270.485179,458.21861 C270.357678,465.190126 270.146361,472.161898 269.832686,478.744708 L269.680407,481.759114 C268.704514,500.037443 267.131318,511.230195 264.459574,513.308296 C262.787103,514.608911 260.64991,515.938504 258.153701,517.277185 C255.974126,518.44606 253.642716,519.557771 251.311775,520.576882 C250.822451,520.790819 250.354018,520.991466 249.910616,521.177841 L248.597224,521.718277 C248.421939,521.788667 248.287137,521.841876 248.196404,521.877051 C247.761534,522.045638 247.272336,521.829773 247.103749,521.394904 C246.935162,520.960034 247.151027,520.470836 247.585896,520.302249 L248.419159,519.967916 C249.087368,519.694684 249.832489,519.380267 250.635168,519.029327 C252.92771,518.027005 255.219782,516.934052 257.355458,515.78872 C259.774793,514.491264 261.835961,513.208969 263.422665,511.975051 C265.518105,510.345204 267.140116,498.411129 268.057785,480.443931 C268.389262,473.953898 268.617111,467.037092 268.759679,460.084485 L268.796461,458.187726 C268.823449,456.712102 268.845525,455.295057 268.863203,453.947454 L268.915152,448.072549 C268.916036,447.606145 269.294847,447.228767 269.761251,447.229645 Z"/><path id="Fill-105" fill="#E1E7F3" d="M239.0119,444.50655 L239.0119,430.97055 C239.0119,429.20205 240.3604,427.75455 242.0689,427.70355 C247.7284,427.53405 260.3089,427.38255 271.7209,428.83005 C273.3139,429.03255 274.5139,430.42005 274.5139,432.07905 L274.5139,444.80505 C274.5139,446.62605 273.0874,448.09605 271.3294,448.07355 C264.8599,447.99405 250.1224,447.81855 242.1439,447.77355 C240.4054,447.76455 239.0119,446.30355 239.0119,444.50655"/><path id="Fill-107" fill="#253368" d="M242.674,442.17015 L242.677,433.21065 C242.6785,432.04065 243.778,431.08215 245.1715,431.04915 C249.79,430.93815 260.053,430.84365 269.3635,431.80365 C270.6625,431.93865 271.642,432.85815 271.642,433.95615 L271.639,442.38015 C271.639,443.58465 270.4735,444.55665 269.0395,444.54315 C263.761,444.48765 251.737,444.36615 245.227,444.33465 C243.8095,444.32715 242.674,443.35965 242.674,442.17015"/><polygon id="Fill-109" fill="#E1E7F3" points="271.542 430.075 241.572 443.45 242.81 446.174 273.029 432.551"/><polygon id="Fill-111" fill="#E1E7F3" points="272.83 443.021 242.791 429.802 241.605 432.55 271.993 445.786"/><path id="Stroke-113" fill="#253368" fill-rule="nonzero" d="M210.931013,447.23877 C211.042122,446.785793 211.499404,446.508654 211.95238,446.619763 C212.405357,446.730872 212.682496,447.188154 212.571387,447.64113 L212.493387,447.942494 C212.429875,448.180985 212.353239,448.456746 212.263251,448.766694 C212.007083,449.649017 211.694812,450.630834 211.324558,451.687507 C210.266566,454.706926 208.95441,457.726958 207.370947,460.551463 C202.225113,469.730357 195.45222,474.816934 186.895781,473.47424 C186.435016,473.401936 186.120105,472.969797 186.19241,472.509031 C186.264714,472.048266 186.696853,471.733355 187.157619,471.80566 C194.858217,473.014053 201.058391,468.357599 205.897672,459.725521 C207.428774,456.994414 208.702859,454.062005 209.730578,451.128982 C210.030366,450.273414 210.290761,449.469204 210.512685,448.730799 L210.742408,447.942164 C210.833931,447.617177 210.896565,447.379209 210.931013,447.23877 Z"/><path id="Stroke-115" fill="#253368" fill-rule="nonzero" d="M253.836334,530.663957 C254.069337,530.305491 254.528278,530.182387 254.904361,530.360146 L255.004643,530.416134 L274.024643,542.779134 C274.415697,543.033319 274.526651,543.556389 274.272466,543.947443 C274.039463,544.305909 273.580522,544.429013 273.204439,544.251254 L273.104157,544.195266 L254.084157,531.832266 C253.693103,531.578081 253.582149,531.055011 253.836334,530.663957 Z"/><path id="Stroke-117" fill="#253368" fill-rule="nonzero" d="M245.721221,528.842015 C246.072711,528.598615 246.544067,528.658654 246.824708,528.9657 L246.896285,529.055521 L255.239285,541.103521 C255.504812,541.486964 255.409222,542.013059 255.025779,542.278585 C254.674289,542.521985 254.202933,542.461946 253.922292,542.1549 L253.850715,542.065079 L245.507715,530.017079 C245.242188,529.633636 245.337778,529.107541 245.721221,528.842015 Z"/><path id="Stroke-119" fill="#1D39C4" fill-rule="nonzero" d="M198.848034,270.364862 C198.945749,270.096146 199.222867,269.944512 199.494974,269.996022 L199.585238,270.020834 L220.507238,277.628834 C220.805812,277.737406 220.959839,278.067464 220.851266,278.366038 C220.753551,278.634754 220.476433,278.786388 220.204326,278.734878 L220.114062,278.710066 L199.192062,271.102066 C198.893488,270.993494 198.739461,270.663436 198.848034,270.364862 Z"/><path id="Stroke-121" fill="#1D39C4" fill-rule="nonzero" d="M246.350082,284.584941 C246.655197,284.4964 246.974318,284.671968 247.062859,284.977082 L247.172013,285.364432 L247.443546,286.371011 C247.509211,286.620156 247.577345,286.882615 247.647674,287.15788 L247.754778,287.580316 C248.271923,289.63552 248.788932,291.908615 249.271465,294.335934 C250.410438,300.065378 251.179767,305.740987 251.409324,311.05105 C251.562134,314.585817 251.468349,317.859411 251.098207,320.820258 C251.058797,321.135506 250.77129,321.359117 250.456042,321.319707 C250.140794,321.280297 249.917183,320.99279 249.956593,320.677542 C250.318118,317.785627 250.410096,314.575096 250.259897,311.100741 C250.033166,305.856051 249.271422,300.236395 248.143046,294.560256 C247.664456,292.152773 247.151688,289.898328 246.639057,287.861062 L246.331187,286.664793 L245.977153,285.364513 C245.969928,285.33921 245.963517,285.316933 245.957941,285.297718 C245.8694,284.992603 246.044968,284.673482 246.350082,284.584941 Z"/><path id="Fill-123" fill="#597EF7" d="M165.11275,382.56195 C170.17075,372.40545 192.08275,334.66695 193.43425,330.97545 C197.18725,320.72745 202.05025,294.08595 175.12525,281.84595 C153.59425,272.05845 138.68275,283.11795 130.12675,295.73595 C124.22875,304.43595 107.48275,339.46845 105.38725,347.91945 L165.11275,382.56195 Z"/><path id="Stroke-125" fill="#1D39C4" fill-rule="nonzero" d="M185.68907,341.820205 C185.798226,341.521844 186.128584,341.368463 186.426945,341.47762 C186.725306,341.586776 186.878687,341.917134 186.76953,342.215495 L186.594724,342.66012 C185.783236,344.618008 183.399593,349.318552 178.189043,359.331358 L168.890665,377.205366 C168.07883,378.783655 167.451638,380.01801 166.866981,381.184845 L166.473275,381.973197 C166.340934,382.239057 166.032148,382.355891 165.762506,382.257868 L165.67437,382.217146 L106.47237,348.618646 C106.196064,348.461836 106.099194,348.110726 106.256004,347.83442 C106.397133,347.585745 106.695645,347.482412 106.955363,347.578547 L107.04023,347.618054 L165.714,380.916 L167.337781,377.711424 C168.442042,375.554309 169.888694,372.765504 172.15853,368.409795 L180.101374,353.146145 C183.62044,346.33335 185.228604,343.078811 185.68907,341.820205 Z"/><path id="Stroke-127" fill="#D18682" fill-rule="nonzero" d="M162.065415,383.88098 C162.249684,383.625948 162.588622,383.548817 162.861143,383.685198 L162.94922,383.738615 L181.27022,396.976115 C181.553589,397.180858 181.617328,397.576551 181.412585,397.85992 C181.228316,398.114952 180.889378,398.192083 180.616857,398.055702 L180.52878,398.002285 L162.20778,384.764785 C161.924411,384.560042 161.860672,384.164349 162.065415,383.88098 Z"/><path id="Stroke-129" fill="#1D39C4" fill-rule="nonzero" d="M153.820467,280.902954 L154.098603,280.904914 C154.44648,280.911492 154.923794,280.933578 155.515628,280.980291 C156.731089,281.076227 158.07205,281.251708 159.506823,281.526242 C163.554623,282.300762 167.593374,283.706468 171.36748,285.901756 C178.533899,290.070255 183.903822,296.589647 186.726315,305.881099 C186.818657,306.185085 186.647087,306.506372 186.343101,306.598715 C186.039115,306.691057 185.717828,306.519487 185.625485,306.215501 C182.889928,297.210234 177.710767,290.922438 170.78901,286.896252 C167.1358,284.771286 163.218293,283.407779 159.290605,282.656242 C157.023988,282.22254 155.200982,282.064496 154.03741,282.053738 L153.833958,282.053376 L153.739946,282.046896 C153.466137,282.005374 153.254884,281.770514 153.251649,281.484601 C153.248133,281.166919 153.502785,280.906506 153.820467,280.902954 Z"/><path id="Stroke-131" fill="#253368" fill-rule="nonzero" d="M291.034098,450.217101 C291.499398,450.185012 291.90261,450.536199 291.934699,451.001498 L291.990656,451.662736 L292.033047,452.097934 C292.122477,452.98012 292.241855,453.964126 292.395133,455.024235 C292.832776,458.05108 293.45331,461.076806 294.286607,463.893575 L294.533817,464.703136 C296.754931,471.749813 299.96844,476.014364 304.219021,476.341591 C304.68405,476.377391 305.032008,476.783393 304.996209,477.248421 C304.960409,477.71345 304.554407,478.061408 304.089379,478.025609 C298.744438,477.614132 295.075164,472.512977 292.666994,464.372713 C291.808214,461.469806 291.171935,458.367309 290.723516,455.26593 C290.566672,454.18116 290.444424,453.173494 290.352659,452.268281 L290.273817,451.424007 L290.249701,451.117702 C290.217612,450.652402 290.568799,450.24919 291.034098,450.217101 Z"/></g></svg>