<?xml version="1.0" encoding="UTF-8"?>
<svg width="512px" height="1024px" viewBox="0 0 512 1024" version="1.1" xmlns="http://www.w3.org/2000/svg" xmlns:xlink="http://www.w3.org/1999/xlink">
    <!-- Generator: Sketch 61.2 (89653) - https://sketch.com -->
    <title>2.人物组件/2.保安/站立/讲解</title>
    <desc>Created with Sketch.</desc>
    <defs>
        <polygon id="path-1" points="0.84435 0.92745 58.2808101 0.92745 58.2808101 66 0.84435 66"></polygon>
        <polygon id="path-3" points="7.81137086e-05 1.23015 75.11265 1.23015 75.11265 66 7.81137086e-05 66"></polygon>
        <polygon id="path-5" points="0.227614858 0.435 69.0509527 0.435 69.0509527 66.3642 0.227614858 66.3642"></polygon>
    </defs>
    <g id="2.人物组件/2.保安/站立/讲解" stroke="none" stroke-width="1" fill="none" fill-rule="evenodd">
        <path d="M267.53295,276.1863 C267.53295,276.1863 288.16395,314.9583 279.41145,363.9243 C301.05945,395.0118 328.82295,413.6673 341.07345,416.4963 C353.74845,419.4213 387.46695,413.3718 383.88045,383.7633 C380.66595,357.2103 321.73845,305.2653 312.64995,295.5168 C299.08095,280.9638 274.34595,274.6953 267.53295,276.1863" id="Fill-1" fill="#FFC2BD"></path>
        <path d="M346.33875,329.3535 C329.48325,310.941 320.20125,302.3535 315.56775,297.1875 C295.46925,274.77 281.99175,275.0115 260.33175,271.2165 C260.33175,271.2165 266.55225,301.071 257.79825,350.037 C266.57325,359.9505 303.07425,388.998 310.93125,396.132 L346.33875,329.3535 Z" id="Fill-3" fill="#597EF7"></path>
        <path d="M382.60605,274.21605 C370.67505,295.20705 350.23905,327.08955 327.48255,372.28305 C327.48255,372.28305 316.83555,404.89005 346.87755,413.81655 C376.16955,422.52105 385.35405,388.71855 385.35405,388.71855 C400.91055,351.22905 410.34555,314.01855 414.61905,287.47755 C415.05705,284.75505 415.70505,282.03705 415.04805,279.35505 C414.14955,275.68005 411.56055,271.15755 404.80155,267.76755 C388.76055,259.72005 382.60605,274.21605 382.60605,274.21605" id="Fill-5" fill="#FFC2BD"></path>
        <path d="M296.51715,509.04225 C296.51715,509.04225 264.97365,496.44525 229.78815,541.13925 C226.76715,749.84025 223.50165,765.50475 223.50165,765.50475 C223.50165,765.50475 214.72965,783.99975 227.09265,793.50975 L268.29615,793.50975 C268.29615,793.50975 278.96865,781.35975 274.21365,768.04575 C302.43015,579.15075 296.51715,509.04225 296.51715,509.04225" id="Fill-7" fill="#4E5C93"></path>
        <g id="分组" transform="translate(223.500000, 791.565000)">
            <mask id="mask-2" fill="white">
                <use xlink:href="#path-1"></use>
            </mask>
            <g id="Clip-10"></g>
            <path d="M3.78135,0.92745 L43.10685,1.11645 L36.76635,41.90895 L57.18885,60.28245 C59.42235,62.29395 58.00035,66.00045 54.99585,66.00045 L0.84435,66.00045 L3.78135,0.92745 Z" id="Fill-9" fill="#253368" mask="url(#mask-2)"></path>
        </g>
        <path d="M178.85655,421.818 C178.85655,421.818 125.32005,295.0485 130.82055,284.046 C136.32255,273.042 172.94955,259.041 234.32955,263.2665 C295.97355,267.51 309.32205,293.46 309.32205,293.46 C309.32205,293.46 305.24505,361.3155 288.38805,413.817 C295.38855,426.3195 282.66105,435.195 282.66105,435.195 C282.66105,435.195 202.76505,431.502 183.76155,432.5025 C174.88605,428.697 178.85655,421.818 178.85655,421.818" id="Fill-11" fill="#597EF7"></path>
        <path d="M304.07327,308.935131 C304.389933,308.90946 304.667449,309.145357 304.693119,309.46202 L304.729007,309.986181 L304.776405,310.844269 C304.78676,311.054046 304.796942,311.2765 304.806836,311.511526 L304.848711,312.625636 C305.062069,319.054492 304.863141,327.442977 303.975547,337.53768 C302.649325,352.620944 299.97757,368.939027 295.661813,386.210273 L295.264934,387.783004 L288.996,413.745 L289.150301,414.060637 L289.330304,414.447345 C289.651072,415.151841 289.971495,415.934433 290.270593,416.77535 C291.083046,419.059569 291.590076,421.3412 291.64063,423.487534 C291.764481,428.745815 289.138323,432.374605 283.076793,433.439572 C282.763884,433.494548 282.465654,433.285452 282.410678,432.972543 C282.355702,432.659634 282.564798,432.361404 282.877707,432.306428 C288.34791,431.345353 290.601544,428.231313 290.490449,423.514625 C290.443165,421.507098 289.961426,419.339279 289.186618,417.160899 C288.899091,416.352516 288.590989,415.600016 288.283231,414.924094 L288.013529,414.351363 C287.958343,414.238771 287.913072,414.149839 287.879364,414.086178 C287.830115,413.993162 287.80764,413.88905 287.813375,413.785258 L287.828566,413.681996 L294.148313,387.505957 C298.683781,369.706876 301.468361,352.916934 302.829468,337.436909 L302.978294,335.681756 C303.758316,326.126321 303.907852,318.191071 303.679178,312.107832 L303.627344,310.90179 L303.546381,309.55498 C303.52071,309.238317 303.756607,308.960801 304.07327,308.935131 Z" id="Stroke-13" fill="#1D39C4" fill-rule="nonzero"></path>
        <path d="M292.1703,471.3327 C289.3563,459.5142 283.9278,446.6082 283.9278,446.6082 L282.6603,435.1962 C248.4258,423.1497 185.6628,432.6597 185.6628,432.6597 C185.6628,432.6597 184.6323,437.8902 182.0973,444.8637 C165.0318,462.8922 158.0658,522.9777 158.0658,522.9777 L227.6718,550.4562 L297.3618,526.5912 C297.3618,526.5912 296.9253,491.3022 292.1703,471.3327" id="Fill-15" fill="#4E5C93"></path>
        <path d="M159.6297,514.32 C159.6297,514.32 208.6992,441.06 232.4727,535.2045 C174.7257,737.2845 165.2217,769.1775 165.2217,769.1775 C165.2217,769.1775 165.6477,786.294 154.2357,792.951 L114.2952,792.951 C114.2952,792.951 99.0792,783.441 119.0502,761.5695 C153.2847,548.5545 159.6297,514.32 159.6297,514.32" id="Fill-17" fill="#4E5C93"></path>
        <g id="分组" transform="translate(81.000000, 791.565000)">
            <mask id="mask-4" fill="white">
                <use xlink:href="#path-3"></use>
            </mask>
            <g id="Clip-20"></g>
            <path d="M2.48415,66.00015 L55.67265,66.00015 L75.11265,1.23015 L33.55365,1.23015 L26.42115,44.43915 L1.10115,61.46265 C-0.93135,62.82915 0.03615,66.00015 2.48415,66.00015" id="Fill-19" fill="#253368" mask="url(#mask-4)"></path>
        </g>
        <polygon id="Fill-21" fill="#FFC2BD" points="192.71175 254.77755 198.29775 199.75905 250.55025 202.05555 247.88175 261.64455 231.64125 289.48605"></polygon>
        <path d="M216.6444,169.788 C216.6444,169.788 246.1134,163.4685 253.4319,177.4335 C260.5494,191.0145 258.9789,238.914 243.4584,245.5305 C230.8074,250.9215 205.6344,247.041 200.6334,223.659 C200.6334,223.659 196.3464,205.701 198.9414,189.951 C201.5379,174.201 216.6444,169.788 216.6444,169.788" id="Fill-23" fill="#FFC2BD"></path>
        <path d="M201.24585,209.72475 C201.24585,209.72475 193.99635,194.17575 187.61835,202.14525 C181.23885,210.11475 190.70535,225.75975 199.60035,225.51675 C208.49535,225.27375 201.24585,209.72475 201.24585,209.72475" id="Fill-25" fill="#FFC2BD"></path>
        <g id="分组" transform="translate(190.500000, 146.565000)">
            <mask id="mask-6" fill="white">
                <use xlink:href="#path-5"></use>
            </mask>
            <g id="Clip-28"></g>
            <path d="M66.78795,58.6422 C66.78795,58.6422 71.39445,40.4412 67.46295,28.8462 C63.52995,17.2512 58.33095,5.6007 53.94945,11.4357 C53.44245,8.5572 49.89195,2.6907 47.12595,0.6657 C44.35845,-1.3593 34.94895,10.6017 34.94895,10.6017 C34.94895,10.6017 35.83245,4.9287 32.19645,8.2587 C28.55895,11.5887 6.86895,21.4242 3.13395,26.9712 C-0.59955,32.5182 0.33045,53.5557 0.33045,53.5557 C0.33045,53.5557 7.16745,53.2212 10.23795,66.3642 C9.74745,55.8732 14.33745,50.6007 16.66245,48.6207 C17.54445,47.8707 18.07695,46.7967 18.21495,45.6477 C18.48045,43.4412 18.89445,39.7362 19.14645,36.1092 C19.25745,34.5117 20.48595,33.2382 22.07445,33.0357 C38.25345,30.9612 55.79295,34.2357 62.03145,35.5962 C63.44295,35.9037 64.47945,37.0932 64.60845,38.5317 L65.66895,50.4777 C65.66895,50.4777 66.41895,52.5972 66.78795,58.6422" id="Fill-27" fill="#253368" mask="url(#mask-6)"></path>
        </g>
        <path d="M218.691341,197.730688 L228.883841,198.477688 C229.581576,198.528825 230.105748,199.135905 230.054612,199.833641 C230.006671,200.487768 229.470108,200.989349 228.828309,201.007356 L228.698659,201.004412 L218.69,200.27 L213.452063,201.419404 C212.811403,201.559881 212.177701,201.188524 211.977525,200.578475 L211.943396,200.453363 C211.802919,199.812703 212.174276,199.179001 212.784325,198.978825 L212.909437,198.944696 L218.327437,197.756696 C218.407044,197.739241 218.488056,197.729529 218.569344,197.727641 L218.691341,197.730688 Z" id="Stroke-29" fill="#253368" fill-rule="nonzero"></path>
        <path d="M249.776448,199.492249 C249.899944,199.483251 250.023865,199.492424 250.144286,199.519285 L250.263396,199.552025 L254.172396,200.834525 C254.83714,201.05262 255.19922,201.768302 254.981125,202.433046 C254.776661,203.056243 254.134864,203.413428 253.507706,203.275936 L253.382604,203.241775 L249.711,202.037 L239.708052,202.766051 C239.053904,202.813712 238.47965,202.355766 238.368534,201.723402 L238.352599,201.594702 C238.304938,200.940554 238.762884,200.3663 239.395248,200.255184 L239.523948,200.239249 L249.776448,199.492249 Z" id="Stroke-31" fill="#253368" fill-rule="nonzero"></path>
        <path d="M201.45315,215.84205 C201.45315,215.84205 209.35665,222.59055 213.33915,229.42755 C219.60165,222.32655 225.99465,219.43455 225.99465,219.43455 C225.99465,219.43455 230.62965,222.15105 235.44915,221.51805 C236.69865,220.14555 237.99315,220.75455 237.99315,220.75455 C237.99315,220.75455 244.30215,223.41105 248.52165,230.26005 C250.63215,225.59355 256.25565,219.67755 256.25565,219.67755 C256.25565,219.67755 256.03065,250.73805 233.20815,250.21155 C210.17115,249.19905 203.05065,236.11455 200.90865,225.31155 C200.45265,221.93505 199.89465,213.39405 201.45315,215.84205" id="Fill-33" fill="#EFADAB"></path>
        <g id="分组" transform="translate(220.500000, 224.565000)">
            <path d="M0.79665,0.69075 C0.79665,0.69075 8.72415,1.60125 19.54065,1.40175 C19.54065,1.40175 17.31165,8.07825 10.55415,7.65525 C7.67715,7.47525 3.80265,6.13875 0.79665,0.69075" id="Fill-35" fill="#FFFFFF"></path>
            <path d="M0.79665,0.69075 C0.79665,0.69075 8.72415,1.60125 19.54065,1.40175 C19.54065,1.40175 17.31165,8.07825 10.55415,7.65525 C7.67715,7.47525 3.80265,6.13875 0.79665,0.69075" id="Stroke-37" stroke="#D18682" stroke-width="2.0265" stroke-linecap="round" stroke-linejoin="round"></path>
        </g>
        <path d="M236.966318,203.118913 C237.243371,203.156524 237.445771,203.389862 237.453016,203.660566 L237.448037,203.751968 L236.993,207.105 L237.181007,207.776768 C237.223997,207.933595 237.268915,208.099361 237.315486,208.273384 C237.581482,209.26733 237.847444,210.327589 238.095786,211.410664 C238.329947,212.431895 238.536495,213.422468 238.70791,214.364056 L238.835363,215.09083 C239.473086,218.880901 239.430051,221.28931 238.306535,222.087136 C237.307383,222.795687 235.527916,222.811729 233.118017,222.359595 C232.304494,222.206966 231.445084,222.003591 230.561739,221.761881 C230.027288,221.615639 229.506661,221.461642 229.010471,221.305673 L228.522818,221.149261 C228.138867,221.023629 227.855749,220.9255 227.698848,220.868589 C227.406806,220.76266 227.255931,220.44004 227.361861,220.147998 C227.46779,219.855956 227.79041,219.705081 228.082452,219.811011 L228.578887,219.982747 L228.872675,220.080043 C229.494366,220.283466 230.165012,220.486968 230.858659,220.676771 C231.714291,220.910898 232.544574,221.10738 233.325465,221.253887 C235.438733,221.650369 236.99744,221.636317 237.655471,221.169672 C238.287003,220.721211 238.262369,218.197916 237.601101,214.565549 C237.432941,213.641843 237.229808,212.667646 236.999242,211.662094 C236.815418,210.860394 236.62168,210.070834 236.425477,209.312051 L236.161078,208.312922 L235.879701,207.303476 C235.864964,207.25301 235.857411,207.200854 235.857157,207.148537 L235.862263,207.070132 L236.333263,203.600632 C236.370874,203.323579 236.604212,203.121179 236.874916,203.113934 L236.966318,203.118913 Z" id="Stroke-38" fill="#965C56" fill-rule="nonzero"></path>
        <path d="M217.972256,208.301979 C218.386067,208.320235 218.706728,208.670495 218.688471,209.084306 C218.623819,210.549766 219.368238,211.69476 220.201595,211.730994 C221.034683,211.768126 221.875721,210.693409 221.940429,209.226694 C221.958685,208.812883 222.308945,208.492222 222.722756,208.510479 C223.136567,208.528735 223.457228,208.878995 223.438971,209.292806 C223.341605,211.499775 221.925515,213.309321 220.135622,213.229542 C218.345784,213.151723 217.092605,211.224204 217.189929,209.018194 C217.208185,208.604383 217.558445,208.283722 217.972256,208.301979 Z" id="Stroke-40" fill="#253368" fill-rule="nonzero"></path>
        <path d="M242.909895,209.398302 C243.323721,209.416221 243.644667,209.766219 243.626748,210.180045 C243.56326,211.646257 244.306858,212.790174 245.139845,212.827344 C245.972933,212.864476 246.813971,211.789759 246.878679,210.323044 C246.896935,209.909233 247.247195,209.588572 247.661006,209.606829 C248.074817,209.625085 248.395478,209.975345 248.377221,210.389156 C248.279855,212.596125 246.863765,214.405671 245.073016,214.325854 C243.284036,214.246026 242.03264,212.320936 242.128152,210.115155 C242.146071,209.701329 242.496069,209.380383 242.909895,209.398302 Z" id="Stroke-42" fill="#253368" fill-rule="nonzero"></path>
        <path d="M200.993659,225.720839 C201.298305,225.660009 201.594582,225.857662 201.655411,226.162309 L201.713622,226.425493 C201.756825,226.608563 201.818502,226.851917 201.900504,227.149836 C202.12089,227.950512 202.408478,228.844306 202.770768,229.807789 C203.806766,232.562944 205.231633,235.318431 207.103981,237.887789 C213.618916,246.828013 223.725593,251.33129 238.242116,249.024288 L238.722634,248.877181 C239.112483,248.752161 239.547671,248.601713 240.016722,248.425868 C241.356538,247.923578 242.695962,247.319788 243.942457,246.615996 C246.378302,245.240679 248.146233,243.659699 248.969572,241.905009 C249.101535,241.62377 249.436502,241.502758 249.717741,241.634722 C249.99898,241.766685 250.119992,242.101652 249.988028,242.382891 C249.046255,244.389989 247.116089,246.116047 244.495575,247.595632 C243.193539,248.330783 241.802392,248.957888 240.411639,249.479275 C240.046652,249.616107 239.701016,249.738259 239.37949,249.845787 L238.800756,250.031541 C238.681153,250.06779 238.578717,250.096758 238.482227,250.121456 C223.472564,252.510732 212.95199,247.823033 206.19478,238.550343 C204.258357,235.893057 202.787467,233.048568 201.717752,230.203746 C201.343043,229.207238 201.04503,228.281039 200.815842,227.448389 L200.705554,227.033704 L200.575913,226.494245 C200.565325,226.446317 200.557457,226.408978 200.552189,226.382591 C200.491359,226.077945 200.689012,225.781668 200.993659,225.720839 Z" id="Stroke-44" fill="#965C56" fill-rule="nonzero"></path>
        <path d="M230.295767,241.630761 C230.569915,241.484636 230.910614,241.588419 231.056739,241.862567 C231.17925,242.092412 231.354868,242.486087 231.528861,243.003325 C231.972379,244.321792 232.138893,245.683045 231.858038,246.978101 C231.53248,248.479287 230.624781,249.733185 229.059064,250.628459 C228.789379,250.782665 228.445747,250.68905 228.291541,250.419364 C228.137335,250.149679 228.23095,249.806047 228.500636,249.651841 C229.787439,248.916049 230.500113,247.931559 230.758595,246.739668 C230.989901,245.673088 230.846989,244.504782 230.462574,243.362013 C230.310042,242.908572 230.159134,242.570288 230.063961,242.391733 C229.917836,242.117585 230.021619,241.776886 230.295767,241.630761 Z" id="Stroke-46" fill="#965C56" fill-rule="nonzero"></path>
        <path d="M189.67725,208.31925 C189.67725,208.31925 189.27225,204.89025 192.30825,206.21325 C195.34275,207.53775 194.66025,210.44175 193.91625,212.94675 C193.14375,215.54625 194.12775,217.16175 196.48125,217.74075" id="Fill-48" fill="#EFADAB"></path>
        <path d="M224.75445,232.30905 C224.68695,232.63005 224.37195,232.83555 224.04945,232.76805 C223.72845,232.70055 223.52445,232.38405 223.59195,232.06305 C223.65945,231.74205 223.97445,231.53655 224.29545,231.60405 C224.61645,231.67305 224.82195,231.98805 224.75445,232.30905" id="Fill-50" fill="#D18682"></path>
        <path d="M215.742,234.1518 C215.6745,234.4728 215.358,234.6783 215.037,234.6108 C214.716,234.5433 214.5105,234.2268 214.5795,233.9058 C214.647,233.5848 214.962,233.3793 215.283,233.4483 C215.604,233.5158 215.8095,233.8308 215.742,234.1518" id="Fill-52" fill="#D18682"></path>
        <path d="M244.3746,237.35535 C244.4751,237.66735 244.3041,238.00335 243.9921,238.10385 C243.6801,238.20435 243.3441,238.03335 243.2436,237.71985 C243.1431,237.40785 243.3141,237.07335 243.6261,236.97285 C243.9381,236.87085 244.2741,237.04335 244.3746,237.35535" id="Fill-54" fill="#D18682"></path>
        <path d="M250.07205,234.76125 C250.17255,235.07325 250.00155,235.40925 249.68955,235.50975 C249.37755,235.61025 249.04155,235.43925 248.94105,235.12725 C248.84055,234.81375 249.01155,234.47925 249.32355,234.37875 C249.63555,234.27675 249.97155,234.44925 250.07205,234.76125" id="Fill-56" fill="#D18682"></path>
        <path d="M239.46225,238.8723 C239.56275,239.1843 239.39175,239.5203 239.07975,239.6208 C238.76775,239.7213 238.43175,239.5503 238.33125,239.2383 C238.23075,238.9248 238.40175,238.5903 238.71375,238.4898 C239.02575,238.3878 239.36175,238.5603 239.46225,238.8723" id="Fill-58" fill="#D18682"></path>
        <path d="M232.59285,237.2052 C232.69335,237.5172 232.52235,237.8532 232.21035,237.9537 C231.89835,238.0542 231.56235,237.8832 231.46185,237.5712 C231.36135,237.2592 231.53235,236.9232 231.84435,236.8227 C232.15635,236.7222 232.49235,236.8932 232.59285,237.2052" id="Fill-60" fill="#D18682"></path>
        <path d="M208.932,231.4059 C209.0325,231.7179 208.8615,232.0539 208.5495,232.1544 C208.2375,232.2549 207.9015,232.0839 207.801,231.7719 C207.7005,231.4599 207.8715,231.1239 208.1835,231.0234 C208.4955,230.9229 208.8315,231.0939 208.932,231.4059" id="Fill-62" fill="#D18682"></path>
        <path d="M219.9087,240.44625 C219.8412,240.76725 219.5247,240.97275 219.2037,240.90525 C218.8827,240.83625 218.6772,240.52125 218.7462,240.20025 C218.8137,239.87925 219.1287,239.67375 219.4497,239.74125 C219.7707,239.81025 219.9762,240.12525 219.9087,240.44625" id="Fill-64" fill="#D18682"></path>
        <path d="M224.556,239.72775 C224.4885,240.04875 224.1735,240.25425 223.851,240.18675 C223.53,240.11775 223.3245,239.80275 223.3935,239.48175 C223.461,239.16075 223.776,238.95525 224.097,239.02275 C224.418,239.09175 224.6235,239.40675 224.556,239.72775" id="Fill-66" fill="#D18682"></path>
        <path d="M243.0921,242.14395 C243.0246,242.46495 242.7096,242.67045 242.3871,242.60295 C242.0661,242.53545 241.8621,242.21895 241.9296,241.89795 C241.9971,241.57695 242.3121,241.37145 242.6331,241.44045 C242.9556,241.50795 243.1596,241.82295 243.0921,242.14395" id="Fill-68" fill="#D18682"></path>
        <path d="M240.45315,234.9999 C240.38565,235.3209 240.07065,235.5264 239.74815,235.4589 C239.42715,235.3914 239.22165,235.0749 239.29065,234.7539 C239.35815,234.4329 239.67315,234.2274 239.99415,234.2964 C240.31515,234.3639 240.52065,234.6789 240.45315,234.9999" id="Fill-70" fill="#D18682"></path>
        <path d="M242.8518,229.15665 C242.7843,229.47765 242.4693,229.68315 242.1468,229.61565 C241.8258,229.54665 241.6203,229.23165 241.6893,228.91065 C241.7568,228.58965 242.0718,228.38415 242.3928,228.45165 C242.7138,228.52065 242.9193,228.83565 242.8518,229.15665" id="Fill-72" fill="#D18682"></path>
        <path d="M214.995,237.82785 C214.9275,238.14885 214.611,238.35435 214.29,238.28685 C213.969,238.21785 213.7635,237.90285 213.8325,237.58185 C213.9,237.26085 214.215,237.05535 214.536,237.12285 C214.857,237.19185 215.0625,237.50685 214.995,237.82785" id="Fill-74" fill="#D18682"></path>
        <path d="M254.69955,266.71155 L249.79905,254.17455 L239.26905,256.14555 L232.17405,277.97355 L218.58255,255.80205 L190.50405,251.50755 L182.62005,266.71155 C182.62005,266.71155 208.47405,299.15955 241.18455,290.92605 C257.34405,286.85805 254.69955,266.71155 254.69955,266.71155" id="Fill-76" fill="#597EF7"></path>
        <path d="M284.08725,446.76585 C235.82625,440.58435 181.85925,444.12585 181.85925,444.12585 L183.76125,430.57485 C183.76125,430.57485 245.09775,422.72985 282.97725,432.87285 C283.84875,439.37085 284.08725,446.76585 284.08725,446.76585" id="Fill-78" fill="#253368"></path>
        <path d="M237.655299,444.495199 C238.085813,444.498664 238.438586,444.823574 238.487466,445.240369 L238.493074,445.365577 L238.449299,448.78703 L238.39122,452.09331 C238.330889,455.200916 238.250082,458.5623 238.145764,462.126748 L238.113761,463.202124 C237.732517,475.80379 237.137784,488.405825 236.284938,500.265982 L236.121994,502.480886 C234.736117,520.897789 232.829692,535.757489 230.318533,545.801631 C230.205408,546.254108 229.746897,546.529208 229.294419,546.416083 C228.841942,546.302958 228.566842,545.844447 228.679967,545.391969 C231.162238,535.463375 233.058531,520.682644 234.437756,502.354147 C235.321049,490.61608 235.944281,478.086277 236.351667,465.509553 L236.488029,461.015932 C236.577565,457.850079 236.648331,454.852662 236.702535,452.060695 L236.780056,447.425378 L236.804275,445.333251 C236.807892,444.866861 237.188908,444.491709 237.655299,444.495199 Z" id="Stroke-80" fill="#253368" fill-rule="nonzero"></path>
        <path d="M256.034801,445.128894 C256.501205,445.129786 256.878583,445.508597 256.877706,445.975001 L256.863221,448.38548 L256.825609,451.868806 C256.807892,453.219357 256.785769,454.639411 256.758724,456.118123 C256.631219,463.089819 256.419894,470.061771 256.106207,476.644752 L256.018105,478.430174 C255.047412,497.435291 253.464206,509.084073 250.7331,511.209065 C249.060515,512.509671 246.922712,513.839356 244.425535,515.178205 C242.246326,516.346577 239.915308,517.457851 237.584759,518.476594 L236.635352,518.886311 C236.328985,519.016786 236.033127,519.141065 235.749006,519.258859 L234.469915,519.776316 C234.035037,519.944882 233.54585,519.728993 233.377284,519.294115 C233.208718,518.859237 233.424607,518.37005 233.859485,518.201484 L234.244012,518.049147 L234.692614,517.867258 C235.360715,517.594116 236.105714,517.279806 236.908262,516.928992 C239.20043,515.927027 241.492127,514.834498 243.627454,513.689653 C246.047723,512.392037 248.109471,511.109658 249.696106,509.875886 C251.79163,508.245422 253.41362,496.311278 254.331303,478.34402 C254.692928,471.263801 254.931222,463.675672 255.070007,456.087238 L255.125612,452.663685 C255.141179,451.5637 255.153866,450.506769 255.163934,449.498453 L255.188028,446.1982 L255.188702,445.971799 C255.189586,445.505395 255.568397,445.128017 256.034801,445.128894 Z" id="Stroke-82" fill="#253368" fill-rule="nonzero"></path>
        <path d="M225.2862,442.4064 L225.2862,428.8704 C225.2862,427.1019 226.6347,425.6544 228.3417,425.6034 C234.0027,425.4339 246.5832,425.2824 257.9952,426.7299 C259.5867,426.9309 260.7882,428.3184 260.7882,429.9789 L260.7882,442.7049 C260.7882,444.5259 259.3617,445.9944 257.6022,445.9734 C251.1327,445.8939 236.3967,445.7184 228.4167,445.6734 C226.6797,445.6644 225.2862,444.2034 225.2862,442.4064" id="Fill-84" fill="#E1E7F3"></path>
        <path d="M228.94755,440.07 L228.95055,431.109 C228.95205,429.9405 230.05155,428.982 231.44505,428.949 C236.06355,428.838 246.32655,428.7435 255.63705,429.7035 C256.93605,429.8385 257.91555,430.758 257.91555,431.856 L257.91255,440.28 C257.91255,441.4845 256.74705,442.4565 255.31305,442.4415 C250.03455,442.3875 238.01055,442.266 231.50205,442.233 C230.08305,442.227 228.94755,441.2595 228.94755,440.07" id="Fill-86" fill="#253368"></path>
        <polygon id="Fill-88" fill="#E1E7F3" points="257.81595 427.97475 227.84595 441.35025 229.08345 444.07425 259.30245 430.45125"></polygon>
        <polygon id="Fill-90" fill="#E1E7F3" points="259.10355 440.9211 229.06455 427.7016 227.87805 430.4496 258.26655 443.6856"></polygon>
        <path d="M197.204563,445.13862 C197.315672,444.685643 197.772954,444.408504 198.22593,444.519613 C198.678907,444.630722 198.956046,445.088004 198.844937,445.54098 L198.766937,445.842344 C198.703425,446.080835 198.626789,446.356596 198.536801,446.666544 C198.280633,447.548867 197.968362,448.530684 197.598108,449.587357 C196.540116,452.606776 195.22796,455.626808 193.644497,458.451313 C188.498663,467.630207 181.72577,472.716784 173.169331,471.37409 C172.708566,471.301786 172.393655,470.869647 172.46596,470.408881 C172.538264,469.948116 172.970403,469.633205 173.431169,469.70551 C181.131767,470.913903 187.331941,466.257449 192.171222,457.625371 C193.702324,454.894264 194.976409,451.961855 196.004128,449.028832 C196.303916,448.173264 196.564311,447.369054 196.786235,446.630649 L197.059315,445.68682 C197.127576,445.440413 197.175857,445.255652 197.204563,445.13862 Z" id="Stroke-92" fill="#253368" fill-rule="nonzero"></path>
        <path d="M240.115921,528.554801 C240.35356,528.199391 240.81406,528.082257 241.187803,528.264885 L241.287349,528.322171 L264.178849,543.628171 C264.566569,543.887413 264.670721,544.411879 264.411479,544.799599 C264.17384,545.155009 263.71334,545.272143 263.339597,545.089515 L263.240051,545.032229 L240.348551,529.726229 C239.960831,529.466987 239.856679,528.942521 240.115921,528.554801 Z" id="Stroke-94" fill="#253368" fill-rule="nonzero"></path>
        <path d="M231.994921,526.742015 C232.346411,526.498615 232.817767,526.558654 233.098408,526.8657 L233.169985,526.955521 L241.512985,539.003521 C241.778512,539.386964 241.682922,539.913059 241.299479,540.178585 C240.947989,540.421985 240.476633,540.361946 240.195992,540.0549 L240.124415,539.965079 L231.781415,527.917079 C231.515888,527.533636 231.611478,527.007541 231.994921,526.742015 Z" id="Stroke-96" fill="#253368" fill-rule="nonzero"></path>
        <path d="M187.733298,267.025978 C187.856977,266.768178 188.147669,266.644545 188.413388,266.722576 L188.500772,266.756148 L206.832272,275.550648 C207.118716,275.688069 207.239523,276.031679 207.102102,276.318122 C206.978423,276.575922 206.687731,276.699555 206.422012,276.621524 L206.334628,276.587952 L188.003128,267.793452 C187.716684,267.656031 187.595877,267.312421 187.733298,267.025978 Z" id="Stroke-98" fill="#1D39C4" fill-rule="nonzero"></path>
        <path d="M277.307648,448.116951 C277.772948,448.084862 278.17616,448.436049 278.208249,448.901348 L278.264206,449.562586 C278.27688,449.698629 278.29099,449.843828 278.306597,449.997784 C278.396027,450.87997 278.515405,451.863976 278.668683,452.924085 C279.106326,455.95093 279.72686,458.976656 280.560157,461.793425 C282.787429,469.322204 286.081591,473.901865 290.492571,474.241441 C290.9576,474.277241 291.305558,474.683243 291.269759,475.148271 C291.233959,475.6133 290.827957,475.961258 290.362929,475.925459 C285.017988,475.513982 281.348714,470.412827 278.940544,462.272563 C278.081764,459.369656 277.445485,456.267159 276.997066,453.16578 C276.866363,452.261805 276.759684,451.411374 276.674651,450.629158 L276.563817,449.514086 L276.523251,449.017552 C276.491162,448.552252 276.842349,448.14904 277.307648,448.116951 Z" id="Stroke-100" fill="#253368" fill-rule="nonzero"></path>
        <path d="M226.830605,238.049938 L232.175105,238.283938 C232.485467,238.297527 232.72605,238.560142 232.712462,238.870505 C232.700232,239.149831 232.486291,239.372636 232.217371,239.404497 L232.125895,239.407862 L226.781395,239.173862 C226.471033,239.160273 226.23045,238.897658 226.244038,238.587295 C226.256268,238.307969 226.470209,238.085164 226.739129,238.053303 L226.830605,238.049938 Z" id="Stroke-102" fill="#965C56" fill-rule="nonzero"></path>
        <path d="M185.052,324.8301 C187.353,314.1606 190.368,285.5376 162.012,277.1316 C139.335,270.4101 129.54,284.6421 122.5545,298.1931 C110.544,321.4971 104.436,350.7591 97.707,390.4551 C97.707,390.4551 91.5885,424.1316 124.029,429.9186 C151.4835,434.8146 158.7585,407.3886 158.7585,407.3886 C158.7585,407.3886 182.421,337.0236 185.052,324.8301" id="Fill-104" fill="#FFC2BD"></path>
        <path d="M170.23155,372.9516 C173.83755,362.1936 188.47755,324.7236 189.30555,320.8821 C191.60805,310.2126 192.74655,283.1556 164.38905,274.7496 C141.71355,268.0266 128.47155,281.0406 121.73955,294.7191 C117.10005,304.1496 105.25605,345.1461 104.34705,353.8056 L170.23155,372.9516 Z" id="Fill-106" fill="#597EF7"></path>
        <path d="M151.149304,276.124277 C151.255135,275.82472 151.583766,275.667674 151.883323,275.773504 L152.226153,275.906724 C152.493804,276.016037 152.802795,276.151631 153.149681,276.315158 C154.134854,276.779583 155.230085,277.375505 156.407731,278.116142 C159.76331,280.226509 163.115574,283.07396 166.241878,286.763496 C170.803367,292.146777 174.486888,298.867233 176.978605,307.068168 C177.070965,307.372149 176.899412,307.693446 176.595432,307.785805 C176.291451,307.878165 175.970154,307.706612 175.877795,307.402632 C173.431999,299.352841 169.824714,292.771473 165.364117,287.507261 C162.316729,283.910859 159.054322,281.139733 155.79523,279.090047 C154.657741,278.374665 153.603204,277.800886 152.659098,277.35582 L152.19541,277.143926 C152.12301,277.111959 152.053085,277.08165 151.985691,277.052974 L151.534158,276.870673 C151.52075,276.865704 151.50938,276.861583 151.500077,276.858296 C151.20052,276.752465 151.043474,276.423834 151.149304,276.124277 Z" id="Stroke-108" fill="#1D39C4" fill-rule="nonzero"></path>
        <path d="M258.07815,435.45795 C231.24765,434.61345 164.07915,441.10395 128.00715,433.72095 C128.00715,433.72095 90.60765,425.09745 98.24265,392.17395 C105.68865,360.07245 143.45715,370.73145 143.45715,370.73145 C185.97615,381.74895 242.60115,394.65495 266.52465,399.98145 C266.52465,399.98145 274.03815,399.36495 273.28215,415.74945 C272.38665,435.18945 258.07815,435.45795 258.07815,435.45795" id="Fill-110" fill="#FFC2BD"></path>
        <path d="M232.623632,282.484041 C232.928747,282.3955 233.247868,282.571068 233.336409,282.876182 L233.527782,283.563134 L233.717096,284.270111 C233.782761,284.519256 233.850895,284.781715 233.921224,285.05698 L234.028328,285.479416 C234.545473,287.53462 235.062482,289.807715 235.545015,292.235034 C236.683988,297.964478 237.453317,303.640087 237.682874,308.95015 C237.835684,312.484917 237.741899,315.758511 237.371757,318.719358 C237.332347,319.034606 237.04484,319.258217 236.729592,319.218807 C236.414344,319.179397 236.190733,318.89189 236.230143,318.576642 C236.591668,315.684727 236.683646,312.474196 236.533447,308.999841 C236.306716,303.755151 235.544972,298.135495 234.416596,292.459356 C233.991182,290.319371 233.538765,288.300305 233.083442,286.447206 L232.912607,285.760162 C232.769178,285.190155 232.633997,284.670232 232.509261,284.204494 L232.231491,283.196818 C232.14295,282.891703 232.318518,282.572582 232.623632,282.484041 Z" id="Stroke-112" fill="#1D39C4" fill-rule="nonzero"></path>
        <path d="M181.615821,329.59175 C181.926371,329.658781 182.123782,329.964871 182.05675,330.275421 L181.834242,331.281747 C179.868483,339.999212 173.555636,364.282782 170.776352,372.570941 C170.689641,372.829524 170.436098,372.987158 170.173422,372.960499 L170.074799,372.941701 L104.190299,354.359701 C103.884526,354.273461 103.706559,353.955672 103.792799,353.649899 C103.870415,353.374703 104.135586,353.203031 104.410752,353.234317 L104.502601,353.252399 L169.857,371.684 L170.18513,370.664871 C173.188649,361.144632 179.027257,338.592975 180.787485,330.691645 L180.93215,330.032679 C180.992478,329.753184 181.246444,329.565332 181.523024,329.579422 L181.615821,329.59175 Z" id="Stroke-114" fill="#1D39C4" fill-rule="nonzero"></path>
        <path d="M262.59795,441.19935 L284.30145,373.30635 C284.65995,372.18735 285.69195,371.42235 286.86795,371.40735 L347.72745,370.58209 C349.61745,370.55685 350.96145,372.41385 350.34795,374.20035 L327.69195,440.29035 C327.32745,441.35385 326.34945,442.08435 325.22745,442.13385 L265.31895,444.76035 C263.41995,444.84435 262.01895,443.00985 262.59795,441.19935" id="Fill-116" fill="#7B8DAF"></path>
        <path d="M265.806,440.37105 L287.1315,373.66155 C287.565,372.30705 288.816,371.38005 290.238,371.36055 L351.849,370.526394 C353.172,370.51005 354.1125,371.80755 353.6835,373.05855 L330.7125,440.06055 C330.309,441.23805 329.226,442.04805 327.984,442.10205 L269.103,444.68355 C266.802,444.78555 265.104,442.56405 265.806,440.37105" id="Fill-118" fill="#253368"></path>
        <path d="M295.47345,377.78925 C296.16195,378.55575 295.91445,379.90125 294.91995,380.79675 C293.92545,381.69075 292.56045,381.79425 291.87195,381.02925 C291.18195,380.26275 291.42945,378.91575 292.42545,378.02175 C293.41995,377.12775 294.78495,377.02275 295.47345,377.78925" id="Fill-120" fill="#4E5C93"></path>
        <path d="M294.6561,378.59055 C295.0131,378.98805 294.8856,379.68705 294.3696,380.15205 C293.8521,380.61555 293.1441,380.66955 292.7856,380.27205 C292.4286,379.87455 292.5576,379.17555 293.0736,378.71205 C293.5896,378.24705 294.2976,378.19305 294.6561,378.59055" id="Fill-122" fill="#E1E7F3"></path>
        <path d="M305.71275,425.98335 C310.08825,424.84185 310.63125,421.10985 309.61875,417.47385 C314.69625,414.93585 313.37475,410.50185 313.37475,410.50185 C313.37475,410.50185 323.64225,408.70035 324.67275,404.02485 C325.07175,402.20835 323.47425,400.58985 321.62175,400.75785 C299.33325,402.78735 281.74125,393.61485 281.74125,393.61485 C281.74125,393.61485 288.37575,379.49835 286.52025,373.76985 C285.97125,372.07635 283.61025,371.87835 282.77325,373.44885 C275.59875,386.89935 257.51625,397.91835 257.51625,397.91835 C257.51625,397.91835 226.65975,427.88985 251.88375,433.39485 C251.88375,433.39485 287.66925,439.48635 301.43775,431.70585 C306.71175,428.72685 305.71275,425.98335 305.71275,425.98335" id="Fill-124" fill="#FFC2BD"></path>
        <path d="M315.121177,409.880343 C315.417288,409.786387 315.733501,409.950266 315.827457,410.246377 C315.921413,410.542488 315.757534,410.858701 315.461423,410.952657 L315.034591,411.079625 C314.89442,411.119535 314.729776,411.165123 314.542059,411.215385 C313.815746,411.409856 312.999623,411.604105 312.111417,411.785324 C308.782669,412.464481 305.396062,412.780682 302.222968,412.530868 C300.322669,412.38126 298.567586,412.029262 296.988151,411.450116 C296.69648,411.343166 296.546735,411.020021 296.653684,410.728351 C296.760634,410.43668 297.083779,410.286935 297.375449,410.393884 C298.851916,410.935275 300.507613,411.267339 302.311265,411.409338 C305.36538,411.649785 308.652403,411.342883 311.886519,410.683033 C312.751674,410.506517 313.545895,410.31748 314.251089,410.128664 L314.955331,409.931111 C315.021997,409.911249 315.077419,409.894227 315.121177,409.880343 Z" id="Stroke-126" fill="#965C56" fill-rule="nonzero"></path>
        <path d="M309.589052,416.948749 C309.852879,416.784721 310.199723,416.865625 310.363751,417.129452 C310.527779,417.393279 310.446875,417.740123 310.183048,417.904151 L309.929573,418.053293 C309.788057,418.133312 309.608643,418.230673 309.393667,418.341502 C308.772288,418.661848 308.067396,418.981566 307.291357,419.279782 C303.608654,420.69497 299.743092,421.142952 296.039747,420.030676 C295.742217,419.941315 295.573462,419.627677 295.662824,419.330147 C295.752185,419.032617 296.065823,418.863862 296.363353,418.953224 C299.792938,419.983277 303.417485,419.563227 306.887813,418.22965 C307.623996,417.94675 308.291826,417.643842 308.878158,417.341564 L309.266076,417.135269 C309.41134,417.055263 309.519807,416.9918 309.589052,416.948749 Z" id="Stroke-128" fill="#965C56" fill-rule="nonzero"></path>
        <path d="M304.75349,425.828411 C304.839061,426.127054 304.666332,426.43852 304.367689,426.52409 L303.584099,426.739814 L303.306748,426.813748 C302.488861,427.030207 301.621116,427.246644 300.740784,427.448768 C300.021726,427.613864 299.32433,427.76234 298.659116,427.890101 L297.960726,428.018829 C295.808633,428.397658 294.225525,428.499458 293.324585,428.229118 C293.027032,428.139833 292.858197,427.826238 292.947482,427.528685 C293.036767,427.231132 293.350362,427.062297 293.647915,427.151582 C294.401526,427.377714 296.128195,427.230629 298.446927,426.785293 C299.098073,426.660234 299.782459,426.514528 300.489034,426.352298 C301.139543,426.202941 301.78364,426.045511 302.405314,425.886074 L303.292117,425.653365 L304.057811,425.44261 C304.356454,425.357039 304.66792,425.529768 304.75349,425.828411 Z" id="Stroke-130" fill="#965C56" fill-rule="nonzero"></path>
        <path d="M381.03345,276.72165 C381.03345,276.72165 398.49495,223.11315 420.19095,208.579538 C426.84195,208.54365 420.98895,217.15965 416.67195,224.19015 C414.46395,227.78415 413.10345,232.26765 413.10345,232.26765 C413.10345,232.26765 422.16795,230.98965 420.75045,238.44915 C428.03145,237.81465 425.73795,245.72865 425.73795,245.72865 C425.73795,245.72865 431.34645,245.51265 429.86595,252.83865 C429.40245,255.13065 421.39395,289.50165 403.31145,296.26665 C393.52695,299.92665 384.08145,287.29965 381.03345,276.72165" id="Fill-132" fill="#FFC2BD"></path>
        <path d="M400.383457,237.352574 C401.819531,230.794526 404.508468,228.025874 406.937587,230.063166 C409.029929,231.818003 409.601589,236.557808 407.965488,240.957164 L407.641584,241.838488 C404.773142,249.740246 404.659362,252.833807 406.142862,256.114081 L406.419571,256.697032 C407.031008,257.961156 407.297901,258.706601 407.431333,259.799645 C408.309948,267.004854 405.638816,273.70446 397.4319,276.209584 C397.161317,276.292178 396.875011,276.139783 396.792416,275.8692 C396.709822,275.598617 396.862217,275.312311 397.1328,275.229716 C404.76522,272.899955 407.239855,266.693194 406.414375,259.923722 C406.307378,259.047238 406.101921,258.425248 405.632102,257.425596 L405.388891,256.9194 C403.539535,253.100122 403.621629,249.700776 407.005227,240.600094 C408.505153,236.566903 407.988299,232.281517 406.279238,230.848134 C404.779974,229.590709 402.836339,231.486261 401.507953,236.998922 L401.354574,237.664186 L394.070574,254.635186 C393.958993,254.89516 393.657788,255.015456 393.397814,254.903874 C393.166726,254.804691 393.046001,254.555681 393.100393,254.318982 L393.129126,254.231114 L400.383457,237.352574 Z" id="Stroke-134" fill="#965C56" fill-rule="nonzero"></path>
        <path d="M420.284902,238.236232 C420.402742,237.979035 420.70677,237.866063 420.963968,237.983902 C421.221165,238.101742 421.334137,238.40577 421.216298,238.662968 L420.976405,239.17178 L420.667378,239.80718 C420.557753,240.029438 420.44166,240.261681 420.319536,240.502493 C419.621469,241.878988 418.869347,243.255729 418.090684,244.542635 C417.146634,246.10288 416.22752,247.423824 415.352466,248.432385 C413.945393,250.054136 412.681102,250.850212 411.520343,250.561176 C408.48216,249.80476 407.529234,247.712019 408.23899,244.885519 C408.495134,243.865462 408.955994,242.790124 409.562616,241.697065 C409.894922,241.098288 410.250431,240.53143 410.606143,240.013425 L410.804179,239.729966 C410.924759,239.560548 411.021315,239.431095 411.087025,239.346761 C411.260906,239.123597 411.582775,239.083644 411.805939,239.257525 C412.029103,239.431406 412.069056,239.753275 411.895175,239.976439 L411.716267,240.216194 C411.641218,240.319767 411.551724,240.446243 411.45069,240.593372 C411.112377,241.086041 410.77386,241.625807 410.45841,242.19421 C409.891597,243.215538 409.464253,244.212672 409.232642,245.135032 C408.649973,247.455428 409.335763,248.961506 411.767874,249.567029 C412.424314,249.730486 413.406321,249.112153 414.57863,247.760984 C415.409706,246.803111 416.297726,245.526856 417.214148,244.012273 C417.978212,242.749493 418.718493,241.394428 419.405817,240.039116 L419.748412,239.354298 L420.256036,238.298776 C420.267164,238.274804 420.276796,238.253926 420.284902,238.236232 Z" id="Stroke-136" fill="#965C56" fill-rule="nonzero"></path>
        <path d="M424.923257,245.97228 C425.005835,245.701693 425.292132,245.54928 425.56272,245.631857 C425.833307,245.714435 425.98572,246.000732 425.903143,246.27132 L425.76508,246.692134 C425.652845,247.02081 425.519829,247.386426 425.366436,247.779866 C424.92802,248.904371 424.413248,250.029229 423.824343,251.082219 C422.057318,254.241739 419.999841,256.136447 417.60452,256.052245 C415.204043,255.969342 414.043958,254.505266 413.90659,252.254419 C413.855874,251.423423 413.946764,250.544936 414.128635,249.67916 C414.162893,249.516077 414.198814,249.361495 414.235349,249.216829 L414.335458,248.848989 C414.348426,248.805021 414.359223,248.770107 414.367409,248.744851 C414.454642,248.475728 414.743525,248.328277 415.012649,248.415509 C415.281772,248.502742 415.429223,248.791625 415.341991,249.060749 L415.291981,249.226981 C415.245546,249.391031 415.188571,249.616912 415.131252,249.889776 C414.966707,250.673076 414.884801,251.464726 414.929187,252.19201 C415.037264,253.962905 415.832019,254.965919 417.640196,255.028366 C419.53319,255.09491 421.333566,253.436964 422.930182,250.582142 C423.493815,249.57434 423.989492,248.491208 424.411916,247.407722 C424.522842,247.123204 424.622605,246.854085 424.710979,246.604282 L424.862183,246.162813 C424.890341,246.07749 424.910735,246.013313 424.923257,245.97228 Z" id="Stroke-138" fill="#965C56" fill-rule="nonzero"></path>
        <path d="M430.118593,251.252036 C430.395489,251.31005 430.572928,251.581548 430.514914,251.858443 L430.472023,252.049287 L430.425801,252.241089 C430.352371,252.538847 430.263155,252.869961 430.157673,253.226232 C429.856101,254.244805 429.483819,255.263861 429.035823,256.218691 C427.433884,259.632959 425.269827,261.436012 422.487714,260.54371 C420.410398,259.877961 419.611081,258.496628 419.923425,256.729419 C420.064286,255.932443 420.421261,255.102143 420.926793,254.266974 C421.154294,253.891129 421.397438,253.538825 421.640835,253.219113 L421.868709,252.929596 C421.910382,252.8787 421.945586,252.837071 421.973334,252.805319 C422.159499,252.592294 422.483106,252.57052 422.696131,252.756684 C422.909156,252.942849 422.93093,253.266456 422.744766,253.479481 L422.599036,253.655847 C422.556973,253.708621 422.508958,253.77012 422.455993,253.839692 C422.233436,254.13203 422.010626,254.45487 421.803236,254.79749 C421.357618,255.533678 421.047765,256.254375 420.932288,256.90773 C420.707774,258.17801 421.218855,259.061232 422.800493,259.568124 C424.939097,260.254034 426.698675,258.787986 428.108337,255.783524 C428.53227,254.879982 428.887382,253.907925 429.175325,252.935385 C429.250961,252.679921 429.317762,252.438306 429.375877,252.214082 L429.4901,251.748416 C429.499749,251.706148 429.507103,251.672617 429.512186,251.648357 C429.563754,251.402227 429.784,251.234681 430.02678,251.241232 L430.118593,251.252036 Z" id="Stroke-140" fill="#965C56" fill-rule="nonzero"></path>
        <path d="M421.080519,259.572161 C421.347763,259.479332 421.63966,259.620724 421.732489,259.887969 C421.825318,260.155213 421.683926,260.44711 421.416681,260.539939 L421.168073,260.632998 C421.0936,260.662103 421.006699,260.696861 420.908154,260.737341 C420.493282,260.90776 420.029889,261.116196 419.530208,261.363706 C418.101126,262.071581 416.671837,262.948765 415.340023,264.002626 C411.759268,266.836069 409.542212,270.392694 409.325214,274.742572 C409.311118,275.025129 409.070634,275.242759 408.788078,275.228664 C408.505521,275.214568 408.287891,274.974084 408.301986,274.691528 C408.535456,270.011459 410.910673,266.201111 414.704295,263.199227 C416.096549,262.09754 417.585905,261.183492 419.075466,260.445659 C419.492942,260.238868 419.886944,260.057843 420.251282,259.901922 L420.518877,259.789678 C420.783275,259.68107 420.974523,259.608979 421.080519,259.572161 Z" id="Stroke-142" fill="#965C56" fill-rule="nonzero"></path>
        <path d="M149.499432,372.393328 L257.641932,397.369828 C257.944624,397.439737 258.133332,397.74179 258.063422,398.044482 C258.000504,398.316905 257.749549,398.497 257.479325,398.479331 L257.388768,398.465972 L149.246268,373.489472 C148.943576,373.419563 148.754868,373.11751 148.824778,372.814818 C148.887696,372.542395 149.138651,372.3623 149.408875,372.379969 L149.499432,372.393328 Z" id="Stroke-144" fill="#965C56" fill-rule="nonzero"></path>
    </g>
</svg>