<svg xmlns="http://www.w3.org/2000/svg" xmlns:xlink="http://www.w3.org/1999/xlink" width="512" height="1024" version="1.1" viewBox="0 0 512 1024"><title>2.人物组件/5.用研/走路/看电脑</title><desc>Created with Sketch.</desc><defs><polygon id="path-1" points=".851 .415 58.286 .415 58.286 33 .851 33"/><polygon id="path-3" points=".757 1.198 133.036 1.198 133.036 83.844 .757 83.844"/></defs><g id="2.人物组件/5.用研/走路/看电脑" fill="none" fill-rule="evenodd" stroke="none" stroke-width="1"><path id="Fill-1" fill="#E4EBF7" d="M272.06295,473.65225 L272.06295,473.65225 C260.52345,473.28625 251.46495,463.63375 251.83095,452.09425 L253.92645,385.99525 C254.29245,374.45425 263.94495,365.39575 275.48445,365.76175 C287.02545,366.12775 296.08395,375.78025 295.71795,387.31975 L293.62095,453.41875 C293.25495,464.95975 283.60245,474.01825 272.06295,473.65225"/><path id="Fill-3" fill="#FFC6A0" d="M234.1806,738.86575 C226.6536,739.57975 221.3766,746.61175 222.8091,754.03375 C225.2601,766.72375 228.7791,786.28225 231.0321,804.61825 C233.0511,821.05225 231.1686,832.49575 234.6321,836.61925 C238.3656,841.06525 245.5776,836.80525 251.8686,842.44375 C258.1596,848.08375 262.7076,852.42625 278.8296,848.16175 C297.6831,843.17425 280.6086,838.80325 271.4016,831.11875 C255.1461,817.55125 252.9576,810.88675 251.6481,800.40325 C248.9631,778.93375 248.3061,762.31675 248.1981,751.45975 C248.1231,743.97025 241.6371,738.15925 234.1806,738.86575"/><g id="分组" transform="translate(231.000000, 820.232500)"><mask id="mask-2" fill="#fff"><use xlink:href="#path-1"/></mask><path id="Fill-5" fill="#253368" d="M1.19865,0.41475 C1.19865,0.41475 4.03965,3.84075 13.65915,10.89525 C21.24765,16.45875 26.16765,19.81425 30.07965,17.90175 C37.22115,14.40975 42.75915,12.55575 42.75915,12.55575 C42.75915,12.55575 49.69815,15.70125 54.97515,19.36125 C60.24915,23.01975 59.93565,29.45325 48.78315,31.75575 C37.62915,34.05675 31.13715,33.70275 20.09265,26.06175 C9.04665,18.41775 4.57665,22.01175 2.70165,17.42475 C-0.22785,10.25325 1.19865,0.41475 1.19865,0.41475" mask="url(#mask-2)"/></g><path id="Fill-7" fill="#253368" d="M196.9092,663.5011 L173.5692,583.8241 C168.9537,567.2836 180.0012,550.4761 197.0127,548.1511 C211.7382,546.1381 225.5127,555.8491 228.5652,570.3946 L245.7192,652.1281 C245.7192,652.1281 251.8827,675.1441 227.4792,680.5981 C203.7477,685.9036 196.9092,663.5011 196.9092,663.5011"/><path id="Fill-9" fill="#253368" d="M196.4169,651.21985 L222.3834,796.62685 C223.0029,800.10235 226.0614,802.61035 229.5909,802.5413 L254.5104,802.04035 C258.7059,801.95635 261.9369,798.30385 261.5049,794.12635 L246.5034,649.08985 C246.5034,649.08985 244.8804,624.33985 218.4639,627.12235 C193.8234,629.71735 196.4169,651.21985 196.4169,651.21985"/><path id="Fill-11" fill="#4E5C93" d="M222.1908,803.61775 L263.0418,802.80025 C263.9073,802.78225 264.5778,802.03975 264.5073,801.17725 L263.0748,783.67975 C263.0103,782.88925 262.3428,782.28625 261.5493,782.30275 L218.1363,783.17275 C217.1853,783.19075 216.4908,784.07875 216.7038,785.00575 L220.6983,802.45375 C220.8558,803.14675 221.4783,803.63275 222.1908,803.61775"/><path id="Fill-13" fill="#FFC6A0" d="M218.93445,719.39005 C212.29845,715.76905 203.98845,718.64305 201.02295,725.59705 C195.95295,737.48605 187.92495,755.66455 179.52945,772.12105 C172.00695,786.87055 164.04195,795.30055 164.60445,800.65555 C165.21195,806.42905 173.57295,806.93455 175.63095,815.12905 C177.68895,823.32355 179.02695,829.46755 194.77395,834.95455 C213.19095,841.37155 201.48645,828.19405 198.15645,816.67555 C192.27795,796.33255 194.19195,789.58405 198.97245,780.16405 C208.76445,760.86955 217.51845,746.73055 223.50495,737.67205 C227.63445,731.42305 225.51045,722.97655 218.93445,719.39005"/><path id="Fill-15" fill="#253368" d="M171.52635,786.05725 C171.52635,786.05725 171.96285,790.48675 175.98885,801.71575 C179.16435,810.57475 181.36485,816.10825 185.67735,816.71275 C193.54935,817.81375 199.17585,819.37675 199.17585,819.37675 C199.17585,819.37675 203.16585,825.86725 205.49085,831.85225 C207.81435,837.83725 203.95485,842.99275 193.42335,838.65925 C182.89185,834.32425 177.70935,830.40025 172.83285,817.88425 C167.95635,805.36975 162.23985,805.84675 163.25385,800.99425 C164.83935,793.41175 171.52635,786.05725 171.52635,786.05725"/><path id="Fill-17" fill="#253368" d="M274.43445,644.6551 L263.16495,562.3981 C260.61795,545.4166 243.66495,534.5926 227.18895,539.4241 C212.92695,543.6061 204.32595,558.1006 207.48345,572.6221 L225.23895,654.2266 C225.23895,654.2266 229.02195,677.7511 253.52295,672.7546 C277.35045,667.8946 274.43445,644.6551 274.43445,644.6551"/><path id="Fill-19" fill="#253368" d="M273.0708,656.8258 L209.5308,777.7858 C208.0113,780.6778 204.4188,782.0038 201.0603,780.9118 L177.3573,773.2093 C173.3643,771.9118 171.2478,767.7418 172.7733,764.1763 L225.7278,640.3483 C225.7278,640.3483 233.8668,618.9448 258.3948,629.1013 C281.2758,638.5753 273.0708,656.8258 273.0708,656.8258"/><path id="Fill-21" fill="#4E5C93" d="M206.64885,785.11675 L168.82485,769.66075 C168.02385,769.33375 167.66535,768.39775 168.04185,767.61925 L175.67235,751.80775 C176.01585,751.09375 176.85585,750.77275 177.58935,751.07125 L217.78485,767.49775 C218.66685,767.85775 218.99235,768.93475 218.46135,769.72375 L208.46085,784.56625 C208.06335,785.15575 207.30585,785.38675 206.64885,785.11675"/><path id="Fill-23" fill="#253368" d="M238.63665,612.712 L274.52565,578.611 C277.58115,576.3175 279.18615,572.5705 278.74215,568.7755 L281.73315,526.3405 L179.18715,527.965 L178.6644,572.884 C178.63215,575.6785 179.68965,578.3635 181.60515,580.396 C187.48365,586.627 202.21965,599.014 227.85165,612.3505 C231.33015,614.1595 235.59615,615.1855 238.63665,612.712"/><path id="Stroke-25" fill="#253368" fill-rule="nonzero" d="M279.217097,538.803071 C279.534732,538.796552 279.79751,539.048762 279.804152,539.366397 C279.809896,539.652268 279.606193,539.893706 279.333838,539.943887 L279.240703,539.953329 L186.344203,541.859829 C186.026568,541.866348 185.76379,541.614138 185.757148,541.296503 C185.751404,541.010632 185.955107,540.769194 186.227462,540.719013 L186.320597,540.709571 L279.217097,538.803071 Z"/><path id="Stroke-27" fill="#253368" fill-rule="nonzero" d="M225.753368,527.227148 C226.03924,527.221414 226.28067,527.425126 226.330841,527.697483 L226.340279,527.790618 L226.599779,540.458118 C226.606286,540.775753 226.354067,541.038522 226.036432,541.045152 C225.75056,541.050886 225.50913,540.847174 225.458959,540.574817 L225.449521,540.481682 L225.190021,527.814182 C225.183514,527.496547 225.435733,527.233778 225.753368,527.227148 Z"/><path id="Fill-29" fill="#FFC6A0" d="M195.89685,297.8212 C195.89685,297.8212 190.33485,267.0862 229.32135,266.8192 C251.12835,268.1332 252.26235,304.2262 252.26235,304.2262 C252.26235,304.2262 254.12085,311.7292 251.63085,319.6522 C248.84085,328.5262 240.68985,331.8247 229.82535,333.3037 C209.52285,333.5092 200.84835,322.7332 200.84835,322.7332 C200.84835,322.7332 186.93735,324.4132 187.30935,306.7972 C187.76535,290.4532 195.89685,297.8212 195.89685,297.8212"/><path id="Fill-31" fill="#253368" d="M198.16155,276.33925 C198.68505,284.29525 192.65805,291.16975 184.70055,291.69175 C176.74455,292.21375 169.87155,286.18825 169.34805,278.23225 C168.82455,270.27625 174.85155,263.40175 182.80905,262.87825 C190.76355,262.35625 197.63805,268.38175 198.16155,276.33925"/><path id="Fill-33" fill="#253368" d="M252.14685,305.3563 C252.14685,305.3563 256.34085,296.8423 258.53835,286.8748 C260.73585,276.9073 240.83535,258.5683 238.20735,257.1568 C235.57935,255.7453 234.21435,254.2498 217.27485,261.7003 C165.89385,267.1468 181.21635,313.5433 181.21635,313.5433 C181.21635,313.5433 175.50135,318.2788 179.74035,329.7238 C184.60935,341.1283 200.76135,340.4758 200.76135,340.4758 L200.12385,322.1773 C200.12385,322.1773 194.69985,322.9453 190.18335,316.9048 C185.66835,310.8643 188.70885,302.9623 191.19135,302.1658 C193.32735,300.3328 199.00185,300.8068 199.44585,307.5493 C199.66935,310.9438 205.63035,302.9113 207.30885,289.8208 C225.06585,285.1693 228.74835,272.3548 228.74835,272.3548 C228.74835,272.3548 230.16735,284.3023 227.65935,289.5373 C236.93835,286.0753 241.65585,280.6963 239.72535,275.4358 C250.76385,279.4633 252.14685,305.3563 252.14685,305.3563"/><path id="Fill-35" fill="#FFC6A0" d="M200.90955,342.7237 L199.57605,315.4642 L235.13205,313.9522 C235.13205,313.9522 236.21805,332.5522 237.41655,340.0477 C261.36255,351.2392 209.73255,364.2247 196.70955,350.6902 C192.68955,346.5097 200.90955,342.7237 200.90955,342.7237"/><path id="Fill-37" fill="#FFF" d="M231.4296,300.841 C231.2166,307.786 226.1706,313.267 220.1556,313.084 C214.1436,312.901 209.4396,307.1215 209.6496,300.178 C209.8626,293.233 214.9086,287.7505 220.9236,287.935 C226.9371,288.118 231.6411,293.896 231.4296,300.841"/><path id="Stroke-39" fill="#4E5C93" fill-rule="nonzero" d="M220.946413,287.185347 C214.492466,286.987383 209.125003,292.817099 208.899952,300.155009 C208.678082,307.491012 213.681137,313.63727 220.132781,313.833653 C226.587249,314.030023 231.954214,308.201341 232.179248,300.863991 C232.402684,293.527047 227.400001,287.38174 220.946413,287.185347 Z M220.900787,288.684653 C226.474537,288.854271 230.879504,294.265343 230.679948,300.81817 C230.478957,307.371586 225.753149,312.503952 220.178407,312.334347 C214.60659,312.164746 210.2011,306.752597 210.399257,300.200673 C210.597068,293.750931 215.177566,288.676988 220.635826,288.680498 L220.900787,288.684653 Z"/><path id="Fill-41" fill="#FFF" d="M255.5337,298.3258 C255.3222,305.2708 250.5867,310.7623 244.9557,310.5898 C239.3247,310.4188 234.9327,304.6498 235.1427,297.7048 C235.3557,290.7598 240.0912,285.2683 245.7222,285.4408 C251.3532,285.6118 255.7467,291.3808 255.5337,298.3258"/><path id="Stroke-43" fill="#4E5C93" fill-rule="nonzero" d="M245.745165,284.691152 C239.661938,284.504798 234.617833,290.3527 234.393052,297.681809 C234.171429,305.011196 238.849718,311.154722 244.932935,311.339454 C251.016229,311.52581 256.060161,305.677537 256.283352,298.34863 C256.508103,291.020507 251.828994,284.875903 245.745165,284.691152 Z M245.699435,286.190454 C250.877829,286.34771 254.985281,291.741615 254.784052,298.302809 C254.584212,304.864937 250.156462,309.998768 244.978665,309.840152 C239.800795,309.682912 235.693929,304.289777 235.892357,297.727468 C236.090365,291.271307 240.379883,286.19781 245.449305,286.186888 L245.699435,286.190454 Z"/><path id="Stroke-45" fill="#DD9987" fill-rule="nonzero" d="M233.426382,302.365211 C233.615454,302.163949 233.917732,302.132804 234.141592,302.277758 L234.221489,302.340382 L238.431989,306.295882 C238.637708,306.489141 238.665077,306.799613 238.510921,307.023919 L238.444598,307.103598 L234.412598,311.135598 C234.192928,311.355267 233.836772,311.355267 233.617102,311.135598 C233.42184,310.940335 233.400144,310.637233 233.552015,310.418006 L233.617102,310.340102 L237.239,306.718 L233.451211,303.160318 C233.249949,302.971246 233.218804,302.668968 233.363758,302.445108 L233.426382,302.365211 Z"/><path id="Stroke-47" fill="#F5222D" fill-rule="nonzero" d="M225.50686,313.756656 C225.591329,313.351147 225.988534,313.090892 226.394044,313.17536 L226.799746,313.254211 L226.9501,313.281874 C227.395662,313.362957 227.886804,313.444128 228.408329,313.519888 C229.494741,313.677705 230.56374,313.790543 231.55893,313.838922 C233.021758,313.910034 234.220382,313.83513 235.038289,313.596191 C235.435884,313.480039 235.852358,313.708194 235.968509,314.105789 C236.084661,314.503384 235.856506,314.919858 235.458911,315.036009 C234.447224,315.331558 233.101258,315.41567 231.486097,315.337153 C230.438062,315.286205 229.323094,315.168515 228.192695,315.004307 C227.922642,314.965078 227.660458,314.924448 227.407985,314.883107 L226.384372,314.702359 C226.255012,314.677709 226.155205,314.657806 226.088156,314.64384 C225.682647,314.559371 225.422392,314.162166 225.50686,313.756656 Z"/><g id="分组" transform="translate(231.000000, 295.232500)"><path id="Fill-49" fill="#FFF" d="M0.3783,2.3184 C0.3783,2.3184 2.1918,0.9294 3.9618,2.0829"/><path id="Stroke-51" stroke="#4E5C93" stroke-linecap="round" stroke-linejoin="round" stroke-width="1.5" d="M0.3783,2.3184 C0.3783,2.3184 2.1918,0.9294 3.9618,2.0829"/></g><path id="Stroke-52" fill="#DD9987" fill-rule="nonzero" d="M217.7967,331.472347 C219.29866,331.729989 221.008848,331.902893 222.887559,331.999303 C225.974805,332.157731 229.284661,332.104047 232.475203,331.918257 L233.579083,331.8478 L234.879673,331.745699 C235.188981,331.716744 235.463197,331.944015 235.492151,332.253323 C235.521106,332.562631 235.293835,332.836847 234.984527,332.865801 L234.474974,332.909055 L233.657784,332.970043 C233.308386,332.994412 232.935174,333.018378 232.540602,333.041354 C229.312413,333.229336 225.963841,333.283649 222.829903,333.122824 C220.909712,333.024286 219.156462,332.847028 217.6065,332.581153 C217.300312,332.52863 217.094675,332.237838 217.147197,331.93165 C217.194468,331.65608 217.434737,331.461958 217.705529,331.464178 L217.7967,331.472347 Z"/><path id="Fill-54" fill="#253368" d="M225.1557,299.4625 C225.2682,301.1695 224.6037,302.6035 223.6737,302.6635 C222.7422,302.725 221.8962,301.3915 221.7852,299.6845 C221.6727,297.9775 222.3357,296.545 223.2672,296.4835 C224.1972,296.422 225.0447,297.7555 225.1557,299.4625"/><path id="Fill-56" fill="#253368" d="M247.08885,298.30375 C247.19985,300.01075 246.53685,301.44475 245.60685,301.50475 C244.67535,301.56625 243.82935,300.23275 243.71685,298.52575 C243.60585,296.81875 244.26885,295.38625 245.20035,295.32475 C246.13035,295.26325 246.97635,296.59675 247.08885,298.30375"/><g id="分组" transform="translate(199.500000, 299.732500)"><line id="Fill-58" x1="10.15" x2=".364" y1=".445" y2="1.3" fill="#FFF"/><line id="Stroke-60" x1="10.15" x2=".364" y1=".445" y2="1.3" stroke="#4E5C93" stroke-linecap="round" stroke-linejoin="round" stroke-width="1.5"/></g><path id="Fill-61" fill="#597EF7" d="M243.8589,347.3116 L242.1639,347.2456 C243.2514,357.4456 204.8319,358.3111 199.0914,346.4011 C198.9459,346.0981 198.8304,345.8131 198.7359,345.5416 L194.0604,345.3586 L189.2169,522.6871 C189.2169,522.6871 222.4479,537.5161 254.7399,526.0051 C270.9954,384.6286 243.8589,347.3116 243.8589,347.3116"/><path id="Stroke-63" fill="#3C65D6" fill-rule="nonzero" d="M202.900235,360.073684 C203.034311,359.78566 203.376491,359.66086 203.664516,359.794935 L203.83689,359.87214 L204.024044,359.952892 C204.326835,360.081911 204.682775,360.226068 205.088989,360.381604 C206.253236,360.827382 207.584321,361.273678 209.059212,361.690466 C218.079335,364.239451 227.601259,364.515607 236.496121,361.057954 C237.084836,360.829106 237.668148,360.584281 238.245881,360.323231 C238.535399,360.192412 238.87615,360.321063 239.006969,360.610581 C239.137788,360.900099 239.009137,361.24085 238.719619,361.371669 C238.123073,361.64122 237.520787,361.894008 236.912963,362.130285 C227.750795,365.691846 217.98606,365.408648 208.746346,362.797609 C207.236974,362.371077 205.873188,361.913817 204.6776,361.456038 L204.198396,361.268809 C204.046878,361.208354 203.903638,361.149934 203.768856,361.093791 L203.178984,360.837965 C202.89096,360.703889 202.76616,360.361709 202.900235,360.073684 Z"/><path id="Fill-65" fill="#E4EBF7" d="M237.084,342.61675 C237.084,342.61675 246.513,365.25175 247.302,453.37525 C247.929,523.56175 244.533,646.06375 244.533,646.06375 C244.533,646.06375 275.079,643.77475 281.2755,632.12725 C287.6655,620.11975 287.8395,531.11125 287.433,486.22675 C286.6965,404.48275 289.3935,385.99225 282.786,367.69975 C275.1705,363.29875 263.1165,356.82625 251.3415,350.40325 C248.481,348.84325 243.51,344.64775 241.6935,343.64275 C236.7525,340.91275 237.084,342.61675 237.084,342.61675"/><path id="Stroke-67" fill="#96A7CA" fill-rule="nonzero" d="M281.147101,384.646863 C281.55769,384.592187 281.934862,384.880712 281.989537,385.291301 L282.13808,386.452622 L282.44932,389.018063 C282.554598,389.910117 282.665286,390.871402 282.780536,391.899141 L283.002663,393.911651 C283.520591,398.679255 284.034695,403.944952 284.518537,409.621948 C286.324447,430.811014 287.295901,452.588258 286.992521,473.511174 C286.986516,473.925344 286.645896,474.256227 286.231726,474.250456 C285.817556,474.244216 285.486673,473.903596 285.492679,473.489426 C285.783156,453.456385 284.901454,432.629346 283.236169,412.289216 L283.023955,409.749329 C282.506652,403.679722 281.954734,398.081789 281.400704,393.062429 L281.088167,390.294248 C281.000873,389.539085 280.916828,388.827502 280.836466,388.160921 L280.502663,385.489299 C280.447987,385.07871 280.736512,384.701538 281.147101,384.646863 Z"/><path id="Fill-69" fill="#E4EBF7" d="M154.62645,359.2897 C166.67295,353.8447 179.79195,351.8137 187.43295,347.7142 C192.32595,345.0877 196.29045,341.4952 200.11995,340.3207 C222.89145,450.7267 213.64995,587.9617 207.78795,651.1327 C178.92645,654.2257 150.77295,632.1277 150.77295,632.1277 C150.77295,632.1277 152.84895,530.9287 156.90795,473.4982 C160.28295,425.7277 151.54545,360.6817 154.62645,359.2897"/><path id="Stroke-71" fill="#96A7CA" fill-rule="nonzero" d="M199.39251,339.307342 C199.738687,339.079889 200.203705,339.176134 200.431158,339.52231 C200.637933,339.837016 200.57719,340.249938 200.304349,340.493303 L200.21619,340.560958 L188.525,348.242 L188.494778,348.812117 L188.483506,349.061245 C188.305578,353.198869 188.431599,358.851735 189.090671,365.859141 C190.021452,375.755405 191.876273,386.615059 194.861336,398.29368 L195.185499,399.548088 C195.736584,401.657654 196.279258,403.716036 196.863888,405.915855 L201.096881,421.72 C203.136076,429.376846 204.460658,434.633487 205.630219,439.843816 C208.057679,450.658022 209.661435,460.836327 210.893499,473.825327 C210.932613,474.23769 210.630036,474.603684 210.217673,474.642799 C209.80531,474.681913 209.439316,474.379336 209.400201,473.966973 C208.212352,461.444108 206.679372,451.559229 204.390514,441.178577 L203.939177,439.167076 C202.982061,434.970472 201.90011,430.641289 200.400496,424.948394 L198.889013,419.268374 L195.81089,407.791338 C195.069963,405.012153 194.408403,402.508072 193.734201,399.927212 C190.537787,387.691272 188.568724,376.328394 187.597262,365.999601 C186.931632,358.922473 186.804088,353.201282 186.984891,348.996801 L187.032906,348.077436 C187.042876,347.920544 187.050749,347.813565 187.05545,347.75725 C187.071432,347.565829 187.160026,347.389392 187.300596,347.262648 L187.39101,347.192842 L199.39251,339.307342 Z"/><path id="Stroke-73" fill="#96A7CA" fill-rule="nonzero" d="M236.926808,340.826738 C237.127469,340.508099 237.528416,340.392186 237.862996,340.53958 L237.961112,340.591758 L252.586112,349.801758 C252.763808,349.913661 252.886451,350.094936 252.92422,350.301508 L253.002044,350.765522 L253.148359,351.736031 C253.177192,351.937522 253.206877,352.150743 253.23733,352.375767 L253.283576,352.722166 C253.550276,354.746649 253.816688,357.221109 254.065148,360.161371 L254.190785,361.701869 C256.189358,387.110548 255.553964,424.643978 250.496827,475.904035 C250.456159,476.316247 250.089027,476.617444 249.676815,476.576777 C249.264603,476.536109 248.963406,476.168977 249.004073,475.756765 L249.307675,472.640785 C254.176907,422.0262 254.667931,385.108876 252.570475,360.287675 L252.463813,359.065929 C252.248566,356.679307 252.02239,354.633346 251.796425,352.918079 L251.622003,351.662753 L251.521135,351.004081 L251.502,350.892 L237.161788,341.861042 C236.843149,341.660381 236.727236,341.259434 236.87463,340.924854 L236.926808,340.826738 Z"/><path id="Stroke-75" fill="#96A7CA" fill-rule="nonzero" d="M155.58102,510.932995 L181.33002,515.513995 C181.665366,515.573656 181.913918,515.849982 181.945303,516.181012 L181.948074,516.2818 L179.840573,570.002803 C179.644661,574.996131 175.168781,578.696703 170.259271,577.994621 L170.004964,577.954364 L152.027464,574.835864 C151.619345,574.765069 151.345891,574.376833 151.416686,573.968714 C151.481581,573.594605 151.813215,573.333652 152.182393,573.347287 L152.283836,573.357936 L170.261451,576.476456 C174.299643,577.177595 178.037076,574.229428 178.328909,570.174679 L178.341726,569.944 L180.423,516.875 L155.31828,512.409805 C154.944455,512.343298 154.684933,512.010542 154.70016,511.641427 L154.711245,511.54003 C154.777752,511.166205 155.110508,510.906683 155.479623,510.92191 L155.58102,510.932995 Z"/><path id="Stroke-77" fill="#96A7CA" fill-rule="nonzero" d="M282.234973,513.02578 C282.631773,512.906941 283.049781,513.132273 283.16862,513.529073 C283.277555,513.892807 283.097292,514.27436 282.760854,514.426963 L282.665327,514.46272 L269.874,518.293 L268.568943,575.081885 C268.536433,576.464067 269.894352,577.432403 271.174095,576.992025 L271.310844,576.939406 L283.760844,571.627906 C284.141835,571.465366 284.582453,571.642454 284.744994,572.023444 C284.893989,572.372685 284.757602,572.772031 284.440377,572.961361 L284.349456,573.007594 L271.899216,578.319196 C269.631985,579.285526 267.12934,577.648315 267.069348,575.221657 L267.069348,575.047007 L268.387848,517.714007 C268.394489,517.425223 268.565774,517.169443 268.822395,517.050687 L268.922473,517.01278 L282.234973,513.02578 Z"/><path id="Fill-79" fill="#96A7CA" d="M361.6542,466.63705 L261.7332,467.576292 C257.9337,467.61055 255.1857,463.95805 256.2747,460.31755 L277.3407,389.89405 C278.0502,387.52405 280.2207,385.89205 282.6927,385.86955 L382.6167,384.930286 C386.4147,384.89455 389.1627,388.54855 388.0722,392.18905 L367.0062,462.61255 C366.2982,464.98255 364.1277,466.61305 361.6542,466.63705"/><g id="分组" transform="translate(259.500000, 383.732500)"><mask id="mask-4" fill="#fff"><use xlink:href="#path-3"/></mask><path id="Fill-81" fill="#253368" d="M106.37745,82.90455 L6.45645,83.8437925 C2.65695,83.87805 -0.09105,80.22555 0.99795,76.58505 L22.06545,6.16155 C22.77495,3.79155 24.94395,2.15955 27.41595,2.13705 L127.33995,1.19778615 C131.13795,1.16205 133.88595,4.81605 132.79695,8.45655 L111.72945,78.88005 C111.02145,81.25005 108.85095,82.88055 106.37745,82.90455" mask="url(#mask-4)"/></g><path id="Fill-83" fill="#FFC999" d="M374.5083,435.84385 C374.5083,435.84385 387.3828,430.36885 390.3993,431.91385 C395.0733,434.30785 388.1058,442.47085 388.1058,442.47085 C388.1058,442.47085 391.2033,446.82835 386.5968,450.56485 C386.5368,455.90035 383.0943,457.13785 383.0943,457.13785 C383.0943,457.13785 384.4353,461.72935 379.4613,463.10485 C374.4858,464.48035 366.0378,460.24285 369.7083,454.65985 C367.5033,449.91385 371.7078,447.68335 371.7078,447.68335 C371.7078,447.68335 370.4043,443.47585 374.5428,441.40285 C372.5448,438.95635 373.1703,436.42885 374.5083,435.84385"/><path id="Stroke-85" fill="#DD936F" fill-rule="nonzero" d="M385.882366,439.054769 C386.185974,439.006978 386.47084,439.214358 386.518631,439.517966 C386.561643,439.791214 386.397966,440.049279 386.14347,440.133 L386.055434,440.154231 L374.629934,441.952731 C374.326326,442.000522 374.04146,441.793142 373.993669,441.489534 C373.950657,441.216286 374.114334,440.958221 374.36883,440.8745 L374.456866,440.853269 L385.882366,439.054769 Z"/><path id="Stroke-87" fill="#DD936F" fill-rule="nonzero" d="M371.761337,447.128952 L381.734837,448.087452 C382.040774,448.116854 382.26495,448.3887 382.235548,448.694637 C382.209086,448.96998 381.986245,449.179097 381.718913,449.196733 L381.628363,449.195348 L371.654863,448.236848 C371.348926,448.207446 371.12475,447.9356 371.154152,447.629663 C371.180614,447.35432 371.403455,447.145203 371.670787,447.127567 L371.761337,447.128952 Z"/><path id="Stroke-89" fill="#DD936F" fill-rule="nonzero" d="M369.81307,454.113775 L379.08907,455.907775 C379.390825,455.966135 379.588135,456.258065 379.529775,456.55982 C379.477251,456.8314 379.235535,457.018379 378.967738,457.010515 L378.87773,457.000525 L369.60173,455.206525 C369.299975,455.148165 369.102665,454.856235 369.161025,454.55448 C369.213549,454.2829 369.455265,454.095921 369.723062,454.103785 L369.81307,454.113775 Z"/><path id="Fill-91" fill="#E4EBF7" d="M136.99995,471.99325 L136.99995,471.99325 C125.84745,469.00375 119.22795,457.54075 122.21895,446.38825 L141.94245,372.78025 C144.93045,361.62775 156.39495,355.00975 167.54595,357.99775 C178.69995,360.98725 185.31795,372.45025 182.32995,383.60275 L162.60495,457.21075 C159.61545,468.36325 148.15395,474.98125 136.99995,471.99325"/><path id="Fill-93" fill="#FFC6A0" d="M252.07215,474.8776 C252.07215,474.8776 234.66465,473.0911 231.94815,463.1371 C229.48665,454.1221 238.18365,450.5836 238.18365,450.5836 C238.18365,450.5836 246.27165,445.6966 256.65765,444.1246 C263.50065,443.0881 276.71265,442.4386 277.74165,445.9591 C279.08565,450.5491 264.09015,450.4156 264.00915,453.8941 C263.92815,457.4656 267.02565,457.7221 273.87315,460.6246 C278.15415,462.4381 283.08615,462.5416 286.42065,464.7706 C292.94115,469.1281 277.95915,479.7331 252.07215,474.8776"/><path id="Stroke-95" fill="#DD9987" fill-rule="nonzero" d="M264.676426,463.065863 C264.865714,462.819531 265.218855,462.773287 265.465187,462.962576 L265.656869,463.100579 L265.733489,463.153415 C265.967173,463.313264 266.246634,463.492326 266.571,463.685868 C267.503644,464.242353 268.60568,464.800168 269.870184,465.321582 C274.071194,467.053855 278.989876,467.974031 284.552092,467.648561 C284.862221,467.630413 285.128342,467.867112 285.146489,468.177242 C285.164637,468.487371 284.927938,468.753492 284.617808,468.771639 C278.878902,469.107449 273.792814,468.155955 269.441323,466.361632 C268.124406,465.818605 266.973291,465.235948 265.994556,464.651962 C265.736094,464.497744 265.503282,464.351419 265.296465,464.215 L264.935984,463.969004 C264.866406,463.919638 264.814257,463.881169 264.779713,463.854624 C264.533381,463.665336 264.487137,463.312195 264.676426,463.065863 Z"/><path id="Stroke-97" fill="#DD9987" fill-rule="nonzero" d="M261.310129,468.595181 C261.445974,468.315796 261.782584,468.199434 262.061969,468.335279 C262.437904,468.518069 262.819156,468.692753 263.205485,468.859469 C266.126492,470.120001 269.252976,470.89648 272.432623,471.277963 C274.447281,471.519675 276.249753,471.57947 277.719772,471.529309 L278.080281,471.514519 C278.30423,471.50375 278.457195,471.493135 278.533052,471.486372 C278.842485,471.458786 279.115692,471.687269 279.143278,471.996702 C279.170864,472.306135 278.942381,472.579342 278.632948,472.606928 L278.26945,472.63132 L278.134319,472.638221 C273.615975,472.855505 268.089684,472.192479 262.759737,469.892394 C262.35797,469.719016 261.961319,469.537277 261.570031,469.347021 C261.290646,469.211176 261.174284,468.874566 261.310129,468.595181 Z"/><path id="Stroke-99" fill="#DD9987" fill-rule="nonzero" d="M255.737254,471.707033 C255.901375,471.443264 256.248248,471.362483 256.512017,471.526604 L256.646593,471.605531 C256.835966,471.711733 257.138901,471.866103 257.55831,472.055443 C258.471277,472.467598 259.589102,472.881383 260.918052,473.268718 C263.638213,474.061537 266.868856,474.63623 270.631325,474.897552 C270.941238,474.919077 271.175023,475.187761 271.153498,475.497675 C271.131973,475.807588 270.863289,476.041373 270.553375,476.019848 C266.710836,475.752965 263.400785,475.164146 260.603258,474.348778 C259.223467,473.946624 258.056171,473.514527 257.095417,473.0808 L256.73416,472.913194 C256.346142,472.727882 256.07493,472.579637 255.917683,472.481796 C255.653914,472.317675 255.573133,471.970802 255.737254,471.707033 Z"/><path id="Fill-101" fill="#E4EBF7" d="M242.96385,439.51105 L241.91835,475.30705 L144.33285,475.45705 C132.79185,475.12105 123.70935,465.49105 124.04685,453.95005 C124.38285,442.40905 134.01285,433.32655 145.55535,433.66405 L242.96385,439.51105 Z"/><path id="Stroke-103" fill="#96A7CA" fill-rule="nonzero" d="M152.032836,431.521247 L243.550836,438.778247 C243.916058,438.807208 244.201647,439.09404 244.237709,439.449364 L244.241229,439.547827 L243.194229,475.345327 C243.183368,475.716674 242.903885,476.018538 242.545211,476.066694 L242.445571,476.073399 L144.333571,476.206901 C143.919357,476.207463 143.58255,475.872134 143.58255,475.457921 C143.58255,475.078225 143.863761,474.764046 144.229768,474.713886 L144.331529,474.706901 L241.715,474.574 L242.72,440.217 L151.914264,433.016553 C151.535757,432.986539 151.245247,432.680463 151.224677,432.311608 L151.225897,432.209614 C151.255911,431.831107 151.561987,431.540597 151.930842,431.520027 L152.032836,431.521247 Z"/><path id="Stroke-105" fill="#96A7CA" fill-rule="nonzero" d="M227.839501,441.07542 C228.219035,441.086508 228.524457,441.377705 228.563408,441.745074 L228.56728,441.847001 L227.67928,472.243001 C227.667184,472.657038 227.321735,472.982876 226.907699,472.97078 C226.528165,472.959692 226.222743,472.668495 226.183792,472.301126 L226.17992,472.199199 L227.06792,441.803199 C227.080016,441.389162 227.425465,441.063324 227.839501,441.07542 Z"/></g></svg>