<svg xmlns="http://www.w3.org/2000/svg" xmlns:xlink="http://www.w3.org/1999/xlink" width="512" height="1024" version="1.1" viewBox="0 0 512 1024"><title>2.人物组件/8.程序员/坐姿/工作</title><desc>Created with Sketch.</desc><defs><polygon id="path-1" points="1.116 .418 59.491 .418 59.491 50.379 1.116 50.379"/><polygon id="path-3" points="1.174 .139 49.488 .139 49.488 85.226 1.174 85.226"/></defs><g id="2.人物组件/8.程序员/坐姿/工作" fill="none" fill-rule="evenodd" stroke="none" stroke-width="1"><path id="Fill-1" fill="#FFC999" d="M185.74355,641.6437 L185.74355,641.6437 C187.47155,646.3207 192.11855,649.2607 197.08505,648.8182 L297.74555,639.8707 C308.90705,638.8792 316.85255,628.5817 314.97905,617.5327 C313.10405,606.4642 302.17655,599.3572 291.29855,602.1322 L193.37555,627.1087 C187.02305,628.7287 183.46955,635.4937 185.74355,641.6437"/><path id="Fill-3" fill="#394676" d="M140.2235,829.43845 C140.2235,829.43845 123.968,843.34495 99.974,834.63445 C90.9485,831.35845 82.5575,837.46945 87.437,845.81695 C91.052,851.99995 99.542,857.69245 111.2555,861.98245 C126.947,867.72895 128.2415,858.71095 136.0475,863.41945 C140.573,866.14795 151.076,869.32045 153.59,866.16895 C157.982,860.66095 158.759,857.03845 163.025,850.05595 C183.7985,816.05545 176.288,801.37495 140.2235,829.43845"/><path id="Fill-5" fill="#394676" d="M223.98485,829.16455 C223.98485,829.16455 219.89585,843.32755 201.00935,858.30655 C188.62085,868.13155 201.79085,878.54155 227.95835,867.01405 C242.87735,860.44105 237.17585,854.24305 245.94785,852.07555 C251.03135,850.81855 260.52335,846.01855 259.93985,842.54005 C258.91835,836.45905 256.80335,833.80405 254.61935,826.92505 C243.97985,793.43005 228.13085,789.46405 223.98485,829.16455"/><path id="Fill-7" fill="#4E5C93" d="M255.167,820.9522 L238.76,673.8187 C237.4325,661.9042 224.846,653.4442 211.2995,655.3612 C198.221,657.2122 189.4025,668.0347 191.6975,679.4197 L221.1065,825.2362 C221.1065,825.2362 235.8845,830.3302 255.167,820.9522"/><path id="Fill-9" fill="#ADC6FF" d="M408.9257,640.27435 C408.9257,640.27435 324.9557,646.61785 319.2512,638.35285 C316.7402,634.71535 314.9387,652.88785 310.3367,682.87435 C317.7542,696.58735 331.9577,707.59885 350.5562,707.08135 C380.9642,706.23685 408.6632,702.80785 411.7952,682.45285 C414.0482,667.81135 412.1732,652.14985 408.9257,640.27435"/><path id="Fill-11" fill="#ADC6FF" d="M317.96045,630.69175 L317.13245,640.79425 C317.13245,640.79425 325.22345,642.19525 353.49545,643.64125 C382.17845,645.10825 408.84845,641.79625 408.84845,641.79625 L408.97595,632.60125 C408.97595,632.60125 351.26045,634.30525 317.96045,630.69175"/><path id="Fill-13" fill="#ADC6FF" d="M215.16785,684.73165 L215.16785,684.73165 C215.69435,697.67665 226.35935,707.89165 239.31635,707.855745 L383.75885,707.45815 C400.52435,707.41165 413.89835,693.44665 413.21885,676.69165 C412.53785,659.93815 398.07635,647.10115 381.36035,648.41515 L237.36185,659.72665 C224.44685,660.74065 214.64135,671.78665 215.16785,684.73165"/><path id="Fill-15" fill="#ADC6FF" d="M170.039,841.0942 L259.0385,696.8902 C266.2475,685.2127 262.094,669.8752 249.9815,663.4267 C238.2845,657.2017 223.7555,661.7422 217.6865,673.5217 L139.949,824.3917 C139.949,824.3917 148.181,837.9847 170.039,841.0942"/><path id="Fill-17" fill="#FFC999" d="M293.51945,635.27305 L293.51945,635.27305 C303.60695,636.67105 313.02995,629.95255 314.99345,619.96255 L332.79545,529.46155 C335.41295,516.15205 326.30345,503.37805 312.86645,501.51355 C299.58845,499.67305 287.44145,509.24155 286.12295,522.58255 L277.05095,614.36905 C276.03845,624.62905 283.30745,633.85705 293.51945,635.27305"/><path id="Fill-19" fill="#597EF7" d="M277.0766,580.8628 L321.7226,586.8658 L330.8186,527.2573 C332.8091,514.2103 323.7146,502.0663 310.6331,500.3083 C297.5531,498.5488 285.5726,507.8593 284.0471,520.9693 L277.0766,580.8628 Z"/><path id="Fill-21" fill="#FFC999" d="M335.00825,484.486 L333.28925,445.522 L368.33825,443.683 L374.21525,480.505 C375.98975,491.6275 368.11175,501.9775 356.92025,503.23 C345.56825,504.5005 335.51225,495.898 335.00825,484.486"/><path id="Fill-23" fill="#FFC999" d="M323.78165,443.61985 C323.78165,443.61985 317.88965,438.64285 316.02365,442.58485 C314.15615,446.52535 319.43315,459.40285 325.24715,459.16135 C333.00815,458.83735 323.78165,443.61985 323.78165,443.61985"/><path id="Fill-25" fill="#FFC999" d="M360.851,474.2182 C360.851,474.2182 350.4545,484.6507 334.508,476.9677 C323.027,471.4387 319.2665,447.5947 319.571,429.7852 C319.7435,419.7067 323.7935,413.8852 333.2045,409.9567 C342.6185,406.0297 368.9375,403.2712 372.065,432.5617 C375.5465,465.1852 360.851,474.2182 360.851,474.2182"/><path id="Stroke-27" fill="#DD936F" fill-rule="nonzero" d="M336.887304,432.714305 C337.135069,432.624248 337.406028,432.727884 337.534339,432.94779 L337.575445,433.035554 L339.769945,439.073054 C339.788127,439.123079 339.798721,439.175386 339.801506,439.228247 L339.7998,439.307739 L338.228,455.703 L344.61134,455.113778 C344.877127,455.089218 345.115541,455.262761 345.180459,455.513002 L345.195472,455.59909 C345.220032,455.864877 345.046489,456.103291 344.796248,456.168209 L344.71016,456.183222 L337.68116,456.832722 C337.376321,456.86089 337.116568,456.630615 337.096001,456.336662 L337.0972,456.246761 L338.719,439.325 L336.566055,433.402446 C336.475998,433.154681 336.579634,432.883722 336.79954,432.755411 L336.887304,432.714305 Z"/><path id="Stroke-29" fill="#253368" fill-rule="nonzero" d="M358.49742,428.52326 C359.289805,428.281563 360.128094,428.727985 360.36979,429.52037 C360.611487,430.312755 360.165065,431.151044 359.37268,431.39274 C357.791885,431.874921 355.107627,432.018164 350.703404,431.991524 L348.962464,431.974088 L344.939272,431.918446 C344.110875,431.911388 343.445047,431.234119 343.452104,430.405722 C343.459162,429.577325 344.136431,428.911497 344.964828,428.918554 L350.266938,428.988275 L351.512138,428.9941 C355.103839,428.996101 357.403651,428.856885 358.49742,428.52326 Z"/><path id="Stroke-31" fill="#FF7A46" fill-rule="nonzero" d="M349.957114,459.254508 C350.345808,459.111364 350.776948,459.310421 350.920092,459.699114 C351.063236,460.087808 350.864179,460.518948 350.475486,460.662092 L350.200052,460.756644 C350.045224,460.807181 349.847504,460.868461 349.608204,460.938053 C348.919614,461.138305 348.117844,461.337889 347.209922,461.523745 C344.490906,462.080342 341.405099,462.40122 338.016784,462.367262 C337.602591,462.363111 337.270187,462.023977 337.274299,461.609784 C337.278489,461.195591 337.617623,460.863187 338.031816,460.867338 C341.309955,460.900191 344.290517,460.590257 346.909102,460.054219 C347.631959,459.906247 348.281919,459.74978 348.854853,459.592285 L349.189336,459.497723 C349.573925,459.38588 349.832232,459.300499 349.957114,459.254508 Z"/><g id="分组" transform="translate(315.500000, 395.081500)"><mask id="mask-2" fill="#fff"><use xlink:href="#path-1"/></mask><path id="Fill-33" fill="#253368" d="M54.50475,50.3793 L59.06475,38.5083 C59.06475,38.5083 61.02525,21.8628 56.54175,15.2463 C49.58775,4.9788 36.23325,6.6378 27.99375,4.5498 C19.75575,2.4618 19.55775,-0.2187 16.38075,0.5538 C13.20375,1.3278 1.61625,11.3013 1.14525,20.5428 C0.72825,28.6668 4.84725,48.8373 4.84725,48.8373 C4.84725,48.8373 5.25225,30.5628 6.50475,25.6188 C12.53175,22.3473 35.39175,19.8813 45.23925,21.8508 C45.23925,21.8508 46.69425,27.9093 47.61375,32.1873 C53.09925,35.3223 54.50475,50.3793 54.50475,50.3793" mask="url(#mask-2)"/></g><path id="Stroke-35" fill="#DD936F" fill-rule="nonzero" d="M369.442355,460.585204 C369.547535,460.307905 369.857596,460.168375 370.134896,460.273555 C370.412195,460.378735 370.551725,460.688796 370.446545,460.966096 C369.178579,464.308991 367.603458,467.204714 365.789707,469.68385 C364.025666,472.09504 362.132548,473.988309 360.235817,475.421405 C359.568637,475.925501 358.947412,476.336451 358.387714,476.661583 C358.046563,476.85976 357.798083,476.986744 357.684738,477.036824 C349.927794,481.06095 342.788605,481.018396 336.744744,478.522806 C335.844923,478.151257 335.050492,477.752551 334.368326,477.352763 L334.044525,477.157887 C333.800743,477.006927 333.622429,476.885814 333.512095,476.803999 C333.273868,476.627348 333.22395,476.291022 333.400601,476.052795 C333.577252,475.814568 333.913578,475.76465 334.151805,475.941301 L334.29035,476.038823 C334.432318,476.135013 334.640214,476.267255 334.911365,476.426165 C335.551975,476.801598 336.302187,477.178112 337.154644,477.530103 C342.808679,479.86473 349.466407,479.94953 356.777662,476.294249 L357.41339,475.973762 C357.526077,475.915134 357.671987,475.835291 357.84824,475.732905 C358.371199,475.429114 358.956363,475.042019 359.588371,474.564498 C361.403607,473.192976 363.222454,471.373984 364.922915,469.049699 C366.679932,466.64811 368.208747,463.837516 369.442355,460.585204 Z"/><path id="Stroke-37" fill="#393C68" fill-rule="nonzero" d="M343.152029,438.038226 C343.744091,438.002261 344.253208,438.453066 344.289174,439.045129 C344.322742,439.59772 343.932278,440.078057 343.398698,440.168888 L343.282271,440.182274 L338.096771,440.497274 C337.504709,440.533239 336.995592,440.082434 336.959626,439.490371 C336.926058,438.93778 337.316522,438.457443 337.850102,438.366612 L337.966529,438.353226 L343.152029,438.038226 Z"/><path id="Stroke-39" fill="#393C68" fill-rule="nonzero" d="M340.183394,441.000504 C341.156972,440.905185 342.156658,441.075157 343.134492,441.411288 C343.604858,441.572976 343.970434,441.737119 344.194962,441.856154 C344.719023,442.133987 344.91863,442.784051 344.640796,443.308112 C344.382808,443.79474 343.803866,444.001609 343.302884,443.80623 L343.043902,443.682929 C342.897552,443.615488 342.689482,443.529682 342.43622,443.442623 C341.725102,443.198175 341.014684,443.077386 340.392695,443.138283 C339.836722,443.192716 339.385358,443.387513 339.023233,443.756523 L338.89159,443.903134 C338.514609,444.361083 337.837765,444.42672 337.379816,444.04974 C336.921867,443.672759 336.85623,442.995915 337.23321,442.537966 C337.998034,441.608873 339.018297,441.114574 340.183394,441.000504 Z"/><path id="Stroke-41" fill="#253368" fill-rule="nonzero" d="M327.001025,429.307664 C329.266464,429.083892 331.642352,429.407751 333.973785,430.079199 C335.064659,430.393368 335.905746,430.710635 336.403378,430.932749 C337.159871,431.270404 337.499405,432.157386 337.161751,432.913878 C336.824096,433.670371 335.937114,434.009905 335.180622,433.672251 L334.985067,433.590154 C334.896926,433.554542 334.786362,433.511193 334.654972,433.461631 C334.205338,433.292024 333.697157,433.121466 333.143538,432.962025 C331.146873,432.38699 329.129584,432.112012 327.295919,432.293135 C325.688845,432.451875 324.320674,432.95587 323.224708,433.849191 C322.582571,434.372595 321.637714,434.276344 321.114309,433.634208 C320.590905,432.992071 320.687156,432.047214 321.329292,431.523809 C322.91672,430.229899 324.8411,429.521013 327.001025,429.307664 Z"/><path id="Stroke-43" fill="#DD936F" fill-rule="nonzero" d="M345.793865,465.558361 C346.089635,465.536499 346.347127,465.758545 346.368989,466.054315 C346.388665,466.320508 346.210775,466.555696 345.959384,466.616009 L345.873035,466.629439 L341.652035,466.941439 C341.356265,466.963301 341.098773,466.741255 341.076911,466.445485 C341.057235,466.179292 341.235125,465.944104 341.486516,465.883791 L341.572865,465.870361 L345.793865,465.558361 Z"/><path id="Stroke-45" fill="#393C68" fill-rule="nonzero" d="M370.814733,435.910812 C371.40603,435.863914 371.923389,436.305236 371.970288,436.896533 C372.01406,437.44841 371.632537,437.935879 371.100727,438.036553 L370.984567,438.052088 L362.493067,438.725588 C361.90177,438.772486 361.384411,438.331164 361.337512,437.739867 C361.29374,437.18799 361.675263,436.700521 362.207073,436.599847 L362.323233,436.584312 L370.814733,435.910812 Z"/><path id="Fill-47" fill="#FFF" d="M361.64795,436.02385 L345.42845,437.21935 C344.29745,437.30335 343.44695,438.28435 343.53845,439.41685 C343.70945,441.52885 344.07845,444.90685 344.84045,447.76585 C345.74045,451.13935 348.97145,453.00685 352.46045,452.91085 C356.81795,452.79085 360.71795,452.50885 362.52245,450.10885 C365.27345,446.45185 364.11995,440.85235 363.83645,437.86285 C363.73145,436.76485 362.74745,435.94285 361.64795,436.02385"/><path id="Stroke-49" fill="#253368" fill-rule="nonzero" d="M361.621666,435.667067 L345.401953,436.862583 C344.07107,436.961428 343.074532,438.117237 343.181862,439.44566 C343.428366,442.490202 343.846824,445.42692 344.494767,447.857984 C345.404758,451.268931 348.660981,453.373278 352.47029,453.268465 L353.264725,453.243215 C358.687912,453.045952 361.245739,452.402185 362.808392,450.323843 C363.928772,448.834483 364.496114,446.97053 364.639231,444.743274 C364.729366,443.340572 364.660733,441.99284 364.454553,440.12788 L364.223609,438.135841 C364.211967,438.026607 364.20178,437.925851 364.192602,437.829075 C364.069185,436.538479 362.91654,435.571674 361.621666,435.667067 Z M361.674248,436.380632 C362.582032,436.313756 363.394064,436.994864 363.480325,437.896906 L363.530933,438.384206 L363.69386,439.77096 C363.933941,441.829176 364.018845,443.240124 363.925204,444.697393 C363.790321,446.796497 363.262827,448.529535 362.23656,449.893787 C360.787015,451.821694 358.190811,452.395158 352.450602,452.553236 C348.954587,452.649429 346.005046,450.743277 345.18611,447.673633 C344.551466,445.292466 344.138366,442.393349 343.895033,439.387979 C343.819769,438.456429 344.518827,437.645644 345.454947,437.576117 L361.674248,436.380632 Z"/><path id="Fill-51" fill="#FFF" d="M336.3383,437.7085 L317.9768,439.0615 C317.4938,441.796 318.9143,452.1235 322.2308,454.1155 C326.6153,456.0145 335.0693,454.429 336.2303,452.0785 C337.9883,448.513 338.2508,441.9385 338.0093,439.135 C337.9358,438.28 337.1933,437.6455 336.3383,437.7085"/><path id="Stroke-53" fill="#253368" fill-rule="nonzero" d="M336.312011,437.351717 L317.95051,438.704717 C317.787246,438.716748 317.652978,438.838063 317.624503,438.999273 C316.92256,442.973319 319.084391,452.642984 322.046596,454.422182 C326.441341,456.329019 335.230192,454.911084 336.551055,452.236933 C338.073719,449.148732 338.708331,443.08145 338.36573,439.104296 C338.275452,438.054126 337.362283,437.274329 336.312011,437.351717 Z M336.36459,438.065283 C337.023837,438.016707 337.596107,438.505394 337.652865,439.165641 C337.985284,443.0246 337.363238,448.971749 335.909433,451.920294 C334.78948,454.187691 326.416499,455.538532 322.372984,453.787219 L322.228931,453.692218 C319.789342,451.943437 317.837428,443.446579 318.267407,439.559124 L318.287,439.397 L336.36459,438.065283 Z"/><path id="Stroke-55" fill="#393C68" fill-rule="nonzero" d="M363.31038,434.93689 C363.900585,434.877813 364.426932,435.308376 364.48601,435.89858 C364.541149,436.449438 364.169756,436.944668 363.640134,437.056283 L363.52432,437.07421 L343.45882,439.08271 C342.868615,439.141787 342.342268,438.711224 342.28319,438.12102 C342.228051,437.570162 342.599444,437.074932 343.129066,436.963317 L343.24488,436.94539 L363.31038,434.93689 Z"/><path id="Stroke-57" fill="#393C68" fill-rule="nonzero" d="M337.513749,437.2304 C338.105853,437.195136 338.614436,437.646544 338.6497,438.238649 C338.682613,438.79128 338.291581,439.271154 337.757894,439.361352 L337.641451,439.3746 L317.920951,440.5491 C317.328847,440.584364 316.820264,440.132956 316.785,439.540851 C316.752087,438.98822 317.143119,438.508346 317.676806,438.418148 L317.793249,438.4049 L337.513749,437.2304 Z"/><path id="Fill-59" fill="#FFC999" d="M371.6411,436.07695 C373.4666,433.71445 376.6031,432.76195 379.1486,434.95795 C383.2496,438.49645 381.5381,453.58045 371.7566,455.31745 C367.9586,455.22595 368.7956,439.76245 371.6411,436.07695"/><path id="Stroke-61" fill="#DD936F" fill-rule="nonzero" d="M375.943036,436.950377 C376.206986,436.815142 376.530588,436.919486 376.665823,437.183436 C376.801058,437.447386 376.696714,437.770988 376.432764,437.906223 L376.306839,437.976087 C376.228364,438.021974 376.127776,438.084201 376.010287,438.162349 C375.679907,438.382102 375.349111,438.642569 375.041884,438.940812 C373.871163,440.077297 373.375232,441.396488 373.877874,442.924086 C374.008331,443.319593 374.182709,443.500636 374.587866,443.6973 L374.855293,443.817812 C375.723124,444.196166 376.122225,444.556742 376.299034,445.438298 C376.570615,446.800405 376.00372,447.89762 374.935271,448.70899 C374.425944,449.095768 373.920975,449.338569 373.566963,449.459478 C373.286304,449.555334 372.981078,449.405522 372.885222,449.124863 C372.789366,448.844204 372.939178,448.538978 373.219837,448.443122 L373.314103,448.407196 C373.373583,448.382914 373.450641,448.349118 373.541045,448.305649 C373.795723,448.183194 374.050494,448.032306 374.285742,447.853661 C375.056286,447.268517 375.426098,446.552753 375.245885,445.6489 C375.161347,445.227401 375.029283,445.079324 374.562031,444.863201 L374.29716,444.745906 C373.536484,444.40934 373.11491,444.03961 372.857804,443.260142 C372.208536,441.286926 372.855231,439.566698 374.293802,438.170195 C374.6516,437.822861 375.033331,437.522288 375.415477,437.268103 C375.647178,437.113986 375.830824,437.007868 375.943036,436.950377 Z"/><path id="Stroke-63" fill="#253368" fill-rule="nonzero" d="M330.874651,442.276527 C332.941334,442.124285 334.711765,443.873516 334.878711,446.132729 C334.909236,446.545816 334.599108,446.905435 334.186021,446.935961 C333.772934,446.966486 333.413315,446.656358 333.382789,446.243271 C333.273801,444.768379 332.176947,443.684658 330.984799,443.772477 C329.79209,443.860257 328.866871,445.092344 328.974755,446.568327 C329.00495,446.981438 328.694535,447.340809 328.281423,447.371005 C327.868312,447.4012 327.508941,447.090785 327.478745,446.677673 C327.313561,444.417737 328.807212,442.428684 330.874651,442.276527 Z"/><path id="Stroke-65" fill="#253368" fill-rule="nonzero" d="M353.792301,440.587223 C355.860034,440.435044 357.629328,442.183719 357.796311,444.443429 C357.826836,444.856516 357.516708,445.216135 357.103621,445.246661 C356.690534,445.277186 356.330915,444.967058 356.300389,444.553971 C356.191356,443.078471 355.095483,441.99537 353.902449,442.083173 C352.71103,442.170939 351.785988,443.403264 351.893855,444.879027 C351.92405,445.292138 351.613635,445.651509 351.200523,445.681705 C350.787412,445.7119 350.428041,445.401485 350.397845,444.988373 C350.232686,442.728779 351.725981,440.739438 353.792301,440.587223 Z"/><path id="Fill-67" fill="#597EF7" d="M408.34415,615.6112 C408.34415,615.6112 408.71315,578.3617 410.94965,561.5872 C413.48465,542.5822 421.34465,508.0627 415.55765,503.4322 C407.11115,496.6747 381.22415,488.2567 381.22415,488.2567 C381.22415,488.2567 368.25065,489.7447 353.66165,492.8512 C342.11315,495.3112 343.71065,488.0542 329.70965,490.3687 C323.78015,491.3482 302.82515,498.6247 298.99265,502.8682 C288.63965,514.3282 296.40665,535.3117 300.68165,555.8017 C307.06715,586.4197 317.01065,614.3662 317.01065,614.3662 C317.01065,614.3662 310.01165,627.8947 315.92465,634.6522 C319.25315,638.1082 318.79415,636.5482 337.24115,636.5932 C358.23965,636.6442 402.07865,635.5672 405.24965,634.4407 C415.45265,630.8137 408.34415,615.6112 408.34415,615.6112"/><polygon id="Fill-69" fill="#597EF7" points="334.89 484.727 349.788 493.118 334.714 508.676 328.876 490.774"/><polygon id="Fill-71" fill="#597EF7" points="349.438 493.485 362.683 512.038 382.152 489.162 373.522 478.749"/><path id="Stroke-73" fill="#1D39C4" fill-rule="nonzero" d="M348.535179,494.957544 C348.946304,495.008039 349.238651,495.382255 349.188156,495.793379 L349.132623,496.28355 L349.015928,497.427305 L348.900122,498.685951 C348.774314,500.118756 348.64969,501.757625 348.531899,503.598873 L348.43366,505.206327 C347.707672,517.659447 347.612229,533.083082 348.520775,551.233579 C349.825794,577.304589 353.072593,605.791219 358.685463,636.416746 C358.760134,636.824174 358.490381,637.214992 358.082954,637.289663 C357.675526,637.364334 357.284708,637.094581 357.210037,636.687154 C351.585132,605.99596 348.3309,577.444105 347.022651,551.308569 L346.909463,548.949352 C346.102926,531.371546 346.244658,516.41442 346.984738,504.306107 L347.034959,503.503109 C347.153534,501.649609 347.279088,499.998557 347.405969,498.553638 L347.522923,497.282612 L347.691826,495.672987 C347.694685,495.648842 347.697195,495.628018 347.699344,495.610521 C347.745631,495.233657 348.063934,494.956598 348.433333,494.951933 L348.535179,494.957544 Z"/><path id="Stroke-75" fill="#1D39C4" fill-rule="nonzero" d="M392.764704,530.851294 L377.779793,531.345305 C373.178604,531.492807 368.336031,531.644586 363.319619,531.797699 C362.901496,531.810461 362.574632,532.162814 362.593243,532.580717 L362.669151,534.156262 C362.937789,539.331929 363.361173,543.747889 363.898783,547.457097 C364.213219,549.626521 364.549086,551.432697 364.887535,552.900281 L364.972191,553.260137 C365.075803,553.691817 365.173853,554.067805 365.264806,554.390103 L365.331667,554.621791 C365.39885,554.849232 365.448359,555.001374 365.477202,555.082125 C365.527382,555.222616 365.61832,555.344949 365.73839,555.433487 L379.67489,565.709987 C379.940603,565.905918 380.303188,565.905058 380.567968,565.707868 L393.800968,555.852868 C393.996059,555.707578 394.108572,555.476697 394.103001,555.233517 L393.540288,531.583017 C393.530365,531.165807 393.181785,530.83694 392.764704,530.851294 Z M392.058,532.376 L392.594,554.881 L380.118,564.172 L366.822,554.369 L366.77022,554.196861 C366.668473,553.852408 366.55431,553.424776 366.430764,552.910048 C366.102097,551.540724 365.772419,549.834408 365.460792,547.766469 L365.304475,546.68714 C364.813694,543.160473 364.42456,539.000171 364.171471,534.16175 L364.127,533.274 L380.559526,532.756555 L392.058,532.376 Z"/><path id="Fill-77" fill="#FFF" d="M349.60985,511.0429 C349.74785,512.3719 350.75885,513.3559 351.86435,513.2404 C352.97135,513.1249 353.75885,511.9549 353.61935,510.6259 C353.48135,509.2969 352.47185,508.3129 351.36485,508.4284 C350.25785,508.5439 349.47185,509.7139 349.60985,511.0429"/><path id="Fill-79" fill="#FFF" d="M350.0288,538.1443 C350.1683,539.4733 351.1778,540.4573 352.2848,540.3418 C353.3918,540.2263 354.1778,539.0563 354.0398,537.7273 C353.9018,536.3983 352.8908,535.4143 351.7838,535.5298 C350.6768,535.6453 349.8908,536.8153 350.0288,538.1443"/><path id="Fill-81" fill="#FFF" d="M350.8739,563.2738 C351.0119,564.6028 352.0229,565.5868 353.1299,565.4713 C354.2369,565.3558 355.0229,564.1858 354.8849,562.8568 C354.7454,561.5278 353.7359,560.5438 352.6289,560.6593 C351.5219,560.7748 350.7359,561.9448 350.8739,563.2738"/><path id="Fill-83" fill="#FFF" d="M352.9862,590.5144 C353.1242,591.8434 354.1337,592.8274 355.2407,592.7119 C356.3477,592.5964 357.1337,591.4264 356.9957,590.0974 C356.8577,588.7684 355.8467,587.7844 354.7412,587.8999 C353.6342,588.0154 352.8467,589.1854 352.9862,590.5144"/><path id="Fill-85" fill="#FFF" d="M357.09215,620.80765 C357.23015,622.13665 358.24115,623.12065 359.34815,623.00515 C360.45365,622.88965 361.24115,621.71965 361.10165,620.39065 C360.96365,619.06165 359.95415,618.07765 358.84715,618.19315 C357.74015,618.30865 356.95415,619.47865 357.09215,620.80765"/><path id="Stroke-87" fill="#1D39C4" fill-rule="nonzero" d="M379.46598,487.799002 C379.702688,487.459087 380.170133,487.375422 380.510048,487.61213 C380.819062,487.827319 380.916299,488.2332 380.753582,488.560601 L380.69692,488.656198 L366.37492,509.222698 C366.135392,509.566662 365.667244,509.642455 365.333894,509.411862 L365.246596,509.341348 L349.136596,494.243848 C348.834359,493.960607 348.81896,493.485983 349.102202,493.183746 C349.359694,492.908985 349.775354,492.871281 350.075875,493.0795 L350.162304,493.149352 L365.639,507.653 L379.46598,487.799002 Z"/><path id="Stroke-89" fill="#1D39C4" fill-rule="nonzero" d="M328.039415,492.139869 C328.393155,492.001895 328.788029,492.150735 328.967321,492.473739 L329.010681,492.566065 L335.842,510.081 L348.548456,493.140092 C348.774395,492.838849 349.183449,492.755966 349.504916,492.930113 L349.598458,492.990106 C349.899701,493.216045 349.982584,493.625099 349.808437,493.946566 L349.748444,494.040108 L336.233444,512.059608 C335.90269,512.5006 335.238435,512.440216 334.98064,511.979571 L334.934719,511.882135 L327.613219,493.111135 C327.462702,492.725237 327.653517,492.290386 328.039415,492.139869 Z"/><path id="Stroke-91" fill="#1D39C4" fill-rule="nonzero" d="M298.861097,534.347393 C299.273133,534.304976 299.64154,534.604611 299.683957,535.016647 C300.793338,545.793009 302.415561,555.441622 304.769862,565.684658 L305.111195,567.152178 C306.471346,572.932453 308.030581,578.827683 310.218972,586.571306 L318.297232,614.725837 C318.344952,614.89501 318.331737,615.07557 318.259894,615.235992 C314.94899,622.62909 315.30962,628.472195 317.873246,632.875224 C318.302623,633.61268 318.76122,634.240893 319.217343,634.760007 L319.429435,634.994092 L319.618,635.188 L320.43306,635.245344 C325.12629,635.559877 330.203232,635.767432 335.609787,635.876431 L336.86328,635.899839 C348.228222,636.095373 360.363705,635.865468 372.369669,635.352835 L374.61905,635.253438 C377.755886,635.110178 380.658629,634.957545 383.273158,634.804144 L387.468803,634.539332 C387.881977,634.510007 388.240693,634.821179 388.270018,635.234353 C388.299343,635.647527 387.988171,636.006243 387.574997,636.035568 L384.881371,636.210304 L381.90331,636.385306 C379.922269,636.496723 377.793892,636.60689 375.53897,636.712495 L374.687484,636.751876 C361.92316,637.334827 348.948173,637.607982 336.837477,637.399617 C330.515463,637.290847 324.62572,637.051085 319.249957,636.667043 C319.090971,636.655686 318.939737,636.593972 318.818195,636.490856 C318.237498,635.998192 317.402577,635.047968 316.576962,633.629975 C313.825455,628.90426 313.396161,622.700615 316.696362,615.065012 L316.78,614.874 L309.476336,589.447209 L308.774866,586.976971 C306.581218,579.214684 305.01695,573.300361 303.651074,567.495758 C301.096716,556.640429 299.360802,546.525345 298.191843,535.170253 C298.149426,534.758217 298.449061,534.38981 298.861097,534.347393 Z"/><path id="Fill-93" fill="#FFC999" d="M395.72015,636.7771 L395.72015,636.7771 C405.88715,637.3321 414.71915,629.8516 415.84565,619.7326 L426.05315,528.0646 C427.55465,514.5826 417.41465,502.6111 403.86965,501.8716 C390.48365,501.1426 379.17515,511.6891 378.97115,525.0931 L377.57015,617.3161 C377.41415,627.6241 385.42715,636.2161 395.72015,636.7771"/><g id="分组" transform="translate(377.000000, 498.581500)"><mask id="mask-4" fill="#fff"><use xlink:href="#path-3"/></mask><path id="Fill-95" fill="#597EF7" d="M1.1742,83.58915 L46.1907,85.22565 L49.4532,25.01565 C50.1657,11.83665 39.9342,0.63465 26.7447,0.15465 C13.5552,-0.32535 2.5362,10.10565 2.2917,23.30115 L1.1742,83.58915 Z" mask="url(#mask-4)"/></g><path id="Stroke-97" fill="#1D39C4" fill-rule="nonzero" d="M379.249327,522.110048 C379.628962,522.116968 379.937656,522.404694 379.980756,522.7716 L379.98578,522.873477 L378.936,581.447 L423.217647,583.057045 C423.597092,583.070839 423.90043,583.364207 423.93676,583.731845 L423.939905,583.833797 C423.926111,584.213242 423.632743,584.51658 423.265105,584.55291 L423.163153,584.556055 L378.146653,582.919555 C377.772144,582.90594 377.470872,582.619682 377.428899,582.257218 L377.42402,582.156623 L378.48602,522.846623 C378.493436,522.432476 378.83518,522.102755 379.249327,522.110048 Z"/><polygon id="Fill-99" fill="#BAC9E5" points="235.96 670.973 324.23 664.048 239.893 631.087 166.616 644.027"/><polygon id="Fill-101" fill="#4E5C93" points="233.152 664.637 297.26 659.606 237.511 635.667 182.791 645.066"/><polygon id="Fill-103" fill="#4E5C93" points="323.823 668.542 324.244 664.078 234.216 670.432 235.345 675.322"/><path id="Stroke-105" fill="#BAC9E5" fill-rule="nonzero" d="M225.109949,638.694648 C225.185506,638.529932 225.365383,638.4461 225.535282,638.485564 L225.607152,638.510149 L273.997152,660.707149 C274.185398,660.7935 274.268001,661.016105 274.181651,661.204352 C274.106094,661.369068 273.926217,661.4529 273.756318,661.413436 L273.684448,661.388851 L225.294448,639.191851 C225.106202,639.1055 225.023599,638.882895 225.109949,638.694648 Z"/><path id="Stroke-107" fill="#BAC9E5" fill-rule="nonzero" d="M231.92803,636.567375 C232.00082,636.401418 232.179268,636.314586 232.349804,636.351201 L232.422075,636.37458 L286.611075,660.14208 C286.800741,660.225268 286.887058,660.44646 286.80387,660.636125 C286.73108,660.802082 286.552632,660.888914 286.382096,660.852299 L286.309825,660.82892 L232.120825,637.06142 C231.931159,636.978232 231.844842,636.75704 231.92803,636.567375 Z"/><path id="Stroke-109" fill="#BAC9E5" fill-rule="nonzero" d="M224.001555,643.164726 C224.079394,643.001076 224.260419,642.919752 224.429753,642.961573 L224.501274,642.987155 L265.085274,662.290655 C265.272302,662.379614 265.351803,662.603346 265.262845,662.790374 C265.185006,662.954024 265.003981,663.035348 264.834647,662.993527 L264.763126,662.967945 L224.179126,643.664445 C223.992098,643.575486 223.912597,643.351754 224.001555,643.164726 Z"/><path id="Stroke-111" fill="#BAC9E5" fill-rule="nonzero" d="M212.445405,643.404576 C212.523244,643.240926 212.704269,643.159602 212.873603,643.201423 L212.945124,643.227005 L253.529124,662.530505 C253.716152,662.619464 253.795653,662.843196 253.706695,663.030224 C253.628856,663.193874 253.447831,663.275198 253.278497,663.233377 L253.206976,663.207795 L212.622976,643.904295 C212.435948,643.815336 212.356447,643.591604 212.445405,643.404576 Z"/><path id="Stroke-113" fill="#BAC9E5" fill-rule="nonzero" d="M201.715455,644.372226 C201.793294,644.208576 201.974319,644.127252 202.143653,644.169073 L202.215174,644.194655 L242.799174,663.498155 C242.986202,663.587114 243.065703,663.810846 242.976745,663.997874 C242.898906,664.161524 242.717881,664.242848 242.548547,664.201027 L242.477026,664.175445 L201.893026,644.871945 C201.705998,644.782986 201.626497,644.559254 201.715455,644.372226 Z"/><path id="Stroke-115" fill="#BAC9E5" fill-rule="nonzero" d="M287.122084,656.045564 C287.32899,656.036442 287.504115,656.196778 287.513607,656.403684 C287.521217,656.584727 287.399458,656.741437 287.230283,656.783896 L287.155116,656.794836 L232.442616,659.206836 C232.23571,659.215958 232.060585,659.055622 232.051093,658.848716 C232.043483,658.667673 232.165242,658.510963 232.334417,658.468504 L232.409584,658.457564 L287.122084,656.045564 Z"/><path id="Stroke-117" fill="#BAC9E5" fill-rule="nonzero" d="M275.437084,650.860064 C275.64399,650.850942 275.819115,651.011278 275.828607,651.218184 C275.836217,651.399227 275.714458,651.555937 275.545283,651.598396 L275.470116,651.609336 L220.757616,654.021336 C220.55071,654.030458 220.375585,653.870122 220.366093,653.663216 C220.358483,653.482173 220.480242,653.325463 220.649417,653.283004 L220.724584,653.272064 L275.437084,650.860064 Z"/><path id="Stroke-119" fill="#BAC9E5" fill-rule="nonzero" d="M260.760784,646.858064 C260.96769,646.848942 261.142815,647.009278 261.152307,647.216184 C261.159917,647.397227 261.038158,647.553937 260.868983,647.596396 L260.793816,647.607336 L206.081316,650.019336 C205.87441,650.028458 205.699285,649.868122 205.689793,649.661216 C205.682183,649.480173 205.803942,649.323463 205.973117,649.281004 L206.048284,649.270064 L260.760784,646.858064 Z"/><path id="Stroke-121" fill="#BAC9E5" fill-rule="nonzero" d="M251.275834,638.564864 C251.48274,638.555742 251.657865,638.716078 251.667357,638.922984 C251.674967,639.104027 251.553208,639.260737 251.384033,639.303196 L251.308866,639.314136 L196.596366,641.726136 C196.38946,641.735258 196.214335,641.574922 196.204843,641.368016 C196.197233,641.186973 196.318992,641.030263 196.488167,640.987804 L196.563334,640.976864 L251.275834,638.564864 Z"/><polygon id="Fill-123" fill="#4E5C93" points="235.274 675.32 231.331 675.35 165.776 648.932 147.569 533.158 218.831 553.319"/><path id="Fill-125" fill="#394676" d="M231.1904,675.34645 L162.0569,647.51995 C161.4254,647.26645 160.9724,646.69795 160.8674,646.02595 L143.2469,534.75295 C143.0264,533.35345 144.3299,532.19845 145.6919,532.58545 L213.2804,551.80795 C214.0214,552.01795 214.5659,552.64795 214.6694,553.41145 L231.1904,675.34645 Z"/><path id="Fill-127" fill="#FFC999" d="M285.50525,639.5266 L285.50525,639.5266 C287.23325,644.2036 291.88025,647.1436 296.84675,646.7011 L397.50725,637.7536 C408.66875,636.7621 416.61425,626.4646 414.74225,615.4156 C412.86575,604.3471 401.93825,597.2401 391.06025,600.0151 L293.13875,624.9916 C286.78475,626.6116 283.23125,633.3766 285.50525,639.5266"/><path id="Fill-129" fill="#FFC999" d="M291.10835,647.02735 C283.98185,652.03135 261.92135,648.75085 261.92135,648.75085 L247.21385,656.02885 C244.93985,656.93785 244.39685,655.42135 243.27185,655.42135 C240.24035,655.42135 240.24035,652.23835 240.24035,652.23835 C239.19485,651.74185 237.51185,652.54135 237.05585,649.65985 C237.05585,649.65985 234.93335,649.50835 234.781508,646.93135 C234.70235,645.56935 248.52185,625.91035 248.52185,625.91035 L269.14535,626.47435 C269.14535,626.47435 299.27285,627.03685 302.65085,633.79435 C306.03035,640.55185 291.10835,647.02735 291.10835,647.02735"/><path id="Stroke-131" fill="#DD936F" fill-rule="nonzero" d="M260.365804,636.240062 C260.659917,636.134992 260.983518,636.288241 261.088588,636.582354 C261.183151,636.847055 261.068475,637.135643 260.830186,637.267309 L260.746296,637.305138 L252.387,640.291 L242.150907,651.429406 C242.084593,651.493928 241.982224,651.609684 241.872501,651.761745 L241.789279,651.882365 C241.503558,652.315741 241.381035,652.731921 241.474269,653.071658 C241.631527,653.644692 242.41306,654.161207 244.091984,654.497088 C244.398233,654.558355 244.596829,654.856285 244.535562,655.162534 C244.474295,655.468783 244.176365,655.667379 243.870116,655.606112 C241.816608,655.195294 240.677673,654.442572 240.383594,653.370972 C240.186914,652.654284 240.397682,651.938355 240.845028,651.259829 C241.003395,651.019622 241.161955,650.827035 241.276834,650.705594 L241.340168,650.641456 L251.649668,639.422956 C251.691067,639.377907 251.739361,639.340026 251.792565,639.310629 L251.875804,639.273062 L260.365804,636.240062 Z"/><path id="Stroke-133" fill="#DD936F" fill-rule="nonzero" d="M255.310069,631.410822 C255.591916,631.276269 255.929474,631.395673 256.064028,631.677519 C256.185126,631.931181 256.100518,632.22997 255.87692,632.38528 L255.797331,632.431478 L249.244,635.559 L239.438986,647.773203 L239.311698,647.918745 L239.249835,647.993638 C239.100893,648.17649 238.951668,648.37909 238.813107,648.594229 C238.500968,649.078875 238.292588,649.550682 238.232081,649.963267 C238.105496,650.82643 238.632683,651.405425 240.33013,651.678847 C240.638473,651.728514 240.848171,652.018738 240.798503,652.32708 C240.748836,652.635423 240.458612,652.845121 240.15027,652.795453 C237.888129,652.431073 236.888136,651.332809 237.113051,649.799158 C237.200839,649.200544 237.470362,648.5903 237.862252,647.981827 C238.025137,647.728922 238.19889,647.493021 238.372927,647.279359 L238.486874,647.142612 C238.519706,647.104202 238.546546,647.073794 238.564879,647.053877 L238.585682,647.032182 L248.442182,634.751682 C248.477653,634.707487 248.519463,634.669002 248.566125,634.637405 L248.639569,634.595322 L255.310069,631.410822 Z"/><path id="Stroke-135" fill="#DD936F" fill-rule="nonzero" d="M265.611148,641.37142 C265.918428,641.315555 266.212815,641.519368 266.26868,641.826648 C266.318958,642.1032 266.158898,642.369308 265.902376,642.46049 L265.813452,642.48418 L255.974,644.272 L245.309,654.642 L245.307349,654.660456 C245.303637,654.72497 245.309192,654.790489 245.326151,654.852853 L245.360412,654.943514 C245.520204,655.265156 246.050805,655.492723 247.199424,655.462496 C248.152158,655.437424 250.03365,654.586664 252.480653,653.132607 C252.982075,652.834652 253.50167,652.514846 254.03588,652.176264 C255.192757,651.443036 256.364325,650.656696 257.489906,649.870298 L258.054437,649.473033 L258.956995,648.823931 C259.036938,648.765066 259.130968,648.728285 259.229633,648.717283 L259.79185,648.662373 L260.366322,648.613736 C260.669608,648.589602 260.996637,648.565872 261.345917,648.543128 C263.996969,648.370499 266.943672,648.311564 270.01429,648.433747 L272.134646,648.531109 C281.093547,648.96048 286.326486,648.452388 292.424092,645.586834 L292.831931,645.392289 L293.040675,645.337053 L343.721175,641.957553 C344.0328,641.936773 344.302267,642.17255 344.323047,642.484175 C344.341749,642.764637 344.15264,643.010952 343.887457,643.072559 L343.796425,643.086047 L293.224,646.458 L292.902913,646.611508 C286.737851,649.509133 281.450281,650.073911 272.683669,649.688543 L269.969316,649.563853 C266.941312,649.443365 264.03335,649.501525 261.419409,649.671737 L260.762308,649.717572 C260.553425,649.733156 260.35484,649.748991 260.166999,649.764903 L259.503,649.826 L258.708772,650.395534 C258.527571,650.523998 258.336889,650.658238 258.137658,650.797432 C256.999122,651.592882 255.813894,652.38839 254.641342,653.131553 C254.098327,653.475716 253.569568,653.801162 253.05841,654.104902 C250.43407,655.664336 248.451178,656.560946 247.229176,656.593104 C245.684215,656.633761 244.734996,656.226656 244.347522,655.446719 C244.162763,655.074822 244.140806,654.693349 244.210389,654.344019 C244.224425,654.273552 244.239901,654.217378 244.253526,654.177393 C244.272708,654.121103 244.300587,654.06837 244.335992,654.021044 L244.394598,653.954343 L255.310098,643.341843 C255.370494,643.283124 255.442979,643.23889 255.522064,643.211967 L255.603148,643.19092 L265.611148,641.37142 Z"/><path id="Stroke-137" fill="#DD936F" fill-rule="nonzero" d="M381.626662,601.431544 C381.928627,601.3518 382.238063,601.531947 382.317806,601.833912 C382.389575,602.10568 382.250834,602.3835 382.002235,602.49448 L381.915438,602.525056 L287.029938,627.582556 L286.868974,627.601057 L248.823,626.485 L235.280381,647.19668 L235.233702,647.293541 C235.215424,647.334457 235.194892,647.383526 235.173493,647.439318 L235.140918,647.527868 C235.045778,647.797667 234.992564,648.063952 234.999807,648.293523 C235.019645,648.922284 235.493199,649.242871 237.001257,649.097412 C237.312131,649.067427 237.588452,649.295133 237.618438,649.606007 C237.648423,649.916881 237.420717,650.193202 237.109843,650.223188 C235.007126,650.426004 233.912138,649.684717 233.868124,648.329189 C233.857083,647.939759 233.936433,647.542683 234.074292,647.151741 C234.131039,646.990818 234.188392,646.855894 234.247916,646.736065 L234.308223,646.620862 L248.049723,625.601362 C248.13945,625.464113 248.283254,625.373955 248.44252,625.351052 L248.539626,625.345543 L286.822,626.468 L381.626662,601.431544 Z"/><path id="Stroke-139" fill="#1D39C4" fill-rule="nonzero" d="M277.166324,580.118186 L307.527824,583.776686 C307.939063,583.82624 308.232267,584.199786 308.182714,584.611024 C308.13729,584.987993 307.819622,585.26578 307.450234,585.271291 L307.348376,585.265914 L276.986876,581.607414 C276.575637,581.55786 276.282433,581.184314 276.331986,580.773076 C276.37741,580.396107 276.695078,580.11832 277.064466,580.112809 L277.166324,580.118186 Z"/></g></svg>