<?xml version="1.0" encoding="UTF-8"?>
<svg width="512px" height="1024px" viewBox="0 0 512 1024" version="1.1" xmlns="http://www.w3.org/2000/svg" xmlns:xlink="http://www.w3.org/1999/xlink">
    <!-- Generator: Sketch 61.2 (89653) - https://sketch.com -->
    <title>2.人物组件/8.程序员/坐姿/讲解</title>
    <desc>Created with Sketch.</desc>
    <defs>
        <polygon id="path-1" points="219.403175 767.056078 280.027963 767.056078 280.027963 853.591 219.403175 853.591"></polygon>
    </defs>
    <g id="2.人物组件/8.程序员/坐姿/讲解" stroke="none" stroke-width="1" fill="none" fill-rule="evenodd">
        <path d="M246.11035,564.40735 L246.11035,564.40735 C236.92735,567.55585 226.90285,562.85335 223.45135,553.78135 L194.38435,477.37435 C190.21885,466.42585 195.95185,454.20385 207.03235,450.40585 C218.11285,446.60785 230.13685,452.74285 233.56435,463.94335 L257.48485,542.11585 C260.32585,551.39785 255.29335,561.26035 246.11035,564.40735" id="Fill-13" fill="#FFC999"></path>
        <path d="M254.920459,517.184172 L239.462959,463.859553 C235.619959,451.202437 222.134959,444.270116 209.708959,448.5622 C197.282959,452.854285 190.855459,466.66301 195.524959,479.032979 L219.020959,542.289845 L254.920459,517.184172 Z" id="Fill-15" fill="#597EF7"></path>
        <path d="M394.6747,773.28235 C394.6747,773.28235 411.0427,787.58785 434.5177,777.55735 C442.2007,774.27385 448.6522,777.76285 447.6082,784.31485 C446.5657,790.86685 438.8707,798.36835 425.4067,804.16585 C410.0587,810.77635 408.2662,801.84385 400.7332,806.97835 C396.3652,809.95435 386.0557,813.70585 383.3707,810.69835 C378.6787,805.44385 377.7022,801.86935 373.0537,795.13435 C350.4247,762.33985 357.1057,747.26485 394.6747,773.28235" id="Fill-17" fill="#394676"></path>
        <mask id="mask-2" fill="white">
            <use xlink:href="#path-1"></use>
        </mask>
        <g id="Clip-20"></g>
        <path d="M253.7554,800.36365 C253.7554,800.36365 252.4114,821.84815 273.1834,836.68465 C282.0514,843.01915 283.2619,854.01415 271.0714,853.57915 C264.9559,853.36015 257.1784,851.65165 249.2809,846.89365 C234.9649,838.27015 239.0884,832.21315 230.5264,829.08265 C225.5629,827.26765 218.5999,820.46815 219.4789,816.53365 C221.0164,809.65915 223.1149,803.84065 225.8809,796.14115 C239.3494,758.64265 253.0129,754.67215 253.7554,800.36365" id="Fill-19" fill="#394676"></path>
        <path d="M221.9353,793.2166 L258.0043,627.6421 C260.9263,614.2336 274.5628,606.0781 287.7583,609.8476 C300.4978,613.4896 307.8013,626.8441 303.9913,639.5356 L255.1858,802.0876 C255.1858,802.0876 239.8243,806.1541 221.9353,793.2166" id="Fill-21" fill="#4E5C93"></path>
        <path d="M127.99195,459.07615 C127.99195,459.97015 127.26745,460.69465 126.37195,460.69465 C125.47945,460.69465 124.75345,459.97015 124.75345,459.07615 C124.75345,458.18215 125.47945,457.45615 126.37195,457.45615 C127.26745,457.45615 127.99195,458.18215 127.99195,459.07615" id="Fill-23" fill="#ADC6FF"></path>
        <path d="M195.27655,427.2298 L193.83505,388.2538 L158.75305,389.2603 L155.87755,426.4378 C155.00905,437.6668 163.69705,447.3448 174.95455,447.6868 L174.95605,447.6868 C186.37255,448.0333 195.69955,438.6448 195.27655,427.2298" id="Fill-25" fill="#FFC999"></path>
        <path d="M203.0329,384.4051 C203.0329,384.4051 208.5769,379.0426 210.7039,382.8496 C212.8324,386.6566 208.4344,399.8596 202.6174,400.0096 C194.8504,400.2091 203.0329,384.4051 203.0329,384.4051" id="Fill-27" fill="#FFC999"></path>
        <path d="M168.1066,417.42775 C168.1066,417.42775 179.1796,427.13725 194.5756,418.39975 C205.6576,412.11025 207.8041,388.06675 206.3026,370.31725 C205.4521,360.27475 201.0211,354.73825 191.3656,351.45175 C181.7101,348.16675 155.2651,347.18575 154.1161,376.61875 C152.8366,409.40275 168.1066,417.42775 168.1066,417.42775" id="Fill-29" fill="#FFC999"></path>
        <path d="M188.558454,374.772585 C188.64078,374.487664 188.938493,374.323428 189.223415,374.405754 C189.476678,374.478933 189.634585,374.722294 189.608729,374.97558 L189.590246,375.070715 L187.84,381.127 L190.597239,397.898551 C190.646889,398.200608 190.435599,398.47598 190.143865,398.517315 L190.054112,398.522487 L182.998112,398.348487 C182.701625,398.341175 182.467202,398.094898 182.474513,397.798412 C182.481093,397.531574 182.681236,397.315007 182.937337,397.279692 L183.024588,397.274813 L189.432,397.432 L186.760961,381.181249 C186.752328,381.128728 186.751574,381.075363 186.758598,381.022896 L186.774954,380.945085 L188.558454,374.772585 Z" id="Stroke-31" fill="#DD936F" fill-rule="nonzero"></path>
        <path d="M177.037365,402.273652 C177.154035,401.876208 177.570805,401.648596 177.968248,401.765265 L178.176157,401.821214 C178.269672,401.84502 178.387196,401.873669 178.528121,401.906212 C179.006096,402.01659 179.568016,402.127435 180.209019,402.231193 C183.018644,402.685977 186.310579,402.85552 189.976495,402.571146 C190.389468,402.539111 190.750218,402.847922 190.782254,403.260895 C190.814289,403.673868 190.505478,404.034618 190.092505,404.066654 C186.302492,404.360654 182.892032,404.185007 179.969339,403.71192 C179.429858,403.624596 178.941476,403.532076 178.506651,403.438276 L178.190612,403.367748 C177.879757,403.295963 177.663205,403.239013 177.545752,403.204535 C177.148308,403.087865 176.920696,402.671095 177.037365,402.273652 Z" id="Stroke-33" fill="#FF7A46" fill-rule="nonzero"></path>
        <path d="M157.039,389.35105 L151.69,377.81455 C151.69,377.81455 148.615,361.33855 152.6425,354.43555 C158.8915,343.72405 172.3255,344.47855 180.406,341.84155 C188.485,339.20455 188.503,336.51655 191.725,337.07455 C194.9455,337.63255 207.178,346.80505 208.27,355.99255 C209.2315,364.07005 206.4805,384.47305 206.4805,384.47305 C206.4805,384.47305 204.8455,366.26605 203.263,361.41805 C197.0305,358.55905 174.0565,357.63655 164.3635,360.26455 C164.3635,360.26455 163.3195,366.40705 162.691,370.73755 C157.429,374.23405 157.039,389.35105 157.039,389.35105" id="Fill-35" fill="#253368"></path>
        <path d="M194.825182,417.384185 C195.03249,417.172098 195.372477,417.168223 195.584565,417.375532 C195.796652,417.58284 195.800527,417.922827 195.593218,418.134915 C195.452939,418.278428 195.187828,418.515427 194.797246,418.814307 C194.156174,419.304867 193.38867,419.793629 192.494213,420.248702 C187.03719,423.025072 179.843543,423.312302 170.940949,419.534891 C170.667932,419.419049 170.540516,419.103816 170.656359,418.830799 C170.772201,418.557782 171.087434,418.430366 171.360451,418.546209 C179.969142,422.198914 186.83107,421.924929 192.007202,419.291468 C192.841638,418.866932 193.554046,418.413256 194.14457,417.961377 C194.492946,417.694794 194.719807,417.491988 194.825182,417.384185 Z" id="Stroke-37" fill="#DD936F" fill-rule="nonzero"></path>
        <path d="M188.526167,380.104774 C189.119308,380.100834 189.603337,380.578476 189.607301,381.171617 C189.610953,381.725215 189.195119,382.183765 188.657413,382.245647 L188.540433,382.252726 L183.345933,382.287226 C182.752792,382.291166 182.268763,381.813524 182.264799,381.220383 C182.261147,380.666785 182.676981,380.208235 183.214687,380.146353 L183.331667,380.139274 L188.526167,380.104774 Z" id="Stroke-39" fill="#393C68" fill-rule="nonzero"></path>
        <path d="M186.791929,382.912062 C187.844981,383.006486 188.788295,383.432319 189.539889,384.22948 C189.946795,384.661057 189.926796,385.340782 189.49522,385.747689 C189.09447,386.125531 188.479756,386.135275 188.068192,385.789195 L187.977011,385.70302 C187.601414,385.304651 187.149764,385.100766 186.600094,385.051479 C185.967316,384.994739 185.238084,385.147397 184.503165,385.444523 C184.117683,385.600372 183.826224,385.753803 183.679933,385.844514 C183.175828,386.157098 182.51377,386.001839 182.201186,385.497733 C181.888602,384.993628 182.043861,384.33157 182.547967,384.018986 L182.793011,383.876971 C183.026991,383.749135 183.333485,383.600511 183.698046,383.45312 C184.619226,383.080689 185.558944,382.866009 186.484121,382.893728 L186.791929,382.912062 Z" id="Stroke-41" fill="#393C68" fill-rule="nonzero"></path>
        <path d="M182.546775,407.774361 L186.779775,407.801361 C187.076346,407.803253 187.315231,408.045204 187.31335,408.341775 C187.311637,408.608689 187.115485,408.828877 186.860072,408.868866 L186.772925,408.875339 L182.539925,408.848339 C182.243354,408.846447 182.004469,408.604496 182.00635,408.307925 C182.008063,408.041011 182.204215,407.820823 182.459628,407.780834 L182.546775,407.774361 Z" id="Stroke-43" fill="#DD936F" fill-rule="nonzero"></path>
        <path d="M155.588722,379.877575 L164.105722,379.978075 C164.698835,379.985073 165.173974,380.47156 165.167052,381.064672 C165.160443,381.618244 164.736224,382.069048 164.197468,382.121004 L164.080378,382.125925 L155.563378,382.025425 C154.970265,382.018427 154.495126,381.53194 154.502048,380.938828 C154.508657,380.385256 154.932876,379.934452 155.471632,379.882496 L155.588722,379.877575 Z" id="Stroke-45" fill="#393C68" fill-rule="nonzero"></path>
        <path d="M164.7412,379.37332 L181.0042,379.47535 C182.1397,379.48285 183.0532,380.40535 183.038382,381.54085 C183.0112,383.65885 182.8687,387.05485 182.3017,389.95885 C181.6297,393.38485 178.5322,395.46535 175.0447,395.60335 C170.6872,395.77885 166.7782,395.75785 164.8162,393.48535 C161.8267,390.02335 162.5992,384.35785 162.6817,381.35485 C162.7132,380.25235 163.6387,379.36735 164.7412,379.37332" id="Fill-47" fill="#FFFFFF"></path>
        <path d="M181.006563,379.117608 L164.743444,379.015541 C163.498946,379.008838 162.451791,379.964369 162.334114,381.184097 L162.214038,383.738952 C162.142729,385.454449 162.157471,386.632052 162.300281,387.917981 C162.564045,390.293027 163.261434,392.232228 164.545431,393.719164 C166.326117,395.781656 169.097239,396.200926 175.059097,395.96081 C178.866002,395.810171 181.973249,393.492002 182.65276,390.027709 C183.135691,387.554286 183.357183,384.577991 183.396311,381.545441 C183.413493,380.21279 182.341789,379.126427 181.006563,379.117608 Z M164.59679,379.736337 L164.739,379.731 L181.001956,379.833093 C181.941081,379.839296 182.692862,380.601359 182.680809,381.536182 C182.642246,384.52953 182.423595,387.467658 181.95058,389.890295 C181.339089,393.007805 178.524517,395.107624 175.030555,395.24588 L174.250767,395.27392 C169.05668,395.436512 166.590454,394.992957 165.08699,393.251559 C163.910191,391.888765 163.260543,390.082314 163.011409,387.839006 C162.862675,386.499738 162.857633,385.269982 162.946919,383.362514 L163.036219,381.476724 C163.037175,381.44285 163.038172,381.406265 163.039315,381.364675 C163.063822,380.506949 163.750326,379.803786 164.59679,379.736337 Z" id="Stroke-49" fill="#253368" fill-rule="nonzero"></path>
        <path d="M190.1071,379.351278 L208.5181,379.4668 C209.1826,382.1623 208.4611,392.5618 205.2886,394.7713 C201.0406,396.9613 192.4966,395.9488 191.1826,393.6823 C189.1891,390.2428 188.4826,383.7013 188.5351,380.8873 C188.5501,380.0293 189.2491,379.3468 190.1071,379.351278" id="Fill-51" fill="#FFFFFF"></path>
        <path d="M208.520345,379.109057 L190.108967,378.993506 C189.054978,378.988032 188.195826,379.82733 188.177405,380.881047 C188.103016,384.868289 189.146138,390.882102 190.87308,393.861695 C192.368239,396.440674 201.235375,397.26338 205.452531,395.089281 C208.326471,393.091526 209.831536,383.300031 208.865451,379.38117 C208.826254,379.22217 208.684102,379.110085 208.520345,379.109057 Z M190.105,379.709 L208.23,379.822 L208.262961,379.991361 C208.962128,383.921828 207.518113,392.782584 205.084143,394.477732 C201.207109,396.472966 192.759618,395.689195 191.492099,393.502869 C189.843071,390.657707 188.820605,384.762978 188.892788,380.893973 C188.903644,380.27302 189.377614,379.771856 189.982589,379.714484 L190.105,379.709 Z" id="Stroke-53" fill="#253368" fill-rule="nonzero"></path>
        <path d="M163.010831,378.401015 L183.166331,379.055015 C183.759172,379.074251 184.224171,379.570439 184.204935,380.163281 C184.186981,380.7166 183.75355,381.158553 183.213836,381.199381 L183.096669,381.201885 L162.941169,380.547885 C162.348328,380.528649 161.883329,380.032461 161.902565,379.439619 C161.920519,378.8863 162.35395,378.444347 162.893664,378.403519 L163.010831,378.401015 Z" id="Stroke-55" fill="#393C68" fill-rule="nonzero"></path>
        <path d="M208.658501,378.799633 C209.251637,378.794994 209.736229,379.272066 209.740901,379.865201 C209.745196,380.418795 209.329903,380.877834 208.79227,380.94035 L208.675299,380.947567 L188.918799,381.102067 C188.325663,381.106706 187.841071,380.629634 187.836399,380.036499 C187.832104,379.482905 188.247397,379.023866 188.78503,378.96135 L188.902001,378.954133 L208.658501,378.799633 Z" id="Stroke-57" fill="#393C68" fill-rule="nonzero"></path>
        <path d="M154.77445,380.09845 C152.79595,377.86495 149.60095,377.12545 147.20995,379.48645 C143.35495,383.29345 146.07895,398.22745 155.95345,399.30295 C159.73795,398.95645 157.86295,383.58445 154.77445,380.09845" id="Fill-59" fill="#FFC999"></path>
        <path d="M149.836029,381.540811 C149.95319,381.268357 150.269035,381.142467 150.541489,381.259629 C150.664083,381.312347 150.865074,381.411512 151.118876,381.558176 C151.537908,381.800319 151.95663,382.091808 152.349346,382.434865 C153.826075,383.724862 154.548421,385.375248 154.043037,387.347769 C153.85341,388.08766 153.50199,388.479237 152.859435,388.84401 L152.579378,388.993742 C152.024002,389.28205 151.884219,389.427189 151.82333,389.890975 C151.706252,390.787661 152.103508,391.466938 152.881206,391.99632 C153.134346,392.168633 153.408842,392.310166 153.683408,392.421515 L153.858201,392.488456 C153.934675,392.515872 153.993749,392.53431 154.030845,392.54425 C154.317315,392.621015 154.487314,392.915475 154.41055,393.201945 C154.333785,393.488415 154.039325,393.658414 153.752855,393.58165 C153.371475,393.479452 152.82704,393.258659 152.276858,392.884149 C151.193241,392.146527 150.582146,391.1016 150.758419,389.75155 C150.867329,388.921982 151.200678,388.528094 151.923607,388.126796 L152.194232,387.983491 C152.700545,387.718224 152.886812,387.533157 153.002653,387.081169 C153.394038,385.553583 152.841283,384.290669 151.642776,383.243713 C151.306306,382.949789 150.943757,382.697405 150.581518,382.48808 L150.349914,382.35992 C150.248133,382.306303 150.168658,382.268395 150.117211,382.246271 C149.844757,382.12911 149.718867,381.813265 149.836029,381.540811 Z" id="Stroke-61" fill="#DD936F" fill-rule="nonzero"></path>
        <path d="M182.519702,372.543933 C182.582368,373.369986 181.963521,374.090436 181.137467,374.153102 L175.820225,374.581427 L174.480324,374.677917 C170.621792,374.939624 168.195246,374.947666 166.699768,374.599921 C165.892868,374.412292 165.39085,373.606067 165.578479,372.799168 C165.766108,371.992268 166.572333,371.49025 167.379232,371.677879 C168.490545,371.936294 170.787228,371.921039 174.356605,371.679007 L175.890498,371.567309 L180.910533,371.161698 C181.736586,371.099032 182.457036,371.717879 182.519702,372.543933 Z" id="Stroke-63" fill="#253368" fill-rule="nonzero"></path>
        <path d="M192.293673,371.460358 C194.687097,370.633444 197.116435,370.197662 199.437761,370.372445 C201.381036,370.518763 203.147938,371.095247 204.665745,372.170768 C205.341676,372.649734 205.501348,373.585964 205.022382,374.261895 C204.543416,374.937826 203.607186,375.097498 202.931255,374.618532 C201.886152,373.87797 200.640276,373.471479 199.212515,373.363977 C197.358397,373.224372 195.312516,373.591368 193.273334,374.295894 C192.780685,374.466101 192.318844,374.645946 191.895707,374.827164 L191.585735,374.963206 C191.290246,375.096107 191.087229,375.196035 190.991634,375.246672 C190.259569,375.63445 189.351756,375.355349 188.963978,374.623284 C188.5762,373.891219 188.855301,372.983406 189.587366,372.595628 L189.896723,372.43835 C190.463732,372.160532 191.283631,371.809321 192.293673,371.460358 Z" id="Stroke-65" fill="#253368" fill-rule="nonzero"></path>
        <path d="M169.926108,383.37955 C170.340313,383.382221 170.67394,383.720153 170.671285,384.134358 C170.661804,385.613319 171.668376,386.781383 172.863928,386.789061 C174.061082,386.795651 175.082021,385.640929 175.090312,384.162843 C175.092635,383.748636 175.4303,383.414739 175.844507,383.417062 C176.258714,383.419385 176.592611,383.75705 176.5903,384.171257 C176.577584,386.436228 174.929343,388.300453 172.854984,388.289035 C170.781609,388.275719 169.156793,386.390222 169.171315,384.124742 C169.173971,383.710537 169.511903,383.37691 169.926108,383.37955 Z" id="Stroke-67" fill="#755654" fill-rule="nonzero"></path>
        <path d="M192.906558,383.5231 C193.320763,383.525771 193.65439,383.863703 193.651735,384.277908 C193.642254,385.756869 194.648826,386.924933 195.844378,386.932611 C197.041038,386.939198 198.061284,385.784858 198.070765,384.305792 C198.073421,383.891587 198.411353,383.55796 198.825558,383.560615 C199.239763,383.563271 199.57339,383.901203 199.57075,384.315408 C199.556214,386.580578 197.909256,388.444 195.835434,388.432585 C193.762059,388.419269 192.137243,386.533772 192.151765,384.268292 C192.154421,383.854087 192.492353,383.52046 192.906558,383.5231 Z" id="Stroke-69" fill="#755654" fill-rule="nonzero"></path>
        <path d="M108.35785,577.9381 C141.56035,585.6871 185.21935,583.6291 200.00485,577.5151 C206.44735,574.8511 206.50885,570.0646 204.59935,561.9301 C204.59935,561.9301 224.97085,492.0376 227.87935,450.2506 C217.17985,444.0571 210.14035,439.8331 198.34735,434.2861 C194.67085,432.5581 183.65335,437.3986 178.92385,436.5496 C171.93385,435.2941 161.10685,426.1306 154.36285,426.8311 C129.11335,429.4501 109.62385,435.6091 109.62385,435.6091 C85.12885,454.6141 108.35785,577.9381 108.35785,577.9381" id="Fill-71" fill="#597EF7"></path>
        <polygon id="Fill-73" fill="#597EF7" points="195.47215 426.6841 201.69415 436.0306 189.98215 453.2011 178.15615 436.7296"></polygon>
        <polygon id="Fill-75" fill="#597EF7" points="177.7336 436.7293 156.1951 419.4133 146.7286 428.2168 160.3051 450.2503"></polygon>
        <path d="M146.965138,428.210581 C147.289964,428.013968 147.704517,428.09286 147.936563,428.380319 L147.995119,428.463838 L160.516,449.15 L177.703112,436.130877 C178.011268,435.897429 178.44027,435.938888 178.699089,436.2113 L178.765237,436.291287 L189.952,451.872 L200.471876,435.750371 C200.677641,435.435004 201.080403,435.325562 201.412566,435.478325 L201.509829,435.532076 C201.825196,435.737841 201.934638,436.140603 201.781875,436.472766 L201.728124,436.570029 L190.610124,453.610029 C190.342599,454.020051 189.770133,454.061674 189.44352,453.722619 L189.372763,453.637613 L177.995,437.791 L160.758888,450.849023 C160.433724,451.095356 159.978637,451.033977 159.727551,450.728792 L159.664381,450.639562 L146.711881,429.240562 C146.497395,428.886206 146.610781,428.425068 146.965138,428.210581 Z" id="Stroke-77" fill="#1D39C4" fill-rule="nonzero"></path>
        <path d="M221.686352,484.554463 C221.774047,484.149639 222.173313,483.892556 222.578137,483.980252 C222.982961,484.067947 223.240044,484.467213 223.152348,484.872037 L221.696388,491.556711 C217.713078,509.745682 213.90352,526.326686 210.365305,541.090934 L209.383075,545.171641 C208.516145,548.75705 207.708951,552.051186 206.966186,555.04401 L205.53503,560.753779 L204.943,563.069 L205.052086,563.336747 C205.211324,563.740762 205.369968,564.196597 205.517818,564.695959 C206.201358,567.004615 206.431149,569.393615 205.927664,571.65427 C205.112042,575.316427 202.471221,578.07198 197.686011,579.501374 C197.289126,579.619928 196.87128,579.394296 196.752726,578.997411 C196.634172,578.600526 196.859804,578.18268 197.256689,578.064126 C201.528797,576.788001 203.767897,574.451623 204.463537,571.328185 C204.903375,569.353304 204.696936,567.207071 204.079535,565.121802 C203.944617,564.666117 203.800296,564.251438 203.656568,563.886772 L203.528526,563.574934 C203.505957,563.52266 203.487633,563.482019 203.474199,563.45358 C203.414175,563.326506 203.391359,563.185801 203.407261,563.047551 L203.458462,562.82101 L204.19014,559.954434 L204.790051,557.571444 C205.837889,553.389582 207.034219,548.522288 208.363203,543.003455 L209.552504,538.038581 C213.337304,522.15666 217.420732,504.245564 221.686352,484.554463 Z" id="Stroke-79" fill="#1D39C4" fill-rule="nonzero"></path>
        <path d="M177.774387,438.51338 C178.153521,438.535159 178.451507,438.83396 178.481188,439.202195 L178.480238,439.345484 L178.168636,444.837708 C177.913359,449.238402 177.618217,454.141936 177.286933,459.422631 L176.94876,464.746178 C176.207279,476.273449 175.409453,487.731652 174.568588,498.671321 L174.025368,505.589215 C171.541385,536.543846 169.090908,557.795418 166.765713,565.328343 L166.705,565.519 L166.78176,565.711578 C170.241058,574.578536 169.697339,579.989224 166.497007,582.651279 L166.334783,582.782094 C165.268002,583.615998 164.198074,583.959608 163.44198,584.028322 C163.029467,584.065811 162.664667,583.761794 162.627178,583.34928 C162.592813,582.971143 162.845408,582.633098 163.205487,582.550508 L163.447476,582.513497 C163.565363,582.491317 163.728705,582.451715 163.925641,582.388468 C164.431194,582.226108 164.938243,581.969859 165.410986,581.600316 C168.19236,579.426115 168.704026,574.550265 165.212747,565.822454 C165.146862,565.657748 165.14149,565.47502 165.197588,565.306729 L165.339288,564.864201 C167.657525,557.340846 170.160272,535.374024 172.682181,503.563398 L173.073031,498.555956 C173.913371,487.623069 174.710772,476.170966 175.451874,464.649565 L175.929566,457.090058 C176.15866,453.398663 176.36905,449.908803 176.559376,446.666297 L176.98471,439.222613 C177.007236,438.809013 177.360786,438.491984 177.774387,438.51338 Z" id="Stroke-81" fill="#1D39C4" fill-rule="nonzero"></path>
        <path d="M180.8047,461.37535 C180.6247,462.69835 181.3717,463.89385 182.4757,464.04385 C183.5782,464.19385 184.6192,463.24285 184.7992,461.91985 C184.9792,460.59535 184.2322,459.40135 183.1282,459.24985 C182.0257,459.09985 180.9847,460.05235 180.8047,461.37535" id="Fill-83" fill="#FFFFFF"></path>
        <path d="M178.4287,484.50745 C178.2487,485.83045 178.9957,487.02595 180.0997,487.17595 C181.2022,487.32595 182.2432,486.37495 182.4232,485.05195 C182.6032,483.72745 181.8562,482.53345 180.7522,482.38195 C179.6497,482.23195 178.6087,483.18295 178.4287,484.50745" id="Fill-85" fill="#FFFFFF"></path>
        <path d="M176.4856,508.8142 C176.3056,510.1387 177.0526,511.3327 178.1566,511.4827 C179.2591,511.6342 180.3001,510.6832 180.4801,509.3587 C180.6601,508.0342 179.9131,506.8402 178.8091,506.6887 C177.7066,506.5387 176.6656,507.4912 176.4856,508.8142" id="Fill-87" fill="#FFFFFF"></path>
        <path d="M173.62465,536.9737 C173.44465,538.2982 174.19165,539.4922 175.29565,539.6437 C176.39965,539.7937 177.43915,538.8427 177.61915,537.5182 C177.80065,536.1937 177.05215,534.9997 175.94815,534.8482 C174.84565,534.6982 173.80465,535.6507 173.62465,536.9737" id="Fill-89" fill="#FFFFFF"></path>
        <path d="M170.15005,563.71885 C169.97005,565.04185 170.71705,566.23735 171.82105,566.38735 C172.92505,566.53735 173.96455,565.58635 174.14605,564.26335 C174.32605,562.93885 173.57755,561.74485 172.47355,561.59335 C171.37105,561.44335 170.33155,562.39435 170.15005,563.71885" id="Fill-91" fill="#FFFFFF"></path>
        <path d="M109.696,588.2008 C109.696,588.2008 190.6675,594.5428 196.372,586.2793 C198.883,582.6418 210.1855,611.3023 214.7875,641.2888 C207.37,655.0018 132.0085,677.1883 112.5805,635.7973 C106.2865,622.3888 108.7795,594.8308 109.696,588.2008" id="Fill-95" fill="#ADC6FF"></path>
        <path d="M197.0491,578.3599 L198.4906,588.7204 C198.4906,588.7204 190.3981,590.1199 162.1261,591.5674 C133.4446,593.0344 109.7746,589.7224 109.7746,589.7224 L108.7801,578.3599 C108.7801,578.3599 156.0811,580.4719 197.0491,578.3599" id="Fill-97" fill="#ADC6FF"></path>
        <path d="M173.20285,583.8538 C173.02135,585.1768 173.76985,586.3723 174.87385,586.5223 C175.97635,586.6723 177.01735,585.7213 177.19735,584.3983 C177.37735,583.0738 176.63035,581.8798 175.52635,581.7283 C174.42235,581.5783 173.38285,582.5308 173.20285,583.8538" id="Fill-99" fill="#FFFFFF"></path>
        <path d="M309.82108,633.75805 L309.82108,633.75805 C309.6985,646.71355 299.356,657.25555 286.405,657.62455 L142.021,661.73155 C125.26,662.20855 111.4585,648.66655 111.61319,631.89955 C111.772,615.13255 125.827,601.85155 142.576,602.64205 L286.8565,609.45655 C299.7985,610.06855 309.9415,620.80255 309.82108,633.75805" id="Fill-101" fill="#ADC6FF"></path>
        <path d="M363.99805,786.1825 L267.12355,647.146 C259.27855,635.887 262.57105,620.3425 274.30855,613.231 C285.64105,606.3655 300.39955,610.093 307.11355,621.5155 L393.11305,767.8345 C393.11305,767.8345 385.65055,781.8625 363.99805,786.1825" id="Fill-103" fill="#ADC6FF"></path>
        <path d="M77.6035,564.26155 L77.6035,564.26155 C67.3465,560.61655 61.8265,549.49405 65.1295,539.12005 L92.935,451.76155 C96.919,439.24405 110.479,432.51505 122.857,436.91455 L122.857,436.91455 C135.235,441.31255 141.5095,455.09005 136.7005,467.31505 L103.1455,552.63055 C99.1615,562.76155 87.8605,567.90655 77.6035,564.26155" id="Fill-105" fill="#FFC999"></path>
        <path d="M152.19265,689.6206 C155.59915,688.3216 149.55715,673.2826 147.67465,670.2031 C145.16665,666.0976 123.11065,654.5161 123.11065,654.5161 L118.88815,635.0881 L93.82915,640.4371 C93.82915,640.4371 99.65965,661.6546 105.65515,671.9716 C110.12815,679.6711 118.09015,680.2411 128.91115,690.4351 C133.91815,695.1526 140.18665,700.1476 142.73965,696.3811 C143.24215,695.6401 148.45015,697.0051 147.78115,692.4031 C147.78115,692.4031 149.55115,693.7831 151.21915,692.3881 C152.66665,691.1761 152.19265,689.6206 152.19265,689.6206" id="Fill-107" fill="#FFC999"></path>
        <path d="M124.495874,678.704854 C124.622345,678.436595 124.942337,678.321653 125.210596,678.448124 L125.530507,678.605924 C125.601745,678.642042 125.681639,678.68303 125.769738,678.728829 L126.317618,679.020919 C126.602593,679.176488 126.903534,679.34627 127.217802,679.529931 C128.713811,680.404211 130.209855,681.413703 131.608485,682.547046 C132.874701,683.573089 133.999915,684.653348 134.947008,685.78482 L143.318396,695.789686 C143.508748,696.017115 143.478692,696.355793 143.251264,696.546146 C143.023835,696.736498 142.685157,696.706442 142.494804,696.479014 L134.123318,686.47403 C133.223898,685.399511 132.147812,684.366419 130.932324,683.38148 C129.579602,682.285338 128.127769,681.305679 126.675901,680.457195 C126.26952,680.219703 125.886611,680.006411 125.533499,679.818198 L125.27435,679.681755 C125.022769,679.550967 124.844743,679.463015 124.752604,679.419576 C124.484345,679.293105 124.369403,678.973113 124.495874,678.704854 Z" id="Stroke-109" fill="#DD936F" fill-rule="nonzero"></path>
        <path d="M130.199926,672.143722 C130.38272,671.910175 130.720232,671.869032 130.953778,672.051826 L131.433289,672.437969 L131.906663,672.829983 C132.152946,673.036256 132.413111,673.257655 132.684858,673.49296 C133.978855,674.613431 135.27294,675.820122 136.482228,677.068496 C137.86329,678.494193 139.045207,679.884497 139.967647,681.210068 L140.574691,682.076052 C140.784855,682.373722 141.002698,682.68023 141.227806,682.995064 L142.146819,684.271116 L142.372535,684.58199 C143.306924,685.867044 144.294942,687.203651 145.293709,688.538762 L146.796764,690.536398 L147.712667,691.741234 C147.892969,691.97671 147.848242,692.313765 147.612766,692.494067 C147.37729,692.674369 147.040235,692.629642 146.859933,692.394166 L145.185915,690.184695 C144.181845,688.850183 143.177744,687.500791 142.216304,686.189293 L141.054088,684.59318 L140.353759,683.619177 C139.901099,682.98609 139.477435,682.386168 139.086021,681.82343 C138.20048,680.550883 137.054613,679.202985 135.710816,677.815756 C134.525351,676.591977 133.253629,675.406137 131.981818,674.304878 L131.21745,673.653672 L130.470393,673.039635 C130.393065,672.977471 130.333095,672.929878 130.291822,672.897574 C130.058275,672.71478 130.017132,672.377268 130.199926,672.143722 Z" id="Stroke-111" fill="#DD936F" fill-rule="nonzero"></path>
        <path d="M135.320558,667.60235 C135.486934,667.356836 135.820836,667.292682 136.06635,667.459058 L136.543437,667.796137 L137.012129,668.141018 C137.255936,668.323358 137.513429,668.520369 137.782343,668.731251 C139.062479,669.735131 140.34261,670.848111 141.539077,672.041309 C143.851876,674.347789 145.571283,676.670784 146.45085,678.941646 C146.886829,680.067254 147.370903,681.172053 147.894883,682.251365 C148.732498,683.976711 149.629989,685.554851 150.52691,686.951738 L150.891515,687.509287 C150.950301,687.597491 151.008057,687.683311 151.064721,687.766714 L151.530597,688.433209 C151.613116,688.547568 151.674329,688.62997 151.711993,688.679168 C151.892277,688.914658 151.847523,689.25171 151.612032,689.431993 C151.376542,689.612277 151.03949,689.567523 150.859207,689.332032 L150.591893,688.967247 L150.514271,688.858031 C150.244927,688.47721 149.945371,688.033828 149.623167,687.532018 C148.704244,686.100864 147.785893,684.486045 146.928721,682.720413 C146.392178,681.615225 145.89629,680.483461 145.44935,679.329554 C144.633439,677.223041 142.996721,675.011763 140.780684,672.80178 C139.616934,671.64121 138.368262,670.555582 137.119595,669.576379 L136.611121,669.183727 C136.44712,669.059085 136.288836,668.940767 136.136946,668.829018 L135.520533,668.386974 C135.498748,668.371921 135.479825,668.358967 135.46385,668.348142 C135.218336,668.181766 135.154182,667.847864 135.320558,667.60235 Z" id="Stroke-113" fill="#DD936F" fill-rule="nonzero"></path>
        <path d="M111.2179,656.11315 L111.2179,656.11315 C117.7354,654.58465 121.9279,648.23515 120.7729,641.64115 L103.7839,544.59715 C101.6839,533.34415 90.6049,526.12765 79.4629,528.75415 C68.3209,531.38065 61.6324,542.78365 64.7794,553.79215 L96.3634,647.83915 C98.4379,654.01765 104.8729,657.60115 111.2179,656.11315" id="Fill-115" fill="#FFC999"></path>
        <path d="M113.53825,527.5321 L139.16125,468.6871 C144.18925,456.5506 136.22125,441.0181 123.92425,436.3966 C111.62875,431.7736 97.94875,438.2566 93.73825,450.6991 L74.23225,508.3516 L113.53825,527.5321 Z" id="Fill-117" fill="#597EF7"></path>
        <path d="M110.298835,441.301816 C110.493396,440.93614 110.947558,440.797424 111.313234,440.991985 L111.579453,441.142062 C111.726377,441.228177 111.910629,441.340343 112.128965,441.479217 C112.757009,441.87869 113.454463,442.36695 114.203897,442.947557 C116.337457,444.600484 118.468325,446.665002 120.45601,449.169615 C125.789983,455.89077 129.125973,464.490242 129.493005,475.13676 C129.507276,475.550727 129.183258,475.897883 128.76929,475.912155 C128.355323,475.926426 128.008167,475.602408 127.993895,475.18844 C127.638251,464.87224 124.420916,456.578637 119.281053,450.102072 C117.37167,447.696125 115.32711,445.715227 113.285241,444.133336 C112.573275,443.581756 111.913715,443.120024 111.323926,442.744884 L110.934601,442.503584 C110.78835,442.415688 110.678623,442.353436 110.608666,442.316215 C110.24299,442.121654 110.104274,441.667492 110.298835,441.301816 Z" id="Stroke-119" fill="#1D39C4" fill-rule="nonzero"></path>
        <path d="M127.132348,494.428197 C127.296102,494.047727 127.737283,493.872044 128.117753,494.035798 C128.466517,494.185906 128.643203,494.569129 128.544097,494.925016 L128.510152,495.021203 L105.233,549.102 L123.849672,653.821428 C123.91613,654.195263 123.693255,654.553599 123.341523,654.666569 L123.242522,654.691122 C122.868687,654.75758 122.510351,654.534705 122.397381,654.182973 L122.372828,654.083972 L103.717328,549.143972 C103.698079,549.035697 103.702951,548.924971 103.731046,548.819556 L103.766848,548.716197 L127.132348,494.428197 Z" id="Stroke-121" fill="#1D39C4" fill-rule="nonzero"></path>
        <path d="M73.5580699,508.022538 C73.7245855,507.681302 74.115774,507.523031 74.466548,507.638942 L74.5610125,507.67742 L113.867012,526.85792 C114.239269,527.039573 114.393783,527.488606 114.21213,527.860862 C114.045615,528.202098 113.654426,528.360369 113.303652,528.244458 L113.209188,528.20598 L73.9031875,509.02548 C73.530931,508.843827 73.3764165,508.394794 73.5580699,508.022538 Z" id="Stroke-123" fill="#1D39C4" fill-rule="nonzero"></path>
        <path d="M212.730069,525.300259 C213.084321,525.163604 213.478637,525.313913 213.656725,525.637583 L213.699741,525.730069 L219.932241,541.886569 C220.08132,542.273026 219.888887,542.707162 219.502431,542.856241 C219.148179,542.992896 218.753863,542.842587 218.575775,542.518917 L218.532759,542.426431 L212.300259,526.269931 C212.15118,525.883474 212.343613,525.449338 212.730069,525.300259 Z" id="Stroke-125" fill="#1D39C4" fill-rule="nonzero"></path>
        <path d="M248.727497,521.387172 C249.065953,521.161562 249.523218,521.253042 249.748828,521.591497 C249.974438,521.929953 249.882958,522.387218 249.544503,522.612828 L247.330619,524.103842 C245.718602,525.196689 243.628025,526.624597 241.128928,528.338787 L235.622551,532.123575 L229.15671,536.581528 L220.419312,542.621483 C220.084913,542.853063 219.626096,542.769711 219.394517,542.435312 C219.162937,542.100913 219.246289,541.642096 219.580688,541.410517 L230.94946,533.554936 L243.257783,525.095685 C245.668922,523.447794 247.525046,522.18871 248.727497,521.387172 Z" id="Stroke-127" fill="#1D39C4" fill-rule="nonzero"></path>
        <path d="M191.072357,489.116937 L186.848357,514.457937 C186.804788,514.719317 186.902382,514.984288 187.105083,515.154963 L197.804583,524.163963 C198.038831,524.3612 198.369462,524.396216 198.639827,524.252422 L211.872827,517.214422 C212.068325,517.110446 212.207886,516.925396 212.254119,516.708848 L217.604619,491.648348 C217.708182,491.163283 217.320799,490.713079 216.825713,490.743128 C214.357755,490.892918 211.273684,490.809807 207.717912,490.53031 C205.143461,490.327948 202.403931,490.029272 199.591861,489.659735 C197.662968,489.406257 195.814436,489.134645 194.11175,488.863077 L192.803345,488.649324 L191.943995,488.50193 C191.5329,488.428518 191.141018,488.705021 191.072357,489.116937 Z M188.397,514.282 L192.427,490.106 L193.875495,490.344355 L195.380354,490.578462 C196.661745,490.772835 198.008332,490.964538 199.396425,491.146949 C202.232746,491.519672 204.9976,491.82111 207.600369,492.025697 L208.273433,492.076689 C211.165874,492.287433 213.742316,492.364742 215.934,492.287 L210.86,516.054 L198.383,522.69 L188.397,514.282 Z" id="Stroke-129" fill="#1D39C4" fill-rule="nonzero"></path>
        <path d="M193.50085,588.65695 C193.797427,588.65695 194.03785,588.897373 194.03785,589.19395 C194.03785,589.460869 193.843107,589.682304 193.587954,589.723922 L193.50085,589.73095 L118.04335,589.73095 C117.746773,589.73095 117.50635,589.490527 117.50635,589.19395 C117.50635,588.927031 117.701093,588.705596 117.956246,588.663978 L118.04335,588.65695 L193.50085,588.65695 Z" id="Stroke-133" fill="#597EF7" fill-rule="nonzero"></path>
        <path d="M109.872623,577.401303 L115.999183,577.557509 C120.07839,577.656651 124.480417,577.755794 129.101568,577.850205 L135.801523,577.980578 C143.397974,578.120858 150.834697,578.231801 157.92183,578.304745 L162.518063,578.347046 C177.492297,578.467888 189.58859,578.392198 197.837288,578.076118 C198.133647,578.064762 198.3831,578.295803 198.395232,578.592162 C198.405812,578.888521 198.174771,579.137974 197.878412,579.14933 L195.862367,579.219457 C187.170706,579.493294 174.859794,579.538773 159.835785,579.397642 L154.009967,579.335167 C147.454503,579.256521 140.638848,579.147764 133.705533,579.015405 L126.580569,578.872027 C123.279144,578.802205 120.103625,578.730334 117.09389,578.658236 L109.843077,578.474897 C109.546612,578.466738 109.312894,578.219791 109.320649,577.923327 C109.329212,577.626862 109.576159,577.393144 109.872623,577.401303 Z" id="Stroke-135" fill="#1D39C4" fill-rule="nonzero"></path>
        <path d="M144.540695,601.046764 L283.349195,608.929264 C283.645295,608.946078 283.871701,609.199746 283.855765,609.495845 C283.839753,609.762335 283.632769,609.972373 283.375667,609.999458 L283.288305,610.001536 L144.479805,602.119036 C144.183705,602.102222 143.957299,601.848554 143.973235,601.552455 C143.989247,601.285965 144.196231,601.075927 144.453333,601.048842 L144.540695,601.046764 Z" id="Stroke-137" fill="#597EF7" fill-rule="nonzero"></path>
        <path d="M168.909155,579.092918 C169.200944,579.039846 169.48051,579.233365 169.533582,579.525155 L169.847107,581.269668 L170.369462,584.237162 L170.787089,586.681438 C170.885784,587.269887 170.976284,587.819038 171.057465,588.322924 L171.223919,589.377764 L173.757419,603.174764 C173.810983,603.466464 173.617936,603.746355 173.326236,603.799919 C173.063706,603.848127 172.810741,603.696579 172.723725,603.453138 L172.701081,603.368736 L170.165015,589.556535 L169.935068,588.110714 L169.478205,585.38816 L168.965565,582.448038 L168.476918,579.717345 C168.423846,579.425556 168.617365,579.14599 168.909155,579.092918 Z" id="Stroke-139" fill="#597EF7" fill-rule="nonzero"></path>
        <g id="编组" transform="translate(225.728497, 411.147741)">
            <path d="M56.0244032,59.7416591 L61.3164032,27.1991591 C61.3164032,27.1991591 74.2119032,-0.561340872 80.6244032,0.00865912844 C86.6904032,1.21015913 74.9544032,10.4261591 73.5624032,17.9141591 C78.9519032,16.7291591 77.6064032,23.9186591 77.6064032,23.9186591 C77.6064032,23.9186591 81.9174032,23.1026591 81.6699032,28.8266591 C86.0244032,30.1931591 84.7869032,37.2236591 84.7869032,37.2236591 C84.7869032,37.2236591 81.3504032,51.5816591 69.9489032,68.8946591 C69.9489032,68.8946591 58.1784032,79.6511591 56.0244032,59.7416591" id="Fill-1" fill="#FFC999"></path>
            <path d="M56.8491032,49.8877091 C56.8491032,49.8877091 54.8316032,41.7127091 56.6151032,33.3847091 C57.8001032,27.8512091 52.6116032,17.6092091 57.7251032,19.4527091 C61.1646032,20.6932091 61.5771032,26.5792091 62.1726032,30.8737091 C62.7681032,35.1682091 72.6696032,44.0107091 67.7046032,51.9937091 C64.3491032,57.3877091 57.8406032,53.9467091 56.8491032,49.8877091" id="Fill-3" fill="#FFC999"></path>
            <path d="M73.5630032,17.9138591 C73.5630032,17.9138591 63.8415032,29.7668591 69.9825032,30.8858591" id="Stroke-5" stroke="#DD936F" stroke-width="1.026" stroke-linecap="round" stroke-linejoin="round"></path>
            <path d="M77.1255032,24.2045591 C77.1255032,24.2045591 67.3395032,32.9855591 72.0510032,34.5380591 C75.3240032,35.6165591 78.7545032,30.3260591 78.7545032,30.3260591" id="Stroke-7" stroke="#DD936F" stroke-width="1.026" stroke-linecap="round" stroke-linejoin="round"></path>
            <path d="M80.2866032,29.4596591 C79.3341032,29.7416591 78.2226032,30.5846591 76.9506032,32.3276591 C71.2626032,40.1186591 77.7366032,39.8786591 80.2656032,35.5871591 C75.8211032,46.7096591 66.0921032,44.1191591 65.3886032,54.0656591" id="Stroke-9" stroke="#DD936F" stroke-width="1.026" stroke-linecap="round" stroke-linejoin="round"></path>
            <path d="M61.4281532,25.5061091 L63.5821532,33.5236091 C63.5821532,33.5236091 70.2121532,40.0456091 67.6066532,45.6601091" id="Stroke-11" stroke="#DD936F" stroke-width="1.026" stroke-linecap="round" stroke-linejoin="round"></path>
            <path d="M64.2927032,42.1496591 L77.5032032,55.1426591 L33.7467032,143.987659 C28.3602032,153.139159 16.6497032,156.100159 8.0367032,150.488659 C-0.577796796,144.875659 -2.5997968,132.967159 3.5952032,124.342159 L64.2927032,42.1496591 Z" id="Fill-93" fill="#FFC999"></path>
            <line x1="1.7715032" y1="127.352259" x2="57.7715032" y2="52.3522591" id="Stroke-131" stroke="#DD936F" stroke-width="1.0545" stroke-linecap="round" stroke-linejoin="round"></line>
        </g>
    </g>
</svg>