<?xml version="1.0" encoding="UTF-8"?>
<svg width="512px" height="1024px" viewBox="0 0 512 1024" version="1.1" xmlns="http://www.w3.org/2000/svg" xmlns:xlink="http://www.w3.org/1999/xlink">
    <!-- Generator: Sketch 61.2 (89653) - https://sketch.com -->
    <title>2.人物组件/4.商务拓展/站立/叉腰</title>
    <desc>Created with Sketch.</desc>
    <defs>
        <polygon id="path-1" points="0 0.2889 51.95325 0.2889 51.95325 47.4564 0 47.4564"></polygon>
    </defs>
    <g id="2.人物组件/4.商务拓展/站立/叉腰" stroke="none" stroke-width="1" fill="none" fill-rule="evenodd">
        <path d="M294.4476,378.86205 C271.4946,413.25855 240.6126,393.20805 232.7811,384.25905 C223.9116,374.12205 212.7906,375.38955 209.4111,363.00105 C205.5456,348.82755 216.3576,339.77205 214.2456,333.43605 C207.9111,308.94105 225.3366,317.74155 222.6441,302.60655 C218.1441,277.31355 222.0246,277.80555 232.7811,259.80855 C245.6091,238.34205 259.2471,248.31405 259.2471,248.31405 C259.2471,248.31405 278.1111,243.76005 286.5576,269.10105 C288.0861,273.68205 294.3006,276.42105 294.4416,287.96505 C294.8001,317.38005 310.7166,319.70655 313.8696,339.77205 C317.1621,360.71955 302.0496,367.03605 294.4476,378.86205" id="Fill-1" fill="#253368"></path>
        <path d="M282.41385,292.03635 C283.56735,284.76285 278.18085,285.56685 278.18085,285.56685 C278.18085,285.56685 275.57685,293.12985 275.38335,299.24985 C282.98985,299.32485 282.41385,292.03635 282.41385,292.03635" id="Fill-3" fill="#F4B784"></path>
        <path d="M230.28015,292.03635 C229.12815,284.76285 236.01315,285.56685 236.01315,285.56685 C236.01315,285.56685 238.61715,293.12985 238.81065,299.24985 C231.20415,299.32485 230.28015,292.03635 230.28015,292.03635" id="Fill-5" fill="#F4B784"></path>
        <path d="M257.2645,343.51 L257.2645,343.51 C250.579,343.51 245.236,337.951 244,331.2715 L245.0155,305.5 L268.012,305.5 L269.029,331.2715 C269.293,337.951 263.9485,343.51 257.2645,343.51" id="Fill-7" fill="#F4B784"></path>
        <path d="M257.940528,306.255528 C258.257524,306.234363 258.531657,306.474182 258.552822,306.791178 C258.57187,307.076474 258.379522,307.327052 258.109772,307.389744 L258.017172,307.403472 L256.017672,307.536972 C255.700676,307.558137 255.426543,307.318318 255.405378,307.001322 C255.38633,306.716026 255.578678,306.465448 255.848428,306.402756 L255.941028,306.389028 L257.940528,306.255528 Z" id="Stroke-9" fill="#DD936F" fill-rule="nonzero"></path>
        <path d="M277.5564,290.5692 C275.7174,306.8292 268.2909,316.9662 256.8624,316.9662 C245.4324,316.9662 237.4224,305.0937 236.1669,290.5692 C234.0684,266.2857 245.4324,259.5267 256.8624,259.5267 C268.2909,259.5267 280.3659,265.7277 277.5564,290.5692" id="Fill-11" fill="#FFC999"></path>
        <path d="M280.08255,271.6347 C277.54755,261.8112 272.76255,251.9247 258.40155,254.4597 C241.08555,245.1672 214.36905,284.3892 230.52705,286.0857 C245.73255,287.6832 243.97155,275.7852 247.18905,267.9747 C250.14555,260.7942 255.58605,268.8192 255.58605,268.8192 C255.58605,268.8192 258.59205,265.4397 261.97005,266.7072 C267.63255,268.8297 261.49905,280.0812 275.85855,287.1207 C277.60755,287.9772 276.09855,297.7602 276.70455,296.9757 C279.52005,293.3142 282.61605,281.4537 280.08255,271.6347" id="Fill-13" fill="#253368"></path>
        <path d="M240.793771,276.808183 L250.930771,278.594683 C251.338698,278.666574 251.611109,279.055544 251.539217,279.463471 C251.473317,279.837404 251.140983,280.097466 250.771844,280.082838 L250.670429,280.071917 L240.533429,278.285417 C240.125502,278.213526 239.853091,277.824556 239.924983,277.416629 C239.990883,277.042696 240.323217,276.782634 240.692356,276.797262 L240.793771,276.808183 Z" id="Stroke-15" fill="#253368" fill-rule="nonzero"></path>
        <path d="M272.405377,277.363647 C272.817521,277.322295 273.185152,277.622883 273.226503,278.035027 C273.264409,278.412826 273.014991,278.753221 272.655702,278.839181 L272.555123,278.856153 L260.355623,280.080153 C259.943479,280.121505 259.575848,279.820917 259.534497,279.408773 C259.496591,279.030974 259.746009,278.690579 260.105298,278.604619 L260.205877,278.587647 L272.405377,277.363647 Z" id="Stroke-17" fill="#253368" fill-rule="nonzero"></path>
        <path d="M251.979121,280.116415 C252.241435,280.002625 252.54207,280.099607 252.691744,280.332616 L252.735785,280.415221 L254.283785,283.983721 C254.307025,284.037295 254.321904,284.093935 254.328059,284.15167 L254.330703,284.238847 L253.786,296.179 L256.706652,297.431412 C256.969465,297.544046 257.105315,297.829233 257.038624,298.098022 L257.008788,298.186752 C256.896154,298.449565 256.610967,298.585415 256.342178,298.518724 L256.253448,298.488888 L252.966948,297.080388 C252.774192,296.997779 252.643926,296.818171 252.621683,296.614166 L252.618897,296.525453 L253.175,284.319 L251.680315,280.873079 C251.566525,280.610765 251.663507,280.31013 251.896516,280.160456 L251.979121,280.116415 Z" id="Stroke-19" fill="#DD936F" fill-rule="nonzero"></path>
        <path d="M245.7324,283.8837 C247.814504,283.8837 249.4389,285.856425 249.4389,288.2247 C249.4389,288.638914 249.103114,288.9747 248.6889,288.9747 C248.274686,288.9747 247.9389,288.638914 247.9389,288.2247 C247.9389,286.627496 246.914724,285.3837 245.7324,285.3837 C244.549163,285.3837 243.5259,286.626823 243.5259,288.2247 C243.5259,288.638914 243.190114,288.9747 242.7759,288.9747 C242.361686,288.9747 242.0259,288.638914 242.0259,288.2247 C242.0259,285.855839 243.649245,283.8837 245.7324,283.8837 Z" id="Stroke-21" fill="#253368" fill-rule="nonzero"></path>
        <path d="M266.00445,283.8837 C268.087605,283.8837 269.71095,285.855839 269.71095,288.2247 C269.71095,288.638914 269.375164,288.9747 268.96095,288.9747 C268.546736,288.9747 268.21095,288.638914 268.21095,288.2247 C268.21095,286.626823 267.187687,285.3837 266.00445,285.3837 C264.821213,285.3837 263.79795,286.626823 263.79795,288.2247 C263.79795,288.638914 263.462164,288.9747 263.04795,288.9747 C262.633736,288.9747 262.29795,288.638914 262.29795,288.2247 C262.29795,285.855839 263.921295,283.8837 266.00445,283.8837 Z" id="Stroke-23" fill="#253368" fill-rule="nonzero"></path>
        <path d="M250.345448,301.059092 C250.461615,301.664239 250.782949,302.520564 251.420892,303.380539 C252.492225,304.824743 254.103474,305.6997 256.29,305.6997 C258.649785,305.6997 260.306436,304.886015 261.318631,303.52059 C261.93364,302.690958 262.190444,301.86187 262.246211,301.268363 C262.287553,300.828373 261.941428,300.4482 261.4995,300.4482 L260.418711,300.44405 C258.839045,300.43225 257.165864,300.396353 255.46579,300.342696 L253.434639,300.270801 L251.120766,300.168703 C250.634606,300.14354 250.253674,300.581009 250.345448,301.059092 Z M252.188822,301.775229 L252.162,301.718 L253.375742,301.769644 C253.703975,301.782515 254.04253,301.795173 254.389949,301.80748 L255.419214,301.841973 C256.788049,301.885174 258.140009,301.916942 259.441436,301.934012 L260.507,301.945 L260.486141,301.996771 C260.387249,302.212428 260.263929,302.424547 260.113619,302.62731 C259.387689,303.606572 258.18009,304.1997 256.29,304.1997 C254.596776,304.1997 253.42365,303.562657 252.625608,302.486861 C252.456088,302.258341 252.311028,302.018904 252.188822,301.775229 Z" id="Stroke-25" fill="#B53026" fill-rule="nonzero"></path>
        <path d="M257.98005,308.1984 C258.297752,308.1984 258.5553,308.455948 258.5553,308.77365 C258.5553,309.059582 258.346686,309.296789 258.073359,309.341371 L257.98005,309.3489 L255.02355,309.3489 C254.705848,309.3489 254.4483,309.091352 254.4483,308.77365 C254.4483,308.487718 254.656914,308.250511 254.930241,308.205929 L255.02355,308.1984 L257.98005,308.1984 Z" id="Stroke-27" fill="#DD936F" fill-rule="nonzero"></path>
        <path d="M279.05565,297.18735 C278.92515,296.77335 278.33715,296.78535 278.22465,297.20385 C277.22265,300.90585 274.88865,310.87335 278.75715,311.10735 C283.11915,311.37285 280.24215,300.96585 279.05565,297.18735" id="Fill-29" fill="#FFFFFF"></path>
        <path d="M235.2246,297.18735 C235.0941,296.77335 234.5061,296.78535 234.3936,297.20385 C233.3916,300.90585 231.0576,310.87335 234.9261,311.10735 C239.2881,311.37285 236.4111,300.96585 235.2246,297.18735" id="Fill-31" fill="#FFFFFF"></path>
        <path d="M177.41535,423.9492 L177.41535,423.9492 C171.34185,419.8977 169.69035,411.5097 173.64885,404.8317 L205.45185,349.0497 C210.72735,340.1547 218.64435,335.6472 226.73385,341.0457 C234.73035,346.3797 233.43735,358.2387 227.45535,366.5247 L196.66035,419.8842 C192.05985,426.2562 183.56385,428.0502 177.41535,423.9492" id="Fill-33" fill="#FFC999"></path>
        <path d="M213.7947,390.25035 L190.9887,372.08985 L204.9252,346.74885 C211.7457,334.40835 220.1517,335.02335 230.8122,336.86835 L230.3247,337.38735 C238.9722,342.53235 239.4237,357.35685 234.1272,365.91285 L213.7947,390.25035 Z" id="Fill-35" fill="#597EF7"></path>
        <g id="分组" transform="translate(171.000000, 400.951500)">
            <mask id="mask-2" fill="white">
                <use xlink:href="#path-1"></use>
            </mask>
            <g id="Clip-38"></g>
            <path d="M49.90575,32.5404 L51.95325,47.4564 C51.95325,47.4564 13.14825,33.9924 4.07475,22.9194 C-10.64925,4.9524 19.26225,0.2889 19.26225,0.2889 L49.90575,32.5404 Z" id="Fill-37" fill="#FFC999" mask="url(#mask-2)"></path>
        </g>
        <path d="M188.87715,402.552 C191.962684,402.552 194.821218,404.348718 197.391977,407.325311 C198.283243,408.357276 199.076219,409.461401 199.762147,410.565564 C199.942288,410.855543 200.10534,411.130149 200.250809,411.385575 L200.503194,411.841771 C200.551357,411.931758 200.58711,412.000811 200.610194,412.046978 C200.701333,412.229256 200.62745,412.450905 200.445172,412.542044 C200.262894,412.633183 200.041245,412.5593 199.950106,412.377022 L199.851265,412.187652 L199.744283,411.991089 C199.571979,411.678915 199.368539,411.330513 199.135262,410.954998 C198.468436,409.881584 197.697487,408.80813 196.833448,407.807689 C194.389051,404.977407 191.704428,403.29 188.87715,403.29 C188.673357,403.29 188.50815,403.124793 188.50815,402.921 C188.50815,402.717207 188.673357,402.552 188.87715,402.552 Z" id="Stroke-39" fill="#DD936F" fill-rule="nonzero"></path>
        <path d="M190.548519,371.738852 C190.720536,371.522832 191.019264,371.467122 191.254207,371.593324 L191.338948,371.649219 L213.702,389.457 L215.675785,386.945676 C215.846416,386.728559 216.144781,386.670938 216.380527,386.795633 L216.465624,386.850985 C216.682741,387.021616 216.740362,387.319981 216.615667,387.555727 L216.560315,387.640824 L214.236815,390.597324 C214.065411,390.815424 213.765311,390.87244 213.529282,390.745887 L213.444152,390.689781 L190.638152,372.529281 C190.395129,372.335761 190.354999,371.981874 190.548519,371.738852 Z" id="Stroke-41" fill="#1D39C4" fill-rule="nonzero"></path>
        <path d="M335.6367,423.9792 L335.6367,423.9792 C341.5047,419.6352 342.7437,411.1752 338.4627,404.7012 L306.4947,350.0697 C300.7917,341.4447 290.1327,337.8027 282.3162,343.5897 C274.5912,349.3092 276.4632,361.0917 282.8442,369.0747 L316.2147,420.8607 C321.1227,427.0002 329.6967,428.3772 335.6367,423.9792" id="Fill-43" fill="#FFC999"></path>
        <path d="M297.2037,391.4589 L320.0112,373.2984 L306.0732,347.9589 C301.0842,339.2184 288.0297,334.3569 281.0592,340.8864 L280.6752,338.5959 C272.0262,343.7409 271.5762,358.5654 276.8727,367.1214 L297.2037,391.4589 Z" id="Fill-45" fill="#597EF7"></path>
        <path d="M246.812419,697.98615 C246.83925,697.60065 243.63075,793.34265 243.98025,800.20815 C244.93125,818.94465 247.21575,821.40615 237.47175,826.89315 C234.97575,828.29865 231.03525,827.06115 227.21325,831.83265 C216.75075,844.89765 200.88225,852.80415 198.46425,845.73465 C196.79325,839.08065 221.87475,816.30765 223.77225,802.27965 C225.74325,787.70865 209.81325,674.89815 219.29325,666.20865 C228.77325,657.52065 239.31075,619.38915 246.812419,697.98615" id="Fill-47" fill="#FFC999"></path>
        <path d="M244.04595,828.9696 C244.04595,828.9696 246.77295,818.6241 244.03845,806.2731 C244.03845,806.2731 236.00145,814.4166 229.08345,823.2381 C221.09295,833.4231 219.05595,834.0261 219.05595,834.0261 C208.53195,837.9141 205.79745,831.9171 205.79745,831.9171 C205.79745,831.9171 200.36145,839.7276 189.79095,848.3886 C180.32595,856.1436 218.65995,855.6036 223.38645,845.6646 C228.11295,835.7271 234.71595,829.7181 234.71595,829.7181 L238.48545,844.2021 L242.12445,843.9066 L244.04595,828.9696 Z" id="Fill-49" fill="#253368"></path>
        <path d="M255.72225,627.34635 L256.24725,766.85685 L195.13725,764.51235 C195.13725,764.51235 194.86725,701.67735 196.60875,626.62635 C196.60875,626.62635 194.76825,582.68835 225.74025,582.68835 C256.71075,582.68835 255.72225,627.34635 255.72225,627.34635" id="Fill-51" fill="#E4EBF7"></path>
        <path d="M196.8714,620.40735 C198.4329,559.91235 201.3699,485.26485 206.8764,472.04985 C206.8764,472.04985 213.6339,464.06835 233.9064,476.73885 C257.5434,491.51235 255.4014,513.05985 255.4014,513.05985 L255.6984,622.48035 C255.2154,630.48135 254.3784,655.32435 223.4874,655.32435 C193.0794,655.32435 196.8369,621.72435 196.8714,620.40735" id="Fill-53" fill="#E4EBF7"></path>
        <path d="M266.147381,698.2191 C266.12055,697.8336 269.32905,793.5756 268.97955,800.4411 C268.02855,819.1791 265.74405,821.6391 275.48805,827.1261 C277.98405,828.5316 281.92455,827.2941 285.74655,832.0656 C296.20905,845.1306 312.07755,853.0386 314.49555,845.9676 C316.16655,839.3136 291.08505,816.5406 289.18755,802.5126 C287.21655,787.9416 303.14655,675.1311 293.66655,666.4416 C284.18655,657.7536 273.64905,619.6221 266.147381,698.2191" id="Fill-55" fill="#FFC999"></path>
        <path d="M268.91385,829.20255 C268.91385,829.20255 266.18685,818.85705 268.92135,806.50605 C268.92135,806.50605 276.95835,814.64955 283.87635,823.47105 C291.86685,833.65605 293.90385,834.25905 293.90385,834.25905 C304.42785,838.14705 307.16235,832.15005 307.16235,832.15005 C307.16235,832.15005 312.59835,839.96055 323.16885,848.62155 C332.63385,856.37655 294.29985,855.83655 289.57335,845.89755 C284.84685,835.96005 278.24385,829.95105 278.24385,829.95105 L274.47435,844.43505 L270.83385,844.13955 L268.91385,829.20255 Z" id="Fill-57" fill="#253368"></path>
        <path d="M258.73755,627.5793 L258.21255,767.0898 L319.32255,764.7453 C319.32255,764.7453 319.59255,701.9103 317.85105,626.8593 C317.85105,626.8593 319.69155,582.9213 288.71955,582.9213 C257.74905,582.9213 258.73755,627.5793 258.73755,627.5793" id="Fill-59" fill="#E4EBF7"></path>
        <path d="M317.77815,627.16545 C316.21665,566.66895 313.27965,492.02295 307.77315,478.80645 C307.77315,478.80645 301.01565,470.82495 280.74315,483.49695 C257.10615,498.26895 259.24665,519.81795 259.24665,519.81795 L258.95115,629.23845 C259.43415,637.23795 260.27115,662.08245 291.16215,662.08245 C321.57015,662.08245 317.81115,628.48245 317.77815,627.16545" id="Fill-61" fill="#E4EBF7"></path>
        <path d="M311.1504,495.27825 C311.1504,495.27825 309.3624,460.64625 286.1799,442.57425 L224.2194,442.34475 C224.2194,442.34475 202.8864,461.36025 202.8864,496.96725 C202.8864,496.96725 213.7209,499.05825 226.3044,507.24525 C234.5124,512.58525 243.6879,519.91425 258.0279,519.91425 C272.6484,519.91425 280.3194,513.26025 288.6249,507.80775 C300.9564,499.71375 311.1504,495.27825 311.1504,495.27825" id="Fill-63" fill="#E4EBF7"></path>
        <polygon id="Fill-65" fill="#E4EBF7" points="223.9116 442.9218 286.3851 442.5738 283.6311 433.3503 227.0811 433.4148"></polygon>
        <path d="M284.41965,432.8397 C284.737352,432.8397 284.9949,433.097248 284.9949,433.41495 C284.9949,433.700882 284.786286,433.938089 284.512959,433.982671 L284.41965,433.9902 L226.21665,433.9902 C225.898948,433.9902 225.6414,433.732652 225.6414,433.41495 C225.6414,433.129018 225.850014,432.891811 226.123341,432.847229 L226.21665,432.8397 L284.41965,432.8397 Z" id="Stroke-67" fill="#DD936F" fill-rule="nonzero"></path>
        <path d="M284.3973,441.86265 C284.70796,441.86265 284.9598,442.11449 284.9598,442.42515 C284.9598,442.704744 284.75581,442.936694 284.48854,442.980288 L284.3973,442.98765 L225.8163,442.98765 C225.50564,442.98765 225.2538,442.73581 225.2538,442.42515 C225.2538,442.145556 225.45779,441.913606 225.72506,441.870012 L225.8163,441.86265 L284.3973,441.86265 Z" id="Stroke-69" fill="#A3B5D6" fill-rule="nonzero"></path>
        <path d="M256.0569,432.6312 C256.336494,432.6312 256.568444,432.83519 256.612038,433.10246 L256.6194,433.1937 L256.6194,516.9147 C256.6194,517.22536 256.36756,517.4772 256.0569,517.4772 C255.777306,517.4772 255.545356,517.27321 255.501762,517.00594 L255.4944,516.9147 L255.4944,433.1937 C255.4944,432.88304 255.74624,432.6312 256.0569,432.6312 Z" id="Stroke-71" fill="#A3B5D6" fill-rule="nonzero"></path>
        <path d="M295.5147,339.65175 C283.9617,335.13075 275.3652,338.82825 271.5822,335.42925 C269.3457,333.41775 269.5362,325.24275 269.5362,325.24275 L241.6377,325.24275 C241.6377,325.24275 242.2377,332.63175 240.0027,334.64325 C236.2197,338.04225 227.3367,334.62675 216.9147,340.27425 C207.0732,345.60525 210.5352,363.72675 215.0412,375.83325 C216.0822,378.63225 214.2852,383.90775 216.0252,387.80025 C217.7772,391.71525 220.4382,396.45825 221.4942,398.99175 C224.9637,407.31675 224.2512,416.28525 226.4892,423.83925 C226.4892,423.83925 222.9237,430.73775 228.5517,433.53825 L282.6207,433.53825 C289.3722,430.45575 284.6832,423.83925 284.6832,423.83925 C286.8207,416.63025 285.5217,410.81625 288.6897,400.25775 C289.3242,398.14725 291.7047,394.80075 293.7357,390.33375 C296.9037,383.36475 295.4247,376.67775 295.8477,374.98875 C299.5497,360.18375 305.5317,343.57275 295.5147,339.65175" id="Fill-73" fill="#597EF7"></path>
        <path d="M246.318613,337.542252 L266.524913,338.438052 C266.835268,338.451811 267.075707,338.714557 267.061948,339.024913 C267.049565,339.304232 266.835502,339.52692 266.566564,339.558634 L266.475087,339.561948 L246.268787,338.666148 C245.958432,338.652389 245.717993,338.389643 245.731752,338.079287 C245.744135,337.799968 245.958198,337.57728 246.227136,337.545566 L246.318613,337.542252 Z" id="Stroke-75" fill="#1D39C4" fill-rule="nonzero"></path>
        <path d="M219.318882,359.261201 C219.452204,358.980603 219.787751,358.861211 220.068349,358.994532 C220.348947,359.127854 220.468339,359.463401 220.335018,359.743999 L220.153643,360.146607 L219.968788,360.577882 C219.904599,360.730674 219.837931,360.892421 219.769059,361.062889 L219.664132,361.325102 C219.155707,362.607681 218.646833,364.061548 218.17172,365.657263 C216.450836,371.437025 215.619374,377.463972 216.16303,383.312481 C216.598939,387.996849 218.134553,391.791442 221.883406,397.946382 L222.183987,398.437261 L222.258934,398.634592 L222.975652,402.662442 L223.440878,405.247262 C223.673658,406.534964 223.906103,407.812079 224.13557,409.062735 L225.138996,414.456868 C226.020887,419.120533 226.680361,422.364802 227.033599,423.694699 C227.071209,423.836295 227.052091,423.986978 226.980311,424.114694 C224.913585,427.791993 226.41362,432.476541 228.43526,432.952828 L228.55245,432.9756 L282.656,432.975 L282.827308,432.866671 L282.92895,432.796472 C283.235715,432.578955 283.544139,432.305508 283.83228,431.973317 C285.355628,430.21708 285.72527,427.659834 284.167757,424.062598 C284.122829,423.958831 284.110217,423.843932 284.131568,423.732889 L284.726167,420.605995 C285.689945,415.479602 286.518006,410.781836 287.216133,406.559671 L287.548165,404.526736 C287.73529,403.365891 287.901425,402.307475 288.047005,401.355022 L288.364375,399.216666 C288.37651,399.129922 288.408735,399.047211 288.458482,398.975121 C292.983617,392.417583 294.971364,387.22876 295.286774,381.433669 C295.573044,376.149813 294.607157,370.894864 292.81976,365.949167 C292.269134,364.425593 291.679413,363.045721 291.090313,361.835043 L290.851136,361.353068 C290.774026,361.200825 290.699639,361.057064 290.628292,360.921989 L290.31467,360.350398 C290.157105,360.082661 290.246416,359.737886 290.514152,359.58032 C290.781889,359.422755 291.126664,359.512066 291.28423,359.779802 L291.452354,360.078886 L291.513473,360.19135 C291.655852,360.455 291.810925,360.75404 291.97614,361.086875 L292.101913,361.342813 C292.707808,362.588008 293.313082,364.004273 293.877784,365.566793 C295.712818,370.6443 296.705401,376.044487 296.410119,381.49467 C296.090962,387.358597 294.12508,392.619342 289.735975,399.099889 L289.46,399.503 L289.230425,401.055932 C289.021642,402.43593 288.76674,404.055714 288.464247,405.903356 L288.039368,408.460316 C287.305151,412.816432 286.440121,417.642001 285.438483,422.890076 L285.268,423.778 L285.342957,423.955265 C286.856029,427.665384 286.465384,430.512154 284.833846,432.529367 L284.682124,432.710466 C284.079899,433.404759 283.472599,433.835377 283.044802,434.043785 C282.99364,434.068709 282.939144,434.085652 282.883205,434.094178 L282.79845,434.1006 L228.468947,434.094367 C225.546055,433.655601 223.672977,428.325823 225.760624,424.020591 L225.889,423.765 L225.705752,422.995251 C225.323583,421.326319 224.756464,418.487616 224.042964,414.715562 L223.483654,411.729414 L222.798534,408.00608 C222.567195,406.738561 222.333769,405.449918 222.100892,404.155999 L221.17,398.935 L220.919029,398.525722 C217.191623,392.404954 215.582845,388.51043 215.081138,383.800405 L215.042865,383.416664 C214.484302,377.407801 215.334769,371.243099 217.093498,365.33623 C217.578409,363.707608 218.098133,362.222741 218.618305,360.910527 L218.830876,360.384299 C218.899504,360.2177 218.96581,360.059987 219.02952,359.911393 L219.260702,359.386673 C219.284706,359.334023 219.304191,359.292122 219.318882,359.261201 Z" id="Stroke-77" fill="#1D39C4" fill-rule="nonzero"></path>
        <path d="M287.823,380.47995 C288.13366,380.47995 288.3855,380.73179 288.3855,381.04245 C288.3855,381.322044 288.18151,381.553994 287.91424,381.597588 L287.823,381.60495 L221.094,381.60495 C220.78334,381.60495 220.5315,381.35311 220.5315,381.04245 C220.5315,380.762856 220.73549,380.530906 221.00276,380.487312 L221.094,380.47995 L287.823,380.47995 Z" id="Stroke-79" fill="#1D39C4" fill-rule="nonzero"></path>
        <path d="M288.10545,431.86215 L284.86995,447.36465 C284.86995,447.36465 326.57295,436.06515 336.90045,425.10915 C353.66295,407.32815 322.61295,400.25115 322.61295,400.25115 L288.10545,431.86215 Z" id="Fill-81" fill="#FFC999"></path>
        <path d="M280.27005,430.20915 C280.27005,430.20915 286.54755,420.86265 289.25955,420.57915 C293.46255,420.14115 292.35105,428.70615 292.35105,428.70615 C292.35105,428.70615 296.35155,430.28415 294.88605,434.82765 C297.19005,438.45165 295.41255,440.79765 295.41255,440.79765 C295.41255,440.79765 298.33305,443.30415 295.58205,446.41815 C292.83255,449.53065 285.27255,450.38265 285.29655,445.00515 C281.72505,442.77315 283.58055,439.42215 283.58055,439.42215 C283.58055,439.42215 280.85355,437.15715 282.73455,433.94115 C280.31355,433.17015 279.62355,431.19015 280.27005,430.20915" id="Fill-83" fill="#FFC999"></path>
        <path d="M289.40425,427.437916 C289.555678,427.30153 289.788997,427.313723 289.925384,427.46515 C290.042287,427.594945 290.050029,427.784906 289.954496,427.922419 L289.89815,427.986284 L282.98165,434.215784 C282.830222,434.35217 282.596903,434.339977 282.460516,434.18855 C282.343613,434.058755 282.335871,433.868794 282.431404,433.731281 L282.48775,433.667416 L289.40425,427.437916 Z" id="Stroke-85" fill="#DD936F" fill-rule="nonzero"></path>
        <path d="M289.293334,420.21185 C291.475666,420.4125 292.59211,422.059608 292.885174,424.591261 C293.011378,425.681476 292.974887,426.8402 292.838054,427.954661 L292.792072,428.30052 L292.757,428.527 L293.023337,428.715556 C293.379561,428.978649 293.735459,429.286334 294.06849,429.63718 C295.401362,431.041351 295.988369,432.691697 295.397835,434.513656 L295.302,434.78 L295.357429,434.859871 C296.73445,436.906008 296.87257,438.709 296.226251,440.167415 L296.144957,440.340765 C296.061077,440.510183 295.976287,440.654328 295.897021,440.772659 L295.811,440.893 L296.569597,444.376272 C296.607546,444.550506 296.515618,444.722793 296.358645,444.792196 L296.287578,444.815347 C296.113344,444.853296 295.941057,444.761368 295.871654,444.604395 L295.848503,444.533328 L295.052003,440.876328 C295.026222,440.75796 295.060183,440.634478 295.142868,440.545942 C295.220163,440.463177 295.350052,440.283007 295.483581,440.013311 C296.129501,438.70871 296.019951,437.047999 294.585889,435.042426 C294.510969,434.937649 294.496108,434.801387 294.546681,434.682922 C295.269828,432.988985 294.79366,431.473109 293.533233,430.145259 C293.231972,429.827882 292.90827,429.548032 292.584896,429.309201 C292.392517,429.167118 292.245148,429.071538 292.165656,429.025345 C292.0294,428.946168 291.958464,428.789199 291.989081,428.634611 L292.022151,428.45085 C292.046858,428.302581 292.076145,428.104259 292.105554,427.864725 C292.235848,426.803526 292.270599,425.700045 292.15207,424.676125 C291.894443,422.450601 290.984722,421.108474 289.225766,420.94675 C289.022828,420.928092 288.873441,420.748453 288.8921,420.545516 C288.910758,420.342578 289.090397,420.193191 289.293334,420.21185 Z" id="Stroke-87" fill="#DD936F" fill-rule="nonzero"></path>
        <path d="M290.557506,435.361282 C290.738141,435.266928 290.961063,435.336871 291.055418,435.517506 C291.137978,435.675561 291.094747,435.865993 290.961639,435.974342 L290.899194,436.015418 L283.751694,439.748918 C283.571059,439.843272 283.348137,439.773329 283.253782,439.592694 C283.171222,439.434639 283.214453,439.244207 283.347561,439.135858 L283.410006,439.094782 L290.557506,435.361282 Z" id="Stroke-89" fill="#DD936F" fill-rule="nonzero"></path>
        <path d="M292.200663,441.799976 C292.389448,441.723216 292.604714,441.814029 292.681474,442.002813 C292.748639,442.168 292.687506,442.353461 292.544702,442.448669 L292.478637,442.483624 L285.436137,445.347124 C285.247352,445.423884 285.032086,445.333071 284.955326,445.144287 C284.888161,444.9791 284.949294,444.793639 285.092098,444.698431 L285.158163,444.663476 L292.200663,441.799976 Z" id="Stroke-91" fill="#DD936F" fill-rule="nonzero"></path>
        <path d="M322.122,403.76055 C322.325793,403.76055 322.491,403.925757 322.491,404.12955 C322.491,404.333343 322.325793,404.49855 322.122,404.49855 C319.283777,404.49855 316.308023,406.196631 313.394105,409.039187 C312.365109,410.042983 311.418021,411.119658 310.575402,412.196259 C310.280621,412.572895 310.020122,412.922386 309.796656,413.235628 L309.526766,413.624121 C309.414337,413.794095 309.185404,413.840745 309.015429,413.728316 C308.845455,413.615887 308.798805,413.386954 308.911234,413.216979 L309.117907,412.916918 L309.195869,412.807027 C309.425502,412.485141 309.692509,412.126919 309.994239,411.741403 C310.855936,410.640427 311.824337,409.539523 312.87877,408.510913 C315.917508,405.546594 319.04741,403.76055 322.122,403.76055 Z" id="Stroke-93" fill="#DD936F" fill-rule="nonzero"></path>
        <path d="M319.660216,372.858508 C319.903244,372.664996 320.25713,372.705137 320.450642,372.948166 C320.622653,373.164191 320.610048,373.467808 320.434437,373.668521 L320.360984,373.738592 L297.553484,391.899092 C297.336437,392.071916 297.031203,392.05828 296.83065,391.880713 L296.760726,391.806485 L294.438726,388.849985 C294.246843,388.605669 294.289348,388.252059 294.533665,388.060176 C294.750835,387.889613 295.05436,387.904246 295.253895,388.081195 L295.323474,388.155115 L297.295,390.666 L319.660216,372.858508 Z" id="Stroke-95" fill="#1D39C4" fill-rule="nonzero"></path>
        <path d="M232.59825,430.20915 C232.59825,430.20915 226.32075,420.86265 223.60875,420.57915 C219.40575,420.14115 220.51725,428.70615 220.51725,428.70615 C220.51725,428.70615 216.51675,430.28415 217.98075,434.82765 C215.67825,438.45165 217.45575,440.79765 217.45575,440.79765 C217.45575,440.79765 214.53525,443.30415 217.28625,446.41815 C220.03575,449.53065 227.59575,450.38265 227.57175,445.00515 C231.14175,442.77315 229.28625,439.42215 229.28625,439.42215 C229.28625,439.42215 232.01325,437.15715 230.13225,433.94115 C232.55475,433.17015 233.24325,431.19015 232.59825,430.20915" id="Fill-97" fill="#FFC999"></path>
        <path d="M222.943693,427.465121 C223.06061,427.335338 223.248731,427.307858 223.395445,427.388553 L223.464829,427.437943 L230.379829,433.667443 C230.531242,433.803846 230.54341,434.037167 230.407007,434.188579 C230.29009,434.318362 230.101969,434.345842 229.955255,434.265147 L229.885871,434.215757 L222.970871,427.986257 C222.819458,427.849854 222.80729,427.616533 222.943693,427.465121 Z" id="Stroke-99" fill="#DD936F" fill-rule="nonzero"></path>
        <path d="M223.574966,420.21185 C223.777903,420.193191 223.957542,420.342578 223.9762,420.545516 C223.994859,420.748453 223.845472,420.928092 223.642534,420.94675 C221.883578,421.108474 220.973857,422.450601 220.71623,424.676125 C220.597701,425.700045 220.632452,426.803526 220.762746,427.864725 L220.82683,428.330401 C220.846869,428.459959 220.864958,428.562605 220.879219,428.634611 C220.909836,428.789199 220.8389,428.946168 220.702644,429.025345 C220.623124,429.071554 220.475706,429.167165 220.283265,429.309293 C219.959786,429.548199 219.635981,429.828136 219.334623,430.14561 C218.074202,431.473433 217.597768,432.98925 218.320169,434.683038 C218.370683,434.801478 218.355805,434.937685 218.280911,435.042426 C216.84702,437.04776 216.737792,438.708305 217.384169,440.012885 C217.517871,440.282736 217.647936,440.46302 217.725343,440.545847 C217.791541,440.61668 217.826539,440.709904 217.824685,440.804987 L217.816297,440.876328 L217.019797,444.533328 C216.976428,444.732453 216.779847,444.858717 216.580722,444.815347 C216.406488,444.777399 216.288038,444.622148 216.290202,444.450531 L216.298703,444.376272 L217.057,440.893 L217.048396,440.882385 C216.973441,440.78128 216.890806,440.654164 216.806934,440.501581 L216.722887,440.340529 C215.985673,438.852613 216.077416,436.987682 217.509385,434.859853 L217.564,434.78 L217.548997,434.742195 C216.860362,432.906239 217.366747,431.238782 218.636682,429.814315 L218.799369,429.637527 C219.132497,429.286585 219.488498,428.978814 219.844826,428.715647 L220.111,428.527 L220.068695,428.247511 L220.030246,427.954661 C219.893413,426.8402 219.856922,425.681476 219.983126,424.591261 C220.27619,422.059608 221.392634,420.4125 223.574966,420.21185 Z" id="Stroke-101" fill="#DD936F" fill-rule="nonzero"></path>
        <path d="M221.812882,435.517506 C221.895442,435.359451 222.076438,435.286143 222.241407,435.333496 L222.310794,435.361282 L229.458294,439.094782 C229.638929,439.189137 229.708872,439.412059 229.614518,439.592694 C229.531958,439.750749 229.350962,439.824057 229.185993,439.776704 L229.116606,439.748918 L221.969106,436.015418 C221.788471,435.921063 221.718528,435.698141 221.812882,435.517506 Z" id="Stroke-103" fill="#DD936F" fill-rule="nonzero"></path>
        <path d="M220.186066,442.002839 C220.253218,441.837648 220.426421,441.747457 220.595146,441.778905 L220.666861,441.799966 L227.710861,444.663466 C227.899651,444.740212 227.990481,444.955471 227.913734,445.144261 C227.846582,445.309452 227.673379,445.399643 227.504654,445.368195 L227.432939,445.347134 L220.388939,442.483634 C220.200149,442.406888 220.109319,442.191629 220.186066,442.002839 Z" id="Stroke-105" fill="#DD936F" fill-rule="nonzero"></path>
    </g>
</svg>