<svg xmlns="http://www.w3.org/2000/svg" xmlns:xlink="http://www.w3.org/1999/xlink" width="512" height="1024" version="1.1" viewBox="0 0 512 1024"><title>2.人物组件/4.商务拓展/站立/双手交叉</title><desc>Created with Sketch.</desc><defs><polygon id="path-1" points=".111 1.489 61.357 1.489 61.357 45 .111 45"/><polygon id="path-3" points="0 .981 93.28 .981 93.28 29.997 0 29.997"/></defs><g id="2.人物组件/4.商务拓展/站立/双手交叉" fill="none" fill-rule="evenodd" stroke="none" stroke-width="1"><path id="Fill-1" fill="#FFC999" d="M265.0137,674.06625 C264.9522,673.68525 298.2072,798.61575 298.4622,805.48425 C299.1567,824.23275 298.5972,826.88475 308.7837,831.49575 C311.3922,832.67775 315.2097,831.09825 319.4352,835.51875 C331.0032,847.61625 347.5032,854.10225 349.2927,846.84675 C350.3742,840.07275 323.3937,819.58425 320.2737,805.77825 C317.0337,791.43525 302.2812,663.66075 298.6092,651.33675 C292.0437,629.29875 254.0337,594.66675 265.0137,674.06625"/><g id="分组" transform="translate(298.500000, 810.042000)"><mask id="mask-2" fill="#fff"><use xlink:href="#path-1"/></mask><path id="Fill-3" fill="#253368" d="M3.91695,24.0987 C3.91695,24.0987 -1.20705,14.0322 0.43545,1.4892 C0.43545,1.4892 10.65495,8.8977 18.31995,17.0772 C27.17145,26.5242 29.25345,26.9457 29.25345,26.9457 C40.07745,29.8962 42.27645,23.6832 42.27645,23.6832 C42.27645,23.6832 48.37545,30.9882 59.66445,38.6892 C69.77295,45.5847 31.53945,48.4062 25.95945,38.9202 C20.38095,29.4342 13.27545,24.0267 13.27545,24.0267 L10.78995,38.7852 L7.13895,38.8107 L3.91695,24.0987 Z" mask="url(#mask-2)"/></g><path id="Fill-5" fill="#FFC999" d="M222.472572,686.3628 C222.498,685.9773 215.7555,792.1548 216.1395,799.0188 C217.188,817.7508 219.486,820.2003 209.7705,825.7368 C207.2835,827.1543 203.3355,825.9378 199.5375,830.7303 C189.144,843.8493 173.3175,851.8398 170.862,844.7808 C169.1565,838.1373 194.118,815.2323 195.942,801.1953 C197.838,786.6138 181.3125,668.6658 185.1735,656.4003 C190.848,638.3853 214.56,607.8048 222.472572,686.3628"/><path id="Fill-7" fill="#253368" d="M216.3552,827.77965 C216.3552,827.77965 219.0282,817.41915 216.2292,805.08315 C216.2292,805.08315 208.2357,813.26865 201.3627,822.12465 C193.4262,832.35165 191.3922,832.96665 191.3922,832.96665 C180.8892,836.90865 178.1232,830.92665 178.1232,830.92665 C178.1232,830.92665 172.7277,838.76565 162.2022,847.48065 C152.7777,855.28515 191.1087,854.54415 195.7842,844.58265 C200.4582,834.61965 207.0297,828.57615 207.0297,828.57615 L210.8757,843.04065 L214.5132,842.72565 L216.3552,827.77965 Z"/><path id="Fill-9" fill="#E4EBF7" d="M226.95405,627.94275 L228.82155,771.10425 L167.23605,775.05975 C167.23605,775.05975 166.34955,701.33325 167.70105,626.27325 C167.70105,626.27325 166.26705,588.75375 197.23755,588.591253 C228.20955,588.42975 226.95405,627.94275 226.95405,627.94275"/><path id="Fill-11" fill="#E4EBF7" d="M167.81475,609.27405 C167.99625,548.75955 169.46775,489.57555 174.67125,476.23755 C174.67125,476.23755 184.04625,463.96005 204.60225,476.16555 C228.57075,490.39605 226.92225,511.98705 226.92225,511.98705 L226.67475,610.00455 C226.37325,618.01305 226.10475,642.86955 195.22125,643.57455 C164.82075,644.26905 167.81175,610.59255 167.81475,609.27405"/><path id="Fill-13" fill="#253368" d="M237.38085,249.19785 C237.38085,249.19785 198.93285,253.55985 197.56785,275.38935 C196.86735,286.61835 207.19935,299.38035 201.71985,302.53935 C180.30435,314.88285 200.56635,323.83035 184.76835,330.14685 C162.50235,339.04935 170.08485,374.38035 190.85835,373.63335 C212.37435,372.85935 209.61285,402.97935 246.94485,396.18585 C267.98535,392.35785 263.52435,379.65435 278.65635,373.05585 C293.78685,366.45885 315.56985,336.80535 298.37985,316.92885 C287.70585,304.36035 276.85635,304.98285 271.60185,284.70735 C266.34885,264.43185 260.93385,251.89485 250.96785,253.02735 C247.63035,247.68585 237.38085,249.19785 237.38085,249.19785"/><path id="Fill-15" fill="#FFF" d="M212.6844,295.36095 C212.6019,294.93495 212.0169,294.88095 211.8564,295.28445 C210.4404,298.84845 206.9934,308.48595 210.8094,309.15795 C215.1144,309.91545 213.4344,299.25045 212.6844,295.36095"/><path id="Fill-17" fill="#F4B784" d="M245.5803,329.8338 C245.0343,312.3408 245.7648,305.5413 245.7648,305.5413 L223.6053,310.4448 L221.5023,328.8648 C220.7298,335.6463 225.7218,341.7213 232.5243,342.2748 C239.7183,342.8628 245.8053,337.0473 245.5803,329.8338"/><path id="Fill-19" fill="#FFC999" d="M237.4161,272.39805 C237.4161,272.39805 235.3851,265.42455 230.4846,268.34505 C226.9806,270.43305 228.0156,268.57455 227.4111,266.68905 C225.1656,259.69155 222.5661,275.48805 211.5351,278.14305 C210.6891,286.63305 208.4601,314.61555 226.7541,317.11155 C233.8701,318.08205 242.8521,314.33505 247.3341,304.26405 C250.0431,298.17855 248.6706,291.61455 246.2631,290.15205 C238.3311,285.33255 238.8216,281.03955 237.4161,272.39805"/><path id="Stroke-21" fill="#DD936F" fill-rule="nonzero" d="M221.648754,278.74704 C221.928527,278.688016 222.203689,278.843171 222.303732,279.101409 L222.33036,279.191154 L223.27086,283.649154 L223.280409,283.824998 L223.235217,284.229415 L223.175411,284.711027 C223.09629,285.326773 222.996244,286.030931 222.873154,286.818839 L222.809678,287.219751 C222.441166,289.51732 221.952535,292.074674 221.327456,294.855957 L221.079,295.939 L221.86865,296.310486 C222.334962,296.530794 222.814679,296.758934 223.300038,296.990986 L226.063756,298.324409 C226.349282,298.463726 226.467808,298.808129 226.328491,299.093656 C226.189174,299.379182 225.844771,299.497708 225.559244,299.358391 L224.265181,298.731091 C223.533861,298.378113 222.797823,298.025146 222.083412,297.685477 L220.490118,296.933669 C220.381703,296.88297 220.275052,296.833207 220.170236,296.784415 C219.922921,296.669291 219.790475,296.396292 219.853126,296.130786 C220.583679,293.034837 221.149357,290.197146 221.571216,287.664365 L221.673697,287.037549 C221.781351,286.366358 221.872865,285.752725 221.949461,285.19935 L222.092389,284.096769 L222.126,283.797 L221.20464,279.428646 C221.145616,279.148873 221.300771,278.873711 221.559009,278.773668 L221.648754,278.74704 Z"/><path id="Stroke-23" fill="#253368" fill-rule="nonzero" d="M214.128589,284.394129 C214.537263,284.461639 214.813832,284.847664 214.746321,285.256339 L214.716192,285.505842 C214.656441,286.119873 214.669038,286.78999 214.80095,287.400959 C215.064651,288.622324 215.700636,289.257839 216.969399,289.233739 C217.807895,289.21758 218.33098,288.676526 218.642389,287.657856 C218.816678,287.087728 218.887776,286.489203 218.896834,286.007131 L218.896771,285.795239 L218.900203,285.693296 C218.937567,285.325762 219.241728,285.033248 219.621211,285.020521 C220.000693,285.007794 220.32377,285.279272 220.385675,285.643477 L220.396176,285.753032 L220.396754,286.034712 C220.386079,286.64285 220.298778,287.370438 220.076858,288.096375 C219.595636,289.670531 218.597809,290.702635 216.998094,290.733465 C214.929757,290.772752 213.737058,289.580933 213.334735,287.717524 C213.16508,286.931744 213.149743,286.115891 213.223244,285.360564 L213.256843,285.074111 C213.260233,285.050466 213.263436,285.029675 213.266379,285.011861 C213.328263,284.637243 213.657788,284.37363 214.027063,284.384297 L214.128589,284.394129 Z"/><path id="Stroke-25" fill="#253368" fill-rule="nonzero" d="M230.874471,285.547206 C231.250823,285.597488 231.524489,285.918712 231.525235,286.28814 L231.502543,286.557654 C231.456445,287.159936 231.487284,287.840878 231.648189,288.464673 C231.955815,289.657269 232.626593,290.287149 233.912592,290.262732 C234.756257,290.246916 235.286747,289.711189 235.608481,288.706601 C235.791715,288.134468 235.867753,287.537409 235.879955,287.070663 L235.881402,286.87906 C235.871665,286.461045 236.199504,286.117495 236.613605,286.107805 C236.993196,286.098923 237.313506,286.373658 237.371719,286.738472 L237.381293,286.860934 C237.388961,287.495416 237.304784,288.327997 237.037008,289.164107 C236.539699,290.716913 235.53394,291.7326 233.940888,291.762465 C231.887536,291.801453 230.663256,290.651817 230.195732,288.839329 C229.98714,288.030665 229.949324,287.195656 230.006917,286.443181 L230.031756,286.191279 C230.082038,285.814927 230.403262,285.541261 230.77269,285.540515 L230.874471,285.547206 Z"/><path id="Stroke-27" fill="#B53026" fill-rule="nonzero" d="M231.759898,300.644377 C232.159461,300.535189 232.571885,300.770584 232.681073,301.170148 C232.790261,301.569711 232.554866,301.982135 232.155302,302.091323 C228.805491,303.006721 225.661805,303.121754 223.001676,302.767996 L222.64821,302.717486 C222.322162,302.667418 222.079217,302.619683 221.92703,302.58337 C221.524127,302.487234 221.275444,302.082683 221.37158,301.67978 C221.467716,301.276877 221.872267,301.028194 222.27517,301.12433 L222.515599,301.174196 C222.685469,301.205903 222.914925,301.243253 223.199413,301.281086 C225.673886,301.610155 228.620253,301.502342 231.759898,300.644377 Z"/><path id="Stroke-29" fill="#253368" fill-rule="nonzero" d="M212.376451,277.035597 L213.724274,277.294917 C214.762403,277.489804 215.851036,277.684697 216.937238,277.866509 C217.359629,277.93721 217.773723,278.004572 218.177748,278.068161 L218.776015,278.160659 C219.576964,278.282185 220.321714,278.385539 220.999134,278.468053 C221.410308,278.518136 221.703031,278.892059 221.652947,279.303234 C221.602864,279.714408 221.228941,280.007131 220.817766,279.957047 L219.955055,279.84587 C219.50854,279.785432 219.039781,279.717847 218.551,279.643686 L217.324066,279.450626 L216.689609,279.345927 C215.867061,279.208247 215.043726,279.063243 214.241666,278.916407 L212.082449,278.506503 C211.67627,278.425316 211.412811,278.030228 211.493997,277.624049 C211.568418,277.251718 211.906603,276.999312 212.275312,277.022364 L212.376451,277.035597 Z"/><path id="Stroke-31" fill="#253368" fill-rule="nonzero" d="M239.362145,278.55587 C239.773199,278.504809 240.147818,278.796641 240.19888,279.207695 C240.249941,279.618749 239.958109,279.993368 239.547055,280.04443 C236.895849,280.373764 234.231532,280.588155 231.683228,280.710413 L230.405459,280.764044 C230.135394,280.77369 229.874885,280.781875 229.624532,280.788702 L228.35231,280.812157 C227.938098,280.813367 227.601324,280.478572 227.600093,280.06436 C227.598883,279.650148 227.933678,279.313374 228.34789,279.312153 L229.222364,279.298331 L229.960996,279.278154 C230.473456,279.261989 231.025188,279.240258 231.611347,279.212137 C234.124137,279.091582 236.751538,278.880161 239.362145,278.55587 Z"/><path id="Stroke-33" fill="#DD936F" fill-rule="nonzero" d="M225.283466,305.398389 L227.285966,305.492889 C227.603315,305.507865 227.848437,305.777268 227.833461,306.094616 C227.819982,306.38023 227.600418,306.60734 227.325293,306.638988 L227.231734,306.642111 L225.229234,306.547611 C224.911885,306.532635 224.666763,306.263232 224.681739,305.945884 C224.695218,305.66027 224.914782,305.43316 225.189907,305.401512 L225.283466,305.398389 Z"/><path id="Fill-35" fill="#FFC999" d="M258.6285,295.2489 C260.598,288.1524 253.665,288.1689 253.665,288.1689 C253.665,288.1689 253.0935,295.3254 250.8255,301.6179 C257.76,301.8294 258.6285,295.2489 258.6285,295.2489"/><path id="Fill-37" fill="#FFF" d="M254.42145,300.05055 C254.33895,299.62455 253.75545,299.57055 253.59495,299.97405 C252.17895,303.53805 248.73045,313.17555 252.54795,313.84755 C256.85145,314.60505 255.17145,303.94005 254.42145,300.05055"/><path id="Fill-39" fill="#FFC999" d="M156.08715,415.1631 C156.08715,415.1631 175.72065,364.6626 180.11265,355.5096 C188.90865,337.1736 203.24415,338.1081 209.19315,350.7681 C216.36615,366.0291 178.20765,427.1316 178.20765,427.1316 C178.20765,427.1316 173.46465,436.1526 162.74715,432.5106 C150.08115,428.2056 156.08715,415.1631 156.08715,415.1631"/><path id="Fill-41" fill="#597EF7" d="M167.91435,383.3226 C169.95435,378.6681 179.45835,332.6406 203.16135,341.0676 C218.72685,346.6011 215.21835,359.4591 198.34785,391.8906 L167.91435,383.3226 Z"/><path id="Fill-43" fill="#597EF7" d="M243.65475,430.8567 C231.84225,433.7382 202.11375,431.7972 198.60525,430.2942 C195.09525,428.7897 198.32325,422.1282 198.32325,422.1282 C198.32325,422.1282 185.29425,397.8477 184.79325,390.3282 C184.29075,382.8102 190.99575,365.8092 190.99575,365.8092 C190.99575,365.8092 193.38525,348.3612 194.53725,344.0412 C196.33275,337.3122 211.33125,339.2217 215.21625,337.2162 C219.10125,335.2122 219.91425,327.7347 219.91425,327.7347 L246.17175,326.1087 C246.17175,326.1087 247.63275,333.5547 249.17925,336.1347 C252.18675,341.1462 270.12075,338.5542 277.72275,343.7622 C296.40525,356.5647 256.52925,397.5582 246.31875,420.2067 C246.31875,420.2067 249.90225,425.7117 243.65475,430.8567"/><path id="Stroke-45" fill="#1D39C4" fill-rule="nonzero" d="M245.805238,338.780704 C246.113659,338.743473 246.393865,338.963317 246.431096,339.271738 C246.464603,339.549317 246.289881,339.804042 246.029762,339.879352 L245.940062,339.897596 L220.876562,342.923096 C220.568141,342.960327 220.287935,342.740483 220.250704,342.432062 C220.217197,342.154483 220.391919,341.899758 220.652038,341.824448 L220.741738,341.806204 L245.805238,338.780704 Z"/><path id="Stroke-47" fill="#1D39C4" fill-rule="nonzero" d="M245.018585,342.507522 C245.319181,342.42909 245.626445,342.609189 245.704878,342.909785 C245.775467,343.180322 245.636646,343.456259 245.389041,343.565918 L245.302615,343.596078 L232.051615,347.053578 C231.751019,347.13201 231.443755,346.951911 231.365322,346.651315 C231.294733,346.380778 231.433554,346.104841 231.681159,345.995182 L231.767585,345.965022 L245.018585,342.507522 Z"/><path id="Stroke-49" fill="#1D39C4" fill-rule="nonzero" d="M244.766055,380.729588 C244.994349,380.518894 245.350218,380.533162 245.560912,380.761455 C245.771606,380.989749 245.757338,381.345618 245.529045,381.556312 L245.376081,381.690733 C245.195504,381.843391 244.932234,382.049137 244.587604,382.293326 C243.831095,382.829354 242.936606,383.363837 241.907336,383.861813 C237.199801,386.139386 231.459279,386.903309 224.791833,385.278019 L224.263532,385.144727 C222.202632,384.606978 216.996002,384.612005 209.697415,385.038021 C207.491035,385.166806 205.158072,385.330478 202.753555,385.520922 L200.89744,385.67202 C199.366475,385.799979 197.879073,385.932447 196.465758,386.06491 L193.926286,386.311979 C193.617266,386.343866 193.340907,386.119205 193.309021,385.810186 C193.277134,385.501166 193.501795,385.224807 193.810814,385.192921 L196.360776,384.944819 L198.094794,384.785743 C199.566238,384.653662 201.099697,384.523389 202.66473,384.399434 C204.674592,384.240247 206.634973,384.099685 208.514267,383.982442 L209.63186,383.914933 C216.905484,383.490374 222.082262,383.475886 224.391089,384.017469 L224.547507,384.056157 C231.170367,385.783469 236.817728,385.074488 241.417377,382.849111 C242.38882,382.379113 243.230003,381.876481 243.937199,381.375394 L244.224708,381.166533 C244.485627,380.971861 244.666606,380.821371 244.766055,380.729588 Z"/><path id="Stroke-51" fill="#1D39C4" fill-rule="nonzero" d="M192.125171,354.948213 C192.403093,354.978743 192.611382,355.206841 192.625531,355.477272 L192.622887,355.568771 L191.679387,364.157771 L191.641951,364.306669 L191.377768,364.976645 L190.972893,366.030712 C190.877687,366.281816 190.779187,366.543802 190.677779,366.81594 C189.953298,368.760168 189.228787,370.82219 188.55281,372.910815 C188.00922,374.590393 187.520053,376.217719 187.098727,377.767379 C186.015426,381.751817 185.433255,385.022804 185.480132,387.307813 C185.518055,389.156411 185.921379,391.409684 186.633518,393.974107 C187.118671,395.72115 187.735446,397.570744 188.45319,399.478196 C189.107895,401.218117 189.809675,402.909965 190.511372,404.486175 L190.932926,405.418578 L191.443861,406.504325 C191.580566,406.78329 191.465241,407.120257 191.186275,407.256961 C190.90731,407.393666 190.570343,407.278341 190.433639,406.999375 L190.17078,406.448284 L189.910885,405.888746 C189.775666,405.59448 189.632819,405.278868 189.483614,404.943712 C188.773425,403.348425 188.06332,401.636506 187.400265,399.874396 C186.671473,397.937584 186.04436,396.056985 185.549539,394.275128 C184.814366,391.627761 184.395513,389.287727 184.355368,387.330887 C184.305758,384.912613 184.903816,381.552358 186.013135,377.472225 C186.439439,375.904255 186.933669,374.260087 187.482471,372.564404 C188.050317,370.809881 188.651789,369.074977 189.258883,367.411915 L189.62359,366.423116 C189.827993,365.874579 190.020752,365.366776 190.19877,364.905502 L190.598549,363.886031 L191.504613,355.445929 C191.535143,355.168007 191.763241,354.959718 192.033672,354.945569 L192.125171,354.948213 Z"/><path id="Fill-53" fill="#E4EBF7" d="M195.91335,506.8536 L173.54535,479.0526 C173.54535,479.0526 177.48735,449.2071 197.33985,437.2656 L247.03785,438.5406 C247.03785,438.5406 264.79185,453.9726 267.52185,492.3171 L220.36485,509.5911 L195.91335,506.8536 Z"/><polygon id="Fill-55" fill="#E4EBF7" points="247.038 438.316 197.34 437.266 199.381 429.712 245.538 429.541"/><path id="Stroke-57" fill="#A3B5D6" fill-rule="nonzero" d="M215.297889,437.388534 C215.605272,437.433539 215.817971,437.719206 215.772966,438.026589 C215.351336,440.906299 214.988005,443.878981 214.680641,446.936663 C213.118013,462.48181 213.055792,479.032784 213.914999,494.645567 L214.014229,496.376361 C214.13945,498.476374 214.272704,500.386794 214.406735,502.083363 L214.540947,503.707803 L214.649639,504.900433 C214.680383,505.209568 214.454702,505.485095 214.145567,505.515839 C213.836432,505.546583 213.560905,505.320902 213.530161,505.011767 L213.474947,504.422945 L213.330135,502.732142 L213.195721,501.004961 C213.091602,499.606816 212.988964,498.082472 212.891224,496.443325 C211.926966,480.272298 211.933886,463.013611 213.561283,446.824143 C213.870301,443.750008 214.235682,440.760544 214.659834,437.863611 C214.700339,437.586966 214.935779,437.387015 215.206545,437.3826 L215.297889,437.388534 Z"/><path id="Stroke-59" fill="#A3B5D6" fill-rule="nonzero" d="M198.198892,436.904115 L243.291892,437.228115 C243.602544,437.230347 243.852568,437.483989 243.85035,437.794642 C243.848327,438.074228 243.642675,438.304707 243.375099,438.346379 L243.283808,438.353085 L198.190808,438.029085 C197.880156,438.026853 197.630132,437.773211 197.63235,437.462558 C197.634373,437.182972 197.840025,436.952493 198.107601,436.910821 L198.198892,436.904115 Z"/><path id="Fill-61" fill="#E4EBF7" d="M240.55665,625.4634 L271.42515,773.6829 L332.83965,771.1959 C332.83965,771.1959 316.01415,689.6589 300.81015,618.7059 C300.81015,618.7059 294.01215,577.4574 263.42565,582.3219 C232.83765,587.1849 240.55665,625.4634 240.55665,625.4634"/><path id="Fill-63" fill="#E4EBF7" d="M298.4172,607.72575 C287.9487,548.12175 268.6662,477.71625 261.2697,465.45675 C261.2697,465.45675 253.4097,458.55975 235.2282,474.08175 C214.0272,492.18075 218.5947,510.58725 218.5947,510.58725 L238.3047,615.32775 C239.9622,623.16825 243.1512,645.87225 273.2517,638.92575 C297.4317,633.34725 298.6452,609.02325 298.4172,607.72575"/><path id="Fill-65" fill="#FFC999" d="M247.03275,424.99305 C247.03275,424.99305 252.62625,375.35055 254.07075,365.30205 C257.55975,341.03355 269.67975,336.37155 279.31875,346.50855 C290.93925,358.72905 273.68925,430.09005 273.68925,430.09005 C273.68925,430.09005 270.74025,439.14705 259.42125,439.071032 C246.04275,438.98205 247.03275,424.99305 247.03275,424.99305"/><path id="Fill-67" fill="#597EF7" d="M249.624,388.71975 C250.092,383.66025 248.0265,339.18525 269.622,340.60875 C286.107,341.69625 287.7255,351.44625 281.946,387.54525 L249.624,388.71975 Z"/><g id="分组" transform="translate(154.500000, 408.042000)"><mask id="mask-4" fill="#fff"><use xlink:href="#path-3"/></mask><path id="Fill-69" fill="#FFC999" d="M91.1682,20.61165 C91.1682,20.61165 31.8927,30.18615 21.7422,29.99415 C-8.6733,29.41965 -3.6138,3.83265 15.1527,1.56165 C26.5857,0.17865 44.5887,1.62015 60.5487,2.23965 C78.1827,2.92365 93.2802,2.87265 93.2802,2.87265 L91.1682,20.61165 Z" mask="url(#mask-4)"/></g><path id="Fill-71" fill="#FFC999" d="M178.0188,407.90775 C178.0188,407.90775 247.6863,410.85825 257.7318,412.32225 C282.6423,415.95525 276.7113,436.62525 259.1403,438.22575 C235.7628,440.35575 176.9238,422.45925 176.9238,422.45925 L178.0188,407.90775 Z"/><path id="Fill-73" fill="#FFC999" d="M250.28475,433.5213 C250.28475,433.5213 235.98375,425.5308 232.28025,417.5328 C229.25175,410.9928 237.45825,410.1378 237.45825,410.1378 C237.45825,410.1378 251.29425,409.6728 259.21275,411.5793 C264.40275,412.8273 274.62075,413.7303 274.69575,416.5578 C274.79325,420.2448 264.49575,417.6168 262.89375,419.7708 C259.64775,424.1328 275.41425,429.9738 277.46175,432.2928 C281.46525,436.8258 268.62975,442.2408 250.28475,433.5213"/><path id="Stroke-75" fill="#DD936F" fill-rule="nonzero" d="M261.155667,427.459508 C261.358047,427.214607 261.720641,427.180137 261.965542,427.382517 L262.242353,427.602318 L262.349123,427.684761 C262.668994,427.930452 263.041693,428.204811 263.463101,428.50067 C264.669298,429.347506 266.021437,430.19484 267.486235,430.985401 C270.331506,432.521012 273.245195,433.650949 276.124507,434.206103 C276.436463,434.266251 276.640594,434.567901 276.580447,434.879857 C276.520299,435.191813 276.218649,435.395944 275.906693,435.335797 C272.900565,434.756191 269.880721,433.585087 266.939806,431.997856 C265.433111,431.184683 264.043281,430.31373 262.802025,429.442279 L262.303701,429.086387 C262.224676,429.02894 262.147686,428.972467 262.072764,428.917023 L261.648304,428.597177 C261.447014,428.442568 261.307125,428.33092 261.232658,428.269383 C260.987757,428.067003 260.953287,427.704409 261.155667,427.459508 Z"/><path id="Stroke-77" fill="#DD936F" fill-rule="nonzero" d="M257.42614,430.476822 C257.603135,430.21299 257.960496,430.142595 258.224328,430.31959 C261.779313,432.704499 265.268411,434.414258 268.542719,435.560416 C269.685417,435.960413 270.718466,436.261318 271.623143,436.477062 L271.994808,436.562659 C272.334807,436.637956 272.578934,436.683009 272.719272,436.703705 C273.033575,436.750053 273.250794,437.042419 273.204445,437.356722 C273.158097,437.671025 272.865731,437.888244 272.551428,437.841895 L272.231768,437.785837 C271.980681,437.737936 271.688065,437.675306 271.35626,437.596179 C270.414004,437.371474 269.343197,437.05957 268.162606,436.646309 C264.798945,435.468874 261.222199,433.716164 257.583372,431.27501 C257.31954,431.098015 257.249145,430.740654 257.42614,430.476822 Z"/><path id="Stroke-79" fill="#DD936F" fill-rule="nonzero" d="M253.284917,432.081419 C253.479035,431.829918 253.84028,431.783399 254.091781,431.977517 L254.271967,432.109251 C254.378591,432.184595 254.520734,432.281864 254.698918,432.39918 L255.179365,432.706636 C255.603511,432.970877 256.087227,433.2547 256.631536,433.554438 C258.819118,434.75909 261.515315,435.967648 264.742685,437.099568 C265.042482,437.204715 265.200278,437.532987 265.095132,437.832785 C264.989985,438.132582 264.661713,438.290378 264.361915,438.185232 C261.074035,437.032089 258.319607,435.797429 256.076564,434.562237 C255.400547,434.189969 254.812329,433.839908 254.310164,433.518431 L254.066245,433.360104 C253.730207,433.138857 253.505326,432.978207 253.388819,432.888283 C253.137318,432.694165 253.090799,432.33292 253.284917,432.081419 Z"/><path id="Stroke-81" fill="#DD936F" fill-rule="nonzero" d="M166.561422,409.048982 L167.56592,408.892974 C175.090535,407.786488 184.421553,407.800247 205.358725,408.604904 L218.983674,409.14144 C229.631138,409.536093 235.928305,409.652165 242.103054,409.524007 L242.815223,409.508137 C247.600825,409.56321 252.456346,409.862812 256.179303,410.430637 L257.246107,410.511891 C257.374561,410.522168 257.49019,410.575091 257.579412,410.656175 L257.591,410.668 L258.262453,410.796321 C258.557658,410.854846 258.830586,410.912598 259.089653,410.971656 L259.840187,411.146263 C260.271467,411.242894 260.751034,411.342152 261.301022,411.44939 L265.579895,412.235488 C272.341513,413.486723 275.203404,414.481862 275.258053,416.54323 C275.315229,418.705339 273.547034,419.210228 269.014339,419.311314 L267.369684,419.344813 C264.782623,419.417599 263.715466,419.607656 263.345068,420.105335 C263.023065,420.538194 262.93198,420.954424 263.037321,421.399674 C263.376439,422.833047 265.52165,424.450222 269.51064,426.557687 L270.154443,426.893107 C271.126186,427.391463 273.581167,428.631116 274.205054,428.961518 L274.736006,429.247261 C275.908848,429.89003 276.625633,430.371005 277.017928,430.815318 C279.419015,433.53499 277.011804,436.700874 271.947389,437.872318 C266.264351,439.186854 258.429262,438.015547 250.009943,434.012403 L249.538888,433.741329 L248.789848,433.296415 C248.470653,433.103977 248.130921,432.895713 247.773128,432.672421 C246.313415,431.76144 244.807808,430.76055 243.313948,429.688154 L242.757,429.284 L237.065014,430.162214 C221.809708,432.503704 207.745028,434.576544 196.442222,436.106003 L195.578249,436.222578 C195.270363,436.263999 194.987193,436.047986 194.945772,435.740099 C194.904351,435.432213 195.120364,435.149043 195.428251,435.107622 L200.768825,434.377056 C212.74668,432.713785 227.2868,430.542171 242.815662,428.137227 C242.96364,428.114309 243.114649,428.151341 243.235236,428.240117 C244.946773,429.500152 246.688777,430.66959 248.368747,431.718029 L249.049285,432.138029 C249.376823,432.337838 249.684712,432.522181 249.970459,432.690245 L250.526222,433.013567 C258.695308,436.896388 266.275454,438.029582 271.693861,436.776257 C276.066536,435.764819 277.834335,433.439868 276.174586,431.559897 C275.870498,431.215487 275.142649,430.742343 273.927987,430.08883 L273.410761,429.815986 C272.430496,429.308979 269.980584,428.072439 269.370187,427.754409 L268.6067,427.351435 C264.525019,425.167103 262.377556,423.497385 261.942543,421.658685 C261.759563,420.885271 261.924951,420.129498 262.442508,419.433763 C263.117075,418.527392 264.229348,418.301868 267.291873,418.220434 L268.680866,418.192775 C272.665687,418.121459 274.164165,417.734581 274.133448,416.573007 C274.10494,415.497719 271.617517,414.561766 266.509853,413.557929 L264.381949,413.160868 C263.465813,412.994664 262.228279,412.770454 261.788679,412.687937 L260.754594,412.488308 C260.222209,412.382085 259.755399,412.282542 259.331152,412.184076 L259.081527,412.12508 C258.521852,411.990811 257.896452,411.865313 257.103909,411.723848 C257.015549,411.708076 256.935045,411.672168 256.866825,411.621329 L256.853,411.61 L256.053184,411.547707 C252.347791,410.984238 247.540077,410.687585 242.82216,410.63294 L241.751783,410.656017 C235.083981,410.784392 228.178535,410.628 215.748979,410.144183 L205.333484,409.729792 C183.540446,408.892272 174.353849,408.913945 166.743078,410.159218 C166.436495,410.209382 166.147295,410.001512 166.097132,409.694928 C166.046968,409.388345 166.254838,409.099145 166.561422,409.048982 Z"/><path id="Fill-83" fill="#FFC999" d="M198.0411,409.22535 C198.0411,409.22535 187.2741,397.80885 184.8081,396.55485 C182.3406,395.30235 171.5901,399.47985 171.5901,399.47985 C171.5901,399.47985 167.9016,407.52585 167.6331,409.22535 C175.2351,408.10035 178.8516,408.63435 178.8516,408.63435 L198.0411,409.22535 Z"/><path id="Stroke-85" fill="#DD936F" fill-rule="nonzero" d="M178.652124,396.575961 L178.301541,396.670161 C177.5499,396.874912 176.763855,397.107886 175.953592,397.363832 C174.85188,397.711842 173.760527,398.084467 172.727971,398.457114 L171.972922,398.733721 L171.386362,398.955544 C171.250043,399.008515 171.139715,399.112497 171.078769,399.245442 L170.456016,400.623403 C170.144876,401.318368 169.833722,402.022029 169.531717,402.715856 L168.855729,404.289918 L168.473729,405.202686 C167.670788,407.144178 167.178243,408.499852 167.077491,409.137571 C167.018245,409.512576 167.33988,409.837369 167.715446,409.78179 L168.761804,409.633511 C172.69444,409.101484 175.726263,408.98303 177.885383,409.113605 L178.437351,409.154314 C178.596533,409.168662 178.707093,409.181612 178.769434,409.190817 L198.023784,409.787583 C198.525092,409.803023 198.794433,409.204287 198.450318,408.839413 L196.837576,407.148463 L196.538977,406.838007 C195.383144,405.637681 194.212035,404.437306 193.070667,403.287863 L191.893467,402.110187 L190.691627,400.926315 C187.942122,398.242246 186.000269,396.530036 185.063068,396.053454 C183.965245,395.496201 181.773045,395.74929 178.652124,396.575961 Z M184.553498,397.056431 C185.349988,397.461459 187.272108,399.161078 189.931126,401.756363 L191.100683,402.908384 L191.426452,403.232647 C192.545377,404.348693 193.705847,405.528882 194.86252,406.721938 L196.314014,408.227697 L196.69,408.621 L178.868916,408.072117 L178.795331,408.060794 C178.725917,408.051884 178.617111,408.040536 178.476856,408.02846 L177.957603,407.990925 L177.32704,407.960501 C175.261652,407.885063 172.543883,408.01193 169.156225,408.446793 L168.395,408.548 L168.418358,408.480393 C168.698447,407.637937 169.209921,406.340501 169.891865,404.728152 L170.121079,404.189306 C170.409822,403.514208 170.712422,402.819644 171.019649,402.124321 L172.006,399.922 L173.109871,399.51531 C174.129025,399.1475 175.206338,398.779668 176.292454,398.436584 C177.089094,398.184941 177.860925,397.956181 178.597223,397.755609 L179.226448,397.589064 C181.897466,396.903524 183.833069,396.690743 184.553498,397.056431 Z"/><path id="Stroke-87" fill="#DD936F" fill-rule="nonzero" d="M179.630035,400.508673 C179.934662,400.447748 180.231001,400.645307 180.291927,400.949935 C180.34676,401.224099 180.19222,401.49155 179.93869,401.586714 L179.850665,401.611827 L169.995665,403.582827 C169.691038,403.643752 169.394699,403.446193 169.333773,403.141565 C169.27894,402.867401 169.43348,402.59995 169.68701,402.504786 L169.775035,402.479673 L179.630035,400.508673 Z"/><path id="Stroke-89" fill="#DD936F" fill-rule="nonzero" d="M179.101062,404.164311 C179.408927,404.122731 179.692208,404.338597 179.733789,404.646462 C179.771211,404.92354 179.600102,405.180706 179.341072,405.259681 L179.251638,405.279189 L168.834138,406.686189 C168.526273,406.727769 168.242992,406.511903 168.201411,406.204038 C168.163989,405.92696 168.335098,405.669794 168.594128,405.590819 L168.683562,405.571311 L179.101062,404.164311 Z"/><path id="Stroke-91" fill="#A3B5D6" fill-rule="nonzero" d="M204.061464,516.45173 C204.223428,516.228073 204.519297,516.158768 204.759763,516.2741 L204.84697,516.326064 L221.17747,528.152064 C221.268478,528.217968 221.337126,528.309203 221.37548,528.41349 L221.398441,528.493961 L271.975441,773.569961 C272.03823,773.87421 271.842488,774.171753 271.538239,774.234541 C271.264415,774.291051 270.996023,774.138151 270.89931,773.885208 L270.873659,773.797339 L220.34,528.935 L204.18713,517.237236 C203.963473,517.075272 203.894168,516.779403 204.0095,516.538937 L204.061464,516.45173 Z"/></g></svg>