<svg xmlns="http://www.w3.org/2000/svg" xmlns:xlink="http://www.w3.org/1999/xlink" width="512" height="1024" version="1.1" viewBox="0 0 512 1024"><title>2.人物组件/4.商务拓展/站立/自信</title><desc>Created with Sketch.</desc><defs><polygon id="path-1" points=".278 .733 21.574 .733 21.574 28.5 .278 28.5"/><polygon id="path-3" points=".602 .278 45.27 .278 45.27 37.374 .602 37.374"/></defs><g id="2.人物组件/4.商务拓展/站立/自信" fill="none" fill-rule="evenodd" stroke="none" stroke-width="1"><path id="Fill-1" fill="#253368" d="M214.03655,233.7197 C214.03655,233.7197 176.32955,242.4122 177.45005,264.2552 C178.02605,275.4917 189.73805,287.0012 184.65305,290.7587 C164.77505,305.4512 184.94105,309.7727 169.96055,317.8397 C148.84655,329.2082 158.70305,358.2677 179.75555,362.7797 C200.80805,367.2902 220.45055,384.8552 241.50305,381.0962 C262.55555,377.3372 254.80205,360.3707 269.08655,352.0997 C283.37255,343.8302 301.65305,311.8982 282.31955,294.0992 C270.28955,282.8207 259.58105,284.6687 252.06305,265.1207 C244.54355,245.5712 237.74405,233.7287 227.97005,235.9847 C224.04755,231.0557 214.03655,233.7197 214.03655,233.7197"/><path id="Fill-3" fill="#FFF" d="M194.732,282.38555 C194.603,281.97155 194.015,281.98355 193.901,282.40205 C192.899,286.10405 190.565,296.07155 194.435,296.30555 C198.797,296.57105 195.9185,286.16405 194.732,282.38555"/><path id="Fill-5" fill="#F4B784" d="M207.2924,323.57765 L207.2924,296.13515 L228.7544,288.74915 C228.7544,288.74915 228.9089,300.46415 233.5319,327.73865 C225.6359,335.25815 207.2924,332.63165 207.2924,323.57765"/><path id="Fill-7" fill="#FFC999" d="M216.701,256.76615 C216.701,256.76615 213.8915,250.06865 209.3555,253.52465 C206.111,255.99665 206.9285,254.03315 206.114,252.22865 C203.09,245.53115 202.2965,261.51965 191.639,265.40915 C191.7605,273.93965 192.719,301.99415 211.1765,302.39915 C218.357,302.55665 226.856,297.81815 230.1695,287.30165 C232.1705,280.94915 230.0615,274.58315 227.504,273.40265 C219.077,269.51465 219.077,265.19315 216.701,256.76615"/><path id="Stroke-9" fill="#DD936F" fill-rule="nonzero" d="M201.759427,264.874747 C202.024683,264.786359 202.309225,264.906562 202.435075,265.146344 L202.470903,265.230577 L203.910903,269.552077 L203.939692,269.72185 L203.94019,270.210437 C203.938811,270.428702 203.935503,270.685832 203.929626,270.980763 L203.909333,271.780967 C203.892361,272.337336 203.868335,272.939225 203.836236,273.58494 C203.726396,275.794568 203.537502,278.230434 203.253653,280.866094 L203.124,282.015 L204.038221,282.325075 C204.761727,282.57115 205.514345,282.830345 206.269489,283.092816 L208.357722,283.824737 C208.650523,283.928551 208.803727,284.250071 208.699913,284.542872 C208.596099,284.835673 208.274579,284.988877 207.981778,284.885063 L206.65322,284.417984 L204.40577,283.639413 L202.335464,282.938565 C202.082268,282.854215 201.923196,282.603559 201.954677,282.338546 C202.338527,279.107295 202.582063,276.155536 202.712624,273.529085 L202.754343,272.604823 C202.772331,272.159318 202.786108,271.73891 202.796102,271.344315 L202.815201,270.205571 L202.815,269.823 L201.403597,265.586223 C201.315209,265.320967 201.435412,265.036425 201.675194,264.910575 L201.759427,264.874747 Z"/><path id="Stroke-11" fill="#090D33" fill-rule="nonzero" d="M200.4525,271.32501 C200.862235,271.264259 201.243638,271.547166 201.30439,271.9569 L201.329095,272.164545 C201.332102,272.194771 201.335138,272.227277 201.338148,272.261959 C201.399564,272.969614 201.381494,273.738186 201.22433,274.479703 C200.89785,276.020079 200.024063,277.094274 198.494084,277.298326 C196.371093,277.581279 195.041923,276.454656 194.458736,274.552161 C194.306989,274.057126 194.214077,273.535937 194.167191,273.009636 C194.142056,272.727488 194.132379,272.473043 194.132824,272.257778 L194.137446,272.036733 C194.158249,271.623042 194.510476,271.304544 194.924167,271.325346 C195.303384,271.344416 195.602612,271.641973 195.633827,272.010081 L195.634499,272.144038 C195.619435,272.706154 195.684032,273.431269 195.892869,274.112545 C196.281034,275.378833 196.995877,275.984743 198.295851,275.811483 C199.097762,275.704532 199.548977,275.14983 199.756928,274.16869 C199.878665,273.594318 199.893475,272.964421 199.843765,272.391653 L199.825019,272.209535 C199.823342,272.196203 199.821854,272.185287 199.82061,272.1769 C199.759859,271.767165 200.042766,271.385762 200.4525,271.32501 Z"/><path id="Stroke-13" fill="#090D33" fill-rule="nonzero" d="M217.459548,270.48031 C217.86989,270.42381 218.24834,270.710656 218.30484,271.120998 L218.325139,271.30545 L218.332541,271.391984 C218.388839,272.097686 218.363472,272.871586 218.19359,273.619838 C217.848553,275.139562 216.965532,276.197592 215.442473,276.400721 C213.334076,276.681841 211.975741,275.600639 211.331364,273.755248 C211.055463,272.965116 210.946816,272.179924 210.930654,271.551047 L210.928989,271.30788 C210.936953,270.893743 211.279133,270.564474 211.69327,270.572439 C212.072896,270.579739 212.381208,270.867874 212.423823,271.234837 L212.428711,271.33672 C212.423753,271.840383 212.504894,272.565937 212.747512,273.260754 C213.177792,274.493006 213.927164,275.089488 215.244201,274.913883 C216.051604,274.8062 216.511052,274.255693 216.730817,273.287731 C216.86184,272.710635 216.882555,272.078654 216.837291,271.511269 L216.81886,271.325602 C216.76236,270.91526 217.049206,270.53681 217.459548,270.48031 Z"/><path id="Stroke-15" fill="#B53026" fill-rule="nonzero" d="M214.282775,285.471865 C214.667377,285.318068 215.103837,285.505172 215.257635,285.889775 C215.411432,286.274377 215.224328,286.710837 214.839725,286.864635 C211.363479,288.254742 208.097016,288.682858 205.47936,288.565987 L205.12647,288.546712 C204.941226,288.534722 204.809312,288.522349 204.734691,288.513323 C204.323474,288.463585 204.030438,288.089907 204.080177,287.678691 C204.12577,287.301742 204.443563,287.024098 204.812953,287.018753 L205.223356,287.049844 C207.690585,287.209537 210.878143,286.833335 214.282775,285.471865 Z"/><path id="Fill-17" fill="#FFC999" d="M262.3046,340.24385 C262.3046,340.24385 266.6486,342.06635 273.5246,355.28885 C280.0406,367.81985 284.8616,379.34135 284.8616,379.34135 L311.2541,325.58435 L324.9611,336.23435 C324.9611,336.23435 308.0936,404.55035 295.8881,414.93035 C286.4891,423.13235 278.7101,415.35335 276.1166,412.32935 C270.5816,405.87035 258.7961,385.85735 258.7961,385.85735 C258.7961,385.85735 247.7681,343.25135 262.3046,340.24385"/><path id="Fill-19" fill="#FF7A46" d="M261.0851,418.0175 L301.6976,441.6935 C304.9601,443.594 305.9966,447.8195 303.9881,451.016 L273.0911,500.168 C271.1681,503.2295 267.1571,504.203 264.0431,502.364 L220.9826,476.9345 C217.6271,474.953 216.6746,470.531 218.9171,467.3435 L252.2606,419.945 C254.2556,417.108407 258.0896,416.2715 261.0851,418.0175"/><polygon id="Fill-21" fill="#D84A19" points="251.899 416.227 284.759 433.07 265.747 506.963 245.437 451.652"/><path id="Fill-23" fill="#597EF7" d="M282.59915,374.30225 C282.59915,374.30225 271.64315,382.62425 264.29765,393.85925 C244.28465,369.04775 234.98015,334.12175 257.53715,335.12375 C269.10215,337.54475 282.59915,374.30225 282.59915,374.30225"/><path id="Fill-25" fill="#597EF7" d="M205.6634,312.6755 L231.9209,314.3 C231.9209,314.3 233.1974,326.492 237.0824,328.4975 C240.9674,330.503 260.6399,332.4275 262.4339,339.1565 C263.5859,343.478 260.8409,352.376 260.8409,352.376 C260.8409,352.376 267.5444,369.377 267.0434,376.895 C266.5409,384.4145 252.7499,415.3685 252.7499,415.3685 C252.7499,415.3685 255.7574,421.886 252.2489,423.389 C248.7404,424.8935 222.3899,423.8525 210.5789,420.971 C207.5384,407.054 195.1064,375.332 195.1064,375.332 L168.1379,372.5735 C168.1379,372.5735 162.7574,332.531 177.1619,326.1935 C186.7214,321.9875 199.6484,327.713 202.6559,322.7 C204.2039,320.1215 205.6634,312.6755 205.6634,312.6755"/><path id="Fill-27" fill="#FFC999" d="M191.8793,665.4626 L166.6388,791.9006 C166.6388,791.9006 166.3793,804.2321 167.5688,815.2106 C169.3838,831.9761 168.1553,850.9001 156.7088,847.5326 C150.3173,845.6531 145.7783,832.0271 147.8948,800.8001 C151.9463,741.0281 160.3013,678.6206 164.8118,664.3346 C171.5783,642.9071 195.2633,631.6286 191.8793,665.4626"/><path id="Fill-29" fill="#FFC999" d="M243.708116,688.0805 C243.64985,687.6995 254.58335,782.8685 254.79185,789.74 C255.35735,808.493 253.27835,811.13 263.43335,815.8115 C266.03435,817.0115 269.86235,815.459 274.05785,819.9065 C285.54185,832.082 301.99685,838.682 303.83585,831.44 C304.96385,824.6735 278.12585,804.0005 275.10035,790.1735 C271.95785,775.8065 278.71985,662.0795 268.57085,654.185 C258.42035,646.2905 244.83635,609.134 243.708116,688.0805"/><path id="Fill-31" fill="#A3B5D6" d="M206.5409,739.36325 L276.5489,743.33225 C276.5489,743.33225 279.7904,600.22475 277.5344,549.47375 C275.2784,498.72275 269.6984,451.77125 264.0599,446.13275 C258.4199,440.49425 220.0739,476.58275 214.4354,520.56875 C208.7969,564.55325 206.5409,739.36325 206.5409,739.36325"/><path id="Fill-33" fill="#E4EBF7" d="M253.50305,429.614 C267.33155,442.289 270.06755,468.0725 270.06755,468.0725 L242.84405,493.568 L214.32455,770.9885 L140.00105,757.409 C140.00105,757.409 171.68855,503.0735 178.02605,477.146 C186.26405,443.45 205.68305,427.886 205.68305,427.886 L253.50305,429.614 Z"/><g id="分组" transform="translate(147.500000, 825.194000)"><mask id="mask-2" fill="#fff"><use xlink:href="#path-1"/></mask><path id="Fill-35" fill="#253368" d="M0.27795,0.73275 C0.27795,0.73275 12.37695,13.26375 21.01995,0.73275 C22.31595,12.68775 21.64695,28.50075 15.68295,28.50075 C0.99045,28.50075 0.27795,0.73275 0.27795,0.73275" mask="url(#mask-2)"/></g><path id="Fill-37" fill="#253368" d="M258.24845,817.61225 C258.24845,817.61225 253.49495,808.32125 255.22295,795.79025 C255.22295,795.79025 263.89145,803.25875 271.49945,811.49075 C280.28645,820.99625 282.36695,821.43275 282.36695,821.43275 C293.16845,824.45825 295.41095,818.26025 295.41095,818.26025 C295.41095,818.26025 301.46045,825.60575 312.69545,833.38475 C322.75595,840.34925 284.50295,842.90825 278.99045,833.38475 C273.47645,823.86125 266.40845,818.40425 266.40845,818.40425 L263.82095,833.14625 L260.16995,833.14625 L258.24845,817.61225 Z"/><path id="Fill-39" fill="#FFC999" d="M277.2701,443.58575 C288.0236,440.72975 292.9436,428.38325 287.1086,423.23525 C273.1556,410.92925 263.9576,405.02825 261.9221,404.87825 C250.2731,410.06975 257.3921,423.27575 266.6111,425.29325 C279.6071,428.13575 281.1581,430.47875 278.2781,435.37475 C278.2781,435.37475 271.9406,432.78275 271.6526,434.94275 C271.3811,436.97225 277.7021,438.97625 278.7101,438.83225 C279.7181,438.68825 277.9901,439.55225 275.6846,440.41625 C273.7931,441.12725 272.6606,444.80975 277.2701,443.58575"/><g id="分组" transform="translate(309.500000, 300.194000)"><mask id="mask-4" fill="#fff"><use xlink:href="#path-3"/></mask><path id="Fill-41" fill="#FFC999" d="M0.6024,28.84755 C0.6024,28.84755 2.9079,19.34205 8.3814,13.72305 C15.0999,6.82755 15.5304,5.48955 19.0404,1.48005 C22.5474,-2.52945 23.3604,4.07205 18.4629,12.71505 C14.4534,18.73005 34.3839,14.33805 41.6544,8.10555 C48.7119,2.05605 48.1359,30.28755 14.8629,37.05855 C3.8409,39.30105 0.6024,28.84755 0.6024,28.84755" mask="url(#mask-4)"/></g><path id="Stroke-43" fill="#090D33" fill-rule="nonzero" d="M192.349298,264.212379 L193.23986,264.282169 L194.330571,264.360492 C194.706775,264.386309 195.094486,264.411689 195.490319,264.436192 L196.840858,264.51412 C197.506624,264.549578 198.156358,264.579551 198.782072,264.60301 L199.747641,264.634381 C200.215236,264.64705 200.659464,264.65512 201.0777,264.658271 C201.491902,264.661392 201.825149,264.999698 201.822114,265.4139 C201.818908,265.828102 201.480602,266.161349 201.0664,266.158229 L200.177331,266.145207 C199.870138,266.138708 199.552349,266.130084 199.224685,266.119436 L198.725874,266.101957 C197.669806,266.062363 196.548352,266.00456 195.397641,265.933327 L194.227846,265.85697 L192.647306,265.741207 C192.463569,265.726839 192.320728,265.715258 192.223802,265.707121 C191.811041,265.672466 191.504525,265.309764 191.539179,264.897002 C191.570946,264.518638 191.878364,264.229549 192.247311,264.210688 L192.349298,264.212379 Z"/><path id="Stroke-45" fill="#090D33" fill-rule="nonzero" d="M219.333876,262.663685 C219.7365,262.566387 220.141767,262.813902 220.239065,263.216526 C220.336363,263.61915 220.088848,264.024417 219.686224,264.121715 C217.089276,264.749294 214.466334,265.26431 211.948267,265.674744 L211.092566,265.810706 C210.816155,265.853462 210.548769,265.893666 210.291017,265.931353 L208.728744,266.144229 C208.69975,266.147754 208.673597,266.150878 208.650335,266.153604 C208.238936,266.20181 207.866352,265.907384 207.818146,265.495985 C207.76994,265.084586 208.064366,264.712002 208.475765,264.663796 L209.170977,264.574326 L210.07467,264.447037 C210.582011,264.372853 211.127742,264.288691 211.706958,264.194281 C214.189984,263.789559 216.776637,263.281668 219.333876,262.663685 Z"/><path id="Stroke-47" fill="#D1836B" fill-rule="nonzero" d="M210.377174,290.621614 C210.790468,290.59404 211.147863,290.906729 211.175436,291.320024 C211.200712,291.698877 210.940073,292.030759 210.578116,292.10468 L210.477026,292.118286 L208.476026,292.251786 C208.062732,292.27936 207.705337,291.966671 207.677764,291.553376 C207.652488,291.174523 207.913127,290.842641 208.275084,290.76872 L208.376174,290.755114 L210.377174,290.621614 Z"/><path id="Fill-49" fill="#E5A98F" d="M240.3677,277.06445 C241.5197,269.79095 234.6347,270.59495 234.6347,270.59495 C234.6347,270.59495 234.8777,277.76795 233.3372,284.27795 C240.2507,283.70195 240.3677,277.06445 240.3677,277.06445"/><path id="Stroke-51" fill="#1D39C4" fill-rule="nonzero" d="M195.623278,350.392913 C195.908954,350.40498 196.137146,350.623419 196.170153,350.898384 L196.173737,350.991928 L195.309737,371.445928 C195.296329,371.763346 195.028141,372.009796 194.710722,371.996387 C194.425046,371.98432 194.196854,371.765881 194.163847,371.490916 L194.160263,371.397372 L195.024263,350.943372 C195.037671,350.625954 195.305859,350.379504 195.623278,350.392913 Z"/><polygon id="Fill-53" fill="#E4EBF7" points="204.53 428.461 253.503 429.615 252.248 420.39 207.699 418.956"/><path id="Fill-55" fill="#FFC999" d="M267.9383,412.241 L267.9383,412.241 C267.7508,415.8395 265.0943,418.82 261.5378,419.402 C243.1643,422.4095 187.6643,429.7355 179.3138,423.5315 C168.4253,415.442 168.0833,375.5045 167.952568,371.705 C167.9468,371.5385 168.0578,371.39 168.2198,371.345 C180.8708,367.8995 193.3463,374.369 194.9363,375.2375 C195.0473,375.2975 195.1118,375.407 195.1193,375.5315 L196.8233,401.2805 C196.9448,403.1225 198.4703,404.558 200.3168,404.567 L260.9738,404.8685 C264.9728,404.8895 268.1453,408.2465 267.9383,412.241"/><path id="Stroke-57" fill="#A3B5D6" fill-rule="nonzero" d="M241.863173,429.639445 C242.167071,429.574978 242.465689,429.769075 242.530155,430.072973 L242.908214,431.869713 C244.482727,439.419824 245.24019,443.980785 245.632468,448.507272 L245.661931,448.855446 C246.056084,453.627979 246.043543,458.423266 245.646679,466.054347 L245.493214,468.77461 L243.403831,501.398899 L220.656331,738.593899 C220.626674,738.90314 220.351943,739.129788 220.042701,739.100131 C219.764384,739.07344 219.552968,738.848238 219.535087,738.578028 L219.536469,738.486501 L242.282436,501.311078 L244.370036,468.710594 C244.405458,468.130208 244.433114,467.662805 244.451603,467.328679 L244.555885,465.356437 C244.907366,458.35407 244.918626,453.801643 244.573139,449.352308 L244.481067,448.259576 C244.053437,443.551043 243.211194,438.704706 241.429645,430.306427 C241.365178,430.002529 241.559275,429.703911 241.863173,429.639445 Z"/><path id="Stroke-59" fill="#A3B5D6" fill-rule="nonzero" d="M197.151946,606.752146 C197.407683,606.575771 197.75798,606.640108 197.934354,606.895846 C198.091131,607.123168 198.057717,607.425203 197.868744,607.613389 L197.790654,607.678254 L172.728654,624.962754 C172.472917,625.139129 172.12262,625.074792 171.946246,624.819054 C171.789469,624.591732 171.822883,624.289697 172.011856,624.101511 L172.089946,624.036646 L197.151946,606.752146 Z"/><path id="Stroke-61" fill="#A3B5D6" fill-rule="nonzero" d="M212.327214,583.043234 C212.579479,582.861927 212.930958,582.91945 213.112266,583.171714 C213.273428,583.39595 213.245885,583.698577 213.060601,583.890397 L212.983786,583.956766 L185.328286,603.833266 C185.076021,604.014573 184.724542,603.95705 184.543234,603.704786 C184.382072,603.48055 184.409615,603.177923 184.594899,602.986103 L184.671714,602.919734 L212.327214,583.043234 Z"/><path id="Stroke-63" fill="#1D39C4" fill-rule="nonzero" d="M205.751394,325.334096 L230.813394,328.359596 C231.128806,328.397673 231.35363,328.684232 231.315554,328.999644 C231.281285,329.283515 231.045745,329.49401 230.769044,329.505512 L230.675506,329.501804 L205.613506,326.476304 C205.298094,326.438227 205.07327,326.151668 205.111346,325.836256 C205.145615,325.552385 205.381155,325.34189 205.657856,325.330388 L205.751394,325.334096 Z"/><path id="Stroke-65" fill="#1D39C4" fill-rule="nonzero" d="M205.836986,329.472616 C205.909175,329.195947 206.170919,329.019094 206.446647,329.044963 L206.538834,329.061236 L219.789834,332.518736 C220.097244,332.598946 220.281425,332.913174 220.201214,333.220584 C220.129025,333.497253 219.867281,333.674106 219.591553,333.648237 L219.499366,333.631964 L206.248366,330.174464 C205.940956,330.094254 205.756775,329.780026 205.836986,329.472616 Z"/><path id="Stroke-67" fill="#1D39C4" fill-rule="nonzero" d="M206.418952,370.016385 C206.699907,369.712022 207.174401,369.693046 207.478765,369.974002 L207.600903,370.080875 C207.750004,370.206285 207.979811,370.38569 208.288699,370.604585 C208.987566,371.099841 209.819759,371.597158 210.781474,372.062488 C215.222077,374.211097 220.650034,374.934398 227.005365,373.387328 L227.522693,373.256898 C229.775812,372.668994 235.029856,372.674066 242.496665,373.109901 C244.343418,373.217695 246.277497,373.349755 248.267333,373.501382 L249.467674,373.594669 C251.346534,373.74348 253.179874,373.90139 254.915117,374.060607 L257.306279,374.286856 L258.326031,374.388561 C258.738057,374.431076 259.037604,374.799555 258.995089,375.211581 C258.952574,375.623607 258.584095,375.923154 258.172069,375.880639 L255.634345,375.633742 L253.018073,375.396379 C251.825595,375.291748 250.597439,375.188847 249.349241,375.089987 L246.971852,374.908861 C245.797132,374.82306 244.644905,374.744626 243.522058,374.674573 L241.430237,374.552062 C234.829524,374.192168 230.073326,374.201179 228.04485,374.672979 L227.901306,374.708329 C220.962713,376.517782 214.997805,375.768943 210.12815,373.412736 C209.089318,372.910092 208.186038,372.370294 207.42141,371.828435 L207.098998,371.593936 C206.803907,371.373288 206.590924,371.195821 206.461335,371.076198 C206.156972,370.795243 206.137996,370.320749 206.418952,370.016385 Z"/><path id="Stroke-69" fill="#A3B5D6" fill-rule="nonzero" d="M204.675281,428.298591 L252.640781,429.162591 C252.95139,429.168186 253.198654,429.424521 253.193152,429.735131 C253.188023,430.014679 252.979889,430.242918 252.711878,430.281691 L252.620519,430.287409 L204.655019,429.423409 C204.34441,429.417814 204.097146,429.161479 204.102648,428.850869 C204.107777,428.571321 204.315911,428.343082 204.583922,428.304309 L204.675281,428.298591 Z"/><path id="Fill-71" fill="#FFF" d="M236.73275,282.3122 C236.60225,281.8982 236.01425,281.9102 235.90175,282.3302 C234.89975,286.0307 232.56575,295.9982 236.43425,296.2322 C240.79625,296.4977 237.91925,286.0922 236.73275,282.3122"/><path id="Stroke-73" fill="#DD936F" fill-rule="nonzero" d="M311.893819,323.308724 C312.037041,323.025136 312.383039,322.911347 312.666626,323.054569 C312.921855,323.183469 313.039547,323.476617 312.956124,323.740693 L312.920781,323.827376 L279.223281,390.550376 C279.080059,390.833964 278.734061,390.947753 278.450474,390.804531 C278.195245,390.675631 278.077553,390.382483 278.160976,390.118407 L278.196319,390.031724 L311.893819,323.308724 Z"/><path id="Stroke-75" fill="#1D39C4" fill-rule="nonzero" d="M261.311606,346.616974 C261.596905,346.635989 261.819713,346.859916 261.846019,347.135604 L261.847326,347.229206 L261.424,353.579 L261.644024,354.140022 L262.052455,355.203573 C262.148456,355.456825 262.247754,355.720987 262.349963,355.995334 C263.079884,357.954572 263.809773,360.032294 264.491242,362.138242 C265.039824,363.833527 265.533888,365.477323 265.960103,367.044982 L266.237876,368.093161 C267.168873,371.703609 267.663861,374.697819 267.618979,376.907249 C267.589038,378.366725 267.356916,379.969744 266.94636,381.694192 C266.433938,383.846503 265.658962,386.129497 264.691762,388.467786 C264.054445,390.008552 263.371929,391.481534 262.68924,392.836816 L262.278275,393.637762 L262.028206,394.109659 C261.907794,394.333827 261.821224,394.490715 261.774127,394.574031 C261.617786,394.850602 261.266841,394.948068 260.990269,394.791727 C260.713698,394.635386 260.616232,394.284441 260.772573,394.007869 L261.01467,393.565238 L261.259153,393.103869 C261.386447,392.860536 261.521048,392.598534 261.661736,392.319238 C262.332254,390.988118 263.002944,389.54066 263.628621,388.028033 C264.574219,385.741971 265.330271,383.514724 265.827142,381.427729 C266.219958,379.777798 266.440609,378.253998 266.468719,376.883767 C266.515106,374.60022 265.932905,371.330211 264.849904,367.346822 C264.428775,365.79787 263.939882,364.171282 263.396625,362.492451 C262.720714,360.40368 261.996267,358.341448 261.271852,356.396989 L260.836491,355.243222 L260.307806,353.887492 C260.286226,353.83395 260.27289,353.77762 260.268103,353.720416 L260.267374,353.634194 L260.699374,347.152694 C260.720502,346.835695 260.994608,346.595845 261.311606,346.616974 Z"/><path id="Stroke-77" fill="#DD936F" fill-rule="nonzero" d="M283.974193,426.161598 C284.271682,426.050088 284.603242,426.200854 284.714752,426.498343 L284.81506,426.78939 L284.849029,426.895046 C284.946341,427.201911 285.04337,427.545574 285.133842,427.918732 C285.458775,429.258942 285.618516,430.620077 285.520798,431.905204 C285.486373,432.357937 285.419787,432.79282 285.318444,433.207152 C284.987949,434.561208 283.838448,435.913872 282.129783,437.259965 C281.440926,437.80265 280.70539,438.30731 279.970033,438.761995 C279.798459,438.868083 279.634935,438.966421 279.481217,439.056531 L279.028016,439.314309 C279.00975,439.32428 278.994015,439.332776 278.980902,439.339772 C278.700605,439.489332 278.352138,439.383349 278.202578,439.103052 C278.053018,438.822755 278.159001,438.474288 278.439298,438.324728 L278.688561,438.185895 L279.125855,437.929397 C279.203437,437.882671 279.283219,437.833999 279.364978,437.783446 C280.06573,437.350158 280.766303,436.869486 281.417813,436.356224 C282.940306,435.156798 283.947622,433.971448 284.200822,432.934077 C284.286699,432.582974 284.343795,432.210069 284.373609,431.817974 C284.460935,430.669516 284.314577,429.422415 284.015735,428.189817 C283.952769,427.930111 283.886484,427.686163 283.819487,427.461258 L283.752351,427.242822 C283.699383,427.075792 283.659008,426.959675 283.637448,426.902157 C283.525938,426.604668 283.676704,426.273108 283.974193,426.161598 Z"/><path id="Stroke-79" fill="#DD936F" fill-rule="nonzero" d="M347.13208,320.870926 C349.225095,318.628629 350.73445,318.048619 351.727255,318.62973 C351.874698,318.716032 351.978717,318.812919 352.044935,318.900487 C352.236557,319.153894 352.18647,319.514662 351.933063,319.706285 C351.679656,319.897907 351.318888,319.84782 351.127265,319.594413 L351.149254,319.623378 C351.033282,319.556625 350.828007,319.545268 350.461995,319.685917 C349.872383,319.912492 349.11119,320.472471 348.176219,321.44186 L347.973208,321.655881 C344.071147,325.838111 338.367055,327.269516 330.130186,326.494305 L329.632928,326.445149 C325.967057,326.066057 323.458678,327.061115 321.841593,328.944018 C321.35925,329.505648 320.994067,330.108079 320.730901,330.709251 C320.575402,331.064473 320.489844,331.33399 320.458052,331.473909 C320.387658,331.783714 320.079446,331.977795 319.769641,331.907402 C319.459836,331.837008 319.265755,331.528796 319.336148,331.218991 L319.391696,331.010338 C319.451008,330.811441 319.543799,330.552079 319.676961,330.247884 C319.983674,329.547234 320.407634,328.847841 320.968794,328.194436 C322.831984,326.024973 325.710887,324.882931 329.751337,325.300758 C337.769445,326.13085 343.219549,324.87906 346.908424,321.105137 L347.13208,320.870926 Z"/><path id="Stroke-81" fill="#DD936F" fill-rule="nonzero" d="M351.342718,314.376494 C352.778058,313.928097 353.938902,314.247808 354.167102,315.389997 C354.229346,315.701542 354.027248,316.004557 353.715703,316.066802 C353.435313,316.122821 353.161831,315.964724 353.064563,315.705428 L353.038898,315.615403 C352.979491,315.318055 352.558349,315.202067 351.685782,315.474656 C350.537146,315.833488 349.097826,316.787225 347.672167,318.213559 C346.680735,319.204522 345.381106,320.058579 343.847573,320.791264 C342.601146,321.386777 341.270394,321.869755 339.94021,322.250688 C339.591216,322.350632 339.260709,322.438118 338.953214,322.513625 L338.302811,322.663178 C338.241575,322.676097 338.191824,322.686104 338.154246,322.693269 C337.842166,322.752776 337.540937,322.548025 337.481431,322.235946 C337.421924,321.923866 337.626675,321.622637 337.938754,321.563131 L338.393877,321.464345 C338.764222,321.37854 339.17774,321.272294 339.623467,321.144648 C340.89629,320.780142 342.168546,320.318394 343.351593,319.753163 C344.776374,319.072437 345.970621,318.287632 346.858641,317.400033 C348.406492,315.851448 349.998811,314.796329 351.342718,314.376494 Z"/><path id="Stroke-83" fill="#DD936F" fill-rule="nonzero" d="M347.475276,313.328942 C350.69617,310.677254 352.677774,310.056666 353.756119,310.814316 C353.93803,310.942127 354.053666,311.085283 354.116919,311.21179 C354.259,311.495952 354.143821,311.841489 353.85966,311.983569 C353.575498,312.12565 353.229961,312.010471 353.087881,311.72631 L353.103236,311.760279 L353.094707,311.755689 C352.943526,311.649469 352.628709,311.619925 352.054098,311.799879 C351.128751,312.089674 349.856709,312.858598 348.206605,314.217091 C347.945405,314.432211 347.680124,314.640463 347.410966,314.841955 C345.320742,316.406705 343.082674,317.511401 340.843855,318.235854 C340.058889,318.489859 339.328845,318.678356 338.671818,318.811177 L338.357048,318.871677 C338.117794,318.915084 337.937052,318.941438 337.821408,318.954284 C337.505648,318.989358 337.221241,318.761817 337.186166,318.446058 C337.151092,318.130298 337.378633,317.845891 337.694392,317.810816 L337.835609,317.792199 C337.978482,317.771222 338.183452,317.736129 338.443851,317.683488 C339.059447,317.559043 339.747469,317.381396 340.48965,317.141235 C342.614109,316.453788 344.739321,315.404797 346.721489,313.920938 L347.1012,313.62979 L347.475276,313.328942 Z"/></g></svg>