<?xml version="1.0" encoding="UTF-8"?>
<svg width="512px" height="1024px" viewBox="0 0 512 1024" version="1.1" xmlns="http://www.w3.org/2000/svg" xmlns:xlink="http://www.w3.org/1999/xlink">
    <!-- Generator: Sketch 61.2 (89653) - https://sketch.com -->
    <title>2.人物组件/4.商务拓展/站立/讨论</title>
    <desc>Created with Sketch.</desc>
    <defs>
        <polygon id="path-1" points="0 1.4892 61.2458107 1.4892 61.2458107 45 0 45"></polygon>
        <polygon id="path-3" points="0.030903308 0.596259606 26.2065 0.596259606 26.2065 61.537493 0.030903308 61.537493"></polygon>
    </defs>
    <g id="2.人物组件/4.商务拓展/站立/讨论" stroke="none" stroke-width="1" fill="none" fill-rule="evenodd">
        <path d="M291.7569,448.33505 C291.7569,448.33505 223.4619,412.65155 213.7614,409.65905 C189.7059,402.24005 183.0639,423.86105 198.2439,432.85355 C218.4384,444.81755 286.4949,461.94605 286.4949,461.94605 L291.7569,448.33505 Z" id="Fill-1" fill="#FFC999"></path>
        <path d="M222.34305,673.06685 C222.40455,672.68585 189.14955,797.61485 188.89455,804.48485 C188.20005,823.23185 188.75955,825.88535 178.57305,830.49635 C175.96455,831.67685 172.14705,830.09885 167.92155,834.51935 C156.35355,846.61535 139.85505,853.10135 138.06405,845.84735 C136.98255,839.07335 163.96305,818.58485 167.08305,804.77885 C170.32305,790.43435 185.07555,662.65985 188.74755,650.33585 C195.31305,628.29785 233.32455,593.66585 222.34305,673.06685" id="Fill-3" fill="#FFC999"></path>
        <g id="分组" transform="translate(127.500000, 809.042000)">
            <mask id="mask-2" fill="white">
                <use xlink:href="#path-1"></use>
            </mask>
            <g id="Clip-6"></g>
            <path d="M57.43965,24.0987 C57.43965,24.0987 62.56365,14.0322 60.92115,1.4892 C60.92115,1.4892 50.70165,8.8977 43.03665,17.0772 C34.18665,26.5242 32.10315,26.9457 32.10315,26.9457 C21.27915,29.8962 19.08015,23.6847 19.08015,23.6847 C19.08015,23.6847 12.98115,30.9882 1.69215,38.6892 C-8.41635,45.5847 29.81865,48.4062 35.39715,38.9202 C40.97565,29.4342 48.08115,24.0267 48.08115,24.0267 L50.56665,38.7852 L54.21765,38.8107 L57.43965,24.0987 Z" id="Fill-5" fill="#253368" mask="url(#mask-2)"></path>
        </g>
        <path d="M264.884928,685.3628 C264.8595,684.9773 271.602,791.1548 271.218,798.0188 C270.168,816.7508 267.8715,819.2003 277.5855,824.7368 C280.074,826.1543 284.022,824.9378 287.82,829.7303 C298.2135,842.8493 314.04,850.8383 316.4955,843.7808 C318.201,837.1373 293.2395,814.2323 291.4155,800.1968 C289.5195,785.6138 306.045,667.6658 302.1825,655.4003 C296.5095,637.3853 272.7975,606.8048 264.884928,685.3628" id="Fill-7" fill="#FFC999"></path>
        <path d="M271.0014,826.7789 C271.0014,826.7789 268.3284,816.4199 271.1274,804.0839 C271.1274,804.0839 279.1209,812.2694 285.9939,821.1239 C293.9304,831.3524 295.9644,831.9659 295.9644,831.9659 C306.4674,835.9094 309.2334,829.9274 309.2334,829.9274 C309.2334,829.9274 314.6289,837.7649 325.1544,846.4814 C334.5789,854.2859 296.2479,853.5449 291.5739,843.5819 C286.8999,833.6204 280.3269,827.5754 280.3269,827.5754 L276.4809,842.0414 L272.8449,841.7264 L271.0014,826.7789 Z" id="Fill-9" fill="#253368"></path>
        <path d="M260.40255,626.94335 L258.53505,770.10335 L320.12055,774.06035 C320.12055,774.06035 321.00705,700.33385 319.65705,625.27385 C319.65705,625.27385 321.08955,587.75285 290.11905,587.591844 C259.14705,587.42885 260.40255,626.94335 260.40255,626.94335" id="Fill-11" fill="#A3B5D6"></path>
        <path d="M319.542,608.2739 C319.362,547.7579 317.517,483.6824 309.633,467.9174 C309.633,467.9174 303.3105,462.9599 282.7545,475.1654 C258.786,489.3944 260.436,510.9869 260.436,510.9869 L260.6835,609.0044 C260.9835,617.0129 261.252,641.8694 292.1355,642.5744 C322.5375,643.2689 319.545,609.5924 319.542,608.2739" id="Fill-13" fill="#A3B5D6"></path>
        <path d="M249.9759,248.19785 C249.9759,248.19785 288.4239,252.55835 289.7889,274.38935 C290.4894,285.61685 280.1574,298.38035 285.6369,301.53935 C307.0524,313.88285 286.7904,322.83185 302.5899,329.14685 C324.8559,338.04785 317.2719,373.38035 296.4999,372.63335 C274.9824,371.85935 277.7439,401.97935 240.4119,395.18585 C219.3714,391.35785 223.8324,378.65435 208.7019,372.05585 C193.5699,365.45885 171.7884,335.80385 188.9769,315.92885 C199.6524,303.36035 210.5004,303.98135 215.7549,283.70735 C221.0079,263.43185 226.4229,250.89485 236.3904,252.02735 C239.7279,246.68585 249.9759,248.19785 249.9759,248.19785" id="Fill-15" fill="#253368"></path>
        <path d="M274.6731,294.3608 C274.7556,293.9348 275.3406,293.8808 275.4996,294.2843 C276.9156,297.8483 280.3641,307.4873 276.5481,308.1578 C272.2431,308.9153 273.9231,298.2503 274.6731,294.3608" id="Fill-17" fill="#FFFFFF"></path>
        <path d="M241.77705,328.83455 C242.32155,311.34155 241.59255,304.54205 241.59255,304.54205 L263.75205,309.44555 L265.85355,327.86555 C266.62755,334.64555 261.63405,340.72205 254.83305,341.27555 C247.63905,341.86355 241.55205,336.04805 241.77705,328.83455" id="Fill-19" fill="#F4B784"></path>
        <path d="M249.9414,271.3979 C249.9414,271.3979 251.9724,264.4259 256.8729,267.3449 C260.3769,269.4329 259.3404,267.5729 259.9449,265.6889 C262.1919,258.6914 264.7914,274.4879 275.8224,277.1429 C276.6684,285.6329 278.8974,313.6169 260.6034,316.1114 C253.4859,317.0819 244.5054,313.3364 240.0219,303.2639 C237.3129,297.1784 238.6869,290.6159 241.0944,289.1519 C249.0249,284.3324 248.5359,280.0394 249.9414,271.3979" id="Fill-21" fill="#FFC999"></path>
        <path d="M265.707884,277.747048 C265.987654,277.80609 266.176672,278.05919 266.163853,278.335832 L266.151952,278.428684 L265.23,282.796 L265.32233,283.563128 C265.413157,284.269923 265.53229,285.096944 265.683085,286.036766 C266.11452,288.725654 266.71287,291.776762 267.504949,295.130683 C267.56767,295.396265 267.435166,295.669367 267.187743,295.784472 L265.980219,296.350772 L263.823531,297.378629 L261.797356,298.358391 C261.511829,298.497708 261.167426,298.379182 261.028109,298.093656 C260.888792,297.808129 261.007318,297.463726 261.292844,297.324409 L262.591465,296.694951 L264.057023,295.99096 L266.278,294.938 L266.204391,294.620107 C265.553836,291.798349 265.041381,289.197065 264.650667,286.852168 L264.547115,286.219034 C264.416212,285.403189 264.308728,284.67031 264.222542,284.025065 L264.106504,283.101152 L264.076189,282.82348 L264.085748,282.647616 L265.026248,278.191116 C265.08529,277.911346 265.33839,277.722328 265.615032,277.735147 L265.707884,277.747048 Z" id="Stroke-23" fill="#DD936F" fill-rule="nonzero"></path>
        <path d="M273.228125,283.394885 C273.636797,283.327354 274.022835,283.603904 274.090365,284.012575 L274.12191,284.249877 C274.125758,284.284425 274.129647,284.321574 274.133504,284.3612 C274.207009,285.116337 274.191671,285.931981 274.022007,286.717569 C273.619664,288.580514 272.426929,289.772001 270.35885,289.732718 C268.758936,289.702741 267.76089,288.670707 267.279703,287.096316 C267.057911,286.370636 266.970661,285.643308 266.959995,285.035376 L266.960821,284.745711 C266.974705,284.33173 267.321558,284.007387 267.735539,284.021271 C268.115022,284.033998 268.419183,284.326512 268.456547,284.694046 L268.459979,284.795989 L268.459915,285.007807 C268.468965,285.489696 268.540019,286.087987 268.714199,286.657885 C269.025527,287.676515 269.548474,288.217271 270.387144,288.232985 C271.656184,288.257091 272.292134,287.621806 272.555811,286.400913 C272.68771,285.790186 272.700307,285.120321 272.64056,284.506522 L272.610435,284.257125 C272.542904,283.848453 272.819454,283.462415 273.228125,283.394885 Z" id="Stroke-25" fill="#253368" fill-rule="nonzero"></path>
        <path d="M256.482051,284.547236 C256.892599,284.492256 257.269984,284.780502 257.324964,285.191051 L257.343293,285.363034 L257.349941,285.443734 C257.407677,286.196122 257.370061,287.030805 257.161815,287.839115 C256.694837,289.651702 255.4708,290.801454 253.41755,290.762468 C251.82387,290.732608 250.817609,289.717338 250.319998,288.165053 C250.081802,287.422005 249.988777,286.681759 249.976431,286.080925 L249.975805,285.841548 C249.985499,285.427448 250.329052,285.099612 250.743152,285.109305 C251.122744,285.118191 251.42985,285.407611 251.470932,285.774749 L251.475395,285.876652 C251.469461,286.367516 251.538895,287.05361 251.748399,287.707155 C252.070303,288.711327 252.601132,289.246908 253.445838,289.262735 C254.731571,289.287148 255.402023,288.657384 255.709247,287.464888 C255.84693,286.930468 255.889136,286.354049 255.869282,285.821011 L255.845065,285.451469 C255.842277,285.423198 255.839896,285.402546 255.838236,285.390149 C255.783256,284.979601 256.071502,284.602216 256.482051,284.547236 Z" id="Stroke-27" fill="#253368" fill-rule="nonzero"></path>
        <path d="M254.67719,300.170698 C254.786406,299.771142 255.198846,299.535775 255.598402,299.64499 C258.56277,300.455277 261.355134,300.596459 263.740663,300.332432 L264.157367,300.281687 C264.612523,300.221154 264.926815,300.161858 265.08158,300.12493 C265.484483,300.028794 265.889034,300.277477 265.98517,300.68038 C266.081306,301.083283 265.832623,301.487834 265.42972,301.58397 C265.226806,301.632387 264.862553,301.701109 264.355115,301.768595 C261.695115,302.122356 258.551855,302.007322 255.202898,301.09191 C254.803342,300.982694 254.567975,300.570254 254.67719,300.170698 Z" id="Stroke-29" fill="#B53026" fill-rule="nonzero"></path>
        <path d="M275.862603,276.624049 C275.943789,277.030228 275.68033,277.425316 275.274151,277.506503 L273.909086,277.769163 C273.123659,277.916611 272.309605,278.064057 271.488984,278.206009 L270.666991,278.345927 C270.026181,278.453188 269.403786,278.552925 268.8056,278.643686 L267.855392,278.783071 C267.394294,278.84821 266.9547,278.906393 266.538834,278.957047 C266.127659,279.007131 265.753736,278.714408 265.703653,278.303234 C265.653569,277.892059 265.946292,277.518136 266.357466,277.468053 C267.034886,277.385539 267.779636,277.282185 268.580585,277.160659 C269.170858,277.071099 269.785776,276.97256 270.419362,276.866509 C271.234014,276.73015 272.050032,276.586433 272.845087,276.440879 L274.980149,276.035597 C275.386328,275.954411 275.781416,276.21787 275.862603,276.624049 Z" id="Stroke-31" fill="#253368" fill-rule="nonzero"></path>
        <path d="M247.994788,277.554243 C250.605354,277.87918 253.232718,278.091017 255.745473,278.211802 L256.598272,278.249366 C257.011156,278.26585 257.403312,278.278965 257.772698,278.289058 L259.00886,278.312003 C259.423072,278.313224 259.757867,278.649998 259.75666,279.06421 C259.755426,279.478422 259.418652,279.813217 259.00444,279.81201 L258.100023,279.797764 L257.349103,279.777218 C256.828376,279.760766 256.268225,279.738663 255.673452,279.710073 C253.125113,279.587577 250.460758,279.372757 247.809512,279.042757 C247.398471,278.991595 247.106731,278.616904 247.157893,278.205862 C247.204792,277.829074 247.523544,277.552533 247.892951,277.548467 L247.994788,277.554243 Z" id="Stroke-33" fill="#253368" fill-rule="nonzero"></path>
        <path d="M262.074463,304.398969 C262.391823,304.384231 262.661042,304.629553 262.675781,304.946913 C262.689046,305.232537 262.491661,305.479167 262.220696,305.536381 L262.127837,305.548231 L260.125337,305.641231 C259.807977,305.655969 259.538758,305.410647 259.524019,305.093287 C259.510754,304.807663 259.708139,304.561033 259.979104,304.503819 L260.071963,304.491969 L262.074463,304.398969 Z" id="Stroke-35" fill="#DD936F" fill-rule="nonzero"></path>
        <path d="M228.72825,294.248 C226.75875,287.153 233.69175,287.1695 233.69175,287.1695 C233.69175,287.1695 234.26325,294.326 236.53125,300.6185 C229.59675,300.83 228.72825,294.248 228.72825,294.248" id="Fill-37" fill="#FFC999"></path>
        <path d="M232.9353,299.0498 C233.0178,298.6253 233.6028,298.5713 233.7633,298.9733 C235.1778,302.5373 238.6263,312.1763 234.8103,312.8468 C230.5053,313.6043 232.1853,302.9393 232.9353,299.0498" id="Fill-39" fill="#FFFFFF"></path>
        <path d="M344.53815,407.68115 C344.53815,407.68115 317.50665,360.72215 311.78415,352.33715 C300.31965,335.54015 286.28865,338.62865 282.31965,352.04015 C277.53315,368.21015 324.47715,422.85065 324.47715,422.85065 C324.47715,422.85065 329.71515,429.49265 339.75915,424.27565 C351.63165,418.10765 344.53815,407.68115 344.53815,407.68115" id="Fill-41" fill="#FFC999"></path>
        <path d="M325.1619,373.4024 C322.4424,369.1109 305.4009,330.4454 286.8189,341.5409 C272.6349,350.0099 277.6749,361.5419 299.2494,391.0559 L325.1619,373.4024 Z" id="Fill-43" fill="#597EF7"></path>
        <path d="M243.7026,429.85745 C255.5136,432.73745 285.2436,430.79795 288.7521,429.29345 C292.2606,427.79045 289.0341,421.12895 289.0341,421.12895 C289.0341,421.12895 302.0631,396.84695 302.5641,389.32895 C303.0651,381.81095 296.3616,364.80995 296.3616,364.80995 C296.3616,364.80995 293.9721,347.36195 292.8186,343.04045 C291.0246,336.31295 275.8596,340.47845 271.9761,338.47295 C268.0911,336.46895 267.4416,326.73545 267.4416,326.73545 L241.1841,325.10945 C241.1841,325.10945 239.7246,332.55545 238.1766,335.13545 C235.1706,340.14545 226.4046,332.81045 218.8671,340.03745 C202.5186,355.70945 230.8281,396.55895 241.0386,419.20595 C241.0386,419.20595 237.4551,424.71095 243.7026,429.85745" id="Fill-45" fill="#597EF7"></path>
        <path d="M241.552266,337.779955 L266.614266,340.805455 C266.922687,340.842687 267.142528,341.122895 267.105295,341.431316 C267.071786,341.708895 266.841467,341.914724 266.570899,341.925972 L266.479434,341.922345 L241.417434,338.896845 C241.109013,338.859613 240.889172,338.579405 240.926405,338.270984 C240.959914,337.993405 241.190233,337.787576 241.460801,337.776328 L241.552266,337.779955 Z" id="Stroke-47" fill="#1D39C4" fill-rule="nonzero"></path>
        <path d="M241.652472,341.909785 C241.723062,341.639249 241.979004,341.466315 242.248622,341.491611 L242.338765,341.507522 L255.589765,344.965022 C255.890361,345.043455 256.07046,345.350719 255.992028,345.651315 C255.921438,345.921851 255.665496,346.094785 255.395878,346.069489 L255.305735,346.053578 L242.054735,342.596078 C241.754139,342.517645 241.57404,342.210381 241.652472,341.909785 Z" id="Stroke-49" fill="#1D39C4" fill-rule="nonzero"></path>
        <path d="M241.796626,379.762014 C242.007343,379.533742 242.363214,379.51951 242.591486,379.730226 L242.718024,379.841036 C242.871618,379.970338 243.1062,380.153507 243.420188,380.376016 C244.127275,380.877098 244.968354,381.379725 245.939708,381.849719 C250.417924,384.016527 255.889871,384.745705 262.28905,383.188094 L262.809932,383.056773 C265.035559,382.476043 270.282538,382.480878 277.724825,382.914908 C279.570857,383.022568 281.504335,383.154493 283.493625,383.305986 L284.693644,383.399191 C286.571232,383.547813 288.403326,383.705526 290.137349,383.864542 L293.545156,384.192018 C293.854177,384.223888 294.078852,384.500235 294.046982,384.809256 C294.015112,385.118277 293.738765,385.342952 293.429744,385.311082 L291.298161,385.102557 L290.89102,385.064219 C288.91294,384.878924 286.78965,384.693621 284.604871,384.520683 C282.60062,384.362035 280.646063,384.221983 278.773076,384.105223 L277.659327,384.038 C270.527068,383.622051 265.392596,383.608015 263.239275,384.10952 L263.093892,384.145346 C256.200294,385.943066 250.280741,385.199921 245.449715,382.862405 C244.420524,382.364425 243.526129,381.829937 242.769721,381.293904 L242.452302,381.063068 C242.1621,380.846131 241.953694,380.672519 241.828414,380.556874 C241.600142,380.346157 241.58591,379.990286 241.796626,379.762014 Z" id="Stroke-51" fill="#1D39C4" fill-rule="nonzero"></path>
        <path d="M295.23159,353.948212 C295.509512,353.917688 295.762346,354.095136 295.834858,354.356048 L295.852138,354.44594 L296.786345,362.957663 L297.027273,363.569781 L297.582084,365.020732 C297.631681,365.152673 297.682054,365.287249 297.733154,365.424372 C298.463022,367.382884 299.192859,369.459888 299.874275,371.565155 C300.423148,373.260928 300.917435,374.905183 301.343776,376.473231 C302.452992,380.552834 303.05099,383.912731 303.001384,386.330774 C302.961638,388.287371 302.543201,390.626961 301.808448,393.27373 C301.313605,395.056283 300.686303,396.93764 299.957203,398.875219 C299.404799,400.343233 298.819728,401.776362 298.229164,403.136177 L297.874385,403.942961 C297.725218,404.278003 297.582408,404.593506 297.447222,404.887668 L296.952193,405.941274 C296.94187,405.96256 296.932662,405.981448 296.924599,405.9979 C296.787881,406.276859 296.450908,406.392167 296.17195,406.255449 C295.892991,406.118731 295.777683,405.781758 295.914401,405.5028 L296.169164,404.968639 L296.425199,404.417462 C296.558484,404.127429 296.699389,403.816134 296.846642,403.485391 C297.548154,401.909732 298.249749,400.21843 298.904282,398.479011 C299.622322,396.570823 300.239275,394.720504 300.724442,392.972806 C301.436158,390.40902 301.83907,388.156237 301.876618,386.307813 C301.923493,384.022924 301.341384,380.752302 300.258187,376.768395 C299.836826,375.218662 299.347604,373.591254 298.803944,371.911591 C298.240631,370.171205 297.643612,368.449302 297.040994,366.798647 L296.678977,365.817226 C296.476162,365.272997 296.284974,364.76938 296.108518,364.312192 L295.714806,363.308186 L295.677362,363.15926 L294.733862,354.56876 C294.699946,354.259957 294.922786,353.982128 295.23159,353.948212 Z" id="Stroke-53" fill="#1D39C4" fill-rule="nonzero"></path>
        <path d="M292.2247,494.36255 L311.88465,473.5481 C311.88465,473.5481 305.07765,447.4496 290.01765,436.2656 L240.31965,437.5406 C240.31965,437.5406 222.56415,452.9726 219.83565,491.3171 L273.14455,511.96655 L292.2247,494.36255 Z" id="Fill-55" fill="#E4EBF7"></path>
        <polygon id="Fill-57" fill="#E4EBF7" points="240.3189 437.3165 291.6129 438.635 287.6709 429.6245 241.8189 428.54"></polygon>
        <path d="M271.781915,438.085714 C272.085195,438.018399 272.385621,438.209686 272.452936,438.512965 C273.552215,443.465625 274.41454,448.856204 275.058793,454.61758 C276.646294,468.814168 276.825242,483.896486 276.179051,497.726734 L276.123006,498.875367 C276.094571,499.43378 276.06558,499.968109 276.03631,500.477338 L275.900502,502.640292 L275.842521,503.437548 C275.817835,503.747226 275.54678,503.978257 275.237102,503.953571 C274.927424,503.928885 274.696393,503.65783 274.721079,503.348152 L274.825269,501.856265 L274.913193,500.412273 C274.961738,499.567688 275.009526,498.653433 275.055277,497.674228 C275.698935,483.898203 275.520641,468.871032 273.940761,454.742601 C273.300744,449.019104 272.444679,443.667656 271.354664,438.756735 C271.287349,438.453455 271.478636,438.153029 271.781915,438.085714 Z" id="Stroke-59" fill="#A3B5D6" fill-rule="nonzero"></path>
        <path d="M244.084608,436.228319 L289.939608,437.509319 C290.250147,437.517995 290.494856,437.776769 290.486404,438.087308 C290.478373,438.366793 290.267985,438.592956 289.999603,438.629069 L289.908192,438.633881 L244.053192,437.352881 C243.742653,437.344205 243.497944,437.085431 243.506396,436.774892 C243.514427,436.495407 243.724815,436.269244 243.993197,436.233131 L244.084608,436.228319 Z" id="Stroke-61" fill="#A3B5D6" fill-rule="nonzero"></path>
        <path d="M250.0989,623.4893 L215.9319,772.6823 L154.5174,770.1968 C154.5174,770.1968 175.4169,689.2808 188.9244,615.4343 C188.9244,615.4343 193.3449,576.4583 223.9314,581.3228 C254.5194,586.1858 250.0989,623.4893 250.0989,623.4893" id="Fill-63" fill="#E4EBF7"></path>
        <path d="M192.9312,599.4644 C203.3997,539.8619 218.6907,476.7164 226.0872,464.4569 C226.0872,464.4569 233.9487,457.5599 252.1302,473.0819 C273.3297,491.1809 274.8192,506.5409 274.8192,506.5409 L253.8087,610.1924 C252.1512,618.0344 244.6587,642.4844 214.1052,637.9274 C184.0302,633.4394 192.7032,600.7619 192.9312,599.4644" id="Fill-65" fill="#E4EBF7"></path>
        <path d="M214.7976,425.1905 C214.7976,425.1905 232.5306,373.976 234.9201,364.109 C240.6876,340.28 228.6636,331.991 215.9511,337.8275 C200.6271,344.861 188.9616,421.091 188.9616,421.091 C188.9616,421.091 188.4876,429.9305 199.0266,434.06 C211.4826,438.9425 214.7976,425.1905 214.7976,425.1905" id="Fill-67" fill="#FFC999"></path>
        <path d="M227.86035,388.04345 C229.30335,383.17145 247.72635,342.63845 227.14485,335.94845 C211.43385,330.83945 205.54635,344.48045 197.51685,380.14595 L227.86035,388.04345 Z" id="Fill-69" fill="#597EF7"></path>
        <path d="M233.634939,370.580208 C233.741443,370.288375 234.064359,370.138135 234.356192,370.244639 C234.618842,370.340492 234.766801,370.61164 234.716125,370.877657 L234.691761,370.965892 L228.388761,388.236892 C228.30041,388.478985 228.061362,388.626136 227.812273,388.604559 L227.718668,388.588414 L197.375168,380.690914 C197.074524,380.612666 196.894237,380.305512 196.972486,380.004868 C197.042909,379.734289 197.298746,379.561198 197.568379,379.586329 L197.658532,379.602186 L227.507,387.37 L233.634939,370.580208 Z" id="Stroke-71" fill="#1D39C4" fill-rule="nonzero"></path>
        <path d="M371.4297,335.0264 C358.7067,384.3074 357.0312,396.9959 350.2317,412.3709 C338.9412,437.9009 317.9967,422.3759 322.0212,407.3804 C324.5472,397.9724 334.2957,385.4099 340.7862,369.8594 C349.9362,347.9399 357.2922,332.2109 357.2922,332.2109 L371.4297,335.0264 Z" id="Fill-73" fill="#FFC999"></path>
        <path d="M353.201494,339.450609 C353.335639,339.162617 353.677848,339.037899 353.965841,339.172044 C354.225034,339.292774 354.351975,339.582037 354.276979,339.848629 L354.244406,339.936391 L325.076906,402.555391 C324.942761,402.843383 324.600552,402.968101 324.312559,402.833956 C324.053366,402.713226 323.926425,402.423963 324.001421,402.157371 L324.033994,402.069609 L353.201494,339.450609 Z" id="Stroke-75" fill="#DD936F" fill-rule="nonzero"></path>
        <g id="分组" transform="translate(357.000000, 282.542000)">
            <mask id="mask-4" fill="white">
                <use xlink:href="#path-3"></use>
            </mask>
            <g id="Clip-78"></g>
            <path d="M0.05745,50.3061 L7.66245,22.1946 C7.66245,22.1946 20.38395,-0.6894 25.08945,0.6531 C29.46645,2.5116 19.69845,9.1326 17.81895,15.5781 C21.96195,15.2331 20.14995,21.4221 20.14995,21.4221 C20.14995,21.4221 23.44845,21.2631 22.62045,26.2971 C25.70445,28.0761 23.31495,33.8706 23.31495,33.8706 C23.31495,33.8706 17.33445,49.1316 10.63095,59.3406 C10.63095,59.3406 -0.58455,68.2101 0.05745,50.3061" id="Fill-77" fill="#FFC999" mask="url(#mask-4)"></path>
        </g>
        <path d="M358.7097,323.3603 C358.7097,323.3603 359.7822,313.7378 360.6102,308.8313 C361.4382,303.9263 359.2677,295.1093 362.8647,297.4103 C365.2827,298.9583 364.9272,304.2218 364.8852,308.1008 C364.8432,311.9798 371.2122,321.0998 366.6192,327.5168 C363.5157,331.8518 358.5492,332.4758 358.7097,323.3603" id="Fill-79" fill="#FFC999"></path>
        <path d="M374.398032,297.728036 C374.614314,297.495321 374.978298,297.481999 375.211014,297.698282 C375.443729,297.914564 375.457051,298.278548 375.240768,298.511264 L375.016256,298.7591 C374.834686,298.962368 374.63205,299.194648 374.413652,299.45182 C373.789471,300.186818 373.1653,300.972515 372.58378,301.775394 C372.009585,302.568159 371.508555,303.335049 371.101883,304.058321 C369.71275,306.528916 369.608858,308.073954 370.90978,308.599242 C371.204373,308.718193 371.346759,309.053437 371.227808,309.34803 C371.108857,309.642623 370.773613,309.785009 370.47902,309.666058 C368.257941,308.769228 368.41072,306.497148 370.099035,303.494454 C370.529227,302.729352 371.053696,301.926585 371.652011,301.100519 C372.252399,300.27159 372.894558,299.463249 373.536707,298.707094 L374.013508,298.155748 L374.366805,297.761847 C374.378665,297.748941 374.389087,297.73766 374.398032,297.728036 Z" id="Stroke-81" fill="#DD936F" fill-rule="nonzero"></path>
        <path d="M376.404283,303.700925 C376.654178,303.504744 377.015794,303.548288 377.211975,303.798183 C377.408156,304.048078 377.364612,304.409694 377.114717,304.605875 L376.877559,304.797095 C376.685436,304.954283 376.470993,305.134101 376.239868,305.333401 C375.579544,305.902802 374.919332,306.512907 374.304698,307.137873 C373.659314,307.794104 373.1027,308.428419 372.662168,309.023526 C371.47485,310.627455 371.296469,311.652775 372.11521,312.142176 C372.442796,312.338048 372.806626,312.384673 373.226726,312.293528 C373.90014,312.147423 374.671969,311.656607 375.462593,310.926364 C375.815331,310.600565 376.147513,310.249801 376.447925,309.899092 L376.63753,309.672731 C376.719219,309.572758 376.780744,309.493787 376.819871,309.441163 C377.009436,309.186213 377.369787,309.133207 377.624737,309.322771 C377.879687,309.512336 377.932693,309.872687 377.743129,310.127637 L377.642137,310.2591 C377.56118,310.361881 377.453432,310.493748 377.32169,310.647547 C376.993899,311.030219 376.631552,311.412834 376.243206,311.771523 C375.31531,312.628554 374.386567,313.219154 373.470664,313.417869 C372.777902,313.568171 372.116478,313.483409 371.524854,313.129663 C369.895628,312.155796 370.197804,310.418903 371.737461,308.339006 C372.213379,307.696097 372.804138,307.02287 373.48442,306.331154 C374.123197,305.681641 374.805926,305.050726 375.488543,304.462102 L375.721612,304.262821 L376.303983,303.780837 C376.346757,303.746422 376.380422,303.719657 376.404283,303.700925 Z" id="Stroke-83" fill="#DD936F" fill-rule="nonzero"></path>
        <path d="M378.423535,308.651452 C378.736845,308.59881 379.033507,308.810124 379.086148,309.123435 C379.13879,309.436745 378.927476,309.733407 378.614165,309.786048 C377.974442,309.893532 377.149151,310.49157 376.156467,311.686177 C374.079308,314.188403 373.669037,315.758969 374.245431,316.08727 C374.862999,316.439022 376.372668,315.72985 377.337093,314.315646 C377.739784,313.725152 378.644134,314.252591 378.328447,314.893829 C377.014129,317.563539 375.443446,319.371035 373.438487,320.77778 C373.036959,321.059506 372.621922,321.323537 372.16001,321.594718 L371.623858,321.901343 L370.254,322.645402 C367.09085,324.361699 365.878217,325.713051 365.228623,329.15542 C365.169711,329.467612 364.868872,329.672936 364.55668,329.614023 C364.244488,329.555111 364.039164,329.254272 364.098077,328.94208 C364.800522,325.219629 366.183599,323.594346 369.415334,321.793573 L371.415403,320.699278 C372.051502,320.34253 372.263809,320.196531 372.777687,319.835977 C373.804882,319.115263 374.706469,318.282788 375.515477,317.257597 L375.608,317.136 L375.440907,317.190739 C374.848991,317.366926 374.280795,317.368323 373.813202,317.156847 L373.676019,317.08698 C372.188836,316.239915 372.789344,313.941103 375.271417,310.951101 C376.423791,309.56432 377.460186,308.81331 378.423535,308.651452 Z" id="Stroke-85" fill="#DD936F" fill-rule="nonzero"></path>
        <path d="M364.882662,302.679803 C365.167325,302.652894 365.423112,302.838258 365.49322,303.106176 L365.509497,303.198362 L366.193,310.442 L366.358569,310.72611 L366.524445,311.026067 C366.821214,311.574063 367.117569,312.183963 367.394264,312.841172 C368.194787,314.742582 368.674586,316.650572 368.669077,318.453514 C368.664898,319.820891 368.376712,321.074043 367.763151,322.17838 C367.608854,322.456097 367.258637,322.556149 366.98092,322.401851 C366.703203,322.247554 366.603151,321.897337 366.757449,321.61962 C367.270471,320.696239 367.514967,319.633074 367.518582,318.449998 C367.52355,316.82429 367.079545,315.058642 366.333908,313.287598 C366.072572,312.66687 365.792464,312.090406 365.512772,311.573943 L365.2943,311.182514 C365.232708,311.075936 365.183149,310.9939 365.148032,310.938336 C365.115826,310.887381 365.091931,310.831842 365.077057,310.773805 L365.061603,310.685138 L364.364103,303.306638 C364.334204,302.990346 364.56637,302.709703 364.882662,302.679803 Z" id="Stroke-87" fill="#DD936F" fill-rule="nonzero"></path>
    </g>
</svg>