<svg xmlns="http://www.w3.org/2000/svg" xmlns:xlink="http://www.w3.org/1999/xlink" width="512" height="1024" version="1.1" viewBox="0 0 512 1024"><title>2.人物组件/6.产品经理/摆手/欢呼</title><desc>Created with Sketch.</desc><g id="2.人物组件/6.产品经理/摆手/欢呼" fill="none" fill-rule="evenodd" stroke="none" stroke-width="1"><path id="Fill-1" fill="#597EF7" d="M135.34785,653.50475 C139.36635,614.45375 143.91735,574.12625 148.27185,542.12975 C148.27185,542.12975 155.35785,519.39575 176.12985,525.79475 C196.49385,532.06775 193.44435,558.34175 193.44435,558.34175 L172.44585,660.62825 C172.44585,660.62825 168.84135,677.24975 150.35835,673.36325 C133.49835,669.81725 135.34785,653.50475 135.34785,653.50475"/><path id="Fill-3" fill="#CE998A" d="M163.44075,753.42695 L163.44075,753.42695 C170.57175,751.07945 178.02825,755.99045 178.67025,763.47095 C179.40975,772.07795 180.46725,783.69845 181.77525,796.19795 C183.11925,809.06195 184.20975,819.72545 183.45375,821.18795 C180.12675,827.63045 172.30275,830.82395 164.70525,837.72695 C158.69175,843.18845 157.82475,845.54495 149.63025,848.12795 C138.01725,851.78945 142.94625,846.07895 154.21425,828.54095 C164.25225,812.91695 162.65625,806.35145 162.65625,806.35145 L155.62125,766.50095 C154.61625,760.80545 157.94775,755.23595 163.44075,753.42695"/><path id="Fill-5" fill="#7D4556" d="M154.95045,824.6264 C147.51945,835.2044 138.59145,843.9359 139.37895,848.4389 C140.16645,852.9404 144.23145,856.6019 158.37945,849.5699 C168.06045,844.7579 164.90295,842.9384 173.79795,835.4894 C178.24095,831.7694 180.04095,831.8939 184.04445,827.7059 C186.19545,824.1224 183.12645,808.3454 183.12645,808.3454 L168.44745,828.9314 C168.44745,828.9314 171.80145,819.7649 167.96145,818.3294 C164.11995,816.8954 160.63845,816.0239 158.69145,817.8149 C156.74445,819.6074 154.95045,824.6264 154.95045,824.6264"/><path id="Fill-7" fill="#597EF7" d="M135.05355,662.7773 C146.95755,729.6908 159.81405,799.5818 159.81405,799.5818 L183.70755,794.0888 L173.07555,658.7543 C173.07555,658.7543 168.89055,638.7458 150.17505,641.2988 C133.28805,643.6028 135.05355,662.7773 135.05355,662.7773"/><path id="Fill-9" fill="#597EF7" d="M240.06225,661.7057 C223.32975,626.1932 206.39475,589.3112 193.59375,559.6652 C193.59375,559.6652 187.91925,536.5397 209.01225,531.2882 C229.68675,526.1402 240.65025,550.2122 240.65025,550.2122 L275.50575,648.6422 C275.50575,648.6422 281.00475,664.7357 263.17125,670.9562 C246.90525,676.6292 240.06225,661.7057 240.06225,661.7057"/><path id="Fill-11" fill="#CE998A" d="M347.4339,626.6762 L347.4339,626.6762 C343.7454,620.1362 347.1159,611.8682 354.3309,609.7862 C362.6304,607.3907 373.8249,604.0967 385.8324,600.3887 C398.1894,596.5712 408.4389,593.4317 410.0199,593.8892 C416.9859,595.9022 421.6374,602.9567 429.8844,609.0707 C436.4094,613.9097 438.8904,614.3012 443.0139,621.8387 C448.8609,632.5202 442.3014,628.7927 422.9094,621.1442 C405.6354,614.3312 399.5034,617.1722 399.5034,617.1722 L361.7769,631.8077 C356.3859,633.9002 350.2764,631.7132 347.4339,626.6762"/><path id="Fill-13" fill="#7D4556" d="M418.92705,621.18155 C430.74705,626.41805 441.04455,633.48155 445.30905,631.83455 C449.57355,630.18905 452.37555,625.48805 442.73055,612.97655 C436.13055,604.41305 434.95905,607.86455 425.92305,600.58355 C421.41105,596.94755 421.18605,595.15955 416.30055,592.04405 C412.36605,590.62955 397.48605,596.70305 397.48605,596.70305 L420.52905,607.10705 C420.52905,607.10705 410.88705,605.59505 410.22405,609.64205 C409.56255,613.68755 409.38405,617.27405 411.52005,618.83555 C413.65455,620.39705 418.92705,621.18155 418.92705,621.18155"/><path id="Fill-15" fill="#597EF7" d="M264.0198,672.1214 C327.3498,647.4539 393.4158,621.2744 393.4158,621.2744 L383.3883,598.9019 L252.6918,635.6039 C252.6918,635.6039 233.8758,643.5944 240.0138,661.4579 C245.5518,677.5754 264.0198,672.1214 264.0198,672.1214"/><path id="Fill-17" fill="#CE998A" d="M206.9436,368.21405 L205.8741,345.80855 L176.1561,345.82805 L175.4286,368.37155 C175.1046,377.09705 182.0376,384.37355 190.7706,384.46805 C190.9371,384.47105 191.1021,384.47255 191.2701,384.47405 C200.1996,384.57605 207.3681,377.13305 206.9436,368.21405"/><path id="Fill-19" fill="#597EF7" d="M238.7835,546.95135 C236.3895,521.61035 232.6695,509.79485 229.827,505.03385 C168.753,506.77985 153.5385,505.97735 153.5385,505.97735 C153.5385,505.97735 148.311,520.76585 147.5595,550.51385 C147.5595,550.51385 168.906,576.79685 193.1715,576.79685 C215.0475,576.79685 238.7835,546.95135 238.7835,546.95135"/><path id="Fill-21" fill="#597EF7" d="M229.82745,505.0334 L228.67245,493.5404 L153.88695,494.4374 L153.53895,505.9484 C153.53895,505.9484 193.11795,507.4724 229.82745,505.0334"/><path id="Stroke-23" fill="#1D39C4" fill-rule="nonzero" d="M186.706787,506.748231 C187.024423,506.754923 187.276686,507.017651 187.270231,507.335287 L187.224898,510.035719 C187.213458,510.808924 187.202199,511.64391 187.19142,512.535963 C187.061737,523.268501 187.074183,534.810543 187.325621,545.642341 L187.405683,548.765243 C187.729763,560.272919 188.323484,569.471549 189.23358,575.584896 C189.28036,575.899135 189.063543,576.191799 188.749304,576.23858 C188.435065,576.28536 188.142401,576.068543 188.09562,575.754304 C187.095698,569.037567 186.477564,558.684809 186.17543,545.66904 C185.944614,535.725593 185.91491,525.187862 186.011566,515.224288 L186.081418,509.561465 L186.119969,507.311913 C186.126423,506.994277 186.389151,506.742014 186.706787,506.748231 Z"/><path id="Stroke-25" fill="#1D39C4" fill-rule="nonzero" d="M197.382143,506.993744 C197.699841,506.99516 197.956249,507.253844 197.954844,507.571543 L197.955674,511.205532 C197.961166,512.928705 197.973741,514.88724 197.995942,517.022468 C198.053,522.510032 198.162857,527.932079 198.337975,533.000021 L198.419635,535.21391 C198.656996,541.250581 198.982517,546.334683 199.406972,550.19863 L199.510747,551.102414 L199.51307,551.216223 C199.181813,555.416884 196.830393,557.981211 193.178769,559.188408 C191.170531,559.852315 189.081319,560.021842 187.294751,559.920373 L187.017117,559.901074 C186.995126,559.89916 186.976169,559.897367 186.960326,559.89574 C186.644287,559.86328 186.4144,559.580765 186.44686,559.264726 C186.476074,558.980291 186.707832,558.765639 186.984284,558.749217 L187.077874,558.75126 C187.101072,558.753643 187.136625,558.756772 187.183866,558.760299 L187.359989,558.771724 C189.014728,558.865706 190.969286,558.707105 192.817645,558.096053 C195.962968,557.056235 197.954676,554.954492 198.335921,551.448392 L198.361,551.178 L198.315624,550.789688 C197.844552,546.687609 197.491754,541.158863 197.241978,534.530652 L197.188161,533.039751 C197.030237,528.469395 196.925314,523.613263 196.864248,518.681036 L196.823289,514.557092 C196.811346,512.967128 196.80492,511.505354 196.802709,510.20178 L196.804356,507.566457 C196.80576,507.248759 197.064444,506.992351 197.382143,506.993744 Z"/><path id="Stroke-27" fill="#1D39C4" fill-rule="nonzero" d="M223.144555,507.235399 C223.462217,507.230449 223.723805,507.483893 223.728828,507.801555 L223.741809,508.205107 C223.747496,508.339067 223.755204,508.497114 223.76536,508.67763 C223.805049,509.383077 223.868909,510.169999 223.96233,511.0178 C224.22906,513.438402 224.678372,515.858021 225.351716,518.110386 C226.894779,523.271991 229.360309,526.74412 232.893455,527.814615 C233.197507,527.906739 233.369309,528.227902 233.277185,528.531955 C233.185061,528.836007 232.863898,529.007809 232.559845,528.915685 C228.571443,527.707254 225.891722,523.933485 224.249419,518.439918 C223.554104,516.114063 223.092538,513.628447 222.818751,511.143813 C222.742143,510.448589 222.684894,509.792885 222.644167,509.187086 L222.616676,508.742256 C222.592078,508.305044 222.581176,507.99076 222.578399,507.819745 C222.573449,507.502083 222.826893,507.240495 223.144555,507.235399 Z"/><path id="Stroke-29" fill="#1D39C4" fill-rule="nonzero" d="M160.226974,508.565584 C160.512898,508.563515 160.751632,508.770381 160.79822,509.043374 L160.806434,509.136624 L160.806537,509.33811 C160.803942,510.10136 160.768934,511.218473 160.67548,512.57586 C160.512234,514.946955 160.213781,517.309171 159.745886,519.519809 C158.518654,525.318045 156.352289,529.15361 152.907047,530.046695 C152.59951,530.126416 152.285575,529.941734 152.205855,529.634197 C152.126134,529.32666 152.310816,529.012725 152.618353,528.933005 C155.499997,528.186017 157.476204,524.68713 158.620322,519.281577 C159.075913,517.129071 159.367872,514.818255 159.527697,512.496837 L159.586014,511.545916 C159.634384,510.643212 159.654116,509.890541 159.656038,509.336346 L159.655966,509.145076 C159.653632,508.827382 159.909281,508.567949 160.226974,508.565584 Z"/><path id="Stroke-31" fill="#1D39C4" fill-rule="nonzero" d="M173.369081,571.18984 C173.511161,570.905679 173.856698,570.7905 174.14086,570.932581 L174.605255,571.156255 L175.091614,571.382285 C175.262907,571.460744 175.443242,571.542209 175.632228,571.626345 L175.922146,571.754511 C177.334694,572.37465 178.885621,572.995013 180.525768,573.573878 C183.676469,574.685871 186.768247,575.50826 189.654822,575.920523 C192.241467,576.28995 194.57333,576.314461 196.586624,575.948142 C196.899194,575.89127 197.198686,576.098554 197.255558,576.411124 C197.31243,576.723694 197.105146,577.023186 196.792576,577.080058 C194.644539,577.470894 192.192411,577.445119 189.492157,577.059466 C186.521956,576.635259 183.359687,575.79412 180.142864,574.658791 C178.712593,574.153998 177.349569,573.61841 176.084115,573.078282 L175.459659,572.807961 C175.157471,572.675294 174.874421,572.548253 174.611816,572.427963 L173.687921,571.992125 C173.66433,571.980525 173.643786,571.970342 173.62634,571.961619 C173.342179,571.819539 173.227,571.474002 173.369081,571.18984 Z"/><path id="Fill-33" fill="#CE998A" d="M218.11455,317.36855 C218.11455,317.36855 225.70305,308.73005 230.10855,316.90055 C234.29505,324.66305 225.67455,335.25755 218.36805,333.12905 C215.17305,325.85855 218.11455,317.36855 218.11455,317.36855"/><path id="Fill-35" fill="#CE998A" d="M165.21465,317.36855 C165.21465,317.36855 157.62465,308.73005 153.21915,316.90055 C149.03265,324.66305 157.65315,335.25755 164.95965,333.12905 C168.15465,325.85855 165.21465,317.36855 165.21465,317.36855"/><path id="Fill-37" fill="#CE998A" d="M221.22735,319.2011 C221.22735,346.0376 207.89685,353.1326 191.45235,353.1326 C175.00935,353.1326 162.80385,346.3196 161.67735,319.2011 C160.64085,294.2531 175.00935,285.8771 191.45235,285.8771 C207.89685,285.8771 221.22735,295.6391 221.22735,319.2011"/><path id="Fill-39" fill="#FFF" d="M193.8303,322.1564 C193.8963,327.5759 198.3423,331.9169 203.7618,331.8509 C209.1813,331.7864 213.5223,327.3404 213.4578,321.9209 C213.3918,316.4999 208.9458,312.1604 203.5263,312.2249 C198.1068,312.2894 193.7658,316.7369 193.8303,322.1564"/><path id="Stroke-41" fill="#7D4556" fill-rule="nonzero" d="M203.518071,311.533449 C197.717014,311.60249 193.0698,316.36293 193.138849,322.164629 C193.209506,327.966537 197.969184,332.612995 203.770221,332.542349 C209.571336,332.473307 214.218297,327.71412 214.149251,321.912671 C214.078605,316.110055 209.319751,311.4644 203.518071,311.533449 Z M203.534529,312.916351 C208.5726,312.856391 212.705004,316.890496 212.766351,321.929318 C212.826305,326.966841 208.791103,331.099495 203.753571,331.159449 C198.716183,331.220795 194.583103,327.18603 194.521749,322.147979 C194.461791,317.110144 198.497312,312.976301 203.534529,312.916351 Z"/><path id="Stroke-43" fill="#7D4556" fill-rule="nonzero" d="M201.246129,322.630978 C201.204381,322.969024 200.918195,323.232612 200.568141,323.236851 C200.218086,323.240989 199.925676,322.984323 199.875852,322.647373 L199.868417,322.553623 C199.864962,321.986558 199.969798,321.22025 200.295264,320.442896 C200.869111,319.072302 201.966083,318.203334 203.620573,318.1834 C205.263211,318.163619 206.422169,318.942012 207.116864,320.208671 C207.513566,320.931993 207.685613,321.643348 207.730204,322.146848 C207.763895,322.527264 207.482818,322.862963 207.102402,322.896654 C206.721986,322.930345 206.386287,322.649268 206.352596,322.268852 L206.336449,322.147404 C206.323851,322.069945 206.304059,321.968699 206.275248,321.849578 C206.19422,321.514554 206.07235,321.180198 205.904262,320.873718 C205.441085,320.029192 204.732247,319.553113 203.637231,319.5663 C202.5804,319.579033 201.945805,320.081729 201.570964,320.977012 C201.432161,321.308533 201.341352,321.671521 201.291303,322.03736 L201.263755,322.282436 C201.257483,322.355167 201.253893,322.418338 201.252305,322.470162 L201.251339,322.539163 L201.246129,322.630978 Z"/><path id="Stroke-45" fill="#7D4556" fill-rule="nonzero" d="M171.9437,309.162027 C174.976072,307.241687 179.486952,307.241687 185.637214,310.316386 C185.978809,310.48716 186.117288,310.902518 185.946514,311.244114 C185.77574,311.585709 185.360382,311.724188 185.018786,311.553414 C179.280714,308.68478 175.282262,308.68478 172.683633,310.33044 C172.319221,310.561215 172.020016,310.806235 171.782402,311.048076 L171.646874,311.192843 C171.592013,311.254819 171.556352,311.300312 171.539192,311.32539 C171.32353,311.640575 170.893194,311.721254 170.57801,311.505592 C170.262825,311.28993 170.182146,310.859594 170.397808,310.54441 C170.651186,310.174104 171.154561,309.661773 171.9437,309.162027 Z"/><path id="Stroke-47" fill="#7D4556" fill-rule="nonzero" d="M204.856333,307.647353 C206.75873,307.545862 208.454522,307.850847 209.877692,308.641403 C210.211546,308.826856 210.331849,309.247837 210.146397,309.581692 C209.960944,309.915546 209.539963,310.035849 209.206108,309.850397 C208.03375,309.199164 206.591383,308.939757 204.93001,309.028389 C203.214341,309.119918 201.357227,309.574003 199.483204,310.275166 C198.887464,310.498061 198.323267,310.733758 197.800883,310.971811 L197.417095,311.150629 C197.04412,311.328299 196.779485,311.465032 196.642945,311.540364 C196.308557,311.724852 195.887924,311.603333 195.703436,311.268945 C195.518948,310.934557 195.640467,310.513924 195.974855,310.329436 L196.24983,310.184077 C196.364215,310.125459 196.500825,310.057212 196.658151,309.980941 L196.822326,309.902054 C197.482787,309.587438 198.214484,309.273223 198.998568,308.97986 C200.993764,308.233361 202.981312,307.747384 204.856333,307.647353 Z"/><path id="Stroke-49" fill="#965C56" fill-rule="nonzero" d="M187.326727,313.530733 C187.603624,313.389887 187.942272,313.500179 188.083117,313.777077 L188.208028,314.036396 C188.259256,314.146911 188.319473,314.280952 188.386876,314.43688 C188.609698,314.952352 188.832134,315.528752 189.03969,316.153123 C189.720871,318.20225 190.087911,320.274813 189.971779,322.231131 C189.901693,323.422603 189.684949,324.509361 189.285377,325.906128 L188.751753,327.718885 C188.296834,329.299196 188.28608,329.579851 188.434611,330.123911 C188.655892,330.934453 189.638896,331.453827 191.935637,331.703905 C192.244472,331.737532 192.467572,332.015152 192.433945,332.323987 C192.400318,332.632822 192.122698,332.855922 191.813863,332.822295 C189.107805,332.527649 187.725247,331.797169 187.349328,330.420199 L187.302506,330.242524 C187.102853,329.446924 187.176378,329.061335 187.913658,326.578309 L188.081949,326.013214 C188.539399,324.480079 188.777755,323.371489 188.848738,322.164767 C188.955218,320.371049 188.611946,318.432695 187.972131,316.508006 C187.81472,316.034481 187.648349,315.590238 187.480383,315.182299 L187.354225,314.883262 C187.22911,314.593824 187.133014,314.390595 187.080383,314.287123 C186.939537,314.010226 187.049829,313.671578 187.326727,313.530733 Z"/><path id="Stroke-51" fill="#7D4556" fill-rule="nonzero" d="M198.040401,334.203209 C198.356358,334.121305 198.678888,334.311044 198.760791,334.627001 C198.842695,334.942958 198.652956,335.265488 198.336999,335.347391 C194.022844,336.465718 189.550047,336.465718 185.418997,335.796699 C184.93644,335.718549 184.492996,335.635835 184.092685,335.552077 L183.542426,335.430195 C183.389544,335.394255 183.275525,335.365337 183.202698,335.345475 C182.887798,335.259594 182.702143,334.934697 182.788025,334.619798 C182.873906,334.304898 183.198803,334.119243 183.513702,334.205125 L184.056867,334.335232 C184.508212,334.435471 185.027912,334.535963 185.607959,334.629901 C189.590575,335.274882 193.906223,335.274882 198.040401,334.203209 Z"/><path id="Fill-53" fill="#FFF" d="M169.05405,322.1564 C169.11855,327.5759 173.56455,331.9169 178.98405,331.8509 C184.40355,331.7864 188.74455,327.3404 188.68005,321.9209 C188.61555,316.4999 184.16805,312.1604 178.74855,312.2249 C173.32905,312.2894 168.98805,316.7369 169.05405,322.1564"/><path id="Stroke-55" fill="#7D4556" fill-rule="nonzero" d="M178.740321,311.533449 C172.938981,311.602493 168.291948,316.363256 168.362601,322.164821 C168.431646,327.966219 173.191156,332.612999 178.992471,332.542349 C184.793586,332.473307 189.440547,327.71412 189.371501,321.912671 C189.302467,316.110623 184.542528,311.464394 178.740321,311.533449 Z M178.756779,312.916351 C183.795347,312.856385 187.928654,316.890951 187.988599,321.929127 C188.048555,326.966841 184.013353,331.099495 178.975821,331.159449 C173.938252,331.220798 169.805457,327.185889 169.745501,322.148171 C169.684148,317.110287 173.719375,312.976304 178.756779,312.916351 Z"/><path id="Stroke-57" fill="#7D4556" fill-rule="nonzero" d="M176.468229,322.630978 C176.426481,322.969024 176.140295,323.232612 175.790241,323.236851 C175.440186,323.240989 175.147776,322.984323 175.097952,322.647373 L175.090517,322.553623 C175.087062,321.98653 175.191957,321.220179 175.517602,320.442783 C176.09172,319.072219 177.189125,318.203331 178.844169,318.1834 C180.486156,318.163617 181.644912,318.94199 182.339847,320.208566 C182.736671,320.931812 182.908967,321.643104 182.953777,322.146544 C182.987636,322.526945 182.706707,322.862768 182.326306,322.896627 C181.977605,322.927664 181.666362,322.694193 181.59083,322.36206 L181.560022,322.147683 C181.54739,322.070211 181.527555,321.968951 181.498696,321.849814 C181.417534,321.514748 181.295543,321.180348 181.127361,320.873823 C180.663947,320.029214 179.955184,319.553115 178.860827,319.5663 C177.803252,319.579036 177.168246,320.081812 176.793207,320.977124 C176.654342,321.30863 176.563492,321.671599 176.513421,322.03742 L176.485861,322.282475 C176.479586,322.355197 176.475995,322.418361 176.474406,322.470177 L176.473439,322.539165 L176.468229,322.630978 Z"/><path id="Fill-59" d="M188.6799,318.9206 C188.6799,318.9206 191.3514,317.5166 193.8309,318.9206"/><path id="Stroke-61" fill="#7D4556" fill-rule="nonzero" d="M189.253636,317.949985 C190.668268,317.497405 192.169341,317.437359 193.598097,318.037196 C193.728127,318.091787 193.85649,318.15167 193.983081,318.216932 L194.171625,318.31887 L193.490175,319.52233 C193.350432,319.443201 193.207927,319.37333 193.062736,319.312374 C191.982812,318.858987 190.803615,318.906158 189.675053,319.267215 C189.4046,319.35374 189.196995,319.438508 189.068829,319.499297 L189.001595,319.532715 L188.358205,318.308485 C188.540167,318.212856 188.846762,318.080155 189.253636,317.949985 Z"/><path id="Stroke-62" fill="#965C56" fill-rule="nonzero" d="M206.088674,350.070296 C206.376251,349.952783 206.704641,350.090647 206.822154,350.378224 C206.939667,350.665801 206.801803,350.994191 206.514226,351.111704 C196.67021,355.134284 186.593065,354.53192 177.705437,351.473895 C177.41168,351.37282 177.25548,351.052745 177.356555,350.758987 C177.45763,350.46523 177.777705,350.30903 178.071463,350.410105 C186.724359,353.387364 196.535929,353.973853 206.088674,350.070296 Z"/><path id="Stroke-64" fill="#965C56" fill-rule="nonzero" d="M193.3527,339.725 C193.66336,339.725 193.9152,339.97684 193.9152,340.2875 C193.9152,340.567094 193.71121,340.799044 193.44394,340.842638 L193.3527,340.85 L188.9187,340.85 C188.60804,340.85 188.3562,340.59816 188.3562,340.2875 C188.3562,340.007906 188.56019,339.775956 188.82746,339.732362 L188.9187,339.725 L193.3527,339.725 Z"/><path id="Stroke-66" fill="#965C56" fill-rule="nonzero" d="M190.8186,345.8495 C191.098194,345.8495 191.330144,346.05349 191.373738,346.32076 L191.3811,346.412 L191.3811,352.5365 C191.3811,352.84716 191.12926,353.099 190.8186,353.099 C190.539006,353.099 190.307056,352.89501 190.263462,352.62774 L190.2561,352.5365 L190.2561,346.412 C190.2561,346.10134 190.50794,345.8495 190.8186,345.8495 Z"/><path id="Stroke-68" fill="#965C56" fill-rule="nonzero" d="M193.276728,347.543674 C193.553751,347.505838 193.811172,347.676562 193.890534,347.935474 L193.910176,348.024878 L194.544676,352.670378 C194.586716,352.978181 194.371274,353.261785 194.063472,353.303826 C193.786449,353.341662 193.529028,353.170938 193.449666,352.912026 L193.430024,352.822622 L192.795524,348.177122 C192.753484,347.869319 192.968926,347.585715 193.276728,347.543674 Z"/><path id="Stroke-70" fill="#965C56" fill-rule="nonzero" d="M187.526373,349.023005 C187.802709,349.065565 188.000905,349.302485 188.003307,349.573276 L187.996695,349.664573 L187.573695,352.411073 C187.526407,352.718113 187.239167,352.928684 186.932127,352.881395 C186.655791,352.838835 186.457595,352.601915 186.455193,352.331124 L186.461805,352.239827 L186.884805,349.493327 C186.927365,349.216991 187.164285,349.018795 187.435076,349.016393 L187.526373,349.023005 Z"/><path id="Stroke-72" fill="#965C56" fill-rule="nonzero" d="M195.531403,348.613566 C195.801595,348.541668 196.078201,348.679153 196.189057,348.926224 L196.219634,349.012503 L197.062634,352.180503 C197.14252,352.480716 196.96391,352.788848 196.663697,352.868734 C196.393505,352.940632 196.116899,352.803147 196.006043,352.556076 L195.975466,352.469797 L195.132466,349.301797 C195.05258,349.001584 195.23119,348.693452 195.531403,348.613566 Z"/><path id="Stroke-74" fill="#965C56" fill-rule="nonzero" d="M154.591729,319.277648 C155.833305,317.804495 157.476313,317.804495 159.02576,320.212737 C159.659095,321.660729 159.602529,322.626257 159.051591,323.974574 L158.739282,324.707974 C158.408024,325.534922 158.429419,326.060579 158.978514,326.883759 C159.140842,327.127396 159.327687,327.323604 159.534742,327.47885 C159.957373,327.795729 160.37718,327.90065 160.6224,327.90065 C160.93306,327.90065 161.1849,328.15249 161.1849,328.46315 C161.1849,328.77381 160.93306,329.02565 160.6224,329.02565 C160.155073,329.02565 159.50606,328.863445 158.85987,328.378946 C158.551652,328.147851 158.276145,327.858537 158.042452,327.50779 C157.316824,326.419956 157.241242,325.547715 157.618883,324.490193 L157.778673,324.08722 L157.917927,323.767278 C158.448697,322.549145 158.519795,321.863305 158.038136,320.743721 C156.96282,319.081805 156.228051,319.081805 155.451959,320.002652 C155.236225,320.258624 155.081684,320.518578 155.006909,320.677558 C154.874687,320.958676 154.539609,321.07938 154.258492,320.947159 C153.977374,320.814937 153.85667,320.479859 153.988891,320.198742 C154.101783,319.958722 154.303047,319.620176 154.591729,319.277648 Z"/><path id="Stroke-76" fill="#965C56" fill-rule="nonzero" d="M223.310936,320.132579 C224.817287,317.804495 226.460295,317.804495 227.701871,319.277648 C227.990553,319.620176 228.191817,319.958722 228.304709,320.198742 C228.43693,320.479859 228.316226,320.814937 228.035108,320.947159 C227.753991,321.07938 227.418913,320.958676 227.286691,320.677558 C227.211916,320.518578 227.057375,320.258624 226.841641,320.002652 C226.065549,319.081805 225.33078,319.081805 224.29856,320.663563 C223.806602,321.788321 223.838343,322.461408 224.281574,323.54486 L224.598646,324.289639 C225.059267,325.439527 225.022128,326.351967 224.251314,327.507541 C224.017455,327.858537 223.741948,328.147851 223.43373,328.378946 C222.78754,328.863445 222.138527,329.02565 221.6712,329.02565 C221.36054,329.02565 221.1087,328.77381 221.1087,328.46315 C221.1087,328.15249 221.36054,327.90065 221.6712,327.90065 C221.91642,327.90065 222.336227,327.795729 222.758858,327.47885 C222.965913,327.323604 223.152758,327.127396 223.315252,326.88351 C223.827585,326.115441 223.880379,325.606331 223.615816,324.869524 L223.477626,324.522891 L223.344325,324.216662 C222.700114,322.738179 222.59725,321.745905 223.310936,320.132579 Z"/><path id="Fill-78" fill="#7D4556" d="M160.55055,323.6051 C160.55055,323.6051 156.04605,318.8186 158.29905,312.9056 C154.35705,305.8676 156.89205,299.1101 160.55055,296.5751 C159.42555,290.3816 163.64805,279.4001 172.37655,278.2736 C177.51555,280.3151 183.64005,280.5266 183.64005,280.5266 C183.64005,280.5266 198.28005,272.0801 208.41555,282.2156 C218.83305,281.0906 224.18355,292.9151 223.33905,297.1391 C228.97005,304.1771 224.46405,314.8766 224.46405,314.8766 C224.46405,314.8766 223.83555,319.0151 221.93205,324.7316 C219.95955,330.6446 219.11505,323.0426 219.11505,321.3536 C219.11505,319.6646 214.89255,318.2561 216.29955,310.6541 C211.51455,307.2746 212.57055,302.0666 212.57055,302.0666 C212.57055,302.0666 209.12055,305.5856 199.26705,300.7991 C192.22605,306.7121 181.52655,300.7991 181.52655,300.7991 C181.52655,300.7991 172.87005,304.9511 167.80155,301.8551 C167.80155,301.8551 169.20855,306.0776 165.26805,311.9906 C166.67505,317.6216 162.52155,320.2271 163.64805,323.6051 C164.77455,326.9831 161.67705,330.3626 160.55055,323.6051"/><path id="Fill-80" fill="#ADC6FF" d="M232.04805,425.07125 C232.04805,425.07125 215.14155,437.52725 203.99355,421.84925 C192.62655,405.86225 210.22305,393.92675 210.22305,393.92675 C210.22305,393.92675 221.88255,385.05875 236.33805,374.77925 C247.63305,366.74675 256.26855,360.53975 263.98755,356.08775 C272.31555,351.28475 282.91155,352.82225 288.13455,360.16475 C296.06955,371.32475 292.57905,380.74475 285.04305,386.63675 C277.71555,392.36525 267.59055,399.79025 259.37355,405.92525 C243.57555,417.72275 232.04805,425.07125 232.04805,425.07125"/><path id="Fill-82" fill="#CE998A" d="M307.32795,270.28415 C307.32795,270.28415 306.32295,288.51515 298.38495,291.77165 C291.19545,294.71915 286.19145,286.05515 286.19145,286.05515 C286.19145,286.05515 283.05045,278.83715 281.78295,270.14615 C280.95195,264.45065 277.75845,253.85915 280.55895,252.65165 C284.21145,251.07515 285.70995,262.43765 288.50745,263.17715 C294.17445,264.67565 293.70045,246.55265 295.20045,243.57365 C298.13295,237.74915 308.70045,248.42465 307.32795,270.28415"/><path id="Stroke-84" fill="#965C56" fill-rule="nonzero" d="M298.155144,243.474475 C298.460184,243.415653 298.755153,243.615253 298.813975,243.920294 C298.869483,244.208148 298.920404,244.498618 298.966811,244.791618 C299.638889,249.034868 299.357738,253.560467 298.48238,257.937018 C298.327132,258.713213 298.162557,259.432107 297.996279,260.084264 L297.896369,260.467474 C297.775709,260.920047 297.681173,261.240898 297.62591,261.41367 C297.531265,261.709562 297.214672,261.872705 296.91878,261.77806 C296.622888,261.683415 296.459745,261.366822 296.55439,261.07093 L296.676077,260.662505 C296.714957,260.525815 296.759722,260.363766 296.80934,260.177661 C297.003412,259.449736 297.19774,258.623771 297.379229,257.716376 C298.230623,253.459643 298.503919,249.060464 297.855662,244.96761 C297.811201,244.686895 297.762443,244.408765 297.709325,244.133306 C297.650503,243.828266 297.850103,243.533297 298.155144,243.474475 Z"/><path id="Stroke-86" fill="#965C56" fill-rule="nonzero" d="M301.991217,245.860791 C302.293377,245.788617 302.596835,245.975057 302.669009,246.277217 L302.742026,246.62484 L302.766765,246.755298 C302.837533,247.135965 302.908042,247.582511 302.97368,248.092148 C303.529449,252.407284 303.396714,257.762983 302.096053,263.868107 C302.031322,264.171948 301.732534,264.365785 301.428693,264.301053 C301.124852,264.236322 300.931015,263.937534 300.995747,263.633693 C302.268545,257.659351 302.398138,252.430431 301.857897,248.235855 C301.807547,247.844925 301.754436,247.494154 301.700905,247.184978 L301.618037,246.739819 C301.599248,246.646524 301.584503,246.579243 301.574791,246.538583 C301.502617,246.236423 301.689057,245.932965 301.991217,245.860791 Z"/><path id="Stroke-88" fill="#965C56" fill-rule="nonzero" d="M305.706658,253.788142 C306.017019,253.774505 306.279671,254.015048 306.293308,254.325408 C306.476049,258.484412 306.296106,262.002019 305.883363,264.863271 L305.775444,265.561703 C305.720453,265.894156 305.664122,266.201443 305.60738,266.483457 L305.550534,266.757043 C305.481258,267.079793 305.426425,267.299636 305.393463,267.415731 C305.308615,267.71458 304.997567,267.888062 304.698719,267.803213 C304.39987,267.718365 304.226388,267.407317 304.311237,267.108469 L304.391814,266.785417 C304.409534,266.708678 304.429217,266.62051 304.450588,266.520945 C304.559077,266.01551 304.667975,265.40914 304.769888,264.702649 C305.172679,261.910394 305.349026,258.463073 305.169392,254.374792 C305.155755,254.064431 305.396298,253.801779 305.706658,253.788142 Z"/><path id="Fill-90" fill="#ADC6FF" d="M258.55005,360.60335 C258.55005,360.60335 254.75205,381.81785 272.37705,385.57085 C290.55255,389.44235 295.13955,369.25985 295.13955,369.25985 C295.13955,369.25985 298.01655,354.97835 301.63755,337.39385 C303.84855,326.65835 306.05355,314.75435 306.41505,305.88185 C306.80655,296.27585 301.83705,294.25685 293.02605,292.37885 C282.56205,290.14985 278.00955,290.29385 274.71555,299.27435 C271.57755,307.83785 268.87905,319.82435 266.36655,329.01785 C261.57855,346.54835 258.55005,360.60335 258.55005,360.60335"/><polygon id="Fill-92" fill="#ADC6FF" points="304.447 287.615 284.068 283.274 279.668 296.732 302.98 301.697"/><path id="Fill-94" fill="#ADC6FF" d="M136.90215,425.07125 C136.90215,425.07125 153.80865,437.52725 164.95665,421.84925 C176.32365,405.86225 158.72715,393.92675 158.72715,393.92675 C158.72715,393.92675 147.06765,385.05875 132.61215,374.77925 C121.31565,366.74675 112.68165,360.53975 104.96265,356.08775 C96.63465,351.28475 86.03715,352.82225 80.81565,360.16475 C72.88065,371.32475 76.37115,380.74475 83.90715,386.63675 C91.23465,392.36525 101.35965,399.79025 109.57665,405.92525 C125.37465,417.72275 136.90215,425.07125 136.90215,425.07125"/><path id="Fill-96" fill="#CE998A" d="M61.6224,270.28415 C61.6224,270.28415 62.6274,288.51515 70.5654,291.77165 C77.7549,294.71915 82.7589,286.05515 82.7589,286.05515 C82.7589,286.05515 85.8999,278.83715 87.1674,270.14615 C87.9984,264.45065 91.1919,253.85915 88.3914,252.65165 C84.7389,251.07515 83.2404,262.43765 80.4429,263.17715 C74.7744,264.67565 75.2499,246.55265 73.7499,243.57365 C70.8174,237.74915 60.2499,248.42465 61.6224,270.28415"/><path id="Stroke-98" fill="#965C56" fill-rule="nonzero" d="M70.7952065,243.474475 C71.100247,243.533297 71.2998466,243.828266 71.2410247,244.133306 C71.1879071,244.408765 71.1391494,244.686895 71.0946878,244.96761 C70.4464309,249.060464 70.7197275,253.459643 71.5711213,257.716376 C71.7223622,258.472538 71.882519,259.172152 72.0440137,259.805606 L72.1410104,260.177661 C72.2567841,260.611905 72.3461413,260.91518 72.3959599,261.07093 C72.4906048,261.366822 72.3274618,261.683415 72.0315698,261.77806 C71.7356778,261.872705 71.419085,261.709562 71.3244401,261.41367 L71.2327824,261.111228 C71.1833478,260.941689 71.1229295,260.726087 71.0539807,260.467474 C70.8539962,259.717372 70.6542675,258.868452 70.4679704,257.937018 C69.5926116,253.560467 69.3114612,249.034868 69.9835389,244.791618 C70.0299464,244.498618 70.0808674,244.208148 70.1363753,243.920294 C70.189315,243.645757 70.4335337,243.456628 70.7042225,243.464428 L70.7952065,243.474475 Z"/><path id="Stroke-100" fill="#965C56" fill-rule="nonzero" d="M66.9591331,245.860791 C67.261293,245.932965 67.4477332,246.236423 67.3755589,246.538583 L67.2896346,246.960918 L67.2094119,247.424637 C67.1695312,247.672049 67.1302157,247.942657 67.0924532,248.235855 C66.552212,252.430431 66.6818051,257.659351 67.9546034,263.633693 C68.019335,263.937534 67.8254983,264.236322 67.5216569,264.301053 C67.2178156,264.365785 66.9190282,264.171948 66.8542966,263.868107 C65.553636,257.762983 65.4209008,252.407284 65.9766696,248.092148 C66.0291807,247.684438 66.0848086,247.317107 66.1411924,246.991581 L66.2306899,246.511669 C66.251796,246.407186 66.2690115,246.328835 66.2813411,246.277217 C66.3462979,246.005273 66.5985944,245.827062 66.8686787,245.846754 L66.9591331,245.860791 Z"/><path id="Stroke-102" fill="#965C56" fill-rule="nonzero" d="M63.2435416,253.788142 C63.5539024,253.801779 63.7944446,254.064431 63.7808078,254.374792 C63.6011745,258.463073 63.7775211,261.910394 64.1803117,264.702649 C64.2652395,265.291391 64.3550179,265.810605 64.4453679,266.25982 L64.5583856,266.785417 C64.5938253,266.938895 64.6214147,267.04666 64.6389634,267.108469 C64.7238116,267.407317 64.55033,267.718365 64.2514813,267.803213 C63.9526326,267.888062 63.6415849,267.71458 63.5567366,267.415731 L63.4918192,267.163883 C63.4653312,267.054066 63.4343038,266.918418 63.3996655,266.757043 C63.2858379,266.226735 63.1724195,265.595196 63.0668372,264.863271 C62.6540936,262.002019 62.4741514,258.484412 62.6568922,254.325408 C62.670529,254.015048 62.9331809,253.774505 63.2435416,253.788142 Z"/><path id="Fill-104" fill="#ADC6FF" d="M110.40015,360.60335 C110.40015,360.60335 114.19815,381.81785 96.57315,385.57085 C78.39765,389.44235 73.81065,369.25985 73.81065,369.25985 C73.81065,369.25985 70.93365,354.97835 67.31265,337.39385 C65.10165,326.65835 62.89665,314.75435 62.53515,305.88185 C62.14365,296.27585 67.11315,294.25685 75.92415,292.37885 C86.38815,290.14985 90.94065,290.29385 94.23465,299.27435 C97.37265,307.83785 100.07115,319.82435 102.58365,329.01785 C107.37165,346.54835 110.40015,360.60335 110.40015,360.60335"/><polygon id="Fill-106" fill="#ADC6FF" points="64.504 287.615 84.883 283.274 89.282 296.732 65.971 301.697"/><path id="Fill-108" fill="#ADC6FF" d="M212.17305,373.7357 L210.27705,368.2667 L173.40255,369.2732 L171.92055,374.4527 C171.92055,374.4527 142.86855,370.5962 138.44655,381.6587 C133.88505,393.0692 148.87305,458.9672 149.13255,472.8797 C142.85805,489.4952 151.97655,494.5622 151.97655,494.5622 L226.76355,493.6652 C226.76355,493.6652 235.32555,487.9937 227.99655,476.5742 C230.99805,456.1487 251.45655,385.7702 242.76405,378.6557 C229.54005,367.8332 212.17305,373.7357 212.17305,373.7357"/><path id="Stroke-110" fill="#597EF7" fill-rule="nonzero" d="M141.780869,397.940585 C142.09046,397.966332 142.320562,398.238177 142.294815,398.547769 C141.868687,403.671705 142.196289,411.185117 143.127778,420.460572 L143.202568,421.196494 C143.626609,425.320711 144.15663,429.676961 144.768525,434.168434 C145.350211,438.438163 145.973483,442.597133 146.596737,446.478644 L147.119956,449.668042 L147.427205,451.465978 C147.481148,451.771919 147.276863,452.063663 146.970922,452.117605 C146.664981,452.171548 146.373237,451.967263 146.319295,451.661322 L146.089861,450.325286 L145.578694,447.232403 L145.485965,446.657 C144.86137,442.767136 144.236794,438.599468 143.653822,434.320296 C143.040351,429.817259 142.508864,425.448956 142.083468,421.311557 L141.935412,419.837196 C141.053616,410.836159 140.751932,403.525864 141.173685,398.454531 C141.199432,398.14494 141.471277,397.914838 141.780869,397.940585 Z"/><path id="Stroke-112" fill="#597EF7" fill-rule="nonzero" d="M209.218772,374.471076 C209.518041,374.387721 209.828219,374.562754 209.911574,374.862022 C209.994929,375.161291 209.819896,375.471469 209.520628,375.554824 C206.173096,376.48721 202.31398,377.099884 198.041301,377.430316 C191.665065,377.923429 184.84978,377.76955 178.287835,377.214295 L177.189838,377.117095 C176.478047,377.051238 175.807374,376.983514 175.18203,376.915402 L173.965797,376.775557 L173.404746,376.704298 C173.096931,376.66235 172.881403,376.378811 172.923352,376.070996 C172.9653,375.763181 173.248839,375.547653 173.556654,375.589602 L174.334082,375.686787 L174.848167,375.746412 C175.892123,375.864623 177.07786,375.98289 178.382691,376.093301 C184.889155,376.643861 191.647234,376.796448 197.954557,376.308665 C202.159505,375.983471 205.948617,375.381911 209.218772,374.471076 Z"/><path id="Stroke-114" fill="#1D39C4" fill-rule="nonzero" d="M226.9227,493.86575 C227.240402,493.86575 227.49795,494.123298 227.49795,494.441 C227.49795,494.726932 227.289336,494.964139 227.016009,495.008721 L226.9227,495.01625 L151.9227,495.01625 C151.604998,495.01625 151.34745,494.758702 151.34745,494.441 C151.34745,494.155068 151.556064,493.917861 151.829391,493.873279 L151.9227,493.86575 L226.9227,493.86575 Z"/><path id="Stroke-116" fill="#1D39C4" fill-rule="nonzero" d="M229.9227,505.86575 C230.240402,505.86575 230.49795,506.123298 230.49795,506.441 C230.49795,506.726932 230.289336,506.964139 230.016009,507.008721 L229.9227,507.01625 L153.4227,507.01625 C153.104998,507.01625 152.84745,506.758702 152.84745,506.441 C152.84745,506.155068 153.056064,505.917861 153.329391,505.873279 L153.4227,505.86575 L229.9227,505.86575 Z"/></g></svg>