<?xml version="1.0" encoding="UTF-8"?>
<svg width="512px" height="1024px" viewBox="0 0 512 1024" version="1.1" xmlns="http://www.w3.org/2000/svg" xmlns:xlink="http://www.w3.org/1999/xlink">
    <!-- Generator: Sketch 61.2 (89653) - https://sketch.com -->
    <title>2.人物组件/6.产品经理/走路/看电脑</title>
    <desc>Created with Sketch.</desc>
    <defs>
        <polygon id="path-1" points="0 0.6729 33.2958434 0.6729 33.2958434 55.2099617 0 55.2099617"></polygon>
        <polygon id="path-3" points="0.056090682 0.537 72.8064598 0.537 72.8064598 76.1318835 0.056090682 76.1318835"></polygon>
        <polygon id="path-5" points="0.1278 0.104656024 55.6955635 0.104656024 55.6955635 30 0.1278 30"></polygon>
    </defs>
    <g id="2.人物组件/6.产品经理/走路/看电脑" stroke="none" stroke-width="1" fill="none" fill-rule="evenodd">
        <path d="M264.3621,470.0294 C264.3621,470.0294 242.8161,469.5959 241.8636,487.5914 C240.8841,506.1479 261.5346,507.5204 261.5346,507.5204 C261.5346,507.5204 276.0891,508.1279 294.0246,508.9559 C304.9761,509.4599 317.0766,509.7764 325.8966,508.7459 C335.4456,507.6299 336.6636,502.4054 337.1391,493.4084 C337.7046,482.7239 336.8496,478.2509 327.4641,476.4044 C318.5166,474.6419 306.2541,473.8514 296.7801,472.8089 C278.7171,470.8199 264.3621,470.0294 264.3621,470.0294" id="Fill-1" fill="#ADC6FF"></path>
        <path d="M243.5268,665.54435 C252.7008,628.73585 261.8088,590.59235 268.3608,560.08385 C268.3608,560.08385 269.3868,537.09785 248.4063,536.08985 C227.8413,535.10285 221.9823,559.98185 221.9823,559.98185 L207.4728,659.83385 C207.4728,659.83385 205.2903,676.12385 223.3653,678.66185 C239.8503,680.97785 243.5268,665.54435 243.5268,665.54435" id="Fill-3" fill="#1D39C4"></path>
        <path d="M184.6416,739.9049 L184.6416,739.9049 C179.0826,735.2429 170.6316,736.9784 167.3751,743.4614 C163.6281,750.9194 158.5146,760.9694 152.8626,771.7184 C147.0456,782.7809 142.2471,791.9609 142.4001,793.5434 C143.0796,800.5169 148.9536,806.1854 153.3006,815.1029 C156.7386,822.1604 156.6726,824.5859 163.1016,829.8404 C172.2111,837.2864 169.8336,830.3969 166.0071,810.6209 C162.5976,793.0019 166.3821,787.6814 166.3821,787.6814 L186.9741,754.4384 C189.9171,749.6879 188.9226,743.4974 184.6416,739.9049" id="Fill-5" fill="#CE998A"></path>
        <g id="分组" transform="translate(139.500000, 781.463000)">
            <mask id="mask-2" fill="white">
                <use xlink:href="#path-1"></use>
            </mask>
            <g id="Clip-8"></g>
            <path d="M27.2478,25.3794 C30.1263,37.5354 35.0088,48.5709 32.6898,52.3284 C30.3708,56.0874 25.4088,57.9159 15.2328,46.5354 C8.2698,38.7489 11.7543,38.2464 6.4413,28.3734 C3.7863,23.4429 2.1273,22.9104 0.0348,17.7189 C-0.6117,13.7304 7.7958,0.6729 7.7958,0.6729 L13.5933,24.4074 C13.5933,24.4074 13.8678,14.9784 17.8278,15.0669 C21.7893,15.1554 25.2273,15.6204 26.3313,17.9274 C27.4353,20.2329 27.2478,25.3794 27.2478,25.3794" id="Fill-7" fill="#7D4556" mask="url(#mask-2)"></path>
        </g>
        <path d="M242.59965,668.726 C207.93915,724.5095 171.35865,782.6255 171.35865,782.6255 L151.88265,769.133 L209.91915,651.491 C209.91915,651.491 220.84515,635.036 236.72415,644.033 C251.05365,652.151 242.59965,668.726 242.59965,668.726" id="Fill-9" fill="#1D39C4"></path>
        <path d="M299.166,470.92955 C299.166,470.92955 304.356,491.27555 285.6375,495.71555 C266.55,500.24405 262.1025,479.45255 262.1025,479.45255 C262.1025,479.45255 258.264,465.31505 254.1705,448.05605 C250.9725,434.56955 248.4645,424.23305 247.239,415.40855 C245.916,405.88655 251.3235,396.64355 260.091,394.56305 C273.4155,391.40255 280.833,398.17955 283.461,407.37605 C286.017,416.31905 289.0935,428.49155 291.6915,438.41105 C296.6865,457.48505 299.166,470.92955 299.166,470.92955" id="Fill-11" fill="#ADC6FF"></path>
        <g id="分组" transform="translate(190.500000, 293.963000)">
            <mask id="mask-4" fill="white">
                <use xlink:href="#path-3"></use>
            </mask>
            <g id="Clip-14"></g>
            <path d="M9.64845,59.1975 C9.64845,59.1975 -1.18305,53.619 2.12745,42.033 C-2.82105,32.2635 2.65095,26.031 2.65095,26.031 C2.65095,26.031 2.54745,13.0545 11.12145,12.12 C16.21245,-1.311 31.46295,3.5415 31.46295,3.5415 C31.46295,3.5415 40.94745,-4.5915 55.04745,5.901 C65.17845,6.0225 65.09595,0.996 68.43195,4.413 C71.76795,7.83 73.41945,15.978 69.15795,19.3035 C76.71945,22.3485 70.18245,34.407 70.18245,34.407 C70.18245,34.407 72.79695,41.2335 64.28895,46.62 C55.78245,52.005 52.88745,68.454 38.66295,73.947 C24.97695,79.2315 10.23495,75.162 9.64845,59.1975" id="Fill-13" fill="#7D4556" mask="url(#mask-4)"></path>
        </g>
        <path d="M207.6939,377.3561 L208.7619,354.9506 L238.4814,357.9701 L239.2089,377.5136 C239.5329,386.2391 232.5984,393.5156 223.8669,393.6101 C223.7004,393.6131 223.5339,393.6146 223.3674,393.6161 C214.4379,393.7181 207.2679,386.2751 207.6939,377.3561" id="Fill-15" fill="#CE998A"></path>
        <path d="M214.16115,320.63435 C214.16115,320.63435 216.33765,328.44485 210.34365,330.70835 C211.97265,340.84685 207.50415,340.20935 207.50415,340.20935 C207.50415,340.20935 199.91565,331.57085 195.50865,339.74135 C191.32215,347.50385 199.94265,358.09835 207.25065,355.96985 C220.70865,375.00935 245.43015,374.59085 252.85515,361.18835 C257.36865,353.04335 254.90715,341.71235 255.22965,336.30635 C256.02315,323.01785 253.35915,319.15835 253.35915,319.15835 C253.35915,319.15835 248.37165,320.52035 242.62065,316.69535 C236.94315,321.42185 228.21015,317.55935 228.21015,317.55935 C228.21015,317.55935 222.92865,325.15085 214.16115,320.63435" id="Fill-17" fill="#CE998A"></path>
        <path d="M198.518785,342.090543 C199.109224,341.142529 200.230901,340.673463 201.897899,340.902756 C205.013686,341.329617 207.551542,345.874098 205.765592,347.034684 C204.881782,347.609123 204.233933,348.370959 204.082098,349.067964 C203.910855,349.85406 204.353998,350.6079 205.66512,351.322079 C205.937933,351.470682 206.038624,351.812307 205.890021,352.08512 C205.741418,352.357933 205.399793,352.458624 205.12698,352.310021 C203.411543,351.375609 202.693941,350.15488 202.982877,348.828511 C203.208126,347.794498 204.043342,346.812327 205.152546,346.091391 L205.164432,346.058185 C205.178771,345.996981 205.195526,345.852233 205.170216,345.627979 C205.124013,345.218607 204.948631,344.709384 204.671878,344.213809 C204.010364,343.029251 202.955683,342.18318 201.744901,342.017303 C200.499981,341.846067 199.819054,342.130819 199.473719,342.685292 C199.331761,342.91322 199.268321,343.145837 199.251929,343.302994 L199.247508,343.374914 C199.243717,343.685551 198.988823,343.934299 198.678186,343.930508 C198.367549,343.926717 198.118801,343.671823 198.122549,343.361186 C198.126725,343.022528 198.22657,342.559726 198.518785,342.090543 Z" id="Stroke-19" fill="#965C56" fill-rule="nonzero"></path>
        <path d="M202.355114,344.978343 C202.917037,344.886478 203.502339,344.876504 204.041721,344.913633 L204.276028,344.934136 C204.58457,344.970354 204.805332,345.249837 204.769114,345.558378 C204.732896,345.86692 204.453413,346.087682 204.144872,346.051464 L203.964463,346.035977 C203.504186,346.004293 202.999759,346.012889 202.536625,346.088604 C201.68545,346.227758 201.259724,346.52457 201.244648,347.042528 L201.247697,347.156927 C201.272204,347.466619 201.041015,347.737541 200.731323,347.762047 C200.421631,347.786554 200.150709,347.555365 200.126203,347.245673 C200.02167,345.924668 200.938946,345.209865 202.355114,344.978343 Z" id="Stroke-21" fill="#965C56" fill-rule="nonzero"></path>
        <path d="M234.98385,337.66475 C234.91935,343.08425 230.47185,347.42525 225.05235,347.36075 C219.63285,347.29475 215.29185,342.84875 215.35785,337.42925 C215.42235,332.00975 219.86835,327.66875 225.28785,327.73325 C230.70735,327.79775 235.04835,332.24525 234.98385,337.66475" id="Fill-23" fill="#FFFFFF"></path>
        <path d="M225.296079,327.041799 C219.49463,326.972753 214.735443,331.619714 214.666399,337.421021 C214.595755,343.221866 219.242213,347.981544 225.043929,348.052199 C230.84582,348.12125 235.60626,343.474036 235.675301,337.672979 C235.74435,331.87128 231.097136,327.11084 225.296079,327.041799 Z M225.279621,328.424701 C230.316838,328.484651 234.352359,332.618494 234.292399,337.656521 C234.232449,342.693738 230.098606,346.729259 225.060579,346.669299 C220.02272,346.607947 215.987955,342.474867 216.049299,337.437671 C216.109255,332.399947 220.241909,328.364745 225.279621,328.424701 Z" id="Stroke-25" fill="#7D4556" fill-rule="nonzero"></path>
        <path d="M258.7956,337.03115 C258.7311,342.45065 254.2836,346.79165 248.8641,346.72715 C243.4446,346.66115 239.1036,342.21665 239.1696,336.79565 C239.2341,331.37615 243.6801,327.03515 249.0996,327.09965 C254.5191,327.16565 258.8601,331.61165 258.7956,337.03115" id="Fill-27" fill="#FFFFFF"></path>
        <path d="M249.107829,326.408199 C243.30638,326.339153 238.547193,330.986114 238.478149,336.787421 C238.407512,342.589272 243.053468,347.347938 248.855679,347.418599 C254.65757,347.48765 259.41801,342.840436 259.487051,337.039379 C259.554962,331.333309 255.060535,326.635177 249.39239,326.41544 L249.107829,326.408199 Z M249.091179,327.791099 C254.129044,327.852451 258.164103,331.98539 258.104149,337.022921 C258.044199,342.060138 253.910356,346.095659 248.872329,346.035699 C243.833942,345.97434 239.79971,341.842238 239.861049,336.804068 C239.919953,331.854728 243.909907,327.873039 248.827081,327.79171 L249.091179,327.791099 Z" id="Stroke-29" fill="#7D4556" fill-rule="nonzero"></path>
        <path d="M237.271729,335.886958 C237.529863,335.714109 237.879243,335.783246 238.052092,336.041379 L238.233048,336.317838 L238.702942,337.062718 C239.188426,337.849305 239.673887,338.685103 240.127588,339.535259 C240.513506,340.258402 240.859174,340.960336 241.154503,341.630416 C242.270203,344.161853 242.611285,346.031573 241.803474,347.115816 C241.055815,348.117476 240.013463,348.720813 238.770172,348.98617 C237.677953,349.219283 236.528584,349.178453 235.43153,348.971823 C235.089718,348.907443 234.832124,348.842106 234.682202,348.796106 C234.385208,348.704981 234.218318,348.390347 234.309444,348.093352 C234.400569,347.796358 234.715203,347.629468 235.012198,347.720594 L235.158415,347.761149 C235.278124,347.791835 235.441054,347.828836 235.639762,347.866263 C236.602574,348.047608 237.610212,348.083403 238.535351,347.88595 C239.527226,347.674253 240.329371,347.209954 240.90163,346.443282 C241.363772,345.822996 241.074832,344.239106 240.125054,342.084132 C239.841914,341.441709 239.508475,340.764609 239.135078,340.064929 C238.693378,339.237259 238.219479,338.421368 237.745604,337.653589 L237.394447,337.093919 L237.117308,336.667321 C236.944459,336.409187 237.013596,336.059807 237.271729,335.886958 Z" id="Stroke-31" fill="#965C56" fill-rule="nonzero"></path>
        <path d="M228.05805,351.80855 C228.05805,351.80855 237.12555,352.95605 243.62505,351.99605 C243.62505,351.99605 241.73055,358.45955 235.25355,357.60305 C229.50255,356.84255 228.05805,351.80855 228.05805,351.80855" id="Fill-33" fill="#FFFFFF"></path>
        <path d="M227.489975,351.971558 C227.551702,352.186673 227.683198,352.540282 227.899824,352.986845 C228.256835,353.722804 228.729784,354.457636 229.335138,355.144452 C230.761718,356.763007 232.691047,357.860335 235.176072,358.188949 C238.382679,358.612982 240.829164,357.422902 242.563825,355.20248 C243.080299,354.541377 243.493861,353.835618 243.815728,353.129483 C244.010342,352.702524 244.132615,352.365536 244.19219,352.162283 C244.313459,351.748547 243.965208,351.348395 243.538694,351.411393 C242.208905,351.607808 240.703605,351.724001 239.055738,351.76791 C236.477023,351.836621 233.707781,351.728025 230.977171,351.50474 C230.522417,351.467554 230.089622,351.428782 229.682244,351.389384 L228.13225,351.222226 C227.71121,351.168943 227.372919,351.563623 227.489975,351.971558 Z M229.12827,352.793126 L228.982,352.506 L229.567998,352.56585 C229.981216,352.605815 230.419972,352.645122 230.880839,352.682808 C233.650624,352.909296 236.460425,353.019483 239.087222,352.94949 L239.715092,352.929065 C240.543298,352.897115 241.335375,352.846203 242.087622,352.775133 L242.706,352.711 L242.74019,352.639236 C242.4547,353.265565 242.087462,353.89227 241.632372,354.4748 C240.139974,356.385116 238.090528,357.382059 235.331028,357.017151 C233.141156,356.727567 231.466625,355.775158 230.221869,354.362895 C229.779942,353.861499 229.417692,353.329534 229.12827,352.793126 Z" id="Stroke-35" fill="#7D4556" fill-rule="nonzero"></path>
        <path d="M241.175788,324.666407 C241.318164,324.372695 241.671682,324.250013 241.965393,324.392388 C244.871986,325.801347 248.496618,326.192811 252.212342,325.219489 C252.528089,325.13678 252.851102,325.325695 252.933811,325.641442 C253.01652,325.957189 252.827605,326.280202 252.511858,326.362911 C248.519445,327.408711 244.606243,326.986081 241.449807,325.456012 C241.156095,325.313636 241.033413,324.960118 241.175788,324.666407 Z" id="Stroke-37" fill="#7D4556" fill-rule="nonzero"></path>
        <path d="M234.691298,333.868853 C235.736621,333.729025 236.805139,333.669211 237.813664,333.735763 C238.478577,333.77964 239.089922,333.87778 239.637965,334.039145 L239.906666,334.125137 L239.453434,335.431763 C238.967916,335.26335 238.383551,335.159377 237.7226,335.115761 C236.817872,335.056059 235.836346,335.111004 234.874663,335.239644 L234.403519,335.30887 L233.983996,335.384724 L233.700104,334.031176 L233.976976,333.978927 L234.437443,333.904555 C234.519555,333.89243 234.604233,333.880499 234.691298,333.868853 Z" id="Stroke-39" fill="#7D4556" fill-rule="nonzero"></path>
        <path d="M249.006231,334.55965 C250.660636,334.579583 251.757616,335.448202 252.331494,336.818302 C252.620826,337.509064 252.735815,338.191101 252.755406,338.728024 L252.758435,338.922302 C252.753812,339.310254 252.440533,339.616121 252.058656,339.61155 C251.708601,339.60736 251.422417,339.34377 251.380671,339.005725 L251.374495,338.844955 C251.371319,338.74137 251.36014,338.592413 251.335502,338.412394 C251.285458,338.046747 251.19466,337.68395 251.055873,337.352606 C250.681062,336.457766 250.046476,335.955284 248.989573,335.94255 C247.89439,335.929361 247.185192,336.405323 246.721601,337.24954 C246.553382,337.555874 246.43137,337.890061 246.350198,338.224913 L246.303972,338.43745 C246.292215,338.499186 246.283929,338.551231 246.278575,338.591833 L246.272675,338.643933 C246.238801,339.024333 245.902966,339.305248 245.522567,339.271375 C245.142167,339.237501 244.861252,338.901666 244.895125,338.521267 C244.939945,338.017947 245.112318,337.306866 245.509353,336.583849 C246.204578,335.317819 247.363745,334.539871 249.006231,334.55965 Z" id="Stroke-41" fill="#7D4556" fill-rule="nonzero"></path>
        <path d="M225.397281,334.2754 C227.051767,334.295334 228.148739,335.164302 228.722586,336.534896 C229.011889,337.225877 229.126867,337.908131 229.146457,338.445215 L229.149485,338.63955 C229.144864,339.027501 228.831587,339.33337 228.449709,339.328851 C228.099655,339.324612 227.813469,339.061024 227.771721,338.722978 L227.765545,338.562162 C227.762369,338.458514 227.751188,338.309475 227.726547,338.12936 C227.676498,337.763521 227.585689,337.400533 227.446886,337.069012 C227.072045,336.173729 226.43745,335.671033 225.380623,335.6583 C224.285526,335.645112 223.576337,336.121282 223.112717,336.965926 C222.944476,337.272436 222.822448,337.606816 222.741265,337.941861 C222.7124,338.060988 222.692562,338.162239 222.679929,338.239701 L222.663727,338.361156 C222.629868,338.741557 222.294045,339.022486 221.913644,338.988627 C221.533243,338.954768 221.252314,338.618945 221.286173,338.238544 C221.330986,337.735068 221.503343,337.023738 221.900344,336.300463 C222.595541,335.033922 223.754715,334.25562 225.397281,334.2754 Z" id="Stroke-43" fill="#7D4556" fill-rule="nonzero"></path>
        <g id="分组" transform="translate(205.500000, 335.963000)">
            <line x1="9.85725" y1="1.4658" x2="0.15825" y2="1.3488" id="Fill-45" fill="#FFFFFF"></line>
            <line x1="9.85725" y1="1.4658" x2="0.15825" y2="1.3488" id="Stroke-47" stroke="#7D4556" stroke-width="1.383"></line>
        </g>
        <path d="M230.575081,323.946863 C230.867895,323.802651 231.222175,323.923117 231.366387,324.215931 C231.510599,324.508745 231.390133,324.863025 231.097319,325.007237 C229.892147,325.600788 228.462424,326.046673 226.853796,326.36458 C224.467305,326.836212 221.989127,326.987715 219.831375,326.953036 L219.109545,326.934029 C219.02782,326.930862 218.965764,326.92793 218.924614,326.925623 C218.598726,326.90735 218.349354,326.628352 218.367627,326.302464 C218.3859,325.976576 218.664898,325.727204 218.990786,325.745477 L219.33527,325.759126 C221.530512,325.826795 224.141866,325.695667 226.624634,325.205007 C228.138937,324.905741 229.472736,324.489772 230.575081,323.946863 Z" id="Stroke-48" fill="#7D4556" fill-rule="nonzero"></path>
        <path d="M235.22287,363.722227 C235.502352,363.714284 235.740003,363.911603 235.791172,364.177526 L235.802087,364.312967 L235.802784,364.351572 C235.807409,364.655468 235.803166,365.042394 235.783341,365.482272 C235.754052,366.132111 235.695489,366.773327 235.60031,367.37703 C235.353366,368.943359 234.906062,370.062756 234.112621,370.57781 C233.852047,370.746958 233.503689,370.672844 233.33454,370.412271 C233.184186,370.18065 233.226039,369.879668 233.420205,369.696844 L233.500079,369.63419 C233.937188,369.350445 234.289158,368.469627 234.489037,367.201828 C234.577066,366.643473 234.631945,366.042598 234.659482,365.43162 C234.674468,365.099098 234.680025,364.799174 234.679447,364.547835 L234.676577,364.30048 C234.667752,363.989945 234.912336,363.731052 235.22287,363.722227 Z" id="Stroke-50" fill="#965C56" fill-rule="nonzero"></path>
        <path d="M237.322103,365.500069 C237.632117,365.48005 237.899662,365.715138 237.919681,366.025153 L237.936622,366.377166 C237.965693,367.138676 237.96093,367.960807 237.898525,368.739257 C237.851311,369.328218 237.773323,369.849584 237.657877,370.288871 C237.578916,370.589329 237.271336,370.768888 236.970879,370.689927 C236.670421,370.610966 236.490862,370.303386 236.569823,370.002929 C236.66612,369.636504 236.734789,369.177439 236.777123,368.64936 C236.82086,368.103769 236.834339,367.52813 236.826734,366.970259 L236.812441,366.420082 C236.806569,366.26629 236.800758,366.155556 236.797019,366.097647 C236.777,365.787633 237.012088,365.520088 237.322103,365.500069 Z" id="Stroke-52" fill="#965C56" fill-rule="nonzero"></path>
        <path d="M232.803442,366.235699 C233.106398,366.304454 233.296256,366.605785 233.227501,366.908742 L233.185094,367.083942 C233.158444,367.189043 233.123677,367.319147 233.081038,367.468643 C232.962664,367.883681 232.82479,368.299181 232.667656,368.690306 C232.301285,369.602247 231.892642,370.251071 231.366424,370.558099 C231.098097,370.714657 230.75366,370.624051 230.597101,370.355724 C230.457939,370.117211 230.514066,369.818562 230.716712,369.645184 L230.799476,369.586401 C231.042268,369.444742 231.345757,368.962876 231.62375,368.270918 C231.764777,367.919885 231.890762,367.540215 231.999181,367.160083 L232.067141,366.913318 C232.096042,366.804183 232.117245,366.717717 232.130399,366.659758 C232.192278,366.387098 232.442545,366.206047 232.712834,366.222686 L232.803442,366.235699 Z" id="Stroke-54" fill="#965C56" fill-rule="nonzero"></path>
        <path d="M238.993782,364.949883 C239.266675,364.889034 239.53746,365.037655 239.638175,365.289031 L239.665217,365.376482 L240.404717,368.692982 C240.472327,368.996196 240.281332,369.296808 239.978118,369.364417 C239.705225,369.425266 239.43444,369.276645 239.333725,369.025269 L239.306683,368.937818 L238.567183,365.621318 C238.499573,365.318104 238.690568,365.017492 238.993782,364.949883 Z" id="Stroke-56" fill="#965C56" fill-rule="nonzero"></path>
        <path d="M218.955865,366.352506 C219.106414,366.080762 219.448751,365.982515 219.720494,366.133065 C220.148621,366.370253 220.582218,366.595215 221.02106,366.808167 C226.823762,369.623982 232.968798,370.197132 238.407262,369.491569 C238.726006,369.450217 239.017171,369.406725 239.278939,369.362785 L239.729854,369.281264 C239.81423,369.264746 239.875701,369.251762 239.913337,369.243179 C240.216221,369.174109 240.51775,369.363652 240.586821,369.666537 C240.655891,369.969421 240.466348,370.27095 240.163463,370.340021 L239.951069,370.384301 L239.732343,370.425564 C239.391216,370.487669 238.996354,370.549571 238.552001,370.607219 C232.914684,371.338581 226.558541,370.74574 220.529916,367.820295 C220.072895,367.598521 219.621276,367.364209 219.175306,367.117135 C218.903562,366.966586 218.805315,366.624249 218.955865,366.352506 Z" id="Stroke-58" fill="#965C56" fill-rule="nonzero"></path>
        <path d="M229.928296,347.733875 C230.038021,348.024512 229.891363,348.34907 229.600725,348.458796 L229.336995,348.56457 C229.192301,348.625065 229.012926,348.703269 228.806715,348.798094 C228.204186,349.075162 227.601966,349.391741 227.0429,349.740854 C225.320015,350.816722 224.438295,351.926419 224.696404,352.91783 C224.774674,353.218468 224.594409,353.525634 224.29377,353.603904 C223.993132,353.682174 223.685966,353.501909 223.607696,353.20127 C223.181085,351.562639 224.34269,350.10069 226.447023,348.786623 C227.050433,348.40982 227.693724,348.07165 228.336705,347.77598 C228.561645,347.672544 228.770803,347.581661 228.959071,347.503943 L229.203375,347.406304 C229.494012,347.296579 229.81857,347.443237 229.928296,347.733875 Z" id="Stroke-60" fill="#965C56" fill-rule="nonzero"></path>
        <path d="M202.84305,383.98445 L204.73905,378.51545 L241.61355,379.52195 L243.09555,384.69995 C243.09555,384.69995 269.28855,391.06445 274.35705,398.38445 C281.35155,408.48845 265.04205,470.63045 264.78405,484.54145 C271.05705,501.15845 263.03955,504.80945 263.03955,504.80945 L188.25405,503.91245 C188.25405,503.91245 179.69055,498.24095 187.02105,486.82295 C184.01805,466.39745 164.30205,401.55695 172.99605,394.44245 C186.21855,383.61995 202.84305,383.98445 202.84305,383.98445" id="Fill-62" fill="#ADC6FF"></path>
        <path d="M174.172511,402.063951 C174.317568,401.781297 174.664296,401.669754 174.946949,401.814811 C175.35688,402.025187 176.03675,402.497749 176.894142,403.301627 C178.29945,404.619221 179.698349,406.405744 180.998688,408.728611 C185.580851,416.913978 187.833264,429.497825 186.520012,447.418143 C186.515717,447.476741 186.502485,447.534159 186.480923,447.588447 L186.442407,447.667289 L171.238407,473.570789 C171.077588,473.844781 170.725103,473.936526 170.451111,473.775707 C170.204518,473.630969 170.105546,473.330984 170.205454,473.072694 L170.246193,472.988411 L185.381,447.201 L185.427571,446.556224 C186.587253,429.520102 184.45743,417.508652 180.190216,409.645173 L179.994784,409.290595 C178.752182,407.070868 177.426502,405.377852 176.10723,404.140924 C175.727053,403.784476 175.371357,403.489154 175.046585,403.249945 L174.855484,403.113112 C174.638362,402.962195 174.490023,402.873478 174.421651,402.838389 C174.138997,402.693332 174.027454,402.346604 174.172511,402.063951 Z" id="Stroke-64" fill="#597EF7" fill-rule="nonzero"></path>
        <path d="M271.46177,414.708167 C271.776425,414.664272 272.067088,414.883766 272.110983,415.19842 C273.083356,422.168678 273.00858,431.126647 272.066536,441.610503 C271.419741,448.80858 270.387045,456.471723 269.074515,464.316051 C268.326783,468.784871 267.530116,473.063553 266.729325,477.031698 L266.510859,478.10613 C266.357876,478.85287 266.210347,479.561021 266.06918,480.228141 L265.563337,482.569109 L265.384,483.369 L265.559579,483.835675 C265.606441,483.963785 265.65537,484.100237 265.706071,484.24467 C265.995039,485.06787 266.283741,485.983746 266.553168,486.969266 C267.311901,489.744594 267.773026,492.520146 267.787706,495.123337 C267.805015,498.192641 267.19487,500.825972 265.824854,502.88054 C265.648598,503.144866 265.291436,503.216261 265.02711,503.040004 C264.762784,502.863748 264.691389,502.506586 264.867646,502.24226 C266.093821,500.403406 266.653345,497.988544 266.637224,495.129825 C266.623183,492.639886 266.177768,489.958891 265.443392,487.272662 C265.181462,486.314563 264.900853,485.424363 264.620511,484.625735 L264.400267,484.016927 C264.337947,483.850529 264.287512,483.721648 264.251336,483.633226 C264.206316,483.523188 264.196497,483.401904 264.22323,483.286057 L264.541786,481.857941 C264.795776,480.69764 265.078862,479.363541 265.383768,477.875226 C266.255108,473.622023 267.126509,468.986753 267.93979,464.126186 C269.247816,456.30877 270.276717,448.67379 270.920653,441.507538 C271.855534,431.103391 271.929642,422.225501 270.971517,415.35738 C270.927622,415.042725 271.147116,414.752062 271.46177,414.708167 Z" id="Stroke-66" fill="#597EF7" fill-rule="nonzero"></path>
        <path d="M205.092998,385.106586 C205.178251,384.800537 205.495464,384.621545 205.801514,384.706798 C209.070954,385.617527 212.859653,386.219005 217.064373,386.544103 C223.370068,387.031643 230.126598,386.879042 236.631622,386.328597 L237.720235,386.232229 C238.42583,386.166947 239.090423,386.099838 239.709782,386.03238 L240.911387,385.894228 L241.456974,385.824968 C241.771767,385.782069 242.061733,386.002482 242.104632,386.317274 C242.147531,386.632067 241.927118,386.922033 241.612326,386.964932 L241.051103,387.036213 L240.295202,387.124937 C239.240866,387.244324 238.044481,387.363655 236.728629,387.475 C230.166871,388.030246 223.351846,388.184168 216.975684,387.69118 C212.701682,387.360725 208.841377,386.747879 205.492786,385.815102 C205.186737,385.729849 205.007745,385.412636 205.092998,385.106586 Z" id="Stroke-68" fill="#597EF7" fill-rule="nonzero"></path>
        <path d="M269.169,666.7103 C254.8485,630.1583 235.497,580.9523 222.7395,551.2868 C222.7395,551.2868 209.829,531.2783 191.5245,543.0023 C173.5845,554.4953 183.5505,578.9948 183.5505,578.9948 L235.3305,683.4998 C235.3305,683.4998 243.252,698.5508 260.0205,689.8598 C275.3175,681.9323 269.169,666.7103 269.169,666.7103" id="Fill-70" fill="#597EF7"></path>
        <path d="M277.3149,765.63635 L277.3149,765.63635 C269.8179,766.06535 264.6819,773.36735 266.8254,780.56285 C269.2929,788.84135 272.5689,800.04185 275.9334,812.14985 C279.3969,824.61185 282.2919,834.93185 283.5309,836.01635 C288.9879,840.79085 297.4374,840.89435 307.0359,844.53185 C314.6334,847.41035 316.3044,849.28385 324.8739,848.68385 C337.0224,847.83335 330.3429,844.32785 313.4304,832.14035 C298.3644,821.28335 297.4434,814.58885 297.4434,814.58885 L289.3809,774.93335 C288.2289,769.26635 283.0884,765.30635 277.3149,765.63635" id="Fill-72" fill="#CE998A"></path>
        <g id="分组" transform="translate(279.000000, 823.463000)">
            <mask id="mask-6" fill="white">
                <use xlink:href="#path-5"></use>
            </mask>
            <g id="Clip-75"></g>
            <path d="M32.3103,5.3052 C43.1013,12.4242 54.6078,17.2752 55.5273,21.7527 C56.4453,26.2302 54.0018,31.1262 38.2623,29.7702 C27.4923,28.8402 29.7618,25.9902 18.7548,22.3197 C13.2588,20.4882 11.6313,21.2637 6.3708,18.8352 C3.0543,16.2882 0.1278,0.4857 0.1278,0.4857 L21.3318,14.2572 C21.3318,14.2572 14.8488,6.9582 17.8968,4.2147 C20.9448,1.4727 23.8653,-0.6138 26.3343,0.3387 C28.8018,1.2927 32.3103,5.3052 32.3103,5.3052" id="Fill-74" fill="#7D4556" mask="url(#mask-6)"></path>
        </g>
        <path d="M268.97925,666.05555 C282.42975,732.67505 296.08575,802.41455 296.08575,802.41455 L271.84125,806.06255 L232.12875,676.24805 C232.12875,676.24805 228.68925,656.09855 247.03725,651.61505 C263.59275,647.56805 268.97925,666.05555 268.97925,666.05555" id="Fill-76" fill="#597EF7"></path>
        <path d="M180.87915,564.5045 C182.00415,539.7275 186.84765,518.543 189.68865,513.782 C250.76265,515.528 264.47715,516.224 264.47715,516.224 C264.47715,516.224 270.41415,535.7855 268.16265,562.8155 C268.16265,562.8155 249.10965,587.045 224.84565,587.045 C202.96815,587.045 180.87915,564.5045 180.87915,564.5045" id="Fill-78" fill="#597EF7"></path>
        <path d="M188.1888,515.28215 L189.3438,503.78915 L264.1293,504.68615 L264.4773,516.19715 C264.4773,516.19715 224.8983,517.72115 188.1888,515.28215" id="Fill-80" fill="#597EF7"></path>
        <path d="M237.627735,517.133133 C237.94437,517.107112 238.222147,517.342701 238.248167,517.659335 L238.531135,521.375212 L238.7615,524.652122 C238.934199,527.190953 239.104599,529.889082 239.266583,532.703975 C239.718964,540.565217 240.046684,548.302006 240.196381,555.543907 L240.239358,557.923492 C240.415797,569.404452 240.095871,578.630949 239.167824,584.86219 C239.121024,585.176426 238.828346,585.393225 238.51411,585.346424 C238.199874,585.299624 237.983075,585.006946 238.029876,584.69271 C239.009185,578.117274 239.305093,568.095741 239.046127,555.567684 C238.908242,548.897209 238.618887,541.803434 238.219971,534.57879 L237.995196,530.684566 C237.829633,527.934814 237.657196,525.312305 237.484002,522.859624 L237.219007,519.249105 L237.101533,517.753565 C237.075512,517.43693 237.311101,517.159153 237.627735,517.133133 Z" id="Stroke-82" fill="#1D39C4" fill-rule="nonzero"></path>
        <path d="M225.236819,517.133362 C225.553327,517.105842 225.832217,517.340112 225.859738,517.656619 L226.026013,519.725775 L226.166928,521.631079 C226.27702,523.171783 226.385724,524.820427 226.488899,526.551267 C226.81182,531.968499 227.03048,537.332487 227.097047,542.346881 L227.116119,544.498621 C227.139105,549.898219 226.963173,554.527901 226.55444,558.188517 L226.506,558.596 L226.531822,558.868444 C226.89125,562.255985 228.610055,564.235779 231.313254,565.16101 L231.569552,565.244671 C233.150772,565.736403 234.842171,565.825937 236.352479,565.682152 L236.590498,565.657028 C236.692554,565.645052 236.768601,565.634318 236.816037,565.626451 C237.129459,565.574474 237.425672,565.786416 237.477649,566.099837 C237.529626,566.413259 237.317684,566.709472 237.004263,566.761449 L236.841109,566.785221 C236.740992,566.798355 236.613624,566.812993 236.461516,566.827474 C234.812427,566.98447 232.977391,566.887333 231.227906,566.343274 C227.951435,565.32435 225.803665,562.955019 225.385971,558.972766 L225.35518,558.637173 L225.357496,558.523424 C225.85393,554.385736 226.033254,548.886077 225.946648,542.362153 C225.880343,537.367426 225.662379,532.020524 225.340438,526.619726 L225.182482,524.095292 C225.093008,522.730584 225.001144,521.431788 224.909285,520.213835 L224.713562,517.756281 C224.686042,517.439773 224.920312,517.160883 225.236819,517.133362 Z" id="Stroke-84" fill="#1D39C4" fill-rule="nonzero"></path>
        <path d="M194.871696,517.484149 C195.189358,517.489245 195.442802,517.750834 195.437851,518.068496 L195.424086,518.498186 C195.418142,518.638795 195.410115,518.803582 195.399573,518.990946 C195.358769,519.716144 195.293255,520.523368 195.197493,521.39234 C194.923701,523.876805 194.462123,526.362252 193.766793,528.687949 C192.124483,534.181038 189.444766,537.954516 185.456405,539.162935 C185.152352,539.255059 184.831189,539.083257 184.739065,538.779205 C184.646941,538.475152 184.818743,538.153989 185.122795,538.061865 C188.655925,536.991375 191.12144,533.519528 192.664504,528.35839 C193.337861,526.106188 193.787181,523.686743 194.053916,521.266316 C194.128654,520.588123 194.184473,519.948891 194.224132,519.359163 L194.268064,518.595745 C194.279867,518.346033 194.28566,518.161725 194.287422,518.050304 C194.292445,517.732642 194.554034,517.479198 194.871696,517.484149 Z" id="Stroke-86" fill="#1D39C4" fill-rule="nonzero"></path>
        <path d="M257.789876,518.8142 C258.075799,518.816316 258.311468,519.026667 258.354041,519.300314 L258.360884,519.393676 L258.365503,520.02232 C258.377711,520.728783 258.414233,521.657467 258.489125,522.745482 C258.648917,525.066894 258.940815,527.377701 259.396312,529.5302 C260.540195,534.935744 262.516012,538.434641 265.397024,539.181612 C265.704557,539.261347 265.889224,539.57529 265.809488,539.882824 C265.729753,540.190357 265.41581,540.375024 265.108276,540.295288 C261.663649,539.402186 259.497721,535.56663 258.270738,529.768386 C257.802942,527.557765 257.504552,525.195568 257.341341,522.824488 L257.281815,521.853274 C257.237919,521.033172 257.217102,520.332476 257.211652,519.784842 L257.210416,519.385224 C257.212749,519.067531 257.472182,518.811882 257.789876,518.8142 Z" id="Stroke-88" fill="#1D39C4" fill-rule="nonzero"></path>
        <path d="M342.04425,506.195 L249.41175,501.9785 C245.88825,501.818 243.52875,498.293 244.72425,494.9765 L267.82875,430.7945 C268.60575,428.6345 270.69975,427.2335 272.99175,427.3385 L365.62575,431.555 C369.14775,431.7155 371.50725,435.2405 370.31325,438.5585 L347.20725,502.739 C346.43025,504.8975 344.33625,506.2985 342.04425,506.195" id="Fill-90" fill="#597EF7"></path>
        <path d="M345.88215,506.195 L253.24965,501.9785 C249.72765,501.818 247.36815,498.293 248.56215,494.9765 L271.66665,430.7945 C272.44515,428.6345 274.53765,427.2335 276.82965,427.3385 L369.46365,431.555 C372.98565,431.7155 375.34515,435.2405 374.15115,438.5585 L351.04515,502.739 C350.26815,504.8975 348.17565,506.2985 345.88215,506.195" id="Fill-92" fill="#2A3049"></path>
        <path d="M184.8885,477.49205 C184.8885,477.49205 180.4425,498.01355 161.712,493.62455 C142.6125,489.14855 147.9225,468.55805 147.9225,468.55805 C147.9225,468.55805 150.804,454.19555 154.8525,436.92605 C158.0145,423.43055 160.389,413.06405 163.236,404.62205 C166.3065,395.51105 175.2735,389.65805 184.0455,391.71305 C197.379,394.83905 200.988,404.21405 199.2315,413.61755 C197.5215,422.76005 194.8365,435.02405 192.729,445.06055 C188.676,464.35655 184.8885,477.49205 184.8885,477.49205" id="Fill-94" fill="#ADC6FF"></path>
        <path d="M195.166234,427.388772 L195.259097,427.400585 C195.570015,427.465891 195.769122,427.77088 195.703815,428.081797 C194.108887,435.675121 192.545391,443.624104 191.065495,451.528806 L190.575363,454.161518 C190.234532,456.002539 189.913278,457.759709 189.613531,459.418222 L188.689873,464.600804 L188.485267,465.775607 C188.431388,466.088706 188.133893,466.298846 187.820793,466.244967 C187.507694,466.191088 187.297554,465.893593 187.351433,465.580493 L187.910538,462.398 C188.361356,459.861398 188.875514,457.02326 189.444087,453.952082 C191.068614,445.177102 192.803652,436.292277 194.577885,427.845303 C194.63666,427.565477 194.889579,427.376218 195.166234,427.388772 Z" id="Stroke-96" fill="#597EF7" fill-rule="nonzero"></path>
        <path d="M263.28465,508.3058 C263.28465,508.3058 245.02515,508.2428 241.36515,500.4833 C238.05015,493.4558 246.44415,488.0108 246.44415,488.0108 C246.44415,488.0108 253.49115,484.5023 262.10565,482.7878 C267.75015,481.6643 278.16165,477.9293 279.51315,480.6638 C281.27565,484.2293 270.00615,486.3113 269.41215,489.1433 C268.20615,494.8823 286.28115,493.4723 289.33515,494.8178 C295.30215,497.4458 285.18615,508.5488 263.28465,508.3058" id="Fill-98" fill="#CE998A"></path>
        <path d="M271.242761,497.471804 C271.322011,497.171423 271.629764,496.992161 271.930146,497.071411 L272.263443,497.153005 C272.375361,497.179102 272.508289,497.209166 272.661252,497.2425 C273.260055,497.372993 273.943271,497.503687 274.698469,497.625772 C278.935252,498.310693 283.377999,498.436495 287.518188,497.652741 C287.98809,497.563787 288.450448,497.463365 288.904838,497.351194 C289.206444,497.276739 289.511302,497.460882 289.585756,497.762488 C289.660211,498.064094 289.476068,498.368952 289.174462,498.443406 C288.699818,498.560577 288.217337,498.66537 287.727439,498.75811 C283.440327,499.569676 278.873838,499.44037 274.518932,498.736354 C273.898196,498.636006 273.324033,498.529851 272.802704,498.422432 L272.128915,498.276486 C271.907773,498.226066 271.744364,498.185891 271.643154,498.159189 C271.342773,498.079939 271.163511,497.772186 271.242761,497.471804 Z" id="Stroke-100" fill="#965C56" fill-rule="nonzero"></path>
        <path d="M286.701849,501.334766 C286.999881,501.247091 287.312558,501.417618 287.400234,501.715649 C287.487909,502.013681 287.317382,502.326358 287.019351,502.414034 L286.769514,502.481561 C286.661206,502.509169 286.528045,502.541553 286.37055,502.577739 C285.852039,502.696874 285.244577,502.815641 284.552338,502.92625 C280.321709,503.60224 275.208635,503.673038 269.422921,502.749366 C269.116146,502.70039 268.907158,502.411997 268.956134,502.105221 C269.00511,501.798446 269.293503,501.589458 269.600279,501.638434 C275.262871,502.542451 280.257065,502.473299 284.374832,501.815342 C284.908371,501.730091 285.387985,501.640132 285.811524,501.549421 L286.118631,501.481308 C286.411273,501.41407 286.607082,501.362645 286.701849,501.334766 Z" id="Stroke-102" fill="#965C56" fill-rule="nonzero"></path>
        <path d="M266.300339,505.129476 L266.584559,505.185458 L266.697875,505.205506 C267.042373,505.265198 267.455701,505.325165 267.937195,505.381318 C270.818079,505.717293 274.536394,505.762903 279.061706,505.329364 C279.370951,505.299737 279.64566,505.526412 279.675286,505.835656 C279.704913,506.144901 279.478238,506.41961 279.168994,506.449236 C274.563862,506.890422 270.76593,506.843836 267.806878,506.498745 C267.30463,506.440171 266.870711,506.377217 266.505804,506.313989 L266.049361,506.226124 C265.74653,506.156818 265.557221,505.855142 265.626526,505.552311 C265.688901,505.279763 265.939497,505.099168 266.209755,505.116298 L266.300339,505.129476 Z" id="Stroke-104" fill="#965C56" fill-rule="nonzero"></path>
        <path d="M170.56965,462.7514 C170.56965,462.7514 149.18865,460.0514 146.34915,477.8459 C143.41965,496.1969 163.81215,499.7369 163.81215,499.7369 C163.81215,499.7369 178.22265,501.8729 195.97065,504.5834 C206.80665,506.2394 218.80815,507.8264 227.68665,507.7304 C237.30015,507.6254 239.06115,502.5599 240.48165,493.6619 C242.16765,483.0959 241.78815,478.5584 232.65015,475.7324 C223.93815,473.0384 211.82715,470.9624 202.51515,468.9284 C184.76115,465.0494 170.56965,462.7514 170.56965,462.7514" id="Fill-106" fill="#ADC6FF"></path>
        <polygon id="Fill-108" fill="#ADC6FF" points="245.82885 504.8216 249.11235 484.2461 235.44735 480.5456 231.68985 504.0836"></polygon>
        <path d="M171.304042,463.073645 L173.804484,463.494191 L176.349575,463.937579 C177.463306,464.134296 178.642249,464.345884 179.881215,464.571994 L180.631756,464.709399 C186.737037,465.83062 193.161177,467.093297 199.703129,468.483902 L205.63095,469.752418 C209.778754,470.617524 216.807925,472.045875 217.043924,472.092551 L219.725616,472.655839 C225.525654,473.893013 229.793856,474.939889 233.463907,476.074384 C237.97485,477.468067 240.49996,479.321516 241.669321,482.155052 L241.755,482.374 L249.905439,484.581243 C250.15778,484.649565 250.328188,484.877299 250.33039,485.131041 L250.323162,485.227153 L247.039662,505.802653 C246.998465,506.060807 246.790081,506.254386 246.538007,506.28347 L246.441673,506.286471 L237.736,505.832 C235.781138,507.993535 232.933835,509.076754 228.757409,509.187844 L228.33532,509.195716 C220.923442,509.275858 211.407989,508.279102 198.136915,506.286094 L181.879273,503.818962 L164.370255,501.196033 C164.055987,501.14945 163.838985,500.856923 163.885567,500.542655 C163.93215,500.228387 164.224677,500.011385 164.538945,500.057967 L173.963649,501.464922 L188.273583,503.622582 L198.303776,505.147747 C211.518569,507.132323 220.989173,508.12458 228.322844,508.045284 C232.564609,507.999147 235.268445,506.968435 237.049681,504.871573 C237.142555,504.762243 237.271966,504.692562 237.4117,504.67384 L237.518027,504.669529 L245.985,505.11 L249.105,485.556 L241.167261,483.407257 C241.01367,483.365672 240.885616,483.262834 240.811348,483.125187 L240.773467,483.038632 C239.838675,480.313214 237.581449,478.550682 233.124209,477.173591 L232.306731,476.925354 C228.441503,475.772219 223.84712,474.685986 217.492027,473.360637 L203.880877,470.56036 C203.551083,470.490372 203.266022,470.429205 203.036358,470.379003 C195.872657,468.81444 188.804691,467.398776 182.094018,466.14975 L180.423944,465.840976 C178.911328,465.563187 177.483603,465.30619 176.149744,465.070592 L172.935789,464.51292 L171.120158,464.209355 C170.806541,464.158577 170.593467,463.863176 170.644245,463.549558 C170.689945,463.267302 170.93379,463.066164 171.210729,463.066164 L171.304042,463.073645 Z" id="Stroke-110" fill="#597EF7" fill-rule="nonzero"></path>
        <path d="M352.2879,483.2387 C352.2879,483.2387 362.6049,479.3567 364.9284,480.6737 C368.5284,482.7137 362.7714,488.9087 362.7714,488.9087 C362.7714,488.9087 365.0649,492.4412 361.3134,495.2297 C361.0884,499.4282 358.3374,500.2877 358.3374,500.2877 C358.3374,500.2877 359.2404,503.9462 355.2789,504.8642 C351.3174,505.7807 344.8074,502.1627 347.8824,497.8907 C346.3044,494.0822 349.6899,492.4652 349.6899,492.4652 C349.6899,492.4652 348.8034,489.1097 352.1304,487.6157 C350.6394,485.6237 351.2154,483.6542 352.2879,483.2387" id="Fill-112" fill="#CE998A"></path>
        <path d="M361.122025,486.021688 C361.430676,485.986411 361.709484,486.208024 361.744762,486.516675 C361.776511,486.79446 361.60018,487.048074 361.339589,487.121736 L361.249775,487.139412 L352.194275,488.174412 C351.885624,488.209689 351.606816,487.988076 351.571538,487.679425 C351.539789,487.40164 351.71612,487.148026 351.976711,487.074364 L352.066525,487.056688 L361.122025,486.021688 Z" id="Stroke-114" fill="#965C56" fill-rule="nonzero"></path>
        <path d="M364.501898,480.307055 C364.704639,480.071671 365.05981,480.045208 365.295195,480.247948 C366.424527,481.220661 366.797504,482.48922 366.521725,483.917167 C366.306613,485.030992 365.713726,486.188789 364.862333,487.351807 C364.490656,487.859524 364.093488,488.334717 363.696113,488.765237 L363.429,489.047 L363.502535,489.264095 L363.585182,489.538677 C363.885002,490.596516 363.984286,491.693052 363.756912,492.738633 C363.526253,493.799316 362.971497,494.70934 362.054986,495.404778 L361.87,495.537 L361.870906,495.556318 C361.815339,497.38139 361.270009,498.739754 360.373927,499.677588 L360.212182,499.838733 C359.743998,500.282756 359.271222,500.559469 358.868369,500.713734 L358.748,500.755 L357.411167,503.877118 C357.301084,504.13413 357.022247,504.267029 356.759401,504.201873 L356.672632,504.172717 C356.41562,504.062634 356.282721,503.783797 356.347877,503.520951 L356.377033,503.434182 L357.820033,500.065182 C357.880683,499.923583 357.996081,499.814347 358.137712,499.760666 L358.32179,499.708565 C358.384979,499.687988 358.469693,499.656075 358.57087,499.61045 C358.86452,499.478032 359.160479,499.285681 359.438027,499.022455 C360.25544,498.247224 360.753024,497.029745 360.750601,495.230908 C360.750336,495.034574 360.85246,494.852309 361.020043,494.750021 C361.937311,494.190146 362.455143,493.430596 362.657605,492.499575 C362.839906,491.661263 362.756555,490.740703 362.502816,489.845448 C362.408687,489.513339 362.316029,489.267881 362.258642,489.141084 C362.159565,488.922173 362.210484,488.664499 362.38538,488.499728 L362.666508,488.218006 C362.727857,488.15406 362.795817,488.081956 362.869433,488.002201 C363.239567,487.601193 363.609908,487.158097 363.954574,486.687278 C364.716553,485.646401 365.239015,484.626131 365.417137,483.703839 C365.62003,482.653283 365.367741,481.795207 364.561005,481.100352 C364.325621,480.897611 364.299158,480.54244 364.501898,480.307055 Z" id="Stroke-116" fill="#965C56" fill-rule="nonzero"></path>
        <path d="M349.767234,491.907162 L357.586734,492.994662 C357.894433,493.037456 358.109181,493.321585 358.066388,493.629284 C358.027874,493.906213 357.793877,494.107852 357.523151,494.114214 L357.431766,494.108938 L349.612266,493.021438 C349.304567,492.978644 349.089819,492.694515 349.132612,492.386816 C349.171126,492.109887 349.405123,491.908248 349.675849,491.901886 L349.767234,491.907162 Z" id="Stroke-118" fill="#965C56" fill-rule="nonzero"></path>
        <path d="M348.01179,497.344176 L355.25529,499.064676 C355.557541,499.136468 355.744366,499.439689 355.672574,499.74194 C355.607961,500.013966 355.355891,500.192496 355.085782,500.173146 L354.99531,500.159224 L347.75181,498.438724 C347.449559,498.366932 347.262734,498.063711 347.334526,497.76146 C347.399139,497.489434 347.651209,497.310904 347.921318,497.330254 L348.01179,497.344176 Z" id="Stroke-120" fill="#965C56" fill-rule="nonzero"></path>
        <path d="M188.775555,515.127259 L264.486555,516.207259 C264.804224,516.21179 265.058073,516.472985 265.053601,516.790655 C265.049463,517.076558 264.837487,517.310765 264.563551,517.351444 L264.470145,517.357641 L188.759145,516.277641 C188.441476,516.27311 188.187627,516.011915 188.192099,515.694245 C188.196237,515.408342 188.408213,515.174135 188.682149,515.133456 L188.775555,515.127259 Z" id="Stroke-122" fill="#1D39C4" fill-rule="nonzero"></path>
    </g>
</svg>