<svg xmlns="http://www.w3.org/2000/svg" xmlns:xlink="http://www.w3.org/1999/xlink" width="512" height="1024" version="1.1" viewBox="0 0 512 1024"><title>2.人物组件/1.商人/起身/打招呼</title><desc>Created with Sketch.</desc><defs><polygon id="path-1" points="1.448 1.261 98.012 1.261 98.012 42 1.448 42"/></defs><g id="2.人物组件/1.商人/起身/打招呼" fill="none" fill-rule="evenodd" stroke="none" stroke-width="1"><path id="Fill-1" fill="#B69882" d="M457.63255,393.3185 C457.63255,393.3185 446.48755,423.0275 431.66455,423.53 C418.23655,423.986 414.24805,408.491 414.24805,408.491 C414.24805,408.491 412.63555,396.1385 414.87205,382.628 C416.33905,373.7735 416.32255,356.417 421.58305,356.15 C428.44255,355.8035 425.25355,373.3805 429.53455,375.9875 C438.20905,381.2705 446.47855,354.2705 450.46255,350.687 C458.24905,343.682 473.04955,361.9685 457.63255,393.3185"/><path id="Stroke-3" fill="#7C5B4D" fill-rule="nonzero" d="M453.470638,353.24294 C454.722378,351.125573 456.187701,350.031815 457.85524,350.762828 C458.139762,350.887556 458.2693,351.219319 458.144572,351.50384 C458.019844,351.788362 457.688081,351.9179 457.40356,351.793172 C456.451044,351.37561 455.431593,352.136557 454.439067,353.815453 C454.140153,354.321077 453.871526,354.86622 453.638518,355.411709 C453.498979,355.73838 453.40313,355.990421 453.336595,356.176299 L453.019401,356.892934 C451.072674,361.342006 447.24423,370.886809 446.484652,372.430313 C445.572692,374.283468 444.700083,375.590876 443.658263,376.600031 C443.435123,376.816175 443.079013,376.810503 442.862869,376.587363 C442.646725,376.364223 442.652397,376.008113 442.875537,375.791969 C443.744359,374.950387 444.500053,373.851018 445.291831,372.299688 L445.475257,371.933577 C446.255549,370.34798 450.481731,359.790248 452.29168,355.76248 L452.412358,355.437404 C452.464542,355.303739 452.528545,355.146316 452.60395,354.969788 C452.854855,354.382401 453.144469,353.794668 453.470638,353.24294 Z"/><path id="Stroke-5" fill="#7C5B4D" fill-rule="nonzero" d="M457.18901,358.230263 C458.646999,356.860062 460.199959,356.267927 461.712467,357.01908 C462.41145,357.366215 463.04456,357.993134 463.609248,358.910678 C463.772073,359.175249 463.689592,359.521722 463.425022,359.684548 C463.160451,359.847373 462.813978,359.764892 462.651152,359.500322 C462.189979,358.750974 461.706481,358.272204 461.212071,358.026666 C460.231306,357.539591 459.112929,357.966022 457.959442,359.050056 C457.659294,359.332131 457.383002,359.636014 457.138227,359.939719 L456.985247,360.134734 L456.891,360.261 L456.64738,361.080723 C456.591012,361.265161 456.530063,361.46173 456.464547,361.669905 C456.090694,362.857815 455.645149,364.180798 455.128787,365.605223 C453.653276,369.675529 451.905249,373.746262 449.890556,377.549192 C448.724,379.751181 447.498682,381.800985 446.214812,383.669544 C446.038885,383.92559 445.688702,383.990539 445.432656,383.814612 C445.17661,383.638685 445.111661,383.288502 445.287588,383.032456 C446.545715,381.201364 447.749144,379.188178 448.896444,377.022538 C450.88426,373.27034 452.612239,369.246292 454.071136,365.221818 C454.581816,363.813069 455.022254,362.505249 455.391436,361.332181 L455.65103,360.489664 L455.833874,359.8659 L455.909886,359.701685 L456.014757,359.553968 C456.0795,359.465941 456.162427,359.357678 456.262304,359.233756 C456.537693,358.892067 456.848197,358.550556 457.18901,358.230263 Z"/><path id="Stroke-7" fill="#7C5B4D" fill-rule="nonzero" d="M458.57228,369.139106 C459.842395,366.789454 461.65474,365.737922 463.917975,366.980584 C464.190288,367.130101 464.289833,367.472062 464.140316,367.744375 C463.990799,368.016688 463.648838,368.116233 463.376525,367.966716 C461.791035,367.09618 460.573613,367.802534 459.561944,369.674074 C459.297357,370.163547 459.074098,370.692145 458.89234,371.221181 L458.796266,371.512746 C458.740506,371.69003 458.700991,371.832263 458.675737,371.934226 C457.53039,375.955719 455.931783,379.955326 453.995434,383.86142 C452.553925,386.769302 451.00966,389.458126 449.46493,391.86345 L448.93703,392.674022 C448.594245,393.192833 448.270385,393.668104 447.969236,394.097436 L447.620045,394.588813 C447.523887,394.722023 447.448501,394.824313 447.395483,394.89467 C447.307392,395.011572 447.1772,395.08953 447.032557,395.111989 L446.783374,395.155975 C446.674627,395.176651 446.540841,395.203499 446.38396,395.236999 C445.856213,395.349693 445.266928,395.496657 444.631689,395.681654 C442.816547,396.210267 441.001836,396.936125 439.312365,397.887511 C434.28523,400.718426 431.409678,404.891798 431.710006,410.725731 C431.725978,411.03598 431.487418,411.300435 431.177169,411.316406 C430.86692,411.332378 430.602465,411.093818 430.586494,410.783569 C430.261643,404.473272 433.391751,399.930456 438.760354,396.907251 C440.53146,395.909894 442.42451,395.152702 444.317129,394.601525 C444.979606,394.408596 445.595344,394.255035 446.149027,394.136803 L446.627,394.04 L447.048222,393.451404 L447.507934,392.785646 C447.825148,392.319336 448.163209,391.808488 448.518327,391.255529 C450.041663,388.883518 451.565467,386.230321 452.987486,383.361755 C454.895009,379.513809 456.468508,375.577021 457.588417,371.646261 L457.641687,371.446429 C457.685988,371.290175 457.747985,371.089653 457.828382,370.855644 C458.028875,370.272074 458.275537,369.688065 458.57228,369.139106 Z"/><path id="Stroke-9" fill="#7C5B4D" fill-rule="nonzero" d="M429.208673,375.528287 C429.462124,375.348641 429.813217,375.408472 429.992863,375.661923 L430.067526,375.769978 L430.181676,375.940666 C430.327481,376.161571 430.489457,376.417361 430.663555,376.705324 C431.159622,377.525829 431.655233,378.442 432.117947,379.432389 C433.561419,382.52198 434.375717,385.634222 434.228506,388.56586 C434.118626,390.754049 433.467108,392.747675 432.203003,394.487355 C432.020387,394.738674 431.668614,394.794369 431.417295,394.611753 C431.165976,394.429137 431.110281,394.077364 431.292897,393.826045 C432.422874,392.270952 433.005573,390.487914 433.104921,388.509439 C433.241469,385.790164 432.471239,382.846348 431.098702,379.908585 C430.653877,378.956487 430.177125,378.075179 429.700829,377.287375 L429.461133,376.899069 C429.422875,376.838428 429.385507,376.779855 429.34909,376.723394 L429.139138,376.405368 C429.111015,376.363933 429.089479,376.332853 429.075037,376.312477 C428.895391,376.059026 428.955222,375.707933 429.208673,375.528287 Z"/><path id="Fill-11" fill="#E4EBF7" d="M380.6932,511.9424 L380.6932,511.9424 C367.1692,523.3064 347.1007,522.0269 335.1307,509.0384 L291.4222,461.6129 C278.8642,447.9869 279.9622,426.7004 293.8537,414.4394 L296.0677,412.4849 C309.9877,400.1969 331.2952,401.7854 343.2397,416.0009 L384.7342,465.3794 C396.4762,479.3534 394.6672,500.2004 380.6932,511.9424"/><path id="Fill-13" fill="#E4EBF7" d="M416.14375,401.65055 L438.67825,419.55755 C444.55225,424.22555 445.71025,432.69155 441.30325,438.76355 L388.70875,511.24505 C377.60725,525.21605 357.28375,527.54255 343.31275,516.44105 C329.34325,505.33955 327.01675,485.01605 338.11675,471.04655 L396.84175,403.43255 C401.76175,397.76855 410.26975,396.98255 416.14375,401.65055"/><path id="Fill-15" fill="#E4EBF7" d="M231.4666,743.68055 L206.6671,761.82455 C206.6671,761.82455 212.9101,774.20855 222.3016,782.88155 C238.3651,797.71805 230.4361,796.99205 245.7046,817.98305 C259.1551,836.47505 277.3141,840.36005 274.3951,829.63955 C265.9906,798.78455 266.6776,781.11905 266.6776,781.11905 C266.6776,781.11905 285.8716,750.52205 279.0226,737.52755 C268.2646,717.11255 231.4666,743.68055 231.4666,743.68055"/><path id="Fill-17" fill="#B0BEDC" d="M272.00755,827.75825 C272.00755,827.75825 269.54605,829.96025 256.99555,823.58375 C242.37505,816.15575 233.48755,793.24175 227.34055,780.68075 C217.87105,761.33375 213.60055,762.62825 213.24205,757.79675 C206.75305,758.80175 205.07155,765.14525 205.07155,765.14525 C205.07155,765.14525 206.22055,770.04575 216.74005,781.80875 C227.25805,793.56875 223.93855,796.22975 235.21105,812.59025 C251.09305,835.63775 266.10055,840.88925 271.06855,837.90125 C277.32055,834.14225 276.11905,828.36575 272.00755,827.75825"/><path id="Fill-19" fill="#4E5C93" d="M378.64675,713.90915 L378.64675,713.90915 C392.55775,698.30765 391.79725,674.54015 376.91575,659.86115 L317.93275,601.68215 C300.41425,584.39915 271.99225,585.30515 255.60925,603.66815 C239.32225,621.92315 241.51075,650.06465 260.42425,665.58215 L324.47275,718.13015 C340.74025,731.47865 364.64275,729.61565 378.64675,713.90915"/><path id="Fill-21" fill="#4E5C93" d="M380.3401,667.7798 C367.4986,649.6283 342.0541,645.9848 324.6391,659.8073 C291.1906,686.3588 243.5821,724.1708 243.5821,724.1708 C243.5821,724.1708 243.5821,724.1708 243.5806,724.1708 C234.3496,723.9068 220.8571,739.5908 232.6111,747.4193 C254.1136,761.7413 259.9531,783.2393 269.9251,786.4448 C279.8956,789.6503 286.0876,776.1278 286.0906,776.1233 C286.0906,776.1233 334.6576,744.9743 369.4936,722.8433 C388.1866,710.9678 393.1306,685.8608 380.3401,667.7798 Z"/><path id="Fill-23" fill="#E4EBF7" d="M182.78545,825.9419 L171.89995,854.6774 C171.89995,854.6774 183.88795,861.6509 196.48945,863.7959 C218.04745,867.4664 211.00345,871.1834 235.25395,880.4474 C256.61395,888.6059 273.95245,881.9564 265.65745,874.5659 C241.78045,853.2899 232.71895,838.1114 232.71895,838.1114 C232.71895,838.1114 232.11445,801.9959 219.28645,794.8409 C199.13245,783.5999 182.78545,825.9419 182.78545,825.9419"/><g id="分组" transform="translate(170.500000, 846.453500)"><mask id="mask-2" fill="#fff"><use xlink:href="#path-1"/></mask><path id="Fill-25" fill="#B0BEDC" d="M92.1297,27.83625 C92.1297,27.83625 91.2687,31.02375 77.2722,32.52675 C60.9672,34.27725 41.0172,19.92225 29.0127,12.74925 C10.5222,1.70025 7.6482,5.11425 4.7142,1.26075 C-0.1773,5.64375 1.8747,11.87625 1.8747,11.87625 C1.8747,11.87625 5.5107,15.35775 20.7432,19.47675 C35.9742,23.59425 34.6452,27.63675 53.0172,35.19825 C78.9012,45.84975 94.3437,42.06375 96.8772,36.84975 C100.0662,30.28875 95.9082,26.10225 92.1297,27.83625" mask="url(#mask-2)"/></g><path id="Fill-27" fill="#4E5C93" d="M231.52375,736.75625 L231.52375,736.75625 C251.68075,731.22125 263.95825,710.85575 259.44475,690.44675 L241.55725,609.55325 C236.24275,585.52325 211.89475,570.83825 188.16175,577.34825 C164.56825,583.81925 151.11175,608.63075 158.55325,631.93475 L183.75475,710.85575 C190.15675,730.90175 211.23175,742.32875 231.52375,736.75625"/><path id="Fill-29" fill="#4E5C93" d="M226.83175,669.0365 C204.80125,666.0275 184.76725,682.133 182.98075,704.294 C179.54725,746.861 174.67525,807.464 174.67525,807.464 C174.67525,807.464 174.67525,807.464 174.67375,807.464 C168.17725,814.031 170.42575,834.596 184.17175,831.3515 C209.31625,825.4175 229.01275,835.826 238.16275,830.7275 C247.31125,825.6305 241.65775,811.8755 241.65625,811.8695 C241.65625,811.8695 252.05125,755.117 259.66375,714.5525 C263.74675,692.786 248.77675,672.0335 226.83175,669.0365"/><path id="Fill-31" fill="#4E5C93" d="M310.28545,552.5705 C310.28545,552.5705 323.80195,595.649 321.26695,614.2325 C318.73345,632.816 268.05295,658.1555 239.33245,658.1555 C223.91995,658.1555 166.31995,646.6235 157.39945,625.214 C144.72895,594.8045 154.53595,576.215 158.89345,564.0395 C162.03595,555.2615 166.69195,546.236 166.69195,546.236 C166.69195,546.236 297.61645,552.5705 310.28545,552.5705"/><path id="Stroke-33" fill="#3B4A7A" fill-rule="nonzero" d="M303.693715,616.449431 C303.868882,616.074079 304.315166,615.911797 304.690519,616.086965 C305.065871,616.262132 305.228153,616.708416 305.052985,617.083769 L304.879197,617.432071 L304.811877,617.560894 C304.614817,617.934856 304.372858,618.366767 304.083868,618.851783 C303.26274,620.229891 302.227934,621.762208 300.962392,623.409936 C297.356293,628.105054 292.62303,632.795373 286.627225,637.169288 C277.390525,643.907422 266.005001,649.266166 252.256322,652.742607 L252.081,652.785 L252.552059,654.558541 C252.813575,655.554591 253.094967,656.642642 253.392264,657.811678 C254.524721,662.264741 255.657153,666.979998 256.714238,671.74878 C257.4282,674.969645 258.082697,678.104498 258.665344,681.119139 L258.910615,682.403668 C261.183871,694.45885 262.10401,703.578925 261.236584,708.699533 L256.026992,737.095959 L242.393276,812.004136 C242.31925,812.411681 241.928859,812.682052 241.521314,812.608026 C241.113769,812.534 240.843398,812.143609 240.917424,811.736064 L259.71319,708.698413 C260.616011,703.882301 259.715819,694.768463 257.436593,682.681625 C256.797582,679.292918 256.062471,675.739633 255.249786,672.073402 C254.313354,667.848916 253.31734,663.665535 252.314724,659.670427 L251.647682,657.043626 C251.457507,656.303647 251.274986,655.601252 251.101298,654.939713 L250.434608,652.441646 C250.322795,652.034345 250.569212,651.615086 250.97946,651.514624 C264.950642,648.093348 276.458957,642.730287 285.743206,635.957467 C291.620108,631.670292 296.251547,627.080871 299.772779,622.49625 C301.001804,620.896069 302.003709,619.412471 302.795268,618.083988 L303.103723,617.555096 C303.199224,617.387521 303.287454,617.22877 303.368546,617.079152 L303.638157,616.563716 C303.662829,616.514224 303.681303,616.476027 303.693715,616.449431 Z"/><path id="Stroke-35" fill="#3B4A7A" fill-rule="nonzero" d="M256.869895,583.187763 C257.274078,583.097158 257.675182,583.351362 257.765787,583.755545 L257.84709,584.141519 L257.968206,584.759505 C257.996645,584.909672 258.026043,585.068323 258.056287,585.235315 C258.271684,586.424632 258.486841,587.795168 258.687509,589.328803 C260.536186,603.457605 259.913289,618.930056 255.049539,633.518401 C254.125848,636.288922 253.057271,638.979236 251.837549,641.581415 C251.661749,641.956471 251.215191,642.118 250.840135,641.942199 C250.465079,641.766399 250.30355,641.319841 250.479351,640.944785 C251.673906,638.396297 252.72098,635.760123 253.626543,633.043974 C258.40773,618.703268 259.021945,603.446479 257.200186,589.523411 C257.027451,588.203253 256.844037,587.007439 256.659451,585.948196 L256.49459,585.039605 L256.302113,584.083655 C256.211508,583.679472 256.465712,583.278368 256.869895,583.187763 Z"/><path id="Stroke-37" fill="#3B4A7A" fill-rule="nonzero" d="M165.191185,561.495468 C165.393339,561.133934 165.850298,561.004731 166.211832,561.206885 C191.984168,575.617642 218.212443,583.351933 244.232197,585.57105 C263.782151,587.238383 281.785756,585.707821 297.571349,582.138365 C301.265836,581.302964 304.562726,580.41228 307.43176,579.518495 L308.039994,579.326941 C308.94072,579.040159 309.740546,578.771189 310.436542,578.525087 L311.229256,578.238281 C311.445407,578.15803 311.601786,578.097831 311.697257,578.059642 C312.081845,577.905807 312.518322,578.092869 312.672158,578.477457 C312.825993,578.862045 312.638931,579.298522 312.254343,579.452358 L312.003788,579.549375 C311.80171,579.626264 311.561742,579.715178 311.284464,579.815112 L310.573391,580.06652 C309.951973,580.282247 309.258637,580.513132 308.495069,580.756244 C305.446691,581.726817 301.903382,582.696671 297.902178,583.601428 C281.973391,587.203263 263.817078,588.746808 244.104731,587.065624 C217.877733,584.828833 191.443181,577.033713 165.479768,562.516115 C165.118234,562.313961 164.989031,561.857002 165.191185,561.495468 Z"/><path id="Stroke-39" fill="#3B4A7A" fill-rule="nonzero" d="M256.902292,552.310395 C257.281762,552.323478 257.585649,552.616277 257.622669,552.983846 L257.626005,553.085792 L256.781505,577.580792 C256.767233,577.99476 256.420076,578.318777 256.006108,578.304505 C255.626638,578.291422 255.322751,577.998623 255.285731,577.631054 L255.282395,577.529108 L256.126895,553.034108 C256.141167,552.62014 256.488324,552.296123 256.902292,552.310395 Z"/><path id="Stroke-41" fill="#3B4A7A" fill-rule="nonzero" d="M191.681742,576.587506 C191.765631,576.181876 192.162464,575.921054 192.568094,576.004942 C192.973724,576.088831 193.234546,576.485664 193.150658,576.891294 C191.337652,585.657793 187.175562,592.466316 181.378854,597.548108 C178.586913,599.995715 175.596576,601.880715 172.604657,603.27543 C171.555452,603.764528 170.579722,604.157752 169.701835,604.464023 L169.263463,604.612213 C169.126007,604.657094 168.997345,604.697505 168.877857,604.733585 L168.569542,604.822106 C168.168745,604.926677 167.759064,604.686538 167.654494,604.285742 C167.549923,603.884945 167.790062,603.475264 168.190858,603.370694 L168.354795,603.325017 C168.517445,603.277546 168.744385,603.206279 169.029634,603.109142 L169.207732,603.047738 C170.039409,602.757589 170.968622,602.383111 171.970894,601.915892 C174.840339,600.578269 177.711366,598.768478 180.390031,596.420176 C185.949137,591.546682 189.937238,585.02278 191.681742,576.587506 Z"/><path id="Fill-43" fill="#51342D" d="M310.7674,363.1178 C310.7674,363.1178 310.7149,377.8088 301.7614,379.2458 C293.8939,380.5088 287.7439,377.1923 290.0494,367.7183 C292.3549,358.2428 304.0594,334.1123 309.7924,336.9368 C315.5254,339.7628 310.7674,363.1178 310.7674,363.1178"/><path id="Fill-45" fill="#B69882" d="M268.29565,378.59255 C268.29565,378.59255 252.52465,375.20705 245.02915,365.91305 C236.03065,354.75605 247.18765,331.48205 250.10365,323.65205 C255.22015,309.91505 263.78065,304.58855 263.78065,304.58855 C263.78065,304.58855 273.80665,294.92255 298.10215,303.11855 C322.39765,311.31305 315.65515,334.16705 312.14365,344.57855 C308.63215,354.99155 299.32465,373.87205 291.03265,377.08205 C281.02765,380.95505 268.29565,378.59255 268.29565,378.59255"/><path id="Fill-47" fill="#51342D" d="M254.33125,315.41375 C254.33125,315.41375 247.43125,301.48925 254.11525,294.56375 C260.80075,287.63675 268.90375,289.40375 276.84925,294.49925 C284.79475,299.59625 321.95125,301.37225 319.61275,321.00425 C328.94875,342.03275 313.48825,352.44875 313.48825,352.44875 C313.48825,352.44875 309.64975,343.68425 305.57875,348.59225 C301.50625,353.50025 298.51525,356.75975 297.36475,354.43925 C296.21575,352.11875 300.04675,345.94775 298.03525,341.88725 C296.02225,337.82525 295.41625,327.18725 300.06325,321.65825 C302.24725,318.04625 269.85625,306.63725 261.88975,307.33175 C257.39725,307.72475 254.33125,315.41375 254.33125,315.41375"/><path id="Stroke-49" fill="#51342D" fill-rule="nonzero" d="M254.519398,320.445343 C256.826213,319.435005 260.085271,319.759705 264.286627,322.113821 C265.009335,322.518771 265.266929,323.432919 264.861979,324.155627 C264.457029,324.878335 263.542881,325.135929 262.820173,324.730979 C259.395879,322.812268 257.112437,322.584769 255.722959,323.193331 L255.57686,323.262034 C255.501311,323.300296 255.469104,323.321412 255.478088,323.312977 C254.874122,323.880002 253.924847,323.850054 253.357823,323.246088 C252.790798,322.642122 252.820746,321.692847 253.424712,321.125823 C253.651251,320.91314 254.01347,320.666928 254.519398,320.445343 Z"/><path id="Stroke-51" fill="#51342D" fill-rule="nonzero" d="M278.00491,327.179037 C278.452291,327.215051 279.187625,327.319931 280.118625,327.529843 C281.662914,327.878033 283.208977,328.405929 284.665047,329.156402 C285.998069,329.843454 287.190375,330.686651 288.201159,331.705003 C288.784756,332.29297 288.781214,333.242711 288.193247,333.826309 C287.60528,334.409906 286.655539,334.406364 286.071941,333.818397 C285.295548,333.03619 284.358096,332.373225 283.290633,331.823045 C282.080888,331.199531 280.770722,330.75218 279.458781,330.456378 C279.114289,330.378705 278.789158,330.316059 278.488585,330.266836 L277.968724,330.191544 C277.872567,330.179634 277.80351,330.172529 277.76419,330.169363 C276.938434,330.10289 276.322914,329.379596 276.389387,328.55384 C276.451949,327.776658 277.096333,327.185705 277.860365,327.17429 L278.00491,327.179037 Z"/><path id="Stroke-53" fill="#7C5B4D" fill-rule="nonzero" d="M266.583531,331.4146 C266.747532,331.678444 266.666593,332.02528 266.40275,332.189281 L266.088906,332.392793 L265.684948,332.666577 C265.54349,332.764389 265.39554,332.868647 265.242035,332.979037 C264.36462,333.610011 263.487271,334.309402 262.670386,335.056214 C260.679702,336.876133 259.382131,338.670829 259.096887,340.276982 C258.708623,342.463222 260.240512,344.294045 264.364095,345.685058 C264.658458,345.784356 264.81659,346.103482 264.717292,346.397845 C264.617994,346.692208 264.298868,346.85034 264.004505,346.751042 C259.409261,345.200923 257.487676,342.904358 257.989219,340.080266 C258.328584,338.16937 259.753364,336.198729 261.911301,334.225903 C262.763459,333.446845 263.674371,332.720698 264.585217,332.065683 L265.045749,331.740806 C265.19302,331.63898 265.333745,331.543719 265.466998,331.45532 L265.80885,331.233819 C266.072694,331.069818 266.41953,331.150757 266.583531,331.4146 Z"/><path id="Fill-55" fill="#51342D" d="M280.2253,342.50975 C279.6988,344.06825 278.2048,344.96975 276.8863,344.52575 C275.5693,344.08025 274.9273,342.45725 275.4523,340.90025 C275.9773,339.34325 277.4713,338.44025 278.7898,338.88425 C280.1083,339.32975 280.7503,340.95275 280.2253,342.50975"/><path id="Fill-57" fill="#51342D" d="M257.6638,334.8998 C257.1388,336.4583 255.6448,337.3598 254.3263,336.9158 C253.0078,336.4703 252.3673,334.8473 252.8923,333.2903 C253.4173,331.7333 254.9113,330.8303 256.2298,331.2743 C257.5468,331.7198 258.1903,333.3428 257.6638,334.8998"/><path id="Fill-59" fill="#B69882" d="M250.0306,345.60425 L242.0761,370.93625 C237.5401,385.38125 245.0446,400.85675 259.1926,406.24175 C274.7641,412.16825 292.0846,403.58525 296.8036,387.60575 L304.5556,361.34825 L250.0306,345.60425 Z"/><path id="Fill-61" fill="#51342D" d="M249.30835,348.0344 C249.30835,348.0344 251.91085,342.0779 260.62885,344.4239 C268.15735,346.4504 272.29585,349.6919 273.14335,355.7774 C273.98935,361.8614 259.80385,351.2774 259.80385,351.2774 C259.80385,351.2774 245.23735,352.9424 249.30835,348.0344"/><path id="Fill-63" fill="#B69882" d="M315.10915,359.85635 C312.22765,365.43335 306.70465,368.30885 302.77315,366.27785 C298.84015,364.24835 297.98965,358.07885 300.87115,352.50185 C303.75115,346.92335 309.27265,344.04785 313.20565,346.07885 C317.13865,348.10985 317.98915,354.27785 315.10915,359.85635"/><path id="Stroke-65" fill="#7C5B4D" fill-rule="nonzero" d="M245.348086,366.151264 C245.584925,365.950225 245.939896,365.979247 246.140936,366.216086 L246.294896,366.387465 C246.341583,366.437689 246.396604,366.495805 246.459993,366.56141 L246.561358,366.665384 C246.925693,367.035943 247.367445,367.450391 247.887564,367.897864 C249.380269,369.182083 251.198109,370.468461 253.34886,371.670434 C260.518768,375.677427 269.534937,377.799034 280.502551,377.025992 C280.812442,377.00415 281.081366,377.237659 281.103208,377.547551 C281.12505,377.857442 280.891541,378.126366 280.581649,378.148208 C269.3909,378.936977 260.157379,376.764224 252.800031,372.652479 C250.581471,371.41261 248.70215,370.082726 247.153858,368.750684 C246.700333,368.360502 246.30214,367.992807 245.958672,367.65393 L245.759153,367.454112 C245.5243,367.215246 245.366019,367.041606 245.283264,366.944114 C245.082225,366.707275 245.111247,366.352304 245.348086,366.151264 Z"/><path id="Stroke-67" fill="#7C5B4D" fill-rule="nonzero" d="M257.27244,366.415605 C257.397999,366.131449 257.730139,366.002881 258.014295,366.12844 C258.298451,366.253999 258.427019,366.586139 258.30146,366.870295 L258.222401,367.064467 L258.184218,367.164657 C258.09213,367.410197 257.999709,367.686439 257.913375,367.986261 C257.623847,368.991743 257.473556,370.003966 257.534369,370.931664 C257.624813,372.311413 258.170185,373.353077 259.28584,373.996103 C259.554995,374.151235 259.647428,374.495186 259.492297,374.76434 C259.337165,375.033495 258.993214,375.125928 258.72406,374.970797 C257.251995,374.122348 256.525098,372.733969 256.411778,371.005252 C256.341282,369.92982 256.50976,368.795096 256.832301,367.674966 C256.927142,367.345602 257.028835,367.041644 257.130862,366.769604 L257.21368,366.555982 C257.237546,366.496706 257.257403,366.449637 257.27244,366.415605 Z"/><path id="Stroke-69" fill="#7C5B4D" fill-rule="nonzero" d="M307.181238,351.346214 C308.425412,350.618288 309.737017,350.4994 310.921327,350.730091 L311.134904,350.776494 C311.229037,350.799312 311.303783,350.821003 311.357334,350.839072 C311.65169,350.938391 311.809798,351.257528 311.710478,351.551884 C311.611159,351.84624 311.292022,352.004348 310.997666,351.905028 L310.8598,351.867349 C310.816529,351.857048 310.765138,351.845811 310.706231,351.834337 C309.76783,351.651546 308.725684,351.74601 307.74935,352.317231 C306.805852,352.869241 306.011501,353.827962 305.420071,355.282843 L305.342,355.482 L305.428762,355.539767 C307.147027,356.711166 307.900633,357.871941 307.689649,359.035878 L307.656659,359.187714 C307.390374,360.239117 306.387267,361.084529 304.800217,361.853286 C304.520631,361.988716 304.184194,361.871854 304.048764,361.592267 C303.913334,361.312681 304.030196,360.976244 304.309783,360.840814 C305.620564,360.20588 306.405903,359.544001 306.566091,358.911511 C306.748572,358.191002 306.128274,357.28654 304.364363,356.189165 C304.1427,356.051263 304.045049,355.778974 304.128551,355.53163 C304.819641,353.484515 305.86632,352.115531 307.181238,351.346214 Z"/><path id="Fill-71" fill="#E4EBF7" d="M165.28345,551.3042 C175.21495,558.4802 186.58045,564.7997 220.61395,574.9832 C238.34995,580.2902 261.54145,577.8527 287.47945,577.0667 C343.22845,575.3777 324.47995,506.0177 324.47995,506.0177 C328.72195,492.3302 329.85895,477.0887 329.85895,477.0887 C345.03295,443.7032 340.10245,413.4122 340.10245,413.4122 C325.07395,403.2152 310.35895,393.2672 298.74295,390.1112 C294.24445,388.8887 280.63495,408.9302 269.17945,405.8777 C254.97295,402.0932 242.38195,375.1727 234.54745,374.3432 C211.98145,371.9552 196.92445,368.5337 180.48745,373.7807 C163.93195,384.2357 159.71245,477.2327 162.73045,521.6252 C162.73045,521.6252 146.02495,537.3917 165.28345,551.3042"/><path id="Fill-73" fill="#FFF" d="M293.76925,397.4648 C293.76925,397.4648 279.39925,449.1608 264.24775,471.5858 C245.90275,412.9058 235.34575,375.4643 234.54775,375.1883 L266.25925,401.2553 L293.76925,397.4648 Z"/><polygon id="Fill-75" fill="#253368" points="280.479 411.327 269.499 399.278 253.213 407.709 258.739 420.056 275.403 423.417"/><polygon id="Fill-77" fill="#253368" points="279.475 440.712 275.142 423.194 258.565 419.946 251.941 431.877 263.371 473.135"/><polygon id="Fill-79" fill="#FFF" points="287.446 417.599 268.046 399.454 292.96 387.98 295.849 392.274"/><polygon id="Fill-81" fill="#FFF" points="268.047 399.454 245.89 410.034 233.983 375.471 241.867 370.402"/><polygon id="Fill-83" fill="#FFF" points="288.046 418.835 268.956 399.203 296.532 385.196 298.258 392.108"/><path id="Stroke-85" fill="#E4EBF7" fill-rule="nonzero" d="M299.042988,392.154923 L297.031194,384.100755 L267.707843,398.995307 L288.327451,420.199788 L299.042988,392.154923 Z M296.032,386.29 L297.473,392.06 L287.764,417.469 L270.203,399.41 L296.032,386.29 Z"/><polygon id="Fill-87" fill="#FFF" points="268.956 399.202 245.033 412.132 234.548 374.907 242.334 370.279"/><path id="Stroke-89" fill="#E4EBF7" fill-rule="nonzero" d="M270.160979,399.40351 L242.474068,369.323556 L233.669794,374.555917 L244.564913,413.237486 L270.160979,399.40351 Z M242.194,371.234 L267.751,399 L245.5,411.027 L235.425,375.257 L242.194,371.234 Z"/><path id="Stroke-91" fill="#96A7CA" fill-rule="nonzero" d="M263.406523,471.980323 C263.493246,471.57529 263.891894,471.317249 264.296927,471.403973 C264.668208,471.483469 264.915974,471.825069 264.88789,472.193429 L264.873277,472.294377 L258.19,503.505 L258.306135,503.942345 C258.410454,504.341602 258.524175,504.794099 258.645411,505.297179 L258.737718,505.683933 C259.182956,507.567221 259.627915,509.700093 260.043079,512.041108 C261.995505,523.050391 262.620632,534.433647 261.119744,545.085535 C259.250802,558.349519 254.216333,569.132305 245.363229,576.514857 C245.045109,576.780135 244.572171,576.737299 244.306893,576.419179 C244.041615,576.101059 244.084451,575.628121 244.402571,575.362843 C252.936137,568.246752 257.813285,557.800915 259.634416,544.876247 C261.110131,534.403012 260.493231,523.169542 258.566125,512.303036 C258.201637,510.247771 257.814117,508.355992 257.424235,506.657049 L257.277958,506.029042 C257.15527,505.510091 257.039685,505.04092 256.933088,504.624201 L256.713036,503.791692 C256.70694,503.769744 256.701545,503.750511 256.696866,503.734018 C256.674591,503.655491 256.665359,503.574124 256.669275,503.493131 L256.685023,503.372323 L263.406523,471.980323 Z"/><path id="Stroke-93" fill="#96A7CA" fill-rule="nonzero" d="M331.642997,470.936681 C332.015058,471.012442 332.266245,471.351534 332.243497,471.720157 L332.228269,471.821247 L324.766,508.466 L324.876441,508.838266 C325.007851,509.289282 325.154035,509.814645 325.311284,510.409447 C325.759717,512.105661 326.207833,514.020521 326.625942,516.114833 C328.406706,525.0347 329.096675,534.189958 328.059702,542.756186 C325.774513,561.63367 315.547367,574.106568 295.2413,576.954563 L294.634958,577.077634 L294.001013,577.198458 C293.775675,577.240354 293.53638,577.283813 293.283322,577.328659 L292.893437,577.396949 C290.99163,577.726247 288.784821,578.055299 286.297384,578.362259 C273.978145,579.882507 259.906325,580.310467 244.822201,578.981259 C224.310779,577.173798 204.273097,572.276791 185.452662,563.622548 C177.931671,560.164154 170.683495,556.134861 163.740328,551.50614 C163.395681,551.276378 163.302548,550.810726 163.53231,550.466078 C163.762072,550.121431 164.227724,550.028298 164.572372,550.25806 C171.449276,554.842606 178.628752,558.833709 186.079332,562.259725 C204.733478,570.837504 224.605059,575.693917 244.95387,577.487049 C259.925767,578.806368 273.893511,578.381573 286.113671,576.873552 C288.576494,576.569629 290.759264,576.244162 292.63752,575.918942 L293.3837,575.786744 C293.618651,575.744112 293.83976,575.702971 294.046833,575.663497 L294.978105,575.47888 C314.605115,572.724115 324.361398,560.825477 326.570573,542.575922 C327.585758,534.189685 326.907151,525.185196 325.154969,516.408498 C324.788858,514.574643 324.399615,512.881422 324.008023,511.356666 L323.861107,510.792834 C323.737911,510.326842 323.621862,509.905128 323.514855,509.530226 L323.278109,508.729778 C323.249378,508.63872 323.238386,508.543301 323.245402,508.448653 L323.258431,508.354453 L330.758431,471.521953 C330.834192,471.149892 331.173284,470.898705 331.541907,470.923084 L331.642997,470.936681 Z"/><path id="Stroke-95" fill="#96A7CA" fill-rule="nonzero" d="M233.991036,374.938806 C234.384397,374.809039 234.808477,375.022724 234.938244,375.416086 L235.912263,378.407183 C238.257692,385.692435 241.411777,396.023487 245.209094,408.79677 L248.088467,418.530976 L249.815137,424.409214 C252.212533,432.589649 254.689101,441.115657 257.170356,449.715699 L261.931174,466.286313 L263.528,471.879 L263.906781,471.274242 C264.334126,470.585223 264.764696,469.874981 265.198403,469.143853 L265.633152,468.405777 C270.183434,460.626729 275.000196,450.71777 279.965799,439.17835 C284.18576,429.371707 288.29457,418.905901 292.149793,408.398593 L292.917415,406.296761 C293.905004,403.580126 294.825792,400.997893 295.672631,398.581115 L296.7573,395.459519 C297.095082,394.478886 297.397382,393.592715 297.662504,392.808372 L298.150309,391.353425 C298.280165,390.960093 298.704293,390.746503 299.097625,390.876359 C299.45818,390.995393 299.667701,391.361698 299.600095,391.724888 L299.531514,391.953806 L298.805187,394.109311 L298.175523,395.948031 C297.04663,399.225377 295.75668,402.876938 294.327151,406.809248 C290.242513,418.045161 285.857587,429.281442 281.343645,439.77126 L280.438392,441.860669 C275.769817,452.561991 271.235954,461.798218 266.927914,469.163135 C265.899369,470.921511 264.886955,472.567093 263.891496,474.09581 C263.560947,474.603429 262.812682,474.523026 262.579106,473.995664 L262.509856,473.780049 L258.616275,460.163757 L255.729191,450.131685 C253.022963,440.751884 250.322344,431.460281 247.724082,422.609559 L244.491195,411.649082 C239.810144,395.861293 236.052764,383.582481 233.513756,375.886014 C233.383989,375.492653 233.597674,375.068573 233.991036,374.938806 Z"/><path id="Stroke-97" fill="#96A7CA" fill-rule="nonzero" d="M229.090477,501.402708 C229.240225,501.016511 229.674694,500.82483 230.060892,500.974577 C242.289416,505.716169 253.486541,508.632804 263.53333,510.067656 C270.402131,511.048638 275.881637,511.233351 279.852523,510.964358 L280.563484,510.908514 C280.75248,510.891126 280.893294,510.875516 280.985349,510.863333 C281.395981,510.808988 281.772921,511.097816 281.827267,511.508449 C281.881612,511.919081 281.592784,512.296021 281.182151,512.350367 L280.861242,512.386157 L280.44312,512.424259 C280.291873,512.436789 280.128776,512.449081 279.953902,512.460928 C275.880068,512.736895 270.2956,512.548644 263.321256,511.552589 C253.161992,510.101673 241.85406,507.156175 229.518608,502.373123 C229.132411,502.223375 228.94073,501.788906 229.090477,501.402708 Z"/><path id="Stroke-99" fill="#96A7CA" fill-rule="nonzero" d="M241.972181,493.541972 C242.091849,493.145421 242.510327,492.920964 242.906878,493.040631 L243.237161,493.13611 C245.003842,493.627421 248.490751,494.326258 253.303526,495.176256 L254.283642,495.348255 C255.326588,495.530151 256.418566,495.717106 257.554215,495.908414 L260.180296,496.345851 C262.400828,496.711793 264.693663,497.080205 266.998579,497.443148 L273.304023,498.416958 C273.713648,498.47844 273.995874,498.860347 273.934392,499.269973 C273.878034,499.645462 273.552429,499.913902 273.183037,499.908677 L273.040957,499.894271 L268.150983,499.142221 L265.381911,498.706164 C263.08074,498.340795 260.803549,497.971509 258.61038,497.60621 L255.630797,497.103252 L254.025924,496.825949 C248.306119,495.828382 244.294841,495.026292 242.473522,494.476669 C242.076971,494.357001 241.852514,493.938523 241.972181,493.541972 Z"/><path id="Stroke-101" fill="#96A7CA" fill-rule="nonzero" d="M338.803595,445.117769 C339.213297,445.178739 339.496,445.560293 339.435031,445.969995 C337.899164,456.290662 335.557048,465.608522 332.2546,473.210921 C332.089566,473.590837 331.647796,473.765034 331.267879,473.6 C330.887963,473.434966 330.713766,472.993196 330.8788,472.613279 C334.121138,465.149258 336.433194,455.950988 337.951369,445.749205 C338.007258,445.373645 338.332527,445.104799 338.701925,445.109438 L338.803595,445.117769 Z"/><path id="Stroke-103" fill="#96A7CA" fill-rule="nonzero" d="M371.106318,433.617505 C371.37224,433.299923 371.845264,433.258045 372.162845,433.523968 C372.451556,433.765715 372.512412,434.178621 372.321299,434.490301 L372.256382,434.580495 L346.265882,465.619995 C345.99996,465.937577 345.526936,465.979455 345.209355,465.713532 C344.920644,465.471785 344.859788,465.058879 345.050901,464.747199 L345.115818,464.657005 L371.106318,433.617505 Z"/><path id="Fill-105" fill="#E4EBF7" d="M107.25805,460.0187 L107.25805,460.0187 C97.66555,445.1852 101.43355,425.4317 115.81255,415.1717 L167.11105,378.5642 C182.85205,367.3307 204.75205,371.2337 215.64505,387.2117 C226.56055,403.2242 222.14755,425.0807 205.87555,435.6047 L152.95555,469.8242 C137.62855,479.7362 117.16855,475.3457 107.25805,460.0187"/><path id="Stroke-107" fill="#96A7CA" fill-rule="nonzero" d="M189.222823,382.195035 C189.438167,381.841199 189.899579,381.728929 190.253415,381.944273 L190.39947,382.036986 C190.542396,382.130603 190.737611,382.265312 190.979531,382.442607 C191.534355,382.849219 192.149945,383.347439 192.810931,383.941373 C194.689682,385.629537 196.564776,387.749375 198.312429,390.333233 C204.928786,400.115342 207.942078,413.575075 205.370132,431.1913 C205.310292,431.601169 204.929518,431.884922 204.51965,431.825082 C204.109781,431.765242 203.826028,431.384468 203.885868,430.9746 C206.40412,413.726143 203.47531,400.643773 197.069948,391.173614 C195.392986,388.694271 193.598852,386.66596 191.808374,385.057114 C191.289004,384.590431 190.801811,384.188404 190.355595,383.848784 L190.092853,383.652484 C189.789426,383.430113 189.577917,383.289123 189.473585,383.225627 C189.119749,383.010283 189.007479,382.548871 189.222823,382.195035 Z"/><path id="Fill-109" fill="#FF7A46" d="M183.9133,515.01335 L188.7388,516.24185 C192.2158,517.12835 194.3188,520.66685 193.4323,524.14385 L172.6993,605.52935 C171.8143,609.00785 168.2758,611.10785 164.7988,610.22285 L159.9733,608.99435 C156.4963,608.10785 154.3933,604.57085 155.2798,601.09235 L176.0098,519.70685 C176.8963,516.22985 180.4348,514.12835 183.9133,515.01335"/><path id="Fill-111" fill="#FAAD14" d="M76.33525,487.6106 L184.31875,515.1161 C187.79725,516.0026 189.89875,519.5411 189.01225,523.0181 L168.28075,604.4036 C167.39425,607.8821 163.85725,609.9836 160.37875,609.0971 L52.39675,581.5901 C48.91825,580.7051 46.81675,577.1666 47.70325,573.6881 L68.43325,492.3041 C69.31975,488.8256 72.85825,486.7241 76.33525,487.6106"/><path id="Stroke-113" fill="#FF7A46" fill-rule="nonzero" d="M58.2269421,546.450029 L176.441942,576.562529 C176.659499,576.617946 176.790938,576.839236 176.735521,577.056792 C176.687031,577.247154 176.511545,577.371583 176.322685,577.36259 L176.241258,577.350371 L58.0262579,547.237871 C57.8087013,547.182454 57.6772616,546.961164 57.7326791,546.743608 C57.7811693,546.553246 57.9566551,546.428817 58.1455147,546.43781 L58.2269421,546.450029 Z"/><path id="Fill-115" fill="#B69882" d="M78.9631,560.81315 C78.9631,560.81315 79.5871,533.47715 91.6171,527.65115 C102.5101,522.37565 110.6341,534.69815 110.6341,534.69815 C110.6341,534.69815 115.8226,545.09165 118.2076,557.91065 C119.7706,566.31065 125.2111,581.73065 120.9691,583.87565 C115.4386,586.67165 112.5646,569.89565 108.2311,569.13065 C99.4471,567.58415 101.0911,594.57815 98.9371,599.20865 C94.7266,608.25965 77.9581,593.61065 78.9631,560.81315"/><path id="Stroke-117" fill="#7C5B4D" fill-rule="nonzero" d="M95.299302,572.523086 C95.5978475,572.608995 95.7702234,572.920657 95.6843144,573.219202 L95.6003319,573.527407 C95.5321099,573.785171 95.4559257,574.087232 95.3737588,574.430899 C95.1384049,575.415277 94.9028295,576.5339 94.6828521,577.765194 C93.5852494,583.908876 93.2818664,590.289749 94.255014,596.23694 C94.3964164,597.101091 94.564382,597.948027 94.7597373,598.776561 C94.8310311,599.07893 94.6437077,599.381844 94.3413388,599.453137 C94.0389699,599.524431 93.7360565,599.337108 93.6647627,599.034739 C93.4633406,598.180474 93.2903182,597.30804 93.1447792,596.418609 C92.1481129,590.327689 92.4572392,583.826021 93.5753872,577.56734 C93.7673215,576.493014 93.9710912,575.502143 94.1766911,574.608155 L94.2795972,574.169297 C94.3638931,573.816726 94.4422815,573.505925 94.5127785,573.239566 L94.6031856,572.908098 C94.6890946,572.609553 95.0007566,572.437177 95.299302,572.523086 Z"/><path id="Stroke-119" fill="#7C5B4D" fill-rule="nonzero" d="M88.2751672,569.309118 C88.5807918,569.364825 88.7833898,569.657743 88.7276824,569.963367 C87.1328956,578.712763 87.1309113,586.343654 88.0822733,592.535349 C88.2004562,593.304513 88.3256905,593.989404 88.4517072,594.586863 L88.5147517,594.878292 C88.6021605,595.27216 88.669302,595.536294 88.7062148,595.665671 C88.7914483,595.96441 88.618368,596.275681 88.319629,596.360915 C88.02089,596.446148 87.7096188,596.273068 87.6243852,595.974329 L87.5535825,595.706628 C87.5250557,595.592827 87.4918657,595.454589 87.4548002,595.292308 L87.416472,595.122027 C87.2640603,594.435253 87.1120059,593.628311 86.9703226,592.706202 C86.000685,586.395564 86.0027018,578.639566 87.6209176,569.761633 C87.6710543,569.486571 87.9133311,569.29496 88.1840855,569.299809 L88.2751672,569.309118 Z"/><path id="Stroke-121" fill="#7C5B4D" fill-rule="nonzero" d="M83.0543688,564.477782 C83.355595,564.553759 83.5381954,564.859543 83.4622183,565.160769 L83.3659993,565.596989 L83.3107631,565.877072 C83.1940141,566.486874 83.0769405,567.216239 82.9674545,568.063678 C82.4094631,572.382625 82.2618466,577.830689 82.7785471,584.360327 C82.8030535,584.670019 82.5718649,584.940941 82.2621728,584.965447 C81.9524807,584.989954 81.6815593,584.758765 81.6570529,584.449073 C81.1341393,577.840918 81.2838693,572.314848 81.8517277,567.919531 L81.9499243,567.202708 C82.0331325,566.629556 82.1193991,566.116979 82.2058313,565.665528 L82.314912,565.129062 C82.3376331,565.025163 82.3566646,564.94398 82.3713817,564.885631 C82.4397612,564.614528 82.6942839,564.439511 82.9640985,564.462606 L83.0543688,564.477782 Z"/><path id="Fill-123" fill="#B69882" d="M113.302,525.7616 C112.129,533.3696 105.01,538.5851 97.402,537.4121 C89.7955,536.2376 84.58,529.1186 85.753,521.5121 C86.926,513.9041 94.045,508.6886 101.6515,509.8631 C109.2595,511.0361 114.475,518.1551 113.302,525.7616"/><path id="Fill-125" fill="#E4EBF7" d="M111.25705,550.76435 L83.63755,542.66135 C76.43755,540.54935 72.17755,533.14235 73.97455,525.85835 L95.40505,438.90635 C100.42705,421.78385 118.37905,411.97535 135.50155,416.99885 C152.62255,422.02085 162.43105,439.97285 157.40905,457.09535 L128.46805,541.84385 C126.04255,548.94485 118.45705,552.87635 111.25705,550.76435"/><path id="Stroke-127" fill="#96A7CA" fill-rule="nonzero" d="M179.828237,451.828276 C180.186104,451.619698 180.645297,451.740721 180.853874,452.098587 C181.062452,452.456454 180.941429,452.915647 180.583563,453.124224 L178.11268,454.569511 C168.875377,459.992793 162.321106,464.076181 158.011393,467.006872 L157.461949,467.382614 C155.951788,468.421399 154.852929,469.230352 154.101793,469.835915 L153.946135,469.962575 C153.741731,470.13053 153.581128,470.269465 153.459433,470.38122 L153.361,470.472 L132.149794,533.128752 C132.028037,533.488396 131.660159,533.695142 131.29749,533.624793 L131.198898,533.598644 C130.839254,533.476887 130.632508,533.109009 130.702857,532.74634 L130.729006,532.647748 L151.994506,469.833748 C152.022789,469.750208 152.065584,469.672312 152.120927,469.603638 L152.255998,469.452603 C152.748084,468.942944 154.039826,467.915964 156.611851,466.146761 L157.744202,465.37673 C162.477505,462.192139 169.671524,457.74797 179.828237,451.828276 Z"/></g></svg>