<svg xmlns="http://www.w3.org/2000/svg" xmlns:xlink="http://www.w3.org/1999/xlink" width="512" height="1024" version="1.1" viewBox="0 0 512 1024"><title>2.人物组件/2.保安/奔跑/打招呼</title><desc>Created with Sketch.</desc><defs><polygon id="path-1" points="0 .377 73.472 .377 73.472 76.5 0 76.5"/><polygon id="path-3" points=".798 .341 69.546 .341 69.546 69.93 .798 69.93"/></defs><g id="2.人物组件/2.保安/奔跑/打招呼" fill="none" fill-rule="evenodd" stroke="none" stroke-width="1"><path id="Fill-1" fill="#253368" d="M480.3164,588.174 L453.2114,536.5485 L403.5494,558.4455 L422.3744,599.9415 L451.6289,578.916 L477.0869,592.9305 C479.6744,594.3555 481.8659,591.126 480.3164,588.174"/><g id="分组" transform="translate(30.500000, 778.161000)"><mask id="mask-2" fill="#fff"><use xlink:href="#path-1"/></mask><path id="Fill-3" fill="#253368" d="M2.75745,68.34915 L55.76895,76.50015 L73.47195,9.98115 L32.80845,0.37665 L27.92145,45.24315 L1.63545,61.69365 C-1.03605,63.36465 -0.27405,67.88265 2.75745,68.34915" mask="url(#mask-2)"/></g><path id="Fill-5" fill="#4E5C93" d="M99.37235,655.74945 L99.37235,655.74945 C87.79685,644.71545 84.50285,627.40545 91.88585,616.40445 L164.51585,508.16895 C174.46385,493.34295 195.86435,493.37895 211.46285,508.24845 C227.06285,523.11645 232.57685,550.23195 221.10035,563.60145 L135.24935,657.73695 C126.73235,667.65645 110.94785,666.78195 99.37235,655.74945"/><path id="Fill-7" fill="#FFC2BD" d="M156.0146,294.94815 C166.3631,291.48015 194.4776,285.31815 205.9676,312.57015 C215.1566,334.36365 201.1046,349.97265 188.2541,358.17615 C166.0541,372.34965 134.0681,380.88765 104.9261,388.51965 C104.9261,388.51965 72.1346,398.32515 62.7941,366.72465 C54.8906,339.97965 81.3446,329.71515 81.3446,329.71515 C81.3446,329.71515 144.1856,298.91265 156.0146,294.94815"/><path id="Fill-9" fill="#597EF7" d="M113.7029,314.40495 C123.9959,309.63045 153.7439,294.41895 157.4714,293.17095 C167.8199,289.70295 194.5859,285.57795 206.0759,312.82995 C215.2649,334.62345 201.2129,350.23245 188.3624,358.43595 C179.5034,364.09245 149.4314,375.04695 138.2594,379.20795 L113.7029,314.40495 Z"/><path id="Stroke-11" fill="#1D39C4" fill-rule="nonzero" d="M113.179109,313.999777 C113.446487,313.898456 113.742225,314.009479 113.880769,314.249273 L113.920873,314.333859 L138.477373,379.136859 C138.589952,379.433946 138.440378,379.766045 138.143291,379.878623 C137.875913,379.979944 137.580175,379.868921 137.441631,379.629127 L137.401527,379.544541 L112.845027,314.741541 C112.732448,314.444454 112.882022,314.112355 113.179109,313.999777 Z"/><path id="Fill-13" fill="#FFC2BD" d="M212.93435,281.7507 L211.20485,226.2792 L263.38235,222.6747 L267.24335,279.0447 C268.26785,294.0102 256.98185,306.9777 242.01785,308.0292 C226.62335,309.1092 213.41585,297.1767 212.93435,281.7507"/><path id="Fill-15" fill="#FFC2BD" d="M226.0586,194.4321 C226.0586,194.4321 254.6276,184.8336 263.4731,197.8851 C272.0756,210.5781 275.9111,258.3501 261.2336,266.6721 C249.2711,273.4551 223.8206,272.4336 216.2171,249.7641 C216.2171,249.7641 209.9351,232.4031 210.7406,216.4611 C211.5446,200.5191 226.0586,194.4321 226.0586,194.4321"/><path id="Fill-17" fill="#FFC2BD" d="M215.2565,235.84905 C215.2565,235.84905 206.303,221.21655 200.8625,229.85205 C195.4205,238.49055 206.5895,252.97005 215.399,251.72655 C224.21,250.48155 215.2565,235.84905 215.2565,235.84905"/><g id="分组" transform="translate(201.500000, 169.161000)"><mask id="mask-4" fill="#fff"><use xlink:href="#path-3"/></mask><path id="Fill-19" fill="#253368" d="M68.9331,55.887 C68.9331,55.887 71.4606,37.2825 66.2466,26.2035 C61.0341,15.126 54.5556,4.1355 50.8596,10.4265 C50.0301,7.6245 45.8421,2.1945 42.8646,0.4935 C39.8871,-1.2075 31.8846,11.7375 31.8846,11.7375 C31.8846,11.7375 32.1246,6.0015 28.8861,9.72 C25.6476,13.44 5.2026,25.6545 2.1171,31.587 C-0.9684,37.5195 2.3256,58.3185 2.3256,58.3185 C2.3256,58.3185 9.0816,57.216 13.6131,69.93 C11.9436,59.5605 15.9111,53.805 17.9976,51.576 C18.7896,50.73 19.1976,49.6035 19.2066,48.4455 C19.2216,46.224 19.2141,42.495 19.0566,38.8635 C18.9876,37.263 20.0646,35.8605 21.6201,35.4795 C37.4616,31.596 55.2591,32.874 61.6116,33.522 C63.0471,33.669 64.2126,34.734 64.5021,36.1485 L66.9021,47.8995 C66.9021,47.8995 67.8861,49.9215 68.9331,55.887" mask="url(#mask-4)"/></g><path id="Stroke-21" fill="#253368" fill-rule="nonzero" d="M231.453735,223.457412 L231.590653,223.464239 L241.970653,224.547239 C242.666483,224.619839 243.171711,225.242774 243.099111,225.938603 C243.031049,226.590943 242.479294,227.075763 241.837244,227.073997 L241.707747,227.067061 L231.603,226.013 L226.617891,227.712661 C225.997083,227.924268 225.325652,227.626503 225.058166,227.042823 L225.010189,226.922341 C224.798582,226.301533 225.096347,225.630102 225.680027,225.362616 L225.800509,225.314639 L231.050509,223.525139 C231.180649,223.48078 231.316847,223.458002 231.453735,223.457412 Z"/><path id="Stroke-23" fill="#253368" fill-rule="nonzero" d="M262.151577,220.262067 C262.322908,220.203655 262.504253,220.182808 262.683383,220.200288 L262.817123,220.220597 L266.846123,221.054597 C267.531206,221.196409 267.971615,221.86674 267.829803,222.551823 C267.696854,223.194088 267.099387,223.621308 266.460732,223.555352 L266.332577,223.535503 L262.643,222.771 L253.034623,226.047033 C252.413829,226.258682 251.742378,225.960963 251.474852,225.377302 L251.426867,225.256823 C251.215218,224.636029 251.512937,223.964578 252.096598,223.697052 L252.217077,223.649067 L262.151577,220.262067 Z"/><path id="Fill-25" fill="#EFADAB" d="M216.15125,241.90395 C216.15125,241.90395 224.76425,247.71795 229.49225,254.06445 C234.91475,246.30345 240.94175,242.70945 240.94175,242.70945 C240.94175,242.70945 248.47325,247.53495 252.15275,245.61345 C253.24175,244.10745 253.01225,242.66895 253.01225,242.66895 C253.01225,242.66895 259.58075,244.59795 264.54575,250.92945 C266.11475,246.05445 271.03775,239.54295 271.03775,239.54295 C271.03775,239.54295 274.31225,270.43095 251.57675,272.47695 C228.57125,274.06695 220.02275,261.86745 216.67625,251.37495 C215.84375,248.07195 214.32725,239.64645 216.15125,241.90395"/><path id="Stroke-27" fill="#D18682" fill-rule="nonzero" d="M236.214171,248.796911 C236.339091,248.401984 236.760511,248.1831 237.155439,248.308021 L237.511719,248.413306 C237.631148,248.447073 237.772792,248.48602 237.935407,248.529241 C238.572927,248.698683 239.293224,248.868433 240.080382,249.02699 C243.255902,249.666634 246.500236,249.935167 249.509486,249.623512 C251.158387,249.452742 252.67733,249.109532 254.04018,248.577883 C254.426071,248.427347 254.860931,248.618139 255.011467,249.00403 C255.162003,249.389921 254.971211,249.824781 254.58532,249.975317 C253.089146,250.558976 251.440052,250.931594 249.664008,251.115532 C246.483523,251.444921 243.09586,251.164524 239.784187,250.497455 C239.129628,250.365608 238.518815,250.226142 237.959662,250.084994 L237.233504,249.893056 C236.993776,249.82664 236.815073,249.77361 236.703061,249.738179 C236.308134,249.613259 236.08925,249.191839 236.214171,248.796911 Z"/><path id="Stroke-29" fill="#D18682" fill-rule="nonzero" d="M250.008541,225.075329 C250.388146,225.083627 250.6957,225.372572 250.73735,225.739645 L250.741971,225.841541 L250.667,229.237 L250.858185,229.994506 L250.989976,230.535651 C251.250637,231.618466 251.511261,232.772536 251.75463,233.950223 C251.934242,234.819381 252.097319,235.667653 252.240315,236.48538 L252.343741,237.092798 C253.093028,241.61928 253.140749,244.459347 252.011698,245.470124 C250.974922,246.397604 249.105946,246.336466 246.536275,245.65078 C245.793097,245.452472 245.011415,245.204173 244.207228,244.917237 C243.646145,244.717041 243.096899,244.506331 242.571164,244.292949 L241.730281,243.941204 C241.483383,243.834777 241.294391,243.750194 241.173548,243.694246 C240.797665,243.520219 240.634028,243.07443 240.808054,242.698548 C240.982081,242.322665 241.42787,242.159028 241.803752,242.333054 L242.474766,242.62831 L242.635956,242.696586 C243.289962,242.972054 243.991442,243.247623 244.711306,243.504472 C245.479181,243.778452 246.222589,244.014593 246.923001,244.201489 C249.003195,244.756564 250.504656,244.80568 251.011396,244.35236 C251.541644,243.877659 251.495911,241.155903 250.863879,237.337765 C250.701427,236.356384 250.506373,235.321799 250.285668,234.253784 C250.093789,233.325262 249.890862,232.41091 249.685745,231.535541 L249.465436,230.613312 L249.190201,229.514976 L249.165829,229.308259 L249.242329,225.808759 C249.251382,225.394644 249.594427,225.066276 250.008541,225.075329 Z"/><path id="Stroke-31" fill="#D18888" fill-rule="nonzero" d="M251.27471,255.500017 C251.623358,255.474286 251.926852,255.736062 251.952583,256.08471 C251.975975,256.401662 251.761758,256.681298 251.460672,256.748854 L251.36789,256.762583 L246.04289,257.155583 C245.694242,257.181314 245.390748,256.919538 245.365017,256.57089 C245.341625,256.253938 245.555842,255.974302 245.856928,255.906746 L245.94971,255.893017 L251.27471,255.500017 Z"/><path id="Fill-33" fill="#253368" d="M235.19015,234.63105 C235.31615,236.46555 234.35765,238.02555 233.04815,238.11555 C231.73715,238.20555 230.57315,236.79255 230.44715,234.95955 C230.31965,233.12505 231.27965,231.56505 232.58915,231.47505 C233.89865,231.38355 235.06415,232.79655 235.19015,234.63105"/><path id="Fill-35" fill="#253368" d="M260.0936,232.9113 C260.2196,234.7458 259.2611,236.3043 257.9516,236.3958 C256.6406,236.4858 255.4766,235.0728 255.3506,233.2383 C255.2231,231.4053 256.1831,229.8453 257.4926,229.7553 C258.8021,229.6638 259.9676,231.0768 260.0936,232.9113"/><path id="Stroke-37" fill="#D18682" fill-rule="nonzero" d="M237.453895,245.913607 C237.725946,245.60126 238.199695,245.568594 238.512043,245.840645 C238.795995,246.087964 238.848806,246.501976 238.651665,246.809878 L238.585005,246.898793 L234.757005,251.293793 C234.484954,251.60614 234.011205,251.638806 233.698857,251.366755 C233.414905,251.119436 233.362094,250.705424 233.559235,250.397522 L233.625895,250.308607 L237.453895,245.913607 Z"/><path id="Stroke-39" fill="#D18888" fill-rule="nonzero" d="M216.786481,251.704512 C217.11942,251.597883 217.475759,251.781343 217.582388,252.114281 L217.673999,252.38025 C217.71489,252.493678 217.766243,252.63135 217.828377,252.791675 L217.894118,252.959493 C218.166416,253.647518 218.506205,254.415872 218.917501,255.244371 C220.094212,257.614692 221.60546,259.985757 223.482218,262.196896 C230.939191,270.982478 241.705418,274.744647 256.485257,270.642408 C256.822118,270.54891 257.170994,270.746195 257.264492,271.083057 C257.35799,271.419918 257.160705,271.768794 256.823843,271.862292 C241.5493,276.101838 230.281969,272.164563 222.517019,263.016132 C220.569299,260.721387 219.00349,258.264719 217.783544,255.807307 C217.356009,254.946099 217.001934,254.14544 216.716957,253.425375 L216.517492,252.902965 L216.376712,252.500419 C216.270083,252.16748 216.453543,251.811141 216.786481,251.704512 Z"/><path id="Stroke-41" fill="#D18888" fill-rule="nonzero" d="M249.622172,263.804964 C249.910153,263.606761 250.304283,263.679541 250.502486,263.967522 C250.686776,264.235289 250.950802,264.692939 251.212914,265.294257 C251.866195,266.792973 252.124811,268.343325 251.742584,269.824518 C251.428028,271.043476 250.68984,272.119166 249.489667,272.998513 C249.207664,273.205132 248.811557,273.144021 248.604937,272.862017 C248.398318,272.580014 248.459429,272.183907 248.741433,271.977287 C249.707897,271.269175 250.275903,270.441474 250.516742,269.508186 C250.816821,268.345328 250.602952,267.063227 250.052375,265.800129 C249.919768,265.495911 249.777743,265.217873 249.636376,264.972835 L249.48216,264.719001 C249.473469,264.705708 249.465926,264.694449 249.459614,264.685278 C249.261411,264.397297 249.334191,264.003167 249.622172,263.804964 Z"/><path id="Stroke-43" fill="#D18888" fill-rule="nonzero" d="M202.920653,234.380891 C203.136918,232.907905 204.258585,232.175771 206.165315,232.762249 C209.089423,233.661228 209.642269,235.673362 209.053251,239.426296 L208.959044,239.988006 C208.557061,242.25107 209.412353,243.452042 211.506868,243.722513 C211.853585,243.767285 212.09836,244.084651 212.053587,244.431368 C212.008815,244.778085 211.691449,245.02286 211.344732,244.978087 C208.603375,244.624088 207.261164,242.836495 207.672967,240.011225 L207.806246,239.208443 C208.301829,236.052332 207.892225,234.617644 205.793204,233.972327 C204.636723,233.616613 204.278066,233.850715 204.173224,234.564795 C204.134126,234.831093 204.144229,235.132121 204.186085,235.420853 L204.219552,235.610655 C204.299437,235.951002 204.088291,236.291667 203.747945,236.371552 C203.407598,236.451437 203.066933,236.240291 202.987048,235.899945 L202.961718,235.776995 C202.952507,235.727078 202.942761,235.668567 202.933181,235.60248 C202.875209,235.20258 202.861219,234.785697 202.920653,234.380891 Z"/><path id="Fill-45" fill="#D18682" d="M241.1597,255.642 C241.1282,255.969 240.8387,256.2075 240.5117,256.176 C240.1847,256.1445 239.9447,255.855 239.9762,255.528 C240.0077,255.2025 240.2972,254.9625 240.6242,254.994 C240.9512,255.024 241.1912,255.315 241.1597,255.642"/><path id="Fill-47" fill="#D18682" d="M232.4117,258.48825 C232.3802,258.81525 232.0907,259.05375 231.7637,259.02375 C231.4367,258.99225 231.1967,258.70275 231.2282,258.37425 C231.2597,258.04875 231.5507,257.80875 231.8762,257.84025 C232.2032,257.87175 232.4432,258.16125 232.4117,258.48825"/><path id="Fill-49" fill="#D18682" d="M261.2234,258.4458 C261.3584,258.7443 261.2264,259.0968 260.9264,259.2318 C260.6279,259.3683 260.2754,259.2348 260.1404,258.9363 C260.0054,258.6363 260.1374,258.2853 260.4374,258.1503 C260.7359,258.0138 261.0884,258.1473 261.2234,258.4458"/><path id="Fill-51" fill="#D18682" d="M266.59235,255.2268 C266.72735,255.5253 266.59535,255.8778 266.29535,256.0128 C265.99685,256.1478 265.64435,256.0158 265.50935,255.7173 C265.37435,255.4173 265.50635,255.0663 265.80635,254.9298 C266.10485,254.7948 266.45735,254.9268 266.59235,255.2268"/><path id="Fill-53" fill="#D18682" d="M256.5131,260.50605 C256.6481,260.80605 256.5161,261.15855 256.2161,261.29205 C255.9176,261.42855 255.5651,261.29505 255.4301,260.99655 C255.2951,260.69805 255.4271,260.34555 255.7271,260.21055 C256.0256,260.07405 256.3781,260.20755 256.5131,260.50605"/><path id="Fill-55" fill="#D18682" d="M249.49985,259.6242 C249.63485,259.9227 249.50285,260.2752 249.20285,260.4102 C248.90435,260.5467 248.55185,260.4132 248.41685,260.1147 C248.28185,259.8147 248.41385,259.4637 248.71385,259.3272 C249.01235,259.1922 249.36485,259.3257 249.49985,259.6242"/><path id="Fill-57" fill="#D18682" d="M225.33605,256.52685 C225.47105,256.82685 225.33905,257.17785 225.03905,257.31285 C224.74055,257.44935 224.38805,257.31585 224.25305,257.01735 C224.11805,256.71735 224.25005,256.36635 224.55005,256.23135 C224.84855,256.09485 225.20105,256.22835 225.33605,256.52685"/><path id="Fill-59" fill="#D18682" d="M237.26105,264.27285 C237.22955,264.59985 236.94005,264.83835 236.61305,264.80685 C236.28605,264.77685 236.04605,264.48585 236.07755,264.15885 C236.10905,263.83335 236.40005,263.59335 236.72555,263.62485 C237.05255,263.65635 237.29255,263.94585 237.26105,264.27285"/><path id="Fill-61" fill="#D18682" d="M241.79765,263.03505 C241.76615,263.36205 241.47665,263.60205 241.14965,263.57055 C240.82265,263.53905 240.58265,263.24955 240.61415,262.92255 C240.64565,262.59555 240.93665,262.35555 241.26215,262.38705 C241.58915,262.41855 241.82915,262.70805 241.79765,263.03505"/><path id="Fill-63" fill="#D18682" d="M260.4884,263.34855 C260.4569,263.67555 260.1674,263.91405 259.8404,263.88405 C259.5134,263.85255 259.2734,263.56305 259.3049,263.23605 C259.3364,262.90905 259.6274,262.66905 259.9529,262.70055 C260.2799,262.73205 260.5199,263.02155 260.4884,263.34855"/><path id="Fill-65" fill="#D18682" d="M257.06135,256.54725 C257.02985,256.87425 256.74035,257.11275 256.41335,257.08275 C256.08635,257.05125 255.84635,256.76175 255.87785,256.43475 C255.90935,256.10775 256.20035,255.86775 256.52585,255.89925 C256.85285,255.93075 257.09285,256.22025 257.06135,256.54725"/><path id="Fill-67" fill="#D18682" d="M258.7865,250.47045 C258.755,250.79745 258.4655,251.03595 258.1385,251.00595 C257.8115,250.97445 257.5715,250.68495 257.603,250.35795 C257.6345,250.03095 257.9255,249.79095 258.251,249.82245 C258.578,249.85395 258.818,250.14345 258.7865,250.47045"/><path id="Fill-69" fill="#D18682" d="M232.0835,262.22505 C232.052,262.55205 231.7625,262.79055 231.4355,262.75905 C231.1085,262.72755 230.8685,262.43805 230.9,262.11105 C230.9315,261.78555 231.2225,261.54555 231.548,261.57555 C231.875,261.60705 232.115,261.89805 232.0835,262.22505"/><path id="Fill-71" fill="#597EF7" d="M282.6452,440.23215 C282.6452,440.23215 335.4482,324.53265 329.9477,313.53015 C325.1327,303.90165 297.3527,286.58865 248.3852,284.53365 C241.3907,284.23965 235.4132,307.93365 227.7407,308.46165 C223.0637,308.78415 217.2752,286.37415 213.0227,286.14915 C172.7792,284.02365 157.5752,294.72315 157.5752,294.72315 C157.5752,294.72315 151.7207,332.53515 157.6322,371.38965 C160.8587,392.59065 166.0112,415.97715 172.3127,435.39315 C165.3107,447.89715 178.0382,456.77415 178.0382,456.77415 C178.0382,456.77415 257.9327,454.57815 276.9392,455.57865 C285.8147,451.77465 282.6452,440.23215 282.6452,440.23215"/><path id="Fill-73" fill="#597EF7" d="M205.4696,288.771 L211.2701,276.786 L221.9441,277.7385 L232.4156,304.6155 L242.0696,279.072 L269.1596,274.3485 L275.1026,289.563 C275.1026,289.563 257.5271,317.52 224.1596,312.387 C207.6776,309.8505 205.4696,288.771 205.4696,288.771"/><path id="Stroke-75" fill="#1D39C4" fill-rule="nonzero" d="M154.9903,333.214791 C155.30794,333.209244 155.57052,333.461661 155.576788,333.7793 L155.610489,334.902292 C155.621441,335.212123 155.634502,335.551305 155.64987,335.919263 L155.725873,337.574786 C155.783396,338.729519 155.854891,339.985587 155.94194,341.338398 L155.986768,342.022844 C156.426357,348.620357 157.129556,356.02928 158.154915,364.079467 C161.084556,387.080361 166.005123,410.606739 173.383702,433.296754 C173.445216,433.485918 173.404639,433.693438 173.276404,433.845499 L173.171813,433.974914 C173.068794,434.106464 172.927465,434.296701 172.757885,434.541309 C172.358244,435.117765 171.957801,435.777592 171.583972,436.50869 C169.283334,441.008049 169.059784,445.726109 172.236228,450.151456 C173.372205,451.734073 174.930027,453.240531 176.943972,454.657191 L177.238,454.86 L276.913844,454.861414 C277.037057,454.856203 277.264599,454.822112 277.566018,454.737402 L277.722743,454.690727 C278.369283,454.487564 279.01814,454.142512 279.626071,453.620837 C282.063817,451.528971 283.165867,447.330532 282.077214,440.320427 C282.059412,440.205798 282.076682,440.088466 282.126758,439.983828 L282.558199,439.077674 C285.185898,433.53153 288.513774,426.026761 292.393326,416.955673 L294.19032,412.735166 L295.169932,410.419576 C298.52211,402.47899 302.025889,394.014409 305.498516,385.509465 L307.758335,379.958375 L311.336044,371.093508 C311.454035,370.798529 311.788814,370.655052 312.083792,370.773044 C312.378771,370.891035 312.522248,371.225814 312.404256,371.520792 L310.129116,377.170314 C309.290592,379.24416 308.38763,381.469482 307.431395,383.816728 L305.694507,388.070565 C302.79606,395.152844 299.886484,402.179239 297.07143,408.870113 L295.249546,413.184265 L293.450445,417.409717 C289.565636,426.493079 286.232438,434.009788 283.597252,439.57166 L283.24,440.32 L283.281235,440.591674 C284.287416,447.553065 283.145078,451.972776 280.543339,454.345281 L280.375295,454.493942 C279.194738,455.506996 278.005026,455.920972 277.112584,455.999985 L276.93815,456.0114 L177.06065,456.0114 C176.945939,456.0114 176.833847,455.977104 176.738774,455.912919 C174.402108,454.335391 172.601508,452.633368 171.301576,450.822334 C167.836657,445.99509 168.081306,440.831742 170.559616,435.984911 C170.957911,435.205964 171.384744,434.502654 171.81238,433.885817 C171.912697,433.741117 172.008453,433.607915 172.098628,433.486621 L172.195,433.359 L171.710285,431.853648 C164.819849,410.246756 160.133157,387.926221 157.249753,366.047051 L157.013635,364.224833 C156.039385,356.575899 155.355033,349.503234 154.910662,343.15129 L154.838813,342.099331 C154.69982,340.013264 154.596522,338.143266 154.523572,336.504822 L154.46069,334.942467 L154.425791,333.802 C154.420244,333.48436 154.672661,333.22178 154.9903,333.214791 Z"/><path id="Stroke-77" fill="#1D39C4" fill-rule="nonzero" d="M274.840162,289.498184 C275.138736,289.389611 275.468794,289.543638 275.577366,289.842212 C275.675081,290.110929 275.560091,290.405147 275.318455,290.540453 L275.233338,290.579416 L254.311338,298.187416 C254.012764,298.295989 253.682706,298.141962 253.574134,297.843388 C253.476419,297.574671 253.591409,297.280453 253.833045,297.145147 L253.918162,297.106184 L274.840162,289.498184 Z"/><path id="Stroke-79" fill="#1D39C4" fill-rule="nonzero" d="M232.454923,304.040887 C232.771859,304.062936 233.010912,304.337737 232.988863,304.654673 L232.909816,305.933028 L232.83368,307.337463 C232.800116,307.995088 232.767102,308.696287 232.73538,309.437054 C232.436496,316.416554 232.371456,323.710762 232.686125,330.526716 C232.847267,334.01718 233.104983,337.24459 233.468807,340.154892 C233.508217,340.47014 233.284606,340.757647 232.969358,340.797057 C232.65411,340.836467 232.366603,340.612856 232.327193,340.297608 C231.959349,337.355147 231.699293,334.098432 231.536849,330.579774 C231.220383,323.724907 231.28571,316.398618 231.585933,309.387831 L231.684694,307.27846 L231.805601,305.123823 L231.841137,304.574827 C231.863186,304.257891 232.137987,304.018838 232.454923,304.040887 Z"/><path id="Fill-81" fill="#FFC2BD" d="M395.41835,513.03405 C395.41835,513.03405 388.97885,516.97005 384.97835,510.12855 C377.71385,511.83705 377.24735,502.39755 376.50485,498.37755 C374.76935,488.98755 375.03785,484.03155 385.67285,471.87405 C385.67285,471.87405 394.25435,461.82405 407.46935,461.42955 C424.04435,460.93605 422.60735,477.89355 422.60735,477.89355 C423.39635,490.18455 422.94185,492.22455 423.24785,499.48605 C423.49985,505.47105 420.14285,509.12355 414.73235,508.07955 C414.73235,508.07955 410.91485,512.82255 405.36035,510.80055 C400.71035,514.97655 395.41835,513.03405 395.41835,513.03405"/><path id="Stroke-83" fill="#D18682" fill-rule="nonzero" d="M383.572925,493.730855 C383.911997,493.601662 384.291601,493.771803 384.420795,494.110875 L384.472052,494.268703 C384.62035,494.80589 384.666549,495.80738 384.670427,498.208964 L384.658891,503.089677 C384.661946,504.71277 384.684927,505.723365 384.741279,506.536392 C384.828163,507.790492 385.127152,508.84573 385.568588,509.714732 C385.750845,510.07352 385.94423,510.373682 386.134983,510.616802 L386.249049,510.756031 L386.353628,510.868596 C386.619666,511.115345 386.635302,511.53104 386.388554,511.797078 C386.141805,512.063116 385.72611,512.078752 385.460072,511.832004 C385.174944,511.567549 384.780755,511.065146 384.397074,510.309838 C383.87713,509.286287 383.529687,508.060038 383.430422,506.627229 L383.402549,506.159771 C383.364029,505.398903 383.347514,504.463298 383.344887,503.109104 L383.355349,498.426114 C383.351466,496.05729 383.309927,494.959856 383.205263,494.615184 L383.192905,494.578725 C383.063712,494.239653 383.233853,493.860049 383.572925,493.730855 Z"/><path id="Stroke-85" fill="#D18682" fill-rule="nonzero" d="M380.744844,494.145746 C381.074706,494.146932 381.346923,494.391003 381.392717,494.707984 L381.399494,494.805095 L381.407634,495.030837 L381.413029,495.116777 C381.430444,495.37269 381.462168,495.658504 381.511749,495.966342 C381.652596,496.840831 381.906529,497.713271 382.298854,498.521207 C382.742167,499.434147 383.336288,500.207417 384.1003,500.803879 C384.386313,501.027168 384.43716,501.440038 384.213871,501.72605 C383.990582,502.012063 383.577712,502.06291 383.2917,501.839621 C382.359943,501.112201 381.643459,500.179672 381.116842,499.095179 C380.391368,497.601171 380.119977,496.116841 380.088622,495.028827 L380.085499,494.801888 C380.086798,494.437556 380.381995,494.144459 380.744844,494.145746 Z"/><path id="Fill-87" fill="#FFC2BD" d="M421.78265,468.8376 C421.14365,446.7396 422.15165,394.8426 415.46615,365.1021 C415.46615,365.1021 407.62865,334.2621 376.87415,340.3881 C346.88615,346.3626 356.61965,377.5146 356.61965,377.5146 C366.66065,412.5831 379.79315,453.4041 384.62915,473.1321 C384.62915,473.1321 387.80765,483.5931 403.09565,483.0516 C421.23515,482.4096 421.78265,468.8376 421.78265,468.8376"/><path id="Fill-89" fill="#FFC2BD" d="M295.9196,363.8874 C286.9331,359.0589 264.7271,343.8369 275.8196,318.3564 C284.6891,297.9804 304.3511,297.1974 318.0761,300.9579 C338.9966,306.6909 368.2151,323.2914 392.0741,338.2659 C392.0741,338.2659 419.7491,354.3279 404.3306,381.1524 C391.2821,403.8534 367.3616,392.4189 367.3616,392.4189 C367.3616,392.4189 306.1916,369.4059 295.9196,363.8874"/><path id="Fill-91" fill="#597EF7" d="M337.802,382.29975 C327.2585,378.10725 295.76,366.96225 292.292,365.11425 C282.659,359.98425 261.2615,343.38225 273.152,316.30125 C282.6605,294.64575 303.656,294.11925 318.449,297.81075 C328.646,300.35625 357.2765,314.66325 367.979,319.91475 L337.802,382.29975 Z"/><path id="Stroke-93" fill="#1D39C4" fill-rule="nonzero" d="M367.777803,319.805106 C367.916147,319.519107 368.260145,319.399409 368.546144,319.537753 C368.803543,319.662263 368.926238,319.953352 368.847351,320.218818 L368.813497,320.306094 L338.636497,382.691094 C338.505152,382.962624 338.18638,383.086592 337.906096,382.97514 L319.748865,375.728106 L310.809633,372.122089 C301.845,368.484938 296.183409,366.108224 294.744126,365.341271 C294.463748,365.191865 294.357573,364.843455 294.506979,364.563076 C294.656385,364.282698 295.004795,364.176523 295.285174,364.325929 L295.447521,364.410072 C297.347021,365.371814 304.600716,368.382837 315.742931,372.87614 L328.451678,377.97222 L337.833,381.708 L367.777803,319.805106 Z"/><path id="Fill-95" fill="#4E5C93" d="M101.66705,801.2223 L59.16755,791.1828 C49.40405,778.2678 63.49055,763.4328 63.49055,763.4328 L82.40105,635.3313 C84.94655,618.2553 100.25405,607.1478 116.08655,610.8888 C131.91905,614.6283 141.91655,631.7133 138.08705,648.4863 L108.76355,776.3673 C108.76355,776.3673 115.38755,794.7543 101.66705,801.2223"/><path id="Fill-97" fill="#4E5C93" d="M325.3988,651.987 L325.3988,651.987 C312.4928,660.993 297.5168,660.5895 291.3593,651.0675 L229.1438,558.7455 C220.8458,545.9145 230.1038,523.6425 247.4963,511.5045 C264.8873,499.3665 284.9783,500.9445 291.5708,514.965 L339.7073,617.3265 C344.6003,627.7305 338.3048,642.981 325.3988,651.987"/><path id="Fill-99" fill="#4E5C93" d="M415.9994,549.1476 L435.6719,592.5156 C433.6379,608.6646 415.8944,604.8816 415.8944,604.8816 L325.2224,662.8821 C313.1219,670.5921 296.9384,663.5571 289.6094,647.4006 C282.2789,631.2426 286.7489,612.4581 299.4449,606.0576 L396.3209,557.3766 C396.3209,557.3766 403.6484,540.8061 415.9994,549.1476"/><path id="Fill-101" fill="#FFC2BD" d="M42.5474,248.6079 C45.7034,273.5889 50.4404,332.4879 60.9089,365.5674 C60.9089,365.5674 72.7289,399.7869 104.8709,389.9949 C136.2089,380.4474 122.3294,346.0494 122.3294,346.0494 C107.6849,307.2444 89.0939,262.2054 81.7229,240.2994 C81.7229,240.2994 77.1584,228.7404 60.9014,230.7699 C41.6114,233.1789 42.5474,248.6079 42.5474,248.6079"/><path id="Fill-103" fill="#FFC2BD" d="M64.17875,197.9616 C64.17875,197.9616 70.48175,192.7641 75.70325,200.0316 C83.19875,197.2551 85.02125,207.8721 86.37725,212.3286 C89.54375,222.7416 89.95475,228.3741 80.33975,243.3531 C80.33975,243.3531 72.61475,255.7101 58.59875,257.6916 C41.02025,260.1771 40.16675,240.8421 40.16675,240.8421 C37.60025,227.0421 37.79675,224.6811 36.45125,216.5106 C35.34125,209.7741 38.40275,205.2561 44.31125,205.8066 C44.31125,205.8066 47.70875,200.0001 53.90675,201.6426 C58.27175,196.3821 64.17875,197.9616 64.17875,197.9616"/><path id="Stroke-105" fill="#D18682" fill-rule="nonzero" d="M76.4994561,199.843521 C76.6032463,200.282922 76.3311798,200.723266 75.8917787,200.827056 L75.1891626,200.998754 L74.4842415,201.176749 C74.1173095,201.27064 73.7294506,201.371755 73.3241761,201.479576 C71.3951743,201.992774 69.4665945,202.551892 67.6694987,203.137232 L66.7875496,203.430396 C64.3481659,204.258479 62.4216813,205.063343 61.1964474,205.80565 C60.4676392,206.247198 60.0442896,206.639288 59.9548347,206.883005 C59.6356107,207.75317 60.9774627,209.109578 63.356954,209.812918 C66.3035078,210.683873 69.810034,210.307886 72.9237091,208.475408 C73.3765455,208.208902 73.9484408,208.434061 74.1117019,208.914242 L74.1402395,209.020955 L75.0027395,213.370955 C75.0636565,213.678188 74.9436767,213.993219 74.6938166,214.182093 L74.4389018,214.382677 L74.2414048,214.543507 C73.8709728,214.848195 73.4570508,215.205619 73.0105671,215.612509 C71.7327068,216.777051 70.4542555,218.101073 69.262563,219.557476 C64.2262423,225.712515 62.3151459,232.103968 65.2297053,238.23654 C65.4235074,238.644322 65.2500423,239.132003 64.8422599,239.325805 C64.4344776,239.519607 63.9467969,239.346142 63.7529947,238.93836 C60.5101245,232.114984 62.6035249,225.113834 67.9971811,218.522086 C69.2427915,216.999788 70.5757361,215.61933 71.9092717,214.40405 C72.2832756,214.063212 72.6363366,213.754765 72.9629081,213.480263 L73.301,213.199 L72.751,210.423 L72.6865287,210.455583 C69.5716854,211.964458 66.1892586,212.257282 63.2327071,211.475789 L62.893496,211.380857 C59.7322332,210.446437 57.6705619,208.362401 58.419912,206.319767 C58.6716657,205.633871 59.3280349,205.025967 60.3492404,204.407271 C61.8533316,203.496018 64.1938312,202.549764 67.1631387,201.582618 C68.9918379,200.986985 70.9480384,200.419859 72.9038169,199.899537 L74.0792814,199.592694 L75.5159213,199.235844 C75.9553224,199.132054 76.3956659,199.40412 76.4994561,199.843521 Z"/><path id="Stroke-107" fill="#D18682" fill-rule="nonzero" d="M45.6367978,205.788145 C45.9851542,205.500928 46.5003881,205.550491 46.787605,205.898848 L47.1192505,206.315295 L47.442695,206.735585 C47.6108994,206.95717 47.7884816,207.195661 47.9738864,207.449925 C48.8557225,208.659273 49.737282,209.980045 50.561027,211.370903 C51.97913,213.765309 53.0761373,216.11432 53.7263974,218.336316 C53.8337335,218.703092 53.9283559,219.065039 54.0097996,219.421753 C54.6886534,222.39195 53.0892267,224.239477 50.344225,224.207156 C50.2553715,224.20611 50.1659737,224.203114 50.0761022,224.198201 L49.975,224.19 L50.382601,224.602211 L50.9989955,225.248398 C53.7192563,228.150708 55.752704,231.009698 56.8180976,233.728771 C57.7517128,236.111522 57.9114765,238.328231 57.1570447,240.313766 C56.9966798,240.73582 56.5245367,240.94796 56.1024836,240.787595 C55.6804305,240.62723 55.4682903,240.155087 55.6286553,239.733034 C56.2229769,238.168881 56.0925075,236.358628 55.2957834,234.325247 C54.3197148,231.834148 52.3969366,229.130757 49.8060679,226.366499 C48.819621,225.314035 47.7815952,224.300901 46.7288325,223.343936 L46.412,223.06 L46.2173471,222.949978 C45.2355737,222.372667 44.3164582,221.616277 43.5542571,220.722434 L43.3503453,220.475282 C42.7507784,219.72388 43.7147176,218.733747 44.4819205,219.312958 L45.050988,219.758609 C45.4966656,220.114942 45.9925362,220.525004 46.5261372,220.983341 C46.7438598,221.170354 46.9615825,221.359955 47.1790155,221.552018 L47.368,221.721 L47.6020985,221.841503 C48.4491693,222.259864 49.3209903,222.513062 50.1245485,222.563318 L50.363475,222.572269 C52.0774254,222.59245 52.852652,221.696972 52.4158591,219.785867 C52.3418218,219.461592 52.2554926,219.131368 52.1572115,218.795533 C51.550216,216.721377 50.5083337,214.490403 49.1542431,212.20408 C48.3588946,210.861168 47.5057111,209.58291 46.6528043,208.413235 L46.305873,207.943638 C46.1940011,207.794242 46.0860559,207.652099 45.9825017,207.517554 L45.526095,206.938952 C45.238878,206.590596 45.2884414,206.075362 45.6367978,205.788145 Z"/><path id="Stroke-109" fill="#D18682" fill-rule="nonzero" d="M53.1566387,201.140438 C53.5262621,200.881161 54.0360862,200.970615 54.2953625,201.340239 L54.6283295,201.825561 L55.1301534,202.576735 C55.2480705,202.755574 55.3700188,202.942101 55.4955267,203.135813 C56.391771,204.519101 57.2880005,205.986849 58.1254405,207.47673 C58.8103308,208.695211 59.426627,209.877668 59.9575601,211.00689 C61.9822138,215.313052 62.6563476,218.497206 61.3707288,220.330352 C60.7622329,221.197296 60.0918619,221.87814 59.3674209,222.38231 C57.5420737,223.65265 55.5890656,223.717712 53.7970411,223.071549 C53.3866111,222.923558 53.0792994,222.771686 52.8946193,222.659661 C52.5085937,222.425503 52.3854808,221.922745 52.6196389,221.536719 C52.853797,221.150694 53.3565552,221.027581 53.7425807,221.261739 L53.8768386,221.334279 C53.9905105,221.390713 54.1512688,221.461235 54.3516328,221.533481 C55.6879473,222.015325 57.1000715,221.968282 58.4334667,221.040314 C58.9959185,220.648879 59.5311775,220.105258 60.0322927,219.391303 C60.8358626,218.245503 60.2473815,215.465915 58.4779466,211.702569 C57.9650519,210.611712 57.3667354,209.463752 56.7001621,208.277858 C55.8809203,206.820354 55.0021335,205.381172 54.1233616,204.024851 L53.5953883,203.220387 L52.9894587,202.325891 C52.9771706,202.308219 52.9662854,202.29263 52.9568375,202.279161 C52.6975612,201.909538 52.7870152,201.399714 53.1566387,201.140438 Z"/><path id="Stroke-111" fill="#D18682" fill-rule="nonzero" d="M68.4575518,210.644318 C68.8975746,210.543196 69.3362593,210.817929 69.4373816,211.257952 L69.5890991,211.935423 C70.6162107,216.656949 70.3377768,218.548377 68.024236,220.459365 C65.8313855,222.270472 63.641491,222.355947 61.773551,221.382758 C61.3379349,221.155804 61.0204726,220.923447 60.8324137,220.75087 C60.4997618,220.445602 60.4775626,219.928466 60.7828305,219.595814 C61.0626593,219.290883 61.5205164,219.246818 61.8511093,219.476726 L61.9378863,219.54623 C62.0272685,219.628255 62.2315892,219.777801 62.5289987,219.93275 C63.8478466,220.619864 65.3325567,220.561913 66.9830315,219.198762 C68.7812384,217.713441 68.9185929,216.300477 67.8439184,211.624148 C67.742796,211.184125 68.0175291,210.745441 68.4575518,210.644318 Z"/><path id="Stroke-113" fill="#D18682" fill-rule="nonzero" d="M64.1518695,197.813686 C64.5502676,197.601261 65.0454381,197.752021 65.2578637,198.150419 L65.620172,198.846238 C65.8907326,199.374041 66.1613467,199.91825 66.4144735,200.450165 L66.6516135,200.956549 C66.8414179,201.369007 67.0077158,201.749412 67.1465765,202.09183 C67.3162494,202.510228 67.1146179,202.986954 66.69622,203.156626 C66.277822,203.326299 65.8010964,203.124668 65.6314235,202.70627 C65.5028908,202.38932 65.3463521,202.031239 65.166332,201.640043 L64.9381176,201.152731 C64.7744284,200.808758 64.6026809,200.45844 64.4282314,200.110683 L63.8151363,198.919681 C63.6027107,198.521282 63.7534713,198.026112 64.1518695,197.813686 Z"/><path id="Fill-115" fill="#4E5C93" d="M236.4122,563.8935 L299.7362,535.0245 C299.7362,535.0245 293.4617,489.2445 277.5332,464.5185 C274.9982,457.5465 273.9677,452.316 273.9677,452.316 C273.9677,452.316 211.2047,442.806 176.9702,454.851 L175.7012,466.263 C175.7012,466.263 170.2742,479.169 167.4602,490.9875 C162.7052,510.957 159.2657,531.7965 159.2657,531.7965 L216.1397,564.456 L236.4122,563.8935 Z"/><path id="Fill-117" fill="#253368" d="M175.5431,466.4214 C223.8041,460.2399 277.7711,463.7814 277.7711,463.7814 L275.8691,450.2304 C275.8691,450.2304 214.5326,442.3854 176.6531,452.5284 C175.7801,459.0264 175.5431,466.4214 175.5431,466.4214"/><path id="Stroke-119" fill="#253368" fill-rule="nonzero" d="M218.697478,463.657924 C219.163701,463.671872 219.531116,464.060355 219.518122,464.526578 L219.472954,466.563261 C219.463184,467.075017 219.453573,467.62842 219.444339,468.22185 C219.172077,485.717681 219.533357,505.981862 221.02881,525.245473 L221.212424,527.531835 C222.186005,539.256726 223.546546,549.610375 225.338801,558.238801 C225.433655,558.695458 225.140357,559.142546 224.683699,559.237401 C224.227042,559.332255 223.779954,559.038957 223.685099,558.582299 C221.760663,549.317516 220.333418,538.11006 219.344876,525.376199 C217.891551,506.655255 217.506281,487.00783 217.731825,469.848289 L217.776944,466.923845 L217.829778,464.479522 C217.842772,464.013299 218.231255,463.645884 218.697478,463.657924 Z"/><path id="Stroke-121" fill="#253368" fill-rule="nonzero" d="M237.241367,463.658004 C237.707691,463.650061 238.092721,464.021092 238.101355,464.487417 L238.233329,471.958601 C238.292714,475.42341 238.352099,479.01176 238.410059,482.665219 L238.576513,493.644403 C238.619425,496.621695 238.659442,499.534209 238.696153,502.365106 L238.84709,515.451045 C238.91149,522.010663 238.946,527.615469 238.946,532.07655 C238.946,535.721167 235.681911,538.346259 230.358937,540.229623 C228.562814,540.865124 226.645484,541.370791 224.729125,541.761114 C224.058987,541.897608 223.436325,542.010049 222.876643,542.100036 L222.160724,542.206651 C221.69813,542.266146 221.274893,541.939368 221.215399,541.476774 C221.155904,541.01418 221.482682,540.590943 221.945276,540.531449 L222.608525,540.432453 L223.282323,540.318163 C223.633184,540.255669 224.004227,540.185083 224.392031,540.106095 C226.23704,539.730305 228.081076,539.243968 229.795563,538.637352 C234.502902,536.97181 237.257,534.75687 237.257,532.07655 L237.247339,527.644216 C237.22975,523.293319 237.188486,518.164565 237.12634,512.372898 L237.028915,504.075069 C236.993553,501.278342 236.954803,498.396594 236.913077,495.446675 L236.750119,484.523483 L236.412645,464.518683 C236.404011,464.052359 236.775042,463.667329 237.241367,463.658004 Z"/><path id="Fill-123" fill="#E1E7F3" d="M234.34415,462.0612 L234.34415,448.5252 C234.34415,446.7567 232.99565,445.3092 231.28865,445.2582 C225.62765,445.0887 213.04715,444.9372 201.63515,446.3847 C200.04365,446.5872 198.84215,447.9747 198.84215,449.6337 L198.84215,462.3612 C198.84215,464.1807 200.26865,465.6507 202.02815,465.6282 C208.49615,465.5487 223.23365,465.3732 231.21365,465.3297 C232.95065,465.3192 234.34415,463.8597 234.34415,462.0612"/><path id="Fill-125" fill="#253368" d="M230.6825,459.7248 L230.6795,450.7653 C230.678,449.5953 229.577,448.6368 228.185,448.6038 C223.5665,448.4928 213.302,448.3983 203.993,449.3598 C202.694,449.4933 201.7145,450.4128 201.7145,451.5108 L201.7175,459.9348 C201.7175,461.1393 202.883,462.1113 204.3185,462.0978 C209.5955,462.0423 221.6195,461.9208 228.1295,461.8893 C229.5455,461.8818 230.6825,460.9143 230.6825,459.7248"/><polygon id="Fill-127" fill="#E1E7F3" points="201.814 447.63 231.784 461.005 230.547 463.729 200.328 450.106"/><polygon id="Fill-129" fill="#E1E7F3" points="200.526 460.576 230.567 447.356 231.753 450.104 201.363 463.34"/><path id="Stroke-131" fill="#253368" fill-rule="nonzero" d="M262.171537,461.700096 C262.595744,461.626601 263.000807,461.883387 263.123237,462.284782 L263.156316,462.436164 L263.204362,462.694639 C263.253075,462.950655 263.312519,463.248381 263.382973,463.584321 C263.584833,464.546839 263.834091,465.620466 264.132925,466.77718 C264.986394,470.080754 266.064468,473.383435 267.382663,476.459457 C271.965289,487.153069 278.097416,492.328525 286.038752,489.402769 C286.476399,489.241531 286.961892,489.465604 287.123131,489.903252 C287.284369,490.340899 287.060296,490.826392 286.622648,490.987631 C277.573154,494.321655 270.721698,488.539092 265.830208,477.124744 C264.474876,473.962059 263.371025,470.580412 262.497616,467.199658 C262.242972,466.21399 262.02338,465.286671 261.837458,464.433718 L261.677531,463.678435 L261.483596,462.676363 C261.403977,462.216805 261.711978,461.779715 262.171537,461.700096 Z"/><path id="Stroke-133" fill="#253368" fill-rule="nonzero" d="M188.149662,463.186077 C188.615999,463.194254 188.98761,463.578725 188.979678,464.045062 L188.969571,464.39331 C188.959705,464.670281 188.944999,464.990715 188.924499,465.351019 C188.866099,466.377444 188.773051,467.519941 188.637666,468.749821 C188.25058,472.266232 187.601412,475.78407 186.626259,479.076049 C183.456371,489.77715 177.611477,495.777515 168.447904,494.260866 C167.987759,494.184708 167.676477,493.749949 167.752634,493.289804 C167.828792,492.829659 168.263551,492.518377 168.723696,492.594534 C176.833113,493.936712 182.048756,488.582336 185.006816,478.596336 C185.950404,475.410913 186.581931,471.988676 186.958807,468.565012 C187.068808,467.565723 187.150092,466.62624 187.206984,465.763427 L187.252038,465.001445 L187.288048,464.135512 C187.289555,464.082553 187.290474,464.042678 187.290922,464.016338 C187.298854,463.550001 187.683325,463.17839 188.149662,463.186077 Z"/><path id="Fill-135" fill="#4E5C93" d="M260.1533,739.54515 C263.0483,739.54515 263.0528,735.04515 260.1533,735.04515 C257.2583,735.04515 257.2523,739.54515 260.1533,739.54515"/></g></svg>