<svg xmlns="http://www.w3.org/2000/svg" xmlns:xlink="http://www.w3.org/1999/xlink" width="512" height="1024" version="1.1" viewBox="0 0 512 1024"><title>2.人物组件/2.保安/起身/打招呼</title><desc>Created with Sketch.</desc><defs><polygon id="path-1" points=".366 .289 71.347 .289 71.347 74.942 .366 74.942"/><polygon id="path-3" points=".078 1.137 56.392 1.137 56.392 73.5 .078 73.5"/></defs><g id="2.人物组件/2.保安/起身/打招呼" fill="none" fill-rule="evenodd" stroke="none" stroke-width="1"><path id="Fill-1" fill="#4E5C93" d="M14.0158,437.6767 L29.3878,372.5572 C29.8813,370.4707 31.9078,369.1447 33.9898,369.5482 L120.3598,385.4152 C122.5663,385.8427 123.9823,388.0417 123.4783,390.2587 L107.5393,460.3927 C107.0443,462.5722 104.8828,463.9222 102.7348,463.3927 L16.9333,442.5097 C14.8123,441.9862 13.5088,439.8262 14.0158,437.6767"/><path id="Fill-3" fill="#253368" d="M10.0915,437.37265 L25.762,370.98715 C26.173,369.24715 27.8635,368.14165 29.5975,368.47765 L117.259,384.59515 C119.0995,384.95215 120.28,386.78365 119.86,388.63165 L103.618,460.10215 C103.204,461.91865 101.4025,463.04365 99.613,462.60265 L12.523,441.40165 C10.7545,440.96515 9.6685,439.16365 10.0915,437.37265"/><path id="Fill-5" fill="#4E5C93" d="M376.89865,620.4811 L376.89865,620.4811 C386.11915,608.3971 384.23815,591.2026 372.61915,581.4001 L258.32365,484.9636 C242.66815,471.7546 219.14515,474.3301 206.71765,490.6141 C194.29165,506.8981 198.01615,530.2666 214.88965,541.8811 L338.07415,626.6686 C350.59615,635.2876 367.67665,632.5651 376.89865,620.4811"/><path id="Fill-7" fill="#FFC2BD" d="M346.8445,316.8586 C341.389,308.7781 324.7975,289.1356 301.8445,302.2216 C283.489,312.6871 284.977,331.3906 289.6345,344.1886 C297.6805,366.3001 315.727,389.7301 332.251,410.9731 C332.251,410.9731 350.1805,435.7396 373.9705,418.3996 C394.1035,403.7266 380.917,382.0771 380.917,382.0771 C380.917,382.0771 353.08,326.0956 346.8445,316.8586"/><path id="Fill-9" fill="#597EF7" d="M366.28435,353.6407 C361.57735,344.6632 348.74185,317.7157 346.77685,314.8057 C341.32135,306.7252 324.57835,289.2607 301.62685,302.3467 C283.27135,312.8122 284.75785,331.5157 289.41535,344.3137 C292.62685,353.1382 308.00335,377.2417 313.66735,386.2627 L366.28435,353.6407 Z"/><path id="Stroke-11" fill="#1D39C4" fill-rule="nonzero" d="M366.875977,353.637043 C367.025705,353.878544 366.951309,354.195699 366.709807,354.345427 L314.092807,386.967427 C313.858077,387.112957 313.550318,387.047199 313.39556,386.818447 L308.314094,379.307383 C308.154873,379.072033 308.216587,378.752169 308.451938,378.592947 C308.687288,378.433725 309.007152,378.495439 309.166374,378.73079 L313.97,385.832 L366.167593,353.470873 C366.409094,353.321145 366.726249,353.395541 366.875977,353.637043 Z"/><path id="Fill-13" fill="#FFC2BD" d="M298.91035,268.94575 L314.79985,215.77075 L265.28785,198.91375 L247.10935,252.41125 C242.28385,266.61325 249.86785,282.04075 264.06235,286.89175 C278.66635,291.88225 294.49135,283.73275 298.91035,268.94575"/><path id="Fill-15" fill="#FFC2BD" d="M308.60545,181.1803 C308.60545,181.1803 283.45045,164.5798 271.55545,174.9283 C259.98745,184.9933 244.03645,230.1853 256.08895,241.9918 C265.91395,251.6128 290.77645,257.1493 303.93595,237.1858 C303.93595,237.1858 314.45695,222.0163 317.76595,206.3998 C321.07345,190.7833 308.60545,181.1803 308.60545,181.1803"/><path id="Fill-17" fill="#FFC2BD" d="M308.4304,223.98235 C308.4304,223.98235 320.8369,212.13385 323.8819,221.87635 C326.9269,231.61885 312.4204,242.75335 304.2229,239.29285 C296.0239,235.83085 308.4304,223.98235 308.4304,223.98235"/><g id="分组" transform="translate(257.500000, 152.210500)"><mask id="mask-2" fill="#fff"><use xlink:href="#path-1"/></mask><path id="Fill-19" fill="#253368" d="M0.36615,47.1888 C0.36615,47.1888 2.69115,28.5588 10.56915,19.1868 C18.44865,9.8148 27.52815,0.8508 29.48865,7.8798 C31.00815,5.3838 36.44715,1.2093 39.76065,0.3273 C43.07415,-0.5532 47.49165,14.0103 47.49165,14.0103 C47.49165,14.0103 48.73065,8.4048 50.90715,12.8298 C53.08515,17.2533 69.71565,34.3023 71.17815,40.8273 C72.63915,47.3523 64.12515,66.6108 64.12515,66.6108 C64.12515,66.6108 57.87765,63.8148 50.23815,74.9418 C54.51015,65.3463 52.15065,58.7673 50.70465,56.0778 C50.15565,55.0578 50.05065,53.8638 50.33865,52.7418 C50.89365,50.5908 51.85515,46.9878 52.93815,43.5183 C53.41665,41.9898 52.73415,40.3578 51.32865,39.5898 C37.01265,31.7763 19.48215,28.4508 13.17615,27.4488 C11.74815,27.2223 10.35015,27.9528 9.70815,29.2473 L4.37565,39.9903 C4.37565,39.9903 2.90715,41.6913 0.36615,47.1888" mask="url(#mask-2)"/></g><path id="Stroke-21" fill="#253368" fill-rule="nonzero" d="M284.058766,207.266799 C284.16012,206.618796 284.735961,206.162845 285.377079,206.197463 L285.506051,206.211016 L295.815551,207.823516 C295.951443,207.844771 296.082658,207.887965 296.204157,207.951136 L296.322229,208.020892 L300.939229,211.097392 C301.521425,211.485333 301.678899,212.271784 301.290958,212.853979 C300.928879,213.397362 300.219655,213.570765 299.653355,213.27606 L299.534371,213.205708 L295.148,210.283 L285.114549,208.714084 C284.466546,208.61273 284.010595,208.036889 284.045213,207.395771 L284.058766,207.266799 Z"/><path id="Stroke-23" fill="#253368" fill-rule="nonzero" d="M262.356054,196.459119 L266.466054,196.685619 C266.646828,196.695582 266.822827,196.744142 266.982416,196.827426 L267.098849,196.896339 L275.831849,202.716339 C276.414019,203.104319 276.571441,203.89078 276.183461,204.472949 C275.821347,205.016308 275.112111,205.189663 274.54583,204.894921 L274.426851,204.824561 L265.981,199.196 L262.216646,198.988781 C261.561758,198.95269 261.050546,198.425295 261.020923,197.783927 L261.021519,197.654246 C261.05761,196.999358 261.585005,196.488146 262.226373,196.458523 L262.356054,196.459119 Z"/><path id="Fill-25" fill="#EFADAB" d="M306.0142,229.60585 C306.0142,229.60585 296.1982,233.01835 290.0017,237.93985 C286.7497,229.04785 281.8462,224.03035 281.8462,224.03035 C281.8462,224.03035 273.3277,226.76485 270.2647,223.96285 C269.5987,222.23035 270.1882,220.89685 270.1882,220.89685 C270.1882,220.89685 263.3452,221.07835 256.9222,225.92485 C256.6552,220.81135 253.5667,213.25585 253.5667,213.25585 C253.5667,213.25585 242.4832,242.27185 263.9362,250.07785 C285.7657,257.51035 297.1552,247.91035 303.0787,238.62535 C304.7317,235.64635 308.3557,227.89135 306.0142,229.60585"/><g id="分组" transform="translate(265.000000, 225.710500)"><path id="Fill-27" fill="#FFF" d="M19.1052,5.451 C19.1052,5.451 9.8967,2.664 0.6567,0.735 C0.6567,0.735 0.3342,6.141 7.0257,8.0355 C13.7172,9.93 19.1052,5.451 19.1052,5.451"/><path id="Stroke-29" stroke="#D18682" stroke-linecap="round" stroke-linejoin="round" stroke-width="1.5" d="M19.1052,5.451 C19.1052,5.451 9.8967,2.664 0.6567,0.735 C0.6567,0.735 0.3342,6.141 7.0257,8.0355 C13.7172,9.93 19.1052,5.451 19.1052,5.451"/></g><path id="Stroke-30" fill="#D18682" fill-rule="nonzero" d="M276.810365,205.239531 C276.892721,204.899773 277.234912,204.691109 277.574669,204.773465 C277.88354,204.848334 278.084069,205.137943 278.0561,205.445245 L278.040735,205.537769 L277.215735,208.941269 L277.141822,209.120348 L276.864854,209.584085 C276.643235,209.958304 276.396153,210.381504 276.129994,210.8449 C275.369542,212.168878 274.609129,213.548648 273.899992,214.913511 C273.559132,215.569561 273.237972,216.207407 272.939837,216.822416 L272.635423,217.460414 C271.115118,220.699831 270.41421,223.038676 270.793598,223.61559 C271.212926,224.253882 273.005379,224.51904 275.611159,224.342789 C276.612313,224.275073 277.684425,224.148943 278.778803,223.981296 C279.226341,223.912739 279.656293,223.8405 280.060888,223.76737 L280.852393,223.617034 C280.961229,223.595227 281.046255,223.57756 281.105183,223.564859 C281.446932,223.491203 281.783684,223.708534 281.857341,224.050283 C281.930997,224.392032 281.713666,224.728784 281.371917,224.802441 L280.692796,224.937845 C280.162936,225.038405 279.582844,225.138894 278.970504,225.232698 C277.843304,225.405373 276.736868,225.535541 275.696594,225.605903 C272.60122,225.815269 270.521848,225.507668 269.735663,224.310954 C268.945234,223.108992 269.792345,220.412986 271.800635,216.270171 C272.104117,215.644131 272.430514,214.995883 272.776576,214.329823 C273.494681,212.947698 274.263455,211.552759 275.032191,210.214357 L275.602565,209.232234 L276.008,208.547 L276.810365,205.239531 Z"/><g id="分组" transform="translate(266.500000, 236.210500)"><line id="Fill-32" x1="1.222" x2="6.268" y1=".176" y2="1.921" fill="#FFF"/><line id="Stroke-34" x1="1.222" x2="6.268" y1=".176" y2="1.921" stroke="#D18682" stroke-linecap="round" stroke-linejoin="round" stroke-width="2.026"/></g><path id="Fill-35" fill="#253368" d="M289.47535,217.696 C288.88285,219.436 289.41085,221.1895 290.65285,221.6125 C291.89635,222.037 293.38285,220.969 293.97535,219.2275 C294.56935,217.489 294.04135,215.734 292.79785,215.311 C291.55585,214.888 290.06785,215.956 289.47535,217.696"/><path id="Fill-37" fill="#253368" d="M265.8445,209.6503 C265.252,211.3903 265.78,213.1438 267.022,213.5668 C268.2655,213.9913 269.7535,212.9233 270.346,211.1818 C270.9385,209.4433 270.4105,207.6883 269.1685,207.2653 C267.925,206.8423 266.437,207.9103 265.8445,209.6503"/><path id="Stroke-39" fill="#D18682" fill-rule="nonzero" d="M283.391021,227.679031 C283.731719,227.511419 284.137838,227.626072 284.344,227.932626 L284.395069,228.020921 L286.967569,233.249921 C287.150418,233.621591 286.997349,234.071119 286.625679,234.253969 C286.284981,234.421581 285.878862,234.306928 285.6727,234.000374 L285.621631,233.912079 L283.049131,228.683079 C282.866282,228.311409 283.019351,227.861881 283.391021,227.679031 Z"/><path id="Stroke-41" fill="#D18682" fill-rule="nonzero" d="M302.013587,239.108466 C302.20199,238.81398 302.593449,238.727983 302.887934,238.916387 C303.18242,239.10479 303.268417,239.496249 303.080013,239.790734 L302.83964,240.145647 C302.784494,240.2243 302.72182,240.312375 302.651644,240.409376 C302.304448,240.889286 301.891086,241.422686 301.412167,241.996212 C300.04677,243.631334 298.427048,245.265337 296.557353,246.790888 C286.46148,255.028471 273.834972,256.817911 259.020831,248.139277 C258.719186,247.962563 258.617909,247.574776 258.794623,247.273131 C258.971337,246.971486 259.359124,246.870209 259.660769,247.046923 C273.988522,255.440615 286.048532,253.73146 295.756995,245.809979 C297.560677,244.33829 299.124217,242.760965 300.440416,241.184759 C300.808128,240.744408 301.134757,240.329757 301.419876,239.947667 L301.625926,239.667311 C301.821969,239.396332 301.951456,239.205581 302.013587,239.108466 Z"/><path id="Stroke-43" fill="#D18682" fill-rule="nonzero" d="M267.154956,242.127406 C267.420298,241.899785 267.819923,241.930364 268.047544,242.195706 C268.275165,242.461048 268.244586,242.860673 267.979244,243.088294 L267.877673,243.180717 C267.835345,243.220777 267.784964,243.269953 267.727779,243.32784 L267.637056,243.421153 C267.367356,243.702799 267.096941,244.025529 266.845158,244.382357 C265.458467,246.347584 265.222224,248.36172 266.805547,250.322125 C267.025204,250.594096 266.982796,250.992639 266.710825,251.212297 C266.438854,251.431954 266.040311,251.389546 265.820653,251.117575 C263.824566,248.646102 264.131075,246.032902 265.810746,243.652462 C266.101091,243.240983 266.411526,242.870492 266.722677,242.545558 L266.929995,242.335804 C267.023106,242.244841 267.099475,242.175 267.154956,242.127406 Z"/><path id="Stroke-45" fill="#D18682" fill-rule="nonzero" d="M318.007853,223.32898 C319.831792,223.257907 320.766168,224.09073 320.749842,225.425997 C320.745002,225.821835 320.656653,226.225826 320.513947,226.625708 C320.427719,226.867331 320.340464,227.057921 320.277052,227.17684 C320.11256,227.485319 319.72914,227.602044 319.42066,227.437552 C319.112181,227.27306 318.995456,226.88964 319.159948,226.58116 L319.214289,226.468739 C319.246096,226.397929 319.283662,226.306498 319.321598,226.200196 C319.421156,225.921221 319.48104,225.64739 319.483937,225.410519 C319.491078,224.826423 319.181195,224.550219 318.05717,224.594019 C315.739573,224.684411 315.01791,226.113104 314.718316,229.702039 C314.468199,232.705105 312.690751,234.180794 309.872341,233.80958 C309.525738,233.763929 309.281769,233.445944 309.32742,233.099341 C309.373071,232.752738 309.691056,232.508769 310.037659,232.55442 C312.061074,232.820925 313.189155,231.949239 313.434466,229.821444 L313.509584,229.029957 C313.90205,225.252696 314.952866,223.448131 318.007853,223.32898 Z"/><path id="Fill-47" fill="#D18682" d="M278.31985,236.4745 C278.26585,236.7985 278.48485,237.1045 278.80885,237.1585 C279.13285,237.211 279.43885,236.992 279.49285,236.668 C279.54535,236.3455 279.32635,236.038 279.00385,235.9855 C278.67985,235.9315 278.37385,236.1505 278.31985,236.4745"/><path id="Fill-49" fill="#D18682" d="M286.04605,241.46815 C285.99205,241.79215 286.21105,242.09815 286.53505,242.15215 C286.85905,242.20465 287.16505,241.98565 287.21905,241.66165 C287.27155,241.33765 287.05255,241.03165 286.73005,240.97915 C286.40455,240.92515 286.10005,241.14415 286.04605,241.46815"/><path id="Fill-51" fill="#D18682" d="M258.20755,234.0421 C258.00055,234.2956 258.03805,234.6706 258.29305,234.8791 C258.54655,235.0861 258.92155,235.0471 259.12855,234.7936 C259.33555,234.5401 259.29805,234.1651 259.04455,233.9566 C258.78955,233.7496 258.41455,233.7886 258.20755,234.0421"/><path id="Fill-53" fill="#D18682" d="M253.843,229.55455 C253.636,229.80805 253.6735,230.18305 253.9285,230.39005 C254.182,230.59855 254.557,230.55955 254.764,230.30605 C254.971,230.05105 254.9335,229.67755 254.68,229.46905 C254.425,229.26205 254.0515,229.29955 253.843,229.55455"/><path id="Fill-55" fill="#D18682" d="M262.2322,237.2413 C262.0252,237.4948 262.0627,237.8698 262.3177,238.0783 C262.5712,238.2853 262.9462,238.2463 263.1532,237.9928 C263.3602,237.7393 263.3227,237.3643 263.0692,237.1558 C262.8142,236.9488 262.4392,236.9878 262.2322,237.2413"/><path id="Fill-57" fill="#D18682" d="M269.2378,238.18615 C269.0293,238.43965 269.0683,238.81465 269.3233,239.02315 C269.5768,239.23015 269.9518,239.19115 270.1588,238.93765 C270.3658,238.68415 270.3283,238.30915 270.0748,238.10065 C269.8198,237.89365 269.4448,237.93265 269.2378,238.18615"/><path id="Fill-59" fill="#D18682" d="M293.38795,241.3861 C293.18095,241.6396 293.21845,242.0146 293.47345,242.2231 C293.72695,242.4301 294.10195,242.3911 294.30895,242.1376 C294.51595,241.8841 294.47845,241.5091 294.22495,241.3006 C293.96995,241.0936 293.59495,241.1326 293.38795,241.3861"/><path id="Fill-61" fill="#D18682" d="M279.87625,245.8165 C279.82225,246.1405 280.04125,246.4465 280.36525,246.5005 C280.68925,246.553 280.99525,246.334 281.04925,246.01 C281.10175,245.686 280.88275,245.38 280.56025,245.3275 C280.23475,245.2735 279.93025,245.4925 279.87625,245.8165"/><path id="Fill-63" fill="#D18682" d="M275.80765,243.45745 C275.75365,243.78145 275.97415,244.08745 276.29815,244.14145 C276.62065,244.19395 276.92815,243.97495 276.98065,243.65095 C277.03465,243.32845 276.81415,243.02095 276.49165,242.96845 C276.16765,242.91445 275.86165,243.13345 275.80765,243.45745"/><path id="Fill-65" fill="#D18682" d="M257.6611,238.9699 C257.6071,239.2939 257.8261,239.5999 258.1516,239.6539 C258.4741,239.7064 258.7801,239.4874 258.8341,239.1634 C258.8881,238.8394 258.6676,238.5334 258.3451,238.4809 C258.0211,238.4269 257.7151,238.6459 257.6611,238.9699"/><path id="Fill-67" fill="#D18682" d="M262.717,233.2738 C262.663,233.5978 262.882,233.9038 263.206,233.9578 C263.53,234.0103 263.836,233.7913 263.89,233.4673 C263.9425,233.1448 263.7235,232.8373 263.401,232.7848 C263.077,232.7308 262.771,232.9498 262.717,233.2738"/><path id="Fill-69" fill="#D18682" d="M262.6072,226.9582 C262.5532,227.2822 262.7722,227.5882 263.0962,227.6422 C263.4202,227.6947 263.7262,227.4757 263.7802,227.1517 C263.8327,226.8277 263.6137,226.5217 263.2912,226.4692 C262.9672,226.4152 262.6612,226.6342 262.6072,226.9582"/><path id="Fill-71" fill="#D18682" d="M285.40525,245.164 C285.35125,245.488 285.57025,245.794 285.89575,245.848 C286.21825,245.9005 286.52425,245.6815 286.57825,245.3575 C286.63225,245.0335 286.41175,244.7275 286.08925,244.675 C285.76525,244.621 285.45925,244.84 285.40525,245.164"/><path id="Fill-73" fill="#597EF7" d="M171.4477,251.0461 C179.3182,243.7021 210.3382,245.0116 256.9477,260.1631 C263.6062,262.3261 260.9452,286.6171 267.9517,289.7881 C272.2237,291.7201 287.3287,275.9596 291.3922,277.2316 C329.8507,289.2736 340.8067,309.3286 340.8067,309.3286 C340.8067,309.3286 330.8047,338.8606 311.7142,373.2151 C301.2967,391.9591 288.4897,410.0992 275.8132,426.0997 C280.228031,442.964895 262.8127,446.1211 262.8127,446.1211 C262.8127,446.1211 189.59425,415.557978 171.8707,407.5936 C164.8792,400.9336 170.5417,394.1386 170.5417,394.1386 C170.5417,394.1386 162.4552,259.4401 171.4477,251.0461 Z"/><path id="Fill-75" fill="#597EF7" d="M297.5386,287.7901 L300.4951,270.8956 L283.3681,265.4056 L268.1641,283.1446 L266.0521,257.3821 L246.2026,243.0211 L230.1541,255.5596 C230.1541,255.5596 236.8771,287.8891 269.9401,294.7141 C286.2721,298.0861 297.5386,287.7901 297.5386,287.7901"/><path id="Stroke-77" fill="#1D39C4" fill-rule="nonzero" d="M167.166836,312.255895 L167.670306,312.493932 L167.74483,312.635521 L167.771352,312.737956 L167.779325,312.821271 L167.860959,317.012279 L167.913862,319.169381 C167.948504,320.413873 167.985403,321.416369 168.02498,322.130757 L168.114362,323.744608 C168.389141,329.433819 169.361416,360.102443 169.403994,361.304676 L169.693192,369.021036 C170.129931,379.983493 170.584248,388.21834 171.114615,394.086823 C171.124653,394.197891 171.10219,394.309482 171.049959,394.408016 C168.327649,399.543711 168.600538,403.389564 170.65419,406.15537 C170.99537,406.614862 171.360281,407.001608 171.723426,407.317016 L171.91762,407.479299 C171.975839,407.525909 172.027221,407.565055 172.070796,407.596796 L172.14,407.644 L264.238,444.605 L264.481223,444.544199 C270.295009,443.042393 273.695848,440.150855 275.185996,436.257932 L275.289193,435.978168 C276.240436,433.299778 276.236562,430.422372 275.654971,427.722196 C275.569623,427.325949 275.478393,426.970094 275.387537,426.660646 L275.30638,426.396427 C275.292036,426.352253 275.280355,426.317965 275.271738,426.293946 C275.204567,426.106706 275.2389,425.89805 275.362523,425.742204 C276.5405,424.25719 277.708747,422.757532 278.867251,421.243727 C292.689876,403.181846 304.633242,383.826906 314.664063,364.471956 C317.989941,358.054514 320.875984,352.071787 323.318783,346.661185 L323.721811,345.764739 C324.34055,344.382621 324.89804,343.109308 325.39411,341.951729 L325.998059,340.52773 C326.175252,340.10528 326.332248,339.726435 326.469015,339.392488 L326.756628,338.681487 C326.873278,338.385975 327.207401,338.240979 327.502913,338.357628 C327.798425,338.474278 327.943421,338.808401 327.826772,339.103913 L327.426492,340.089391 C327.31538,340.358941 327.192882,340.653572 327.05901,340.972737 L326.451895,342.404212 C326.024554,343.40142 325.552035,344.483685 325.034442,345.646646 L324.771889,346.234832 C322.236672,351.897916 319.20662,358.207233 315.685534,365.001339 C305.625681,384.412309 293.647733,403.823291 279.780901,421.942936 C279.005878,422.95565 278.226495,423.962074 277.442755,424.962061 L276.454,426.214 L276.49144,426.336533 C276.590017,426.672279 276.688221,427.055336 276.779677,427.479945 C277.402383,430.371003 277.406534,433.454098 276.373348,436.363211 C274.773399,440.868144 270.911199,444.174605 264.332558,445.767298 C264.245317,445.788419 264.154764,445.788738 264.068081,445.768773 L263.982955,445.742065 L171.656455,408.690565 L171.564268,408.643539 C171.088584,408.344128 170.406555,407.751754 169.730482,406.841237 C167.461483,403.785407 167.118635,399.582346 169.846988,394.227856 L169.953,394.022 L169.826606,392.539022 C169.274165,385.81207 168.803146,376.374988 168.341887,363.780219 L167.237059,330.786791 C167.128777,327.755443 167.035766,325.310041 166.974027,323.985948 L166.90802,322.736145 L166.854691,321.772418 C166.811907,320.868217 166.772596,319.634624 166.735854,318.126111 L166.633,313.024 L166.626574,312.931481 L166.626574,312.814261 C166.628554,312.802769 166.630993,312.781528 166.637089,312.728427 L166.6459,312.692878 L166.718534,312.520391 L167.166836,312.255895 Z"/><path id="Stroke-79" fill="#1D39C4" fill-rule="nonzero" d="M235.299182,254.809352 C235.525298,254.640172 235.835268,254.662402 236.035032,254.848091 L236.104398,254.925332 L247.465398,270.109832 C247.655726,270.364213 247.6038,270.724721 247.349418,270.915048 C247.123302,271.084228 246.813332,271.061998 246.613568,270.876309 L246.544202,270.799068 L235.183202,255.614568 C234.992874,255.360187 235.0448,254.999679 235.299182,254.809352 Z"/><path id="Fill-81" fill="#FFC2BD" d="M40.83565,394.16485 C45.34465,370.24435 53.55415,313.67485 65.14465,282.40435 C65.14465,282.40435 78.02065,250.11985 106.09315,261.64435 C133.46365,272.87935 118.73515,305.20285 118.73515,305.20285 C103.02265,341.73235 83.36365,384.02935 75.29515,404.70685 C75.29515,404.70685 70.43515,415.57585 56.03965,412.57135 C38.95765,409.00435 40.83565,394.16485 40.83565,394.16485"/><path id="Fill-83" fill="#FFC2BD" d="M178.1281,312.7657 C187.8226,311.4502 212.8726,305.2252 211.3486,278.4382 C210.1306,257.0167 192.6601,249.9262 179.0821,248.3857 C155.6251,245.7247 126.5221,251.5627 100.0651,257.0047 C100.0651,257.0047 69.8146,262.1332 74.7856,291.6022 C78.9931,316.5397 104.3281,314.3182 104.3281,314.3182 C104.3281,314.3182 167.0476,314.2687 178.1281,312.7657"/><path id="Fill-85" fill="#597EF7" d="M138.85,312.931496 C149.0155,312.701996 178.954,313.190996 182.446,312.716996 C192.1405,311.402996 215.3005,304.055996 213.7765,277.270496 C212.5585,255.848996 195.088,248.758496 181.51,247.217996 C172.15,246.155996 143.632,249.262496 133,250.340996 L138.85,312.931496 Z"/><path id="Stroke-87" fill="#1D39C4" fill-rule="nonzero" d="M132.951715,250.483251 C133.205397,250.459547 133.433465,250.622632 133.499744,250.859606 L133.516749,250.951715 L139.32,313.06 L154.070914,312.712123 L164.263937,312.436406 C165.769797,312.39235 167.188793,312.348913 168.515715,312.306136 L173.490867,312.132077 C177.237668,311.987735 179.643083,311.855659 180.486192,311.741216 C180.770223,311.702662 181.03173,311.901661 181.070284,312.185692 C181.108838,312.469723 180.909839,312.73123 180.625808,312.769784 L180.301044,312.807636 C179.222476,312.918108 176.931653,313.038324 173.537846,313.169046 L169.665837,313.307028 C168.208669,313.355527 166.629383,313.404896 164.935716,313.455078 L156.344526,313.692084 C151.056712,313.829626 146.220924,313.943214 138.860212,314.10963 C138.618115,314.114833 138.408889,313.953083 138.347583,313.726565 L138.331751,313.638785 L132.483251,251.048285 C132.456584,250.762893 132.666322,250.509918 132.951715,250.483251 Z"/><path id="Fill-89" fill="#4E5C93" d="M222.23245,675.163 L248.21695,709.9675 C263.13145,713.725 269.83195,694.9345 269.83195,694.9345 L370.04545,626.4865 C383.39245,617.3395 386.44795,598.9225 376.76695,585.9565 C367.08745,572.989 348.56095,570.6835 335.99845,580.882 L240.26395,658.753 C240.26395,658.753 222.02995,660.046 222.23245,675.163"/><path id="Fill-91" fill="#253368" d="M205.869,761.064 L177,716.01 L223.467,675 L248.331,708.3015 L214.0245,729.5625 L211.734,759.5865 C211.5015,762.6375 207.5205,763.641 205.869,761.064"/><path id="Fill-93" fill="#4E5C93" d="M215.97385,665.76595 L215.97385,665.76595 C230.42635,661.05745 238.64335,645.83845 234.65035,631.17145 L195.35785,486.88045 C189.97585,467.11645 169.15285,455.87545 149.67685,462.21895 C130.19935,468.56245 119.99185,489.91195 127.28185,509.05345 L180.50635,648.80695 C185.91535,663.01195 201.51985,670.47295 215.97385,665.76595"/><path id="Fill-95" fill="#4E5C93" d="M168.1657,780.1102 L211.2682,785.4682 C224.3077,777.3112 215.3917,759.4627 215.3917,759.4627 L235.4137,639.7687 C238.0597,623.8057 226.8877,608.8477 210.8302,606.8512 L210.8302,606.8512 C194.7727,604.8562 180.2797,616.6237 178.9372,632.7487 L168.8137,755.7382 C168.8137,755.7382 157.1197,769.7887 168.1657,780.1102"/><g id="分组" transform="translate(166.000000, 779.210500)"><mask id="mask-4" fill="#fff"><use xlink:href="#path-3"/></mask><path id="Fill-97" fill="#253368" d="M52.57245,73.43445 L0.07845,63.05895 L2.67345,1.13745 L43.91445,6.26445 L35.49495,45.73545 L55.56795,68.18145 C57.60795,70.46145 55.57395,74.02845 52.57245,73.43445" mask="url(#mask-4)"/></g><path id="Fill-99" fill="#FFC2BD" d="M457.70905,338.81365 C440.99005,356.00515 403.49005,398.00815 376.89055,417.35815 C376.89055,417.35815 348.67255,436.83565 331.55305,411.96565 C314.86105,387.71665 344.64355,369.22165 344.64355,369.22165 C377.52355,347.80915 416.81605,323.81965 434.74105,311.24665 C434.74105,311.24665 444.67705,304.97665 455.03155,315.34315 C467.31655,327.64465 457.70905,338.81365 457.70905,338.81365"/><path id="Fill-101" fill="#FFC2BD" d="M471.7246,288.73285 C471.7246,288.73285 470.2681,281.37535 462.3511,284.03935 C458.6446,277.86685 451.1971,284.91235 447.6541,287.54785 C439.3726,293.70835 435.8146,297.74935 433.9516,314.30785 C433.9516,314.30785 432.2671,327.85585 441.0601,336.96985 C452.0866,348.39985 463.8991,334.22935 463.8991,334.22935 C473.7181,325.17835 474.9466,323.28535 480.6376,317.83285 C485.3296,313.33735 485.7781,308.25535 481.2676,305.46235 C481.2676,305.46235 482.2246,299.22385 476.8771,297.09835 C476.8306,290.74585 471.7246,288.73285 471.7246,288.73285"/><path id="Stroke-103" fill="#D18682" fill-rule="nonzero" d="M461.999809,283.595597 C462.244555,283.401584 462.60024,283.442712 462.794253,283.687459 L463.140991,284.131577 C463.41526,284.485926 463.720713,284.886296 464.049583,285.324555 C464.98927,286.576805 465.929023,287.882617 466.806899,289.177377 C467.129329,289.652922 467.437791,290.118888 467.730535,290.57347 L468.017975,291.02419 C470.178029,294.445657 471.231803,296.852022 470.793907,298.163595 C470.198718,299.943431 467.653397,300.379211 464.955348,299.400278 C462.313279,298.441657 459.987629,296.356414 458.617532,293.445813 L458.508,293.206 L456.217,295.27 L456.266505,295.511588 C456.35708,295.965992 456.447468,296.484688 456.531727,297.059425 C457.079286,300.794343 457.10785,304.758779 456.272724,308.489097 C455.147284,313.516186 452.566594,317.444885 448.224283,319.806531 C447.949919,319.955749 447.606537,319.854298 447.457319,319.579933 C447.308101,319.305569 447.409552,318.962187 447.683917,318.812969 C451.712892,316.621737 454.110003,312.972507 455.169044,308.24201 C455.969499,304.666558 455.941879,300.833109 455.412689,297.223482 C455.331307,296.668374 455.244223,296.168635 455.157325,295.732677 L455.044094,295.204793 C455.002024,295.031683 455.044255,294.850751 455.154421,294.714982 L455.215089,294.651107 L458.348589,291.828107 C458.645215,291.560875 459.11787,291.676858 459.2571,292.051043 C460.416951,295.168184 462.71229,297.383285 465.341102,298.337097 C467.52191,299.128359 469.385412,298.809312 469.721206,297.805164 C469.997138,296.978699 468.9952,294.690706 467.061617,291.627962 C466.692417,291.043158 466.294052,290.436351 465.870785,289.812083 C465.004023,288.533714 464.074522,287.242149 463.144956,286.003386 L462.455513,285.094841 L461.951018,284.444585 C461.934522,284.423632 461.920145,284.405429 461.907947,284.390041 C461.713934,284.145295 461.755062,283.78961 461.999809,283.595597 Z"/><path id="Stroke-105" fill="#D18682" fill-rule="nonzero" d="M479.458901,304.376369 C479.760769,304.29626 480.070423,304.476032 480.150531,304.777901 C480.23064,305.079769 480.050868,305.389423 479.748999,305.469531 L479.073794,305.664287 C478.529851,305.828235 477.923044,306.024586 477.269227,306.253062 C475.401739,306.905654 473.534698,307.683664 471.795816,308.583702 C470.058524,309.482916 468.546205,310.456156 467.32441,311.498718 C465.789154,312.80808 465.824113,314.060249 467.128588,315.033665 C467.765573,315.508991 468.617042,315.8421 469.564967,316.003469 L469.822,316.043 L469.990609,316.02417 C470.677988,315.952296 471.326257,315.897074 471.925117,315.856247 L472.704711,315.809534 C472.962313,315.796352 473.154868,315.789081 473.275027,315.786121 C473.939725,315.769751 474.082599,316.714773 473.442768,316.895629 C472.274349,317.225895 471.054077,317.315442 469.913145,317.192574 L469.822,317.181 L469.307555,317.238516 C467.440447,317.460777 465.584918,317.778128 463.818413,318.206163 L463.067016,318.396428 C457.853475,319.775053 454.378971,321.939459 453.403209,324.968351 C453.307442,325.265623 452.988821,325.428975 452.691549,325.333209 C452.394277,325.237442 452.230925,324.918821 452.326691,324.621549 C453.45457,321.120467 457.225975,318.77111 462.777881,317.30301 C464.055025,316.965293 465.381089,316.687391 466.728749,316.463033 L467.174,316.392 L467.076639,316.341019 C466.9291,316.259599 466.787105,316.173 466.651262,316.081352 L466.452187,315.94011 C464.563937,314.531074 464.504912,312.416892 466.59038,310.638275 C467.884451,309.53404 469.467309,308.515406 471.275928,307.579273 C473.06683,306.65231 474.981701,305.854368 476.896124,305.185375 C477.432006,304.998111 477.937463,304.831783 478.404478,304.686459 L479.180092,304.453914 C479.299328,304.419735 479.392918,304.393879 479.458901,304.376369 Z"/><path id="Stroke-107" fill="#D18682" fill-rule="nonzero" d="M476.791954,296.84355 C477.086847,296.740689 477.40929,296.896362 477.51215,297.191254 C477.615011,297.486147 477.459338,297.80859 477.164446,297.91145 L476.508982,298.14889 L475.850845,298.396109 C475.508255,298.526701 475.146113,298.66762 474.767699,298.8182 C472.966334,299.535004 471.165306,300.322441 469.48688,301.155199 C466.210602,302.780736 463.813765,304.377156 462.70386,305.818441 C462.305502,306.335735 462.092751,306.810852 462.062241,307.235599 C461.905781,309.409278 462.582119,310.778343 463.805107,311.57971 C464.193494,311.834202 464.612738,312.012307 465.031961,312.126002 L465.25825,312.181395 C465.393943,312.210795 465.497692,312.225844 465.559837,312.230764 C465.87118,312.255417 466.103588,312.527795 466.078936,312.839137 C466.054283,313.15048 465.781905,313.382888 465.470563,313.358236 C464.879216,313.311412 464.034828,313.08241 463.185236,312.525713 C461.61885,311.499333 460.748261,309.737059 460.934153,307.154484 C460.982425,306.482466 461.284488,305.807895 461.80777,305.12838 C463.053371,303.510886 465.562124,301.839924 468.984201,300.142047 C470.693188,299.294127 472.521532,298.494747 474.349539,297.767342 C474.733292,297.614638 475.100654,297.471688 475.448371,297.339143 L476.633004,296.899829 C476.697385,296.876788 476.750555,296.85799 476.791954,296.84355 Z"/><path id="Stroke-109" fill="#D18682" fill-rule="nonzero" d="M460.379923,296.080421 C460.61778,295.878021 460.974679,295.906765 461.177079,296.144623 C461.379479,296.38248 461.350735,296.739379 461.112877,296.941779 L460.590944,297.390556 C457.504237,300.075664 456.833286,301.279877 457.245198,303.367606 C457.517207,304.745851 458.123413,305.602081 458.964003,306.074363 C459.507976,306.379991 460.079469,306.492938 460.561793,306.490475 L460.869146,306.477512 C461.141165,306.488612 461.372871,306.695362 461.406772,306.974396 C461.440673,307.253429 461.265216,307.509648 461.003769,307.585561 L460.880731,307.607449 C460.868082,307.60856 460.849525,307.609993 460.812412,307.612859 C460.097134,307.659858 459.241627,307.52763 458.410009,307.060391 C457.276939,306.423782 456.470838,305.28521 456.135596,303.586564 C455.597338,300.858471 456.561982,299.329217 460.379923,296.080421 Z"/><path id="Stroke-111" fill="#D18682" fill-rule="nonzero" d="M470.89094,288.464664 C471.171686,288.32783 471.510201,288.444494 471.647036,288.72524 C471.78387,289.005986 471.667206,289.344501 471.38646,289.481336 L470.650748,289.849416 C470.097652,290.130869 469.544716,290.421738 469.029768,290.705893 L468.498439,291.00487 L468.075369,291.253424 C468.008987,291.293373 467.944723,291.332559 467.88266,291.370945 C467.617042,291.535227 467.268538,291.453078 467.104255,291.18746 C466.939973,290.921842 467.022122,290.573338 467.28774,290.409055 C467.419168,290.327769 467.55909,290.243582 467.706972,290.1567 L467.934697,290.024382 C468.109023,289.924151 468.292239,289.821105 468.48334,289.715652 C468.834834,289.521693 469.20253,289.325249 469.575579,289.13087 L470.44964,288.683698 C470.639093,288.58849 470.789853,288.513933 470.89094,288.464664 Z"/><path id="Fill-113" fill="#4E5C93" d="M149.90935,519.6544 L127.10185,508.2514 C127.10185,508.2514 107.11135,468.9739 165.36235,418.6849 C170.17135,413.0314 172.96135,408.4894 172.96135,408.4894 C172.96135,408.4894 226.40185,436.3129 262.98535,444.6919 L261.12535,456.5854 C261.12535,456.5854 260.78035,469.8184 259.29535,481.8769 C256.78735,502.2514 252.74635,522.9814 252.74635,522.9814 L188.05135,533.7574 L149.90935,519.6544 Z"/><path id="Fill-115" fill="#253368" d="M172.06,407.87515 C222.5515,427.86565 264.13,443.91415 264.13,443.91415 L261.3145,456.30415 C261.3145,456.30415 197.2675,441.29065 165.3025,418.57465 C168.211,413.22415 172.06,407.87515 172.06,407.87515"/><path id="Fill-117" fill="#E1E7F3" d="M256.50385,442.95295 L251.89735,454.68295 C251.29585,456.21445 249.56935,457.03345 247.99135,456.52795 C242.75635,454.84945 231.19885,450.92395 221.25535,445.99045 C219.86785,445.30195 219.24085,443.71195 219.80635,442.27495 L224.13685,431.24695 C224.75635,429.67045 226.56085,428.85745 228.16135,429.44245 C234.05185,431.59795 247.47085,436.49995 254.75185,439.11145 C256.33735,439.67995 257.11585,441.39445 256.50385,442.95295"/><path id="Fill-119" fill="#253368" d="M252.3598,443.7967 L249.3073,451.5592 C248.9083,452.5732 247.5763,453.0487 246.2908,452.6287 C242.0293,451.2352 232.6108,448.0087 224.4223,444.1732 C223.2808,443.6392 222.6973,442.5262 223.0723,441.5752 L225.9418,434.2762 C226.3528,433.2322 227.7478,432.7657 229.0543,433.2412 C233.8633,434.9902 244.8193,438.9712 250.7608,441.0982 C252.0553,441.5617 252.7663,442.7662 252.3598,443.7967"/><polygon id="Fill-121" fill="#E1E7F3" points="221.842 444.97 253.804 443.043 253.599 440.283 221.326 442.345"/><polygon id="Fill-123" fill="#E1E7F3" points="225.07 433.336 248.044 454.476 250.066 452.478 226.777 431.211"/><path id="Stroke-125" fill="#253368" fill-rule="nonzero" d="M188.873297,430.964369 C189.116182,430.566198 189.63586,430.440313 190.034031,430.683197 C190.432202,430.926082 190.558087,431.44576 190.315203,431.843931 L190.174152,432.069217 L189.774561,432.683607 C189.3384,433.340858 188.829027,434.07208 188.250649,434.858885 C186.599121,437.105568 184.722924,439.352042 182.654432,441.451417 C174.451939,449.776374 165.727765,453.466499 157.104644,449.732101 C156.67665,449.54675 156.479949,449.049537 156.665299,448.621544 C156.85065,448.19355 157.347863,447.996849 157.775856,448.182199 C165.597865,451.569661 173.683769,448.14951 181.451313,440.265996 C183.458341,438.229002 185.283487,436.043653 186.889776,433.858512 C187.357992,433.221568 187.779067,432.622966 188.150422,432.073438 L188.645236,431.325367 C188.748622,431.165166 188.824917,431.043681 188.873297,430.964369 Z"/><path id="Fill-127" fill="#FFC2BD" d="M38.062,401.6839 L67.318,396.9859 C67.318,396.9859 84.3085,403.0369 83.269,419.9944 C82.6405,430.2559 93.25,449.6524 88.504,452.3914 C82.3165,455.9629 77.4475,433.9354 72.6865,435.9574 C57.9025,442.2364 68.281,465.9259 63.8065,469.9054 C59.2225,473.9854 37.4605,476.3839 32.1655,447.5029 C30.721,439.6249 33.625,414.1384 38.062,401.6839"/><path id="Stroke-129" fill="#D18682" fill-rule="nonzero" d="M55.2395177,439.414531 C55.5778025,439.502741 55.7805284,439.848483 55.6923188,440.186768 L55.6059149,440.541334 C55.56972,440.696739 55.5265909,440.888727 55.4779056,441.115395 L55.3149854,441.911027 C55.2068647,442.464784 55.1002732,443.06446 54.9984717,443.705533 C54.0917017,449.415724 53.9692101,455.432192 55.1309217,461.045272 C55.9141709,464.829723 57.2555732,468.213288 59.2237118,471.098326 C59.4207252,471.387122 59.3463205,471.780948 59.0575243,471.977962 C58.768728,472.174975 58.3749015,472.100571 58.1778882,471.811774 C56.109178,468.779312 54.706498,465.241179 53.8911948,461.301852 C52.6939455,455.517063 52.8193895,449.35558 53.7481384,443.506982 C53.8784628,442.686292 54.0166348,441.930877 54.1562465,441.249447 L54.2835818,440.649787 L54.4672812,439.867332 C54.5554909,439.529047 54.901233,439.326322 55.2395177,439.414531 Z"/><path id="Stroke-131" fill="#D18682" fill-rule="nonzero" d="M46.9361215,437.367575 C47.0328681,437.031632 47.3836322,436.837725 47.7195751,436.934472 C48.055518,437.031218 48.249425,437.381982 48.1526785,437.717925 C45.2703955,447.726372 45.8601234,456.117464 48.5759866,462.792261 C49.0770309,464.023682 49.6127005,465.086459 50.1466591,465.97722 C50.2856489,466.209086 50.4167299,466.416058 50.5379791,466.597953 L50.6558798,466.771482 C50.7449173,466.899932 50.8062303,466.982854 50.8352518,467.019812 C51.0511609,467.294768 51.0032941,467.692693 50.7283381,467.908602 C50.4533822,468.124511 50.0554574,468.076644 49.8395482,467.801688 L49.7153071,467.636174 C49.5524363,467.411178 49.3284874,467.074679 49.0608051,466.628125 C48.494262,465.683005 47.9294298,464.562369 47.403339,463.269392 C44.5831601,456.338218 43.9730184,447.656662 46.9361215,437.367575 Z"/><path id="Stroke-133" fill="#D18682" fill-rule="nonzero" d="M39.1263155,432.865226 C39.1802043,432.519808 39.5039063,432.283477 39.8493242,432.337366 C40.1947421,432.391254 40.4310732,432.714956 40.3771845,433.060374 L39.8606475,436.32134 C38.7993697,443.582072 38.8088581,450.650066 40.6081291,459.182692 C40.680262,459.524765 40.4614318,459.860546 40.1193582,459.932679 C39.7772846,460.004812 39.4415038,459.785982 39.3693709,459.443908 C37.5935354,451.02242 37.5289518,443.988916 38.5097967,436.831345 L38.6488481,435.864743 L39.1263155,432.865226 Z"/><path id="Stroke-135" fill="#D18682" fill-rule="nonzero" d="M68.7784674,436.539816 C71.045362,434.682432 73.0291625,434.411774 74.7864495,435.601947 C75.9934453,436.419419 76.9428842,437.722518 78.2504828,440.126562 L79.8016299,443.070449 C80.4578545,444.299969 80.9593041,445.159623 81.4894675,445.935366 L84.7426002,450.563377 C85.6284491,451.796291 85.3662028,451.318928 85.8706081,451.68613 C86.5266071,452.163691 87.1582349,452.2015 88.2910043,451.796415 C88.6201854,451.678698 88.982468,451.850123 89.1001851,452.179304 C89.2179023,452.508485 89.0464769,452.870768 88.7172957,452.988485 C87.2203653,453.523796 86.156376,453.460107 85.1255021,452.70964 C84.5331077,452.278382 83.9587017,451.631034 83.1709931,450.554478 L81.8489815,448.67297 L80.5865873,446.855181 C79.9239003,445.911314 79.3367625,444.901919 78.5175616,443.351706 L77.4969319,441.401112 L77.1552744,440.762902 C75.9358788,438.519365 75.0688432,437.322242 74.0765168,436.65016 C72.8258805,435.803131 71.4452124,435.991501 69.5809596,437.51898 C67.2709046,439.412729 65.8423412,444.854861 65.2312221,452.646605 C64.8911933,456.981959 64.8299605,461.574917 64.9422316,465.872612 L64.99934,467.653787 L65.0596091,468.980663 C65.0796496,469.329685 64.812958,469.628869 64.4639366,469.648909 C64.1149152,469.66895 63.8157314,469.402258 63.7956909,469.053237 L63.7458665,467.993354 C63.7342223,467.710271 63.7227706,467.405216 63.7117926,467.079638 C63.5543921,462.411541 63.5938837,457.331585 63.9690982,452.547614 L64.0516136,451.562276 C64.7314798,443.942377 66.2029159,438.651216 68.7784674,436.539816 Z"/><path id="Stroke-137" fill="#253368" fill-rule="nonzero" d="M229.62061,451.861265 C229.741497,451.410799 230.20467,451.143622 230.655135,451.26451 C231.105601,451.385397 231.372778,451.84857 231.25189,452.299035 L230.600624,454.708764 C225.063342,475.052286 219.490643,491.850093 214.130795,505.346658 L213.815757,506.136768 C211.929582,510.848218 210.198223,514.824041 208.653268,518.095331 L208.410882,518.606 C207.847669,519.786605 207.350369,520.786102 206.923587,521.609026 L206.713103,522.011251 L206.393777,522.602709 C206.165098,523.009206 205.650187,523.153355 205.243691,522.924677 C204.837194,522.695998 204.693045,522.181087 204.921723,521.774591 L205.178028,521.301356 C205.248678,521.168096 205.330826,521.011535 205.42423,520.831434 L205.751031,520.1936 C206.034311,519.634379 206.344805,519.005778 206.68139,518.30669 L206.886462,517.878769 C208.396801,514.712802 210.09626,510.8442 211.953233,506.241825 L212.247743,505.509032 C217.888737,491.418474 223.778019,473.632713 229.62061,451.861265 Z"/><path id="Stroke-139" fill="#253368" fill-rule="nonzero" d="M245.59139,458.026205 C246.039621,458.155131 246.29847,458.623008 246.169545,459.07124 L245.553497,461.183931 C245.060153,462.862764 244.503305,464.733295 243.894632,466.747647 C242.15542,472.50342 240.349202,478.259414 238.569183,483.633183 L237.879023,485.700864 C237.650813,486.379188 237.424489,487.046442 237.200172,487.70212 L236.865217,488.67689 C232.324653,501.828992 228.653998,508.06633 223.677979,509.214642 C219.279028,510.230547 215.780365,510.364139 213.204322,509.974658 L212.860936,509.918275 C212.546056,509.862096 212.316757,509.807616 212.173577,509.764622 C211.726877,509.630487 211.473493,509.159627 211.607628,508.712927 C211.741763,508.266227 212.212623,508.012843 212.659323,508.146978 C212.774545,508.181577 213.040661,508.241718 213.456817,508.304638 C215.822523,508.662317 219.106564,508.536921 223.298056,507.568927 C227.441231,506.612809 230.937105,500.672467 235.268666,488.125758 C235.821964,486.522776 236.388351,484.845537 236.965854,483.102092 C238.563181,478.27986 240.182487,473.14632 241.755355,467.981487 L242.277831,466.259101 C242.733366,464.751546 243.159792,463.324786 243.55217,461.999049 L244.546355,458.60436 C244.675281,458.156129 245.143158,457.89728 245.59139,458.026205 Z"/><path id="Stroke-141" fill="#1D39C4" fill-rule="nonzero" d="M267.40873,283.420647 C267.722595,283.469872 267.937128,283.764215 267.887903,284.07808 L267.629149,285.666139 L267.238295,287.96263 C267.168087,288.366647 267.095395,288.780738 267.020295,289.204066 L266.905848,289.845882 C266.130855,294.169988 265.278355,298.494347 264.37386,302.53213 L264.087321,303.793724 C262.941333,308.768729 261.797955,312.880033 260.677704,315.866486 C260.566122,316.163949 260.234526,316.314635 259.937064,316.203054 C259.639601,316.091472 259.488915,315.759876 259.600496,315.462414 C260.791424,312.287546 262.020037,307.776638 263.251183,302.280642 C264.051607,298.707446 264.811701,294.90593 265.513139,291.078866 L265.773393,289.642916 C265.966492,288.565512 266.144809,287.543113 266.307167,286.588842 L266.643111,284.573285 L266.751297,283.89982 C266.7956,283.617341 267.038448,283.415322 267.315382,283.413628 L267.40873,283.420647 Z"/><path id="Stroke-143" fill="#253368" fill-rule="nonzero" d="M198.758036,508.190906 C199.204887,508.057273 199.675462,508.311186 199.809094,508.758036 L205.359237,527.408851 L208.684,538.638325 C210.893495,546.114837 213.081949,553.548866 215.207272,560.803156 L218.854118,573.288653 C228.717807,607.169085 234.750023,628.853722 235.313524,633.054876 C236.231283,639.906102 233.394854,661.973311 227.853015,694.806617 L227.510348,696.830233 C226.860323,700.656764 226.18063,704.58747 225.47445,708.608131 C223.560508,719.505224 221.527022,730.644605 219.478597,741.558548 L217.860169,750.119191 L215.475115,762.486024 C215.38508,762.943656 214.941107,763.241651 214.483476,763.151615 C214.025844,763.06158 213.727849,762.617607 213.817885,762.159976 L214.997174,756.0873 C215.595139,752.984892 216.246865,749.573774 216.940523,745.906852 C219.282738,733.525058 221.624947,720.761827 223.810914,708.315951 L224.507615,704.328848 C224.851432,702.35083 225.188361,700.396506 225.518004,698.467659 L226.18505,694.54035 C231.625757,662.304395 234.465005,640.328801 233.665387,633.486068 L233.639496,633.279267 C233.116111,629.377195 227.516031,609.165007 218.410057,577.810638 L215.94804,569.354334 L213.586355,561.277866 C210.664574,551.305057 207.623393,540.992267 204.572257,530.696412 L199.979039,515.235979 L198.190906,509.241964 C198.057273,508.795113 198.311186,508.324538 198.758036,508.190906 Z"/></g></svg>