<svg xmlns="http://www.w3.org/2000/svg" xmlns:xlink="http://www.w3.org/1999/xlink" width="1024" height="1024" version="1.1" viewBox="0 0 1024 1024"><title>3.通用组件/灰色版/PPT</title><desc>Created with Sketch.</desc><g id="3.通用组件/灰色版/PPT" fill="none" fill-rule="evenodd" stroke="none" stroke-width="1"><g id="分组-2" transform="translate(140.000000, 77.000000)"><polyline id="Stroke-1" stroke="#99A7C7" stroke-linecap="round" stroke-linejoin="round" stroke-width="30.485" points="372.599 .844 372.599 741.354 215.245 869.572"/><line id="Stroke-3" x1="372.993" x2="530.346" y1="741.354" y2="869.571" stroke="#99A7C7" stroke-linecap="round" stroke-linejoin="round" stroke-width="30.485"/><path id="Fill-5" fill="#253368" d="M712.562334,614.4 L31.4327155,614.4 C14.0778965,614.4 0,600.313578 0,582.932232 L0,79.4677677 C0,62.0864216 14.0778965,48 31.4327155,48 L712.562334,48 C729.922103,48 744,62.0864216 744,79.4677677 L744,582.932232 C744,600.313578 729.922103,614.4 712.562334,614.4"/><polygon id="Fill-7" fill="#E4EBF7" points="0 562.8 744 562.8 744 97.2 0 97.2"/><path id="Fill-9" fill="#4E5C93" d="M479.29104,341.97168 C479.29104,402.01488 430.61424,450.68688 370.57584,450.68688 C310.53264,450.68688 261.85584,402.01488 261.85584,341.97168 C261.85584,281.92848 310.53264,233.25648 370.57584,233.25648 C430.61424,233.25648 479.29104,281.92848 479.29104,341.97168"/><path id="Fill-10" fill="#FFF" d="M338.544,300.52272 L338.544,383.42352 C338.544,391.51632 347.544,396.35952 354.2976,391.90512 L417.1488,350.45232 C423.24,346.43952 423.24,337.50672 417.1488,333.48912 L354.2976,292.03632 C347.544,287.58192 338.544,292.42992 338.544,300.52272"/><path id="Fill-11" fill="#99A7C7" d="M176.40336,153.26256 L54.96816,153.26256 C50.00016,153.26256 45.92976,149.19216 45.92976,144.22416 C45.92976,139.25136 50.00016,135.18576 54.96816,135.18576 L176.40336,135.18576 C181.37616,135.18576 185.44656,139.25136 185.44656,144.22416 C185.44656,149.19216 181.37616,153.26256 176.40336,153.26256"/><path id="Fill-12" fill="#99A7C7" d="M106.19376,195.89088 L61.00176,195.89088 C56.00976,195.89088 51.95856,191.84448 51.95856,186.85248 C51.95856,181.86048 56.00976,177.81408 61.00176,177.81408 L106.19376,177.81408 C111.18576,177.81408 115.23216,181.86048 115.23216,186.85248 C115.23216,191.84448 111.18576,195.89088 106.19376,195.89088"/></g></g></svg>