<svg xmlns="http://www.w3.org/2000/svg" xmlns:xlink="http://www.w3.org/1999/xlink" width="1024" height="1024" version="1.1" viewBox="0 0 1024 1024"><title>3.通用组件/灰色版/代码详情页01</title><desc>Created with Sketch.</desc><g id="3.通用组件/灰色版/代码详情页01" fill="none" fill-rule="evenodd" stroke="none" stroke-width="1"><g id="资源-29-copy-3" fill-rule="nonzero" transform="translate(56.000000, 162.000000)"><rect id="矩形" width="912" height="669.985" x="0" y="30.898" fill="#E4EBF7" rx="26.703"/><rect id="矩形" width="747.333" height="489.51" x="82.333" y="150.032" fill="#253368" rx="10.151"/><g id="分组" transform="translate(182.400000, 217.418904)"><rect id="矩形-copy-20" width="505.838" height="23.758" x=".028" y="82.959" fill="#A3B5D6"/><rect id="矩形-copy-20" width="252.919" height="23.758" x=".014" y="165.604" fill="#E4EBF7"/><rect id="矩形-copy-20" width="252.919" height="23.758" x=".014" y="330.893" fill="#A3B5D6"/><rect id="矩形-copy-20" width="151.751" height="23.758" x="0" y="0" fill="#A3B5D6"/><rect id="矩形-copy-21" width="76" height="23.758" x="304" y="165.289" fill="#E4EBF7"/><rect id="矩形-copy-20" width="379.378" height="23.758" x=".021" y="248.249" fill="#A3B5D6"/></g><path id="路径" fill="#253368" d="M24.4285714,0 L887.113393,0 C900.60492,0 911.541964,10.7097545 911.541964,23.9209062 L911.541964,95.2052069 L0,95.2052069 L0,23.9209062 C0,10.7097545 10.937044,0 24.4285714,0 Z"/><ellipse id="椭圆形" cx="52.216" cy="47.603" fill="#A3B5D6" rx="17.436" ry="17.074"/><ellipse id="椭圆形" cx="117.339" cy="47.603" fill="#E4EBF7" rx="17.436" ry="17.074"/><ellipse id="椭圆形" cx="182.471" cy="47.603" fill="#E4EBF7" rx="17.436" ry="17.074"/></g></g></svg>