<?xml version="1.0" encoding="UTF-8"?>
<svg width="1024px" height="1024px" viewBox="0 0 1024 1024" version="1.1" xmlns="http://www.w3.org/2000/svg" xmlns:xlink="http://www.w3.org/1999/xlink">
    <!-- Generator: Sketch 61.2 (89653) - https://sketch.com -->
    <title>3.通用组件/灰色版/信用卡</title>
    <desc>Created with Sketch.</desc>
    <g id="3.通用组件/灰色版/信用卡" stroke="none" stroke-width="1" fill="none" fill-rule="evenodd">
        <g id="资源-4" transform="translate(80.000000, 204.000000)" fill-rule="nonzero">
            <g id="资源-3">
                <rect id="矩形" fill="#E4EBF7" x="0" y="0" width="863.816786" height="616.005" rx="28.8"></rect>
                <ellipse id="椭圆形" fill="#FFFFFF" cx="701.816786" cy="493.714286" rx="22.6221429" ry="47.7514286"></ellipse>
                <rect id="矩形" fill="#253368" x="0.414642857" y="188.382857" width="862.997143" height="89.3314286"></rect>
                <rect id="矩形" fill="#A3B5D6" x="61.6178571" y="370.285714" width="308.571429" height="30.8571429" rx="9.6"></rect>
                <rect id="矩形" fill="#A3B5D6" x="61.6178571" y="462.857143" width="186.107143" height="30.8571429" rx="9.6"></rect>
                <rect id="矩形" fill="#E4EBF7" x="61.6178571" y="62.0807143" width="93.0535714" height="61.3478571" rx="9.6"></rect>
                <path d="M679.185,493.714286 C679.166195,475.204112 687.47744,457.667987 701.816786,445.962857 C676.675226,425.358031 639.860986,427.787563 617.645284,451.517702 C595.429582,475.24784 595.429582,512.14216 617.645284,535.872298 C639.860986,559.602437 676.675226,562.031969 701.816786,541.427143 C687.487917,529.730551 679.177792,512.210953 679.185,493.714286 Z" id="路径" fill="#A3B5D6"></path>
                <path d="M740.899286,431.999938 C726.646518,431.979821 712.830183,436.915931 701.816786,445.962857 C716.119523,457.6847 724.412079,475.202572 724.412079,493.695 C724.412079,512.187428 716.119523,529.7053 701.816786,541.427143 C722.837712,558.672194 752.668151,560.128307 775.268706,545.012553 C797.869261,529.896798 807.914583,501.770888 800.003448,475.757717 C792.092312,449.744546 768.088814,431.973576 740.899286,431.999938 Z" id="路径" fill="#4E5C93"></path>
            </g>
        </g>
    </g>
</svg>