<svg xmlns="http://www.w3.org/2000/svg" xmlns:xlink="http://www.w3.org/1999/xlink" width="1024" height="1024" version="1.1" viewBox="0 0 1024 1024"><title>3.通用组件/灰色版/信用卡</title><desc>Created with Sketch.</desc><g id="3.通用组件/灰色版/信用卡" fill="none" fill-rule="evenodd" stroke="none" stroke-width="1"><g id="资源-4" fill-rule="nonzero" transform="translate(80.000000, 204.000000)"><g id="资源-3"><rect id="矩形" width="863.817" height="616.005" x="0" y="0" fill="#E4EBF7" rx="28.8"/><ellipse id="椭圆形" cx="701.817" cy="493.714" fill="#FFF" rx="22.622" ry="47.751"/><rect id="矩形" width="862.997" height="89.331" x=".415" y="188.383" fill="#253368"/><rect id="矩形" width="308.571" height="30.857" x="61.618" y="370.286" fill="#A3B5D6" rx="9.6"/><rect id="矩形" width="186.107" height="30.857" x="61.618" y="462.857" fill="#A3B5D6" rx="9.6"/><rect id="矩形" width="93.054" height="61.348" x="61.618" y="62.081" fill="#E4EBF7" rx="9.6"/><path id="路径" fill="#A3B5D6" d="M679.185,493.714286 C679.166195,475.204112 687.47744,457.667987 701.816786,445.962857 C676.675226,425.358031 639.860986,427.787563 617.645284,451.517702 C595.429582,475.24784 595.429582,512.14216 617.645284,535.872298 C639.860986,559.602437 676.675226,562.031969 701.816786,541.427143 C687.487917,529.730551 679.177792,512.210953 679.185,493.714286 Z"/><path id="路径" fill="#4E5C93" d="M740.899286,431.999938 C726.646518,431.979821 712.830183,436.915931 701.816786,445.962857 C716.119523,457.6847 724.412079,475.202572 724.412079,493.695 C724.412079,512.187428 716.119523,529.7053 701.816786,541.427143 C722.837712,558.672194 752.668151,560.128307 775.268706,545.012553 C797.869261,529.896798 807.914583,501.770888 800.003448,475.757717 C792.092312,449.744546 768.088814,431.973576 740.899286,431.999938 Z"/></g></g></g></svg>