<?xml version="1.0" encoding="UTF-8"?>
<svg width="1024px" height="1024px" viewBox="0 0 1024 1024" version="1.1" xmlns="http://www.w3.org/2000/svg" xmlns:xlink="http://www.w3.org/1999/xlink">
    <!-- Generator: Sketch 61.2 (89653) - https://sketch.com -->
    <title>3.通用组件/灰色版/列表页02</title>
    <desc>Created with Sketch.</desc>
    <defs>
        <polygon id="path-1" points="0 0.676923077 799.87261 0.676923077 799.87261 96.3678712 0 96.3678712"></polygon>
    </defs>
    <g id="3.通用组件/灰色版/列表页02" stroke="none" stroke-width="1" fill="none" fill-rule="evenodd">
        <g id="编组-4" transform="translate(112.000000, 114.000000)">
            <g id="分组-copy-10" transform="translate(1.000000, 0.000000)">
                <mask id="mask-2" fill="white">
                    <use xlink:href="#path-1"></use>
                </mask>
                <g id="Clip-2"></g>
                <path d="M799.87261,96.3678712 L-0.000703812317,96.3678712 L-0.000703812317,27.6635523 C-0.000703812317,12.76 12.6045748,0.67658574 28.1517889,0.67658574 L771.720117,0.67658574 C787.268504,0.67658574 799.87261,12.76 799.87261,27.6635523 L799.87261,96.3678712 Z" id="Fill-1" fill="#253368" mask="url(#mask-2)"></path>
            </g>
            <g id="分组-copy-11" transform="translate(0.000000, 92.307692)" fill="#E1E8F4">
                <path d="M772.720117,703.296703 L29.1517889,703.296703 C13.6045748,703.296703 0.999296188,690.617302 0.999296188,674.976031 L0.999296188,0.643115274 L800.87261,0.643115274 L800.87261,674.976031 C800.87261,690.617302 788.268504,703.296703 772.720117,703.296703" id="Fill-3"></path>
            </g>
            <path d="M76.0906642,48.5224062 C76.0906642,58.3266097 68.1363475,66.2755816 58.3243724,66.2755816 C48.5135767,66.2755816 40.5604396,58.3266097 40.5604396,48.5224062 C40.5604396,38.7182027 48.5135767,30.7692308 58.3243724,30.7692308 C68.1363475,30.7692308 76.0906642,38.7182027 76.0906642,48.5224062" id="Fill-5-Copy-3" fill="#A3B5D6"></path>
            <path d="M142.023551,48.5224062 C142.023551,58.3266097 134.070413,66.2755816 124.258438,66.2755816 C114.447643,66.2755816 106.494505,58.3266097 106.494505,48.5224062 C106.494505,38.7182027 114.447643,30.7692308 124.258438,30.7692308 C134.070413,30.7692308 142.023551,38.7182027 142.023551,48.5224062" id="Fill-7-Copy-4" fill="#E4EBF7"></path>
            <path d="M207.957617,48.5224062 C207.957617,58.3266097 200.004479,66.2755816 190.192504,66.2755816 C180.381709,66.2755816 172.428571,58.3266097 172.428571,48.5224062 C172.428571,38.7182027 180.381709,30.7692308 190.192504,30.7692308 C200.004479,30.7692308 207.957617,38.7182027 207.957617,48.5224062" id="Fill-9-Copy-5" fill="#E4EBF7"></path>
            <rect id="矩形-copy-49" fill="#A3B5D6" fill-rule="nonzero" x="75.7252747" y="149.450549" width="650.549451" height="589.010989" rx="26.3736264"></rect>
            <rect id="矩形-copy-51" fill="#FFFFFF" fill-rule="nonzero" x="75.7252747" y="268.131868" width="650.549451" height="360.43956"></rect>
            <rect id="矩形-copy-53" fill="#CCD7EE" fill-rule="nonzero" x="137.263736" y="329.67033" width="527.472527" height="52.7472527" rx="8.79120879"></rect>
            <rect id="矩形-copy-54" fill="#CCD7EE" fill-rule="nonzero" x="137.263736" y="523.076923" width="527.472527" height="52.7472527" rx="8.79120879"></rect>
            <rect id="矩形-copy-55" fill="#CCD7EE" fill-rule="nonzero" x="137.263736" y="426.373626" width="527.472527" height="52.7472527" rx="8.79120879"></rect>
            <rect id="矩形-copy-56" fill="#E4EBF7" fill-rule="nonzero" x="220.78022" y="197.802198" width="413.186813" height="26.3736264" rx="8.79120879"></rect>
            <rect id="矩形-copy-57" fill="#E4EBF7" fill-rule="nonzero" x="220.78022" y="672.527473" width="413.186813" height="26.3736264" rx="8.79120879"></rect>
            <g id="down" transform="translate(146.285714, 215.615385) rotate(-360.000000) translate(-146.285714, -215.615385) translate(115.285714, 184.615385)" fill-rule="nonzero">
                <rect id="矩形" fill="#000000" opacity="0" x="-1.13686838e-13" y="0" width="61.5384615" height="61.5384615"></rect>
                <path d="M51.9237293,17.5824176 L48.0604052,17.5824176 C47.7976991,17.5824176 47.5504464,17.7111951 47.3959134,17.9223901 L32.7616414,38.0940934 L18.1273694,17.9223901 C17.9728365,17.7111951 17.7255837,17.5824176 17.4628777,17.5824176 L13.5995535,17.5824176 C13.2647321,17.5824176 13.0689903,17.9635989 13.2647321,18.2366071 L31.4275068,43.2760989 C32.0868475,44.1826923 33.4364354,44.1826923 34.0906249,43.2760989 L52.2533997,18.2366071 C52.4542925,17.9635989 52.2585508,17.5824176 51.9237293,17.5824176 Z" id="路径" fill="#FFFFFF"></path>
            </g>
            <g id="down-copy" transform="translate(146.285714, 685.483516) rotate(-90.000000) translate(-146.285714, -685.483516) translate(115.285714, 654.483516)" fill-rule="nonzero">
                <rect id="矩形" fill="#000000" opacity="0" x="-1.13686838e-13" y="0" width="61.5384615" height="61.5384615"></rect>
                <path d="M51.9237293,17.5824176 L48.0604052,17.5824176 C47.7976991,17.5824176 47.5504464,17.7111951 47.3959134,17.9223901 L32.7616414,38.0940934 L18.1273694,17.9223901 C17.9728365,17.7111951 17.7255837,17.5824176 17.4628777,17.5824176 L13.5995535,17.5824176 C13.2647321,17.5824176 13.0689903,17.9635989 13.2647321,18.2366071 L31.4275068,43.2760989 C32.0868475,44.1826923 33.4364354,44.1826923 34.0906249,43.2760989 L52.2533997,18.2366071 C52.4542925,17.9635989 52.2585508,17.5824176 51.9237293,17.5824176 Z" id="路径" fill="#FFFFFF"></path>
            </g>
        </g>
    </g>
</svg>