<svg xmlns="http://www.w3.org/2000/svg" xmlns:xlink="http://www.w3.org/1999/xlink" width="1024" height="1024" version="1.1" viewBox="0 0 1024 1024"><title>3.通用组件/灰色版/勋章页面</title><desc>Created with Sketch.</desc><defs><polygon id="path-1" points="0 .302 840 .302 840 611.631 0 611.631"/><polygon id="path-3" points="1 0 841 0 841 135 1 135"/></defs><g id="3.通用组件/灰色版/勋章页面" fill="none" fill-rule="evenodd" stroke="none" stroke-width="1"><g id="分组" transform="translate(92.000000, 169.000000)"><g transform="translate(0.000000, 75.000000)"><mask id="mask-2" fill="#fff"><use xlink:href="#path-1"/></mask><path id="Fill-1" fill="#E4EBF7" d="M26.5259842,611.631325 C11.8768263,611.631325 -0.000331578947,599.747096 -0.000331578947,585.086747 L-0.000331578947,0.301944578 L839.999668,0.301944578 L839.999668,585.086747 C839.999668,599.747096 828.123616,611.631325 813.473353,611.631325 L26.5259842,611.631325 Z" mask="url(#mask-2)"/></g><path id="Fill-3" fill="#4E5C93" d="M249.216683,595.440582 L214.022324,549.87749 C210.636171,545.493953 204.065778,545.423072 200.586945,549.731298 L162.666231,596.698717 C157.223452,603.44015 146.370993,599.107558 147.028584,590.455665 L158.45147,440.078633 C158.45478,440.034333 158.49119,440 158.535324,440 L253.548398,440 C253.592532,440 253.630045,440.034333 253.633355,440.078633 L264.971283,589.345937 C265.636598,598.096399 254.573401,602.37583 249.216683,595.440582"/><path id="Fill-5" fill="#FFF" d="M330,333 C330,401.483164 274.483412,457 205.999446,457 C137.516588,457 82,401.483164 82,333 C82,264.516836 137.516588,209 205.999446,209 C274.483412,209 330,264.516836 330,333"/><path id="Fill-7" fill="#A3B5D6" d="M294,333 C294,381.600913 254.600913,421 206,421 C157.399087,421 118,381.600913 118,333 C118,284.399087 157.399087,245 206,245 C254.600913,245 294,284.399087 294,333"/><path id="Fill-9" fill="#FFF" d="M213.345109,302.244418 L218.710598,313.089429 C219.823211,315.336604 221.971172,316.894542 224.457995,317.254574 L236.456115,318.99418 C242.716771,319.901418 245.216839,327.575502 240.686914,331.980668 L232.004558,340.422161 C230.205392,342.171676 229.385282,344.691902 229.810238,347.162583 L231.858859,359.082186 C232.928425,365.301828 226.384096,370.045006 220.783502,367.108596 L210.052525,361.481301 C207.828403,360.314224 205.171597,360.314224 202.948579,361.481301 L192.216498,367.108596 C186.617008,370.045006 180.071575,365.301828 181.141141,359.082186 L183.190866,347.162583 C183.614718,344.691902 182.794608,342.171676 180.995442,340.422161 L172.313086,331.980668 C167.783161,327.575502 170.283229,319.901418 176.543885,318.99418 L188.542005,317.254574 C191.027724,316.894542 193.177893,315.336604 194.289402,313.089429 L199.654891,302.244418 C202.455188,296.585194 210.544812,296.585194 213.345109,302.244418"/><path id="Fill-11" fill="#A3B5D6" d="M409.85,417 C404.962587,417 401,413.036984 401,408.149044 L401,390.850956 C401,385.963016 404.962587,382 409.85,382 L746.15,382 C751.037413,382 755,385.963016 755,390.850956 L755,408.149044 C755,413.036984 751.037413,417 746.15,417 L409.85,417 Z"/><path id="Fill-13" fill="#A3B5D6" d="M746.15,310 L409.85,310 C404.962587,310 401,306.036984 401,301.149044 L401,283.850956 C401,278.963016 404.962587,275 409.85,275 L746.15,275 C751.037413,275 755,278.963016 755,283.850956 L755,301.149044 C755,306.036984 751.037413,310 746.15,310"/><path id="Fill-15" fill="#A3B5D6" d="M746.15,523 L409.85,523 C404.962587,523 401,519.036984 401,514.149044 L401,496.850956 C401,491.963016 404.962587,488 409.85,488 L746.15,488 C751.037413,488 755,491.963016 755,496.850956 L755,514.149044 C755,519.036984 751.037413,523 746.15,523"/><mask id="mask-4" fill="#fff"><use xlink:href="#path-3"/></mask><path id="Fill-17" fill="#253368" d="M841,135 L1,135 L1,26.6064463 C1,11.9119277 12.8760526,0 27.5263158,0 L814.473684,0 C829.122842,0 841,11.9119277 841,26.6064463 L841,135 Z" mask="url(#mask-4)"/></g></g></svg>