<?xml version="1.0" encoding="UTF-8"?>
<svg width="1024px" height="1024px" viewBox="0 0 1024 1024" version="1.1" xmlns="http://www.w3.org/2000/svg" xmlns:xlink="http://www.w3.org/1999/xlink">
    <!-- Generator: Sketch 61.2 (89653) - https://sketch.com -->
    <title>3.通用组件/灰色版/博士帽子</title>
    <desc>Created with Sketch.</desc>
    <defs>
        <polygon id="path-1" points="0 0.0953791887 914.01363 0.0953791887 914.01363 263.069889 0 263.069889"></polygon>
        <polygon id="path-3" points="0.539479365 0.229423633 453.992466 0.229423633 453.992466 155.170715 0.539479365 155.170715"></polygon>
    </defs>
    <g id="3.通用组件/灰色版/博士帽子" stroke="none" stroke-width="1" fill="none" fill-rule="evenodd">
        <g id="编组" transform="translate(54.000000, 252.000000)">
            <g transform="translate(705.439153, 412.969877)" fill="#4E5C93" id="Fill-15">
                <path d="M37.4061037,0.53287619 L0.760685714,38.1445587 L0.760685714,88.0425481 C0.760685714,97.7668233 8.64487619,105.651014 18.3691513,105.651014 L56.4430561,105.651014 C66.1673312,105.651014 74.0515217,97.7668233 74.0515217,88.0425481 L74.0515217,38.1445587 L37.4061037,0.53287619 Z"></path>
            </g>
            <path d="M744.41021,443.90707 C738.330887,443.90707 733.404919,438.981102 733.404919,432.901779 L733.404919,73.3237051 C733.404919,67.2465834 738.330887,62.3184141 744.41021,62.3184141 C750.489532,62.3184141 755.415501,67.2465834 755.415501,73.3237051 L755.415501,432.901779 C755.415501,438.981102 750.489532,443.90707 744.41021,443.90707" id="Fill-1" fill="#253368"></path>
            <path d="M201.206434,195.635189 L201.206434,365.640522 C201.206434,387.402384 243.997206,401.625623 243.997206,401.625623 C384.622815,442.431041 533.951407,442.431041 674.577016,401.625623 C674.577016,401.625623 717.367788,387.402384 717.367788,365.640522 L717.367788,195.635189 C717.367788,197.145115 459.287111,251.731358 459.287111,251.731358 C459.287111,251.731358 201.206434,197.145115 201.206434,195.635189 Z" id="Fill-3" fill="#4E5C93"></path>
            <g transform="translate(0.000000, 0.088042)">
                <mask id="mask-2" fill="white">
                    <use xlink:href="#path-1"></use>
                </mask>
                <g id="Clip-6"></g>
                <polygon id="Fill-5" fill="#E4EBF7" mask="url(#mask-2)" points="0 132.294016 460.560423 263.069889 914.01363 132.294016 453.453206 0.0940585538"></polygon>
            </g>
            <path d="M0,132.382059 L0,144.626545 C0,152.515138 5.24732275,159.444069 12.8409735,161.579096 L460.626455,287.49063 L460.560423,263.157932 L0,132.382059 Z" id="Fill-7" fill="#253368"></path>
            <g transform="translate(460.021164, 132.151534)">
                <mask id="mask-4" fill="white">
                    <use xlink:href="#path-3"></use>
                </mask>
                <g id="Clip-10"></g>
                <path d="M0.539479365,155.170715 L441.338802,25.9047675 C448.837807,23.7037093 453.992686,16.8254025 453.992686,9.00724374 L453.992686,0.229423633 L0.539479365,131.005297 L0.539479365,155.170715 Z" id="Fill-9" fill="#253368" mask="url(#mask-4)"></path>
            </g>
            <path d="M450.98538,141.72699 C432.236766,141.72699 417.036258,134.787854 417.036258,126.228246 C417.036258,117.666126 432.236766,110.72699 450.98538,110.72699 C469.736195,110.72699 484.934502,117.666126 484.934502,126.228246 C484.934502,134.787854 469.736195,141.72699 450.98538,141.72699 Z" id="Fill-11" fill="#FFFFFF"></path>
            <path d="M450.988021,137.155934 C446.548487,137.155934 442.366476,134.450833 440.698074,130.05532 C438.538836,124.372188 441.39581,118.017733 447.078942,115.860696 L651.58146,38.196357 C653.747302,37.3731612 656.120042,37.2565051 658.358519,37.8595951 L747.279069,61.8819443 C753.14709,63.4667062 756.618159,69.5086109 755.035598,75.3766321 C753.448635,81.2446533 747.40673,84.7069178 741.54091,83.1309601 L656.062815,60.0374575 L454.892698,136.436188 C453.60728,136.927024 452.286646,137.155934 450.988021,137.155934" id="Fill-13" fill="#4E5C93"></path>
            <path d="M479.167509,126.148662 C479.167509,132.373254 466.551043,137.420281 450.98516,137.420281 C435.421477,137.420281 422.805012,132.373254 422.805012,126.148662 C422.805012,119.921868 435.421477,114.874842 450.98516,114.874842 C466.551043,114.874842 479.167509,119.921868 479.167509,126.148662" id="Fill-17" fill="#4E5C93"></path>
        </g>
    </g>
</svg>