<svg xmlns="http://www.w3.org/2000/svg" xmlns:xlink="http://www.w3.org/1999/xlink" width="1024" height="1024" version="1.1" viewBox="0 0 1024 1024"><title>3.通用组件/灰色版/感叹号</title><desc>Created with Sketch.</desc><defs><polygon id="path-1" points="0 0 864 0 864 864 0 864"/></defs><g id="3.通用组件/灰色版/感叹号" fill="none" fill-rule="evenodd" stroke="none" stroke-width="1"><g id="分组" transform="translate(80.000000, 80.000000)"><g><mask id="mask-2" fill="#fff"><use xlink:href="#path-1"/></mask><path id="Fill-1" fill="#A3B5D6" d="M432.000096,-9.64285715e-05 C193.412668,-9.64285715e-05 9.64285715e-05,193.412475 9.64285715e-05,431.999904 C9.64285715e-05,670.586368 193.412668,863.999904 432.000096,863.999904 C670.587525,863.999904 864.000096,670.586368 864.000096,431.999904 C864.000096,193.412475 670.587525,-9.64285715e-05 432.000096,-9.64285715e-05" mask="url(#mask-2)"/></g><path id="Fill-3" fill="#FFF" d="M449.641607,555.428475 L434.213036,555.428475 C421.431429,555.428475 411.070179,545.067225 411.070179,532.285618 L411.070179,239.142761 C411.070179,226.361154 421.431429,215.999904 434.213036,215.999904 L449.641607,215.999904 C462.423214,215.999904 472.784464,226.361154 472.784464,239.142761 L472.784464,532.285618 C472.784464,545.067225 462.423214,555.428475 449.641607,555.428475"/><path id="Fill-5" fill="#FFF" d="M449.641607,650.297604 L434.213036,650.297604 C421.431429,650.297604 411.070179,639.936354 411.070179,627.154746 L411.070179,611.726175 C411.070179,598.944568 421.431429,588.583318 434.213036,588.583318 L449.641607,588.583318 C462.423214,588.583318 472.784464,598.944568 472.784464,611.726175 L472.784464,627.154746 C472.784464,639.936354 462.423214,650.297604 449.641607,650.297604"/></g></g></svg>