<svg xmlns="http://www.w3.org/2000/svg" xmlns:xlink="http://www.w3.org/1999/xlink" width="1024" height="1024" version="1.1" viewBox="0 0 1024 1024"><title>3.通用组件/灰色版/成交详情页</title><desc>Created with Sketch.</desc><defs><polygon id="path-1" points="0 .722 818.27 .722 818.27 102.842 0 102.842"/><polygon id="path-3" points="0 .654 818.27 .654 818.27 715.2 0 715.2"/><polygon id="path-5" points="0 .014 426 .014 426 426.014 0 426.014"/><polygon id="path-7" points="0 .665 201.401 .665 201.401 111.445 0 111.445"/></defs><g id="3.通用组件/灰色版/成交详情页" fill="none" fill-rule="evenodd" stroke="none" stroke-width="1"><g id="分组-copy-4" transform="translate(103.000000, 107.000000)"><g id="分组" transform="translate(0.000000, 0.477600)"><mask id="mask-2" fill="#fff"><use xlink:href="#path-1"/></mask><path id="Fill-1" fill="#253368" d="M818.26968,102.84204 L-0.00072,102.84204 L-0.00072,29.52204 C-0.00072,13.61724 12.89448,0.72204 28.79928,0.72204 L789.46968,0.72204 C805.37568,0.72204 818.26968,13.61724 818.26968,29.52204 L818.26968,102.84204 Z" mask="url(#mask-2)"/></g><g id="分组" transform="translate(0.000000, 94.077600)"><mask id="mask-4" fill="#fff"><use xlink:href="#path-3"/></mask><path id="Fill-3" fill="#E4EBF7" d="M789.46968,715.2 L28.79928,715.2 C12.89448,715.2 -0.00072,702.306 -0.00072,686.4 L-0.00072,0.654 L818.26968,0.654 L818.26968,686.4 C818.26968,702.306 805.37568,715.2 789.46968,715.2" mask="url(#mask-4)"/></g><path id="Fill-5" fill="#A3B5D6" d="M66.49776,48.72372 C66.49776,58.70532 58.40496,66.79812 48.42216,66.79812 C38.44056,66.79812 30.34896,58.70532 30.34896,48.72372 C30.34896,38.74212 38.44056,30.64932 48.42216,30.64932 C58.40496,30.64932 66.49776,38.74212 66.49776,48.72372"/><path id="Fill-7" fill="#E4EBF7" d="M133.99656,48.72372 C133.99656,58.70532 125.90496,66.79812 115.92216,66.79812 C105.94056,66.79812 97.84896,58.70532 97.84896,48.72372 C97.84896,38.74212 105.94056,30.64932 115.92216,30.64932 C125.90496,30.64932 133.99656,38.74212 133.99656,48.72372"/><path id="Fill-9" fill="#E4EBF7" d="M201.49656,48.72372 C201.49656,58.70532 193.40496,66.79812 183.42216,66.79812 C173.44056,66.79812 165.34896,58.70532 165.34896,48.72372 C165.34896,38.74212 173.44056,30.64932 183.42216,30.64932 C193.40496,30.64932 201.49656,38.74212 201.49656,48.72372"/><path id="Fill-11" fill="#FFF" d="M88.4398883,712.08372 C83.4758001,712.08372 79.45308,708.063057 79.45308,703.104015 L79.45308,182.537025 C79.45308,177.577983 83.4758001,173.55732 88.4398883,173.55732 L738.770272,173.55732 C743.733237,173.55732 747.75708,177.577983 747.75708,182.537025 L747.75708,703.104015 C747.75708,708.063057 743.733237,712.08372 738.770272,712.08372 L88.4398883,712.08372 Z"/><g id="分组" transform="translate(177.600000, 229.186480)"><g transform="translate(37.200000, 0.000000)"><mask id="mask-6" fill="#fff"><use xlink:href="#path-5"/></mask><path id="Fill-1" fill="#E4EBF7" d="M426,213.01352 C426,330.651185 330.630282,426.01352 212.992617,426.01352 C95.3623349,426.01352 0,330.651185 0,213.01352 C0,95.3758549 95.3623349,0.01352 212.992617,0.01352 C330.630282,0.01352 426,95.3758549 426,213.01352" mask="url(#mask-6)"/></g><path id="Fill-3" fill="#4E5C93" d="M327.6,399.8 L192,399.8 L192,377.3 C192,373.15729 195.372211,369.8 199.533333,369.8 L320.066667,369.8 C324.227789,369.8 327.6,373.15729 327.6,377.3 L327.6,399.8 Z"/><path id="Fill-5" fill="#A3B5D6" d="M357.256958,426.2 L161.143042,426.2 C156.976557,426.2 153.6,422.84271 153.6,418.7 L153.6,403.7 C153.6,399.562423 156.976557,396.2 161.143042,396.2 L357.256958,396.2 C361.423443,396.2 364.8,399.562423 364.8,403.7 L364.8,418.7 C364.8,422.84271 361.423443,426.2 357.256958,426.2"/><g id="分组-2" transform="translate(193.005490, 222.613369) rotate(-10.000000) translate(-193.005490, -222.613369) translate(18.005490, 103.613369)"><g id="分组" transform="translate(0.000000, 117.600000)"><mask id="mask-8" fill="#fff"><use xlink:href="#path-7"/></mask><path id="Fill-7" fill="#A3B5D6" d="M192.332603,50.1918273 L26.7466338,110.606645 C19.5975877,113.218282 11.6938338,109.523645 9.09371077,102.352009 L0.83328,79.6141909 C-1.76684308,72.4477364 1.91881846,64.5247364 9.06786462,61.9131 L174.653834,1.50346364 C181.80288,-1.10817273 189.706634,2.58646364 192.306757,9.75291818 L200.567188,32.4907364 C203.167311,39.6623727 199.481649,47.5853727 192.332603,50.1918273" mask="url(#mask-8)"/></g><path id="Fill-9" fill="#4E5C93" d="M335.587716,194.380784 L220.582325,236.306641 C210.032222,240.151912 198.523956,235.13342 194.871601,225.091268 L137.917532,68.3654675 C134.265177,58.3233151 139.859616,47.0665946 150.409719,43.2213237 L265.420261,1.29546662 C275.970364,-2.55497267 287.47863,2.46868772 291.125833,12.5108401 L348.085054,169.23664 C351.732258,179.278793 346.137819,190.535513 335.587716,194.380784"/></g></g><path id="Fill-1" fill="#CED7EC" d="M311.2794,241.707 L146.6538,241.707 C139.9134,241.707 134.4006,236.193 134.4006,229.4538 C134.4006,222.7134 139.9134,217.2006 146.6538,217.2006 L311.2794,217.2006 C318.0186,217.2006 323.5326,222.7134 323.5326,229.4538 C323.5326,236.193 318.0186,241.707 311.2794,241.707"/><path id="Fill-3" fill="#CED7EC" d="M216.09744,299.49744 L154.82904,299.49744 C148.06224,299.49744 142.57464,294.01104 142.57464,287.24424 C142.57464,280.47624 148.06224,274.99104 154.82904,274.99104 L216.09744,274.99104 C222.86544,274.99104 228.35064,280.47624 228.35064,287.24424 C228.35064,294.01104 222.86544,299.49744 216.09744,299.49744"/></g></g></svg>