<svg xmlns="http://www.w3.org/2000/svg" xmlns:xlink="http://www.w3.org/1999/xlink" width="1024" height="1024" version="1.1" viewBox="0 0 1024 1024"><title>3.通用组件/灰色版/护盾</title><desc>Created with Sketch.</desc><g id="3.通用组件/灰色版/护盾" fill="none" fill-rule="evenodd" stroke="none" stroke-width="1"><g id="分组" transform="translate(148.000000, 64.000000)"><path id="Fill-1" fill="#CCD7EE" d="M563.668928,0.0801804327 L163.417184,0.0801804327 C150.397818,0.0801804327 139.526557,9.74768188 137.703694,22.6355232 C125.805924,106.745703 49.1127973,149.986409 15.6151343,164.570303 C6.15072892,168.690523 0.000324160475,177.993967 0.000324160475,188.316124 L0.000324160475,530.580676 C0.000324160475,754.562284 363.543056,897.281354 363.543056,897.281354 C363.543056,897.281354 727.084707,754.562284 727.084707,530.580676 L727.084707,188.315043 C727.084707,177.993967 720.934302,168.690523 711.469897,164.570303 C677.972234,149.986409 601.279107,106.745703 589.381337,22.6355232 C587.558475,9.74768188 576.687213,1.16046889 563.668928,1.16046889 L563.668928,0.0801804327 Z"/><path id="Fill-3" fill="#4E5C93" d="M530.020314,66.758393 C534.952956,82.0012632 541.557186,96.7050695 549.78762,110.743418 C561.88745,131.376928 577.546562,150.609303 596.331662,167.903641 C617.39777,187.29914 639.662192,201.807414 659.011331,212.297015 L659.011331,528.73079 C659.011331,614.386862 576.978201,690.25228 508.161093,738.812327 C452.216398,778.288228 395.238711,806.660924 363.497998,821.17676 C332.270538,806.921273 276.564641,779.202152 220.937623,740.227505 C173.870603,707.251699 136.867684,673.231255 110.956457,639.113585 C96.8500736,620.539105 86.0847042,601.911691 78.9596569,583.749881 C71.6347107,565.079256 68.0732676,547.082731 68.0732676,528.73079 L68.0732676,212.297015 C87.4213259,201.807414 109.688989,187.29806 130.754018,167.903641 C149.538037,150.609303 165.197149,131.378008 177.296979,110.743418 C185.527413,96.7061498 192.131643,82.0012632 197.065365,66.758393 L530.020314,66.758393"/><path id="Fill-5" fill="#FFF" d="M380.97673,244.850428 L261.482535,426.167123 C255.053352,435.997748 261.966614,448.086176 273.557513,448.086176 L327.08289,448.086176 L261.272911,571.938007 C256.36296,581.94796 269.013863,591.237361 276.772104,583.318846 L455.760552,404.156246 C464.894314,394.834437 458.416507,378.908824 445.492229,378.908824 L364.549358,378.908824 L398.411161,252.721409 C401.05523,241.981181 387.002874,235.636647 380.97673,244.850428"/></g></g></svg>