<svg xmlns="http://www.w3.org/2000/svg" xmlns:xlink="http://www.w3.org/1999/xlink" width="1024" height="1024" version="1.1" viewBox="0 0 1024 1024"><title>3.通用组件/灰色版/搜索详情页</title><desc>Created with Sketch.</desc><g id="3.通用组件/灰色版/搜索详情页" fill="none" fill-rule="evenodd" stroke="none" stroke-width="1"><g id="编组-7" transform="translate(56.000000, 110.000000)"><g id="编组-6"><g id="分组-copy-7"><path id="Fill-1" fill="#253368" d="M912.999284,102.012798 L0.999283887,102.012798 L0.999283887,28.9105461 C0.999283887,13.0529807 13.9050509,0.196077272 29.8228842,0.196077272 L884.175684,0.196077272 C900.094718,0.196077272 912.999284,13.0529807 912.999284,28.9105461 L912.999284,102.012798 Z"/><path id="Fill-3" fill="#E4EBF7" d="M880.901075,804.457944 L33.0989248,804.457944 C15.3722936,804.457944 1,791.619771 1,775.782639 L1,93.0057017 L913,93.0057017 L913,775.782639 C913,791.619771 898.629044,804.457944 880.901075,804.457944"/><path id="Fill-5" fill="#A3B5D6" d="M67.1387264,47.5790188 C67.1387264,57.5309751 59.0896209,65.5997409 49.1607199,65.5997409 C39.2330124,65.5997409 31.1851004,57.5309751 31.1851004,47.5790188 C31.1851004,37.6270625 39.2330124,29.5582967 49.1607199,29.5582967 C59.0896209,29.5582967 67.1387264,37.6270625 67.1387264,47.5790188"/><path id="Fill-7" fill="#E4EBF7" d="M134.273088,47.5790188 C134.273088,57.5309751 126.225176,65.5997409 116.296275,65.5997409 C106.368568,65.5997409 98.3206555,57.5309751 98.3206555,47.5790188 C98.3206555,37.6270625 106.368568,29.5582967 116.296275,29.5582967 C126.225176,29.5582967 134.273088,37.6270625 134.273088,47.5790188"/><path id="Fill-9" fill="#E4EBF7" d="M201.408643,47.5790188 C201.408643,57.5309751 193.360731,65.5997409 183.43183,65.5997409 C173.504123,65.5997409 165.456211,57.5309751 165.456211,47.5790188 C165.456211,37.6270625 173.504123,29.5582967 183.43183,29.5582967 C193.360731,29.5582967 201.408643,37.6270625 201.408643,47.5790188"/></g><rect id="矩形-copy-14" width="784.15" height="102.28" x="64.925" y="156.682" fill="#FFF" fill-rule="nonzero" rx="17.047"/><path id="矩形-copy-60" fill="#A3B5D6" fill-rule="nonzero" d="M665.82243,156.682243 L836.28972,156.682243 C845.704368,156.682243 853.336449,164.314324 853.336449,173.728972 L853.336449,241.915888 C853.336449,251.330536 845.704368,258.962617 836.28972,258.962617 L665.82243,258.962617 L665.82243,258.962617 L665.82243,156.682243 Z"/><rect id="矩形-copy-45" width="187.514" height="340.935" x="64.925" y="310.103" fill="#4E5C93" fill-rule="nonzero" rx="17.047"/><rect id="矩形-copy-52" width="554.019" height="340.935" x="295.056" y="310.103" fill="#FFF" fill-rule="nonzero" rx="17.047"/><rect id="矩形-copy-18" width="426.168" height="21.365" x="346.196" y="378.29" fill="#D6E0F2" fill-rule="nonzero" rx="10.682"/><rect id="矩形-copy-58" width="426.168" height="21.365" x="346.196" y="506.14" fill="#D6E0F2" fill-rule="nonzero" rx="10.682"/><rect id="矩形-copy-19" width="298.318" height="21.365" x="346.196" y="442.215" fill="#D6E0F2" fill-rule="nonzero" rx="10.682"/><rect id="矩形-copy-59" width="298.318" height="21.365" x="346.196" y="570.065" fill="#D6E0F2" fill-rule="nonzero" rx="10.682"/><rect id="矩形-copy-10" width="80.972" height="53.412" x="64.925" y="689.393" fill="#BDCAE2" fill-rule="nonzero" rx="8.523"/><rect id="矩形-copy-12" width="53.271" height="53.412" x="789.411" y="689.393" fill="#A3B5D6" fill-rule="nonzero" rx="12.785"/><rect id="矩形-copy-13" width="53.271" height="53.412" x="716.963" y="689.393" fill="#BDCAE2" fill-rule="nonzero" rx="12.785"/><rect id="矩形-copy-15" width="53.271" height="53.412" x="640.252" y="689.393" fill="#BDCAE2" fill-rule="nonzero" rx="12.785"/><rect id="矩形-copy-15" width="117.956" height="29.107" x="99.019" y="378.29" fill="#FFF" fill-rule="nonzero" rx="6.507"/><rect id="矩形-copy-16" width="117.956" height="28.226" x="99.019" y="433.692" fill="#FFF" fill-rule="nonzero" rx="6.408"/><rect id="矩形-copy-17" width="117.956" height="28.226" x="99.019" y="489.093" fill="#FFF" fill-rule="nonzero" rx="6.408"/><rect id="矩形-copy-18" width="117.956" height="28.226" x="99.019" y="544.495" fill="#FFF" fill-rule="nonzero" rx="6.408"/></g></g></g></svg>