<?xml version="1.0" encoding="UTF-8"?>
<svg width="1024px" height="1024px" viewBox="0 0 1024 1024" version="1.1" xmlns="http://www.w3.org/2000/svg" xmlns:xlink="http://www.w3.org/1999/xlink">
    <!-- Generator: Sketch 61.2 (89653) - https://sketch.com -->
    <title>3.通用组件/灰色版/摄像头监控</title>
    <desc>Created with Sketch.</desc>
    <g id="3.通用组件/灰色版/摄像头监控" stroke="none" stroke-width="1" fill="none" fill-rule="evenodd">
        <g id="资源-27" transform="translate(128.000000, 71.000000)">
            <path d="M612.032566,882.950796 C619.287753,882.953421 626.200508,879.865223 631.03962,874.459602 C635.878731,869.053981 638.185914,861.842874 637.383363,854.632212 C623.31469,727.119292 515.194336,627.913628 383.909381,627.913628 C252.624425,627.913628 144.515398,727.119292 130.435398,854.654867 C129.636339,861.866707 131.946299,869.077572 136.787134,874.482703 C141.62797,879.887835 148.54155,882.973453 155.797522,882.973453 L612.032566,882.950796 Z" id="路径" fill="#E4EBF7" fill-rule="nonzero"></path>
            <path d="M383.626195,627.958869 C301.469643,627.899642 224.329815,667.475507 176.458761,734.244248 C302.296203,815.325457 463.846344,815.630795 589.989381,735.025841 L590.91823,734.414159 C543.058469,667.545354 465.857516,627.898657 383.626195,627.958869 L383.626195,627.958869 Z" id="路径" fill="#A3B5D6" fill-rule="nonzero"></path>
            <circle id="椭圆形" fill="#E4EBF7" fill-rule="nonzero" cx="384.101947" cy="382.538761" r="382.538761"></circle>
            <circle id="椭圆形" fill="#253368" fill-rule="nonzero" cx="384.101947" cy="411.174513" r="204.018407"></circle>
            <circle id="椭圆形" fill="#E4EBF7" fill-rule="nonzero" cx="384.101947" cy="411.174513" r="102.014867"></circle>
            <circle id="椭圆形" fill="#2A2E51" fill-rule="nonzero" cx="384.101947" cy="411.174513" r="38.2527434"></circle>
            <polyline id="路径" stroke="#4E5C93" stroke-width="9.6" stroke-linecap="round" stroke-linejoin="round" points="0.283185841 382.538761 65.9709735 382.538761 88.9543363 421.60708 177.376283 421.60708"></polyline>
            <polyline id="路径" stroke="#4E5C93" stroke-width="9.6" stroke-linecap="round" stroke-linejoin="round" points="767.444956 382.538761 701.745841 382.538761 678.773805 421.60708 587.803186 421.60708"></polyline>
        </g>
    </g>
</svg>