<?xml version="1.0" encoding="UTF-8"?>
<svg width="1024px" height="1024px" viewBox="0 0 1024 1024" version="1.1" xmlns="http://www.w3.org/2000/svg" xmlns:xlink="http://www.w3.org/1999/xlink">
    <!-- Generator: Sketch 61.2 (89653) - https://sketch.com -->
    <title>3.通用组件/灰色版/数据表盘</title>
    <desc>Created with Sketch.</desc>
    <g id="3.通用组件/灰色版/数据表盘" stroke="none" stroke-width="1" fill="none" fill-rule="evenodd">
        <g id="分组" transform="translate(57.000000, 140.000000)">
            <path d="M910.305882,463.905882 C910.305882,189.954141 706.526471,0 455.152941,0 C203.779412,0 0,182.560094 0,463.905882 C0,544.838859 35.9899059,666.766235 96.3698824,744 L813.936,744 C874.315976,666.766235 910.305882,559.624765 910.305882,463.905882" id="Fill-1" fill="#4E5C93"></path>
            <path d="M866.314147,455.445727 C866.314147,228.368174 682.231041,44.2850682 455.153488,44.2850682 C228.074841,44.2850682 43.9917353,228.368174 43.9917353,455.445727 C43.9917353,550.870292 76.5023471,638.698398 131.047394,708.468092 L779.258488,708.468092 C833.803535,638.698398 866.314147,550.870292 866.314147,455.445727" id="Fill-3" fill="#E4E6EF"></path>
            <path d="M866.314147,455.445727 C866.314147,228.368174 682.231041,44.2850682 455.153488,44.2850682 C228.074841,44.2850682 43.9917353,228.368174 43.9917353,455.445727 C43.9917353,550.870292 76.5023471,638.698398 131.047394,708.468092 L779.258488,708.468092 C833.803535,638.698398 866.314147,550.870292 866.314147,455.445727" id="Fill-5" fill="#E4EBF7"></path>
            <path d="M455.153051,196.314688 C607.569921,196.314688 731.127921,319.873378 731.127921,472.290653 C731.127921,534.708481 710.339731,593.970428 672.693424,642.124038 C671.060664,644.212511 668.044009,644.58194 665.955536,642.94918 C663.867063,641.316419 663.497634,638.299764 665.130395,636.211291 C701.468254,589.731322 721.527921,532.546215 721.527921,472.290653 C721.527921,325.175299 602.267975,205.914688 455.153051,205.914688 C308.037912,205.914688 188.777086,325.175514 188.777086,472.290653 C188.777086,532.545488 208.837334,589.730667 245.175707,636.211291 C246.808467,638.299764 246.439038,641.316419 244.350565,642.94918 C242.262092,644.58194 239.245437,644.212511 237.612677,642.124038 C199.965875,593.969795 179.177086,534.707785 179.177086,472.290653 C179.177086,319.87358 302.735978,196.314688 455.153051,196.314688 Z" id="Stroke-7" fill="#FFFFFF" fill-rule="nonzero"></path>
            <path d="M455.505882,162.423529 L455.505882,162.423529 C445.837165,162.423529 438,154.585271 438,144.917647 L438,109.905882 C438,100.238259 445.837165,92.4 455.505882,92.4 C465.1746,92.4 473.011765,100.238259 473.011765,109.905882 L473.011765,144.917647 C473.011765,154.585271 465.1746,162.423529 455.505882,162.423529" id="Fill-9" fill="#4E5C93"></path>
            <path d="M226.569992,256.922933 L226.569992,256.922933 C219.733945,263.760074 208.649439,263.760074 201.813392,256.922933 L177.055698,232.166333 C170.219651,225.329192 170.219651,214.24578 177.055698,207.408639 C183.892839,200.572592 194.976251,200.572592 201.813392,207.408639 L226.569992,232.166333 C233.406039,239.00238 233.406039,250.085792 226.569992,256.922933" id="Fill-11" fill="#4E5C93"></path>
            <path d="M145.496908,463.905882 L145.496908,463.905882 C145.496908,473.573506 137.659744,481.411765 127.991026,481.411765 L92.9792612,481.411765 C83.3105435,481.411765 75.4733788,473.573506 75.4733788,463.905882 C75.4733788,454.238259 83.3105435,446.4 92.9792612,446.4 L127.991026,446.4 C137.659744,446.4 145.496908,454.238259 145.496908,463.905882" id="Fill-13" fill="#4E5C93"></path>
            <path d="M764.808974,463.905882 L764.808974,463.905882 C764.808974,454.238259 772.646139,446.4 782.314856,446.4 L817.326621,446.4 C826.994245,446.4 834.832504,454.238259 834.832504,463.905882 C834.832504,473.573506 826.994245,481.411765 817.326621,481.411765 L782.314856,481.411765 C772.646139,481.411765 764.808974,473.573506 764.808974,463.905882" id="Fill-15" fill="#4E5C93"></path>
            <path d="M683.735891,232.166333 L708.492491,207.408639 C715.329632,200.572592 726.413044,200.572592 733.250185,207.408639 C740.086232,214.24578 740.086232,225.329192 733.250185,232.166333 L708.492491,256.922933 C701.656444,263.760074 690.571938,263.760074 683.735891,256.922933 C676.899844,250.085792 676.899844,239.00238 683.735891,232.166333 Z" id="Fill-17" fill="#4E5C93"></path>
            <path d="M341.566032,542.637332 L562.236503,386.355098 C566.399621,383.318921 571.473044,388.72058 568.181938,392.685662 L398.365032,597.33818 L341.566032,542.637332 Z" id="Fill-19" fill="#253368" transform="translate(455.402376, 491.402376) rotate(-48.000000) translate(-455.402376, -491.402376) "></path>
            <path d="M455.152941,659.752941 C416.480259,659.752941 385.129412,628.402094 385.129412,589.729412 C385.129412,551.056729 416.480259,519.705882 455.152941,519.705882 C493.825624,519.705882 525.176471,551.056729 525.176471,589.729412 C525.176471,628.402094 493.825624,659.752941 455.152941,659.752941 Z" id="Fill-21" fill="#253368"></path>
            <path d="M490.164706,589.729412 C490.164706,609.065753 474.489282,624.741176 455.152941,624.741176 C435.8166,624.741176 420.141176,609.065753 420.141176,589.729412 C420.141176,570.393071 435.8166,554.717647 455.152941,554.717647 C474.489282,554.717647 490.164706,570.393071 490.164706,589.729412" id="Fill-23" fill="#A3B5D6"></path>
        </g>
    </g>
</svg>