<svg xmlns="http://www.w3.org/2000/svg" xmlns:xlink="http://www.w3.org/1999/xlink" width="1024" height="1024" version="1.1" viewBox="0 0 1024 1024"><title>3.通用组件/灰色版/数据表单</title><desc>Created with Sketch.</desc><defs><polygon id="path-1" points="0 .191 657.076 .191 657.076 766.181 0 766.181"/><polygon id="path-3" points="0 832.671 708.052 832.671 708.052 0 0 0"/></defs><g id="3.通用组件/灰色版/数据表单" fill="none" fill-rule="evenodd" stroke="none" stroke-width="1"><g id="编组-2" transform="translate(158.000000, 95.000000)"><g id="编组"><path id="Fill-1" fill="#253368" d="M675.245917,775.804644 L91.9816983,775.804644 C73.8635536,775.804644 59.1756875,761.117803 59.1756875,742.998633 L59.1756875,32.8069335 C59.1756875,14.6877637 73.8635536,0.000922669056 91.9816983,0.000922669056 L675.245917,0.000922669056 C693.364062,0.000922669056 708.051928,14.6877637 708.051928,32.8069335 L708.051928,742.998633 C708.051928,761.117803 693.364062,775.804644 675.245917,775.804644"/><g transform="translate(0.000000, 66.489587)"><mask id="mask-2" fill="#fff"><use xlink:href="#path-1"/></mask><path id="Fill-3" fill="#E4EBF7" d="M624.269784,766.180894 L32.8050882,766.180894 C14.6879687,766.180894 -0.000922669057,751.494053 -0.000922669057,733.374883 L-0.000922669057,32.9973067 C-0.000922669057,14.879162 14.6879687,0.191295832 32.8050882,0.191295832 L624.269784,0.191295832 C642.388954,0.191295832 657.075795,14.879162 657.075795,32.9973067 L657.075795,733.374883 C657.075795,751.494053 642.388954,766.180894 624.269784,766.180894" mask="url(#mask-2)"/></g><path id="Fill-5" fill="#A3B5D6" d="M166.735423,566.097653 C163.395361,566.097653 160.685789,563.389107 160.685789,560.04802 L160.685789,548.178395 C160.685789,544.838333 163.395361,542.128762 166.735423,542.128762 L473.365005,542.128762 C476.706092,542.128762 479.413613,544.838333 479.413613,548.178395 L479.413613,560.04802 C479.413613,563.389107 476.706092,566.097653 473.365005,566.097653 L166.735423,566.097653 Z"/><path id="Fill-7" fill="#A3B5D6" d="M111.427769,574.396036 C100.225541,574.396036 91.1454526,565.314922 91.1454526,554.11372 C91.1454526,542.911492 100.225541,533.830379 111.427769,533.830379 C122.629996,533.830379 131.71111,542.911492 131.71111,554.11372 C131.71111,565.314922 122.629996,574.396036 111.427769,574.396036 Z"/><path id="Fill-9" fill="#A3B5D6" d="M166.065462,644.727818 C163.094468,644.727818 160.685277,642.318626 160.685277,639.347632 L160.685277,627.479032 C160.685277,623.767852 163.694203,620.759951 167.404358,620.759951 L573.34081,620.759951 C576.311805,620.759951 578.720996,623.169143 578.720996,626.139112 L578.720996,639.347632 C578.720996,642.318626 576.311805,644.727818 573.34081,644.727818 L166.065462,644.727818 Z"/><path id="Fill-11" fill="#A3B5D6" d="M111.427769,653.026201 C100.225541,653.026201 91.1454526,643.946112 91.1454526,632.743884 C91.1454526,621.541657 100.225541,612.461568 111.427769,612.461568 C122.629996,612.461568 131.71111,621.541657 131.71111,632.743884 C131.71111,643.946112 122.629996,653.026201 111.427769,653.026201 Z"/><path id="Fill-13" fill="#A3B5D6" d="M165.738222,723.35788 C162.948686,723.35788 160.686097,721.09529 160.686097,718.304729 L160.686097,706.435104 C160.686097,702.544516 163.8406,699.390013 167.732213,699.390013 L382.364514,699.390013 C385.155075,699.390013 387.417665,701.651578 387.417665,704.443164 L387.417665,718.304729 C387.417665,721.09529 385.155075,723.35788 382.364514,723.35788 L165.738222,723.35788 Z"/><path id="Fill-15" fill="#A3B5D6" d="M111.427769,731.656263 C100.225541,731.656263 91.1454526,722.576174 91.1454526,711.373946 C91.1454526,700.171719 100.225541,691.09163 111.427769,691.09163 C122.629996,691.09163 131.71111,700.171719 131.71111,711.373946 C131.71111,722.576174 122.629996,731.656263 111.427769,731.656263 Z"/><path id="Fill-17" fill="#FFF" d="M586.379867,463.748025 L70.6960308,463.748025 C66.1667509,463.748025 62.4945281,460.076828 62.4945281,455.546522 L62.4945281,161.845584 C62.4945281,157.316304 66.1667509,153.644081 70.6960308,153.644081 L586.379867,153.644081 C590.909147,153.644081 594.58137,157.316304 594.58137,161.845584 L594.58137,455.546522 C594.58137,460.076828 590.909147,463.748025 586.379867,463.748025"/><path id="Fill-19" fill="#A3B5D6" d="M148.94011,334.959828 C159.416504,294.029203 188.751229,222.7889 220.180413,221.813947 C247.422729,220.969192 276.753353,289.838236 291.41969,334.959828" opacity=".3"/><mask id="mask-4" fill="#fff"><use xlink:href="#path-3"/></mask><polygon id="Fill-21" fill="#4E5C93" points="140.854 445.382 149.235 445.382 149.235 192.153 140.854 192.153" mask="url(#mask-4)"/><polygon id="Fill-23" fill="#4E5C93" points="145.045 178.176 132.22 200.389 157.87 200.389" mask="url(#mask-4)"/><path id="Fill-24" fill="#A3B5D6" d="M383.614013,334.959828 C377.327561,361.079564 362.975956,422.962977 337.517467,422.962977 C312.058977,422.962977 297.828345,359.598167 291.419895,334.959828" mask="url(#mask-4)" opacity=".307"/><path id="Fill-25" fill="#A3B5D6" d="M383.614013,334.959828 C394.090407,298.219146 410.852228,262.744571 433.901527,263.719525 C456.948774,264.694479 469.521678,294.029203 484.189041,334.959828" mask="url(#mask-4)" opacity=".307"/><polygon id="Fill-26" fill="#4E5C93" points="107.034 339.152 551.294 339.152 551.294 330.77 107.034 330.77" mask="url(#mask-4)"/><polygon id="Fill-27" fill="#4E5C93" points="562.293 334.96 537.245 349.421 537.245 320.499" mask="url(#mask-4)"/><path id="Fill-28" fill="#4E5C93" d="M287.43458,336.258331 C269.549153,281.227273 242.036187,225.997328 220.691776,225.997328 C220.562603,225.997328 220.43753,226.001429 220.310406,226.00553 C193.385898,226.836957 164.22648,292.134246 152.999648,335.999984 L144.880161,333.921928 C153.059109,301.968873 182.50558,218.790258 220.051034,217.623594 C254.654199,216.527668 286.468853,306.171118 295.406441,333.66358 L287.43458,336.258331 Z" mask="url(#mask-4)"/><path id="Fill-29" fill="#4E5C93" d="M337.517569,427.154663 C310.562305,427.154663 296.406512,371.517719 288.802693,341.631443 L287.36538,336.017514 L295.475641,333.905627 L296.924231,339.564664 C302.956437,363.268032 317.078399,418.772727 337.517569,418.772727 C359.165436,418.772727 373.687221,358.336879 379.152498,335.58386 L379.540019,333.978416 L387.688212,335.942676 L387.303766,337.544019 C380.315061,366.627573 365.771746,427.154663 337.517569,427.154663" mask="url(#mask-4)"/><path id="Fill-30" fill="#4E5C93" d="M480.24299,336.372434 C466.534178,298.11755 454.404156,268.782825 433.725092,267.907315 C416.608556,267.134323 400.388034,291.409746 387.644949,336.111011 L379.581846,333.811515 C389.426725,299.287289 406.873372,258.433554 434.079807,259.534606 C459.977077,260.626431 473.345526,292.281156 488.132836,333.549067 L480.24299,336.372434 Z" mask="url(#mask-4)"/><polygon id="Fill-31" fill="#436DAA" points="488.704 187.033 488.704 191.478 472.261 191.478 472.261 200.281 487.772 200.281 487.772 204.721 472.261 204.721 472.261 218.766 467.062 218.766 467.062 187.033" mask="url(#mask-4)"/><path id="Fill-32" fill="#436DAA" d="M526.252293,182.012669 C524.386451,185.081056 522.96349,188.146368 521.985461,191.212705 C520.653742,195.03358 520.031453,198.901614 520.031453,202.768622 C520.031453,206.591548 520.653742,210.454456 521.985461,214.322489 C522.96349,217.345768 524.386451,220.41108 526.252293,223.5215 L522.030569,223.5215 C519.897153,220.587412 518.29786,217.567209 517.142473,214.455764 C515.765646,210.719979 515.098249,206.811963 515.098249,202.80963 C515.098249,198.721181 515.765646,194.858273 517.142473,191.122488 C518.29786,187.925953 519.897153,184.900623 522.030569,182.012669 L526.252293,182.012669 Z" mask="url(#mask-4)"/><polygon id="Fill-33" fill="#436DAA" points="532.514 195.792 537.311 202.81 542.066 195.792 547.978 195.792 540.068 206.546 549 218.766 543.044 218.766 537.311 210.279 531.535 218.766 525.58 218.766 534.513 206.546 526.601 195.792" mask="url(#mask-4)"/><path id="Fill-34" fill="#436DAA" d="M552.551744,182.012669 C554.641077,184.900623 556.284453,187.925953 557.440865,191.122488 C558.771558,194.858273 559.484064,198.721181 559.484064,202.80963 C559.484064,206.811963 558.771558,210.719979 557.440865,214.455764 C556.284453,217.567209 554.641077,220.587412 552.551744,223.5215 L548.32797,223.5215 C550.150754,220.41108 551.573715,217.345768 552.596852,214.322489 C553.883463,210.454456 554.55086,206.591548 554.55086,202.768622 C554.55086,198.901614 553.883463,195.03358 552.596852,191.212705 C551.573715,188.146368 550.150754,185.081056 548.32797,182.012669 L552.551744,182.012669 Z" mask="url(#mask-4)"/></g></g></g></svg>