<svg xmlns="http://www.w3.org/2000/svg" xmlns:xlink="http://www.w3.org/1999/xlink" width="1024" height="1024" version="1.1" viewBox="0 0 1024 1024"><title>3.通用组件/灰色版/文件夹02</title><desc>Created with Sketch.</desc><g id="3.通用组件/灰色版/文件夹02" fill="none" fill-rule="evenodd" stroke="none" stroke-width="1"><g id="资源-25" fill-rule="nonzero" transform="translate(80.000000, 113.000000)"><rect id="矩形" width="863.004" height="673.891" x="0" y="71.799" fill="#4E5C93" rx="25.985"/><path id="路径" fill="#4E5C93" d="M41.7058647,0 L263.758195,0 C286.791709,0 305.46406,18.6706603 305.46406,41.702087 L305.46406,657.208435 C305.46406,666.422201 297.99415,673.891435 288.779549,673.891435 L16.6845113,673.891435 C7.46991014,673.891435 0,666.422201 0,657.208435 L0,41.702087 C0,18.6706603 18.6723516,0 41.7058647,0 Z"/><rect id="矩形" width="674.667" height="627.502" x="94.163" y="128.776" fill="#A3B5D6" rx="22.975"/><rect id="矩形" width="863.004" height="593.529" x="0" y="202.794" fill="#E4EBF7" rx="25.27"/><rect id="矩形" width="164.712" height="63.441" x="98.093" y="272.742" fill="#4E5C93" rx="8.662"/><rect id="矩形" width="138.586" height="138.574" x="663.916" y="574.757" fill="#A3B5D6" rx="17.323"/></g></g></svg>