<?xml version="1.0" encoding="UTF-8"?>
<svg width="1024px" height="1024px" viewBox="0 0 1024 1024" version="1.1" xmlns="http://www.w3.org/2000/svg" xmlns:xlink="http://www.w3.org/1999/xlink">
    <!-- Generator: Sketch 61.2 (89653) - https://sketch.com -->
    <title>3.通用组件/灰色版/文本页详情页</title>
    <desc>Created with Sketch.</desc>
    <g id="3.通用组件/灰色版/文本页详情页" stroke="none" stroke-width="1" fill="none" fill-rule="evenodd">
        <g id="分组-8" transform="translate(56.000000, 165.000000)">
            <g id="分组-2-copy-2" transform="translate(0.000000, 0.000000)">
                <path d="M911.692857,87.593968 L0.915047196,87.593968 L0.915047196,24.7822117 C0.915047196,11.1568923 12.0067506,0.109836129 25.6871374,0.109836129 L886.920767,0.109836129 C900.602186,0.109836129 911.692857,11.1568923 911.692857,24.7822117 L911.692857,87.593968 Z" id="Fill-1" fill="#253368"></path>
                <path d="M64.7794215,41.184363 C64.7794215,49.7353972 57.8617164,56.6683347 49.3284441,56.6683347 C40.7961974,56.6683347 33.8795181,49.7353972 33.8795181,41.184363 C33.8795181,32.6333288 40.7961974,25.7003913 49.3284441,25.7003913 C57.8617164,25.7003913 64.7794215,32.6333288 64.7794215,41.184363" id="Fill-5" fill="#A3B5D6"></path>
                <path d="M122.465143,41.184363 C122.465143,49.7353972 115.548463,56.6683347 107.015191,56.6683347 C98.4829444,56.6683347 91.5662651,49.7353972 91.5662651,41.184363 C91.5662651,32.6333288 98.4829444,25.7003913 107.015191,25.7003913 C115.548463,25.7003913 122.465143,32.6333288 122.465143,41.184363" id="Fill-7" fill="#E4EBF7"></path>
                <path d="M180.15189,41.184363 C180.15189,49.7353972 173.23521,56.6683347 164.701938,56.6683347 C156.169691,56.6683347 149.253012,49.7353972 149.253012,41.184363 C149.253012,32.6333288 156.169691,25.7003913 164.701938,25.7003913 C173.23521,25.7003913 180.15189,32.6333288 180.15189,41.184363" id="Fill-9" fill="#E4EBF7"></path>
            </g>
            <path d="M27.5870277,693.095886 C12.3520917,693.095886 7.10542736e-14,682.064923 7.10542736e-14,668.457161 L7.10542736e-14,81.793722 L910.825149,81.793722 L910.825149,668.457161 C910.825149,682.064923 898.474207,693.095886 883.238121,693.095886 L27.5870277,693.095886 Z" id="Fill-3-Copy-2" fill="#E4EBF7"></path>
            <rect id="矩形-copy-13" fill="#FFFFFF" fill-rule="nonzero" x="57.2556054" y="126.780269" width="793.399103" height="515.300448" rx="10.9930762"></rect>
            <rect id="矩形-copy-19" fill="#A3B5D6" fill-rule="nonzero" x="130.869955" y="200.394619" width="327.174888" height="40.896861" rx="20.4484305"></rect>
            <rect id="矩形-copy-26" fill="#E4EBF7" fill-rule="nonzero" x="130.869955" y="445.775785" width="572.556054" height="40.896861" rx="20.4484305"></rect>
            <rect id="矩形-copy-27" fill="#E4EBF7" fill-rule="nonzero" x="130.869955" y="527.569507" width="490.762332" height="40.896861" rx="20.4484305"></rect>
            <rect id="矩形-copy-25" fill="#E4EBF7" fill-rule="nonzero" x="130.869955" y="363.982063" width="408.96861" height="40.896861" rx="20.4484305"></rect>
            <rect id="矩形-copy-24" fill="#A3B5D6" fill-rule="nonzero" x="130.869955" y="282.188341" width="654.349776" height="40.896861" rx="20.4484305"></rect>
        </g>
    </g>
</svg>