<svg xmlns="http://www.w3.org/2000/svg" xmlns:xlink="http://www.w3.org/1999/xlink" width="1024" height="1024" version="1.1" viewBox="0 0 1024 1024"><title>3.通用组件/灰色版/文档</title><desc>Created with Sketch.</desc><g id="3.通用组件/灰色版/文档" fill="none" fill-rule="evenodd" stroke="none" stroke-width="1"><g id="资源-22" transform="translate(92.000000, 92.000000)"><polygon id="矩形" stroke="#707070" stroke-width="6" points="285.835 798.471 309.96 798.506 309.995 822.664 285.87 822.628" transform="translate(297.915059, 810.567087) rotate(-57.590000) translate(-297.915059, -810.567087)"/><polyline id="路径" fill="#C1C1C1" fill-rule="nonzero" points="550.244 63.596 550.244 216.879 704.032 216.879"/><path id="路径" fill="#4E5C93" fill-rule="nonzero" d="M700.445953,1.09308363 L235.770235,1.09308363 C221.234908,1.09308363 209.451697,12.8384487 209.451697,27.3270909 L209.451697,743.296871 C209.451697,757.785514 221.234908,769.530879 235.770235,769.530879 L813.681462,769.530879 C828.216789,769.530879 840,757.785514 840,743.296871 L840,141.270129 L700.445953,1.09308363 Z"/><path id="路径" fill="#E4EBF7" fill-rule="nonzero" d="M700.445953,0 L700.665274,115.090776 C700.665274,129.579418 712.448485,141.324783 726.983812,141.324783 L840,141.324783"/><path id="路径" fill="#E4EBF7" fill-rule="nonzero" d="M489.930548,71.2471913 L26.3185379,71.2471913 C11.7832108,71.2471913 0,82.9925564 0,97.4811985 L0,813.450979 C0,827.939621 11.7832108,839.684986 26.3185379,839.684986 L605.326371,839.684986 C619.861698,839.684986 631.644909,827.939621 631.644909,813.450979 L631.644909,224.530309 L530.504961,224.530309 C515.974935,224.530309 489.930548,212.790591 489.930548,198.296302 L489.930548,71.2471913 Z"/><rect id="矩形" width="140.366" height="139.915" x="69.075" y="141.128" fill="#A3B5D6" fill-rule="nonzero" rx="18.047"/><rect id="矩形" width="491.279" height="34.979" x="69.075" y="351" fill="#A3B5D6" fill-rule="nonzero" rx="6.553"/><rect id="矩形" width="491.279" height="34.979" x="69" y="456" fill="#A3B5D6" fill-rule="nonzero" rx="6.553"/><rect id="矩形-copy" width="491.279" height="34.979" x="70" y="560.936" fill="#A3B5D6" fill-rule="nonzero" rx="6.553"/><path id="路径" fill="#FFF" fill-rule="nonzero" d="M489.930548,71.2471913 L489.930548,198.296302 C489.930548,212.784944 501.713759,224.530309 516.249086,224.530309 L631.644909,224.530309"/></g></g></svg>