<?xml version="1.0" encoding="UTF-8"?>
<svg width="1024px" height="1024px" viewBox="0 0 1024 1024" version="1.1" xmlns="http://www.w3.org/2000/svg" xmlns:xlink="http://www.w3.org/1999/xlink">
    <!-- Generator: Sketch 61.2 (89653) - https://sketch.com -->
    <title>3.通用组件/灰色版/智能眼镜</title>
    <desc>Created with Sketch.</desc>
    <g id="3.通用组件/灰色版/智能眼镜" stroke="none" stroke-width="1" fill="none" fill-rule="evenodd">
        <g id="资源-14" transform="translate(52.000000, 369.000000)">
            <path d="M899.947621,15.5626476 L844.648873,1.61946333 C839.050571,0.206707664 833.219973,-0.0286682604 827.526011,0.92822898 L654.292809,32.5867621 L659.388193,156.021467 L836.146691,52.8004293 L886.754919,66.3387478 C896.981228,69.0941203 907.861173,65.4285178 914.33517,57.0465832 L914.33517,57.0465832 C919.744725,50.040055 921.25669,40.7781985 918.356175,32.4150809 C915.455661,24.0519633 908.533736,17.7151667 899.947621,15.5626476 Z" id="路径" fill="#4E5C93" fill-rule="nonzero"></path>
            <path d="M245.931306,15.5626476 L190.632558,1.61946333 C185.034298,0.206422254 179.20364,-0.0289560719 173.509696,0.92822898 L23.5217174,28.5776029 C10.785694,30.9421303 1.59201032,42.1186837 1.72659511,55.0716279 L2.57731664,128.875707 L182.14025,52.7905546 L232.659606,66.3782469 C242.888892,69.1352078 253.772509,65.4696804 260.249732,57.0860823 L260.249732,57.0860823 C265.678277,50.0882127 267.210029,40.8239291 264.322862,32.4511433 C261.435694,24.0783574 254.519315,17.7272228 245.931306,15.5626476 Z" id="路径" fill="#4E5C93" fill-rule="nonzero"></path>
            <path d="M12.8372093,144.63585 L68.7975671,179.118569 L68.7975671,26.1385331 L26.4841503,26.1385331 C12.1573108,26.1385331 0.543106694,37.7527312 0.543106694,52.0795707 L0.543106694,122.545975 C0.537005142,131.542019 5.18863659,139.90001 12.8372093,144.63585 Z" id="路径" fill="#4E5C93" fill-rule="nonzero"></path>
            <path d="M691.007227,121.578247 L630.771091,158.292665 L630.771091,26.138401 L680.954705,26.138401 C685.771543,26.1201473 690.397258,28.0214324 693.808856,31.421912 C697.220455,34.8223916 699.13683,39.4418756 699.134171,44.2587478 L699.134171,106.469839 C699.135373,112.551472 696.082344,118.227211 691.007227,121.578247 Z" id="路径" fill="#4E5C93" fill-rule="nonzero"></path>
            <line x1="702.027478" y1="47.3199284" x2="702.027478" y2="109.550769" id="路径" stroke="#253368" stroke-width="7.2" stroke-linecap="round" stroke-linejoin="round"></line>
            <path d="M30.2069343,65.7956351 L30.2069343,155.083363 C30.2069343,213.907406 87.3423971,254.018748 128.332594,275.229767 C158.082099,290.565404 194.599842,281.233421 213.344544,253.505259 C238.327728,216.58347 255.351843,159.151771 302.71127,159.151771 C328.514061,159.151771 373.691163,209.394633 397.509123,244.963578 C419.26528,277.35788 459.294502,292.217243 496.918497,281.865617 C573.339392,260.940966 662.123506,212.742182 662.123506,156.623828 L662.123506,65.7758855 C662.123506,49.5348014 648.957506,36.3688014 632.716422,36.3688014 L59.614025,36.3688014 C51.8113584,36.3688014 44.328557,39.469748 38.8130908,44.9889183 C33.2976247,50.5080886 30.2069343,57.9929702 30.2069343,65.7956351 Z" id="路径" fill="#CCD7EE" fill-rule="nonzero"></path>
            <path d="M662.153131,152.525796 L662.153131,61.6778533 C662.153131,45.4367692 648.987131,32.2707692 632.746047,32.2707692 L59.614025,32.2707692 C43.372941,32.2707692 30.206941,45.4367692 30.206941,61.6778533 L30.206941,150.965581" id="路径" stroke="#253368" stroke-width="12" stroke-linecap="round" stroke-linejoin="round"></path>
            <rect id="矩形" fill="#A3B5D6" fill-rule="nonzero" x="525.555349" y="72.2636136" width="103.487657" height="19.3150626" rx="9.456"></rect>
            <rect id="矩形" fill="#A3B5D6" fill-rule="nonzero" x="569.705474" y="105.383614" width="59.3276565" height="19.3150626" rx="9.456"></rect>
            <rect id="矩形" fill="#A3B5D6" fill-rule="nonzero" x="569.705474" y="137.121145" width="59.3276565" height="19.3150626" rx="9.456"></rect>
            <ellipse id="椭圆形" fill="#253368" fill-rule="nonzero" transform="translate(744.122529, 59.370358) rotate(-66.490000) translate(-744.122529, -59.370358) " cx="744.122529" cy="59.3703582" rx="26.7310197" ry="16.6291234"></ellipse>
            <path d="M116.235993,99.1526297 L104.830626,68.4815742 C103.521017,64.9273519 99.6251706,63.0559463 96.0322004,64.2551699 C89.1198569,66.5757424 78.6624687,71.9574955 73.1819678,84.0047227 C71.6112752,87.4887217 73.1111803,91.5893397 76.559143,93.2376386 C89.9493381,99.6463685 99.5969946,104.396136 106.479714,107.872057 C109.060199,109.171603 112.173013,108.760193 114.327279,106.834872 C116.481545,104.909551 117.238655,101.862315 116.235993,99.1526297 L116.235993,99.1526297 Z" id="路径" fill="#4E5C93" fill-rule="nonzero"></path>
            <polyline id="路径" stroke="#FFFFFF" stroke-width="6" stroke-linecap="round" stroke-linejoin="round" points="148.180894 145.396208 202.166297 99.5179964 252.349911 99.5179964"></polyline>
            <path d="M385.501395,76.4011449 L419.72737,76.4011449 C419.993989,75.5617889 437.363721,175.583399 437.363721,175.583399 C437.995803,178.357447 440.426674,180.351022 443.270786,180.427827 C446.114898,180.504632 448.64982,178.645158 449.430698,175.909267 L459.038855,142.285653 C459.708471,139.931194 461.841605,138.293519 464.289127,138.25485 C466.73665,138.216181 468.920454,139.785652 469.664114,142.117782 L474.710125,157.828551 C475.503535,160.311255 477.777479,162.022858 480.382784,162.098374 C482.98809,162.173891 485.357357,160.596873 486.293238,158.164293 L495.032415,135.58068 C495.972278,133.191539 498.281309,131.623436 500.848658,131.630769 L520.035349,131.630769" id="路径" stroke="#FFFFFF" stroke-width="6" stroke-linecap="round" stroke-linejoin="round"></path>
            <circle id="椭圆形" fill="#FFFFFF" fill-rule="nonzero" cx="388.957567" cy="76.4011449" r="9.65753131"></circle>
            <circle id="椭圆形" fill="#FFFFFF" fill-rule="nonzero" cx="526.927943" cy="131.601145" r="9.65753131"></circle>
            <rect id="矩形" fill="#A3B5D6" fill-rule="nonzero" x="343.99771" y="71.187263" width="15.1775313" height="62.0925939" rx="7.428"></rect>
            <rect id="矩形" fill="#A3B5D6" fill-rule="nonzero" x="310.690089" y="82.3556351" width="15.1775313" height="41.2666905" rx="7.428"></rect>
            <rect id="矩形" fill="#FFFFFF" fill-rule="nonzero" x="250.286082" y="73.5374597" width="15.1775313" height="54.0249016" rx="7.428"></rect>
            <rect id="矩形" fill="#A3B5D6" fill-rule="nonzero" x="279.831413" y="62.6060823" width="15.1775313" height="78.6525939" rx="7.428"></rect>
            <ellipse id="椭圆形" fill="#FFFFFF" fill-rule="nonzero" transform="translate(144.886583, 145.418179) rotate(-21.700000) translate(-144.886583, -145.418179) " cx="144.886583" cy="145.418179" rx="9.83527728" ry="11.3856172"></ellipse>
            <path d="M94.4719857,113.954919 C86.3369167,130.231976 85.4265649,149.180914 91.9637925,166.162862 C104.228265,198.749624 138.88873,215.892236 169.391914,204.417746 C199.895098,192.943256 214.677639,157.22619 202.413166,124.629553 C190.148694,92.0329159 155.498104,74.9001789 124.994919,86.3746691 L145.50483,147.73653 L94.4719857,113.954919 Z" id="路径" fill="#FFFFFF" fill-rule="nonzero"></path>
            <circle id="椭圆形" fill="#4E5C93" fill-rule="nonzero" cx="146.077567" cy="145.396208" r="31.9646512"></circle>
            <circle id="椭圆形" fill="#CED7EC" fill-rule="nonzero" cx="146.077567" cy="145.396208" r="17.3006082"></circle>
        </g>
    </g>
</svg>