<?xml version="1.0" encoding="UTF-8"?>
<svg width="1024px" height="1024px" viewBox="0 0 1024 1024" version="1.1" xmlns="http://www.w3.org/2000/svg" xmlns:xlink="http://www.w3.org/1999/xlink">
    <!-- Generator: Sketch 61.2 (89653) - https://sketch.com -->
    <title>3.通用组件/灰色版/曲线图表情详情页</title>
    <desc>Created with Sketch.</desc>
    <g id="3.通用组件/灰色版/曲线图表情详情页" stroke="none" stroke-width="1" fill="none" fill-rule="evenodd">
        <g id="资源-29-copy" transform="translate(56.000000, 163.000000)">
            <rect id="矩形" fill="#E4EBF7" fill-rule="nonzero" x="0" y="30.7647321" width="912" height="667.098482" rx="26.6561518"></rect>
            <g id="分组-2" transform="translate(263.076923, 155.040000)">
                <path d="M0.148534066,467.346674 L0.148534066,9.22953161 C0.148534066,4.19269469 4.23169715,0.109531607 9.26853407,0.109531607 L564.223353,0.109531607 C569.26019,0.109531607 573.343353,4.19269469 573.343353,9.22953161 L573.343353,469.138103 L573.343353,469.138103 C573.343353,473.185307 569.977847,476.466674 565.826869,476.466674 L9.26853407,476.466674 C4.23169715,476.466674 0.148534066,472.383511 0.148534066,467.346674 Z" id="Fill-30" fill="#FFFFFF"></path>
                <path d="M56.6881808,360.834001 C52.5362632,360.834001 49.1716973,357.552633 49.1716973,353.50543 L49.1716973,55.8463404 C49.1716973,51.7982207 52.5362632,48.5177689 56.6881808,48.5177689 L519.432032,48.5177689 C523.58301,48.5177689 526.948516,51.7982207 526.948516,55.8463404 L526.948516,353.50543 C526.948516,357.552633 523.58301,360.834001 519.432032,360.834001 L56.6881808,360.834001 Z" id="Fill-32" fill="#A3B5D6"></path>
                <path d="M114.518408,91.5757827 L81.7117758,91.5757827 C79.1730835,91.5757827 77.1154462,89.5695862 77.1154462,87.0943612 C77.1154462,84.6200523 79.1730835,82.6138559 81.7117758,82.6138559 L114.518408,82.6138559 C117.0571,82.6138559 119.114737,84.6200523 119.114737,87.0943612 C119.114737,89.5695862 117.0571,91.5757827 114.518408,91.5757827" id="Fill-34" fill="#FFFFFF"></path>
                <path d="M115.049447,113.080193 L82.2418758,113.080193 C79.7041231,113.080193 77.6464857,111.073997 77.6464857,108.598772 C77.6464857,106.124463 79.7041231,104.118266 82.2418758,104.118266 L115.049447,104.118266 C117.58814,104.118266 119.645777,106.124463 119.645777,108.598772 C119.645777,111.073997 117.58814,113.080193 115.049447,113.080193" id="Fill-36" fill="#FFFFFF"></path>
                <path d="M49.1726368,278.355418 C98.8960544,278.355418 85.6931894,216.923859 161.000696,216.923859 C236.308203,216.923859 232.386378,271.841143 291.12018,271.841143 C350.769231,271.841143 346.823286,114.108911 403.969231,114.108911 C464.289951,114.108911 450.67406,257.036726 525.810708,257.036726 L525.810708,353.899249 C525.810708,357.949201 522.441445,361.231484 518.287648,361.227823 L56.6825434,360.840322 C52.5343841,360.836658 49.1726368,357.557122 49.1726368,353.511751 L49.1726368,278.355418 Z" id="Fill-38" fill="#253368"></path>
                <path d="M160.38446,131.248989 C169.267788,131.248989 176.434907,136.52517 182.61116,146.540283 C187.351189,154.226486 191.411844,164.243407 196.531333,179.896559 L197.22207,182.033547 C198.42363,185.842724 205.603372,208.693748 208.285574,216.67503 L208.455793,217.17936 C217.093062,242.648558 225.54433,260.487575 236.605734,274.039567 C250.112933,290.588047 266.78851,299.240348 288.177834,299.240348 C301.30903,299.240348 312.973279,295.721619 324.195195,288.950264 L325.18247,288.346377 C333.53828,283.165525 341.024024,276.731558 351.366964,266.44349 L355.822142,261.970035 L358.879746,258.886953 C361.466104,256.285719 363.447997,254.324013 365.3606,252.486278 L365.718531,252.143029 C381.0091,237.508505 392.667576,230.760976 406.875323,230.760976 C421.770006,230.760976 434.783716,238.144979 452.609479,254.116639 L453.849047,255.233052 C454.826626,256.117926 455.841772,257.046905 456.937456,258.058371 L466.412513,266.89694 C478.170508,277.831671 485.373706,283.819104 493.59839,288.9758 C504.192059,295.617799 514.41539,299.099552 525.152497,299.236165 L525.81052,299.240348 L525.81052,304.940348 C513.6659,304.940348 502.228709,301.114516 490.570529,293.805092 L489.698871,293.253342 C481.308361,287.891147 473.884726,281.653 461.932718,270.514145 L455.019733,264.053128 C452.810245,261.997142 450.963883,260.301622 449.209219,258.723968 L448.805801,258.361876 C431.946219,243.255902 419.97071,236.460976 406.875323,236.460976 C394.65788,236.460976 384.240597,242.403913 370.182093,255.762744 L369.659732,256.260909 C368.025178,257.825333 366.356267,259.465977 364.300288,261.522894 L356.006077,269.867479 L354.755849,271.111006 C344.033832,281.733214 336.204519,288.361074 327.140029,293.830628 C315.062716,301.118134 302.39244,304.940348 288.177834,304.940348 C264.996993,304.940348 246.736494,295.465694 232.189935,277.64383 C220.752776,263.63148 212.125277,245.553752 203.406557,220.034715 L202.604258,217.65804 C199.483355,208.272367 191.845399,183.920239 191.632855,183.263812 L190.993408,181.303415 C180.597091,149.670394 172.509388,136.948989 160.38446,136.948989 C152.459172,136.948989 145.825607,142.237906 139.678528,153.084484 L139.395159,153.589043 C134.354138,162.646034 130.130558,174.114046 124.255707,193.509768 L117.476053,216.268125 C117.157618,217.329762 116.883598,218.238988 116.674964,218.92449 L115.804218,221.765742 C107.915618,247.323255 101.212986,263.946267 92.3908328,277.40418 C80.7304939,295.191655 66.3383686,304.746214 48.0379803,304.937421 L47.4765423,304.940348 L47.4765423,299.240348 C63.912851,299.240348 76.8161812,290.765894 87.6238001,274.279216 L88.2390942,273.329435 C96.5007429,260.424815 102.971809,244.13226 110.650857,219.132674 L111.501067,216.343586 L118.063094,194.30425 C124.44104,173.036484 128.902036,160.721228 134.414649,150.816946 C141.542788,138.010118 149.869353,131.248989 160.38446,131.248989 Z" id="Stroke-40" fill="#FFFFFF" fill-rule="nonzero"></path>
                <path d="M517.677497,400.984038 C519.566311,400.984038 521.097497,402.515224 521.097497,404.404038 C521.097497,406.229891 519.666689,407.721561 517.865143,407.818977 L517.677497,407.824038 L54.1989093,407.824038 C52.3100955,407.824038 50.7789093,406.292852 50.7789093,404.404038 C50.7789093,402.578184 52.2097177,401.086514 54.0112635,400.989098 L54.1989093,400.984038 L517.677497,400.984038 Z" id="Stroke-42" fill="#E4E6EF" fill-rule="nonzero"></path>
                <path d="M443.605371,431.935618 C445.494185,431.935618 447.025371,433.466804 447.025371,435.355618 C447.025371,437.181471 445.594562,438.673141 443.793017,438.770557 L443.605371,438.775618 L54.1989093,438.775618 C52.3100955,438.775618 50.7789093,437.244432 50.7789093,435.355618 C50.7789093,433.529764 52.2097177,432.038094 54.0112635,431.940678 L54.1989093,431.935618 L443.605371,431.935618 Z" id="Stroke-44" fill="#E4E6EF" fill-rule="nonzero"></path>
            </g>
            <path d="M24.4285714,0 L887.113393,0 C900.60492,0 911.541964,10.6636179 911.541964,23.8178571 L911.541964,94.7950714 L0,94.7950714 L0,23.8178571 C0,10.6636179 10.937044,0 24.4285714,0 Z" id="路径" fill="#253368" fill-rule="nonzero"></path>
            <ellipse id="椭圆形" fill="#A3B5D6" fill-rule="nonzero" cx="52.2160714" cy="47.3975357" rx="17.4358929" ry="16.9999955"></ellipse>
            <ellipse id="椭圆形" fill="#E4EBF7" fill-rule="nonzero" cx="117.338571" cy="47.3975357" rx="17.4358929" ry="16.9999955"></ellipse>
            <ellipse id="椭圆形" fill="#E4EBF7" fill-rule="nonzero" cx="182.47125" cy="47.3975357" rx="17.4358929" ry="16.9999955"></ellipse>
            <polygon id="路径" fill="#FFFFFF" fill-rule="nonzero" points="302.802321 383.070536 291.585536 374.843451 302.802321 366.636214 314.019107 374.843451"></polygon>
            <rect id="矩形" fill="#A3B5D6" fill-rule="nonzero" x="64.8954396" y="340.45642" width="130.489286" height="32.1243348" rx="7.19497768"></rect>
            <rect id="矩形" fill="#A3B5D6" fill-rule="nonzero" x="64.8954396" y="402.303455" width="130.489286" height="31.1517723" rx="7.0858125"></rect>
            <rect id="矩形" fill="#4E5C93" fill-rule="nonzero" x="64.8954396" y="462.890129" width="130.489286" height="31.1517723" rx="7.0858125"></rect>
            <ellipse id="椭圆形" fill="#FFFFFF" fill-rule="nonzero" cx="130.140082" cy="224.483304" rx="65.1428571" ry="63.5142857"></ellipse>
            <path d="M130.140082,287.997606 C148.915546,288.007776 166.734188,279.920639 178.814011,265.906527 C169.295861,248.288886 150.552869,237.260329 130.129904,237.260329 C109.706939,237.260329 90.9639471,248.288886 81.4457967,265.906527 C93.531945,279.923734 111.358121,288.010908 130.140082,287.997606 L130.140082,287.997606 Z" id="路径" fill="#253368" fill-rule="nonzero"></path>
            <ellipse id="椭圆形" fill="#253368" fill-rule="nonzero" cx="130.486154" cy="215.898951" rx="24.4998214" ry="23.8873259"></ellipse>
        </g>
    </g>
</svg>