<?xml version="1.0" encoding="UTF-8"?>
<svg width="1024px" height="1024px" viewBox="0 0 1024 1024" version="1.1" xmlns="http://www.w3.org/2000/svg" xmlns:xlink="http://www.w3.org/1999/xlink">
    <!-- Generator: Sketch 61.2 (89653) - https://sketch.com -->
    <title>3.通用组件/灰色版/模块页面01</title>
    <desc>Created with Sketch.</desc>
    <defs>
        <polygon id="path-1" points="0 0.7224 818.26968 0.7224 818.26968 102.84204 0 102.84204"></polygon>
        <polygon id="path-3" points="0 0.654 818.26968 0.654 818.26968 715.2 0 715.2"></polygon>
    </defs>
    <g id="3.通用组件/灰色版/模块页面01" stroke="none" stroke-width="1" fill="none" fill-rule="evenodd">
        <g id="分组-copy" transform="translate(103.000000, 107.000000)">
            <g id="分组" transform="translate(0.000000, 0.477600)">
                <mask id="mask-2" fill="white">
                    <use xlink:href="#path-1"></use>
                </mask>
                <g id="Clip-2"></g>
                <path d="M818.26968,102.84204 L-0.00072,102.84204 L-0.00072,29.52204 C-0.00072,13.61724 12.89448,0.72204 28.79928,0.72204 L789.46968,0.72204 C805.37568,0.72204 818.26968,13.61724 818.26968,29.52204 L818.26968,102.84204 Z" id="Fill-1" fill="#253368" mask="url(#mask-2)"></path>
            </g>
            <g id="分组" transform="translate(0.000000, 94.077600)">
                <mask id="mask-4" fill="white">
                    <use xlink:href="#path-3"></use>
                </mask>
                <g id="Clip-4"></g>
                <path d="M789.46968,715.2 L28.79928,715.2 C12.89448,715.2 -0.00072,702.306 -0.00072,686.4 L-0.00072,0.654 L818.26968,0.654 L818.26968,686.4 C818.26968,702.306 805.37568,715.2 789.46968,715.2" id="Fill-3" fill="#E4EBF7" mask="url(#mask-4)"></path>
            </g>
            <path d="M66.49776,48.72372 C66.49776,58.70532 58.40496,66.79812 48.42216,66.79812 C38.44056,66.79812 30.34896,58.70532 30.34896,48.72372 C30.34896,38.74212 38.44056,30.64932 48.42216,30.64932 C58.40496,30.64932 66.49776,38.74212 66.49776,48.72372" id="Fill-5" fill="#A3B5D6"></path>
            <path d="M133.99656,48.72372 C133.99656,58.70532 125.90496,66.79812 115.92216,66.79812 C105.94056,66.79812 97.84896,58.70532 97.84896,48.72372 C97.84896,38.74212 105.94056,30.64932 115.92216,30.64932 C125.90496,30.64932 133.99656,38.74212 133.99656,48.72372" id="Fill-7" fill="#E4EBF7"></path>
            <path d="M201.49656,48.72372 C201.49656,58.70532 193.40496,66.79812 183.42216,66.79812 C173.44056,66.79812 165.34896,58.70532 165.34896,48.72372 C165.34896,38.74212 173.44056,30.64932 183.42216,30.64932 C193.40496,30.64932 201.49656,38.74212 201.49656,48.72372" id="Fill-9" fill="#E4EBF7"></path>
            <g id="分组-2" transform="translate(79.200000, 172.800000)" fill="#FFFFFF">
                <path d="M9.23988831,539.28372 C4.27580007,539.28372 0.25308,535.263057 0.25308,530.304015 L0.25308,9.73702536 C0.25308,4.77798307 4.27580007,0.75732 9.23988831,0.75732 L659.570272,0.75732 C664.533237,0.75732 668.55708,4.77798307 668.55708,9.73702536 L668.55708,530.304015 C668.55708,535.263057 664.533237,539.28372 659.570272,539.28372 L9.23988831,539.28372 Z" id="Fill-11"></path>
            </g>
            <path d="M351.08232,426 L215.31768,426 C205.13256,426 196.8,417.66672 196.8,407.48232 L196.8,271.71768 C196.8,261.53256 205.13256,253.2 215.31768,253.2 L351.08232,253.2 C361.26744,253.2 369.6,261.53256 369.6,271.71768 L369.6,407.48232 C369.6,417.66672 361.26744,426 351.08232,426" id="Fill-5" fill="#A3B5D6"></path>
            <path d="M350.988,661.2 L215.412,661.2 C205.17504,661.2 196.8,652.82496 196.8,642.588 L196.8,507.012 C196.8,496.77504 205.17504,488.4 215.412,488.4 L350.988,488.4 C361.22424,488.4 369.6,496.77504 369.6,507.012 L369.6,642.588 C369.6,652.82496 361.22424,661.2 350.988,661.2" id="Fill-7" fill="#A3B5D6"></path>
            <path d="M637.793972,353.306275 L541.706275,449.393972 C534.498238,456.602009 522.702483,456.602009 515.493725,449.393972 L419.406028,353.306275 C412.197991,346.098238 412.197991,334.302483 419.406028,327.093725 L515.493725,231.006028 C522.702483,223.797991 534.498238,223.797991 541.706275,231.006028 L637.793972,327.093725 C645.002009,334.302483 645.002009,346.098238 637.793972,353.306275" id="Fill-9" fill="#4E5C93"></path>
            <path d="M595.788,661.2 L460.21128,661.2 C449.97504,661.2 441.6,652.82496 441.6,642.588 L441.6,507.012 C441.6,496.77504 449.97504,488.4 460.21128,488.4 L595.788,488.4 C606.02424,488.4 614.4,496.77504 614.4,507.012 L614.4,642.588 C614.4,652.82496 606.02424,661.2 595.788,661.2" id="Fill-11" fill="#A3B5D6"></path>
        </g>
    </g>
</svg>