<svg xmlns="http://www.w3.org/2000/svg" xmlns:xlink="http://www.w3.org/1999/xlink" width="1024" height="1024" version="1.1" viewBox="0 0 1024 1024"><title>3.通用组件/灰色版/游戏手柄</title><desc>Created with Sketch.</desc><g id="3.通用组件/灰色版/游戏手柄" fill="none" fill-rule="evenodd" stroke="none" stroke-width="1"><g id="编组-3" transform="translate(56.000000, 244.000000)"><rect id="矩形备份" width="479" height="228" x="217" y="104" fill="#253368"/><rect id="矩形" width="63" height="48" x="158" y="95" fill="#D8D8D8"/><path id="矩形" fill="#253368" d="M136.2,0 L249.8,0 C267.031284,-6.71804923e-15 281,13.9687158 281,31.2 L281,89 L281,89 L105,89 L105,31.2 C105,13.9687158 118.968716,6.71804923e-15 136.2,0 Z"/><path id="矩形备份-2" fill="#253368" d="M676.2,0 L789.8,0 C807.031284,-6.71804923e-15 821,13.9687158 821,31.2 L821,89 L821,89 L645,89 L645,31.2 C645,13.9687158 658.968716,6.71804923e-15 676.2,0 Z"/><rect id="矩形" width="479" height="228" x="221" y="58" fill="#4E5C93"/><path id="形状结合" fill="#CCD7EE" d="M186.217105,36 C271.149053,36 340,104.706302 340,189.459821 C340,219.288234 331.471852,247.128976 316.715959,270.686476 L317.286828,270.908328 L201.129099,473.924752 C184.709793,510.511286 147.903557,536 105.131579,536 C47.0690112,536 0,489.029873 0,431.089286 C0,424.513433 0.606280257,418.078887 1.7661033,411.838275 L32.4897743,185.294055 C34.7018116,102.46636 102.681092,36 186.217105,36 Z"/><path id="形状结合备份" fill="#CCD7EE" d="M759.217105,36 C844.149053,36 913,104.706302 913,189.459821 C913,219.288234 904.471852,247.128976 889.715959,270.686476 L890.286828,270.908328 L774.129099,473.924752 C757.709793,510.511286 720.903557,536 678.131579,536 C620.069011,536 573,489.029873 573,431.089286 C573,424.513433 573.60628,418.078887 574.766103,411.838275 L605.489774,185.294055 C607.701812,102.46636 675.681092,36 759.217105,36 Z" transform="translate(743.000000, 286.000000) scale(-1, 1) translate(-743.000000, -286.000000)"/><circle id="椭圆形" cx="725.5" cy="189.5" r="153.5" fill="#A3B5D6"/><g id="编组" fill="#FFF" transform="translate(625.000000, 87.000000)"><ellipse id="椭圆形" cx="96.592" cy="31.868" rx="31.825" ry="31.868"/><ellipse id="椭圆形备份" cx="98.825" cy="172.759" rx="31.825" ry="31.868"/><ellipse id="椭圆形备份-3" cx="169.175" cy="102.314" rx="31.825" ry="31.868"/><ellipse id="椭圆形备份-4" cx="31.825" cy="102.314" rx="31.825" ry="31.868"/></g><circle id="椭圆形" cx="185.5" cy="189.5" r="153.5" fill="#A3B5D6"/><g id="编组-2" fill="#FFF" transform="translate(100.000000, 107.000000)"><path id="形状结合" d="M60.8538926,50.0471629 L60.8538926,0 L110.881027,0 L110.881027,50.0471629 L85.8674596,71.4813629 L60.9499405,50.0471629 L60.8538926,50.0471629 Z"/><path id="形状结合备份-2" d="M60.8538926,142.991894 L60.8538926,92.944731 L110.881027,92.944731 L110.881027,142.991894 L85.8674596,164.426094 L60.9499405,142.991894 L60.8538926,142.991894 Z" transform="translate(85.867460, 128.685412) rotate(180.000000) translate(-85.867460, -128.685412)"/><path id="形状结合备份-3" d="M110.881027,98.306927 L110.881027,48.2597642 L160.908161,48.2597642 L160.908161,98.306927 L135.894594,119.741127 L110.977075,98.306927 L110.881027,98.306927 Z" transform="translate(135.894594, 84.000446) rotate(90.000000) translate(-135.894594, -84.000446)"/><path id="形状结合备份-3" d="M11.7201002,98.306927 L11.7201002,48.2597642 L61.7472342,48.2597642 L61.7472342,98.306927 L36.7336672,119.741127 L11.8161481,98.306927 L11.7201002,98.306927 Z" transform="translate(36.733667, 84.000446) scale(-1, 1) rotate(90.000000) translate(-36.733667, -84.000446)"/></g></g></g></svg>