<svg xmlns="http://www.w3.org/2000/svg" xmlns:xlink="http://www.w3.org/1999/xlink" width="1024" height="1024" version="1.1" viewBox="0 0 1024 1024"><title>3.通用组件/灰色版/火箭</title><desc>Created with Sketch.</desc><defs><path id="path-1" d="M443.24924,0.341899238 C198.45234,0.341899238 0,198.859865 0,443.737716 L0,443.737716 C0,688.615567 198.45234,887.140672 443.24924,887.140672 L443.24924,887.140672 C688.053276,887.140672 886.49848,688.615567 886.49848,443.737716 L886.49848,443.737716"/><path id="path-3" d="M443.24924,0.754892277 C198.45234,0.754892277 0,199.272858 0,444.150709 L0,444.150709 C0,689.02856 198.45234,887.553665 443.24924,887.553665 L443.24924,887.553665 C688.053276,887.553665 886.49848,689.02856 886.49848,444.150709 L886.49848,444.150709"/><path id="path-5" d="M443.24924,0.754892277 C198.45234,0.754892277 0,199.272858 0,444.150709 L0,444.150709 C0,689.02856 198.45234,887.553665 443.24924,887.553665 L443.24924,887.553665 C688.053276,887.553665 886.49848,689.02856 886.49848,444.150709 L886.49848,444.150709"/><path id="path-7" d="M443.24924,0.754892277 C198.45234,0.754892277 0,199.272858 0,444.150709 L0,444.150709 C0,689.02856 198.45234,887.553665 443.24924,887.553665 L443.24924,887.553665 C688.053276,887.553665 886.49848,689.02856 886.49848,444.150709 L886.49848,444.150709"/><path id="path-9" d="M443.24924,0.754892277 C198.45234,0.754892277 0,199.272858 0,444.150709 L0,444.150709 C0,689.02856 198.45234,887.553665 443.24924,887.553665 L443.24924,887.553665 C688.053276,887.553665 886.49848,689.02856 886.49848,444.150709 L886.49848,444.150709"/><path id="path-11" d="M443.24924,0.754892277 C198.45234,0.754892277 0,199.272858 0,444.150709 C0,689.02856 198.45234,887.553665 443.24924,887.553665 C688.053276,887.553665 886.49848,689.02856 886.49848,444.150709"/><path id="path-13" d="M443.24924,0.341899238 C198.45234,0.341899238 0,198.859865 0,443.737716 L0,443.737716 C0,688.615567 198.45234,887.140672 443.24924,887.140672 L443.24924,887.140672 C688.053276,887.140672 886.49848,688.615567 886.49848,443.737716 L886.49848,443.737716"/><path id="path-15" d="M443.24924,0.341899238 C198.45234,0.341899238 0,198.859865 0,443.737716 L0,443.737716 C0,688.615567 198.45234,887.140672 443.24924,887.140672 L443.24924,887.140672 C688.053276,887.140672 886.49848,688.615567 886.49848,443.737716 L886.49848,443.737716"/><path id="path-17" d="M443.24924,0.754892277 C198.45234,0.754892277 0,199.272858 0,444.150709 L0,444.150709 C0,689.02856 198.45234,887.553665 443.24924,887.553665 L443.24924,887.553665 C688.053276,887.553665 886.49848,689.02856 886.49848,444.150709 L886.49848,444.150709"/><path id="path-19" d="M512.24924,68.3569771 C267.45234,68.3569771 69,266.874943 69,511.752794 C69,756.630645 267.45234,955.15575 512.24924,955.15575 C757.053276,955.15575 955.49848,756.630645 955.49848,511.752794"/></defs><g id="3.通用组件/灰色版/火箭" fill="none" fill-rule="evenodd" stroke="none" stroke-width="1"><path id="Fill-1" fill="#A3B5D6" d="M955.49848,511.757077 C955.49848,756.634928 757.046139,955.152895 512.24924,955.152895 C267.45234,955.152895 69,756.634928 69,511.757077 C69,266.872088 267.45234,68.3612605 512.24924,68.3612605 C757.046139,68.3612605 955.49848,266.872088 955.49848,511.757077"/><g id="火焰" transform="translate(69.000000, 68.015078)"><mask id="mask-2" fill="#fff"><use xlink:href="#path-1"/></mask><path id="Fill-3" fill="#4E5C93" d="M488.212882,682.20057 C488.212882,682.20057 594.240156,783.51555 436.908442,928.134975 C436.908442,928.134975 282.438473,773.678174 396.009048,681.465265 L488.212882,682.20057 Z" mask="url(#mask-2)"/></g><g id="火箭尾部" transform="translate(69.000000, 67.602085)"><mask id="mask-4" fill="#fff"><use xlink:href="#path-3"/></mask><path id="Fill-5" fill="#253368" d="M517.832294,702.750915 L355.747658,702.750915 C348.639684,702.750915 343.437161,696.047507 345.199882,689.158488 L366.388209,606.390317 L507.184606,606.390317 L528.38007,689.158488 C530.14279,696.047507 524.940268,702.750915 517.832294,702.750915" mask="url(#mask-4)"/></g><g id="火箭翅膀" fill="#4E5C93" transform="translate(313.078886, 372.803941)"><path id="Fill-7" d="M4.00081225,293.951778 L192.704667,0.686600928 L381.422794,293.951778 C389.330058,306.252068 380.50932,322.428769 365.886591,322.428769 L19.5370157,322.428769 C4.91428677,322.428769 -3.91358812,306.252068 4.00081225,293.951778"/></g><g id="火箭身体" fill="#FFF" transform="translate(398.361949, 143.386308)"><path id="Fill-9" d="M106.950594,0.0773948956 C106.922048,0.0702560159 106.893502,0.0488393769 106.893502,0.0488393769 L106.893502,0.105950414 C103.253877,1.92636473 0.0598013921,80.4897356 0.0598013921,133.567306 C0.0598013921,246.247383 1.00895852,551.848544 1.00895852,551.848544 L214.790543,551.848544 C214.790543,551.848544 213.841386,246.247383 213.841386,133.567306 C213.841386,80.4897356 106.972003,0.0702560159 106.950594,0.0773948956"/></g><g id="火箭窗口" transform="translate(69.000000, 67.602085)"><mask id="mask-6" fill="#fff"><use xlink:href="#path-5"/></mask><path id="Fill-11" fill="#253368" d="M470.196738,225.157008 C488.651778,243.618151 488.651778,273.544335 470.196738,292.005478 C451.748835,310.459482 421.832544,310.459482 403.377504,292.005478 C384.922464,273.544335 384.922464,243.618151 403.377504,225.157008 C421.832544,206.695866 451.748835,206.695866 470.196738,225.157008" mask="url(#mask-6)"/></g><g id="云1" transform="translate(69.000000, 67.602085)"><mask id="mask-8" fill="#fff"><use xlink:href="#path-7"/></mask><path id="Fill-13" fill="#E4E6EF" d="M398.650987,903.574025 C398.650987,965.218251 348.695349,1015.19041 287.071501,1015.19041 C225.447654,1015.19041 175.492016,965.218251 175.492016,903.574025 C175.492016,841.929799 225.447654,791.957641 287.071501,791.957641 C348.695349,791.957641 398.650987,841.929799 398.650987,903.574025" mask="url(#mask-8)"/></g><g id="云1" transform="translate(69.000000, 67.602085)"><mask id="mask-10" fill="#fff"><use xlink:href="#path-9"/></mask><path id="Fill-15" fill="#E4E6EF" d="M551.361091,935.733964 C551.361091,997.37819 501.405453,1047.35035 439.781605,1047.35035 C378.157757,1047.35035 328.202119,997.37819 328.202119,935.733964 C328.202119,874.089738 378.157757,824.11758 439.781605,824.11758 C501.405453,824.11758 551.361091,874.089738 551.361091,935.733964" mask="url(#mask-10)"/></g><g id="云1" transform="translate(69.000000, 67.602085)"><mask id="mask-12" fill="#fff"><use xlink:href="#path-11"/></mask><path id="Fill-17" fill="#E4EBF7" d="M761.118392,858.332089 C691.230454,858.332089 634.573624,801.663662 634.573624,731.752613 C634.573624,661.848704 691.230454,605.173138 761.118392,605.173138 C830.999193,605.173138 887.648887,661.848704 887.648887,731.752613 C887.648887,801.663662 830.999193,858.332089 761.118392,858.332089 Z" mask="url(#mask-12)"/></g><g id="云1" transform="translate(69.000000, 68.015078)"><mask id="mask-14" fill="#fff"><use xlink:href="#path-13"/></mask><path id="Fill-19" fill="#FFF" d="M699.93344,441.662444 C672.229471,441.662444 649.763707,419.19639 649.763707,391.483259 C649.763707,363.762989 672.229471,341.304073 699.93344,341.304073 C727.644546,341.304073 750.103174,363.762989 750.103174,391.483259 C750.103174,419.19639 727.644546,441.662444 699.93344,441.662444 Z" mask="url(#mask-14)"/></g><g id="云1" transform="translate(69.000000, 68.015078)"><mask id="mask-16" fill="#fff"><use xlink:href="#path-15"/></mask><path id="Fill-21" fill="#FFF" d="M128.074124,510.141433 C112.423736,510.141433 99.7421406,497.441366 99.7421406,481.785803 C99.7421406,466.13024 112.423736,453.430173 128.074124,453.430173 C143.731648,453.430173 156.42038,466.13024 156.42038,481.785803 C156.42038,497.441366 143.731648,510.141433 128.074124,510.141433 Z" mask="url(#mask-16)"/></g><g id="云1" transform="translate(69.000000, 67.602085)"><mask id="mask-18" fill="#fff"><use xlink:href="#path-17"/></mask><path id="Fill-23" fill="#E4EBF7" d="M142.585523,900.618529 C71.2988276,900.618529 13.5001544,842.800742 13.5001544,771.490473 C13.5001544,700.180204 71.2988276,642.362418 142.585523,642.362418 C213.879355,642.362418 271.678028,700.180204 271.678028,771.490473 C271.678028,842.800742 213.879355,900.618529 142.585523,900.618529 Z" mask="url(#mask-18)"/></g><mask id="mask-20" fill="#fff"><use xlink:href="#path-19"/></mask><path id="Fill-25" fill="#E4EBF7" d="M704.330809,1064.70257 C627.24926,1064.70257 564.74762,1002.1874 564.74762,925.066086 C564.74762,847.951908 627.24926,785.4296 704.330809,785.4296 C781.426632,785.4296 843.921135,847.951908 843.921135,925.066086 C843.921135,1002.1874 781.426632,1064.70257 704.330809,1064.70257 Z" mask="url(#mask-20)"/></g></svg>