<?xml version="1.0" encoding="UTF-8"?>
<svg width="1024px" height="1024px" viewBox="0 0 1024 1024" version="1.1" xmlns="http://www.w3.org/2000/svg" xmlns:xlink="http://www.w3.org/1999/xlink">
    <!-- Generator: Sketch 61.2 (89653) - https://sketch.com -->
    <title>3.通用组件/灰色版/灯泡</title>
    <desc>Created with Sketch.</desc>
    <g id="3.通用组件/灰色版/灯泡" stroke="none" stroke-width="1" fill="none" fill-rule="evenodd">
        <g id="资源-19" transform="translate(221.000000, 52.000000)">
            <path d="M582.876,292.716 C582.876,131.808 452.4,0 291.444,0 C130.488,0 0,131.808 0,292.716 C0,356.4 33.816,438.66 88.116,499.308 C141.96,559.404 157.296,660.576 157.296,741.252 L157.296,772.884 L425.592,772.884 L425.592,741.516 C425.592,660.84 440.928,559.86 494.496,499.572 C548.976,438.3 582.876,348.732 582.876,292.716 Z" id="路径" fill="#E4EBF7" fill-rule="nonzero"></path>
            <path d="M534.912,291.924 C534.912,157.524 425.94,47.4 291.444,47.4 C156.948,47.4 48,157.512 48,291.924 C48,345.168 76.236,413.856 121.608,464.52 C166.584,514.728 199.98,599.244 199.98,666.636 L199.98,693.036 L382.92,693.036 L382.92,666.864 C382.92,599.46 416.316,515.1 461.076,464.736 C506.592,413.556 534.912,338.736 534.912,291.936 L534.912,291.924 Z" id="路径" fill="#A3B5D6" fill-rule="nonzero"></path>
            <path d="M365.412,920.484 L217.476,920.484 C212.304,920.484 207.588,917.124 204.78,911.604 L184.656,859.536 L398.256,859.536 L378.132,911.604 C375.312,917.124 370.608,920.484 365.436,920.484 L365.412,920.484 Z" id="路径" fill="#253368" fill-rule="nonzero"></path>
            <rect id="矩形" fill="#4E5C93" fill-rule="nonzero" x="151.98" y="652.548" width="278.928" height="229.404" rx="29.568"></rect>
            <line x1="152.34" y1="718.944" x2="309.48" y2="718.944" id="路径" stroke="#FFFFFF" stroke-width="9.852" stroke-linecap="round" stroke-linejoin="round"></line>
            <line x1="152.34" y1="820.932" x2="309.48" y2="820.932" id="路径" stroke="#FFFFFF" stroke-width="9.852" stroke-linecap="round" stroke-linejoin="round"></line>
            <line x1="272.868" y1="769.932" x2="430.008" y2="769.932" id="路径" stroke="#FFFFFF" stroke-width="9.852" stroke-linecap="round" stroke-linejoin="round"></line>
            <path d="M311.322014,175.071164 L201.462868,342.41197 C195.55219,351.484364 201.909894,362.640418 212.559049,362.640418 L261.771655,362.640418 L201.26419,476.932643 C196.754193,486.174521 208.386806,494.748432 215.519355,487.440669 L380.074628,322.123704 C388.468785,313.519884 382.508437,298.8246 370.627476,298.8246 L296.212532,298.8246 L327.345417,182.368958 C329.779225,172.429203 316.855204,166.59695 311.322014,175.071164 Z" id="路径" fill="#E4EBF7" fill-rule="nonzero"></path>
        </g>
    </g>
</svg>