<svg xmlns="http://www.w3.org/2000/svg" xmlns:xlink="http://www.w3.org/1999/xlink" width="1024" height="1024" version="1.1" viewBox="0 0 1024 1024"><title>3.通用组件/灰色版/盆栽01</title><desc>Created with Sketch.</desc><defs><polygon id="path-1" points="0 .99 230.244 .99 230.244 139 0 139"/><polygon id="path-3" points=".244 .292 234.465 .292 234.465 116.503 .244 116.503"/><polygon id="path-5" points=".244 .446 222.465 .446 222.465 106.503 .244 106.503"/></defs><g id="3.通用组件/灰色版/盆栽01" fill="none" fill-rule="evenodd" stroke="none" stroke-width="1"><g id="编组" transform="translate(266.000000, 474.059000)"><mask id="mask-2" fill="#fff"><use xlink:href="#path-1"/></mask><path id="Fill-1" fill="#A3B5D6" d="M0.2441,139 C0.2441,139 -9.7559,59 98.2441,23 C206.2441,-13 230.2441,6 230.2441,6 L220.2441,38 C220.2441,38 203.2441,118 125.2441,129 C47.2441,140 17.2441,124 0.2441,139" mask="url(#mask-2)"/></g><path id="Stroke-3" stroke="#E4EBF7" stroke-width="4" d="M272.2441,599.059 C272.2441,599.059 290.2441,561.059 352.2441,552.059 C444.6191,538.65 486.2441,485.059 486.2441,485.059"/><path id="Fill-5" fill="#A3B5D6" d="M483.2441,667.059 L496.2441,667.059 L496.2441,480.059 L483.2441,480.059 L486.7471,537.517 C487.7441,553.866 487.8531,570.258 487.0751,586.619 L483.2441,667.059 Z"/><g id="编组-2" transform="translate(283.022900, 304.351088)"><path id="Fill-7" fill="#A3B5D6" d="M6.82121026e-13,34.9071117 C6.82121026e-13,34.9071117 39.805,-25.6218883 134.637,12.7311117 C229.468,51.0831117 234.221,81.7081117 234.221,81.7081117 L209.306,94.1151117 C209.306,94.1151117 151.041,138.903112 91.296,100.948112 C31.552,62.9931117 20.369,34.5621117 6.82121026e-13,34.9071117"/><path id="Fill-9" fill="#A3B5D6" d="M221.2212,414.707912 L231.2212,414.707912 L235.1392,84.6039117 C235.1872,80.5329117 232.5052,76.9319117 228.5902,75.8129117 L221.2212,73.7079117 C221.2212,73.7079117 223.7322,104.379912 223.2212,142.706912 C222.7322,179.371912 219.2212,222.999912 219.2212,255.312912 C219.2212,346.707912 221.2212,414.707912 221.2212,414.707912"/><path id="Fill-11" fill="#4E5C93" d="M135.221,32.7081117 C178.375,66.2001117 222.221,87.7081117 222.221,87.7081117 L209.306,94.1151117 C209.306,94.1151117 151.041,138.903112 91.296,100.948112 C31.552,62.9931117 20.369,34.5621117 6.82121026e-13,34.9071117 C6.82121026e-13,34.9071117 68.221,-19.2918883 135.221,32.7081117 Z"/></g><g id="编组-2备份" fill="#A3B5D6" transform="translate(671.500000, 599.000000) scale(-1, 1) translate(-671.500000, -599.000000) translate(592.000000, 459.000000)"><path id="Fill-7" d="M0,23.4293856 C0,23.4293856 26.8515206,-17.1972148 90.8229663,8.54502451 C154.793738,34.2865926 158,54.8418577 158,54.8418577 L141.192925,63.1693409 C141.192925,63.1693409 101.88872,93.2307028 61.586143,67.755598 C21.2842401,42.2804933 13.7404503,23.1978242 0,23.4293856"/><path id="Fill-9" d="M156.292169,280 L158.999562,57.3492082 C159.032731,54.6033724 157.179431,52.1745455 154.474111,51.4197947 L149.382028,50 C149.382028,50 151.117164,70.6878592 150.764056,96.538915 C150.42615,121.268974 148,150.695484 148,172.490176 C148,234.134897 149.382028,280 149.382028,280 L156.292169,280 Z"/></g><g id="编组" transform="translate(524.000000, 227.059000)"><mask id="mask-4" fill="#fff"><use xlink:href="#path-3"/></mask><path id="Fill-13" fill="#A3B5D6" d="M234.4653,35.1992 C234.4653,35.1992 194.6603,-25.3298 99.8283,13.0232 C4.9973,51.3752 0.2443,82.0002 0.2443,82.0002 L25.1593,94.4072 C25.1593,94.4072 83.4243,139.1952 143.1693,101.2402 C202.9133,63.2852 214.0963,34.8542 234.4653,35.1992" mask="url(#mask-4)"/></g><path id="Fill-15" fill="#A3B5D6" d="M537.2441,655.059 L527.2441,655.059 L523.3261,311.955 C523.2781,307.884 525.9601,304.283 529.8751,303.164 L537.2441,301.059 C537.2441,301.059 534.7331,331.731 535.2441,370.058 C535.7331,406.723 539.2441,450.351 539.2441,482.664 C539.2441,574.059 537.2441,655.059 537.2441,655.059"/><g id="编组" transform="translate(536.000000, 237.059000)"><mask id="mask-6" fill="#fff"><use xlink:href="#path-5"/></mask><path id="Fill-17" fill="#253368" d="M222.4653,25.1992 C222.4653,25.1992 154.2443,-28.9998 87.2443,23.0002 C44.0903,56.4922 0.2443,78.0002 0.2443,78.0002 L13.1593,84.4072 C13.1593,84.4072 71.4243,129.1952 131.1693,91.2402 C190.9133,53.2852 202.0963,24.8542 222.4653,25.1992" mask="url(#mask-6)"/></g><path id="Fill-19" fill="#A3B5D6" d="M555.2441,652.059 L572.2441,652.059 L578.9681,439.539 L566.1621,238.955 C566.2101,234.884 563.5281,231.283 559.6131,230.164 L552.2441,228.059 C552.2441,228.059 568.2441,387.351 568.2441,419.664 C568.2441,511.059 555.2441,652.059 555.2441,652.059"/><path id="Fill-21" fill="#A3B5D6" d="M363.9375,115.83 C363.9375,115.83 400.2445,62.059 486.2445,116.059 C572.8755,170.455 566.8605,241.814 566.8605,241.814 L539.1765,244.695 C539.1765,244.695 468.9035,266.199 426.2685,209.699 C383.6335,153.199 383.1325,122.652 363.9375,115.83"/><path id="Fill-23" fill="#4E5C93" d="M363.9375,115.83 C363.9375,115.83 403.0215,87.019 436.2445,128.059 C453.2445,149.059 483.3205,164.892 496.2445,177.059 C529.8175,208.669 553.5185,243.224 553.5185,243.224 L539.1765,244.695 C539.1765,244.695 468.9035,266.199 426.2685,209.699 C383.6335,153.199 383.1325,122.652 363.9375,115.83"/><path id="Fill-25" fill="#253368" d="M650,932.059 L418,932.059 C404.745,932.059 394,921.314 394,908.059 L394,676.059 C394,662.804 404.745,652.059 418,652.059 L650,652.059 C663.255,652.059 674,662.804 674,676.059 L674,908.059 C674,921.314 663.255,932.059 650,932.059"/></g></svg>