<?xml version="1.0" encoding="UTF-8"?>
<svg width="1024px" height="1024px" viewBox="0 0 1024 1024" version="1.1" xmlns="http://www.w3.org/2000/svg" xmlns:xlink="http://www.w3.org/1999/xlink">
    <!-- Generator: Sketch 61.2 (89653) - https://sketch.com -->
    <title>3.通用组件/灰色版/盆栽02</title>
    <desc>Created with Sketch.</desc>
    <defs>
        <polygon id="path-1" points="0.0762258814 0.389734513 310.705093 0.389734513 310.705093 516.294073 0.0762258814 516.294073"></polygon>
        <polygon id="path-3" points="0 0.0973035679 276.381447 0.0973035679 276.381447 444.176979 0 444.176979"></polygon>
        <polygon id="path-5" points="0.390584071 0.90700885 310.68085 0.90700885 310.68085 241.061947 0.390584071 241.061947"></polygon>
    </defs>
    <g id="3.通用组件/灰色版/盆栽02" stroke="none" stroke-width="1" fill="none" fill-rule="evenodd">
        <g id="分组" transform="translate(235.000000, 62.000000)">
            <g transform="translate(240.000000, 0.672212)">
                <mask id="mask-2" fill="white">
                    <use xlink:href="#path-1"></use>
                </mask>
                <g id="Clip-2"></g>
                <path d="M158.073664,12.9438584 C277.776319,-43.6759646 349.118973,104.817133 288.918265,187.496071 C215.453841,288.389522 177.821628,404.481558 156.865168,439.458903 C139.186938,468.965097 90.7610973,540.900319 32.448531,507.744212 C-21.2169558,477.23023 8.03224779,357.47023 8.03224779,357.47023 C8.03224779,357.47023 10.4025133,82.792354 158.073664,12.9438584 Z" id="Fill-1" fill="#A3B5D6" mask="url(#mask-2)"></path>
            </g>
            <path d="M465.856885,489.527469 C419.82892,543.466938 353.408389,651.973487 311.797062,613.970655 C286.577947,590.940212 320.292637,481.870832 412.579009,422.527115 C491.079186,372.048531 511.885912,435.588 465.856885,489.527469 Z" id="Fill-3" fill="#A3B5D6"></path>
            <path d="M38.0270442,485.358796 C-2.66782301,430.45508 -17.5265841,351.664991 27.8960708,331.460389 C71.4454513,312.090478 143.584566,359.784637 176.998726,451.576142 C210.411823,543.366584 229.689345,609.362336 197.004743,620.836673 C143.379611,639.662867 91.7774867,557.874903 38.0270442,485.358796" id="Fill-5" fill="#A3B5D6"></path>
            <g transform="translate(0.000000, 103.681062)">
                <mask id="mask-4" fill="white">
                    <use xlink:href="#path-3"></use>
                </mask>
                <g id="Clip-8"></g>
                <path d="M25.4106903,11.5332743 C42.9136991,-0.242654867 64.9342301,-2.93256637 85.0252035,3.50283186 C113.06485,12.4837168 155.616,39.2246018 197.729628,115.978938 C252.711929,216.189558 281.334584,326.047965 275.676531,395.636283 C271.97777,441.144956 215.912283,460.764425 184.547681,427.582832 C170.143434,412.342832 154.902372,388.852566 139.990513,353.215752 C79.9788319,209.807257 23.8719292,119.94 17.1806018,110.916637 C-0.671787611,86.8380531 -13.4363894,37.6709735 25.4106903,11.5332743" id="Fill-7" fill="#4E5C93" mask="url(#mask-4)"></path>
            </g>
            <path d="M142.065419,501.025572 C142.704888,500.415715 143.717667,500.439719 144.327525,501.079189 L144.893149,501.690951 L145.262349,502.100022 C146.008653,502.932729 146.872377,503.928484 147.843719,505.086905 C150.610881,508.387018 153.690803,512.333138 157.005038,516.922214 C166.461332,530.015931 175.912734,545.644177 184.731092,563.782299 C209.910393,615.572571 225.014619,677.099149 225.014619,748.147327 C225.014619,749.030983 224.298275,749.747327 223.414619,749.747327 C222.530964,749.747327 221.814619,749.030983 221.814619,748.147327 C221.814619,677.600683 206.826988,616.549052 181.853191,565.181471 C173.117966,547.214344 163.761956,531.743832 154.410838,518.795748 C151.334736,514.536403 148.467571,510.844163 145.87461,507.721745 L145.391659,507.14297 C144.548476,506.137391 143.790534,505.259865 143.124708,504.51068 L142.527053,503.845386 L142.011802,503.287679 C141.401945,502.648209 141.42595,501.63543 142.065419,501.025572 Z" id="Stroke-9" fill="#253368" fill-rule="nonzero"></path>
            <path d="M368.870782,521.84793 C369.39945,521.139864 370.402021,520.994433 371.110087,521.523101 C371.818153,522.051769 371.963584,523.05434 371.434917,523.762406 C360.469719,538.448538 350.352433,554.235533 341.049932,570.967617 C321.393035,606.323791 306.200192,644.21841 294.923871,682.114298 C290.977168,695.377825 287.802398,707.692412 285.330494,718.741021 L284.992642,720.263412 C284.387813,723.011564 283.862896,725.522826 283.414479,727.781574 L283.013445,729.840468 C282.9093,730.386501 282.815512,730.888463 282.731879,731.345432 L282.510114,732.590801 C282.363409,733.462193 281.538078,734.049669 280.666686,733.902964 C279.795293,733.756259 279.207818,732.930928 279.354523,732.059535 L279.649704,730.413244 C279.717313,730.047915 279.790681,729.657392 279.869894,729.242063 L280.03614,728.378446 C280.615503,725.395077 281.336453,721.936531 282.207696,718.042358 C284.695189,706.92407 287.888284,694.5384 291.856775,681.201651 C303.195291,643.096747 318.472951,604.990575 338.253119,569.412678 C347.622915,552.559554 357.817057,536.652632 368.870782,521.84793 Z" id="Stroke-11" fill="#253368" fill-rule="nonzero"></path>
            <path d="M419.205268,147.733341 C419.843281,148.344722 419.864871,149.357556 419.253491,149.995569 L418.859574,150.415708 C418.526153,150.775155 418.131377,151.20789 417.677436,151.713967 L416.661985,152.857507 C415.724783,153.923005 414.696015,155.119237 413.58087,156.446332 L413.158652,156.950127 C408.278556,162.788314 402.836978,169.809772 396.973985,178.018031 C380.208267,201.490238 363.437085,229.752569 347.780448,262.833677 C321.72041,317.896265 301.426576,380.68949 289.128506,451.273335 C274.198537,536.962762 271.726339,630.562225 283.944513,732.134293 C284.050048,733.011624 283.424383,733.808394 282.547052,733.913929 C281.669721,734.019464 280.872951,733.393799 280.767416,732.516468 C268.511949,630.634367 270.992435,536.721096 285.975999,450.724063 C298.324514,379.850693 318.707165,316.782652 344.888035,261.464755 C360.628159,228.207247 377.496363,199.781416 394.370031,176.15808 L395.676577,174.338732 C401.091266,166.8397 406.137334,160.360379 410.703437,154.897831 L411.963833,153.401792 C412.915633,152.281233 413.800417,151.261057 414.614705,150.341172 L415.295321,149.577257 C415.683559,149.144429 416.030757,148.762638 416.335646,148.431849 L416.94304,147.781564 C417.554421,147.143551 418.567255,147.12196 419.205268,147.733341 Z" id="Stroke-13" fill="#253368" fill-rule="nonzero"></path>
            <path d="M161.224202,325.824173 C161.979925,325.366211 162.963812,325.607594 163.421774,326.363317 L163.714906,326.855299 C163.952045,327.256835 164.231433,327.73622 164.551559,328.292978 L165.262652,329.539697 C166.000523,330.843258 166.818161,332.317162 167.710471,333.959807 L168.532562,335.481782 C171.573708,341.143502 174.907781,347.6972 178.468914,355.122154 L178.955924,356.140046 C190.577215,380.488541 202.195687,408.967077 213.037905,441.33233 C243.40286,531.975174 261.877215,634.862661 262.568521,748.137458 C262.573822,749.021097 261.861863,749.741799 260.978223,749.747282 C260.094584,749.752584 259.373882,749.040624 259.36849,748.156984 C258.679435,635.236266 240.264972,532.68233 210.003635,442.348797 C199.203885,410.110317 187.634535,381.752184 176.068004,357.518421 L175.102662,355.505656 C171.583877,348.204656 168.295925,341.774812 165.304622,336.236916 L164.898562,335.487279 C163.917443,333.681145 163.028646,332.083122 162.239158,330.695417 L161.25676,328.988917 L160.685058,328.021745 C160.227095,327.266022 160.468479,326.282135 161.224202,325.824173 Z" id="Stroke-15" fill="#253368" fill-rule="nonzero"></path>
            <path d="M65.6594336,172.415257 C66.2530619,179.496319 60.9943009,185.717204 53.9143009,186.310832 C46.8332389,186.905522 40.612354,181.646761 40.0176637,174.565699 C39.4240354,167.485699 44.6827965,161.264814 51.7638584,160.670124 C58.8438584,160.076496 65.0647434,165.335257 65.6594336,172.415257" id="Fill-17" fill="#FFFFFF"></path>
            <path d="M174.938867,227.345628 C175.533558,234.425628 170.274796,240.647575 163.193735,241.241204 C156.112673,241.835894 149.891788,236.577133 149.297097,229.496071 C148.703469,222.416071 153.96223,216.195186 161.043292,215.600496 C168.123292,215.006867 174.345239,220.265628 174.938867,227.345628" id="Fill-19" fill="#FFFFFF"></path>
            <path d="M156.623363,373.600779 C157.304071,381.709805 151.28177,388.834407 143.172743,389.514053 C135.063717,390.194761 127.939115,384.17246 127.259469,376.063434 C126.578761,367.955469 132.601062,360.830867 140.710088,360.150159 C148.818053,359.469451 155.942655,365.491752 156.623363,373.600779" id="Fill-21" fill="#FFFFFF"></path>
            <path d="M492.275894,155.028531 C492.275894,166.53685 482.947752,175.866053 471.439434,175.866053 C459.931115,175.866053 450.602973,166.53685 450.602973,155.028531 C450.602973,143.521274 459.931115,134.192071 471.439434,134.192071 C482.947752,134.192071 492.275894,143.521274 492.275894,155.028531" id="Fill-23" fill="#FFFFFF"></path>
            <path d="M324.535965,218.657735 C324.535965,230.164991 315.206761,239.494195 303.699504,239.494195 C292.191186,239.494195 282.863044,230.164991 282.863044,218.657735 C282.863044,207.150478 292.191186,197.821274 303.699504,197.821274 C315.206761,197.821274 324.535965,207.150478 324.535965,218.657735" id="Fill-25" fill="#FFFFFF"></path>
            <path d="M378.862195,360.097805 C378.862195,364.907363 374.962726,368.806832 370.153168,368.806832 C365.343611,368.806832 361.444142,364.907363 361.444142,360.097805 C361.444142,355.287186 365.343611,351.387717 370.153168,351.387717 C374.962726,351.387717 378.862195,355.287186 378.862195,360.097805" id="Fill-27" fill="#FFFFFF"></path>
            <line x1="174.618372" y1="855.678584" x2="364.480673" y2="855.678584" id="Fill-29" fill="#A3B5D6"></line>
            <path d="M441.605204,471.476177 C441.605204,478.581664 435.844142,484.341664 428.739717,484.341664 C421.633168,484.341664 415.87423,478.581664 415.87423,471.476177 C415.87423,464.37069 421.633168,458.61069 428.739717,458.61069 C435.844142,458.61069 441.605204,464.37069 441.605204,471.476177" id="Fill-31" fill="#FFFFFF"></path>
            <g transform="translate(106.194690, 655.893451)">
                <mask id="mask-6" fill="white">
                    <use xlink:href="#path-5"></use>
                </mask>
                <g id="Clip-34"></g>
                <path d="M285.194124,241.062053 L25.8773097,241.062053 C11.8596106,241.062053 0.390584071,229.593027 0.390584071,215.575327 L0.390584071,26.3937345 C0.390584071,12.3749735 11.8596106,0.90700885 25.8773097,0.90700885 L285.194124,0.90700885 C299.210761,0.90700885 310.68085,12.3749735 310.68085,26.3937345 L310.68085,215.575327 C310.68085,229.593027 299.210761,241.062053 285.194124,241.062053" id="Fill-33" fill="#253368" mask="url(#mask-6)"></path>
            </g>
        </g>
    </g>
</svg>