<svg xmlns="http://www.w3.org/2000/svg" xmlns:xlink="http://www.w3.org/1999/xlink" width="1024" height="1024" version="1.1" viewBox="0 0 1024 1024"><title>3.通用组件/灰色版/票据</title><desc>Created with Sketch.</desc><g id="3.通用组件/灰色版/票据" fill="none" fill-rule="evenodd" stroke="none" stroke-width="1"><g id="资源-12" transform="translate(66.000000, 185.000000)"><g id="资源-11"><path id="路径" fill="#FFF" fill-rule="nonzero" d="M805.8,-2.06267439 C807.397681,-2.06267439 808.703661,-0.813754421 808.794907,0.761052827 L808.8,0.937325615 L808.8,308.4 C808.8,310.056854 807.456854,311.4 805.8,311.4 C804.202319,311.4 802.896339,310.15108 802.805093,308.576273 L802.8,308.4 L802.8,0.937325615 C802.8,-0.719528635 804.143146,-2.06267439 805.8,-2.06267439 Z"/><g id="分组-2" transform="translate(124.800000, 33.600000)"><rect id="矩形-copy" width="766.836" height="384.288" x="0" y=".912" fill="#4E5C93" fill-rule="nonzero" rx="28.8"/><rect id="矩形-copy-2" width="344.4" height="38.4" x="307.2" y="96.912" fill="#A3B5D6" fill-rule="nonzero" rx="9.6"/><rect id="矩形-copy-3" width="193.2" height="38.4" x="307.2" y="250.512" fill="#4E5C93" fill-rule="nonzero" rx="9.6"/><rect id="矩形-copy-4" width="344.4" height="38.4" x="307.2" y="173.712" fill="#A3B5D6" fill-rule="nonzero" rx="9.6"/><rect id="矩形-copy-5" width="153.6" height="153.6" x="48" y="96.912" fill="#A3B5D6" fill-rule="nonzero" rx="19.2"/><line id="路径-copy" x1="250.2" x2="250.2" y1="96.912" y2="346.92" stroke="#A3B5D6" stroke-linecap="round" stroke-linejoin="round" stroke-width="6"/></g><rect id="矩形" width="766.836" height="384.288" x="0" y="268.8" fill="#E4EBF7" fill-rule="nonzero" rx="28.8"/><rect id="矩形" width="344.4" height="38.4" x="307.2" y="364.8" fill="#A3B5D6" fill-rule="nonzero" rx="9.6"/><rect id="矩形" width="193.2" height="38.4" x="307.2" y="518.4" fill="#A3B5D6" fill-rule="nonzero" rx="9.6"/><rect id="矩形" width="344.4" height="38.4" x="307.2" y="441.6" fill="#A3B5D6" fill-rule="nonzero" rx="9.6"/><rect id="矩形" width="153.6" height="153.6" x="48" y="364.8" fill="#A3B5D6" fill-rule="nonzero" rx="19.2"/><path id="路径" fill="#A3B5D6" fill-rule="nonzero" d="M250.2,358.8 C251.797681,358.8 253.103661,360.04892 253.194907,361.623727 L253.2,361.8 L253.2,611.808 C253.2,613.464854 251.856854,614.808 250.2,614.808 C248.602319,614.808 247.296339,613.55908 247.205093,611.984273 L247.2,611.808 L247.2,361.8 C247.2,360.143146 248.543146,358.8 250.2,358.8 Z"/></g></g></g></svg>