<svg xmlns="http://www.w3.org/2000/svg" xmlns:xlink="http://www.w3.org/1999/xlink" width="1024" height="1024" version="1.1" viewBox="0 0 1024 1024"><title>3.通用组件/灰色版/笔记本</title><desc>Created with Sketch.</desc><g id="3.通用组件/灰色版/笔记本" fill="none" fill-rule="evenodd" stroke="none" stroke-width="1"><g id="资源-13" fill-rule="nonzero" transform="translate(129.000000, 62.000000)"><rect id="矩形" width="749.675" height="899.61" x="15.134" y="0" fill="#E4EBF7" rx="33.588"/><path id="路径" fill="#4E5C93" d="M43.0828633,0 L165.06898,0 L165.06898,899.609544 L43.0828633,899.609544 C27.6471635,899.609544 15.1340564,887.096437 15.1340564,871.660738 L15.1340564,27.9488069 C15.1340564,12.5131071 27.6471635,0 43.0828633,0 Z"/><rect id="矩形" width="53.426" height="19.784" x="0" y="138.467" fill="#253368" rx="9.6"/><rect id="矩形" width="53.426" height="19.784" x="0" y="259.048" fill="#253368" rx="9.6"/><rect id="矩形" width="53.426" height="19.784" x="0" y="379.616" fill="#253368" rx="9.6"/><rect id="矩形" width="53.426" height="19.784" x="0" y="620.777" fill="#253368" rx="9.6"/><rect id="矩形" width="53.426" height="19.784" x="0" y="500.197" fill="#253368" rx="9.6"/><rect id="矩形" width="53.426" height="19.784" x="0" y="741.358" fill="#253368" rx="9.6"/><polygon id="路径" fill="#253368" points="250.438 151.259 280.378 194.939 280.718 194.939 280.718 151.259 290.733 151.259 290.733 211.807 281.058 211.807 250.778 167.505 250.438 167.505 250.438 211.771 240.517 211.771 240.517 151.259"/><path id="形状" fill="#253368" d="M351.409978,159.05987 C356.505423,164.740998 359.047289,172.284599 359.047289,181.62039 C359.047289,190.956182 356.505423,198.406074 351.409978,204.098915 C346.068547,210.02603 338.774837,212.993492 329.52885,213.001302 C320.157918,213.001302 312.907158,209.944035 307.647722,204.005206 C302.563991,198.242082 300.104121,190.780477 300.104121,181.62039 C300.104121,172.460304 302.563991,164.904989 307.647722,159.141866 C312.907158,153.039046 320.204772,150.063774 329.52885,150.063774 C338.852928,150.063774 346.033406,153.039046 351.409978,159.05987 Z M314.910195,165.16269 C311.595228,169.239046 309.990456,174.662473 309.990456,181.62039 C309.990456,188.578308 311.595228,193.91974 314.910195,198.019523 C318.225163,202.119306 323.215184,204.298048 329.493709,204.298048 C335.772234,204.298048 340.609978,202.25987 343.995228,198.277223 C347.380477,194.294577 348.996963,188.77744 348.996963,181.655531 C348.996963,174.533623 347.310195,168.93449 343.995228,164.858134 C340.68026,160.781779 335.795662,158.83731 329.493709,158.83731 C323.191757,158.83731 318.389154,160.922343 314.910195,165.16269 Z"/><polygon id="路径" fill="#253368" points="413.293 151.259 413.293 159.739 393.45 159.739 393.45 211.807 383.529 211.807 383.529 159.739 363.674 159.739 363.674 151.259"/><path id="形状" fill="#253368" d="M476.488503,151.258568 C482.509328,151.258568 487.253362,152.699349 490.650325,155.580911 C493.815773,158.315578 495.565759,162.341407 495.406074,166.521475 C495.815693,172.693141 491.940754,178.340864 486.035141,180.17961 C489.509544,180.665649 492.69591,182.377231 495.019523,185.00564 C497.119452,187.811325 498.171974,191.263098 497.994794,194.763124 C497.994794,200.865944 495.87462,205.305423 491.716269,208.245553 C488.202169,210.588286 483.05987,211.759653 476.617354,211.759653 L448.750542,211.759653 L448.750542,151.258568 L476.488503,151.258568 Z M458.672017,176.700651 L473.899783,176.700651 C478.14013,176.700651 481.103688,175.939262 482.884165,174.580477 C484.664642,173.221692 485.508026,170.843818 485.508026,167.704555 C485.508026,164.822993 484.582646,162.70282 482.884165,161.437744 C481.185683,160.172668 478.198698,159.399566 474.063774,159.399566 L458.672017,159.399566 L458.672017,176.700651 Z M458.672017,203.642082 L475.129718,203.642082 C478.17267,203.798106 481.205954,203.185809 483.950108,201.861605 C486.622617,200.445064 488.217535,197.594378 488.026464,194.575705 C488.026464,191.061605 487.007375,188.636876 485.051193,187.102386 C483.095011,185.567896 479.791757,184.818221 475.387419,184.818221 L458.672017,184.818221 L458.672017,203.642082 Z"/><path id="形状" fill="#253368" d="M556.047722,159.05987 C561.131453,164.740998 563.685033,172.284599 563.685033,181.62039 C563.685033,190.956182 561.131453,198.406074 556.047722,204.098915 C550.706291,210.02603 543.412581,212.993492 534.166594,213.001302 C524.795662,213.001302 517.544902,209.944035 512.285466,204.005206 C507.190022,198.242082 504.730152,190.780477 504.730152,181.62039 C504.730152,172.460304 507.190022,164.904989 512.285466,159.141866 C517.544902,153.039046 524.830803,150.063774 534.166594,150.063774 C543.502386,150.063774 550.706291,153.039046 556.047722,159.05987 Z M519.571367,165.16269 C516.268113,169.239046 514.651627,174.662473 514.651627,181.62039 C514.651627,188.578308 516.268113,193.91974 519.571367,198.019523 C522.87462,202.119306 527.888069,204.298048 534.166594,204.298048 C540.445119,204.298048 545.27115,202.25987 548.668113,198.277223 C552.065076,194.294577 553.669848,188.77744 553.669848,181.655531 C553.669848,174.533623 551.971367,168.93449 548.668113,164.858134 C545.364859,160.781779 540.468547,158.83731 534.166594,158.83731 C527.864642,158.83731 523.050325,160.922343 519.571367,165.16269 Z"/><path id="形状" fill="#253368" d="M621.784816,159.05987 C626.868547,164.740998 629.410412,172.284599 629.410412,181.62039 C629.410412,190.956182 626.868547,198.406074 621.784816,204.098915 C616.443384,210.02603 609.149675,212.993492 599.903688,213.001302 C590.532755,213.001302 583.270282,209.944035 578.02256,204.005206 C572.927115,198.242082 570.467245,190.780477 570.467245,181.62039 C570.467245,172.460304 572.927115,164.904989 578.02256,159.141866 C583.270282,153.039046 590.567896,150.063774 599.903688,150.063774 C609.239479,150.063774 616.443384,153.039046 621.784816,159.05987 Z M585.30846,165.16269 C582.005206,169.239046 580.38872,174.662473 580.38872,181.62039 C580.38872,188.578308 582.005206,193.91974 585.30846,198.019523 C588.611714,202.119306 593.625163,204.298048 599.903688,204.298048 C606.182213,204.298048 611.008243,202.25987 614.405206,198.277223 C617.802169,194.294577 619.406941,188.77744 619.406941,181.655531 C619.406941,174.533623 617.70846,168.93449 614.405206,164.858134 C611.101952,160.781779 606.20564,158.83731 599.903688,158.83731 C593.601735,158.83731 588.787419,160.922343 585.30846,165.16269 Z"/><polygon id="路径" fill="#253368" points="689.384 151.259 662.748 177.204 693.367 211.807 679.967 211.807 656.047 183.694 648.668 190.898 648.668 211.76 638.746 211.76 638.746 151.259 648.668 151.259 648.668 179.84 676.78 151.259"/><rect id="矩形" width="374.837" height="37.05" x="277.52" y="487.452" fill="#4E5C93" rx="9.6"/><rect id="矩形" width="374.837" height="37.05" x="277.52" y="375.095" fill="#4E5C93" rx="9.6"/><rect id="矩形" width="374.837" height="37.05" x="277.52" y="599.822" fill="#4E5C93" rx="9.6"/></g></g></svg>