<svg xmlns="http://www.w3.org/2000/svg" xmlns:xlink="http://www.w3.org/1999/xlink" width="1024" height="1024" version="1.1" viewBox="0 0 1024 1024"><title>3.通用组件/灰色版/网页模块</title><desc>Created with Sketch.</desc><defs><polygon id="path-1" points="0 .513 135.826 .513 135.826 135.513 0 135.513"/></defs><g id="3.通用组件/灰色版/网页模块" fill="none" fill-rule="evenodd" stroke="none" stroke-width="1"><g id="分组" transform="translate(123.000000, 125.000000)"><g id="分组-copy" transform="translate(0.000000, 6.808282)"><mask id="mask-2" fill="#fff"><use xlink:href="#path-1"/></mask><path id="Fill-3" fill="#D2DBEB" d="M114.478075,135.513405 L21.3467919,135.513405 C9.60595852,135.513405 0.000345318629,126.043085 0.000345318629,114.470141 L0.000345318629,21.5563823 C0.000345318629,9.98230298 9.60595852,0.511982802 21.3467919,0.511982802 L114.478075,0.511982802 C126.218909,0.511982802 135.825673,9.98230298 135.825673,21.5563823 L135.825673,114.470141 C135.825673,126.043085 126.218909,135.513405 114.478075,135.513405" mask="url(#mask-2)"/></g><path id="Fill-5-Copy" fill="#CCD7EE" d="M663.121119,759.123436 C651.380286,759.123436 641.774672,749.571446 641.774672,737.8987 L641.774672,644.183678 C641.774672,632.509787 651.380286,622.957797 663.121119,622.957797 L756.252402,622.957797 C767.993236,622.957797 777.6,632.509787 777.6,644.183678 L777.6,737.8987 C777.6,749.571446 767.993236,759.123436 756.252402,759.123436 L663.121119,759.123436 Z"/><rect id="矩形-copy-13" width="529.719" height="531.046" x="227.507" y="0" fill="#253368" fill-rule="nonzero" rx="54.432"/><path id="Fill-23-Copy-3" fill="#FFF" d="M364.465164,185.806607 C361.962506,185.806607 359.937118,182.61297 359.937118,178.666772 L359.937118,150.107432 C359.937118,146.167558 361.962506,142.973921 364.465164,142.973921 L491.2344,142.973921 C493.737057,142.973921 495.762445,146.167558 495.762445,150.107432 L495.762445,178.666772 C495.762445,182.61297 493.737057,185.806607 491.2344,185.806607 L364.465164,185.806607 Z"/><path id="Fill-23-Copy-4" fill="#FFF" d="M688.180322,287.930836 L371.257232,287.930836 C365.000588,287.930836 359.937118,284.737199 359.937118,280.791001 L359.937118,252.231661 C359.937118,248.291787 365.000588,245.09815 371.257232,245.09815 L688.180322,245.09815 C694.436967,245.09815 699.500437,248.291787 699.500437,252.231661 L699.500437,280.791001 C699.500437,284.737199 694.436967,287.930836 688.180322,287.930836"/><path id="Fill-23-Copy-5" fill="#FFF" d="M368.993209,390.055065 C363.987894,390.055065 359.937118,386.861428 359.937118,382.91523 L359.937118,354.35589 C359.937118,350.416016 363.987894,347.222379 368.993209,347.222379 L622.531682,347.222379 C627.536997,347.222379 631.587773,350.416016 631.587773,354.35589 L631.587773,382.91523 C631.587773,386.861428 627.536997,390.055065 622.531682,390.055065 L368.993209,390.055065 Z"/><g id="分组-2-copy" fill-rule="nonzero" transform="translate(0.000000, 241.694009)"><rect id="矩形" width="529.719" height="531.046" x="0" y="0" fill="#CCD7EE" rx="54.432"/><path id="矩形-copy-10" fill="#4E5C93" d="M54.432,0 L475.286777,0 C505.348741,-5.52229311e-15 529.718777,24.3700365 529.718777,54.432 L529.718777,125.111299 L529.718777,125.111299 L0,125.111299 L0,54.432 C-3.68152874e-15,24.3700365 24.3700365,5.52229311e-15 54.432,0 Z"/><rect id="矩形-copy-11" width="390.498" height="85.104" x="67.913" y="180.419" fill="#FFF" rx="20.412"/><rect id="矩形-copy-12" width="390.498" height="149.782" x="67.913" y="321.41" fill="#FFF" rx="20.412"/></g></g></g></svg>