<svg xmlns="http://www.w3.org/2000/svg" xmlns:xlink="http://www.w3.org/1999/xlink" width="1024" height="1024" version="1.1" viewBox="0 0 1024 1024"><title>3.通用组件/灰色版/药瓶</title><desc>Created with Sketch.</desc><defs><polygon id="path-1" points="0 .17 769.924 .17 769.924 763.268 0 763.268"/><polygon id="path-3" points=".743 0 284.731 0 284.731 105.269 .743 105.269"/></defs><g id="3.通用组件/灰色版/药瓶" fill="none" fill-rule="evenodd" stroke="none" stroke-width="1"><g id="分组" transform="translate(127.000000, 90.000000)"><g transform="translate(0.000000, 80.000000)"><mask id="mask-2" fill="#fff"><use xlink:href="#path-1"/></mask><path id="Fill-1" fill="#CED7EC" d="M490.310504,271.38001 L489.213117,271.38001 L489.213117,0.169708647 L280.851117,0.169708647 L280.851117,271.38001 L279.612167,271.38001 L7.04314062,695.600388 C-11.7364461,724.828192 9.23791496,763.267914 43.9669268,763.267914 L280.851117,763.267914 L489.213117,763.267914 L725.956841,763.267914 C760.684756,763.267914 781.660214,724.828192 762.880628,695.600388 L490.310504,271.38001 Z" mask="url(#mask-2)"/></g><g transform="translate(243.000000, 0.000000)"><mask id="mask-4" fill="#fff"><use xlink:href="#path-3"/></mask><path id="Fill-3" fill="#4E5C93" d="M260.625114,105.268746 L24.8485543,105.268746 C11.5347473,105.268746 0.742502894,94.5071876 0.742502894,81.2312359 L0.742502894,24.037291 C0.742502894,10.7613393 11.5347473,-0.000219310345 24.8485543,-0.000219310345 L260.625114,-0.000219310345 C273.938921,-0.000219310345 284.731165,10.7613393 284.731165,24.037291 L284.731165,81.2312359 C284.731165,94.5071876 273.938921,105.268746 260.625114,105.268746" mask="url(#mask-4)"/></g><path id="Fill-5" fill="#4E5C93" d="M88.5258983,744.887985 C73.7925597,767.829309 90.2474211,798 117.49115,798 L303.32674,798 L466.784727,798 L652.508401,798 C679.752131,798 696.206992,767.829309 681.474751,744.887985 L551.182136,542 L218.818513,542 L88.5258983,744.887985 Z"/><path id="Fill-7" fill="#FFF" d="M556,662 C556,686.300439 536.300439,706 512,706 C487.699561,706 468,686.300439 468,662 C468,637.698465 487.699561,618 512,618 C536.300439,618 556,637.698465 556,662"/><path id="Fill-9" fill="#FFF" d="M276,706 C276,730.300439 256.300439,750 232,750 C207.699561,750 188,730.300439 188,706 C188,681.699561 207.699561,662 232,662 C256.300439,662 276,681.699561 276,706"/><path id="Fill-11" fill="#FFF" d="M392,608.000559 C392,619.598067 382.821922,629 371.499454,629 C360.178078,629 351,619.598067 351,608.000559 C351,596.401933 360.178078,587 371.499454,587 C382.821922,587 392,596.401933 392,608.000559"/></g></g></svg>