<?xml version="1.0" encoding="UTF-8"?>
<svg width="1024px" height="1024px" viewBox="0 0 1024 1024" version="1.1" xmlns="http://www.w3.org/2000/svg" xmlns:xlink="http://www.w3.org/1999/xlink">
    <!-- Generator: Sketch 61.2 (89653) - https://sketch.com -->
    <title>3.通用组件/灰色版/表格详情页02</title>
    <desc>Created with Sketch.</desc>
    <g id="3.通用组件/灰色版/表格详情页02" stroke="none" stroke-width="1" fill="none" fill-rule="evenodd">
        <g id="编组-3" transform="translate(56.000000, 167.000000)">
            <g id="编组-2">
                <g id="分组-2-copy-2" transform="translate(0.000000, 0.000000)">
                    <path d="M911.692857,87.593968 L0.915047196,87.593968 L0.915047196,24.7822117 C0.915047196,11.1568923 12.0067506,0.109836129 25.6871374,0.109836129 L886.920767,0.109836129 C900.602186,0.109836129 911.692857,11.1568923 911.692857,24.7822117 L911.692857,87.593968 Z" id="Fill-1" fill="#253368"></path>
                    <path d="M64.7794215,41.184363 C64.7794215,49.7353972 57.8617164,56.6683347 49.3284441,56.6683347 C40.7961974,56.6683347 33.8795181,49.7353972 33.8795181,41.184363 C33.8795181,32.6333288 40.7961974,25.7003913 49.3284441,25.7003913 C57.8617164,25.7003913 64.7794215,32.6333288 64.7794215,41.184363" id="Fill-5" fill="#A3B5D6"></path>
                    <path d="M122.465143,41.184363 C122.465143,49.7353972 115.548463,56.6683347 107.015191,56.6683347 C98.4829444,56.6683347 91.5662651,49.7353972 91.5662651,41.184363 C91.5662651,32.6333288 98.4829444,25.7003913 107.015191,25.7003913 C115.548463,25.7003913 122.465143,32.6333288 122.465143,41.184363" id="Fill-7" fill="#E4EBF7"></path>
                    <path d="M180.15189,41.184363 C180.15189,49.7353972 173.23521,56.6683347 164.701938,56.6683347 C156.169691,56.6683347 149.253012,49.7353972 149.253012,41.184363 C149.253012,32.6333288 156.169691,25.7003913 164.701938,25.7003913 C173.23521,25.7003913 180.15189,32.6333288 180.15189,41.184363" id="Fill-9" fill="#E4EBF7"></path>
                </g>
                <path d="M27.5870277,689.006199 C12.3520917,689.006199 5.68434189e-14,677.975237 5.68434189e-14,664.367475 L5.68434189e-14,77.7040359 L910.825149,77.7040359 L910.825149,664.367475 C910.825149,677.975237 898.474207,689.006199 883.238121,689.006199 L27.5870277,689.006199 Z" id="Fill-3-Copy-2" fill="#E4EBF7"></path>
                <rect id="矩形-copy-13" fill="#FFFFFF" fill-rule="nonzero" x="302.636771" y="130.869955" width="549.39759" height="514.007825" rx="10.9930762"></rect>
                <rect id="矩形-copy-14" fill="#FFFFFF" fill-rule="nonzero" x="57.2556054" y="126.780269" width="201.445783" height="514.007825" rx="10.9930762"></rect>
                <rect id="矩形-copy-15" fill="#CCD7EE" fill-rule="nonzero" x="102.242152" y="331.264574" width="113.195525" height="27.9324166" rx="6.24433722"></rect>
                <rect id="矩形-copy-16" fill="#CCD7EE" fill-rule="nonzero" x="102.242152" y="384.430493" width="113.195525" height="27.0867642" rx="6.14959555"></rect>
                <rect id="矩形-copy-17" fill="#CCD7EE" fill-rule="nonzero" x="102.242152" y="437.596413" width="113.195525" height="27.0867642" rx="6.14959555"></rect>
                <rect id="矩形-copy-18" fill="#CCD7EE" fill-rule="nonzero" x="102.242152" y="490.762332" width="113.195525" height="27.0867642" rx="6.14959555"></rect>
                <rect id="矩形-copy-19" fill="#CCD7EE" fill-rule="nonzero" x="355.802691" y="507.121076" width="329.638554" height="14.6859379" rx="7.32871749"></rect>
                <rect id="矩形-copy-20" fill="#CCD7EE" fill-rule="nonzero" x="355.802691" y="584.825112" width="329.638554" height="14.6859379" rx="7.32871749"></rect>
                <rect id="矩形-copy-21" fill="#CCD7EE" fill-rule="nonzero" x="355.802691" y="543.928251" width="439.518072" height="14.6859379" rx="7.32871749"></rect>
                <rect id="矩形-copy-22" fill="#4E5C93" fill-rule="nonzero" x="355.802691" y="179.946188" width="441.686099" height="294.457399" rx="14.657435"></rect>
                <g id="分组-3-copy-2" transform="translate(110.421525, 171.766816)" fill-rule="nonzero">
                    <ellipse id="椭圆形" fill="#E4EBF7" cx="51.099243" cy="51.3229274" rx="50.564026" ry="51.1385336"></ellipse>
                    <path d="M51.099243,102.461474 C65.6727985,102.469663 79.5036664,95.9583038 88.8800512,84.6748398 C81.4920423,70.4899944 66.943692,61.6103508 51.0913424,61.6103508 C35.2389927,61.6103508 20.6906424,70.4899944 13.3026335,84.6748398 C22.6839278,95.9607955 36.5206441,102.472185 51.099243,102.461474 L51.099243,102.461474 Z" id="路径" fill="#253368"></path>
                    <ellipse id="椭圆形" fill="#253368" cx="51.3678644" cy="44.4112349" rx="19.0168142" ry="19.2328829"></ellipse>
                </g>
                <line x1="359.892377" y1="284.233184" x2="798.891785" y2="284.233184" id="路径-3" stroke="#FFFFFF" stroke-width="4.0896861" stroke-linecap="round" stroke-linejoin="round" fill-rule="nonzero"></line>
                <line x1="458.044843" y1="474.403587" x2="458.044843" y2="178.244815" id="路径-3-copy-2" stroke="#FFFFFF" stroke-width="4.0896861" stroke-linecap="round" stroke-linejoin="round" fill-rule="nonzero"></line>
                <line x1="576.64574" y1="474.403587" x2="576.64574" y2="178.244815" id="路径-3-copy-3" stroke="#FFFFFF" stroke-width="4.0896861" stroke-linecap="round" stroke-linejoin="round" fill-rule="nonzero"></line>
                <line x1="691.156951" y1="474.403587" x2="691.156951" y2="178.244815" id="路径-3-copy-4" stroke="#FFFFFF" stroke-width="4.0896861" stroke-linecap="round" stroke-linejoin="round" fill-rule="nonzero"></line>
                <line x1="359.892377" y1="382.38565" x2="798.891785" y2="382.38565" id="路径-3-copy" stroke="#FFFFFF" stroke-width="4.0896861" stroke-linecap="round" stroke-linejoin="round" fill-rule="nonzero"></line>
            </g>
        </g>
    </g>
</svg>