<svg xmlns="http://www.w3.org/2000/svg" xmlns:xlink="http://www.w3.org/1999/xlink" width="1024" height="1024" version="1.1" viewBox="0 0 1024 1024"><title>3.通用组件/灰色版/表格详情页02</title><desc>Created with Sketch.</desc><g id="3.通用组件/灰色版/表格详情页02" fill="none" fill-rule="evenodd" stroke="none" stroke-width="1"><g id="编组-3" transform="translate(56.000000, 167.000000)"><g id="编组-2"><g id="分组-2-copy-2" transform="translate(0.000000, 0.000000)"><path id="Fill-1" fill="#253368" d="M911.692857,87.593968 L0.915047196,87.593968 L0.915047196,24.7822117 C0.915047196,11.1568923 12.0067506,0.109836129 25.6871374,0.109836129 L886.920767,0.109836129 C900.602186,0.109836129 911.692857,11.1568923 911.692857,24.7822117 L911.692857,87.593968 Z"/><path id="Fill-5" fill="#A3B5D6" d="M64.7794215,41.184363 C64.7794215,49.7353972 57.8617164,56.6683347 49.3284441,56.6683347 C40.7961974,56.6683347 33.8795181,49.7353972 33.8795181,41.184363 C33.8795181,32.6333288 40.7961974,25.7003913 49.3284441,25.7003913 C57.8617164,25.7003913 64.7794215,32.6333288 64.7794215,41.184363"/><path id="Fill-7" fill="#E4EBF7" d="M122.465143,41.184363 C122.465143,49.7353972 115.548463,56.6683347 107.015191,56.6683347 C98.4829444,56.6683347 91.5662651,49.7353972 91.5662651,41.184363 C91.5662651,32.6333288 98.4829444,25.7003913 107.015191,25.7003913 C115.548463,25.7003913 122.465143,32.6333288 122.465143,41.184363"/><path id="Fill-9" fill="#E4EBF7" d="M180.15189,41.184363 C180.15189,49.7353972 173.23521,56.6683347 164.701938,56.6683347 C156.169691,56.6683347 149.253012,49.7353972 149.253012,41.184363 C149.253012,32.6333288 156.169691,25.7003913 164.701938,25.7003913 C173.23521,25.7003913 180.15189,32.6333288 180.15189,41.184363"/></g><path id="Fill-3-Copy-2" fill="#E4EBF7" d="M27.5870277,689.006199 C12.3520917,689.006199 5.68434189e-14,677.975237 5.68434189e-14,664.367475 L5.68434189e-14,77.7040359 L910.825149,77.7040359 L910.825149,664.367475 C910.825149,677.975237 898.474207,689.006199 883.238121,689.006199 L27.5870277,689.006199 Z"/><rect id="矩形-copy-13" width="549.398" height="514.008" x="302.637" y="130.87" fill="#FFF" fill-rule="nonzero" rx="10.993"/><rect id="矩形-copy-14" width="201.446" height="514.008" x="57.256" y="126.78" fill="#FFF" fill-rule="nonzero" rx="10.993"/><rect id="矩形-copy-15" width="113.196" height="27.932" x="102.242" y="331.265" fill="#CCD7EE" fill-rule="nonzero" rx="6.244"/><rect id="矩形-copy-16" width="113.196" height="27.087" x="102.242" y="384.43" fill="#CCD7EE" fill-rule="nonzero" rx="6.15"/><rect id="矩形-copy-17" width="113.196" height="27.087" x="102.242" y="437.596" fill="#CCD7EE" fill-rule="nonzero" rx="6.15"/><rect id="矩形-copy-18" width="113.196" height="27.087" x="102.242" y="490.762" fill="#CCD7EE" fill-rule="nonzero" rx="6.15"/><rect id="矩形-copy-19" width="329.639" height="14.686" x="355.803" y="507.121" fill="#CCD7EE" fill-rule="nonzero" rx="7.329"/><rect id="矩形-copy-20" width="329.639" height="14.686" x="355.803" y="584.825" fill="#CCD7EE" fill-rule="nonzero" rx="7.329"/><rect id="矩形-copy-21" width="439.518" height="14.686" x="355.803" y="543.928" fill="#CCD7EE" fill-rule="nonzero" rx="7.329"/><rect id="矩形-copy-22" width="441.686" height="294.457" x="355.803" y="179.946" fill="#4E5C93" fill-rule="nonzero" rx="14.657"/><g id="分组-3-copy-2" fill-rule="nonzero" transform="translate(110.421525, 171.766816)"><ellipse id="椭圆形" cx="51.099" cy="51.323" fill="#E4EBF7" rx="50.564" ry="51.139"/><path id="路径" fill="#253368" d="M51.099243,102.461474 C65.6727985,102.469663 79.5036664,95.9583038 88.8800512,84.6748398 C81.4920423,70.4899944 66.943692,61.6103508 51.0913424,61.6103508 C35.2389927,61.6103508 20.6906424,70.4899944 13.3026335,84.6748398 C22.6839278,95.9607955 36.5206441,102.472185 51.099243,102.461474 L51.099243,102.461474 Z"/><ellipse id="椭圆形" cx="51.368" cy="44.411" fill="#253368" rx="19.017" ry="19.233"/></g><line id="路径-3" x1="359.892" x2="798.892" y1="284.233" y2="284.233" fill-rule="nonzero" stroke="#FFF" stroke-linecap="round" stroke-linejoin="round" stroke-width="4.09"/><line id="路径-3-copy-2" x1="458.045" x2="458.045" y1="474.404" y2="178.245" fill-rule="nonzero" stroke="#FFF" stroke-linecap="round" stroke-linejoin="round" stroke-width="4.09"/><line id="路径-3-copy-3" x1="576.646" x2="576.646" y1="474.404" y2="178.245" fill-rule="nonzero" stroke="#FFF" stroke-linecap="round" stroke-linejoin="round" stroke-width="4.09"/><line id="路径-3-copy-4" x1="691.157" x2="691.157" y1="474.404" y2="178.245" fill-rule="nonzero" stroke="#FFF" stroke-linecap="round" stroke-linejoin="round" stroke-width="4.09"/><line id="路径-3-copy" x1="359.892" x2="798.892" y1="382.386" y2="382.386" fill-rule="nonzero" stroke="#FFF" stroke-linecap="round" stroke-linejoin="round" stroke-width="4.09"/></g></g></g></svg>