<?xml version="1.0" encoding="UTF-8"?>
<svg width="1024px" height="1024px" viewBox="0 0 1024 1024" version="1.1" xmlns="http://www.w3.org/2000/svg" xmlns:xlink="http://www.w3.org/1999/xlink">
    <!-- Generator: Sketch 61.2 (89653) - https://sketch.com -->
    <title>3.通用组件/灰色版/详情页01</title>
    <desc>Created with Sketch.</desc>
    <g id="3.通用组件/灰色版/详情页01" stroke="none" stroke-width="1" fill="none" fill-rule="evenodd">
        <g id="分组" transform="translate(56.000000, 166.000000)">
            <g id="分组-2-copy-2">
                <path d="M911.692857,87.593968 L0.915047196,87.593968 L0.915047196,24.7822117 C0.915047196,11.1568923 12.0067506,0.109836129 25.6871374,0.109836129 L886.920767,0.109836129 C900.602186,0.109836129 911.692857,11.1568923 911.692857,24.7822117 L911.692857,87.593968 Z" id="Fill-1" fill="#253368"></path>
                <path d="M64.7794215,41.184363 C64.7794215,49.7353972 57.8617164,56.6683347 49.3284441,56.6683347 C40.7961974,56.6683347 33.8795181,49.7353972 33.8795181,41.184363 C33.8795181,32.6333288 40.7961974,25.7003913 49.3284441,25.7003913 C57.8617164,25.7003913 64.7794215,32.6333288 64.7794215,41.184363" id="Fill-5" fill="#A3B5D6"></path>
                <path d="M122.465143,41.184363 C122.465143,49.7353972 115.548463,56.6683347 107.015191,56.6683347 C98.4829444,56.6683347 91.5662651,49.7353972 91.5662651,41.184363 C91.5662651,32.6333288 98.4829444,25.7003913 107.015191,25.7003913 C115.548463,25.7003913 122.465143,32.6333288 122.465143,41.184363" id="Fill-7" fill="#E4EBF7"></path>
                <path d="M180.15189,41.184363 C180.15189,49.7353972 173.23521,56.6683347 164.701938,56.6683347 C156.169691,56.6683347 149.253012,49.7353972 149.253012,41.184363 C149.253012,32.6333288 156.169691,25.7003913 164.701938,25.7003913 C173.23521,25.7003913 180.15189,32.6333288 180.15189,41.184363" id="Fill-9" fill="#E4EBF7"></path>
            </g>
            <path d="M28.5026904,691.156951 C13.2677543,691.156951 0.915662651,680.125988 0.915662651,666.518226 L0.915662651,79.8547871 L911.740811,79.8547871 L911.740811,666.518226 C911.740811,680.125988 899.389869,691.156951 884.153784,691.156951 L28.5026904,691.156951 Z" id="Fill-3-Copy-2" fill="#E4EBF7"></path>
            <rect id="矩形-copy-13" fill="#FFFFFF" fill-rule="nonzero" x="301.253012" y="130.337699" width="549.39759" height="514.007825" rx="10.9930762"></rect>
            <rect id="矩形-copy-14" fill="#FFFFFF" fill-rule="nonzero" x="59.5180723" y="129.419827" width="201.445783" height="514.007825" rx="10.9930762"></rect>
            <rect id="矩形-copy-15" fill="#E4EBF7" fill-rule="nonzero" x="103.46988" y="331.351473" width="113.195525" height="27.9324166" rx="6.24433722"></rect>
            <rect id="矩形-copy-16" fill="#E4EBF7" fill-rule="nonzero" x="103.46988" y="385.505869" width="113.195525" height="27.0867642" rx="6.14959555"></rect>
            <rect id="矩形-copy-17" fill="#A3B5D6" fill-rule="nonzero" x="103.46988" y="438.742394" width="113.195525" height="27.0867642" rx="6.14959555"></rect>
            <rect id="矩形-copy-18" fill="#4E5C93" fill-rule="nonzero" x="103.46988" y="491.978918" width="113.195525" height="27.0867642" rx="6.14959555"></rect>
            <rect id="矩形-copy-19" fill="#E4EBF7" fill-rule="nonzero" x="356.192771" y="367.148447" width="329.638554" height="14.6859379" rx="7.32871749"></rect>
            <rect id="矩形-copy-20" fill="#E4EBF7" fill-rule="nonzero" x="356.192771" y="442.413878" width="329.638554" height="14.6859379" rx="7.32871749"></rect>
            <rect id="矩形-copy-21" fill="#E4EBF7" fill-rule="nonzero" x="356.192771" y="403.863291" width="439.518072" height="14.6859379" rx="7.32871749"></rect>
            <rect id="矩形-copy-2" fill="#4E5C93" fill-rule="nonzero" x="356.192771" y="490.143176" width="201.445783" height="104.637307" rx="21.9861525"></rect>
            <rect id="矩形-copy-22" fill="#CCD7EE" fill-rule="nonzero" x="356.192771" y="179.902739" width="439.518072" height="165.216801" rx="14.657435"></rect>
            <rect id="矩形-copy-23" fill="#A3B5D6" fill-rule="nonzero" x="594.26506" y="490.143176" width="201.445783" height="104.637307" rx="21.9861525"></rect>
            <g id="分组-3-copy-2" transform="translate(108.963855, 172.559770)" fill-rule="nonzero">
                <ellipse id="椭圆形" fill="#E4EBF7" cx="51.099243" cy="51.3229274" rx="50.564026" ry="51.1385336"></ellipse>
                <path d="M51.099243,102.461474 C65.6727985,102.469663 79.5036664,95.9583038 88.8800512,84.6748398 C81.4920423,70.4899944 66.943692,61.6103508 51.0913424,61.6103508 C35.2389927,61.6103508 20.6906424,70.4899944 13.3026335,84.6748398 C22.6839278,95.9607955 36.5206441,102.472185 51.099243,102.461474 L51.099243,102.461474 Z" id="路径" fill="#4E5C93"></path>
                <ellipse id="椭圆形" fill="#4E5C93" cx="52.3678644" cy="43.4112349" rx="20.0168142" ry="20.2328829"></ellipse>
            </g>
        </g>
    </g>
</svg>