<?xml version="1.0" encoding="UTF-8"?>
<svg width="1024px" height="1024px" viewBox="0 0 1024 1024" version="1.1" xmlns="http://www.w3.org/2000/svg" xmlns:xlink="http://www.w3.org/1999/xlink">
    <!-- Generator: Sketch 61.2 (89653) - https://sketch.com -->
    <title>3.通用组件/灰色版/读书笔记</title>
    <desc>Created with Sketch.</desc>
    <defs>
        <polygon id="path-1" points="0 875.163828 650.586576 875.163828 650.586576 0.0524849959 0 0.0524849959"></polygon>
        <path d="M0.965560773,0.0535733982 L0.965560773,848.243286 L597.769204,848.243286 C617.006397,848.243286 632.602326,832.649747 632.602326,813.415502 L632.602326,34.8813577 C632.602326,15.6460243 617.006397,0.0535733982 597.769204,0.0535733982 L0.965560773,0.0535733982 Z" id="path-3"></path>
        <path d="M0.965560773,0.0535733982 L0.965560773,848.243286 L597.769204,848.243286 C617.006397,848.243286 632.602326,832.649747 632.602326,813.415502 L632.602326,813.415502 L632.602326,34.8813577 C632.602326,15.6460243 617.006397,0.0535733982 597.769204,0.0535733982 L597.769204,0.0535733982 L0.965560773,0.0535733982 Z" id="path-5"></path>
        <path d="M0.965560773,0.0535733982 L0.965560773,848.243286 L597.769204,848.243286 C617.006397,848.243286 632.602326,832.649747 632.602326,813.415502 L632.602326,813.415502 L632.602326,34.8813577 C632.602326,15.6460243 617.006397,0.0535733982 597.769204,0.0535733982 L597.769204,0.0535733982 L0.965560773,0.0535733982 Z" id="path-7"></path>
        <path d="M0.965560773,0.0535733982 L0.965560773,848.243286 L597.769204,848.243286 C617.006397,848.243286 632.602326,832.649747 632.602326,813.415502 L632.602326,813.415502 L632.602326,34.8813577 C632.602326,15.6460243 617.006397,0.0535733982 597.769204,0.0535733982 L597.769204,0.0535733982 L0.965560773,0.0535733982 Z" id="path-9"></path>
        <path d="M0.965560773,0.0535733982 L0.965560773,848.243286 L597.769204,848.243286 C617.006397,848.243286 632.602326,832.649747 632.602326,813.415502 L632.602326,813.415502 L632.602326,34.8813577 C632.602326,15.6460243 617.006397,0.0535733982 597.769204,0.0535733982 L597.769204,0.0535733982 L0.965560773,0.0535733982 Z" id="path-11"></path>
        <path d="M0.965560773,0.0535733982 L0.965560773,848.243286 L597.769204,848.243286 C617.006397,848.243286 632.602326,832.649747 632.602326,813.415502 L632.602326,813.415502 L632.602326,34.8813577 C632.602326,15.6460243 617.006397,0.0535733982 597.769204,0.0535733982 L597.769204,0.0535733982 L0.965560773,0.0535733982 Z" id="path-13"></path>
        <path d="M0.965560773,0.0535733982 L0.965560773,848.243286 L597.769204,848.243286 C617.006397,848.243286 632.602326,832.649747 632.602326,813.415502 L632.602326,34.8813577 C632.602326,15.6460243 617.006397,0.0535733982 597.769204,0.0535733982 L0.965560773,0.0535733982 Z" id="path-15"></path>
        <path d="M0.965560773,0.0535733982 L0.965560773,848.243286 L597.769204,848.243286 C617.006397,848.243286 632.602326,832.649747 632.602326,813.415502 L632.602326,34.8813577 C632.602326,15.6460243 617.006397,0.0535733982 597.769204,0.0535733982 L0.965560773,0.0535733982 Z" id="path-17"></path>
    </defs>
    <g id="3.通用组件/灰色版/读书笔记" stroke="none" stroke-width="1" fill="none" fill-rule="evenodd">
        <g id="编组-2" transform="translate(202.000000, 94.000000)">
            <g id="编组">
                <g transform="translate(0.000000, 0.035917)">
                    <path d="M613.38255,848.912327 L16.5799956,848.912327 L16.5799956,0.72043747 L613.38255,0.72043747 C632.620832,0.72043747 648.216761,16.3139768 648.216761,35.5493101 L648.216761,814.083455 C648.216761,833.318788 632.620832,848.912327 613.38255,848.912327" id="Fill-1" fill="#4E5C93"></path>
                    <polygon id="Fill-3" fill="#253368" points="20.0709278 848.912327 0.000979712171 845.598142 0.000979712171 4.03571079 20.0709278 0.72043747"></polygon>
                    <path d="M648.221006,420.682413 L19.8989339,420.386367 L19.8499483,0.723484996 L613.369379,0.713689376 C632.60766,0.713689376 648.203589,16.3050519 648.204678,35.5403852 L648.221006,420.682413 Z" id="Fill-5" fill="#4E5C93"></path>
                    <path d="M107.804915,123.225446 L107.804915,113.438533 L129.129983,113.438533 L129.129983,106.797102 L141.365499,106.797102 L141.365499,113.438533 L162.341137,113.438533 L162.341137,123.225446 L141.365499,123.225446 L141.365499,128.46828 L164.089379,128.46828 L164.089379,138.256282 L161.292845,150.8393 C158.260092,149.914158 154.763608,149.327509 150.804482,149.091326 L153.251585,138.605659 L114.096844,138.605659 C117.124155,139.303325 121.552454,140.476622 127.381741,142.100518 C129.709102,142.799273 131.457344,143.271639 132.625378,143.499115 L128.780552,150.140546 C123.186396,148.279378 116.894467,146.41821 109.902587,144.547247 L113.747413,138.605659 L105.008381,138.605659 L105.008381,128.46828 L129.129983,128.46828 L129.129983,123.225446 L107.804915,123.225446 Z M106.056673,170.06375 L106.056673,160.276836 L122.487534,160.276836 C116.424205,157.952009 110.71466,155.96894 105.357811,154.33416 L108.853207,148.392572 C112.112383,149.091326 118.292189,150.961201 127.381741,153.984783 L123.885257,160.276836 L132.974809,160.276836 C133.674759,155.38338 134.02419,148.864939 134.02419,140.70301 L146.609137,140.70301 C146.609137,148.165096 146.259706,154.683537 145.560845,160.276836 L164.437721,160.276836 L164.437721,170.06375 L143.463172,170.06375 L143.463172,170.412038 C143.226953,170.64931 143.113741,170.885493 143.113741,171.111881 C145.210325,172.046818 145.910275,172.283002 145.210325,171.811724 C154.063658,175.77895 160.356676,178.575055 164.089379,180.20004 L157.796361,189.986953 C150.33422,186.025169 143.342341,182.763227 136.820724,180.20004 C131.926517,183.927818 122.717223,187.656684 109.202637,191.38555 C106.869834,186.259175 104.88755,182.530309 103.260139,180.20004 C118.871308,177.640118 127.844383,174.258452 130.178275,170.06375 L106.056673,170.06375 Z M92.7717758,129.866877 C92.3026025,129.167034 91.4872642,128.005709 90.3246725,126.372017 C86.5930577,120.778718 83.5624813,116.470822 81.2362092,113.438533 L92.0729144,107.146479 C96.4979477,112.276119 100.463605,117.520042 103.959,122.876069 L92.7717758,129.866877 Z M91.7234837,188.938822 L84.0316546,180.20004 C86.3601039,178.102689 87.4083959,175.193389 87.1787078,171.461258 L87.1787078,146.644598 L80.1868286,146.644598 L80.1868286,134.409868 L99.0647936,134.409868 L99.0647936,168.315776 C99.763655,167.853205 100.813036,166.918267 102.210758,165.518582 C103.60957,164.121073 104.657862,163.195931 105.357811,162.723565 C105.357811,167.853205 105.5875,172.510478 106.056673,176.70518 C103.260139,178.575055 99.993343,181.016342 96.2671711,184.045365 C94.170587,186.142716 92.6520332,187.774231 91.7234837,188.938822 L91.7234837,188.938822 Z" id="Fill-7" fill="#FFFFFF"></path>
                    <path d="M226.666208,133.711984 L211.283638,133.711984 L211.283638,146.295003 L225.616827,146.295003 L226.666208,133.711984 Z M245.893604,130.915879 L240.299447,126.720088 L239.252244,146.295003 L251.837191,146.295003 C251.837191,148.164878 251.717448,150.962072 251.48776,154.684408 C251.250452,161.447739 251.017498,166.106101 250.78781,168.664935 C250.78781,177.526706 246.243034,182.064255 237.154571,182.298262 C234.81959,182.53118 229.813261,182.646551 222.121432,182.646551 C221.884124,181.947796 221.652259,180.898576 221.422571,179.501068 C220.486401,175.778732 219.78754,173.096909 219.324898,171.462129 L231.210984,171.462129 C235.636017,171.934495 237.852344,170.063532 237.852344,165.86883 L237.852344,158.528645 L211.283638,158.528645 L211.283638,190.336113 L197.99983,190.336113 L197.99983,158.528645 L170.381744,158.528645 L170.381744,146.295003 L197.99983,146.295003 L197.99983,133.711984 L175.625381,133.711984 L175.625381,121.478343 L197.99983,121.478343 L197.99983,106.796885 L211.283638,106.796885 L211.283638,121.478343 L233.308656,121.478343 L226.316777,116.584886 L234.356948,107.495639 C240.649966,111.69143 247.291326,116.234421 254.284294,121.127877 L245.893604,130.915879 Z" id="Fill-9" fill="#FFFFFF"></path>
                    <path d="M327.697937,176.005555 C327.928714,175.542984 328.161667,174.608047 328.397887,173.20945 C328.627575,172.510696 328.747318,172.047036 328.747318,171.810853 L304.275196,172.858984 L304.275196,173.558827 C304.040065,177.752441 306.023438,179.737687 310.218783,179.501503 L321.755438,179.501503 C325.250834,179.737687 327.228764,178.575273 327.697937,176.005555 L327.697937,176.005555 Z M265.820405,159.227834 L265.121543,149.440921 L291.340818,148.39279 L291.340818,143.847622 L267.918077,144.547464 C267.681858,141.523883 267.218128,138.605876 266.520355,135.808683 C263.023871,131.151409 260.576768,128.004838 259.179045,126.371146 C264.771024,120.079093 268.846627,113.438751 271.414561,106.447943 L283.99842,107.845451 C283.300647,109.480232 282.600697,111.227117 281.901836,113.088285 L301.129231,113.088285 L301.129231,122.876287 L290.991388,122.876287 L294.137352,130.216472 L282.951216,131.963357 C282.714997,130.802032 282.251266,129.290241 281.551317,127.419278 C280.853544,125.323015 280.267894,123.811224 279.804163,122.876287 L277.007629,122.876287 C274.440783,126.60733 271.414561,130.451567 267.918077,134.410086 C280.504113,134.183698 293.202271,133.71242 306.023438,133.012577 C303.227993,131.151409 300.543581,129.404524 297.983267,127.769743 C303.576335,120.778936 307.53546,113.673846 309.869353,106.447943 L322.455388,107.845451 C321.755438,109.480232 321.055488,111.227117 320.356627,113.088285 L342.380557,113.088285 L342.380557,122.876287 L331.194421,122.876287 C331.424109,123.348653 331.77354,124.160601 332.243801,125.323015 C332.941574,126.957795 333.521782,128.119121 333.990955,128.818963 L323.153161,131.265691 C322.21808,128.468498 321.055488,125.672392 319.657766,122.876287 L315.811851,122.876287 C314.177909,126.14367 312.080236,129.516629 309.519922,133.012577 C312.316456,132.786189 316.625012,132.436812 322.455388,131.963357 C328.047368,131.73697 332.243801,131.500786 335.039247,131.265691 L337.138008,141.750271 C333.172351,141.987542 327.349595,142.223726 319.657766,142.450113 C312.665887,142.92248 307.53546,143.149956 304.275196,143.149956 L304.275196,147.692947 L335.739197,146.29435 L336.438058,156.081263 L304.275196,157.47986 L304.275196,162.374405 L343.429937,160.625343 L343.779368,170.762721 L330.84499,171.461476 C332.243801,172.161318 334.341474,172.858984 337.138008,173.558827 C338.765419,174.032282 339.933453,174.381659 340.633403,174.608047 C340.397184,175.305713 340.16423,176.241739 339.933453,177.404152 C339.933453,178.340178 339.585111,179.623404 338.885161,181.248389 C337.250131,186.60877 332.592144,189.171958 324.902492,188.939039 L304.975146,188.939039 C295.649375,189.171958 291.104599,184.744337 291.340818,175.656178 L291.340818,173.558827 L260.227337,174.957424 L259.527387,164.470668 L291.340818,163.072071 L291.340818,158.179703 L265.820405,159.227834 Z" id="Fill-11" fill="#FFFFFF"></path>
                    <path d="M396.568001,187.889711 C386.310415,188.123717 381.299732,183.230261 381.534862,173.209341 L381.534862,137.905925 L414.747105,137.905925 L414.747105,122.176335 L379.787709,122.176335 L379.787709,109.942694 L428.381433,109.942694 L428.381433,150.139566 L394.820848,150.139566 L394.820848,169.714481 C394.584629,174.607938 396.917432,176.828279 401.811639,176.354824 L411.250621,176.354824 C415.909697,176.591007 418.591931,174.493656 419.291881,170.063858 C419.521569,167.739031 419.871,163.894794 420.341262,158.527883 C422.668622,159.227725 425.69811,160.162663 429.429725,161.325077 C431.527397,162.023831 433.03942,162.496197 433.974501,162.723673 C433.505327,167.153471 432.575689,172.046927 431.177967,177.404043 C430.009932,184.860687 424.415776,188.356635 414.397674,187.889711 L396.568001,187.889711 Z M364.056797,129.865897 C361.958036,126.607221 358.11321,121.01501 352.519054,113.088176 L363.356847,106.797211 C367.781881,112.389422 371.860749,117.755245 375.592364,122.876178 L364.056797,129.865897 Z M360.909744,189.288308 L352.868484,179.501394 C355.195845,176.940384 356.364968,173.908095 356.364968,170.412147 L356.364968,146.294241 L349.023658,146.294241 L349.023658,134.409977 L368.951004,134.409977 L368.951004,167.61713 L376.640656,161.325077 C377.804336,166.454716 378.852628,170.762613 379.787709,174.258561 C378.852628,174.957315 377.453817,175.893341 375.592364,177.054666 C371.627795,179.623296 368.713696,181.831664 366.852243,183.695008 C364.519439,185.79236 362.537155,187.656793 360.909744,189.288308 L360.909744,189.288308 Z" id="Fill-13" fill="#FFFFFF"></path>
                    <path d="M95.303352,215.639724 L90.0956375,215.639724 L90.0956375,223.115959 L95.303352,223.115959 C97.7286839,223.115959 99.3201719,221.561721 99.3201719,219.378386 C99.3201719,217.192874 97.7286839,215.639724 95.303352,215.639724 L95.303352,215.639724 Z M99.5988456,239.014251 L94.0732689,227.725343 L90.0956375,227.725343 L90.0956375,239.014251 L84.5700609,239.014251 L84.5700609,210.713615 L95.6625798,210.713615 C101.427642,210.713615 104.846837,214.649278 104.846837,219.378386 C104.846837,223.352142 102.421505,225.815197 99.6772226,226.812173 L105.998543,239.014251 L99.5988456,239.014251 Z" id="Fill-15" fill="#FFFFFF"></path>
                    <polygon id="Fill-17" fill="#FFFFFF" points="110.581637 239.013816 110.581637 210.71318 129.226648 210.71318 129.226648 215.639289 116.107213 215.639289 116.107213 222.280719 127.278109 222.280719 127.278109 227.206828 116.107213 227.206828 116.107213 234.084442 129.226648 234.084442 129.226648 239.013816"></polygon>
                    <path d="M144.149733,219.060137 L140.569429,229.355334 L147.607028,229.355334 L144.149733,219.060137 Z M150.746461,239.013816 L149.075508,234.002812 L139.018218,234.002812 L137.310253,239.013816 L131.544103,239.013816 L141.840878,210.71318 L146.17556,210.71318 L156.510434,239.013816 L150.746461,239.013816 Z" id="Fill-19" fill="#FFFFFF"></path>
                    <path d="M173.857871,217.39031 C172.903196,216.237692 171.630659,215.640159 169.724575,215.640159 L165.548824,215.640159 L165.548824,234.084224 L169.724575,234.084224 C171.630659,234.084224 172.903196,233.488868 173.857871,232.33625 C174.894189,231.063908 175.05312,229.038391 175.05312,224.743556 C175.05312,220.451986 174.894189,218.662652 173.857871,217.39031 M177.716849,236.311095 C175.845598,238.178794 173.18187,239.013598 170.242733,239.013598 L160.023247,239.013598 L160.023247,210.712962 L170.242733,210.712962 C173.18187,210.712962 175.845598,211.548855 177.716849,213.416553 C180.89547,216.596865 180.578697,220.491168 180.578697,224.743556 C180.578697,228.995944 180.89547,233.129695 177.716849,236.311095" id="Fill-21" fill="#FFFFFF"></path>
                    <mask id="mask-2" fill="white">
                        <use xlink:href="#path-1"></use>
                    </mask>
                    <g id="Clip-24"></g>
                    <polygon id="Fill-23" fill="#FFFFFF" mask="url(#mask-2)" points="186.235664 239.01338 191.76124 239.01338 191.76124 210.712745 186.235664 210.712745"></polygon>
                    <polygon id="Fill-25" fill="#FFFFFF" mask="url(#mask-2)" points="215.103318 239.013816 203.891057 221.642915 203.891057 239.013816 198.36548 239.013816 198.36548 210.71318 203.294521 210.71318 214.507871 228.041632 214.507871 210.71318 220.033448 210.71318 220.033448 239.013816"></polygon>
                    <path d="M244.019523,235.990996 C241.993696,238.10032 239.328879,239.252938 236.107803,239.252938 C233.007558,239.252938 230.463572,238.140591 228.475845,236.15208 C225.613997,233.291758 225.694551,229.751186 225.694551,224.863171 C225.694551,219.97298 225.613997,216.435673 228.475845,213.574263 C230.463572,211.587929 232.929181,210.474493 236.107803,210.474493 C240.045157,210.474493 242.232093,211.548746 244.777167,214.092342 L241.039021,217.827739 C239.448621,216.238672 238.295827,215.403867 236.107803,215.403867 C234.600135,215.403867 233.366786,215.999223 232.569953,216.915658 C231.498801,218.105282 231.220128,219.415718 231.220128,224.863171 C231.220128,230.307359 231.498801,231.660243 232.569953,232.850956 C233.366786,233.76739 234.600135,234.323564 236.107803,234.323564 C237.778756,234.323564 238.972917,233.724943 239.886226,232.734497 C240.798447,231.738608 241.119575,230.268177 241.119575,228.877199 L241.119575,227.883488 L236.107803,227.883488 L236.107803,223.270839 L246.644063,223.270839 L246.644063,227.326226 C246.644063,231.420795 246.00725,233.926297 244.019523,235.990996" id="Fill-26" fill="#FFFFFF" mask="url(#mask-2)"></path>
                    <polygon id="Fill-27" fill="#FFFFFF" mask="url(#mask-2)" points="277.949133 239.013816 266.736871 221.642915 266.736871 239.013816 261.211294 239.013816 261.211294 210.71318 266.140335 210.71318 277.353685 228.041632 277.353685 210.71318 282.879262 210.71318 282.879262 239.013816"></polygon>
                    <path d="M302.534356,216.915223 C301.738612,215.998788 300.505264,215.403432 298.996507,215.403432 C297.484484,215.403432 296.211947,215.998788 295.416203,216.915223 C294.345051,218.105935 294.066378,219.416371 294.066378,224.863824 C294.066378,230.308012 294.345051,231.621714 295.416203,232.811338 C296.211947,233.724507 297.484484,234.323128 298.996507,234.323128 C300.505264,234.323128 301.738612,233.724507 302.534356,232.811338 C303.605508,231.621714 303.922282,230.308012 303.922282,224.863824 C303.922282,219.416371 303.605508,218.105935 302.534356,216.915223 M306.629553,236.152733 C304.63856,238.140155 302.213229,239.252502 298.996507,239.252502 C295.775431,239.252502 293.308733,238.140155 291.321006,236.152733 C288.459158,233.291323 288.540801,229.750751 288.540801,224.863824 C288.540801,219.973633 288.459158,216.436326 291.321006,213.574916 C293.308733,211.587493 295.775431,210.474058 298.996507,210.474058 C302.213229,210.474058 304.63856,211.587493 306.629553,213.574916 C309.491401,216.436326 309.451155,219.973633 309.451155,224.863824 C309.451155,229.750751 309.491401,233.291323 306.629553,236.152733" id="Fill-28" fill="#FFFFFF" mask="url(#mask-2)"></path>
                    <polygon id="Fill-29" fill="#FFFFFF" mask="url(#mask-2)" points="325.128587 215.639724 325.128587 239.014251 319.603011 239.014251 319.603011 215.639724 312.206184 215.639724 312.206184 210.713615 332.52106 210.713615 332.52106 215.639724"></polygon>
                    <polygon id="Fill-30" fill="#FFFFFF" mask="url(#mask-2)" points="337.024144 239.013816 337.024144 210.71318 355.669155 210.71318 355.669155 215.639289 342.54972 215.639289 342.54972 222.280719 353.720616 222.280719 353.720616 227.206828 342.54972 227.206828 342.54972 234.084442 355.669155 234.084442 355.669155 239.013816"></polygon>
                    <path d="M368.882859,239.252938 C364.590632,239.252938 361.331456,238.336503 358.546896,235.514276 L362.1272,231.937786 C363.91463,233.724943 366.337785,234.323564 368.963414,234.323564 C372.222589,234.323564 373.970831,233.090404 373.970831,230.825439 C373.970831,229.831728 373.695423,228.995835 373.09671,228.439661 C372.539363,227.925935 371.905816,227.647304 370.59409,227.44595 L367.173806,226.970318 C364.748474,226.611145 362.962132,225.856883 361.690684,224.624811 C360.336504,223.270839 359.660502,221.446677 359.660502,219.05981 C359.660502,214.011801 363.398648,210.474493 369.519672,210.474493 C373.417838,210.474493 376.240498,211.429022 378.664741,213.775617 L375.164992,217.232383 C373.375384,215.522503 371.228726,215.284143 369.360741,215.284143 C366.418339,215.284143 364.989048,216.915658 364.989048,218.863898 C364.989048,219.575713 365.228533,220.332153 365.822892,220.889415 C366.380239,221.407494 367.293549,221.840678 368.446343,222.001762 L371.786073,222.478482 C374.369248,222.837655 376.001013,223.54947 377.191907,224.662905 C378.702841,226.093066 379.379931,228.162119 379.379931,230.666532 C379.379931,236.15208 374.805764,239.252938 368.882859,239.252938" id="Fill-31" fill="#FFFFFF" mask="url(#mask-2)"></path>
                </g>
                <g transform="translate(16.328536, 0.035917)">
                    <mask id="mask-4" fill="white">
                        <use xlink:href="#path-3"></use>
                    </mask>
                    <g id="Clip-33"></g>
                    <polygon id="Fill-32" fill="#4E5C93" mask="url(#mask-4)" points="213.619272 735.088197 4.15680988 607.680916 4.15680988 494.782037 213.619272 622.189318"></polygon>
                    <mask id="mask-6" fill="white">
                        <use xlink:href="#path-5"></use>
                    </mask>
                    <g id="Clip-35"></g>
                    <polygon id="Fill-34" fill="#A3B5D6" mask="url(#mask-6)" points="213.619272 622.096369 4.15680988 494.689087 4.15680988 381.790208 213.619272 509.197489"></polygon>
                    <mask id="mask-8" fill="white">
                        <use xlink:href="#path-7"></use>
                    </mask>
                    <g id="Clip-37"></g>
                    <polygon id="Fill-36" fill="#A3B5D6" mask="url(#mask-8)" points="213.619272 848.650893 4.15680988 721.243612 4.15680988 608.344732 213.619272 735.752014"></polygon>
                    <mask id="mask-10" fill="white">
                        <use xlink:href="#path-9"></use>
                    </mask>
                    <g id="Clip-39"></g>
                    <polygon id="Fill-38" fill="#A3B5D6" mask="url(#mask-10)" points="424.216023 635.352782 214.753561 507.9455 214.753561 395.047709 424.216023 522.453903"></polygon>
                    <mask id="mask-12" fill="white">
                        <use xlink:href="#path-11"></use>
                    </mask>
                    <g id="Clip-41"></g>
                    <polygon id="Fill-40" fill="#4E5C93" mask="url(#mask-12)" points="424.216023 748.34461 214.753561 620.937329 214.753561 508.039538 424.216023 635.445731"></polygon>
                    <mask id="mask-14" fill="white">
                        <use xlink:href="#path-13"></use>
                    </mask>
                    <g id="Clip-43"></g>
                    <polygon id="Fill-42" fill="#A3B5D6" mask="url(#mask-14)" points="424.216023 861.907306 214.753561 734.500025 214.753561 621.602234 424.216023 749.008427"></polygon>
                    <mask id="mask-16" fill="white">
                        <use xlink:href="#path-15"></use>
                    </mask>
                    <g id="Clip-45"></g>
                    <polygon id="Fill-44" fill="#4E5C93" mask="url(#mask-16)" points="633.686867 761.601024 424.224405 634.193742 424.224405 521.295951 633.686867 648.702144"></polygon>
                    <mask id="mask-18" fill="white">
                        <use xlink:href="#path-17"></use>
                    </mask>
                    <g id="Clip-47"></g>
                    <polygon id="Fill-46" fill="#A3B5D6" mask="url(#mask-18)" points="633.686867 875.163719 424.224405 747.756438 424.224405 634.858647 633.686867 762.26484"></polygon>
                    <polygon id="Fill-48" fill="#A3B5D6" mask="url(#mask-18)" points="634.257713 648.159576 423.423654 520.752294 423.423654 407.854504 634.257713 535.260697"></polygon>
                </g>
            </g>
        </g>
    </g>
</svg>