<?xml version="1.0" encoding="UTF-8"?>
<svg width="1024px" height="1024px" viewBox="0 0 1024 1024" version="1.1" xmlns="http://www.w3.org/2000/svg" xmlns:xlink="http://www.w3.org/1999/xlink">
    <!-- Generator: Sketch 61.2 (89653) - https://sketch.com -->
    <title>3.通用组件/灰色版/邮件详情</title>
    <desc>Created with Sketch.</desc>
    <defs>
        <polygon id="path-1" points="0 0.0116425114 670.098641 0.0116425114 670.098641 762.396716 0 762.396716"></polygon>
    </defs>
    <g id="3.通用组件/灰色版/邮件详情" stroke="none" stroke-width="1" fill="none" fill-rule="evenodd">
        <g id="编组-2" transform="translate(177.000000, 95.000000)">
            <g id="编组">
                <path d="M566.665255,71.0024193 L554.152372,71.0024193 L554.152372,22.7357592 C554.152372,17.0985303 548.605279,12.512883 541.784081,12.512883 C534.965701,12.512883 529.418607,17.0985303 529.418607,22.7357592 L529.418607,71.0024193 L516.905724,71.0024193 L516.905724,22.7357592 C516.905724,10.1994034 528.066574,-3.55271368e-14 541.784081,-3.55271368e-14 C555.502528,-3.55271368e-14 566.665255,10.1994034 566.665255,22.7357592 L566.665255,71.0024193 Z" id="Fill-1" fill="#4E5C93"></path>
                <g transform="translate(0.000000, 68.816632)">
                    <mask id="mask-2" fill="white">
                        <use xlink:href="#path-1"></use>
                    </mask>
                    <g id="Clip-4"></g>
                    <path d="M640.05345,762.397091 L30.045003,762.397091 C13.4516075,762.397091 -0.000187782442,748.945296 -0.000187782442,732.351901 L-0.000187782442,30.0568333 C-0.000187782442,13.4624989 13.4516075,0.0116425114 30.045003,0.0116425114 L640.05345,0.0116425114 C656.646846,0.0116425114 670.098641,13.4624989 670.098641,30.0568333 L670.098641,732.351901 C670.098641,748.945296 656.646846,762.397091 640.05345,762.397091" id="Fill-3" fill="#E4EBF7" mask="url(#mask-2)"></path>
                </g>
                <path d="M551.760869,124.463987 C543.543509,124.463987 536.857515,118.223976 536.857515,110.558697 L536.857515,42.0350058 C536.857515,38.5807478 539.657351,35.7780948 543.114426,35.7780948 C546.570562,35.7780948 549.370398,38.5807478 549.370398,42.0350058 L549.370398,110.558697 C549.370398,111.112655 550.323394,111.951104 551.760869,111.951104 C553.199282,111.951104 554.152278,111.112655 554.152278,110.558697 L554.152278,71.0023254 C554.152278,67.5480673 556.952114,64.7463533 560.40825,64.7463533 C563.865325,64.7463533 566.665161,67.5480673 566.665161,71.0023254 L566.665161,110.558697 C566.665161,118.223976 559.979167,124.463987 551.760869,124.463987" id="Fill-5" fill="#4E5C93"></path>
                <path d="M149.956017,607.776465 L75.9284222,607.776465 C74.4177124,607.776465 73.192432,606.552123 73.192432,605.041414 L73.192432,531.01288 C73.192432,529.50311 74.4177124,528.277829 75.9284222,528.277829 L149.956017,528.277829 C151.466726,528.277829 152.692007,529.50311 152.692007,531.01288 L152.692007,605.041414 C152.692007,606.552123 151.466726,607.776465 149.956017,607.776465" id="Fill-7" fill="#A3B5D6"></path>
                <path d="M101.984363,589.889436 C101.829442,589.889436 101.674522,589.881925 101.518662,589.862208 C100.214513,589.707287 99.072796,588.923296 98.463442,587.761861 L89.0733809,569.875584 C88.0527834,567.930157 88.8020353,565.527481 90.7465225,564.506884 C92.698521,563.489103 95.0983806,564.239294 96.1152225,566.179086 L102.811544,578.935147 L130.294444,547.523839 C131.746002,545.861965 134.253837,545.699533 135.903505,547.147336 C137.557869,548.595138 137.724056,551.10579 136.280009,552.756397 L104.977615,588.53083 C104.217096,589.400263 103.122324,589.889436 101.984363,589.889436" id="Fill-9" fill="#FFFFFF"></path>
                <path d="M512.87028,551.133581 L187.051781,551.133581 C185.918514,551.133581 185.001197,550.214386 185.001197,549.081119 L185.001197,541.259981 C185.001197,540.126713 185.918514,539.208457 187.051781,539.208457 L512.87028,539.208457 C514.003547,539.208457 514.922742,540.126713 514.922742,541.259981 L514.922742,549.081119 C514.922742,550.214386 514.003547,551.133581 512.87028,551.133581" id="Fill-11" fill="#A3B5D6"></path>
                <path d="M512.87028,590.883369 L187.051781,590.883369 C185.918514,590.883369 185.001197,589.964174 185.001197,588.830907 L185.001197,581.009768 C185.001197,579.876501 185.918514,578.958245 187.051781,578.958245 L512.87028,578.958245 C514.003547,578.958245 514.922742,579.876501 514.922742,581.009768 L514.922742,588.830907 C514.922742,589.964174 514.003547,590.883369 512.87028,590.883369" id="Fill-13" fill="#A3B5D6"></path>
                <path d="M149.956017,746.900439 L75.9284222,746.900439 C74.4177124,746.900439 73.192432,745.675159 73.192432,744.164449 L73.192432,670.136855 C73.192432,668.626145 74.4177124,667.400864 75.9284222,667.400864 L149.956017,667.400864 C151.466726,667.400864 152.692007,668.626145 152.692007,670.136855 L152.692007,744.164449 C152.692007,745.675159 151.466726,746.900439 149.956017,746.900439" id="Fill-15" fill="#A3B5D6"></path>
                <path d="M101.984363,729.013504 C101.829442,729.013504 101.674522,729.005054 101.518662,728.986276 C100.214513,728.831355 99.072796,728.046425 98.463442,726.885929 L89.0733809,708.998713 C88.0527834,707.053287 88.8020353,704.651549 90.7465225,703.630013 C92.698521,702.613171 95.0983806,703.362423 96.1152225,705.303154 L102.811544,718.058277 L130.294444,686.646969 C131.746002,684.985094 134.253837,684.822662 135.903505,686.271404 C137.557869,687.719206 137.724056,690.229858 136.280009,691.879526 L104.977615,727.654898 C104.217096,728.524331 103.122324,729.013504 101.984363,729.013504" id="Fill-17" fill="#FFFFFF"></path>
                <path d="M512.87028,690.256711 L187.051781,690.256711 C185.918514,690.256711 185.001197,689.338454 185.001197,688.205187 L185.001197,680.384049 C185.001197,679.250782 185.918514,678.332525 187.051781,678.332525 L512.87028,678.332525 C514.003547,678.332525 514.922742,679.250782 514.922742,680.384049 L514.922742,688.205187 C514.922742,689.338454 514.003547,690.256711 512.87028,690.256711" id="Fill-19" fill="#A3B5D6"></path>
                <path d="M291.154142,730.006498 L186.171551,730.006498 C185.52464,730.006498 185.000727,729.482585 185.000727,728.836613 L185.000727,719.252197 C185.000727,718.605287 185.52464,718.082313 186.171551,718.082313 L291.154142,718.082313 C291.800113,718.082313 292.324965,718.605287 292.324965,719.252197 L292.324965,728.836613 C292.324965,729.482585 291.800113,730.006498 291.154142,730.006498" id="Fill-21" fill="#A3B5D6"></path>
                <path d="M405.913156,630.633062 L186.686544,630.633062 C185.755143,630.633062 185.001197,629.878177 185.001197,628.947715 L185.001197,620.393286 C185.001197,619.462824 185.755143,618.707938 186.686544,618.707938 L405.913156,618.707938 C406.843618,618.707938 407.598504,619.462824 407.598504,620.393286 L407.598504,628.947715 C407.598504,629.878177 406.843618,630.633062 405.913156,630.633062" id="Fill-23" fill="#A3B5D6"></path>
                <path d="M572.334407,455.553445 L97.7649852,455.553445 C85.3197038,455.553445 75.2310921,445.463894 75.2310921,433.019552 L75.2310921,163.99773 C75.2310921,151.552449 85.3197038,141.463837 97.7649852,141.463837 L572.334407,141.463837 C584.779688,141.463837 594.8683,151.552449 594.8683,163.99773 L594.8683,433.019552 C594.8683,445.463894 584.779688,455.553445 572.334407,455.553445" id="Fill-25" fill="#FFFFFF"></path>
                <path d="M374.312939,383.622629 L295.785138,383.622629 C294.81712,383.622629 294.03125,382.837699 294.03125,381.867802 L294.03125,374.754603 C294.03125,373.784707 294.81712,372.999776 295.785138,372.999776 L374.312939,372.999776 C375.281896,372.999776 376.067766,373.784707 376.067766,374.754603 L376.067766,381.867802 C376.067766,382.837699 375.281896,383.622629 374.312939,383.622629" id="Fill-27" fill="#A3B5D6"></path>
                <path d="M374.312939,410.749305 L295.785138,410.749305 C294.81712,410.749305 294.03125,409.963436 294.03125,408.994478 L294.03125,401.880341 C294.03125,400.911383 294.81712,400.126453 295.785138,400.126453 L374.312939,400.126453 C375.281896,400.126453 376.067766,400.911383 376.067766,401.880341 L376.067766,408.994478 C376.067766,409.963436 375.281896,410.749305 374.312939,410.749305" id="Fill-29" fill="#A3B5D6"></path>
                <path d="M414.279991,269.949091 C414.279991,313.707095 378.807887,349.180137 335.048945,349.180137 C291.29188,349.180137 255.818838,313.707095 255.818838,269.949091 C255.818838,226.191088 291.29188,190.718045 335.048945,190.718045 C378.807887,190.718045 414.279991,226.191088 414.279991,269.949091" id="Fill-31" fill="#4E5C93"></path>
                <path d="M330.421516,265.955522 C328.646033,268.363832 327.7597,271.025648 327.7597,274.007633 C327.7597,275.526793 328.075174,276.669449 328.709879,277.429968 C329.344584,278.252455 330.294763,278.696561 331.689048,278.696561 C332.893672,278.696561 334.097357,278.252455 335.239075,277.365183 C336.506606,276.352097 337.393878,275.020719 337.90183,273.434897 L339.169361,268.871783 C339.676374,267.033393 339.930819,265.893554 339.930819,265.511416 C339.930819,264.560298 339.550559,263.801657 338.915855,263.228921 C338.282089,262.597033 337.52157,262.341649 336.698144,262.341649 C334.287957,262.341649 332.196999,263.546273 330.421516,265.955522 M352.100999,252.579779 C355.460427,256.131683 357.172064,260.503259 357.172064,265.702016 C357.172064,270.139315 355.713933,274.2602 352.925364,278.063734 C350.072949,281.80436 346.839335,283.704718 343.163494,283.704718 C340.4998,283.704718 338.978762,282.37428 338.535595,279.774432 C336.698144,282.436248 334.225988,283.769503 331.182035,283.769503 C328.328681,283.769503 326.047124,282.817446 324.27258,280.917088 C322.498036,279.013913 321.610764,276.604664 321.610764,273.752249 C321.610764,269.315889 322.941202,265.449448 325.730711,262.024296 C328.455434,258.540932 331.752894,256.827417 335.556427,256.827417 C338.282089,256.827417 340.182447,258.285548 341.324165,261.201809 L342.212376,258.032042 L347.85336,258.032042 L343.543753,273.499682 C342.909048,275.782177 342.591696,277.177401 342.591696,277.74732 C342.591696,278.569807 343.035802,279.013913 343.98692,279.013913 C345.761464,279.013913 347.536947,277.809289 349.311491,275.526793 C351.34048,272.864977 352.353566,269.568456 352.353566,265.763984 C352.353566,261.836514 350.960221,258.476147 348.170712,255.749546 C345.064791,252.706532 340.880998,251.24934 335.556427,251.24934 C329.851596,251.24934 325.35139,253.023884 321.926238,256.636818 C318.504842,260.188723 316.856112,264.815683 316.856112,270.455728 C316.856112,276.669449 318.630656,281.422223 322.243591,284.59199 C325.540111,287.509191 330.294763,288.966382 336.443699,288.966382 C340.563646,288.966382 344.050766,288.26971 346.966088,287.001239 C349.628843,285.734647 351.721678,284.022071 353.36853,281.739575 L359.327806,281.739575 C357.109157,285.734647 353.812636,288.775783 349.501151,290.804773 C345.572742,292.579317 341.261258,293.466589 336.443699,293.466589 C328.328681,293.466589 321.990084,291.375631 317.489878,287.191838 C312.988733,283.008984 310.770083,277.303215 310.770083,270.203161 C310.770083,263.611058 312.925826,258.09401 317.299279,253.65765 C321.990084,248.840091 328.203805,246.431781 335.936686,246.431781 C342.783234,246.431781 348.170712,248.460771 352.100999,252.579779" id="Fill-33" fill="#FFFFFF"></path>
            </g>
        </g>
    </g>
</svg>