<?xml version="1.0" encoding="UTF-8"?>
<svg width="1024px" height="1024px" viewBox="0 0 1024 1024" version="1.1" xmlns="http://www.w3.org/2000/svg" xmlns:xlink="http://www.w3.org/1999/xlink">
    <!-- Generator: Sketch 61.2 (89653) - https://sketch.com -->
    <title>3.通用组件/灰色版/锁01</title>
    <desc>Created with Sketch.</desc>
    <defs>
        <polygon id="path-1" points="0.000359 7.17e-05 430.8 7.17e-05 430.8 286.8 0.000359 286.8"></polygon>
    </defs>
    <g id="3.通用组件/灰色版/锁01" stroke="none" stroke-width="1" fill="none" fill-rule="evenodd">
        <g id="编组" transform="translate(80.000000, 80.000000)">
            <g id="分组" transform="translate(0.000000, 0.000000)" fill="#A3B5D6">
                <g id="Fill-1">
                    <path d="M9.64285715e-05,431.999904 C9.64285715e-05,670.586368 193.412668,863.999904 432.000096,863.999904 C670.586561,863.999904 864.000096,670.586368 864.000096,431.999904 C864.000096,193.412475 670.586561,-9.64285715e-05 432.000096,-9.64285715e-05 C193.412668,-9.64285715e-05 9.64285715e-05,193.412475 9.64285715e-05,431.999904 Z"></path>
                </g>
            </g>
            <g id="分组复制" transform="translate(217.200000, 168.000000)">
                <g id="分组" transform="translate(76.800000, 0.000000)" fill="#FFFFFF">
                    <path d="M45.9280531,138.071343 C45.9280531,87.2391184 87.1181781,46.0308756 137.928053,46.0308756 C188.737928,46.0308756 229.928053,87.2391184 229.928053,138.071343 L229.928053,184.191526 L275.928053,184.191526 L275.928053,138.099386 C275.928053,61.8898795 214.175209,0.110592374 138.000647,0.110592374 L137.999928,0.110592374 C61.8246469,0.110592374 0.072521875,61.8898795 0.072521875,138.099386 L0.072521875,184.191526 L45.9280531,184.191526 L45.9280531,138.071343 Z" id="Fill-1"></path>
                </g>
                <g id="分组" transform="translate(0.000000, 176.400000)">
                    <mask id="mask-2" fill="white">
                        <use xlink:href="#path-1"></use>
                    </mask>
                    <g id="Clip-4"></g>
                    <path d="M413.568359,286.800072 L17.232359,286.800072 C7.754041,286.800072 0.000359,279.056472 0.000359,269.592072 L0.000359,17.2080717 C0.000359,7.7436717 7.754041,7.17e-05 17.232359,7.17e-05 L413.568359,7.17e-05 C423.045241,7.17e-05 430.800359,7.7436717 430.800359,17.2080717 L430.800359,269.592072 C430.800359,279.056472 423.045241,286.800072 413.568359,286.800072" id="Fill-3" fill="#FFFFFF" mask="url(#mask-2)"></path>
                </g>
                <path d="M216,255.6 C225.188188,255.6 232.637838,262.845058 232.637838,271.783238 L232.637619,324.992411 C242.080122,330.654097 248.4,340.988861 248.4,352.8 C248.4,370.694408 233.893597,385.2 215.999478,385.2 C198.106403,385.2 183.6,370.694408 183.6,352.8 C183.6,340.988861 189.919878,330.654097 199.362081,324.992411 L199.362162,271.783238 C199.362162,262.950213 206.637557,255.770706 215.676442,255.602999 L216,255.6 Z" id="形状结合" fill="#A3B5D6"></path>
            </g>
        </g>
    </g>
</svg>