<svg xmlns="http://www.w3.org/2000/svg" xmlns:xlink="http://www.w3.org/1999/xlink" width="1024" height="1024" version="1.1" viewBox="0 0 1024 1024"><title>3.通用组件/灰色版/长脚桌子</title><desc>Created with Sketch.</desc><defs><polygon id="path-1" points="0 .443 72.27 .443 72.27 483.57 0 483.57"/><polygon id="path-3" points=".21 .443 72.48 .443 72.48 483.57 .21 483.57"/></defs><g id="3.通用组件/灰色版/长脚桌子" fill="none" fill-rule="evenodd" stroke="none" stroke-width="1"><g id="编组" transform="translate(95.000000, 278.232345)"><mask id="mask-2" fill="#fff"><use xlink:href="#path-1"/></mask><path id="Fill-1" fill="#A3B5D6" d="M9.7208505,483.569879 C4.0540905,483.569879 -0.4110345,478.742684 0.0300105,473.094149 L36.9198405,0.4433535 L72.2702655,0.4433535 L20.1953655,474.910574 C19.6534755,479.838614 15.4908855,483.569879 10.5324705,483.569879" mask="url(#mask-2)"/></g><g id="编组" transform="translate(856.400000, 278.232345)"><mask id="mask-4" fill="#fff"><use xlink:href="#path-3"/></mask><path id="Fill-3" fill="#A3B5D6" d="M62.759529,483.569879 C68.426289,483.569879 72.891414,478.742684 72.450369,473.094149 L35.560539,0.4433535 L0.210114,0.4433535 L52.285014,474.910574 C52.825689,479.838614 56.989494,483.569879 61.947909,483.569879" mask="url(#mask-4)"/></g><path id="Fill-5" fill="#A3B5D6" d="M912.868502,278.675941 L111.012242,278.675941 C108.101102,278.675941 105.377072,277.242241 103.729532,274.845046 C99.698162,268.981456 103.895987,261.000121 111.012242,261.000121 L912.868502,261.000121 C919.983542,261.000121 924.182582,268.981456 920.151212,274.845046 C918.502457,277.242241 915.779642,278.675941 912.868502,278.675941"/><polygon id="Fill-7" fill="#4E5C93" points="893.138 290.459 130.742 290.459 131.919 278.676 891.96 278.676"/></g></svg>