<?xml version="1.0" encoding="UTF-8"?>
<svg width="1024px" height="1024px" viewBox="0 0 1024 1024" version="1.1" xmlns="http://www.w3.org/2000/svg" xmlns:xlink="http://www.w3.org/1999/xlink">
    <!-- Generator: Sketch 61.2 (89653) - https://sketch.com -->
    <title>3.通用组件/灰色版/雷达</title>
    <desc>Created with Sketch.</desc>
    <defs>
        <polygon id="path-1" points="0 0.00011125 890 0.00011125 890 890 0 890"></polygon>
    </defs>
    <g id="3.通用组件/灰色版/雷达" stroke="none" stroke-width="1" fill="none" fill-rule="evenodd">
        <g id="分组" transform="translate(67.000000, 67.000000)">
            <g>
                <mask id="mask-2" fill="white">
                    <use xlink:href="#path-1"></use>
                </mask>
                <g id="Clip-2"></g>
                <path d="M890,445.000111 C890,690.766936 690.766825,890.000111 445,890.000111 C199.233175,890.000111 0,690.766936 0,445.000111 C0,199.233286 199.233175,0.00011125 445,0.00011125 C690.766825,0.00011125 890,199.233286 890,445.000111" id="Fill-1" fill="#E4EBF7" mask="url(#mask-2)"></path>
            </g>
            <path d="M754.825799,444.449313 C754.825799,616.486312 615.362799,755.949313 443.325799,755.949313 C271.288799,755.949313 131.825799,616.486312 131.825799,444.449313 C131.825799,272.412312 271.288799,132.949312 443.325799,132.949312 C615.362799,132.949312 754.825799,272.412312 754.825799,444.449313" id="Fill-3" fill="#A3B5D6"></path>
            <path d="M611.875,445.000111 C611.875,537.162949 537.162838,611.875111 445,611.875111 C352.837162,611.875111 278.125,537.162949 278.125,445.000111 C278.125,352.837274 352.837162,278.125111 445,278.125111 C537.162838,278.125111 611.875,352.837274 611.875,445.000111" id="Fill-5" fill="#253368"></path>
            <line x1="445" y1="445.000111" x2="776.189025" y2="160.601724" id="Stroke-7" stroke="#FFFFFF" stroke-width="12" stroke-linecap="round" stroke-linejoin="round"></line>
            <path d="M489.5,445.000111 C489.5,469.575978 469.575867,489.500111 445,489.500111 C420.424133,489.500111 400.5,469.575978 400.5,445.000111 C400.5,420.422761 420.424133,400.500111 445,400.500111 C469.575867,400.500111 489.5,420.422761 489.5,445.000111" id="Fill-9" fill="#FFFFFF"></path>
            <path d="M714.340144,242.497076 C714.340144,260.930089 699.397044,275.872076 680.965144,275.872076 C662.533244,275.872076 647.590144,260.930089 647.590144,242.497076 C647.590144,224.064064 662.533244,209.122076 680.965144,209.122076 C699.397044,209.122076 714.340144,224.064064 714.340144,242.497076" id="Fill-11" fill="#FFFFFF"></path>
            <path d="M610.7625,341.5375 C610.7625,363.042681 593.328883,380.475 571.825,380.475 C550.321117,380.475 532.8875,363.042681 532.8875,341.5375 C532.8875,320.033617 550.321117,302.6 571.825,302.6 C593.328883,302.6 610.7625,320.033617 610.7625,341.5375" id="Fill-13" fill="#FFFFFF"></path>
        </g>
    </g>
</svg>