<?xml version="1.0" encoding="UTF-8"?>
<svg width="1024px" height="1024px" viewBox="0 0 1024 1024" version="1.1" xmlns="http://www.w3.org/2000/svg" xmlns:xlink="http://www.w3.org/1999/xlink">
    <!-- Generator: Sketch 61.2 (89653) - https://sketch.com -->
    <title>3.通用组件/灰色版/项目文档</title>
    <desc>Created with Sketch.</desc>
    <defs>
        <polygon id="path-1" points="0 0.093996638 634.890591 0.093996638 634.890591 835.89351 0 835.89351"></polygon>
    </defs>
    <g id="3.通用组件/灰色版/项目文档" stroke="none" stroke-width="1" fill="none" fill-rule="evenodd">
        <g id="编组" transform="translate(188.000000, 92.000000)">
            <g transform="translate(0.000000, 0.980695)">
                <mask id="mask-2" fill="white">
                    <use xlink:href="#path-1"></use>
                </mask>
                <g id="Clip-2"></g>
                <path d="M529.825501,835.89351 L0.0488739646,835.347907 L-0.000428718987,0.116504385 L544.527347,0.093996638 C594.424878,0.093996638 634.876658,40.5414895 634.87773,90.4390206 L634.890591,730.933398 C634.890591,788.943364 587.834395,835.953473 529.825501,835.89351" id="Fill-1" fill="#253368" mask="url(#mask-2)"></path>
            </g>
            <path d="M612.787234,836.354968 L25.1614102,836.354968 L25.1614102,1.08069339 L612.787234,1.08069339 C631.72911,1.08069339 647.084753,16.4363357 647.084753,35.3782124 L647.084753,802.057449 C647.084753,820.999326 631.72911,836.354968 612.787234,836.354968" id="Fill-3" fill="#CCD7EE"></path>
            <polygon id="Fill-7" fill="#4E5C93" points="25.3259311 375.731143 25.1951718 545.195184 336.663803 836.981327 335.991786 673.362869"></polygon>
            <polygon id="Fill-9" fill="#A3B5D6" points="647.174677 374.806932 646.892794 541.112386 336.667447 836.971359 335.997574 673.401132"></polygon>
            <path d="M381.819059,468.838296 C381.819059,494.285983 361.190173,514.913797 335.743558,514.913797 C310.296943,514.913797 289.666985,494.285983 289.666985,468.838296 C289.666985,443.39168 310.296943,422.762794 335.743558,422.762794 C361.190173,422.762794 381.819059,443.39168 381.819059,468.838296" id="Fill-15" fill="#FFFFFF"></path>
            <path d="M118.42794,119.309922 L118.42794,108.295059 L170.747733,108.295059 L170.747733,119.309922 L149.407174,119.309922 L148.029914,126.538124 L168.338332,126.538124 L168.338332,166.12282 L156.980495,166.12282 L156.980495,137.20894 L131.164109,137.20894 L131.164109,166.810914 L119.460081,166.810914 L119.460081,126.538124 L134.949698,126.538124 L136.326957,119.309922 L118.42794,119.309922 Z M164.552744,187.464451 C157.668589,181.956484 150.783362,177.370263 143.900278,173.696141 C139.306554,179.433473 130.701093,184.252274 118.083893,188.152545 C115.784887,183.792473 113.835288,180.350931 112.231879,177.826848 C129.898316,173.472135 138.392311,166.466867 137.703145,156.829264 L138.048264,140.650481 L150.095268,140.650481 L149.407174,156.829264 C149.407174,159.127198 149.063127,161.425132 148.373961,163.713419 C157.324542,168.765872 165.352305,173.584674 172.470112,178.170895 L164.552744,187.464451 Z M88.4808467,122.751464 L88.4808467,111.048507 L116.362586,111.048507 L116.362586,122.751464 L108.44629,122.751464 L108.44629,159.926759 L116.706633,158.206524 C116.706633,163.945999 116.8181,168.188174 117.05068,170.942693 C112.458028,172.095947 104.081931,174.272768 91.9234601,177.481729 C90.7723497,177.71431 89.8581064,177.826848 89.1689406,177.826848 L87.4487057,164.746632 C90.2021534,164.057466 93.1817504,163.369372 96.3971428,162.681278 L96.3971428,122.751464 L88.4808467,122.751464 Z" id="Fill-17" fill="#4E5C93"></path>
            <path d="M196.908487,171.630144 L238.903656,171.630144 L238.903656,161.992541 L196.908487,161.992541 L196.908487,171.630144 Z M196.908487,151.321726 L238.903656,151.321726 L238.903656,141.684123 L196.908487,141.684123 L196.908487,151.321726 Z M196.908487,131.013307 L238.903656,131.013307 L238.903656,121.031657 L196.908487,121.031657 L196.908487,131.013307 Z M183.484224,187.808927 L183.484224,109.670604 L251.983872,109.670604 L251.983872,187.808927 L238.903656,187.808927 L238.903656,182.30096 L196.908487,182.30096 L196.908487,187.808927 L183.484224,187.808927 Z" id="Fill-19" fill="#4E5C93"></path>
            <path d="M305.681675,154.419649 C312.79198,147.535494 317.496099,139.395192 319.794033,129.980523 L291.568246,129.980523 C294.321694,139.618126 299.02367,147.768074 305.681675,154.419649 L305.681675,154.419649 Z M264.71972,129.980523 L264.71972,117.932448 L300.173708,117.932448 L297.420261,106.229491 L312.221784,105.541397 C312.447933,106.918657 312.909878,108.982939 313.599043,111.737458 C314.054557,114.490906 314.398604,116.55626 314.631184,117.932448 L346.987678,117.932448 L346.987678,129.980523 L333.907462,129.980523 C330.464848,143.059668 324.496008,154.075602 316.008444,163.025111 C324.269859,168.309072 334.821705,172.2072 347.676844,174.728067 C346.524662,176.570487 344.804427,179.202822 342.512924,182.645435 C341.135664,184.481424 340.21499,185.857612 339.759476,186.775071 C326.216243,182.8748 314.858405,177.826634 305.681675,171.630573 C298.335576,176.914534 287.093492,182.301388 271.947922,187.808284 C269.65106,183.678648 267.011223,179.776233 264.031626,176.105327 C277.111842,172.2072 287.663688,167.732445 295.700026,162.681064 C287.438611,153.964135 281.468699,143.059668 277.799936,129.980523 L264.71972,129.980523 Z" id="Fill-21" fill="#4E5C93"></path>
            <path d="M424.779917,131.012771 L415.142314,125.160757 C415.830408,124.249729 416.629969,123.095403 417.551715,121.719215 C421.220478,116.67748 423.859243,112.769707 425.469083,110.015187 L435.106686,115.179107 C432.808752,119.086881 429.366139,124.361196 424.779917,131.012771 L424.779917,131.012771 Z M381.408561,184.022802 L381.408561,173.696034 L420.64921,173.696034 L420.64921,164.401406 L384.851174,164.401406 L384.851174,153.73059 L420.64921,153.73059 L420.64921,144.092988 L383.474986,144.092988 L383.474986,133.422172 L401.029957,133.422172 L401.029957,105.885551 L413.766127,105.885551 L413.766127,133.422172 L433.041332,133.422172 L433.041332,187.808391 L420.64921,187.808391 L420.64921,184.022802 L381.408561,184.022802 Z M388.981882,130.668724 C386.916528,126.315083 383.9305,120.918583 380.032373,114.491013 L389.669976,110.015187 C392.649573,114.378475 395.866037,119.429856 399.307579,125.160757 L388.981882,130.668724 Z M353.527893,132.045984 L353.527893,120.686003 L362.133355,120.686003 L362.133355,105.540433 L373.836312,105.540433 L373.836312,120.686003 L381.752608,120.686003 L381.752608,132.045984 L373.836312,132.045984 L373.836312,139.274186 C375.213572,140.19486 377.159956,141.57212 379.688326,143.404894 C382.441774,145.470247 384.388158,146.96862 385.54034,147.879648 L378.99916,158.206417 L373.836312,153.043568 L373.836312,187.808391 L362.133355,187.808391 L362.133355,155.10785 C360.068002,160.391812 357.424949,165.434619 354.215987,170.25342 C353.065949,162.458237 352.262101,156.71769 351.806587,153.043568 C355.937294,147.312667 359.260938,140.307399 361.789308,132.045984 L353.527893,132.045984 Z" id="Fill-22" fill="#4E5C93"></path>
            <path d="M151.673489,207.639002 C154.841723,207.639002 157.228616,208.735451 159.188933,210.693625 C161.850147,213.353826 161.962646,216.609626 161.966932,221.019922 L161.966932,222.600207 C161.962646,227.00801 161.850147,230.265778 159.188933,232.926991 C157.228616,234.883022 154.841723,235.979471 151.673489,235.979471 C148.502041,235.979471 146.073348,234.883022 144.116246,232.926991 C141.533303,230.344049 141.385603,227.199127 141.378924,222.98616 L141.378924,220.63376 C141.385603,216.418624 141.533303,213.275585 144.116246,210.693625 C146.073348,208.735451 148.502041,207.639002 151.673489,207.639002 Z M180.103453,207.875226 L180.103453,226.583451 C180.103453,232.729138 175.443278,235.979899 170.277214,235.979899 C167.264391,235.979899 165.190463,235.196415 163.115463,233.121416 L166.716703,229.560904 C167.615941,230.460142 168.475523,231.125729 170.277214,231.125729 C172.937415,231.125729 174.663009,229.560904 174.663009,226.348727 L174.663009,207.875226 L180.103453,207.875226 Z M475.795012,207.639431 C479.632047,207.639431 482.411217,208.580469 484.79811,210.890192 L481.352282,214.294221 C479.590246,212.611499 477.476662,212.375704 475.637457,212.375704 C472.740389,212.375704 471.333119,213.982328 471.333119,215.900846 C471.333119,216.601801 471.568914,217.347772 472.154116,217.895461 C472.702876,218.406708 473.602114,218.833283 474.737148,218.99191 L478.025422,219.460285 C480.568798,219.813978 482.175422,220.514934 483.347968,221.612454 C484.835623,223.020796 485.503353,225.058283 485.503353,227.523417 C485.503353,232.926348 480.998588,235.979899 475.166938,235.979899 C470.940841,235.979899 467.731879,235.077446 464.990221,232.298275 L468.515363,228.776349 C470.275255,230.53624 472.661076,231.125729 475.246251,231.125729 C478.455213,231.125729 480.177591,229.911382 480.177591,227.680972 C480.177591,226.70242 479.906427,225.87928 479.315866,225.33052 C478.768178,224.824631 478.14332,224.550251 476.852876,224.35304 L473.484216,223.884665 C471.096252,223.530972 469.337432,222.788216 468.085572,221.57387 C466.752256,220.241625 466.085598,218.444221 466.085598,216.094841 C466.085598,211.123844 469.767223,207.639431 475.795012,207.639431 Z M322.974806,207.639431 C326.538533,207.639431 328.73143,208.892362 330.726045,210.849464 L327.124806,214.450704 C325.910459,213.235285 324.931908,212.493601 322.974806,212.493601 C321.489295,212.493601 320.314605,213.042362 319.533264,213.940528 C318.499443,215.089568 318.177046,216.384987 318.162925,221.450122 L318.162435,221.809665 C318.162435,227.169724 318.4754,228.501968 319.533264,229.675587 C320.314605,230.57804 321.489295,231.125729 322.974806,231.125729 C324.931908,231.125729 325.910459,230.382973 327.124806,229.169698 L330.726045,232.767722 C328.73143,234.726968 326.538533,235.979899 322.974806,235.979899 C319.921255,235.979899 317.416464,234.883451 315.459362,232.926348 C312.87642,230.343406 312.72872,227.199385 312.72204,222.985742 L312.72204,220.633117 C312.72872,216.41798 312.87642,213.274942 315.459362,210.692982 C317.416464,208.73588 319.921255,207.639431 322.974806,207.639431 Z M340.680579,207.875226 L340.680579,225.99825 C340.680579,229.207211 342.560511,231.125729 345.496165,231.125729 C348.430746,231.125729 350.349264,229.207211 350.349264,225.99825 L350.349264,207.875226 L355.752195,207.875226 L355.752195,226.19546 C355.752195,232.10428 351.209917,235.979899 345.496165,235.979899 C339.781341,235.979899 335.240135,232.10428 335.240135,226.19546 L335.240135,207.875226 L340.680579,207.875226 Z M219.266933,207.639431 C222.830659,207.639431 225.023557,208.892362 227.018172,210.849464 L223.416933,214.450704 C222.202586,213.235285 221.224035,212.493601 219.266933,212.493601 C217.781421,212.493601 216.606731,213.042362 215.825391,213.940528 C214.791569,215.089568 214.469173,216.384987 214.455052,221.450122 L214.454562,221.809665 C214.454562,227.169724 214.767527,228.501968 215.825391,229.675587 C216.606731,230.57804 217.781421,231.125729 219.266933,231.125729 C221.224035,231.125729 222.202586,230.382973 223.416933,229.169698 L227.018172,232.767722 C225.023557,234.726968 222.830659,235.979899 219.266933,235.979899 C216.213382,235.979899 213.708591,234.883451 211.751489,232.926348 C209.168546,230.343406 209.020847,227.199385 209.014167,222.985742 L209.014167,220.633117 C209.020847,216.41798 209.168546,213.274942 211.751489,210.692982 C213.708591,208.73588 216.213382,207.639431 219.266933,207.639431 Z M297.792817,207.639002 C300.961051,207.639002 303.349015,208.735451 305.309333,210.693625 C308.047776,213.432067 308.087398,216.801659 308.087487,221.412076 L308.087459,221.810308 C308.087459,226.622679 308.126017,230.109236 305.309333,232.926991 C303.349015,234.883022 300.961051,235.979471 297.792817,235.979471 C294.62244,235.979471 292.192676,234.883022 290.236645,232.926991 C287.653703,230.344049 287.506003,227.199127 287.499323,222.98616 L287.499323,220.63376 C287.506003,216.418624 287.653703,213.275585 290.236645,210.693625 C292.192676,208.735451 294.62244,207.639002 297.792817,207.639002 Z M272.691749,207.875333 C275.584531,207.875333 278.208291,208.697402 280.050711,210.536606 C283.095774,213.584798 282.881797,217.297583 282.868006,221.353126 L282.867395,221.691875 C282.867395,225.879387 283.180359,229.950074 280.050711,233.082938 C278.208291,234.922142 275.584531,235.744211 272.691749,235.744211 L262.628643,235.744211 L262.628643,207.875333 L272.691749,207.875333 Z M249.10556,207.875976 L249.10556,212.72586 L241.825911,212.72586 L241.825911,235.744854 L236.385468,235.744854 L236.385468,212.72586 L229.102604,212.72586 L229.102604,207.875976 L249.10556,207.875976 Z M204.615569,207.875548 L204.615569,212.725431 L191.698265,212.725431 L191.698265,219.266611 L202.697051,219.266611 L202.697051,224.116495 L191.698265,224.116495 L191.698265,230.890255 L204.615569,230.890255 L204.615569,235.744425 L186.257821,235.744425 L186.257821,207.875548 L204.615569,207.875548 Z M102.912064,207.875976 C108.665472,207.875976 112.111301,211.827694 112.111301,216.563967 C112.111301,221.299168 108.665472,225.251957 102.912064,225.251957 L97.5487891,225.251957 L97.5487891,235.744854 L92.1083452,235.744854 L92.1083452,207.875976 L102.912064,207.875976 Z M127.625998,207.875976 C133.302238,207.875976 136.668754,211.750524 136.668754,216.407484 C136.668754,220.321689 134.280789,222.747166 131.578787,223.728933 L137.802715,235.744854 L131.501618,235.744854 L126.061174,224.627099 L122.143754,224.627099 L122.143754,235.744854 L116.70331,235.744854 L116.70331,207.875976 L127.625998,207.875976 Z M367.193311,207.875548 L374.47296,222.94502 L381.715095,207.875548 L387.079441,207.875548 L387.079441,235.744425 L381.638997,235.744425 L381.638997,219.499191 L376.312164,230.067114 L372.634827,230.067114 L367.271552,219.499191 L367.271552,235.744425 L361.831108,235.744425 L361.831108,207.875548 L367.193311,207.875548 Z M411.948787,207.875548 L411.948787,212.725431 L399.030412,212.725431 L399.030412,219.266611 L410.030269,219.266611 L410.030269,224.116495 L399.030412,224.116495 L399.030412,230.890255 L411.948787,230.890255 L411.948787,235.744425 L393.59104,235.744425 L393.59104,207.875548 L411.948787,207.875548 Z M422.14083,207.875548 L433.181416,224.939635 L433.181416,207.875548 L438.62186,207.875548 L438.62186,235.744425 L433.768761,235.744425 L422.727104,218.638538 L422.727104,235.744425 L417.287731,235.744425 L417.287731,207.875548 L422.14083,207.875548 Z M463.05895,207.875976 L463.05895,212.72586 L455.779301,212.72586 L455.779301,235.744854 L450.338857,235.744854 L450.338857,212.72586 L443.055993,212.72586 L443.055993,207.875976 L463.05895,207.875976 Z M151.673489,212.493173 C150.184763,212.493173 148.931832,213.079446 148.148348,213.981899 C147.093699,215.155518 146.819319,216.445962 146.819319,221.810308 C146.819319,227.170367 147.093699,228.465099 148.148348,229.636573 C148.931832,230.535811 150.184763,231.1253 151.673489,231.1253 C153.159001,231.1253 154.373347,230.535811 155.156831,229.636573 C156.21148,228.465099 156.523373,227.170367 156.523373,221.810308 C156.523373,216.445962 156.21148,215.155518 155.156831,213.981899 C154.373347,213.079446 153.159001,212.493173 151.673489,212.493173 Z M297.792817,212.493173 C296.304091,212.493173 295.052231,213.079446 294.268747,213.981899 C293.238068,215.128845 292.952593,216.387366 292.94015,221.450824 L292.939718,221.810308 C292.939718,227.170367 293.214099,228.465099 294.268747,229.636573 C295.052231,230.535811 296.304091,231.1253 297.792817,231.1253 C299.278329,231.1253 300.493747,230.535811 301.277231,229.636573 C302.33188,228.465099 302.643773,227.170367 302.643773,221.810308 C302.643773,216.445962 302.33188,215.155518 301.277231,213.981899 C300.493747,213.079446 299.278329,212.493173 297.792817,212.493173 Z M272.180502,212.726289 L268.069087,212.726289 L268.069087,230.89004 L272.180502,230.89004 C274.058291,230.89004 275.311222,230.303767 276.251189,229.168734 C277.238616,227.954957 277.416328,226.045126 277.426471,222.081871 L277.426951,221.691875 C277.426951,217.465777 277.270468,215.70267 276.251189,214.450811 C275.311222,213.315777 274.058291,212.726289 272.180502,212.726289 Z M102.638755,212.72586 L97.5487891,212.72586 L97.5487891,220.362417 L102.638755,220.362417 C105.104961,220.362417 106.670857,218.832962 106.670857,216.563967 C106.670857,214.2939 105.104961,212.72586 102.638755,212.72586 Z M127.272305,212.72586 L122.143754,212.72586 L122.143754,220.088037 L127.272305,220.088037 C129.66027,220.088037 131.227238,218.558582 131.227238,216.407484 C131.227238,214.256387 129.66027,212.72586 127.272305,212.72586 Z" id="形状结合" fill="#4E5C93"></path>
        </g>
    </g>
</svg>