<svg xmlns="http://www.w3.org/2000/svg" xmlns:xlink="http://www.w3.org/1999/xlink" width="512" height="1024" version="1.1" viewBox="0 0 512 1024"><title>2.人物组件/6.产品经理/站立/叉腰</title><desc>Created with Sketch.</desc><defs><polygon id="path-1" points="1.459 .541 52.407 .541 52.407 37.5 1.459 37.5"/><polygon id="path-3" points=".116 .624 69.977 .624 69.977 50.903 .116 50.903"/><polygon id="path-5" points=".09 1.078 72.717 1.078 72.717 74.011 .09 74.011"/></defs><g id="2.人物组件/6.产品经理/站立/叉腰" fill="none" fill-rule="evenodd" stroke="none" stroke-width="1"><path id="Fill-1" fill="#ADC6FF" d="M331.3638,460.53785 C331.3638,460.53785 345.8868,475.70435 359.5548,462.16535 C373.4928,448.36085 358.1988,433.58885 358.1988,433.58885 C358.1988,433.58885 348.2283,422.85485 335.7468,410.25335 C325.9923,400.40585 318.5463,392.81135 311.7048,387.10535 C304.3233,380.94635 293.8263,383.63735 287.4243,389.97785 C277.6968,399.61535 281.6973,410.95535 288.1113,418.04885 C294.3498,424.94735 300.8823,432.53735 307.9263,439.98785 C321.4728,454.31435 331.3638,460.53785 331.3638,460.53785"/><path id="Fill-3" fill="#ADC6FF" d="M180.8541,457.53785 C180.8541,457.53785 166.3296,472.70435 152.6616,459.16535 C138.7251,445.36085 154.0191,430.58885 154.0191,430.58885 C154.0191,430.58885 163.9881,419.85485 176.4711,407.25335 C186.2241,397.40585 193.6716,389.81135 200.5116,384.10535 C207.8946,377.94635 218.3901,380.63735 224.7921,386.97785 C234.5211,396.61535 230.5206,407.95535 224.1051,415.04885 C217.8666,421.94735 211.3356,429.53735 204.2901,436.98785 C190.7451,451.31435 180.8541,457.53785 180.8541,457.53785"/><path id="Fill-5" fill="#597EF7" d="M310.26135,656.61605 C308.04885,617.42105 305.36385,576.92705 302.49135,544.76255 C302.49135,544.76255 296.46285,521.72705 275.41635,527.16155 C254.78685,532.48805 256.61685,558.87455 256.61685,558.87455 L272.87535,662.02055 C272.87535,662.02055 275.70885,678.79055 294.35235,675.76055 C311.35635,672.99755 310.26135,656.61605 310.26135,656.61605"/><path id="Fill-7" fill="#CE998A" d="M303.22425,754.77875 L303.22425,754.77875 C295.74675,754.09325 289.58475,760.55375 290.63925,767.98775 C291.85425,776.54075 293.43675,788.10275 294.96975,800.57525 C296.54925,813.41225 297.88425,824.04875 298.94775,825.30425 C303.63825,830.83325 311.97975,832.18625 320.93475,837.20675 C328.02225,841.17725 329.39625,843.27875 337.95975,843.95375 C350.10075,844.91225 344.01225,840.45575 329.09325,825.89825 C315.80175,812.92925 315.88125,806.17325 315.88125,806.17325 L313.77975,765.76025 C313.47975,759.98525 308.98275,755.30675 303.22425,754.77875"/><path id="Fill-9" fill="#7D4556" d="M327.49515,822.2495 C337.11315,830.888 347.77515,837.389 348.02115,841.9535 C348.26565,846.518 345.12465,850.9985 329.76015,847.325 C319.24515,844.8125 321.91215,842.3285 311.57115,837.0695 C306.40515,834.443 304.68165,834.968 299.83965,831.788 C296.93565,828.779 296.38215,812.717 296.38215,812.717 L315.31215,829.4765 C315.31215,829.4765 309.98265,821.2985 313.40265,819.0365 C316.82265,816.776 320.02065,815.144 322.32015,816.4535 C324.61965,817.7615 327.49515,822.2495 327.49515,822.2495"/><path id="Fill-11" fill="#597EF7" d="M310.5147,660.06785 C313.9512,727.94435 317.1297,798.93785 317.1297,798.93785 L292.6122,798.95435 L272.5602,664.69235 C272.5602,664.69235 272.1432,644.25485 290.9532,642.53735 C307.9242,640.98785 310.5147,660.06785 310.5147,660.06785"/><path id="Fill-13" fill="#597EF7" d="M207.39705,660.68165 C208.69605,621.44615 210.43905,580.89965 212.56155,548.67815 C212.56155,548.67815 218.05305,525.50765 239.22105,530.45015 C259.96905,535.29515 258.75105,561.71765 258.75105,561.71765 L244.90005,665.21315 C244.90005,665.21315 242.45655,682.04465 223.74855,679.45115 C206.68305,677.08415 207.39705,660.68165 207.39705,660.68165"/><path id="Fill-15" fill="#CE998A" d="M216.7194,758.65415 L216.7194,758.65415 C224.1789,757.79465 230.4894,764.11115 229.6074,771.56615 C228.5919,780.14615 227.2794,791.74115 226.0359,804.24665 C224.7549,817.11665 223.6689,827.78015 222.6339,829.06115 C218.0739,834.69815 209.7669,836.24615 200.9319,841.47065 C193.9374,845.60765 192.6144,847.73915 184.0659,848.61365 C171.9519,849.85415 177.9354,845.25815 192.5109,830.35715 C205.4994,817.08215 205.2609,810.32915 205.2609,810.32915 L206.4219,769.87865 C206.5869,764.09765 210.9729,759.31565 216.7194,758.65415"/><g id="分组" transform="translate(172.500000, 815.876000)"><mask id="mask-2" fill="#fff"><use xlink:href="#path-1"/></mask><path id="Fill-17" fill="#7D4556" d="M21.52455,10.7952 C12.11055,19.6542 1.60305,26.4027 1.46355,30.9717 C1.32405,35.5407 4.56855,39.9477 19.84455,35.9172 C30.29805,33.1602 27.57255,30.7392 37.79055,25.2402 C42.89205,22.4952 44.62755,22.9812 49.39605,19.6872 C52.22805,16.6107 52.40655,0.5412 52.40655,0.5412 L33.87255,17.7372 C33.87255,17.7372 39.01005,9.4377 35.53905,7.2567 C32.06655,5.0757 28.83105,3.5172 26.56305,4.8807 C24.29505,6.2427 21.52455,10.7952 21.52455,10.7952" mask="url(#mask-2)"/></g><path id="Fill-19" fill="#597EF7" d="M207.22575,664.1387 C205.37025,732.0767 203.84475,803.1257 203.84475,803.1257 L228.35625,802.5722 L245.27625,667.8782 C245.27625,667.8782 245.21775,647.4362 226.37475,646.1567 C209.37075,645.0032 207.22575,664.1387 207.22575,664.1387"/><path id="Fill-21" fill="#CE998A" d="M274.24965,371.98145 L273.18015,349.57595 L243.46215,349.59545 L242.73465,372.13895 C242.41065,380.86445 249.34365,388.14095 258.07665,388.23545 C258.24165,388.23845 258.40815,388.23995 258.57615,388.24145 C267.50565,388.34345 274.67415,380.90045 274.24965,371.98145"/><path id="Fill-23" fill="#ADC6FF" d="M279.4791,376.00835 L277.5831,372.03935 L239.2071,371.54585 L237.7266,375.22385 C237.7266,375.22385 209.0691,374.47835 200.0586,386.86685 C192.8301,396.80435 216.1791,462.73985 216.4386,476.65085 C210.1641,493.26785 219.2826,498.33485 219.2826,498.33485 L294.0696,497.43785 C294.0696,497.43785 302.6316,491.76635 295.3011,480.34685 C298.3041,459.92135 318.2166,402.09485 315.3576,391.23035 C312.5421,380.53235 279.4791,376.00835 279.4791,376.00835"/><path id="Stroke-25" fill="#597EF7" fill-rule="nonzero" d="M240.831695,379.358748 L242.385458,379.469903 L243.862933,379.563638 C244.721413,379.615391 245.641307,379.666334 246.61583,379.715103 C254.034884,380.086386 261.712481,380.202056 268.879964,379.908469 C271.548826,379.799149 274.079381,379.634043 276.450085,379.408968 C276.759355,379.379606 277.03387,379.606516 277.063232,379.915785 C277.092594,380.225055 276.865684,380.49957 276.556415,380.528932 C274.164579,380.756013 271.614114,380.922418 268.926007,381.032526 C262.234483,381.306617 255.108791,381.226041 248.159799,380.914608 L246.559601,380.838697 C245.385346,380.779932 244.289881,380.718013 243.2849,380.655298 L241.807259,380.558159 L240.741805,380.480152 C240.432138,380.455329 240.201226,380.184172 240.226048,379.874505 C240.250871,379.564838 240.522028,379.333926 240.831695,379.358748 Z"/><path id="Fill-27" fill="#597EF7" d="M303.0894,550.72385 C300.6954,525.38285 296.9754,513.56735 294.1329,508.80635 C233.0589,510.55235 217.8444,509.74985 217.8444,509.74985 C217.8444,509.74985 212.6169,524.53835 211.8654,554.28635 C211.8654,554.28635 233.2119,580.56935 257.4774,580.56935 C279.3534,580.56935 303.0894,550.72385 303.0894,550.72385"/><path id="Fill-29" fill="#597EF7" d="M294.13335,508.8059 L292.97835,497.3129 L218.19285,498.2099 L217.84485,509.7209 C217.84485,509.7209 257.42385,511.2449 294.13335,508.8059"/><path id="Stroke-31" fill="#1D39C4" fill-rule="nonzero" d="M251.012687,510.520881 C251.330323,510.527573 251.582586,510.790301 251.576131,511.107937 L251.523958,514.279668 C251.514874,514.917851 251.505943,515.594971 251.49732,516.308613 C251.367637,527.041151 251.380083,538.583193 251.631521,549.414991 L251.669966,550.989921 C251.983513,563.221819 252.588935,572.972494 253.53948,579.357546 C253.58626,579.671785 253.369443,579.964449 253.055204,580.01123 C252.740965,580.05801 252.448301,579.841193 252.40152,579.526954 L252.280985,578.68639 C251.351665,571.960658 250.771132,561.926203 250.48133,549.44169 C250.250514,539.498243 250.22081,528.960512 250.317466,518.996938 L250.387318,513.334115 L250.425869,511.084563 C250.432323,510.766927 250.695051,510.514664 251.012687,510.520881 Z"/><path id="Stroke-33" fill="#1D39C4" fill-rule="nonzero" d="M261.688193,510.766383 C262.005891,510.76781 262.262299,511.026494 262.260894,511.344193 L262.261724,514.978182 C262.267216,516.701355 262.279791,518.65989 262.301992,520.795118 C262.353344,525.733925 262.447464,530.619665 262.593435,535.241954 L262.644025,536.772671 C262.895,544.035933 263.262863,550.060629 263.764433,554.42908 L263.816797,554.875064 L263.81912,554.988873 C263.487863,559.189534 261.136443,561.753861 257.484819,562.961058 C255.476581,563.624965 253.387369,563.794492 251.600801,563.693023 L251.266376,563.66839 C250.950337,563.63593 250.72045,563.353415 250.75291,563.037376 C250.78537,562.721337 251.067885,562.49145 251.383924,562.52391 L251.666039,562.544374 C253.320778,562.638356 255.275336,562.479755 257.123695,561.868703 C260.269018,560.828885 262.260726,558.727142 262.641971,555.221042 L262.667,554.951 L262.621674,554.562338 C262.133155,550.308331 261.771833,544.52002 261.520698,537.562326 L261.494211,536.812401 C261.336287,532.242045 261.231364,527.385913 261.170298,522.453686 L261.129339,518.329742 C261.117396,516.739778 261.11097,515.278004 261.108759,513.97443 L261.110406,511.339107 C261.11181,511.021409 261.370494,510.765001 261.688193,510.766383 Z"/><path id="Stroke-35" fill="#1D39C4" fill-rule="nonzero" d="M287.450454,511.008049 C287.768116,511.003098 288.029705,511.256542 288.034728,511.574204 L288.047711,511.977764 C288.053398,512.111727 288.061107,512.269776 288.071264,512.450296 C288.110959,513.155757 288.174829,513.942695 288.268263,514.790514 C288.535033,517.211165 288.984413,519.630834 289.65786,521.883245 C291.200954,527.044271 293.666431,530.516267 297.199436,531.58729 C297.503474,531.679458 297.675229,532.000647 297.58306,532.304686 C297.490892,532.608724 297.169703,532.780479 296.865664,532.68831 C292.877535,531.479318 290.197902,527.705739 288.555575,522.212817 C287.860152,519.886907 287.398514,517.401234 287.124687,514.916543 C287.048067,514.221302 286.990809,513.565583 286.950077,512.95977 L286.922581,512.51493 C286.89798,512.077707 286.887076,511.763415 286.884299,511.592396 C286.879348,511.274734 287.132792,511.013145 287.450454,511.008049 Z"/><path id="Stroke-37" fill="#1D39C4" fill-rule="nonzero" d="M224.533024,512.3381 C224.818948,512.336015 225.057682,512.542881 225.10427,512.815874 L225.112484,512.909124 L225.112587,513.11061 C225.109992,513.87386 225.074984,514.990973 224.98153,516.34836 C224.818284,518.719455 224.519831,521.081671 224.051936,523.292309 C222.824704,529.090545 220.658339,532.92611 217.213097,533.819195 C216.90556,533.898916 216.591625,533.714234 216.511905,533.406697 C216.432184,533.09916 216.616866,532.785225 216.924403,532.705505 C219.806047,531.958517 221.782254,528.45963 222.926372,523.054077 C223.381963,520.901571 223.673922,518.590755 223.833747,516.269337 L223.892064,515.318416 C223.929685,514.616313 223.949982,514.004971 223.958049,513.507182 L223.962016,512.917576 C223.959682,512.599882 224.215331,512.340449 224.533024,512.3381 Z"/><path id="Stroke-39" fill="#1D39C4" fill-rule="nonzero" d="M237.674981,574.96174 C237.817061,574.677579 238.162598,574.5624 238.44676,574.704481 L238.911249,574.928201 L239.3977,575.154276 C239.654688,575.271989 239.932024,575.396465 240.228387,575.526577 C241.641193,576.14684 243.192387,576.767327 244.832794,577.346308 C247.983138,578.458219 251.074536,579.280635 253.960769,579.693093 C256.547428,580.062741 258.879306,580.087523 260.892612,579.721526 C261.205191,579.664703 261.504651,579.872033 261.561474,580.184612 C261.618297,580.497191 261.410967,580.796651 261.098388,580.853474 C258.950363,581.243961 256.49825,581.217901 253.79801,580.832022 C250.828182,580.407618 247.666319,579.566456 244.449877,578.431215 C242.780969,577.842175 241.203586,577.211212 239.765893,576.580024 L239.187318,576.322475 L238.07372,575.803051 C238.014428,575.774257 237.967139,575.750969 237.93224,575.733519 C237.648079,575.591439 237.5329,575.245902 237.674981,574.96174 Z"/><path id="Fill-41" fill="#CE998A" d="M285.42045,328.6412 C285.42045,328.6412 293.00895,320.0027 297.41445,328.1732 C301.60095,335.9357 292.98045,346.5302 285.67395,344.4017 C282.47895,337.1312 285.42045,328.6412 285.42045,328.6412"/><path id="Fill-43" fill="#CE998A" d="M232.52055,328.6412 C232.52055,328.6412 224.93055,320.0027 220.52505,328.1732 C216.33855,335.9357 224.95905,346.5302 232.26555,344.4017 C235.46055,337.1312 232.52055,328.6412 232.52055,328.6412"/><path id="Fill-45" fill="#CE998A" d="M288.53325,330.47285 C288.53325,357.31085 275.20275,364.40435 258.75825,364.40435 C242.31525,364.40435 230.10975,357.59285 228.98325,330.47285 C227.94675,305.52485 242.31525,297.14885 258.75825,297.14885 C275.20275,297.14885 288.53325,306.91085 288.53325,330.47285"/><path id="Fill-47" fill="#FFF" d="M261.13635,333.42905 C261.20085,338.84855 265.64835,343.18955 271.06785,343.12355 C276.48735,343.05905 280.82835,338.61305 280.76385,333.19355 C280.69785,327.77255 276.25185,323.43305 270.83235,323.49755 C265.41285,323.56205 261.07185,328.00955 261.13635,333.42905"/><path id="Stroke-49" fill="#7D4556" fill-rule="nonzero" d="M270.824121,322.806099 C265.023064,322.87514 260.37585,327.63558 260.444899,333.437279 C260.513943,339.238619 265.274706,343.885652 271.076271,343.814999 C276.877386,343.745957 281.524347,338.98677 281.455301,333.185321 C281.385813,327.47783 276.780569,322.889678 271.108592,322.806489 L270.824121,322.806099 Z M270.840579,324.189001 C275.87865,324.129041 280.011054,328.163146 280.072401,333.201968 C280.132355,338.239491 276.097153,342.372145 271.059621,342.432099 C266.021737,342.493452 261.887754,338.458225 261.827801,333.420821 C261.767841,328.382794 265.803362,324.248951 270.840579,324.189001 Z"/><path id="Stroke-51" fill="#7D4556" fill-rule="nonzero" d="M268.552029,333.902725 C268.510283,334.24077 268.224099,334.50436 267.874044,334.50855 C267.52399,334.512741 267.231578,334.256076 267.181753,333.919127 L267.174317,333.825376 C267.170862,333.258473 267.275708,332.49241 267.601206,331.715302 C268.175084,330.345202 269.272064,329.476583 270.926469,329.45665 C272.568376,329.436868 273.727124,330.214887 274.422088,331.480953 C274.818947,332.20394 274.991259,332.914983 275.036075,333.418267 C275.069948,333.798666 274.789033,334.134501 274.408633,334.168375 C274.028234,334.202248 273.692399,333.921333 273.658525,333.540933 L273.642328,333.419548 C273.629699,333.342129 273.609867,333.240932 273.581014,333.121866 C273.499862,332.786994 273.377886,332.452786 273.209726,332.146437 C272.746341,331.302254 272.03757,330.826364 270.943131,330.83955 C269.886224,330.852284 269.251638,331.354766 268.876827,332.249606 C268.73804,332.58095 268.647242,332.943747 268.597198,333.309394 L268.569653,333.554337 C268.563382,333.627027 268.559793,333.690162 268.558205,333.741955 L268.557239,333.810912 L268.552029,333.902725 Z"/><path id="Stroke-53" fill="#7D4556" fill-rule="nonzero" d="M239.24975,320.434677 C242.282122,318.514337 246.793002,318.514337 252.943264,321.589036 C253.284859,321.75981 253.423338,322.175168 253.252564,322.516764 C253.08179,322.858359 252.666432,322.996838 252.324836,322.826064 C246.586764,319.95743 242.588312,319.95743 239.989683,321.60309 C239.625271,321.833865 239.326066,322.078885 239.088452,322.320726 L238.952924,322.465493 C238.898063,322.527469 238.862402,322.572962 238.845242,322.59804 C238.62958,322.913225 238.199244,322.993904 237.88406,322.778242 C237.568875,322.56258 237.488196,322.132244 237.703858,321.81706 C237.957236,321.446754 238.460611,320.934423 239.24975,320.434677 Z"/><path id="Stroke-55" fill="#7D4556" fill-rule="nonzero" d="M272.162233,318.920003 C274.06463,318.818512 275.760422,319.123497 277.183592,319.914053 C277.517446,320.099506 277.637749,320.520487 277.452297,320.854342 C277.266844,321.188196 276.845863,321.308499 276.512008,321.123047 C275.33965,320.471814 273.897283,320.212407 272.23591,320.301039 C270.520241,320.392568 268.663127,320.846653 266.789104,321.547816 C266.193364,321.770711 265.629167,322.006408 265.106783,322.244461 L264.722995,322.423279 C264.35002,322.600949 264.085385,322.737682 263.948845,322.813014 C263.614457,322.997502 263.193824,322.875983 263.009336,322.541595 C262.824848,322.207207 262.946367,321.786574 263.280755,321.602086 L263.55573,321.456727 C263.708244,321.37857 263.900267,321.283294 264.128226,321.174704 C264.788687,320.860088 265.520384,320.545873 266.304468,320.25251 C268.299664,319.506011 270.287212,319.020034 272.162233,318.920003 Z"/><path id="Stroke-57" fill="#965C56" fill-rule="nonzero" d="M254.632777,324.803233 C254.909674,324.662387 255.248322,324.772679 255.389167,325.049577 L255.514078,325.308896 C255.565306,325.419411 255.625523,325.553452 255.692926,325.70938 C255.915748,326.224852 256.138184,326.801252 256.34574,327.425623 C257.026921,329.47475 257.393961,331.547313 257.277829,333.503631 C257.207743,334.695103 256.990999,335.781861 256.591427,337.178628 L256.057803,338.991385 C255.602884,340.571696 255.59213,340.852351 255.740661,341.396411 C255.961942,342.206953 256.944946,342.726327 259.241687,342.976405 C259.550522,343.010032 259.773622,343.287652 259.739995,343.596487 C259.706368,343.905322 259.428748,344.128422 259.119913,344.094795 C256.413855,343.800149 255.031297,343.069669 254.655378,341.692699 L254.608556,341.515024 C254.437425,340.833081 254.466996,340.452371 254.94323,338.793859 L255.387999,337.285714 C255.845449,335.752579 256.083805,334.643989 256.154788,333.437267 C256.261268,331.643549 255.917996,329.705195 255.278181,327.780506 C255.081417,327.1886 254.870653,326.642447 254.660275,326.155762 L254.496172,325.787955 C254.44993,325.688034 254.412748,325.611359 254.386433,325.559623 C254.245587,325.282726 254.355879,324.944078 254.632777,324.803233 Z"/><path id="Stroke-59" fill="#7D4556" fill-rule="nonzero" d="M250.093925,345.892448 C250.179806,345.577548 250.504703,345.391893 250.819602,345.477775 L251.123199,345.55325 L251.362767,345.607882 C251.814112,345.708121 252.333812,345.808613 252.913859,345.902551 C256.896475,346.547532 261.212123,346.547532 265.346301,345.475859 C265.662258,345.393955 265.984788,345.583694 266.066691,345.899651 C266.148595,346.215608 265.958856,346.538138 265.642899,346.620041 C261.328744,347.738368 256.855947,347.738368 252.724897,347.069349 L252.030899,346.949141 C251.80968,346.908224 251.598741,346.866606 251.398585,346.824727 L251.106502,346.761768 C250.819762,346.698086 250.617838,346.647918 250.508598,346.618125 C250.193698,346.532244 250.008043,346.207347 250.093925,345.892448 Z"/><path id="Fill-61" fill="#FFF" d="M236.35845,333.42905 C236.42445,338.84855 240.87045,343.18955 246.28995,343.12355 C251.70945,343.05905 256.05045,338.61305 255.98595,333.19355 C255.92145,327.77255 251.47395,323.43305 246.05445,323.49755 C240.63495,323.56205 236.29395,328.00955 236.35845,333.42905"/><path id="Stroke-63" fill="#7D4556" fill-rule="nonzero" d="M246.046221,322.806099 C240.245164,322.87514 235.59795,327.63558 235.666999,333.437279 C235.737656,339.239187 240.497334,343.885645 246.298371,343.814999 C252.099486,343.745957 256.746447,338.98677 256.677401,333.185321 C256.608367,327.383273 251.848428,322.737044 246.046221,322.806099 Z M246.062679,324.189001 C251.101247,324.129035 255.234554,328.163601 255.294499,333.201777 C255.354455,338.239491 251.319253,342.372145 246.281721,342.432099 C241.244333,342.493445 237.111253,338.45868 237.049899,333.420629 C236.989941,328.382794 241.025462,324.248951 246.062679,324.189001 Z"/><path id="Stroke-65" fill="#7D4556" fill-rule="nonzero" d="M243.774279,333.902725 C243.732534,334.24077 243.446349,334.50436 243.096294,334.50855 C242.74624,334.512741 242.453828,334.256076 242.404003,333.919127 L242.396567,333.825376 C242.393112,333.258445 242.498016,332.492339 242.823694,331.715189 C243.397843,330.345119 244.495256,329.47658 246.150219,329.45665 C247.792126,329.436868 248.950874,330.214887 249.645838,331.480953 C250.042697,332.20394 250.215009,332.914983 250.259825,333.418267 C250.293698,333.798666 250.012783,334.134501 249.632383,334.168375 C249.283684,334.199425 248.972431,333.965966 248.896886,333.633836 L248.866078,333.419548 C248.853449,333.342129 248.833617,333.240932 248.804764,333.121866 C248.723612,332.786994 248.601636,332.452786 248.433476,332.146437 C247.970091,331.302254 247.26132,330.826364 246.166877,330.83955 C245.109225,330.852287 244.474229,331.354849 244.09922,332.249719 C243.960371,332.581047 243.869532,332.943826 243.819466,333.309454 L243.791909,333.554376 C243.785635,333.627058 243.782045,333.690185 243.780456,333.741969 L243.779489,333.810914 L243.774279,333.902725 Z"/><g id="分组" transform="translate(255.000000, 328.376000)"><path id="Fill-67" fill="#FFF" d="M0.98595,1.8171 C0.98595,1.8171 3.65745,0.4131 6.13695,1.8171"/><path id="Stroke-69" stroke="#7D4556" stroke-width="1.383" d="M0.98595,1.8171 C0.98595,1.8171 3.65745,0.4131 6.13695,1.8171"/></g><path id="Stroke-70" fill="#965C56" fill-rule="nonzero" d="M273.39544,361.34176 C273.68301,361.224228 274.011409,361.362071 274.12894,361.64964 C274.246472,361.93721 274.108629,362.265609 273.82106,362.38314 C263.93371,366.424165 255.662375,366.011554 247.037237,363.043845 C246.74348,362.94277 246.58728,362.622695 246.688355,362.328937 C246.78943,362.03518 247.109505,361.87898 247.403263,361.980055 C255.792333,364.866538 263.794512,365.265723 273.39544,361.34176 Z"/><path id="Stroke-72" fill="#965C56" fill-rule="nonzero" d="M260.65875,350.99765 C260.96941,350.99765 261.22125,351.24949 261.22125,351.56015 C261.22125,351.839744 261.01726,352.071694 260.74999,352.115288 L260.65875,352.12265 L256.22475,352.12265 C255.91409,352.12265 255.66225,351.87081 255.66225,351.56015 C255.66225,351.280556 255.86624,351.048606 256.13351,351.005012 L256.22475,350.99765 L260.65875,350.99765 Z"/><path id="Stroke-74" fill="#965C56" fill-rule="nonzero" d="M258.12465,357.12215 C258.404244,357.12215 258.636194,357.32614 258.679788,357.59341 L258.68715,357.68465 L258.68715,363.80915 C258.68715,364.11981 258.43531,364.37165 258.12465,364.37165 C257.845056,364.37165 257.613106,364.16766 257.569512,363.90039 L257.56215,363.80915 L257.56215,357.68465 C257.56215,357.37399 257.81399,357.12215 258.12465,357.12215 Z"/><path id="Stroke-76" fill="#965C56" fill-rule="nonzero" d="M260.582628,358.816174 C260.859651,358.778338 261.117072,358.949062 261.196434,359.207974 L261.216076,359.297378 L261.850576,363.942878 C261.892616,364.250681 261.677174,364.534285 261.369372,364.576326 C261.092349,364.614162 260.834928,364.443438 260.755566,364.184526 L260.735924,364.095122 L260.101424,359.449622 C260.059384,359.141819 260.274826,358.858215 260.582628,358.816174 Z"/><path id="Stroke-78" fill="#965C56" fill-rule="nonzero" d="M254.832319,360.295662 C255.108652,360.338244 255.306828,360.575181 255.309208,360.845972 L255.302588,360.937269 L254.879588,363.682269 C254.832274,363.989305 254.545017,364.199852 254.237981,364.152538 C253.961648,364.109956 253.763472,363.873019 253.761092,363.602228 L253.767712,363.510931 L254.190712,360.765931 C254.233294,360.489598 254.470231,360.291422 254.741022,360.289042 L254.832319,360.295662 Z"/><path id="Stroke-80" fill="#965C56" fill-rule="nonzero" d="M262.837389,359.886083 C263.107573,359.814154 263.384194,359.951606 263.49508,360.198664 L263.525667,360.284939 L264.368667,363.451439 C264.448589,363.751643 264.270015,364.059795 263.969811,364.139717 C263.699627,364.211646 263.423006,364.074194 263.31212,363.827136 L263.281533,363.740861 L262.438533,360.574361 C262.358611,360.274157 262.537185,359.966005 262.837389,359.886083 Z"/><path id="Stroke-82" fill="#965C56" fill-rule="nonzero" d="M221.897629,330.550148 C223.139205,329.076995 224.782213,329.076995 226.33166,331.485237 C226.964995,332.933229 226.908429,333.898757 226.357491,335.247074 L226.045182,335.980474 C225.713924,336.807422 225.735319,337.333079 226.284414,338.156259 C226.446509,338.399546 226.632973,338.595544 226.839526,338.750688 C227.215143,339.032819 227.588445,339.147181 227.838881,339.169112 L227.9268,339.17315 C228.23746,339.17315 228.4893,339.42499 228.4893,339.73565 C228.4893,340.04631 228.23746,340.29815 227.9268,340.29815 C227.459319,340.29815 226.810137,340.135614 226.163886,339.650208 C225.856478,339.41931 225.581622,339.130401 225.348352,338.78029 C224.622724,337.692456 224.547142,336.820215 224.924783,335.762693 L225.05378,335.431508 L225.223827,335.039778 C225.754597,333.821645 225.825695,333.135805 225.344036,332.016221 C224.26872,330.354305 223.533951,330.354305 222.757859,331.275152 C222.542125,331.531124 222.387584,331.791078 222.312809,331.950058 C222.180587,332.231176 221.845509,332.35188 221.564392,332.219659 C221.283274,332.087437 221.16257,331.752359 221.294791,331.471242 C221.407683,331.231222 221.608947,330.892676 221.897629,330.550148 Z"/><path id="Stroke-84" fill="#965C56" fill-rule="nonzero" d="M290.616836,331.405079 C292.123187,329.076995 293.766195,329.076995 295.007771,330.550148 C295.296453,330.892676 295.497717,331.231222 295.610609,331.471242 C295.74283,331.752359 295.622126,332.087437 295.341008,332.219659 C295.059891,332.35188 294.724813,332.231176 294.592591,331.950058 C294.517816,331.791078 294.363275,331.531124 294.147541,331.275152 C293.371449,330.354305 292.63668,330.354305 291.60446,331.936063 C291.112502,333.060821 291.144243,333.733908 291.587474,334.81736 L291.904546,335.562139 C292.365167,336.712027 292.328028,337.624467 291.557214,338.780041 C291.323355,339.131037 291.047848,339.420351 290.73963,339.651446 C290.09344,340.135945 289.444427,340.29815 288.9771,340.29815 C288.66644,340.29815 288.4146,340.04631 288.4146,339.73565 C288.4146,339.456056 288.61859,339.224106 288.88586,339.180512 L288.9771,339.17315 C289.22232,339.17315 289.642127,339.068229 290.064758,338.75135 C290.271813,338.596104 290.458658,338.399896 290.621152,338.15601 C291.133485,337.387941 291.186279,336.878831 290.921716,336.142024 L290.800147,335.833916 C290.776197,335.778149 290.735302,335.684414 290.650225,335.489162 C290.006014,334.010679 289.90315,333.018405 290.616836,331.405079 Z"/><g id="分组" transform="translate(223.500000, 287.876000)"><mask id="mask-4" fill="#fff"><use xlink:href="#path-3"/></mask><path id="Fill-86" fill="#7D4556" d="M4.3566,47.00175 C4.3566,47.00175 -0.1479,42.21525 2.1051,36.30225 C-1.8369,29.26425 0.6981,22.50675 4.3566,19.97175 C3.2316,13.77825 7.4541,2.79675 16.1826,1.67025 C21.3216,3.71175 27.4461,3.92325 27.4461,3.92325 C27.4461,3.92325 42.0861,-4.52325 52.2216,5.61225 C62.6391,4.48575 67.9896,16.31175 67.1451,20.53575 C72.7761,27.57375 68.2701,38.27325 68.2701,38.27325 C68.2701,38.27325 67.6416,42.41175 65.7381,48.12825 C63.7656,54.04125 62.9211,46.43925 62.9211,44.75025 C62.9211,43.05975 58.6986,41.65275 60.1056,34.05075 C55.3206,30.67125 56.3766,25.46325 56.3766,25.46325 C56.3766,25.46325 52.9266,28.98225 43.0731,24.19575 C36.0321,30.10875 25.3326,24.19575 25.3326,24.19575 C25.3326,24.19575 16.6761,28.34775 11.6076,25.25175 C11.6076,25.25175 13.0146,29.47425 9.0741,35.38725 C10.4811,41.01825 6.3276,43.62375 7.4541,47.00175 C8.5806,50.37975 5.4831,53.75925 4.3566,47.00175" mask="url(#mask-4)"/></g><path id="Stroke-88" fill="#1D39C4" fill-rule="nonzero" d="M293.6061,508.73525 C293.923802,508.73525 294.18135,508.992798 294.18135,509.3105 C294.18135,509.596432 293.972736,509.833639 293.699409,509.878221 L293.6061,509.88575 L217.1061,509.88575 C216.788398,509.88575 216.53085,509.628202 216.53085,509.3105 C216.53085,509.024568 216.739464,508.787361 217.012791,508.742779 L217.1061,508.73525 L293.6061,508.73525 Z"/><path id="Stroke-90" fill="#597EF7" fill-rule="nonzero" d="M204.827326,418.602325 C205.10149,418.547488 205.368944,418.702024 205.464111,418.955552 L205.489225,419.043576 L216.989725,476.541576 C217.012583,476.655856 216.99938,476.774413 216.951941,476.880864 L216.823737,477.189244 C216.782571,477.292819 216.735063,477.415782 216.682325,477.557079 C216.475446,478.111356 216.26817,478.738867 216.074572,479.426085 C215.246642,482.364999 214.930211,485.378718 215.417714,488.171681 C216.093129,492.041218 218.254369,495.076701 222.26571,497.013346 C222.545472,497.148413 222.66277,497.484698 222.527704,497.76446 C222.392637,498.044222 222.056352,498.16152 221.77659,498.026454 C217.427712,495.926848 215.045287,492.580708 214.309469,488.365122 C213.788763,485.381935 214.121978,482.208368 214.99172,479.121031 C215.153593,478.546428 215.324812,478.011167 215.498104,477.521906 L215.682934,477.018942 L215.852,476.591 L204.386075,419.264224 C204.331238,418.99006 204.485774,418.722606 204.739302,418.627439 L204.827326,418.602325 Z"/><path id="Stroke-92" fill="#597EF7" fill-rule="nonzero" d="M308.043156,418.410218 C308.349084,418.464235 308.553298,418.756028 308.499282,419.061956 L307.210497,426.24749 L306.761307,428.719925 C305.561526,435.304531 304.334711,441.889191 303.138721,448.111397 L302.297332,452.453847 L301.112798,458.433372 C298.761614,470.127745 297.001492,477.748524 295.985114,480.20025 L295.926,480.335 L295.987547,480.45315 C298.637762,485.735367 298.300787,490.964645 296.102478,495.712999 L295.946102,496.043494 C295.533102,496.897916 295.090302,497.662794 294.646575,498.328267 C294.52942,498.503969 294.418247,498.66353 294.31457,498.806424 L294.109149,499.080763 C294.08004,499.118204 294.056739,499.147361 294.039692,499.168076 C293.954212,499.271951 293.83514,499.340873 293.704836,499.364287 L293.60535,499.37315 L218.60535,499.37315 C218.29469,499.37315 218.04285,499.12131 218.04285,498.81065 C218.04285,498.531056 218.24684,498.299106 218.51411,498.255512 L218.60535,498.24815 L293.329,498.248 L293.513585,497.992788 L293.71057,497.704153 C294.126676,497.080103 294.543711,496.359731 294.933222,495.553901 C297.180664,490.904346 297.535967,485.786785 294.802913,480.609757 C294.717146,480.447296 294.716118,480.253189 294.800158,480.089828 L294.88322,479.917154 C295.866175,477.748795 297.803448,469.298041 300.38022,456.360231 L300.719922,454.647391 C301.032051,453.067096 301.351121,451.434129 301.676393,449.753104 L302.393413,446.022889 C303.35408,440.993136 304.33084,435.754328 305.294028,430.492261 L306.388036,424.473166 L307.391418,418.866344 C307.440033,418.591009 307.681247,418.398062 307.952025,418.401293 L308.043156,418.410218 Z"/><path id="Stroke-94" fill="#1D39C4" fill-rule="nonzero" d="M294.16995,497.4728 C294.487652,497.4728 294.7452,497.730348 294.7452,498.04805 C294.7452,498.333982 294.536586,498.571189 294.263259,498.615771 L294.16995,498.6233 L217.66995,498.6233 C217.352248,498.6233 217.0947,498.365752 217.0947,498.04805 C217.0947,497.762118 217.303314,497.524911 217.576641,497.480329 L217.66995,497.4728 L294.16995,497.4728 Z"/><g id="分组" transform="translate(294.000000, 433.376000)"><mask id="mask-6" fill="#fff"><use xlink:href="#path-5"/></mask><path id="Fill-96" fill="#ADC6FF" d="M42.5934,6.86505 C42.5934,6.86505 57.0654,-6.07995 68.1114,6.75105 C79.4994,19.98255 66.1839,33.10155 66.1839,33.10155 C66.1839,33.10155 56.5884,42.08055 44.8119,53.20305 C37.6224,59.99355 29.5344,67.31805 22.9134,71.71755 C15.7434,76.48305 11.8929,73.31055 6.3714,66.89505 C-0.1881,59.27655 -2.1876,55.44705 3.1584,48.57555 C8.2539,42.02205 16.1769,34.25055 22.0479,27.92505 C33.2424,15.86355 42.5934,6.86505 42.5934,6.86505" mask="url(#mask-6)"/></g><polygon id="Fill-98" fill="#ADC6FF" points="300.516 513.159 287.722 498.344 296.185 488.315 310.822 505.265"/><path id="Fill-100" fill="#ADC6FF" d="M175.62465,437.24105 C175.62465,437.24105 161.15265,424.29605 150.10665,437.12705 C138.71715,450.35855 152.03415,463.47755 152.03415,463.47755 C152.03415,463.47755 161.62815,472.45655 173.40615,483.57905 C180.59565,490.36955 188.68365,497.69405 195.30465,502.09355 C202.47315,506.85905 206.32365,503.68655 211.84515,497.27105 C218.40465,489.65255 220.40565,485.82305 215.05965,478.95155 C209.96265,472.39805 202.04115,464.62655 196.17015,458.30105 C184.97565,446.23955 175.62465,437.24105 175.62465,437.24105"/><polygon id="Fill-102" fill="#ADC6FF" points="211.701 510.159 224.496 495.344 216.031 485.315 201.394 502.265"/><path id="Fill-104" fill="#CE998A" d="M283.4019,489.93065 C283.4019,489.93065 291.9249,479.79065 295.1319,479.802639 C300.1059,479.81915 297.7224,489.69815 297.7224,489.69815 C297.7224,489.69815 302.2029,492.04865 299.9169,497.17865 C302.1534,501.70865 299.7774,504.22865 299.7774,504.22865 C299.7774,504.22865 302.8764,507.53015 299.2674,510.82265 C295.6569,514.11665 286.7079,514.15865 287.4144,507.87365 C283.5189,504.81215 286.1124,501.12515 286.1124,501.12515 C286.1124,501.12515 283.2084,498.13265 285.8139,494.60915 C283.0794,493.40015 282.5229,490.99715 283.4019,489.93065"/><path id="Stroke-106" fill="#965C56" fill-rule="nonzero" d="M294.360479,487.737325 C294.612252,487.555335 294.963885,487.611906 295.145875,487.863679 C295.307643,488.087477 295.28092,488.390177 295.096156,488.582498 L295.019521,488.649075 L286.144021,495.064575 C285.892248,495.246565 285.540615,495.189994 285.358625,494.938221 C285.196857,494.714423 285.22358,494.411723 285.408344,494.219402 L285.484979,494.152825 L294.360479,487.737325 Z"/><path id="Stroke-108" fill="#965C56" fill-rule="nonzero" d="M295.114075,479.239257 C297.722499,479.153074 298.820059,481.31508 298.845895,484.744727 C298.854419,485.87614 298.74537,487.080926 298.558568,488.281958 C298.527167,488.483849 298.494636,488.678426 298.461526,488.864556 L298.36101,489.396471 L298.344,489.477 L298.546513,489.656293 C298.90287,489.979374 299.25863,490.350833 299.591494,490.767039 C301.106148,492.660932 301.655022,494.78976 300.646877,496.981885 L300.553,497.172 L300.560813,497.184016 C301.901987,499.713812 301.889069,501.846259 301.001726,503.510764 L300.899558,503.69378 C300.763456,503.926908 300.625759,504.123323 300.496708,504.283367 L300.366,504.435 L300.806942,508.545957 C300.836761,508.823957 300.658673,509.07634 300.397577,509.14819 L300.307643,509.165242 C300.029643,509.195061 299.77726,509.016973 299.70541,508.755877 L299.688358,508.665943 L299.218858,504.288943 C299.199168,504.105372 299.270813,503.923825 299.410561,503.803175 C299.525348,503.704074 299.723486,503.476904 299.928007,503.126581 C300.74994,501.718698 300.777349,499.851446 299.426104,497.453604 C299.329714,497.282556 299.329485,497.073626 299.425501,496.902368 C300.487618,495.00793 300.078018,493.176591 298.712913,491.469691 C298.41991,491.103326 298.105098,490.774623 297.790882,490.489747 L297.59036,490.313665 C297.502217,490.238989 297.433336,490.184623 297.388591,490.151747 C297.206998,490.018321 297.122556,489.789399 297.17401,489.570011 L297.2361,489.282955 L297.257978,489.175232 C297.32231,488.854494 297.386754,488.495979 297.446933,488.10906 C297.625123,486.9634 297.728937,485.816449 297.720927,484.753202 C297.699245,481.875008 296.902613,480.305777 295.151225,480.363643 C294.840734,480.373902 294.580715,480.130516 294.570457,479.820025 C294.560198,479.509534 294.803584,479.249515 295.114075,479.239257 Z"/><path id="Stroke-110" fill="#965C56" fill-rule="nonzero" d="M294.738063,497.136957 C295.027263,497.023497 295.353683,497.165963 295.467143,497.455163 C295.569257,497.715443 295.464071,498.005871 295.231186,498.144066 L295.148937,498.184243 L286.316937,501.649243 C286.027737,501.762703 285.701317,501.620237 285.587857,501.331037 C285.485743,501.070757 285.590929,500.780329 285.823814,500.642134 L285.906063,500.601957 L294.738063,497.136957 Z"/><path id="Stroke-112" fill="#965C56" fill-rule="nonzero" d="M295.859408,504.871818 C296.158074,504.786328 296.469493,504.959142 296.554982,505.257808 C296.631923,505.526607 296.499638,505.805737 296.254684,505.921196 L296.168992,505.953382 L287.569492,508.414882 C287.270826,508.500372 286.959407,508.327558 286.873918,508.028892 C286.796977,507.760093 286.929262,507.480963 287.174216,507.365504 L287.259908,507.333318 L295.859408,504.871818 Z"/><path id="Fill-114" fill="#CE998A" d="M227.2266,489.93065 C227.2266,489.93065 218.7051,479.79065 215.4966,479.802639 C210.5226,479.81915 212.9061,489.69815 212.9061,489.69815 C212.9061,489.69815 208.4256,492.04865 210.7131,497.17865 C208.4766,501.70865 210.8511,504.22865 210.8511,504.22865 C210.8511,504.22865 207.7521,507.53015 211.3611,510.82265 C214.9716,514.11665 223.9221,514.15865 223.2141,507.87365 C227.1111,504.81215 224.5161,501.12515 224.5161,501.12515 C224.5161,501.12515 227.4201,498.13265 224.8146,494.60915 C227.5491,493.40015 228.1056,490.99715 227.2266,489.93065"/><path id="Stroke-116" fill="#965C56" fill-rule="nonzero" d="M215.482625,487.863679 C215.644394,487.639881 215.940202,487.570317 216.180768,487.685438 L216.268021,487.737325 L225.143521,494.152825 C225.395294,494.334815 225.451865,494.686448 225.269875,494.938221 C225.108106,495.162019 224.812298,495.231583 224.571732,495.116462 L224.484479,495.064575 L215.608979,488.649075 C215.357206,488.467085 215.300635,488.115452 215.482625,487.863679 Z"/><path id="Stroke-118" fill="#965C56" fill-rule="nonzero" d="M215.514575,479.239257 C215.825066,479.249515 216.068452,479.509534 216.058193,479.820025 C216.047935,480.130516 215.787916,480.373902 215.477425,480.363643 C213.726037,480.305777 212.929405,481.875008 212.907723,484.753202 C212.899713,485.816449 213.003527,486.9634 213.181717,488.10906 L213.274637,488.666964 C213.306312,488.84505 213.338506,489.014863 213.370672,489.175232 L213.45464,489.570011 C213.506094,489.789399 213.421652,490.018321 213.240059,490.151747 L213.119869,490.245774 C213.045132,490.30676 212.949513,490.388445 212.837888,490.489649 C212.523761,490.774447 212.209038,491.103063 211.916118,491.469333 C210.55102,493.176263 210.141694,495.007655 211.204573,496.902233 C211.300687,497.073556 211.300462,497.282608 211.203979,497.453723 C209.85186,499.851749 209.878971,501.719042 210.700877,503.126882 C210.90531,503.477055 211.10336,503.704125 211.218089,503.803175 C211.334546,503.903717 211.403709,504.046548 211.412133,504.197598 L211.409792,504.288943 L210.940292,508.665943 C210.907159,508.974831 210.629896,509.198375 210.321007,509.165242 C210.043008,509.135422 209.834138,508.907857 209.819297,508.637463 L209.821708,508.545957 L210.262,504.435 L210.227025,504.396664 C210.102976,504.254828 209.967724,504.076718 209.831508,503.861994 L209.729325,503.694079 C208.77784,502.064283 208.683356,499.963839 209.925736,497.463388 L210.075,497.172 L209.983168,496.981986 C209.010254,494.868 209.485627,492.812841 210.878963,490.97051 L211.037529,490.766691 C211.287115,490.454606 211.549578,490.167687 211.815511,489.907465 L212.145741,489.599127 L212.284,489.477 L212.26764,489.396471 C212.217065,489.144317 212.166552,488.870608 212.117962,488.579167 L212.070082,488.281958 C211.88328,487.080926 211.774231,485.87614 211.782755,484.744727 C211.807911,481.405334 212.849126,479.267741 215.311778,479.237106 L215.514575,479.239257 Z"/><path id="Stroke-120" fill="#965C56" fill-rule="nonzero" d="M215.161507,497.455163 C215.263621,497.194883 215.538233,497.053458 215.802961,497.110488 L215.890587,497.136957 L224.722587,500.601957 C225.011787,500.715417 225.154253,501.041837 225.040793,501.331037 C224.938679,501.591317 224.664067,501.732742 224.399339,501.675712 L224.311713,501.649243 L215.479713,498.184243 C215.190513,498.070783 215.048047,497.744363 215.161507,497.455163 Z"/><path id="Stroke-122" fill="#965C56" fill-rule="nonzero" d="M214.073518,505.257808 C214.150458,504.989008 214.410402,504.822149 214.679349,504.853787 L214.769092,504.871818 L223.368592,507.333318 C223.667258,507.418807 223.840072,507.730226 223.754582,508.028892 C223.677642,508.297692 223.417698,508.464551 223.148751,508.432913 L223.059008,508.414882 L214.459508,505.953382 C214.160842,505.867893 213.988028,505.556474 214.073518,505.257808 Z"/></g></svg>