<?xml version="1.0" encoding="UTF-8"?>
<svg width="512px" height="1024px" viewBox="0 0 512 1024" version="1.1" xmlns="http://www.w3.org/2000/svg" xmlns:xlink="http://www.w3.org/1999/xlink">
    <!-- Generator: Sketch 61.2 (89653) - https://sketch.com -->
    <title>2.人物组件/6.产品经理/站立/思考</title>
    <desc>Created with Sketch.</desc>
    <defs>
        <polygon id="path-1" points="0.941746163 1.18808903 58.047 1.18808903 58.047 95.0442528 0.941746163 95.0442528"></polygon>
        <polygon id="path-3" points="0.192032185 1.368 72.3712173 1.368 72.3712173 77.6636455 0.192032185 77.6636455"></polygon>
        <polygon id="path-5" points="0 1.4946 53.11125 1.4946 53.11125 35.2452844 0 35.2452844"></polygon>
    </defs>
    <g id="2.人物组件/6.产品经理/站立/思考" stroke="none" stroke-width="1" fill="none" fill-rule="evenodd">
        <path d="M189.7623,399.80735 C189.7623,399.80735 182.3928,419.46935 200.5188,425.91635 C219.0018,432.49085 225.6813,412.30385 225.6813,412.30385 C225.6813,412.30385 231.0318,398.66735 236.9763,381.95435 C241.6188,368.89535 245.2338,358.89335 247.4118,350.25335 C249.7593,340.93085 247.7958,329.90435 239.3073,326.88485 C226.4058,322.29635 215.8863,329.47685 212.2758,338.33435 C208.7643,346.94735 204.3828,358.71335 200.7243,368.29385 C193.6878,386.71235 189.7623,399.80735 189.7623,399.80735" id="Fill-1" fill="#ADC6FF"></path>
        <g id="分组" transform="translate(288.000000, 323.132000)">
            <mask id="mask-2" fill="white">
                <use xlink:href="#path-1"></use>
            </mask>
            <g id="Clip-4"></g>
            <path d="M23.31645,82.9551 C23.31645,82.9551 30.17445,100.7256 48.06495,93.1761 C66.30795,85.4781 55.11645,57.3156 49.13295,42.4656 C44.45895,30.8616 42.93045,19.2936 39.15495,12.2001 C35.07945,4.5456 22.74195,-1.2894 14.36295,2.2461 C1.62945,7.6191 -0.82905,16.7916 1.99095,24.9606 C4.73145,32.9061 9.63495,48.3831 12.87045,57.0591 C19.09395,73.7406 23.31645,82.9551 23.31645,82.9551" id="Fill-3" fill="#ADC6FF" mask="url(#mask-2)"></path>
        </g>
        <g id="分组" transform="translate(237.000000, 227.132000)">
            <mask id="mask-4" fill="white">
                <use xlink:href="#path-3"></use>
            </mask>
            <g id="Clip-6"></g>
            <path d="M61.3497,61.7274 C61.3497,61.7274 72.4782,56.7684 69.8277,45.0144 C75.3192,35.5404 70.2087,29.0094 70.2087,29.0094 C70.2087,29.0094 71.0457,16.0599 62.5377,14.6424 C58.2132,0.9444 42.7122,4.9284 42.7122,4.9284 C42.7122,4.9284 33.7032,-3.7281 19.0332,5.9514 C8.9127,5.4999 9.2772,0.4869 5.7552,3.7104 C2.2302,6.9339 0.1227,14.9739 4.1892,18.5349 C-3.5343,21.1494 2.3127,33.5559 2.3127,33.5559 C2.3127,33.5559 -0.6828,40.2264 7.5057,46.0824 C15.6942,51.9414 17.6562,68.5269 31.5492,74.8149 C44.9142,80.8629 59.8617,77.6334 61.3497,61.7274" id="Fill-5" fill="#7D4556" mask="url(#mask-4)"></path>
        </g>
        <path d="M289.4493,312.58985 L289.6473,290.16035 L259.8048,291.49535 L257.9763,310.96685 C257.1603,319.66085 263.6703,327.31685 272.3838,327.90485 C272.5488,327.91685 272.7168,327.92735 272.8818,327.93935 C281.7918,328.54535 289.3698,321.51935 289.4493,312.58985" id="Fill-7" fill="#CE998A"></path>
        <path d="M286.1958,255.59345 C286.1958,255.59345 283.5813,263.26895 289.4388,265.86695 C287.2383,275.89895 291.7368,275.51345 291.7368,275.51345 C291.7368,275.51345 299.8008,267.31745 303.7383,275.72345 C307.4793,283.71095 298.2753,293.80145 291.1008,291.26345 C276.5868,309.51095 251.9298,307.69895 245.2728,293.89745 C241.2273,285.50945 244.3248,274.33745 244.3068,268.92095 C244.2678,255.60995 247.1433,251.90645 247.1433,251.90645 C247.1433,251.90645 252.0453,253.54745 258.0033,250.05245 C263.4048,255.09245 272.3448,251.72945 272.3448,251.72945 C272.3448,251.72945 277.1868,259.60745 286.1958,255.59345" id="Fill-9" fill="#CE998A"></path>
        <path d="M297.29349,276.521596 C298.926442,276.390803 300.007998,276.891248 300.560624,277.829076 C300.808679,278.250034 300.90824,278.671846 300.923423,279.025098 L300.924348,279.190719 C300.910585,279.501074 300.647836,279.74151 300.337481,279.727748 C300.058161,279.715361 299.835476,279.501296 299.803765,279.232358 L299.797398,279.04441 C299.783915,278.862814 299.724836,278.626687 299.591383,278.400212 C299.26825,277.851843 298.60537,277.545122 297.38331,277.643004 C296.165859,277.740517 295.065405,278.525907 294.338363,279.671256 C294.034176,280.150458 293.830432,280.648964 293.761285,281.055025 C293.71078,281.351609 293.742882,281.511252 293.753007,281.518672 C294.819684,282.300776 295.598225,283.328915 295.764656,284.374435 C295.978104,285.715323 295.192702,286.894073 293.427266,287.73062 C293.146529,287.863647 292.811106,287.743904 292.67808,287.463166 C292.545053,287.182429 292.664796,286.847006 292.945534,286.71398 C294.295005,286.074536 294.780203,285.346338 294.653644,284.55129 C294.541443,283.846442 293.937619,283.049034 293.087919,282.426021 C291.369848,281.167041 294.159324,276.77263 297.29349,276.521596 Z" id="Stroke-11" fill="#965C56" fill-rule="nonzero"></path>
        <path d="M294.787154,280.408496 C295.322719,280.390771 295.950816,280.424962 296.563414,280.555888 C297.99049,280.860888 298.886663,281.626525 298.705925,282.956306 C298.664087,283.264136 298.380624,283.479764 298.072794,283.437925 C297.795747,283.40027 297.593383,283.1669 297.586182,282.896195 L297.591175,282.804794 C297.67185,282.211228 297.253451,281.853772 296.328285,281.656043 C295.922156,281.569243 295.492639,281.532924 295.105626,281.529528 L294.760866,281.535533 C294.450768,281.554209 294.184243,281.317964 294.165567,281.007866 C294.148759,280.728778 294.338436,280.484984 294.602601,280.425401 L294.706555,280.411806 L294.787154,280.408496 Z" id="Stroke-13" fill="#965C56" fill-rule="nonzero"></path>
        <path d="M264.4443,271.4204 C264.2043,276.8354 268.3983,281.4209 273.8118,281.6624 C279.2268,281.9024 283.8123,277.7084 284.0523,272.2949 C284.2938,266.8799 280.1013,262.2944 274.6863,262.0529 C269.2713,261.8114 264.6858,266.0054 264.4443,271.4204" id="Fill-15" fill="#FFFFFF"></path>
        <path d="M263.753478,271.389782 C263.496574,277.186185 267.985985,282.094694 273.780982,282.353213 C279.577853,282.610138 284.486213,278.120409 284.743121,272.325527 C285.00164,266.528928 280.513379,261.620591 274.717109,261.362087 C269.015617,261.10781 264.173178,265.447136 263.769933,271.105584 L263.753478,271.389782 Z M274.655491,262.743713 C279.688644,262.968184 283.585986,267.230295 283.361487,272.264091 C283.138405,277.295968 278.876169,281.194681 273.842418,280.971578 C268.810595,280.747105 264.912027,276.484596 265.135113,271.451209 C265.359598,266.417724 269.622027,262.519229 274.655491,262.743713 Z" id="Stroke-17" fill="#7D4556" fill-rule="nonzero"></path>
        <path d="M240.70665,269.44355 C240.46515,274.85855 244.66065,279.44405 250.07415,279.68405 C255.48915,279.92555 260.07465,275.73155 260.31465,270.31655 C260.55615,264.90155 256.36365,260.31755 250.94715,260.07605 C245.53365,259.83455 240.94815,264.02855 240.70665,269.44355" id="Fill-19" fill="#FFFFFF"></path>
        <path d="M240.015837,269.412741 C239.757333,275.209002 244.248086,280.117939 250.043523,280.374871 C255.840126,280.63339 260.748567,276.143588 261.005472,270.347168 C261.263991,264.550559 256.775709,259.643735 250.977951,259.385236 C245.182709,259.126707 240.274342,263.616442 240.015837,269.412741 Z M250.916332,260.766863 C255.951076,260.991342 259.848332,265.252026 259.623837,270.285741 C259.400752,275.319089 255.138596,279.217729 250.104959,278.993237 C245.072557,278.770132 241.172996,274.507441 241.397463,269.474359 C241.621939,264.441081 245.884168,260.542375 250.916332,260.766863 Z" id="Stroke-21" fill="#7D4556" fill-rule="nonzero"></path>
        <path d="M262.260747,269.516113 C262.508715,269.703253 262.558027,270.055978 262.370887,270.303947 L262.17831,270.564953 C262.022929,270.77819 261.849556,271.021164 261.662716,271.289355 C261.128734,272.055839 260.594751,272.86947 260.097112,273.69363 C259.688031,274.371125 259.321475,275.0267 259.008268,275.649015 L258.764917,276.149435 C257.924561,277.942751 257.657773,279.270384 258.041139,279.850405 C258.595072,280.688352 259.42067,281.207462 260.46646,281.462273 C261.397888,281.689219 262.40905,281.688245 263.356415,281.548191 L263.607115,281.507379 C263.715343,281.487945 263.797044,281.470562 263.848417,281.457913 C264.150068,281.38364 264.454815,281.567966 264.529087,281.869617 C264.60336,282.171268 264.419034,282.476015 264.117383,282.550287 L263.935007,282.590254 C263.824291,282.6123 263.685078,282.63683 263.520942,282.661095 C262.442172,282.820576 261.293438,282.821682 260.20014,282.555295 C258.895797,282.237487 257.825803,281.564708 257.102638,280.47076 C256.368696,279.360329 256.790894,277.55232 258.003365,275.143253 C258.330502,274.493261 258.710896,273.812937 259.134056,273.112124 C259.517587,272.476943 259.921215,271.849236 260.329867,271.243776 L260.739636,270.646278 C260.883292,270.440074 261.019319,270.248218 261.145827,270.072583 L261.472913,269.626253 C261.660053,269.378285 262.012778,269.328973 262.260747,269.516113 Z" id="Stroke-23" fill="#965C56" fill-rule="nonzero"></path>
        <path d="M270.5601,285.93335 C270.5601,285.93335 261.4416,286.56635 255.0081,285.24035 C255.0081,285.24035 256.5336,291.80135 263.0481,291.31235 C268.8351,290.87735 270.5601,285.93335 270.5601,285.93335" id="Fill-25" fill="#FFFFFF"></path>
        <path d="M255.127403,284.661517 C254.705149,284.574487 254.334818,284.954266 254.432455,285.374193 C254.483008,285.591614 254.592047,285.952577 254.772736,286.41021 C255.071803,287.167657 255.469126,287.924905 255.97969,288.634529 C257.588292,290.870302 259.935173,292.138679 263.092338,291.901692 C265.677277,291.707386 267.711349,290.661302 269.239741,289.044023 C269.835679,288.413426 270.312534,287.738555 270.682782,287.062448 C270.907641,286.651835 271.0489,286.326405 271.11811,286.128044 C271.257894,285.727412 270.942471,285.314384 270.519172,285.343769 L270.140362,285.366887 C269.830271,285.384417 269.47375,285.401966 269.076191,285.418356 C266.045709,285.54329 262.781641,285.529501 259.723922,285.282568 C258.026072,285.145454 256.481736,284.940657 255.127403,284.661517 Z M256.012085,286.311812 L255.884,286.005 L255.977543,286.021899 C257.099918,286.210102 258.321634,286.355171 259.628776,286.460733 C262.741655,286.71212 266.050466,286.726098 269.124879,286.599353 L269.598,286.578 L269.646054,286.494717 C269.322006,287.086458 268.903016,287.679435 268.380666,288.232164 C267.046349,289.644082 265.281291,290.551817 263.0038,290.723013 C260.286357,290.926993 258.321003,289.864813 256.939158,287.944207 C256.564834,287.42394 256.257597,286.870576 256.012085,286.311812 Z" id="Stroke-27" fill="#965C56" fill-rule="nonzero"></path>
        <path d="M258.22415,257.774842 C258.525399,257.649197 258.871464,257.791552 258.997108,258.0928 C259.122753,258.394049 258.980398,258.740114 258.67915,258.865758 C255.442063,260.215882 251.509644,260.417085 247.583685,259.14659 C247.273141,259.046093 247.102864,258.712879 247.20336,258.402335 C247.303857,258.091791 247.637071,257.921514 247.947615,258.02201 C251.601209,259.204365 255.243513,259.018006 258.22415,257.774842 Z" id="Stroke-29" fill="#7D4556" fill-rule="nonzero"></path>
        <path d="M261.74229,267.339175 C262.691095,267.32197 263.696455,267.422481 264.695569,267.600192 C264.910246,267.638377 265.114384,267.678405 265.305951,267.719101 L265.871584,267.84997 L265.931012,267.865555 L265.570888,269.200845 L265.374236,269.151825 L265.273497,269.12828 C265.027474,269.07167 264.751672,269.014879 264.453376,268.961821 C263.535565,268.79857 262.615341,268.706571 261.767365,268.721948 C261.244468,268.73143 260.76892,268.782149 260.351776,268.876687 L260.108586,268.938689 L259.729314,267.608711 C260.327925,267.438005 261.003145,267.352579 261.74229,267.339175 Z" id="Stroke-31" fill="#7D4556" fill-rule="nonzero"></path>
        <path d="M250.621426,267.527694 C252.224531,267.599579 253.326989,268.407323 253.958014,269.666772 C254.342011,270.433183 254.483611,271.185148 254.500597,271.716923 C254.512791,272.098633 254.213238,272.417954 253.831527,272.430147 C253.481626,272.441324 253.184149,272.190548 253.127608,271.854661 L253.108346,271.631924 C253.099514,271.549685 253.084384,271.442349 253.060628,271.316193 C252.993974,270.962227 252.883361,270.60928 252.721532,270.286289 C252.303016,269.450981 251.629172,268.957272 250.559806,268.909321 C249.482046,268.861513 248.812829,269.347906 248.390436,270.254 C248.239239,270.578339 248.133681,270.933085 248.067799,271.288904 L248.030909,271.516395 C248.017265,271.615815 248.010381,271.692367 248.008262,271.739842 C247.991228,272.121367 247.668132,272.416846 247.286608,272.399812 C246.905083,272.382778 246.609604,272.059682 246.626638,271.678158 C246.649821,271.158894 246.786282,270.421887 247.136946,269.669661 C247.750205,268.354133 248.829478,267.53017 250.394539,267.52311 L250.621426,267.527694 Z" id="Stroke-33" fill="#7D4556" fill-rule="nonzero"></path>
        <path d="M273.98143,268.574161 L274.208326,268.578744 C275.811431,268.650629 276.913889,269.458373 277.544914,270.717822 C277.928911,271.484233 278.070511,272.236198 278.087497,272.767973 C278.099691,273.149683 277.800138,273.469004 277.418427,273.481197 C277.068526,273.492374 276.771049,273.241598 276.714508,272.905711 L276.695246,272.682974 C276.686414,272.600735 276.671284,272.493399 276.647528,272.367243 C276.580874,272.013277 276.470261,271.66033 276.308432,271.337339 C275.889916,270.502031 275.216072,270.008322 274.146706,269.960371 C273.069028,269.912566 272.400165,270.398857 271.978208,271.304833 C271.827159,271.629149 271.721754,271.983877 271.656023,272.33968 L271.619228,272.567166 C271.614694,272.600305 271.61091,272.630903 271.607802,272.658731 L271.596675,272.790607 C271.579798,273.172139 271.256824,273.467751 270.875293,273.450875 C270.493761,273.433998 270.198149,273.111024 270.215025,272.729493 C270.237995,272.210214 270.374151,271.47319 270.724516,270.720928 C271.337273,269.405287 272.416318,268.581226 273.98143,268.574161 Z" id="Stroke-35" fill="#7D4556" fill-rule="nonzero"></path>
        <g id="分组" transform="translate(283.500000, 270.632000)">
            <line x1="0.55275" y1="1.66215" x2="10.24425" y2="2.09415" id="Fill-37" fill="#FFFFFF"></line>
            <line x1="0.55275" y1="1.66215" x2="10.24425" y2="2.09415" id="Stroke-39" stroke="#7D4556" stroke-width="1.383"></line>
        </g>
        <path d="M268.814939,258.196697 C268.975491,257.912513 269.336019,257.812288 269.620203,257.972839 C270.728244,258.598832 272.090752,259.102617 273.650256,259.492561 C275.273705,259.898495 277.019415,260.160685 278.766091,260.306747 C279.255663,260.347686 279.717081,260.376964 280.14269,260.396439 L280.455062,260.409237 C280.758618,260.420187 280.973641,260.423854 281.085243,260.4239 C281.411644,260.424034 281.676134,260.688743 281.676,261.015143 C281.675866,261.341544 281.411157,261.606034 281.084757,261.6059 L280.564002,261.595592 L280.412451,261.590469 C279.885413,261.571456 279.29891,261.537428 278.667593,261.484636 C276.862031,261.33365 275.055504,261.062326 273.363531,260.639258 C271.708514,260.225431 270.249552,259.685982 269.038797,259.001961 C268.754613,258.841409 268.654388,258.480881 268.814939,258.196697 Z" id="Stroke-40" fill="#7D4556" fill-rule="nonzero"></path>
        <path d="M260.83211,297.923382 C261.111589,297.931415 261.337582,298.141984 261.37348,298.410396 L261.377473,298.536673 L261.376839,298.571306 C261.372478,298.854492 261.376416,299.219366 261.395071,299.634842 C261.422466,300.244941 261.477152,300.844879 261.564925,301.402381 C261.764448,302.669674 262.116171,303.550134 262.553221,303.83384 C262.813794,304.002989 262.887908,304.351347 262.71876,304.611921 C262.549611,304.872494 262.201253,304.946608 261.940679,304.77746 C261.14723,304.2624 260.700147,303.143227 260.453614,301.577346 C260.358705,300.974517 260.300342,300.334251 260.271204,299.685305 L260.254555,299.184831 C260.25121,299.027703 260.249926,298.88091 260.250276,298.746368 L260.253682,298.46949 C260.262607,298.158958 260.521578,297.914457 260.83211,297.923382 Z" id="Stroke-42" fill="#965C56" fill-rule="nonzero"></path>
        <path d="M258.732547,299.701069 C259.042562,299.721088 259.27765,299.988633 259.257631,300.298647 L259.242143,300.622391 C259.214616,301.343186 259.219014,302.123596 259.276984,302.850598 C259.319099,303.378759 259.38749,303.837907 259.483456,304.20442 C259.562145,304.50495 259.382309,304.812367 259.08178,304.891056 C258.78125,304.969745 258.473833,304.789909 258.395144,304.48938 C258.280146,304.05018 258.2025,303.528898 258.155543,302.940019 C258.093522,302.162203 258.088892,301.340674 258.117962,300.579459 L258.134969,300.226153 C258.154988,299.916138 258.422533,299.68105 258.732547,299.701069 Z" id="Stroke-44" fill="#965C56" fill-rule="nonzero"></path>
        <path d="M263.250674,300.436084 C263.553638,300.367366 263.854947,300.557259 263.923666,300.860224 L263.986919,301.113906 C264.006185,301.186696 264.028871,301.269566 264.054874,301.360785 C264.163283,301.741092 264.289257,302.120936 264.430273,302.472133 C264.683011,303.10157 264.956837,303.55726 265.186925,303.741328 L265.254574,303.788301 C265.522901,303.94486 265.613507,304.289297 265.456949,304.557624 C265.30039,304.825951 264.955953,304.916557 264.687626,304.759999 C264.16132,304.45292 263.752673,303.803795 263.386289,302.891324 C263.22918,302.500049 263.091327,302.084388 262.972972,301.669189 L262.868933,301.284341 C262.851169,301.214247 262.837012,301.155271 262.826534,301.109076 C262.757816,300.806112 262.947709,300.504803 263.250674,300.436084 Z" id="Stroke-46" fill="#965C56" fill-rule="nonzero"></path>
        <path d="M256.970158,299.137458 L257.060815,299.150121 C257.333713,299.210943 257.515733,299.460506 257.500142,299.730858 L257.487479,299.821515 L256.747979,303.139515 C256.680399,303.442735 256.379805,303.63376 256.076585,303.566179 C255.803687,303.505357 255.621667,303.255794 255.637258,302.985442 L255.649921,302.894785 L256.389421,299.576785 C256.450243,299.303887 256.699806,299.121867 256.970158,299.137458 Z" id="Stroke-48" fill="#965C56" fill-rule="nonzero"></path>
        <path d="M276.335031,300.333479 C276.606767,300.182915 276.949108,300.281145 277.099671,300.552881 C277.250235,300.824617 277.152005,301.166958 276.880269,301.317521 C276.436786,301.563247 275.987724,301.796351 275.533323,302.017055 C269.502216,304.946378 263.143446,305.540078 257.503877,304.807872 C257.170526,304.764591 256.865022,304.718916 256.589154,304.672556 L256.20626,304.604333 L255.891995,304.5404 C255.589123,304.471279 255.399629,304.169718 255.46875,303.866845 C255.537871,303.563973 255.839432,303.374479 256.142305,303.4436 L256.524882,303.519252 C256.847579,303.578046 257.223631,303.637044 257.648724,303.692235 C263.089283,304.398604 269.236765,303.824631 275.041816,301.005103 C275.478143,300.793178 275.909288,300.569374 276.335031,300.333479 Z" id="Stroke-50" fill="#965C56" fill-rule="nonzero"></path>
        <path d="M268.923929,281.759639 C269.049911,281.475671 269.382242,281.347597 269.666211,281.473579 L270.064635,281.662515 C270.18965,281.724544 270.332358,281.797424 270.489692,281.880602 C271.100347,282.203436 271.711239,282.567946 272.284095,282.968206 C274.346278,284.409075 275.448569,285.946595 274.926752,287.574455 C274.831922,287.870288 274.515227,288.033233 274.219395,287.938402 C273.953145,287.853055 273.794535,287.587998 273.834607,287.320178 L273.855448,287.231045 C274.171656,286.244601 273.331108,285.072171 271.639749,283.890401 C271.108433,283.519165 270.536283,283.177772 269.963896,282.875169 L269.569447,282.672677 C269.416057,282.596491 269.293756,282.539084 269.209989,282.501921 C268.926021,282.375939 268.797947,282.043608 268.923929,281.759639 Z" id="Stroke-52" fill="#965C56" fill-rule="nonzero"></path>
        <path d="M293.211,318.18485 L291.315,312.71585 L254.4405,313.72235 L252.9585,318.90185 C252.9585,318.90185 231.8475,323.92985 224.244,328.15235 C213.5025,334.12085 225.534,404.19935 225.7935,418.11035 C216.912,434.09735 233.0145,439.01135 233.0145,439.01135 L305.7555,439.50935 C305.7555,439.50935 320.406,433.47185 313.077,422.05235 C316.0785,401.62685 328.9035,336.51785 320.961,328.57535 C315.3285,322.94285 293.211,318.18485 293.211,318.18485" id="Fill-54" fill="#ADC6FF"></path>
        <path d="M228.655117,348.285931 C228.964711,348.311649 229.194838,348.583474 229.169119,348.893067 L229.051992,350.331772 L228.765991,354.068476 C228.516412,357.457662 228.256925,361.30089 227.990436,365.520383 L227.933226,366.430291 C227.653813,370.893873 227.377525,375.589527 227.110647,380.348494 L226.655661,388.686862 L226.354851,394.48804 C226.339365,394.798314 226.075284,395.037287 225.76501,395.021801 C225.454736,395.006315 225.215763,394.742234 225.231249,394.43196 L225.570662,387.905138 L225.887755,382.073321 C226.152301,377.299002 226.427055,372.566807 226.705743,368.045346 L226.98156,363.662597 C227.227327,359.842285 227.466727,356.355829 227.697459,353.265213 L227.930579,350.241999 C227.970067,349.747494 228.009204,349.266718 228.047981,348.799933 C228.073699,348.490339 228.345524,348.260212 228.655117,348.285931 Z" id="Stroke-56" fill="#597EF7" fill-rule="nonzero"></path>
        <path d="M288.738954,319.457469 C289.038585,319.375429 289.347991,319.551822 289.430031,319.851454 C289.512071,320.151085 289.335678,320.460491 289.036046,320.542531 C285.862931,321.411338 282.205125,321.982121 278.155403,322.28989 C272.114106,322.749013 265.657114,322.605666 259.440077,322.088572 L258.399674,321.998042 C257.725218,321.936704 257.089715,321.873626 256.497159,321.810187 L255.567327,321.706295 L254.81282,321.613535 C254.50491,321.572291 254.288735,321.289245 254.32998,320.981335 C254.371224,320.673425 254.65427,320.45725 254.96218,320.498494 L255.933911,320.616146 L257.065288,320.738644 C257.825184,320.816852 258.650475,320.894013 259.533325,320.967443 C265.695824,321.480001 272.096592,321.622099 278.070151,321.168125 C282.053214,320.865422 285.642112,320.305391 288.738954,319.457469 Z" id="Stroke-58" fill="#597EF7" fill-rule="nonzero"></path>
        <path d="M287.18876,407.043649 C287.47871,406.93212 287.804173,407.07676 287.915701,407.36671 C288.02723,407.65666 287.88259,407.982123 287.59264,408.093651 C283.705145,409.588964 277.353931,410.759048 269.200989,411.654112 C264.313021,412.190734 259.078243,412.595365 253.843794,412.886602 L252.495137,412.959056 C251.833748,412.993308 251.192276,413.024626 250.573015,413.05313 L248.171763,413.154224 L246.861762,413.199421 C246.551228,413.208291 246.2923,412.963745 246.283429,412.653212 C246.274559,412.342678 246.519105,412.08375 246.829638,412.074879 L248.129417,412.030022 L250.521508,411.929309 C251.550035,411.881967 252.640179,411.826829 253.781297,411.763339 C258.997115,411.473139 264.212605,411.069998 269.07822,410.535831 L270.369769,410.389927 C277.811245,409.524897 283.621289,408.415865 287.18876,407.043649 Z" id="Stroke-60" fill="#965C56" fill-rule="nonzero"></path>
        <path d="M313.76415,601.769 C314.74665,562.5245 315.36315,521.945 315.11565,489.6545 C315.11565,489.6545 310.98165,466.205 289.56165,469.9085 C268.56615,473.54 268.24665,499.988 268.24665,499.988 L275.77065,606.4745 C275.77065,606.4745 277.52415,621.059 296.35215,619.556 C313.52415,618.185 313.76415,601.769 313.76415,601.769" id="Fill-62" fill="#597EF7"></path>
        <path d="M298.76715,699.0347 L298.76715,699.0347 C291.37065,697.7432 284.70315,703.6817 285.15165,711.1772 C285.66615,719.7992 286.30065,731.4512 286.81515,744.0077 C287.34615,756.9317 287.81115,767.6402 288.77115,768.9782 C292.99515,774.8717 301.19715,776.8982 309.71565,782.6282 C316.45665,787.1642 317.65665,789.3692 326.13615,790.7402 C338.15865,792.6812 332.45415,787.7462 318.76665,772.0232 C306.57315,758.0162 307.20315,751.2872 307.20315,751.2872 L308.39565,710.8397 C308.56515,705.0587 304.46415,700.0292 298.76715,699.0347" id="Fill-64" fill="#CE998A"></path>
        <path d="M317.4717,768.25505 C326.3547,777.64655 336.4527,784.99505 336.3252,789.56405 C336.1977,794.13155 332.7042,798.34355 317.6892,793.43255 C307.4127,790.07255 310.2732,787.81505 300.3927,781.73105 C295.4592,778.69355 293.6982,779.07755 289.1292,775.51355 C286.4832,772.27805 287.2362,756.22355 287.2362,756.22355 L304.7412,774.46955 C304.7412,774.46955 300.0942,765.88355 303.6867,763.90805 C307.2792,761.93255 310.5987,760.56605 312.7842,762.05705 C314.9697,763.54955 317.4717,768.25505 317.4717,768.25505" id="Fill-66" fill="#7D4556"></path>
        <path d="M314.1582,604.38605 C312.0642,672.31805 309.4572,743.33405 309.4572,743.33405 L285.0207,741.35705 L275.9547,605.90855 C275.9547,605.90855 277.1997,585.50405 296.0862,585.321494 C313.1292,585.15755 314.1582,604.38605 314.1582,604.38605" id="Fill-68" fill="#597EF7"></path>
        <path d="M213.7242,604.52 C217.9362,565.4885 222.6867,525.185 227.1972,493.2095 C227.1972,493.2095 234.3957,470.513 255.1362,477.014 C275.4687,483.3875 272.2902,509.645 272.2902,509.645 L251.2737,612.3875 C251.2737,612.3875 247.0992,628.43 228.6342,624.452 C211.7937,620.8235 213.7242,604.52 213.7242,604.52" id="Fill-70" fill="#597EF7"></path>
        <path d="M215.73825,702.9143 L215.73825,702.9143 C223.24125,702.6113 229.06575,709.3793 227.63175,716.7488 C225.98175,725.2283 223.81275,736.6943 221.64375,749.0723 C219.40875,761.8133 217.53225,772.3658 216.40575,773.5658 C211.43925,778.8488 203.04075,779.7743 193.83975,784.3283 C186.56025,787.9343 185.08125,789.9623 176.49225,790.1993 C164.31975,790.5353 170.62575,786.3968 186.26925,772.6193 C200.20725,760.3463 200.47125,753.5948 200.47125,753.5948 L204.63525,713.3423 C205.22925,707.5898 209.95875,703.1483 215.73825,702.9143" id="Fill-72" fill="#CE998A"></path>
        <g id="分组" transform="translate(166.500000, 759.632000)">
            <mask id="mask-6" fill="white">
                <use xlink:href="#path-5"></use>
            </mask>
            <g id="Clip-75"></g>
            <path d="M21.55275,9.4251 C11.50575,17.5596 0.52425,23.5101 0.04725,28.0551 C-0.42975,32.6001 2.47725,37.2366 18.01125,34.3521 C28.64025,32.3796 26.10225,29.7636 36.69975,25.0386 C41.99175,22.6791 43.68675,23.2941 48.68625,20.3631 C51.73875,17.5071 53.11125,1.4946 53.11125,1.4946 L33.35025,17.2656 C33.35025,17.2656 39.09075,9.3696 35.79075,6.9366 C32.49075,4.5036 29.38125,2.7111 27.01725,3.9006 C24.65325,5.0901 21.55275,9.4251 21.55275,9.4251" id="Fill-74" fill="#7D4556" mask="url(#mask-6)"></path>
        </g>
        <path d="M213.2949,607.955 C206.3949,675.5675 199.5954,746.306 199.5954,746.306 L224.0784,747.575 L250.9629,614.5115 C250.9629,614.5115 252.4239,594.122 233.7264,591.446 C216.8559,589.031 213.2949,607.955 213.2949,607.955" id="Fill-76" fill="#597EF7"></path>
        <path d="M314.76615,494.6948 C315.89265,471.0443 310.70715,454.2428 307.86465,449.4818 C246.79215,451.2278 231.57765,450.4253 231.57765,450.4253 C231.57765,450.4253 227.85015,465.2153 227.09715,494.9633 C227.09715,494.9633 246.94365,521.2463 271.20915,521.2463 C293.08665,521.2463 314.76615,494.6948 314.76615,494.6948" id="Fill-78" fill="#597EF7"></path>
        <path d="M307.86525,449.4824 L306.71025,437.9894 L231.92475,438.8864 L231.57675,450.3974 C231.57675,450.3974 271.15575,451.9214 307.86525,449.4824" id="Fill-80" fill="#597EF7"></path>
        <path d="M264.733748,451.21025 C265.044408,451.21025 265.296539,451.461438 265.2969,451.772098 L265.312397,455.001148 L265.339598,458.22116 C265.353503,459.617673 265.370719,461.080287 265.391601,462.599817 L265.404574,463.518292 C265.53236,472.328941 265.7542,481.139424 266.092884,489.361436 L266.194981,491.740836 C266.696169,502.958292 267.389927,511.997387 268.302757,518.123347 C268.348543,518.430615 268.13657,518.716821 267.829303,518.762607 C267.522035,518.808393 267.235829,518.59642 267.190043,518.289153 L267.063151,517.409142 C266.143206,510.818862 265.455787,501.229115 264.968837,489.407738 C264.655782,481.807892 264.442471,473.707966 264.310894,465.569704 L264.254603,461.709547 C264.235154,460.211689 264.219304,458.772614 264.206695,457.401503 L264.171899,451.773402 C264.17154,451.462742 264.423088,451.21025 264.733748,451.21025 Z" id="Stroke-82" fill="#1D39C4" fill-rule="nonzero"></path>
        <path d="M275.430306,451.45528 C275.740904,451.461829 275.987654,451.718658 275.981437,452.029256 L275.947945,454.319209 C275.874493,460.691835 275.906856,467.724072 276.116904,474.46603 L276.173159,476.144922 C276.369313,481.606568 276.676648,486.344583 277.110242,490.148459 L277.173045,490.685493 L277.175316,490.796631 C276.852477,494.89894 274.914178,497.989056 271.900749,500.186414 C270.745483,501.028822 269.510439,501.679652 268.275125,502.164088 C267.842041,502.333925 267.439076,502.471056 267.07608,502.578453 L266.744579,502.671075 C266.686244,502.686188 266.638445,502.697748 266.601815,502.70594 C266.298644,502.773741 265.997911,502.582936 265.93011,502.279765 C265.862309,501.976594 266.053114,501.675861 266.356285,501.60806 L266.550551,501.558563 C266.609412,501.542473 266.678413,501.522902 266.756912,501.499677 C267.089853,501.401173 267.462362,501.274406 267.864402,501.116743 C269.015158,500.665467 270.166185,500.058911 271.237918,499.277415 C273.908595,497.329987 275.640202,494.646398 276.019398,491.080418 L276.049,490.756 L275.992676,490.277583 C275.59791,486.814906 275.307677,482.597018 275.109916,477.773923 L275.048884,476.1853 C274.808037,469.479239 274.751417,462.407377 274.806865,455.916351 L274.856663,452.006744 C274.862879,451.696146 275.119708,451.449396 275.430306,451.45528 Z" id="Stroke-84" fill="#1D39C4" fill-rule="nonzero"></path>
        <path d="M301.182509,451.697299 C301.49313,451.692433 301.748941,451.940238 301.753879,452.250859 L301.766902,452.654701 C301.772603,452.788736 301.780327,452.946857 301.790502,453.12745 C301.830263,453.833116 301.894207,454.620264 301.987723,455.468301 C302.254731,457.889615 302.704373,460.309968 303.378136,462.563149 C304.922702,467.728448 307.39085,471.203939 310.929057,472.275967 C311.22637,472.366049 311.394365,472.680094 311.304283,472.977407 C311.214201,473.27472 310.900156,473.442715 310.602843,473.352633 C306.619502,472.145735 303.941916,468.375327 302.300293,462.885454 C301.605043,460.560416 301.143413,458.075534 300.869502,455.591612 C300.792857,454.896576 300.735569,454.241055 300.694804,453.635434 L300.642741,452.698169 C300.634805,452.510776 300.630573,452.366368 300.628949,452.268741 C300.624083,451.95812 300.871888,451.702309 301.182509,451.697299 Z" id="Stroke-86" fill="#1D39C4" fill-rule="nonzero"></path>
        <path d="M238.265018,453.02735 C238.544605,453.025311 238.778047,453.227592 238.823603,453.494534 L238.831635,453.585718 L238.831737,453.787091 C238.829142,454.550071 238.794143,455.666903 238.70071,457.023984 C238.537502,459.394529 238.239121,461.756175 237.771363,463.966169 C236.545052,469.760053 234.380794,473.591887 230.941798,474.483353 C230.641077,474.561307 230.334101,474.380718 230.256147,474.079998 C230.178193,473.779277 230.358782,473.472301 230.659502,473.394347 C233.547393,472.64574 235.525706,469.143121 236.670745,463.733217 C237.126473,461.580067 237.418504,459.268682 237.578367,456.946713 L237.619495,456.302033 C237.668277,455.470326 237.693476,454.752921 237.702698,454.183837 L237.706665,453.593982 C237.704383,453.28333 237.954366,453.029647 238.265018,453.02735 Z" id="Stroke-88" fill="#1D39C4" fill-rule="nonzero"></path>
        <path d="M251.389132,515.718774 C251.487149,515.423982 251.805584,515.264464 252.100376,515.362482 L252.898759,515.624891 C253.539111,515.833989 254.260634,516.067022 255.04761,516.318 C257.296089,517.035072 259.618006,517.752131 261.887412,518.421214 C262.674802,518.653358 263.443739,518.876074 264.191045,519.088153 C266.364912,519.705077 268.315395,520.220723 269.985722,520.6137 C270.195818,520.663129 270.356289,520.827281 270.404476,521.032403 L270.418071,521.122606 L285.548,740.835 L309.50226,742.773082 C309.780944,742.795628 309.995688,743.017659 310.017588,743.287573 L310.017588,743.37911 C309.995022,743.657794 309.772991,743.872538 309.503077,743.894438 L309.41154,743.894438 L284.97504,741.917418 C284.72846,741.897469 284.527797,741.719901 284.472821,741.485684 L284.459229,741.395394 L269.323,521.611 L269.213139,521.585943 C267.818074,521.248637 266.249009,520.834304 264.533876,520.353719 L263.883908,520.170415 L262.353983,519.730302 C262.094529,519.654708 261.83292,519.578024 261.569271,519.500293 C259.291199,518.828655 256.961616,518.109229 254.705793,517.389815 L252.944817,516.823073 L251.745424,516.430018 C251.450632,516.332001 251.291114,516.013566 251.389132,515.718774 Z" id="Stroke-90" fill="#1D39C4" fill-rule="nonzero"></path>
        <path d="M264.63045,322.30475 C264.63045,322.30475 277.96995,332.41025 284.95095,328.79225 C291.27495,325.51475 287.80695,319.70675 287.80695,319.70675 C287.80695,319.70675 285.00195,310.40525 279.67845,304.36775 C276.19095,300.41075 270.68145,291.89825 268.17495,293.14025 C264.91095,294.75875 271.96245,302.54225 270.82095,304.93475 C268.50795,309.78725 256.12245,298.71125 253.15095,297.99275 C247.34145,296.58875 248.53845,310.30475 264.63045,322.30475" id="Fill-92" fill="#CE998A"></path>
        <path d="M268.791244,293.522715 C270.37475,292.738548 272.367082,294.353655 275.592419,298.261583 L276.061658,298.835445 C276.261178,299.081579 276.466203,299.337017 276.685058,299.611938 L279.1276,302.713627 L279.587723,303.289337 C280.025594,303.833052 280.400095,304.28464 280.741737,304.678818 L280.909961,304.871285 C282.144301,306.271919 283.285402,307.886215 284.336277,309.672723 C285.663998,311.929873 286.783294,314.344672 287.701694,316.759146 C287.958832,317.435162 288.185301,318.072787 288.381504,318.661874 L288.673287,319.573382 C288.728957,319.755558 288.769823,319.895885 288.796023,319.990661 C288.871845,320.264938 288.710966,320.54875 288.436689,320.624573 C288.162412,320.700395 287.8786,320.539516 287.802777,320.265239 L287.686636,319.870788 C287.646627,319.739939 287.598364,319.585612 287.541795,319.409378 C287.320804,318.7209 287.053251,317.952943 286.738519,317.125512 C285.839334,314.761555 284.743755,312.397923 283.448052,310.195203 C282.541909,308.654743 281.569119,307.249826 280.529792,306.009897 L279.786245,305.148167 C279.54511,304.865583 279.287713,304.555452 279.004661,304.207116 L278.155796,303.146123 L275.879254,300.254287 C275.662041,299.981425 275.45875,299.728146 275.261134,299.484361 L274.797746,298.918639 C271.991913,295.530506 270.142963,294.003266 269.248714,294.446107 C268.293404,294.919592 268.493519,296.209178 269.843468,299.021566 L270.430211,300.202621 L270.877499,301.092493 C272.30821,303.971717 272.613672,304.989901 272.130987,306.002208 C270.874998,308.636363 267.644762,307.791677 262.428261,304.606408 L261.662985,304.131667 C261.401059,303.966792 261.131244,303.794671 260.850376,303.613458 L256.524417,300.766658 L255.938364,300.396705 C254.940553,299.779037 254.272026,299.433815 253.874985,299.337811 C251.486825,298.761274 250.546236,301.40894 252.011393,305.804065 C253.807856,311.193029 258.590621,317.372148 265.783415,322.735901 C266.011536,322.906014 266.058561,323.228845 265.888449,323.456965 C265.718336,323.685086 265.395505,323.732111 265.167385,323.561999 C257.814142,318.078596 252.900921,311.730935 251.033782,306.12996 C249.358695,301.105096 250.640529,297.496861 254.116996,298.336132 C254.690334,298.474764 255.495707,298.898984 256.725114,299.67296 L257.688491,300.295826 C258.792498,301.02067 260.599204,302.221092 260.983047,302.471253 L261.816762,303.009121 C262.084043,303.179588 262.341736,303.341841 262.592949,303.497695 L262.965297,303.726906 C267.617816,306.5678 270.37579,307.288993 271.200814,305.558689 C271.479862,304.973459 271.154399,303.976177 269.934437,301.512435 L269.333346,300.317321 C267.310818,296.30697 266.89445,294.462835 268.791244,293.522715 Z" id="Stroke-94" fill="#965C56" fill-rule="nonzero"></path>
        <path d="M251.331169,299.999684 C251.552975,299.821417 251.877299,299.856713 252.055566,300.078519 C253.26347,301.581437 254.710077,302.989666 256.345098,304.300052 C258.147536,305.744616 260.081148,306.996004 262.014698,308.048489 C262.55585,308.343053 263.065777,308.604731 263.536087,308.833221 L264.257326,309.172154 C264.399374,309.236372 264.507204,309.283198 264.577758,309.312533 C264.840517,309.421779 264.964964,309.723349 264.855717,309.986108 C264.746471,310.248867 264.444901,310.373314 264.182142,310.264067 L263.837114,310.113086 C263.724368,310.06215 263.592325,310.001336 263.442266,309.930679 C262.862168,309.657531 262.21667,309.331703 261.522026,308.953589 C259.538194,307.873733 257.554424,306.589883 255.700639,305.104168 C254.010067,303.749261 252.510284,302.289266 251.252334,300.724081 C251.074067,300.502275 251.109363,300.177951 251.331169,299.999684 Z" id="Stroke-96" fill="#965C56" fill-rule="nonzero"></path>
        <path d="M250.724707,304.094258 C250.954204,303.926008 251.276642,303.975659 251.444892,304.205157 L251.613461,304.422959 C251.687891,304.515874 251.780627,304.628671 251.891872,304.760057 L252.009294,304.897591 C252.494921,305.461906 253.086838,306.092287 253.787602,306.772326 C255.795763,308.721096 258.270259,310.672041 261.231753,312.494296 C262.039207,312.991136 262.874184,313.472424 263.736946,313.936538 C263.987552,314.071349 264.081422,314.383791 263.946612,314.634396 C263.811801,314.885002 263.499359,314.978872 263.248754,314.844062 C262.368325,314.370444 261.516064,313.879193 260.691714,313.371957 C257.664083,311.509007 255.130552,309.511517 253.069946,307.511853 C252.449971,306.910213 251.911018,306.344612 251.451404,305.825439 L251.2282,305.569769 C250.921988,305.21394 250.718081,304.956675 250.613808,304.814443 C250.445558,304.584946 250.495209,304.262508 250.724707,304.094258 Z" id="Stroke-98" fill="#965C56" fill-rule="nonzero"></path>
        <path d="M254.061954,311.391251 C254.255364,311.182517 254.581366,311.170095 254.790099,311.363504 C257.271949,313.663152 259.575621,315.462696 261.641112,316.819144 C262.258101,317.224334 262.814785,317.56381 263.306437,317.842051 L263.546822,317.97609 C263.871414,318.154298 264.091393,318.264382 264.199251,318.313447 C264.458274,318.431277 264.572734,318.736777 264.454903,318.995801 C264.337073,319.254824 264.031573,319.369284 263.772549,319.251453 L263.54281,319.140015 C263.413835,319.074815 263.24939,318.988388 263.050884,318.879404 C262.479074,318.565468 261.81807,318.168207 261.075438,317.680506 C258.962492,316.292892 256.613726,314.458123 254.089701,312.119396 C253.880967,311.925986 253.868545,311.599984 254.061954,311.391251 Z" id="Stroke-100" fill="#965C56" fill-rule="nonzero"></path>
        <path d="M339.9981,384.04415 C339.9981,384.04415 354.0516,406.14365 338.6991,415.57565 C322.8651,425.30465 311.7921,407.81915 311.7921,407.81915 C311.7921,407.81915 300.9246,391.94615 291.6291,376.58465 C285.9546,367.20665 279.8946,356.72615 276.5856,348.48665 C273.0036,339.56465 277.0101,335.99915 284.6871,331.28315 C293.8026,325.68215 298.1406,324.29465 304.2471,331.65665 C310.0701,338.67515 316.6236,349.06865 322.0671,356.89265 C332.4441,371.81165 339.9981,384.04415 339.9981,384.04415" id="Fill-102" fill="#ADC6FF"></path>
        <polygon id="Fill-104" fill="#ADC6FF" points="272.32965 330.6125 290.08215 319.706 298.73115 330.9155 278.42265 343.3925"></polygon>
        <path d="M288.944371,319.225992 C289.162193,319.092152 289.438572,319.123533 289.620674,319.292105 L289.684245,319.361696 L294.844,326.051 L295.102034,326.047394 C298.063622,326.049191 300.66721,327.575463 303.563853,330.972652 L303.836292,331.29663 L304.674327,332.318626 C310.492473,339.484575 322.478668,355.535285 328.180089,363.729998 C328.357512,363.985009 328.294614,364.335567 328.039602,364.512989 C327.784591,364.690412 327.434033,364.627514 327.256611,364.372502 L326.342244,363.067239 C320.050037,354.13993 308.107736,338.208248 302.970432,332.014899 C299.990006,328.422294 297.491946,327.008303 294.612318,327.187662 C294.457022,327.197335 294.306161,327.142266 294.194193,327.038083 L294.131955,326.969804 L289.102,320.449 L272.211,330.827 L275.864122,338.49073 C275.924491,338.617387 275.934834,338.760771 275.895561,338.892951 L275.85681,338.989549 C274.598494,341.441803 274.681125,344.336954 276.263829,348.277622 L276.600747,349.102453 C279.481479,356.040604 284.196306,364.612357 291.266587,376.294017 L292.145225,377.739872 C293.012689,379.161581 293.909943,380.615571 294.834326,382.09833 C298.007059,387.187557 301.378489,392.425204 304.774795,397.582119 L307.123273,401.129495 C307.707803,402.007813 308.271715,402.851637 308.812163,403.657214 L311.411024,407.502026 C311.586498,407.758382 311.520931,408.10845 311.264574,408.283924 C311.008218,408.459398 310.65815,408.393831 310.482676,408.137474 L309.054942,406.03308 L307.048924,403.045766 C306.484941,402.20171 305.898907,401.321262 305.293666,400.408172 C301.40273,394.538152 297.511736,388.519546 293.879651,382.693494 L292.510943,380.486835 C292.061703,379.758747 291.61957,379.038268 291.184875,378.325835 L290.304128,376.876508 C282.920577,364.677258 278.093718,355.852836 275.219876,348.696892 C273.634218,344.748869 273.451311,341.669954 274.599389,339.01856 L274.731,338.728 L270.978578,330.85527 C270.868592,330.624514 270.929066,330.353048 271.11595,330.189833 L271.191871,330.133992 L288.944371,319.225992 Z" id="Stroke-106" fill="#597EF7" fill-rule="nonzero"></path>
        <path d="M306.11775,438.0632 C306.42841,438.0632 306.68025,438.31504 306.68025,438.6257 C306.68025,438.905294 306.47626,439.137244 306.20899,439.180838 L306.11775,439.1882 L232.61775,439.1882 C232.30709,439.1882 232.05525,438.93636 232.05525,438.6257 C232.05525,438.346106 232.25924,438.114156 232.52651,438.070562 L232.61775,438.0632 L306.11775,438.0632 Z" id="Stroke-108" fill="#1D39C4" fill-rule="nonzero"></path>
        <path d="M307.61775,450.0632 C307.92841,450.0632 308.18025,450.31504 308.18025,450.6257 C308.18025,450.905294 307.97626,451.137244 307.70899,451.180838 L307.61775,451.1882 L232.61775,451.1882 C232.30709,451.1882 232.05525,450.93636 232.05525,450.6257 C232.05525,450.346106 232.25924,450.114156 232.52651,450.070562 L232.61775,450.0632 L307.61775,450.0632 Z" id="Stroke-110" fill="#1D39C4" fill-rule="nonzero"></path>
        <path d="M308.52585,421.9931 C308.52585,421.9931 290.38485,424.0571 285.84435,416.7776 C281.73435,410.1836 289.43535,403.7981 289.43535,403.7981 C289.43535,403.7981 296.02635,399.4931 304.38135,396.7856 C309.85785,395.0126 319.76385,390.0896 321.42435,392.6486 C323.59035,395.9846 312.64035,399.3656 312.37935,402.2471 C311.85135,408.0866 329.63835,404.5811 332.82735,405.5606 C339.05985,407.4761 330.30735,419.6816 308.52585,421.9931" id="Fill-112" fill="#CE998A"></path>
        <path d="M332.695779,408.128833 C332.986677,408.0198 333.310885,408.167231 333.419917,408.458129 C333.52895,408.749027 333.381519,409.073235 333.090621,409.182267 C332.267195,409.490899 331.414455,409.762558 330.535131,409.998885 C326.026368,411.210658 321.269284,411.430468 317.005995,411.083138 L316.474649,411.035885 L315.750744,410.956061 C315.706627,410.950432 315.671334,410.945686 315.645113,410.941962 C315.337539,410.898284 315.123609,410.613537 315.167288,410.305963 C315.210966,409.998389 315.495713,409.784459 315.803287,409.828138 L316.13522,409.86911 L316.584117,409.916223 C316.744634,409.93177 316.915873,409.947069 317.097346,409.961854 C321.242867,410.299588 325.878888,410.085373 330.243138,408.912438 C331.088422,408.68526 331.906885,408.424521 332.695779,408.128833 Z" id="Stroke-114" fill="#965C56" fill-rule="nonzero"></path>
        <path d="M330.97239,412.340945 C331.258172,412.219133 331.588593,412.352057 331.710405,412.63784 C331.832217,412.923622 331.699293,413.254043 331.41351,413.375855 L331.134364,413.486631 L330.772176,413.619808 C330.64148,413.666306 330.500856,413.714811 330.350419,413.765031 C329.495915,414.05029 328.495528,414.334888 327.356643,414.600088 C323.476822,415.503542 318.985344,415.968265 313.975135,415.760417 C313.664742,415.74754 313.423557,415.485478 313.436433,415.175085 C313.44931,414.864692 313.711372,414.623507 314.021765,414.636383 C318.926764,414.839867 323.317313,414.385587 327.101502,413.504402 C328.047897,413.284025 328.893334,413.050489 329.633119,412.815489 L330.330326,412.583052 C330.636286,412.475852 330.851357,412.392534 330.97239,412.340945 Z" id="Stroke-116" fill="#965C56" fill-rule="nonzero"></path>
        <path d="M323.849867,417.19927 C324.153557,417.133834 324.452794,417.326977 324.51823,417.630667 C324.583666,417.934357 324.390523,418.233594 324.086833,418.29903 C318.792674,419.439766 314.660356,419.775436 311.790793,419.654335 L311.488177,419.639627 C311.265162,419.627328 311.112102,419.614764 311.030126,419.605863 C310.721281,419.572326 310.4981,419.294771 310.531637,418.985926 C310.565174,418.677081 310.842729,418.4539 311.151574,418.487437 L311.55013,418.516335 C314.329733,418.669638 318.466171,418.359298 323.849867,417.19927 Z" id="Stroke-118" fill="#965C56" fill-rule="nonzero"></path>
        <path d="M210.46485,390.30852 C210.46485,390.30852 188.91585,390.1196 188.16885,408.1226 C187.39785,426.6896 208.06185,427.8296 208.06185,427.8296 C208.06185,427.8296 222.62385,428.2721 240.56685,428.8961 C251.52285,429.2771 263.62635,429.4556 272.43435,428.3261 C281.96985,427.1021 283.12785,421.8656 283.50135,412.8626 C283.94535,402.1736 283.04085,397.7096 273.63585,395.9681 C264.66885,394.3091 252.39885,393.6566 242.91435,392.7206 C224.82885,390.9371 210.46485,390.30852 210.46485,390.30852" id="Fill-120" fill="#ADC6FF"></path>
        <polygon id="Fill-122" fill="#ADC6FF" points="290.1129 422.4788 290.9769 401.6618 276.9729 399.5783 275.9859 423.3938"></polygon>
        <path d="M214.959846,427.68489 L233.636806,427.995337 C235.844712,428.028559 237.930938,428.056737 239.949056,428.080154 L246.025461,428.137488 C259.77868,428.234131 269.057759,428.048151 272.798983,427.481183 C276.996643,426.845937 279.533852,425.447564 281.007354,423.119518 C281.082405,423.000942 281.198272,422.915807 281.331085,422.878648 L281.4335,422.860001 L289.89,422.118 L290.262,402.297 L282.090667,401.27298 C281.936192,401.25361 281.798131,401.171382 281.707482,401.048098 L281.659029,400.969375 C280.35303,398.395498 277.868047,396.961202 273.258407,396.216645 L272.42302,396.085885 C268.616474,395.508955 264.149357,395.083806 258.131358,394.674843 L254.233669,394.42391 L246.053987,393.922018 C244.971521,393.851702 244.027965,393.786861 243.118842,393.720111 L242.516715,393.675247 C235.20458,393.12204 228.008337,392.702821 221.189363,392.398833 L219.492631,392.325225 C217.187883,392.228005 215.078815,392.150543 213.195696,392.090665 L210.052794,392.002725 C209.742203,391.996177 209.495727,391.739086 209.501578,391.428494 C209.508823,391.117903 209.765914,390.871427 210.076506,390.877725 L212.61076,390.946878 L214.522457,391.008861 C216.06706,391.061698 217.744333,391.125477 219.540044,391.201225 C226.305235,391.486599 233.469872,391.88581 240.77303,392.417702 L244.439639,392.686407 C245.184542,392.737993 245.978559,392.790429 246.870708,392.847179 L256.841264,393.461553 L258.876342,393.598383 C265.028748,394.026012 269.546942,394.477228 273.437843,395.106047 C278.095978,395.858437 280.851974,397.34159 282.401253,399.982228 L282.52,400.192 L290.903633,401.24422 C291.157308,401.276028 291.35333,401.473385 291.389978,401.718817 L291.396051,401.812879 L291.006051,422.644879 C291.001267,422.900459 290.825809,423.116246 290.585675,423.178691 L290.4928,423.194699 L281.803,423.956 C280.167271,426.370759 277.501441,427.837672 273.384028,428.527139 L272.967432,428.5935 L272.586811,428.647497 C268.417268,429.202075 258.807644,429.367581 244.698849,429.252448 L241.651856,429.224006 C239.950475,429.206235 238.210378,429.185024 236.397798,429.160195 L214.946454,428.80981 C214.635816,428.806112 214.386992,428.551292 214.39069,428.240654 C214.394388,427.930016 214.649208,427.681192 214.959846,427.68489 Z" id="Stroke-124" fill="#597EF7" fill-rule="nonzero"></path>
    </g>
</svg>