<?xml version="1.0" encoding="UTF-8"?>
<svg width="512px" height="1024px" viewBox="0 0 512 1024" version="1.1" xmlns="http://www.w3.org/2000/svg" xmlns:xlink="http://www.w3.org/1999/xlink">
    <!-- Generator: Sketch 61.2 (89653) - https://sketch.com -->
    <title>2.人物组件/6.产品经理/站立/打电话</title>
    <desc>Created with Sketch.</desc>
    <defs>
        <polygon id="path-1" points="0 0.493810184 96.9479031 0.493810184 96.9479031 70.040106 0 70.040106"></polygon>
        <polygon id="path-3" points="1.39874857 0.504499391 83.2395 0.504499391 83.2395 68.0737358 1.39874857 68.0737358"></polygon>
    </defs>
    <g id="2.人物组件/6.产品经理/站立/打电话" stroke="none" stroke-width="1" fill="none" fill-rule="evenodd">
        <path d="M192.7824,335.2091 C192.7824,335.2091 183.0939,350.6846 187.7034,357.9221 C191.8779,364.4741 200.9619,360.2801 200.9619,360.2801 C200.9619,360.2801 207.6894,356.1926 213.7359,349.8221 C217.6974,345.6461 226.4124,338.8346 224.8209,336.2321 C222.7449,332.8391 214.9704,341.2586 212.2584,340.2506 C206.7624,338.2091 217.5969,323.6741 218.0904,320.3741 C219.0504,313.9241 204.2619,316.5566 192.7824,335.2091" id="Fill-1" fill="#CE998A"></path>
        <path d="M214.937168,318.573388 C215.161071,318.358034 215.517158,318.364965 215.732512,318.588868 C215.947866,318.812771 215.940935,319.168858 215.717032,319.384212 C214.333838,320.714593 213.05444,322.254711 211.877783,323.963703 C210.381809,326.136476 209.125363,328.467808 208.10133,330.79926 C207.743008,331.615063 207.439541,332.372076 207.189872,333.050522 L206.984882,333.625061 C206.946156,333.737983 206.916783,333.827181 206.896676,333.891098 C206.803451,334.187441 206.487645,334.3521 206.191302,334.258876 C205.894959,334.165651 205.7303,333.849845 205.823524,333.553502 L205.918755,333.265896 C205.959923,333.145724 206.010548,333.001763 206.070726,332.835557 L206.134093,332.661993 C206.391454,331.962644 206.703433,331.184399 207.071306,330.346848 C208.122117,327.954431 209.411548,325.561894 210.951173,323.325723 C212.168778,321.557256 213.496169,319.959365 214.937168,318.573388 Z" id="Stroke-3" fill="#965C56" fill-rule="nonzero"></path>
        <path d="M210.42903,318.278183 C210.662214,318.072915 211.01765,318.095546 211.222917,318.32873 C211.428185,318.561914 211.405554,318.91735 211.17237,319.122617 L210.899892,319.377556 C210.808729,319.46597 210.700779,319.572927 210.577158,319.698499 C210.091022,320.192304 209.547847,320.789337 208.961786,321.49052 C207.281825,323.50048 205.599788,325.938346 204.028598,328.811636 C203.231364,330.269566 202.48228,331.806768 201.78978,333.423837 C201.667484,333.709412 201.336839,333.841776 201.051263,333.71948 C200.765688,333.597184 200.633324,333.266539 200.75562,332.980963 C201.462403,331.330541 202.227228,329.761036 203.041535,328.271884 C204.649059,325.332149 206.372789,322.833856 208.098593,320.769047 C208.617985,320.14763 209.10633,319.603645 209.554668,319.136453 L210.017944,318.666525 C210.20212,318.485108 210.340875,318.355784 210.42903,318.278183 Z" id="Stroke-5" fill="#965C56" fill-rule="nonzero"></path>
        <path d="M202.82655,322.764149 C203.016537,322.518354 203.369807,322.473113 203.615601,322.6631 C203.861396,322.853087 203.906637,323.206357 203.71665,323.452151 C201.459289,326.3726 199.727554,329.050905 198.453815,331.427376 L198.094975,332.113119 C197.870046,332.554067 197.673452,332.962355 197.503617,333.336592 L197.257625,333.89844 C197.167327,334.113246 197.108395,334.265582 197.077756,334.352726 C196.974713,334.645799 196.653597,334.799849 196.360524,334.696806 C196.067451,334.593763 195.913401,334.272647 196.016444,333.979574 L196.162794,333.60163 C196.214006,333.476598 196.276482,333.328919 196.350888,333.159187 C196.636666,332.507278 197.004308,331.750345 197.46226,330.895924 C198.76524,328.464895 200.530849,325.7342 202.82655,322.764149 Z" id="Stroke-7" fill="#965C56" fill-rule="nonzero"></path>
        <path d="M181.1361,438.8183 C181.1361,438.8183 172.0116,458.3423 155.4471,451.2503 C138.3636,443.9348 146.2491,424.8008 146.2491,424.8008 C146.2491,424.8008 152.1321,411.4733 159.3081,395.0153 C163.6911,384.9683 168.7521,373.9703 173.5701,366.5123 C178.7886,358.4378 184.0116,359.6513 192.2946,363.1973 C202.1301,367.4093 205.7676,370.1498 203.2806,379.3868 C200.9106,388.1933 196.2051,399.5438 192.9576,408.5048 C186.7641,425.5898 181.1361,438.8183 181.1361,438.8183" id="Fill-9" fill="#ADC6FF"></path>
        <polygon id="Fill-11" fill="#ADC6FF" points="185.14695 351.03095 204.30045 359.23145 200.13795 372.76445 178.22745 363.38195"></polygon>
        <path d="M203.1798,349.59605 L191.6313,333.79055 C190.6758,332.48255 190.9608,330.64655 192.2688,329.68955 L226.2828,304.83605 C227.5923,303.87905 229.4283,304.16555 230.3838,305.47355 L241.9323,321.27905 C242.8893,322.58855 242.6028,324.42305 241.2948,325.37855 L207.2793,350.23355 C205.9713,351.19055 204.1368,350.90555 203.1798,349.59605" id="Fill-13" fill="#394772"></path>
        <g id="分组" transform="translate(144.000000, 383.703500)">
            <mask id="mask-2" fill="white">
                <use xlink:href="#path-1"></use>
            </mask>
            <g id="Clip-16"></g>
            <path d="M11.96205,33.3501 C11.96205,33.3501 -6.66945,43.0371 2.57205,60.0561 C11.99505,77.4111 30.46155,66.8676 30.46155,66.8676 C30.46155,66.8676 43.56105,60.3096 59.15805,51.8601 C71.34405,45.2571 80.72205,40.2396 88.11555,35.2671 C96.09255,29.9016 99.35205,19.6701 95.02305,11.6991 C88.44555,-0.4149 78.42705,-1.4604 69.81705,2.7066 C61.44405,6.7596 50.31555,12.5766 41.18805,17.2506 C23.63655,26.2356 11.96205,33.3501 11.96205,33.3501" id="Fill-15" fill="#ADC6FF" mask="url(#mask-2)"></path>
        </g>
        <path d="M333.15255,466.24895 C333.15255,466.24895 347.67555,481.41545 361.34355,467.87645 C375.28005,454.07195 359.98605,439.29995 359.98605,439.29995 C359.98605,439.29995 350.01855,428.56595 337.53405,415.96445 C327.78105,406.11695 320.33505,398.52245 313.49355,392.81495 C306.11055,386.65745 295.61505,389.34845 289.21305,395.68895 C279.48405,405.32645 283.48455,416.66495 289.90005,423.75995 C296.13855,430.65845 302.66955,438.24845 309.71505,445.69895 C323.26155,460.02545 333.15255,466.24895 333.15255,466.24895" id="Fill-17" fill="#ADC6FF"></path>
        <path d="M279.885,348.66155 C279.885,348.66155 290.7165,343.08305 287.406,331.49705 C292.3545,321.72755 286.8825,315.49355 286.8825,315.49355 C286.8825,315.49355 286.986,302.51855 278.412,301.58405 C273.321,288.15305 258.0705,293.00555 258.0705,293.00555 C258.0705,293.00555 248.586,284.87255 234.486,295.36505 C224.355,295.48655 224.4375,290.46005 221.1015,293.87705 C217.764,297.29405 216.114,305.44205 220.3755,308.76755 C212.814,311.81255 219.351,323.86955 219.351,323.86955 C219.351,323.86955 216.7365,330.69755 225.2445,336.08405 C233.751,341.46905 236.646,357.91655 250.8705,363.41105 C264.5565,368.69555 279.2985,364.62605 279.885,348.66155" id="Fill-19" fill="#7D4556"></path>
        <path d="M272.33955,372.857 L271.27155,350.4515 L241.55055,353.4695 L240.82455,373.0145 C240.50055,381.74 247.43505,389.0165 256.16655,389.111 C256.33305,389.1125 256.49805,389.1155 256.66605,389.117 C265.59405,389.219 272.76555,381.776 272.33955,372.857" id="Fill-21" fill="#CE998A"></path>
        <path d="M265.8723,316.1354 C265.8723,316.1354 263.6958,323.9459 269.6898,326.2094 C268.0608,336.3479 272.5293,335.7104 272.5293,335.7104 C272.5293,335.7104 280.1178,327.0719 284.5248,335.2424 C288.7113,343.0049 280.0908,353.5994 272.7828,351.4709 C259.3233,370.5104 234.6033,370.0919 227.1783,356.6894 C222.6648,348.5444 225.1263,337.2134 224.8038,331.8074 C224.0103,318.5189 226.6743,314.6594 226.6743,314.6594 C226.6743,314.6594 231.6618,316.0214 237.4113,312.1964 C243.0888,316.9229 251.8233,313.0604 251.8233,313.0604 C251.8233,313.0604 257.1048,320.6519 265.8723,316.1354" id="Fill-23" fill="#CE998A"></path>
        <path d="M278.134501,336.403847 C279.801799,336.174513 280.923476,336.643579 281.513915,337.591593 C281.80613,338.060776 281.905975,338.523578 281.910151,338.862236 C281.913899,339.172873 281.665151,339.427767 281.354514,339.431558 C281.07494,339.43497 280.840519,339.233825 280.793667,338.967107 L280.785192,338.875964 C280.783344,338.724556 280.724598,338.452258 280.558981,338.186342 C280.213646,337.631869 279.532719,337.347117 278.287499,337.518394 C277.077072,337.684222 276.02274,338.530226 275.36164,339.714736 C275.085064,340.210286 274.90985,340.719493 274.863768,341.128865 C274.830106,341.427911 274.8712,341.585648 274.881692,341.592466 C275.990702,342.313276 276.825715,343.295541 277.050783,344.329665 C277.339425,345.655891 276.622024,346.876577 274.907315,347.81102 C274.634531,347.959675 274.292886,347.859049 274.14423,347.586265 C273.995575,347.313481 274.096201,346.971836 274.368985,346.82318 C275.679526,346.108992 276.122615,345.355059 275.951517,344.56891 C275.799806,343.87184 275.152199,343.11003 274.268646,342.535759 C272.482662,341.375151 275.019033,336.830664 278.134501,336.403847 Z" id="Stroke-25" fill="#965C56" fill-rule="nonzero"></path>
        <path d="M277.678364,340.479488 C279.093838,340.711097 280.010852,341.425768 279.907278,342.746333 C279.882987,343.056042 279.612226,343.287419 279.302517,343.263128 C279.023779,343.241266 278.80849,343.019764 278.785928,342.749904 L278.785722,342.658367 C278.831941,342.069072 278.408263,341.738879 277.496701,341.589724 C277.126206,341.529101 276.729282,341.511464 276.349686,341.523061 L276.068922,341.537026 C275.980329,341.543127 275.918283,341.549026 275.888605,341.552511 C275.580065,341.588744 275.300571,341.367995 275.264339,341.059455 C275.228106,340.750915 275.448855,340.471421 275.757395,340.435189 L275.991634,340.414684 C276.531042,340.377539 277.116389,340.387534 277.678364,340.479488 Z" id="Stroke-27" fill="#965C56" fill-rule="nonzero"></path>
        <path d="M245.04945,333.16565 C245.11395,338.58515 249.55995,342.92615 254.98095,342.86015 C260.40045,342.79565 264.74145,338.34965 264.67545,332.93015 C264.61095,327.50915 260.16495,323.16965 254.74545,323.23415 C249.32595,323.29865 244.98495,327.74615 245.04945,333.16565" id="Fill-29" fill="#FFFFFF"></path>
        <path d="M254.737221,322.542699 C248.936164,322.61174 244.28895,327.37218 244.357999,333.173879 C244.427049,338.975714 249.186801,343.622244 254.989368,343.551599 C260.790769,343.482554 265.437549,338.723044 265.366899,332.921729 C265.297864,327.119623 260.539178,322.473647 254.737221,322.542699 Z M254.753679,323.925601 C259.791931,323.865638 263.92405,327.899887 263.983999,332.938377 C264.045348,337.975948 260.010439,342.108743 254.972721,342.168699 C249.933866,342.230046 245.80086,338.195353 245.740901,333.157421 C245.680941,328.119394 249.716462,323.985551 254.753679,323.925601 Z" id="Stroke-31" fill="#7D4556" fill-rule="nonzero"></path>
        <path d="M221.2377,332.53205 C221.3022,337.95155 225.7482,342.29255 231.1692,342.22805 C236.5887,342.16205 240.9297,337.71605 240.8637,332.29655 C240.7992,326.87705 236.3532,322.53605 230.9337,322.60055 C225.5142,322.66655 221.1732,327.11255 221.2377,332.53205" id="Fill-33" fill="#FFFFFF"></path>
        <path d="M230.925279,321.909101 C225.123846,321.979753 220.477207,326.739107 220.546249,332.540279 C220.615296,338.341831 225.374725,342.988543 231.177427,342.919501 C236.979337,342.848844 241.625795,338.089166 241.555149,332.288129 C241.487239,326.582114 236.881698,321.992723 231.209932,321.90949 L230.925279,321.909101 Z M230.942121,323.291999 C235.979641,323.232045 240.112295,327.267247 240.172249,332.304779 C240.233595,337.342167 236.19883,341.475247 231.160779,341.536601 C226.121973,341.596554 221.989108,337.561567 221.929151,332.523821 C221.869197,327.48629 225.904256,323.353351 230.942121,323.291999 Z" id="Stroke-35" fill="#7D4556" fill-rule="nonzero"></path>
        <path d="M242.761571,331.388008 C243.019704,331.560857 243.088841,331.910237 242.915992,332.168371 L242.745181,332.429406 C242.607316,332.642785 242.453482,332.886022 242.287693,333.154629 C241.813816,333.922392 241.339917,334.738251 240.898215,335.565871 C240.524986,336.265192 240.191677,336.941945 239.908616,337.584048 C238.958597,339.739101 238.669508,341.322928 239.131459,341.942549 C239.704021,342.710033 240.506125,343.174489 241.497945,343.386165 C242.422896,343.583571 243.430348,343.547646 244.393039,343.366109 C244.691251,343.309875 244.908929,343.254599 245.020935,343.220195 C245.317901,343.128977 245.632587,343.295768 245.723805,343.592735 C245.815023,343.889701 245.648232,344.204387 245.351265,344.295605 L245.166211,344.347388 C245.02006,344.385211 244.829507,344.428631 244.601508,344.471625 C243.504511,344.678488 242.355251,344.71947 241.263133,344.486387 C240.019787,344.22103 238.977393,343.617435 238.229636,342.615111 C237.421869,341.531644 237.76313,339.661982 238.879203,337.130248 C239.174446,336.460511 239.519977,335.758942 239.905719,335.036175 C240.359419,334.186074 240.844879,333.350313 241.330361,332.563747 L241.690853,331.989224 L241.981208,331.542429 C242.154057,331.284296 242.503437,331.215159 242.761571,331.388008 Z" id="Stroke-37" fill="#965C56" fill-rule="nonzero"></path>
        <path d="M251.9745,347.30945 C251.9745,347.30945 242.907,348.45695 236.409,347.49695 C236.409,347.49695 238.302,353.96045 244.779,353.10395 C250.5315,352.34345 251.9745,347.30945 251.9745,347.30945" id="Fill-39" fill="#FFFFFF"></path>
        <path d="M251.9003,346.723126 L251.130158,346.810938 L250.350329,346.890284 C249.942961,346.929682 249.51018,346.968454 249.055443,347.00564 C246.325728,347.22886 243.557448,347.33746 240.97963,347.268866 C239.331165,347.225001 237.825416,347.108793 236.495375,346.912296 C236.068909,346.849291 235.720657,347.249345 235.841825,347.663062 L235.908422,347.869013 C235.977083,348.066231 236.079125,348.325302 236.218065,348.630277 C236.53977,349.336423 236.953169,350.042194 237.469489,350.703309 C239.203639,352.923777 241.649845,354.113885 244.856478,353.689849 C247.342101,353.361242 249.271619,352.263906 250.698042,350.645324 C251.303337,349.958486 251.776165,349.223628 252.133015,348.487644 C252.349545,348.041061 252.480952,347.687434 252.54262,347.472302 C252.659545,347.064402 252.32127,346.669852 251.9003,346.723126 Z M251.051,348.007 L251.06944,347.971958 C250.756927,348.616501 250.341485,349.26217 249.811261,349.863823 C248.566688,351.276058 246.892016,352.22846 244.701542,352.518048 C241.942048,352.882955 239.892945,351.886042 238.401054,349.975771 L238.180878,349.681037 C237.896997,349.2837 237.651711,348.870029 237.443208,348.453226 L237.327,348.211 L237.389997,348.218983 C238.488432,348.340858 239.678664,348.416666 240.948189,348.450447 C243.574074,348.520321 246.382901,348.41013 249.151779,348.183708 L250.042986,348.10646 L251.051,348.007 Z" id="Stroke-41" fill="#7D4556" fill-rule="nonzero"></path>
        <path d="M238.068057,319.892688 C238.361768,319.750313 238.715286,319.872995 238.857662,320.166707 C239.000037,320.460418 238.877355,320.813936 238.583643,320.956312 C235.425619,322.487151 231.512904,322.910136 227.521403,321.863161 C227.205683,321.780348 227.016875,321.457273 227.099689,321.141553 C227.182502,320.825833 227.505577,320.637025 227.821297,320.719839 C231.535889,321.694179 235.159902,321.302404 238.068057,319.892688 Z" id="Stroke-43" fill="#7D4556" fill-rule="nonzero"></path>
        <path d="M242.221868,329.235891 C243.229073,329.169904 244.296214,329.229848 245.340342,329.369554 C245.601796,329.404537 245.841765,329.442083 246.055421,329.479766 L246.332596,329.532076 L246.048704,330.885624 L245.628623,330.809661 C245.492351,330.787648 245.334057,330.764038 245.156929,330.740338 C244.196258,330.611799 243.21592,330.556731 242.312281,330.615933 C241.761068,330.652045 241.263156,330.730107 240.831477,330.852484 L240.580521,330.931248 L240.127779,329.624452 C240.742405,329.411514 241.4456,329.286748 242.221868,329.235891 Z" id="Stroke-45" fill="#7D4556" fill-rule="nonzero"></path>
        <path d="M228.652779,334.506625 C228.611033,334.84467 228.324849,335.10826 227.974794,335.11245 C227.62474,335.116641 227.332328,334.859976 227.282503,334.523027 L227.275067,334.429276 C227.271612,333.862373 227.376458,333.09631 227.701956,332.319202 C228.275834,330.949102 229.372814,330.080483 231.027223,330.06055 C232.669705,330.040771 233.828872,330.818719 234.524097,332.084749 C234.921132,332.807766 235.093505,333.518847 235.138325,334.022167 C235.172198,334.402566 234.891283,334.738401 234.510883,334.772275 C234.130484,334.806148 233.794649,334.525233 233.760775,334.144833 L233.744578,334.023467 C233.731947,333.946057 233.712112,333.844869 233.683252,333.725813 C233.60208,333.390961 233.480068,333.056774 233.311849,332.75044 C232.848258,331.906223 232.13906,331.430261 231.043881,331.44345 C229.986974,331.456184 229.352388,331.958666 228.977577,332.853506 C228.83879,333.18485 228.747992,333.547647 228.697948,333.913294 C228.67947,334.048308 228.668562,334.16585 228.662923,334.259882 L228.652779,334.506625 Z" id="Stroke-47" fill="#7D4556" fill-rule="nonzero"></path>
        <path d="M252.261579,334.223275 C252.219833,334.56132 251.933649,334.82491 251.583594,334.8291 C251.23354,334.833291 250.941128,334.576626 250.891303,334.239677 L250.883867,334.145926 C250.880412,333.579023 250.985258,332.81296 251.310756,332.035852 C251.884634,330.665752 252.981614,329.797133 254.636023,329.7772 C256.278505,329.757421 257.437672,330.535369 258.132897,331.801399 C258.529932,332.524416 258.702305,333.235497 258.747125,333.738817 C258.780998,334.119216 258.500083,334.455051 258.119683,334.488925 C257.739284,334.522798 257.403449,334.241883 257.369575,333.861483 L257.353378,333.740117 C257.340747,333.662707 257.320912,333.561519 257.292052,333.442463 C257.21088,333.107611 257.088868,332.773424 256.920649,332.46709 C256.457058,331.622873 255.74786,331.146911 254.652681,331.1601 C253.595774,331.172834 252.961188,331.675316 252.586377,332.570156 C252.44759,332.9015 252.356792,333.264297 252.306748,333.629944 C252.28827,333.764958 252.277362,333.8825 252.271723,333.976532 L252.261579,334.223275 Z" id="Stroke-49" fill="#7D4556" fill-rule="nonzero"></path>
        <g id="分组" transform="translate(264.000000, 331.203500)">
            <line x1="0.6762" y1="1.72635" x2="10.3752" y2="1.60935" id="Fill-51"></line>
            <line x1="0.6762" y1="1.72635" x2="10.3752" y2="1.60935" id="Stroke-53" stroke="#7D4556" stroke-width="1.383"></line>
        </g>
        <path d="M248.666913,319.716981 C248.811125,319.424167 249.165405,319.303701 249.458219,319.447913 C250.560564,319.990822 251.894363,320.406791 253.408666,320.706057 C255.700452,321.158974 258.101802,321.305544 260.184297,321.27219 L261.042514,321.246527 C261.368402,321.228254 261.6474,321.477626 261.665673,321.803514 C261.683946,322.129402 261.434574,322.4084 261.108686,322.426673 L260.734449,322.441615 C258.45784,322.511792 255.764869,322.376565 253.179504,321.86563 C251.570876,321.547723 250.141153,321.101838 248.935981,320.508287 C248.643167,320.364075 248.522701,320.009795 248.666913,319.716981 Z" id="Stroke-54" fill="#7D4556" fill-rule="nonzero"></path>
        <path d="M244.810585,359.223277 C245.090066,359.231222 245.316125,359.441722 245.352106,359.710122 L245.356151,359.835724 L245.354772,360.24625 C245.356796,360.452239 245.362737,360.683315 245.373985,360.932732 C245.401543,361.543787 245.456463,362.144738 245.544556,362.703161 C245.731153,363.886007 246.050183,364.732045 246.447394,365.070704 L246.533688,365.135446 C246.794147,365.30477 246.868028,365.653178 246.698704,365.913638 C246.52938,366.174097 246.180972,366.247978 245.920512,366.078654 C245.127505,365.563123 244.680264,364.443988 244.433298,362.878466 C244.338047,362.274669 244.279439,361.633354 244.250128,360.983418 L244.233373,360.482846 C244.231685,360.404296 244.230513,360.328347 244.229804,360.255238 L244.232327,359.769565 C244.241155,359.459031 244.50005,359.214449 244.810585,359.223277 Z" id="Stroke-56" fill="#965C56" fill-rule="nonzero"></path>
        <path d="M242.711197,361.001119 C243.021212,361.021138 243.2563,361.288683 243.236281,361.598697 L243.220859,361.921132 C243.193337,362.642082 243.197861,363.422955 243.256177,364.15041 C243.298511,364.678489 243.36718,365.137554 243.463477,365.503979 C243.542438,365.804436 243.362879,366.112016 243.062421,366.190977 C242.761964,366.269938 242.454384,366.090379 242.375423,365.789921 C242.259977,365.350634 242.181989,364.829268 242.134775,364.240307 C242.07237,363.461857 242.067607,362.639726 242.096678,361.878216 L242.113619,361.526203 C242.133638,361.216188 242.401183,360.9811 242.711197,361.001119 Z" id="Stroke-58" fill="#965C56" fill-rule="nonzero"></path>
        <path d="M247.230074,361.735984 C247.533038,361.667266 247.834347,361.857159 247.903066,362.160124 L247.939999,362.312395 C247.963727,362.405813 247.99527,362.523857 248.034274,362.660685 C248.142683,363.040992 248.268657,363.420836 248.409673,363.772033 C248.662411,364.40147 248.936237,364.85716 249.166325,365.041228 L249.233974,365.088201 C249.502301,365.24476 249.592907,365.589197 249.436349,365.857524 C249.27979,366.125851 248.935353,366.216457 248.667026,366.059899 C248.14072,365.75282 247.732073,365.103695 247.365689,364.191224 C247.20858,363.799949 247.070727,363.384288 246.952372,362.969089 L246.877675,362.697511 C246.845646,362.576319 246.821651,362.478269 246.805934,362.408976 C246.737216,362.106012 246.927109,361.804703 247.230074,361.735984 Z" id="Stroke-60" fill="#965C56" fill-rule="nonzero"></path>
        <path d="M241.038681,360.45088 C241.3116,360.511611 241.493703,360.761113 241.478202,361.03147 L241.46557,361.122131 L240.72757,364.438631 C240.660091,364.741874 240.359562,364.932999 240.056319,364.86552 C239.7834,364.804789 239.601297,364.555287 239.616798,364.28493 L239.62943,364.194269 L240.36743,360.877769 C240.428161,360.60485 240.677663,360.422747 240.94802,360.438248 L241.038681,360.45088 Z" id="Stroke-62" fill="#965C56" fill-rule="nonzero"></path>
        <path d="M260.312956,361.634865 C260.584699,361.484315 260.927036,361.582562 261.077585,361.854306 C261.228135,362.126049 261.129888,362.468386 260.858144,362.618935 C260.412172,362.86601 259.960552,363.10032 259.503529,363.322089 C253.475375,366.24723 247.119661,366.839691 241.4824,366.107847 C241.148928,366.064555 240.843309,366.018867 240.567336,365.972494 L240.184295,365.904252 L239.869912,365.840304 C239.567037,365.771192 239.377535,365.469638 239.446646,365.166762 C239.515758,364.863887 239.817312,364.674385 240.120188,364.743496 L240.50294,364.819173 C240.825773,364.877985 241.201977,364.937001 241.627235,364.992209 C247.065618,365.698235 253.210193,365.125455 259.012395,362.309956 C259.451236,362.09701 259.88483,361.872052 260.312956,361.634865 Z" id="Stroke-64" fill="#965C56" fill-rule="nonzero"></path>
        <path d="M250.105004,343.234775 C250.21473,342.944137 250.539288,342.797479 250.829925,342.907204 L251.074222,343.004837 C251.262486,343.082551 251.471642,343.173427 251.696579,343.276853 C252.339552,343.572494 252.982834,343.910614 253.586236,344.287342 C255.690633,345.6012 256.852267,347.062697 256.425586,348.70074 C256.347278,349.001368 256.040089,349.181595 255.73946,349.103286 C255.438832,349.024978 255.258605,348.717789 255.336914,348.41716 C255.594953,347.426539 254.713261,346.317248 252.990441,345.241623 C252.431366,344.892571 251.829139,344.57603 251.226602,344.298982 L250.811215,344.114143 C250.649668,344.044864 250.52084,343.993018 250.432575,343.959696 C250.141937,343.84997 249.995279,343.525412 250.105004,343.234775 Z" id="Stroke-66" fill="#965C56" fill-rule="nonzero"></path>
        <path d="M277.1904,379.48475 L275.2944,374.01725 L238.4199,375.02225 L236.9379,380.20175 C236.9379,380.20175 213.1119,380.42675 208.0434,390.56225 C202.5474,401.55425 213.8904,464.71625 214.1484,478.62875 C207.8754,495.24425 216.9939,500.31125 216.9939,500.31125 L291.7794,499.41425 C291.7794,499.41425 301.8429,493.74275 294.5124,482.32325 C297.5154,461.89775 315.0594,393.58775 305.4639,387.74675 C292.5114,379.86275 277.1904,379.48475 277.1904,379.48475" id="Fill-68" fill="#ADC6FF"></path>
        <path d="M208.676865,406.335343 C208.985126,406.373873 209.203787,406.655003 209.165257,406.963265 C208.280974,414.038003 208.450848,424.078478 209.474619,436.309194 C210.013157,442.742966 210.771395,449.575771 211.693021,456.597752 C212.309431,461.294257 212.965888,465.826968 213.625964,470.060457 L214.102085,473.058707 C214.221959,473.799391 214.336719,474.49743 214.445608,475.15001 L214.792041,477.184746 C214.811232,477.293497 214.797988,477.405491 214.75396,477.506766 L214.600865,477.878382 C214.536771,478.039733 214.460429,478.237632 214.374285,478.469287 C214.085723,479.245266 213.796868,480.111908 213.527234,481.046724 C212.731497,483.805516 212.266794,486.566661 212.299523,489.129364 C212.33854,492.184315 213.088401,494.734124 214.670232,496.632406 C214.869107,496.871066 214.836854,497.225758 214.598194,497.424632 C214.359534,497.623507 214.004842,497.591254 213.805968,497.352594 C212.038804,495.231903 211.216666,492.43633 211.174615,489.14373 C211.14029,486.456093 211.622458,483.591175 212.4463,480.734943 C212.724123,479.771738 213.021831,478.878536 213.319832,478.077171 L213.470938,477.67908 L213.655,477.216 L213.416745,475.817472 C213.204346,474.554639 212.96771,473.107076 212.712894,471.497279 L212.316121,468.952325 C211.721839,465.081785 211.133478,460.979553 210.577587,456.744151 C209.653809,449.705773 208.893672,442.85585 208.353539,436.403034 L208.21846,434.73913 C207.31044,423.188012 207.193512,413.667644 208.048943,406.823735 C208.08362,406.5463 208.314803,406.341441 208.585416,406.331332 L208.676865,406.335343 Z" id="Stroke-70" fill="#597EF7" fill-rule="nonzero"></path>
        <path d="M274.234608,380.21998 C274.533874,380.136617 274.844057,380.311641 274.92742,380.610908 C275.010783,380.910174 274.835759,381.220357 274.536492,381.30372 C271.188779,382.236253 267.329268,382.848972 263.056033,383.179368 C256.680652,383.672296 249.866275,383.518388 243.305146,382.963195 C241.989418,382.85186 240.793153,382.732542 239.738933,382.613168 L238.422096,382.453198 C238.114281,382.41125 237.898753,382.127711 237.940702,381.819896 C237.98265,381.512081 238.266189,381.296553 238.574004,381.338502 L239.35143,381.435688 C239.511572,381.454735 239.683051,381.474651 239.865513,381.495312 L240.794519,381.596465 C241.596742,381.680463 242.467993,381.763336 243.400003,381.842201 C249.905656,382.3927 256.662834,382.545316 262.96931,382.057715 C267.174798,381.732558 270.96429,381.130954 274.234608,380.21998 Z" id="Stroke-72" fill="#597EF7" fill-rule="nonzero"></path>
        <path d="M315.7458,663.3758 C310.9998,624.4073 305.6988,584.1698 300.7488,552.2603 C300.7488,552.2603 293.2413,529.6628 272.5908,536.4488 C252.3483,543.0998 255.8853,569.3123 255.8853,569.3123 L278.7873,671.1878 C278.7873,671.1878 282.7008,687.7403 301.1088,683.5103 C317.8998,679.6523 315.7458,663.3758 315.7458,663.3758" id="Fill-74" fill="#597EF7"></path>
        <path d="M315.07785,761.7884 L315.07785,761.7884 C307.57185,761.5874 301.84185,768.4349 303.37635,775.7849 C305.14035,784.2404 307.46835,795.6749 309.80685,808.0229 C312.21435,820.7309 314.23485,831.2579 315.37785,832.4414 C320.41635,837.6569 328.82685,838.4684 338.08785,842.8964 C345.41835,846.4004 346.92585,848.4074 355.51485,848.5274 C367.69185,848.6969 361.32885,844.6454 345.49785,831.0839 C331.39335,819.0029 331.03635,812.2544 331.03635,812.2544 L326.32335,772.0634 C325.64985,766.3199 320.85885,761.9429 315.07785,761.7884" id="Fill-76" fill="#CE998A"></path>
        <path d="M343.66725,827.546 C353.82375,835.5425 364.88475,841.3415 365.42475,845.8805 C365.96475,850.418 363.12075,855.0935 347.54925,852.422 C336.89475,850.595 339.39525,847.9445 328.73475,843.365 C323.41125,841.079 321.72525,841.715 316.68675,838.856 C313.59525,836.0405 312.00225,820.0475 312.00225,820.0475 L331.97775,835.547 C331.97775,835.547 326.12925,827.7305 329.39625,825.2525 C332.66325,822.7745 335.74875,820.94 338.12775,822.0965 C340.50675,823.2545 343.66725,827.546 343.66725,827.546" id="Fill-78" fill="#7D4556"></path>
        <path d="M316.22115,666.80435 C324.04515,734.31635 331.81365,804.95435 331.81365,804.95435 L307.34865,806.55935 L278.64765,673.87535 C278.64765,673.87535 276.90765,653.50835 295.56465,650.57735 C312.40215,647.93135 316.22115,666.80435 316.22115,666.80435" id="Fill-80" fill="#597EF7"></path>
        <path d="M209.509406,659.15705 C209.682,619.90055 210.2595,579.32105 211.4565,547.05155 C211.4565,547.05155 216.282,523.73405 237.582,528.06605 C258.4605,532.31255 258.003,558.75905 258.003,558.75905 L247.1265,662.61155 C247.1265,662.61155 245.1675,679.50455 226.392,677.44805 C209.2665,675.57305 209.509406,659.15705 209.509406,659.15705" id="Fill-82" fill="#597EF7"></path>
        <path d="M221.63985,756.8219 L221.63985,756.8219 C229.07085,755.7479 235.55985,761.8814 234.89235,769.3589 C234.12435,777.9629 233.14635,789.5909 232.26285,802.1279 C231.35235,815.0294 230.57235,825.7199 229.57335,827.0294 C225.17685,832.7954 216.91935,834.5804 208.23585,840.0584 C201.36435,844.3919 200.10135,846.5624 191.58285,847.6814 C179.50935,849.2684 185.35785,844.5029 199.50135,829.1894 C212.10135,815.5469 211.67085,808.8044 211.67085,808.8044 L211.66785,768.3374 C211.66785,762.5549 215.91585,757.6484 221.63985,756.8219" id="Fill-84" fill="#CE998A"></path>
        <path d="M200.90715,825.46235 C191.75115,834.58835 181.44015,841.63535 181.434138,846.20735 C181.42665,850.77635 184.79565,855.08885 199.94865,850.62185 C210.31815,847.56485 207.52665,845.22485 217.58115,839.43485 C222.60165,836.54435 224.35065,836.97935 229.02165,833.55185 C231.76365,830.39585 231.48315,814.32635 231.48315,814.32635 L213.44865,832.04735 C213.44865,832.04735 218.34615,823.60235 214.81365,821.52335 C211.28115,819.44135 208.00215,817.97885 205.77465,819.40535 C203.54565,820.83185 200.90715,825.46235 200.90715,825.46235" id="Fill-86" fill="#7D4556"></path>
        <path d="M209.4369,662.61785 C209.5314,730.58285 210.0474,801.64385 210.0474,801.64385 L234.5319,800.38685 L247.5789,665.26385 C247.5789,665.26385 246.9339,644.83235 228.0609,644.09435 C211.0314,643.42835 209.4369,662.61785 209.4369,662.61785" id="Fill-88" fill="#597EF7"></path>
        <path d="M300.8007,552.7004 C298.4067,527.3594 294.6852,515.5439 291.8442,510.7829 C230.7702,512.5289 215.5557,511.7264 215.5557,511.7264 C215.5557,511.7264 211.8282,526.5149 211.0752,556.2629 C211.0752,556.2629 230.9232,582.5459 255.1887,582.5459 C277.0647,582.5459 300.8007,552.7004 300.8007,552.7004" id="Fill-90" fill="#597EF7"></path>
        <path d="M291.84465,510.78305 L290.68965,499.29005 L215.90415,500.18705 L215.55615,511.69805 C215.55615,511.69805 255.13515,513.22205 291.84465,510.78305" id="Fill-92" fill="#597EF7"></path>
        <path d="M248.723987,512.49706 C249.00986,512.503328 249.24278,512.716718 249.281799,512.990895 L249.287017,513.104753 L249.262834,514.459965 C249.244369,515.575141 249.225904,516.855642 249.208668,518.282176 C249.089799,528.120554 249.090416,538.639632 249.285172,548.668388 L249.343156,551.390466 C249.644486,564.362114 250.260738,574.677385 251.252272,581.333898 C251.29908,581.648132 251.082287,581.940815 250.768052,581.987622 C250.453818,582.03443 250.161135,581.817637 250.114328,581.503402 L249.993725,580.662861 C249.063889,573.937285 248.482998,563.90245 248.192967,551.417185 C247.961963,541.472951 247.932179,530.934459 248.028818,520.970575 L248.098642,515.309263 L248.137169,513.060963 C248.143623,512.743327 248.406351,512.491064 248.723987,512.49706 Z" id="Stroke-94" fill="#1D39C4" fill-rule="nonzero"></path>
        <path d="M259.400243,512.742794 C259.717941,512.74421 259.974349,513.002894 259.972944,513.320593 L259.973763,516.955584 C259.979246,518.678898 259.991806,520.637495 260.013984,522.772718 C260.070976,528.259902 260.180716,533.68153 260.355651,538.74909 L260.437233,540.962983 C260.674369,546.999664 260.999592,552.083777 261.423671,555.947737 L261.527354,556.851524 L261.52967,556.965273 C261.198418,561.165872 258.847328,563.730454 255.196208,564.938128 C253.331292,565.554983 251.396612,565.745402 249.69951,565.688331 L249.312228,565.670848 C249.154704,565.661913 249.041734,565.652784 248.978494,565.646297 C248.662451,565.613874 248.432531,565.331387 248.464953,565.015344 C248.497376,564.699301 248.779863,564.469381 249.095906,564.501803 L249.377383,564.522195 C251.031852,564.616041 252.98645,564.457242 254.834911,563.84583 C257.979813,562.805596 259.971288,560.703586 260.352521,557.197445 L260.377,556.923 L260.332264,556.538679 C259.896475,552.740472 259.562005,547.719124 259.316754,541.734383 L259.205836,538.788782 C259.048077,534.218779 258.943265,529.363027 258.882268,524.431156 L258.841355,520.307306 C258.829425,518.717303 258.823009,517.255445 258.820803,515.951732 L258.822456,513.315507 C258.82386,512.997809 259.082544,512.741401 259.400243,512.742794 Z" id="Stroke-96" fill="#1D39C4" fill-rule="nonzero"></path>
        <path d="M285.161755,512.984377 C285.479417,512.979499 285.741005,513.232943 285.746028,513.550605 L285.75398,513.828285 C285.75983,513.98525 285.769018,514.185992 285.78256,514.42668 C285.822249,515.132127 285.886109,515.919049 285.97953,516.76685 C286.24626,519.187452 286.695572,521.607071 287.368916,523.859436 C288.911979,529.021041 291.377509,532.49317 294.910655,533.563665 C295.214707,533.655789 295.386509,533.976952 295.294385,534.281005 C295.202261,534.585057 294.881098,534.756859 294.577045,534.664735 C290.588643,533.456304 287.908922,529.682535 286.266619,524.188968 C285.571304,521.863113 285.109738,519.377497 284.835951,516.892863 C284.740191,516.023833 284.674679,515.216553 284.633876,514.491306 L284.595672,513.568795 C284.590649,513.251133 284.844093,512.989545 285.161755,512.984377 Z" id="Stroke-98" fill="#1D39C4" fill-rule="nonzero"></path>
        <path d="M222.243574,514.31525 C222.529498,514.313165 222.768232,514.520031 222.81482,514.793024 L222.823034,514.886274 L222.818352,515.538506 C222.805884,516.265201 222.768555,517.214949 222.692109,518.325538 C222.528898,520.696618 222.230508,523.058815 221.762712,525.269436 C220.535729,531.06768 218.369801,534.903236 214.925174,535.796338 C214.61764,535.876074 214.303697,535.691407 214.223962,535.383874 C214.144226,535.07634 214.328893,534.762397 214.636426,534.682662 C217.517438,533.935691 219.493255,530.436794 220.637138,525.03125 C221.092635,522.878751 221.384533,520.567944 221.544325,518.246532 L221.585434,517.602 C221.634195,516.770488 221.659383,516.053264 221.6686,515.484351 L221.672566,514.894726 C221.670232,514.577032 221.925881,514.317599 222.243574,514.31525 Z" id="Stroke-100" fill="#1D39C4" fill-rule="nonzero"></path>
        <path d="M235.387031,576.93889 C235.529111,576.654729 235.874648,576.53955 236.15881,576.681631 L236.623299,576.905351 L237.10975,577.131426 C237.366738,577.249139 237.644074,577.373615 237.940437,577.503727 C239.353243,578.12399 240.904437,578.744477 242.544844,579.323458 C245.695188,580.435369 248.786586,581.257785 251.672819,581.670243 C254.259478,582.039891 256.591356,582.064673 258.604662,581.698676 C258.917241,581.641853 259.216701,581.849183 259.273524,582.161762 C259.330347,582.474341 259.123017,582.773801 258.810438,582.830624 C256.662413,583.221111 254.2103,583.195051 251.51006,582.809172 C248.540232,582.384768 245.378369,581.543606 242.161927,580.408365 C240.493019,579.819325 238.915636,579.188362 237.477943,578.557174 L236.629947,578.177103 L235.705883,577.741181 C235.682287,577.729578 235.66174,577.719394 235.64429,577.710669 C235.360129,577.568589 235.24495,577.223052 235.387031,576.93889 Z" id="Stroke-102" fill="#1D39C4" fill-rule="nonzero"></path>
        <path d="M291.7794,499.3511 C292.097102,499.3511 292.35465,499.608648 292.35465,499.92635 C292.35465,500.212282 292.146036,500.449489 291.872709,500.494071 L291.7794,500.5016 L216.2859,500.5016 C215.968198,500.5016 215.71065,500.244052 215.71065,499.92635 C215.71065,499.640418 215.919264,499.403211 216.192591,499.358629 L216.2859,499.3511 L291.7794,499.3511 Z" id="Stroke-104" fill="#1D39C4" fill-rule="nonzero"></path>
        <path d="M291.8454,511.3511 C292.163102,511.3511 292.42065,511.608648 292.42065,511.92635 C292.42065,512.212282 292.212036,512.449489 291.938709,512.494071 L291.8454,512.5016 L216.2859,512.5016 C215.968198,512.5016 215.71065,512.244052 215.71065,511.92635 C215.71065,511.640418 215.919264,511.403211 216.192591,511.358629 L216.2859,511.3511 L291.8454,511.3511 Z" id="Stroke-106" fill="#1D39C4" fill-rule="nonzero"></path>
        <path d="M197.380817,392.053856 C197.490414,391.763171 197.814908,391.61637 198.105594,391.725967 C198.367211,391.824605 198.512281,392.097308 198.458783,392.362772 L198.433483,392.450744 L185.482483,426.800744 C185.372886,427.091429 185.048392,427.23823 184.757706,427.128633 C184.496089,427.029995 184.351019,426.757292 184.404517,426.491828 L184.429817,426.403856 L197.380817,392.053856 Z" id="Stroke-108" fill="#597EF7" fill-rule="nonzero"></path>
        <g id="分组" transform="translate(285.000000, 437.703500)">
            <mask id="mask-4" fill="white">
                <use xlink:href="#path-3"></use>
            </mask>
            <g id="Clip-111"></g>
            <path d="M52.8063,4.6179 C52.8063,4.6179 69.8028,-6.4266 79.7673,7.6794 C90.0423,22.2249 74.2428,33.5859 74.2428,33.5859 C74.2428,33.5859 62.9223,41.3019 49.0128,50.8719 C40.5213,56.7144 31.0113,62.9769 23.4363,66.5184 C15.2358,70.3539 11.5893,66.7269 6.6078,59.6739 C0.6918,51.2994 -0.9132,47.2509 5.6403,41.0964 C11.8908,35.2299 21.2838,28.5039 28.3218,22.9584 C41.7393,12.3834 52.8063,4.6179 52.8063,4.6179" id="Fill-110" fill="#ADC6FF" mask="url(#mask-4)"></path>
        </g>
        <polygon id="Fill-112" fill="#ADC6FF" points="290.0547 510.18395 278.5062 493.89095 288.7722 484.99445 301.9827 503.63345"></polygon>
        <path d="M281.0781,487.5074 C281.0781,487.5074 288.4251,476.4854 291.6156,476.1419 C296.5596,475.6094 295.2846,485.6909 295.2846,485.6909 C295.2846,485.6909 299.9991,487.5299 298.2936,492.8819 C301.0176,497.1359 298.9356,499.9034 298.9356,499.9034 C298.9356,499.9034 302.3826,502.8419 299.1591,506.5139 C295.9356,510.1874 287.0466,511.2209 287.0526,504.8954 C282.8421,502.2854 285.0111,498.3329 285.0111,498.3329 C285.0111,498.3329 281.7936,495.6809 283.9941,491.8889 C281.1411,490.9904 280.3236,488.6639 281.0781,487.5074" id="Fill-114" fill="#CE998A"></path>
        <path d="M291.726321,484.113921 C291.956391,483.905169 292.312126,483.922451 292.520879,484.152521 C292.706436,484.357027 292.713399,484.660825 292.55107,484.872425 L292.482279,484.947079 L284.371779,492.306079 C284.141709,492.514831 283.785974,492.497549 283.577221,492.267479 C283.391664,492.062973 283.384701,491.759175 283.54703,491.547575 L283.615821,491.472921 L291.726321,484.113921 Z" id="Stroke-116" fill="#965C56" fill-rule="nonzero"></path>
        <path d="M291.53481,475.584332 C294.172455,475.201526 295.498565,477.314018 295.875142,480.838839 C296.019319,482.188357 296.012292,483.619738 295.914353,484.971292 L295.879,485.403 L296.153239,485.59725 C296.580427,485.910497 297.007122,486.277005 297.4067,486.695544 C299.02097,488.386416 299.730948,490.38965 298.998496,492.605511 L298.927,492.807 L298.93577,492.818688 C300.615085,495.281487 300.785303,497.467974 299.996595,499.23694 L299.908446,499.424868 C299.822108,499.600161 299.734757,499.753373 299.651149,499.884135 L299.542,500.043 L300.437282,504.081322 C300.497763,504.354296 300.348777,504.62488 300.097266,504.725257 L300.009778,504.752182 C299.736804,504.812663 299.46622,504.663677 299.365843,504.412166 L299.338918,504.324678 L298.386418,500.025678 C298.346458,499.845324 298.397599,499.656845 298.523239,499.521423 C298.605298,499.432976 298.749501,499.231764 298.89922,498.927788 C299.635937,497.432026 299.505745,495.52805 297.837157,493.211234 C297.72245,493.051965 297.699058,492.844423 297.775434,492.663616 C298.594966,490.723527 298.046417,488.994793 296.592986,487.472394 C296.242146,487.104905 295.86482,486.780802 295.487988,486.50448 L295.283118,486.358746 C295.159687,486.273819 295.063893,486.213524 295.003775,486.178884 C294.808549,486.066397 294.699282,485.848268 294.726098,485.624555 L294.767572,485.204389 C294.775581,485.11056 294.783928,485.005449 294.792295,484.889983 C294.885789,483.599766 294.892507,482.231325 294.756508,480.958349 C294.439184,477.988148 293.467712,476.440593 291.69639,476.697668 C291.388951,476.742287 291.103551,476.529229 291.058932,476.22179 C291.014313,475.914351 291.227371,475.628951 291.53481,475.584332 Z" id="Stroke-118" fill="#965C56" fill-rule="nonzero"></path>
        <path d="M293.142477,493.414134 C293.41733,493.26934 293.757522,493.374774 293.902316,493.649627 C294.031022,493.893941 293.962017,494.189881 293.752055,494.354322 L293.666823,494.409466 L285.272823,498.831466 C284.99797,498.97626 284.657778,498.870826 284.512984,498.595973 C284.384278,498.351659 284.453283,498.055719 284.663245,497.891278 L284.748477,497.836134 L293.142477,493.414134 Z" id="Stroke-120" fill="#965C56" fill-rule="nonzero"></path>
        <path d="M295.113638,500.977129 C295.401004,500.8591 295.729641,500.996373 295.847671,501.283738 C295.953897,501.542367 295.853328,501.834426 295.622663,501.976295 L295.541062,502.017771 L287.265562,505.416771 C286.978196,505.5348 286.649559,505.397527 286.531529,505.110162 C286.425303,504.851533 286.525872,504.559474 286.756537,504.417605 L286.838138,504.376129 L295.113638,500.977129 Z" id="Stroke-122" fill="#965C56" fill-rule="nonzero"></path>
        <path d="M300.5082,390.7883 C300.694596,390.539772 301.047172,390.489404 301.2957,390.6758 C301.544228,390.862196 301.594596,391.214772 301.4082,391.4633 L301.291422,391.626975 C301.25617,391.67783 301.214905,391.738299 301.167999,391.808296 L300.918641,392.191331 C300.788672,392.396434 300.65105,392.621853 300.507033,392.867302 C299.81796,394.041698 299.12765,395.423075 298.482651,397.000916 C294.597584,406.50484 294.11233,417.958389 299.229789,430.899956 C299.344026,431.18885 299.202438,431.515652 298.913544,431.629889 C298.62465,431.744126 298.297848,431.602538 298.183611,431.313644 C292.95353,418.087266 293.451416,406.335558 297.441299,396.575227 C298.107149,394.946378 298.821319,393.517256 299.536726,392.297978 L299.829871,391.810641 C299.924559,391.657257 300.016095,391.512963 300.104104,391.37784 L300.370487,390.980829 C300.430248,390.894734 300.476575,390.830467 300.5082,390.7883 Z" id="Stroke-124" fill="#597EF7" fill-rule="nonzero"></path>
        <path d="M338.196528,440.052421 C338.43839,439.857452 338.792511,439.895467 338.987479,440.137328 C339.160784,440.352316 339.150005,440.656003 338.975602,440.857767 L338.902572,440.928279 L301.380072,471.175779 C301.13821,471.370748 300.784089,471.332733 300.589121,471.090872 C300.415816,470.875884 300.426595,470.572197 300.600998,470.370433 L300.674028,470.299921 L338.196528,440.052421 Z" id="Stroke-126" fill="#597EF7" fill-rule="nonzero"></path>
    </g>
</svg>