<?xml version="1.0" encoding="UTF-8"?>
<svg width="512px" height="1024px" viewBox="0 0 512 1024" version="1.1" xmlns="http://www.w3.org/2000/svg" xmlns:xlink="http://www.w3.org/1999/xlink">
    <!-- Generator: Sketch 61.2 (89653) - https://sketch.com -->
    <title>2.人物组件/6.产品经理/站立/摸头</title>
    <desc>Created with Sketch.</desc>
    <defs>
        <polygon id="path-1" points="0.299963456 0.0157697172 82.0995 0.0157697172 82.0995 77.9625782 0.299963456 77.9625782"></polygon>
        <polygon id="path-3" points="0 0.896779117 83.6868742 0.896779117 83.6868742 63.4646243 0 63.4646243"></polygon>
    </defs>
    <g id="2.人物组件/6.产品经理/站立/摸头" stroke="none" stroke-width="1" fill="none" fill-rule="evenodd">
        <path d="M275.8056,300.4636 C275.8056,300.4636 291.0306,310.5421 289.8291,319.0381 C288.7401,326.7316 278.7351,326.671607 278.7351,326.671607 C278.7351,326.671607 270.9186,325.7356 262.7781,322.4371 C257.4441,320.2756 246.6906,317.6806 247.0641,314.6521 C247.5486,310.7056 258.1101,315.1531 260.1621,313.1131 C264.3216,308.9791 248.4411,300.2311 246.6276,297.4321 C243.0846,291.9571 257.6361,288.2341 275.8056,300.4636" id="Fill-1" fill="#BC877A"></path>
        <path d="M248.034604,294.830836 C248.138055,294.537907 248.459384,294.384304 248.752314,294.487754 C251.515754,295.463686 254.225906,296.944477 256.834848,298.794118 C258.546609,300.007692 260.113069,301.307176 261.502364,302.607115 C261.989196,303.062634 262.419447,303.486044 262.78907,303.866672 L263.201688,304.301715 C263.219321,304.320976 263.234948,304.338205 263.24855,304.353354 C263.456096,304.584513 263.436954,304.940154 263.205796,305.1477 C262.974637,305.355246 262.618996,305.336104 262.41145,305.104946 L262.082718,304.754628 L261.981994,304.650414 C261.624569,304.282349 261.207083,303.871501 260.733725,303.428589 C259.379625,302.161581 257.851763,300.894117 256.184194,299.711873 C253.654681,297.918544 251.034032,296.486657 248.377686,295.548546 C248.084757,295.445095 247.931154,295.123766 248.034604,294.830836 Z" id="Stroke-3" fill="#965C56" fill-rule="nonzero"></path>
        <path d="M252.033482,292.728099 C252.123864,292.430877 252.438079,292.2632 252.735301,292.353582 L252.955102,292.425654 L253.064859,292.463687 C253.324098,292.554603 253.625266,292.667841 253.965584,292.804912 C254.932555,293.194379 256.0227,293.697274 257.21376,294.325686 C260.608121,296.116574 264.13825,298.554417 267.625263,301.735703 C267.854764,301.945082 267.871075,302.300863 267.661697,302.530363 C267.452318,302.759864 267.096537,302.776175 266.867037,302.566797 C263.452925,299.452021 260.001304,297.068394 256.68879,295.320689 C255.532444,294.710593 254.477213,294.223804 253.545278,293.848448 C253.383129,293.783139 253.230762,293.723679 253.088525,293.669882 L252.513646,293.463965 C252.466105,293.44813 252.430774,293.436843 252.407999,293.429918 C252.110777,293.339536 251.9431,293.025321 252.033482,292.728099 Z" id="Stroke-5" fill="#965C56" fill-rule="nonzero"></path>
        <path d="M260.751752,293.526969 C260.896827,293.252264 261.237126,293.147177 261.511831,293.292252 C264.831332,295.045314 267.568876,296.800153 269.761005,298.47388 C270.421401,298.978103 270.991733,299.444606 271.474887,299.866863 L271.709213,300.074275 C272.031121,300.362977 272.244216,300.569262 272.353092,300.682769 C272.568141,300.906965 272.560726,301.263043 272.336531,301.478092 C272.112335,301.693141 271.756257,301.685726 271.541208,301.461531 L271.439079,301.358928 C271.332702,301.254769 271.17293,301.104473 270.958087,300.911791 C270.450146,300.456244 269.825083,299.93823 269.078295,299.368045 C266.935424,297.731928 264.250468,296.010799 260.986469,294.287048 C260.711764,294.141973 260.606677,293.801674 260.751752,293.526969 Z" id="Stroke-7" fill="#965C56" fill-rule="nonzero"></path>
        <g id="分组" transform="translate(280.500000, 316.661500)">
            <mask id="mask-2" fill="white">
                <use xlink:href="#path-1"></use>
            </mask>
            <g id="Clip-10"></g>
            <path d="M48.59805,71.53305 C48.59805,71.53305 64.98555,85.53105 77.12955,72.21855 C89.65455,58.49055 74.55705,44.33505 74.55705,44.33505 C74.55705,44.33505 63.68655,34.63605 50.34255,22.62405 C42.19455,15.29055 33.03705,7.37355 25.56405,2.57805 C17.47155,-2.61495 13.21755,0.65205 7.14555,7.30905 C-0.06495,15.21255 -2.24295,19.21455 3.84405,26.59305 C9.64605,33.62805 18.62805,42.01455 25.29255,48.82755 C38.00055,61.81905 48.59805,71.53305 48.59805,71.53305" id="Fill-9" fill="#ADC6FF" mask="url(#mask-2)"></path>
        </g>
        <polygon id="Fill-11" fill="#ADC6FF" points="289.3041 311.7076 275.2626 327.0991 284.6511 337.6966 300.7146 320.0866"></polygon>
        <path d="M258.3432,365.25355 L255.2952,343.03105 L225.6927,345.68155 L226.9677,368.20255 C227.4177,376.92205 234.9687,383.55505 243.6732,382.87705 C243.8397,382.86355 244.0047,382.85005 244.1727,382.83805 C253.0737,382.14805 259.5582,374.10055 258.3432,365.25355" id="Fill-13" fill="#CE998A"></path>
        <path d="M265.50045,319.61485 C265.50045,319.61485 272.29395,310.33735 277.40595,318.08635 C282.26445,325.44685 274.61595,336.76435 267.14895,335.29135 C263.32395,328.33135 265.50045,319.61485 265.50045,319.61485" id="Fill-15" fill="#CE998A"></path>
        <path d="M212.8086,324.30025 C212.8086,324.30025 204.4836,316.36675 200.8191,324.89575 C197.3376,332.99875 206.8611,342.78925 213.9516,340.02025 C216.4881,332.49625 212.8086,324.30025 212.8086,324.30025" id="Fill-17" fill="#CE998A"></path>
        <path d="M268.76415,321.1639 C271.14015,347.8954 258.49065,356.1424 242.11065,357.5989 C225.73215,359.0554 212.97165,353.3509 209.44815,326.4379 C206.20665,301.6804 219.77565,292.0639 236.15415,290.6074 C252.53415,289.1509 266.67615,297.6949 268.76415,321.1639" id="Fill-19" fill="#CE998A"></path>
        <path d="M242.07765,326.64175 C242.30415,332.05675 246.87765,336.26425 252.29415,336.03775 C257.70915,335.81125 261.91665,331.23625 261.68865,325.82125 C261.46215,320.40625 256.88865,316.20025 251.47365,316.42525 C246.05715,316.65325 241.85115,321.22675 242.07765,326.64175" id="Fill-21" fill="#FFFFFF"></path>
        <path d="M251.444568,315.734362 C245.64668,315.978416 241.144292,320.874042 241.386754,326.670649 C241.629234,332.467675 246.52543,336.971083 252.323041,336.728646 C258.119886,336.486174 262.623599,331.58861 262.379538,325.79216 C262.141074,320.091132 257.400958,315.641458 251.729285,315.72631 L251.444568,315.734362 Z M251.502732,317.116138 C256.536181,316.906992 260.787225,320.81697 260.997754,325.850149 C261.209683,330.883462 257.298842,335.136308 252.265251,335.346854 C247.230806,335.557378 242.979106,331.646762 242.768546,326.612851 C242.558002,321.579317 246.467762,317.328078 251.502732,317.116138 Z" id="Stroke-23" fill="#7D4556" fill-rule="nonzero"></path>
        <path d="M251.744818,322.380108 C253.404975,322.310467 254.593052,323.070881 255.322304,324.338276 C255.725463,325.038943 255.912427,325.728849 255.970471,326.217421 C256.015526,326.596659 255.744617,326.940616 255.365379,326.985671 C255.017744,327.026971 254.699755,326.802774 254.614467,326.473011 L254.578006,326.263223 C254.56359,326.188304 254.54154,326.090296 254.510272,325.974918 C254.422224,325.650017 254.294814,325.325618 254.123576,325.028017 C253.636097,324.180806 252.909076,323.715486 251.802782,323.761892 C250.757983,323.80572 250.141528,324.31559 249.790943,325.20282 C249.596784,325.69418 249.517308,326.211053 249.506889,326.623553 L249.506518,326.79357 C249.522775,327.182434 249.226498,327.504797 248.844932,327.520886 C248.495163,327.535634 248.195141,327.287908 248.135174,326.952615 L248.123855,326.824061 C248.110573,326.221783 248.203197,325.457636 248.504718,324.694574 C249.043505,323.331059 250.110349,322.44867 251.744818,322.380108 Z" id="Stroke-25" fill="#7D4556" fill-rule="nonzero"></path>
        <path d="M219.033768,315.3479 C221.92119,313.324924 226.341017,313.0321 232.526499,315.467113 C232.88186,315.607006 233.056531,316.008489 232.916637,316.363849 C232.776744,316.71921 232.375261,316.893881 232.019901,316.753987 C226.24385,314.480154 222.310618,314.74074 219.827335,316.480569 C219.418709,316.766859 219.090007,317.070973 218.834586,317.371512 L218.688706,317.552814 C218.669106,317.578777 218.65183,317.602493 218.636829,317.623782 L218.57374,317.72095 C218.386847,318.054 217.96535,318.172484 217.6323,317.98559 C217.29925,317.798697 217.180766,317.3772 217.36766,317.04415 C217.6214,316.591977 218.156137,315.962783 219.033768,315.3479 Z" id="Stroke-27" fill="#7D4556" fill-rule="nonzero"></path>
        <path d="M252.873097,311.794693 C254.689917,311.671339 256.323216,311.933973 257.715935,312.65447 C258.055137,312.82995 258.18786,313.247183 258.01238,313.586385 C257.8369,313.925587 257.419667,314.05831 257.080465,313.88283 C255.934366,313.289916 254.54874,313.067109 252.966781,313.174517 C251.246549,313.291313 249.383724,313.788607 247.501302,314.546121 C246.88809,314.792886 246.306785,315.053858 245.76812,315.317461 L245.372283,315.515475 C244.987383,315.712288 244.71398,315.863806 244.572689,315.947361 C244.243963,316.141759 243.819887,316.032865 243.625489,315.704139 C243.431091,315.375413 243.539985,314.951337 243.868711,314.756939 L244.104843,314.622923 L244.512104,314.403523 C244.586022,314.36473 244.6629,314.324892 244.742646,314.284116 C245.423782,313.935826 246.177773,313.587948 246.985,313.263108 C248.991354,312.455722 250.988103,311.922676 252.873097,311.794693 Z" id="Stroke-29" fill="#7D4556" fill-rule="nonzero"></path>
        <path d="M234.492677,318.519288 C234.756013,318.354473 235.103098,318.434341 235.267912,318.697677 L235.410226,318.935865 C235.486698,319.068238 235.579872,319.235255 235.686032,319.434094 C235.993446,320.009883 236.300427,320.652454 236.586995,321.346947 C237.360136,323.220639 237.845437,325.120785 237.900351,326.950363 C237.937851,328.210098 237.807032,329.335878 237.497403,330.895677 L237.175322,332.483884 C236.872558,334.0409 236.870223,334.463959 237.081208,334.986535 C237.388528,335.74772 238.42038,336.167895 240.694308,336.213212 C241.004906,336.219401 241.251678,336.476209 241.245488,336.786808 C241.239299,337.097406 240.982491,337.344178 240.671892,337.338102 C237.995896,337.284659 236.559703,336.699835 236.038022,335.40771 L235.964944,335.216479 C235.709353,334.501119 235.737364,333.947975 236.096846,332.134451 L236.314731,331.066418 C236.666091,329.373202 236.813263,328.24068 236.775853,326.983976 C236.72555,325.308021 236.272517,323.534218 235.547049,321.77606 C235.275402,321.117726 234.984294,320.50838 234.693619,319.963944 L234.555526,319.709915 C234.449383,319.518385 234.366545,319.378018 234.314288,319.294523 C234.149473,319.031187 234.229341,318.684102 234.492677,318.519288 Z" id="Stroke-31" fill="#965C56" fill-rule="nonzero"></path>
        <path d="M246.996419,338.162722 C247.303891,338.053187 247.641942,338.213646 247.751478,338.521119 C247.861013,338.828591 247.700554,339.166642 247.393081,339.276178 C242.79177,340.915372 237.950866,341.228286 233.635084,340.785903 L233.121914,340.728451 L232.421652,340.631073 C232.378685,340.62415 232.344185,340.618291 232.318383,340.613662 C231.997112,340.556021 231.783398,340.248853 231.841038,339.927583 C231.898679,339.606312 232.205847,339.392598 232.527117,339.450238 L232.732015,339.483099 L232.8393,339.49883 C233.102704,339.536633 233.409354,339.574571 233.755612,339.610064 C237.911548,340.036063 242.586015,339.733906 246.996419,338.162722 Z" id="Stroke-33" fill="#7D4556" fill-rule="nonzero"></path>
        <path d="M217.0566,328.72915 C217.6011,334.12165 222.4146,338.05165 227.8071,337.50715 C233.1996,336.96265 237.1296,332.14915 236.5851,326.75665 C236.0406,321.36265 231.2271,317.43265 225.8346,317.97865 C220.4421,318.52315 216.5121,323.33665 217.0566,328.72915" id="Fill-35" fill="#FFFFFF"></path>
        <path d="M225.764941,317.290668 C219.992764,317.873505 215.78572,323.026041 216.368598,328.79862 C216.951455,334.570986 222.103991,338.77803 227.87657,338.195152 C233.648936,337.612295 237.85598,332.459759 237.273102,326.68718 C236.690253,320.913289 231.537629,316.706173 225.764941,317.290668 Z M235.897096,326.826101 C236.403245,331.838781 232.750023,336.313029 227.73763,336.819148 C222.724969,337.325295 218.250721,333.672073 217.744602,328.65968 C217.238455,323.647019 220.891677,319.172771 225.904259,318.666632 C230.916812,318.159103 235.390971,321.812252 235.897096,326.826101 Z" id="Stroke-37" fill="#7D4556" fill-rule="nonzero"></path>
        <path d="M226.455302,323.905361 C228.145131,323.734415 229.390175,324.456288 230.189686,325.721867 C230.604955,326.379213 230.819103,327.027955 230.901548,327.487824 C230.968941,327.863735 230.718838,328.223105 230.342926,328.290498 C230.001188,328.351765 229.673122,328.150637 229.565664,327.831134 L229.495238,327.54509 C229.479604,327.489081 229.460046,327.424197 229.436223,327.352027 C229.335354,327.046454 229.197711,326.741092 229.020457,326.46051 C228.483119,325.609936 227.72,325.167481 226.594235,325.281365 C225.57878,325.383698 224.998453,325.905702 224.693011,326.775299 C224.529761,327.240073 224.46808,327.738095 224.470714,328.176027 L224.481411,328.450978 C224.519725,328.830956 224.24275,329.170048 223.862772,329.208361 C223.482794,329.246675 223.143702,328.9697 223.105389,328.589722 L223.096341,328.466154 C223.060269,327.815888 223.12754,327.058974 223.388163,326.316977 C223.861031,324.970715 224.867529,324.065369 226.455302,323.905361 Z" id="Stroke-39" fill="#7D4556" fill-rule="nonzero"></path>
        <g id="分组" transform="translate(236.000000, 321.500000)">
            <path d="M0.8193,2.60625 C0.8193,2.60625 3.3558,0.97275 5.9493,2.15025" id="Fill-41" fill="#FFFFFF"></path>
            <path d="M0.8193,2.60625 C0.8193,2.60625 3.3558,0.97275 5.9493,2.15025" id="Stroke-43" stroke="#7D4556" stroke-width="1.383"></path>
        </g>
        <path d="M256.420198,353.252759 C256.696253,353.110268 257.035551,353.218544 257.178041,353.494598 C257.320532,353.770653 257.212256,354.109951 256.936202,354.252441 C247.484997,359.130843 237.394686,359.423448 228.271046,357.165122 C227.969487,357.090478 227.785535,356.785506 227.860178,356.483946 C227.934822,356.182387 228.239794,355.998435 228.541354,356.073078 C237.424083,358.271774 247.248519,357.986879 256.420198,353.252759 Z" id="Stroke-44" fill="#965C56" fill-rule="nonzero"></path>
        <path d="M242.816804,344.076663 C243.126242,344.049134 243.399408,344.277666 243.426937,344.587104 C243.451713,344.865599 243.269079,345.114712 243.006725,345.181819 L242.916496,345.197237 L238.498996,345.590237 C238.189558,345.617766 237.916392,345.389234 237.888863,345.079796 C237.864087,344.801301 238.046721,344.552188 238.309075,344.485081 L238.399304,344.469663 L242.816804,344.076663 Z" id="Stroke-46" fill="#965C56" fill-rule="nonzero"></path>
        <path d="M239.774229,350.414147 C240.053701,350.405861 240.291594,350.602887 240.34309,350.868747 L240.353153,350.959729 L240.534653,357.081229 C240.54386,357.391753 240.299594,357.650946 239.989071,357.660153 C239.709599,357.668439 239.471706,357.471413 239.42021,357.205553 L239.410147,357.114571 L239.228647,350.993071 C239.21944,350.682547 239.463706,350.423354 239.774229,350.414147 Z" id="Stroke-48" fill="#965C56" fill-rule="nonzero"></path>
        <path d="M242.280771,352.034388 C242.556544,351.988321 242.818934,352.151307 242.905968,352.407741 L242.928262,352.496521 L243.700762,357.121021 C243.751948,357.427436 243.545043,357.717327 243.238629,357.768512 C242.962856,357.814579 242.700466,357.651593 242.613432,357.395159 L242.591138,357.306379 L241.818638,352.681879 C241.767452,352.375464 241.974357,352.085573 242.280771,352.034388 Z" id="Stroke-50" fill="#965C56" fill-rule="nonzero"></path>
        <path d="M237.836094,353.854543 C238.11512,353.87236 238.3336,354.090716 238.360074,354.36022 L238.361607,354.451744 L238.184607,357.223744 C238.164811,357.533773 237.897435,357.769053 237.587406,357.749257 C237.30838,357.73144 237.0899,357.513084 237.063426,357.24358 L237.061893,357.152056 L237.238893,354.380056 C237.258689,354.070027 237.526065,353.834747 237.836094,353.854543 Z" id="Stroke-52" fill="#965C56" fill-rule="nonzero"></path>
        <path d="M244.566436,353.036967 C244.834316,352.956885 245.114976,353.085892 245.233296,353.329477 L245.266483,353.414786 L246.205483,356.555786 C246.294463,356.853431 246.125308,357.166852 245.827664,357.255833 C245.559784,357.335915 245.279124,357.206908 245.160804,356.963323 L245.127617,356.878014 L244.188617,353.737014 C244.099637,353.439369 244.268792,353.125948 244.566436,353.036967 Z" id="Stroke-54" fill="#965C56" fill-rule="nonzero"></path>
        <path d="M202.430988,327.09378 C203.541469,325.559907 205.163551,325.451695 206.896035,327.680864 C207.65996,329.075465 207.685992,330.035596 207.24904,331.445124 L207.01674,332.156972 C207.002844,332.202492 206.991256,332.242918 206.977058,332.293756 C206.76049,333.069224 206.844029,333.589452 207.43829,334.329399 C207.584709,334.511733 207.744237,334.662716 207.915031,334.785809 C208.31669,335.075288 208.727627,335.187211 209.05042,335.19743 L209.258327,335.196056 C209.528411,335.215766 209.752175,335.428702 209.776982,335.707194 C209.801788,335.985685 209.619181,336.234819 209.356834,336.301954 L209.2425,336.319141 L209.219804,336.32041 C208.650815,336.347072 207.943517,336.193067 207.257263,335.698478 C207.004733,335.516478 206.771307,335.295555 206.561128,335.033823 C205.779723,334.060851 205.60446,333.212746 205.840818,332.196689 L205.955542,331.780488 C205.984738,331.687657 206.024738,331.567561 206.100346,331.341653 C206.529557,330.059229 206.542245,329.376702 205.959466,328.297438 C204.755455,326.756579 204.028901,326.805048 203.342245,327.753504 C203.137808,328.035888 202.997985,328.323795 202.933348,328.500162 C202.826446,328.79185 202.503326,328.941649 202.211638,328.834748 C201.91995,328.727846 201.770151,328.404726 201.877052,328.113038 C201.974214,327.847926 202.155999,327.473615 202.430988,327.09378 Z" id="Stroke-56" fill="#965C56" fill-rule="nonzero"></path>
        <path d="M273.342953,319.833608 C274.058919,319.789283 274.697697,320.1344 275.261667,320.710159 C275.560145,321.014877 275.776388,321.31694 275.901621,321.531358 C276.0583,321.799615 275.967848,322.144093 275.699592,322.300771 C275.431335,322.45745 275.086857,322.366998 274.930179,322.098742 C274.847696,321.95752 274.682045,321.726125 274.457987,321.497384 C274.100074,321.13199 273.737893,320.936311 273.412469,320.956458 C272.995771,320.982256 272.529569,321.35157 272.034786,322.216589 L271.938,322.392 L271.880565,322.574417 C271.578039,323.597111 271.689181,324.247385 272.180749,325.202312 L272.529431,325.851356 C273.132017,327.007308 273.194501,327.916687 272.510716,329.170404 C272.273985,329.604412 271.973505,329.958116 271.624752,330.236394 C271.058602,330.68814 270.488899,330.873537 270.076365,330.910326 C269.766933,330.937921 269.493719,330.709447 269.466124,330.400015 C269.438529,330.090583 269.667003,329.817369 269.976435,329.789774 C270.18766,329.770937 270.553596,329.651851 270.923084,329.357027 C271.156501,329.170779 271.359161,328.93222 271.523074,328.631714 C271.977051,327.799349 271.976137,327.290095 271.61476,326.536761 L271.404323,326.133436 C271.37648,326.082358 271.343796,326.022662 271.303953,325.949989 C270.544351,324.555476 270.35675,323.567927 270.920972,321.907925 L270.935347,321.880814 C271.635584,320.565853 272.442423,319.889359 273.342953,319.833608 Z" id="Stroke-58" fill="#965C56" fill-rule="nonzero"></path>
        <g id="分组" transform="translate(202.500000, 280.661500)" fill="#7D4556">
            <path d="M3.0252,39.80625 C-1.5243,33.14325 0.4002,26.18925 3.8217,23.34075 C2.1522,17.27025 5.3862,5.95875 13.9812,4.06425 C19.2792,5.64225 25.3977,5.30925 25.3977,5.30925 C25.3977,5.30925 39.2337,-4.40025 50.2272,4.79775 C60.5037,2.75325 66.8802,14.05875 66.4137,18.33975 C72.6447,24.85275 69.1062,35.90925 69.1062,35.90925 C69.1062,35.90925 68.8467,40.08675 67.4547,45.95025 C66.0147,52.01475 64.4997,44.51625 64.3512,42.83325 C64.2012,41.15025 59.8707,40.12275 60.5982,32.42475 C55.5312,29.48325 56.1222,24.20175 56.1222,24.20175 C56.1222,24.20175 52.9977,28.01325 42.7587,24.11775 C36.2712,30.63225 25.0902,25.68975 25.0902,25.68975 C25.0902,25.68975 16.8342,30.59325 11.5107,27.95625 C11.5107,27.95625 13.2882,32.03925 9.8847,38.27775 C11.7867,43.76175 7.8792,46.72425 9.3012,49.98975 C10.7217,53.25525 7.9362,56.89425 6.2157,50.26425 C6.2157,50.26425 1.3062,45.89475 3.0252,39.80625 Z" id="Fill-60"></path>
        </g>
        <path d="M285.6171,659.46895 C287.6166,620.26345 289.2846,579.71395 289.8756,547.42795 C289.8756,547.42795 286.3476,523.87795 264.8391,527.02645 C243.7596,530.11195 242.7531,556.54345 242.7531,556.54345 L247.8666,660.83695 C247.8666,660.83695 248.8881,677.81395 267.7491,676.79845 C284.9526,675.87445 285.6171,659.46895 285.6171,659.46895" id="Fill-62" fill="#597EF7"></path>
        <path d="M268.1034,756.3133 L268.1034,756.3133 C260.7429,754.8298 253.9239,760.5943 254.1774,768.0973 C254.4669,776.7313 254.8014,788.3968 254.9904,800.9623 C255.1854,813.8953 255.3729,824.6113 256.2969,825.9733 C260.3679,831.9748 268.5144,834.2143 276.8814,840.1633 C283.5024,844.8718 284.6424,847.1068 293.0859,848.6968 C305.0544,850.9498 299.4789,845.8678 286.2039,829.7953 C274.3794,815.4763 275.1819,808.7668 275.1819,808.7668 L277.4229,768.3628 C277.7424,762.5893 273.7719,757.4548 268.1034,756.3133" id="Fill-64" fill="#CE998A"></path>
        <path d="M285.0063,825.9952 C293.6448,835.6147 303.5478,843.2212 303.3018,847.7857 C303.0573,852.3487 299.4543,856.4677 284.5713,851.1697 C274.3863,847.5442 277.3038,845.3617 267.5853,839.0242 C262.7313,835.8592 260.9613,836.1982 256.4868,832.5172 C253.9233,829.2142 255.0948,813.1852 255.0948,813.1852 L272.1183,831.8767 C272.1183,831.8767 267.6963,823.1737 271.3398,821.2927 C274.9818,819.4102 278.3358,818.1307 280.4808,819.6787 C282.6273,821.2252 285.0063,825.9952 285.0063,825.9952" id="Fill-66" fill="#7D4556"></path>
        <path d="M285.49845,662.92885 C281.64345,730.78285 278.69895,798.70885 278.69895,798.70885 L252.81945,799.09885 L247.26945,663.45985 C247.26945,663.45985 249.04245,643.09585 267.92745,643.40335 C284.96745,643.68085 285.49845,662.92885 285.49845,662.92885" id="Fill-68" fill="#597EF7"></path>
        <path d="M202.50915,659.19415 C200.60265,619.98265 198.50415,581.82715 197.99115,549.53815 C197.99115,549.53815 202.10415,523.60165 223.60515,526.80115 C244.67865,529.93765 245.62065,556.37215 245.62065,556.37215 L240.25665,660.65215 C240.25665,660.65215 239.19465,677.62765 220.33665,676.56715 C203.13615,675.59965 202.50915,659.19415 202.50915,659.19415" id="Fill-70" fill="#597EF7"></path>
        <path d="M219.79005,756.0805 L219.79005,756.0805 C227.15355,754.615 233.95905,760.3945 233.68905,767.899 C233.37705,776.5315 233.01405,788.1955 232.79505,800.7595 C232.57005,813.6925 232.35555,824.41 231.42855,825.769 C227.34255,831.76 219.19155,833.98 210.81105,839.9095 C204.17805,844.6015 203.03055,846.8335 194.58405,848.4025 C182.61105,850.627 188.19855,845.5585 201.51105,829.5175 C213.37305,815.2285 212.58405,808.5175 212.58405,808.5175 L210.44355,768.1075 C210.13455,762.3325 214.11855,757.2085 219.79005,756.0805" id="Fill-72" fill="#CE998A"></path>
        <path d="M202.7187,825.7213 C194.0592,835.3198 184.1352,842.9023 184.3707,847.4668 C184.6047,852.0328 188.1972,856.1593 203.0937,850.8973 C213.2877,847.2958 210.3747,845.1058 220.1082,838.7923 C224.9697,835.6393 226.7397,835.9813 231.2232,832.3108 C233.7942,829.0138 232.6632,812.9833 232.6632,812.9833 L215.5917,831.6328 C215.5917,831.6328 220.0362,822.9418 216.3972,821.0518 C212.7582,819.1603 209.4087,817.8733 207.2577,819.4153 C205.1097,820.9573 202.7187,825.7213 202.7187,825.7213" id="Fill-74" fill="#7D4556"></path>
        <path d="M202.6191,662.6542 C206.3121,730.5172 209.0871,798.4537 209.0871,798.4537 L234.9696,798.9022 L240.8481,663.2767 C240.8481,663.2767 239.1231,642.9082 220.2381,643.1707 C203.1966,643.4062 202.6191,662.6542 202.6191,662.6542" id="Fill-76" fill="#597EF7"></path>
        <path d="M263.58735,375.29515 L261.69135,368.32615 L224.81685,369.33265 L223.33485,376.01215 C223.33485,376.01215 193.57485,379.78615 189.15285,390.84715 C184.58985,402.25915 200.32485,466.95115 205.39335,478.21465 C200.88735,487.22515 204.15285,495.84715 204.15285,495.84715 L279.15285,495.84715 C279.15285,495.84715 288.17235,493.41865 282.54135,483.84565 C285.54285,463.42015 297.08985,393.94615 294.36735,383.04715 C291.36735,371.04715 263.58735,375.29515 263.58735,375.29515" id="Fill-78" fill="#ADC6FF"></path>
        <path d="M193.195169,399.499885 C193.50476,399.525632 193.734862,399.797477 193.709115,400.107069 C193.271773,405.365846 193.628353,413.141515 194.616868,422.755794 C195.040909,426.880011 195.57093,431.236261 196.182825,435.727734 C196.699879,439.523048 197.249792,443.23085 197.803342,446.734059 L198.282469,449.710185 L198.841505,453.025278 C198.895448,453.331219 198.691163,453.622963 198.385222,453.676905 C198.079281,453.730848 197.787537,453.526563 197.733595,453.220622 L197.342988,450.924533 C197.232306,450.260214 197.115318,449.547977 196.992994,448.791703 L196.900265,448.2163 C196.27567,444.326436 195.651094,440.158768 195.068122,435.879596 C194.454651,431.376559 193.923164,427.008256 193.497768,422.870857 L193.349712,421.396496 C192.467916,412.395459 192.166232,405.085164 192.587985,400.013831 C192.613732,399.70424 192.885577,399.474138 193.195169,399.499885 Z" id="Stroke-80" fill="#965C56" fill-rule="nonzero"></path>
        <path d="M260.633072,376.030376 C260.932341,375.947021 261.242519,376.122054 261.325874,376.421322 C261.409229,376.720591 261.234196,377.030769 260.934928,377.114124 C257.587396,378.04651 253.72828,378.659184 249.455601,378.989616 C243.079365,379.482729 236.26408,379.32885 229.702135,378.773595 L228.604138,378.676395 C227.892347,378.610538 227.221674,378.542814 226.59633,378.474702 L225.615085,378.363163 L224.819046,378.263598 C224.511231,378.22165 224.295703,377.938111 224.337652,377.630296 C224.3796,377.322481 224.663139,377.106953 224.970954,377.148902 L225.748382,377.246087 L226.262467,377.305712 C227.306423,377.423923 228.49216,377.54219 229.796991,377.652601 C236.303455,378.203161 243.061534,378.355748 249.368857,377.867965 C253.573805,377.542771 257.362917,376.941211 260.633072,376.030376 Z" id="Stroke-82" fill="#597EF7" fill-rule="nonzero"></path>
        <path d="M290.19765,550.01065 C287.80365,524.66965 284.08365,511.35415 281.24115,506.59315 C220.16715,508.33915 204.95265,507.53665 204.95265,507.53665 C204.95265,507.53665 198.22515,520.82515 197.47365,550.57315 C197.47365,550.57315 220.32015,578.35615 244.58565,578.35615 C266.46165,578.35615 290.19765,550.01065 290.19765,550.01065" id="Fill-84" fill="#597EF7"></path>
        <path d="M281.2416,508.0927 L280.0866,496.5997 L205.3011,495.9967 L204.9531,507.5077 C204.9531,507.5077 244.5321,510.5317 281.2416,508.0927" id="Fill-86" fill="#597EF7"></path>
        <path d="M242.100836,506.645654 C242.418511,506.641672 242.679423,506.895812 242.6836,507.213486 L242.916947,524.026493 C242.979082,528.343624 243.042592,532.640281 243.106852,536.855052 L243.374604,553.615765 L243.644753,568.570922 C243.712715,572.023821 243.777423,575.04354 243.838485,577.591769 C243.846096,577.90938 243.594791,578.173024 243.277181,578.181267 C242.95957,578.188246 242.695926,577.936941 242.688315,577.619331 L242.534884,570.614237 L242.276259,556.685552 L242.118355,547.204396 C242.031577,541.82301 241.945208,536.205113 241.86073,530.496255 L241.5332,507.228614 C241.529022,506.910939 241.783162,506.650027 242.100836,506.645654 Z" id="Stroke-88" fill="#1D39C4" fill-rule="nonzero"></path>
        <path d="M252.770764,507.202846 C253.088397,507.196732 253.351234,507.44888 253.357826,507.766514 L253.47704,514.260709 L253.54898,518.805782 C253.606026,522.646148 253.652664,526.424395 253.685677,530.047208 L253.720404,534.619744 C253.761822,541.568425 253.739711,547.299868 253.638113,551.469321 C253.192152,555.591624 250.945258,558.049056 247.530485,559.121364 C245.686017,559.700564 243.752045,559.810116 242.022382,559.653563 L241.753379,559.626431 C241.636122,559.613235 241.545271,559.600942 241.483257,559.591125 C241.169463,559.541451 240.955351,559.246802 241.005025,558.933007 C241.054699,558.619213 241.349348,558.405101 241.663143,558.454775 L241.88829,558.483867 C241.956235,558.491458 242.03575,558.49957 242.126091,558.507747 C243.717594,558.651795 245.508771,558.550332 247.1858,558.023711 C250.185298,557.081808 252.100311,554.987354 252.491114,551.393697 L252.535302,549.120418 C252.600258,544.937333 252.605327,539.510082 252.560091,533.12038 L252.535223,530.057477 C252.506944,526.954284 252.46866,523.736756 252.422395,520.463734 L252.297081,512.556457 L252.207574,507.790386 C252.200982,507.472753 252.45313,507.209916 252.770764,507.202846 Z" id="Stroke-90" fill="#1D39C4" fill-rule="nonzero"></path>
        <path d="M274.558705,508.794627 C274.876367,508.789749 275.137955,509.043193 275.142978,509.360855 L275.155959,509.764407 C275.161646,509.898367 275.169354,510.056414 275.17951,510.23693 C275.219199,510.942377 275.283059,511.729299 275.37648,512.5771 C275.64321,514.997702 276.092522,517.417321 276.765866,519.669686 C278.308929,524.831291 280.774459,528.30342 284.307605,529.373915 C284.611657,529.466039 284.783459,529.787202 284.691335,530.091255 C284.599211,530.395307 284.278048,530.567109 283.973995,530.474985 C279.985593,529.266554 277.305872,525.492785 275.663569,519.999218 C274.968254,517.673363 274.506688,515.187747 274.232901,512.703113 C274.137141,511.834083 274.071629,511.026803 274.030826,510.301556 L273.992622,509.379045 C273.987599,509.061383 274.241043,508.799795 274.558705,508.794627 Z" id="Stroke-92" fill="#1D39C4" fill-rule="nonzero"></path>
        <path d="M211.641274,510.1249 C211.927198,510.122815 212.165932,510.329681 212.21252,510.602674 L212.220734,510.695924 L212.220837,510.89741 C212.218242,511.66066 212.183234,512.777773 212.08978,514.13516 C211.926534,516.506255 211.628081,518.868471 211.160186,521.079109 C209.932954,526.877345 207.766589,530.71291 204.321347,531.605995 C204.01381,531.685716 203.699875,531.501034 203.620155,531.193497 C203.540434,530.88596 203.725116,530.572025 204.032653,530.492305 C206.914297,529.745317 208.890504,526.24643 210.034622,520.840877 C210.490213,518.688371 210.782172,516.377555 210.941997,514.056137 L210.983115,513.411608 C211.037983,512.476161 211.063009,511.685365 211.069022,511.087662 L211.070266,510.704376 C211.067932,510.386682 211.323581,510.127249 211.641274,510.1249 Z" id="Stroke-94" fill="#1D39C4" fill-rule="nonzero"></path>
        <path d="M279.90285,496.02205 C280.220552,496.02205 280.4781,496.279598 280.4781,496.5973 C280.4781,496.883232 280.269486,497.120439 279.996159,497.165021 L279.90285,497.17255 L204.90285,497.17255 C204.585148,497.17255 204.3276,496.915002 204.3276,496.5973 C204.3276,496.311368 204.536214,496.074161 204.809541,496.029579 L204.90285,496.02205 L279.90285,496.02205 Z" id="Stroke-96" fill="#1D39C4" fill-rule="nonzero"></path>
        <path d="M281.40285,506.52205 C281.720552,506.52205 281.9781,506.779598 281.9781,507.0973 C281.9781,507.383232 281.769486,507.620439 281.496159,507.665021 L281.40285,507.67255 L204.90285,507.67255 C204.585148,507.67255 204.3276,507.415002 204.3276,507.0973 C204.3276,506.811368 204.536214,506.574161 204.809541,506.529579 L204.90285,506.52205 L281.40285,506.52205 Z" id="Stroke-98" fill="#1D39C4" fill-rule="nonzero"></path>
        <path d="M181.7583,397.66615 C181.7583,397.66615 187.7898,377.55265 206.1213,383.38765 C224.8143,389.33815 217.9158,409.45165 217.9158,409.45165 C217.9158,409.45165 213.9243,423.54565 208.5438,440.44765 C204.3408,453.65515 201.1653,463.80565 197.6688,472.00165 C193.8993,480.84415 184.5033,485.98165 175.9173,483.24865 C162.8688,479.09515 160.0008,469.46665 162.4848,460.22965 C164.9013,451.24765 168.5343,439.22815 171.4158,429.38815 C176.9598,410.46715 181.7583,397.66615 181.7583,397.66615" id="Fill-100" fill="#ADC6FF"></path>
        <path d="M231.62295,633.73675 L157.42845,630.36925 C155.46195,630.28075 153.94095,628.61425 154.02945,626.64775 L156.39345,574.57675 C156.48195,572.61025 158.14845,571.08775 160.11495,571.17625 L234.30795,574.54375 C236.27595,574.63375 237.79695,576.29875 237.70845,578.26675 L235.34445,630.33775 C235.25595,632.30425 233.58945,633.82675 231.62295,633.73675" id="Fill-102" fill="#4E5C93"></path>
        <g id="分组" transform="translate(151.500000, 570.161500)">
            <mask id="mask-4" fill="white">
                <use xlink:href="#path-3"></use>
            </mask>
            <g id="Clip-105"></g>
            <path d="M77.5962,63.46095 L3.4032,60.09345 C1.4367,60.00345 -0.0858,58.33695 0.0027,56.37045 L2.3667,4.29945 C2.4552,2.33445 4.1232,0.81195 6.0882,0.90045 L80.2827,4.26795 C82.2507,4.35795 83.7717,6.02295 83.6832,7.99095 L81.3177,60.06195 C81.2292,62.02845 79.5642,63.54945 77.5962,63.46095" id="Fill-104" fill="#253368" mask="url(#mask-4)"></path>
        </g>
        <path d="M199.1079,572.9596 C194.5104,572.6236 190.8729,572.9596 188.9139,572.8711 C183.8589,572.6446 185.2554,589.6051 184.2414,592.2781 C182.6979,596.3461 173.1369,594.0226 169.4574,578.7406 C168.4104,574.3966 168.7059,567.9226 168.6999,561.7681 C168.6999,561.7681 169.9659,546.9856 175.8789,546.1411 C181.0074,545.4076 185.3334,550.8856 185.3334,550.8856 C185.3334,550.8856 190.7769,558.4981 193.5639,565.4206 L199.1079,572.9596 Z" id="Fill-106" fill="#CE998A"></path>
        <path d="M180.777114,576.760712 C181.083404,576.812635 181.28961,577.103023 181.237688,577.409314 L181.155821,577.959814 L181.081084,578.536914 C181.043961,578.841544 181.007407,579.169925 180.972332,579.520402 C180.575671,583.484001 180.571059,587.818027 181.218111,592.041109 C181.265161,592.348186 181.054368,592.635262 180.747291,592.682311 C180.440214,592.729361 180.153138,592.518568 180.106089,592.211491 C179.442884,587.882989 179.447592,583.458615 179.852924,579.408376 L179.926586,578.72056 C179.951654,578.501493 179.977145,578.292793 180.002789,578.094946 L180.128512,577.221286 C180.175242,576.945625 180.41513,576.751032 180.685926,576.752678 L180.777114,576.760712 Z" id="Stroke-108" fill="#965C56" fill-rule="nonzero"></path>
        <path d="M175.963546,575.133958 C176.267353,575.19885 176.461033,575.497739 176.396142,575.801546 C175.405842,580.437913 175.616816,584.682253 176.56578,588.321669 C176.70688,588.862805 176.85575,589.352291 177.00582,589.787042 L177.118495,590.102795 C177.229473,590.40354 177.314091,590.605646 177.359468,590.703084 C177.490617,590.984704 177.368636,591.319319 177.087016,591.450468 C176.805396,591.581617 176.470781,591.459636 176.339632,591.178016 L176.225266,590.912223 C176.194174,590.835865 176.15954,590.748088 176.121843,590.649108 L176.063061,590.492263 C175.862727,589.949369 175.663085,589.318499 175.477178,588.605519 C174.486282,584.805288 174.266601,580.38578 175.295958,575.566554 C175.354361,575.293127 175.602301,575.108904 175.872781,575.1221 L175.963546,575.133958 Z" id="Stroke-110" fill="#965C56" fill-rule="nonzero"></path>
        <path d="M171.582865,572.182169 C171.891692,572.215867 172.114729,572.493538 172.081031,572.802365 L172.052514,573.131106 C172.044246,573.24335 172.035374,573.377942 172.026455,573.534444 C171.867678,576.320647 172.000255,580.064542 172.647192,584.591269 C172.691143,584.898804 172.477466,585.183741 172.169931,585.227692 C171.862396,585.271643 171.577459,585.057966 171.533508,584.750431 C170.904211,580.347131 170.75314,576.662199 170.883741,573.848683 L170.921967,573.17003 C170.937315,572.944309 170.95175,572.780402 170.962669,572.680335 C170.992997,572.40239 171.220943,572.193936 171.491364,572.179591 L171.582865,572.182169 Z" id="Stroke-112" fill="#965C56" fill-rule="nonzero"></path>
        <path d="M198.0693,474.2701 C198.0693,474.2701 197.3553,452.7316 179.3373,452.739098 C160.7538,452.7481 160.4808,473.4421 160.4808,473.4421 C160.4808,473.4421 160.6488,488.0086 160.7778,505.9621 C160.8543,516.9241 161.1843,529.0261 162.6828,537.7771 C164.3043,547.2541 169.5858,548.1931 178.5963,548.188616 C189.2943,548.1841 193.7178,547.0921 195.0618,537.6226 C196.3458,528.5926 196.4823,516.3076 197.0193,506.7916 C198.0423,488.6476 198.0693,474.2701 198.0693,474.2701" id="Fill-114" fill="#ADC6FF"></path>
        <polygon id="Fill-116" fill="#ADC6FF" points="169.54725 557.48425 190.38375 557.47525 191.87775 543.39625 168.04125 543.40675"></polygon>
        <path d="M271.8696,381.202 C271.8696,381.202 252.5481,388.756 261.0546,408.3805 C269.7291,428.3905 288.9246,419.896 288.9246,419.896 C288.9246,419.896 302.4966,414.8575 318.6876,408.169 C331.3386,402.9445 341.0721,398.989 348.7926,394.7845 C357.1266,390.2455 360.9261,379.783 356.9421,370.5925 C350.8881,356.623 340.8066,353.9875 331.8936,357.1465 C323.2251,360.2185 311.6841,364.7635 302.2206,368.386 C284.0256,375.3505 271.8696,381.202 271.8696,381.202" id="Fill-118" fill="#ADC6FF"></path>
        <path d="M290.950714,414.020852 L291.042237,414.022444 C291.35141,414.052813 291.577425,414.328065 291.547056,414.637237 L290.704285,423.020282 L290.446402,425.538551 C289.676045,433.032893 288.880589,440.527282 288.095493,447.602136 L287.881659,449.520925 C287.646512,451.621884 287.415499,453.65498 287.189191,455.61346 L286.633212,460.353678 C285.124544,473.014996 283.944195,481.190122 283.172314,483.727012 L283.147,483.806 L283.209672,483.932811 C285.74115,489.198488 285.181813,493.00592 282.630316,495.48328 L282.464759,495.639605 C281.581279,496.451035 280.696637,496.92209 280.08308,497.130391 C279.788911,497.230261 279.469479,497.07275 279.369609,496.77858 C279.269739,496.484411 279.42725,496.164979 279.72142,496.065109 L279.863105,496.010494 C279.978518,495.962162 280.134141,495.889634 280.319753,495.7908 C280.79121,495.539758 281.263705,495.215216 281.703767,494.811042 C284.071514,492.636391 284.595946,489.215188 282.03762,484.097778 C281.968573,483.959663 281.959339,483.799237 282.012083,483.654112 L282.076405,483.464497 C282.841434,481.065103 284.115946,472.129746 285.733052,458.388269 L286.345239,453.100324 C286.483133,451.890896 286.622642,450.655565 286.76364,449.395792 L287.191617,445.539247 C287.692005,440.992827 288.195305,436.291804 288.692371,431.544386 L289.58509,422.906139 L290.427444,414.527263 C290.454776,414.249008 290.680463,414.03811 290.950714,414.020852 Z" id="Stroke-120" fill="#597EF7" fill-rule="nonzero"></path>
        <path d="M193.537715,411.205055 C193.847931,411.18844 194.11288,411.42645 194.129495,411.736665 L194.219156,413.151468 L194.318952,414.53644 C194.380219,415.349906 194.45133,416.236095 194.532954,417.191649 L194.689822,418.968466 C195.046178,422.880122 195.510361,427.190352 196.09667,431.827503 C198.029579,447.115021 200.87633,462.824037 204.811953,478.073182 C204.847609,478.211335 204.829432,478.357875 204.761103,478.483129 C203.794967,480.254163 203.397508,482.691786 203.489435,485.625365 C203.560047,487.878735 203.91303,490.30033 204.457695,492.739038 C204.629781,493.509542 204.811689,494.238956 204.995473,494.914467 L205.230705,495.747424 C205.321546,496.057257 205.392682,496.285533 205.437556,496.421747 C205.53476,496.716808 205.374364,497.034802 205.079303,497.132006 C204.784242,497.22921 204.466248,497.068814 204.369044,496.773753 L204.170971,496.130731 C204.132744,496.001541 204.092823,495.864016 204.05145,495.718543 C203.815521,494.888986 203.579767,493.969388 203.359746,492.984256 C202.800844,490.481803 202.438078,487.993099 202.364987,485.660601 C202.272233,482.70063 202.653693,480.184689 203.61661,478.245711 L203.669,478.144 L203.213804,476.356248 C199.695108,462.352688 197.08162,448.001313 195.238615,433.970735 L194.980555,431.968622 L194.717803,429.845657 C194.209474,425.647256 193.803579,421.73714 193.488831,418.171578 L193.318695,416.16949 C193.259782,415.446713 193.207442,414.769212 193.16133,414.138705 L193.051734,412.550684 L193.006105,411.796835 C192.98949,411.486619 193.2275,411.22167 193.537715,411.205055 Z" id="Stroke-122" fill="#597EF7" fill-rule="nonzero"></path>
    </g>
</svg>