<?xml version="1.0" encoding="UTF-8"?>
<svg width="512px" height="1024px" viewBox="0 0 512 1024" version="1.1" xmlns="http://www.w3.org/2000/svg" xmlns:xlink="http://www.w3.org/1999/xlink">
    <!-- Generator: Sketch 61.2 (89653) - https://sketch.com -->
    <title>2.人物组件/8.程序员/奔跑/打招呼</title>
    <desc>Created with Sketch.</desc>
    <defs>
        <polygon id="path-1" points="1.14152266 1.035 59.724 1.035 59.724 57.8949 1.14152266 57.8949"></polygon>
    </defs>
    <g id="2.人物组件/8.程序员/奔跑/打招呼" stroke="none" stroke-width="1" fill="none" fill-rule="evenodd">
        <path d="M97.998,431.03435 L97.998,431.03435 C105.4455,438.97385 117.846,439.57835 126.03,432.39935 L194.9475,371.94335 C204.8235,363.28085 205.56,348.15935 196.5735,338.57885 C187.587,328.99685 172.4505,328.76435 163.173,338.06435 L98.43,402.97235 C90.7425,410.67935 90.5505,423.09485 97.998,431.03435" id="Fill-1" fill="#FFC999"></path>
        <path d="M119.532,379.9574 L150.348,412.8134 L195.3855,372.0539 C205.1115,363.2519 206.0445,348.3014 197.49,338.3564 C188.4615,328.7309 172.236,328.7324 162.7725,337.9304 L119.532,379.9574 Z" id="Fill-3" fill="#597EF7"></path>
        <path d="M239.51295,309.62225 L232.28295,271.29575 L197.74245,277.51475 L200.43495,314.70575 C201.24795,325.93925 211.28145,334.21475 222.46395,332.87675 C233.80545,331.51925 241.62945,320.84675 239.51295,309.62225" id="Fill-5" fill="#FFC999"></path>
        <path d="M240.80565,266.11955 C240.80565,266.11955 245.48865,259.99205 248.15865,263.43905 C250.83015,266.88755 248.44815,280.59905 242.71815,281.61155 C235.06815,282.96605 240.80565,266.11955 240.80565,266.11955" id="Fill-7" fill="#FFC999"></path>
        <path d="M211.18575,303.9752 C211.18575,303.9752 223.58175,311.9282 237.50475,300.9947 C247.52625,293.1257 246.06975,269.0312 241.94175,251.7032 C239.60475,241.8977 234.39825,237.0827 224.36175,235.2722 C214.32375,233.4602 188.02875,236.4287 191.27475,265.7057 C194.89125,298.3142 211.18575,303.9752 211.18575,303.9752" id="Fill-9" fill="#FFC999"></path>
        <path d="M225.573714,258.284177 L225.660986,258.288659 C225.925589,258.323744 226.119505,258.545904 226.127223,258.804314 L226.122741,258.891586 L225.294,265.141 L230.517416,281.314979 C230.611478,281.606259 230.443568,281.910005 230.161263,281.994334 L230.073288,282.012818 L223.071288,282.891818 C222.77702,282.928759 222.508523,282.720155 222.471582,282.425888 C222.438335,282.161047 222.60398,281.91708 222.851962,281.844005 L222.937512,281.826182 L229.296,281.028 L224.234884,265.355021 C224.218528,265.304372 224.209838,265.251716 224.208972,265.19879 L224.213559,265.119414 L225.058059,258.750414 C225.093144,258.485811 225.315304,258.291895 225.573714,258.284177 Z" id="Stroke-11" fill="#DD936F" fill-rule="nonzero"></path>
        <path d="M218.687775,257.462127 C218.86416,258.232937 218.382283,259.00079 217.611473,259.177175 L212.965019,260.266006 L211.462978,260.608005 C207.48998,261.494815 204.990357,261.891309 203.421783,261.766219 C202.633552,261.703359 202.045522,261.013414 202.108381,260.225183 C202.171241,259.436952 202.861186,258.848922 203.649417,258.911781 C204.869837,259.009107 207.373528,258.59638 211.275683,257.715157 L216.972727,256.385825 C217.743537,256.20944 218.51139,256.691317 218.687775,257.462127 Z" id="Stroke-13" fill="#253368" fill-rule="nonzero"></path>
        <path d="M230.598563,286.02774 C231.002151,285.934521 231.404892,286.186125 231.49811,286.589713 C231.591329,286.993301 231.339725,287.396042 230.936137,287.48926 C226.294884,288.561274 222.267671,288.804099 219.164452,288.578075 L218.754296,288.544154 C218.599394,288.529556 218.481356,288.515992 218.401555,288.50506 C217.991174,288.44884 217.70407,288.070585 217.76029,287.660205 C217.81651,287.249824 218.194765,286.96272 218.605145,287.01894 L218.752441,287.036509 C218.876159,287.049794 219.050551,287.065805 219.273417,287.082038 C222.234357,287.297699 226.112767,287.063846 230.598563,286.02774 Z" id="Stroke-15" fill="#FF7A46" fill-rule="nonzero"></path>
        <g id="分组" transform="translate(184.500000, 219.965000)">
            <mask id="mask-2" fill="white">
                <use xlink:href="#path-1"></use>
            </mask>
            <g id="Clip-18"></g>
            <path d="M11.5605,57.8949 L4.554,47.2824 C4.554,47.2824 -0.9405,31.4484 2.0145,24.0234 C6.597,12.5004 19.995,11.2464 27.5925,7.4349 C35.19,3.6249 34.806,0.9639 38.0745,1.0359 C41.3445,1.1079 54.8055,8.3559 57.2535,17.2794 C59.406,25.1244 59.724,45.7089 59.724,45.7089 C59.724,45.7089 55.398,27.9474 53.1105,23.3889 C46.5225,21.4914 23.6655,24.0009 14.472,28.0419 C14.472,28.0419 14.355,34.2699 14.3775,38.6469 C9.6945,42.8889 11.5605,57.8949 11.5605,57.8949" id="Fill-17" fill="#253368" mask="url(#mask-2)"></path>
        </g>
        <path d="M237.599957,299.953669 C237.773364,299.71307 238.108982,299.6586 238.349581,299.832007 C238.59018,300.005414 238.64465,300.341032 238.471243,300.581631 C238.318569,300.793463 238.020283,301.145723 237.568276,301.591118 C236.824775,302.323742 235.911723,303.054103 234.821224,303.734356 C229.829854,306.847971 223.043345,307.885287 214.302344,305.637225 C214.015114,305.563354 213.842153,305.270624 213.916025,304.983394 C213.989896,304.696164 214.282626,304.523203 214.569856,304.597075 C223.026803,306.772082 229.511146,305.780952 234.252792,302.823114 C235.274109,302.186017 236.12556,301.504932 236.814459,300.82611 C237.221892,300.424637 237.481358,300.118222 237.599957,299.953669 Z" id="Stroke-19" fill="#DD936F" fill-rule="nonzero"></path>
        <path d="M225.819547,264.026787 C226.405472,263.934471 226.955296,264.334621 227.047613,264.920547 C227.133775,265.467411 226.790944,265.982826 226.268471,266.124174 L226.153853,266.148613 L221.022353,266.957113 C220.436428,267.049429 219.886604,266.649279 219.794287,266.063353 C219.708125,265.516489 220.050956,265.001074 220.573429,264.859726 L220.688047,264.835287 L225.819547,264.026787 Z" id="Stroke-21" fill="#393C68" fill-rule="nonzero"></path>
        <path d="M221.773757,267.926813 C222.982571,267.260063 224.232164,266.9161 225.471207,267.102506 C226.179566,267.209075 226.843034,267.490655 227.436331,267.95658 C227.90283,268.322928 227.984018,268.998083 227.61767,269.464581 C227.27749,269.897758 226.671042,269.998704 226.212638,269.717596 L226.109669,269.64592 C225.812453,269.412512 225.496734,269.278519 225.151649,269.226603 C224.462184,269.122877 223.644822,269.347864 222.81119,269.807673 C222.378545,270.046309 222.049437,270.283275 221.882473,270.425159 C221.430479,270.809258 220.752691,270.754218 220.368591,270.302223 C219.984492,269.850229 220.039532,269.172441 220.491527,268.788341 C220.759676,268.560471 221.200861,268.242807 221.773757,267.926813 Z" id="Stroke-23" fill="#393C68" fill-rule="nonzero"></path>
        <path d="M228.923564,254.659286 C231.581596,253.369134 234.279852,252.655177 236.873925,252.841102 C238.179806,252.934699 239.418756,253.259988 240.568545,253.839887 C241.274566,254.19597 241.558246,255.056975 241.202163,255.762995 C240.84608,256.469016 239.985075,256.752696 239.279055,256.396613 C238.47907,255.993139 237.60865,255.764608 236.669214,255.697275 C234.657696,255.553104 232.419911,256.14522 230.173939,257.235368 C229.456353,257.583669 228.792321,257.957306 228.200702,258.329741 L227.81277,258.580507 C227.667861,258.677018 227.560463,258.75236 227.493937,258.801542 C226.858096,259.271612 225.961578,259.137228 225.491508,258.501387 C225.021438,257.865546 225.155822,256.969028 225.791663,256.498958 L225.969746,256.371415 C226.143726,256.249926 226.380855,256.091717 226.675184,255.906432 C227.351591,255.480622 228.106207,255.056014 228.923564,254.659286 Z" id="Stroke-25" fill="#253368" fill-rule="nonzero"></path>
        <path d="M228.217011,291.674854 C228.510548,291.6325 228.782842,291.836124 228.825196,292.129661 C228.863315,292.393844 228.702191,292.64082 228.455597,292.71845 L228.370389,292.737846 L224.180889,293.342346 C223.887352,293.3847 223.615058,293.181076 223.572704,292.887539 C223.534585,292.623356 223.695709,292.37638 223.942303,292.29875 L224.027511,292.279354 L228.217011,291.674854 Z" id="Stroke-27" fill="#DD936F" fill-rule="nonzero"></path>
        <path d="M201.652469,267.539103 C202.240015,267.457735 202.782278,267.868073 202.863647,268.455619 C202.939591,269.003996 202.587204,269.512925 202.062184,269.644501 L201.947131,269.666797 L193.509631,270.835297 C192.922085,270.916665 192.379822,270.506327 192.298453,269.918781 C192.222509,269.370404 192.574896,268.861475 193.099916,268.729899 L193.214969,268.707603 L201.652469,267.539103 Z" id="Stroke-29" fill="#393C68" fill-rule="nonzero"></path>
        <path d="M202.1916,266.8466 L218.2866,264.5261 C219.4116,264.3626 220.4526,265.1396 220.6071,266.2646 C220.8951,268.3631 221.2611,271.7426 221.1306,274.6991 C220.9776,278.1866 218.2251,280.7051 214.7961,281.3621 C210.5151,282.1826 206.6451,282.7451 204.3681,280.7891 C200.8956,277.8101 200.8161,272.0936 200.4501,269.1116 C200.3166,268.0181 201.0996,267.0041 202.1916,266.8466" id="Fill-31" fill="#FFFFFF"></path>
        <path d="M218.235148,264.172069 L202.140549,266.492511 C200.855153,266.677905 199.93801,267.869155 200.094987,269.154954 L200.134089,269.492252 L200.289248,271.029684 C200.327787,271.410516 200.36328,271.739697 200.400642,272.056009 L200.429089,272.291437 C200.553177,273.295346 200.700446,274.182152 200.894665,275.027964 C201.494936,277.6421 202.506887,279.663753 204.135163,281.060625 C206.201076,282.835295 208.999461,282.83735 214.863441,281.713455 C218.606701,280.996242 221.333295,278.241294 221.488006,274.71478 C221.599029,272.199548 221.375771,269.234323 220.961523,266.215926 C220.78009,264.894806 219.557475,263.979891 218.235148,264.172069 Z M220.252672,266.313242 C220.661557,269.292565 220.881944,272.219661 220.773198,274.683324 C220.633961,277.857101 218.164243,280.352503 214.728779,281.010741 L213.961383,281.154407 C208.846484,282.087457 206.34536,282.015993 204.601215,280.517728 C203.107023,279.235886 202.161096,277.346133 201.592017,274.867834 C201.435243,274.185096 201.309529,273.471639 201.201782,272.684867 L201.139186,272.203666 C201.110675,271.973009 201.083838,271.740209 201.056629,271.489093 L200.845175,269.412883 C200.831563,269.289285 200.818427,269.175908 200.805185,269.068018 C200.695508,268.169648 201.341435,267.330672 202.24267,267.200686 L218.337651,264.880189 C219.219008,264.752098 220.034958,265.321242 220.226611,266.169402 L220.252672,266.313242 Z" id="Stroke-33" fill="#253368" fill-rule="nonzero"></path>
        <path d="M213.778923,269.224376 C214.170451,269.167945 214.533594,269.439595 214.590024,269.831123 C214.910574,272.055163 213.570069,274.126699 211.537945,274.420772 C209.504745,274.712845 207.63364,273.105228 207.313164,270.879896 C207.256778,270.488361 207.528469,270.12525 207.920004,270.068864 C208.311539,270.012478 208.67465,270.284169 208.731036,270.675704 C208.944435,272.157507 210.1297,273.175864 211.333518,273.002934 C212.536236,272.828886 213.385608,271.516317 213.172176,270.035477 C213.115745,269.643949 213.387395,269.280806 213.778923,269.224376 Z" id="Stroke-35" fill="#253368" fill-rule="nonzero"></path>
        <path d="M227.2713,263.0474 L245.4948,260.4194 C246.5523,262.9859 247.3878,273.3764 244.5783,276.0344 C240.7053,278.8334 232.1058,279.1034 230.4693,277.0574 C227.9853,273.9539 226.3128,267.5909 225.9453,264.8009 C225.8343,263.9504 226.4223,263.1704 227.2713,263.0474" id="Fill-37" fill="#FFFFFF"></path>
        <path d="M245.443737,260.065313 L227.220237,262.693313 C226.177879,262.844326 225.454182,263.80226 225.590558,264.847198 C226.111646,268.803212 228.038373,274.592719 230.189997,277.28095 C232.052208,279.609141 240.943155,279.102899 244.787849,276.324355 C247.333005,273.920723 247.363854,264.016445 245.825572,260.283109 C245.763166,260.131654 245.605868,260.041932 245.443737,260.065313 Z M245.263,260.814 L245.326396,260.993707 C246.596352,264.788001 246.484334,273.738665 244.332436,275.774523 C240.797367,278.325468 232.327425,278.807738 230.748676,276.83394 C228.694087,274.266945 226.805518,268.592094 226.299986,264.754181 C226.214231,264.097104 226.668149,263.496267 227.322594,263.401454 L245.263,260.814 Z" id="Stroke-39" fill="#253368" fill-rule="nonzero"></path>
        <path d="M236.524323,265.944626 C236.915851,265.888195 237.278994,266.159845 237.335424,266.551373 C237.655974,268.775413 236.315469,270.846949 234.283345,271.141022 C232.250145,271.433095 230.37904,269.825478 230.058564,267.600146 C230.002178,267.208611 230.273869,266.8455 230.665404,266.789114 C231.056939,266.732728 231.42005,267.004419 231.476436,267.395954 C231.689835,268.877757 232.8751,269.896114 234.078918,269.723184 C235.281636,269.549136 236.131008,268.236567 235.917576,266.755727 C235.861145,266.364199 236.132795,266.001056 236.524323,265.944626 Z" id="Stroke-41" fill="#253368" fill-rule="nonzero"></path>
        <path d="M220.362727,263.787499 C220.951823,263.71823 221.485532,264.139632 221.554801,264.728727 C221.619452,265.27855 221.256674,265.780125 220.72906,265.900876 L220.613573,265.920801 L200.585573,268.275801 C199.996477,268.34507 199.462768,267.923668 199.393499,267.334573 C199.328848,266.78475 199.691626,266.283175 200.21924,266.162424 L200.334727,266.142499 L220.362727,263.787499 Z" id="Stroke-43" fill="#393C68" fill-rule="nonzero"></path>
        <path d="M245.533284,259.739205 C246.119118,259.646302 246.669342,260.045901 246.762245,260.631734 C246.848954,261.178512 246.50664,261.69427 245.984308,261.836142 L245.869716,261.860695 L226.356216,264.955195 C225.770382,265.048098 225.220158,264.648499 225.127255,264.062666 C225.040546,263.515888 225.38286,263.00013 225.905192,262.858258 L226.019784,262.833705 L245.533284,259.739205 Z" id="Stroke-45" fill="#393C68" fill-rule="nonzero"></path>
        <path d="M192.4431,269.04785 C190.1541,267.13385 186.8856,266.87735 184.8726,269.56985 C181.6281,273.90635 186.5451,288.27035 196.4691,287.86235 C200.1606,286.95635 196.0161,272.03585 192.4431,269.04785" id="Fill-47" fill="#FFC999"></path>
        <path d="M188.430993,270.825684 L188.607056,270.877274 C188.743841,270.920699 188.917936,270.982479 189.120299,271.064367 C189.622603,271.267628 190.124934,271.52807 190.596758,271.853241 C192.127866,272.908449 192.996365,274.392272 192.799501,276.323369 C192.721922,277.094267 192.432719,277.528279 191.834982,277.994402 L191.58798,278.178028 C191.092436,278.538407 190.975078,278.705452 190.984099,279.1707 C191.000748,280.030205 191.447593,280.624424 192.225055,281.034221 C192.517992,281.188627 192.836642,281.303769 193.155843,281.383839 L193.36014,281.43044 C193.449649,281.448652 193.519008,281.459538 193.562849,281.464479 C193.857559,281.497698 194.06954,281.763538 194.036321,282.058249 C194.003102,282.352959 193.737262,282.56494 193.442551,282.531721 C192.999876,282.481823 192.366888,282.323042 191.724264,281.984318 C190.62816,281.406566 189.935362,280.485275 189.910301,279.191511 C189.894175,278.359888 190.165639,277.91652 190.812023,277.417401 L191.046117,277.244144 C191.527603,276.892911 191.683519,276.686639 191.730969,276.215139 C191.883513,274.718786 191.221903,273.588432 189.987298,272.737568 C189.585292,272.460514 189.151375,272.235542 188.717431,272.059944 L188.480819,271.968895 C188.338259,271.917046 188.227638,271.882682 188.158407,271.864516 C187.871541,271.789244 187.700011,271.495673 187.775284,271.208807 C187.842193,270.953815 188.081584,270.789953 188.335432,270.809553 L188.430993,270.825684 Z" id="Stroke-49" fill="#DD936F" fill-rule="nonzero"></path>
        <path d="M273.7632,437.2778 C273.7632,437.2778 277.8117,401.7143 279.3537,384.8618 C280.8927,368.0078 281.4387,322.2218 274.2867,320.2748 C267.1347,318.3293 247.5822,313.9013 247.5822,313.9013 C247.5822,313.9013 233.2572,315.9608 219.2637,321.1238 C208.1847,325.2128 209.6787,316.0658 196.1532,320.3603 C190.4247,322.1798 163.7637,332.8538 163.5912,338.5808 C161.8782,395.4293 184.4097,455.8358 184.4097,455.8358 C184.4097,455.8358 179.7417,462.2633 187.4472,468.6098 C191.2362,471.5558 205.3302,468.3323 223.5942,465.7358 C244.3827,462.7808 270.1947,458.8133 273.1692,457.2443 C282.7497,452.1938 273.7632,437.2778 273.7632,437.2778" id="Fill-51" fill="#597EF7"></path>
        <polygon id="Fill-53" fill="#597EF7" points="200.5752 312.5888 215.4672 321.9428 202.7757 339.4988 192.6297 322.1948"></polygon>
        <polygon id="Fill-55" fill="#597EF7" points="215.1738 322.3565 230.9403 338.822 246.9303 313.394 238.5993 305.5925"></polygon>
        <path d="M214.292994,325.274005 C214.375088,324.887043 214.755333,324.6399 215.142295,324.721994 C215.529257,324.804088 215.7764,325.184333 215.694306,325.571295 L215.633577,325.898402 C215.614607,326.00962 215.59295,326.143228 215.568951,326.299918 L215.517931,326.64428 C215.395,327.500205 215.271724,328.558223 215.154872,329.831985 L215.047677,331.082037 C213.959619,344.615078 214.38057,367.044044 217.352587,400.480734 L217.568063,402.850457 C219.650314,425.245955 222.726053,444.29323 225.880875,458.503414 C225.96661,458.889585 225.723057,459.272141 225.336886,459.357875 C224.950715,459.44361 224.568159,459.200057 224.482425,458.813886 C221.259511,444.296999 218.121592,424.769358 216.032812,401.798761 L215.746523,398.569488 C212.900983,365.842297 212.539177,343.853593 213.654138,330.548784 L213.689091,330.140062 C213.806466,328.794869 213.931622,327.666588 214.057868,326.741489 L214.157762,326.053009 L214.270739,325.386249 C214.280041,325.337186 214.287507,325.29987 214.292994,325.274005 Z" id="Stroke-57" fill="#1D39C4" fill-rule="nonzero"></path>
        <path d="M176.504878,362.13319 C175.62051,362.475458 174.751879,362.840431 173.900005,363.228691 C173.600771,363.365072 173.425282,363.680478 173.467155,364.006649 L173.662739,365.509795 C174.411458,371.186496 175.147796,375.883837 175.848993,379.68038 L176.031101,380.6504 C176.288679,381.999784 176.524711,383.138246 176.73585,384.077371 L176.939519,384.95353 L177.017202,385.26891 C177.05422,385.416076 177.079993,385.514015 177.09395,385.564713 C177.150993,385.771922 177.294186,385.944703 177.487203,386.039223 L189.644703,391.992723 C189.900296,392.117887 190.204711,392.087603 190.430636,391.914537 L203.599136,381.827037 C203.798244,381.674513 203.907932,381.432557 203.891424,381.182287 L202.424424,358.941787 C202.399901,358.570006 202.106171,358.272597 201.734724,358.243449 L201.381339,358.220947 C201.264382,358.214588 201.126293,358.207856 200.967805,358.201155 C193.791697,357.897702 184.992158,358.848444 176.504878,362.13319 Z M200.971,359.702 L202.368,380.88 L189.887,390.441 L178.456,384.844 L178.267235,384.047255 L178.128974,383.432168 C177.939667,382.57255 177.730716,381.554248 177.504499,380.36915 L177.414301,379.892665 C176.723673,376.213989 175.996326,371.643728 175.254914,366.10436 L175.026,364.37 L174.522095,364.593609 C175.347091,364.2176 176.188819,363.86393 177.046275,363.532078 C181.737386,361.716525 186.757816,360.597221 191.862137,360.045727 C195.141761,359.691381 198.067722,359.606422 200.437873,359.682487 L200.971,359.702 Z" id="Stroke-59" fill="#1D39C4" fill-rule="nonzero"></path>
        <path d="M216.43065,336.61955 C216.60015,337.94405 217.63365,338.90405 218.73765,338.76155 C219.84165,338.62055 220.59915,337.43105 220.42965,336.10655 C220.25865,334.78055 219.22665,333.82205 218.12115,333.96305 C217.01715,334.10555 216.25965,335.29355 216.43065,336.61955" id="Fill-61" fill="#FFFFFF"></path>
        <path d="M216.7617,361.37225 C216.9312,362.69675 217.9647,363.65675 219.0687,363.51425 C220.1727,363.37325 220.9302,362.18375 220.7607,360.85925 C220.5897,359.53325 219.5577,358.57475 218.4522,358.71575 C217.3482,358.85825 216.5907,360.04625 216.7617,361.37225" id="Fill-63" fill="#FFFFFF"></path>
        <path d="M218.5488,387.9701 C218.7183,389.2946 219.7518,390.2546 220.8558,390.1121 C221.9598,389.9711 222.7173,388.7816 222.5478,387.4571 C222.3768,386.1311 221.3448,385.1726 220.2393,385.3136 C219.1368,385.4561 218.3778,386.6441 218.5488,387.9701" id="Fill-65" fill="#FFFFFF"></path>
        <path d="M222.12375,414.6767 C222.29325,416.0012 223.32675,416.9612 224.43075,416.8187 C225.53475,416.6777 226.29225,415.4882 226.12275,414.1637 C225.95325,412.8377 224.91975,411.8792 223.81575,412.0202 C222.71175,412.1627 221.95425,413.3507 222.12375,414.6767" id="Fill-67" fill="#FFFFFF"></path>
        <path d="M225.93825,445.5542 C226.10775,446.8787 227.14125,447.8387 228.24525,447.6962 C229.34925,447.5552 230.10675,446.3657 229.93725,445.0412 C229.76625,443.7152 228.73425,442.7567 227.62875,442.8977 C226.52475,443.0402 225.76725,444.2297 225.93825,445.5542" id="Fill-69" fill="#FFFFFF"></path>
        <path d="M246.175276,313.741241 C246.385287,313.406019 246.827287,313.304515 247.162509,313.514526 C247.467257,313.705445 247.578848,314.08809 247.438835,314.407942 L247.389224,314.501759 L231.946724,339.151259 C231.719763,339.513537 231.235294,339.592069 230.907018,339.341973 L230.828443,339.272576 L214.901443,323.036576 C214.62443,322.754189 214.628786,322.300706 214.911174,322.023693 C215.165322,321.774381 215.558059,321.752979 215.836007,321.957052 L215.924057,322.033424 L231.214,337.62 L246.175276,313.741241 Z" id="Stroke-71" fill="#1D39C4" fill-rule="nonzero"></path>
        <path d="M214.600567,322.179435 C214.81384,321.846278 215.256809,321.749093 215.589965,321.962367 C215.892835,322.156251 216.000686,322.539967 215.857557,322.858437 L215.807033,322.951765 L203.249033,342.568765 C202.970432,343.003971 202.348981,343.003173 202.063253,342.599925 L202.007411,342.507368 L192.042911,322.920368 C191.863547,322.567795 192.00396,322.136576 192.356532,321.957211 C192.677053,321.794153 193.062571,321.895373 193.264775,322.180017 L193.319689,322.270832 L202.717,340.742 L214.600567,322.179435 Z" id="Stroke-73" fill="#1D39C4" fill-rule="nonzero"></path>
        <path d="M377.69385,490.29155 C377.69385,490.29155 376.32735,474.15455 369.24435,467.79905 C359.11335,458.70755 351.55185,474.46655 351.55185,474.46655 C351.55185,474.46655 348.90735,478.93805 347.04285,489.85805 C346.00785,495.92255 344.98935,511.77155 349.00635,510.65555 C353.76135,509.33405 353.13435,498.93455 356.44185,499.19105 C359.83635,499.45355 359.76585,502.21055 361.82685,508.52555 C363.11535,512.47055 365.68335,516.87305 367.63485,519.99755 C371.45085,526.10705 379.68585,513.58805 377.69385,490.29155" id="Fill-75" fill="#FFC999"></path>
        <path d="M364.994392,500.761485 C365.16235,500.564481 365.45821,500.540934 365.655215,500.708892 L365.949551,500.977633 L366.307132,501.328792 C366.432055,501.45542 366.562444,501.59158 366.697517,501.737141 C367.466787,502.566138 368.235175,503.532547 368.952312,504.628196 C371.667492,508.776474 372.918881,513.552638 371.881457,518.802473 C371.83127,519.056445 371.584699,519.221645 371.330727,519.171457 C371.076755,519.12127 370.911555,518.874699 370.961743,518.620727 C371.946888,513.635442 370.758426,509.099451 368.1679,505.141619 C367.481097,504.092315 366.745263,503.16685 366.010311,502.374835 C365.818063,502.167661 365.636429,501.981175 365.468055,501.815873 L365.172119,501.534168 C365.11551,501.482153 365.073347,501.444783 365.046985,501.422308 C364.849981,501.25435 364.826434,500.95849 364.994392,500.761485 Z" id="Stroke-77" fill="#DD936F" fill-rule="nonzero"></path>
        <path d="M370.667429,498.222466 C370.881953,498.139195 371.120376,498.224523 371.236504,498.414013 L371.279282,498.503351 C372.407099,501.409622 373.513205,504.496328 374.56304,507.605448 L375.009424,508.938839 C375.304546,509.827959 375.579529,510.671749 375.832009,511.459443 L376.531052,513.683669 C376.606318,513.93137 376.466532,514.193186 376.218831,514.268452 C375.97113,514.343718 375.709314,514.203932 375.634048,513.956231 L375.230076,512.659448 L374.626758,510.77765 C374.465299,510.280997 374.296095,509.765729 374.119659,509.234176 C373.090573,506.133831 372.00063,503.033647 370.884921,500.092707 L370.400066,498.829071 C370.306387,498.587731 370.426089,498.316145 370.667429,498.222466 Z" id="Stroke-79" fill="#DD936F" fill-rule="nonzero"></path>
        <path d="M374.194414,493.614754 C374.414553,493.500301 374.685793,493.585976 374.800246,493.806114 L374.907461,494.031984 C374.964598,494.160386 375.033701,494.326207 375.112039,494.529712 C375.336767,495.113499 375.560546,495.815547 375.768755,496.637238 C376.476464,499.430192 376.839554,502.892362 376.676051,507.040544 C376.666279,507.288465 376.457378,507.481523 376.209456,507.471751 C375.961535,507.461979 375.768477,507.253078 375.778249,507.005156 C375.938352,502.943213 375.584307,499.567289 374.897781,496.857934 C374.698407,496.071111 374.48549,495.403139 374.273522,494.852498 L374.174114,494.602312 C374.097947,494.417109 374.039168,494.290047 374.003054,494.220586 C373.888601,494.000447 373.974276,493.729207 374.194414,493.614754 Z" id="Stroke-81" fill="#DD936F" fill-rule="nonzero"></path>
        <path d="M364.1463,485.36795 L364.1463,485.36795 C369.7203,484.61645 373.7253,479.98895 373.3263,474.76145 L369.2178,379.48595 C368.4678,370.63445 359.0058,364.13795 348.5283,365.27645 C338.0508,366.41495 330.8718,374.72045 332.8263,383.43995 L352.0443,477.32345 C353.1093,482.58845 358.4478,486.13595 364.1463,485.36795" id="Fill-83" fill="#FFC999"></path>
        <path d="M58.76805,318.0893 L58.76805,318.0893 C53.50155,320.3708 51.10455,325.8758 53.27055,330.7148 L95.95155,426.0653 C99.90255,434.8928 111.43155,438.9023 121.07205,434.8028 C130.64955,430.7273 134.39805,420.3263 129.26505,412.0613 L73.46805,322.2248 C70.58805,317.5868 64.12455,315.7688 58.76805,318.0893" id="Fill-85" fill="#FFC999"></path>
        <path d="M364.50735,387.83495 L364.50735,387.83495 C368.65485,379.63145 364.56885,369.12095 355.27185,364.08095 L276.98535,321.62495 C265.76685,315.54095 252.32235,318.70445 247.31985,328.60445 C242.31585,338.50445 247.74135,351.20495 259.29285,356.62895 L339.90435,394.48595 C349.47585,398.98145 360.36135,396.03845 364.50735,387.83495" id="Fill-87" fill="#FFC999"></path>
        <path d="M312.0102,382.61165 L329.1687,348.66365 L276.9192,321.23165 C265.6362,315.30815 252.2652,318.26465 246.7857,327.89315 C241.7577,337.84115 247.7937,351.39215 259.3242,356.99765 L312.0102,382.61165 Z" id="Fill-89" fill="#597EF7"></path>
        <path d="M329.122205,348.456656 C329.283828,348.136885 329.674074,348.008681 329.993844,348.170305 C330.281638,348.315765 330.414262,348.646411 330.320086,348.944198 L330.280195,349.041944 L313.121695,382.989944 C312.97734,383.275551 312.650284,383.40868 312.35373,383.318018 L312.256301,383.27941 L269.689301,362.33641 C269.367811,362.178237 269.235416,361.789392 269.39359,361.467901 C269.535946,361.17856 269.865146,361.042386 270.163929,361.133353 L270.262099,361.17219 L312.252,381.831 L329.122205,348.456656 Z" id="Stroke-91" fill="#1D39C4" fill-rule="nonzero"></path>
        <path d="M163.93875,859.8311 C143.78025,868.6331 134.65425,858.6776 134.65425,858.6776 C134.65425,858.6776 133.77525,854.6546 136.74975,849.8276 C140.47275,843.7871 149.64975,840.9881 159.82425,829.1771 C167.64075,820.1051 172.17675,806.6171 172.17675,806.6171 C177.57375,797.0381 196.56975,803.2481 196.56975,803.2481 C196.56975,803.2481 199.95075,824.9336 200.44275,835.6916 C200.44275,835.6916 200.22225,841.6556 185.69625,844.9841 C174.82875,847.4741 175.38975,854.8316 163.93875,859.8311" id="Fill-93" fill="#4E5C93"></path>
        <path d="M203.8323,806.20745 L195.1968,642.15095 C194.4513,627.96095 182.1693,617.16845 168.0003,618.24995 C153.8328,619.33295 143.3328,631.86695 144.7503,646.00445 L161.1363,809.46845 C161.1363,809.46845 185.1603,815.63495 203.8323,806.20745" id="Fill-95" fill="#ADC6FF"></path>
        <path d="M161.9583,666.3695 L161.9583,666.3695 C148.9158,662.006 141.7818,647.99 145.9293,634.877 L185.3403,510.314 C189.9468,495.755 205.5888,487.793 220.0713,492.638 C234.5523,497.4815 242.2578,513.2525 237.1773,527.6525 L193.7088,650.8595 C189.1323,663.8285 175.0008,670.7315 161.9583,666.3695" id="Fill-97" fill="#ADC6FF"></path>
        <path d="M468.6387,602.4767 C478.5897,620.9447 471.6387,631.5617 471.6387,631.5617 C471.6387,631.5617 468.4512,633.0812 464.0847,630.9272 C458.6187,628.2302 455.0817,619.6277 444.0057,611.4992 C435.4962,605.2547 423.8022,602.9627 423.8022,602.9627 C415.2027,599.1887 417.7452,579.4367 417.7452,579.4367 C417.7452,579.4367 435.1077,572.5892 443.8827,570.3617 C443.8827,570.3617 448.8117,569.6147 453.5052,583.4087 C457.0167,593.7317 462.9867,591.9872 468.6387,602.4767" id="Fill-99" fill="#4E5C93"></path>
        <path d="M419.1972,571.7912 L285.5547,606.8732 C273.9957,609.9062 266.7822,623.7737 269.5812,637.5797 L269.5812,637.5797 C272.3817,651.3857 284.0952,659.7167 295.5222,656.0297 L427.6332,613.3952 C427.6332,613.3952 429.4617,588.6902 419.1972,571.7912" id="Fill-101" fill="#ADC6FF"></path>
        <path d="M296.1519,655.30265 L296.1519,655.30265 C282.7614,658.44215 269.3289,650.26415 265.9689,636.92765 L234.0654,510.23315 C230.3364,495.42515 239.4639,480.43265 254.3304,476.94665 C269.1984,473.46065 284.0379,482.83265 287.2809,497.75465 L315.0204,625.42565 C317.9394,638.86565 309.5424,652.16315 296.1519,655.30265" id="Fill-103" fill="#ADC6FF"></path>
        <path d="M273.914345,319.663487 C274.252213,319.457758 274.692884,319.564878 274.898613,319.902745 C275.104342,320.240613 274.997222,320.681284 274.659355,320.887013 L274.557566,320.952827 C274.513464,320.982401 274.459392,321.019656 274.395949,321.064721 L274.293835,321.138191 C273.98227,321.365051 273.632692,321.645237 273.254462,321.980765 C272.165145,322.947097 271.072631,324.159411 270.050971,325.634165 C265.320365,332.462744 263.726386,342.153686 267.183694,355.197745 C267.285041,355.580116 267.057226,355.972247 266.674855,356.073594 C266.292484,356.174941 265.900353,355.947126 265.799006,355.564755 C262.235561,342.12025 263.900739,331.996438 268.873433,324.818407 C269.962557,323.246269 271.131596,321.949039 272.303833,320.909149 L272.676755,320.586681 C273.212509,320.135698 273.638859,319.831231 273.914345,319.663487 Z" id="Stroke-105" fill="#1D39C4" fill-rule="nonzero"></path>
        <path d="M162.721987,360.338268 L164.216513,360.210232 L164.363365,361.775256 L164.601229,364.095611 C164.65455,364.596524 164.711356,365.11919 164.771712,365.662975 L164.833252,366.213776 C165.371128,370.996645 166.058428,376.326856 166.909045,382.067378 C169.339137,398.467234 172.58916,414.866243 176.769067,430.166392 C179.144495,438.861419 181.760035,446.955914 184.626409,454.336402 L185.219825,455.84581 L185.099749,456.129015 C183.054245,460.953426 183.707399,464.172064 185.987205,466.239004 C186.44834,466.657083 186.943786,466.99121 187.437854,467.247916 C187.67989,467.373672 187.871851,467.456643 187.992256,467.501394 L188.055741,467.523695 L187.590759,468.949805 C186.91348,468.72898 185.945856,468.226226 184.979694,467.350275 C182.339657,464.956738 181.500502,461.283088 183.437339,456.239716 L183.6,455.827 L183.228582,454.880537 C180.502397,447.86115 178.003783,440.207305 175.722431,432.013287 L175.322092,430.561696 C171.124704,415.19756 167.863469,398.741978 165.425246,382.287243 C164.628839,376.912564 163.975084,371.895958 163.452604,367.348615 L163.342649,366.381407 C163.174658,364.887608 163.032111,363.542581 162.913782,362.358339 L162.721987,360.338268 Z" id="Stroke-107" fill="#1D39C4" fill-rule="nonzero"></path>
        <path d="M287.9172,516.23255 L240.0522,540.72905 C237.1077,542.25005 230.6247,540.00755 227.3817,539.32055 C216.5082,537.01805 195.0222,533.45255 183.6327,518.72855 C183.7452,503.45855 188.3082,477.94805 188.3082,477.94805 L187.4037,468.66155 C187.4037,468.66155 228.3552,466.28405 272.2287,458.39705 C272.9637,463.70255 273.9837,468.52205 273.9837,468.52205 C273.9837,468.52205 293.4192,489.81005 287.9172,516.23255" id="Fill-109" fill="#ADC6FF"></path>
        <path d="M271.562478,469.295138 C271.612107,469.587533 271.415307,469.864798 271.122912,469.914428 L268.62936,470.323074 L265.688411,470.788007 C264.43906,470.982476 263.103637,471.186722 261.68752,471.399242 L258.874428,471.816506 C252.237809,472.789443 245.100488,473.755255 237.640017,474.664262 C222.974645,476.451136 208.622359,477.827848 195.15839,478.633187 C193.571859,478.728084 192.002188,478.814692 190.450047,478.892821 C190.153845,478.907731 189.901639,478.679698 189.886729,478.383497 C189.871819,478.087295 190.099852,477.835089 190.396053,477.820179 C191.94478,477.742222 193.511074,477.655801 195.094264,477.561103 C208.534153,476.757204 222.865144,475.382535 237.510118,473.598146 L240.683296,473.205717 C247.513467,472.348552 254.043542,471.448574 260.131201,470.545559 L263.588054,470.025212 C264.47609,469.889505 265.327078,469.75781 266.139425,469.630573 L270.036607,469.006342 L270.943188,468.855572 C271.235583,468.805943 271.512848,469.002743 271.562478,469.295138 Z" id="Stroke-111" fill="#597EF7" fill-rule="nonzero"></path>
        <path d="M271.732378,457.493738 L272.004422,458.968862 L269.759463,459.371375 L266.339172,459.965179 C265.474413,460.113021 264.571233,460.265818 263.631443,460.423062 L262.194528,460.662198 C254.527143,461.931492 246.232182,463.200745 237.611008,464.385416 C226.031683,465.976579 214.765022,467.289624 204.1494,468.229434 C198.828937,468.70046 193.731925,469.071854 188.887074,469.335495 L187.441212,469.411346 L187.365588,467.913254 C192.619287,467.648046 198.182694,467.251806 204.017121,466.735278 C214.606687,465.797774 225.849919,464.48746 237.406806,462.899381 L240.831435,462.422 C247.075503,461.539273 253.123051,460.617159 258.855025,459.689004 L261.949545,459.182339 C264.384818,458.779192 266.597058,458.40225 268.557927,458.059454 L271.732378,457.493738 Z" id="Stroke-113" fill="#1D39C4" fill-rule="nonzero"></path>
        <path d="M224.924686,467.653151 C225.219992,467.625723 225.48162,467.84288 225.509049,468.138186 L225.775837,470.920205 L226.098995,474.182875 C226.321875,476.402586 226.566974,478.784494 226.832572,481.296937 C227.801428,490.461925 228.857623,499.626787 229.972411,508.264029 L230.230697,510.247632 C231.737274,521.715499 233.23885,531.336031 234.701499,538.500942 C234.760819,538.791526 234.573342,539.075179 234.282758,539.134499 C233.992174,539.193819 233.708521,539.006342 233.649201,538.715758 L233.410719,537.527703 C232.017772,530.473304 230.593842,521.257243 229.165847,510.387526 C228.040992,501.825272 226.972791,492.696022 225.989833,483.52639 L225.764523,481.409844 C225.56517,479.524044 225.377354,477.711707 225.2018,475.986181 L224.706909,471.024461 L224.439651,468.237514 C224.412223,467.942208 224.62938,467.68058 224.924686,467.653151 Z" id="Stroke-115" fill="#597EF7" fill-rule="nonzero"></path>
        <path d="M216.2139,471.1718 C216.3054,472.5053 217.2204,473.5268 218.2569,473.4548 C219.2934,473.3843 220.0599,472.2458 219.9669,470.9123 C219.8754,469.5803 218.9619,468.5573 217.9239,468.6293 C216.8874,468.7013 216.1209,469.8398 216.2139,471.1718" id="Fill-117" fill="#FFFFFF"></path>
        <path d="M209.871384,534.629737 L214.34434,535.610075 C229.277002,538.861314 235.744106,540.018691 243.26204,540.831763 C243.556898,540.863652 243.770076,541.128533 243.738187,541.42339 C243.706298,541.718248 243.441417,541.931426 243.14656,541.899537 L241.625207,541.728479 C233.961212,540.832397 226.742382,539.447997 209.640216,535.678563 C209.35059,535.614728 209.167551,535.328191 209.231387,535.038566 C209.288129,534.781121 209.520833,534.607893 209.775258,534.617409 L209.871384,534.629737 Z" id="Stroke-119" fill="#597EF7" fill-rule="nonzero"></path>
        <path d="M214.876148,477.239383 C215.171934,477.217732 215.429267,477.439963 215.450917,477.735748 L215.590653,479.543284 C215.705281,480.982358 215.839391,482.586022 215.991828,484.313091 C216.427327,489.247188 216.92228,494.181112 217.467356,498.784947 L217.710321,500.786978 C218.415571,506.453135 219.149453,511.088653 219.90128,514.370492 C221.340369,520.649871 225.476445,524.338028 230.422491,523.205497 C230.711586,523.139301 230.999607,523.319996 231.065803,523.609091 C231.131999,523.898186 230.951304,524.186207 230.662209,524.252403 C225.045983,525.538389 220.411836,521.406101 218.85441,514.610363 C218.005207,510.903464 217.184078,505.526925 216.400805,498.911223 C215.915048,494.808413 215.469194,490.446089 215.069638,486.055052 L214.810908,483.133644 C214.739174,482.300695 214.6721,481.501203 214.609829,480.74031 L214.379783,477.814152 C214.358132,477.518366 214.580363,477.261033 214.876148,477.239383 Z" id="Stroke-121" fill="#597EF7" fill-rule="nonzero"></path>
        <path d="M42.5676,309.6314 C42.5676,309.6314 47.5371,329.6969 57.6081,333.8324 C69.8316,338.8529 74.1486,326.6879 74.1486,326.6879 C74.1486,326.6879 78.3606,320.3969 75.0816,307.6829 C73.4181,301.2344 77.1681,288.4874 73.3581,287.5814 C68.3916,286.3994 68.6106,299.5709 65.1696,300.8804 C58.2006,303.5339 54.6981,282.8219 52.2186,279.6839 C47.3736,273.5489 35.8086,284.6099 42.5676,309.6314" id="Fill-123" fill="#FFC999"></path>
        <path d="M45.4703199,279.652508 C47.2534831,278.528081 48.6334911,279.167931 49.4538914,280.797646 C49.5818279,281.05179 49.6895151,281.317002 49.7791656,281.584762 L49.8628858,281.853054 C49.9254467,282.068771 49.9645325,282.239416 49.9745565,282.303037 L50.2649761,283.393196 C52.6191227,292.156455 54.544685,297.502526 56.2578169,299.838374 C56.4354182,300.080533 56.3830841,300.420816 56.1409256,300.598417 C55.898767,300.776018 55.5584844,300.723684 55.3808831,300.481526 L55.1615783,300.169252 C53.3284015,297.448766 51.3501389,291.765435 48.9140128,282.539997 L48.8706477,282.34773 C48.8564261,282.291561 48.83907,282.227156 48.8184232,282.155964 C48.7319561,281.857816 48.6202364,281.56019 48.4825269,281.286632 C47.9207644,280.170698 47.2100108,279.841152 46.0503801,280.572392 C45.7963612,280.732571 45.4605872,280.656499 45.300408,280.40248 C45.1402288,280.148461 45.216301,279.812687 45.4703199,279.652508 Z" id="Stroke-125" fill="#DD936F" fill-rule="nonzero"></path>
        <path d="M42.3220285,283.794901 C43.2346728,282.873737 44.1081718,282.530879 44.9139445,282.769046 C45.5517417,282.957564 46.030622,283.469024 46.3988142,284.183829 C46.5485585,284.474541 46.670167,284.781773 46.7671958,285.08853 C46.8256698,285.273395 46.8636632,285.419801 46.8933519,285.576257 L46.924811,285.86552 L46.9649535,286.185272 C47.0026843,286.471359 47.0496451,286.792545 47.106805,287.146663 C47.3115569,288.415147 47.6027722,289.838903 47.9955413,291.384082 C49.1183776,295.801391 50.8282834,300.300652 53.2446252,304.611743 C53.3914537,304.873706 53.2981191,305.205097 53.0361565,305.351925 C52.7741939,305.498754 52.4428033,305.405419 52.2959748,305.143457 C49.8298166,300.743485 48.0865349,296.156403 46.9415587,291.651993 C46.5907141,290.271749 46.3189687,288.985061 46.1160048,287.814468 L46.0332013,287.319959 C45.9890279,287.046295 45.9506947,286.791217 45.9177874,286.555633 L45.8287987,285.850854 C45.822009,285.786184 45.8188684,285.746411 45.8204074,285.740365 L45.7884157,285.612729 C45.7734447,285.557945 45.7541244,285.491727 45.7303283,285.416496 C45.6505803,285.164372 45.5509722,284.912723 45.4320319,284.681813 C45.1865778,284.205291 44.8996356,283.898827 44.6056889,283.811943 C44.2417766,283.704379 43.7521794,283.896552 43.0945715,284.560299 C42.8832128,284.773631 42.5389331,284.77523 42.3256012,284.563872 C42.1122693,284.352513 42.1106698,284.008233 42.3220285,283.794901 Z" id="Stroke-127" fill="#DD936F" fill-rule="nonzero"></path>
        <path d="M41.0265646,289.600258 C42.0426686,289.069406 42.9671132,289.267895 43.6571168,290.062465 C44.1628312,290.644818 44.5305939,291.520795 44.8010813,292.621512 C44.9632716,293.281526 45.0804043,293.983975 45.1604687,294.685742 L45.1862746,294.924921 L45.2345752,295.491839 C45.2377387,295.543014 45.2385192,295.571363 45.2354879,295.561126 C45.762033,298.575175 46.5044383,301.385297 47.4070849,303.974316 C48.0682701,305.870763 48.7760558,307.538214 49.4828507,308.961898 L49.7695441,309.525627 C49.8619599,309.702827 49.9510997,309.869277 50.0365823,310.02486 L50.327,310.537 L50.6231097,310.676838 C50.9788461,310.848881 51.3742376,311.054312 51.7994654,311.293075 C53.013219,311.974592 54.2268111,312.788326 55.3616995,313.734879 C59.3649602,317.073795 61.4049662,321.169541 60.3494639,325.979742 C60.2850993,326.273068 59.9951338,326.458678 59.7018077,326.394314 C59.4084816,326.329949 59.2228716,326.039984 59.2872361,325.746658 C60.2416144,321.397305 58.3873937,317.674563 54.6651463,314.570026 C53.5853778,313.669446 52.4261232,312.892146 51.2670301,312.24132 C50.9630787,312.070653 50.6757126,311.918162 50.4091314,311.783959 L49.9392748,311.555927 C49.8489299,311.513893 49.7813142,311.483764 49.7385747,311.465591 C49.6366211,311.422238 49.5503426,311.348777 49.4912883,311.25504 L49.2886589,310.914055 L49.2151414,310.784939 C49.0014209,310.406592 48.7639732,309.959501 48.5087838,309.445478 C47.7822796,307.982094 47.0567662,306.272879 46.3802056,304.332332 C45.4586167,301.688981 44.7011685,298.82192 44.1567323,295.680914 L44.1372826,295.390801 C44.1276674,295.271596 44.1147483,295.131099 44.0980093,294.972934 L44.079978,294.809015 C44.0047683,294.149799 43.8949587,293.491266 43.7450007,292.88103 C43.5121334,291.933404 43.2038479,291.199097 42.8360091,290.775514 C42.4692696,290.353197 42.0898427,290.271729 41.5301354,290.564142 C41.2639661,290.703199 40.9354651,290.600155 40.7964079,290.333985 C40.6573507,290.067816 40.7603954,289.739315 41.0265646,289.600258 Z" id="Stroke-129" fill="#DD936F" fill-rule="nonzero"></path>
        <path d="M64.6357041,301.014366 C64.8555598,300.809802 65.19962,300.822198 65.4041841,301.042054 C65.6087481,301.26191 65.5963517,301.60597 65.3764959,301.810534 L65.2428611,301.939717 C65.1116467,302.070237 64.9324917,302.257257 64.718066,302.495757 C64.2145291,303.055828 63.7104879,303.689778 63.2406101,304.383283 C61.2095552,307.38097 60.4715909,310.426726 61.7291034,313.23291 C61.7704537,313.325185 61.8139657,313.417118 61.8596593,313.508707 C61.9937225,313.777426 61.8845622,314.103946 61.6158429,314.238009 C61.3471236,314.372072 61.0206039,314.262912 60.8865407,313.994193 C60.8341404,313.889161 60.7841958,313.783636 60.7366924,313.677631 C59.2940879,310.458407 60.1197685,307.050625 62.3402992,303.773286 C62.8397662,303.036109 63.3743088,302.363797 63.9093556,301.768678 C64.0345832,301.629391 64.1540379,301.500873 64.2664431,301.383596 L64.5537665,301.092816 C64.588296,301.059114 64.6157881,301.032897 64.6357041,301.014366 Z" id="Stroke-131" fill="#DD936F" fill-rule="nonzero"></path>
        <path d="M57.4062687,298.328453 C57.6185102,298.115999 57.9627937,298.115827 58.1752473,298.328069 C58.3877009,298.54031 58.3878728,298.884594 58.1756313,299.097047 L58.0188864,299.257915 L57.8561555,299.42911 C57.5976511,299.703352 57.3091288,300.020071 56.9981254,300.374837 C56.1088231,301.389278 55.2193511,302.503333 54.390082,303.681019 C52.7881845,305.955953 51.6100224,308.185128 51.0327108,310.251793 C50.9909527,310.401279 50.952466,310.549591 50.9172938,310.696695 C50.8474602,310.988767 50.5540774,311.168927 50.2620051,311.099094 C49.9699327,311.02926 49.7897726,310.735877 49.8596062,310.443805 C49.8979876,310.283279 49.9399071,310.121738 49.9853094,309.959207 C50.601111,307.754755 51.8337344,305.422535 53.5009048,303.054904 C54.354023,301.843348 55.2671088,300.699718 56.1803642,299.657953 C56.4202831,299.384274 56.6474991,299.132274 56.8588547,298.903773 L57.3617882,298.373393 C57.3786793,298.3562 57.3935261,298.341208 57.4062687,298.328453 Z" id="Stroke-133" fill="#DD936F" fill-rule="nonzero"></path>
        <path d="M107.195988,377.497961 C107.410073,377.344126 107.698978,377.370448 107.882086,377.547349 L107.945439,377.620688 L128.129439,405.709688 C128.302504,405.950534 128.247557,406.286074 128.006712,406.459139 C127.792627,406.612974 127.503722,406.586652 127.320614,406.409751 L127.257261,406.336412 L107.073261,378.247412 C106.900196,378.006566 106.955143,377.671026 107.195988,377.497961 Z" id="Stroke-135" fill="#E2A688" fill-rule="nonzero"></path>
        <path d="M119.042013,379.434976 C119.301687,379.191425 119.694805,379.178833 119.968108,379.389086 L120.054424,379.467413 L150.374,411.794 L167.411849,395.398308 C167.668376,395.151444 168.061299,395.133808 168.337278,395.340536 L168.424592,395.417749 C168.671456,395.674276 168.689092,396.067199 168.482364,396.343178 L168.405151,396.430492 L150.844651,413.329492 C150.583179,413.581116 150.180579,413.594286 149.904377,413.375857 L149.825576,413.303387 L119.009576,380.447387 C118.738964,380.15886 118.753486,379.705588 119.042013,379.434976 Z" id="Stroke-137" fill="#1D39C4" fill-rule="nonzero"></path>
    </g>
</svg>