<svg xmlns="http://www.w3.org/2000/svg" xmlns:xlink="http://www.w3.org/1999/xlink" width="512" height="1024" version="1.1" viewBox="0 0 512 1024"><title>2.人物组件/1.商人/坐姿/专注工作</title><desc>Created with Sketch.</desc><g id="2.人物组件/1.商人/坐姿/专注工作" fill="none" fill-rule="evenodd" stroke="none" stroke-width="1"><path id="Fill-1" fill="#4E5C93" d="M168.486932,649.7783 L168.486932,649.7783 C168.6182,629.1833 184.9562,612.3488 205.5377,611.6033 L307.5452,607.9028 C330.6707,607.0643 349.9157,625.5008 350.071128,648.6398 L350.071128,648.6413 C350.2232,671.6468 331.4387,690.2843 308.4347,689.9483 L206.3702,688.4603 C185.2652,688.1528 168.3557,670.8848 168.486932,649.7783"/><path id="Fill-3" fill="#E4EBF7" d="M316.94375,773.38175 L334.67075,798.48125 C334.67075,798.48125 324.80825,808.23125 313.14575,813.46025 C293.19125,822.40625 300.93875,824.24375 279.77825,839.27825 C261.13775,852.52025 242.68625,850.41875 248.86925,841.18775 C253.70525,833.96675 257.59475,827.45675 260.69375,821.80325 C267.47075,809.44475 270.37775,795.35075 268.97075,781.32875 C267.90725,770.72525 268.06325,757.89275 273.82475,752.39825 C290.52725,736.47425 316.94375,773.38175 316.94375,773.38175"/><path id="Fill-5" fill="#B0BEDC" d="M251.73185,840.16445 C251.73185,840.16445 253.36235,843.03545 267.29135,840.98945 C283.51385,838.60595 299.23985,819.71645 309.06935,809.76845 C324.20735,794.44595 327.84485,797.03345 329.72135,792.56795 C335.55335,795.58745 335.12585,802.13645 335.12585,802.13645 C335.12585,802.13645 332.47535,806.41595 318.75785,814.21445 C305.04035,822.01145 307.33985,825.59195 291.44285,837.50795 C269.04635,854.29595 253.14635,854.49245 249.38885,850.07795 C244.66085,844.52345 247.63985,839.43095 251.73185,840.16445"/><path id="Fill-7" fill="#3B4A7A" d="M186.64745,617.84615 C205.41395,605.44715 230.74445,611.44265 241.95545,630.93965 C266.69495,673.96415 304.79045,740.26115 304.79045,740.26115 C304.79045,740.26115 300.83945,734.48615 304.79195,740.26115 C310.00595,747.88415 315.87095,755.26865 306.58145,765.90665 C293.73695,780.61265 273.59045,791.43065 263.13395,790.79915 C252.68045,790.17065 246.33245,773.25965 246.33095,773.25365 C246.33095,773.25365 203.92895,712.23815 176.22845,672.79865 C163.59845,654.81815 168.31445,629.95865 186.64745,617.84615"/><path id="Fill-9" fill="#E4EBF7" d="M245.8373,563.19905 L245.8373,563.19905 C263.0708,563.47655 277.6028,550.41605 279.1583,533.25005 L286.4483,452.79305 C288.2333,433.10555 273.1748,415.93505 253.4228,415.13555 C234.4733,414.36905 218.4458,429.01355 217.5023,447.95255 L213.4838,528.64055 C212.5568,547.23605 227.2208,562.89905 245.8373,563.19905"/><path id="Fill-11" fill="#E4EBF7" d="M131.4989,545.74985 L132.2819,574.52285 C132.4859,582.02285 138.5609,588.03185 146.0624,588.15635 L235.6049,589.63385 C253.4414,589.14935 267.5084,574.29485 267.0224,556.45835 C266.5364,538.62035 251.6834,524.55485 233.8454,525.04085 L144.5174,531.38735 C137.0324,531.91835 131.2949,538.24985 131.4989,545.74985"/><path id="Fill-13" fill="#E4EBF7" d="M183.25775,804.73685 L170.06675,832.48985 C170.06675,832.48985 156.73475,828.67085 146.46125,821.06735 C128.88275,808.05785 131.07875,815.71385 107.60225,804.63485 C86.92325,794.87735 79.68125,778.80785 90.78875,778.62935 C135.53975,777.91085 140.60675,771.57635 140.60675,771.57635 C140.60675,771.57635 181.04375,733.06835 195.08975,737.36585 C217.15475,744.12035 183.25775,804.73685 183.25775,804.73685"/><path id="Fill-15" fill="#B0BEDC" d="M93.08495,780.62255 C93.08495,780.62255 91.38095,783.45155 99.99095,794.59055 C110.01995,807.56405 134.19095,812.01305 147.68045,815.70605 C168.45545,821.39255 167.98445,825.82955 172.79645,825.27755 C173.02145,831.84005 167.10395,834.67805 167.10395,834.67805 C167.10395,834.67805 162.07445,834.46505 148.55345,826.32905 C135.03545,818.19455 133.04045,821.95205 114.86195,813.93605 C89.25245,802.64105 81.28895,788.87855 83.29595,783.43955 C85.81895,776.59655 91.71995,776.69705 93.08495,780.62255"/><path id="Fill-17" fill="#4E5C93" d="M265.3169,615.89645 C284.8109,627.11345 290.8064,652.44545 278.4029,671.20745 C251.0324,712.60595 208.8449,776.37695 208.8449,776.37695 C208.8449,776.37695 212.2349,770.25695 208.8449,776.37845 C204.3674,784.45745 200.5454,792.36695 186.7229,789.47345 C158.6969,783.60395 149.1179,771.42245 144.9944,761.79395 C140.8724,752.16695 153.1439,738.91145 153.1484,738.90845 L153.1484,738.90845 C153.1484,738.90845 188.6849,673.65545 211.5239,631.21295 C221.9354,611.86445 246.2729,604.93745 265.3169,615.89645"/><path id="Fill-19" fill="#4E5C93" d="M252.38075,580.3454 C252.38075,580.3454 239.66975,606.6224 241.45925,644.6114 C242.34125,663.3449 281.12525,681.3854 309.42575,686.2634 C429.48725,706.9574 388.21475,578.3189 388.21475,578.3189 C388.21475,578.3189 265.04825,580.5659 252.38075,580.3454"/><path id="Stroke-21" fill="#3B4A7A" fill-rule="nonzero" d="M276.600094,662.331589 C276.979289,662.312095 277.307157,662.577766 277.375548,662.940809 L277.387611,663.042094 C277.396445,663.213941 277.496959,663.62139 277.785929,664.236391 C278.297665,665.325494 279.195126,666.559315 280.578998,667.905733 C284.623197,671.84048 291.80268,675.809363 302.892982,679.530151 C306.695396,680.805858 310.906389,682.031449 315.544388,683.200341 C315.946042,683.301568 316.189586,683.709234 316.088359,684.110888 C315.987132,684.512542 315.579466,684.756086 315.177812,684.654859 C310.503513,683.476818 306.255733,682.24052 302.415869,680.952249 L301.130791,680.514026 C290.565891,676.851751 283.594131,672.932077 279.532986,668.980842 C278.023131,667.511849 277.018985,666.13136 276.428325,664.874287 C276.055858,664.081583 275.908324,663.483528 275.889589,663.119106 C275.868323,662.705438 276.186427,662.352855 276.600094,662.331589 Z"/><path id="Stroke-23" fill="#3B4A7A" fill-rule="nonzero" d="M305.164623,609.994242 C305.575195,610.049042 305.863607,610.4263 305.808808,610.836873 L305.740613,611.391879 L305.654117,612.162189 C305.537174,613.247148 305.420141,614.500106 305.310854,615.904261 C304.291375,629.002956 304.64971,643.37097 307.36786,656.882104 C308.694689,663.477384 310.545149,669.540076 312.969464,674.956764 C313.138676,675.334838 312.96936,675.778501 312.591286,675.947714 C312.213212,676.116926 311.769549,675.94761 311.600336,675.569536 C309.12751,670.044459 307.244945,663.876582 305.897323,657.177944 C303.147638,643.510061 302.786078,629.012725 303.815377,615.787867 L303.899592,614.752088 C303.985052,613.745249 304.073878,612.826015 304.162755,612.001441 L304.321992,610.638427 C304.372225,610.262069 304.693413,609.98836 305.062841,609.987565 L305.164623,609.994242 Z"/><path id="Stroke-25" fill="#3B4A7A" fill-rule="nonzero" d="M296.71519,581.421648 C297.094831,581.415299 297.413381,581.692073 297.469264,582.057251 L297.477841,582.15889 L297.894841,606.66589 C297.901889,607.080044 297.571863,607.421494 297.15771,607.428652 C296.778069,607.435001 296.459519,607.158227 296.403636,606.793049 L296.395059,606.69141 L295.978059,582.18441 C295.971011,581.770256 296.301037,581.428806 296.71519,581.421648 Z"/><path id="Fill-27" fill="#51342D" d="M347.03015,367.76225 C347.03015,367.76225 352.21115,381.50975 344.35715,386.03975 C337.45415,390.02225 330.52865,389.11175 329.30915,379.43825 C328.08815,369.76475 330.43565,343.04525 336.79715,343.64525 C343.16015,344.24375 347.03015,367.76225 347.03015,367.76225"/><path id="Fill-29" fill="#B69882" d="M312.8525,397.34585 C312.8525,397.34585 296.909,399.79685 286.595,393.78185 C274.214,386.55935 276.3515,360.83885 276.29,352.48385 C276.1805,337.82435 282.284,329.79935 282.284,329.79935 C282.284,329.79935 288.2105,317.19785 313.832,316.20485 C339.4535,315.21185 341.291,338.96735 341.7155,349.94885 C342.14,360.92885 340.166,381.88685 333.5615,387.83735 C325.592,395.01935 312.8525,397.34585 312.8525,397.34585"/><path id="Fill-31" fill="#51342D" d="M277.30805,343.27955 C277.30805,343.27955 265.90205,332.72405 269.68205,323.87255 C273.46355,315.01955 281.66255,313.78505 290.90255,315.71855 C300.14255,317.65205 335.49605,306.08105 340.30055,325.26005 C356.51255,341.58605 345.77555,356.82305 345.77555,356.82305 C345.77555,356.82305 339.06755,349.99955 337.00955,356.03555 C334.95305,362.07305 333.31805,366.18305 331.41755,364.42355 C329.51705,362.66555 330.90005,355.53605 327.57305,352.45655 C324.24605,349.37855 319.89155,339.65255 322.26605,332.83205 C323.02205,328.67855 288.69005,329.55005 281.49305,333.03605 C277.43405,335.00255 277.30805,343.27955 277.30805,343.27955"/><path id="Stroke-33" fill="#51342D" fill-rule="nonzero" d="M280.213771,347.16713 C282.155095,345.906798 285.037132,345.41128 288.995338,345.995951 C289.814873,346.117005 290.381103,346.879504 290.260049,347.699038 C290.138995,348.518573 289.376496,349.084803 288.556962,348.963749 C285.280795,348.479823 283.132163,348.849244 281.847343,349.683366 C281.455679,349.937639 281.261629,350.147917 281.205932,350.230178 L281.192409,350.252742 C280.829894,350.997641 279.932157,351.307624 279.187258,350.945109 C278.442359,350.582594 278.132376,349.684857 278.494891,348.939958 C278.75132,348.413046 279.296042,347.762931 280.213771,347.16713 Z"/><path id="Stroke-35" fill="#51342D" fill-rule="nonzero" d="M305.080574,345.521029 C307.578562,345.08147 310.228962,345.057051 312.759229,345.732898 C313.450919,345.917652 314.118354,346.153074 314.757952,346.442529 C315.512688,346.78409 315.847633,347.672815 315.506071,348.427552 C315.16451,349.182288 314.275785,349.517233 313.521048,349.175671 C313.034636,348.955542 312.521829,348.774662 311.985054,348.631286 C309.939032,348.084783 307.704679,348.105369 305.600481,348.475635 C305.048586,348.572749 304.653283,348.667304 304.458393,348.724131 C303.663086,348.956032 302.830369,348.4993 302.598469,347.703993 C302.366568,346.908686 302.8233,346.075969 303.618607,345.844069 L303.877877,345.773772 C304.174439,345.698286 304.580991,345.608938 305.080574,345.521029 Z"/><path id="Stroke-37" fill="#7C5B4D" fill-rule="nonzero" d="M294.454934,353.869144 C294.702112,354.057326 294.749938,354.410255 294.561756,354.657434 L294.39224,354.887918 C294.253971,355.079449 294.099526,355.300204 293.932965,355.546848 C293.456395,356.25256 292.979638,357.022361 292.53523,357.829151 C291.814036,359.138427 291.25074,360.414175 290.905898,361.601301 C289.656353,365.902883 291.346918,368.230909 297.461433,367.994121 C297.771861,367.9821 298.033257,368.224006 298.045279,368.534433 C298.0573,368.844861 297.815394,369.106257 297.504967,369.118279 C290.60251,369.38558 288.367302,366.307542 289.825555,361.287478 C290.196312,360.01114 290.791723,358.662658 291.549834,357.286361 C292.011781,356.44773 292.506118,355.649544 293.000642,354.917246 L293.368393,354.385523 L293.666644,353.975966 C293.854826,353.728788 294.207755,353.680962 294.454934,353.869144 Z"/><path id="Stroke-39" fill="#51342D" fill-rule="nonzero" d="M308.493192,355.753786 C310.325496,355.684456 311.82263,357.321337 311.900499,359.351504 C311.916375,359.765413 311.593705,360.113823 311.179796,360.129699 C310.765887,360.145575 310.417477,359.822905 310.401601,359.408996 C310.353553,358.156305 309.494418,357.216975 308.550654,357.252685 C307.604379,357.289434 306.819898,358.292446 306.867999,359.546504 C306.883875,359.960413 306.561205,360.308823 306.147296,360.324699 C305.733387,360.340575 305.384977,360.017905 305.369101,359.603996 C305.291187,357.572673 306.658044,355.825054 308.493192,355.753786 Z"/><path id="Stroke-41" fill="#51342D" fill-rule="nonzero" d="M284.701272,356.675535 C286.534756,356.606235 288.032168,358.242776 288.110049,360.273254 C288.125925,360.687163 287.803255,361.035573 287.389346,361.051449 C286.975437,361.067325 286.627027,360.744655 286.611151,360.330746 C286.563094,359.077837 285.70381,358.138713 284.758704,358.174435 C283.812368,358.211186 283.028299,359.214104 283.077522,360.467571 C283.093776,360.881465 282.771424,361.230169 282.357529,361.246422 C281.943635,361.262676 281.594931,360.940324 281.578678,360.526429 C281.498908,358.49508 282.865676,356.74682 284.701272,356.675535 Z"/><path id="Fill-43" fill="#B69882" d="M285.4379,370.2821 L284.6264,396.8216 C284.1614,411.9536 295.5704,424.8266 310.6484,426.1871 C327.2414,427.6841 341.5979,414.7406 341.8214,398.0801 L342.1874,370.7036 L285.4379,370.2821 Z"/><path id="Fill-45" fill="#51342D" d="M284.2295,375.5507 C284.2295,375.5507 284.5415,369.0572 293.522,368.1467 C301.28,367.3592 306.3005,368.9147 309.2585,374.2997 C312.2165,379.6832 295.1915,374.8442 295.1915,374.8442 C295.1915,374.8442 282.1715,381.5867 284.2295,375.5507"/><path id="Fill-47" fill="#B69882" d="M349.9262,363.1688 C349.2197,369.4058 345.0827,374.0603 340.6862,373.5623 C336.2882,373.0643 333.2957,367.6043 334.0022,361.3658 C334.7072,355.1288 338.8442,350.4743 343.2422,350.9723 C347.6402,351.4703 350.6327,356.9303 349.9262,363.1688"/><path id="Stroke-49" fill="#7C5B4D" fill-rule="nonzero" d="M323.700914,391.535943 C323.982721,391.405197 324.317161,391.527657 324.447907,391.809464 C324.578653,392.091271 324.456193,392.425711 324.174386,392.556457 C311.50683,398.433633 300.307779,398.918832 291.213131,396.208514 C290.084784,395.872252 289.095712,395.511322 288.252446,395.149437 L287.835977,394.965 C287.771464,394.935466 287.709408,394.906565 287.649823,394.878343 L287.308661,394.710638 C287.262461,394.686893 287.226705,394.6679 287.201495,394.65403 C286.929313,394.504275 286.830065,394.162227 286.97982,393.890045 C287.129575,393.617863 287.471623,393.518615 287.743805,393.66837 L287.987731,393.793531 C288.161301,393.878397 288.397969,393.987669 288.696109,394.115615 C289.500268,394.460718 290.44859,394.806777 291.534431,395.130371 C300.37622,397.765335 311.293693,397.292335 323.700914,391.535943 Z"/><path id="Stroke-51" fill="#7C5B4D" fill-rule="nonzero" d="M298.805966,389.359107 C299.085184,389.373604 299.306244,389.589346 299.335922,389.858516 L299.336288,390.013866 C299.327626,390.326751 299.337395,390.737763 299.380261,391.20943 C299.443662,391.907052 299.568594,392.593108 299.767835,393.229147 C300.302861,394.937116 301.271065,396.013763 302.795746,396.257927 C303.102498,396.30705 303.311347,396.595544 303.262223,396.902296 C303.2131,397.209048 302.924606,397.417897 302.617854,397.368773 C300.608359,397.04697 299.344689,395.641764 298.694275,393.565442 C298.468965,392.846184 298.330044,392.083302 298.259878,391.311253 C298.220565,390.878684 298.206509,390.490858 298.2086,390.168285 L298.215057,389.891684 C298.231164,389.581442 298.495723,389.342999 298.805966,389.359107 Z"/><path id="Stroke-53" fill="#7C5B4D" fill-rule="nonzero" d="M343.209988,356.078275 C343.520413,356.066201 343.781851,356.308062 343.793925,356.618488 C343.805999,356.928913 343.564138,357.190351 343.253712,357.202425 L343.114197,357.214979 C342.999584,357.229454 342.843576,357.257101 342.657037,357.303668 C342.183484,357.421884 341.709787,357.619999 341.269937,357.915192 C340.03468,358.744199 339.279789,360.168059 339.244619,362.394422 L339.244,362.558 L339.345361,362.581617 C341.366856,363.064369 342.483699,363.880918 342.700696,365.043899 L342.723897,365.197558 C342.849193,366.274935 342.213136,367.422449 341.004418,368.706415 C340.791476,368.932613 340.435483,368.94336 340.209285,368.730418 C339.983087,368.517476 339.97234,368.161483 340.185282,367.935285 C341.183759,366.874649 341.68185,365.97604 341.606428,365.327517 C341.520534,364.588943 340.619687,363.964687 338.58221,363.567455 C338.32605,363.517513 338.137885,363.297934 338.127772,363.037147 C338.013175,360.081975 338.968752,358.104698 340.643022,356.98106 C341.596467,356.341183 342.5462,356.104094 343.209988,356.078275 Z"/><path id="Fill-55" fill="#E4EBF7" d="M383.03015,583.2125 C382.28315,583.607 254.52215,582.791 254.52215,582.791 C220.45415,564.629 238.58915,519.5795 238.58915,519.5795 C236.03915,505.478 240.16265,480.584 240.16265,480.584 C229.14665,445.604 243.95315,417.191 243.95315,417.191 C263.00165,410.4335 275.31515,406.1075 285.04715,404.141 C295.28165,402.0725 299.39615,424.802 310.53065,423.866 C323.94365,422.738 330.80165,398.969 344.88065,401.0675 C361.18865,403.496 375.42815,411.743 390.51515,418.0775 C405.68315,430.463 402.38615,499.8125 394.01015,543.512 C394.01015,543.512 403.30265,572.513 383.03015,583.2125"/><path id="Fill-57" fill="#FFF" d="M279.5039,414.3416 C279.5039,414.3416 290.5019,467.3981 302.8229,491.4941 C328.1459,435.4706 344.7719,401.6441 345.5984,401.4671 L309.3509,421.4396 L279.5039,414.3416 Z"/><polygon id="Fill-59" fill="#253368" points="294.015 429.713 306.375 419.084 321.517 429.426 314.538 441.012 297.588 442.329"/><polygon id="Fill-61" fill="#253368" points="289.834 461.579 297.872 442.139 314.723 440.924 319.852 453.57 301.66 494.802"/><polygon id="Fill-63" fill="#FFF" points="286.34 435.094 307.795 419.434 284.456 405.025 281.068 408.939"/><polygon id="Fill-65" fill="#FFF" points="307.794 419.434 328.505 432.622 346.019 401.437 341.444 396.685"/><polygon id="Fill-67" fill="#FFF" points="285.593 436.248 306.923 419.074 285.313 400.017 278.57 405.267"/><path id="Stroke-69" fill="#E4EBF7" fill-rule="nonzero" d="M308.086668,419.100191 L285.342417,399.042877 L277.733348,404.967626 L285.127399,437.58547 L308.086668,419.100191 Z M285.282,400.99 L305.759,419.047 L286.058,434.909 L279.406,405.565 L285.282,400.99 Z"/><polygon id="Fill-71" fill="#FFF" points="306.923 419.074 329.103 434.807 346.626 401.788 341.642 395.131"/><path id="Stroke-73" fill="#E4EBF7" fill-rule="nonzero" d="M347.511866,401.719118 L341.809873,394.103877 L305.614325,419.065138 L329.365685,435.912911 L347.511866,401.719118 Z M341.473,396.157 L345.74,401.856 L328.84,433.701 L308.231,419.082 L341.473,396.157 Z"/><path id="Stroke-75" fill="#96A7CA" fill-rule="nonzero" d="M302.822834,495.179905 C303.202072,495.198553 303.501631,495.495777 303.533255,495.86385 L303.535095,495.965834 L302.150595,524.122334 C302.14667,524.202156 302.130012,524.280837 302.101252,524.355401 L301.96675,524.715925 L301.623727,525.680902 C301.49872,526.041726 301.366523,526.432813 301.228333,526.852653 C300.569327,528.854805 299.909976,531.093003 299.29451,533.511264 C297.401384,540.949658 296.329765,548.416678 296.501435,555.36714 C296.778855,566.59913 300.281879,575.276705 307.745235,580.485473 C308.084904,580.722533 308.168086,581.190065 307.931027,581.529735 C307.693967,581.869404 307.226435,581.952586 306.886765,581.715527 C298.972966,576.192388 295.290005,567.069078 295.001892,555.404177 C294.82639,548.298553 295.916601,540.70198 297.840851,533.141297 C298.465182,530.688204 299.134183,528.417247 299.80353,526.383681 L300.076755,525.567299 C300.164944,525.308299 300.25013,525.062575 300.331957,524.830569 L300.658,523.929 L302.036905,495.892166 C302.055553,495.512928 302.352777,495.213369 302.72085,495.181745 L302.822834,495.179905 Z"/><path id="Stroke-77" fill="#96A7CA" fill-rule="nonzero" d="M346.417833,401.34959 C346.64295,401.00189 347.10731,400.902517 347.45501,401.127633 C347.80271,401.35275 347.902083,401.81711 347.676967,402.16481 L347.200923,402.907977 C342.786358,409.871128 336.977947,420.970168 330.111783,435.317053 L329.736218,436.102826 C328.312918,439.084584 326.85397,442.185178 325.363749,445.392894 C320.198885,456.510327 314.882316,468.423157 309.710883,480.336162 L307.689906,485.009485 C307.169555,486.217437 306.664515,487.39357 306.175866,488.534988 L302.913167,496.218456 C302.664272,496.812671 301.831441,496.837255 301.547929,496.258756 C297.151152,487.287243 292.970188,474.713002 289.038213,459.446966 C286.142199,448.203083 283.548116,436.159644 281.292703,424.116697 L280.935422,422.193194 C280.41006,419.341083 279.932333,416.640576 279.503788,414.124906 L279.055917,411.455486 L278.510432,408.054507 C278.448131,407.645005 278.729592,407.262533 279.139093,407.200232 C279.51447,407.143123 279.867134,407.374869 279.971292,407.72931 L279.996233,407.847711 L280.173224,408.976463 C280.322486,409.914227 280.499893,411.002309 280.704857,412.228175 L281.126824,414.716436 C281.613866,417.549578 282.161329,420.606177 282.76707,423.840577 C285.016773,435.853035 287.604077,447.865002 290.490805,459.072831 C294.07868,473.00289 297.871904,484.668712 301.829276,493.343612 L302.178,494.098 L304.075665,489.632035 C305.37482,486.587799 306.802058,483.270024 308.334935,479.738863 L310.412432,474.971225 C314.927439,464.649477 319.522017,454.407105 324.003385,444.760905 L325.274807,442.033972 C326.327791,439.783821 327.364226,437.589968 328.382529,435.456662 L329.50697,433.11025 C336.320435,418.949533 342.062678,408.076271 346.417833,401.34959 Z"/><path id="Stroke-79" fill="#96A7CA" fill-rule="nonzero" d="M236.952663,449.383383 C237.366358,449.405057 237.684929,449.757218 237.664211,450.170913 C237.518196,453.086558 237.669587,456.673548 238.072439,460.778719 C238.370273,463.813742 238.796355,467.040416 239.317442,470.355601 C239.638183,472.396173 239.978595,474.367721 240.321782,476.218265 L240.656798,477.982491 L241.026825,479.82327 L241.041798,480.023917 L240.548307,488.074992 L240.095459,495.294992 C239.943942,497.684496 239.792324,500.048255 239.642004,502.360516 L239.142883,509.911754 C238.809453,514.862731 238.509312,519.112093 238.250463,522.512226 L238.211946,523.015858 L238.180976,523.17899 C231.386715,545.257511 234.382418,561.780933 243.477961,573.519707 C245.431303,576.040702 247.522879,578.122385 249.611732,579.790078 C250.34013,580.371615 251.014955,580.859276 251.618459,581.256226 L251.897819,581.436873 L252.19,581.617 L390.51334,581.617402 C390.559694,581.61729 390.641852,581.613513 390.756465,581.603458 L390.980085,581.580068 C391.384562,581.531706 391.83881,581.444645 392.330221,581.309129 C393.743975,580.91926 395.16028,580.218962 396.484988,579.129415 C402.570715,574.124019 404.740888,563.068128 400.474994,543.863029 C400.451866,543.758903 400.451213,543.651043 400.473079,543.546645 C404.879988,522.506755 405.529304,501.778483 403.997021,483.822612 L403.891859,482.639193 C403.785308,481.487181 403.67496,480.429964 403.564118,479.472676 L403.441042,478.451976 L403.288527,477.317181 C403.226792,476.907594 403.508782,476.525512 403.918369,476.463777 C404.327956,476.402042 404.710038,476.684032 404.771773,477.093619 L404.896478,478.00705 C404.917901,478.173112 404.940124,478.349503 404.963056,478.536083 L404.997976,478.823578 C405.166363,480.22611 405.334625,481.8557 405.491589,483.695071 C407.006756,501.450376 406.405079,521.882393 402.184024,542.676744 L401.974,543.696 L402.073894,544.150807 C406.223253,563.27701 404.012772,574.677717 397.64254,580.116354 L397.437825,580.287906 C395.942296,581.517951 394.336919,582.311736 392.728989,582.755153 C391.842269,582.999683 391.124797,583.098059 390.650177,583.114772 L390.51515,583.1174 L251.98865,583.1174 C251.861832,583.1174 251.737085,583.085242 251.626071,583.023934 L251.459904,582.928443 C251.296728,582.831864 251.072657,582.692613 250.794169,582.50944 C250.153047,582.087748 249.441003,581.573189 248.67585,580.962308 C246.497414,579.223094 244.321702,577.057675 242.292241,574.438437 C232.991271,562.43454 229.872009,545.622572 236.542197,523.412495 L236.722,522.819 L237.012543,518.921758 C237.162359,516.853615 237.322991,514.561752 237.49325,512.068009 L237.851202,506.742956 L238.258096,500.520217 C238.408925,498.184613 238.560706,495.803913 238.712038,493.403882 L239.538,480.032 L239.262772,478.669228 C239.185914,478.279069 239.104711,477.85965 239.019889,477.413187 C238.616144,475.288072 238.212455,472.985864 237.835635,470.588514 C237.31032,467.24643 236.880526,463.991639 236.579609,460.925215 C236.170137,456.752569 236.015825,453.096375 236.166089,450.095887 C236.186807,449.682192 236.538968,449.363621 236.952663,449.383383 Z"/><path id="Stroke-81" fill="#96A7CA" fill-rule="nonzero" d="M313.668113,511.125636 C314.082003,511.109268 314.430796,511.431523 314.447164,511.845413 C314.462168,512.224812 314.192635,512.549512 313.828808,512.613601 L313.727387,512.624464 L294.383387,513.389464 C293.969497,513.405832 293.620704,513.083577 293.604336,512.669687 C293.589332,512.290288 293.858865,511.965588 294.222692,511.901499 L294.324113,511.890636 L313.668113,511.125636 Z"/><path id="Stroke-83" fill="#96A7CA" fill-rule="nonzero" d="M295.39045,517.047525 C303.174348,516.518375 311.501212,516.96249 319.643324,518.025466 C321.399148,518.254694 323.025716,518.498301 324.497042,518.743802 L325.771438,518.96375 C325.978393,519.000755 326.174397,519.036498 326.359139,519.07083 L327.163795,519.225795 C327.569561,519.309021 327.831031,519.705428 327.747805,520.111195 C327.664579,520.516961 327.268172,520.778431 326.862405,520.695205 L326.348293,520.594986 L325.1931,520.384656 L324.863321,520.327313 C323.252589,520.04977 321.434842,519.772083 319.449143,519.512844 C311.397235,518.461644 303.164142,518.022531 295.492185,518.544071 C292.559627,518.743427 289.77788,519.082331 287.17029,519.571159 C286.763169,519.647479 286.371261,519.379312 286.294941,518.97219 C286.218621,518.565069 286.486788,518.173161 286.89391,518.096841 C289.562088,517.596655 292.401701,517.2507 295.39045,517.047525 Z"/><path id="Fill-85" fill="#4E5C93" d="M206.498115,649.7783 L206.498115,649.7783 C206.6294,629.1833 222.9674,612.3488 243.5474,611.6033 L345.5549,607.9028 C368.6804,607.0643 387.9254,625.5008 388.082328,648.6398 L388.082328,648.6413 C388.2344,671.6468 369.4484,690.2843 346.4444,689.9483 L244.3814,688.4603 C223.2764,688.1528 206.3654,670.8848 206.498115,649.7783"/><path id="Stroke-87" fill="#96A7CA" fill-rule="nonzero" d="M362.315749,468.008595 C362.695326,467.999341 363.016077,468.273562 363.074877,468.638281 L363.084266,468.739849 L364.351766,519.420349 C364.362122,519.834433 364.034835,520.178509 363.620751,520.189105 C363.241174,520.198359 362.920423,519.924138 362.861623,519.559419 L362.852234,519.457851 L361.584734,468.777351 C361.574378,468.363267 361.901665,468.019191 362.315749,468.008595 Z"/><path id="Stroke-89" fill="#3B4A7A" fill-rule="nonzero" d="M249.456566,588.287904 L391.775066,588.755904 C392.189278,588.757266 392.5226,589.094155 392.5226,589.508366 C392.5226,589.88806 392.238163,590.200926 391.871926,590.249384 L391.770134,590.255896 L249.451634,589.787904 C249.037422,589.786534 248.7041,589.449645 248.7041,589.035434 C248.7041,588.65574 248.988537,588.342874 249.354774,588.294416 L249.456566,588.287904 Z"/><path id="Stroke-91" fill="#3B4A7A" fill-rule="nonzero" d="M352.464644,602.735819 C352.878239,602.7132 353.231861,603.030148 353.254481,603.443744 C353.275215,603.822873 353.010618,604.151608 352.647801,604.221187 L352.546556,604.233581 L244.428056,610.146581 C244.014461,610.1692 243.660839,609.852252 243.638219,609.438656 C243.617485,609.059527 243.882082,608.730792 244.244899,608.661213 L244.346144,608.648819 L352.464644,602.735819 Z"/><path id="Stroke-93" fill="#96A7CA" fill-rule="nonzero" d="M385.93751,419.763604 C386.138429,420.125826 386.007667,420.582341 385.645446,420.78326 L385.207388,421.039792 C385.088946,421.111388 384.952593,421.195121 384.799388,421.290921 C384.112857,421.72021 383.346386,422.232795 382.520026,422.827327 C380.156021,424.528132 377.791212,426.541242 375.585673,428.854868 C369.800167,434.923905 366.142501,441.928392 365.617991,449.80225 C365.59046,450.215548 365.233098,450.528273 364.8198,450.500741 C364.406502,450.47321 364.093777,450.115848 364.121309,449.70255 C364.671898,441.437178 368.491267,434.12303 374.499955,427.819872 C376.773907,425.434481 379.208553,423.36192 381.644002,421.609714 C382.35521,421.098029 383.024683,420.644303 383.64088,420.249153 L384.359486,419.799966 L384.917854,419.47154 C385.280076,419.270621 385.736591,419.401383 385.93751,419.763604 Z"/><path id="Fill-95" fill="#E4EBF7" d="M400.667,582.8972 L400.667,582.8972 C418.427,580.7717 430.9505,562.3142 428.906,541.2827 L420.4685,454.5287 C418.283,432.0632 401.066,415.2287 382.034,416.9537 C362.4875,418.7252 348.761,439.3382 351.827,462.3212 L363.35,548.7257 C366.164,569.8262 382.775,585.0377 400.667,582.8972"/><polygon id="Fill-97" fill="#BAC9E5" points="212.522 610.513 300.188 598.098 213.961 570.459 141.634 587.943"/><polygon id="Fill-99" fill="#4E5C93" points="209.325 604.364 272.995 595.348 211.869 575.179 157.84 587.972"/><polygon id="Fill-101" fill="#253368" points="300.061 602.61 300.205 598.128 210.745 610.081 212.179 614.892"/><path id="Stroke-103" fill="#BAC9E5" fill-rule="nonzero" d="M199.68202,578.97249 C199.747166,578.803387 199.92147,578.708509 200.093498,578.73731 L200.16676,578.75737 L249.84526,597.89587 C250.038521,597.970323 250.134834,598.187348 250.06038,598.38061 C249.995234,598.549713 249.82093,598.644591 249.648902,598.61579 L249.57564,598.59573 L199.89714,579.45723 C199.703879,579.382777 199.607566,579.165752 199.68202,578.97249 Z"/><path id="Stroke-105" fill="#BAC9E5" fill-rule="nonzero" d="M206.351809,576.424324 C206.414113,576.254152 206.586802,576.156367 206.759289,576.182281 L206.832876,576.201109 L262.400376,596.545609 C262.594858,596.616814 262.694795,596.832195 262.623591,597.026676 C262.561287,597.196848 262.388598,597.294633 262.216111,597.268719 L262.142524,597.249891 L206.575024,576.905391 C206.380542,576.834186 206.280605,576.618805 206.351809,576.424324 Z"/><path id="Stroke-107" fill="#BAC9E5" fill-rule="nonzero" d="M198.852621,583.505005 C198.920104,583.33682 199.095705,583.244367 199.267318,583.275548 L199.340295,583.296621 L241.049295,600.032121 C241.241506,600.109244 241.334803,600.327584 241.257679,600.519795 C241.190196,600.68798 241.014595,600.780433 240.842982,600.749252 L240.770005,600.728179 L199.061005,583.992679 C198.868794,583.915556 198.775497,583.697216 198.852621,583.505005 Z"/><path id="Stroke-109" fill="#BAC9E5" fill-rule="nonzero" d="M187.334571,584.464855 C187.402054,584.29667 187.577655,584.204217 187.749268,584.235398 L187.822245,584.256471 L229.531245,600.991971 C229.723456,601.069094 229.816753,601.287434 229.739629,601.479645 C229.672146,601.64783 229.496545,601.740283 229.324932,601.709102 L229.251955,601.688029 L187.542955,584.952529 C187.350744,584.875406 187.257447,584.657066 187.334571,584.464855 Z"/><path id="Stroke-111" fill="#BAC9E5" fill-rule="nonzero" d="M176.685171,586.099255 C176.752654,585.93107 176.928255,585.838617 177.099868,585.869798 L177.172845,585.890871 L218.881845,602.626371 C219.074056,602.703494 219.167353,602.921834 219.090229,603.114045 C219.022746,603.28223 218.847145,603.374683 218.675532,603.343502 L218.602555,603.322429 L176.893555,586.586929 C176.701344,586.509806 176.608047,586.291466 176.685171,586.099255 Z"/><path id="Stroke-113" fill="#BAC9E5" fill-rule="nonzero" d="M262.653408,592.425523 C262.859342,592.403518 263.044123,592.552623 263.066127,592.758558 C263.085381,592.938751 262.973629,593.102747 262.807431,593.155672 L262.733092,593.171277 L208.278592,598.989777 C208.072658,599.011782 207.887877,598.862677 207.865873,598.656742 C207.846619,598.476549 207.958371,598.312553 208.124569,598.259628 L208.198908,598.244023 L262.653408,592.425523 Z"/><path id="Stroke-115" fill="#BAC9E5" fill-rule="nonzero" d="M250.668109,587.978322 C250.874043,587.956319 251.058824,588.105424 251.080828,588.311359 C251.100081,588.491552 250.988329,588.655548 250.82213,588.708473 L250.747791,588.724078 L196.291791,594.542578 C196.085857,594.564581 195.901076,594.415476 195.879072,594.209541 C195.859819,594.029348 195.971571,593.865352 196.13777,593.812427 L196.212109,593.796822 L250.668109,587.978322 Z"/><path id="Stroke-117" fill="#BAC9E5" fill-rule="nonzero" d="M235.770708,584.899273 C235.976642,584.877268 236.161423,585.026373 236.183427,585.232308 C236.202681,585.412501 236.090929,585.576497 235.924731,585.629422 L235.850392,585.645027 L181.395892,591.463527 C181.189958,591.485532 181.005177,591.336427 180.983173,591.130492 C180.963919,590.950299 181.075671,590.786303 181.241869,590.733378 L181.316208,590.717773 L235.770708,584.899273 Z"/><path id="Stroke-119" fill="#BAC9E5" fill-rule="nonzero" d="M225.787759,577.213572 C225.993693,577.191569 226.178474,577.340674 226.200478,577.546609 C226.219731,577.726802 226.107979,577.890798 225.94178,577.943723 L225.867441,577.959328 L171.411441,583.777828 C171.205507,583.799831 171.020726,583.650726 170.998722,583.444791 C170.979469,583.264598 171.091221,583.100602 171.25742,583.047677 L171.331759,583.032072 L225.787759,577.213572 Z"/><polygon id="Fill-121" fill="#253368" points="212.109 614.894 208.175 615.17 141.101 592.891 115.712 478.477 188.091 494.156"/><path id="Fill-123" fill="#4E5C93" d="M208.03415,615.1754 L137.30165,591.7139 C136.65515,591.4994 136.16765,590.9609 136.01915,590.2949 L111.49865,480.3374 C111.18965,478.9559 112.41965,477.7199 113.80265,478.0214 L182.45615,492.9929 C183.20915,493.1579 183.79415,493.7519 183.94415,494.5079 L208.03415,615.1754 Z"/><path id="Fill-125" fill="#B69882" d="M301.0385,573.0776 C293.2085,579.7991 266.81,578.4686 266.81,578.4686 L250.298,588.7451 C247.7195,590.0801 246.905,588.3536 245.5775,588.4826 C242.0015,588.8321 241.634,585.0761 241.634,585.0761 C240.344,584.6111 238.4495,585.7481 237.5825,582.4016 C237.5825,582.4016 235.0625,582.4676 234.5855,579.4451 C234.335,577.8461 248.3765,553.0676 248.3765,553.0676 L272.768,551.3591 C272.768,551.3591 308.3705,548.5571 313.133,556.1396 C317.8955,563.7221 301.0385,573.0776 301.0385,573.0776"/><path id="Stroke-127" fill="#7C5B4D" fill-rule="nonzero" d="M263.537079,563.893089 C263.870196,563.736146 264.267467,563.878963 264.424411,564.212079 C264.567086,564.514912 264.462026,564.870766 264.19147,565.050878 L264.105421,565.099411 L254.587,569.583 L243.793896,583.901745 L243.70398,584.017588 C243.652478,584.088467 243.592457,584.177947 243.529773,584.282255 L243.450454,584.42009 C243.202038,584.871175 243.07752,585.311543 243.124634,585.677797 C243.225496,586.461889 244.154273,587.071765 246.440029,587.301853 C246.806413,587.338733 247.073528,587.665644 247.036647,588.032029 C246.999767,588.398413 246.672856,588.665528 246.306471,588.628647 C243.474455,588.343572 241.998379,587.374315 241.802031,585.847931 C241.712455,585.151571 241.909972,584.453033 242.282368,583.776818 C242.437215,583.49564 242.592779,583.269486 242.701868,583.131437 L242.752322,583.069907 L253.622822,568.648907 C253.666253,568.591291 253.718599,568.541301 253.77768,568.500708 L253.871079,568.447089 L263.537079,563.893089 Z"/><path id="Stroke-129" fill="#7C5B4D" fill-rule="nonzero" d="M257.016919,558.777713 C257.332266,558.587572 257.742045,558.689071 257.932187,559.004419 C258.103314,559.288231 258.038212,559.648534 257.793592,559.856369 L257.705481,559.919687 L250.333,564.364 L240.172888,579.899107 L240.052268,580.066974 L239.993498,580.153476 C239.851629,580.365174 239.70939,580.599518 239.577133,580.848232 C239.288894,581.390272 239.091621,581.918973 239.024141,582.389847 C238.853263,583.582233 239.504673,584.274439 241.677112,584.411269 C242.044619,584.434416 242.323779,584.751104 242.300631,585.118612 C242.277484,585.486119 241.960796,585.765279 241.593288,585.742131 C238.685028,585.558957 237.416096,584.210556 237.704127,582.200679 C237.796679,581.554849 238.045104,580.88906 238.39975,580.22214 C238.632324,579.784778 238.864987,579.426307 239.02349,579.210748 L239.086663,579.127303 L249.300163,563.507803 C249.336733,563.451876 249.381396,563.401926 249.432541,563.359504 L249.513919,563.301713 L257.016919,558.777713 Z"/><path id="Stroke-131" fill="#7C5B4D" fill-rule="nonzero" d="M270.312669,569.342529 C270.666861,569.241803 271.035645,569.447277 271.136371,569.801469 C271.22794,570.123461 271.066451,570.457514 270.770223,570.591267 L270.677431,570.625171 L259.279,573.866 L247.888,587.329 L247.894109,587.424395 C247.898971,587.460146 247.90643,587.49594 247.916779,587.531034 L247.956788,587.633473 C248.153082,588.027388 248.789783,588.260205 250.215468,588.082672 C251.313032,587.946518 253.373042,586.773253 256.015761,584.846052 C256.570132,584.441778 257.144276,584.008832 257.734409,583.551184 C259.046405,582.533732 260.376571,581.442497 261.655546,580.351157 L262.417971,579.695069 L263.32347,578.898852 C263.410503,578.820665 263.516578,578.766756 263.631041,578.74254 L264.00611,578.667142 C264.308453,578.608078 264.660671,578.54237 265.059472,578.471686 C266.196787,578.270106 267.480839,578.068667 268.885346,577.880721 C270.939446,577.605849 273.066599,577.384612 275.231694,577.234972 L276.679911,577.145835 L279.202549,577.015451 C289.686544,576.444437 295.01824,575.396336 301.721121,571.635956 C302.112479,571.4164 302.501021,571.189024 302.886796,570.953666 C303.201147,570.761883 303.61145,570.861244 303.803234,571.175596 C303.995017,571.489947 303.895656,571.90025 303.581304,572.092034 C303.181635,572.335868 302.77907,572.571451 302.373567,572.798941 L301.595076,573.227068 C295.024207,576.766299 289.556997,577.786398 279.289619,578.34619 L276.393859,578.497499 C273.889588,578.641622 271.426818,578.886017 269.062213,579.20244 C267.874916,579.361319 266.775538,579.529876 265.78078,579.699727 L265.007691,579.835732 L264.078,580.012 L263.292391,580.701852 C263.131111,580.841864 262.962816,580.987152 262.788052,581.137134 L262.521122,581.365553 C261.227408,582.46947 259.881654,583.573492 258.551602,584.604947 C257.951492,585.070332 257.366941,585.511126 256.80148,585.923488 C253.965174,587.991863 251.789208,589.231169 250.379941,589.40599 C248.449152,589.646422 247.251803,589.208596 246.763267,588.228226 C246.561593,587.823516 246.522274,587.411473 246.572075,587.039422 L246.587305,586.945225 C246.590013,586.931455 246.592879,586.918068 246.596012,586.904189 C246.612073,586.835906 246.638756,586.770803 246.674898,586.711188 L246.73606,586.62617 L258.39256,572.85017 C258.456712,572.774353 258.536707,572.714151 258.62643,572.673507 L258.719169,572.639529 L270.312669,569.342529 Z"/><path id="Stroke-133" fill="#7C5B4D" fill-rule="nonzero" d="M293.711221,549.317336 C294.078609,549.292357 294.396685,549.569934 294.421664,549.937321 C294.444372,550.27131 294.217034,550.564546 293.899489,550.633868 L293.801679,550.647764 L248.793,553.708 L235.201843,579.699455 L235.166371,579.794845 L235.094985,580.030418 C235.009759,580.347242 234.967398,580.66444 234.988232,580.941251 C235.049467,581.754858 235.62922,582.1057 237.454654,581.74776 C237.816008,581.676904 238.166384,581.912399 238.23724,582.273754 C238.308096,582.635108 238.072601,582.985484 237.711246,583.05634 C235.15956,583.556687 233.785211,582.724989 233.658493,581.041333 C233.624796,580.593622 233.68614,580.134288 233.807262,579.684019 C233.851312,579.520267 233.896045,579.383333 233.944825,579.257649 L233.995078,579.135139 L247.784578,552.759139 C247.876719,552.582897 248.041713,552.458574 248.23275,552.416738 L248.330221,552.402836 L293.711221,549.317336 Z"/><path id="Fill-135" fill="#E4EBF7" d="M292.22015,544.2059 L294.07115,572.9294 C294.55415,580.4174 300.84665,586.1969 308.34815,586.0424 L397.88315,584.1914 C415.68965,583.0439 429.19415,567.6779 428.04665,549.8714 C426.89915,532.0649 411.53315,518.5604 393.72665,519.7079 L304.69415,529.3694 C297.23615,530.1794 291.73715,536.7194 292.22015,544.2059"/><path id="Stroke-137" fill="#96A7CA" fill-rule="nonzero" d="M352.56605,462.423429 C352.941985,462.370119 353.292286,462.605422 353.392854,462.960899 L353.413921,463.0607 L362.106421,524.3597 C362.164577,524.76981 361.879261,525.149415 361.46915,525.207571 C361.093215,525.260881 360.742914,525.025578 360.642346,524.670101 L360.621279,524.5703 L351.928779,463.2713 C351.870623,462.86119 352.155939,462.481585 352.56605,462.423429 Z"/><path id="Stroke-139" fill="#96A7CA" fill-rule="nonzero" d="M394.490836,519.807077 C394.902632,519.76239 395.272685,520.05999 395.317373,520.471786 C395.358336,520.849266 395.111683,521.19167 394.753102,521.280536 L394.652664,521.298323 L305.621566,530.959833 C298.666945,531.713612 293.512231,537.731252 293.795561,544.685726 L293.812198,545.002469 L295.663185,573.725774 C296.114941,580.707711 301.901296,586.119942 308.861509,586.14015 L309.178676,586.137342 L391.758176,584.532342 C392.172311,584.524293 392.514559,584.853491 392.522608,585.267626 C392.529987,585.64725 392.253984,585.966469 391.888942,586.023235 L391.787324,586.032058 L309.208694,587.637041 C301.412895,587.797602 294.856149,581.87478 294.190336,574.141256 L294.166302,573.822431 L292.315296,545.098828 C291.814963,537.317948 297.444084,530.509235 305.138069,529.506966 L305.459836,529.468577 L394.490836,519.807077 Z"/></g></svg>