<?xml version="1.0" encoding="UTF-8"?>
<svg width="512px" height="1024px" viewBox="0 0 512 1024" version="1.1" xmlns="http://www.w3.org/2000/svg" xmlns:xlink="http://www.w3.org/1999/xlink">
    <!-- Generator: Sketch 61.2 (89653) - https://sketch.com -->
    <title>2.人物组件/1.商人/坐姿/打招呼</title>
    <desc>Created with Sketch.</desc>
    <g id="2.人物组件/1.商人/坐姿/打招呼" stroke="none" stroke-width="1" fill="none" fill-rule="evenodd">
        <path d="M190.742,803.7113 L196.3895,833.9153 C196.3895,833.9153 183.359,838.6658 170.579,838.5563 C148.7105,838.3673 154.988,843.2678 129.485,848.1098 C107.021,852.3743 91.127,842.7698 100.5935,836.9588 C113.648,828.9443 123.1115,821.7083 129.4265,816.3428 C135.524,811.1633 139.754,804.1598 141.6455,796.3853 C144.599,784.2368 150.5765,765.4808 159.836,762.2948 C181.6535,754.7843 190.742,803.7113 190.742,803.7113" id="Fill-1" fill="#E4EBF7"></path>
        <path d="M103.62335,837.22145 C103.62335,837.22145 103.90835,840.51095 117.42185,844.45895 C133.16135,849.05795 155.33135,838.44545 168.41285,833.50145 C188.56085,825.88595 190.78685,829.75295 194.35535,826.47695 C198.39785,831.65345 195.27935,837.42695 195.27935,837.42695 C195.27935,837.42695 191.08535,840.21395 175.36535,841.58045 C159.64685,842.94845 160.24235,847.16195 140.82485,851.36495 C113.46785,857.28545 98.93585,850.83545 97.36085,845.25545 C95.37935,838.23695 100.21085,834.84845 103.62335,837.22145" id="Fill-3" fill="#B0BEDC"></path>
        <path d="M104.59895,696.4301 L104.59895,696.4301 C94.32995,678.2231 100.13795,655.1636 117.80495,643.9916 L187.82345,599.7116 C208.62545,586.5566 236.19995,593.4971 248.29745,614.9291 C260.31995,636.2336 252.18845,663.2636 230.40395,674.3951 L156.63095,712.0946 C137.89145,721.6706 114.93695,714.7601 104.59895,696.4301" id="Fill-5" fill="#4E5C93"></path>
        <path d="M410.1302,696.4301 L410.1302,696.4301 C420.3992,678.2231 414.5927,655.1636 396.9242,643.9916 L326.9057,599.7116 C306.1037,586.5566 278.5292,593.4971 266.4332,614.9291 C254.4092,636.2336 262.5407,663.2636 284.3252,674.3951 L358.0982,712.0946 C376.8377,721.6706 399.7922,714.7601 410.1302,696.4301" id="Fill-7" fill="#4E5C93"></path>
        <path d="M129.6521,641.0609 C151.3976,636.4229 172.5731,650.9939 176.0036,672.9614 C182.5931,715.1549 191.9576,775.2269 191.9576,775.2269 L191.9576,775.2284 C198.9251,781.2929 197.4071,794.5904 184.2626,799.7564 C160.3016,809.1734 139.8776,807.5504 130.3736,803.1479 C120.8711,798.7454 125.4881,784.6079 125.4881,784.6019 L125.4881,784.6004 C125.4881,784.6004 110.9021,728.7794 100.2971,688.8929 C94.6046,667.4879 107.9921,645.6809 129.6521,641.0609" id="Fill-9" fill="#4E5C93"></path>
        <path d="M320.33375,803.7113 L314.68625,833.9153 C314.68625,833.9153 327.71675,838.6658 340.49825,838.5563 C362.36525,838.3673 356.08775,843.2678 381.59075,848.1098 C404.05475,852.3743 419.95025,842.7698 410.48225,836.9588 C397.42775,828.9443 387.96575,821.7083 381.64925,816.3428 C375.55325,811.1633 371.32175,804.1598 369.43025,796.3853 C366.47675,784.2368 360.49925,765.4808 351.24125,762.2948 C329.42225,754.7843 320.33375,803.7113 320.33375,803.7113" id="Fill-11" fill="#E4EBF7"></path>
        <path d="M407.4524,837.22145 C407.4524,837.22145 407.1674,840.51095 393.6554,844.45895 C377.9144,849.05795 355.7444,838.44545 342.6644,833.50145 C322.5149,825.88595 320.2889,829.75295 316.7204,826.47695 C312.6779,831.65345 315.7964,837.42695 315.7964,837.42695 C315.7964,837.42695 319.9904,840.21395 335.7119,841.58045 C351.4289,842.94845 350.8334,847.16195 370.2509,851.36495 C397.6079,857.28545 412.1399,850.83545 413.7149,845.25545 C415.6964,838.23695 410.8649,834.84845 407.4524,837.22145" id="Fill-13" fill="#B0BEDC"></path>
        <path d="M384.42365,639.5609 C362.67965,634.9229 341.50265,649.4939 338.07215,671.4614 C331.48265,713.6549 322.11815,773.7269 322.11815,773.7269 L322.11815,773.7284 C315.15215,779.7929 316.67015,793.0904 329.81315,798.2564 C353.77565,807.6734 374.19815,806.0504 383.70215,801.6479 C393.20465,797.2454 388.58765,783.1079 388.58765,783.1019 L388.58765,783.1004 C388.58765,783.1004 403.17365,727.2794 413.77865,687.3929 C419.47115,665.9879 406.08365,644.1809 384.42365,639.5609" id="Fill-15" fill="#4E5C93"></path>
        <path d="M179.429,572.40365 C179.429,572.40365 179.381,576.95165 177.6605,584.01965 C174.3605,597.57965 164.432,622.57265 169.598,640.35665 C174.8315,658.36715 217.6445,673.76765 261.8945,673.76765 C283.5275,673.76765 338.6555,665.88215 348.656,637.62965 C354.983,619.75415 342.629,596.23415 338.855,583.10315 C336.7925,575.92865 333.8675,571.55915 333.8675,571.55915 C333.8675,571.55915 192.098,572.40365 179.429,572.40365" id="Fill-17" fill="#4E5C93"></path>
        <path d="M258.357344,573.809297 C258.736969,573.802072 259.056181,574.078083 259.112938,574.443126 L259.121759,574.544744 L260.894759,665.884244 C260.902798,666.29838 260.573591,666.64062 260.159456,666.648803 C259.779831,666.656028 259.460619,666.380017 259.403862,666.014974 L259.395041,665.913356 L257.622041,574.573856 C257.614002,574.15972 257.943209,573.81748 258.357344,573.809297 Z" id="Stroke-19" fill="#3B4A7A" fill-rule="nonzero"></path>
        <path d="M330.21215,571.65365 C330.626364,571.65365 330.96215,571.989436 330.96215,572.40365 C330.96215,572.783346 330.679996,573.097141 330.313921,573.146803 L330.21215,573.15365 L184.54865,573.15365 C184.134436,573.15365 183.79865,572.817864 183.79865,572.40365 C183.79865,572.023954 184.080804,571.710159 184.446879,571.660497 L184.54865,571.65365 L330.21215,571.65365 Z" id="Stroke-21" fill="#3B4A7A" fill-rule="nonzero"></path>
        <path d="M327.449845,586.048694 C327.858677,585.982141 328.244052,586.259613 328.310606,586.668445 C328.377159,587.077277 328.099687,587.462652 327.690855,587.529206 C287.252448,594.112122 244.494303,594.630496 205.111529,591.566239 L203.176939,591.412187 C199.68077,591.127324 196.464292,590.829724 193.552218,590.530126 L191.022586,590.261104 C190.239264,590.174893 189.521987,590.092995 188.872668,590.016241 L187.276231,589.820004 C186.865577,589.765814 186.576606,589.388984 186.630796,588.978331 C186.684986,588.567677 187.061816,588.278706 187.472469,588.332896 L188.670002,588.481502 L190.727462,588.719219 C191.179177,588.769624 191.654795,588.821646 192.153903,588.875106 L193.706298,589.03806 C196.87173,589.36372 200.399231,589.687112 204.256673,589.994306 L205.227888,590.070759 C244.501387,593.126514 287.147257,592.609501 327.449845,586.048694 Z" id="Stroke-23" fill="#3B4A7A" fill-rule="nonzero"></path>
        <path d="M332.631207,613.351695 C332.962581,613.10317 333.432681,613.170333 333.681205,613.501707 C333.92973,613.833081 333.862567,614.303181 333.531193,614.551705 C327.490411,619.08218 321.149679,625.170903 314.678497,632.431854 C309.473412,638.272187 304.480283,644.532356 299.877762,650.792715 L298.931091,652.088174 C297.85003,653.576615 296.851557,654.983099 295.943288,656.289659 L294.939827,657.746206 L294.007474,659.131092 C293.779992,659.477249 293.314966,659.573455 292.968808,659.345974 C292.622651,659.118492 292.526445,658.653466 292.753926,658.307308 L293.159922,657.698904 C293.436295,657.288103 293.75276,656.822788 294.107719,656.30674 L294.325301,655.991053 C295.593928,654.154061 297.049256,652.107698 298.669222,649.904215 C303.297756,643.608473 308.319412,637.31254 313.558686,631.433844 C320.090967,624.104338 326.500198,617.949838 332.631207,613.351695 Z" id="Stroke-25" fill="#3B4A7A" fill-rule="nonzero"></path>
        <path d="M190.210545,612.656907 C190.459069,612.325533 190.929169,612.25837 191.260543,612.506895 C197.391552,617.105038 203.800783,623.259538 210.333064,630.589044 C215.572338,636.46774 220.593994,642.763673 225.222528,649.059415 L226.174575,650.362233 C227.106512,651.64536 227.97759,652.868161 228.783045,654.019351 L229.566449,655.146253 C229.936742,655.682443 230.26886,656.168657 230.561206,656.601112 L231.137824,657.462508 C231.365305,657.808666 231.269099,658.273692 230.922942,658.501174 C230.576784,658.728655 230.111758,658.632449 229.884276,658.286292 L229.487268,657.691403 C229.213685,657.284749 228.900063,656.823616 228.548008,656.311791 L228.332175,655.998643 C227.071689,654.173438 225.62489,652.139068 224.013988,649.947915 C219.411467,643.687556 214.418338,637.427387 209.213253,631.587054 C202.742071,624.326103 196.401339,618.23738 190.360557,613.706905 C190.029183,613.458381 189.96202,612.988281 190.210545,612.656907 Z" id="Stroke-27" fill="#3B4A7A" fill-rule="nonzero"></path>
        <path d="M129.12485,552.2144 L129.12485,552.2144 C145.89185,558.2789 164.40185,549.6164 170.48435,532.8584 L199.56185,452.7734 C205.65635,435.9869 196.97585,417.4394 180.18335,411.3644 C163.41785,405.2999 144.90785,413.9624 138.82385,430.7204 L109.74635,510.8069 C103.65335,527.5919 112.33235,546.1394 129.12485,552.2144" id="Fill-29" fill="#E4EBF7"></path>
        <path d="M403.09445,536.24615 L403.09445,536.24615 C417.05495,525.15515 419.38895,504.85265 408.31445,490.88015 L355.38845,424.11215 C344.29595,410.11715 323.95145,407.77715 309.96995,418.88615 C296.01095,429.97715 293.67545,450.27965 304.74995,464.25215 L357.67595,531.02015 C368.76995,545.01515 389.11295,547.35515 403.09445,536.24615" id="Fill-31" fill="#E4EBF7"></path>
        <path d="M282.18335,354.0764 L284.64935,392.6099 C285.76385,410.0159 272.02835,424.7864 254.58785,424.9364 C237.21935,425.0879 223.26035,410.6759 223.96235,393.3224 L225.53885,354.3644 L282.18335,354.0764 Z" id="Fill-33" fill="#B69882"></path>
        <path d="M207.76205,357.98825 C209.29055,364.07675 214.00805,368.14025 218.29955,367.06325 C222.59405,365.98625 224.83355,360.17675 223.30505,354.08825 C221.77805,347.99975 217.06055,343.93625 212.76755,345.01325 C208.47605,346.09025 206.23355,351.89975 207.76205,357.98825" id="Fill-35" fill="#AA8972"></path>
        <path d="M297.3884,358.53065 C295.4354,364.49765 290.4434,368.21765 286.2374,366.84215 C282.0329,365.46515 280.2059,359.51315 282.1589,353.54615 C284.1104,347.57915 289.1039,343.85915 293.3099,345.23465 C297.5159,346.61165 299.3414,352.56365 297.3884,358.53065" id="Fill-37" fill="#AA8972"></path>
        <path d="M289.29815,353.31905 C289.29815,381.10055 281.97815,389.26655 254.52215,389.96855 C231.01865,390.56855 217.21865,383.63555 217.21865,353.31905 C217.21865,329.01305 233.35415,313.24505 253.25915,313.24505 C273.16265,313.24505 289.29815,331.54655 289.29815,353.31905" id="Fill-39" fill="#B69882"></path>
        <path d="M285.3563,343.65365 C288.5648,346.27865 285.9203,357.16865 288.4538,358.29515 C290.1428,358.01315 290.1428,347.87765 291.2693,335.20715 C292.0133,326.83415 289.5008,319.88915 286.7633,316.90565 C283.6673,313.52765 280.7573,314.00915 273.5303,307.89515 C262.5503,298.60415 240.0248,300.57515 232.7048,311.83715 C220.5983,310.43015 208.2083,320.28365 213.8408,343.09115 C216.4313,353.58065 216.5783,358.63865 217.7828,358.29515 C219.7538,357.73115 216.6563,347.03165 220.8803,343.65365 C226.1648,339.42515 223.2038,330.48215 226.5113,326.47865 C226.5113,326.47865 251.5703,311.55665 279.1628,326.47865 C281.9783,330.70115 279.1628,338.58515 285.3563,343.65365" id="Fill-41" fill="#51342D"></path>
        <path d="M234.985247,337.21286 C238.044616,335.799495 241.718615,335.232461 245.920251,335.983238 C246.735761,336.128959 247.278733,336.908191 247.133012,337.723701 C246.987291,338.539211 246.208059,339.082183 245.392549,338.936462 C241.823549,338.298728 238.766899,338.770483 236.243411,339.936282 C235.646701,340.21195 235.132351,340.504861 234.703678,340.793806 L234.49218,340.940747 C234.43195,340.984026 234.382032,341.021334 234.342551,341.051863 L234.25555,341.122308 C233.632044,341.667772 232.684406,341.604507 232.138942,340.981 C231.593478,340.357494 231.656743,339.409856 232.28025,338.864392 C232.7878,338.42037 233.69476,337.809038 234.985247,337.21286 Z" id="Stroke-43" fill="#51342D" fill-rule="nonzero"></path>
        <path d="M261.166324,335.981735 C264.650035,335.375837 267.939101,335.815638 270.877629,336.917163 C272.095208,337.373579 272.987769,337.838596 273.501792,338.171237 C274.197292,338.621317 274.396243,339.549993 273.946163,340.245492 C273.522558,340.90008 272.675007,341.114819 271.996918,340.762582 L271.696513,340.585461 C271.641698,340.554369 271.57647,340.518333 271.501122,340.477991 L271.380545,340.414326 C270.934046,340.181704 270.412727,339.946741 269.824614,339.726283 C267.354166,338.800221 264.592296,338.430915 261.680376,338.937365 C260.864201,339.079317 260.087487,338.532751 259.945535,337.716576 C259.803583,336.900401 260.350149,336.123687 261.166324,335.981735 Z" id="Stroke-45" fill="#51342D" fill-rule="nonzero"></path>
        <path d="M247.671269,339.483612 C247.924712,339.365546 248.221107,339.45251 248.373485,339.676372 L248.418688,339.755969 L250.812688,344.894969 C250.881978,345.043709 250.882866,345.215289 250.81512,345.364738 L250.686805,345.658222 C250.616658,345.822815 250.529942,346.031696 250.430345,346.279864 C250.138875,347.006126 249.847236,347.799462 249.57518,348.632801 C249.118645,350.031217 248.764988,351.39678 248.554211,352.672054 C247.778182,357.367289 248.972806,359.819204 252.921321,359.424292 C253.230439,359.393376 253.506091,359.618903 253.537008,359.928021 C253.567924,360.237139 253.342397,360.512791 253.033279,360.543708 C248.138106,361.033299 246.565483,357.805556 247.444269,352.488603 C247.665303,351.151277 248.032773,349.732375 248.505728,348.283662 C248.785948,347.425318 249.086034,346.609001 249.386288,345.860853 L249.586245,345.373249 L249.685,345.14 L247.398912,340.231031 C247.280846,339.977588 247.36781,339.681193 247.591672,339.528815 L247.671269,339.483612 Z" id="Stroke-47" fill="#7C5B4D" fill-rule="nonzero"></path>
        <path d="M242.0174,347.10695 C242.0174,349.13495 240.7469,350.77745 239.1809,350.77745 C237.6134,350.77745 236.3444,349.13495 236.3444,347.10695 C236.3444,345.08045 237.6134,343.43645 239.1809,343.43645 C240.7469,343.43645 242.0174,345.08045 242.0174,347.10695" id="Fill-49" fill="#51342D"></path>
        <path d="M269.61065,347.10695 C269.61065,349.13495 268.34015,350.77745 266.77265,350.77745 C265.20665,350.77745 263.93765,349.13495 263.93765,347.10695 C263.93765,345.08045 265.20665,343.43645 266.77265,343.43645 C268.34015,343.43645 269.61065,345.08045 269.61065,347.10695" id="Fill-51" fill="#51342D"></path>
        <path d="M265.9295,366.7418 C265.9295,366.7418 265.616,359.8163 252.4145,359.9843 C245.4575,360.0728 240.3065,362.5178 239.744,367.3043 C239.0255,373.4063 252.977,366.1793 252.977,366.1793 C252.977,366.1793 267.899,372.9353 265.9295,366.7418" id="Fill-53" fill="#51342D"></path>
        <path d="M249.874881,370.683894 L249.966181,370.690483 L250.299038,370.736251 C250.482672,370.759373 250.711814,370.785474 250.978111,370.811647 C252.043739,370.916386 253.13041,370.962309 254.137922,370.916585 C254.815786,370.885822 255.426544,370.813979 255.952349,370.697307 C256.255632,370.63001 256.556047,370.821315 256.623343,371.124599 C256.69064,371.427882 256.499335,371.728297 256.196051,371.795593 C255.600656,371.927708 254.927227,372.006922 254.188925,372.040428 C253.120631,372.088911 251.982947,372.040831 250.868067,371.931253 L250.332579,371.873281 L249.795219,371.802417 C249.488167,371.755207 249.277523,371.468021 249.324733,371.160969 C249.367222,370.884622 249.604091,370.686366 249.874881,370.683894 Z" id="Stroke-55" fill="#7C5B4D" fill-rule="nonzero"></path>
        <path d="M233.923586,386.424651 C234.093579,386.164627 234.442176,386.091643 234.702199,386.261636 L234.839707,386.347353 C235.005709,386.447182 235.256854,386.588121 235.590052,386.759093 C236.339388,387.143594 237.220176,387.529187 238.225112,387.889724 C242.364712,389.374875 247.196892,389.983244 252.590311,389.220393 L253.170319,389.133389 L253.343213,389.132881 C259.479795,390.068844 264.519718,389.525222 268.482567,388.055395 C269.379966,387.722548 270.14515,387.367148 270.778645,387.013428 L271.066198,386.847855 C271.279152,386.72107 271.425442,386.623445 271.505213,386.563841 C271.754077,386.377894 272.106562,386.428899 272.292509,386.677763 C272.478456,386.926627 272.427451,387.279112 272.178587,387.465059 L272.016847,387.578752 C271.85491,387.687334 271.625062,387.829311 271.327099,387.995682 C270.643962,388.377121 269.826334,388.756879 268.873788,389.11018 C264.867401,390.596155 259.837579,391.172682 253.782512,390.333659 L253.258,390.257 L252.746119,390.334555 C247.362395,391.095816 242.507818,390.535959 238.309035,389.110555 L237.845209,388.948638 C236.793251,388.571231 235.867991,388.166169 235.076456,387.760014 C234.867209,387.652645 234.678269,387.550726 234.510007,387.455655 L234.188229,387.26713 C234.144517,387.240383 234.110605,387.218957 234.086601,387.203264 C233.826577,387.033271 233.753593,386.684674 233.923586,386.424651 Z" id="Stroke-57" fill="#7C5B4D" fill-rule="nonzero"></path>
        <path d="M253.239329,382.792263 C253.518768,382.782933 253.757395,382.97907 253.809884,383.244735 L253.820287,383.335679 L254.031787,389.670179 C254.042153,389.980667 253.798858,390.24077 253.488371,390.251137 C253.208932,390.260467 252.970305,390.06433 252.917816,389.798665 L252.907413,389.707721 L252.695913,383.373221 C252.685547,383.062733 252.928842,382.80263 253.239329,382.792263 Z" id="Stroke-59" fill="#7C5B4D" fill-rule="nonzero"></path>
        <path d="M210.422202,351.259693 C211.17866,349.815664 211.958469,349.009748 212.936577,349.304399 C214.055784,349.641555 214.760365,351.549243 215.243153,355.410003 C215.257656,355.525981 215.235671,355.643597 215.180252,355.746505 C214.230579,357.509977 214.330436,358.646572 215.006049,359.382035 C215.162924,359.552807 215.316784,359.665448 215.421131,359.723766 L215.477425,359.752268 C215.761316,359.878424 215.889187,360.210833 215.763032,360.494725 C215.636876,360.778616 215.304467,360.906487 215.020575,360.780332 C214.791194,360.678399 214.482205,360.47474 214.177558,360.143105 C213.203351,359.082596 213.032265,357.506673 214.065197,355.452263 L214.104,355.377 L214.083922,355.216885 C213.677863,352.165825 213.122899,350.631152 212.661182,350.401234 L212.61208,350.381583 C212.407917,350.32008 211.920616,350.823695 211.418745,351.781734 C211.232727,352.136831 211.059477,352.520339 210.904514,352.904211 L210.767842,353.2557 C210.744471,353.318588 210.725916,353.370462 210.712473,353.409586 C210.611524,353.703386 210.291515,353.859723 209.997714,353.758773 C209.703914,353.657824 209.547577,353.337815 209.648527,353.044014 L209.711525,352.868625 C209.750591,352.763346 209.800812,352.632946 209.861308,352.483085 C210.029183,352.067229 210.21721,351.651009 210.422202,351.259693 Z" id="Stroke-61" fill="#7C5B4D" fill-rule="nonzero"></path>
        <path d="M292.455659,349.304081 C293.433498,349.010507 294.213212,349.816225 294.969662,351.259603 C295.174745,351.65092 295.362859,352.067142 295.530812,352.483001 L295.680667,352.868544 C295.706724,352.938731 295.727821,352.997754 295.743696,353.043935 C295.84469,353.337721 295.688401,353.657753 295.394615,353.758746 C295.100829,353.85974 294.780797,353.703451 294.679804,353.409665 L294.62441,353.255781 C294.589337,353.16145 294.543425,353.042335 294.487674,352.904295 C294.332641,352.520426 294.159313,352.136919 293.973213,351.781824 C293.471197,350.823929 292.983687,350.32016 292.77915,350.381568 C292.324275,350.518134 291.767397,351.952114 291.350912,354.895655 L291.285,355.376 L291.325576,355.452128 C292.319662,357.427706 292.200034,358.960854 291.323232,360.018686 L291.214405,360.143342 C290.909863,360.474848 290.600983,360.678432 290.371675,360.780332 C290.087783,360.906487 289.755374,360.778616 289.629218,360.494725 C289.515679,360.239222 289.6079,359.944421 289.834436,359.796048 L289.914825,359.752268 C290.013976,359.708208 290.197782,359.587061 290.385928,359.382256 C291.061484,358.646883 291.161075,357.510314 290.210583,355.746663 C290.155103,355.643718 290.133086,355.526042 290.147597,355.410003 L290.240794,354.708721 C290.720264,351.315866 291.405549,349.619352 292.455659,349.304081 Z" id="Stroke-63" fill="#7C5B4D" fill-rule="nonzero"></path>
        <path d="M106.1048,644.3462 C106.1048,644.3462 120.4928,620.7707 133.4003,622.1132 C145.0913,623.3312 145.5593,638.4587 145.5593,638.4587 C145.5593,638.4587 144.5768,650.3267 140.0468,662.8157 C137.0768,670.9997 133.7528,687.3977 129.1553,687.0032 C123.1598,686.4902 129.2963,670.2782 126.0983,667.2887 C119.6168,661.2332 107.2778,685.7252 103.1453,688.6217 C95.0708,694.2842 88.6313,672.4952 106.1048,644.3462" id="Fill-65" fill="#B69882"></path>
        <path d="M112.77382,663.204273 C113.060333,662.92734 113.517095,662.935107 113.794027,663.22162 C114.07096,663.508133 114.063193,663.964895 113.77668,664.241827 L113.377197,664.642927 L113.134578,664.894112 C112.615893,665.435356 112.037051,666.066775 111.413114,666.781847 C109.628453,668.827184 107.843187,671.129582 106.177704,673.636251 C103.496448,677.67173 101.391216,681.840187 100.079993,686.041981 C99.9612899,686.422363 99.5567012,686.634496 99.176319,686.515793 C98.7959367,686.39709 98.5838039,685.992501 98.702507,685.612119 C100.058315,681.267454 102.223872,676.97955 104.975811,672.837688 C106.678418,670.275145 108.501821,667.923563 110.325828,665.833134 C110.858409,665.222761 111.359655,664.671082 111.82088,664.181772 L112.346535,663.632984 C112.539025,663.435466 112.683277,663.291788 112.77382,663.204273 Z" id="Stroke-67" fill="#7C5B4D" fill-rule="nonzero"></path>
        <path d="M108.581848,656.725129 C108.83939,656.421068 109.294659,656.383356 109.598721,656.640898 C109.902782,656.89844 109.940494,657.353709 109.682952,657.657771 C105.157024,663.001214 101.740253,668.361134 99.2785775,673.47561 C98.4189005,675.26171 97.740269,676.888089 97.2234569,678.321874 L97.0232518,678.891845 C96.9924916,678.981915 96.9630224,679.069501 96.9348248,679.15457 L96.7109179,679.864581 C96.6820932,679.961882 96.6622861,680.032385 96.6509768,680.075202 C96.5492171,680.460463 96.1544088,680.690286 95.7691478,680.588527 C95.3838867,680.486767 95.1540635,680.091959 95.2558232,679.706698 L95.3607901,679.343186 L95.4023424,679.2076 C95.5247102,678.812504 95.6784349,678.352785 95.8659525,677.832557 C96.3991989,676.353178 97.0968292,674.681268 97.9783475,672.84979 C100.491516,667.628328 103.974089,662.165186 108.581848,656.725129 Z" id="Stroke-69" fill="#7C5B4D" fill-rule="nonzero"></path>
        <path d="M107.742001,649.627275 C108.028209,649.904523 108.035473,650.361293 107.758225,650.647501 L107.627671,650.787877 L107.558154,650.864709 C107.38564,651.056542 107.18325,651.290349 106.952965,651.566926 C106.290295,652.36281 105.539833,653.339317 104.717429,654.502825 C102.359138,657.839249 99.9033911,662.000128 97.4770021,667.036645 C97.3040571,667.395631 96.8728416,667.546447 96.5138554,667.373502 C96.1548692,667.200557 96.0040529,666.769342 96.1769979,666.410355 C98.6383589,661.301247 101.134862,657.071313 103.539071,653.669925 C104.289712,652.607946 104.984381,651.694565 105.611889,650.925323 L105.844035,650.643605 C106.025573,650.425573 106.191551,650.231752 106.341127,650.061808 L106.721775,649.643499 C106.999023,649.357291 107.455793,649.350027 107.742001,649.627275 Z" id="Stroke-71" fill="#7C5B4D" fill-rule="nonzero"></path>
        <path d="M120.3914,639.71795 L145.2554,640.85045 C152.9399,641.19995 159.5774,635.52245 160.4219,627.87545 L171.8669,524.24945 C172.7534,506.42795 159.0254,491.26295 141.2039,490.37495 C123.3809,489.48845 108.2159,503.21645 107.3294,521.03795 L106.463397,625.02095 C106.3994,632.86745 112.5509,639.36095 120.3914,639.71795" id="Fill-73" fill="#E4EBF7"></path>
        <path d="M343.2176,414.60665 C324.6341,406.16015 304.3631,397.71365 289.1861,393.33665 C283.6676,391.74365 266.4311,408.73115 255.3716,408.41315 C239.0276,407.94065 227.9816,391.07015 221.9921,392.77265 C202.9601,398.18465 178.1456,403.49765 160.7666,411.22865 C160.7666,411.22865 165.9341,428.79815 174.4076,464.47865 C174.4076,464.47865 171.2291,487.71065 172.7591,501.95765 C172.7591,501.95765 155.1356,544.12415 173.1551,570.59165 C178.1666,577.95065 182.3981,579.64715 194.5541,580.16465 C220.4816,581.26715 286.2986,581.48315 307.7411,580.72715 C351.6641,579.17915 358.4216,550.59965 337.3046,499.91915 C337.3046,499.91915 340.6841,474.76415 338.9951,461.06465 C343.4981,426.15065 343.2176,414.60665 343.2176,414.60665" id="Fill-75" fill="#E4EBF7"></path>
        <path d="M223.76255,401.3315 C223.76255,401.3315 243.96755,461.0645 254.52605,485.9825 C279.44405,429.8105 286.78205,393.1415 287.61905,393.0245 L250.03055,410.3405 L223.76255,401.3315 Z" id="Fill-77" fill="#FFFFFF"></path>
        <polygon id="Fill-79" fill="#253368" points="241.70105 416.84645 254.79455 407.13245 267.32255 416.14295 262.01105 432.48695 246.51155 432.58295"></polygon>
        <polygon id="Fill-81" fill="#253368" points="240.9041 452.23085 246.5786 431.25485 261.9731 431.25485 268.8851 450.64685 255.9341 489.50135"></polygon>
        <polygon id="Fill-83" fill="#FFFFFF" points="255.49685 406.85105 277.74035 424.59005 288.62135 393.41705 284.49335 388.07855"></polygon>
        <path d="M289.463526,393.280109 L284.664747,387.074131 L254.214579,406.787744 L278.099819,425.836018 L289.463526,393.280109 Z M284.322,389.082 L287.779,393.553 L277.38,423.344 L256.779,406.914 L284.322,389.082 Z" id="Stroke-85" fill="#E4EBF7" fill-rule="nonzero"></path>
        <polygon id="Fill-87" fill="#FFFFFF" points="254.2298 406.4288 231.3233 425.4338 220.4438 394.2623 224.5718 388.9238"></polygon>
        <path d="M255.52948,406.325013 L224.383221,387.9416 L219.601633,394.125348 L230.971061,426.700572 L255.52948,406.325013 Z M224.76,389.906 L252.929,406.532 L231.675,424.166 L221.285,394.4 L224.76,389.906 Z" id="Stroke-89" fill="#E4EBF7" fill-rule="nonzero"></path>
        <path d="M288.327568,393.194195 C288.450813,392.798742 288.871301,392.578073 289.266755,392.701318 C289.662208,392.824563 289.882877,393.245051 289.759632,393.640505 L289.237375,395.308003 C286.669176,403.468843 283.466135,413.091714 279.739235,423.901129 L278.565916,427.293564 C278.030019,428.838313 277.485385,430.401967 276.932437,431.983478 L276.376733,433.570903 C272.778172,443.83797 268.965567,454.479205 265.117303,465.051358 L262.118722,473.256267 C261.099524,476.034005 260.130393,478.663866 259.22157,481.120405 L256.636424,488.075486 C256.406629,488.688824 255.556207,488.733592 255.263285,488.147771 C251.134859,479.891237 247.01504,470.547135 242.933035,460.314085 C237.186022,445.907081 231.795391,430.474545 226.915221,415.042473 L226.241989,412.90298 C225.026059,409.019397 223.911396,405.35239 222.905632,401.952593 L221.787961,398.129959 L220.746928,394.460651 C220.637133,394.061254 220.871902,393.648472 221.271299,393.538678 C221.670696,393.428883 222.083478,393.663652 222.193272,394.063049 L222.841785,396.364762 C223.127547,397.365869 223.449837,398.481369 223.807511,399.703704 L224.620475,402.459093 C225.643767,405.899623 226.775155,409.602601 228.006976,413.517331 L228.345412,414.590196 C233.215331,429.989852 238.594313,445.389042 244.326275,459.758316 C248.03998,469.068085 251.78357,477.635978 255.533389,485.309091 L255.837,485.927 L258.429182,478.937612 C259.36384,476.406548 260.356523,473.707845 261.396987,470.866954 C266.021227,458.240897 270.645441,445.387959 274.961164,433.074752 L276.066246,429.914048 L277.148771,426.801934 C281.639137,413.858246 285.425286,402.50669 288.327568,393.194195 Z" id="Stroke-91" fill="#96A7CA" fill-rule="nonzero"></path>
        <path d="M237.861445,517.926561 C250.810044,516.024121 265.682153,516.052673 281.272199,519.303542 C281.67769,519.388096 281.937862,519.785357 281.853308,520.190849 C281.768754,520.59634 281.371493,520.856512 280.966001,520.771958 C265.564201,517.560342 250.865191,517.532122 238.079488,519.410629 L236.887853,519.592891 C235.727578,519.777546 234.661985,519.968744 233.696499,520.160747 L232.667485,520.373769 L231.952043,520.533986 C231.739276,520.583553 231.597023,520.618512 231.527573,520.636441 C231.126509,520.73998 230.717447,520.498787 230.613909,520.097723 C230.51037,519.696659 230.751563,519.287597 231.152627,519.184059 L231.485542,519.102718 L232.34954,518.907853 C232.529147,518.869051 232.719111,518.82894 232.919286,518.787677 C234.344832,518.49382 235.998285,518.200301 237.861445,517.926561 Z" id="Stroke-93" fill="#96A7CA" fill-rule="nonzero"></path>
        <path d="M238.510107,508.46179 L241.186354,508.574256 L243.935677,508.682308 C245.187138,508.729937 246.473781,508.776779 247.778795,508.821784 L251.226321,508.934484 L254.531375,509.029214 C261.94146,509.224694 267.224204,509.24252 269.372534,509.027286 C269.784685,508.985994 270.152272,509.286634 270.193564,509.698784 C270.234856,510.110935 269.934216,510.478522 269.522066,510.519814 L269.021647,510.562338 C266.549812,510.740849 261.469319,510.712761 254.491818,510.528693 L252.301853,510.467531 C251.559848,510.445718 250.806424,510.422517 250.043368,510.39804 L245.782747,510.252043 L238.443493,509.96031 C238.029688,509.941915 237.709145,509.591548 237.72754,509.177743 C237.745935,508.763938 238.096302,508.443395 238.510107,508.46179 Z" id="Stroke-95" fill="#96A7CA" fill-rule="nonzero"></path>
        <path d="M255.353896,484.809946 C255.733494,484.801558 256.053588,485.076547 256.111513,485.441406 L256.120658,485.542996 L258.231158,578.880496 C258.240522,579.294603 257.912412,579.637895 257.498304,579.647454 C257.118706,579.655842 256.798612,579.380853 256.740687,579.015994 L256.731542,578.914404 L254.621042,485.576904 C254.611678,485.162797 254.939788,484.819505 255.353896,484.809946 Z" id="Stroke-97" fill="#96A7CA" fill-rule="nonzero"></path>
        <path d="M339.955051,442.585424 C340.330102,442.644632 340.596061,442.972266 340.588032,443.341607 L340.578926,443.443201 L338.068,459.344 L338.129158,459.609974 C338.189222,459.879084 338.254623,460.187865 338.324281,460.535625 L338.377307,460.803742 C338.632504,462.110349 338.887334,463.643264 339.124937,465.391682 C340.505499,475.550633 340.714822,487.756 339.020332,501.537964 L338.92,502.325 L339.237252,502.976169 C345.532573,516.023285 348.981006,527.715095 350.051707,538.075752 L350.118169,538.74956 C350.880702,546.869335 350.135446,553.59419 348.420708,558.947934 C347.982056,560.317492 347.510566,561.489919 347.037035,562.466789 L346.871364,562.800857 C346.661553,563.213981 346.499212,563.49481 346.421901,563.6062 C340.606506,575.235268 334.476577,578.300343 308.37974,580.910027 L307.030516,581.035482 C297.086503,581.895859 278.952909,582.157608 254.816913,581.943613 L250.495757,581.900936 C240.275311,581.79001 229.458904,581.603232 218.394697,581.359578 L213.638737,581.251728 C207.92579,581.118494 202.446391,580.977647 197.312331,580.835276 L185.699144,580.490601 L185.680676,580.491008 C185.418225,580.495723 185.03052,580.475403 184.535585,580.409748 C183.775019,580.308856 182.944034,580.12189 182.061115,579.828419 C179.610508,579.01387 177.177205,577.529724 174.91604,575.219366 C171.865114,572.102065 169.353492,567.701634 167.548781,561.833149 L167.364615,561.22082 C167.341389,561.138244 167.299274,560.981588 167.240978,560.753792 L167.056642,560.006778 C167.013356,559.825399 166.968609,559.633862 166.922574,559.432356 C166.594661,557.997019 166.267096,556.347833 165.961569,554.508284 C163.489326,539.623134 163.930867,523.511624 169.314418,508.350215 C170.0114,506.387342 170.787608,504.462043 171.645381,502.576878 L172,501.812 L171.948343,500.863871 C171.400613,490.283811 171.710807,480.662072 172.578493,472.298024 L172.673579,471.406703 C172.866903,469.643405 173.072623,468.066265 173.279878,466.686119 L173.453041,465.580518 L173.644,464.475 L173.364041,463.029404 L173.018789,461.326145 C172.855355,460.536188 172.678738,459.703989 172.489483,458.836328 C171.543416,454.498992 170.477331,450.162123 169.315071,446.117575 L169.056105,445.226972 C168.939174,444.829606 169.166511,444.412686 169.563878,444.295755 C169.961244,444.178824 170.378164,444.406161 170.495095,444.803528 L170.756727,445.703294 C171.928976,449.782603 173.002532,454.149866 173.955025,458.516662 L174.231118,459.798872 C174.408741,460.634757 174.573397,461.431672 174.724553,462.182865 L175.145283,464.343885 C175.162325,464.436756 175.161677,464.53201 175.143373,464.62464 L175.061137,465.071422 C174.994465,465.447497 174.920025,465.893963 174.839745,466.408888 L174.68658,467.429141 C174.508244,468.662363 174.331846,470.045137 174.164644,471.57018 C173.201434,480.355564 172.859936,490.59375 173.507875,501.915398 C173.515038,502.040557 173.490713,502.165515 173.437124,502.278848 C172.426334,504.416538 171.524473,506.608932 170.727951,508.852135 C165.442017,523.738633 165.007146,539.606711 167.441299,554.262518 C167.741782,556.0717 168.063513,557.691515 168.384898,559.098278 L168.577376,559.914309 L168.806126,560.806131 C170.553248,566.746532 173.011051,571.128413 175.988052,574.17018 C178.078152,576.305752 180.305162,577.664073 182.534244,578.40499 C183.802357,578.826494 184.830869,578.981022 185.504604,578.991366 L185.947214,578.998874 L191.481827,579.168047 L198.644057,579.371396 C203.400362,579.501577 208.438959,579.630054 213.67371,579.752135 L220.793352,579.911246 C230.24065,580.112951 239.48743,580.271889 248.314216,580.376115 L254.82396,580.443609 C280.042316,580.667186 298.702483,580.37043 308.230472,579.417472 L309.744873,579.263261 C334.093943,576.737055 339.649687,573.795135 345.122893,562.861048 L345.206469,562.725704 C345.31928,562.535322 345.484302,562.231183 345.687258,561.812494 C346.130297,560.898528 346.575378,559.791769 346.992191,558.490398 C348.645505,553.328431 349.368234,546.80685 348.62474,538.889809 C347.632668,528.325819 344.096572,516.301003 337.475554,502.783152 C337.410901,502.651153 337.386459,502.503067 337.405264,502.357293 C339.219001,488.297607 339.035775,475.874874 337.638599,465.593669 C337.430903,464.065325 337.210222,462.70684 336.988356,461.525825 L336.905124,461.091278 C336.835465,460.734628 336.769897,460.416705 336.709496,460.138201 L336.576986,459.556621 C336.560703,459.491481 336.553279,459.4246 336.554792,459.357774 L336.563774,459.257799 L339.097274,443.209299 C339.156482,442.834248 339.484116,442.568289 339.853457,442.575809 L339.955051,442.585424 Z" id="Stroke-99" fill="#96A7CA" fill-rule="nonzero"></path>
        <path d="M367.59545,401.60135 C367.59545,401.60135 359.05895,392.89085 362.32295,373.48535 C364.77845,358.89335 355.36445,349.59185 359.55095,347.12585 C363.73745,344.66135 371.44595,354.00335 374.21045,364.18385 C381.82145,354.45485 380.21495,339.25085 386.73995,333.10085 C393.67595,326.56535 413.26745,337.55885 398.63795,383.03735 C385.32245,420.11135 367.59545,401.60135 367.59545,401.60135" id="Fill-101" fill="#B69882"></path>
        <path d="M372.165029,359.441968 C372.440693,359.298721 372.780286,359.406066 372.923532,359.681729 C373.69894,361.173923 374.265698,362.466096 374.656366,363.555173 L374.799181,363.967082 C374.883915,364.220979 374.948172,364.433411 374.994813,364.604099 L375.022,364.709 L375.099903,364.773597 C375.531726,365.144215 376.072644,365.731269 376.619352,366.546122 L376.783434,366.797423 C378.707513,369.825262 379.322396,373.833868 377.86816,378.850706 C377.781669,379.149083 377.469672,379.320851 377.171294,379.23436 C376.872917,379.147869 376.701149,378.835872 376.78764,378.537494 C378.150773,373.834945 377.586999,370.15953 375.833928,367.400799 C375.464573,366.81956 375.070034,366.330133 374.677536,365.930411 C374.44745,365.69609 374.274035,365.546993 374.185073,365.481092 C374.073281,365.398279 373.996144,365.276975 373.968564,365.140612 C373.930299,364.951423 373.817539,364.548619 373.597434,363.935027 C373.22404,362.894104 372.67761,361.648277 371.925268,360.200471 C371.782021,359.924807 371.889366,359.585214 372.165029,359.441968 Z" id="Stroke-103" fill="#7C5B4D" fill-rule="nonzero"></path>
        <path d="M400.754268,340.75213 C401.061404,340.705472 401.348211,340.916631 401.39487,341.223768 C401.441528,341.530904 401.230369,341.817711 400.923232,341.86437 C399.623854,342.061763 398.912732,342.932695 398.629849,344.350155 C398.475554,345.123292 398.470302,345.962299 398.555417,346.742877 L398.598585,347.073289 L398.60658,347.120094 L398.606758,347.321427 L398.257111,349.1719 C398.164046,349.652044 398.064108,350.159411 397.95785,350.689473 C397.451766,353.214044 396.906297,355.738829 396.341766,358.096742 L396.066691,359.225668 C395.47306,361.618076 394.895325,363.657405 394.343662,365.252109 C394.058718,366.075801 393.782472,366.775293 393.514603,367.343489 C393.388811,367.610487 393.246972,367.881007 393.08866,368.157193 C392.663932,368.898158 392.13365,369.662222 391.419212,370.589069 L390.243308,372.07218 L389.453178,373.057974 C385.729565,377.749977 384.337795,380.977627 385.077963,385.379475 C385.129477,385.685835 384.922884,385.975949 384.616525,386.027463 C384.310165,386.078977 384.020051,385.872384 383.968537,385.566025 C383.182863,380.893547 384.592818,377.457199 388.276424,372.734218 L390.528197,369.902251 C391.214093,369.012433 391.717417,368.287213 392.112636,367.597728 C392.256429,367.34687 392.384351,367.102893 392.496956,366.863886 C392.7457,366.336257 393.007732,365.672757 393.28048,364.884318 C393.902768,363.08546 394.565189,360.685428 395.247687,357.834797 C395.728472,355.82667 396.195833,353.694458 396.636656,351.544385 L396.95844,349.948463 L397.482,347.216 L397.450796,346.984433 L397.437046,346.864826 C397.340535,345.979738 397.346464,345.032624 397.526605,344.12998 C397.893636,342.290877 398.922868,341.030345 400.754268,340.75213 Z" id="Stroke-105" fill="#7C5B4D" fill-rule="nonzero"></path>
        <path d="M397.490258,335.449913 L397.504698,335.451261 C397.81375,335.482822 398.038701,335.758945 398.007139,336.067998 C397.978734,336.346145 397.752234,336.55617 397.481919,336.572385 L397.390402,336.570439 C396.804299,336.539235 396.007925,336.764836 395.211586,337.50256 C393.609469,338.986752 392.661437,342.025602 392.783889,347.083882 C392.822094,348.679125 392.554508,350.537936 392.028352,352.611577 C391.600138,354.299216 391.011873,356.08531 390.303784,357.920115 C389.763967,359.318891 389.185889,360.665795 388.607686,361.912289 L388.315258,362.533778 L388.047916,363.085411 C387.945989,363.292466 387.872738,363.437624 387.832932,363.514772 C387.690486,363.79085 387.351205,363.899179 387.075128,363.756732 C386.79905,363.614286 386.690721,363.275005 386.833168,362.998928 L387.038583,362.588548 C387.20392,362.252681 387.388366,361.867404 387.587136,361.438894 C388.155477,360.21366 388.723941,358.889157 389.25423,357.51507 C389.947201,355.71944 390.521776,353.974911 390.937907,352.334893 C391.440931,350.352416 391.694637,348.590022 391.659215,347.110963 C391.529655,341.759059 392.573577,338.412841 394.447044,336.677272 C395.041726,336.126362 395.685158,335.775524 396.339126,335.590263 C396.703502,335.487041 397.027773,335.445554 397.293933,335.443587 L397.490258,335.449913 Z" id="Stroke-107" fill="#7C5B4D" fill-rule="nonzero"></path>
        <path d="M391.40584,332.024244 C391.703111,331.934023 392.017235,332.101869 392.107456,332.39914 C392.197677,332.696411 392.029831,333.010535 391.73256,333.100756 L391.590933,333.151595 C391.474797,333.197887 391.316977,333.269585 391.127986,333.370347 C390.6449,333.627905 390.159903,333.975589 389.706718,334.425358 C388.238805,335.882209 387.43366,338.037066 387.646611,341.073017 L387.67572,341.42724 C387.904335,343.853872 387.129741,348.067569 385.721537,353.122227 L385.583293,353.613981 C385.035236,355.546364 384.43094,357.462231 383.91504,358.939165 L383.676334,359.60725 C383.577394,359.87704 383.488772,360.108585 383.413598,360.293628 L383.359788,360.423562 C383.296951,360.572038 383.24628,360.680723 383.198383,360.7626 L383.127273,360.868138 C383.109968,360.888805 383.086975,360.910792 383.029492,360.965761 L382.931277,361.035645 C382.802111,361.117057 382.725121,361.092854 382.301676,360.959738 L382.159431,360.753957 C382.119418,360.691662 382.105867,360.659419 382.100852,360.621888 L382.095398,360.476731 C382.095597,360.459177 382.096759,360.445043 382.099083,360.416774 C382.11051,360.293037 382.161195,360.182376 382.237702,360.095957 L382.303,360.033 L382.428634,359.726593 C382.524767,359.481726 382.641794,359.165622 382.772768,358.796135 L382.852969,358.568179 C383.315181,357.244945 383.851055,355.55893 384.351891,353.827495 L384.500982,353.307019 C385.912458,348.330328 386.722397,344.121145 386.573121,341.755762 L386.555669,341.532646 C386.221316,337.975886 387.14964,335.378159 388.914238,333.62686 C389.834094,332.713936 390.760134,332.220215 391.40584,332.024244 Z" id="Stroke-109" fill="#7C5B4D" fill-rule="nonzero"></path>
        <path d="M378.405891,359.708248 C378.504669,359.413709 378.823514,359.255014 379.118052,359.353791 L379.665247,359.549249 L379.824696,359.608716 C380.379608,359.817084 380.997195,360.064239 381.661914,360.349409 C383.561303,361.164263 385.461007,362.121571 387.237342,363.216323 C389.369518,364.53038 391.179107,365.955907 392.564589,367.493569 C392.772541,367.724363 392.754024,368.080037 392.523231,368.287989 C392.292437,368.495941 391.936763,368.477424 391.728811,368.246631 C390.423155,366.797562 388.694893,365.436101 386.647098,364.174048 C384.922113,363.110942 383.070401,362.177819 381.218373,361.383283 C380.699753,361.160791 380.21099,360.962202 379.760133,360.787992 L378.915091,360.47389 C378.851753,360.451538 378.799978,360.433699 378.760348,360.420409 C378.465809,360.321631 378.307114,360.002786 378.405891,359.708248 Z" id="Stroke-111" fill="#7C5B4D" fill-rule="nonzero"></path>
        <path d="M391.3391,391.6928 L366.4901,393.1283 C358.8086,393.5708 352.7936,399.9023 352.7411,407.5943 L352.0301,511.8488 C352.9841,529.6673 368.2001,543.3383 386.0186,542.3843 C403.8371,541.4318 417.5081,526.2143 416.5556,508.3958 L406.7051,404.8778 C405.9611,397.0658 399.1736,391.2398 391.3391,391.6928" id="Fill-113" fill="#E4EBF7"></path>
        <path d="M352.750859,406.844749 C353.130519,406.850066 353.440387,407.136527 353.484988,407.503254 L353.490428,407.605109 L352.413428,485.570609 C352.407707,485.984783 352.067315,486.3159 351.653141,486.310251 C351.273481,486.304934 350.963613,486.018473 350.919012,485.651746 L350.913572,485.549891 L351.990572,407.584391 C351.996293,407.170217 352.336685,406.8391 352.750859,406.844749 Z" id="Stroke-115" fill="#96A7CA" fill-rule="nonzero"></path>
    </g>
</svg>