<svg xmlns="http://www.w3.org/2000/svg" xmlns:xlink="http://www.w3.org/1999/xlink" width="512" height="1024" version="1.1" viewBox="0 0 512 1024"><title>2.人物组件/1.商人/坐姿/讨论</title><desc>Created with Sketch.</desc><defs><polygon id="path-1" points=".702 .758 100.815 .758 100.815 21 .702 21"/></defs><g id="2.人物组件/1.商人/坐姿/讨论" fill="none" fill-rule="evenodd" stroke="none" stroke-width="1"><path id="Fill-1" fill="#B69882" d="M166.6026,447.8297 C166.6026,447.8297 167.8221,440.0762 165.9351,430.1342 C164.0481,420.1922 157.7526,407.9672 158.6076,396.2657 C159.4641,384.5627 148.6746,393.5792 152.5836,416.0852 C137.9166,411.0917 122.7606,402.7127 118.9671,390.9152 C117.5811,386.6057 113.4966,386.9612 113.0811,390.9752 C112.6656,394.9892 113.9736,398.8847 113.9736,398.8847 C113.9736,398.8847 110.8101,401.9207 112.4271,406.6142 C108.0276,413.1542 114.0441,418.0067 114.0441,418.0067 C114.0441,418.0067 109.9656,420.1592 117.0186,430.9682 C124.3266,442.1702 145.4661,450.8597 145.4661,450.8597 L156.9636,490.2617 L178.7181,478.7807 L166.6026,447.8297 Z"/><path id="Stroke-3" fill="#7C5B4D" fill-rule="nonzero" d="M152.082467,415.831201 C152.223078,415.554184 152.561633,415.443606 152.838649,415.584217 C153.115666,415.724828 153.226244,416.063383 153.085633,416.340399 L152.966818,416.584329 C152.886769,416.753599 152.784383,416.978069 152.664971,417.252443 C152.344854,417.987979 152.024399,418.808282 151.725311,419.691476 C150.878166,422.193056 150.368737,424.689978 150.363552,427.004377 C150.35754,429.688109 151.035798,431.942567 152.514772,433.655149 C152.71782,433.890269 152.69182,434.245474 152.456701,434.448522 C152.221581,434.65157 151.866376,434.62557 151.663328,434.390451 C149.988532,432.451116 149.23198,429.936419 149.238555,427.001856 C149.24405,424.548987 149.776704,421.938231 150.659752,419.330631 C150.969453,418.416097 151.301272,417.566703 151.63343,416.803501 L151.801893,416.424174 L152.060939,415.874183 C152.069275,415.857367 152.076465,415.843026 152.082467,415.831201 Z"/><path id="Stroke-5" fill="#7C5B4D" fill-rule="nonzero" d="M117.198409,413.447109 C118.562349,412.271825 119.749862,411.855874 120.658728,412.647156 C121.580135,413.450011 121.712453,415.093222 121.348958,417.389407 C121.23043,418.138143 121.060381,418.930317 120.852181,419.74251 C120.741788,420.173154 120.62554,420.590623 120.507789,420.986917 L120.302018,421.654258 L120.253,421.803 L120.368826,422.019779 C120.552318,422.360267 120.769816,422.740553 121.020133,423.150597 C121.735872,424.323049 122.569127,425.495591 123.509372,426.587753 C125.98838,429.467296 128.741644,431.262726 131.686659,431.477743 L132.551313,431.547864 C142.190794,432.407639 151.230322,435.828061 152.618439,440.732563 C152.703042,441.031482 152.529305,441.342387 152.230387,441.426989 C151.931468,441.511592 151.620563,441.337855 151.535961,441.038937 C150.291634,436.642474 141.096108,433.292728 131.604741,432.599757 C128.306723,432.358966 125.312255,430.406245 122.656795,427.321739 C121.673515,426.17959 120.805567,424.958228 120.059915,423.736775 C119.864037,423.415909 119.687112,423.111967 119.52956,422.829131 L119.378481,422.553486 C119.261704,422.336795 119.181743,422.180096 119.139633,422.093316 C119.074505,421.959099 119.065362,421.804506 119.114215,421.663548 L119.315202,421.042565 C119.467633,420.551142 119.620158,420.018107 119.762416,419.463155 C119.962433,418.682887 120.125275,417.924286 120.237795,417.213505 C120.541327,415.296103 120.432289,413.942005 119.919843,413.495493 C119.597945,413.21524 118.912141,413.455457 117.932777,414.299358 C117.473059,414.69549 116.981576,415.198075 116.472668,415.781672 C115.988682,416.336688 115.515993,416.933227 115.074849,417.529934 L114.865822,417.815814 C114.706697,418.03601 114.586179,418.209129 114.511374,418.320291 C114.337933,418.578028 113.988395,418.646364 113.730659,418.472924 C113.472922,418.299483 113.404586,417.949945 113.578026,417.692209 L113.738243,417.460307 L114.015241,417.072566 C114.065128,417.003919 114.116818,416.933384 114.170223,416.861147 C114.628112,416.241789 115.119016,415.622264 115.624768,415.042286 C116.166164,414.421434 116.693529,413.882156 117.198409,413.447109 Z"/><path id="Stroke-7" fill="#7C5B4D" fill-rule="nonzero" d="M115.936845,402.046766 C117.70641,400.679192 119.236725,400.435918 120.099023,401.960031 C120.740932,403.093627 120.712391,404.612684 120.181616,406.423369 C119.903016,407.373784 119.49275,408.376701 118.985537,409.402869 C118.728381,409.923134 118.457726,410.426441 118.183628,410.903489 L117.908755,411.37144 C117.687767,411.739524 117.514826,412.009915 117.413807,412.160118 C117.240434,412.417901 116.890914,412.486329 116.633132,412.312957 C116.375349,412.139584 116.306921,411.790064 116.480293,411.532282 L116.776073,411.06879 C116.827847,410.984869 116.884088,410.892549 116.944234,410.792368 C117.296366,410.205845 117.648661,409.568671 117.977009,408.904375 C118.457391,407.93249 118.843784,406.987931 119.102043,406.106909 C119.555455,404.56014 119.578676,403.324243 119.119974,402.514187 C118.718284,401.804198 117.92787,401.92985 116.624781,402.936917 C116.110412,403.334437 115.560143,403.845696 114.990593,404.44318 C114.46876,404.990608 113.960127,405.578901 113.486155,406.167326 L113.16425,406.573705 C113.041141,406.732024 112.945612,406.858738 112.881525,406.946334 C112.698092,407.197058 112.346139,407.251607 112.095416,407.068175 C111.844692,406.884742 111.790143,406.532789 111.973575,406.282066 L112.145747,406.052987 L112.443405,405.670277 C112.497031,405.602524 112.552603,405.532908 112.61003,405.461615 C113.102321,404.850445 113.630848,404.239143 114.17629,403.666949 C114.78209,403.031435 115.372329,402.483041 115.936845,402.046766 Z"/><path id="Stroke-9" fill="#7C5B4D" fill-rule="nonzero" d="M120.882451,417.377542 C121.134988,417.196614 121.48638,417.254664 121.667308,417.507201 C124.270655,421.140915 126.769347,423.358831 130.853509,425.641802 C131.124679,425.793382 131.221627,426.136088 131.070048,426.407259 C130.918468,426.678429 130.575762,426.775377 130.304591,426.623798 C126.077164,424.260743 123.453282,421.931706 120.752792,418.162399 C120.571864,417.909862 120.629914,417.55847 120.882451,417.377542 Z"/><path id="Stroke-11" fill="#7C5B4D" fill-rule="nonzero" d="M118.959553,410.474305 C119.179829,410.255243 119.535983,410.256227 119.755045,410.476503 L119.923875,410.642279 L120.200322,410.905961 C120.568005,411.252638 120.994032,411.639489 121.472998,412.056441 C122.842621,413.248735 124.359705,414.441297 125.980459,415.553528 C128.178673,417.062037 130.393819,418.301428 132.572812,419.178866 C132.860986,419.294907 133.000526,419.622589 132.884484,419.910762 C132.768443,420.198936 132.440761,420.338476 132.152588,420.222434 C129.890288,419.311451 127.605285,418.032975 125.343906,416.48112 C123.685099,415.342775 122.134676,414.124005 120.734332,412.904968 C120.341913,412.563357 119.983737,412.241062 119.662506,411.943215 L119.138881,411.448138 C119.060127,411.371938 118.999398,411.312073 118.957355,411.269797 C118.738293,411.049521 118.739277,410.693367 118.959553,410.474305 Z"/><path id="Stroke-13" fill="#7C5B4D" fill-rule="nonzero" d="M120.001065,403.458496 C120.223335,403.241456 120.579465,403.245696 120.796504,403.467965 L121.129958,403.799974 L121.336456,404.000898 C121.779385,404.429318 122.290316,404.907186 122.862079,405.422104 C124.496447,406.893983 126.288696,408.366011 128.180877,409.738901 C130.252012,411.241632 132.318025,412.532664 134.339929,413.547746 C134.617564,413.687131 134.729639,414.025193 134.590254,414.302829 C134.450869,414.580464 134.112807,414.692539 133.835171,414.553154 C131.754241,413.508439 129.637627,412.185786 127.520205,410.649471 C125.593552,409.25157 123.771295,407.754894 122.109226,406.258069 C121.643634,405.838766 121.217298,405.44325 120.833826,405.077841 L120.04004,404.303213 C120.022076,404.285043 120.005921,404.268605 119.991596,404.253935 C119.774556,404.031665 119.778796,403.675535 120.001065,403.458496 Z"/><path id="Stroke-15" fill="#7C5B4D" fill-rule="nonzero" d="M136.541386,411.155377 C136.824831,411.282533 136.951529,411.615391 136.824373,411.898836 L136.608124,412.393159 C136.4348,412.794933 136.241524,413.253532 136.033294,413.760911 C135.438121,415.211124 134.84289,416.760295 134.287602,418.34378 C133.748808,419.880233 133.276337,421.368916 132.888803,422.779282 C131.73574,426.975662 131.424234,430.158503 132.159953,431.809661 C132.286392,432.093427 132.158854,432.425963 131.875089,432.552403 C131.591323,432.678842 131.258787,432.551304 131.132347,432.267539 C130.253215,430.294521 130.583006,426.924844 131.80401,422.481207 C132.198924,421.043985 132.679096,419.531033 133.225985,417.971498 C133.788229,416.368176 134.390351,414.80107 134.992533,413.333779 L135.354799,412.463683 L135.797927,411.438364 C135.925083,411.154919 136.257941,411.028221 136.541386,411.155377 Z"/><path id="Stroke-17" fill="#7C5B4D" fill-rule="nonzero" d="M116.162243,395.01301 C117.128772,394.042765 117.978862,393.61676 118.743949,394.071743 C119.819022,394.710883 120.286571,395.907004 120.308441,397.449707 C120.319484,398.22867 120.216088,399.052238 120.037451,399.871508 C119.978334,400.142628 119.914945,400.394041 119.851356,400.619964 L119.763267,400.914218 C119.666083,401.209286 119.348099,401.369702 119.053032,401.272517 C118.757964,401.175333 118.597548,400.857349 118.694733,400.562282 L118.752634,400.37372 C118.806347,400.188421 118.872148,399.935116 118.938276,399.631839 C119.100051,398.889905 119.193224,398.147766 119.183554,397.465653 C119.166654,396.27353 118.83989,395.437577 118.168989,395.038721 C118.030776,394.956528 117.582844,395.181 116.959263,395.806978 C116.633544,396.133949 116.284783,396.543389 115.923197,397.01568 C115.5625,397.486809 115.209134,397.993594 114.878717,398.500589 L114.556779,399.006693 C114.51623,399.072359 114.482604,399.127823 114.456451,399.171794 C114.297644,399.438797 113.952458,399.526507 113.685456,399.367701 C113.418453,399.208894 113.330743,398.863708 113.489549,398.596706 L113.747452,398.179649 C113.804081,398.090454 113.867177,397.992262 113.936208,397.88634 C114.281085,397.357158 114.650215,396.827765 115.02993,396.331795 C115.418958,395.823661 115.798099,395.378555 116.162243,395.01301 Z"/><path id="Fill-19" fill="#E4EBF7" d="M199.1946,570.0278 L199.1946,570.0278 C215.9466,574.0778 232.9896,564.5228 238.2711,548.1173 L263.0331,471.2168 C269.0916,452.4008 258.1656,432.3443 239.0691,427.2338 C220.7511,422.3303 201.9021,433.1018 196.8276,451.3733 L175.2081,529.2143 C170.2266,547.1528 181.0986,565.6523 199.1946,570.0278"/><path id="Fill-21" fill="#E4EBF7" d="M163.8267,442.2377 L138.7557,456.3767 C132.2202,460.0622 129.7452,468.2402 133.1412,474.9317 L173.6817,554.7842 C182.4462,570.3272 202.1517,575.8217 217.6947,567.0557 C233.2362,558.2912 238.7322,538.5857 229.9662,523.0427 L182.6082,447.0347 C178.6407,440.6672 170.3622,438.5522 163.8267,442.2377"/><path id="Fill-23" fill="#E4EBF7" d="M196.35435,782.5649 L198.86085,813.1904 C198.86085,813.1904 185.41185,816.5729 172.70835,815.1479 C150.97785,812.7074 156.71685,818.2289 130.85085,820.4189 C108.06735,822.3479 93.24585,811.1579 103.26135,806.3519 C132.09435,792.5174 145.00335,780.4379 145.00335,780.4379 C145.00335,780.4379 150.79635,746.6759 165.10335,743.3504 C187.58085,738.1274 196.35435,782.5649 196.35435,782.5649"/><path id="Fill-25" fill="#B0BEDC" d="M106.2474,806.92595 C106.2474,806.92595 106.1919,810.22745 119.2269,815.54645 C134.4099,821.73995 157.5549,813.46745 171.0759,809.89595 C191.9019,804.39695 193.7169,808.47245 197.6049,805.58195 C201.0909,811.14695 197.3949,816.56945 197.3949,816.56945 C197.3949,816.56945 192.9369,818.90795 177.1584,818.64995 C161.3829,818.39195 161.5434,822.64445 141.7944,824.82545 C113.9739,827.89745 100.1844,819.98495 99.1914,814.27145 C97.9434,807.08645 103.0974,804.21395 106.2474,806.92595"/><path id="Fill-27" fill="#4E5C93" d="M118.0005,662.8658 L118.0005,662.8658 C116.4795,642.0188 131.5695,623.6408 152.313,621.0713 L234.5325,610.8908 C258.957,607.8653 280.9365,625.9043 282.735,650.4503 C284.523,674.8478 265.6365,695.8253 241.185,696.6023 L158.379,699.2303 C137.346,699.8978 119.532,683.8538 118.0005,662.8658"/><path id="Fill-29" fill="#4E5C93" d="M149.53125,622.4618 C171.54075,619.3103 191.67975,635.2853 193.61025,657.4343 C197.31975,699.9788 202.58475,760.5473 202.58475,760.5473 C202.58475,760.5473 202.58475,760.5488 202.58625,760.5488 C209.12475,767.0723 207.35175,785.1278 193.24275,784.4978 C160.88025,783.0503 148.43175,789.2618 139.24875,784.2233 C130.06725,779.1848 135.63075,765.3938 135.63225,765.3878 C135.63225,765.3878 124.86975,708.7043 116.99625,668.1908 C112.77075,646.4498 127.60725,625.6013 149.53125,622.4618"/><path id="Fill-31" fill="#E4EBF7" d="M286.2378,811.9526 L288.0138,842.6306 C288.0138,842.6306 274.4868,845.6906 261.8223,843.9611 C240.1548,841.0031 245.7603,846.6596 219.8493,848.2316 C197.0253,849.6146 182.4768,838.0751 192.6048,833.5091 C221.7603,820.3661 234.9543,808.6001 234.9543,808.6001 C234.9543,808.6001 246.3528,774.3266 260.7348,771.3431 C283.3308,766.6586 286.2378,811.9526 286.2378,811.9526"/><g id="分组" transform="translate(187.500000, 832.326500)"><mask id="mask-2" fill="#fff"><use xlink:href="#path-1"/></mask><path id="Fill-33" fill="#B0BEDC" d="M8.0757,1.82715 C8.0757,1.82715 7.9422,5.12715 20.8452,10.75515 C35.8767,17.31015 59.2107,9.59265 72.8142,6.34665 C93.7647,1.34565 95.4837,5.46465 99.4377,2.66715 C102.7917,8.31315 98.9667,13.64565 98.9667,13.64565 C98.9667,13.64565 94.4532,15.87765 78.6852,15.24165 C62.9217,14.60715 62.9802,18.86265 43.1847,20.57115 C15.2997,22.97715 1.7007,14.73765 0.8457,9.00315 C-0.2313,1.78965 4.9902,-0.95835 8.0757,1.82715" mask="url(#mask-2)"/></g><path id="Fill-35" fill="#4E5C93" d="M262.7418,631.173113 C284.9628,631.31795 302.5383,650.02595 301.2828,672.21095 C298.7178,717.58295 294.9123,784.59095 294.9123,784.59095 C294.9123,784.59095 294.8448,777.59495 294.9123,784.59245 C295.0038,793.82795 295.9938,809.56445 282.1263,806.89295 C255.7188,801.80645 240.5118,809.73395 232.1748,803.39045 C223.8408,797.04845 227.9793,779.46545 227.9823,779.45945 C227.9823,779.45945 225.5433,715.68545 223.6713,671.66945 C222.7278,649.48445 240.5373,631.02995 262.7418,631.173113"/><path id="Fill-37" fill="#4E5C93" d="M232.8546,575.36195 C232.8546,575.36195 220.1436,601.63895 221.9331,639.62795 C222.8151,658.36145 255.4431,689.80895 284.1576,690.30845 C299.5701,690.57845 355.4826,702.22745 375.6636,678.48395 C404.3841,644.69645 371.4411,572.05295 371.4411,572.05295 C371.4411,572.05295 245.5221,575.58245 232.8546,575.36195"/><path id="Stroke-39" fill="#3B4A7A" fill-rule="nonzero" d="M257.073794,657.347989 C257.452989,657.328495 257.780857,657.594166 257.849248,657.957209 L257.861311,658.058494 C257.870145,658.230341 257.970659,658.63779 258.259629,659.252791 C258.771365,660.341894 259.668826,661.575715 261.052698,662.922133 C265.096897,666.85688 272.27638,670.825763 283.366682,674.546551 C287.169096,675.822258 291.380089,677.047849 296.018088,678.216741 C296.419742,678.317968 296.663286,678.725634 296.562059,679.127288 C296.460832,679.528942 296.053166,679.772486 295.651512,679.671259 C290.977213,678.493218 286.729433,677.25692 282.889569,675.968649 C271.601988,672.181674 264.230277,668.106526 260.006686,663.997242 C258.496831,662.528249 257.492685,661.14776 256.902025,659.890687 C256.529558,659.097983 256.382024,658.499928 256.363289,658.135506 C256.342023,657.721838 256.660127,657.369255 257.073794,657.347989 Z"/><path id="Stroke-41" fill="#3B4A7A" fill-rule="nonzero" d="M285.636789,605.010338 C286.047365,605.065119 286.335793,605.442364 286.281012,605.852939 L286.239026,606.188212 C286.205103,606.468427 286.167241,606.799015 286.12642,607.177876 L286.038873,608.022595 C285.951555,608.898281 285.865287,609.86608 285.783374,610.918909 C284.76432,624.016851 285.12279,638.384325 287.840622,651.894997 C289.167614,658.491637 291.018377,664.55542 293.443157,669.97285 C293.612378,670.350921 293.443071,670.794587 293.065,670.963807 C292.686929,671.133028 292.243263,670.963721 292.074043,670.58565 C289.60074,665.059811 287.717867,658.890827 286.37008,652.190814 C283.620722,638.523416 283.259026,624.026642 284.287894,610.802557 L284.372055,609.767062 C284.428992,609.096022 284.487425,608.463907 284.546371,607.872809 L284.665638,606.737188 L284.794188,605.654561 C284.844404,605.2782 285.165579,605.004477 285.535007,605.003665 L285.636789,605.010338 Z"/><path id="Stroke-43" fill="#3B4A7A" fill-rule="nonzero" d="M380.167664,592.3342 C380.561636,592.206299 380.984698,592.421992 381.1126,592.815964 C381.240501,593.209936 381.024808,593.632998 380.630836,593.7609 C354.558249,602.225261 327.718054,606.569297 300.810145,607.49909 C280.334017,608.206636 261.190175,606.910459 244.077021,604.315078 C239.515089,603.623216 235.424834,602.884828 231.84927,602.143253 L231.141032,601.994909 C230.158045,601.78697 229.268893,601.59008 228.476327,601.407011 L227.027632,601.061568 L226.528603,600.935283 C226.128068,600.829715 225.888949,600.419438 225.994517,600.018903 C226.100085,599.618368 226.510362,599.379249 226.910897,599.484817 L227.821621,599.711432 L228.814949,599.945732 C229.467667,600.096493 230.187397,600.256903 230.972543,600.425358 L231.451468,600.527384 C235.164213,601.312767 239.465148,602.098489 244.301939,602.832037 C261.32777,605.414174 280.380034,606.70415 300.758344,605.999985 C327.532617,605.07481 354.235356,600.75302 380.167664,592.3342 Z"/><path id="Stroke-45" fill="#3B4A7A" fill-rule="nonzero" d="M289.18889,576.438498 C289.568531,576.432149 289.887081,576.708923 289.942964,577.074101 L289.951541,577.17574 L290.368541,601.68274 C290.375589,602.096894 290.045563,602.438344 289.63141,602.445502 C289.251769,602.451851 288.933219,602.175077 288.877336,601.809899 L288.868759,601.70826 L288.451759,577.20126 C288.444711,576.787106 288.774737,576.445656 289.18889,576.438498 Z"/><path id="Stroke-47" fill="#3B4A7A" fill-rule="nonzero" d="M233.488669,574.623014 L382.129669,577.213514 C382.54382,577.220732 382.873704,577.562318 382.866602,577.976469 C382.85987,578.356107 382.572291,578.664938 382.205405,578.708214 L382.103531,578.713286 L233.462531,576.122786 C233.04838,576.115568 232.718496,575.773982 232.725598,575.359831 C232.73233,574.980193 233.019909,574.671362 233.386795,574.628086 L233.488669,574.623014 Z"/><path id="Fill-49" fill="#51342D" d="M325.82235,375.0614 C325.82235,375.0614 331.83435,388.4669 324.27135,393.4679 C317.62485,397.8644 310.65735,397.3799 308.84685,387.7994 C307.03785,378.2174 307.74585,351.4049 314.13435,351.6149 C320.52135,351.8234 325.82235,375.0614 325.82235,375.0614"/><path id="Fill-51" fill="#B69882" d="M293.5167,406.6793 C293.5167,406.6793 277.7532,410.0993 267.0912,404.7263 C254.2917,398.2748 254.8527,372.4703 254.2797,364.1348 C253.2747,349.5113 258.8757,341.1263 258.8757,341.1263 C258.8757,341.1263 264.0207,328.1873 289.5342,325.6298 C315.0477,323.0723 318.3327,346.6718 319.4277,357.6053 C320.5242,368.5403 319.8327,389.5793 313.6062,395.9228 C306.0897,403.5788 293.5167,406.6793 293.5167,406.6793"/><path id="Fill-53" fill="#51342D" d="M254.73345,354.88685 C254.73345,354.88685 242.70195,345.04835 245.93595,335.98085 C249.16845,326.91485 257.27745,325.18085 266.61795,326.54585 C275.95695,327.91085 310.53945,314.19935 316.50795,333.04985 C333.68745,348.35435 323.89995,364.21985 323.89995,364.21985 C323.89995,364.21985 316.78695,357.81935 315.10245,363.96935 C313.41795,370.12085 312.03945,374.32385 310.03395,372.68435 C308.02845,371.04335 308.97345,363.84335 305.46495,360.97385 C301.95495,358.10585 297.01395,348.66335 298.96845,341.70935 C299.46795,337.51835 266.34795,340.20335 259.37895,344.12285 C255.44895,346.33385 254.73345,354.88685 254.73345,354.88685"/><path id="Stroke-55" fill="#51342D" fill-rule="nonzero" d="M258.66801,358.953795 C260.687151,358.245316 262.907942,357.974656 265.211029,358.402762 C266.025505,358.554159 266.563036,359.337154 266.411638,360.151629 C266.260241,360.966105 265.477246,361.503636 264.662771,361.352238 C262.926758,361.029543 261.220492,361.237494 259.661285,361.784591 C259.184096,361.952028 258.816939,362.115115 258.582664,362.235457 L258.414932,362.327242 C257.702351,362.749758 256.782173,362.514613 256.359658,361.802032 C255.937142,361.089451 256.172287,360.169273 256.884868,359.746758 C257.246818,359.532144 257.85412,359.239374 258.66801,358.953795 Z"/><path id="Stroke-57" fill="#51342D" fill-rule="nonzero" d="M281.842516,355.731891 C284.273204,355.592362 287.404842,355.95968 290.806914,357.254793 C291.581138,357.549528 291.969841,358.41609 291.675107,359.190314 C291.380372,359.964538 290.51381,360.353241 289.739586,360.058507 C288.055203,359.41729 286.380814,359.025223 284.769281,358.836202 C283.786824,358.720967 282.937601,358.691945 282.260298,358.715661 L281.81991,358.740967 C280.996279,358.829974 280.256439,358.234442 280.167433,357.41081 C280.078426,356.587179 280.673958,355.847339 281.49759,355.758333 L281.732154,355.738755 C281.766302,355.736455 281.803104,355.734154 281.842516,355.731891 Z"/><path id="Stroke-59" fill="#7C5B4D" fill-rule="nonzero" d="M271.715069,364.563712 C271.887762,364.305474 272.2371,364.236126 272.495338,364.408819 C272.753576,364.581512 272.822924,364.93085 272.650231,365.189088 L272.497452,365.424963 C272.394652,365.58739 272.263343,365.800865 272.110336,366.059078 C271.700884,366.750064 271.291229,367.504392 270.909289,368.295789 C270.278457,369.602902 269.788153,370.877524 269.492673,372.064456 C268.359175,376.617679 270.14277,378.94679 276.359554,378.323704 C276.668665,378.292723 276.944365,378.518192 276.975346,378.827304 C277.006327,379.136415 276.780858,379.412115 276.471746,379.443096 C269.444329,380.147428 267.087346,377.069557 268.400992,371.792688 C268.717284,370.522155 269.234249,369.178223 269.896111,367.806815 C270.2929,366.984651 270.717596,366.202627 271.142495,365.485572 L271.287843,365.242916 L271.687827,364.604874 C271.698393,364.58878 271.707491,364.575043 271.715069,364.563712 Z"/><path id="Stroke-61" fill="#755654" fill-rule="nonzero" d="M285.122332,366.931656 C286.947351,366.74955 288.540971,368.291307 288.74501,370.313144 C288.7866,370.725265 288.486226,371.09307 288.074106,371.13466 C287.661985,371.17625 287.29418,370.875876 287.25259,370.463756 C287.126594,369.215249 286.211958,368.330379 285.271988,368.424172 C284.329824,368.519103 283.608738,369.567924 283.733578,370.816322 C283.774794,371.22848 283.474086,371.596012 283.061928,371.637228 C282.64977,371.678444 282.282238,371.377736 282.241022,370.965578 C282.038799,368.943344 283.295311,367.115743 285.122332,366.931656 Z"/><path id="Stroke-63" fill="#755654" fill-rule="nonzero" d="M262.931562,367.806298 C264.757635,367.624284 266.350072,369.165466 266.55416,371.187794 C266.59575,371.599915 266.295376,371.96772 265.883256,372.00931 C265.471135,372.0509 265.10333,371.750526 265.06174,371.338406 C264.935682,370.089279 264.022034,369.205038 263.081138,369.298822 C262.138974,369.393753 261.417888,370.442574 261.542728,371.690972 C261.583944,372.10313 261.283236,372.470662 260.871078,372.511878 C260.45892,372.553094 260.091388,372.252386 260.050172,371.840228 C259.847949,369.817994 261.104461,367.990393 262.931562,367.806298 Z"/><path id="Fill-65" fill="#B69882" d="M264.49965,381.3419 L265.31115,407.8814 C265.77465,423.0134 277.94565,435.1649 293.07915,435.6014 C309.73215,436.0814 323.27265,422.2829 322.47465,405.6419 L321.16815,378.2939 L264.49965,381.3419 Z"/><path id="Fill-67" fill="#51342D" d="M263.6148,386.6747 C263.6148,386.6747 263.5278,380.1752 272.4378,378.7157 C280.1328,377.4557 285.2388,378.7022 288.5208,383.8952 C291.8013,389.0882 274.5123,385.2992 274.5123,385.2992 C274.5123,385.2992 261.9303,392.8262 263.6148,386.6747"/><path id="Fill-69" fill="#B69882" d="M328.43115,370.2992 C328.10715,376.5692 324.26265,381.4667 319.84215,381.2387 C315.42465,381.0107 312.10365,375.7427 312.42615,369.4742 C312.75015,363.2042 316.59465,358.3067 321.01515,358.5347 C325.43415,358.7627 328.75515,364.0307 328.43115,370.2992"/><path id="Stroke-71" fill="#7C5B4D" fill-rule="nonzero" d="M303.989799,400.216127 C304.263082,400.068391 304.604386,400.170166 304.752123,400.443449 C304.899859,400.716732 304.798084,401.058036 304.524801,401.205773 C291.833162,408.06687 280.410629,409.081717 271.127204,406.690259 C270.179644,406.446162 269.347628,406.1841 268.637043,405.921264 L268.299985,405.793098 C268.046529,405.693817 267.861922,405.614183 267.748302,405.560445 C267.467468,405.427621 267.347482,405.092286 267.480305,404.811452 C267.613129,404.530618 267.948464,404.410632 268.229298,404.543455 L268.471983,404.649667 C268.613231,404.708359 268.798717,404.781572 269.027323,404.866131 C269.702625,405.115916 270.498122,405.366476 271.407848,405.600826 C280.428233,407.924524 291.560363,406.935478 303.989799,400.216127 Z"/><path id="Stroke-73" fill="#7C5B4D" fill-rule="nonzero" d="M279.007909,399.565974 C279.318555,399.563103 279.572753,399.812563 279.575675,400.123209 L279.58222,400.320554 C279.592208,400.514631 279.61438,400.780181 279.655088,401.097819 C279.750178,401.839777 279.915517,402.580666 280.166107,403.265959 C280.799331,404.99765 281.842948,406.053901 283.412065,406.207682 C283.721244,406.237983 283.947319,406.513186 283.917018,406.822365 C283.886717,407.131544 283.611514,407.357619 283.302335,407.327318 C281.23462,407.124672 279.876702,405.750315 279.109531,403.652315 C278.827286,402.880454 278.644214,402.060107 278.539215,401.240829 C278.502534,400.954614 278.478145,400.688422 278.463682,400.448584 L278.450674,400.133791 C278.447803,399.823145 278.697263,399.568947 279.007909,399.565974 Z"/><path id="Stroke-75" fill="#7C5B4D" fill-rule="nonzero" d="M321.294042,363.63255 C321.603155,363.60159 321.87884,363.827078 321.9098,364.136192 C321.937664,364.414394 321.757805,364.665519 321.496211,364.735531 L321.278333,364.771115 C321.173136,364.790597 321.029646,364.824244 320.85785,364.876598 C320.420849,365.009772 319.983393,365.214684 319.577019,365.504802 C318.327042,366.397186 317.61556,367.885722 317.721592,370.18484 L317.731,370.342 L317.833542,370.359704 C319.881679,370.717831 321.046806,371.4646 321.334621,372.612352 L321.367187,372.764334 C321.558176,373.832097 320.993469,375.016364 319.865498,376.372025 C319.6668,376.610832 319.312132,376.643346 319.073325,376.444648 C318.834518,376.24595 318.802004,375.891282 319.000702,375.652475 C319.932488,374.5326 320.374729,373.60516 320.259763,372.962416 C320.12881,372.230296 319.19102,371.662205 317.131989,371.390413 C316.873222,371.356255 316.671947,371.148578 316.645906,370.888869 C316.341777,367.855696 317.235013,365.79453 318.923347,364.589194 C319.802747,363.961372 320.679915,363.69406 321.294042,363.63255 Z"/><path id="Fill-77" fill="#E4EBF7" d="M379.80765,589.3403 C336.80865,603.3068 266.20665,600.2108 240.51615,596.5493 C193.03215,589.7828 220.83465,525.3893 220.83465,525.3893 C218.28315,511.2878 219.00165,496.0223 219.00165,496.0223 C207.98565,461.0423 218.27265,428.4593 218.27265,428.4593 C237.21315,420.8453 243.18015,418.6208 259.85865,414.2588 C269.96115,411.6173 281.37015,431.8178 292.50465,430.8818 C305.91765,429.7553 312.77565,405.9863 326.85315,408.0833 C343.16265,410.5133 365.05215,420.4133 380.73165,427.6148 C395.89965,439.9973 391.55715,507.0173 383.17965,550.7168 C383.17965,550.7168 393.09015,585.0263 379.80765,589.3403"/><path id="Fill-79" fill="#FFF" d="M264.4761,421.3586 C264.4761,421.3586 272.4741,474.4151 284.7966,498.5111 C310.1196,442.4876 326.7456,408.6611 327.5706,408.4841 L291.3231,428.4566 L264.4761,421.3586 Z"/><polygon id="Fill-81" fill="#253368" points="275.988 436.73 288.348 426.101 303.491 436.443 296.511 448.029 279.561 449.346"/><polygon id="Fill-83" fill="#253368" points="273.423 466.019 279.846 449.155 296.697 447.941 301.826 460.586 285.479 500.155"/><polygon id="Fill-85" fill="#FFF" points="268.313 442.111 289.769 426.451 266.43 412.042 263.041 415.955"/><polygon id="Fill-87" fill="#FFF" points="289.768 426.451 310.479 439.639 327.993 408.454 323.416 403.702"/><polygon id="Fill-89" fill="#FFF" points="267.567 443.265 288.896 426.091 265.786 410.034 262.168 415.594"/><path id="Stroke-91" fill="#E4EBF7" fill-rule="nonzero" d="M290.146253,426.046911 L265.57953,408.976499 L261.374222,415.439631 L267.06896,444.628522 L290.146253,426.046911 Z M265.993,411.09 L287.644,426.135 L268.065,441.9 L262.962,415.749 L265.993,411.09 Z"/><polygon id="Fill-93" fill="#FFF" points="288.895 426.091 311.077 441.824 328.6 408.805 322.747 401.414"/><path id="Stroke-95" fill="#E4EBF7" fill-rule="nonzero" d="M329.492309,408.723263 L322.887595,400.383585 L287.610414,426.098974 L311.339398,442.929737 L329.492309,408.723263 Z M322.606,402.444 L327.707,408.885 L310.814,440.718 L290.179,426.082 L322.606,402.444 Z"/><path id="Stroke-97" fill="#96A7CA" fill-rule="nonzero" d="M284.794474,498.323164 L284.896466,498.324537 C285.274928,498.355123 285.564974,498.661638 285.584986,499.030524 L285.583613,499.132516 L282.259613,540.262516 C282.249974,540.38178 282.21194,540.497008 282.148687,540.598576 L281.852393,541.097174 L281.779165,541.224182 C281.479355,541.746355 281.144607,542.357383 280.78363,543.051517 C279.750113,545.038901 278.715824,547.290227 277.750317,549.759339 C273.380739,560.933753 271.873317,572.44135 274.905861,583.151365 C276.606033,589.155855 279.708349,594.685888 284.371661,599.649566 C284.655277,599.951451 284.640468,600.426094 284.338584,600.709711 C284.036699,600.993327 283.562056,600.978518 283.278439,600.676634 C278.449234,595.536376 275.22771,589.793849 273.462601,583.560025 C270.326834,572.485452 271.875242,560.664963 276.353325,549.213067 C277.339168,546.691949 278.395611,544.392402 279.452826,542.359447 L279.814604,541.674577 C279.990829,541.346305 280.159819,541.039433 280.320484,540.754668 L280.778,539.963 L284.088487,499.011684 C284.116293,498.667628 284.372138,498.396642 284.695576,498.33518 L284.794474,498.323164 Z"/><path id="Stroke-99" fill="#96A7CA" fill-rule="nonzero" d="M213.911525,461.724927 C214.324585,461.756574 214.634398,462.116464 214.603512,462.529525 C214.250655,467.248472 214.191334,472.34842 214.399906,477.772942 C214.790184,487.923269 216.089521,498.793465 218.011906,509.772644 L218.392847,511.904366 C219.033942,515.420683 219.704231,518.750478 220.377098,521.837292 L220.579008,522.75599 C220.846869,523.9648 221.097924,525.057652 221.327273,526.024166 L221.743254,527.731427 C221.782712,527.885853 221.771948,528.048833 221.712522,528.196728 L221.436821,528.915498 L221.206379,529.541363 C221.047354,529.979765 220.877855,530.460105 220.699782,530.980102 C219.935578,533.211677 219.171003,535.708199 218.457323,538.407986 C216.21356,546.89593 214.966576,555.427855 215.232629,563.370342 C215.796615,580.206991 223.012248,591.862886 238.814158,596.241641 L239.239,596.357 L240.05867,596.444135 C240.676943,596.507393 241.39084,596.576881 242.197287,596.651267 L243.832046,596.79744 C246.333449,597.014405 249.155854,597.229644 252.274647,597.432498 C292.230598,600.031321 336.771123,598.529102 378.89261,589.901853 C379.2984,589.81874 379.694734,590.080321 379.777847,590.48611 C379.86096,590.8919 379.599379,591.288234 379.19359,591.371347 C337.499459,599.911066 293.478501,601.49348 253.826894,599.034139 L252.17729,598.929335 C248.786528,598.708792 245.743848,598.473582 243.080502,598.23727 L240.560883,598.002119 L239.019301,597.842347 L238.911566,597.822099 C222.059368,593.358372 214.323438,581.032881 213.73347,563.42056 C213.461869,555.31244 214.729019,546.64254 217.007136,538.024634 C217.730368,535.288716 218.505341,532.75824 219.280686,530.494132 L219.545782,529.730781 C219.631856,529.486471 219.715559,529.252398 219.796654,529.028843 L220.139622,528.104102 L220.23,527.867 L219.965571,526.780383 C219.708682,525.70905 219.422566,524.470607 219.114532,523.080505 C218.234838,519.110597 217.355286,514.719712 216.534383,510.031349 C214.60122,498.99061 213.294177,488.055945 212.901013,477.830574 C212.690377,472.352366 212.750348,467.196577 213.107688,462.417675 C213.136001,462.039036 213.440767,461.747154 213.809527,461.724927 L213.911525,461.724927 Z"/><path id="Stroke-101" fill="#96A7CA" fill-rule="nonzero" d="M328.392613,408.366994 C328.617756,408.01931 329.082123,407.919971 329.429806,408.145113 C329.77749,408.370256 329.876829,408.834623 329.651687,409.182306 L329.165693,409.94101 C324.989175,416.52985 319.654041,426.675606 313.426896,439.658234 L312.690191,441.198647 C311.391831,443.921276 310.063569,446.747798 308.70884,449.668802 L308.029286,451.137134 C303.327585,461.317535 298.510304,472.177831 293.808715,483.083606 L291.223755,489.111505 C290.711679,490.312102 290.214316,491.482188 289.7327,492.618925 L287.463506,498.004799 L286.213828,501.003514 C285.96719,501.60053 285.131486,501.627265 284.847193,501.047235 C280.523921,492.226658 276.324543,480.080285 272.298135,465.438381 C269.239421,454.315465 266.455455,442.401507 263.99977,430.488021 L263.421227,427.650303 C262.859206,424.862579 262.347001,422.228483 261.886854,419.780893 L261.375926,417.022343 L260.943466,414.598563 C260.873374,414.190323 261.147497,413.802558 261.555737,413.732466 C261.929957,413.668215 262.286972,413.8932 262.397865,414.245592 L262.428094,414.381112 L262.621872,415.480095 C262.787549,416.407838 262.983871,417.484288 263.20999,418.697045 L263.674712,421.158685 C264.210233,423.961514 264.809323,426.985408 265.468885,430.185197 C267.918481,442.069149 270.695326,453.952629 273.744446,465.040657 L274.280094,466.970017 C277.768232,479.413587 281.380922,489.950712 285.074893,498.022455 L285.472,498.879 L287.293823,494.536544 C288.552966,491.549492 289.937114,488.294046 291.424762,484.829228 C296.448158,473.129444 301.623643,461.429472 306.667502,450.50821 L308.024369,447.582616 C309.14771,445.17098 310.252331,442.825965 311.336261,440.552989 L312.442492,438.243294 C318.780499,425.068903 324.185313,414.864255 328.392613,408.366994 Z"/><path id="Stroke-103" fill="#96A7CA" fill-rule="nonzero" d="M182.455598,448.4356 C182.782187,448.241929 183.196011,448.324561 183.425451,448.614104 L183.48325,448.698148 L216.14725,503.779648 C216.358528,504.135927 216.240981,504.596022 215.884702,504.8073 C215.558113,505.000971 215.144289,504.918339 214.914849,504.628796 L214.85705,504.544752 L182.19305,449.463252 C181.981772,449.106973 182.099319,448.646878 182.455598,448.4356 Z"/><path id="Fill-105" fill="#E4EBF7" d="M380.8653,567.8231 L380.8653,567.8231 C398.6523,565.9466 411.7068,550.2401 410.2968,532.4096 L404.4828,458.8571 C402.9768,439.8116 386.2983,425.6036 367.2558,427.1441 C347.6943,428.7266 333.3768,446.2676 335.7453,465.7496 L344.6493,538.9916 C346.8243,556.8776 362.9463,569.7131 380.8653,567.8231"/><path id="Fill-107" fill="#A08889" d="M274.58505,561.523628 L212.55405,561.12455 C210.81405,561.11405 209.28105,559.97855 208.76355,558.31805 L188.05455,491.84405 C187.25055,489.26105 189.19005,486.64205 191.89605,486.658472 L253.92855,487.05755 C255.66705,487.06805 257.19855,488.20355 257.71605,489.86555 L278.42655,556.33805 C279.23055,558.92105 277.29105,561.54005 274.58505,561.523628"/><path id="Fill-109" fill="#253368" d="M270.0807,561.494392 L208.0497,561.0968 C206.3097,561.0848 204.7767,559.9493 204.2592,558.2888 L183.5487,491.8148 C182.7447,489.2318 184.6857,486.6128 187.3902,486.630708 L249.4227,487.0283 C251.1627,487.0403 252.6942,488.1758 253.2117,489.8363 L273.9222,556.3103 C274.7262,558.8933 272.7867,561.5123 270.0807,561.494392"/><path id="Fill-111" fill="#B69882" d="M258.97425,559.3094 C258.97425,559.3094 286.30575,558.4424 292.02225,546.3614 C297.20175,535.4204 284.80725,527.4074 284.80725,527.4074 C284.80725,527.4074 274.36875,522.3119 261.52875,520.0409 C253.11525,518.5514 237.64575,513.2489 235.53975,517.5104 C232.79175,523.0649 249.59325,525.7889 250.39575,530.1164 C252.02175,538.8854 225.01275,537.4829 220.40325,539.6774 C211.38825,543.9689 226.18875,560.6069 258.97425,559.3094"/><path id="Stroke-113" fill="#7C5B4D" fill-rule="nonzero" d="M247.119347,543.077554 C247.207931,543.375316 247.038359,543.688512 246.740596,543.777097 L246.397966,543.873758 C246.122612,543.949158 245.801431,544.033002 245.437227,544.123168 C244.399135,544.380166 243.222715,544.636934 241.930345,544.876475 C235.668245,546.037156 229.178197,546.383946 223.099406,545.42167 C222.259035,545.288638 221.433719,545.13086 220.624438,544.947553 C220.321453,544.878925 220.131469,544.577673 220.200097,544.274688 C220.268725,543.971703 220.569977,543.781719 220.872962,543.850347 C221.657825,544.028123 222.458936,544.181275 223.275304,544.310506 C229.209755,545.249933 235.57853,544.909624 241.725318,543.770315 C242.813642,543.568594 243.817494,543.354609 244.72261,543.139016 L245.166874,543.031135 C245.433211,542.965199 245.675445,542.902862 245.892383,542.845017 L246.419804,542.698803 C246.717566,542.610219 247.030762,542.779791 247.119347,543.077554 Z"/><path id="Stroke-115" fill="#7C5B4D" fill-rule="nonzero" d="M249.738609,549.627628 C250.04373,549.569229 250.338422,549.769237 250.396822,550.074359 C250.455221,550.37948 250.255213,550.674172 249.950091,550.732572 C240.992472,552.44703 233.176104,552.501168 226.843844,551.562436 C226.113373,551.454147 225.459028,551.339248 224.883525,551.223052 L224.547705,551.153221 C224.152331,551.068526 223.880679,551.001859 223.73744,550.962394 C223.437939,550.879877 223.262039,550.570191 223.344556,550.27069 C223.427073,549.971189 223.736759,549.795289 224.03626,549.877806 L224.370933,549.961163 C224.485512,549.98794 224.623108,550.018851 224.78335,550.053177 C225.412844,550.188024 226.156237,550.323207 227.008818,550.449598 C233.220846,551.370506 240.910786,551.317244 249.738609,549.627628 Z"/><path id="Stroke-117" fill="#7C5B4D" fill-rule="nonzero" d="M254.586653,554.849035 C254.887187,554.770364 255.194593,554.950219 255.273265,555.250753 C255.351936,555.551287 255.172081,555.858693 254.871547,555.937365 L254.493942,556.026132 C254.367239,556.053869 254.216365,556.085459 254.041445,556.12021 C253.368186,556.253963 252.567169,556.387369 251.639981,556.511648 C247.269748,557.097429 241.81434,557.281866 235.317214,556.825819 C235.007316,556.804067 234.773728,556.535212 234.795481,556.225314 C234.817233,555.915416 235.086088,555.681828 235.395986,555.703581 C241.816139,556.154224 247.195118,555.972371 251.490524,555.39662 C252.265113,555.292795 252.947182,555.182796 253.535745,555.072135 L253.82223,555.016774 C254.208195,554.940096 254.463526,554.881267 254.586653,554.849035 Z"/><path id="Fill-119" fill="#B69882" d="M293.71875,524.66 C286.12275,525.902 280.97025,533.066 282.21075,540.662 C283.45275,548.258 290.61825,553.4105 298.21425,552.17 C305.81175,550.928 310.96275,543.764 309.72075,536.1665 C308.48025,528.5705 301.31475,523.418 293.71875,524.66"/><path id="Fill-121" fill="#E4EBF7" d="M275.53275,522.5411 L275.244036,551.3231 C275.16975,558.8261 281.01525,565.0571 288.50775,565.4606 L377.93325,570.2681 C395.77575,570.4466 410.38425,556.1261 410.56425,538.2836 C410.74275,520.4411 396.42225,505.8311 378.57825,505.6526 L289.07475,508.6721 C281.57625,508.9256 275.60775,515.0396 275.53275,522.5411"/><path id="Stroke-123" fill="#96A7CA" fill-rule="nonzero" d="M379.102288,504.360189 C379.516169,504.3442 379.865145,504.666257 379.881747,505.080138 C379.896966,505.459529 379.627617,505.784381 379.263826,505.848677 L379.162412,505.859597 L289.681488,509.449094 C282.691077,509.730221 277.139789,515.38325 276.95121,522.339809 L276.946345,522.6569 L276.842742,551.440538 C276.816266,558.437275 282.221596,564.230202 289.164699,564.721857 L289.48134,564.74054 L378.902552,568.977421 C396.331486,569.040215 410.512354,554.96214 410.575355,537.532989 C410.576852,537.118778 410.91385,536.784208 411.328061,536.785705 C411.742272,536.787202 412.076842,537.1242 412.07535,537.538411 C412.01001,555.61342 397.450096,570.247895 379.412022,570.474141 L378.86436,570.476575 L289.410468,566.238865 C281.620378,565.870952 275.480736,559.515952 275.344941,551.754734 L275.342752,551.435 L275.446355,522.651501 C275.474414,514.854248 281.554989,508.443334 289.301991,507.966544 L289.621288,507.950303 L379.102288,504.360189 Z"/><path id="Fill-125" fill="#4E5C93" d="M226.14705,676.2824 L226.14705,676.2824 C222.49755,656.0159 235.41255,636.4574 255.48405,631.8524 L334.45905,613.7369 C357.01305,608.5634 379.36455,623.1134 383.75955,645.8324 L383.76105,645.8324 C388.12155,668.3744 373.07955,690.0899 350.44155,693.9284 L270.55605,707.4749 C249.70455,711.0104 229.89555,697.0964 226.14705,676.2824"/><path id="Stroke-127" fill="#96A7CA" fill-rule="nonzero" d="M346.915967,461.496176 C347.295371,461.4813 347.61998,461.750944 347.683946,462.114793 L347.694774,462.216217 L349.383774,505.294717 C349.400002,505.708613 349.077629,506.057296 348.663733,506.073524 C348.284329,506.0884 347.95972,505.818756 347.895754,505.454907 L347.884926,505.353483 L346.195926,462.274983 C346.179698,461.861087 346.502071,461.512404 346.915967,461.496176 Z"/><path id="Stroke-129" fill="#3B4A7A" fill-rule="nonzero" d="M297.872193,621.144693 C298.28398,621.099926 298.65409,621.397455 298.698857,621.809243 C298.743624,622.22103 298.446095,622.59114 298.034307,622.635907 C253.68995,627.456727 230.567648,639.681864 226.04984,665.288125 L225.993538,665.631005 C225.114004,671.37633 225.255328,689.538039 226.161825,716.184677 L226.34556,721.412052 C226.518653,726.188002 226.711409,731.125812 226.920828,736.182857 L227.000135,738.084755 C227.290638,745.004198 227.598438,751.835766 227.909118,758.374983 L228.593714,772.203383 C228.615483,772.617025 228.297808,772.969994 227.884167,772.992819 C227.470525,773.013533 227.117556,772.695858 227.095786,772.282217 L226.597521,762.3345 L226.317667,756.47502 C226.100608,751.85623 225.885668,747.104151 225.677791,742.288885 L225.344325,734.353173 C225.139016,729.32407 224.950746,724.419448 224.78252,719.681877 L224.552375,712.920296 C223.722579,687.381131 223.643427,670.293713 224.572658,665.027487 C229.243071,638.556281 252.935025,626.02996 297.872193,621.144693 Z"/></g></svg>