<svg xmlns="http://www.w3.org/2000/svg" xmlns:xlink="http://www.w3.org/1999/xlink" width="512" height="1024" version="1.1" viewBox="0 0 512 1024"><title>2.人物组件/1.商人/坐姿/讲解</title><desc>Created with Sketch.</desc><defs><polygon id="path-1" points="0 .491 79.858 .491 79.858 136.676 0 136.676"/></defs><g id="2.人物组件/1.商人/坐姿/讲解" fill="none" fill-rule="evenodd" stroke="none" stroke-width="1"><path id="Fill-1" fill="#B69882" d="M357.6347,430.2698 L368.4812,393.0488 C368.4812,393.0488 388.0607,362.3123 395.8877,363.7538 C403.2017,365.8868 387.5162,375.1853 384.8057,383.7293 C391.6037,383.0033 388.9877,391.2068 388.9877,391.2068 C388.9877,391.2068 394.4102,390.7793 393.3452,397.4093 C398.5277,399.5258 394.9382,407.2538 394.9382,407.2538 C394.9382,407.2538 385.9997,427.5833 375.5732,441.3638 C375.5732,441.3638 357.6407,453.6953 357.6347,430.2698"/><path id="Fill-3" fill="#B69882" d="M359.79095,417.7688 C359.79095,417.7688 360.98345,405.1298 362.05445,398.6678 C363.12695,392.2058 359.03195,380.8358 365.08745,383.6018 C369.15995,385.4603 368.88545,392.3588 369.04895,397.4273 C369.21095,402.4973 380.23595,413.9843 373.05545,422.6708 C368.20445,428.5403 360.06695,429.6848 359.79095,417.7688"/><path id="Stroke-5" fill="#7C5B4D" fill-rule="nonzero" d="M384.422968,383.317802 C384.650398,383.106176 385.006323,383.118988 385.217948,383.346418 C385.429574,383.573848 385.416762,383.929773 385.189332,384.141398 L384.83822,384.476423 L384.391254,384.914557 C384.2348,385.069818 384.071221,385.234066 383.901543,385.406609 C382.931889,386.392637 381.962296,387.445605 381.05859,388.520693 C380.187486,389.556995 379.423973,390.559933 378.798618,391.507615 C377.707681,393.160855 377.084452,394.577145 377.01819,395.651125 C376.9494,396.766058 377.476579,397.47535 378.819091,397.845314 C379.118587,397.927848 379.29447,398.237545 379.211936,398.537041 C379.129402,398.836537 378.819705,399.01242 378.520209,398.929886 C376.673122,398.420872 375.793205,397.236989 375.895325,395.581846 C375.976474,394.26658 376.669658,392.691319 377.85963,390.887997 C378.511142,389.900675 379.300238,388.864132 380.197421,387.796805 C381.121653,386.697298 382.110565,385.623351 383.099416,384.617802 L383.599159,384.115676 L384.314588,383.419823 C384.359514,383.377192 384.395814,383.343069 384.422968,383.317802 Z"/><path id="Stroke-7" fill="#7C5B4D" fill-rule="nonzero" d="M388.04121,391.016345 C388.297749,390.841138 388.647749,390.907071 388.822955,391.16361 C388.998162,391.420149 388.932229,391.770149 388.67569,391.945355 L388.297238,392.210512 L387.815542,392.557376 C387.646934,392.680315 387.470652,392.810393 387.287802,392.947063 C386.243135,393.727894 385.198637,394.562482 384.225482,395.415365 C383.264213,396.257831 382.425469,397.072824 381.745136,397.841059 C380.737475,398.978914 380.117773,399.971664 379.95542,400.743311 C379.797569,401.493564 380.071449,401.996727 380.952293,402.37059 C381.504517,402.605067 382.10586,402.674176 382.7577,402.589847 C384.032376,402.424941 385.443369,401.686114 386.87576,400.55207 C387.463073,400.087086 388.013148,399.587657 388.509205,399.088419 L388.841859,398.745257 C388.967645,398.611865 389.063268,398.505582 389.125738,398.432848 C389.328152,398.197182 389.683285,398.170225 389.918952,398.372638 C390.154618,398.575052 390.181575,398.930185 389.979162,399.165852 L389.798255,399.367963 L389.484797,399.700357 C389.427879,399.759153 389.36867,399.819542 389.307239,399.881366 C388.781537,400.410441 388.199018,400.939326 387.574076,401.434102 C385.996159,402.68336 384.418739,403.509332 382.902039,403.705549 C382.059589,403.814538 381.25738,403.722344 380.51268,403.406141 C379.144354,402.825372 378.584235,401.796342 378.854523,400.511685 C379.066307,399.505095 379.776961,398.366644 380.902917,397.095209 C381.618076,396.287648 382.489634,395.44077 383.483989,394.569308 C384.481209,393.695333 385.547827,392.843072 386.614276,392.045959 L387.15309,391.648099 L387.84484,391.152705 C387.93122,391.09209 387.997308,391.046328 388.04121,391.016345 Z"/><path id="Stroke-9" fill="#7C5B4D" fill-rule="nonzero" d="M391.457287,397.42409 C391.763258,397.370318 392.054887,397.574766 392.10866,397.880737 C392.162432,398.186708 391.957984,398.478337 391.652013,398.53211 C390.474594,398.739032 389.080504,399.620228 387.467952,401.298626 C384.11641,404.790207 383.523042,406.909374 384.700332,407.383956 C386.003049,407.9091 388.675899,406.785002 390.271013,404.756863 C390.699964,404.211465 391.543143,404.774485 391.203785,405.379707 C389.09921,409.133077 386.504543,411.621279 383.047726,413.630574 C382.448907,413.978641 381.829041,414.311113 381.12616,414.665241 L379.975443,415.230271 L378.433853,415.967443 C373.325994,418.426647 371.34801,420.34672 370.478698,424.906443 C370.420518,425.211607 370.12597,425.411827 369.820807,425.353648 C369.515643,425.295468 369.315423,425.00092 369.373602,424.695757 C370.282382,419.929023 372.358013,417.745267 377.259742,415.290495 L378.343993,414.762939 L380.027991,413.954407 L380.196334,413.871665 C381.061353,413.445015 381.788504,413.061263 382.482379,412.657945 C384.571327,411.443732 386.320752,410.054346 387.831535,408.289274 L388.156,407.898 L387.93809,408.005441 C386.683528,408.592067 385.413388,408.796304 384.455569,408.490679 L384.279718,408.427369 C381.991608,407.505 382.831958,404.503759 386.656525,400.519389 C388.420387,398.683503 390.010607,397.678334 391.457287,397.42409 Z"/><path id="Stroke-11" fill="#7C5B4D" fill-rule="nonzero" d="M368.753423,390.536946 C369.029266,390.491303 369.291406,390.654691 369.378046,390.911258 L369.400204,391.000073 L370.962,400.438 L371.063223,400.561848 C371.222529,400.758109 371.399478,400.985127 371.58967,401.240446 C372.131749,401.96815 372.673414,402.779058 373.179406,403.653925 C374.670244,406.231608 375.553779,408.822905 375.513949,411.276034 C375.488602,412.837212 375.082221,414.28741 374.251762,415.591967 C374.084936,415.854033 373.737249,415.931239 373.475183,415.764412 C373.213117,415.597586 373.135911,415.249899 373.302738,414.987833 C374.017531,413.864974 374.367016,412.617813 374.389098,411.257771 C374.425045,409.043772 373.603458,406.634162 372.205555,404.217165 C371.722696,403.382294 371.204878,402.607087 370.687474,401.912508 L370.42702,401.569911 L370.189754,401.270845 C370.101198,401.161746 370.039111,401.088 370.007922,401.052158 C369.962325,400.999762 369.927027,400.939609 369.903522,400.874872 L369.877296,400.774727 L368.290296,391.183727 C368.239581,390.877234 368.44693,390.587661 368.753423,390.536946 Z"/><path id="Fill-13" fill="#4E5C93" d="M342.100885,643.77815 L342.100885,643.77815 C341.9711,623.18315 325.6331,606.34865 305.0516,605.60315 L203.0441,601.90265 C179.9186,601.06415 160.6736,619.50065 160.518154,642.64115 C160.3646,665.64665 179.1506,684.28415 202.1546,683.94815 L304.2191,682.46015 C325.3241,682.15265 342.2336,664.88465 342.100885,643.77815"/><path id="Fill-15" fill="#E4EBF7" d="M231.1463,791.8028 L220.6763,820.6928 C220.6763,820.6928 232.7633,827.4923 245.3948,829.4558 C267.0023,832.8143 260.0153,836.6333 284.3948,845.5463 C305.8703,853.3958 323.1113,846.4958 314.7098,839.2253 C308.1398,833.5388 302.6693,828.2858 298.1858,823.6508 C288.3878,813.5213 281.8598,800.6963 279.5153,786.7988 C277.7423,776.2913 274.2023,763.9568 267.1943,760.1783 C246.8813,749.2298 231.1463,791.8028 231.1463,791.8028"/><path id="Fill-17" fill="#B0BEDC" d="M311.67965,838.99415 C311.67965,838.99415 310.86515,842.19365 296.89115,843.89915 C280.61165,845.88365 260.45915,831.81815 248.34965,824.81915 C229.70315,814.03865 226.87865,817.49315 223.88915,813.68165 C219.06065,818.13365 221.20265,824.33765 221.20265,824.33765 C221.20265,824.33765 224.88965,827.76665 240.18065,831.66515 C255.46865,835.56215 254.19665,839.62415 272.67665,846.91865 C298.71065,857.19665 314.09765,853.18715 316.55615,847.93715 C319.64915,841.33265 315.43115,837.20615 311.67965,838.99415"/><path id="Fill-19" fill="#3B4A7A" d="M315.74465,607.38125 C294.37265,600.37775 271.52315,612.85025 265.85765,634.61525 C253.35815,682.64525 234.12215,756.64775 234.12215,756.64775 C234.12215,756.64775 236.40815,750.03575 234.12215,756.64925 C231.10415,765.37925 227.39765,774.04925 239.16665,781.85525 C255.44015,792.64925 277.72715,797.76125 287.64665,794.39375 C297.56165,791.02625 299.21915,773.03975 299.21915,773.03375 C299.21915,773.03375 324.00215,702.98675 340.30715,657.63125 C347.73965,636.95375 336.62615,614.22275 315.74465,607.38125"/><path id="Fill-21" fill="#E4EBF7" d="M325.7861,538.9181 L325.7861,538.9181 C310.8941,547.5941 291.8291,543.3161 282.0716,529.1081 L236.3366,462.5126 C225.1466,446.2181 229.8761,423.8741 246.7091,413.5106 C262.8581,403.5686 284.0021,408.4946 294.0941,424.5491 L337.0871,492.9476 C346.9976,508.7096 341.8751,529.5461 325.7861,538.9181"/><path id="Fill-23" fill="#E4EBF7" d="M360.20855,420.90005 L383.07605,438.38105 C389.03855,442.93655 390.35405,451.38005 386.06105,457.53455 L334.83605,530.99105 C324.00005,545.16755 303.72305,547.87505 289.54805,537.03905 C275.37005,526.20155 272.66405,505.92455 283.49855,491.74805 L340.94255,423.04505 C345.75605,417.28955 354.24755,416.34305 360.20855,420.90005"/><path id="Fill-25" fill="#E4EBF7" d="M327.33155,798.7367 L340.52255,826.4897 C340.52255,826.4897 353.85455,822.6722 364.12805,815.0672 C381.70655,802.0577 379.51055,809.7137 402.98705,798.6362 C423.66605,788.8772 430.90805,772.8077 419.80055,772.6292 C375.04955,771.9107 369.98255,765.5762 369.98255,765.5762 C369.98255,765.5762 329.54555,727.0682 315.49955,731.3657 C293.43305,738.1202 327.33155,798.7367 327.33155,798.7367"/><path id="Fill-27" fill="#B0BEDC" d="M417.50435,774.6224 C417.50435,774.6224 419.20835,777.4514 410.59835,788.5904 C400.56935,801.5639 376.39835,806.0129 362.90885,809.7059 C342.13385,815.3924 342.60485,819.8294 337.79285,819.2774 C337.56785,825.8414 343.48385,828.6779 343.48385,828.6779 C343.48385,828.6779 348.51485,828.4664 362.03585,820.3289 C375.55385,812.1944 377.54885,815.9534 395.72585,807.9359 C421.33685,796.6409 429.29885,782.8784 427.29335,777.4394 C424.77035,770.5964 418.86935,770.6969 417.50435,774.6224"/><path id="Fill-29" fill="#4E5C93" d="M245.2724,609.8963 C225.7769,621.1148 219.7814,646.4453 232.1864,665.2073 C259.5554,706.6073 301.7444,770.3768 301.7444,770.3768 C301.7444,770.3768 298.3544,764.2568 301.7444,770.3783 C306.2204,778.4573 310.0439,786.3668 323.8664,783.4733 C351.8924,777.6038 361.4699,765.4223 365.5934,755.7938 C369.7169,746.1668 357.4454,732.9128 357.4409,732.9083 C357.4409,732.9083 321.9044,667.6553 299.0654,625.2128 C288.6539,605.8643 264.3164,598.9373 245.2724,609.8963"/><path id="Fill-31" fill="#4E5C93" d="M258.20855,574.34525 C258.20855,574.34525 270.91955,600.62225 269.13005,638.61125 C268.24805,657.34475 229.46405,675.38525 201.16205,680.26325 C81.10205,700.95875 122.37455,572.31875 122.37455,572.31875 C122.37455,572.31875 245.53955,574.56575 258.20855,574.34525"/><path id="Stroke-33" fill="#3B4A7A" fill-rule="nonzero" d="M233.988356,656.331434 C234.402026,656.352645 234.720177,656.705186 234.698966,657.118856 C234.68028,657.483291 234.532813,658.08136 234.160419,658.87408 C233.569881,660.131169 232.56584,661.511673 231.056064,662.980676 C226.832713,667.089972 219.461009,671.165124 208.173108,674.952101 C204.333138,676.240372 200.085213,677.47667 195.410731,678.654711 C195.009076,678.755934 194.601412,678.512386 194.500189,678.110731 C194.398966,677.709076 194.642514,677.301412 195.044169,677.200189 C199.682351,676.031297 203.893487,674.805706 207.696007,673.529999 C218.786613,669.809213 225.966075,665.840334 230.01002,661.905599 C231.393798,660.559191 232.291145,659.325385 232.802762,658.236298 C233.062772,657.682811 233.170146,657.297441 233.195444,657.100634 L233.200934,657.042044 C233.222145,656.628374 233.574686,656.310223 233.988356,656.331434 Z"/><path id="Stroke-35" fill="#3B4A7A" fill-rule="nonzero" d="M205.425427,603.994392 C205.836,603.939593 206.213258,604.228005 206.268058,604.638577 L206.36726,605.459663 L206.427274,606.001414 C206.54576,607.100703 206.664157,608.368261 206.774605,609.787362 C207.8039,623.012319 207.442166,637.509938 204.691989,651.178116 C203.344153,657.876758 201.461331,664.044638 198.9882,669.569717 C198.81897,669.947784 198.375299,670.117079 197.997233,669.94785 C197.619166,669.77862 197.449871,669.334949 197.6191,668.956883 C200.043712,663.540197 201.894423,657.477508 203.221461,650.882231 C205.940096,637.370818 206.298602,623.002535 205.279128,609.903755 L205.153343,608.388944 C205.096353,607.744828 205.038162,607.140083 204.979748,606.576808 L204.849428,605.391953 L204.781242,604.837023 C204.726443,604.42645 205.014855,604.049192 205.425427,603.994392 Z"/><path id="Stroke-37" fill="#3B4A7A" fill-rule="nonzero" d="M213.87411,575.421798 C214.253751,575.428368 214.5627,575.71582 214.606127,576.082688 L214.611241,576.18456 L214.194241,600.69156 C214.187194,601.105713 213.845744,601.435739 213.43159,601.428802 C213.051949,601.422232 212.743,601.13478 212.699573,600.767912 L212.694459,600.66604 L213.111459,576.15904 C213.118506,575.744887 213.459956,575.414861 213.87411,575.421798 Z"/><path id="Fill-39" fill="#51342D" d="M163.55915,361.7621 C163.55915,361.7621 158.37665,375.5096 166.23215,380.0411 C173.13515,384.0221 180.06065,383.1116 181.28015,373.4381 C182.50115,363.7646 180.15515,337.0451 173.79215,337.6451 C167.42915,338.2436 163.55915,361.7621 163.55915,361.7621"/><path id="Fill-41" fill="#B69882" d="M197.7368,391.346 C197.7368,391.346 213.6788,393.797 223.9928,387.782 C236.3753,380.5595 234.2363,354.839 234.2993,346.4825 C234.4088,331.8245 228.3053,323.798 228.3053,323.798 C228.3053,323.798 222.3788,311.1965 196.7573,310.205 C171.1358,309.212 169.2998,332.9675 168.8738,343.9475 C168.4478,354.929 170.4233,375.8855 177.0278,381.8375 C184.9973,389.0195 197.7368,391.346 197.7368,391.346"/><path id="Fill-43" fill="#51342D" d="M233.28125,337.2794 C233.28125,337.2794 244.68725,326.7239 240.90575,317.8724 C237.12575,309.0194 228.92525,307.7849 219.68675,309.7184 C210.44675,311.6519 175.09325,300.0809 170.28725,319.2599 C154.07675,335.5859 164.81375,350.8229 164.81375,350.8229 C164.81375,350.8229 171.52325,343.9994 173.57975,350.0354 C175.63625,356.0729 177.27125,360.1844 179.17175,358.4249 C181.07225,356.6654 179.68925,349.5359 183.01625,346.4564 C186.34325,343.3784 190.69775,333.6524 188.32325,326.8319 C187.56725,322.6784 221.89925,323.5499 229.09625,327.0359 C233.15525,329.0024 233.28125,337.2794 233.28125,337.2794"/><path id="Stroke-45" fill="#51342D" fill-rule="nonzero" d="M221.592801,339.994551 C225.55115,339.410783 228.43329,339.906569 230.374754,341.166735 C231.292938,341.762711 231.8379,342.413032 232.094409,342.940108 C232.456924,343.685007 232.146941,344.582744 231.402042,344.945259 C230.70096,345.286449 229.864494,345.031932 229.46628,344.379781 L229.396891,344.252892 C229.36832,344.194183 229.176959,343.965826 228.741416,343.683123 C227.456198,342.848913 225.307096,342.479224 222.030499,342.962449 C221.210937,343.083316 220.448568,342.516912 220.327701,341.697349 C220.206834,340.877787 220.773238,340.115418 221.592801,339.994551 Z"/><path id="Stroke-47" fill="#51342D" fill-rule="nonzero" d="M197.829321,339.733048 C200.359588,339.057201 203.009988,339.08162 205.507976,339.521179 C206.174087,339.638391 206.674809,339.758162 206.969943,339.844219 C207.76525,340.076119 208.221982,340.908836 207.990081,341.704143 C207.758181,342.49945 206.925464,342.956182 206.130157,342.724281 L205.947097,342.675136 C205.727828,342.620016 205.40199,342.54862 204.988069,342.475785 C202.883871,342.105519 200.649518,342.084933 198.603496,342.631436 C198.066721,342.774812 197.553914,342.955692 197.067502,343.175821 C196.312765,343.517383 195.42404,343.182438 195.082479,342.427702 C194.740917,341.672965 195.075862,340.78424 195.830598,340.442679 C196.470196,340.153224 197.137631,339.917802 197.829321,339.733048 Z"/><path id="Stroke-49" fill="#7C5B4D" fill-rule="nonzero" d="M216.134366,347.869444 C216.381545,347.681262 216.734474,347.729088 216.922656,347.976266 L217.109208,348.229727 L217.3383,348.552693 C217.418376,348.667465 217.501996,348.789217 217.588658,348.917546 C218.083182,349.649844 218.577519,350.44803 219.039466,351.286661 C219.797577,352.662958 220.392988,354.01144 220.763745,355.287778 C222.221998,360.307842 219.98679,363.38588 213.084333,363.118579 C212.773906,363.106557 212.532,362.845161 212.544021,362.534733 C212.556043,362.224306 212.817439,361.9824 213.127867,361.994421 C219.242382,362.231209 220.932947,359.903183 219.683402,355.601601 C219.33856,354.414475 218.775264,353.138727 218.05407,351.829451 C217.609662,351.022661 217.132905,350.25286 216.656335,349.547148 L216.416088,349.197016 L216.092593,348.74488 C216.064171,348.706328 216.042319,348.677141 216.027544,348.657734 C215.839362,348.410555 215.887188,348.057626 216.134366,347.869444 Z"/><path id="Stroke-51" fill="#51342D" fill-rule="nonzero" d="M202.096797,349.755134 C203.931373,349.824401 205.297388,351.571862 205.219449,353.603846 C205.203573,354.017755 204.855163,354.340425 204.441254,354.324549 C204.027345,354.308673 203.704675,353.960263 203.720551,353.546354 C203.76867,352.291817 202.985341,351.289751 202.039364,351.254034 C201.094136,351.217286 200.235007,352.155901 200.186949,353.408846 C200.171073,353.822755 199.822663,354.145425 199.408754,354.129549 C198.994845,354.113673 198.672175,353.765263 198.688051,353.351354 C198.763353,351.388124 200.165623,349.793418 201.914665,349.753652 L202.096797,349.755134 Z"/><path id="Stroke-53" fill="#51342D" fill-rule="nonzero" d="M225.888804,350.675715 C227.723076,350.746949 229.088572,352.494336 229.010649,354.525896 C228.994773,354.939805 228.646363,355.262475 228.232454,355.246599 C227.818545,355.230723 227.495875,354.882313 227.511751,354.468404 C227.55987,353.213885 226.776412,352.211316 225.831372,352.174615 C224.88549,352.138863 224.026206,353.077987 223.978149,354.330896 C223.962273,354.744805 223.613863,355.067475 223.199954,355.051599 C222.786045,355.035723 222.463375,354.687313 222.479251,354.273404 C222.554536,352.310609 223.956294,350.715925 225.706541,350.67442 L225.888804,350.675715 Z"/><path id="Fill-55" fill="#B69882" d="M225.15065,364.28225 L225.96365,390.82175 C226.42715,405.95375 215.01965,418.82675 199.94165,420.18725 C183.34715,421.68425 168.99065,408.74075 168.76865,392.08025 L168.40115,364.70375 L225.15065,364.28225 Z"/><path id="Fill-57" fill="#51342D" d="M226.3598,369.55055 C226.3598,369.55055 226.0478,363.05705 217.0673,362.14655 C209.3093,361.35905 204.2888,362.91605 201.3308,368.29955 C198.3728,373.68305 215.3978,368.84405 215.3978,368.84405 C215.3978,368.84405 228.4178,375.58655 226.3598,369.55055"/><path id="Fill-59" fill="#B69882" d="M160.6631,357.16895 C161.3696,363.40745 165.5066,368.06045 169.9031,367.56245 C174.3011,367.06445 177.2921,361.60445 176.5871,355.36595 C175.8821,349.12895 171.7436,344.47445 167.3471,344.97245 C162.9491,345.47045 159.9566,350.93045 160.6631,357.16895"/><path id="Stroke-61" fill="#7C5B4D" fill-rule="nonzero" d="M186.141413,385.808222 C186.272182,385.526425 186.606632,385.403993 186.888428,385.534763 C199.295029,391.292113 210.212677,391.765453 219.05502,389.130496 C220.140809,388.806938 221.089094,388.460918 221.893231,388.115854 L222.22138,387.971665 C222.519816,387.837173 222.7288,387.732869 222.845516,387.668658 C223.117705,387.518915 223.459748,387.618177 223.609492,387.890366 C223.759235,388.162555 223.659973,388.504598 223.387784,388.654342 L223.203502,388.750074 L223.110794,388.796057 C222.892273,388.90331 222.634024,389.022174 222.336861,389.14969 C221.493622,389.511533 220.504591,389.872421 219.3763,390.208644 C210.281081,392.918957 199.081829,392.433408 186.414872,386.555237 C186.133075,386.424468 186.010643,386.090018 186.141413,385.808222 Z"/><path id="Stroke-63" fill="#7C5B4D" fill-rule="nonzero" d="M211.782584,383.358957 C212.061802,383.34446 212.304017,383.536149 212.36141,383.800798 L212.374115,383.90419 L212.376831,383.982585 C212.386653,384.337368 212.375847,384.79202 212.328672,385.311103 C212.258506,386.083152 212.119585,386.846034 211.894275,387.565292 C211.243861,389.641614 209.980191,391.04682 207.970696,391.368623 C207.663944,391.417747 207.37545,391.208898 207.326327,390.902146 C207.277203,390.595394 207.486052,390.3069 207.792804,390.257777 C209.317485,390.013613 210.285689,388.936966 210.820715,387.228997 C211.019956,386.592958 211.144888,385.906902 211.208289,385.20928 C211.236867,384.894836 211.250734,384.607349 211.254237,384.357922 L211.250007,383.949866 C211.233899,383.639623 211.472342,383.375064 211.782584,383.358957 Z"/><path id="Stroke-65" fill="#7C5B4D" fill-rule="nonzero" d="M167.379312,350.078125 C168.043285,350.103951 168.993291,350.341137 169.947004,350.98128 C171.621129,352.104973 172.576898,354.082087 172.463033,357.03686 C172.45298,357.297726 172.264766,357.517391 172.008525,357.567318 C169.969725,357.96456 169.068385,358.588841 168.982497,359.327367 C168.907093,359.975739 169.405269,360.874211 170.404018,361.935135 C170.61696,362.161333 170.606213,362.517326 170.380015,362.730268 C170.153817,362.94321 169.797824,362.932463 169.584882,362.706265 C168.37586,361.421977 167.73974,360.274721 167.865028,359.197408 C168.009832,357.95229 169.134661,357.085155 171.245201,356.581447 L171.346,356.558 L171.346032,356.394472 C171.31189,354.265124 170.619566,352.869809 169.478405,352.026907 L169.32003,351.915372 C168.880031,351.62004 168.406175,351.421833 167.932465,351.303563 C167.652563,351.23368 167.441381,351.20639 167.335588,351.202275 C167.025162,351.190201 166.783301,350.928763 166.795375,350.618338 C166.807449,350.307912 167.068887,350.066051 167.379312,350.078125 Z"/><path id="Fill-67" fill="#E4EBF7" d="M127.55915,577.21265 C128.30615,577.60715 256.06715,576.78965 256.06715,576.78965 C290.13515,558.62915 271.99865,513.57965 271.99865,513.57965 C274.55015,499.47815 270.42515,474.58415 270.42515,474.58415 C281.44265,439.60415 266.93165,409.12115 266.93165,409.12115 C247.88315,402.36365 235.27415,400.10765 225.54215,398.14115 C215.30765,396.07265 211.19165,418.80215 200.05865,417.86615 C186.64565,416.73815 179.78765,392.96915 165.70865,395.06615 C149.39915,397.49615 135.16115,405.74315 120.07265,412.07765 C104.90615,424.46315 108.20165,493.81265 116.57765,537.51215 C116.57765,537.51215 107.28665,566.51315 127.55915,577.21265"/><path id="Fill-69" fill="#FFF" d="M231.08615,408.3419 C231.08615,408.3419 220.08665,461.3984 207.76715,485.4944 C182.44265,429.4709 165.81815,395.6444 164.99165,395.4674 L201.23915,415.4399 L231.08615,408.3419 Z"/><polygon id="Fill-71" fill="#253368" points="216.575 423.713 204.213 413.084 189.072 423.427 196.052 435.013 213.002 436.33"/><polygon id="Fill-73" fill="#253368" points="220.755 455.579 212.715 436.139 195.866 434.924 190.737 447.57 208.929 488.802"/><polygon id="Fill-75" fill="#FFF" points="224.249 429.094 202.794 413.434 226.133 399.025 229.52 402.939"/><polygon id="Fill-77" fill="#FFF" points="202.794 413.434 182.084 426.622 164.57 395.437 169.146 390.685"/><polygon id="Fill-79" fill="#FFF" points="224.996 430.248 203.666 413.074 225.277 394.017 232.018 399.267"/><path id="Stroke-81" fill="#E4EBF7" fill-rule="nonzero" d="M232.854421,398.967966 L225.246934,393.043132 L202.502632,413.100491 L225.461949,431.585809 L232.854421,398.967966 Z M225.306,394.99 L231.181,399.566 L224.53,428.909 L204.829,413.048 L225.306,394.99 Z"/><polygon id="Fill-83" fill="#FFF" points="203.666 413.074 181.486 428.808 163.963 395.788 168.947 389.131"/><path id="Stroke-85" fill="#E4EBF7" fill-rule="nonzero" d="M204.974975,413.065438 L168.779427,388.104177 L163.077434,395.719418 L181.223615,429.913211 L204.974975,413.065438 Z M169.115,390.157 L202.357,413.082 L181.748,427.702 L164.848,395.856 L169.115,390.157 Z"/><path id="Stroke-87" fill="#96A7CA" fill-rule="nonzero" d="M207.766356,489.180203 C208.145594,489.161576 208.472854,489.427995 208.540416,489.791193 L208.552247,489.892506 L209.929,517.931 L210.135548,518.493231 L210.380983,519.189189 C210.50865,519.557636 210.643475,519.956453 210.784263,520.384143 C211.453723,522.417853 212.122837,524.688963 212.747273,527.142212 C214.671678,534.702704 215.762057,542.299046 215.586758,549.404457 C215.29897,561.069363 211.616191,570.192683 203.702385,575.715827 C203.362715,575.952886 202.895183,575.869704 202.658123,575.530035 C202.421064,575.190365 202.504246,574.722833 202.843915,574.485773 C210.307264,569.27701 213.810107,560.599444 214.087214,549.367461 C214.258685,542.417211 213.186902,534.950421 211.293624,527.512215 C210.746451,525.362513 210.164597,523.355085 209.579132,521.529255 L209.359473,520.853158 C209.22126,520.433288 209.089041,520.042173 208.964013,519.681322 L208.723897,519.000419 C208.609646,518.682426 208.528637,518.465202 208.486406,518.355723 C208.467226,518.306001 208.453428,518.254448 208.445198,518.201947 L208.437053,518.122594 L207.054053,489.966094 C207.033732,489.55238 207.352641,489.200524 207.766356,489.180203 Z"/><path id="Stroke-89" fill="#96A7CA" fill-rule="nonzero" d="M163.134272,395.127945 C163.481965,394.902818 163.946328,395.002178 164.171455,395.349872 L164.652034,396.10003 C169.188508,403.254256 175.150843,414.674777 182.20569,429.454819 L183.436577,432.044331 C184.262839,433.789697 185.100305,435.572752 185.948164,437.391317 L186.585994,438.761865 C191.411809,449.149949 196.368864,460.229443 201.216411,471.354889 L203.483458,476.579642 C204.153219,478.129756 204.799891,479.632393 205.421364,481.081904 L207.437034,485.803955 L208.409,488.098 L208.488548,487.930712 C212.455734,479.387924 216.259449,467.834727 219.858445,453.998883 L220.098074,453.07312 C222.984986,441.865293 225.572409,429.853329 227.822178,417.840873 L228.351566,414.979152 C228.865103,412.167904 229.33091,409.511768 229.747425,407.044029 L230.281257,403.81708 L230.595932,401.829193 C230.658233,401.419692 231.040705,401.138231 231.450207,401.200532 C231.825583,401.257642 232.09337,401.583783 232.088029,401.953164 L232.073018,402.093152 L231.762085,404.056137 C231.667275,404.642692 231.563321,405.27718 231.450332,405.957266 L231.085501,408.125208 C230.561714,411.199917 229.964455,414.550739 229.296543,418.117001 C227.041063,430.15995 224.44686,442.203391 221.55066,453.447277 L221.057837,455.341446 C217.269614,469.754919 213.253892,481.661379 209.039857,490.259085 C208.773001,490.803538 208.019581,490.813762 207.724376,490.31768 L207.667621,490.202015 L206.204363,486.738722 L204.412191,482.53537 C203.312818,479.967211 202.130469,477.223316 200.877445,474.336649 C195.706399,462.423797 190.390189,450.51112 185.225619,439.393831 L183.955708,436.670023 C183.114345,434.872016 182.283606,433.110105 181.46431,431.386477 L180.10302,428.53594 C173.151815,414.049463 167.303355,402.946756 162.912345,396.165128 C162.687218,395.817435 162.786578,395.353072 163.134272,395.127945 Z"/><path id="Stroke-91" fill="#96A7CA" fill-rule="nonzero" d="M276.466487,441.878634 C276.880184,441.857971 277.232303,442.176589 277.252966,442.590287 C277.402817,445.590508 277.248228,449.246232 276.838589,453.418256 C276.537582,456.483908 276.107784,459.737853 275.582522,463.079097 C275.259419,465.134389 274.916569,467.119805 274.570862,468.983715 L274.397849,469.905306 C274.256428,470.649593 274.125067,471.318746 274.007117,471.902499 L273.871,472.565 L273.795778,474.774536 C273.737162,476.584711 273.678542,478.600793 273.623828,480.770606 C273.485251,486.266272 273.395756,491.757654 273.377287,496.951361 L273.373792,498.671169 C273.370372,505.926362 273.51568,511.983707 273.838193,516.445328 L273.866,516.82 L274.046337,517.412817 C280.648407,539.398519 277.658851,556.094618 268.576795,568.073467 L268.296873,568.438693 C266.267624,571.057936 264.09214,573.223361 261.913931,574.962581 C261.258153,575.486195 260.64139,575.939042 260.074858,576.323297 L259.795829,576.509719 C259.405985,576.766163 259.122788,576.93652 258.964009,577.024217 C258.880743,577.070207 258.78975,577.099796 258.695952,577.111716 L258.6014,577.1177 L120.07159,577.1177 C119.605583,577.1177 118.835028,577.024444 117.859695,576.755486 C116.251863,576.31211 114.646584,575.518398 113.151144,574.288466 C106.69261,568.976612 104.370742,557.721266 108.38584,538.758892 L108.616,537.696 L108.406016,536.676995 C104.264415,516.274128 103.60674,496.220218 105.01393,478.701457 L105.097395,477.693587 L105.203524,476.498931 C105.311081,475.335724 105.422553,474.267439 105.534632,473.29919 L105.65944,472.263876 L105.816771,471.093954 C105.878487,470.684364 106.260556,470.402356 106.670146,470.464071 C107.079736,470.525787 107.361744,470.907856 107.300029,471.317446 L107.179718,472.199792 L107.080019,473.002173 C106.913747,474.38754 106.74735,475.999618 106.591966,477.821085 C105.060194,495.777122 105.70987,516.50614 110.116971,537.546945 C110.138839,537.651352 110.138184,537.759222 110.11505,537.863356 C105.848333,557.0688 108.018227,568.124715 114.103963,573.12996 C115.428581,574.219399 116.844792,574.919628 118.258451,575.30946 C118.74983,575.444962 119.204047,575.532015 119.608497,575.580371 C119.749174,575.597191 119.862983,575.607203 119.946774,575.612559 L120.0734,575.6177 L258.4,575.617 L258.692149,575.437191 L258.971478,575.256545 C259.574916,574.859597 260.249668,574.371935 260.977987,573.790399 C263.066617,572.122706 265.157971,570.041022 267.111105,567.520024 C276.114735,555.89863 279.140559,539.58779 272.608439,517.839958 L272.407567,517.179268 L272.37661,517.016234 L272.309198,516.083994 C272.017359,511.787496 271.880407,506.129537 271.873971,499.420249 L271.873792,498.670462 C271.876212,493.534102 271.952238,488.069045 272.079877,482.567568 L272.208964,477.594424 L272.374934,472.443412 L272.390727,472.316058 L272.683249,470.871312 C272.759464,470.48445 272.840028,470.068372 272.924214,469.625303 C273.325274,467.514552 273.72639,465.227309 274.100721,462.84615 C274.621756,459.53179 275.047842,456.305948 275.345768,453.27168 C275.748785,449.167095 275.90045,445.580538 275.754834,442.665113 C275.734171,442.251416 276.052789,441.899297 276.466487,441.878634 Z"/><path id="Stroke-93" fill="#96A7CA" fill-rule="nonzero" d="M196.992885,505.131777 L222.501885,508.610277 C222.9123,508.666243 223.199638,509.04432 223.143673,509.454735 C223.092371,509.830949 222.770406,510.103744 222.400978,510.10349 L222.299215,510.096523 L196.790215,506.618023 C196.3798,506.562057 196.092462,506.18398 196.148427,505.773565 C196.199729,505.397351 196.521694,505.124556 196.891122,505.12481 L196.992885,505.131777 Z"/><path id="Stroke-95" fill="#96A7CA" fill-rule="nonzero" d="M211.728833,516.394061 C218.92239,516.051881 224.987657,516.500521 229.578264,517.913016 C229.974161,518.03483 230.196349,518.454518 230.074534,518.850414 C229.95272,519.246311 229.533032,519.468499 229.137136,519.346684 C224.7431,517.994673 218.835619,517.557705 211.800104,517.892367 C206.598617,518.139789 201.029117,518.794843 195.386302,519.732058 C193.105146,520.110935 190.946789,520.513865 188.961067,520.919384 L188.224611,521.071533 C187.587938,521.204596 187.008977,521.329689 186.492852,521.444598 L185.47173,521.67814 C185.068954,521.774807 184.664076,521.526656 184.56741,521.12388 C184.470743,520.721104 184.718894,520.316226 185.12167,520.21956 L185.860579,520.049095 C186.357703,519.936917 186.918794,519.814133 187.538748,519.682954 L187.917744,519.603257 C190.121701,519.142633 192.552777,518.68213 195.140534,518.252329 C200.836919,517.306217 206.462483,516.644569 211.728833,516.394061 Z"/><path id="Fill-97" fill="#4E5C93" d="M304.091185,643.77815 L304.091185,643.77815 C303.9599,623.18315 287.6219,606.34865 267.0419,605.60315 L165.0329,601.90265 C141.9074,601.06415 122.6624,619.50065 122.506972,642.64115 C122.3549,665.64665 141.1409,684.28415 164.1449,683.94815 L266.2079,682.46015 C287.3129,682.15265 304.2239,664.88465 304.091185,643.77815"/><path id="Stroke-99" fill="#96A7CA" fill-rule="nonzero" d="M148.272801,462.008745 C148.652378,462.018478 148.959021,462.308389 148.999516,462.675591 L149.003816,462.777501 L147.736316,513.458001 C147.725959,513.872085 147.381883,514.199372 146.967799,514.189255 C146.588222,514.179522 146.281579,513.889611 146.241084,513.522409 L146.236784,513.420499 L147.504284,462.739999 C147.514641,462.325915 147.858717,461.998628 148.272801,462.008745 Z"/><path id="Stroke-101" fill="#3B4A7A" fill-rule="nonzero" d="M261.13385,582.2876 C261.548064,582.2876 261.88385,582.623386 261.88385,583.0376 C261.88385,583.417296 261.601696,583.731091 261.235621,583.780753 L261.13385,583.7876 L118.80635,583.7876 C118.392136,583.7876 118.05635,583.451814 118.05635,583.0376 C118.05635,582.657904 118.338504,582.344109 118.704579,582.294447 L118.80635,582.2876 L261.13385,582.2876 Z"/><path id="Stroke-103" fill="#3B4A7A" fill-rule="nonzero" d="M158.124656,596.735669 L266.243156,602.648669 C266.656752,602.671289 266.9737,603.024911 266.951081,603.438506 C266.930346,603.817635 266.631478,604.115554 266.263236,604.145152 L266.161244,604.146431 L158.042744,598.233431 C157.629148,598.210811 157.3122,597.857189 157.334819,597.443594 C157.355554,597.064465 157.654422,596.766546 158.022664,596.736948 L158.124656,596.735669 Z"/><path id="Stroke-105" fill="#96A7CA" fill-rule="nonzero" d="M124.651824,413.763393 C124.852776,413.40119 125.309304,413.270471 125.671507,413.471424 L125.917663,413.6132 C126.062667,413.698428 126.224558,413.795865 126.402284,413.905454 L126.58525,414.019092 C127.298563,414.465215 128.091918,414.995874 128.945371,415.61 C131.380834,417.362507 133.815492,419.435364 136.089455,421.821029 C142.097535,428.124236 145.916768,435.437962 146.467987,443.702337 C146.495553,444.115632 146.182858,444.473021 145.769563,444.500587 C145.356268,444.528153 144.998879,444.215458 144.971313,443.802163 C144.446202,435.929225 140.788636,428.925089 135.003681,422.855965 C132.798117,420.542061 130.433283,418.52865 128.069252,416.827545 C127.380611,416.332014 126.73356,415.893395 126.139703,415.512472 L125.506233,415.115321 C125.2457,414.955928 125.055401,414.844997 124.943793,414.783076 C124.58159,414.582124 124.450871,414.125596 124.651824,413.763393 Z"/><path id="Fill-107" fill="#B69882" d="M191.29445,663.81215 C195.64595,662.15165 187.92695,642.93515 185.52245,638.99915 C182.31695,633.75365 152.80595,617.43815 152.80595,617.43815 L147.62045,594.25415 L120.43895,605.33615 C120.43895,605.33615 124.61795,630.91115 132.27845,644.09465 C137.99495,653.93315 147.71645,651.82715 161.54495,664.85315 C167.94245,670.88165 175.95245,677.26265 179.21495,672.45215 C179.85695,671.50415 186.51245,673.24865 185.65745,667.36715 C185.65745,667.36715 187.91945,669.13115 190.04945,667.34765 C191.90045,665.79965 191.29445,663.81215 191.29445,663.81215"/><path id="Stroke-109" fill="#7C5B4D" fill-rule="nonzero" d="M156.014642,649.91546 C156.147157,649.634481 156.48236,649.514126 156.76334,649.646642 L157.335177,649.931745 L157.473457,650.00329 C158.03073,650.29309 158.65089,650.634069 159.318311,651.024233 C161.224699,652.138676 163.131123,653.425428 164.912884,654.869571 C166.525063,656.176265 167.957229,657.551524 169.161777,658.990901 L179.859762,671.773883 C180.059146,672.012117 180.027652,672.366877 179.789417,672.566262 C179.551183,672.765646 179.196423,672.734152 178.997038,672.495917 L168.299023,659.712899 C167.144273,658.333027 165.763562,657.007179 164.204513,655.743548 C162.470831,654.338374 160.610709,653.082873 158.750551,651.995455 C158.229855,651.691065 157.739176,651.417657 157.286585,651.176345 L156.701018,650.87093 C156.509657,650.773476 156.368559,650.704293 156.28346,650.664158 C156.002481,650.531643 155.882126,650.19644 156.014642,649.91546 Z"/><path id="Stroke-111" fill="#7C5B4D" fill-rule="nonzero" d="M163.288202,641.555761 C163.479645,641.3111 163.833178,641.267958 164.077839,641.459402 L164.688363,641.950938 L165.292102,642.450795 C165.606227,642.713829 165.938082,642.996174 166.284726,643.296269 C167.935371,644.725259 169.586107,646.264245 171.128342,647.856111 C172.889461,649.673905 174.395999,651.446053 175.570428,653.134131 L176.232017,654.078642 C176.687792,654.725291 177.172553,655.405342 177.683658,656.115514 L178.642123,657.440211 C179.886978,659.152143 181.206197,660.935672 182.537839,662.714132 L184.598983,665.44992 L185.471843,666.596969 C185.660686,666.843643 185.613805,667.1967 185.367131,667.385543 C185.120457,667.574386 184.7674,667.527505 184.578557,667.280831 L182.770798,664.897159 L182.438821,664.456319 C181.101855,662.679187 179.764854,660.881519 178.48954,659.139652 L177.160157,657.312813 L176.390358,656.243175 C175.76543,655.370742 175.182603,654.546477 174.646955,653.776645 C173.511128,652.14405 172.042391,650.416369 170.320351,648.638911 C168.803084,647.072816 167.175783,645.555679 165.548391,644.146819 L164.885397,643.579064 C164.77846,643.488508 164.673377,643.400027 164.570258,643.313678 L163.384561,642.345398 C163.1399,642.153955 163.096758,641.800422 163.288202,641.555761 Z"/><path id="Stroke-113" fill="#7C5B4D" fill-rule="nonzero" d="M169.837538,635.745037 C170.011846,635.487886 170.361613,635.42073 170.618763,635.595038 L170.856315,635.759903 C170.957956,635.831541 171.081495,635.919664 171.225254,636.023673 L171.822606,636.46333 C172.133365,636.695797 172.461606,636.946994 172.804429,637.215892 C174.436498,638.496029 176.068562,639.915239 177.593578,641.436295 C180.537689,644.37276 182.725172,647.328357 183.841644,650.210897 C184.399722,651.651013 185.019204,653.064536 185.689651,654.445525 C186.76278,656.655962 187.912612,658.678037 189.061847,660.468279 L189.529224,661.18315 C189.679952,661.40936 189.82541,661.623375 189.964978,661.824849 L190.423518,662.471374 C190.492758,662.566298 190.546274,662.637999 190.582857,662.685804 C190.771654,662.932513 190.724706,663.285561 190.477996,663.474357 C190.231287,663.663154 189.878239,663.616206 189.689443,663.369496 L189.438858,663.029886 C189.383008,662.952489 189.320353,662.864826 189.251251,662.767094 C188.907957,662.281563 188.526026,661.716103 188.115129,661.07602 C186.942871,659.249915 185.77121,657.189452 184.677612,654.936853 C183.994032,653.528812 183.362196,652.087101 182.79262,650.617312 C181.742783,647.906813 179.641895,645.068218 176.799118,642.232823 C175.30836,640.745937 173.709237,639.355372 172.110119,638.101081 C171.662485,637.749973 171.240624,637.429972 170.851454,637.143584 L170.121509,636.618634 C170.066721,636.580403 170.021897,636.549553 169.987537,636.526262 C169.730386,636.351954 169.66323,636.002187 169.837538,635.745037 Z"/><path id="Fill-115" fill="#E4EBF7" d="M114.6977,553.3064 L114.6977,553.3064 C96.9107,551.4299 83.8562,535.7234 85.2647,517.8929 L91.0787,444.3404 C92.5847,425.2949 109.2632,411.0869 128.3072,412.6274 C147.8687,414.2099 162.1862,431.7509 159.8177,451.2329 L150.9137,524.4749 C148.7387,542.3609 132.6167,555.1964 114.6977,553.3064"/><g id="分组" transform="translate(84.500000, 494.804000)"><mask id="mask-2" fill="#fff"><use xlink:href="#path-1"/></mask><path id="Fill-117" fill="#E4EBF7" d="M68.9121,130.0212 L40.8291,136.3317 C33.5076,137.9772 26.1906,133.5657 24.2271,126.3237 L0.7926,39.8907 C-3.1194,22.4802 7.8231,5.1957 25.2321,1.2837 C42.6426,-2.6283 59.9271,8.3127 63.8391,25.7232 L79.6356,113.8722 C80.9601,121.2582 76.2321,128.3757 68.9121,130.0212" mask="url(#mask-2)"/></g><path id="Stroke-119" fill="#96A7CA" fill-rule="nonzero" d="M127.156798,420.921207 C127.326456,420.543332 127.770319,420.37454 128.148193,420.544198 C137.12332,424.573857 143.820236,430.376914 148.528549,437.48763 C151.877501,442.545376 154.029192,447.961353 155.224587,453.377378 C155.643263,455.27429 155.912626,457.037112 156.062506,458.621605 L156.116968,459.26012 C156.139941,459.564316 156.156705,459.845657 156.168063,460.102946 L156.179513,460.445946 C156.180427,460.496644 156.180833,460.544925 156.180715,460.592018 L156.178775,460.730952 L149.511,519.849 L164.728591,607.993445 C166.053482,615.676256 161.181062,623.044694 153.638101,624.859783 L153.322275,624.932184 L125.198839,631.06417 C117.476067,632.748736 109.795977,628.052204 107.776393,620.410023 C107.670562,620.009557 107.909412,619.599123 108.309877,619.493293 C108.710343,619.387462 109.120777,619.626312 109.226607,620.026777 C111.013948,626.790141 117.736118,630.985517 124.568599,629.662561 L124.879225,629.598616 L153.002804,623.466599 C159.837029,621.97725 164.321907,615.445826 163.300657,608.56164 L163.250433,608.248496 L148.014933,520.000496 L148.008725,519.788848 L154.6835,460.6469 L154.675022,460.302957 L154.669522,460.169096 C154.651682,459.764958 154.619447,459.294354 154.569172,458.762863 C154.4249,457.237659 154.16479,455.535392 153.75984,453.700669 C152.602019,448.454878 150.517921,443.209041 147.277868,438.315759 C142.723484,431.437512 136.245065,425.823789 127.533807,421.912602 C127.155932,421.742944 126.98714,421.299081 127.156798,420.921207 Z"/><path id="Stroke-121" fill="#96A7CA" fill-rule="nonzero" d="M317.629258,452.248531 C317.913502,451.947237 318.388174,451.933414 318.689469,452.217658 C318.963373,452.476062 318.999697,452.891844 318.790481,453.191672 L318.720342,453.277869 L290.563842,483.123369 C290.279598,483.424663 289.804926,483.438486 289.503631,483.154242 C289.229727,482.895838 289.193403,482.480056 289.402619,482.180228 L289.472758,482.094031 L317.629258,452.248531 Z"/></g></svg>