<svg xmlns="http://www.w3.org/2000/svg" xmlns:xlink="http://www.w3.org/1999/xlink" width="512" height="1024" version="1.1" viewBox="0 0 512 1024"><title>2.人物组件/7.设计师/站立/思考</title><desc>Created with Sketch.</desc><defs><polygon id="path-1" points=".61 1.251 60.687 1.251 60.687 10.5 .61 10.5"/><polygon id="path-3" points="0 .36 60.127 .36 60.127 10.159 0 10.159"/></defs><g id="2.人物组件/7.设计师/站立/思考" fill="none" fill-rule="evenodd" stroke="none" stroke-width="1"><path id="Fill-1" fill="#253368" d="M177.48445,288.5905 C177.48445,288.5905 161.63845,286.291 157.45045,303.043 C142.09495,308.626 146.28295,325.3765 146.28295,325.3765 C146.28295,325.3765 138.56995,338.536 153.89095,345.2785 C155.11645,358.759 170.43745,356.3095 170.43745,356.3095 C170.43745,356.3095 174.11395,366.727 185.75845,362.437 C198.32245,372.208 221.99845,370.2475 230.40445,358.3015 C247.07395,370.7455 276.07945,355.5565 272.44195,344.197 C291.90895,343.018 301.34845,322.3705 289.94095,304.831 C298.70395,290.9575 288.71395,282.769 288.71395,282.769 C288.71395,282.769 291.47245,250.9015 269.41045,246.6115 C258.07345,229.4515 233.56045,243.241 233.56045,243.241 C233.56045,243.241 217.31995,239.8705 211.49695,253.966 C193.34995,256.756 194.20195,266.7325 192.80545,275.1085 C176.56645,276.028 177.48445,288.5905 177.48445,288.5905"/><path id="Fill-3" fill="#FFC999" d="M182.90005,440.5123 L182.01505,440.1943 C173.89555,437.2708 169.68205,428.3203 172.60555,420.2008 L200.69905,342.1498 C203.62105,334.0318 212.57155,329.8183 220.69105,332.7403 L221.57605,333.0598 C229.69555,335.9818 233.90905,344.9323 230.98705,353.0518 L202.89205,431.1043 C199.97005,439.2223 191.01955,443.4343 182.90005,440.5123"/><path id="Fill-5" fill="#597EF7" d="M219.08455,386.1169 L231.03805,352.9069 C233.91955,344.9014 229.46305,335.8984 221.13355,332.8999 C212.80405,329.9014 203.63305,333.9994 200.75005,342.0049 L188.91205,374.8999 L219.08455,386.1169 Z"/><path id="Stroke-7" fill="#1D39C4" fill-rule="nonzero" d="M231.045991,352.909564 C231.131422,352.672215 231.393087,352.54906 231.630436,352.634491 C231.841413,352.710429 231.962162,352.925615 231.92639,353.139194 L231.905509,353.218936 L219.952009,386.428936 C219.875511,386.641468 219.657896,386.762178 219.443193,386.72419 L219.363097,386.702375 L189.189097,375.485375 C188.95265,375.397477 188.832227,375.134544 188.920125,374.898097 C188.998256,374.687922 189.214687,374.56942 189.427883,374.607415 L189.507403,374.629125 L219.248,385.685 L231.045991,352.909564 Z"/><path id="Fill-9" fill="#FFC999" d="M267.37165,801.92365 L267.37165,801.92365 C274.05565,802.08115 279.67165,796.93165 280.09465,790.25965 L289.13965,647.51815 C289.79065,637.23565 281.75965,628.47565 271.45915,628.23415 C261.15715,627.99115 252.72265,636.36415 252.89065,646.66615 L255.20965,789.67315 C255.31765,796.36015 260.68615,801.76765 267.37165,801.92365"/><path id="Fill-11" fill="#FFC999" d="M274.5964,494.90785 L274.5964,494.90785 C286.7344,495.19285 296.2549,505.41535 295.6819,517.54135 L289.5079,647.91835 C289.0339,657.96085 280.6309,665.78785 270.5809,665.55235 C260.5309,665.31535 252.5044,657.10135 252.5029,647.04835 L252.471399,516.52585 C252.4684,504.38485 262.4599,494.62285 274.5964,494.90785"/><polygon id="Fill-13" fill="#597EF7" points="279.813 808.651 256.327 808.956 254.524 771.826 281.485 771.476"/><path id="Stroke-15" fill="#DFE5F1" fill-rule="nonzero" d="M281.282112,778.119615 C281.707888,778.114098 282.057519,778.454786 282.063101,778.880562 C282.068092,779.270856 281.782241,779.597168 281.406608,779.653092 L281.302088,779.661485 L256.409588,779.983985 C255.983812,779.989502 255.634181,779.648814 255.628599,779.223038 C255.623608,778.832744 255.909459,778.506432 256.285092,778.450508 L256.389612,778.442115 L281.282112,778.119615 Z"/><path id="Fill-17" fill="#4E5C93" d="M282.133,803.15685 L256.315,803.49135 L255.622,850.80435 L313.7995,850.04985 L313.849022,842.78685 C313.8565,840.11685 311.9515,837.82485 309.325,837.34635 L293.821,833.00535 L285.829,828.59085 C283.42,827.26185 281.9395,824.72385 281.977,821.97285 C282.055,816.06135 282.178,806.03535 282.133,803.15685"/><g id="分组" transform="translate(254.500000, 841.839000)"><mask id="mask-2" fill="#fff"><use xlink:href="#path-1"/></mask><path id="Fill-19" fill="#E4EBF7" d="M1.7037,10.5 L59.7042,9.747 C60.2532,9.741 60.6942,9.288 60.6867943,8.739 L60.6027,2.235 C60.5952,1.6845 60.1437,1.245 59.5947,1.25093929 L1.5942,2.004 C1.0437,2.0115 0.6042,2.463 0.610139291,3.012 L0.6957,9.5175 C0.7017,10.0665 1.1547,10.5075 1.7037,10.5" mask="url(#mask-2)"/></g><path id="Fill-21" fill="#E4EBF7" d="M314.0944,843.09075 L314.0944,843.09075 C314.0419,838.99125 311.0209,835.53525 306.9664,834.93375 L293.8204,832.98375 L293.0854,843.21975 L314.0944,843.09075 Z"/><path id="Stroke-23" fill="#96A7CA" fill-rule="nonzero" d="M314.089289,842.696283 C314.307147,842.69346 314.486044,842.867781 314.488901,843.085639 C314.491337,843.276265 314.358181,843.437061 314.178906,843.476173 L314.099511,843.485217 L256.099011,844.236717 C255.881153,844.23954 255.702256,844.065219 255.699399,843.847361 C255.696963,843.656735 255.830119,843.495939 256.009394,843.456827 L256.088789,843.447783 L314.089289,842.696283 Z"/><path id="Stroke-25" fill="#E4EBF7" fill-rule="nonzero" d="M281.542876,819.582977 C281.968065,819.487612 282.390058,819.754987 282.485423,820.180176 C282.572841,820.569933 282.355457,820.957004 281.991115,821.092264 L281.582263,821.202672 C281.323353,821.275376 281.033231,821.366936 280.719935,821.478522 C279.824157,821.797569 278.928732,822.210961 278.098177,822.725844 C277.765566,822.932038 277.451005,823.150035 277.156438,823.379926 L277.04,823.474 L277.067004,823.477834 C277.477741,823.533301 277.922887,823.604445 278.399855,823.68991 L278.763506,823.756672 C279.249806,823.848007 279.75787,823.95154 280.281393,824.065031 C280.764189,824.169693 281.244126,824.279268 281.711795,824.390485 L283.206469,824.761872 C283.2363,824.769696 283.263475,824.776874 283.287901,824.783372 C283.956971,824.961373 284.088716,825.853279 283.499684,826.217117 L283.311378,826.342434 L283.238043,826.393608 C283.013749,826.551521 282.762014,826.742132 282.489703,826.965205 C281.930497,827.423299 281.370492,827.946566 280.829466,828.534102 L280.754,828.618 L280.909306,828.617699 C281.196899,828.619378 281.492766,828.627125 281.796503,828.640687 L282.25796,828.66536 C283.54751,828.745316 284.919143,828.919105 286.31131,829.158581 C286.824965,829.246938 287.316641,829.340024 287.77833,829.434342 L288.686375,829.629769 C288.812841,829.65856 288.912759,829.682189 288.983736,829.699621 C289.816291,829.904097 289.771223,831.102671 288.925664,831.244048 L288.777746,831.274995 C288.62881,831.310746 288.417947,831.372249 288.162008,831.465873 C287.554173,831.688224 286.945376,832.007656 286.37945,832.439472 C285.820986,832.865593 285.33393,833.380114 284.936453,833.992774 C284.699289,834.358333 284.210685,834.462418 283.845126,834.225253 C283.479567,833.988089 283.375482,833.499485 283.612647,833.133926 C284.112001,832.364235 284.724015,831.717709 285.422225,831.184958 C285.582565,831.062615 285.742877,830.948774 285.90231,830.84301 L286.091,830.722 L286.043796,830.71374 C284.927182,830.521664 283.826536,830.373776 282.780828,830.285804 L282.160307,830.240336 C281.004364,830.168664 279.974775,830.181274 279.108247,830.28884 C278.422395,830.373979 277.966285,829.598731 278.373839,829.040573 C278.566004,828.777396 278.764692,828.520766 278.969321,828.270671 C279.656514,827.430794 280.385458,826.69241 281.121353,826.054871 L281.29,825.912 L280.652363,825.764019 L279.947073,825.607209 C279.437194,825.496676 278.943313,825.396034 278.472225,825.307555 C277.089639,825.047883 275.97642,824.906793 275.260461,824.915788 C274.588789,824.924226 274.214463,824.143 274.641885,823.624806 C275.353037,822.762625 276.242078,822.019866 277.266737,821.384653 C278.20066,820.80569 279.195747,820.346287 280.190482,819.991995 L280.615059,819.846905 C281.013712,819.71665 281.33169,819.630343 281.542876,819.582977 Z"/><path id="Stroke-27" fill="#E4EBF7" fill-rule="nonzero" d="M281.620152,812.617326 L281.565464,812.617679 C281.326019,812.619909 280.999074,812.629694 280.597261,812.651123 C280.003968,812.682764 279.361348,812.734255 278.681964,812.80974 C276.819029,813.016727 274.963057,813.369886 273.213078,813.904408 C268.209503,815.432723 264.89625,818.161683 264.245766,822.403762 C263.828624,825.124112 265.022849,826.489615 267.297795,826.114552 C268.879701,825.853748 271.018926,824.769037 273.631166,823.032682 C274.408999,822.515656 275.217662,821.947386 276.049828,821.33613 C277.458593,820.301341 278.867479,819.194013 280.21049,818.086785 L280.754005,817.635582 L281.962276,816.606198 C282.076163,816.535021 282.338592,816.3265 282.605318,816.056242 C283.057262,815.598312 283.359452,815.123903 283.423385,814.589043 C283.527827,813.715276 282.957157,813.035456 281.884467,812.661356 C281.799515,812.631728 281.710121,812.61685 281.620152,812.617326 Z M281.487,814.196 C281.64817,814.262108 281.754778,814.324071 281.817592,814.377813 L281.853,814.413 L281.856538,814.401755 C281.844016,814.506517 281.709905,814.717058 281.482188,814.947791 C281.297337,815.13509 281.108189,815.285383 280.995654,815.362498 L279.993055,816.214191 C279.747013,816.421355 279.484282,816.64036 279.206685,816.869222 C277.884872,817.958974 276.498474,819.048627 275.115661,820.064353 C274.302451,820.661685 273.513745,821.215931 272.757639,821.718514 C270.3223,823.337284 268.337079,824.343906 267.041101,824.55757 C265.885616,824.748071 265.542833,824.356125 265.805534,822.642938 C266.3449,819.125511 269.187955,816.78383 273.674046,815.413578 C275.321537,814.91036 277.083964,814.575001 278.85622,814.378089 C279.651337,814.289745 280.351663,814.238614 280.921747,814.213824 L281.487,814.196 Z"/><path id="Fill-29" fill="#FFC999" d="M186.08605,803.96125 L186.08605,803.96125 C179.44855,803.14075 174.64555,798.72475 175.20355,792.06175 L187.11955,648.03325 C187.97905,637.76575 197.20405,630.27325 207.42955,631.53925 C217.65505,632.80525 224.77555,642.32125 223.10455,652.48825 L198.40705,795.12025 C197.32255,801.71725 192.72205,804.78325 186.08605,803.96125"/><path id="Fill-31" fill="#FFC999" d="M223.81315,499.1866 L223.81315,499.1866 C211.76515,497.6956 200.85115,506.4151 199.64815,518.4961 L186.69715,648.3751 C185.69965,658.3786 192.86665,667.3486 202.84465,668.5846 C212.82115,669.8191 221.96065,662.8666 223.43215,652.9216 L242.54215,523.8061 C244.31965,511.7956 235.86115,500.6791 223.81315,499.1866"/><polygon id="Fill-33" fill="#597EF7" points="171.81 808.088 196.791 808.614 203.415 771.506 176.458 770.9"/><path id="Stroke-35" fill="#DFE5F1" fill-rule="nonzero" d="M176.630278,777.544045 L201.518278,778.103545 C201.943982,778.113115 202.281325,778.465974 202.271954,778.891678 C202.262983,779.281907 201.965752,779.597888 201.588374,779.64047 L201.483622,779.645155 L176.595622,779.085655 C176.169918,779.076085 175.832575,778.723226 175.841946,778.297522 C175.850917,777.907293 176.148148,777.591312 176.525526,777.54873 L176.630278,777.544045 Z"/><path id="Fill-37" fill="#4E5C93" d="M171.4552,803.5717 L197.2687,804.1522 L192.5602,851.4682 L134.3932,850.1617 L134.4142,842.8987 C134.4292,840.2287 136.3582,837.9547 138.9877,837.5017 L154.5322,833.3077 L162.5662,828.9697 C164.9872,827.6632 167.1142,824.9992 167.9812,822.3892 C169.5847,817.5592 171.3817,806.4487 171.4552,803.5717"/><g id="分组" transform="translate(133.000000, 842.839000)"><mask id="mask-4" fill="#fff"><use xlink:href="#path-3"/></mask><path id="Fill-39" fill="#E4EBF7" d="M58.96455,10.15875 L0.97305,8.85525 C0.42405,8.84325 -0.01095,8.38725 -0.000636152183,7.83675 L0.14655,1.33425 C0.15855,0.78375 0.61455,0.34725 1.16505,0.36075 L59.15505,1.66425 C59.70405,1.67775 60.14055,2.13225 60.1273549,2.68275 L59.98305,9.18675 C59.96955,9.73575 59.51355,10.17075 58.96455,10.15875" mask="url(#mask-4)"/></g><path id="Fill-41" fill="#E4EBF7" d="M133.16475,843.1993 L133.16475,843.1993 C133.25775,839.1013 136.30875,835.6738 140.37075,835.1113 L153.53325,833.2858 L154.17075,843.5278 L133.16475,843.1993 Z"/><path id="Stroke-43" fill="#96A7CA" fill-rule="nonzero" d="M134.173626,842.8049 L192.163626,844.1099 C192.381447,844.114802 192.554052,844.295354 192.549252,844.513176 C192.544861,844.703769 192.406089,844.859744 192.22554,844.892476 L192.145874,844.8987 L134.155874,843.5937 C133.938053,843.588798 133.765448,843.408246 133.770248,843.190424 C133.774639,842.999831 133.913411,842.843856 134.09396,842.811124 L134.173626,842.8049 Z"/><path id="Stroke-45" fill="#E4EBF7" fill-rule="nonzero" d="M165.989151,823.589674 C166.088549,823.165409 166.513062,822.902053 166.937326,823.001451 L167.180862,823.063863 C167.457735,823.139839 167.831744,823.257032 168.277016,823.420156 C169.26221,823.781079 170.247715,824.246236 171.172569,824.829333 C172.201097,825.477793 173.091359,826.234282 173.799887,827.110572 C174.222296,827.632996 173.840172,828.410637 173.168513,828.395448 C172.451881,828.379243 171.335718,828.509826 169.948703,828.756786 C169.464903,828.842927 168.957204,828.941603 168.432982,829.050419 L167.73516,829.199065 L167.129,829.334 L167.281826,829.464929 C167.884435,829.996029 168.48228,830.596436 169.05557,831.266352 L169.396439,831.676645 C169.609463,831.940798 169.815913,832.212139 170.015116,832.490675 C170.417116,833.052776 169.953497,833.823442 169.26856,833.73166 C168.398705,833.615099 167.362928,833.592994 166.198729,833.654819 C165.160224,833.709969 164.057531,833.829228 162.931914,833.996388 L162.283,834.097 L162.445924,834.202828 L162.682319,834.367315 L162.919379,834.544035 C163.624349,835.087783 164.240013,835.747715 164.738559,836.533436 C164.972017,836.901373 164.863001,837.388901 164.495064,837.622359 C164.127127,837.855817 163.639599,837.746801 163.406141,837.378864 C163.009391,836.753575 162.519503,836.228463 161.955627,835.793541 C161.397506,835.363059 160.797148,835.042702 160.197798,834.817857 C159.844589,834.685352 159.578556,834.615663 159.445284,834.592065 C158.601081,834.442585 158.567552,833.243559 159.402084,833.047137 L159.969443,832.922745 L160.133518,832.888714 C160.704033,832.771486 161.331883,832.654376 161.998958,832.54507 C163.411434,832.313625 164.805232,832.148598 166.115046,832.07904 C166.585559,832.054053 167.038523,832.041827 167.472534,832.04322 L167.639,832.045 L167.540413,831.933418 C167.115168,831.464493 166.678004,831.036223 166.238868,830.64914 L165.909301,830.366559 C165.708683,830.199283 165.519442,830.050186 165.344423,829.919387 L164.988558,829.664824 C164.957615,829.643909 164.933769,829.628298 164.917452,829.618007 C164.33185,829.248672 164.471938,828.358037 165.142645,828.186307 L166.015439,827.972774 C166.68608,827.81346 167.395367,827.654167 168.112262,827.505356 C168.650453,827.393639 169.17268,827.29214 169.672088,827.20322 C170.166436,827.115201 170.629429,827.040911 171.058458,826.981688 L171.403,826.936 L171.275783,826.831477 C171.07897,826.675262 170.873099,826.524342 170.658762,826.378696 L170.330982,826.164179 C169.508275,825.645484 168.621393,825.226877 167.7342,824.901856 C167.501503,824.816608 167.281721,824.742658 167.078211,824.679549 L166.577374,824.537849 C166.153109,824.438451 165.889753,824.013938 165.989151,823.589674 Z"/><path id="Stroke-47" fill="#E4EBF7" fill-rule="nonzero" d="M166.920713,816.035775 C166.832508,816.035104 166.744805,816.049178 166.661255,816.077462 C165.194348,816.574052 164.749825,817.645076 165.353793,818.737632 C165.615562,819.211162 166.010223,819.610757 166.417086,819.929782 L166.612152,820.076119 L166.737372,820.192012 L167.748698,821.067441 C167.922117,821.21522 168.102701,821.368064 168.289917,821.525381 C169.627267,822.649153 171.030214,823.773029 172.43305,824.823294 C173.261645,825.44364 174.066844,826.02037 174.841362,826.54511 C177.431536,828.299966 179.555074,829.399355 181.130489,829.671051 C183.395824,830.061731 184.597731,828.706329 184.207238,825.987145 C183.603154,821.780627 180.371523,819.030728 175.457584,817.446232 C173.586534,816.842913 171.591005,816.4503 169.596924,816.22508 C169.039237,816.162092 168.513098,816.116031 168.026689,816.084293 L167.349963,816.04799 C167.159476,816.040156 167.014806,816.036597 166.920713,816.035775 Z M166.860819,817.679304 L167.039,817.615 L167.585808,817.638915 C168.138198,817.668239 168.755018,817.718024 169.419824,817.793111 C171.31693,818.007378 173.212588,818.380342 174.973312,818.948086 C179.374818,820.367348 182.144458,822.724124 182.645262,826.211455 C182.891264,827.924485 182.545975,828.313871 181.398672,828.116007 C180.109831,827.893733 178.140171,826.87401 175.726457,825.238706 C174.973677,824.728694 174.18843,824.166254 173.378777,823.560089 C172.277228,822.735389 171.173379,821.862663 170.101994,820.980277 L169.305085,820.317276 C168.936516,820.007569 168.594264,819.715645 168.28263,819.446279 L167.597959,818.846901 L167.514723,818.781566 C167.227684,818.57334 166.890975,818.256666 166.734824,817.974194 L166.686643,817.881336 C166.64726,817.790086 166.675339,817.750656 166.860819,817.679304 Z"/><path id="Fill-49" fill="#FFC999" d="M227.84005,273.0301 C240.56305,275.2636 244.43155,265.6351 244.43155,265.6351 C244.43155,265.6351 249.68155,252.0751 251.02555,260.4001 C251.74105,264.8236 258.57955,258.9541 261.72505,263.6701 C263.84155,266.8441 258.55105,270.9346 265.42705,279.3976 C269.41105,284.2996 253.69555,288.2116 263.39155,297.2491 C263.39155,297.2491 256.49605,308.2801 268.33855,311.8771 L269.59255,324.8116 C270.32305,332.3401 264.39955,338.8546 256.83655,338.842617 C249.62605,338.8321 243.84955,332.8666 244.06705,325.6591 L244.54705,309.8881 C226.16155,309.8881 225.26305,284.6206 227.84005,273.0301"/><path id="Stroke-51" fill="#F5222D" fill-rule="nonzero" d="M250.161493,286.500343 C250.469616,286.192219 250.969184,286.192219 251.277307,286.500343 C251.585431,286.808466 251.585431,287.308034 251.277307,287.616157 C250.864937,288.028527 250.117458,288.618931 249.065942,289.203712 C246.992747,290.356679 244.614493,290.956402 241.995779,290.702569 C241.562059,290.660529 241.24454,290.274849 241.286581,289.841129 C241.328621,289.407409 241.714301,289.08989 242.148021,289.131931 C244.422531,289.352399 246.488741,288.831365 248.298992,287.824628 C248.833026,287.527636 249.302748,287.210016 249.702751,286.894069 L249.910154,286.725383 C250.030515,286.624286 250.114805,286.54703 250.161493,286.500343 Z"/><path id="Stroke-53" fill="#DD936F" fill-rule="nonzero" d="M240.713958,274.319783 C240.739758,274.036071 240.967933,273.804705 241.261325,273.783841 C241.554717,273.762977 241.813336,273.959725 241.879025,274.236931 L241.894339,274.344186 L241.8961,274.382797 C241.916282,274.943406 241.815623,275.79783 241.494196,276.909503 C241.064301,278.396317 240.319813,280.022695 239.197248,281.764979 L239.002,282.062 L239.314252,282.254809 C240.392492,282.917779 241.341409,283.47346 242.163479,283.930226 L242.465814,284.096894 C242.844219,284.303796 243.165237,284.472611 243.429672,284.606061 L243.733658,284.75526 C244.030423,284.892148 244.160028,285.243693 244.02314,285.540458 C243.886252,285.837223 243.534707,285.966828 243.237942,285.82994 L242.990887,285.710018 L242.537961,285.478185 C242.345127,285.377262 242.131877,285.263165 241.898036,285.135306 C240.790144,284.529539 239.443738,283.738302 237.852314,282.739865 C237.565834,282.560131 237.48799,282.17728 237.681536,281.899945 C239.039277,279.954417 239.897586,278.170599 240.357266,276.580772 C240.61938,275.674239 240.713403,274.986005 240.715128,274.540762 L240.713958,274.319783 Z"/><path id="Stroke-55" fill="#373A65" fill-rule="nonzero" d="M258.44995,273.64015 C258.883632,273.64015 259.2352,273.991718 259.2352,274.4254 C259.2352,277.443114 256.964,279.91465 254.12695,279.91465 C251.289705,279.91465 249.0172,277.442879 249.0172,274.4254 C249.0172,273.991718 249.368768,273.64015 249.80245,273.64015 C250.236132,273.64015 250.5877,273.991718 250.5877,274.4254 C250.5877,276.603618 252.187916,278.34415 254.12695,278.34415 C256.065606,278.34415 257.6647,276.604005 257.6647,274.4254 C257.6647,273.991718 258.016268,273.64015 258.44995,273.64015 Z"/><path id="Stroke-57" fill="#373A65" fill-rule="nonzero" d="M237.7723,274.18015 C238.183614,274.18015 238.51705,274.513586 238.51705,274.9249 C238.51705,277.906193 236.476778,280.37365 233.8828,280.37365 C231.287423,280.37365 229.24555,277.906228 229.24555,274.9249 C229.24555,274.513586 229.578986,274.18015 229.9903,274.18015 C230.401614,274.18015 230.73505,274.513586 230.73505,274.9249 C230.73505,277.139312 232.178961,278.88415 233.8828,278.88415 C235.584929,278.88415 237.02755,277.139478 237.02755,274.9249 C237.02755,274.513586 237.360986,274.18015 237.7723,274.18015 Z"/><path id="Stroke-59" fill="#373A65" fill-rule="nonzero" d="M249.502794,265.007671 C252.502567,264.044365 255.675824,263.917156 258.672868,265.180675 C259.224662,265.413305 259.762004,265.691642 260.283338,266.01732 C260.651149,266.247091 260.763052,266.731528 260.53328,267.099338 C260.303509,267.467149 259.819072,267.579052 259.451262,267.34928 C259.001075,267.068049 258.537982,266.828172 258.062766,266.627826 C255.463077,265.531827 252.656807,265.644325 249.982972,266.502963 C249.532801,266.647525 249.126944,266.802038 248.773157,266.955741 L248.47394,267.09149 C248.424248,267.115273 248.386001,267.134453 248.359688,267.148334 C247.976107,267.350684 247.501117,267.203768 247.298766,266.820188 C247.096416,266.436607 247.243332,265.961617 247.626912,265.759266 L247.880965,265.632905 C248.262495,265.452684 248.812775,265.229254 249.502794,265.007671 Z"/><path id="Stroke-61" fill="#DD936F" fill-rule="nonzero" d="M255.529926,306.516459 C255.817026,306.360314 256.176347,306.466475 256.332491,306.753576 C256.488636,307.040676 256.382475,307.399997 256.095374,307.556141 C252.36154,309.586849 248.476122,310.611141 244.572388,310.665493 C244.245605,310.670042 243.977007,310.408821 243.972399,310.082038 C243.967908,309.755255 244.229129,309.486657 244.555912,309.482107 C248.266998,309.430438 251.964105,308.45579 255.529926,306.516459 Z"/><path id="Fill-63" fill="#FFC999" d="M316.85125,434.90785 L317.48275,434.70085 C325.47625,432.09085 329.86375,423.85435 327.28225,416.30635 L302.87875,344.92285 C300.29725,337.37485 291.72475,333.37285 283.73125,335.98285 L283.09975,336.18835 C275.10625,338.79985 270.71875,347.03635 273.30025,354.58435 L297.70525,425.96785 C300.28675,433.51585 308.85775,437.51935 316.85125,434.90785"/><path id="Fill-65" fill="#597EF7" d="M286.5085,391.1098 L273.1915,356.7583 C269.98,348.4768 274.2895,339.1363 282.766,336.0028 C291.241,332.8678 300.802,337.0783 304.0135,345.3598 L317.2045,379.3858 L286.5085,391.1098 Z"/><path id="Stroke-67" fill="#1D39C4" fill-rule="nonzero" d="M272.575753,356.483245 C272.791343,356.399668 273.030874,356.485508 273.147478,356.675958 L273.185155,356.752153 L286.332,390.666 L316.590947,379.109901 C316.806951,379.0274 317.046051,379.114435 317.161702,379.305464 L317.198999,379.381847 C317.2815,379.597851 317.194465,379.836951 317.003436,379.952602 L316.927053,379.989899 L286.231053,391.713899 C286.01581,391.796109 285.777481,391.70999 285.661373,391.520095 L285.623845,391.444147 L272.306845,357.092647 C272.21282,356.850108 272.333215,356.57727 272.575753,356.483245 Z"/><path id="Fill-69" fill="#4E5C93" d="M271.78975,438.25945 C284.63125,439.26445 315.10825,520.41145 326.62375,549.42745 C325.08925,555.27145 315.72475,565.58095 315.72475,565.58095 C315.72475,565.58095 316.72675,570.23395 317.34325,573.02845 C306.38575,582.04045 285.19375,586.93645 285.19375,586.93645 L285.14725,590.93395 C251.26375,606.53545 205.89025,591.58345 205.89025,591.58345 C205.89025,591.58345 205.04425,590.71645 205.65025,587.58145 C190.26625,587.40295 157.32475,567.88495 157.32475,567.88495 L162.00775,558.22795 L148.45825,544.36195 C148.45825,544.36195 185.04625,477.05395 196.30825,458.22745 C206.19625,441.69895 215.46775,436.94095 215.46775,436.94095 C215.46775,436.94095 249.00625,436.47445 271.78975,438.25945"/><path id="Stroke-71" fill="#253368" fill-rule="nonzero" d="M213.308871,452.834217 C213.447458,452.5511 213.789316,452.433935 214.072433,452.572521 C214.327238,452.697249 214.447623,452.986627 214.368122,453.249647 L214.334129,453.336083 L158.622,567.148 L159.144241,567.532235 L159.580178,567.844504 C160.680592,568.625612 161.977707,569.496773 163.463236,570.435512 C167.711774,573.120256 172.614892,575.805958 178.106204,578.312969 C186.643453,582.210577 195.803801,585.307485 205.476964,587.305701 C205.785663,587.36947 205.984218,587.671415 205.920449,587.980114 C205.85668,588.288813 205.554735,588.487368 205.246036,588.423599 C195.485038,586.407238 186.244044,583.283065 177.632131,579.351371 C172.092044,576.822092 167.143979,574.111769 162.853447,571.400488 C161.517318,570.556159 160.330583,569.765024 159.299002,569.042878 L158.919443,568.775338 C158.606021,568.552861 158.326138,568.350157 158.080322,568.168664 L157.551369,567.770218 C157.365504,567.624843 157.290863,567.382997 157.354536,567.162544 L157.390371,567.069717 L213.308871,452.834217 Z"/><path id="Stroke-73" fill="#253368" fill-rule="nonzero" d="M280.998031,475.963873 C281.263398,475.863558 281.556734,475.973947 281.694003,476.211975 L281.733727,476.295931 L318.443227,573.404431 C318.537753,573.654483 318.44606,573.936643 318.222597,574.083358 L317.611283,574.470696 C317.485633,574.548774 317.350558,574.631968 317.206217,574.720057 L316.468481,575.164153 C315.82695,575.545297 315.119035,575.953405 314.348429,576.38329 C311.268498,578.101437 307.819121,579.819107 304.081161,581.422314 C297.983713,584.037503 291.723265,586.087153 285.451455,587.355181 C285.14249,587.417647 284.841385,587.21782 284.778919,586.908855 C284.716453,586.59989 284.91628,586.298785 285.225245,586.236319 C291.414371,584.985008 297.601586,582.959334 303.631212,580.373234 C307.330999,578.7864 310.745361,577.086167 313.792319,575.386413 C314.705659,574.876904 315.529068,574.398815 316.256112,573.961116 L317.008246,573.501486 L317.211,573.374 L280.665973,476.699569 C280.565658,476.434202 280.676047,476.140866 280.914075,476.003597 L280.998031,475.963873 Z"/><path id="Stroke-75" fill="#253368" fill-rule="nonzero" d="M257.148436,440.42917 C257.426629,440.373567 257.697983,440.530407 257.79451,440.787667 L257.825539,440.9048 L259.606139,449.884539 C260.541146,454.621274 261.559355,459.807699 262.643118,465.362202 L264.500835,474.914558 C267.746859,491.660812 270.966357,508.565683 274.000155,524.893062 L274.804072,529.229914 L275.982624,535.627312 C279.981598,557.419082 283.283837,576.299867 285.704369,591.414598 C285.74836,591.689294 285.587894,591.955689 285.324501,592.045229 C283.662519,592.610218 281.980124,593.133279 280.278161,593.615199 C259.758774,599.425374 237.869338,599.09678 217.197837,595.056363 C214.19117,594.468685 211.453365,593.842383 209.022146,593.212629 L208.366717,593.040819 C207.458774,592.799957 206.661478,592.576147 205.980953,592.375095 L205.405749,592.202012 C205.294122,592.167642 205.20684,592.140147 205.144386,592.119976 C204.899274,592.040811 204.741471,591.809547 204.748975,591.559547 L204.760081,591.465179 L230.306581,463.420679 C230.368255,463.111555 230.668847,462.910957 230.977971,462.972631 C231.256183,463.028138 231.446488,463.277168 231.436807,463.55177 L231.426019,463.644021 L205.98,591.183 L206.304376,591.280371 C206.974834,591.47845 207.761896,591.699386 208.659413,591.937483 C211.22678,592.618562 214.162317,593.299944 217.416809,593.936062 C237.927354,597.945019 259.645593,598.271043 279.967166,592.51688 C281.229529,592.159435 282.480888,591.779141 283.720892,591.375674 L284.5,591.116 L283.671078,586.010958 C281.409663,572.244397 278.51134,555.762396 275.094217,537.111394 L274.078053,531.584056 C273.683429,529.444694 273.283286,527.283504 272.877865,525.101595 C269.844646,508.777335 266.625679,491.875253 263.380171,475.131662 L260.167059,458.649628 L256.70062,441.100714 C256.638839,440.791611 256.839333,440.49095 257.148436,440.42917 Z"/><path id="Stroke-77" fill="#253368" fill-rule="nonzero" d="M243.545989,442.617084 C243.829233,442.63398 244.052557,442.853887 244.081449,443.127136 L244.083694,443.219989 L238.077694,549.710989 C238.059945,550.025705 237.790428,550.266444 237.475711,550.249616 C237.192467,550.23272 236.969143,550.012813 236.940251,549.739564 L236.938006,549.646711 L242.944006,443.155711 C242.961755,442.840995 243.231272,442.600256 243.545989,442.617084 Z"/><path id="Stroke-79" fill="#253368" fill-rule="nonzero" d="M227.571733,440.269064 C227.665228,439.968032 227.985054,439.799789 228.286086,439.893283 C228.557015,439.977428 228.720385,440.244902 228.682192,440.517008 L228.661867,440.607636 L206.119867,513.188136 C206.026372,513.489168 205.706546,513.657411 205.405514,513.563917 C205.134585,513.479772 204.971215,513.212298 205.009408,512.940192 L205.029733,512.849564 L227.571733,440.269064 Z"/><path id="Fill-81" fill="#4E5C93" d="M213.0157,438.2572 L213.9832,430.9177 C213.9832,430.9177 242.9632,431.0917 271.3867,429.6667 C272.1067,432.9262 272.9302,438.7882 272.9302,438.7882 C270.5422,436.8262 244.7227,442.5592 213.0157,438.2572"/><path id="Stroke-83" fill="#253368" fill-rule="nonzero" d="M269.87894,438.218823 C270.193813,438.204099 270.461003,438.447418 270.475727,438.76229 C270.490451,439.077163 270.247132,439.344353 269.93226,439.359077 L266.87412,439.496186 C255.182541,439.997917 243.872914,440.226631 233.709064,440.227049 L231.084118,440.222008 C226.666504,440.204731 222.758324,440.142032 219.844642,440.051511 L218.878816,440.019054 C218.374659,440.00069 217.926191,439.981859 217.541744,439.963003 L216.920678,439.929131 C216.594337,439.909069 216.350736,439.889514 216.192626,439.870418 C216.090545,439.858089 216.017526,439.845811 215.951383,439.826188 L215.906895,439.820777 C215.853338,439.807722 215.806699,439.757711 215.573506,439.507661 L215.659972,439.040956 C215.724539,438.736244 215.765138,438.732284 215.917384,438.717433 C216.03657,438.676295 216.16007,438.676921 216.271945,438.711551 L216.341,438.738 L216.594495,438.762343 L216.990721,438.789782 C217.528084,438.822817 218.290913,438.856879 219.229156,438.889256 L221.251868,438.949217 C223.644666,439.010336 226.556316,439.054413 229.782031,439.074004 L231.088582,439.080517 C242.760686,439.126166 256.102772,438.863016 269.87894,438.218823 Z"/><path id="Fill-85" fill="#597EF7" d="M214.3663,352.44295 C211.2088,359.32345 205.3603,371.16595 204.6328,378.98995 C203.4538,391.67395 211.7113,401.11345 211.7113,401.11345 C211.7113,401.11345 211.7938,397.38145 212.5963,430.24645 C250.4263,436.88245 274.5448,429.82645 274.5448,429.82645 L273.8083,421.11445 L279.9523,400.52245 C279.9523,400.52245 283.6843,392.85295 291.3538,375.74545 C296.6848,363.85195 296.3143,349.10545 295.5928,341.22295 C295.2838,337.84495 292.9303,335.00545 289.6648,334.08745 C278.2573,330.88045 273.9388,330.77995 273.9388,330.77995 L272.8633,323.25445 C272.6788,321.96595 271.5763,321.00745 270.2728,321.00745 L242.4643,321.00745 C241.2718,321.00745 240.2278,321.81745 239.9308,322.97395 L237.8938,330.92095 L216.1333,332.19445 C213.4318,332.72395 215.9443,337.05895 215.6638,339.79795 L214.3663,352.44295 Z"/><path id="Stroke-87" fill="#1D39C4" fill-rule="nonzero" d="M266.14855,330.6958 C266.41199,330.6958 266.62555,330.90936 266.62555,331.1728 C266.62555,331.406969 266.456811,331.601726 266.234291,331.642115 L266.14855,331.6498 L241.11055,331.6498 C240.84711,331.6498 240.63355,331.43624 240.63355,331.1728 C240.63355,330.938631 240.802289,330.743874 241.024809,330.703485 L241.11055,330.6958 L266.14855,330.6958 Z"/><path id="Stroke-89" fill="#C9D4EA" fill-rule="nonzero" d="M273.760805,328.77455 C273.970839,328.509732 274.355782,328.465321 274.6206,328.675355 C274.858936,328.864385 274.918743,329.195093 274.775206,329.452396 L274.719795,329.53515 L247.581795,363.75165 C247.299333,364.107788 246.753088,364.037776 246.557448,363.650828 L246.521115,363.5631 L235.908615,331.3971 C235.802714,331.07612 235.977071,330.730066 236.29805,330.624165 C236.586932,330.528855 236.896124,330.660552 237.032275,330.921839 L237.070985,331.0136 L247.327,362.101 L273.760805,328.77455 Z"/><path id="Fill-91" fill="#C9D4EA" d="M239.52655,365.95915 C236.74855,370.64215 237.99955,376.51465 242.31955,379.07665 C246.64105,381.63865 252.39355,379.91815 255.17155,375.23515 C257.94655,370.55365 256.69555,364.67965 252.37555,362.11765 C248.05705,359.55565 242.30305,361.27615 239.52655,365.95915"/><path id="Fill-93" fill="#F0F0F5" d="M238.5289,365.93575 C235.7509,370.61875 237.0019,376.49125 241.3234,379.05325 C245.6434,381.61525 251.3959,379.89625 254.1739,375.21325 C256.9489,370.53025 255.6979,364.65625 251.3779,362.09425 C247.0594,359.53375 241.3054,361.25275 238.5289,365.93575"/><path id="Fill-95" fill="#FAAD14" d="M240.2911,366.75235 C238.1356,370.38835 239.1076,374.94835 242.4616,376.93735 C245.8156,378.92635 250.2826,377.59135 252.4396,373.95535 C254.5936,370.31785 253.6231,365.75935 250.2676,363.77035 C246.9136,361.78135 242.4466,363.11635 240.2911,366.75235"/><path id="Stroke-97" fill="#1D39C4" fill-rule="nonzero" d="M214.678679,345.476687 C214.912682,345.485489 215.10096,345.661428 215.132956,345.885309 L215.137413,345.971279 L214.843413,353.787779 L214.784712,353.999713 L210.690507,361.40361 C210.489476,361.771471 210.323775,362.076837 210.209058,362.291741 L209.698697,363.258768 C208.555919,365.451239 207.74205,367.214205 207.098677,368.925434 C205.722247,372.586427 205.10875,376.135339 205.10875,380.75935 C205.10875,382.607044 205.417386,384.714152 205.996792,387.030313 C206.596092,389.425997 207.466688,391.976821 208.537559,394.597547 C209.290764,396.440851 210.09804,398.209903 210.905189,399.840977 L211.233838,400.497219 C211.392859,400.810865 211.543599,401.102415 211.684595,401.370157 L211.977633,401.916937 L212.03692,402.130103 L212.780038,422.881211 C212.888522,426.099785 212.958639,428.375066 212.982321,429.502421 L212.986,429.729 L213.752758,429.869309 C231.78206,433.083406 249.295294,433.140039 264.843889,431.263379 L265.83367,431.140978 C268.14796,430.847901 270.204939,430.533993 271.979829,430.220241 L272.685811,430.092601 L273.734,429.89 L272.891538,421.313514 L272.914011,421.115163 L282.835011,391.536663 C282.918785,391.286899 283.189172,391.152337 283.438937,391.236111 C283.66095,391.310577 283.791938,391.53249 283.759469,391.756302 L283.739489,391.840037 L273.85,421.322 L274.725962,430.223186 C274.746638,430.433525 274.626883,430.628338 274.438596,430.708583 L274.353916,430.73567 L273.785021,430.853178 L273.188073,430.96912 C272.975947,431.009331 272.750742,431.051049 272.512658,431.094107 L272.145895,431.159676 C270.355952,431.476088 268.283592,431.792344 265.953526,432.087419 C249.740143,434.140651 231.352707,434.109176 212.427235,430.597846 C212.201211,430.555911 212.03725,430.358731 212.03725,430.12885 L211.997351,428.2899 C211.939756,426.23829 211.821848,422.692452 211.657016,417.998709 L211.344148,409.259564 L211.087,402.277 L210.840487,401.814676 L210.541568,401.239561 C210.386047,400.936587 210.221755,400.610866 210.050154,400.264098 C209.233437,398.613688 208.416846,396.824224 207.654441,394.958403 C206.567568,392.298517 205.682733,389.705976 205.07131,387.261829 C204.474337,384.875444 204.15475,382.693571 204.15475,380.75935 C204.15475,376.023321 204.787893,372.360759 206.205704,368.589702 C206.91094,366.713932 207.811476,364.787829 209.103728,362.339299 L209.637689,361.341783 L213.894,353.636 L214.184087,345.935421 C214.192889,345.701418 214.368828,345.51314 214.592709,345.481144 L214.678679,345.476687 Z"/><path id="Fill-99" fill="#FFC999" d="M256.76485,333.8761 L256.76485,333.8761 C252.27985,336.2551 250.37485,341.5861 252.44335,345.9781 L292.35985,430.7716 C296.29585,438.4366 306.02185,441.2506 313.98385,437.0296 C322.01485,432.7711 325.11235,423.0226 320.84185,415.4521 L268.98685,336.7411 C266.40385,332.8171 261.10435,331.5766 256.76485,333.8761"/><path id="Fill-101" fill="#FFC999" d="M244.50265,341.90125 C244.50265,341.90125 256.71415,350.28025 264.28465,345.33775 C271.14415,340.86025 267.64015,333.81025 267.64015,333.81025 C267.64015,333.81025 265.31665,326.22325 259.57765,319.51975 C255.79465,315.10075 247.70365,307.44475 244.97965,309.15625 C241.43065,311.38675 251.12515,319.51375 249.13915,321.80425 C247.09765,324.15625 244.96315,322.62625 238.87015,320.74975 C235.06465,319.57825 231.84115,316.94275 228.39565,316.55725 C221.66065,315.80275 225.05665,330.85975 244.50265,341.90125"/><path id="Stroke-103" fill="#DD936F" fill-rule="nonzero" d="M245.067749,308.145922 C247.729784,306.473355 254.677005,311.991265 260.34774,318.613119 C260.938887,319.303614 261.508303,320.019662 262.056345,320.758848 C264.054944,323.454509 265.691999,326.339967 266.994261,329.225529 C267.374252,330.067515 267.702715,330.859804 267.981498,331.588685 L268.14282,332.018294 C268.224666,332.240452 268.297185,332.444192 268.360543,332.628263 L268.492,333.022 L311.74538,400.610896 C311.885098,400.829223 311.843977,401.111483 311.660609,401.281907 L311.585254,401.34023 C311.366927,401.479948 311.084667,401.438827 310.914243,401.255459 L310.85592,401.180104 L267.56442,333.531604 L267.504294,333.401611 L267.416015,333.129005 C267.352497,332.939979 267.264712,332.689488 267.151928,332.383353 C266.84953,331.562544 266.477115,330.646779 266.031742,329.659916 C264.758682,326.839062 263.158221,324.018104 261.208062,321.387777 C260.674467,320.668076 260.120387,319.971314 259.545609,319.299938 L259.05435,318.733677 C253.933305,312.906011 247.490069,307.871107 245.629524,309.040095 C244.56438,309.709241 245.044541,311.208559 247.125779,314.367507 L248.14003,315.885628 C250.430525,319.342042 250.87435,320.472083 249.906784,321.588729 C248.795954,322.867694 247.593365,323.193495 245.785197,322.816511 C244.805874,322.612332 240.089692,321.011447 239.165617,320.716852 L239.083859,320.691147 C237.938402,320.338664 236.929868,319.909801 235.408251,319.159628 L233.000541,317.957646 C232.352025,317.640811 231.993148,317.482461 231.500537,317.284735 L231.392776,317.24169 C230.412953,316.852029 229.543242,316.612407 228.705868,316.518718 C225.884515,316.202651 225.202727,319.304289 227.475771,324.012961 C230.240313,329.739786 236.425653,335.935159 245.132356,340.878852 C245.385936,341.022836 245.474781,341.345125 245.330798,341.598706 C245.186814,341.852286 244.864525,341.941131 244.610944,341.797148 C235.726943,336.752784 229.388262,330.403821 226.524779,324.472039 C223.955585,319.149883 224.862185,315.025517 228.823359,315.469274 C229.763934,315.57451 230.721871,315.83844 231.783006,316.260437 L232.312388,316.476904 C232.847851,316.703974 233.357468,316.95034 234.490507,317.518861 L235.197873,317.874628 C236.952638,318.758516 238.018588,319.238994 239.164155,319.609226 L239.917254,319.850897 C241.415445,320.343509 245.191663,321.614058 246.000728,321.782739 C247.455535,322.086051 248.26711,321.866182 249.109112,320.896736 C249.600577,320.329546 249.044996,319.137008 246.917492,315.955726 L246.429839,315.228706 C243.809633,311.304065 243.139456,309.357317 245.067749,308.145922 Z"/><path id="Stroke-105" fill="#DD936F" fill-rule="nonzero" d="M227.195996,319.435394 C227.389547,319.234775 227.709086,319.229045 227.909706,319.422596 C228.254033,319.754792 228.603117,320.075954 228.956742,320.386257 C232.015013,323.069871 235.289158,324.855321 238.561043,325.914978 C239.703571,326.285005 240.762992,326.537883 241.711544,326.695047 C241.958998,326.736047 242.185026,326.768125 242.388158,326.792415 L242.583603,326.814151 C242.73056,326.829202 242.829012,326.836472 242.875474,326.838658 C243.153932,326.85176 243.369045,327.088117 243.355942,327.366574 C243.34284,327.645032 243.106483,327.860145 242.828026,327.847042 L242.480752,327.818398 L242.043687,327.766086 C241.887839,327.744963 241.721976,327.720038 241.546531,327.690969 C240.54986,327.525832 239.441745,327.261332 238.250005,326.875366 C234.85255,325.775041 231.457356,323.923581 228.290911,321.145045 C227.925363,320.824279 227.564582,320.492356 227.208794,320.149104 C227.008175,319.955553 227.002445,319.636014 227.195996,319.435394 Z"/><path id="Stroke-107" fill="#DD936F" fill-rule="nonzero" d="M228.807718,325.189673 C229.007494,324.995252 229.327055,324.999592 229.521477,325.199368 L229.67939,325.3551 C229.727889,325.401781 229.785251,325.456268 229.851326,325.518073 L230.209181,325.844741 C230.399915,326.014917 230.608246,326.19499 230.833663,326.383312 C231.909752,327.282319 233.147825,328.182084 234.528745,329.02179 C236.841957,330.428402 239.316491,331.520009 241.913197,332.174979 C242.183497,332.243157 242.347349,332.517547 242.279171,332.787847 C242.210993,333.058147 241.936603,333.221999 241.666303,333.153821 C238.964899,332.472444 236.398985,331.340526 234.004247,329.88434 C232.577994,329.017068 231.2995,328.087927 230.186434,327.158029 C229.874028,326.897032 229.592464,326.650631 229.34289,326.422726 L228.975886,326.079098 C228.896311,326.002442 228.836861,325.943339 228.798023,325.903432 C228.603602,325.703656 228.607942,325.384095 228.807718,325.189673 Z"/><path id="Stroke-109" fill="#DD936F" fill-rule="nonzero" d="M231.879652,331.832942 C232.045094,331.608577 232.361094,331.560811 232.585458,331.726252 C235.514526,333.886082 238.219937,335.391493 240.635029,336.358544 C241.47499,336.694882 242.217231,336.939966 242.853418,337.108233 L243.266903,337.210353 C243.420011,337.244991 243.531843,337.26597 243.600839,337.275975 C243.876719,337.315982 244.067932,337.572059 244.027925,337.847939 C243.987918,338.123819 243.731841,338.315032 243.455961,338.275025 L243.28814,338.246215 C243.121846,338.214338 242.889859,338.162085 242.595288,338.084173 C241.919561,337.905448 241.1382,337.647446 240.259771,337.295706 C237.765175,336.29682 234.984524,334.749543 231.986342,332.538748 C231.761977,332.373306 231.714211,332.057306 231.879652,331.832942 Z"/><path id="Fill-111" fill="#FFC999" d="M284.7433,433.78945 L284.7433,433.78945 C284.4703,438.89545 280.5643,442.89745 275.8753,442.876532 L185.3428,442.45945 C177.0268,442.12345 170.6263,434.44195 171.1093,425.38045 C171.5968,416.23945 178.8973,409.26745 187.2673,409.95145 L277.2868,423.84895 C281.7748,424.54045 285.0073,428.85145 284.7433,433.78945"/><path id="Fill-113" fill="#FFC999" d="M287.41225,444.47695 C287.41225,444.47695 271.82575,442.68595 269.49175,433.66495 C267.37675,425.49595 275.20825,422.38645 275.20825,422.38645 C275.20825,422.38645 282.50725,418.05445 291.83425,416.73895 C297.97975,415.87345 309.82975,415.42045 310.71775,418.61095 C311.87725,422.77195 298.43425,422.49895 298.32625,425.64145 C298.21825,428.86645 300.99175,429.13045 307.10125,431.82145 C310.92025,433.50445 315.34075,433.64695 318.30925,435.69595 C324.10975,439.69795 310.57075,449.12845 287.41225,444.47695"/><path id="Stroke-115" fill="#DD936F" fill-rule="nonzero" d="M298.812194,433.91924 C298.994094,433.689734 299.327605,433.651143 299.55711,433.833044 L299.800871,434.011776 C300.013645,434.161788 300.268244,434.329862 300.563905,434.511552 C301.414189,435.034069 302.419763,435.557875 303.574554,436.047517 C307.302188,437.628069 311.664794,438.490305 316.602505,438.254951 C316.895021,438.241009 317.143456,438.466838 317.157399,438.759355 C317.171341,439.051871 316.945512,439.300306 316.652995,439.314249 C311.549025,439.557527 307.029227,438.664223 303.160568,437.023876 C301.955495,436.512913 300.902954,435.964642 300.008665,435.415084 C299.77246,435.269931 299.559737,435.132195 299.370796,435.00377 L299.041377,434.772074 C298.977754,434.725536 298.93004,434.689241 298.89839,434.664156 C298.668884,434.482256 298.630293,434.148745 298.812194,433.91924 Z"/><path id="Stroke-117" fill="#DD936F" fill-rule="nonzero" d="M295.736713,438.884906 C295.86854,438.623406 296.187395,438.518286 296.448894,438.650113 C296.825332,438.839883 297.207892,439.020464 297.596269,439.192034 C300.223432,440.352612 303.036801,441.073102 305.893993,441.435025 C307.66971,441.659957 309.244936,441.723367 310.509553,441.689862 L311.167293,441.660969 C311.459248,441.638101 311.714462,441.856238 311.737331,442.148193 C311.760199,442.440148 311.542062,442.695362 311.250107,442.718231 L310.891069,442.73794 C309.518016,442.795481 307.761002,442.740495 305.760723,442.487118 C302.807686,442.113054 299.896266,441.367453 297.167734,440.162094 C296.763018,439.983306 296.364169,439.795037 295.971506,439.597087 C295.710006,439.46526 295.604886,439.146405 295.736713,438.884906 Z"/><path id="Stroke-119" fill="#DD936F" fill-rule="nonzero" d="M290.710349,441.636939 C290.868695,441.390592 291.196764,441.319252 291.443111,441.477599 C291.591191,441.572781 291.912452,441.75024 292.413082,441.983114 C293.26112,442.37759 294.300858,442.773678 295.538567,443.144488 C297.934784,443.86238 300.766742,444.394578 304.052932,444.662149 C304.344815,444.685915 304.562167,444.941799 304.538401,445.233682 C304.514635,445.525565 304.258751,445.742917 303.966868,445.719151 C300.606819,445.445566 297.701692,444.899617 295.234214,444.160376 C293.947363,443.774844 292.859876,443.360566 291.9658,442.944675 C291.421161,442.691329 291.057803,442.490617 290.869689,442.369701 C290.623342,442.211355 290.552002,441.883286 290.710349,441.636939 Z"/><path id="Stroke-121" fill="#DD936F" fill-rule="nonzero" d="M291.655026,416.326549 L292.455191,416.218094 C301.391398,415.056276 310.28255,415.553397 311.124984,418.581606 C311.739755,420.793506 310.013964,421.800617 305.24036,423.07547 L303.766864,423.457752 C300.188415,424.380146 298.778175,425.003502 298.752545,425.770585 C298.703513,427.215343 299.259501,427.954059 300.966163,428.807235 L301.188037,428.912106 C302.226276,429.385841 305.315757,430.642874 306.745034,431.248352 L307.211344,431.448839 C308.076267,431.829813 309.003923,432.146788 310.154858,432.46984 L311.361616,432.792023 L312.422084,433.059991 C315.582481,433.856554 317.049648,434.367204 318.503748,435.370666 C322.107986,437.857665 318.431349,442.779967 311.195177,445.263631 C302.414506,448.277412 290.48061,447.619493 277.346717,442.274233 C277.075472,442.163841 276.945075,441.854463 277.055467,441.583217 C277.165859,441.311972 277.475237,441.181575 277.746483,441.291967 C290.651747,446.544178 302.322934,447.187614 310.850898,444.260569 C317.418146,442.006499 320.423064,437.983499 317.901431,436.24352 C316.692411,435.409186 315.421742,434.933845 312.86099,434.266997 L310.321462,433.615421 C309.070023,433.278397 308.062058,432.953965 307.130067,432.567371 L306.305492,432.213962 C304.758674,431.559718 301.239027,430.129274 300.491963,429.75581 C298.446306,428.733168 297.627799,427.645654 297.692646,425.734893 C297.742934,424.229843 299.154988,423.566663 303.170819,422.516814 L304.320877,422.220278 C308.853957,421.051 310.475725,420.205855 310.10325,418.865716 C309.476653,416.613353 300.23714,416.186796 291.803072,417.376665 C288.407691,417.855011 285.047937,418.76642 281.816805,419.984893 C280.088159,420.636772 278.506558,421.335111 277.106116,422.032957 L276.547183,422.3166 C276.370325,422.408065 276.20301,422.496322 276.045512,422.580995 L275.427246,422.923733 C275.406458,422.935787 275.388632,422.94624 275.3738,422.955046 C275.121988,423.104549 274.796658,423.021612 274.647154,422.7698 C274.497651,422.517988 274.580588,422.192658 274.8324,422.043154 L275.064378,421.909929 L275.306521,421.775527 C275.687585,421.566442 276.131183,421.333897 276.633134,421.083773 C278.064506,420.370516 279.678773,419.657753 281.442609,418.992604 C284.742675,417.748136 288.176685,416.816583 291.655026,416.326549 Z"/><path id="Stroke-123" fill="#DD936F" fill-rule="nonzero" d="M193.224027,410.638141 L274.044027,422.575141 C274.333733,422.61793 274.533898,422.887471 274.491109,423.177177 C274.453074,423.434693 274.235878,423.621462 273.984612,423.629734 L273.889073,423.624259 L193.069073,411.687259 C192.779367,411.64447 192.579202,411.374929 192.621991,411.085223 C192.660026,410.827707 192.877222,410.640938 193.128488,410.632666 L193.224027,410.638141 Z"/></g></svg>