<?xml version="1.0" encoding="UTF-8"?>
<svg width="512px" height="1024px" viewBox="0 0 512 1024" version="1.1" xmlns="http://www.w3.org/2000/svg" xmlns:xlink="http://www.w3.org/1999/xlink">
    <!-- Generator: Sketch 61.2 (89653) - https://sketch.com -->
    <title>2.人物组件/7.设计师/站立/摸头</title>
    <desc>Created with Sketch.</desc>
    <defs>
        <polygon id="path-1" points="1.15617994 0.597 119.147506 0.597 119.147506 146.583516 1.15617994 146.583516"></polygon>
        <polygon id="path-3" points="1.29683929 1.25108929 61.3734607 1.25108929 61.3734607 10.5 1.29683929 10.5"></polygon>
        <polygon id="path-5" points="0.470607582 0.742045101 60.5985 0.742045101 60.5985 10.5405924 0.470607582 10.5405924"></polygon>
        <polygon id="path-7" points="0 0.78255 194.67885 0.78255 194.67885 171.182499 0 171.182499"></polygon>
    </defs>
    <g id="2.人物组件/7.设计师/站立/摸头" stroke="none" stroke-width="1" fill="none" fill-rule="evenodd">
        <path d="M252.31115,269.9314 L252.31115,269.9314 C254.94665,266.5969 259.73765,265.9264 263.18765,268.4074 L329.78315,316.2979 C335.75915,320.8999 336.81965,329.4994 332.14265,335.4154 C327.42365,341.3854 318.71465,342.2944 312.86465,337.4284 L253.07315,280.6219 C250.09265,277.7914 249.76265,273.1549 252.31115,269.9314" id="Fill-1" fill="#FFC999"></path>
        <path d="M251.96105,257.3572 C251.96105,257.3572 264.40055,265.2352 262.71005,273.7522 C261.18005,281.4652 253.30355,280.8652 253.30355,280.8652 C253.30355,280.8652 245.37755,281.5117 236.96555,278.7967 C231.42305,277.0102 221.22755,272.5417 221.77355,269.5027 C222.48455,265.5412 233.72855,271.2697 235.09505,268.6792 C236.49455,266.0212 234.25955,264.6652 230.19005,259.9102 C227.64755,256.9372 223.97255,255.0082 222.29705,252.0772 C219.02255,246.3487 234.28655,243.9847 251.96105,257.3572" id="Fill-3" fill="#FFC999"></path>
        <path d="M224.427552,249.944468 C224.555976,249.643943 224.903708,249.504428 225.204232,249.632852 C227.80515,250.74431 230.101866,252.121465 232.110868,253.704883 C234.075674,255.253468 235.663695,256.914327 236.907541,258.577839 C237.344818,259.16265 237.708281,259.707115 238.002042,260.197656 L238.225005,260.58368 C238.284273,260.690938 238.328659,260.776217 238.358674,260.837824 C238.501812,261.131625 238.379677,261.485835 238.085876,261.628974 C237.792075,261.772112 237.437865,261.649977 237.294726,261.356176 L237.184121,261.146917 C237.132942,261.054608 237.067292,260.940307 236.986684,260.805703 C236.713273,260.349143 236.372232,259.838267 235.959706,259.286557 C234.775545,257.702867 233.258772,256.116523 231.378271,254.634385 C229.44972,253.114376 227.242617,251.790954 224.739168,250.721148 C224.438643,250.592724 224.299128,250.244992 224.427552,249.944468 Z" id="Stroke-5" fill="#DD936F" fill-rule="nonzero"></path>
        <path d="M230.379329,249.323482 C230.49855,249.019189 230.841875,248.869158 231.146168,248.988379 L231.425019,249.104305 C231.504092,249.138457 231.594285,249.178228 231.69503,249.22367 L231.853993,249.296093 C232.404669,249.549373 233.016945,249.856662 233.675513,250.219406 C235.554926,251.254599 237.43386,252.528545 239.189501,254.053894 C240.537676,255.225226 241.759501,256.501496 242.824788,257.885992 C243.024084,258.145007 242.975673,258.516541 242.716658,258.715838 C242.457643,258.915134 242.086109,258.866723 241.886812,258.607708 C240.87166,257.28837 239.704135,256.06882 238.413288,254.947296 C236.725325,253.480746 234.914683,252.253104 233.104521,251.256054 C232.598295,250.977221 232.121474,250.732961 231.681965,250.522671 L231.359452,250.371314 C231.047247,250.227718 230.827096,250.134462 230.714432,250.090321 C230.410139,249.9711 230.260108,249.627775 230.379329,249.323482 Z" id="Stroke-7" fill="#DD936F" fill-rule="nonzero"></path>
        <path d="M237.720284,249.668499 C237.88597,249.386797 238.24865,249.292748 238.530351,249.458434 C241.732659,251.34191 244.236342,253.269995 246.121788,255.140397 C246.786591,255.799894 247.327224,256.406665 247.753805,256.947881 L247.955045,257.209398 C248.104016,257.408233 248.20666,257.558704 248.26668,257.65614 C248.438087,257.934398 248.351467,258.298924 248.07321,258.47033 C247.794952,258.641737 247.430426,258.555117 247.25902,258.27686 L247.18718,258.167465 C247.110354,258.055359 246.990634,257.891506 246.824317,257.680494 C246.427362,257.176867 245.918758,256.606043 245.288287,255.980603 C243.472952,254.179755 241.047728,252.31209 237.930349,250.478566 C237.648647,250.31288 237.554598,249.9502 237.720284,249.668499 Z" id="Stroke-9" fill="#DD936F" fill-rule="nonzero"></path>
        <g id="分组" transform="translate(162.500000, 238.903000)">
            <mask id="mask-2" fill="white">
                <use xlink:href="#path-1"></use>
            </mask>
            <g id="Clip-12"></g>
            <path d="M53.15925,142.2891 C73.73325,153.6261 85.91025,138.9306 85.91025,138.9306 C85.91025,138.9306 103.54425,138.3696 106.90275,125.4936 C119.21925,123.8151 122.90175,108.4896 114.92325,95.4741 C121.96125,83.5641 108.96825,72.7356 108.96825,72.7356 C114.92325,58.1181 105.17925,44.5821 97.05825,37.5441 C87.85425,0.1881 66.74025,5.0616 66.74025,5.0616 C58.21275,-6.3084 40.34625,5.8731 29.51775,21.0321 C29.51775,21.0321 14.22375,24.4161 18.55575,39.1686 C10.43475,44.5821 15.84825,52.1631 15.84825,52.1631 C15.84825,52.1631 -2.82975,70.7046 7.72725,85.7286 C-5.26575,98.4516 5.01975,104.6781 5.01975,104.6781 C5.01975,104.6781 1.63575,117.2646 20.72025,122.5431 C17.87775,133.5066 39.03825,147.4161 53.15925,142.2891" id="Fill-11" fill="#253368" mask="url(#mask-2)"></path>
        </g>
        <path d="M252.9161,291.3841 C250.8191,295.9051 246.2276,298.6681 242.6516,297.0091 C239.0741,295.3501 237.8786,290.3386 239.9756,285.8176 C242.0726,281.2951 246.6746,278.9746 250.2506,280.6336 C253.8251,282.2926 255.0131,286.8616 252.9161,291.3841" id="Fill-13" fill="#FFC999"></path>
        <path d="M194.1041,292.1479 C196.2026,296.6704 200.7941,299.4319 204.3701,297.7729 C207.9461,296.1139 209.1431,291.1024 207.0446,286.5814 C204.9476,282.0589 200.3471,279.7399 196.7696,281.3974 C193.1951,283.0579 192.0071,287.6269 194.1041,292.1479" id="Fill-15" fill="#FFC999"></path>
        <path d="M222.79745,339.62425 L222.79745,339.62425 C215.33045,339.62425 209.65895,333.44725 209.93195,325.98475 L211.82645,298.91575 L234.97295,298.66375 L235.96745,325.96525 C236.23895,333.42775 230.26445,339.62425 222.79745,339.62425" id="Fill-17" fill="#FFC999"></path>
        <path d="M246.4283,285.92245 C245.3483,301.79995 237.4958,317.59345 222.8783,316.37545 C211.9538,315.46495 200.0258,301.60795 200.0258,285.69295 C200.0258,263.46445 208.4228,254.14495 221.3903,253.43845 C236.2763,252.62695 247.9673,263.28295 246.4283,285.92245" id="Fill-19" fill="#FFC999"></path>
        <path d="M211.214876,311.116846 C211.400308,310.892329 211.732637,310.860644 211.957154,311.046076 C215.346069,313.84503 219.02765,315.517103 222.516186,315.808171 C226.819889,316.166813 230.656241,315.022413 233.962444,312.523009 C234.19473,312.347407 234.525389,312.393358 234.700991,312.625644 C234.876593,312.85793 234.830642,313.188589 234.598356,313.364191 C231.087322,316.018442 226.994051,317.239482 222.428561,316.859024 C218.709538,316.548725 214.830774,314.787097 211.285646,311.859124 C211.061129,311.673692 211.029444,311.341363 211.214876,311.116846 Z" id="Stroke-21" fill="#DD936F" fill-rule="nonzero"></path>
        <path d="M241.5563,326.9329 C257.9858,335.5954 267.3968,314.4124 266.3258,305.4124 C264.2948,288.3589 255.2258,278.3419 255.2258,278.3419 C245.0753,247.4839 228.6983,245.5879 212.7263,249.7834 C190.3778,255.6559 181.2668,283.1344 192.6953,285.9229 C209.9093,290.1199 213.9143,275.3869 216.5168,265.3489 C218.4113,258.0409 224.3378,259.3984 226.5323,263.9959 C227.2148,265.4269 228.8843,266.5369 231.4043,263.4544 C233.8403,260.4769 236.8193,263.1829 237.3608,273.1999 C237.9158,283.4929 241.5083,279.5329 243.3158,284.2984 C246.2933,292.1479 235.1948,294.8554 238.7138,309.4729 C238.7138,309.4729 226.4018,318.9424 241.5563,326.9329" id="Fill-23" fill="#253368"></path>
        <path d="M206.729501,274.137366 C209.208118,272.974451 212.850192,272.697482 217.756915,273.662916 C218.196663,273.74944 218.483007,274.176067 218.396484,274.615815 C218.30996,275.055563 217.883333,275.341907 217.443585,275.255384 C212.854103,274.35237 209.558057,274.603024 207.418874,275.606684 C206.806323,275.89408 206.347808,276.221445 206.057955,276.528183 L205.972,276.625 L205.963458,276.716481 C205.935983,276.887354 205.854186,277.049492 205.72259,277.174769 L205.637692,277.245287 C205.330409,277.46744 204.961762,277.564169 204.563817,277.227102 C204.224474,276.939672 204.213204,276.627746 204.305103,276.304301 C204.367699,276.083992 204.507792,275.849169 204.704102,275.610676 C205.140278,275.080771 205.828288,274.560197 206.729501,274.137366 Z" id="Stroke-25" fill="#253368" fill-rule="nonzero"></path>
        <path d="M213.148043,280.101674 C215.614412,280.109267 217.495197,282.655441 217.486603,285.693004 C217.485301,286.141181 217.12095,286.503469 216.672773,286.5022 C216.224596,286.500924 215.862308,286.136574 215.86358,285.688396 C215.869905,283.460262 214.591169,281.729132 213.14307,281.724684 C211.693494,281.720253 210.403663,283.442533 210.396045,285.669476 C210.394512,286.117652 210.029951,286.479728 209.581774,286.478195 C209.133598,286.476662 208.771522,286.112101 208.77305,285.663924 C208.783442,282.627455 210.680656,280.09415 213.148043,280.101674 Z" id="Stroke-27" fill="#253368" fill-rule="nonzero"></path>
        <path d="M233.179793,280.101674 C235.646162,280.109267 237.526947,282.655441 237.518353,285.693004 C237.517051,286.141181 237.1527,286.503469 236.704523,286.5022 C236.256346,286.500924 235.894058,286.136574 235.89533,285.688396 C235.901655,283.460262 234.622919,281.729132 233.17482,281.724684 C231.725244,281.720253 230.435413,283.442533 230.427795,285.669476 C230.426262,286.117652 230.061701,286.479728 229.613524,286.478195 C229.165348,286.476662 228.803272,286.112101 228.8048,285.663924 C228.815192,282.627455 230.712406,280.09415 233.179793,280.101674 Z" id="Stroke-29" fill="#253368" fill-rule="nonzero"></path>
        <path d="M249.6701,281.2612 C249.6701,281.2612 247.5701,292.4572 245.6111,293.2972 C246.6506,288.8872 245.2496,276.2812 244.7696,275.6632 C244.0061,274.6717 249.5291,273.4237 249.6701,281.2612" id="Fill-31" fill="#253368"></path>
        <path d="M196.877,279.30865 C196.877,279.30865 199.8515,294.68665 201.8555,295.41565 C200.567,291.07165 201.0065,274.08715 201.4505,273.44065 C202.1585,272.40865 196.5725,271.47565 196.877,279.30865" id="Fill-33" fill="#253368"></path>
        <path d="M227.738344,274.482365 C227.977199,274.173303 228.421373,274.116389 228.730435,274.355244 C229.011401,274.572385 229.083979,274.959211 228.915398,275.259951 L228.857556,275.347335 L226.173,278.82 L226.833926,292.916281 C226.851224,293.28583 226.582297,293.599946 226.226492,293.649732 L226.12745,293.6566 L221.25395,293.6566 C220.863347,293.6566 220.5467,293.339953 220.5467,292.94935 C220.5467,292.591297 220.812771,292.295388 221.15798,292.248556 L221.25395,292.2421 L225.385,292.242 L224.748974,278.625919 C224.742694,278.491761 224.774756,278.359315 224.840394,278.243692 L224.895844,278.160365 L227.738344,274.482365 Z" id="Stroke-35" fill="#DD936F" fill-rule="nonzero"></path>
        <path d="M217.05815,297.65065 L230.59265,297.65065 C230.59265,297.65065 229.23965,301.71115 223.82615,301.71115 C218.41115,301.71115 217.05815,297.65065 217.05815,297.65065" id="Fill-37" fill="#FFFFFF"></path>
        <path d="M230.59265,296.8759 L217.05815,296.8759 C216.529375,296.8759 216.155973,297.393907 216.32313,297.895566 C216.527343,298.508429 217.007121,299.372158 217.863694,300.228731 C219.275572,301.640609 221.248126,302.4859 223.82615,302.4859 C226.403554,302.4859 228.375704,301.640581 229.787344,300.22868 C230.643751,299.372116 231.123465,298.508407 231.32767,297.895566 C231.494827,297.393907 231.121425,296.8759 230.59265,296.8759 Z M229.291,298.425 L229.120337,298.653217 C228.990493,298.816314 228.847751,298.976921 228.691581,299.13312 C227.565877,300.259031 225.985559,300.9364 223.82615,300.9364 C221.666049,300.9364 220.085291,300.259004 218.959356,299.133069 L218.735067,298.895707 C218.663619,298.815644 218.595461,298.734719 218.53053,298.653171 L218.359,298.425 L229.291,298.425 Z" id="Stroke-39" fill="#F5222D" fill-rule="nonzero"></path>
        <path d="M228.745472,273.790785 C232.758238,272.644047 236.444578,272.947047 239.619086,274.149997 C240.686467,274.55447 241.451461,274.964618 241.876137,275.251895 C242.247358,275.503012 242.344721,276.007516 242.093605,276.378737 C241.842488,276.749958 241.337984,276.847321 240.966763,276.596205 L240.866368,276.532355 C240.780263,276.479826 240.656072,276.408149 240.495369,276.32199 C240.0817,276.100203 239.596123,275.876915 239.043973,275.667684 C236.177924,274.581622 232.843786,274.307571 229.191428,275.351315 C228.7605,275.474462 228.311333,275.224957 228.188185,274.794028 C228.065038,274.3631 228.314543,273.913933 228.745472,273.790785 Z" id="Stroke-41" fill="#253368" fill-rule="nonzero"></path>
        <path d="M201.11345,799.4878 L201.11345,799.4878 C194.42795,799.6453 188.81195,794.4958 188.39045,787.8238 L179.34395,645.0823 C178.69445,634.8013 186.72395,626.0398 197.02445,625.7983 C207.32645,625.5553 215.76095,633.9283 215.59295,644.2303 L213.27395,787.2373 C213.16595,793.9243 207.79745,799.3303 201.11345,799.4878" id="Fill-43" fill="#FFC999"></path>
        <path d="M193.88735,492.472 L193.88735,492.472 C181.75085,492.757 172.22885,502.9795 172.80185,515.1055 L178.97585,645.4825 C179.45135,655.525 187.85435,663.352 197.90435,663.1165 C207.95435,662.8795 215.97935,654.6655 215.98085,644.6125 L216.013851,514.0885 C216.01685,501.949 206.02535,492.187 193.88735,492.472" id="Fill-45" fill="#FFC999"></path>
        <polygon id="Fill-47" fill="#597EF7" points="188.67245 806.21515 212.15645 806.51815 213.95945 769.39015 186.99845 769.04065"></polygon>
        <path d="M187.201488,775.683615 L212.093988,776.006115 C212.519764,776.011631 212.860452,776.361262 212.855001,776.787038 C212.849879,777.177333 212.55567,777.496129 212.178715,777.542303 L212.074012,777.547985 L187.181512,777.225485 C186.755736,777.219969 186.415048,776.870338 186.420499,776.444562 C186.425621,776.054267 186.71983,775.735471 187.096785,775.689297 L187.201488,775.683615 Z" id="Stroke-49" fill="#DFE5F1" fill-rule="nonzero"></path>
        <path d="M186.35075,804.721 L212.17025,805.0555 L212.86175,852.3685 L154.68575,851.614 L154.636228,844.351 C154.62875,841.681 156.53375,839.389 159.16025,838.9105 L174.66275,834.5695 L182.65625,830.155 C185.06525,828.8245 186.54425,826.288 186.50675,823.537 C186.42875,817.6255 186.30725,807.5995 186.35075,804.721" id="Fill-51" fill="#4E5C93"></path>
        <g id="分组" transform="translate(152.000000, 843.403000)">
            <mask id="mask-4" fill="white">
                <use xlink:href="#path-3"></use>
            </mask>
            <g id="Clip-54"></g>
            <path d="M60.2799,10.50015 L2.2794,9.74715 C1.7304,9.74115 1.2909,9.28815 1.29683929,8.73915 L1.3809,2.23515 C1.3884,1.68465 1.8399,1.24515 2.3904,1.25108929 L60.3909,2.00415 C60.9399,2.01165 61.3794,2.46315 61.3734607,3.01215 L61.2894,9.51765 C61.2819,10.06665 60.8304,10.50765 60.2799,10.50015" id="Fill-53" fill="#E4EBF7" mask="url(#mask-4)"></path>
        </g>
        <path d="M154.3907,844.65475 L154.3907,844.65475 C154.4432,840.55525 157.4627,837.09925 161.5187,836.49775 L174.6647,834.54775 L175.3997,844.78375 L154.3907,844.65475 Z" id="Fill-55" fill="#E4EBF7"></path>
        <path d="M154.395811,844.260283 L212.396311,845.011783 C212.614169,845.014606 212.78849,845.193503 212.785701,845.411361 C212.783197,845.601987 212.64592,845.759279 212.465692,845.793733 L212.386089,845.800717 L154.385589,845.049217 C154.167731,845.046394 153.99341,844.867497 153.996199,844.649639 C153.998703,844.459013 154.13598,844.301721 154.316208,844.267267 L154.395811,844.260283 Z" id="Stroke-57" fill="#96A7CA" fill-rule="nonzero"></path>
        <path d="M185.998177,821.744326 C186.093542,821.319137 186.515535,821.051762 186.940724,821.147127 L187.186657,821.207688 C187.466269,821.281608 187.844018,821.39616 188.293772,821.556354 C189.288993,821.910835 190.284567,822.370489 191.218944,822.949774 C192.243128,823.584737 193.131892,824.327117 193.843057,825.188765 C194.270713,825.706913 193.89643,826.488372 193.224645,826.479938 C192.508384,826.470945 191.395229,826.611952 190.012906,826.871492 C189.698562,826.930512 189.374073,826.994948 189.041457,827.064126 L188.183147,827.248995 L187.192,827.476 L187.362247,827.619021 C187.975493,828.150303 188.583911,828.751617 189.167364,829.423337 L189.514279,829.834821 C189.718908,830.084916 189.917596,830.341546 190.109761,830.604723 C190.517326,831.162895 190.061181,831.938158 189.375316,831.852986 C188.508698,831.745366 187.478781,831.732802 186.322344,831.804599 C185.300788,831.868022 184.216545,831.994432 183.108539,832.168125 L182.393,832.286 L182.580853,832.406158 C182.660514,832.458992 182.740394,832.513843 182.820388,832.570765 L183.060601,832.747795 C183.75936,833.28085 184.37172,833.927894 184.871126,834.698342 C185.108143,835.063996 185.003862,835.552558 184.638208,835.789576 C184.272554,836.026593 183.783992,835.922312 183.546974,835.556658 C183.149539,834.943522 182.662308,834.428695 182.103507,834.002407 C181.538058,833.571049 180.929767,833.251942 180.322437,833.029809 L180.038264,832.932566 C179.821265,832.863686 179.656042,832.82435 179.559436,832.808198 C178.713877,832.666821 178.668809,831.468247 179.501364,831.263771 L180.086331,831.12976 L180.255354,831.093092 C180.843076,830.966757 181.488842,830.840542 182.173662,830.722733 C183.565003,830.48338 184.935796,830.309644 186.224563,830.229631 C186.692026,830.200609 187.142218,830.184398 187.573766,830.181855 L187.729,830.182 L187.654134,830.098252 C187.221313,829.628223 186.776346,829.199327 186.329358,828.812025 L185.993897,828.529355 C185.789664,828.36205 185.597005,828.213005 185.418815,828.08232 L185.109061,827.863339 C185.051096,827.824062 185.008886,827.796691 184.983916,827.781267 C184.394884,827.417429 184.526629,826.525523 185.195699,826.347522 L186.080711,826.122283 C186.760312,825.954217 187.47813,825.786171 188.202406,825.629177 C188.726424,825.515591 189.234967,825.411981 189.721715,825.320592 C190.21433,825.2281 190.675798,825.149584 191.103532,825.086398 L191.443,825.038 L191.328907,824.944796 C191.132575,824.791594 190.927371,824.643672 190.713868,824.501004 L190.387463,824.290939 C189.55646,823.775742 188.660556,823.362106 187.764299,823.042875 C187.529202,822.959137 187.307147,822.886671 187.101526,822.824983 L186.595376,822.686873 C186.170187,822.591508 185.902812,822.169515 185.998177,821.744326 Z" id="Stroke-59" fill="#E4EBF7" fill-rule="nonzero"></path>
        <path d="M186.863448,814.181476 C186.773479,814.181 186.684085,814.195878 186.599133,814.225506 C185.136009,814.73577 184.701262,815.811122 185.316638,816.897824 C185.583236,817.368612 185.982062,817.764181 186.392322,818.079117 L186.588949,818.223496 L186.996325,818.580192 L187.473924,818.985161 C187.724184,819.195862 187.991232,819.418449 188.273268,819.650954 C189.616377,820.75818 191.025358,821.865506 192.434203,822.900293 C193.266249,823.511424 194.074795,824.079588 194.85252,824.596529 C197.464978,826.33299 199.604333,827.417794 201.186248,827.678669 C203.461316,828.053853 204.655421,826.688251 204.237834,823.967912 C203.58735,819.725833 200.274097,816.996873 195.270522,815.468558 C193.520543,814.934036 191.664571,814.580877 189.801636,814.37389 C189.292098,814.317276 188.80324,814.274159 188.340361,814.24279 L187.886339,814.215273 C187.645251,814.202415 187.431115,814.19375 187.246661,814.188393 L186.863448,814.181476 Z M186.902248,815.791881 L186.989,815.76 L187.327067,815.768942 C187.933778,815.788914 188.718675,815.841274 189.62738,815.942239 C191.399636,816.139151 193.162063,816.47451 194.809554,816.977728 C199.295645,818.34798 202.1387,820.689661 202.678085,824.207213 L202.726474,824.566477 C202.885855,825.97528 202.512872,826.298131 201.44301,826.121698 C200.146988,825.90797 198.161609,824.901242 195.726033,823.282353 C194.970027,822.779847 194.181431,822.225703 193.368334,821.628489 C191.985437,820.612762 190.598942,819.523107 189.277028,818.433353 L188.490597,817.778321 L187.562552,816.98463 L187.478196,816.919755 C187.188868,816.714362 186.848766,816.401041 186.689762,816.120254 L186.640749,816.028192 C186.594781,815.924779 186.637464,815.888173 186.902248,815.791881 Z" id="Stroke-61" fill="#E4EBF7" fill-rule="nonzero"></path>
        <path d="M287.01335,797.407 L287.01335,797.407 C293.65085,796.585 298.45385,792.1705 297.89585,785.5075 L285.97985,641.479 C285.12035,631.2115 275.89535,623.719 265.66985,624.9835 C255.44435,626.2495 248.32385,635.7655 249.99485,645.9325 L274.69235,788.5645 C275.77685,795.163 280.37735,798.2275 287.01335,797.407" id="Fill-63" fill="#FFC999"></path>
        <path d="M249.28625,492.63235 L249.28625,492.63235 C261.33425,491.13985 272.24825,499.86085 273.45125,511.94185 L286.40225,641.81935 C287.39975,651.82285 280.23275,660.79435 270.25475,662.03035 C260.27825,663.26485 251.13875,656.31235 249.66725,646.36735 L230.55725,517.25185 C228.77975,505.24135 237.23825,494.12335 249.28625,492.63235" id="Fill-65" fill="#FFC999"></path>
        <polygon id="Fill-67" fill="#597EF7" points="301.28825 801.53275 276.30875 802.06075 269.68475 764.95075 296.64125 764.34475"></polygon>
        <path d="M296.469122,770.988895 C296.894826,770.979325 297.247685,771.316668 297.257454,771.742372 C297.266028,772.1326 296.983297,772.461619 296.608214,772.521117 L296.503778,772.530505 L271.615778,773.090005 C271.190074,773.099575 270.837215,772.762232 270.827446,772.336528 C270.818872,771.9463 271.101603,771.617281 271.476686,771.557783 L271.581122,771.548395 L296.469122,770.988895 Z" id="Stroke-69" fill="#DFE5F1" fill-rule="nonzero"></path>
        <path d="M301.6442,800.01655 L275.8307,800.59705 L280.5392,847.91455 L338.7062,846.60655 L338.6852,839.34355 C338.6702,836.67355 336.7412,834.39955 334.1117,833.94655 L318.5672,829.75255 L310.5332,825.41455 C308.1122,824.10805 305.9852,821.44555 305.1167,818.83405 C303.5147,814.00555 301.7162,802.89505 301.6442,800.01655" id="Fill-71" fill="#4E5C93"></path>
        <g id="分组" transform="translate(279.500000, 838.903000)">
            <mask id="mask-6" fill="white">
                <use xlink:href="#path-5"></use>
            </mask>
            <g id="Clip-74"></g>
            <path d="M1.63485,10.54035 L59.62635,9.23535 C60.17535,9.22335 60.61035,8.76735 60.6000362,8.21835 L60.45285,1.71435 C60.44085,1.16535 59.98335,0.72885 59.43435,0.74235 L1.44435,2.04585 C0.89385,2.05785 0.45885,2.51385 0.470607582,3.06435 L0.61635,9.56685 C0.62985,10.11735 1.08585,10.55235 1.63485,10.54035" id="Fill-73" fill="#E4EBF7" mask="url(#mask-6)"></path>
        </g>
        <path d="M338.93465,839.64505 L338.93465,839.64505 C338.84165,835.54705 335.78915,832.11955 331.72865,831.55555 L318.56615,829.73155 L317.92715,839.97355 L338.93465,839.64505 Z" id="Fill-75" fill="#E4EBF7"></path>
        <path d="M338.925785,839.25065 C339.143606,839.245753 339.324154,839.418363 339.329152,839.636185 C339.333335,839.826778 339.201716,839.988835 339.022821,840.029651 L338.943515,840.03945 L280.953515,841.34295 C280.735694,841.347847 280.555146,841.175237 280.550148,840.957415 C280.545965,840.766822 280.677584,840.604765 280.856479,840.563949 L280.935785,840.55415 L338.925785,839.25065 Z" id="Stroke-77" fill="#96A7CA" fill-rule="nonzero"></path>
        <path d="M306.161924,816.447201 C306.586188,816.347803 307.010701,816.611159 307.110099,817.035424 C307.201214,817.424333 306.987514,817.81345 306.624473,817.952164 L306.219001,818.065786 C305.962616,818.140364 305.675313,818.233942 305.36505,818.347606 C304.477857,818.672627 303.590975,819.091234 302.768268,819.609929 C302.434287,819.820496 302.118687,820.042904 301.823467,820.277227 L301.696,820.382 L301.72543,820.385867 C302.137313,820.437473 302.583813,820.50448 303.062321,820.585551 L303.427162,820.64897 C303.92657,820.73789 304.448797,820.839389 304.986988,820.951106 C305.464918,821.050313 305.939467,821.154179 306.401437,821.259604 L307.876366,821.611672 C307.905764,821.61909 307.932541,821.625895 307.956605,821.632057 C308.59005,821.794247 308.750197,822.597681 308.272713,822.997587 L307.924627,823.240698 C307.704035,823.399025 307.456439,823.589997 307.188593,823.813326 C306.638492,824.271999 306.087586,824.795318 305.555329,825.382242 L305.46,825.49 L305.624699,825.488974 C305.913935,825.48803 306.211584,825.493134 306.517229,825.50403 L306.981643,825.524687 C308.292238,825.594183 309.686874,825.759256 311.100171,825.990819 C311.600515,826.072798 312.078785,826.159167 312.527343,826.246684 L313.277681,826.399758 C313.463843,826.439504 313.605474,826.471305 313.697166,826.492887 C314.493764,826.680381 314.499424,827.781404 313.764054,828.011118 L313.508283,828.069719 C313.361559,828.106363 313.153744,828.168961 312.901452,828.263607 C312.302102,828.488452 311.701744,828.808809 311.143623,829.239291 C310.579747,829.674213 310.089859,830.199325 309.693109,830.824614 C309.459651,831.192551 308.972123,831.301567 308.604186,831.068109 C308.236249,830.834651 308.127233,830.347123 308.360691,829.979186 C308.859237,829.193465 309.474901,828.533533 310.179871,827.989785 C310.337992,827.867825 310.496091,827.754226 310.653326,827.648578 L310.815,827.543 L310.166838,827.442089 C309.265817,827.308301 308.379465,827.205204 307.528935,827.141105 L306.898085,827.100473 C305.734375,827.038766 304.698922,827.06091 303.82915,827.177416 C303.144088,827.269179 302.680524,826.498234 303.082806,825.936185 C303.281092,825.65915 303.486537,825.389232 303.69848,825.126422 C304.374504,824.288149 305.091637,823.550147 305.815637,822.912065 L305.969,822.78 L305.36409,822.644815 L304.666268,822.496169 C304.142046,822.387353 303.634347,822.288677 303.150547,822.202536 L302.530087,822.096929 C301.429553,821.918871 300.537118,821.827486 299.930737,821.841198 C299.259078,821.856387 298.876954,821.078746 299.299363,820.556322 C300.007891,819.680032 300.898153,818.923543 301.926681,818.275083 C302.851535,817.691986 303.83704,817.226829 304.822234,816.865906 L305.242793,816.717918 C305.637682,816.58489 305.952683,816.496223 306.161924,816.447201 Z" id="Stroke-79" fill="#E4EBF7" fill-rule="nonzero"></path>
        <path d="M306.17504,809.481615 L305.773282,809.491982 C305.162694,809.514541 304.351336,809.572164 303.396581,809.682954 C301.537462,809.898687 299.677057,810.26081 297.91834,810.804657 C292.852752,812.371089 289.508379,815.141889 288.892162,819.432895 C288.501225,822.15207 289.703014,823.50757 291.968471,823.116766 C293.543895,822.844997 295.667564,821.745513 298.257956,819.990549 C299.032364,819.465895 299.837446,818.889275 300.665917,818.269057 C302.068834,817.218794 303.471876,816.09492 304.809324,814.97115 L305.605292,814.295417 L306.553834,813.468471 C306.666261,813.396543 306.925103,813.186618 307.188074,812.915168 C307.621077,812.468204 307.914189,812.006387 307.987692,811.490012 C308.11503,810.595428 307.538533,809.895725 306.438145,809.523212 C306.353435,809.494535 306.264466,809.480469 306.17504,809.481615 Z M306.052,811.062 C306.220349,811.127703 306.327501,811.189325 306.389483,811.242394 L306.423,811.276 C306.409664,811.378461 306.276551,811.58819 306.0547,811.817194 C305.872369,812.005403 305.685908,812.156627 305.575011,812.2343 L304.577318,813.098189 C304.332293,813.308449 304.070649,813.530726 303.794201,813.763007 C302.477873,814.869031 301.097247,815.974949 299.720227,817.005826 C298.91069,817.611868 298.125553,818.174204 297.372875,818.684136 C294.958924,820.319562 292.989105,821.339394 291.70022,821.561734 C290.552948,821.759645 290.207833,821.370389 290.45412,819.65733 C290.965189,816.098518 293.8385,813.717991 298.384525,812.312224 C300.041594,811.799808 301.809272,811.455735 303.578473,811.250436 L304.218809,811.181969 C304.832268,811.122103 305.362516,811.08728 305.786376,811.070619 L306.052,811.062 Z" id="Stroke-81" fill="#E4EBF7" fill-rule="nonzero"></path>
        <g id="分组" transform="translate(122.000000, 444.403000)">
            <mask id="mask-8" fill="white">
                <use xlink:href="#path-7"></use>
            </mask>
            <g id="Clip-84"></g>
            <path d="M130.45035,2.17755 C137.55735,2.36955 146.05935,23.33355 156.94935,41.47605 C171.12885,65.09955 187.79085,88.87455 194.67885,106.23405 C193.05585,112.41555 178.91235,127.63305 178.91235,127.63305 C178.91235,127.63305 181.63635,133.12305 182.29035,136.07955 C166.52235,156.91455 144.62835,159.43755 144.62835,159.43755 L144.57885,163.66605 C108.73935,180.16755 60.74685,164.35305 60.74685,164.35305 C60.74685,164.35305 59.85135,163.43505 60.49335,160.12005 C44.22135,159.93105 9.37785,139.28655 9.37785,139.28655 L14.33085,129.07155 L-0.00015,114.40455 C-0.00015,114.40455 44.32785,50.91255 52.21035,29.08605 C59.53035,8.81505 70.87785,0.78255 70.87785,0.78255 C70.87785,0.78255 106.28685,1.52205 130.45035,2.17755" id="Fill-83" fill="#4E5C93" mask="url(#mask-8)"></path>
        </g>
        <path d="M190.594082,461.996258 C190.740682,461.696771 191.102306,461.572832 191.401792,461.719432 C191.67133,461.851372 191.798674,462.157481 191.714577,462.435709 L191.678618,462.527142 L132.751,582.909 L133.302769,583.314979 L133.763863,583.645281 C134.927785,584.471497 136.299764,585.392966 137.871036,586.385916 C142.364796,589.225702 147.550953,592.066501 153.3593,594.718291 C162.389562,598.841039 172.079004,602.116824 182.310987,604.230433 C182.637535,604.297888 182.847571,604.61729 182.780117,604.943837 C182.712662,605.270385 182.39326,605.480421 182.066713,605.412967 C171.741812,603.280164 161.967057,599.975537 152.857811,595.816728 C146.997867,593.141382 141.764161,590.274537 137.225977,587.406677 C135.812725,586.513588 134.557494,585.676763 133.466375,584.912913 L133.06491,584.629923 C132.733398,584.394597 132.437363,584.180186 132.17736,583.988211 L131.617879,583.566754 C131.421273,583.412972 131.342321,583.157147 131.409675,582.92395 L131.447582,582.825758 L190.594082,461.996258 Z" id="Stroke-85" fill="#253368" fill-rule="nonzero"></path>
        <path d="M270.280728,496.579854 C270.559748,496.469372 270.871829,496.581289 271.020945,496.830784 L271.064346,496.918928 L304.287846,580.824428 C304.363977,581.016696 304.336409,581.234553 304.214783,581.401797 L304.006852,581.677629 L303.730339,582.031515 C303.68025,582.094665 303.628162,582.159871 303.57408,582.227087 L303.405858,582.434722 C302.744604,583.245469 301.959711,584.147651 301.05357,585.118404 C298.467735,587.888619 295.426131,590.657726 291.947471,593.242451 C284.515123,598.764857 276.135993,602.681794 266.884626,604.285577 C266.556084,604.342532 266.243577,604.122368 266.186623,603.793826 C266.129668,603.465284 266.349832,603.152777 266.678374,603.095823 C275.728977,601.526843 283.937683,597.689573 291.227306,592.273214 C294.644287,589.734318 297.632487,587.013832 300.170868,584.294454 C301.058202,583.343849 301.825481,582.461913 302.470126,581.671529 L302.78359,581.282033 L303.04,580.953 L269.941654,497.363472 C269.831172,497.084452 269.943089,496.772371 270.192584,496.623255 L270.280728,496.579854 Z" id="Stroke-87" fill="#253368" fill-rule="nonzero"></path>
        <path d="M236.962261,448.874961 C237.289235,448.809604 237.607282,449.021687 237.672639,449.348661 L239.143564,456.7582 C240.313527,462.674705 241.61719,469.31073 243.021131,476.51172 L244.739467,485.350478 C247.886893,501.587116 251.010744,517.964782 253.981329,533.883778 L255.638152,542.801753 C256.059633,545.08092 256.475359,547.337385 256.885077,549.569977 L258.522071,558.539529 C262.021409,577.825055 264.94611,594.701312 267.168254,608.577028 C267.214789,608.867609 267.045043,609.149409 266.766418,609.244125 C265.007643,609.842002 263.227255,610.395489 261.426148,610.905421 C239.722615,617.050155 216.569964,616.702516 194.705484,612.429237 L193.128449,612.113005 C190.540737,611.580785 188.158002,611.024195 186.003824,610.465216 L185.36445,610.297473 C184.678473,610.115509 184.052208,609.942746 183.488015,609.781384 L182.359149,609.449057 C182.178905,609.394195 182.044138,609.351978 181.956056,609.323533 C181.696762,609.239794 181.529829,608.995151 181.537245,608.730688 L181.549521,608.630861 L208.573521,473.194361 C208.638768,472.867365 208.956743,472.655175 209.283739,472.720421 C209.578035,472.779143 209.779339,473.042575 209.769092,473.333055 L209.757679,473.430639 L182.84,608.333 L183.820942,608.620688 C184.377456,608.779847 184.995948,608.950463 185.674049,609.130338 C188.389658,609.850689 191.494695,610.571361 194.9371,611.244159 C216.631334,615.484165 239.602908,615.829085 261.097208,609.743588 C262.433106,609.365367 263.757354,608.962955 265.069579,608.536011 L265.894,608.261 L265.214684,604.064853 C263.10875,591.184036 260.461119,575.992931 257.361173,558.905041 L255.697411,549.787934 L254.870236,545.292335 C254.452717,543.028964 254.029359,540.742495 253.600413,538.434101 C250.124586,519.728731 246.418166,500.306185 242.695271,481.156623 L239.924313,466.969654 L236.488561,449.585339 C236.423204,449.258365 236.635287,448.940318 236.962261,448.874961 Z" id="Stroke-89" fill="#253368" fill-rule="nonzero"></path>
        <path d="M225.467849,449.798646 C225.767859,449.806109 226.011432,450.031035 226.051249,450.318955 L226.056772,450.417049 L223.241272,566.419549 C223.233182,566.752893 222.956394,567.016563 222.623051,567.008654 C222.323041,567.001191 222.079468,566.776265 222.039651,566.488345 L222.034128,566.390251 L224.849628,450.387751 C224.857718,450.054407 225.134506,449.790737 225.467849,449.798646 Z" id="Stroke-91" fill="#253368" fill-rule="nonzero"></path>
        <path d="M205.681423,448.70636 C205.780332,448.387925 206.118656,448.209964 206.43709,448.308873 C206.723681,448.397891 206.896489,448.680835 206.85608,448.968673 L206.834577,449.06454 L182.989077,525.83454 C182.890168,526.152975 182.551844,526.330936 182.23341,526.232027 C181.946819,526.143009 181.774011,525.860065 181.81442,525.572227 L181.835923,525.47636 L205.681423,448.70636 Z" id="Stroke-93" fill="#253368" fill-rule="nonzero"></path>
        <path d="M190.28375,446.57845 L191.30675,438.81595 C191.30675,438.81595 221.96075,438.99895 252.02375,437.49295 C252.78425,440.93845 253.65725,447.14095 253.65725,447.14095 C251.12975,445.06495 223.82075,451.12795 190.28375,446.57845" id="Fill-95" fill="#4E5C93"></path>
        <path d="M250.429223,446.53711 C250.7623,446.521521 251.04495,446.778896 251.06054,447.111973 C251.076129,447.44505 250.818754,447.7277 250.485677,447.74329 L247.366343,447.88348 C234.402429,448.442059 221.879644,448.682779 210.726393,448.66028 L207.42681,448.64555 C203.99236,448.621365 200.912913,448.570828 198.415179,448.502185 L196.484738,448.441256 C195.63155,448.410157 194.929048,448.377804 194.413393,448.346112 L193.840588,448.304395 C193.764853,448.297559 193.699057,448.290779 193.643309,448.284055 C193.535417,448.271041 193.458233,448.258085 193.388371,448.23741 L193.341475,448.231739 C193.284993,448.218018 193.235653,448.165336 192.988956,447.901926 L193.079931,447.407122 C193.147928,447.084074 193.190951,447.079927 193.352291,447.064377 C193.478393,447.020932 193.609033,447.021668 193.727355,447.058368 L193.798,447.086 L194.193107,447.121335 L194.90123,447.164312 C195.274499,447.183918 195.717719,447.203666 196.221795,447.223064 L197.543771,447.268695 C200.614967,447.364201 204.737825,447.430479 209.399389,447.44883 L212.071804,447.454213 C223.765149,447.455613 236.899132,447.170371 250.429223,446.53711 Z" id="Stroke-97" fill="#253368" fill-rule="nonzero"></path>
        <path d="M161.49965,442.95145 L161.49965,442.95145 C154.10465,441.12295 149.59415,433.64545 151.42115,426.25045 L169.24265,354.18595 C171.07115,346.79245 178.54865,342.27895 185.94365,344.10745 C193.34015,345.93745 197.85065,353.41495 196.02365,360.80845 L178.20215,432.87295 C176.37215,440.26795 168.89615,444.77995 161.49965,442.95145" id="Fill-99" fill="#FFC999"></path>
        <path d="M188.4674,391.3582 L196.0229,360.8092 C197.8439,353.4442 193.3094,345.9292 185.9429,344.1082 C178.5794,342.2872 171.0629,346.8217 169.2434,354.1867 L161.7599,384.4462 L188.4674,391.3582 Z" id="Fill-101" fill="#597EF7"></path>
        <path d="M186.444541,343.740394 C193.962046,345.599101 198.630055,353.1904 196.945895,360.710003 L196.873098,361.018973 L189.317598,391.567973 C189.260947,391.797028 189.047765,391.945805 188.820601,391.929327 L188.735038,391.915236 L162.027538,385.003236 C161.772501,384.937231 161.61926,384.676975 161.685264,384.421938 C161.743935,384.195239 161.956088,384.04897 162.18163,384.065622 L162.266562,384.079664 L188.507,390.87 L195.946999,360.789937 C197.679704,353.783473 193.448458,346.631543 186.51855,344.745187 L186.215559,344.666506 C185.95982,344.603274 185.803762,344.344698 185.866994,344.088959 C185.9232,343.861636 186.133752,343.713073 186.359461,343.727275 L186.444541,343.740394 Z" id="Stroke-103" fill="#1D39C4" fill-rule="nonzero"></path>
        <path d="M331.91225,320.85595 L332.42225,321.86095 C336.00275,328.92895 333.17675,337.55995 326.10875,341.14195 L260.87675,374.19745 C253.80875,377.77795 245.17625,374.95195 241.59425,367.88395 L241.08575,366.87895 C237.50525,359.81245 240.32975,351.17995 247.39775,347.59945 L312.63125,314.54395 C319.69775,310.96195 328.33025,313.78945 331.91225,320.85595" id="Fill-105" fill="#FFC999"></path>
        <path d="M274.97675,333.62425 L246.90575,347.84725 C240.13775,351.27775 237.63275,360.06775 241.34075,367.38175 C245.04725,374.69575 253.61675,377.87425 260.38325,374.44675 L288.18875,360.35725 L274.97675,333.62425 Z" id="Fill-107" fill="#597EF7"></path>
        <path d="M274.557206,332.79789 C274.775836,332.687097 275.037482,332.753804 275.17873,332.94361 L275.225735,333.020451 L288.437735,359.753451 C288.559044,359.998906 288.458404,360.296226 288.212949,360.417535 C287.994767,360.525365 287.735605,360.457828 287.595508,360.269098 L287.548865,360.192749 L274.558,333.908 L246.935855,347.90683 C240.513525,351.160697 238.072303,359.454582 241.438967,366.469339 L241.589009,366.773503 C241.712774,367.017728 241.615122,367.316043 241.370897,367.439809 C241.126672,367.563574 240.828357,367.465922 240.704591,367.221697 C236.929583,359.77251 239.398965,350.824456 246.205546,347.169592 L246.487706,347.02239 L274.557206,332.79789 Z" id="Stroke-109" fill="#1D39C4" fill-rule="nonzero"></path>
        <path d="M258.1148,341.86105 C251.3558,338.06005 243.3773,341.73655 239.4653,338.22055 C237.1523,336.14155 236.3558,326.30155 236.3558,326.30155 L207.5063,326.30155 C207.5063,326.30155 206.7083,336.14155 204.3953,338.22055 C200.4848,341.73655 190.1933,339.60355 179.4143,345.44305 C169.2398,350.95555 175.3448,366.09805 180.0038,378.61705 C181.0808,381.51205 179.2223,386.96605 181.0223,390.99055 C182.8328,395.04055 185.5853,399.94405 186.6773,402.56455 C190.2653,411.17305 189.5273,420.44755 191.8418,428.25805 C191.8418,428.25805 188.1548,435.39205 193.9763,438.28705 L249.8858,438.28705 C256.8668,435.10105 252.0188,428.25805 252.0188,428.25805 C254.2283,420.80455 252.8873,414.79255 256.1618,403.87405 C256.8173,401.69155 259.2803,398.23105 261.3803,393.61105 C264.6548,386.40505 264.0023,379.49005 263.5643,377.74405 C259.3823,361.07755 267.8093,347.31505 258.1148,341.86105" id="Fill-111" fill="#597EF7"></path>
        <path d="M212.324704,339.126116 L231.448204,339.280616 C231.711635,339.282744 231.923463,339.498022 231.92135,339.761454 C231.919443,339.995615 231.749136,340.189003 231.526297,340.227592 L231.440496,340.234584 L212.316996,340.080084 C212.053565,340.077956 211.841737,339.862678 211.84385,339.599246 C211.845757,339.365085 212.016064,339.171697 212.238903,339.133108 L212.324704,339.126116 Z" id="Stroke-113" fill="#1D39C4" fill-rule="nonzero"></path>
        <path d="M184.522368,361.525475 C184.635434,361.287533 184.919983,361.186301 185.157925,361.299368 C185.395867,361.412434 185.497099,361.696983 185.384032,361.934925 L185.246541,362.237447 L185.003384,362.801452 C184.903528,363.039114 184.79791,363.29762 184.687484,363.576152 C184.160611,364.905108 183.633358,366.411298 183.141116,368.064326 C181.357763,374.053111 180.496166,380.298375 181.060139,386.360908 C181.502351,391.102755 183.028283,394.964766 186.703588,401.064071 L187.301917,402.046166 L187.365479,402.213517 L188.106596,406.378792 C188.426526,408.164022 188.749071,409.949242 189.067758,411.695555 L190.164748,417.627271 C191.166883,422.961966 191.914343,426.668958 192.303732,428.135815 C192.335595,428.255844 192.319391,428.383567 192.258564,428.491836 C190.088515,432.354452 191.668115,437.280934 193.852907,437.78635 L193.9772,437.8102 L249.949,437.81 L250.091866,437.723253 C250.11263,437.709835 250.134372,437.695522 250.157036,437.680306 L250.265056,437.605708 C250.588742,437.376153 250.913834,437.087893 251.217489,436.737786 C252.819302,434.890936 253.207496,432.203792 251.5805,428.4478 C251.542375,428.359785 251.531669,428.262321 251.549781,428.16813 L251.963505,426.000604 C253.114434,419.925433 254.084747,414.415314 254.883097,409.540976 L255.358204,406.584052 C255.444224,406.037137 255.524874,405.517157 255.60021,405.024569 L255.928808,402.812056 L256.008604,402.60728 C260.698115,395.811624 262.760227,390.42769 263.087403,384.414305 C263.385356,378.934013 262.384177,373.485838 260.530947,368.359043 C259.960328,366.780477 259.349151,365.35073 258.738502,364.096077 L258.490413,363.596274 C258.410419,363.438378 258.333237,363.289257 258.259197,363.14912 L257.995546,362.66394 C257.969023,362.616841 257.947943,362.580185 257.932637,362.554183 C257.798993,362.32716 257.874693,362.034781 258.101717,361.901137 C258.32874,361.767493 258.621119,361.843193 258.754763,362.070217 L258.92708,362.376708 L258.989901,362.492274 C259.173228,362.831658 259.377077,363.228167 259.596297,363.678581 C260.221197,364.962512 260.845569,366.423129 261.42813,368.03473 C263.321789,373.273369 264.345616,378.844788 264.039996,384.466114 C263.710966,390.513556 261.682517,395.93931 257.147593,402.631784 L256.857,403.055 L256.617029,404.683927 L256.385109,406.192705 C256.219825,407.253046 256.033122,408.421754 255.824553,409.695174 L255.535184,411.444496 C254.744406,416.179153 253.800297,421.469732 252.695628,427.257293 L252.513,428.206 L252.598409,428.407053 C254.155776,432.21634 253.756631,435.124941 252.088634,437.183433 L251.938183,437.362859 C251.387073,437.998276 250.832477,438.416047 250.413207,438.646191 L250.278652,438.715998 L250.0697,438.7642 L193.906357,438.75891 C190.907511,438.308534 188.984111,432.690774 191.300964,428.256804 L191.333,428.195 L191.142444,427.399394 C190.730944,425.607241 190.107449,422.475608 189.318843,418.29079 L188.837585,415.716805 C188.450724,413.632665 188.050282,411.442307 187.648885,409.221614 L186.441,402.468 L186.180584,402.041825 C182.325855,395.714144 180.665812,391.695988 180.148718,386.834957 L180.110251,386.449383 C179.533618,380.250766 180.411335,373.888656 182.226793,367.792058 C182.727346,366.111122 183.263802,364.578644 183.800638,363.224556 L184.019905,362.681815 C184.090686,362.510005 184.159065,362.34738 184.224758,362.19418 L184.462742,361.654058 C184.487387,361.600006 184.507356,361.557065 184.522368,361.525475 Z" id="Stroke-115" fill="#1D39C4" fill-rule="nonzero"></path>
        <path d="M255.26585,388.18 C255.52929,388.18 255.74285,388.39356 255.74285,388.657 C255.74285,388.891169 255.574111,389.085926 255.351591,389.126315 L255.26585,389.134 L186.26285,389.134 C185.99941,389.134 185.78585,388.92044 185.78585,388.657 C185.78585,388.422831 185.954589,388.228074 186.177109,388.187685 L186.26285,388.18 L255.26585,388.18 Z" id="Stroke-117" fill="#1D39C4" fill-rule="nonzero"></path>
        <path d="M203.806281,337.876764 C204.053435,337.705892 204.38314,337.744459 204.585016,337.954076 L204.647286,338.030231 L221.677,362.663 L239.473979,338.452475 C239.651937,338.210373 239.976207,338.139365 240.235384,338.27173 L240.319075,338.323429 C240.561177,338.501387 240.632185,338.825657 240.49982,339.084834 L240.448121,339.168525 L222.149621,364.062525 C221.924193,364.369207 221.483373,364.388651 221.229589,364.126687 L221.165314,364.048269 L203.652814,338.717769 C203.462956,338.443153 203.531665,338.066623 203.806281,337.876764 Z" id="Stroke-119" fill="#E4EBF7" fill-rule="nonzero"></path>
        <path d="M231.48845,372.6916 C231.48845,378.2386 226.99145,382.7356 221.44445,382.7356 C215.89595,382.7356 211.39895,378.2386 211.39895,372.6916 C211.39895,367.1446 215.89595,362.6476 221.44445,362.6476 C226.99145,362.6476 231.48845,367.1446 231.48845,372.6916" id="Fill-121" fill="#F1F2F6"></path>
        <path d="M228.69635,372.6916 C228.69635,376.6966 225.44885,379.9441 221.44385,379.9441 C217.43735,379.9441 214.19135,376.6966 214.19135,372.6916 C214.19135,368.6866 217.43735,365.4391 221.44385,365.4391 C225.44885,365.4391 228.69635,368.6866 228.69635,372.6916" id="Fill-123" fill="#FAAD14"></path>
        <path d="M213.2525,559.55305 L128.0945,539.92705 C125.243,539.27005 123.4655,536.42755 124.1225,533.57755 L138.0575,473.11105 C138.7145,470.26105 141.557,468.48355 144.407,469.14055 L229.5665,488.76655 C232.415,489.42205 234.194,492.26605 233.537,495.11605 L219.602,555.58255 C218.945,558.43105 216.1025,560.20855 213.2525,559.55305" id="Fill-125" fill="#597EF7"></path>
        <path d="M212.40875,562.5091 L127.24925,542.8846 C124.39775,542.2276 122.62175,539.3836 123.27725,536.5336 L137.21225,476.0686 C137.86925,473.2186 140.71175,471.4396 143.56325,472.0966 L228.72125,491.7226 C231.57125,492.3796 233.34875,495.2221 232.69175,498.0721 L218.75675,558.5386 C218.10125,561.3871 215.25725,563.1661 212.40875,562.5091" id="Fill-127" fill="#253368"></path>
        <path d="M165.86045,519.31225 L165.86045,519.31225 C161.61245,519.45775 158.00345,516.23575 157.66595,511.99975 L151.14995,430.23025 C150.80045,422.69725 156.67445,416.32975 164.21195,416.07175 C171.81695,415.81375 178.14095,421.87075 178.20845,429.47875 L173.52395,511.81975 C173.29145,515.92375 169.96745,519.17275 165.86045,519.31225" id="Fill-129" fill="#FFC999"></path>
        <path d="M155.06315,528.1123 C155.06315,528.1123 153.42065,507.7183 160.13165,502.2088 C166.20815,497.2183 173.63015,505.9663 173.63015,505.9663 C173.63015,505.9663 176.46215,510.6553 179.84165,517.9768 C182.28215,523.2643 186.03365,534.8698 182.37515,534.0253 C178.45415,533.1208 178.03415,525.0058 175.33565,526.1413 C172.56515,527.3068 174.08315,532.2733 174.21065,538.5298 C174.28865,542.4403 175.90115,542.2408 175.33565,545.5693 C174.23165,552.0748 159.21665,550.7188 155.06315,528.1123" id="Fill-131" fill="#FFC999"></path>
        <path d="M168.983313,531.194045 C169.303006,531.261901 169.50716,531.576071 169.439305,531.895763 L169.415584,532.024525 C169.40204,532.106255 169.386298,532.213833 169.369836,532.346471 L169.353188,532.487434 C168.922911,536.315006 169.720242,541.417536 172.763423,547.267822 C172.91424,547.557756 172.801463,547.915056 172.511528,548.065873 C172.221594,548.21669 171.864294,548.103913 171.713477,547.813978 C168.55584,541.743658 167.721744,536.405851 168.177096,532.355223 L168.214879,532.051504 C168.239678,531.871601 168.263103,531.737161 168.281595,531.650037 C168.342665,531.362313 168.60325,531.168176 168.887812,531.181693 L168.983313,531.194045 Z" id="Stroke-133" fill="#DD936F" fill-rule="nonzero"></path>
        <path d="M163.831368,530.900164 C164.157457,530.921934 164.404156,531.20393 164.382386,531.530018 C164.129371,535.319859 164.882913,539.404357 166.297265,543.459459 C166.727626,544.69335 167.188682,545.832188 167.649314,546.848052 C167.769915,547.114021 167.883912,547.356891 167.989661,547.575197 L168.256052,548.106572 C168.409879,548.39492 168.300827,548.753375 168.012478,548.907202 C167.72413,549.061029 167.365675,548.951977 167.211848,548.663628 L167.032336,548.311106 C166.892948,548.030058 166.738019,547.704154 166.571446,547.336799 C166.096722,546.289858 165.622423,545.118308 165.179786,543.849217 C163.717402,539.656403 162.93636,535.42285 163.201514,531.451182 C163.223284,531.125093 163.50528,530.878394 163.831368,530.900164 Z" id="Stroke-135" fill="#DD936F" fill-rule="nonzero"></path>
        <path d="M159.005,529.77355 C159.331815,529.77355 159.59675,530.038485 159.59675,530.3653 L159.60493,530.75325 C159.609355,530.882386 159.615816,531.034933 159.624877,531.209317 C159.660354,531.89204 159.724306,532.653921 159.823845,533.474891 C160.108044,535.818866 160.619346,538.161673 161.412284,540.341638 C161.835377,541.504814 162.329286,542.591155 162.898259,543.586668 C163.060427,543.870409 162.961873,544.23189 162.678132,544.394059 C162.394391,544.556227 162.03291,544.457673 161.870741,544.173932 C161.266845,543.117315 160.745258,541.970096 160.300076,540.746192 C159.473232,538.473013 158.943245,536.044594 158.64895,533.617343 C158.546016,532.768384 158.479808,531.979617 158.442972,531.270732 L158.417944,530.657817 C158.414624,530.535739 158.41325,530.437715 158.41325,530.3653 C158.41325,530.038485 158.678185,529.77355 159.005,529.77355 Z" id="Stroke-137" fill="#DD936F" fill-rule="nonzero"></path>
    </g>
</svg>