<svg xmlns="http://www.w3.org/2000/svg" xmlns:xlink="http://www.w3.org/1999/xlink" width="512" height="1024" version="1.1" viewBox="0 0 512 1024"><title>2.人物组件/7.设计师/站立/看手机</title><desc>Created with Sketch.</desc><defs><polygon id="path-1" points=".127 1.251 60.204 1.251 60.204 10.5 .127 10.5"/><polygon id="path-3" points=".801 .742 60.928 .742 60.928 10.541 .801 10.541"/><polygon id="path-5" points="0 .366 188.449 .366 188.449 170.824 0 170.824"/><polygon id="path-7" points=".234 .285 134.737 .285 134.737 146.236 .234 146.236"/></defs><g id="2.人物组件/7.设计师/站立/看手机" fill="none" fill-rule="evenodd" stroke="none" stroke-width="1"><path id="Fill-1" fill="#FFC999" d="M199.94255,799.7998 L199.94255,799.7998 C193.25855,799.9573 187.64105,794.8078 187.21955,788.1358 L178.17455,645.3943 C177.52355,635.1133 185.55455,626.3518 195.85355,626.1103 C206.15555,625.8673 214.59005,634.2403 214.42205,644.5423 L212.10305,787.5493 C211.99505,794.2363 206.62805,799.6423 199.94255,799.7998"/><path id="Fill-3" fill="#FFC999" d="M192.71645,492.784 L192.71645,492.784 C180.57995,493.069 171.05945,503.2915 171.63245,515.4175 L177.80495,645.7945 C178.28045,655.837 186.68345,663.664 196.73345,663.4285 C206.78345,663.1915 214.80845,654.9775 214.80995,644.9245 L214.842951,514.4005 C214.84595,502.261 204.85445,492.499 192.71645,492.784"/><polygon id="Fill-5" fill="#597EF7" points="187.502 806.527 210.986 806.83 212.79 769.702 185.828 769.353"/><path id="Stroke-7" fill="#DFE5F1" fill-rule="nonzero" d="M186.030588,775.995615 L210.923088,776.318115 C211.348864,776.323631 211.689552,776.673262 211.684101,777.099038 C211.678979,777.489333 211.38477,777.808129 211.007815,777.854303 L210.903112,777.859985 L186.010612,777.537485 C185.584836,777.531969 185.244148,777.182338 185.249599,776.756562 C185.254721,776.366267 185.54893,776.047471 185.925885,776.001297 L186.030588,775.995615 Z"/><path id="Fill-9" fill="#4E5C93" d="M185.17985,805.033 L210.99935,805.3675 L211.69235,852.6805 L153.51485,851.926 L153.465328,844.663 C153.45785,841.993 155.36285,839.701 157.98935,839.2225 L173.49335,834.8815 L181.48535,830.467 C183.89435,829.1365 185.37485,826.6 185.33585,823.849 C185.25785,817.9375 185.13635,807.9115 185.17985,805.033"/><g id="分组" transform="translate(152.000000, 843.715000)"><mask id="mask-2" fill="#fff"><use xlink:href="#path-1"/></mask><path id="Fill-11" fill="#E4EBF7" d="M59.1105,10.50015 L1.1085,9.74715 C0.5595,9.74115 0.12,9.28815 0.127405421,8.73915 L0.21,2.23515 C0.2175,1.68465 0.669,1.24515 1.2195,1.25108929 L59.22,2.00415 C59.769,2.01165 60.21,2.46315 60.2040605,3.01215 L60.1185,9.51765 C60.111,10.06665 59.6595,10.50765 59.1105,10.50015" mask="url(#mask-2)"/></g><path id="Fill-13" fill="#E4EBF7" d="M153.2198,844.96675 L153.2198,844.96675 C153.2723,840.86725 156.2933,837.41125 160.3478,836.80975 L173.4938,834.85975 L174.2288,845.09575 L153.2198,844.96675 Z"/><path id="Stroke-15" fill="#96A7CA" fill-rule="nonzero" d="M153.224911,844.572283 L211.225411,845.323783 C211.443269,845.326606 211.61759,845.505503 211.614801,845.723361 C211.612297,845.913987 211.47502,846.071279 211.294792,846.105733 L211.215189,846.112717 L153.214689,845.361217 C152.996831,845.358394 152.82251,845.179497 152.825299,844.961639 C152.827803,844.771013 152.96508,844.613721 153.145308,844.579267 L153.224911,844.572283 Z"/><path id="Stroke-17" fill="#E4EBF7" fill-rule="nonzero" d="M184.828777,822.056326 C184.924142,821.631137 185.346135,821.363762 185.771324,821.459127 L186.01714,821.519659 C186.296619,821.593542 186.674184,821.708035 187.123718,821.868145 C188.118453,822.222437 189.11354,822.68184 190.047463,823.260803 C191.072122,823.896016 191.961163,824.638775 192.672315,825.500956 C193.099737,826.01915 192.725411,826.800376 192.053739,826.791938 C191.33768,826.782942 190.224103,826.92407 188.840996,827.183806 C188.369962,827.272262 187.876143,827.372873 187.366329,827.483367 L186.66087,827.640178 L186.021,827.788 L186.191347,827.931021 C186.804593,828.462303 187.413011,829.063617 187.996464,829.735337 L188.343379,830.146821 C188.548008,830.396916 188.746696,830.653546 188.938861,830.916723 C189.346426,831.474895 188.890281,832.250158 188.204416,832.164986 C187.337798,832.057366 186.307881,832.044802 185.151444,832.116599 C184.129888,832.180022 183.045645,832.306432 181.937639,832.480125 L181.222,832.598 L181.409953,832.718158 C181.489614,832.770992 181.569494,832.825843 181.649488,832.882765 L181.889701,833.059795 C182.58846,833.59285 183.20082,834.239894 183.700226,835.010342 C183.937243,835.375996 183.832962,835.864558 183.467308,836.101576 C183.101654,836.338593 182.613092,836.234312 182.376074,835.868658 C181.978639,835.255522 181.491408,834.740695 180.932607,834.314407 C180.367158,833.883049 179.758867,833.563942 179.151537,833.341809 L178.867364,833.244566 C178.650365,833.175686 178.485142,833.13635 178.388536,833.120198 C177.542977,832.978821 177.497909,831.780247 178.330464,831.575771 L178.915431,831.44176 L179.084454,831.405092 C179.672176,831.278757 180.317942,831.152542 181.002762,831.034733 C182.394103,830.79538 183.764896,830.621644 185.053663,830.541631 C185.521126,830.512609 185.971318,830.496398 186.402866,830.493855 L186.558,830.494 L186.483234,830.410252 C186.050413,829.940223 185.605446,829.511327 185.158458,829.124025 L184.822997,828.841355 C184.618764,828.67405 184.426105,828.525005 184.247915,828.39432 L183.938161,828.175339 C183.880196,828.136062 183.837986,828.108691 183.813016,828.093267 C183.223962,827.729415 183.355745,826.83747 184.024851,826.659508 L184.910056,826.434274 C185.589796,826.26621 186.307729,826.098166 187.032082,825.941173 C187.555528,825.827724 188.06352,825.724226 188.549752,825.632916 L189.265364,825.504734 C189.495887,825.465615 189.718288,825.430163 189.932242,825.398545 L190.274,825.35 L190.157762,825.256076 C189.961384,825.102816 189.75612,824.954841 189.542545,824.812126 L189.216023,824.601994 C188.385468,824.087111 187.490043,823.673719 186.594265,823.354672 C186.359293,823.270982 186.137357,823.198558 185.931846,823.136904 L185.511529,823.019582 C185.474571,823.010214 185.445883,823.003338 185.425976,822.998873 C185.000787,822.903508 184.733412,822.481515 184.828777,822.056326 Z"/><path id="Stroke-19" fill="#E4EBF7" fill-rule="nonzero" d="M185.692548,814.493476 C185.602579,814.493 185.513185,814.507878 185.428233,814.537506 C184.355543,814.911606 183.784873,815.591426 183.889315,816.465193 C183.953248,817.000053 184.255438,817.474462 184.707382,817.932392 C184.974108,818.20265 185.236537,818.411171 185.425054,818.540352 L185.496672,818.608069 L185.825425,818.892192 C186.203881,819.215486 186.632307,819.575447 187.102368,819.962954 C188.445477,821.07018 189.854458,822.177506 191.263303,823.212293 C192.095349,823.823424 192.903895,824.391588 193.68162,824.908529 C196.294078,826.64499 198.433433,827.729794 200.015348,827.990669 C202.290416,828.365853 203.484521,827.000251 203.066954,824.280037 C202.417153,820.037877 199.104016,817.308879 194.100193,815.780555 C192.35014,815.246034 190.494054,814.892876 188.630977,814.685889 C188.121401,814.629275 187.632504,814.586159 187.169587,814.55479 L186.715526,814.527273 C186.474418,814.514415 186.260264,814.50575 186.075794,814.500393 L185.692548,814.493476 Z M185.828,816.072 L186.156215,816.080942 C186.762986,816.100914 187.547954,816.153275 188.456735,816.25424 C190.229134,816.451152 191.991679,816.786512 193.639244,817.289731 C198.007443,818.623915 200.817608,820.879045 201.459872,824.243948 L201.507185,824.519213 L201.555574,824.878477 C201.714955,826.28728 201.341972,826.610131 200.27211,826.433698 C198.976088,826.21997 196.990709,825.213242 194.555133,823.594353 C193.799127,823.091847 193.010531,822.537703 192.197434,821.940489 C190.814537,820.924762 189.428042,819.835107 188.106128,818.745353 L187.319697,818.090321 L186.391652,817.29663 C186.204511,817.161533 186.015363,817.01124 185.830512,816.823941 L185.738732,816.726541 C185.595588,816.5671 185.502242,816.424199 185.468891,816.32903 L185.459,816.289 C185.507737,816.231123 185.625403,816.154063 185.828,816.072 Z"/><path id="Fill-21" fill="#FFC999" d="M285.84245,797.719 L285.84245,797.719 C292.47995,796.897 297.28295,792.4825 296.72645,785.8195 L284.80895,641.791 C283.94945,631.5235 274.72445,624.031 264.49895,625.2955 C254.27345,626.5615 247.15295,636.0775 248.82395,646.2445 L273.52145,788.8765 C274.60595,795.475 279.20645,798.5395 285.84245,797.719"/><path id="Fill-23" fill="#FFC999" d="M248.11535,492.94435 L248.11535,492.94435 C260.16335,491.45185 271.07735,500.17285 272.28185,512.25385 L285.23135,642.13135 C286.22885,652.13485 279.06185,661.10635 269.08385,662.34235 C259.10735,663.57685 249.96785,656.62435 248.49635,646.67935 L229.38635,517.56385 C227.60885,505.55335 236.06735,494.43535 248.11535,492.94435"/><polygon id="Fill-25" fill="#597EF7" points="300.119 801.845 275.138 802.373 268.514 765.263 295.47 764.657"/><path id="Stroke-27" fill="#DFE5F1" fill-rule="nonzero" d="M295.298222,771.300895 C295.723926,771.291325 296.076785,771.628668 296.086554,772.054372 C296.095128,772.4446 295.812397,772.773619 295.437314,772.833117 L295.332878,772.842505 L270.444878,773.402005 C270.019174,773.411575 269.666315,773.074232 269.656546,772.648528 C269.647972,772.2583 269.930703,771.929281 270.305786,771.869783 L270.410222,771.860395 L295.298222,771.300895 Z"/><path id="Fill-29" fill="#4E5C93" d="M300.4733,800.32855 L274.6598,800.90905 L279.3683,848.22655 L337.5368,846.91855 L337.5143,839.65555 C337.4993,836.98555 335.5703,834.71155 332.9408,834.25855 L317.3963,830.06455 L309.3623,825.72655 C306.9413,824.42005 304.8143,821.75755 303.9473,819.14605 C302.3438,814.31755 300.5468,803.20705 300.4733,800.32855"/><g id="分组" transform="translate(278.000000, 839.215000)"><mask id="mask-4" fill="#fff"><use xlink:href="#path-3"/></mask><path id="Fill-31" fill="#E4EBF7" d="M1.96395,10.54035 L59.95545,9.23535 C60.50445,9.22335 60.93945,8.76735 60.9291362,8.21835 L60.78195,1.71435 C60.76995,1.16535 60.31395,0.72885 59.76345,0.74235 L1.77345,2.04585 C1.22445,2.05785 0.78795,2.51385 0.801145101,3.06435 L0.94545,9.56685 C0.95895,10.11735 1.41495,10.55235 1.96395,10.54035" mask="url(#mask-4)"/></g><path id="Fill-33" fill="#E4EBF7" d="M337.76375,839.95705 L337.76375,839.95705 C337.67075,835.85905 334.61975,832.43155 330.55775,831.86755 L317.39525,830.04355 L316.75775,840.28555 L337.76375,839.95705 Z"/><path id="Stroke-35" fill="#96A7CA" fill-rule="nonzero" d="M337.754885,839.56265 C337.972706,839.557753 338.153254,839.730363 338.158252,839.948185 C338.162435,840.138778 338.030816,840.300835 337.851921,840.341651 L337.772615,840.35145 L279.782615,841.65495 C279.564794,841.659847 279.384246,841.487237 279.379248,841.269415 C279.375065,841.078822 279.506684,840.916765 279.685579,840.875949 L279.764885,840.86615 L337.754885,839.56265 Z"/><path id="Stroke-37" fill="#E4EBF7" fill-rule="nonzero" d="M304.991174,816.759201 C305.415438,816.659803 305.839951,816.923159 305.939349,817.347424 C306.030464,817.736333 305.816764,818.12545 305.453723,818.264164 L305.351126,818.295599 C305.301891,818.307134 305.198294,818.334141 305.048251,818.377786 C304.791866,818.452364 304.504563,818.545942 304.1943,818.659606 C303.307107,818.984627 302.420225,819.403234 301.597518,819.921929 C301.263537,820.132496 300.947937,820.354904 300.652717,820.589227 L300.525,820.694 L300.55468,820.697867 C300.966563,820.749473 301.413063,820.81648 301.891571,820.897551 L302.256412,820.96097 C302.75582,821.04989 303.278047,821.151389 303.816238,821.263106 C304.294168,821.362313 304.768717,821.466179 305.230687,821.571604 L306.705616,821.923672 C306.735014,821.93109 306.761791,821.937895 306.785855,821.944057 C307.456562,822.115787 307.59665,823.006422 307.011048,823.375757 L306.888258,823.457922 C306.850325,823.484138 306.805512,823.51565 306.75425,823.552442 C306.533954,823.710557 306.286689,823.901275 306.019199,824.124309 C305.469824,824.582379 304.919643,825.105012 304.388087,825.691168 L304.29,825.802 L304.455966,825.80097 C304.745307,825.800041 305.043071,825.805166 305.348843,825.816088 L305.813454,825.83679 C307.123268,825.906348 308.517066,826.071375 309.929542,826.30282 C310.429848,826.384799 310.90809,826.471169 311.356628,826.558685 L312.10694,826.711759 C312.293097,826.751505 312.434725,826.783305 312.526416,826.804887 C313.323014,826.992381 313.328674,828.093404 312.593304,828.323118 L312.337533,828.381719 C312.190809,828.418363 311.982994,828.480961 311.730702,828.575607 C311.131352,828.800452 310.530994,829.120809 309.972873,829.551291 C309.408997,829.986213 308.919109,830.511325 308.522359,831.136614 C308.288901,831.504551 307.801373,831.613567 307.433436,831.380109 C307.065499,831.146651 306.956483,830.659123 307.189941,830.291186 C307.688487,829.505465 308.304151,828.845533 309.009121,828.301785 C309.167242,828.179825 309.325341,828.066226 309.482576,827.960578 L309.644,827.855 L308.996586,827.754138 C308.096093,827.62041 307.21027,827.517339 306.360247,827.453223 L305.729771,827.412569 C304.565572,827.350744 303.529795,827.372849 302.65994,827.48941 C301.975003,827.581192 301.511384,826.810526 301.913384,826.248425 C302.112587,825.969889 302.319037,825.698548 302.532061,825.434395 C303.207273,824.597121 303.923544,823.859999 304.646674,823.222679 L304.798,823.092 L304.19334,822.956815 L303.495518,822.808169 C302.971296,822.699353 302.463597,822.600677 301.979797,822.514536 L301.359337,822.408929 C300.258803,822.230871 299.366368,822.139486 298.759987,822.153198 C298.088328,822.168387 297.706204,821.390746 298.128613,820.868322 C298.837141,819.992032 299.727403,819.235543 300.755931,818.587083 C301.680785,818.003986 302.66629,817.538829 303.651484,817.177906 L304.072043,817.029918 C304.466932,816.89689 304.781933,816.808223 304.991174,816.759201 Z"/><path id="Stroke-39" fill="#E4EBF7" fill-rule="nonzero" d="M305.00414,809.793615 L304.602382,809.803982 C303.991794,809.826541 303.180436,809.884164 302.225681,809.994954 C300.366562,810.210687 298.506157,810.57281 296.74744,811.116657 C291.681852,812.683089 288.337479,815.453889 287.721262,819.744895 C287.330769,822.464079 288.532676,823.819481 290.798011,823.428801 C292.373426,823.157105 294.496964,822.057716 297.087138,820.30286 C297.861656,819.77812 298.666855,819.20139 299.49545,818.581044 C300.898286,817.530779 302.301233,816.406903 303.638583,815.283131 L304.43449,814.607397 L305.382959,813.780449 C305.495361,813.708543 305.754203,813.498618 306.017174,813.227168 C306.450177,812.780204 306.743289,812.318387 306.816792,811.802012 C306.94413,810.907428 306.367633,810.207725 305.267245,809.835212 C305.182535,809.806535 305.093566,809.792469 305.00414,809.793615 Z M304.881,811.374 C305.049449,811.439703 305.156601,811.501325 305.218583,811.554394 L305.252,811.588 C305.238764,811.690461 305.105651,811.90019 304.8838,812.129194 C304.701469,812.317403 304.515008,812.468627 304.404111,812.5463 L303.406471,813.410209 C303.161465,813.620469 302.899842,813.842746 302.623415,814.075026 C301.307189,815.181048 299.92666,816.286964 298.549723,817.317839 C297.74007,817.924004 296.954823,818.486444 296.202043,818.996456 L295.554945,819.427049 C293.435836,820.810574 291.701502,821.67169 290.529828,821.873757 C289.382525,822.071621 289.037236,821.682235 289.283238,819.969205 C289.794289,816.410518 292.6676,814.029991 297.213625,812.624224 C298.870694,812.111808 300.638372,811.767735 302.407573,811.562436 L303.047909,811.493969 C303.661368,811.434103 304.191616,811.39928 304.615476,811.382619 L304.881,811.374 Z"/><path id="Fill-41" fill="#FFC999" d="M240.8,472.2724 L240.8,472.2724 C243.428,475.6114 248.2175,476.2939 251.672,473.8204 L318.374,426.0739 C324.3575,421.4854 325.4375,412.8889 320.7725,406.9609 C316.0685,400.9819 307.361,400.0534 301.5005,404.9074 L241.583,461.5834 C238.598,464.4064 238.259,469.0429 240.8,472.2724"/><path id="Fill-43" fill="#FFC999" d="M249.91565,484.5097 C249.91565,484.5097 256.19315,471.1897 250.20065,464.9077 C244.77365,459.2167 238.44665,463.9462 238.44665,463.9462 C238.44665,463.9462 231.40865,467.6497 225.76265,474.4492 C222.04265,478.9297 215.83115,488.1682 217.92065,490.4407 C220.64465,493.4032 227.06615,482.5387 229.60715,483.9937 C232.21565,485.4862 231.05465,487.8292 230.16965,494.0257 C229.61615,497.8972 227.54765,501.4972 227.70365,504.8692 C228.01115,511.4602 242.16365,505.2742 249.91565,484.5097"/><path id="Stroke-45" fill="#DD936F" fill-rule="nonzero" d="M235.91278,488.341884 C236.237532,488.305229 236.530511,488.538777 236.567166,488.86353 L236.585087,489.072469 L236.591714,489.175709 C236.679676,490.657392 236.554223,492.631577 236.048153,494.954071 C235.292725,498.420935 233.821792,501.943915 231.469172,505.374568 C231.28434,505.644095 230.916009,505.712754 230.646482,505.527922 C230.376955,505.34309 230.308296,504.974759 230.493128,504.705232 C232.75627,501.405059 234.167945,498.024004 234.891787,494.702099 C235.373508,492.491349 235.49214,490.624504 235.410294,489.245845 L235.391134,488.99627 C235.354479,488.671518 235.588027,488.378539 235.91278,488.341884 Z"/><path id="Stroke-47" fill="#DD936F" fill-rule="nonzero" d="M241.382847,488.319246 C241.708339,488.348626 241.948384,488.636306 241.919004,488.961797 C241.634727,492.111187 240.740175,495.185766 239.42731,498.090937 C238.862748,499.340228 238.257732,500.4744 237.65199,501.473344 C237.492445,501.736454 237.341206,501.976209 237.200361,502.191539 L236.901042,502.635338 C236.872631,502.675875 236.849439,502.708295 236.831783,502.732435 C236.63885,502.996225 236.268604,503.053665 236.004815,502.860733 C235.741025,502.6678 235.683585,502.297554 235.876517,502.033765 L236.080759,501.738567 C236.248948,501.488291 236.437014,501.194458 236.640008,500.859696 C237.222039,499.899855 237.804796,498.80741 238.348822,497.603562 C239.610725,494.81116 240.468963,491.861394 240.740296,488.855403 C240.766738,488.56246 241.002403,488.338729 241.286555,488.318331 L241.382847,488.319246 Z"/><path id="Stroke-49" fill="#DD936F" fill-rule="nonzero" d="M245.452458,486.254663 C245.447894,485.92788 245.709105,485.659271 246.035887,485.654649 C246.329992,485.650601 246.576975,485.86177 246.626758,486.14227 L246.635842,486.238137 L246.635096,486.381051 L246.622495,486.691115 C246.581835,487.362812 246.445084,488.342748 246.15188,489.60986 C245.557318,492.179328 244.48301,495.11586 242.811817,498.378195 C242.662814,498.669066 242.306225,498.784071 242.015355,498.635067 C241.724484,498.486064 241.609479,498.129475 241.758483,497.838605 C243.385425,494.662649 244.42622,491.817723 244.998847,489.343054 C245.17117,488.598336 245.289885,487.932556 245.364231,487.3488 L245.39775,487.063772 C245.428002,486.782395 245.443458,486.563403 245.449452,486.408595 L245.452458,486.254663 Z"/><g id="分组" transform="translate(125.000000, 440.215000)"><mask id="mask-6" fill="#fff"><use xlink:href="#path-5"/></mask><path id="Fill-51" fill="#4E5C93" d="M130.45125,1.8195 C144.03375,2.883 176.27025,88.7145 188.44875,119.406 C186.82725,125.5875 176.92125,136.491 176.92125,136.491 C176.92125,136.491 177.98175,141.4125 178.63425,144.369 C167.04525,153.9015 144.62775,159.0795 144.62775,159.0795 L144.57975,163.308 C108.73875,179.8095 60.74625,163.9935 60.74625,163.9935 C60.74625,163.9935 59.85225,163.077 60.49425,159.762 C44.22225,159.573 9.37875,138.9285 9.37875,138.9285 L14.33025,128.7135 L-0.00075,114.0465 C-0.00075,114.0465 38.69925,42.852 50.61075,22.9395 C61.06875,5.4585 70.87725,0.4245 70.87725,0.4245 C70.87725,0.4245 106.35225,-0.069 130.45125,1.8195" mask="url(#mask-6)"/></g><path id="Stroke-53" fill="#253368" fill-rule="nonzero" d="M193.593632,457.450208 C193.740232,457.150721 194.101856,457.026782 194.401342,457.173382 C194.67088,457.305322 194.798224,457.611431 194.714127,457.889659 L194.678168,457.981092 L135.75,578.363 L136.091806,578.615914 L136.763413,579.099231 C137.927335,579.925447 139.299314,580.846916 140.870586,581.839866 C145.364346,584.679652 150.550503,587.520451 156.35885,590.172241 C165.389112,594.294989 175.078554,597.570774 185.310537,599.684383 C185.637085,599.751838 185.847121,600.07124 185.779667,600.397787 C185.712212,600.724335 185.39281,600.934371 185.066263,600.866917 C174.741362,598.734114 164.966607,595.429487 155.857361,591.270678 C149.997417,588.595332 144.763711,585.728487 140.225527,582.860627 C138.812275,581.967538 137.557044,581.130713 136.465925,580.366863 L136.06446,580.083873 C135.732948,579.848547 135.436913,579.634136 135.17691,579.442161 L134.617429,579.020704 C134.420823,578.866922 134.341871,578.611097 134.409225,578.3779 L134.447132,578.279708 L193.593632,457.450208 Z"/><path id="Stroke-55" fill="#253368" fill-rule="nonzero" d="M265.18996,481.915456 C265.470669,481.809339 265.780966,481.926109 265.926173,482.177899 L265.968194,482.26671 L304.797194,584.98071 C304.897187,585.24522 304.800192,585.543695 304.563808,585.698894 L304.285858,585.877294 C304.060281,586.020335 303.79416,586.185963 303.488835,586.372295 C302.618426,586.903482 301.607339,587.494871 300.466292,588.1314 C297.208793,589.948585 293.560529,591.765263 289.607018,593.460881 C283.157544,596.226991 276.5356,598.394883 269.901581,599.735979 C269.57475,599.802049 269.256241,599.590661 269.190171,599.263831 C269.124101,598.937 269.335489,598.618491 269.662319,598.552421 C276.208867,597.229007 282.753338,595.086479 289.131062,592.351141 C293.044191,590.672842 296.655414,588.874609 299.878033,587.076882 C300.844027,586.538005 301.714905,586.03236 302.48386,585.569433 L303.27935,585.08331 L303.494,584.949 L264.838706,482.69369 C264.732589,482.412981 264.849359,482.102684 265.101149,481.957477 L265.18996,481.915456 Z"/><path id="Stroke-57" fill="#253368" fill-rule="nonzero" d="M239.963311,444.328761 C240.290285,444.263404 240.608332,444.475487 240.673689,444.802461 L242.992015,456.504771 C243.788487,460.546294 244.637639,464.873829 245.530418,469.445511 L246.02166,471.963117 C249.459557,489.596783 252.897458,507.528193 256.167009,524.978891 L257.786975,533.660577 C258.359351,536.740977 258.921783,539.782368 259.473671,542.781966 L261.293478,552.732175 C264.894124,572.543696 267.897717,589.853478 270.167806,604.030843 C270.214333,604.32142 270.044587,604.603211 269.765968,604.697925 C268.008427,605.295382 266.229306,605.848512 264.429496,606.358148 C242.725039,612.503998 219.571419,612.156591 197.706143,607.883036 C194.503722,607.257125 191.589672,606.589789 189.004738,605.919015 L188.365385,605.751272 C187.67943,605.569308 187.053184,605.396545 186.489009,605.235182 L185.503866,604.946356 C185.250241,604.869962 185.067198,604.812888 184.957101,604.777331 C184.697811,604.693591 184.530881,604.448952 184.538549,604.184493 L184.55057,604.084667 L211.57307,468.648167 C211.638313,468.321171 211.956286,468.108977 212.283283,468.17422 C212.57758,468.232939 212.778886,468.496369 212.768642,468.786848 L212.75723,468.884433 L185.841,603.786 L186.184053,603.889137 C186.893201,604.098638 187.725682,604.332314 188.674992,604.584139 C191.390515,605.30449 194.495457,606.025162 197.937766,606.697959 C219.63278,610.938237 242.605306,611.282926 264.100514,605.196327 C265.43545,604.818326 266.758752,604.416168 268.07005,603.989511 L268.894,603.715 L268.214347,599.518639 C265.845511,585.027723 262.791025,567.612848 259.178158,547.862772 L257.870316,540.74349 C257.59182,539.233684 257.310725,537.713601 257.027107,536.18359 L256.599796,533.881169 C253.391652,516.615634 249.987047,498.739294 246.554372,481.030825 L244.345307,469.676963 C243.290368,464.274898 242.296357,459.213806 241.378221,454.562798 L239.489611,445.039139 C239.424254,444.712165 239.636337,444.394118 239.963311,444.328761 Z"/><path id="Stroke-59" fill="#253368" fill-rule="nonzero" d="M225.576138,446.643233 C225.875759,446.661101 226.111998,446.893718 226.142566,447.182767 L226.144943,447.280988 L219.793943,559.920488 C219.775172,560.253401 219.490076,560.508063 219.157162,560.490267 C218.857541,560.472399 218.621302,560.239782 218.590734,559.950733 L218.588357,559.852512 L224.939357,447.213012 C224.958128,446.880099 225.243224,446.625437 225.576138,446.643233 Z"/><path id="Stroke-61" fill="#253368" fill-rule="nonzero" d="M208.68082,444.16032 C208.779723,443.841884 209.118044,443.663917 209.43648,443.76282 C209.723073,443.851833 209.895885,444.134774 209.855481,444.422612 L209.83398,444.51848 L185.98998,521.28848 C185.891077,521.606916 185.552756,521.784883 185.23432,521.68598 C184.947727,521.596967 184.774915,521.314026 184.815319,521.026188 L184.83682,520.93032 L208.68082,444.16032 Z"/><path id="Fill-63" fill="#4E5C93" d="M193.2833,442.03225 L194.3063,434.26975 C194.3063,434.26975 224.9603,434.45275 255.0248,432.94675 C255.7853,436.39225 256.6568,442.59475 256.6568,442.59475 C254.1293,440.51875 226.8203,446.58175 193.2833,442.03225"/><path id="Stroke-65" fill="#253368" fill-rule="nonzero" d="M253.428772,441.99106 C253.761849,441.97547 254.0445,442.232845 254.06009,442.565922 C254.07568,442.898999 253.818305,443.18165 253.485228,443.19724 L250.366033,443.33743 C237.402683,443.896009 224.880271,444.136729 213.727231,444.11423 L210.427707,444.0995 C206.993314,444.075315 203.913906,444.024778 201.416196,443.956135 L199.485772,443.895206 C198.63259,443.864107 197.930092,443.831754 197.41444,443.800062 L196.841637,443.758345 C196.765902,443.751509 196.700106,443.744729 196.644359,443.738005 C196.536467,443.724991 196.459283,443.712035 196.38942,443.69136 L196.342524,443.685689 C196.286042,443.671967 196.236703,443.619285 195.990006,443.355875 L196.06171,442.95733 C196.142133,442.538684 196.177334,442.535291 196.353341,442.518327 C196.479443,442.474882 196.610083,442.475618 196.728405,442.512318 L196.799,442.54 L197.194155,442.575285 L197.902275,442.618262 C198.275542,442.637868 198.718758,442.657616 199.222832,442.677014 L200.544797,442.722645 C203.615965,442.818151 207.738771,442.884429 212.400252,442.90278 L215.072616,442.908163 C226.765726,442.909563 239.899299,442.624321 253.428772,441.99106 Z"/><g id="分组" transform="translate(159.500000, 239.215000)"><mask id="mask-8" fill="#fff"><use xlink:href="#path-7"/></mask><path id="Fill-67" fill="#253368" d="M111.549,54.2286 C111.549,54.2286 125.817,60.0516 117.9555,74.0271 C117.9555,74.0271 149.7795,104.2701 125.7795,129.7701 C122.286,143.1621 92.043,138.2751 92.043,138.2751 C92.043,138.2751 79.377,153.5616 57.978,141.7701 C34.3935,153.5616 22.602,130.4151 22.602,130.4151 C22.602,130.4151 -1.4175,126.0471 5.1345,104.6481 C-7.7205,87.7701 8.7795,80.2701 8.7795,80.2701 C8.7795,80.2701 1.2795,63.7701 19.2795,54.7701 C16.2225,43.8516 29.7795,35.2701 29.7795,35.2701 C31.527,16.7616 43.704,1.3266 55.794,2.8896 C55.794,2.8896 83.7795,-11.2299 98.7795,26.2701 C112.0305,36.8691 114.606,44.1831 111.549,54.2286" mask="url(#mask-8)"/></g><path id="Fill-69" fill="#FFC999" d="M257.0744,286.16485 C254.8919,290.86735 250.1159,293.74135 246.3974,292.01485 C242.6774,290.28985 241.4324,285.07735 243.6149,280.37485 C245.7959,275.67085 250.5824,273.25885 254.3009,274.98385 C258.0209,276.71035 259.2569,281.46085 257.0744,286.16485"/><path id="Fill-71" fill="#FFC999" d="M224.90195,337.7485 L224.90195,337.7485 C217.13495,337.7485 210.92045,331.303 211.20245,323.542 L212.23745,295.1455 L237.56645,295.1455 L238.60145,323.542 C238.88345,331.303 232.66895,337.7485 224.90195,337.7485"/><path id="Fill-73" fill="#FFC999" d="M249.359,281.84785 C248.2355,298.69435 241.934,314.40685 224.174,314.40685 C207.8705,314.40685 199.7165,299.16835 199.7165,282.28435 C199.7165,258.70135 210.6665,250.16185 224.174,250.16185 C237.6815,250.16185 250.9595,257.82685 249.359,281.84785"/><path id="Stroke-75" fill="#253368" fill-rule="nonzero" d="M208.872175,275.417732 C212.309554,274.570011 215.756863,274.213128 219.124792,274.609231 C219.588004,274.663709 219.919348,275.08338 219.864869,275.546592 C219.810391,276.009804 219.39072,276.341148 218.927508,276.286669 C215.788229,275.917458 212.533376,276.254417 209.276596,277.057599 C208.557716,277.234889 207.951378,277.404516 207.271636,277.611878 L206.090319,277.975489 C205.854333,278.038005 205.784407,278.050583 205.572939,278.001898 L205.441436,277.964326 C205.255258,277.903471 205.209421,277.826993 204.934402,277.368126 L204.945946,277.037821 C204.958491,276.824334 204.984012,276.790831 205.077588,276.667987 L205.20547,276.528569 C205.240873,276.492388 205.257976,276.480549 205.297882,276.452926 C205.423807,276.361749 205.566423,276.310355 205.710741,276.296343 L205.826,276.293 L206.238256,276.164046 C207.179286,275.867975 207.933102,275.649325 208.872175,275.417732 Z"/><path id="Stroke-77" fill="#253368" fill-rule="nonzero" d="M231.182348,274.354243 C235.282069,273.182894 239.108932,273.692859 242.461835,275.252931 C243.70068,275.829353 244.592934,276.411461 245.088497,276.816134 C245.449755,277.111135 245.503467,277.643139 245.208466,278.004397 C244.913465,278.365655 244.381461,278.419367 244.020203,278.124366 L243.850265,277.995288 C243.750086,277.922683 243.61738,277.830814 243.453502,277.7239 C242.964486,277.404865 242.393953,277.084226 241.749313,276.784281 C238.740335,275.384234 235.320479,274.928506 231.646352,275.978257 C231.197893,276.106388 230.730474,275.846711 230.602343,275.398252 C230.474212,274.949793 230.733889,274.482374 231.182348,274.354243 Z"/><path id="Stroke-79" fill="#253368" fill-rule="nonzero" d="M211.179078,282.0217 C211.64548,282.023232 212.022336,282.402563 212.020809,282.868965 C212.013226,285.184839 213.343561,286.98527 214.849951,286.989725 C216.356657,286.995258 217.698239,285.203975 217.705855,282.887424 C217.707388,282.421022 218.086724,282.044171 218.553126,282.045705 C219.019528,282.047238 219.396379,282.426574 219.39485,282.892976 C219.384459,286.052331 217.410369,288.688139 214.844353,288.67874 C212.278817,288.671129 210.321475,286.022128 210.331777,282.863435 C210.333345,282.397033 210.712676,282.020177 211.179078,282.0217 Z"/><path id="Stroke-81" fill="#253368" fill-rule="nonzero" d="M233.017128,282.0217 C233.48353,282.023232 233.860386,282.402563 233.858859,282.868965 C233.851276,285.184839 235.181611,286.98527 236.688001,286.989725 C238.194707,286.995258 239.536289,285.203975 239.543905,282.887424 C239.545438,282.421022 239.924774,282.044171 240.391176,282.045705 C240.857578,282.047238 241.234429,282.426574 241.2329,282.892976 C241.222509,286.052331 239.248419,288.688139 236.682403,288.67874 C234.116867,288.671129 232.159525,286.022128 232.169827,282.863435 C232.171395,282.397033 232.550726,282.020177 233.017128,282.0217 Z"/><path id="Stroke-83" fill="#F5222D" fill-rule="nonzero" d="M230.851737,296.23096 C231.262438,296.059993 231.733974,296.254336 231.90494,296.665037 C232.075907,297.075738 231.881564,297.547274 231.470863,297.71824 C231.19321,297.833822 230.911989,297.940251 230.627376,298.037711 C227.425739,299.134043 224.03667,299.064955 220.836973,298.296495 C220.427375,298.198124 220.049023,298.093927 219.705595,297.988266 L219.45463,297.908813 C219.205681,297.827707 219.027529,297.763084 218.927427,297.723397 C218.513878,297.559438 218.311545,297.091276 218.475503,296.677727 C218.639462,296.264178 219.107624,296.061845 219.521173,296.225803 L219.728167,296.301365 C219.791908,296.323488 219.867236,296.348896 219.953665,296.377054 C220.32153,296.496901 220.743916,296.617336 221.213183,296.730038 C224.141159,297.43324 227.235591,297.496322 230.105474,296.513592 C230.357488,296.427295 230.606284,296.333137 230.851737,296.23096 Z"/><path id="Stroke-85" fill="#D18682" fill-rule="nonzero" d="M237.339988,309.859323 C237.708128,309.572956 238.238711,309.639247 238.525077,310.007388 C238.811444,310.375528 238.745153,310.906111 238.377012,311.192477 L238.098468,311.397878 C237.907755,311.533039 237.657733,311.701678 237.351574,311.895772 C236.544624,312.407351 235.620581,312.917638 234.592192,313.393523 C228.505387,316.210174 221.858673,316.607067 215.323574,313.013395 C214.914887,312.788656 214.765767,312.275162 214.990505,311.866474 C215.215244,311.457787 215.728738,311.308667 216.137426,311.533405 C222.141826,314.835246 228.24199,314.470988 233.882875,311.860685 C234.84105,311.417292 235.700561,310.942641 236.447228,310.46928 L236.885,310.183456 C237.094558,310.042094 237.247355,309.931379 237.339988,309.859323 Z"/><path id="Fill-87" fill="#4E5C93" d="M252.85265,277.04395 C252.85265,277.04395 250.66865,288.68995 248.63165,289.56295 C249.79565,285.48745 248.33915,272.38495 247.75865,271.22095 C247.17515,270.05545 252.70715,268.89145 252.85265,277.04395"/><path id="Stroke-89" fill="#D18682" fill-rule="nonzero" d="M228.330613,277.038039 C228.490865,276.600029 228.975851,276.374862 229.413861,276.535113 C229.818178,276.683038 230.041138,277.107659 229.947005,277.516617 L229.916787,277.618361 L228.52,281.434 L229.161234,292.291955 C229.185864,292.709366 228.902451,293.076091 228.504194,293.165542 L228.402349,293.181997 L224.178349,293.604997 C223.714266,293.651471 223.300377,293.312932 223.253903,292.848849 C223.211004,292.420465 223.496163,292.034849 223.905301,291.941506 L224.010051,291.924403 L227.427,291.582 L226.824166,281.358945 C226.819622,281.281927 226.825663,281.204834 226.841977,281.129794 L226.874113,281.019039 L228.330613,277.038039 Z"/><path id="Fill-91" fill="#FFC999" d="M148.0109,429.99925 L148.0109,429.99925 C141.1934,426.59875 138.4244,418.31575 141.8249,411.49975 L174.9644,345.07075 C178.3634,338.25475 186.6479,335.48575 193.4639,338.88625 C200.2814,342.28675 203.0489,350.56975 199.6499,357.38575 L166.5104,423.81325 C163.1084,430.63075 154.8269,433.39975 148.0109,429.99925"/><path id="Fill-93" fill="#597EF7" d="M185.60165,385.5457 L199.64915,357.3862 C203.03615,350.5972 200.25365,342.2722 193.46315,338.8867 C186.67565,335.4997 178.35065,338.2837 174.96365,345.0712 L161.04965,372.9637 L185.60165,385.5457 Z"/><path id="Stroke-95" fill="#1D39C4" fill-rule="nonzero" d="M193.39362,338.851356 C193.511225,338.615625 193.797662,338.519864 194.033394,338.63747 C200.959147,342.092696 203.854503,350.510453 200.576077,357.478984 L200.431787,357.77673 L186.384287,385.93623 C186.278954,386.14738 186.038403,386.24598 185.820325,386.180255 L185.739907,386.147804 L161.187907,373.565804 C160.95346,373.445659 160.8608,373.158204 160.980946,372.923757 C161.087742,372.715359 161.326732,372.618991 161.543183,372.684531 L161.622993,372.716796 L185.745,385.078 L199.57812,357.350856 C202.799456,350.893917 200.238467,342.996566 193.894104,339.638441 L193.607506,339.49113 C193.371775,339.373525 193.276014,339.087088 193.39362,338.851356 Z"/><path id="Fill-97" fill="#FFC999" d="M318.0074,425.08615 L318.0074,425.08615 C324.0944,420.50365 325.3139,411.85615 320.7314,405.77065 L276.0869,346.46065 C271.5044,340.37515 262.8569,339.15565 256.7714,343.73815 C250.6844,348.31915 249.4649,356.96665 254.0459,363.05365 L298.6934,422.36215 C303.2744,428.44765 311.9219,429.66715 318.0074,425.08615"/><path id="Fill-99" fill="#597EF7" d="M272.9723,388.19485 L254.0468,363.05335 C249.4838,356.99185 250.7093,348.29935 256.7708,343.73785 C262.8308,339.17485 271.5233,340.40035 276.0863,346.46185 L294.8318,371.36485 L272.9723,388.19485 Z"/><path id="Stroke-101" fill="#1D39C4" fill-rule="nonzero" d="M256.166432,343.596565 C256.376927,343.438159 256.67598,343.480386 256.834385,343.690882 C256.992791,343.901377 256.950564,344.20043 256.740068,344.358835 C250.979305,348.69402 249.743183,356.897769 253.911024,362.733067 L254.110353,363.004838 L272.745,387.762 L294.223255,371.226744 C294.408801,371.083889 294.666059,371.098778 294.83381,371.250455 L294.892206,371.313705 C295.035061,371.499251 295.020172,371.756509 294.868495,371.92426 L294.805245,371.982656 L272.945745,388.812656 C272.758768,388.956613 272.499298,388.940256 272.331819,388.785879 L272.273647,388.721562 L253.348194,363.578624 C248.626568,357.307957 249.894569,348.31637 256.166432,343.596565 Z"/><path id="Fill-103" fill="#597EF7" d="M267.4469,340.89655 C255.4994,336.22105 246.3779,337.19005 242.4659,333.67405 C240.1529,331.59505 239.3549,321.75655 239.3549,321.75655 L210.5054,321.75655 C210.5054,321.75655 209.7089,331.59505 207.3959,333.67405 C203.4839,337.19005 194.3459,332.75605 183.5669,338.59555 C173.3924,344.10955 178.3454,361.55155 183.0029,374.07055 C184.0799,376.96555 182.2229,382.42105 184.0229,386.44555 C185.8334,390.49405 188.5859,395.39755 189.6764,398.01805 C193.2644,406.62655 192.5279,415.90105 194.8439,423.71155 C194.8439,423.71155 191.1554,430.84555 196.9769,433.74055 L252.8864,433.74055 C259.8674,430.55455 255.0194,423.71155 255.0194,423.71155 C257.2289,416.25805 255.8864,410.24605 259.1624,399.32905 C259.8164,397.14505 262.2809,393.68455 264.3794,389.06605 C267.6554,381.86005 266.1269,374.94505 266.5634,373.19755 C270.3914,357.88705 277.8044,344.95105 267.4469,340.89655"/><path id="Stroke-105" fill="#687EA5" fill-rule="nonzero" d="M215.325101,334.474919 L234.450101,334.629419 C234.771521,334.632016 235.029978,334.894682 235.0274,335.216101 C235.025044,335.505379 234.81205,335.743657 234.53516,335.786526 L234.440699,335.793381 L215.315699,335.638881 C214.994279,335.636284 214.735822,335.373618 214.7384,335.052199 C214.740756,334.762921 214.95375,334.524643 215.23064,334.481774 L215.325101,334.474919 Z"/><path id="Stroke-107" fill="#1D39C4" fill-rule="nonzero" d="M188.157475,356.753318 C188.395417,356.866384 188.496649,357.150933 188.383582,357.388875 L188.290924,357.590881 L188.194725,357.808009 C188.072427,358.087283 187.938753,358.404575 187.795968,358.757946 L187.687207,359.029709 C187.160464,360.358357 186.63334,361.86421 186.141218,363.516884 C184.357815,369.506021 183.496463,375.751774 184.061201,381.814987 C184.513722,386.681566 186.108936,390.62158 189.997756,397.002833 L190.301439,397.498571 L190.36503,397.665973 L191.106168,401.831468 L191.827753,405.83202 C192.067937,407.154592 192.306869,408.460748 192.541818,409.734077 L193.498877,414.848787 C194.333627,419.235477 194.959507,422.290827 195.304742,423.589612 C195.336668,423.70972 195.320457,423.837547 195.25956,423.945883 C193.088391,427.808378 194.66748,432.734853 196.852447,433.240298 L196.97675,433.26415 L252.95,433.264 L253.092807,433.177222 L253.265955,433.059671 C253.58957,432.8301 253.914592,432.541817 254.218183,432.191681 C255.819547,430.344803 256.207744,427.657627 254.581518,423.901676 C254.54342,423.813683 254.532725,423.71625 254.550829,423.622088 L254.964554,421.454371 C256.115483,415.378705 257.085797,409.868492 257.884148,404.99436 L258.180039,403.16714 C258.304312,402.390352 258.418972,401.660914 258.524152,400.979909 L258.798249,399.171267 L258.92986,398.265996 L259.009615,398.061287 C263.698014,391.265139 265.759802,385.881168 266.086953,379.868255 C266.38491,374.387891 265.384008,368.93965 263.53124,363.812808 C262.960781,362.234278 262.349776,360.804564 261.739298,359.549942 L261.491279,359.050152 C261.411308,358.892259 261.334148,358.743142 261.260128,358.603009 L260.996552,358.117842 C260.970036,358.070743 260.948962,358.034089 260.93366,358.008088 C260.800041,357.781049 260.875774,357.488678 261.102812,357.35506 C261.329851,357.221441 261.622222,357.297174 261.75584,357.524212 L261.928108,357.830695 L261.990912,357.946258 C262.174187,358.285632 262.377978,358.682131 262.597136,359.132533 C263.221858,360.41643 263.846054,361.877009 264.428449,363.488569 C266.32163,368.727236 267.345168,374.298696 267.039546,379.920064 C266.710543,385.967007 264.682429,391.39274 260.148597,398.085644 L259.858,398.509 L259.618078,400.137673 L259.386158,401.646312 C259.220874,402.706566 259.034171,403.8752 258.825602,405.148565 L258.386164,407.792051 C257.626815,412.295632 256.732306,417.284825 255.696679,422.711136 L255.514,423.66 L255.599421,423.861066 C257.156012,427.670241 256.756873,430.578752 255.089374,432.637224 L254.938968,432.816649 C254.387967,433.452126 253.833477,433.86994 253.414282,434.10011 L253.279751,434.169924 L253.07075,434.21815 L196.905907,434.21286 C193.959393,433.770343 192.051687,428.340053 194.183894,423.945072 L194.334,423.65 L194.188216,423.047324 C193.836217,421.54332 193.315517,418.973092 192.658991,415.5375 L191.837364,411.16999 L191.128958,407.319999 C190.889759,406.009356 190.648404,404.676864 190.40762,403.338915 L189.441,397.92 L189.180161,397.494442 C185.325429,391.168262 183.665484,387.149914 183.14967,382.288955 L183.111306,381.903387 C182.533906,375.704237 183.411377,369.341604 185.226893,363.244623 C185.727325,361.564041 186.263652,360.031898 186.800359,358.678117 L187.019574,358.135499 C187.090338,357.963729 187.1587,357.801141 187.224377,357.647976 L187.521918,356.979425 C187.634984,356.741483 187.919533,356.640251 188.157475,356.753318 Z"/><path id="Stroke-109" fill="#1D39C4" fill-rule="nonzero" d="M258.26525,383.6338 C258.52869,383.6338 258.74225,383.84736 258.74225,384.1108 C258.74225,384.344969 258.573511,384.539726 258.350991,384.580115 L258.26525,384.5878 L189.26375,384.5878 C189.00031,384.5878 188.78675,384.37424 188.78675,384.1108 C188.78675,383.876631 188.955489,383.681874 189.178009,383.641485 L189.26375,383.6338 L258.26525,383.6338 Z"/><path id="Stroke-111" fill="#E4EBF7" fill-rule="nonzero" d="M206.805831,333.330714 C207.052985,333.159842 207.38269,333.198409 207.584566,333.408026 L207.646836,333.484181 L224.677,358.117 L242.473529,333.906425 C242.651487,333.664323 242.975757,333.593315 243.234934,333.72568 L243.318625,333.777379 C243.560727,333.955337 243.631735,334.279607 243.49937,334.538784 L243.447671,334.622475 L225.149171,359.516475 C224.923743,359.823157 224.482923,359.842601 224.229139,359.580637 L224.164864,359.502219 L206.652364,334.171719 C206.462506,333.897103 206.531215,333.520573 206.805831,333.330714 Z"/><path id="Fill-113" fill="#F1F2F6" d="M234.488,368.14555 C234.488,373.69255 229.991,378.18955 224.444,378.18955 C218.8955,378.18955 214.3985,373.69255 214.3985,368.14555 C214.3985,362.59855 218.8955,358.10005 224.444,358.10005 C229.991,358.10005 234.488,362.59855 234.488,368.14555"/><path id="Fill-115" fill="#FFC2BD" d="M231.6974,368.14555 C231.6974,372.15055 228.4499,375.39805 224.4434,375.39805 C220.4384,375.39805 217.1909,372.15055 217.1909,368.14555 C217.1909,364.14055 220.4384,360.89305 224.4434,360.89305 C228.4499,360.89305 231.6974,364.14055 231.6974,368.14555"/><path id="Fill-117" fill="#4B588C" d="M240.9098,366.25075 L221.6378,366.25075 C220.0763,366.25075 218.7983,365.01025 218.7488,363.45025 L217.4318,321.93325 C217.3793,320.29975 218.6903,318.94825 220.3223,318.94825 L242.2268,318.94825 C243.8588,318.94825 245.1683,320.29975 245.1173,321.93325 L243.8003,363.45025 C243.7508,365.01025 242.4713,366.25075 240.9098,366.25075"/><path id="Fill-119" fill="#FFC999" d="M222.53915,358.9294 L222.53915,358.9294 C225.36815,362.1004 225.20315,366.9349 222.16415,369.9049 L163.50515,427.2424 C157.94015,432.3349 149.28815,431.8969 144.26615,426.2689 C139.20065,420.5914 139.80815,411.8554 145.61015,406.9339 L211.87715,357.8359 C215.18015,355.3879 219.80315,355.8634 222.53915,358.9294"/><path id="Fill-121" fill="#FFC999" d="M226.799,372.97075 C226.799,372.97075 213.758,376.00075 209.321,369.47125 C205.301,363.55825 210.716,358.83925 210.716,358.83925 C210.716,358.83925 215.3555,353.29375 222.482,349.57675 C227.177,347.12725 236.5775,343.37725 238.1975,345.66775 C240.308,348.65725 229.4225,352.28275 230.228,354.82075 C231.056,357.42625 233.3615,356.84275 239.0375,357.24175 C242.585,357.49225 246.1805,356.34175 249.1475,357.12625 C254.9495,358.66225 246.74,370.05775 226.799,372.97075"/><path id="Stroke-123" fill="#DD936F" fill-rule="nonzero" d="M250.408511,359.129914 C250.710907,359.00596 251.056532,359.150616 251.180486,359.453011 C251.30444,359.755407 251.159784,360.101032 250.857389,360.224986 C245.200136,362.543933 239.969785,362.888382 235.626866,362.082546 C235.271889,362.01668 234.950308,361.946845 234.663722,361.875978 L234.45537,361.82268 C234.249341,361.768145 234.104927,361.724614 234.02525,361.697807 C233.715498,361.593591 233.548877,361.258003 233.653093,360.94825 C233.757309,360.638498 234.092897,360.471877 234.40265,360.576093 L234.657244,360.651368 L234.758208,360.678581 C235.066189,360.760102 235.428775,360.842089 235.842781,360.918909 C239.974922,361.685634 244.977321,361.356197 250.408511,359.129914 Z"/><path id="Stroke-125" fill="#DD936F" fill-rule="nonzero" d="M247.568947,364.139629 C247.63747,364.459179 247.433971,364.773774 247.114421,364.842297 L246.731291,364.917452 C246.644796,364.933458 246.547211,364.951052 246.438876,364.970005 C245.901082,365.064088 245.285119,365.158009 244.600213,365.245575 C240.945119,365.712884 236.974274,365.817418 233.019342,365.332552 C232.694956,365.292784 232.464229,364.997578 232.503998,364.673192 C232.543766,364.348806 232.838972,364.118079 233.163358,364.157848 C237.009745,364.629405 240.885479,364.527376 244.450123,364.071631 C245.11655,363.986427 245.714602,363.895237 246.234928,363.80421 L246.866279,363.685103 C247.185829,363.61658 247.500424,363.820079 247.568947,364.139629 Z"/><path id="Stroke-127" fill="#DD936F" fill-rule="nonzero" d="M241.531414,366.978528 C241.84714,366.894119 242.171513,367.081638 242.255922,367.397364 C242.340331,367.71309 242.152812,368.037463 241.837086,368.121872 C236.887301,369.445194 232.996051,369.721796 230.219966,369.398197 L229.802432,369.34247 C229.645484,369.318378 229.526777,369.295829 229.446626,369.277397 C229.128126,369.204151 228.929307,368.886577 229.002553,368.568076 C229.075799,368.249576 229.393373,368.050757 229.711874,368.124003 L229.902751,368.160165 C229.987831,368.174225 230.094326,368.189935 230.222114,368.20622 L230.356994,368.222657 C232.985449,368.529047 236.726484,368.263122 241.531414,366.978528 Z"/><path id="Stroke-129" fill="#DD936F" fill-rule="nonzero" d="M195.019276,369.156494 C195.280427,368.960005 195.651418,369.012425 195.847906,369.273576 C196.022563,369.505711 196.000551,369.824632 195.810088,370.030637 L195.730824,370.102206 L151.386324,403.466706 C151.125173,403.663195 150.754182,403.610775 150.557694,403.349624 C150.383037,403.117489 150.405049,402.798568 150.595512,402.592563 L150.674776,402.520994 L195.019276,369.156494 Z"/><path id="Fill-131" fill="#253368" d="M183.41315,307.17805 C187.12265,291.59605 192.14765,277.04455 192.14765,277.04455 C198.13265,254.23105 204.81365,243.85255 228.83165,244.72555 C252.85265,245.60005 265.96715,276.77155 254.07965,279.67105 C236.17415,284.03905 234.47465,275.03455 229.12415,265.67005 C225.63065,259.55605 223.67165,261.23455 222.28115,263.39155 C221.38715,264.77755 219.54965,267.16405 216.02165,264.99205 C212.23715,262.66255 206.73365,264.73255 207.25115,274.02805 C207.97865,287.13055 204.58115,285.29005 205.77965,292.48555 C207.00365,299.82055 215.90015,297.62905 213.27965,308.98555 C213.27965,308.98555 220.75265,313.21105 207.65015,322.38355 C197.03015,329.81755 181.22915,316.34905 183.41315,307.17805"/></g></svg>