<?xml version="1.0" encoding="UTF-8"?>
<svg width="512px" height="1024px" viewBox="0 0 512 1024" version="1.1" xmlns="http://www.w3.org/2000/svg" xmlns:xlink="http://www.w3.org/1999/xlink">
    <!-- Generator: Sketch 61.2 (89653) - https://sketch.com -->
    <title>2.人物组件/7.设计师/站立/自信</title>
    <desc>Created with Sketch.</desc>
    <g id="2.人物组件/7.设计师/站立/自信" stroke="none" stroke-width="1" fill="none" fill-rule="evenodd">
        <path d="M294.9082,792.78245 C293.5312,714.51545 263.9317,549.53345 259.6792,507.04145 C255.4282,464.54945 270.5512,450.15845 285.0517,457.16945 C299.5522,464.18195 303.8902,562.22195 303.8902,562.22195 C303.8902,562.22195 304.8892,581.40995 308.6737,603.26045 C322.3552,682.25195 312.7522,793.90595 312.7522,793.90595 C312.7522,793.90595 310.1002,801.17945 302.0737,800.21045 C294.0487,799.24145 294.9082,792.78245 294.9082,792.78245" id="Fill-1" fill="#FFC999"></path>
        <path d="M312.2212,796.115 C312.4027,796.916 315.1297,768.2615 314.9977,759.812 C303.6802,761.3075 293.2162,760.2395 293.2162,760.2395 C293.2162,760.2395 294.7102,792.911 294.2842,796.115 C302.3977,801.026 312.2212,796.115 312.2212,796.115" id="Fill-3" fill="#597EF7"></path>
        <path d="M309.8965,834.88565 C308.491,846.21215 302.398,852.20465 296.1115,852.86765 C288.328,853.68965 279.8515,851.49515 278.482,844.51715 C276.919,836.55215 281.017,832.47815 285.598,821.08865 C290.1775,809.69765 292.363,799.95815 294.07,791.84315 C294.07,791.84315 299.908,788.42765 298.342,798.24965 C297.073,806.20265 293.998,828.57365 288.589,830.13815 C293.857,829.71215 304.6765,833.84015 304.6765,833.84015 C304.6765,833.84015 300.832,827.86115 301.117,825.86765 C301.402,823.87565 304.5835,803.45465 304.747,797.39615 C304.909,791.40515 310.108,792.12815 312.613,792.82865 C313.393,793.04615 313.8895,793.79915 313.795,794.60315 C313.5565,796.59965 310.5625,829.52315 309.8965,834.88565" id="Fill-5" fill="#4E5C93"></path>
        <path d="M307.0972,804.8696 C307.0972,804.8696 313.5907,791.2751 307.0972,789.9221 C301.9717,788.8541 297.0607,788.6411 296.4202,789.9221 C296.1817,790.3991 296.2057,794.8331 294.4987,804.0161 C292.5037,814.7351 287.4052,827.3081 285.5287,829.8551 C282.5392,833.9111 285.7432,834.1256 293.0032,836.0471 C300.2632,837.9686 302.8252,837.9686 304.7482,834.1256 C306.6697,830.2811 306.6697,813.1976 307.0972,804.8696" id="Fill-7" fill="#4E5C93"></path>
        <path d="M293.577969,808.652395 C293.729767,808.262106 294.169216,808.068771 294.559505,808.220569 C295.521744,808.59482 296.5669,809.104998 297.683967,809.735175 C298.741967,810.332031 299.849945,811.028284 300.991461,811.804198 C302.353395,812.729934 303.693306,813.720493 304.954924,814.711025 L305.464702,815.114792 C305.627746,815.245099 305.783758,815.370951 305.93228,815.491827 L306.591605,816.037329 C307.168384,816.528238 306.748253,817.468313 305.997781,817.366058 C304.55926,817.170053 302.826629,817.267038 300.867177,817.620438 C299.083274,817.942177 297.174608,818.463867 295.218283,819.13024 C294.494777,819.376684 293.791413,819.633775 293.116781,819.895078 L292.652,820.078 L292.940886,820.168223 C295.141716,820.885322 297.378497,822.137509 299.605927,823.794204 L299.998897,824.090735 C301.297196,825.084406 302.502689,826.14755 303.586142,827.211034 L304.021383,827.645163 C304.090484,827.715242 304.157845,827.784136 304.223437,827.851776 L304.59551,828.242019 C304.772457,828.430953 304.895992,828.567659 304.962325,828.643477 C305.238065,828.958652 305.206098,829.437684 304.890923,829.713425 C304.575748,829.989165 304.096716,829.957198 303.820975,829.642023 L303.581225,829.377997 L303.488644,829.278657 C303.210826,828.982018 302.887908,828.650651 302.523835,828.293288 C301.482236,827.270888 300.322559,826.248149 299.077199,825.294996 C296.00037,822.940103 292.927861,821.406118 290.066636,821.069816 C289.309339,820.980805 289.142363,819.955323 289.832305,819.630664 L290.205988,819.460668 L290.946541,819.13877 C291.036587,819.100564 291.129144,819.061603 291.224138,819.021946 C292.308104,818.569415 293.489313,818.117108 294.729314,817.694733 C296.752337,817.00564 298.731795,816.464601 300.598009,816.128017 C301.541838,815.957791 302.441594,815.842709 303.292851,815.787459 L303.833,815.76 L303.268069,815.322069 C302.50945,814.741379 301.727461,814.165443 300.93476,813.608491 L300.138956,813.058394 C299.030277,812.3048 297.95731,811.630548 296.938845,811.055996 C295.880445,810.458914 294.898398,809.979542 294.009795,809.633931 C293.619506,809.482133 293.426171,809.042684 293.577969,808.652395 Z" id="Stroke-9" fill="#C9D4EA" fill-rule="nonzero"></path>
        <path d="M300.996722,810.08387 C303.020861,809.840129 304.796477,809.853229 306.263565,810.179201 C306.672365,810.270032 306.93013,810.675064 306.839299,811.083865 C306.748468,811.492665 306.343436,811.75043 305.934635,811.659599 C304.660175,811.376427 303.046308,811.36452 301.178025,811.589493 C299.634079,811.775411 297.978985,812.114503 296.287866,812.562749 C295.724847,812.711982 295.179204,812.867645 294.657293,813.025837 L294.512,813.07 L294.751582,813.183292 C296.504939,814.033888 298.210767,815.110368 299.858222,816.368307 L300.350696,816.751087 C301.912078,817.986111 303.32595,819.308009 304.568847,820.63053 C304.91744,821.001455 305.232724,821.351594 305.513144,821.675434 L305.895612,822.126491 C306.000979,822.253661 306.078641,822.350381 306.127688,822.413459 C306.497904,822.889582 306.189661,823.570096 305.616428,823.632535 L305.484036,823.636409 L305.327284,823.634187 C304.387951,823.623343 303.148796,823.638318 301.720152,823.699698 C299.585996,823.79139 297.481235,823.970359 295.517794,824.256457 C292.070874,824.758715 289.368703,825.548481 287.729287,826.641745 C287.38088,826.874084 286.910094,826.779993 286.677755,826.431587 C286.445416,826.08318 286.539507,825.612394 286.887913,825.380055 C288.759492,824.13197 291.647488,823.287893 295.29913,822.755804 C297.318661,822.461534 299.473071,822.278342 301.655058,822.184596 L302.506067,822.152521 C302.781476,822.143611 303.048335,822.136429 303.305772,822.130805 L303.88,822.12 L303.708057,821.931577 L303.46377,821.669075 C302.269174,820.39795 300.908941,819.126202 299.409901,817.94049 C297.07305,816.092083 294.61981,814.629602 292.098767,813.695955 C291.439389,813.45176 291.438711,812.519382 292.097733,812.274229 L292.756541,812.042795 C292.887915,811.998216 293.027382,811.951667 293.174494,811.903429 C294.013357,811.628366 294.93112,811.353499 295.899321,811.096868 C297.6537,810.631855 299.37554,810.279088 300.996722,810.08387 Z" id="Stroke-11" fill="#C9D4EA" fill-rule="nonzero"></path>
        <path d="M309.2314,837.11525 C309.2314,837.11525 293.8564,824.30225 279.7624,833.69825 C276.2389,841.55225 278.2774,846.22175 279.9769,848.64575 C280.6804,849.64925 282.0124,851.04875 283.1644,851.46425 C286.5964,852.70325 295.5949,855.19025 301.9714,850.99475 C310.0849,845.65625 309.2314,837.11525 309.2314,837.11525" id="Fill-13" fill="#C9D4EA"></path>
        <path d="M280.403312,833.793759 C280.507964,833.597484 280.751915,833.523209 280.948191,833.627862 C281.144466,833.732514 281.218741,833.976465 281.114088,834.172741 C279.35107,837.479272 281.257898,841.898256 283.830538,843.612596 C285.710893,844.865617 292.797375,846.078547 298.393895,845.823916 C300.940577,845.708047 303.030109,844.098591 304.694033,841.459478 C305.308152,840.485436 305.818767,839.439121 306.230073,838.392623 C306.374005,838.026412 306.495109,837.686709 306.594036,837.382492 L306.708797,837.00871 C306.767638,836.794201 306.989231,836.668007 307.20374,836.726847 C307.418249,836.785688 307.544443,837.007281 307.485603,837.22179 L307.395196,837.522208 L307.360052,837.63159 C307.256289,837.950678 307.12979,838.305514 306.979749,838.687269 C306.551131,839.777815 306.018841,840.868544 305.37541,841.889076 C303.584808,844.729112 301.287516,846.498595 298.430505,846.628584 C292.678487,846.89029 285.43653,845.650748 283.383862,844.282904 C280.502509,842.362844 278.414448,837.523862 280.403312,833.793759 Z" id="Stroke-15" fill="#96A7CA" fill-rule="nonzero"></path>
        <path d="M314.198305,764.195721 C314.607812,764.108132 315.010789,764.369097 315.098379,764.778605 C315.185968,765.188112 314.925003,765.591089 314.515495,765.678679 L314.248604,765.732789 C314.035453,765.774715 313.786888,765.821302 313.505027,765.871376 L312.667104,766.013567 C312.085401,766.107857 311.458357,766.200675 310.790982,766.289233 C305.760311,766.956785 300.532211,767.13809 295.630485,766.533644 C295.13517,766.472566 294.646282,766.403558 294.164131,766.326431 C293.750618,766.260284 293.469022,765.871443 293.535169,765.457931 C293.601316,765.044418 293.990157,764.762822 294.403669,764.828969 C294.867668,764.903192 295.338582,764.969663 295.816083,765.028545 C300.571802,765.614986 305.678064,765.437905 310.591497,764.785911 C311.406802,764.677723 312.159679,764.563162 312.840209,764.447641 L313.239765,764.378256 C313.706063,764.295416 314.031276,764.231447 314.198305,764.195721 Z" id="Stroke-17" fill="#C9D4EA" fill-rule="nonzero"></path>
        <path d="M301.231632,801.621568 C301.580369,801.608673 301.882792,801.833402 301.982867,802.150848 L301.996,802.209 L302.06293,802.226232 L302.158635,802.264637 L302.695453,802.529675 L303.364531,802.869121 C303.598554,802.989321 303.843078,803.116401 304.096615,803.249848 C305.546003,804.01272 306.995731,804.827705 308.351448,805.662691 C309.673382,806.47687 310.836543,807.268216 311.798953,808.024138 C313.068362,809.021191 313.966148,809.936513 314.441361,810.787366 C315.078843,811.928757 314.962662,813.031437 313.965046,813.798244 C312.318264,815.065358 310.131975,814.161485 307.531353,811.795798 C306.567035,810.918596 305.556472,809.846009 304.517009,808.620098 C303.489324,807.408078 302.488085,806.112025 301.552154,804.816213 L301.312491,804.48234 L300.831,803.797 L300.220559,804.3121 C299.247436,805.121327 298.213392,805.930597 297.161227,806.687238 C296.266867,807.330398 295.398351,807.906858 294.56838,808.400055 L294.086208,808.679687 C290.432007,810.745076 287.765588,810.989978 286.873811,808.31308 C285.865526,805.288225 288.876034,803.49252 294.213699,802.441901 C295.75175,802.139165 297.393978,801.920931 299.035389,801.772776 L299.864003,801.704178 L300.621451,801.652943 C300.910389,801.635661 301.11825,801.62576 301.231632,801.621568 Z M303.191,804.487 L303.337484,804.687216 C304.088033,805.697253 304.873863,806.696062 305.673681,807.639343 C306.673922,808.818996 307.641259,809.845703 308.551811,810.673998 C310.647773,812.580614 312.217365,813.229527 313.040561,812.596121 C313.386147,812.33049 313.414726,812.059246 313.117367,811.526834 C312.761646,810.889927 311.987198,810.100352 310.862224,809.216745 C309.950407,808.500561 308.832826,807.740225 307.556171,806.953934 C306.497289,806.301768 305.376091,805.660091 304.242255,805.046482 L303.390285,804.591813 L303.191,804.487 Z M299.071,803.293 L298.375927,803.360722 C297.051434,803.499632 295.740312,803.687014 294.506574,803.929852 L293.884533,804.058507 C289.836913,804.938068 287.785341,806.252075 288.312531,807.833647 C288.773272,809.21668 290.654771,808.961612 293.793681,807.096363 C294.582708,806.627496 295.415187,806.074955 296.275836,805.456038 C297.092456,804.868783 297.900109,804.247063 298.675653,803.618428 L299.071,803.293 Z" id="Stroke-19" fill="#C9D4EA" fill-rule="nonzero"></path>
        <path d="M307.592214,794.79002 C307.974507,794.824807 308.264598,795.13764 308.281061,795.51077 L308.27863,795.613864 L307.70863,801.877864 C307.67068,802.294911 307.301833,802.60223 306.884786,802.56428 C306.502493,802.529493 306.212402,802.21666 306.195939,801.84353 L306.19837,801.740436 L306.76837,795.476436 C306.803157,795.094143 307.11599,794.804052 307.48912,794.787589 L307.592214,794.79002 Z" id="Stroke-21" fill="#C9D4EA" fill-rule="nonzero"></path>
        <path d="M297.626814,792.79712 C298.009107,792.831907 298.299198,793.14474 298.315661,793.51787 L298.31323,793.620964 L297.74323,799.884964 C297.70528,800.302011 297.336433,800.60933 296.919386,800.57138 C296.537093,800.536593 296.247002,800.22376 296.230539,799.85063 L296.23297,799.747536 L296.80297,793.483536 C296.837757,793.101243 297.15059,792.811152 297.52372,792.794689 L297.626814,792.79712 Z" id="Stroke-23" fill="#C9D4EA" fill-rule="nonzero"></path>
        <path d="M210.02785,789.36575 C211.40485,711.09875 241.00435,546.11675 245.25535,503.62475 C249.50785,461.13275 234.38335,446.74175 219.88435,453.75275 C205.38385,460.76525 201.04435,558.80525 201.04435,558.80525 C201.04435,558.80525 200.04685,577.99325 196.26235,599.84375 C182.58085,678.83675 192.18385,790.48925 192.18385,790.48925 C192.18385,790.48925 194.83585,797.76275 202.86235,796.79375 C210.88585,795.82475 210.02785,789.36575 210.02785,789.36575" id="Fill-25" fill="#FFC999"></path>
        <path d="M218.8066,437.0957 L219.7726,431.2382 C219.7726,431.2382 245.8651,431.2607 277.0006,431.4527 C277.2136,434.4407 278.0686,438.0722 278.0686,438.0722 C278.0686,438.0722 255.5716,445.6172 218.8066,437.0957" id="Fill-27" fill="#4E5C93"></path>
        <path d="M282.0718,395.21585 L279.8803,400.81535 C279.8803,400.81535 279.2788,428.47835 279.2788,430.66985 C249.3823,435.50885 219.1078,430.29035 219.1078,430.29035 L219.2548,420.05135 L216.8203,388.64285 L282.0718,395.21585 Z" id="Fill-29" fill="#597EF7"></path>
        <path d="M281.618678,394.795451 C281.716653,394.545116 281.999014,394.421604 282.249349,394.519578 C282.471869,394.606667 282.594183,394.839443 282.549807,395.065915 L282.525222,395.150249 L280.364,400.67 L279.49253,430.158592 C279.484712,430.538871 279.4807,430.805916 279.4807,430.95335 C279.4807,431.187926 279.313393,431.389134 279.082754,431.431931 C261.837462,434.631927 244.189858,434.454676 227.956708,432.234671 C225.641612,431.918065 223.54001,431.581027 221.676889,431.241833 L221.064716,431.128714 C220.47757,431.01859 219.951073,430.914968 219.487706,430.819661 L218.572692,430.623679 C218.370731,430.577159 218.223723,430.409342 218.198905,430.209682 L218.195945,430.122424 L218.768945,419.779924 C218.783816,419.511511 219.013463,419.305975 219.281876,419.320845 C219.520465,419.334064 219.709374,419.516982 219.737964,419.745982 L219.740955,419.833776 L219.19,429.762 L219.417196,429.810737 C219.763124,429.883323 220.149733,429.961487 220.575751,430.044302 L221.244175,430.171898 C223.239662,430.546169 225.532603,430.920595 228.088613,431.270149 C243.876116,433.429208 261.012519,433.644813 277.787376,430.677331 L278.511,430.545 L278.589895,427.292202 L278.989812,413.636064 L279.393941,400.55705 L279.427178,400.394951 L281.618678,394.795451 Z" id="Stroke-31" fill="#1D39C4" fill-rule="nonzero"></path>
        <path d="M311.83,292.0088 C311.83,292.0088 326.5555,289.8728 330.4465,305.4383 C344.7145,310.6268 340.8235,326.1908 340.8235,326.1908 C340.8235,326.1908 347.989,338.4188 333.754,344.6828 C332.614,357.2108 318.379,354.9323 318.379,354.9323 C318.379,354.9323 314.962,364.6133 304.1425,360.6278 C292.4695,369.7073 278.5615,358.6193 278.5615,358.6193 C278.5615,358.6193 265.591,363.8078 260.404,358.6193 C248.7295,362.5103 235.7575,348.2423 235.7575,348.2423 C235.7575,348.2423 228.4705,350.0933 223.282,338.4188 C209.7295,340.5218 194.923,323.2493 207.337,307.0988 C199.1935,294.2078 208.4755,286.5983 208.4755,286.5983 C208.4755,286.5983 205.9135,256.9868 226.414,253.0013 C236.947,237.0563 259.726,249.8693 259.726,249.8693 C259.726,249.8693 274.816,246.7373 280.2265,259.8353 C297.088,262.4288 296.2975,271.6973 297.595,279.4808 C312.6835,280.3343 311.83,292.0088 311.83,292.0088" id="Fill-33" fill="#373A65"></path>
        <path d="M265.04155,277.55 C253.21705,279.6245 249.62455,270.6785 249.62455,270.6785 C249.62455,270.6785 244.74655,258.0785 243.49705,265.814 C242.83255,269.9255 236.47705,264.47 233.55505,268.853 C231.58855,271.802 236.50555,275.603 230.11555,283.466 C226.41355,288.0215 241.01455,291.6575 232.00705,300.0545 C232.00705,300.0545 238.41205,310.304 227.40955,313.6475 L224.97655,325.5815 L250.33255,325.5425 L249.51655,311.7995 C266.60005,311.7995 267.43405,288.3185 265.04155,277.55" id="Fill-35" fill="#FFC999"></path>
        <path d="M243.244536,290.048836 C243.540651,289.752721 244.020749,289.752721 244.316864,290.048836 L244.47179,290.190758 C244.542668,290.252288 244.632581,290.327163 244.740925,290.412745 C245.111565,290.705516 245.546874,290.999894 246.041798,291.275172 C247.719541,292.208336 249.634136,292.691208 251.741492,292.486792 C252.158306,292.446361 252.528976,292.751479 252.569408,293.168292 C252.609839,293.585106 252.304721,293.955776 251.887908,293.996208 C249.449672,294.23272 247.23514,293.674201 245.304666,292.600467 C244.325521,292.055865 243.629235,291.505863 243.244536,291.121164 C242.948421,290.825049 242.948421,290.344951 243.244536,290.048836 Z" id="Stroke-37" fill="#F5222D" fill-rule="nonzero"></path>
        <path d="M252.573156,278.195778 C252.872867,278.21713 253.105927,278.45351 253.132248,278.743338 L253.132968,278.848495 C253.118511,279.249375 253.197636,279.921294 253.461711,280.834648 C253.887152,282.306122 254.682103,283.958099 255.940387,285.760752 C256.138158,286.044084 256.05862,286.435251 255.765906,286.618851 L254.981181,287.106239 C253.964925,287.730955 253.068648,288.255778 252.289992,288.688472 L252.003505,288.846429 C251.785942,288.965413 251.587518,289.071609 251.408069,289.16556 L250.795128,289.475033 C250.779928,289.482252 250.766739,289.488433 250.755554,289.493596 C250.452434,289.63352 250.093277,289.501223 249.953354,289.198104 C249.81343,288.894984 249.945727,288.535827 250.248846,288.395904 L250.529511,288.25806 L251.027678,287.99927 C251.151079,287.933632 251.282968,287.862495 251.423395,287.785696 C252.145598,287.390726 252.981867,286.90765 253.934424,286.32905 L254.591,285.925 L254.441076,285.696096 C253.475612,284.197849 252.810036,282.790925 252.398027,281.492723 L252.300281,281.170448 C252.027254,280.226129 251.924583,279.479197 251.922448,278.955355 L251.927228,278.755794 C251.950952,278.422782 252.240144,278.172054 252.573156,278.195778 Z" id="Stroke-39" fill="#DD936F" fill-rule="nonzero"></path>
        <path d="M255.0058,420.1343 C255.0058,420.1343 287.4148,428.7293 302.1988,418.4258 C318.2683,407.2268 298.5898,364.6118 293.4433,353.5088 C289.0258,343.9748 279.3943,337.7978 270.6283,336.3368 C262.0033,334.8998 255.4123,334.3883 255.4123,334.3883 L253.5178,327.0053 C253.2418,325.9298 252.2728,325.1768 251.1628,325.1768 L225.3238,325.1768 C224.1133,325.1768 223.0888,326.0678 222.9163,327.2648 L221.9188,334.2578 C221.9188,334.2578 200.1688,333.4418 189.8743,342.9743 C180.0148,352.1048 182.8633,372.5963 191.1343,391.5638 C199.4038,410.5328 206.3698,425.5853 220.1983,426.9683 C245.7628,429.5243 285.7243,407.2673 285.7243,407.2673 C285.7243,407.2673 292.5403,403.6163 298.8718,404.5898 C297.4108,395.8238 292.5403,389.4938 278.4193,393.1463 L228.0208,403.6163" id="Fill-41" fill="#597EF7"></path>
        <path d="M285.96685,377.92925 C285.96685,377.92925 288.40285,385.96325 283.35085,392.47625 L283.89835,400.87625 L248.10685,420.23375 C248.10685,420.23375 287.06035,429.21425 302.62585,420.13475 C314.30035,413.32475 310.94485,393.95525 301.98535,374.43575 C301.98535,374.43575 294.93835,372.30125 285.96685,377.92925" id="Fill-43" fill="#FFC999"></path>
        <path d="M215.8462,380.1206 L225.8287,401.7896 L265.7542,390.9506 C277.6852,387.7841 290.3497,392.2946 293.5147,401.7896 C287.6722,402.5201 276.5932,405.0761 276.5932,405.0761 C276.5932,405.0761 238.2472,428.9981 218.8897,428.0861 C205.0072,427.4306 199.6057,411.2621 191.3347,392.2946 C191.3347,392.2946 196.3687,381.5816 215.8462,380.1206" id="Fill-45" fill="#FFC999"></path>
        <path d="M280.85455,356.9903 C281.123375,356.9903 281.3413,357.208225 281.3413,357.47705 L281.333629,358.155263 L281.31837,358.827128 C281.308786,359.176726 281.296176,359.546095 281.28013,359.931962 C281.216419,361.463967 281.110212,362.996275 280.952463,364.459338 L280.878,365.095 L281.104455,365.329351 C282.636641,366.950948 283.858907,368.674694 284.789373,370.487707 L285.015921,370.942813 C287.761396,376.632628 287.581895,382.693898 285.637181,388.41476 C285.325323,389.33217 284.990941,390.160784 284.656011,390.887217 L284.485826,391.24709 L284.201059,391.802705 C284.069529,392.037155 283.772845,392.120588 283.538395,391.989059 C283.303945,391.857529 283.220512,391.560845 283.352041,391.326395 L283.491255,391.062831 C283.56773,390.911934 283.662654,390.716669 283.771952,390.479611 C284.093169,389.782921 284.414934,388.985573 284.715479,388.101443 C286.585281,382.600951 286.757315,376.791841 284.139154,371.365875 C283.156986,369.330396 281.795214,367.406035 280.022158,365.610012 C279.917433,365.50393 279.86709,365.35571 279.885544,365.207791 C280.096321,363.518327 280.232048,361.705139 280.30747,359.891513 L280.345228,358.800746 L280.367105,357.630898 L280.3678,357.47705 C280.3678,357.208225 280.585725,356.9903 280.85455,356.9903 Z" id="Stroke-47" fill="#1D39C4" fill-rule="nonzero"></path>
        <path d="M245.0218,334.13585 C245.290625,334.13585 245.50855,334.353775 245.50855,334.6226 C245.50855,334.861555 245.336362,335.060294 245.109294,335.101508 L245.0218,335.10935 L221.7553,335.10935 C221.486475,335.10935 221.26855,334.891425 221.26855,334.6226 C221.26855,334.383645 221.440738,334.184906 221.667806,334.143692 L221.7553,334.13585 L245.0218,334.13585 Z" id="Stroke-49" fill="#1D39C4" fill-rule="nonzero"></path>
        <path d="M255.956412,334.205621 C256.034604,333.901539 256.344497,333.71842 256.648579,333.796612 C256.922253,333.866984 257.097947,334.125036 257.073347,334.397618 L257.057588,334.488779 L249.388088,364.314779 C249.284306,364.718379 248.80464,364.867782 248.491286,364.624557 L248.422172,364.561395 L220.544672,334.735395 C220.330278,334.506016 220.342426,334.146266 220.571805,333.931872 C220.775698,333.7413 221.082599,333.729723 221.298858,333.890604 L221.375328,333.959005 L248.544,363.028 L255.956412,334.205621 Z" id="Stroke-51" fill="#C9D4EA" fill-rule="nonzero"></path>
        <path d="M256.9102,367.49435 C259.4902,371.84585 258.3262,377.30285 254.3137,379.68335 C250.2982,382.06385 244.9522,380.46485 242.3722,376.11485 C239.7922,371.76335 240.9547,366.30635 244.9687,363.92585 C248.9842,361.54535 254.3287,363.14285 256.9102,367.49435" id="Fill-53" fill="#C9D4EA"></path>
        <path d="M257.836,367.4732 C260.4175,371.8247 259.2535,377.2817 255.2395,379.6607 C251.2255,382.0412 245.8795,380.4437 243.2995,376.0922 C240.7195,371.7407 241.882,366.2852 245.896,363.9047 C249.91,361.5242 255.256,363.1217 257.836,367.4732" id="Fill-55" fill="#F0F0F5"></path>
        <path d="M256.1983,368.23115 C258.2008,371.60915 257.2978,375.84665 254.1808,377.69465 C251.0653,379.54265 246.9148,378.30215 244.9123,374.92415 C242.9083,371.54465 243.8098,367.30865 246.9268,365.46065 C250.0438,363.61115 254.1943,364.85315 256.1983,368.23115" id="Fill-57" fill="#FAAD14"></path>
        <path d="M238.094642,308.947722 C238.254184,308.654454 238.62126,308.546049 238.914528,308.705592 C242.220956,310.504345 245.647523,311.4082 249.085905,311.455156 C249.41973,311.459715 249.686652,311.73403 249.682151,312.067855 C249.677535,312.40168 249.40322,312.668602 249.069395,312.664044 C245.433966,312.614397 241.814883,311.65976 238.336772,309.767608 C238.043504,309.608066 237.935099,309.24099 238.094642,308.947722 Z" id="Stroke-59" fill="#DD936F" fill-rule="nonzero"></path>
        <path d="M243.40285,396.929 C243.40285,396.929 228.82435,384.7145 219.86485,385.355 C211.34185,385.964 206.22985,392.903 207.68935,396.7985 C207.68935,396.7985 205.74385,400.208 208.90735,401.303 C208.48135,403.799 212.07235,403.616 212.07235,403.616 C212.07235,403.616 211.46485,405.1985 214.02085,405.563 C216.57685,405.929 219.39985,400.6925 226.03585,401.7695 L243.40285,396.929 Z" id="Fill-61" fill="#FFC999"></path>
        <path d="M219.499851,384.432088 C215.50757,384.717452 211.223277,387.561086 208.145374,391.360273 C206.853597,392.954768 205.963604,394.524809 205.71302,395.67517 L205.683051,395.829522 C205.519352,396.792826 205.84956,397.481927 206.557535,397.707878 L206.602,397.72 L206.546926,397.848005 C206.347164,398.337174 206.250665,398.833793 206.301177,399.327066 L206.325395,399.501145 C206.45702,400.245432 206.93554,400.85771 207.762472,401.286964 L207.947,401.376 L207.946732,401.417413 C207.955308,402.606831 208.756637,403.360778 209.992546,403.69995 L210.254037,403.764558 C210.515276,403.822201 210.774741,403.859456 211.023261,403.880827 L211.092,403.885 L211.09662,403.933935 C211.125385,404.158837 211.198236,404.386592 211.327239,404.609483 C211.699158,405.252082 212.45526,405.676095 213.615108,405.841496 C214.260986,405.93398 214.899865,405.771382 215.657638,405.379228 L215.888663,405.254721 C216.358952,404.991699 218.153376,403.806874 218.174611,403.793463 C220.678168,402.212349 222.798028,401.588369 225.618588,402.046239 C225.701185,402.059647 225.785667,402.055761 225.866685,402.034826 L243.902685,397.374326 C244.382792,397.250267 244.517536,396.632764 244.132753,396.319978 L243.482499,395.805908 L242.821746,395.297624 C242.474139,395.033168 242.10115,394.753793 241.704872,394.461977 C239.818355,393.072761 237.789912,391.683612 235.696513,390.386229 C233.280377,388.888828 230.932487,387.611341 228.70825,386.621834 C225.303829,385.107293 222.313975,384.320348 219.834754,384.413864 L219.499851,384.432088 Z M228.216832,387.726455 C230.385983,388.691456 232.687009,389.943444 235.059629,391.413876 C237.123449,392.692929 239.125856,394.064247 240.987979,395.435499 L241.85716,396.083543 L242.416,396.509 L225.683,400.833 L225.812312,400.852861 C222.778949,400.360445 220.445648,400.993972 217.842742,402.576771 L217.529037,402.771252 C217.472943,402.806678 215.722978,403.962148 215.298521,404.199537 C214.647369,404.563712 214.180958,404.701189 213.786136,404.644654 C212.96406,404.527421 212.538521,404.288784 212.373618,404.003867 C212.30528,403.885793 212.284035,403.75661 212.295659,403.631978 L212.316295,403.512694 C212.46177,403.13374 212.200606,402.732168 211.806236,402.694646 L211.694064,402.693236 C211.295318,402.70404 210.787251,402.664342 210.312504,402.534057 C209.434411,402.293081 209.049767,401.869957 209.184264,401.085159 C209.234237,400.793559 209.065817,400.508636 208.786253,400.411828 C207.915618,400.110344 207.555297,399.70594 207.503888,399.203906 C207.467375,398.847345 207.584883,398.425191 207.811879,397.994653 C207.935705,397.759795 208.058572,397.580562 208.131969,397.489566 C208.49518,397.039262 208.079206,396.38507 207.517353,396.522976 L207.299634,396.571196 C206.814912,396.66239 206.765573,396.523525 206.894318,395.932493 C207.097375,395.000315 207.901234,393.582223 209.084776,392.121327 C211.971809,388.557741 215.982696,385.895575 219.586048,385.638012 C221.893057,385.473115 224.82269,386.216488 228.216832,387.726455 Z" id="Stroke-63" fill="#DD936F" fill-rule="nonzero"></path>
        <path d="M219.42464,388.650666 C219.755919,388.609266 220.058035,388.844261 220.099434,389.17554 C220.140834,389.506819 219.905839,389.808935 219.57456,389.850334 C217.275132,390.137689 214.783912,391.449805 212.276782,393.464143 C211.261195,394.28011 210.313399,395.155713 209.460487,396.031101 L209.0387,396.472579 L208.527981,397.03447 C208.467771,397.102981 208.423595,397.154389 208.396159,397.187083 C208.181551,397.442823 207.800258,397.476167 207.544517,397.261559 C207.288777,397.046951 207.255433,396.665658 207.470041,396.409917 L207.769627,396.067791 C208.008395,395.801632 208.284419,395.505703 208.59455,395.187399 C209.479709,394.278913 210.462869,393.370641 211.519548,392.521658 C214.185478,390.379733 216.859774,388.971192 219.42464,388.650666 Z" id="Stroke-65" fill="#DD936F" fill-rule="nonzero"></path>
        <path d="M223.445507,391.914534 C223.779178,391.903437 224.058669,392.164935 224.069766,392.498607 C224.080863,392.832278 223.819365,393.111769 223.485693,393.122866 C223.283785,393.129581 223.080002,393.142716 222.874389,393.162189 C220.021136,393.432409 216.919637,394.89438 213.788359,397.168986 C212.554324,398.065406 211.401631,399.026935 210.363217,399.988187 C210.090938,400.240233 209.841457,400.478576 209.616477,400.699769 L209.105811,401.21588 C209.090066,401.232444 209.07655,401.246795 209.065296,401.258869 C208.837661,401.503087 208.455149,401.51653 208.210931,401.288896 C207.966713,401.061261 207.95327,400.678749 208.180904,400.434531 L208.542952,400.062113 L209.010105,399.602932 C209.176763,399.442403 209.354198,399.274743 209.541924,399.100967 C210.613482,398.109034 211.802293,397.117377 213.077808,396.190825 C216.368312,393.800555 219.651327,392.253022 222.7604,391.958575 C222.990349,391.936797 223.218736,391.922076 223.445507,391.914534 Z" id="Stroke-67" fill="#DD936F" fill-rule="nonzero"></path>
        <path d="M223.426779,395.758269 C223.759962,395.737078 224.04724,395.989997 224.068431,396.323179 C224.089622,396.656362 223.836703,396.94364 223.503521,396.964831 C222.471609,397.030464 221.18953,397.473585 219.724698,398.240717 C218.692367,398.781349 217.595942,399.468397 216.463577,400.26759 C215.417403,401.005951 214.39862,401.798186 213.449005,402.590404 L212.975712,402.99035 L212.235397,403.640911 C211.989431,403.866655 211.607034,403.850263 211.381289,403.604297 C211.155545,403.358331 211.171937,402.975934 211.417903,402.750189 L211.75645,402.447684 L212.188859,402.072447 C212.342081,401.94123 212.504177,401.804152 212.674519,401.662044 C213.647571,400.850274 214.691455,400.03852 215.766438,399.279825 C216.939381,398.451993 218.07966,397.737466 219.163805,397.169699 C220.765447,396.330919 222.195755,395.836566 223.426779,395.758269 Z" id="Stroke-69" fill="#DD936F" fill-rule="nonzero"></path>
        <path d="M210.060889,364.299461 C210.286019,364.219362 210.530978,364.31497 210.645922,364.515086 L210.682639,364.594889 L216.061639,379.713389 C216.171118,380.021096 215.952479,380.347182 215.626247,380.362747 L215.346176,380.380548 C215.112706,380.397306 214.841247,380.420395 214.534983,380.450802 C213.657672,380.537903 212.679163,380.666104 211.624966,380.843254 C208.613968,381.349227 205.60377,382.144841 202.799207,383.291071 C197.669536,385.387578 193.824936,388.411846 191.769686,392.511684 C191.649214,392.752003 191.356735,392.849158 191.116416,392.728686 C190.876097,392.608214 190.778942,392.315735 190.899414,392.075416 C193.074954,387.735623 197.101931,384.567892 202.430908,382.389928 C205.308592,381.213813 208.386515,380.4003 211.463639,379.883214 C212.360844,379.732446 213.204913,379.616322 213.981249,379.530185 L214.668626,379.459974 L214.93,379.436 L209.765461,364.921211 C209.685362,364.696081 209.78097,364.451122 209.981086,364.336178 L210.060889,364.299461 Z" id="Stroke-71" fill="#1D39C4" fill-rule="nonzero"></path>
        <path d="M290.476691,375.225469 C294.22641,373.605882 298.208241,372.945037 302.140144,373.801913 C302.402804,373.859154 302.569329,374.118485 302.512087,374.381144 C302.454846,374.643804 302.195515,374.810329 301.932856,374.753087 C298.226432,373.945351 294.441082,374.573586 290.8627,376.119169 C290.138024,376.432173 289.470371,376.763701 288.868334,377.097963 L288.515054,377.298722 C288.103694,377.538001 287.818317,377.722251 287.673611,377.824075 C287.45376,377.978776 287.150126,377.925961 286.995425,377.706111 C286.840724,377.48626 286.893539,377.182626 287.113389,377.027925 L287.355907,376.866367 C287.5478,376.742474 287.771613,376.604952 288.025576,376.457227 C288.748259,376.036859 289.569977,375.6171 290.476691,375.225469 Z" id="Stroke-73" fill="#1D39C4" fill-rule="nonzero"></path>
        <path d="M283.127762,391.426359 C283.259256,391.119489 283.61462,390.977319 283.921491,391.108812 C286.067461,392.02836 288.045185,393.503914 289.845847,395.379973 C290.945702,396.525882 291.913077,397.751636 292.74126,398.977716 C292.958934,399.29997 293.155335,399.605285 293.330056,399.889469 L293.633381,400.398678 C293.691436,400.499731 293.734645,400.577718 293.762789,400.630492 C293.939603,400.962037 293.77341,401.364155 293.432398,401.484542 L293.3436,401.508565 L282.323,403.628 L245.944558,421.886722 C245.676013,422.021503 245.354894,421.937387 245.184183,421.701694 L245.133128,421.617608 C244.998347,421.349063 245.082463,421.027944 245.318156,420.857233 L245.402242,420.806178 L281.855242,402.510678 L282.0122,402.457335 L292.275,400.483 L292.126819,400.245407 C292.066896,400.151062 292.004637,400.054538 291.940061,399.955992 L291.739402,399.654444 C290.947596,398.482219 290.02221,397.309668 288.973607,396.217158 C287.277255,394.449776 285.426735,393.069128 283.445309,392.220088 C283.138439,392.088594 282.996269,391.73323 283.127762,391.426359 Z" id="Stroke-75" fill="#DD936F" fill-rule="nonzero"></path>
        <path d="M219.232877,436.801764 C219.332502,436.504015 219.654637,436.343403 219.952386,436.443027 L220.563723,436.63595 L221.101611,436.797259 C221.479736,436.908578 221.896701,437.027234 222.351149,437.1519 C224.301922,437.687042 226.535162,438.22251 229.014173,438.722454 C244.740858,441.894066 261.482768,442.132703 277.26978,437.526902 C277.571188,437.438967 277.886814,437.612021 277.974748,437.91343 C278.062683,438.214838 277.889629,438.530464 277.58822,438.618398 C261.599435,443.283066 244.681147,443.041916 228.789398,439.837015 C226.284081,439.331766 224.025581,438.790241 222.050356,438.248391 L221.386273,438.063076 C221.06849,437.972819 220.77222,437.886287 220.498033,437.804043 L219.737639,437.569014 C219.677654,437.549725 219.628923,437.533756 219.591614,437.521273 C219.293865,437.421648 219.133253,437.099513 219.232877,436.801764 Z" id="Stroke-77" fill="#253368" fill-rule="nonzero"></path>
        <path d="M244.6333,278.1167 C245.03633,278.1167 245.36305,278.44342 245.36305,278.84645 C245.36305,281.650316 243.251811,283.9472 240.6148,283.9472 C237.979206,283.9472 235.86955,281.650261 235.86955,278.84645 C235.86955,278.44342 236.19627,278.1167 236.5993,278.1167 C237.00233,278.1167 237.32905,278.44342 237.32905,278.84645 C237.32905,280.870611 238.814288,282.4877 240.6148,282.4877 C242.417004,282.4877 243.90355,280.870439 243.90355,278.84645 C243.90355,278.44342 244.23027,278.1167 244.6333,278.1167 Z" id="Stroke-79" fill="#373A65" fill-rule="nonzero"></path>
        <path d="M263.04205,278.61845 C263.424369,278.61845 263.7343,278.928381 263.7343,279.3107 C263.7343,282.080729 261.837868,284.37395 259.42705,284.37395 C257.016232,284.37395 255.1198,282.080729 255.1198,279.3107 C255.1198,278.928381 255.429731,278.61845 255.81205,278.61845 C256.194369,278.61845 256.5043,278.928381 256.5043,279.3107 C256.5043,281.368034 257.845168,282.98945 259.42705,282.98945 C261.008932,282.98945 262.3498,281.368034 262.3498,279.3107 C262.3498,278.928381 262.659731,278.61845 263.04205,278.61845 Z" id="Stroke-81" fill="#373A65" fill-rule="nonzero"></path>
        <path d="M236.388822,270.258028 C239.174311,269.082336 242.123593,269.200196 244.911503,270.095693 C245.712716,270.353048 246.311094,270.613086 246.654024,270.794047 C247.01047,270.982141 247.146946,271.423577 246.958853,271.780024 C246.770759,272.13647 246.329323,272.272946 245.972876,272.084853 L245.789627,271.995776 C245.732959,271.969566 245.665887,271.939402 245.588866,271.905931 C245.260267,271.763131 244.883297,271.619576 244.465161,271.485268 C241.980357,270.687131 239.37239,270.582911 236.956362,271.602662 C236.515345,271.788805 236.085559,272.01161 235.667733,272.272767 C235.32597,272.486381 234.875747,272.382496 234.662133,272.040733 C234.448519,271.69897 234.552404,271.248747 234.894167,271.035133 C235.378029,270.732702 235.876728,270.474172 236.388822,270.258028 Z" id="Stroke-83" fill="#373A65" fill-rule="nonzero"></path>
        <path d="M275.7202,436.79105 C288.5317,437.64455 319.8532,518.18555 331.6687,546.97805 C330.2062,552.82205 320.9917,563.20805 320.9917,563.20805 C320.9917,563.20805 322.0432,567.83405 322.6897,570.61355 C311.8717,579.72455 290.8027,584.85005 290.8027,584.85005 L290.8027,588.83555 C257.2042,604.78055 211.7992,590.39855 211.7992,590.39855 C211.7992,590.39855 210.9442,589.54505 211.5142,586.41305 C196.1752,586.41305 163.1122,567.33605 163.1122,567.33605 L167.6677,557.65655 L154.0012,543.98855 C154.0012,543.98855 195.7642,472.56605 202.8787,456.86405 C210.8032,439.37555 219.5587,436.12805 219.5587,436.12805 C219.5587,436.12805 252.9862,435.27455 275.7202,436.79105" id="Fill-85" fill="#4E5C93"></path>
        <path d="M203.598038,481.674598 C203.733101,481.391158 204.072363,481.270876 204.355802,481.405938 C204.610898,481.527495 204.733836,481.814453 204.657412,482.077256 L204.624462,482.163702 L164.395,566.587 L164.900954,566.950348 L165.33003,567.25054 C166.413119,568.001459 167.689533,568.83896 169.151019,569.741434 C173.33086,572.322504 178.152307,574.904512 183.549246,577.314744 C192.213635,581.184194 201.516189,584.230138 211.337304,586.14061 C211.645501,586.200563 211.846742,586.499007 211.78679,586.807204 C211.726837,587.115401 211.428393,587.316642 211.120196,587.25669 C201.210008,585.328891 191.825694,582.256175 183.085605,578.352918 C177.640685,575.921258 172.774935,573.315525 168.553634,570.708854 C167.239044,569.897089 166.071191,569.136461 165.055812,568.442157 L164.682203,568.184932 C164.450809,568.024503 164.237971,567.874766 164.043911,567.736306 L163.502955,567.344014 C163.427161,567.287973 163.371176,567.245933 163.335223,567.218478 C163.148265,567.075712 163.071175,566.835433 163.132298,566.615008 L163.167038,566.522098 L203.598038,481.674598 Z" id="Stroke-87" fill="#253368" fill-rule="nonzero"></path>
        <path d="M285.334867,474.272097 C285.59801,474.169115 285.891446,474.27567 286.030918,474.511156 L286.071453,474.594317 L323.790453,570.975317 C323.887492,571.223276 323.799426,571.505368 323.578551,571.654078 L323.313759,571.828363 C323.098826,571.968129 322.845259,572.129967 322.554338,572.312039 L321.810862,572.771008 C321.164343,573.164918 320.45093,573.586698 319.674347,574.030986 C316.570469,575.806734 313.09442,577.582001 309.327735,579.238983 C303.35208,581.867703 297.216898,583.945144 291.064193,585.263875 C290.757191,585.329676 290.454975,585.134144 290.389175,584.827143 C290.323374,584.520141 290.518906,584.217925 290.825907,584.152125 C296.8975,582.850779 302.960795,580.797679 308.869904,578.198234 C312.59813,576.558169 316.03897,574.800885 319.109733,573.044082 C320.18364,572.429693 321.134213,571.859501 321.951144,571.34823 L322.563,570.959 L285.012647,475.008683 C284.909665,474.74554 285.01622,474.452104 285.251706,474.312632 L285.334867,474.272097 Z" id="Stroke-89" fill="#253368" fill-rule="nonzero"></path>
        <path d="M264.070618,452.037153 C264.377908,451.972711 264.679255,452.169578 264.743697,452.476868 L266.796212,462.35705 C267.525896,465.888877 268.303258,469.669014 269.120482,473.663323 L269.866536,477.315105 C273.41301,494.699542 276.959489,512.433384 280.304561,529.636837 L281.136517,533.926141 C281.751041,537.102435 282.353552,540.23506 282.943241,543.320493 L284.220057,550.033522 C286.97501,564.590736 289.378354,577.781619 291.362065,589.309137 C291.40906,589.582228 291.252313,589.849417 290.991005,589.941641 C289.087525,590.613445 287.15641,591.229923 285.198974,591.792275 C264.806136,597.650925 243.060136,597.463107 222.584169,593.632145 C219.444524,593.044731 216.613994,592.415194 214.138511,591.78537 L213.306602,591.570066 C213.041222,591.500163 212.787834,591.43219 212.546653,591.366339 L211.554786,591.088001 C211.325873,591.021804 211.160695,590.972342 211.061345,590.941519 C210.81375,590.864703 210.653521,590.632422 210.660707,590.380973 L210.672543,590.286048 L230.328543,492.924048 C230.390676,492.616283 230.690538,492.41716 230.998302,492.479293 C231.27529,492.535213 231.464279,492.783693 231.454012,493.05719 L231.443057,493.149052 L211.89,590.001 L212.847015,590.269729 C213.322782,590.399625 213.8473,590.538055 214.41886,590.683475 C216.87139,591.307459 219.678242,591.93173 222.793268,592.514537 C243.110132,596.315732 264.68724,596.502092 284.885024,590.699478 C286.433771,590.254539 287.965678,589.775396 289.480083,589.261452 L290.159,589.026 L289.426291,584.805599 C287.542351,574.042248 285.325793,561.963026 282.826265,548.784906 L282.266177,545.838434 C281.537349,542.012503 280.78817,538.111435 280.020217,534.142114 C276.986633,518.462426 273.769654,502.275096 270.524455,486.25801 L267.28217,470.355783 L263.630903,452.710232 C263.566461,452.402942 263.763328,452.101595 264.070618,452.037153 Z" id="Stroke-91" fill="#253368" fill-rule="nonzero"></path>
        <path d="M247.837691,453.877536 C248.119871,453.893304 248.343054,454.111589 248.372754,454.383663 L248.375303,454.476141 L243.402803,548.289141 C243.386184,548.602675 243.118543,548.843372 242.805009,548.827564 C242.522829,548.811796 242.299646,548.593511 242.269946,548.321437 L242.267397,548.228959 L247.239897,454.415959 C247.256516,454.102425 247.524157,453.861728 247.837691,453.877536 Z" id="Stroke-93" fill="#253368" fill-rule="nonzero"></path>
        <path d="M231.189419,439.602606 C231.287364,439.3043 231.608588,439.141875 231.906894,439.239819 C232.17537,439.327969 232.333782,439.596976 232.291378,439.867361 L232.269681,439.957294 L213.479181,497.186794 C213.381236,497.4851 213.060012,497.647525 212.761706,497.549581 C212.49323,497.461431 212.334818,497.192424 212.377222,496.922039 L212.398919,496.832106 L231.189419,439.602606 Z" id="Stroke-95" fill="#253368" fill-rule="nonzero"></path>
        <path d="M192.71485,792.69815 C192.53335,793.49915 189.80635,764.84465 189.93685,756.39515 C201.25585,757.89065 211.71985,756.82265 211.71985,756.82265 C211.71985,756.82265 210.22435,789.49415 210.65185,792.69815 C202.53685,797.60915 192.71485,792.69815 192.71485,792.69815" id="Fill-97" fill="#597EF7"></path>
        <path d="M195.03805,831.46895 C196.44355,842.79545 202.53655,848.78795 208.82305,849.45095 C216.60805,850.27295 225.08455,848.07845 226.45405,841.10045 C228.01705,833.13545 223.91755,829.06145 219.33805,817.67195 C214.75855,806.28245 212.57305,796.54145 210.86605,788.42795 C210.86605,788.42795 205.02805,785.01095 206.59405,794.83295 C207.86305,802.78595 210.93655,825.15695 216.34555,826.72145 C211.07755,826.29545 200.25805,830.42345 200.25805,830.42345 C200.25805,830.42345 204.10255,824.44445 203.81905,822.45095 C203.53405,820.45895 200.35255,800.03795 200.18905,793.97945 C200.02555,787.98845 194.82805,788.71145 192.32305,789.41195 C191.54305,789.62945 191.04655,790.38245 191.14105,791.18795 C191.37805,793.18295 194.37355,826.10645 195.03805,831.46895" id="Fill-99" fill="#4E5C93"></path>
        <path d="M197.83885,801.45365 C197.83885,801.45365 191.34535,787.85915 197.83885,786.50615 C202.96435,785.43815 207.87535,785.22365 208.51585,786.50615 C208.75435,786.98315 208.73035,791.41715 210.43735,800.59865 C212.43235,811.31915 217.53085,823.89065 219.40735,826.43765 C222.39685,830.49515 219.19285,830.70815 211.93285,832.63115 C204.67285,834.55265 202.11085,834.55265 200.18785,830.70815 C198.26635,826.86515 198.26635,809.78165 197.83885,801.45365" id="Fill-101" fill="#4E5C93"></path>
        <path d="M210.376545,804.803869 C210.766834,804.652071 211.206283,804.845406 211.358081,805.235695 C211.509879,805.625984 211.316544,806.065433 210.926255,806.217231 C210.037652,806.562842 209.055605,807.042214 207.997205,807.639296 C206.97874,808.213848 205.905773,808.8881 204.797094,809.641694 C203.732512,810.365314 202.679474,811.131116 201.667981,811.905369 L201.102,812.343 L201.137755,812.344808 C201.992979,812.376797 202.900414,812.473054 203.855248,812.628481 L204.336592,812.711101 C206.203008,813.047669 208.182684,813.588794 210.205917,814.278042 C211.445772,814.700418 212.626829,815.152728 213.710647,815.605261 L214.250696,815.834379 L215.102286,816.213983 C215.792178,816.53867 215.625194,817.564089 214.867932,817.653114 C212.007342,817.989411 208.93524,819.523391 205.858652,821.878279 C204.613384,822.831435 203.453764,823.854176 202.412196,824.87658 C202.193759,825.090998 201.990136,825.296058 201.802179,825.489873 L201.447407,825.861953 C201.282485,826.03805 201.170404,826.162081 201.115075,826.225323 C200.839334,826.540498 200.360302,826.572465 200.045127,826.296725 C199.729952,826.020984 199.697985,825.541952 199.973725,825.226777 L200.240806,824.932346 L200.340532,824.825323 C200.63249,824.513581 200.97019,824.167038 201.349871,823.794342 C202.433286,822.730862 203.638713,821.66772 204.93691,820.674052 C207.29386,818.86999 209.66419,817.510814 211.994116,816.751529 L212.282,816.661 L211.818119,816.478365 C211.368426,816.304165 210.905964,816.131835 210.433276,815.963285 L209.716894,815.713531 C207.760387,815.047014 205.851533,814.525248 204.067465,814.20353 C202.108646,813.850299 200.376504,813.753392 198.938269,813.949358 C198.187797,814.051613 197.767666,813.111538 198.344445,812.620629 L198.78666,812.252643 L199.471348,811.698092 C199.634393,811.567785 199.804471,811.433022 199.981126,811.294325 C201.242744,810.303793 202.582655,809.313234 203.944589,808.387498 C205.086105,807.611584 206.194083,806.915331 207.252083,806.318475 C208.36915,805.688298 209.414306,805.17812 210.376545,804.803869 Z" id="Stroke-103" fill="#C9D4EA" fill-rule="nonzero"></path>
        <path d="M198.672485,806.762501 C200.139573,806.436529 201.915189,806.423429 203.939328,806.66717 C205.56051,806.862388 207.28235,807.215155 209.036729,807.680168 C209.81129,807.885473 210.55357,808.102449 211.248998,808.321859 L211.976434,808.557784 L212.838317,808.857529 C213.497339,809.102682 213.496661,810.03506 212.837283,810.279255 C210.316225,811.212907 207.862803,812.675399 205.525641,814.523818 C204.213807,815.561324 203.008215,816.664702 201.926857,817.775897 L201.347367,818.384688 L201.054,818.703 L202.022214,818.723738 C202.288892,818.730965 202.564558,818.739835 202.848341,818.750515 L203.279993,818.767915 C205.462305,818.861685 207.617038,819.044921 209.636871,819.339263 C213.288226,819.871359 216.176178,820.715382 218.048051,821.963298 C218.396489,822.19559 218.490644,822.666364 218.258352,823.014801 C218.02606,823.363239 217.555286,823.457394 217.206849,823.225102 C215.567067,822.131914 212.864893,821.342187 209.418188,820.839913 C207.454449,820.553745 205.349369,820.374732 203.214891,820.283017 C202.214697,820.24004 201.307369,820.219807 200.530758,820.215255 L199.421947,820.220271 C198.783454,820.234165 198.414834,819.500795 198.806924,818.99668 L199.123279,818.608683 L199.217809,818.496527 C199.5465,818.108599 199.930278,817.677425 200.366106,817.213773 C201.609251,815.891262 203.023352,814.569374 204.584919,813.334359 C206.384371,811.911204 208.255696,810.702237 210.184444,809.766587 L210.423,809.654 L210.278757,809.609137 C209.930816,809.503676 209.572328,809.399338 209.205176,809.297281 L208.648184,809.146049 C206.957065,808.697803 205.301971,808.358711 203.758025,808.172793 C201.889742,807.94782 200.275875,807.959727 199.001415,808.242899 C198.592614,808.33373 198.187582,808.075965 198.096751,807.667165 C198.00592,807.258364 198.263685,806.853332 198.672485,806.762501 Z" id="Stroke-105" fill="#C9D4EA" fill-rule="nonzero"></path>
        <path d="M195.70315,833.6984 C195.70315,833.6984 211.07815,820.8854 225.17215,830.2814 C228.69565,838.1354 226.65865,842.8049 224.95915,845.2289 C224.25565,846.2324 222.92215,847.6319 221.77165,848.0474 C218.33965,849.2864 209.34115,851.7734 202.96465,847.5779 C194.84965,842.2394 195.70315,833.6984 195.70315,833.6984" id="Fill-107" fill="#C9D4EA"></path>
        <path d="M223.987859,830.211012 C224.184135,830.106359 224.428086,830.180634 224.532738,830.376909 C226.52151,834.106839 224.434234,838.944502 221.552188,840.867554 C219.500128,842.234993 212.258464,843.473481 206.505549,843.211734 C203.647893,843.081747 201.350437,841.312255 199.560056,838.472207 C198.916702,837.451665 198.384535,836.360928 197.956066,835.270373 C197.843575,834.984055 197.744325,834.712878 197.657977,834.460569 L197.510714,834.009205 C197.483153,833.919892 197.463114,833.851146 197.45043,833.804879 C197.391624,833.59036 197.517853,833.368787 197.732371,833.30998 C197.94689,833.251174 198.168463,833.377403 198.22727,833.591921 L198.341968,833.965697 L198.506998,834.44751 C198.567606,834.616238 198.633838,834.792715 198.705778,834.975819 C199.116934,836.022307 199.627423,837.068614 200.241458,838.042647 C201.90516,840.681748 203.99482,842.291195 206.542155,842.407066 C212.139572,842.661738 219.225809,841.449832 221.105309,840.197382 C223.678743,838.480253 225.584923,834.062314 223.821962,830.755891 C223.717309,830.559615 223.791584,830.315664 223.987859,830.211012 Z" id="Stroke-109" fill="#96A7CA" fill-rule="nonzero"></path>
        <path d="M189.837693,761.361802 C189.92534,760.952306 190.328353,760.691397 190.737848,760.779043 L191.37328,760.903196 L191.696232,760.961672 C192.477549,761.100571 193.365892,761.239647 194.344123,761.369541 C199.257631,762.021977 204.364033,762.199103 209.119875,761.612055 C209.597369,761.553115 210.068276,761.48658 210.532269,761.412287 C210.945771,761.346078 211.334655,761.627616 211.400863,762.041119 C211.467072,762.454621 211.185534,762.843505 210.772031,762.909713 C210.289874,762.986915 209.800979,763.055991 209.305657,763.117133 C204.403688,763.722217 199.175348,763.540862 194.144507,762.872846 C193.310388,762.762093 192.539283,762.644671 191.840971,762.526041 L191.033293,762.382372 L190.420452,762.261957 C190.010956,762.17431 189.750047,761.771297 189.837693,761.361802 Z" id="Stroke-111" fill="#C9D4EA" fill-rule="nonzero"></path>
        <path d="M203.601416,798.207076 L203.704491,798.203971 L204.314673,798.235406 C204.793692,798.264104 205.326829,798.303537 205.900736,798.355395 C207.542146,798.503713 209.184374,798.722112 210.722425,799.025007 C216.060055,800.076167 219.070504,801.872184 218.062218,804.897043 C217.130942,807.690053 214.268287,807.301918 210.367829,804.983747 C209.53771,804.49038 208.669037,803.913693 207.774516,803.270263 C206.722393,802.51347 205.688401,801.704038 204.715336,800.89465 L204.465897,800.686013 L204.105,800.379 L203.62347,801.064876 L203.383785,801.398783 C202.447772,802.694723 201.446453,803.990904 200.418696,805.203044 C199.379362,806.428837 198.368927,807.501352 197.40473,808.378548 C194.804137,810.744488 192.617975,811.648736 190.971157,810.382261 C189.973665,809.615147 189.857277,808.51271 190.494214,807.371556 C190.969073,806.520785 191.866363,805.605664 193.135161,804.608902 C194.097949,803.852539 195.261791,803.060728 196.584633,802.246076 C197.940355,801.411174 199.390088,800.596299 200.83948,799.83355 L201.571566,799.452886 L202.777469,798.848511 C202.808912,798.833372 202.840882,798.820596 202.873177,798.810113 L202.938,798.793 L202.953205,798.733178 C203.043301,798.447485 203.297291,798.236909 203.601416,798.207076 Z M201.743,801.072 L201.54572,801.175563 C200.124413,801.923532 198.703446,802.722238 197.379848,803.537356 C196.102341,804.32409 194.984132,805.084855 194.072,805.801422 C192.947692,806.684674 192.173788,807.473957 191.818412,808.110659 C191.521332,808.642914 191.549985,808.914313 191.895643,809.180139 C192.718496,809.812949 194.288214,809.163676 196.384206,807.256808 C197.29466,806.428504 198.261884,805.401855 199.26201,804.222305 C200.061889,803.278925 200.847784,802.280013 201.598401,801.269871 L201.743,801.072 Z M205.863,799.875 L206.260355,800.201194 C207.035853,800.829952 207.843464,801.451794 208.660047,802.039164 C209.520845,802.658336 210.353467,803.211089 211.142623,803.680111 C214.281016,805.545362 216.162415,805.800453 216.623561,804.41742 C217.177089,802.756837 214.887494,801.390878 210.429403,800.512928 C209.195664,800.269963 207.884541,800.082449 206.560049,799.943407 L205.863,799.875 Z" id="Stroke-113" fill="#C9D4EA" fill-rule="nonzero"></path>
        <path d="M197.344015,791.373304 C197.726317,791.338607 198.068048,791.594023 198.151503,791.958072 L198.167696,792.059915 L198.736196,798.323915 C198.774047,798.740971 198.46664,799.109746 198.049585,799.147596 C197.667283,799.182293 197.325552,798.926877 197.242097,798.562828 L197.225904,798.460985 L196.657404,792.196985 C196.619553,791.779929 196.92696,791.411154 197.344015,791.373304 Z" id="Stroke-115" fill="#C9D4EA" fill-rule="nonzero"></path>
        <path d="M207.309415,789.380404 C207.691717,789.345707 208.033448,789.601123 208.116903,789.965172 L208.133096,790.067015 L208.701596,796.331015 C208.739447,796.748071 208.43204,797.116846 208.014985,797.154696 C207.632683,797.189393 207.290952,796.933977 207.207497,796.569928 L207.191304,796.468085 L206.622804,790.204085 C206.584953,789.787029 206.89236,789.418254 207.309415,789.380404 Z" id="Stroke-117" fill="#C9D4EA" fill-rule="nonzero"></path>
    </g>
</svg>