<svg xmlns="http://www.w3.org/2000/svg" xmlns:xlink="http://www.w3.org/1999/xlink" width="512" height="1024" version="1.1" viewBox="0 0 512 1024"><title>2.人物组件/7.设计师/站立/讨论</title><desc>Created with Sketch.</desc><defs><polygon id="path-1" points="240.11 844.548 300.187 844.548 300.187 853.797 240.11 853.797"/><polygon id="path-3" points="112 843.657 172.129 843.657 172.129 853.456 112 853.456"/><polygon id="path-5" points="167.529 231.5 285.875 231.5 285.875 388.788 167.529 388.788"/></defs><g id="2.人物组件/7.设计师/站立/讨论" fill="none" fill-rule="evenodd" stroke="none" stroke-width="1"><path id="Fill-1" fill="#FFC999" d="M252.3715,799.38165 L252.3715,799.38165 C259.0555,799.53915 264.6715,794.38965 265.0945,787.71765 L274.1395,644.97615 C274.7905,634.69365 266.7595,625.93365 256.459,625.69215 C246.1585,625.44915 237.7225,633.82215 237.8905,644.12415 L240.211,787.13115 C240.319,793.81815 245.686,799.22565 252.3715,799.38165"/><path id="Fill-3" fill="#FFC999" d="M259.5961,483.36585 L259.5961,483.36585 C271.7341,483.65085 281.2546,493.87335 280.6816,505.99935 L274.5076,636.37635 C274.0336,646.41885 265.6306,654.24585 255.5806,654.01035 C245.5306,653.77335 237.5041,645.55935 237.5026,635.50635 L237.471099,504.98385 C237.4681,492.84285 247.4596,483.08085 259.5961,483.36585"/><polygon id="Fill-5" fill="#597EF7" points="264.813 806.109 241.328 806.413 239.524 769.284 266.485 768.934"/><path id="Stroke-7" fill="#DFE5F1" fill-rule="nonzero" d="M266.281961,775.577615 C266.707737,775.572098 267.057369,775.912786 267.062951,776.338561 C267.067942,776.728856 266.782091,777.055168 266.406459,777.111092 L266.301939,777.119485 L241.410939,777.441985 C240.985163,777.447502 240.635531,777.106814 240.629949,776.681039 C240.624958,776.290744 240.910809,775.964432 241.286441,775.908508 L241.390961,775.900115 L266.281961,775.577615 Z"/><path id="Fill-9" fill="#4E5C93" d="M267.13285,804.61485 L241.31485,804.94935 L240.62185,852.26235 L298.79935,851.50785 L298.848872,844.24485 C298.85635,841.57485 296.95135,839.28285 294.32485,838.80435 L278.82085,834.46335 L270.82885,830.04885 C268.41985,828.71985 266.93935,826.18185 266.97685,823.43085 C267.05635,817.51935 267.17785,807.49335 267.13285,804.61485"/><mask id="mask-2" fill="#fff"><use xlink:href="#path-1"/></mask><path id="Fill-11" fill="#E4EBF7" d="M241.20355,853.797 L299.20405,853.044 C299.75455,853.038 300.19405,852.585 300.186645,852.036 L300.10255,845.532 C300.09655,844.9815 299.64355,844.542 299.09455,844.547939 L241.09405,845.301 C240.54505,845.3085 240.10405,845.76 240.109989,846.309 L240.19555,852.8145 C240.20305,853.3635 240.65455,853.8045 241.20355,853.797"/><path id="Fill-13" fill="#E4EBF7" d="M299.09425,844.54875 L299.09425,844.54875 C299.04175,840.44925 296.02075,836.99325 291.96625,836.39175 L278.82025,834.44175 L278.08525,844.67775 L299.09425,844.54875 Z"/><path id="Stroke-15" fill="#96A7CA" fill-rule="nonzero" d="M299.089139,844.154283 C299.306997,844.15146 299.485894,844.325781 299.488751,844.543639 C299.491187,844.734265 299.358031,844.895061 299.178756,844.934173 L299.099361,844.943217 L241.098861,845.694717 C240.881003,845.69754 240.702106,845.523219 240.699249,845.305361 C240.696813,845.114735 240.829969,844.953939 241.009244,844.914827 L241.088639,844.905783 L299.089139,844.154283 Z"/><path id="Stroke-17" fill="#E4EBF7" fill-rule="nonzero" d="M266.542726,821.040977 C266.967915,820.945612 267.389908,821.212987 267.485273,821.638176 C267.572691,822.027933 267.355307,822.415004 266.990965,822.550264 L266.582113,822.660672 C266.323203,822.733376 266.033081,822.824936 265.719785,822.936522 C264.824007,823.255569 263.928582,823.668961 263.098027,824.183844 C262.765416,824.390038 262.450855,824.608035 262.156288,824.837926 L262.04,824.932 L262.066854,824.935834 C262.477591,824.991301 262.922737,825.062445 263.399705,825.14791 L263.763356,825.214672 C264.249656,825.306007 264.75772,825.40954 265.281243,825.523031 C265.764039,825.627693 266.243976,825.737268 266.711645,825.848485 L268.206319,826.219872 C268.23615,826.227696 268.263325,826.234874 268.287751,826.241372 C268.919543,826.409456 269.072254,827.214155 268.591238,827.609655 L268.237597,827.851942 C268.012898,828.010249 267.760712,828.201333 267.487915,828.424959 C266.927714,828.884186 266.366712,829.408744 265.824721,829.997732 L265.754,830.076 L265.909156,830.075699 C266.196749,830.077378 266.492616,830.085125 266.796353,830.098687 L267.25781,830.12336 C268.54736,830.203316 269.918993,830.377105 271.31116,830.616581 C271.824815,830.704938 272.316491,830.798024 272.77818,830.892342 L273.229576,830.986941 C273.583916,831.063107 273.841631,831.122757 273.983586,831.157621 C274.816141,831.362097 274.771073,832.560671 273.925514,832.702048 L273.777728,832.732966 C273.628923,832.768683 273.418238,832.830127 273.162513,832.923659 C272.555183,833.145792 271.946892,833.464899 271.381443,833.896257 C270.822642,834.322545 270.335411,834.837372 269.937976,835.450508 C269.700958,835.816162 269.212396,835.920443 268.846742,835.683426 C268.481088,835.446408 268.376807,834.957846 268.613824,834.592192 C269.11323,833.821744 269.72559,833.1747 270.424349,832.641645 C270.584576,832.519414 270.744776,832.405676 270.904097,832.300008 L271.091,832.18 L271.043646,832.17174 C269.927032,831.979664 268.826386,831.831776 267.780678,831.743804 L267.160157,831.698336 C266.004214,831.626664 264.974625,831.639274 264.108097,831.74684 C263.422106,831.831996 262.966017,831.056455 263.373862,830.498336 C263.564101,830.238001 263.7607,829.98407 263.963101,829.736529 C264.651387,828.894741 265.381494,828.15467 266.118564,827.515673 L266.29,827.37 L265.652213,827.222019 L264.946923,827.065209 C264.437044,826.954676 263.943163,826.854034 263.472075,826.765555 C262.089489,826.505883 260.97627,826.364793 260.260311,826.373788 C259.588639,826.382226 259.214313,825.601 259.641735,825.082806 C260.352887,824.220625 261.241928,823.477866 262.266587,822.842653 C263.20051,822.26369 264.195597,821.804287 265.190332,821.449995 L265.614909,821.304905 C266.013562,821.17465 266.33154,821.088343 266.542726,821.040977 Z"/><path id="Stroke-19" fill="#E4EBF7" fill-rule="nonzero" d="M266.621502,814.075326 L266.56681,814.075679 C266.327344,814.077909 266.000371,814.087693 265.598524,814.109123 C265.00518,814.140764 264.362508,814.192254 263.683073,814.267739 C261.819996,814.474726 259.96391,814.827884 258.213857,815.362405 C253.210034,816.890729 249.896897,819.619727 249.247096,823.861887 C248.829531,826.582092 250.023532,827.947721 252.29848,827.572514 C253.880274,827.311629 256.019454,826.226812 258.631704,824.490335 C259.409349,823.9734 260.217813,823.405245 261.049773,822.794124 C262.458498,821.759336 263.867358,820.652009 265.210354,819.544783 L266.254206,818.672324 L266.962126,818.064198 C267.076065,817.992985 267.338577,817.784404 267.605387,817.51408 C268.057215,817.0563 268.359405,816.582077 268.423604,816.047471 C268.528532,815.173705 267.958278,814.493611 266.885962,814.119406 C266.800967,814.089746 266.711523,814.074849 266.621502,814.075326 Z M266.488,815.654 C266.649012,815.719982 266.755439,815.781881 266.818109,815.835541 L266.853,815.87 L266.856861,815.859326 C266.844264,815.964224 266.710065,816.174821 266.482296,816.40559 C266.29735,816.592972 266.108105,816.743338 265.995504,816.820498 L264.741371,817.883231 C264.570062,818.026456 264.391606,818.17465 264.206543,818.327224 C262.884742,819.416978 261.498367,820.506631 260.11559,821.522359 C259.302578,822.119562 258.514064,822.673697 257.758137,823.176195 C255.322776,824.795087 253.337573,825.801819 252.04169,826.015549 C250.886423,826.206087 250.543874,825.8143 250.806865,824.101063 C251.34568,820.583466 254.188547,818.241824 258.674806,816.871581 C260.322371,816.368362 262.084916,816.033002 263.857315,815.83609 C264.652498,815.747745 265.352887,815.696614 265.923026,815.671824 L266.488,815.654 Z"/><path id="Fill-21" fill="#FFC999" d="M169.926558,780.561593 L169.926558,780.561593 C163.290558,779.741093 158.486058,775.325093 159.044058,768.662093 L170.960058,624.633593 C171.819558,614.366093 181.044558,606.873593 191.270058,608.139593 C201.495558,609.405593 208.616058,618.921593 206.945058,629.088593 L182.247558,771.720593 C181.163058,778.317593 176.562558,781.383593 169.926558,780.561593"/><path id="Fill-23" fill="#FFC999" d="M207.813,474.6446 L207.813,474.6446 C195.765,473.1536 184.851,481.8731 183.648,493.9541 L170.697,623.8331 C169.6995,633.8366 176.8665,642.8066 186.8445,644.0426 C196.821,645.2771 205.9605,638.3246 207.432,628.3796 L226.542,499.2641 C228.3195,487.2536 219.861,476.1371 207.813,474.6446"/><polygon id="Fill-25" fill="#597EF7" points="152.811 805.546 177.791 806.072 184.415 768.964 157.458 768.358"/><path id="Stroke-27" fill="#DFE5F1" fill-rule="nonzero" d="M155.630128,775.002045 L180.518128,775.561545 C180.943832,775.571115 181.281175,775.923974 181.271804,776.349678 C181.262833,776.739907 180.965602,777.055888 180.588224,777.09847 L180.483472,777.103155 L155.595472,776.543655 C155.169768,776.534085 154.832425,776.181226 154.841796,775.755522 C154.850767,775.365293 155.147998,775.049312 155.525376,775.00673 L155.630128,775.002045 Z"/><path id="Fill-29" fill="#4E5C93" d="M152.45505,804.0297 L178.26855,804.6102 L173.56005,851.9262 L115.39305,850.6197 L115.41405,843.3567 C115.42905,840.6867 117.35805,838.4127 119.98755,837.9597 L135.53205,833.7657 L143.56605,829.4277 C145.98705,828.1212 148.11405,825.4572 148.98255,822.8472 C150.58455,818.0172 152.38305,806.9067 152.45505,804.0297"/><mask id="mask-4" fill="#fff"><use xlink:href="#path-3"/></mask><path id="Fill-31" fill="#E4EBF7" d="M172.9644,853.45575 L114.9729,852.15225 C114.4239,852.14025 113.9889,851.68425 113.999214,851.13375 L114.1464,844.63125 C114.1584,844.08075 114.6159,843.64425 115.1649,843.65775 L173.1549,844.96125 C173.7054,844.97475 174.1404,845.42925 174.128642,845.97975 L173.9829,852.48375 C173.9694,853.03275 173.5134,853.46775 172.9644,853.45575"/><path id="Fill-33" fill="#E4EBF7" d="M115.1646,843.6573 L115.1646,843.6573 C115.2576,839.5593 118.3101,836.1318 122.3706,835.5693 L135.5331,833.7438 L136.1721,843.9858 L115.1646,843.6573 Z"/><path id="Stroke-35" fill="#96A7CA" fill-rule="nonzero" d="M115.173476,843.2629 L173.163476,844.5679 C173.381297,844.572802 173.553902,844.753354 173.549102,844.971176 C173.544711,845.161769 173.405939,845.317744 173.22539,845.350476 L173.145724,845.3567 L115.155724,844.0517 C114.937903,844.046798 114.765298,843.866246 114.770098,843.648424 C114.774489,843.457831 114.913261,843.301856 115.09381,843.269124 L115.173476,843.2629 Z"/><path id="Stroke-37" fill="#E4EBF7" fill-rule="nonzero" d="M147.406301,821.820024 C147.505699,821.395759 147.930212,821.132403 148.354476,821.231801 L148.598012,821.294213 C148.874885,821.370189 149.248894,821.487382 149.694166,821.650506 C150.67936,822.011429 151.664865,822.476586 152.589719,823.059683 C153.618247,823.708143 154.508509,824.464632 155.217037,825.340922 C155.639446,825.863346 155.257322,826.640987 154.585663,826.625798 C153.869031,826.609593 152.752868,826.740176 151.365853,826.987136 C150.882053,827.073277 150.374354,827.171953 149.850132,827.280769 L149.15231,827.429415 L148.546,827.564 L148.700763,827.696665 C149.304096,828.2284 149.902661,828.829524 150.476641,829.50024 L150.81792,829.911022 C151.029863,830.173832 151.235308,830.44375 151.433594,830.720785 C151.835876,831.282834 151.372312,832.053779 150.68725,831.962016 C149.817478,831.84551 148.782025,831.823366 147.618315,831.885073 C146.579193,831.940174 145.475839,832.059455 144.349562,832.226689 L143.7,832.327 L143.863074,832.433178 C143.941692,832.486002 144.020525,832.540814 144.099469,832.597665 L144.336529,832.774385 C145.041499,833.318133 145.657163,833.978065 146.155709,834.763786 C146.389167,835.131723 146.280151,835.619251 145.912214,835.852709 C145.544277,836.086167 145.056749,835.977151 144.823291,835.609214 C144.426541,834.983925 143.936653,834.458813 143.372777,834.023891 C142.814656,833.593409 142.214298,833.273052 141.614948,833.048207 C141.261739,832.915702 140.995706,832.846013 140.862434,832.822415 C140.018231,832.672935 139.984702,831.473909 140.819234,831.277487 L141.550686,831.119063 C142.121221,831.001835 142.749104,830.884724 143.416229,830.775419 C144.829526,830.543856 146.224162,830.378783 147.534757,830.309287 C148.005065,830.284348 148.457847,830.272159 148.891701,830.273574 L149.057,830.275 L148.961071,830.166842 C148.535266,829.697303 148.097524,829.268471 147.657809,828.880879 L147.327807,828.597926 C147.126922,828.430429 146.937429,828.281133 146.762175,828.15016 L146.457577,827.930645 C146.400596,827.891266 146.359118,827.863819 146.334602,827.848357 C145.749,827.479022 145.889088,826.588387 146.559795,826.416657 L147.266197,826.242831 L147.432589,826.203124 C148.10323,826.04381 148.812517,825.884517 149.529412,825.735706 C150.067603,825.623989 150.58983,825.52249 151.089238,825.43357 L151.806918,825.312005 C152.038088,825.275028 152.261093,825.24165 152.475608,825.212038 L152.82,825.166 L152.692933,825.061827 C152.49612,824.905612 152.290249,824.754692 152.075912,824.609046 L151.748132,824.394529 C150.925425,823.875834 150.038543,823.457227 149.15135,823.132206 C148.918653,823.046958 148.698871,822.973008 148.495361,822.909899 L148.140148,822.805924 C148.073177,822.787611 148.024065,822.77512 147.994524,822.768199 C147.570259,822.668801 147.306903,822.244288 147.406301,821.820024 Z" transform="translate(147.802545, 828.593212) rotate(3.000000) translate(-147.802545, -828.593212)"/><path id="Stroke-39" fill="#E4EBF7" fill-rule="nonzero" d="M150.920563,814.493775 C150.832358,814.493104 150.744655,814.507178 150.661105,814.535462 C149.560717,814.907975 148.98422,815.607678 149.111558,816.502262 C149.185061,817.018637 149.478173,817.480454 149.911176,817.927418 C150.174147,818.198868 150.432989,818.408793 150.618961,818.53905 L150.690836,818.608166 L151.493958,819.307667 C151.74316,819.521513 152.00908,819.747424 152.289926,819.9834 C153.627374,821.10717 155.030416,822.231044 156.433333,823.281307 C157.261804,823.901525 158.066886,824.478145 158.841294,825.002799 C161.431686,826.757763 163.555355,827.857247 165.130779,828.129016 C167.396236,828.51982 168.598025,827.16432 168.207088,824.445145 C167.603004,820.238627 164.371373,817.488728 159.457434,815.904232 C157.586384,815.300913 155.590855,814.9083 153.596774,814.68308 C153.039087,814.620092 152.512948,814.574031 152.026539,814.542293 L151.349813,814.50599 C151.159326,814.498156 151.014656,814.494597 150.920563,814.493775 Z M151.046,816.074 L151.290252,816.082867 C151.377558,816.086484 151.476229,816.091106 151.585658,816.096915 C152.138048,816.126239 152.754868,816.176024 153.419674,816.251111 C155.31678,816.465378 157.212438,816.838342 158.973162,817.406086 C163.374668,818.825348 166.144308,821.182124 166.64513,824.66958 C166.891417,826.382639 166.546302,826.771895 165.39903,826.573984 C164.110145,826.351644 162.140326,825.331812 159.726375,823.696386 C158.973697,823.186454 158.18856,822.624118 157.379023,822.018076 C156.002003,820.987199 154.621377,819.881281 153.305049,818.775257 L152.521932,818.110439 L151.597784,817.304879 C151.413342,817.168877 151.226881,817.017653 151.04455,816.829444 L150.954987,816.732712 C150.815049,816.574232 150.72247,816.43139 150.687672,816.333205 L150.675,816.288 C150.721417,816.232318 150.839136,816.155628 151.046,816.074 Z" transform="translate(158.687104, 821.344454) rotate(-12.000000) translate(-158.687104, -821.344454)"/><path id="Fill-41" fill="#FFC999" d="M232.5595,467.1512 L232.5595,467.1512 C230.059,471.0752 224.914,472.3367 220.882,470.0162 L143.0335,425.2247 C136.0165,420.8717 133.9075,411.6242 138.3475,404.6612 C142.8265,397.6367 152.2135,395.6822 159.124,400.3352 L230.5465,455.5892 C234.106,458.3432 234.979,463.3562 232.5595,467.1512"/><path id="Fill-43" fill="#FFC999" d="M223.95505,481.4723 C223.95505,481.4723 215.67205,467.6408 221.51905,460.1453 C226.81405,453.3578 234.22255,457.8233 234.22255,457.8233 C234.22255,457.8233 242.29105,461.0963 249.17905,467.8943 C253.71955,472.3733 261.48655,481.7633 259.45555,484.4663 C256.80805,487.9898 248.63605,476.8478 246.02455,478.7093 C243.34555,480.6188 244.86205,483.0458 246.49855,489.6998 C247.52155,493.8578 250.16605,497.5553 250.36105,501.2468 C250.74055,508.4618 234.65005,503.2553 223.95505,481.4723"/><path id="Stroke-45" fill="#DD936F" fill-rule="nonzero" d="M239.625019,484.185949 C239.919126,484.189914 240.160262,484.407738 240.20238,484.68949 L240.208848,484.785569 L240.212063,485.009911 C240.221426,485.308188 240.251678,485.733094 240.315906,486.271182 C240.45075,487.400869 240.697306,488.657956 241.083267,490.012526 C242.177949,493.854427 244.16262,497.730484 247.260632,501.406349 C247.471246,501.656248 247.439399,502.029568 247.189501,502.240182 C246.939602,502.450796 246.566282,502.418949 246.355668,502.169051 C243.145422,498.360016 241.08402,494.334103 239.945068,490.336836 C239.541419,488.920184 239.282821,487.601701 239.140748,486.411453 L239.090182,485.944664 C239.054887,485.579492 239.036051,485.274551 239.028807,485.034965 L239.025452,484.769831 C239.029799,484.443045 239.298234,484.181656 239.625019,484.185949 Z"/><path id="Stroke-47" fill="#DD936F" fill-rule="nonzero" d="M233.672573,484.752726 C233.993547,484.691214 234.303612,484.90155 234.365124,485.222523 C234.935845,488.200599 236.041868,491.082386 237.527299,493.801334 C238.31426,495.241795 239.157466,496.544199 239.999878,497.684857 L240.341939,498.138866 C240.452213,498.282222 240.558587,498.417535 240.660606,498.544618 L240.962733,498.912404 C241.028191,498.990027 241.077172,499.046426 241.108131,499.080972 C241.326244,499.324353 241.30576,499.698468 241.062378,499.916581 C240.818997,500.134694 240.444882,500.11421 240.226769,499.870828 L239.983797,499.586761 L239.895623,499.480061 C239.639175,499.167724 239.354206,498.802751 239.047863,498.38795 C238.174905,497.205932 237.302741,495.858799 236.48869,494.368752 C234.947877,491.548432 233.798448,488.553551 233.202776,485.445277 C233.141264,485.124303 233.3516,484.814238 233.672573,484.752726 Z"/><path id="Stroke-49" fill="#DD936F" fill-rule="nonzero" d="M228.309363,482.355553 C228.634988,482.327698 228.921541,482.569088 228.949397,482.894713 L228.965928,483.038883 C228.985994,483.187857 229.022573,483.408557 229.081551,483.698321 C229.22203,484.388502 229.438737,485.199368 229.747869,486.123641 C230.637356,488.78312 232.091057,491.808177 234.239168,495.140536 C234.416238,495.415225 234.337103,495.781448 234.062414,495.958518 C233.787725,496.135588 233.421502,496.056453 233.244432,495.781764 C231.042918,492.36656 229.546307,489.252211 228.625481,486.499034 C228.301004,485.528877 228.071859,484.671473 227.92183,483.934369 L227.854236,483.581356 C227.806788,483.315076 227.780753,483.118907 227.770203,482.995587 C227.742348,482.669962 227.983738,482.383409 228.309363,482.355553 Z"/><mask id="mask-6" fill="#fff"><use xlink:href="#path-5"/></mask><path id="Fill-51" fill="#373A65" d="M271.3852,357.15095 C271.3852,357.15095 302.7907,337.08545 273.1297,312.65945 C280.1092,295.21145 263.5342,287.65145 263.5342,287.65145 C268.1857,284.16095 275.1667,269.62145 257.4262,257.11745 C257.4262,237.34295 240.5557,236.66495 240.5557,236.66495 C240.5557,236.66495 216.3892,223.07195 205.2127,239.98895 C183.4627,244.21745 187.6357,267.29495 187.6357,267.29495 C187.6357,267.29495 175.1317,276.01895 180.9487,287.65145 C173.9692,294.62945 172.8052,302.18945 178.0402,307.42445 C157.9762,326.61695 172.8052,344.06495 172.8052,344.06495 C172.8052,344.06495 161.5867,373.46045 199.5367,373.46045 C205.6432,396.14195 244.0282,391.77995 244.8997,372.58745 C267.5827,383.92895 271.3852,357.15095 271.3852,357.15095"/><path id="Fill-53" fill="#FFC999" d="M247.939,266.0333 C235.396,268.2353 231.583,258.7433 231.583,258.7433 C231.583,258.7433 226.408,245.3753 225.082,253.5818 C224.377,257.9438 217.633,252.1568 214.5325,256.8053 C212.4475,259.9358 217.663,263.9678 210.8845,272.3108 C206.9575,277.1438 222.4495,281.0003 212.8915,289.9088 C212.8915,289.9088 218.7925,301.5518 207.1195,305.0978 L206.299,318.0428 C205.831,325.4453 211.7155,331.7048 219.1315,331.692817 C226.363,331.6823 232.1575,325.7033 231.9445,318.4748 L231.469,302.3708 C249.5935,302.3708 250.4785,277.4588 247.939,266.0333"/><path id="Stroke-55" fill="#F5222D" fill-rule="nonzero" d="M224.814177,279.293934 C225.128381,278.979589 225.63792,278.979474 225.952266,279.293677 L226.116712,279.444256 C226.191943,279.50954 226.287376,279.58898 226.40237,279.679781 C226.795755,279.990403 227.257759,280.302729 227.783009,280.59479 C229.563297,281.584704 231.594665,282.097009 233.830222,281.880353 C234.272601,281.83748 234.665975,282.161344 234.708847,282.603722 C234.75172,283.046101 234.427856,283.439475 233.985478,283.482347 C231.398854,283.733027 229.049279,283.14047 227.000844,282.001455 C225.961739,281.423669 225.222753,280.840157 224.814434,280.432023 C224.500089,280.117819 224.499974,279.60828 224.814177,279.293934 Z"/><path id="Stroke-57" fill="#DD936F" fill-rule="nonzero" d="M234.707943,266.767992 C235.001335,266.788865 235.229502,267.020238 235.255294,267.303951 L235.255903,267.409112 C235.240409,267.839308 235.325011,268.557218 235.606733,269.5313 C236.059779,271.097752 236.905786,272.855593 238.244185,274.773053 C238.437753,275.050369 238.359946,275.433223 238.073487,275.612983 C236.647006,276.508136 235.41992,277.234488 234.387484,277.80812 L234.083588,277.975644 C233.775995,278.143828 233.504484,278.287889 233.26865,278.409196 L232.761276,278.661105 C232.464503,278.797975 232.112965,278.668349 231.976095,278.371576 C231.839225,278.074803 231.968851,277.723265 232.265624,277.586395 L232.565285,277.439334 L233.095135,277.16421 C233.226343,277.094445 233.366552,277.018842 233.515812,276.937231 L234.123828,276.599365 C234.755293,276.243152 235.457213,275.831509 236.230602,275.360959 L236.923,274.934 L236.735892,274.649288 C235.713661,273.063029 235.009189,271.574146 234.573247,270.200983 L234.469828,269.860113 C234.179038,268.854679 234.071308,268.062355 234.070728,267.510915 L234.075692,267.316257 C234.098884,266.990266 234.381953,266.7448 234.707943,266.767992 Z"/><path id="Stroke-59" fill="#DD936F" fill-rule="nonzero" d="M219.39306,299.368032 C219.549256,299.08096 219.908596,298.974864 220.195668,299.13106 C223.710697,301.043587 227.354258,302.00455 231.011955,302.054656 C231.338739,302.059132 231.600021,302.327672 231.595601,302.654455 C231.591068,302.981239 231.322528,303.242521 230.995745,303.238044 C227.145183,303.185297 223.313154,302.174627 219.630032,300.17064 C219.34296,300.014444 219.236864,299.655104 219.39306,299.368032 Z"/><path id="Stroke-61" fill="#373A65" fill-rule="nonzero" d="M226.2871,266.63555 C226.714568,266.63555 227.0611,266.982082 227.0611,267.40955 C227.0611,270.383947 224.821518,272.82005 222.0241,272.82005 C219.227904,272.82005 216.9886,270.383657 216.9886,267.40955 C216.9886,266.982082 217.335132,266.63555 217.7626,266.63555 C218.190068,266.63555 218.5366,266.982082 218.5366,267.40955 C218.5366,269.556513 220.11336,271.27205 222.0241,271.27205 C223.936153,271.27205 225.5131,269.556728 225.5131,267.40955 C225.5131,266.982082 225.859632,266.63555 226.2871,266.63555 Z"/><path id="Stroke-63" fill="#373A65" fill-rule="nonzero" d="M245.81785,267.16745 C246.223365,267.16745 246.5521,267.496185 246.5521,267.9017 C246.5521,270.840149 244.539948,273.27245 241.98235,273.27245 C239.423718,273.27245 237.4126,270.840742 237.4126,267.9017 C237.4126,267.496185 237.741335,267.16745 238.14685,267.16745 C238.552365,267.16745 238.8811,267.496185 238.8811,267.9017 C238.8811,270.084786 240.302916,271.80395 241.98235,271.80395 C243.660854,271.80395 245.0836,270.084127 245.0836,267.9017 C245.0836,267.496185 245.412335,267.16745 245.81785,267.16745 Z"/><path id="Stroke-65" fill="#373A65" fill-rule="nonzero" d="M217.88002,258.780175 C220.835082,257.533358 223.96391,257.65871 226.921623,258.608986 C227.771913,258.882174 228.406951,259.158207 228.770886,259.350294 C229.148928,259.549826 229.293639,260.018043 229.094106,260.396086 C228.894574,260.774128 228.426357,260.918839 228.048314,260.719306 L227.85381,260.624737 C227.793663,260.596912 227.722475,260.564889 227.640727,260.529356 C227.291971,260.377761 226.891883,260.225366 226.448109,260.082787 C223.811847,259.235789 221.044993,259.124939 218.48179,260.206421 C218.013611,260.403957 217.557364,260.640435 217.113819,260.917651 C216.751327,261.144208 216.273807,261.034012 216.047249,260.671519 C215.820692,260.309027 215.930888,259.831507 216.293381,259.604949 C216.807011,259.28393 217.336402,259.009542 217.88002,258.780175 Z"/><path id="Fill-67" fill="#FFC999" d="M348.98965,346.82675 L365.01265,314.67275 C365.01265,314.67275 386.53165,290.04575 392.34415,292.78475 C397.61815,296.06675 383.49115,301.74725 379.64215,309.08825 C385.09165,309.65525 381.38815,316.70225 381.38815,316.70225 C381.38815,316.70225 385.70365,317.29175 383.52415,323.17625 C387.13915,326.05775 382.77115,332.48975 382.77115,332.48975 C382.77115,332.48975 370.15165,347.37875 359.21815,358.12175 C359.21815,358.12175 344.23615,368.30225 348.98965,346.82675"/><path id="Fill-69" fill="#FFC999" d="M353.07085,335.73065 C353.07085,335.73065 356.48035,324.34415 358.55935,318.60065 C360.63835,312.85715 359.95585,301.73165 363.79435,305.30165 C366.37435,307.70315 364.78735,313.98215 363.88435,318.65915 C362.98135,323.33465 368.66785,335.75015 361.70935,342.49115 C357.00685,347.04515 350.87185,346.70465 353.07085,335.73065"/><path id="Stroke-71" fill="#DD936F" fill-rule="nonzero" d="M377.709423,308.295071 C377.981136,308.091954 378.366061,308.147561 378.569179,308.419273 C378.772296,308.690986 378.716689,309.075911 378.444977,309.279029 L378.086336,309.5547 L377.628525,309.917207 C377.46826,310.045842 377.300685,310.182092 377.126852,310.32541 C376.133572,311.144329 375.140422,312.024251 374.215248,312.929336 C373.171811,313.950117 372.282436,314.938136 371.596247,315.86485 C369.868179,318.198645 369.626243,319.793952 370.999923,320.662346 C371.286672,320.843619 371.372176,321.223025 371.190904,321.509773 C371.009631,321.796522 370.630225,321.882026 370.343477,321.700754 C368.156223,320.318045 368.513204,317.964137 370.608942,315.133796 C371.338477,314.148543 372.269669,313.114067 373.356154,312.051174 C374.308511,311.119495 375.327001,310.217122 376.345361,309.377526 L376.859985,308.958792 L377.597318,308.379952 C377.643727,308.3445 377.681274,308.316114 377.709423,308.295071 Z"/><path id="Stroke-73" fill="#DD936F" fill-rule="nonzero" d="M379.636995,316.214865 C379.795326,316.514891 379.680461,316.886463 379.380435,317.044795 L379.025363,317.238361 L378.57138,317.494519 C378.412448,317.585612 378.246261,317.682293 378.073868,317.784204 C377.089109,318.36635 376.104608,318.998299 375.188117,319.656351 C373.855572,320.613135 372.785449,321.541413 372.078998,322.396307 C371.042627,323.650448 370.908022,324.534524 371.666658,325.198211 C372.223986,325.685705 372.986439,325.77125 373.959303,325.490346 C374.690007,325.279363 375.490445,324.873078 376.312483,324.328111 C376.763405,324.029175 377.191776,323.707916 377.58242,323.386858 L377.880491,323.135633 C377.962112,323.064823 378.025394,323.007878 378.068525,322.967603 C378.316471,322.736072 378.705165,322.749378 378.936697,322.997325 C379.168228,323.245271 379.154922,323.633965 378.906975,323.865497 L378.775929,323.98433 C378.671068,324.077302 378.53189,324.196686 378.362447,324.335946 C377.941189,324.682166 377.479804,325.028184 376.991292,325.352041 C376.073846,325.960257 375.168057,326.420017 374.300097,326.670631 C372.961464,327.057146 371.773562,326.923868 370.857805,326.122856 C369.48166,324.918945 369.725803,323.315418 371.131999,321.613745 C371.917573,320.663101 373.060742,319.671459 374.471606,318.658441 C375.420566,317.977076 376.434763,317.326065 377.448701,316.72667 L377.960948,316.428411 C378.042836,316.381478 378.122893,316.335962 378.200991,316.291907 L378.807065,315.958305 C379.107091,315.799974 379.478663,315.914839 379.636995,316.214865 Z"/><path id="Stroke-75" fill="#DD936F" fill-rule="nonzero" d="M380.113818,322.391149 C380.453031,322.395494 380.724495,322.674003 380.720201,323.013216 C380.715804,323.352429 380.437295,323.623893 380.098082,323.619548 C379.275219,323.609007 378.125859,324.160055 376.650167,325.397689 C373.553016,327.99522 372.687068,329.856256 373.375248,330.433311 C374.088433,331.031333 376.117729,330.493333 377.622579,328.967261 C378.158505,328.423778 379.007867,329.150866 378.553522,329.764186 C378.43383,329.925759 378.313549,330.084172 378.192664,330.239478 C375.259278,334.008127 373.054222,335.334934 368.149009,336.986427 L367.351563,337.250291 C362.918596,338.694143 361.162438,340.02109 359.58491,344.131156 C359.463349,344.447869 359.108058,344.606071 358.791344,344.48451 C358.474631,344.362949 358.316429,344.007658 358.43799,343.690944 C360.129738,339.283289 362.124215,337.703493 366.643941,336.190205 L367.812029,335.80366 C371.201265,334.659879 373.192336,333.698321 375.084021,331.898005 L375.227,331.759 L375.216345,331.762579 C374.24838,331.995782 373.34782,331.918574 372.716899,331.475279 L372.585902,331.374664 C371.040139,330.078506 372.24518,327.488717 375.860733,324.45641 C377.54054,323.047589 378.941058,322.376125 380.113818,322.391149 Z"/><path id="Stroke-77" fill="#DD936F" fill-rule="nonzero" d="M365.064862,312.201062 C365.369054,312.227237 365.602313,312.47089 365.624721,312.765755 L365.624188,312.865712 L364.856,321.788 L364.990634,322.157891 L365.041981,322.306373 C365.218092,322.821445 365.393871,323.398511 365.557839,324.024903 C366.135279,326.230841 366.424801,328.467511 366.267759,330.571559 C366.102116,332.790836 365.442576,334.713707 364.194041,336.235203 C363.978841,336.49745 363.591794,336.53559 363.329547,336.320391 C363.0673,336.105191 363.02916,335.718144 363.244359,335.455897 C364.316862,334.148919 364.89454,332.464713 365.042667,330.48012 C365.188221,328.529993 364.915285,326.421461 364.369382,324.336 C364.213358,323.739955 364.046288,323.191482 363.879551,322.703826 L363.715361,322.243577 C363.694236,322.187445 363.676514,322.141925 363.662617,322.107504 C363.638512,322.047797 363.62402,321.984861 363.61949,321.921025 L363.620212,321.824888 L364.400212,312.760388 C364.426387,312.456196 364.67004,312.222937 364.964905,312.200529 L365.064862,312.201062 Z"/><path id="Fill-79" fill="#FFC999" d="M366.36865,338.3666 L366.36865,338.3666 C363.21265,335.3981 358.35265,335.3591 355.33465,338.2796 L297.05965,394.6646 C291.88165,400.0271 293.72515,408.7181 299.32615,413.9876 L297.82615,413.9876 C303.47365,419.3036 313.76065,419.0621 318.77215,413.4551 L367.35115,349.0991 C369.84565,345.8921 369.42115,341.2376 366.36865,338.3666"/><path id="Fill-81" fill="#FFC999" d="M316.435,415.07015 L316.435,415.07015 C322.8385,410.01065 323.9275,400.72115 318.868,394.31765 L269.572,331.92665 C264.514,325.52465 255.2215,324.43565 248.821,329.49365 C242.4175,334.55165 241.3285,343.84415 246.388,350.24615 L295.684,412.63715 C300.742,419.03915 310.033,420.12965 316.435,415.07015"/><path id="Fill-83" fill="#597EF7" d="M267.2851,376.6949 L246.3871,350.2454 C241.3501,343.8704 242.4436,334.5314 248.8201,329.4944 C255.1951,324.4559 264.5341,325.5509 269.5711,331.9274 L290.2711,358.1249 L267.2851,376.6949 Z"/><path id="Stroke-85" fill="#1D39C4" fill-rule="nonzero" d="M248.195833,329.392184 C248.398005,329.232481 248.691364,329.26691 248.851066,329.469083 C249.010769,329.671255 248.97634,329.964614 248.774167,330.124316 C242.691188,334.929455 241.572613,343.781555 246.206684,349.947273 L246.418027,350.221533 L267.023,376.298 L289.642839,358.025874 C289.818198,357.884204 290.064996,357.890393 290.232421,358.028413 L290.298876,358.095589 C290.440546,358.270948 290.434357,358.517746 290.296337,358.685171 L290.229161,358.751626 L267.243161,377.321626 C267.063654,377.466647 266.809604,377.456601 266.642322,377.309514 L266.583973,377.247967 L245.685934,350.799917 C240.488834,344.220742 241.617662,334.58849 248.195833,329.392184 Z"/><path id="Fill-87" fill="#4E5C93" d="M263.19085,432.4037 C276.77335,433.4672 309.00985,519.2987 321.18835,549.9902 C319.56685,556.1717 309.66085,567.0752 309.66085,567.0752 C309.66085,567.0752 310.72135,571.9967 311.37385,574.9532 C299.78485,584.4857 277.36735,589.6637 277.36735,589.6637 L277.31935,593.8922 C241.47985,610.3937 193.48585,594.5792 193.48585,594.5792 C193.48585,594.5792 192.59185,593.6612 193.23385,590.3462 C176.96185,590.1572 142.11835,569.5127 142.11835,569.5127 L147.07135,559.2977 L132.73885,544.6307 C132.73885,544.6307 171.43885,473.4362 183.35185,453.5237 C193.80835,436.0427 203.61685,431.0087 203.61685,431.0087 C203.61685,431.0087 239.09185,430.5152 263.19085,432.4037"/><path id="Stroke-89" fill="#253368" fill-rule="nonzero" d="M201.333232,447.819408 C201.479832,447.519921 201.841456,447.395982 202.140942,447.542582 C202.41048,447.674522 202.537824,447.980631 202.453727,448.258859 L202.417768,448.350292 L143.489,568.733 L144.041969,569.138118 L144.503093,569.468421 C145.667086,570.294638 147.039138,571.216109 148.610481,572.20906 C153.104439,575.048848 158.290729,577.889649 164.099109,580.54144 C173.129421,584.66419 182.818664,587.939975 193.050143,590.053584 C193.37669,590.121042 193.586723,590.440446 193.519266,590.766993 C193.451808,591.09354 193.132404,591.303573 192.805857,591.236116 C182.481464,589.103313 172.706913,585.798686 163.597622,581.639879 C157.737651,578.964534 152.503818,576.097691 147.965441,573.229834 C146.55213,572.336745 145.296837,571.499922 144.205656,570.736073 L143.804167,570.453083 C143.472637,570.217758 143.176583,570.003347 142.916563,569.811373 L142.402812,569.425433 C142.385171,569.411828 142.369913,569.399981 142.357046,569.389917 C142.160429,569.236138 142.08147,568.980306 142.148824,568.747103 L142.186732,568.648908 L201.333232,447.819408 Z"/><path id="Stroke-91" fill="#253368" fill-rule="nonzero" d="M272.931067,472.284803 C273.211778,472.17869 273.522074,472.295464 273.667277,472.547256 L273.709297,472.636067 L312.536797,575.350067 C312.636785,575.614575 312.53979,575.913047 312.303408,576.068244 L312.025458,576.246644 C311.799881,576.389685 311.53376,576.555313 311.228435,576.741645 L310.448168,577.21134 C309.769653,577.614453 309.020925,578.046086 308.205892,578.50075 C304.948393,580.317935 301.300129,582.134613 297.346618,583.830231 C290.897144,586.596341 284.2752,588.764233 277.641181,590.105329 C277.31435,590.171399 276.995841,589.960011 276.929771,589.633181 C276.863701,589.30635 277.075089,588.987841 277.401919,588.921771 C283.948467,587.598357 290.492938,585.455829 296.870662,582.720491 C300.783791,581.042192 304.395014,579.243959 307.617633,577.446232 L308.55167,576.918784 C309.303192,576.48906 309.987086,576.08461 310.599412,575.710923 L311.233,575.318 L272.579803,473.063033 C272.47369,472.782322 272.590464,472.472026 272.842256,472.326823 L272.931067,472.284803 Z"/><path id="Stroke-93" fill="#253368" fill-rule="nonzero" d="M247.702911,434.698111 C248.029885,434.632754 248.347932,434.844837 248.413289,435.171811 L249.884071,442.580659 L252.787428,457.345681 C253.106198,458.975324 253.430953,460.638257 253.76126,462.332467 L255.479429,471.170508 C258.626549,487.405857 261.750096,503.782375 264.720392,519.70045 L266.377606,528.620922 C266.799318,530.901444 267.215267,533.159239 267.6252,535.393133 L269.262094,544.362686 C272.761204,563.648214 275.685616,580.524474 277.907406,594.400193 C277.953933,594.69077 277.784187,594.972561 277.505568,595.067275 C275.748027,595.664732 273.968906,596.217862 272.169096,596.727498 C250.464639,602.873348 227.311019,602.525941 205.445743,598.252386 C202.243322,597.626475 199.329272,596.959139 196.744338,596.288365 L196.104985,596.120622 C195.281838,595.902265 194.544674,595.697158 193.897571,595.509101 L192.696701,595.146681 C192.437411,595.062941 192.270481,594.818302 192.278711,594.553843 L192.29017,594.454017 L219.31267,459.017517 C219.377913,458.690521 219.695886,458.478327 220.022883,458.54357 C220.31718,458.602289 220.518486,458.865719 220.508242,459.156198 L220.49683,459.253783 L193.581,594.156 L194.561547,594.443839 C195.118042,594.602998 195.736514,594.773614 196.414592,594.953489 C199.130115,595.67384 202.235057,596.394512 205.677366,597.067309 C227.37238,601.307587 250.344906,601.652276 271.840114,595.565677 C273.17505,595.187676 274.498352,594.785518 275.80965,594.358861 L276.634,594.084 L275.79501,588.917603 C273.395764,574.297024 270.313695,556.765569 266.676075,536.911997 L265.190232,528.840467 C264.909156,527.320471 264.625519,525.790372 264.339396,524.250519 C261.131252,506.984984 257.726647,489.108644 254.293972,471.400175 L251.364482,456.361746 C250.654159,452.733353 249.974691,449.276029 249.331039,446.012706 L247.229211,435.408489 C247.163854,435.081515 247.375937,434.763468 247.702911,434.698111 Z"/><path id="Stroke-95" fill="#253368" fill-rule="nonzero" d="M233.315738,437.012583 C233.615359,437.030451 233.851598,437.263068 233.882166,437.552117 L233.884543,437.650338 L227.533543,550.289838 C227.514772,550.622751 227.229676,550.877413 226.896762,550.859617 C226.597141,550.841749 226.360902,550.609132 226.330334,550.320083 L226.327957,550.221862 L232.678957,437.582362 C232.697728,437.249449 232.982824,436.994787 233.315738,437.012583 Z"/><path id="Stroke-97" fill="#253368" fill-rule="nonzero" d="M216.42042,434.52952 C216.519323,434.211084 216.857644,434.033117 217.17608,434.13202 C217.462673,434.221033 217.635485,434.503974 217.595081,434.791812 L217.57358,434.88768 L193.72958,511.65768 C193.630677,511.976116 193.292356,512.154083 192.97392,512.05518 C192.687327,511.966167 192.514515,511.683226 192.554919,511.395388 L192.57642,511.29952 L216.42042,434.52952 Z"/><path id="Fill-99" fill="#4E5C93" d="M201.0229,432.40145 L202.0474,424.63895 C202.0474,424.63895 232.6999,424.82195 262.7644,423.31595 C263.5249,426.76145 264.3964,432.96395 264.3964,432.96395 C261.8689,430.88795 234.5599,436.95095 201.0229,432.40145"/><path id="Stroke-101" fill="#253368" fill-rule="nonzero" d="M261.169873,432.36026 C261.50295,432.344671 261.7856,432.602046 261.80119,432.935123 C261.816779,433.2682 261.559404,433.55085 261.226327,433.56644 C247.155489,434.225009 233.512554,434.507729 221.467043,434.48343 L218.16746,434.4687 C214.73301,434.444515 211.653563,434.393978 209.155829,434.325335 L207.552326,434.276005 C206.550745,434.241406 205.734154,434.204916 205.154043,434.169262 L204.581238,434.127545 C204.505503,434.120709 204.439707,434.113929 204.383959,434.107205 C204.276067,434.094191 204.198883,434.081235 204.129021,434.06056 L204.082125,434.054889 C204.025643,434.041168 203.976303,433.988486 203.729606,433.725076 L203.820581,433.230272 C203.888578,432.907224 203.931601,432.903077 204.092941,432.887527 C204.219043,432.844082 204.349683,432.844818 204.468005,432.881518 L204.539,432.909 L204.80895,432.935021 L205.228116,432.964036 L206.122797,433.011026 C206.550572,433.030667 207.044659,433.050253 207.595967,433.069292 L209.190079,433.118321 C212.145809,433.199541 215.922433,433.255376 220.140039,433.27198 L222.812454,433.277363 C234.505799,433.278763 247.639782,432.993521 261.169873,432.36026 Z"/><path id="Fill-103" fill="#597EF7" d="M260.52925,346.4627 C263.64175,353.2457 269.40775,364.9217 270.12475,372.6347 C271.28875,385.1387 263.14525,394.4447 263.14525,394.4447 C263.14525,394.4447 263.06425,390.7667 262.27375,423.1652 C224.97925,429.7082 201.20125,422.7512 201.20125,422.7512 L201.92875,414.1637 L195.87325,393.8627 C195.87325,393.8627 192.19075,386.3027 184.63075,369.4352 C179.37475,357.7112 179.74075,343.1732 180.45175,335.4017 C180.75625,332.0717 183.07675,329.2727 186.29725,328.3682 C197.54275,325.2047 201.80125,325.1057 201.80125,325.1057 L202.86025,317.6867 C203.04175,316.4162 204.12925,315.4727 205.41325,315.4727 L232.82725,315.4727 C234.00475,315.4727 235.03375,316.2707 235.32475,317.4107 L237.33475,325.2452 L254.30125,327.0722 C256.96375,327.5942 258.97375,331.2962 259.24975,333.9962 L260.52925,346.4627 Z"/><path id="Stroke-105" fill="#1D39C4" fill-rule="nonzero" d="M234.16345,325.0166 C234.42689,325.0166 234.64045,325.23016 234.64045,325.4936 C234.64045,325.727769 234.471711,325.922526 234.249191,325.962915 L234.16345,325.9706 L209.47945,325.9706 C209.21601,325.9706 209.00245,325.75704 209.00245,325.4936 C209.00245,325.259431 209.171189,325.064674 209.393709,325.024285 L209.47945,325.0166 L234.16345,325.0166 Z"/><path id="Stroke-107" fill="#C9D4EA" fill-rule="nonzero" d="M201.128187,323.03126 C201.363314,322.844783 201.694427,322.86163 201.909345,323.057318 L201.97639,323.129137 L228.033,355.984 L238.14651,325.337103 C238.240552,325.052121 238.526489,324.884314 238.813572,324.929775 L238.909047,324.95296 C239.194029,325.047002 239.361836,325.332939 239.316375,325.620022 L239.29319,325.715497 L228.82919,357.425497 C228.688669,357.851329 228.159006,357.972186 227.846281,357.680354 L227.78281,357.611463 L201.03031,323.879463 C200.823113,323.61821 200.866934,323.238457 201.128187,323.03126 Z"/><path id="Fill-109" fill="#C9D4EA" d="M235.7251,359.78765 C238.4626,364.40465 237.2296,370.19315 232.9696,372.71915 C228.7111,375.24515 223.0396,373.55015 220.3021,368.93315 C217.5646,364.31615 218.7991,358.52615 223.0576,356.00165 C227.3176,353.47565 232.9891,355.17065 235.7251,359.78765"/><path id="Fill-111" fill="#F0F0F5" d="M236.7094,359.765 C239.4454,364.382 238.2124,370.1705 233.9539,372.6965 C229.6939,375.2225 224.0224,373.5275 221.2864,368.9105 C218.5489,364.2935 219.7819,358.5035 224.0404,355.979 C228.3004,353.453 233.9719,355.148 236.7094,359.765"/><path id="Fill-113" fill="#FAAD14" d="M234.97075,360.5699 C237.09625,364.1549 236.13775,368.6489 232.83175,370.6094 C229.52425,372.5699 225.12175,371.2544 222.99625,367.6694 C220.87075,364.0859 221.82775,359.5904 225.13375,357.6299 C228.44125,355.6679 232.84525,356.9849 234.97075,360.5699"/><path id="Stroke-115" fill="#1D39C4" fill-rule="nonzero" d="M180.465642,334.924173 C180.728977,334.932313 180.936434,335.151807 180.929011,335.415142 L180.888816,337.243967 L180.882643,337.593039 C180.82027,341.239156 180.813739,345.091858 180.8992,348.697344 L180.927916,349.777268 C181.043081,353.668366 181.267396,356.796758 181.618718,358.903331 C182.017728,361.298937 183.55268,365.371758 185.932216,370.620351 L186.572567,372.017016 C186.791328,372.489093 187.015293,372.967515 187.244135,373.451754 C188.252197,375.584854 189.318095,377.754588 190.395574,379.885947 L191.205133,381.476098 C191.59903,382.244468 191.969458,382.959305 192.30989,383.61003 L193.036444,385.000529 L202.816444,414.162029 L202.838908,414.360401 L202.008618,422.808277 L202.136073,422.833841 C202.497057,422.905808 202.910349,422.984424 203.374387,423.068363 L203.731906,423.132294 C205.481763,423.441694 207.509741,423.751251 209.791413,424.040267 C225.360555,426.012389 242.981433,426.023232 261.133029,422.787196 L261.882,422.65 L261.970685,419.44118 L262.348752,408.368357 L262.81903,395.446952 L262.878302,395.233815 L263.167087,394.694885 L263.457398,394.136236 C263.60853,393.841764 263.768304,393.524948 263.935279,393.187478 C264.730828,391.579605 265.526505,389.835723 266.268882,388.018668 C267.324192,385.435673 268.182159,382.921606 268.772805,380.560501 C269.343964,378.277292 269.6482,376.200283 269.6482,374.3792 C269.6482,369.820851 269.043514,366.322618 267.686819,362.713843 C267.007462,360.90677 266.135204,359.041076 264.878065,356.65892 L263.82531,354.712945 L260.111729,348.002046 L260.053043,347.79029 L259.760543,340.08329 C259.750552,339.82004 259.955859,339.598534 260.21911,339.588543 C260.45311,339.579662 260.654127,339.740894 260.702925,339.961721 L260.713857,340.04711 L261.002,347.64 L264.463067,353.892635 L265.463069,355.726255 C266.877579,358.376405 267.838189,360.405466 268.5798,362.378133 C269.97787,366.096966 270.6022,369.708841 270.6022,374.3792 C270.6022,376.286811 270.287013,378.438583 269.698287,380.792016 C269.095522,383.201568 268.223323,385.757339 267.152018,388.379482 C266.400442,390.219052 265.595454,391.983342 264.790339,393.610547 L264.462044,394.266175 C264.303126,394.57966 264.152373,394.871276 264.011223,395.139351 L263.768,395.594 L262.975863,417.863672 C262.889605,420.503551 262.83954,422.25095 262.832947,422.91751 L262.8322,423.0497 C262.8322,423.27958 262.668241,423.476759 262.442219,423.518695 C243.783797,426.980634 225.656027,427.01144 209.671529,424.986705 C207.603822,424.724791 205.741927,424.445957 204.103604,424.165315 L203.565802,424.071722 C203.07098,423.98423 202.626565,423.90169 202.234118,423.825428 L201.388511,423.653515 C201.18211,423.608014 201.033977,423.433794 201.016012,423.229907 L201.016492,423.140999 L201.879,414.369 L192.163667,385.377324 L191.665955,384.436379 C191.336586,383.809444 190.975896,383.116224 190.590404,382.367275 L190.356185,381.911303 C189.001348,379.26844 187.646481,376.535907 186.381601,373.859371 C185.921832,372.886482 185.481553,371.936727 185.063341,371.014269 L184.620908,370.030181 C182.45975,365.181 181.068823,361.408432 180.677698,359.060168 L180.58283,358.446934 C180.246934,356.108333 180.041849,352.786125 179.945468,348.719951 C179.871913,345.616787 179.866219,342.333994 179.9055,339.155791 L179.934976,337.226466 L179.975389,335.388258 C179.982813,335.124923 180.202307,334.917466 180.465642,334.924173 Z"/><path id="Fill-117" fill="#FFC999" d="M143.61715,425.9225 L143.46865,425.843 C136.16215,421.919 133.42015,412.8125 137.34415,405.506 L175.29715,334.841 C179.22115,327.5345 188.32765,324.7925 195.63415,328.7165 L195.78115,328.796 C203.08765,332.72 205.83115,341.8265 201.90565,349.133 L163.95415,419.798 C160.02865,427.1045 150.92365,429.8465 143.61715,425.9225"/><path id="Fill-119" fill="#597EF7" d="M186.1489,378.47255 L202.4524,348.11705 C206.3824,340.80005 203.6119,331.59755 196.2934,327.66605 C188.9764,323.73605 179.7724,326.50805 175.8424,333.82505 L159.6934,363.89255 L186.1489,378.47255 Z"/><path id="Stroke-121" fill="#1D39C4" fill-rule="nonzero" d="M202.416324,348.097603 C202.540973,347.865518 202.830163,347.778425 203.062247,347.903074 C203.268544,348.013873 203.360281,348.25468 203.290575,348.469825 L203.256776,348.548997 L186.953276,378.904497 C186.841626,379.112379 186.59821,379.203684 186.382211,379.131414 L186.302807,379.096553 L159.848807,364.516553 C159.618089,364.389393 159.534138,364.099276 159.661297,363.868557 C159.774328,363.663474 160.016115,363.574356 160.230491,363.646391 L160.309293,363.681047 L186.34,378.028 L202.416324,348.097603 Z"/></g></svg>