<?xml version="1.0" encoding="UTF-8"?>
<svg width="1024px" height="1024px" viewBox="0 0 1024 1024" version="1.1" xmlns="http://www.w3.org/2000/svg" xmlns:xlink="http://www.w3.org/1999/xlink">
    <!-- Generator: Sketch 61.2 (89653) - https://sketch.com -->
    <title>3.通用组件/彩色版/人工智能</title>
    <desc>Created with Sketch.</desc>
    <g id="3.通用组件/彩色版/人工智能" stroke="none" stroke-width="1" fill="none" fill-rule="evenodd">
        <g id="资源-17" transform="translate(92.000000, 32.000000)" fill-rule="nonzero">
            <path d="M811.257692,507.361538 C812.319231,504.861538 813.35,502.342308 814.35,499.803846 C814.742308,498.834615 815.111538,497.842308 815.503846,496.861538 C816.092308,495.338462 816.657692,493.826923 817.246154,492.246154 C817.719231,490.965385 818.180769,489.684615 818.642308,488.403846 C819.103846,487.123077 819.484615,486.038462 819.9,484.85 C820.430769,483.326923 820.95,481.803846 821.457692,480.234615 C821.723077,479.426923 821.976923,478.619231 822.242308,477.811538 C834.04287,441.407786 840.03554,403.372439 840.000157,365.103846 C840.000157,163.85 677.85,0.973076923 476.596154,0.150749891 C326.538462,-0.457692308 197.307692,89.5769231 140.769231,218.634615 L140.769231,218.715385 C120.545087,264.870226 110.132669,314.724098 110.192308,365.115385 C110.192308,382.226923 82.7192308,691.123077 73.2692308,783.534615 C72.6172354,790.021879 74.739868,796.482221 79.1124016,801.318609 C83.4849353,806.154996 89.6992859,811.223745 96.2192308,811.226923 L304.2,811.226923 L284.933317,936.038462 C284.933317,948.783494 295.265207,959.115385 308.01024,959.115385 L664.903125,959.115385 C672.573115,959.115385 679.742535,955.307121 684.033894,948.95 C685.810817,945.673077 687.980048,940.030769 687.980048,936.038462 L688.2,730.065385 L755.446154,598.723077 C768.532637,583.037499 780.28145,566.282703 790.569231,548.634615 C798.337145,535.335435 805.247375,521.553513 811.257692,507.373077 L811.257692,507.361538 Z" id="路径" fill="#CCD7EE"></path>
            <path d="M111.761538,382.457692 L96.3807692,559.515385 L17.4121815,559.515385 C12.110248,559.515385 7.81218155,555.217318 7.81218155,549.915385 C7.81218155,548.101609 8.32601092,546.324941 9.29415582,544.791162 L111.761538,382.457692 L111.761538,382.457692 Z" id="路径" fill="#597EF7"></path>
            <circle id="椭圆形" fill="#597EF7" cx="476.815385" cy="441.2" r="181.430769"></circle>
            <circle id="椭圆形" fill="#FFFFFF" cx="475.95" cy="441.488462" r="141.334615"></circle>
            <path d="M210.230769,276.524923 C212.689541,276.524923 214.682769,278.518151 214.682769,280.976923 C214.682769,283.365444 212.801813,285.314644 210.440345,285.424077 L210.230769,285.428923 L111.761538,285.428923 C109.302767,285.428923 107.309538,283.435695 107.309538,280.976923 C107.309538,278.588402 109.190495,276.639202 111.551962,276.529769 L111.761538,276.524923 L210.230769,276.524923 Z" id="路径" fill="#FFFFFF"></path>
            <path d="M233.273077,254.924923 C218.08839,254.924923 205.778769,267.234544 205.778769,282.419231 C205.778769,297.603918 218.08839,309.913538 233.273077,309.913538 C248.457764,309.913538 260.767385,297.603918 260.767385,282.419231 C260.767385,267.234544 248.457764,254.924923 233.273077,254.924923 Z M233.273077,263.828923 C243.54022,263.828923 251.863385,272.152087 251.863385,282.419231 C251.863385,292.686374 243.54022,301.009538 233.273077,301.009538 C223.005933,301.009538 214.682769,292.686374 214.682769,282.419231 C214.682769,272.152087 223.005933,263.828923 233.273077,263.828923 Z" id="椭圆形" fill="#FFFFFF"></path>
            <path d="M176.757692,643.944154 C179.216464,643.944154 181.209692,645.937382 181.209692,648.396154 C181.209692,650.784675 179.328736,652.733875 176.967268,652.843308 L176.757692,652.848154 L78.2884615,652.848154 C75.8296898,652.848154 73.8364615,650.854926 73.8364615,648.396154 C73.8364615,646.007633 75.7174182,644.058433 78.0788854,643.949 L78.2884615,643.944154 L176.757692,643.944154 Z" id="路径" fill="#FFFFFF"></path>
            <path d="M199.8,622.332615 C184.615313,622.332615 172.305692,634.642236 172.305692,649.826923 C172.305692,665.01161 184.615313,677.321231 199.8,677.321231 C214.984687,677.321231 227.294308,665.01161 227.294308,649.826923 C227.294308,634.642236 214.984687,622.332615 199.8,622.332615 Z M199.8,631.236615 C210.067143,631.236615 218.390308,639.55978 218.390308,649.826923 C218.390308,660.094067 210.067143,668.417231 199.8,668.417231 C189.532857,668.417231 181.209692,660.094067 181.209692,649.826923 C181.209692,639.55978 189.532857,631.236615 199.8,631.236615 Z" id="椭圆形" fill="#FFFFFF"></path>
            <path d="M803.411538,195.074923 C805.87031,195.074923 807.863538,197.068151 807.863538,199.526923 C807.863538,201.915444 805.982582,203.864644 803.621115,203.974077 L803.411538,203.978923 L704.942308,203.978923 C702.483536,203.978923 700.490308,201.985695 700.490308,199.526923 C700.490308,197.138402 702.371264,195.189202 704.732732,195.079769 L704.942308,195.074923 L803.411538,195.074923 Z" id="路径" fill="#FFFFFF"></path>
            <path d="M681.9,173.474923 C666.715313,173.474923 654.405692,185.784544 654.405692,200.969231 C654.405692,216.153918 666.715313,228.463538 681.9,228.463538 C697.084687,228.463538 709.394308,216.153918 709.394308,200.969231 C709.394308,185.784544 697.084687,173.474923 681.9,173.474923 Z M681.9,182.378923 C692.167143,182.378923 700.490308,190.702087 700.490308,200.969231 C700.490308,211.236374 692.167143,219.559538 681.9,219.559538 C671.632857,219.559538 663.309692,211.236374 663.309692,200.969231 C663.309692,190.702087 671.632857,182.378923 681.9,182.378923 Z" id="椭圆形" fill="#FFFFFF"></path>
        </g>
    </g>
</svg>