<svg xmlns="http://www.w3.org/2000/svg" xmlns:xlink="http://www.w3.org/1999/xlink" width="1024" height="1024" version="1.1" viewBox="0 0 1024 1024"><title>3.通用组件/彩色版/凳子</title><desc>Created with Sketch.</desc><g id="3.通用组件/彩色版/凳子" fill="none" fill-rule="evenodd" stroke="none" stroke-width="1"><g id="编组" transform="translate(181.000000, 170.000000)"><path id="Fill-1" fill="#132E55" d="M383.891017,127.534376 C383.891017,156.706072 360.243557,180.353533 331.074604,180.353533 C301.905652,180.353533 278.255447,156.706072 278.255447,127.534376 C278.255447,98.3654235 301.905652,74.7179627 331.074604,74.7179627 C360.243557,74.7179627 383.891017,98.3654235 383.891017,127.534376"/><polygon id="Fill-3" fill="#132E55" points="321.163 602.891 341.608 602.891 341.608 143.309 321.163 143.309"/><polygon id="Fill-5" fill="#132E55" points="321.165 602.89 83.044 642.553 67.676 631.455 321.165 556.791"/><polygon id="Fill-6" fill="#132E55" points="341.609 602.89 579.731 642.553 595.096 631.455 341.609 556.791"/><polygon id="Fill-7" fill="#132E55" points="315.167 656.212 347.607 656.212 347.607 589.622 315.167 589.622"/><path id="Fill-8" fill="#132236" d="M105.35483,657.097264 C105.35483,672.303319 93.0275244,684.627881 77.8242132,684.627881 C62.6181578,684.627881 50.290852,672.303319 50.290852,657.097264 C50.290852,641.891208 62.6181578,629.566647 77.8242132,629.566647 C93.0275244,629.566647 105.35483,641.891208 105.35483,657.097264"/><path id="Fill-9" fill="#132236" d="M358.919167,657.097264 C358.919167,672.303319 346.591861,684.627881 331.385806,684.627881 C316.182495,684.627881 303.855189,672.303319 303.855189,657.097264 C303.855189,641.891208 316.182495,629.566647 331.385806,629.566647 C346.591861,629.566647 358.919167,641.891208 358.919167,657.097264"/><path id="Fill-10" fill="#132236" d="M614.892982,657.097264 C614.892982,672.303319 602.565676,684.627881 587.359621,684.627881 C572.156309,684.627881 559.829004,672.303319 559.829004,657.097264 C559.829004,641.891208 572.156309,629.566647 587.359621,629.566647 C602.565676,629.566647 614.892982,641.891208 614.892982,657.097264"/><path id="Fill-11" fill="#A3B5D6" d="M662.14866,117.838285 L0.000548856,117.838285 C0.000548856,52.7576853 52.7565876,0.001646568 117.837188,0.001646568 L544.312021,0.001646568 C609.389877,0.001646568 662.14866,52.7576853 662.14866,117.838285"/></g></g></svg>