<?xml version="1.0" encoding="UTF-8"?>
<svg width="1024px" height="1024px" viewBox="0 0 1024 1024" version="1.1" xmlns="http://www.w3.org/2000/svg" xmlns:xlink="http://www.w3.org/1999/xlink">
    <!-- Generator: Sketch 61.2 (89653) - https://sketch.com -->
    <title>3.通用组件/彩色版/列表页02</title>
    <desc>Created with Sketch.</desc>
    <g id="3.通用组件/彩色版/列表页02" stroke="none" stroke-width="1" fill="none" fill-rule="evenodd">
        <g id="编组-3" transform="translate(56.000000, 169.000000)">
            <g id="分组-2-copy-4">
                <path d="M911.692857,89.8433233 L0.915047196,89.8433233 L0.915047196,25.4186026 C0.915047196,11.4433939 12.0067506,0.112656649 25.6871374,0.112656649 L886.920767,0.112656649 C900.602186,0.112656649 911.692857,11.4433939 911.692857,25.4186026 L911.692857,89.8433233 Z" id="Fill-1" fill="#253369"></path>
                <path d="M64.7794215,42.2419503 C64.7794215,51.0125694 57.8617164,58.1235402 49.3284441,58.1235402 C40.7961974,58.1235402 33.8795181,51.0125694 33.8795181,42.2419503 C33.8795181,33.4713312 40.7961974,26.3603604 49.3284441,26.3603604 C57.8617164,26.3603604 64.7794215,33.4713312 64.7794215,42.2419503" id="Fill-5" fill="#FF7946"></path>
                <path d="M122.465143,42.2419503 C122.465143,51.0125694 115.548463,58.1235402 107.015191,58.1235402 C98.4829444,58.1235402 91.5662651,51.0125694 91.5662651,42.2419503 C91.5662651,33.4713312 98.4829444,26.3603604 107.015191,26.3603604 C115.548463,26.3603604 122.465143,33.4713312 122.465143,42.2419503" id="Fill-7" fill="#FFC53D"></path>
                <path d="M180.15189,42.2419503 C180.15189,51.0125694 173.23521,58.1235402 164.701938,58.1235402 C156.169691,58.1235402 149.253012,51.0125694 149.253012,42.2419503 C149.253012,33.4713312 156.169691,26.3603604 164.701938,26.3603604 C173.23521,26.3603604 180.15189,33.4713312 180.15189,42.2419503" id="Fill-9" fill="#BAE637"></path>
            </g>
            <path d="M27.6226115,686.054054 C12.3680243,686.054054 0,675.082679 0,661.548424 L0,78.0540541 L912,78.0540541 L912,661.548424 C912,675.082679 899.633127,686.054054 884.377388,686.054054 L27.6226115,686.054054 Z" id="Fill-3-Copy-4" fill="#E4EBF7"></path>
            <g id="分组-10" transform="translate(258.810811, 135.567568)" fill-rule="nonzero">
                <rect id="矩形-copy-42" fill="#FFFFFF" x="0" y="0" width="591.567568" height="131.459459" rx="11.0425946"></rect>
                <rect id="矩形-copy-48" fill="#E4EBF7" x="57.5135135" y="82.1621622" width="328.648649" height="12.3243243" rx="6.16216216"></rect>
                <rect id="矩形-copy-50" fill="#E4EBF7" x="57.5135135" y="41.0810811" width="443.675676" height="12.3243243" rx="6.16216216"></rect>
            </g>
            <g id="分组-10-copy" transform="translate(258.810811, 316.324324)" fill-rule="nonzero">
                <rect id="矩形-copy-42" fill="#597EF7" x="0" y="0" width="591.567568" height="131.459459" rx="11.0425946"></rect>
                <rect id="矩形-copy-48" fill="#FFFFFF" x="57.5135135" y="82.1621622" width="328.648649" height="12.3243243" rx="6.16216216"></rect>
                <rect id="矩形-copy-50" fill="#FFFFFF" x="57.5135135" y="41.0810811" width="443.675676" height="12.3243243" rx="6.16216216"></rect>
            </g>
            <g id="分组-10-copy-2" transform="translate(258.810811, 497.081081)" fill-rule="nonzero">
                <rect id="矩形-copy-42" fill="#FFFFFF" x="0" y="0" width="591.567568" height="131.459459" rx="11.0425946"></rect>
                <rect id="矩形-copy-48" fill="#E4EBF7" x="57.5135135" y="82.1621622" width="328.648649" height="12.3243243" rx="6.16216216"></rect>
                <rect id="矩形-copy-50" fill="#E4EBF7" x="57.5135135" y="41.0810811" width="443.675676" height="12.3243243" rx="6.16216216"></rect>
            </g>
            <rect id="矩形-copy-43" fill="#FFC53D" fill-rule="nonzero" x="69.8378378" y="135.567568" width="147.891892" height="131.459459" rx="11.0425946"></rect>
            <rect id="矩形-copy-46" fill="#597EF7" fill-rule="nonzero" x="69.8378378" y="316.324324" width="147.891892" height="131.459459" rx="11.0425946"></rect>
            <rect id="矩形-copy-47" fill="#FF7946" fill-rule="nonzero" x="69.8378378" y="497.081081" width="147.891892" height="131.459459" rx="11.0425946"></rect>
        </g>
    </g>
</svg>