<?xml version="1.0" encoding="UTF-8"?>
<svg width="1024px" height="1024px" viewBox="0 0 1024 1024" version="1.1" xmlns="http://www.w3.org/2000/svg" xmlns:xlink="http://www.w3.org/1999/xlink">
    <!-- Generator: Sketch 61.2 (89653) - https://sketch.com -->
    <title>3.通用组件/彩色版/加载</title>
    <desc>Created with Sketch.</desc>
    <defs>
        <polygon id="path-1" points="9.64285715e-05 0 864 0 864 863.999904 9.64285715e-05 863.999904"></polygon>
    </defs>
    <g id="3.通用组件/彩色版/加载" stroke="none" stroke-width="1" fill="none" fill-rule="evenodd">
        <g id="分组" transform="translate(80.000000, 80.000000)">
            <g>
                <mask id="mask-2" fill="white">
                    <use xlink:href="#path-1"></use>
                </mask>
                <g id="Clip-2"></g>
                <path d="M9.64285715e-05,431.999904 C9.64285715e-05,670.586368 193.412668,863.999904 432.000096,863.999904 C670.586561,863.999904 864.000096,670.586368 864.000096,431.999904 C864.000096,193.412475 670.586561,-9.64285715e-05 432.000096,-9.64285715e-05 C193.412668,-9.64285715e-05 9.64285715e-05,193.412475 9.64285715e-05,431.999904 Z" id="Fill-1" fill="#7CB305" mask="url(#mask-2)"></path>
            </g>
            <path d="M622.328882,532.358614 C622.328882,532.358614 583.776739,591.850221 522.772168,623.770971 C461.769525,655.692686 386.614061,646.504971 337.324596,615.550436 C288.032239,584.593971 271.440739,558.476293 271.440739,558.476293 L228.982275,582.65865 C228.982275,582.65865 220.197632,587.013364 220.197632,576.854614 L220.197632,424.982507 C220.197632,424.982507 220.197632,411.441043 230.445096,416.276936 C239.067739,420.346221 332.312239,473.366507 361.694989,490.094936 C377.830382,497.292364 363.654418,503.1369 363.654418,503.1369 L322.683846,526.554579 C322.683846,526.554579 346.054275,555.821614 380.258454,571.322507 C416.870454,590.397043 451.146954,592.660221 493.135811,576.808329 C519.709596,566.777829 550.857954,541.555007 573.893775,504.335507 C575.042239,502.480221 577.516596,501.972043 579.321739,503.196686 L622.328882,532.358614 Z M241.672275,331.641579 C241.672275,331.641579 280.224418,272.149971 341.227061,240.227293 C402.229704,208.306543 477.386132,217.496186 526.675596,248.449757 C575.965061,279.405257 592.559454,305.522936 592.559454,305.522936 L635.015989,281.339614 C635.015989,281.339614 643.802561,276.987793 643.802561,287.144614 L643.802561,439.016721 C643.802561,439.016721 643.802561,452.560114 633.552204,447.722293 C624.929561,443.654936 531.686989,390.632721 502.305204,373.905257 C486.169811,366.708793 500.345775,360.861364 500.345775,360.861364 L541.316346,337.44465 C541.316346,337.44465 517.946882,308.177614 483.741739,292.676721 C447.128775,273.601221 412.851311,271.339007 370.863418,287.1909 C343.484454,297.52515 311.249346,323.989007 288.031275,363.079221 L241.672275,331.641579 Z" id="Fill-3" fill="#FFFFFF"></path>
        </g>
    </g>
</svg>