<?xml version="1.0" encoding="UTF-8"?>
<svg width="1024px" height="1024px" viewBox="0 0 1024 1024" version="1.1" xmlns="http://www.w3.org/2000/svg" xmlns:xlink="http://www.w3.org/1999/xlink">
    <!-- Generator: Sketch 61.2 (89653) - https://sketch.com -->
    <title>3.通用组件/彩色版/哭泣表情</title>
    <desc>Created with Sketch.</desc>
    <g id="3.通用组件/彩色版/哭泣表情" stroke="none" stroke-width="1" fill="none" fill-rule="evenodd">
        <g id="分组" transform="translate(80.000000, 80.000000)">
            <path d="M864,432 C864,670.586686 670.587726,864 432,864 C193.412274,864 0,670.586686 0,432 C0,193.413314 193.412274,0 432,0 C670.587726,0 864,193.413314 864,432" id="Fill-1" fill="#CCD7EE"></path>
            <path d="M414.31576,368.84212 C414.31576,419.071607 373.597551,459.789817 323.368064,459.789817 C273.139616,459.789817 232.421406,419.071607 232.421406,368.84212 C232.421406,318.612632 273.139616,277.894423 323.368064,277.894423 C373.597551,277.894423 414.31576,318.612632 414.31576,368.84212" id="Fill-7" fill="#FFFFFF"></path>
            <path d="M363.789227,366.315934 C363.789227,387.24428 346.82426,404.210287 325.894874,404.210287 C304.966527,404.210287 287.99948,387.24428 287.99948,366.315934 C287.99948,345.387587 304.966527,328.42054 325.894874,328.42054 C346.82426,328.42054 363.789227,345.387587 363.789227,366.315934" id="Fill-9" fill="#253369"></path>
            <path d="M366.311359,562.132436 C364.297438,562.132436 362.250247,561.729028 360.285193,560.876465 C352.604846,557.543151 349.081265,548.616191 352.413539,540.936884 C366.911272,507.522645 393.305381,489.120797 426.731056,489.120797 C458.657467,489.120797 484.268673,505.269591 500.794882,535.822544 C504.778016,543.185779 502.037337,552.384104 494.674103,556.366198 C487.308788,560.349331 478.113583,557.608653 474.129409,550.245418 C462.916124,529.513577 447.411951,519.436696 426.731056,519.436696 C405.237106,519.436696 390.025092,530.417086 380.223734,553.004812 C377.744023,558.719064 372.167012,562.132436 366.311359,562.132436" id="Fill-11" fill="#253369"></path>
            <path d="M432,864 C581.840058,864 713.856347,787.709112 791.340823,671.856173 C791.344982,671.842657 791.354339,671.829141 791.354339,671.814585 C714.345011,681.981921 601.263942,727.454729 601.263942,660.874744 C601.263942,593.611668 598.538859,439.579495 598.538859,439.579495 L540.631105,439.579495 L540.631105,654.19148 C540.631105,654.19148 533.653603,742.612679 414.315552,689.560375 C294.977502,636.507032 189.861661,763.88413 98.4190614,706.511827 C177.652332,802.683032 297.665155,864 432,864" id="Fill-13" fill="#597EF7"></path>
            <path d="M631.578905,368.84212 C631.578905,419.071607 590.860696,459.789817 540.631209,459.789817 C490.402761,459.789817 449.684552,419.071607 449.684552,368.84212 C449.684552,318.612632 490.402761,277.894423 540.631209,277.894423 C590.860696,277.894423 631.578905,318.612632 631.578905,368.84212" id="Fill-15" fill="#FFFFFF"></path>
            <path d="M576,366.315934 C576,387.24428 559.033993,404.210287 538.105646,404.210287 C517.17626,404.210287 500.210253,387.24428 500.210253,366.315934 C500.210253,345.387587 517.17626,328.42054 538.105646,328.42054 C559.033993,328.42054 576,345.387587 576,366.315934" id="Fill-17" fill="#253369"></path>
        </g>
    </g>
</svg>