<svg xmlns="http://www.w3.org/2000/svg" xmlns:xlink="http://www.w3.org/1999/xlink" width="1024" height="1024" version="1.1" viewBox="0 0 1024 1024"><title>3.通用组件/彩色版/图形详情页</title><desc>Created with Sketch.</desc><defs><polygon id="path-1" points="0 .722 818.27 .722 818.27 102.842 0 102.842"/><polygon id="path-3" points="0 .654 818.27 .654 818.27 715.2 0 715.2"/></defs><g id="3.通用组件/彩色版/图形详情页" fill="none" fill-rule="evenodd" stroke="none" stroke-width="1"><g id="编组-3" transform="translate(103.000000, 107.000000)"><g id="编组-2"><g id="分组-copy备份"><g id="分组" transform="translate(0.000000, 0.477600)"><mask id="mask-2" fill="#fff"><use xlink:href="#path-1"/></mask><path id="Fill-1" fill="#253369" d="M818.26968,102.84204 L-0.00072,102.84204 L-0.00072,29.52204 C-0.00072,13.61724 12.89448,0.72204 28.79928,0.72204 L789.46968,0.72204 C805.37568,0.72204 818.26968,13.61724 818.26968,29.52204 L818.26968,102.84204 Z" mask="url(#mask-2)"/></g><g id="分组" transform="translate(0.000000, 94.077600)"><mask id="mask-4" fill="#fff"><use xlink:href="#path-3"/></mask><path id="Fill-3" fill="#E4EBF7" d="M789.46968,715.2 L28.79928,715.2 C12.89448,715.2 -0.00072,702.306 -0.00072,686.4 L-0.00072,0.654 L818.26968,0.654 L818.26968,686.4 C818.26968,702.306 805.37568,715.2 789.46968,715.2" mask="url(#mask-4)"/></g><path id="Fill-5" fill="#FF7946" d="M66.49776,48.72372 C66.49776,58.70532 58.40496,66.79812 48.42216,66.79812 C38.44056,66.79812 30.34896,58.70532 30.34896,48.72372 C30.34896,38.74212 38.44056,30.64932 48.42216,30.64932 C58.40496,30.64932 66.49776,38.74212 66.49776,48.72372"/><path id="Fill-7" fill="#FFC53D" d="M133.99656,48.72372 C133.99656,58.70532 125.90496,66.79812 115.92216,66.79812 C105.94056,66.79812 97.84896,58.70532 97.84896,48.72372 C97.84896,38.74212 105.94056,30.64932 115.92216,30.64932 C125.90496,30.64932 133.99656,38.74212 133.99656,48.72372"/><path id="Fill-9" fill="#BAE637" d="M201.49656,48.72372 C201.49656,58.70532 193.40496,66.79812 183.42216,66.79812 C173.44056,66.79812 165.34896,58.70532 165.34896,48.72372 C165.34896,38.74212 173.44056,30.64932 183.42216,30.64932 C193.40496,30.64932 201.49656,38.74212 201.49656,48.72372"/><g id="分组-2" fill="#FFF" transform="translate(79.200000, 172.800000)"><path id="Fill-11" d="M9.23988831,539.28372 C4.27580007,539.28372 0.25308,535.263057 0.25308,530.304015 L0.25308,9.73702536 C0.25308,4.77798307 4.27580007,0.75732 9.23988831,0.75732 L659.570272,0.75732 C664.533237,0.75732 668.55708,4.77798307 668.55708,9.73702536 L668.55708,530.304015 C668.55708,535.263057 664.533237,539.28372 659.570272,539.28372 L9.23988831,539.28372 Z"/></g></g><g id="编组" transform="translate(155.000000, 240.400000)"><path id="Fill-19" fill="#FF7946" d="M171.067265,86.3206983 C171.067265,133.66297 132.772902,172.041397 85.5343281,172.041397 C38.2957541,172.041397 -2.27373675e-13,133.66297 -2.27373675e-13,86.3206983 C-2.27373675e-13,38.9784262 38.2957541,0.6 85.5343281,0.6 C132.772902,0.6 171.067265,38.9784262 171.067265,86.3206983"/><rect id="矩形" width="266.4" height="266.4" x="254.2" y="86.743" fill="#597EF7"/><polygon id="三角形" fill="#FFC53D" points="171.142 201.2 322.083 433.15 20.2 433.15"/></g></g></g></g></svg>