<svg xmlns="http://www.w3.org/2000/svg" xmlns:xlink="http://www.w3.org/1999/xlink" width="1024" height="1024" version="1.1" viewBox="0 0 1024 1024"><title>3.通用组件/彩色版/图片详情页</title><desc>Created with Sketch.</desc><g id="3.通用组件/彩色版/图片详情页" fill="none" fill-rule="evenodd" stroke="none" stroke-width="1"><g id="编组" transform="translate(56.000000, 163.000000)"><g id="分组-2-copy-2"><path id="Fill-1" fill="#253369" d="M911.692857,85.7595359 L0.915047196,85.7595359 L0.915047196,24.2632116 C0.915047196,10.9232397 12.0067506,0.107535892 25.6871374,0.107535892 L886.920767,0.107535892 C900.602186,0.107535892 911.692857,10.9232397 911.692857,24.2632116 L911.692857,85.7595359 Z"/><path id="Fill-5" fill="#FF7946" d="M64.7794215,40.3218616 C64.7794215,48.6938162 57.8617164,55.4815611 49.3284441,55.4815611 C40.7961974,55.4815611 33.8795181,48.6938162 33.8795181,40.3218616 C33.8795181,31.949907 40.7961974,25.1621622 49.3284441,25.1621622 C57.8617164,25.1621622 64.7794215,31.949907 64.7794215,40.3218616"/><path id="Fill-7" fill="#FFC53D" d="M122.465143,40.3218616 C122.465143,48.6938162 115.548463,55.4815611 107.015191,55.4815611 C98.4829444,55.4815611 91.5662651,48.6938162 91.5662651,40.3218616 C91.5662651,31.949907 98.4829444,25.1621622 107.015191,25.1621622 C115.548463,25.1621622 122.465143,31.949907 122.465143,40.3218616"/><path id="Fill-9" fill="#BAE637" d="M180.15189,40.3218616 C180.15189,48.6938162 173.23521,55.4815611 164.701938,55.4815611 C156.169691,55.4815611 149.253012,48.6938162 149.253012,40.3218616 C149.253012,31.949907 156.169691,25.1621622 164.701938,25.1621622 C173.23521,25.1621622 180.15189,31.949907 180.15189,40.3218616"/></g><path id="Fill-3-Copy-2" fill="#E4EBF7" d="M27.6226115,698 C12.3680243,698 0,686.884265 0,673.171927 L0,82 L912,82 L912,673.171927 C912,686.884265 899.633127,698 884.377388,698 L27.6226115,698 Z"/><rect id="矩形-copy-13" width="756" height="526" x="82" y="127" fill="#FFF" fill-rule="nonzero" rx="11.043"/><g id="分组-9" transform="translate(131.000000, 242.000000)"><rect id="矩形" width="657.297" height="353.297" x="0" y="0" fill="#E4EBF7" fill-rule="nonzero" rx="12.324"/><path id="Fill-17" fill="#597EF7" d="M234.162162,353.297297 L640.864865,353.297297 L476.79255,134.834593 C461.555492,114.5463 432.66096,113.805504 416.512132,133.289587 L234.162162,353.297297 Z"/><path id="Fill-15" fill="#597EF7" d="M12.3243243,353.297297 L357.405405,353.297297 L210.285979,204.495551 C195.066182,189.10094 169.07015,189.306913 154.128901,204.939757 L12.3243243,353.297297 Z"/><path id="Fill-19" fill="#FF7946" d="M279.351986,193.081081 C236.244239,193.081081 201.297297,158.135125 201.297297,115.027027 C201.297297,71.918929 236.244239,36.972973 279.351986,36.972973 C322.459734,36.972973 357.405405,71.918929 357.405405,115.027027 C357.405405,158.135125 322.459734,193.081081 279.351986,193.081081 Z"/></g><path id="Fill-9" fill="#CCD7EE" d="M410,624 C410,628.418006 406.418418,632 401.999734,632 C397.581582,632 394,628.418006 394,624 C394,619.581994 397.581582,616 401.999734,616 C406.418418,616 410,619.581994 410,624"/><path id="Fill-9-Copy" fill="#CCD7EE" d="M460,624 C460,628.418006 456.418418,632 451.999734,632 C447.581582,632 444,628.418006 444,624 C444,619.581994 447.581582,616 451.999734,616 C456.418418,616 460,619.581994 460,624"/><path id="Fill-9-Copy-2" fill="#6A8DFF" d="M509,624 C509,628.418006 505.418418,632 500.999734,632 C496.581582,632 493,628.418006 493,624 C493,619.581994 496.581582,616 500.999734,616 C505.418418,616 509,619.581994 509,624"/><path id="Fill-9-Copy-3" fill="#CCD7EE" d="M558,624 C558,628.418006 554.418418,632 549.999734,632 C545.581582,632 542,628.418006 542,624 C542,619.581994 545.581582,616 549.999734,616 C554.418418,616 558,619.581994 558,624"/><rect id="矩形" width="107" height="49" x="131" y="164" fill="#FFC53D" fill-rule="nonzero" rx="8.216"/><rect id="矩形-copy-29" width="107" height="49" x="267" y="164" fill="#FF7946" fill-rule="nonzero" rx="8.216"/><rect id="矩形-copy-31" width="107" height="49" x="398" y="164" fill="#597EF7" fill-rule="nonzero" rx="8.216"/><rect id="矩形-copy-35" width="107" height="49" x="534" y="164" fill="#7CB305" fill-rule="nonzero" rx="8.216"/><rect id="矩形-copy-36" width="107" height="49" x="682" y="164" fill="#253369" fill-rule="nonzero" rx="8.216"/></g></g></svg>