<?xml version="1.0" encoding="UTF-8"?>
<svg width="1024px" height="1024px" viewBox="0 0 1024 1024" version="1.1" xmlns="http://www.w3.org/2000/svg" xmlns:xlink="http://www.w3.org/1999/xlink">
    <!-- Generator: Sketch 61.2 (89653) - https://sketch.com -->
    <title>3.通用组件/彩色版/图片页</title>
    <desc>Created with Sketch.</desc>
    <defs>
        <polygon id="path-1" points="0 0.7224 818.26968 0.7224 818.26968 102.84204 0 102.84204"></polygon>
        <polygon id="path-3" points="0 0.654 818.26968 0.654 818.26968 715.2 0 715.2"></polygon>
    </defs>
    <g id="3.通用组件/彩色版/图片页" stroke="none" stroke-width="1" fill="none" fill-rule="evenodd">
        <g id="分组" transform="translate(103.000000, 107.000000)">
            <g transform="translate(0.000000, 0.477600)">
                <mask id="mask-2" fill="white">
                    <use xlink:href="#path-1"></use>
                </mask>
                <g id="Clip-2"></g>
                <path d="M818.26968,102.84204 L-0.00072,102.84204 L-0.00072,29.52204 C-0.00072,13.61724 12.89448,0.72204 28.79928,0.72204 L789.46968,0.72204 C805.37568,0.72204 818.26968,13.61724 818.26968,29.52204 L818.26968,102.84204 Z" id="Fill-1" fill="#253369" mask="url(#mask-2)"></path>
            </g>
            <g transform="translate(0.000000, 94.077600)">
                <mask id="mask-4" fill="white">
                    <use xlink:href="#path-3"></use>
                </mask>
                <g id="Clip-4"></g>
                <path d="M789.46968,715.2 L28.79928,715.2 C12.89448,715.2 -0.00072,702.306 -0.00072,686.4 L-0.00072,0.654 L818.26968,0.654 L818.26968,686.4 C818.26968,702.306 805.37568,715.2 789.46968,715.2" id="Fill-3" fill="#E4EBF7" mask="url(#mask-4)"></path>
            </g>
            <path d="M66.49776,48.72372 C66.49776,58.70532 58.40496,66.79812 48.42216,66.79812 C38.44056,66.79812 30.34896,58.70532 30.34896,48.72372 C30.34896,38.74212 38.44056,30.64932 48.42216,30.64932 C58.40496,30.64932 66.49776,38.74212 66.49776,48.72372" id="Fill-5" fill="#FF7946"></path>
            <path d="M133.99656,48.72372 C133.99656,58.70532 125.90496,66.79812 115.92216,66.79812 C105.94056,66.79812 97.84896,58.70532 97.84896,48.72372 C97.84896,38.74212 105.94056,30.64932 115.92216,30.64932 C125.90496,30.64932 133.99656,38.74212 133.99656,48.72372" id="Fill-7" fill="#FFC53D"></path>
            <path d="M201.49656,48.72372 C201.49656,58.70532 193.40496,66.79812 183.42216,66.79812 C173.44056,66.79812 165.34896,58.70532 165.34896,48.72372 C165.34896,38.74212 173.44056,30.64932 183.42216,30.64932 C193.40496,30.64932 201.49656,38.74212 201.49656,48.72372" id="Fill-9" fill="#BAE637"></path>
            <path d="M685.6392,634.9506 L128.5932,634.9506 C123.2916,634.9506 118.9932,630.6522 118.9932,625.3506 L118.9932,183.5538 C118.9932,178.251 123.2916,173.9538 128.5932,173.9538 L685.6392,173.9538 C690.942,173.9538 695.2392,178.251 695.2392,183.5538 L695.2392,625.3506 C695.2392,630.6522 690.942,634.9506 685.6392,634.9506" id="Fill-11" fill="#FFFFFF"></path>
            <path d="M645.30204,594.61356 L168.92964,594.61356 C163.62804,594.61356 159.32964,590.31516 159.32964,585.01356 L159.32964,223.89036 C159.32964,218.58876 163.62804,214.29036 168.92964,214.29036 L645.30204,214.29036 C650.60484,214.29036 654.90204,218.58876 654.90204,223.89036 L654.90204,585.01356 C654.90204,590.31516 650.60484,594.61356 645.30204,594.61356" id="Fill-13" fill="#CED7EC"></path>
            <path d="M300,594.567653 L658.0956,594.567653 L513.6324,412.671653 C500.2164,395.779253 474.7752,395.162453 460.5564,411.385253 L300,594.567653 Z" id="Fill-17" fill="#4D6FDE"></path>
            <path d="M165.6,594.147935 L479.2788,594.147935 L345.5472,450.239135 C331.7124,435.350735 308.082,435.549935 294.5004,450.668735 L165.6,594.147935 Z" id="Fill-15" fill="#597EF7"></path>
            <path d="M405.5076,322.53516 C405.5076,363.26796 372.4872,396.28836 331.7544,396.28836 C291.0216,396.28836 258,363.26796 258,322.53516 C258,281.80236 291.0216,248.78196 331.7544,248.78196 C372.4872,248.78196 405.5076,281.80236 405.5076,322.53516" id="Fill-19" fill="#FF7946"></path>
            <path d="M691.4016,686.93856 C693.058454,686.93856 694.4016,688.281706 694.4016,689.93856 C694.4016,691.536241 693.15268,692.842221 691.577873,692.933467 L691.4016,692.93856 L120.2892,692.93856 C118.632346,692.93856 117.2892,691.595414 117.2892,689.93856 C117.2892,688.340879 118.53812,687.034899 120.112927,686.943653 L120.2892,686.93856 L691.4016,686.93856 Z" id="Stroke-21" fill="#597EF7" fill-rule="nonzero"></path>
            <path d="M412.3356,729.8502 C413.992454,729.8502 415.3356,731.193346 415.3356,732.8502 C415.3356,734.447881 414.08668,735.753861 412.511873,735.845107 L412.3356,735.8502 L120.2892,735.8502 C118.632346,735.8502 117.2892,734.507054 117.2892,732.8502 C117.2892,731.252519 118.53812,729.946539 120.112927,729.855293 L120.2892,729.8502 L412.3356,729.8502 Z" id="Stroke-23" fill="#597EF7" fill-rule="nonzero"></path>
        </g>
    </g>
</svg>