<svg xmlns="http://www.w3.org/2000/svg" xmlns:xlink="http://www.w3.org/1999/xlink" width="1024" height="1024" version="1.1" viewBox="0 0 1024 1024"><title>3.通用组件/彩色版/地图</title><desc>Created with Sketch.</desc><g id="3.通用组件/彩色版/地图" fill="none" fill-rule="evenodd" stroke="none" stroke-width="1"><g id="资源-23" fill-rule="nonzero" transform="translate(100.000000, 100.000000)"><rect id="矩形" width="825" height="571" x="0" y="254" fill="#E4EBF7" rx="28.8"/><polygon id="路径" fill="#FFC53D" points="0 412 159 538.949 0 729"/><path id="路径" fill="#FF7946" d="M0,286.745719 L305.77528,537 L558,253 L23.7826319,253 C10.647847,253 0,263.664804 0,276.820507 L0,286.745719 Z"/><path id="路径" fill="#7CB305" d="M566.453761,715.654392 C538.997884,756.332824 523.41214,797.011255 515,825 L800.220099,825 C813.353376,825 824,814.33911 824,801.188235 L824,572 C766.531905,575.968627 715.315943,590.781529 671.352851,616.260118 C630.114539,640.131412 594.821202,673.586941 566.453761,715.654392 Z"/><path id="路径" fill="#FFF" d="M640.47918,560.793757 C590.829478,589.512927 548.526107,629.412768 514.719101,679.413833 C476.599471,735.802438 458.208857,791.99298 450,824 L515.819564,824 C524.236616,796.073083 539.831461,755.499828 567.303371,714.85725 C595.687376,672.867843 631.001322,639.47438 672.263714,615.60776 C716.252479,590.196246 767.498348,575.391018 825,571.459463 L825,508 C756.037673,512.0702 694.134171,529.786957 640.47918,560.793757 Z"/><path id="路径" fill="#597EF7" d="M190,698 C120.190739,697.998435 63.4676426,754.274893 63,824 L317,824 C316.532357,754.274893 259.809261,697.998435 190,698 L190,698 Z"/><path id="路径" fill="#597EF7" d="M681,269.270841 C681,120.696176 560.795961,0.228355865 412.42538,0 C265.847408,-0.227698758 145.316738,118.267189 143.038837,265.017636 C141.797174,338.092091 170.374425,408.514031 222.171134,460.020644 L221.854209,460.020644 L395.757087,647.399608 C400.271965,652.265166 406.612633,655.020595 413.246494,655 C419.880355,654.979173 426.203731,652.184206 430.688203,647.290552 L602.164622,460.020644 L601.847697,460.020644 C652.590691,409.550331 681.086803,340.877139 681,269.270841 Z"/><circle id="椭圆形" cx="412.5" cy="272.5" r="162.5" fill="#FFF"/></g></g></svg>