<svg xmlns="http://www.w3.org/2000/svg" xmlns:xlink="http://www.w3.org/1999/xlink" width="1024" height="1024" version="1.1" viewBox="0 0 1024 1024"><title>3.通用组件/彩色版/对话弹窗</title><desc>Created with Sketch.</desc><g id="3.通用组件/彩色版/对话弹窗" fill="none" fill-rule="evenodd" stroke="none" stroke-width="1"><g id="编组-4" transform="translate(47.000000, 135.000000)"><g id="编组-2"><g id="编组备份" fill="#253369" transform="translate(649.500000, 570.400000) scale(-1, 1) translate(-649.500000, -570.400000) translate(369.000000, 386.400000)"><path id="形状结合" d="M399.12,7.95807864e-13 C488.192484,7.79445514e-13 560.4,72.2075155 560.4,161.28 L560.4,161.691429 C560.4,250.763913 488.192484,322.971429 399.12,322.971429 L161.28,322.971429 C152.395359,322.971429 143.678512,322.253014 135.184383,320.871107 L89.1052779,365.379164 C87.8523906,366.589329 86.1785451,367.265714 84.4366417,367.265714 C80.7252882,367.265714 77.7166417,364.257068 77.7166417,360.545714 L77.7166417,360.545714 L77.7137768,299.660838 C31.1253838,271.382341 6.40051922e-14,220.171746 5.68434189e-14,161.691429 L5.68434189e-14,161.28 C4.59351856e-14,72.2075155 72.2075155,8.12170214e-13 161.28,7.95807864e-13 L399.12,7.95807864e-13 Z"/></g><g id="编组" fill="#597EF7"><rect id="矩形" width="800.4" height="460.8" x="0" y="0" rx="230.4"/><path id="路径-2" d="M111,393.78053 L111,514.397012 C111,519.698946 115.298066,523.997012 120.6,523.997012 C123.086674,523.997012 125.476332,523.032111 127.26582,521.305474 L215.900544,435.78381 L215.900544,435.78381 L111,393.78053 Z"/></g></g><g id="编组-3" fill="#FFF" transform="translate(208.800000, 184.800000)"><circle id="椭圆形" cx="37.2" cy="37.2" r="37.2"/><circle id="椭圆形备份" cx="189.6" cy="37.2" r="37.2"/><circle id="椭圆形备份-2" cx="345.6" cy="37.2" r="37.2"/></g></g></g></svg>