<?xml version="1.0" encoding="UTF-8"?>
<svg width="1024px" height="1024px" viewBox="0 0 1024 1024" version="1.1" xmlns="http://www.w3.org/2000/svg" xmlns:xlink="http://www.w3.org/1999/xlink">
    <!-- Generator: Sketch 61.2 (89653) - https://sketch.com -->
    <title>3.通用组件/彩色版/扩大镜</title>
    <desc>Created with Sketch.</desc>
    <defs>
        <polygon id="path-1" points="0.05204 0.1488 652.8512 0.1488 652.8512 652.94856 0.05204 652.94856"></polygon>
    </defs>
    <g id="3.通用组件/彩色版/扩大镜" stroke="none" stroke-width="1" fill="none" fill-rule="evenodd">
        <g id="分组" transform="translate(69.000000, 68.000000)">
            <polygon id="Fill-1" fill="#A3B5D6" points="145.959 768.04508 118.8066 740.89268 336.0618 523.63628 363.2142 550.78988"></polygon>
            <g transform="translate(0.000000, 0.051200)">
                <g transform="translate(233.800000, 0.000000)">
                    <mask id="mask-2" fill="white">
                        <use xlink:href="#path-1"></use>
                    </mask>
                    <g id="Clip-3"></g>
                    <path d="M326.45204,571.34856 C191.25164,571.34856 81.65204,461.74776 81.65204,326.54856 C81.65204,191.34936 191.25164,81.74856 326.45204,81.74856 C461.65004,81.74856 571.25204,191.34936 571.25204,326.54856 C571.25204,461.74776 461.65004,571.34856 326.45204,571.34856 M326.45204,0.14856 C146.18564,0.14856 0.05204,146.28216 0.05204,326.54856 C0.05204,506.81376 146.18564,652.94856 326.45204,652.94856 C506.71724,652.94856 652.85204,506.81376 652.85204,326.54856 C652.85204,146.28216 506.71724,0.14856 326.45204,0.14856" id="Fill-2" fill="#597EF7" mask="url(#mask-2)"></path>
                </g>
                <path d="M387.19764,326.54808 C387.19764,230.97408 464.67684,153.49488 560.25204,153.49488 C655.82604,153.49488 733.30524,230.97408 733.30524,326.54808 C733.30524,422.12328 655.82604,499.60248 560.25204,499.60248 C464.67684,499.60248 387.19764,422.12328 387.19764,326.54808 Z" id="Fill-4" fill="#597EF7"></path>
                <path d="M560.25204,422.54856 C507.23124,422.54856 464.25204,379.56816 464.25204,326.54856 C464.25204,273.52896 507.23124,230.54856 560.25204,230.54856 C613.27164,230.54856 656.25204,273.52896 656.25204,326.54856 C656.25204,379.56816 613.27164,422.54856 560.25204,422.54856" id="Fill-6" fill="#FFFFFF"></path>
                <path d="M40.7292198,873.2234 L13.5770202,846.0706 C6.0792972,838.572337 6.07934762,826.415714 13.5771328,818.917512 L204.338307,628.155288 C211.836316,620.657163 223.993083,620.65713 231.49117,628.155175 C231.491183,628.155188 231.491195,628.1552 231.49117,628.15525 L258.64427,655.30835 C266.142336,662.806416 266.142336,674.963184 258.64427,682.46125 L67.8819702,873.22355 C60.3840538,880.721766 48.2272862,880.721766 40.7292198,873.2237 C40.7291698,873.22365 40.7291198,873.2236 40.7292198,873.2234 Z" id="Fill-8" fill="#597EF7"></path>
            </g>
        </g>
    </g>
</svg>