<svg xmlns="http://www.w3.org/2000/svg" xmlns:xlink="http://www.w3.org/1999/xlink" width="1024" height="1024" version="1.1" viewBox="0 0 1024 1024"><title>3.通用组件/彩色版/折线图表02</title><desc>Created with Sketch.</desc><g id="3.通用组件/彩色版/折线图表02" fill="none" fill-rule="evenodd" stroke="none" stroke-width="1"><g id="资源-30" transform="translate(91.000000, 182.000000)"><g id="资源-29"><rect id="矩形" width="842.4" height="631.988" x="0" y="29.146" fill="#E4EBF7" fill-rule="nonzero" rx="25.253"/><path id="路径" fill="#253369" fill-rule="nonzero" d="M22.5642857,0 L819.412634,0 C831.874545,0 841.97692,10.1023748 841.97692,22.5642857 L841.97692,89.8058571 L0,89.8058571 L0,22.5642857 C0,10.1023748 10.1023748,0 22.5642857,0 Z"/><circle id="椭圆形" cx="48.231" cy="44.903" r="16.105" fill="#FF7946" fill-rule="nonzero"/><circle id="椭圆形" cx="108.384" cy="44.903" r="16.105" fill="#FFC53D" fill-rule="nonzero"/><circle id="椭圆形" cx="168.546" cy="44.903" r="16.105" fill="#BAE637" fill-rule="nonzero"/><rect id="矩形" width="614.115" height="451.295" x="197.202" y="149.451" fill="#FFF" fill-rule="nonzero" rx="15.043"/><polygon id="路径" fill="#FFF" fill-rule="nonzero" points="279.694 362.909 269.333 355.115 279.694 347.34 290.054 355.115"/><rect id="矩形" width="120.531" height="30.434" x="40.503" y="322.538" fill="#9BB7FD" fill-rule="nonzero" rx="6.816"/><rect id="矩形" width="120.531" height="29.512" x="40.503" y="381.13" fill="#597EF7" fill-rule="nonzero" rx="6.713"/><rect id="矩形" width="120.531" height="29.512" x="40.503" y="438.527" fill="#597EF7" fill-rule="nonzero" rx="6.713"/><circle id="椭圆形" cx="100.768" cy="212.668" r="60.171" fill="#FFF" fill-rule="nonzero"/><path id="路径" fill="#253369" fill-rule="nonzero" d="M100.768339,272.839837 C118.110939,272.849472 134.569737,265.187974 145.727679,251.911446 C136.935913,235.22105 119.623308,224.772943 100.758937,224.772943 C81.8945669,224.772943 64.5819617,235.22105 55.7901964,251.911446 C66.9539807,265.190906 83.4197381,272.852439 100.768339,272.839837 L100.768339,272.839837 Z"/><circle id="椭圆形" cx="101.088" cy="204.536" r="22.63" fill="#253369" fill-rule="nonzero"/><text id="2017" fill="#253369" font-family="PingFangSC-Regular, PingFang SC" font-size="26.325" font-weight="normal"><tspan x="538.036" y="575.118">2017</tspan></text><text id="2015" fill="#253369" font-family="PingFangSC-Regular, PingFang SC" font-size="26.325" font-weight="normal"><tspan x="344.698" y="575.118">2015</tspan></text><text id="2016" fill="#253369" font-family="PingFangSC-Regular, PingFang SC" font-size="26.325" font-weight="normal"><tspan x="441.057" y="575.118">2016</tspan></text><text id="80" fill="#253369" font-family="PingFangSC-Regular, PingFang SC" font-size="26.325" font-weight="normal"><tspan x="235.562" y="207.489">80</tspan></text><text id="60" fill="#253369" font-family="PingFangSC-Regular, PingFang SC" font-size="26.325" font-weight="normal"><tspan x="235.562" y="282.939">60</tspan></text><text id="20" fill="#253369" font-family="PingFangSC-Regular, PingFang SC" font-size="26.325" font-weight="normal"><tspan x="235.562" y="433.847">20</tspan></text><text id="0" fill="#253369" font-family="PingFangSC-Regular, PingFang SC" font-size="26.325" font-weight="normal"><tspan x="235.562" y="509.306">0</tspan></text><text id="40" fill="#253369" font-family="PingFangSC-Regular, PingFang SC" font-size="26.325" font-weight="normal"><tspan x="235.562" y="358.398">40</tspan></text><text id="2018" fill="#253369" font-family="PingFangSC-Regular, PingFang SC" font-size="26.325" font-weight="normal"><tspan x="633.774" y="575.118">2018</tspan></text><text id="2019" fill="#253369" font-family="PingFangSC-Regular, PingFang SC" font-size="26.325" font-weight="normal"><tspan x="730.133" y="575.118">2019</tspan></text><path id="路径" fill="#A3B5D6" fill-rule="nonzero" d="M300.635598,148.584134 C302.069414,148.584134 303.242194,149.701766 303.330286,151.113382 L303.335598,151.284134 L303.335598,599.533071 C303.335598,601.02424 302.126767,602.233071 300.635598,602.233071 C299.201782,602.233071 298.029003,601.115439 297.94091,599.703824 L297.935598,599.533071 L297.935598,151.284134 C297.935598,149.792965 299.144429,148.584134 300.635598,148.584134 Z"/><path id="路径" fill="#FF7946" fill-rule="nonzero" d="M464.992929,308.361903 C466.6498,306.953532 469.136737,307.246017 470.428784,308.959545 L470.550022,309.129797 L576.422,466.685 L659.480118,408.742112 C659.992812,408.384434 660.585527,408.160914 661.204181,408.090102 L661.437287,408.070742 L767.959519,402.551894 C770.033722,402.444431 771.802312,404.038789 771.909775,406.112992 C772.013772,408.120286 770.523972,409.841365 768.547868,410.047709 L768.348677,410.063249 L662.899,415.526 L577.588043,475.044548 C575.92102,476.207537 573.645292,475.830836 572.436071,474.227935 L572.314853,474.057757 L466.656,316.819 L342.799098,422.100437 C341.271145,423.399225 339.00595,423.264642 337.640786,421.829423 L337.498037,421.670678 C336.199249,420.142726 336.333831,417.87753 337.769051,416.512366 L337.927795,416.369617 L464.992929,308.361903 Z"/><path id="路径" fill="#FFC53D" fill-rule="nonzero" d="M753.285479,213.825794 C754.448048,212.104661 756.785751,211.651856 758.506884,212.814425 C760.170646,213.938242 760.649227,216.160156 759.629139,217.861728 L759.518254,218.035831 L664.748254,358.338679 C663.422406,360.301538 660.65096,360.553102 658.991558,358.911938 L658.843838,358.757522 L548.833,237.232 L471.646406,288.938743 C471.08063,289.317746 470.423959,289.535119 469.747022,289.570014 L469.492359,289.574505 L339.146002,287.459103 C337.06929,287.4254 335.413105,285.714571 335.446302,283.637859 C335.479424,281.628138 337.082709,280.01225 339.068266,279.940636 L339.268052,279.938665 L468.436,282.035 L547.347335,229.174865 C548.840539,228.174592 550.822627,228.374628 552.085883,229.62637 L552.228385,229.775461 L661.2,350.153 L753.285479,213.825794 Z"/><path id="路径" fill="#597EF7" fill-rule="nonzero" d="M589.912599,303.940685 C590.823851,303.149412 592.055452,302.846456 593.222694,303.115554 L593.440704,303.172734 L663.47,323.796 L766.400657,307.51279 C768.385955,307.198726 770.253869,308.499693 770.666442,310.443233 L770.702799,310.639693 C771.016863,312.62499 769.715896,314.492904 767.772356,314.905478 L767.575896,314.941835 L663.808387,331.357353 C663.33599,331.432084 662.854413,331.415909 662.38939,331.310498 L662.158377,331.250364 L593.29,310.969 L475.093481,413.603601 C473.902475,414.637795 472.199901,414.814416 470.828211,414.066275 L470.643293,413.958518 L330.876346,327.133027 C329.112073,326.037031 328.570326,323.718325 329.666321,321.954052 C330.725784,320.248587 332.927801,319.685506 334.667087,320.639871 L334.845297,320.744027 L472.256,406.106 L589.912599,303.940685 Z"/></g></g></g></svg>