<svg xmlns="http://www.w3.org/2000/svg" xmlns:xlink="http://www.w3.org/1999/xlink" width="1024" height="1024" version="1.1" viewBox="0 0 1024 1024"><title>3.通用组件/彩色版/护盾</title><desc>Created with Sketch.</desc><defs><polygon id="path-1" points="0 .519 727.085 .519 727.085 897.72 0 897.72"/></defs><g id="3.通用组件/彩色版/护盾" fill="none" fill-rule="evenodd" stroke="none" stroke-width="1"><g id="分组" transform="translate(148.000000, 63.000000)"><g transform="translate(0.000000, 0.561750)"><mask id="mask-2" fill="#fff"><use xlink:href="#path-1"/></mask><path id="Fill-1" fill="#E4EBF7" d="M563.668928,0.518430433 L163.417184,0.518430433 C150.397818,0.518430433 139.526557,10.1859319 137.703694,23.0737732 C125.805924,107.183953 49.1127973,150.424659 15.6151343,165.008553 C6.15072892,169.128773 0.000324160476,178.432217 0.000324160476,188.754374 L0.000324160476,531.018926 C0.000324160476,755.000534 363.543056,897.719604 363.543056,897.719604 C363.543056,897.719604 727.084707,755.000534 727.084707,531.018926 L727.084707,188.753293 C727.084707,178.432217 720.934302,169.128773 711.469897,165.008553 C677.972234,150.424659 601.279107,107.183953 589.381337,23.0737732 C587.558475,10.1859319 576.687213,1.59871889 563.668928,1.59871889 L563.668928,0.518430433 Z" mask="url(#mask-2)"/></g><path id="Fill-3" fill="#597EF7" d="M530.020314,67.758393 C534.952956,83.0012632 541.557186,97.7050695 549.78762,111.743418 C561.88745,132.376928 577.546562,151.609303 596.331662,168.903641 C617.39777,188.29914 639.662192,202.807414 659.011331,213.297015 L659.011331,529.73079 C659.011331,615.386862 576.978201,691.25228 508.161093,739.812327 C452.216398,779.288228 395.238711,807.660924 363.497998,822.17676 C332.270538,807.921273 276.564641,780.202152 220.937623,741.227505 C173.870603,708.251699 136.867684,674.231255 110.956457,640.113585 C96.8500736,621.539105 86.0847042,602.911691 78.9596569,584.749881 C71.6347107,566.079256 68.0732676,548.082731 68.0732676,529.73079 L68.0732676,213.297015 C87.4213259,202.807414 109.688989,188.29806 130.754018,168.903641 C149.538037,151.609303 165.197149,132.378008 177.296979,111.743418 C185.527413,97.7061498 192.131643,83.0012632 197.065365,67.758393 L530.020314,67.758393"/><path id="Fill-5" fill="#FFF" d="M380.97673,245.850428 L261.482535,427.167123 C255.053352,436.997748 261.966614,449.086176 273.557513,449.086176 L327.08289,449.086176 L261.272911,572.938007 C256.36296,582.94796 269.013863,592.237361 276.772104,584.318846 L455.760552,405.156246 C464.894314,395.834437 458.416507,379.908824 445.492229,379.908824 L364.549358,379.908824 L398.411161,253.721409 C401.05523,242.981181 387.002874,236.636647 380.97673,245.850428"/></g></g></svg>