<svg xmlns="http://www.w3.org/2000/svg" xmlns:xlink="http://www.w3.org/1999/xlink" width="1024" height="1024" version="1.1" viewBox="0 0 1024 1024"><title>3.通用组件/彩色版/数据详情页</title><desc>Created with Sketch.</desc><defs><polygon id="path-1" points="0 .677 799.873 .677 799.873 96.368 0 96.368"/><polygon id="path-3" points="0 .643 799.873 .643 799.873 703.297 0 703.297"/></defs><g id="3.通用组件/彩色版/数据详情页" fill="none" fill-rule="evenodd" stroke="none" stroke-width="1"><g id="编组" transform="translate(112.000000, 114.000000)"><g id="分组-copy-4"><mask id="mask-2" fill="#fff"><use xlink:href="#path-1"/></mask><path id="Fill-1" fill="#253369" d="M799.87261,96.3678712 L-0.000703812317,96.3678712 L-0.000703812317,27.6635523 C-0.000703812317,12.76 12.6045748,0.67658574 28.1517889,0.67658574 L771.720117,0.67658574 C787.268504,0.67658574 799.87261,12.76 799.87261,27.6635523 L799.87261,96.3678712 Z" mask="url(#mask-2)"/></g><g id="分组-copy-5" transform="translate(0.000000, 92.307692)"><mask id="mask-4" fill="#fff"><use xlink:href="#path-3"/></mask><path id="Fill-3" fill="#E4EBF7" d="M771.720117,703.296703 L28.1517889,703.296703 C12.6045748,703.296703 -0.000703812317,690.617302 -0.000703812317,674.976031 L-0.000703812317,0.643115274 L799.87261,0.643115274 L799.87261,674.976031 C799.87261,690.617302 787.268504,703.296703 771.720117,703.296703" mask="url(#mask-4)"/></g><rect id="矩形" width="694.505" height="52.747" x="52.747" y="153.846" fill="#FF7946" fill-rule="nonzero" rx="7.033"/><rect id="矩形-copy-41" width="694.505" height="52.747" x="52.747" y="241.758" fill="#597EF7" fill-rule="nonzero" rx="7.033"/><rect id="矩形-copy-40" width="694.505" height="395.604" x="52.747" y="329.67" fill="#FFF" fill-rule="nonzero" rx="7.033"/><path id="Fill-5-Copy-2" fill="#FF7946" d="M75.0906642,48.5224062 C75.0906642,58.3266097 67.1363475,66.2755816 57.3243724,66.2755816 C47.5135767,66.2755816 39.5604396,58.3266097 39.5604396,48.5224062 C39.5604396,38.7182027 47.5135767,30.7692308 57.3243724,30.7692308 C67.1363475,30.7692308 75.0906642,38.7182027 75.0906642,48.5224062"/><path id="Fill-7-Copy-3" fill="#FFC53D" d="M141.023551,48.5224062 C141.023551,58.3266097 133.070413,66.2755816 123.258438,66.2755816 C113.447643,66.2755816 105.494505,58.3266097 105.494505,48.5224062 C105.494505,38.7182027 113.447643,30.7692308 123.258438,30.7692308 C133.070413,30.7692308 141.023551,38.7182027 141.023551,48.5224062"/><path id="Fill-9-Copy-4" fill="#BAE637" d="M206.957617,48.5224062 C206.957617,58.3266097 199.004479,66.2755816 189.192504,66.2755816 C179.381709,66.2755816 171.428571,58.3266097 171.428571,48.5224062 C171.428571,38.7182027 179.381709,30.7692308 189.192504,30.7692308 C199.004479,30.7692308 206.957617,38.7182027 206.957617,48.5224062"/><path id="ACTIVE-USERS" fill="#4E5C93" d="M156.180396,422.970311 L162.913786,422.970311 L182.830446,473.577054 L176.522322,473.577054 L171.13561,459.401496 L147.887694,459.401496 L142.500982,473.577054 L136.263736,473.577054 L156.180396,422.970311 Z M149.730517,454.510928 L169.292787,454.510928 L159.724285,429.207557 L159.440774,429.207557 L149.730517,454.510928 Z M209.764006,421.978022 C215.363352,421.978022 220.112164,423.466456 223.939565,426.443323 C227.766966,429.42019 230.035055,433.460224 230.743833,438.492547 L225.144487,438.492547 C224.435709,434.806902 222.592887,431.971791 219.757775,429.987212 C216.993541,428.073512 213.662285,427.152101 209.693129,427.152101 C203.810272,427.152101 199.274093,429.207557 196.084593,433.318469 C193.107725,437.145869 191.619292,442.178193 191.619292,448.486316 C191.619292,454.79444 193.036848,459.826763 196.013715,463.512408 C199.132338,467.410687 203.597639,469.395265 209.551373,469.395265 C213.591407,469.395265 216.993541,468.332098 219.828653,466.205764 C222.80552,463.937675 224.860976,460.606419 225.853265,456.211995 L231.452611,456.211995 C230.318566,462.094852 227.696088,466.701909 223.514298,469.962287 C219.61602,473.010032 214.938085,474.569344 209.551373,474.569344 C201.683938,474.569344 195.659326,471.946865 191.477536,466.772786 C187.650135,462.094852 185.807313,455.999362 185.807313,448.486316 C185.807313,440.97327 187.721013,434.806902 191.619292,429.987212 C195.871959,424.6005 201.967449,421.978022 209.764006,421.978022 Z M235.634401,422.970311 L277.097909,422.970311 L277.097909,428.002634 L259.236705,428.002634 L259.236705,473.577054 L253.495604,473.577054 L253.495604,428.002634 L235.634401,428.002634 L235.634401,422.970311 Z M283.831299,422.970311 L289.5724,422.970311 L289.5724,473.577054 L283.831299,473.577054 L283.831299,422.970311 Z M295.455257,422.970311 L301.834258,422.970311 L317.640006,467.268931 L317.852639,467.268931 L333.658387,422.970311 L340.037388,422.970311 L321.325651,473.577054 L314.166994,473.577054 L295.455257,422.970311 Z M345.494978,422.970311 L381.359141,422.970311 L381.359141,428.002634 L351.306957,428.002634 L351.306957,444.942427 L379.658074,444.942427 L379.658074,449.97475 L351.306957,449.97475 L351.306957,468.544731 L382.564063,468.544731 L382.564063,473.577054 L345.494978,473.577054 L345.494978,422.970311 Z M437.848741,422.970311 L443.66072,422.970311 L443.66072,454.227417 C443.66072,459.188863 444.723887,462.945386 446.991976,465.496986 C449.330943,468.119465 453.016588,469.466143 458.048912,469.466143 C463.010357,469.466143 466.696002,468.119465 469.105847,465.496986 C471.303059,462.945386 472.437103,459.188863 472.437103,454.227417 L472.437103,422.970311 L478.249082,422.970311 L478.249082,454.15654 C478.249082,460.748174 476.548015,465.780497 473.216759,469.253509 C469.743747,472.797399 464.711424,474.569344 458.048912,474.569344 C451.386399,474.569344 446.354076,472.797399 442.951942,469.324387 C439.549808,465.780497 437.848741,460.748174 437.848741,454.15654 L437.848741,422.970311 Z M505.466154,421.978022 C511.136378,421.978022 515.672556,423.253822 518.932935,425.876301 C522.335069,428.569657 524.248769,432.609691 524.744914,437.925525 L519.003813,437.925525 C518.365913,434.23988 516.948357,431.546524 514.751145,429.774579 C512.483056,427.931756 509.293555,427.081223 505.182643,427.081223 C501.42612,427.081223 498.520131,427.648245 496.393797,428.924046 C493.983952,430.341601 492.77903,432.467935 492.77903,435.373925 C492.77903,437.925525 494.196585,439.980981 497.102575,441.540293 C498.378375,442.24907 501.496998,443.312237 506.387566,444.729793 C513.050078,446.714371 517.444501,448.344561 519.570835,449.620361 C523.752625,452.171961 525.878958,455.715851 525.878958,460.322907 C525.878958,464.717331 524.107014,468.26122 520.563124,470.812821 C517.019234,473.293543 512.270422,474.569344 506.24581,474.569344 C500.292076,474.569344 495.614141,473.293543 492.212007,470.741943 C488.242851,467.694198 486.045639,463.087141 485.620373,456.849896 L491.361474,456.849896 C491.857618,461.244319 493.41693,464.504697 495.96853,466.560153 C498.307497,468.402976 501.709631,469.395265 506.24581,469.395265 C510.356722,469.395265 513.758856,468.615609 516.310457,467.056298 C518.862057,465.496986 520.137857,463.370652 520.137857,460.677296 C520.137857,457.487796 518.43679,455.007073 515.105534,453.235128 C513.687978,452.384595 510.073211,451.179672 504.402987,449.549483 C498.307497,447.70666 494.409219,446.289105 492.77903,445.438571 C488.880751,443.170482 486.967051,439.910103 486.967051,435.657436 C486.967051,431.263013 488.809873,427.790001 492.566396,425.380156 C495.897652,423.112067 500.221198,421.978022 505.466154,421.978022 Z M533.250249,422.970311 L569.114412,422.970311 L569.114412,428.002634 L539.062228,428.002634 L539.062228,444.942427 L567.413345,444.942427 L567.413345,449.97475 L539.062228,449.97475 L539.062228,468.544731 L570.319334,468.544731 L570.319334,473.577054 L533.250249,473.577054 L533.250249,422.970311 Z M578.399402,422.970311 L600.229762,422.970311 C605.262085,422.970311 609.231242,424.104356 612.137231,426.443323 C615.114098,428.853168 616.67341,432.397057 616.67341,437.074992 C616.67341,439.910103 615.893754,442.390826 614.334443,444.588038 C612.633376,446.856127 610.365286,448.273683 607.459297,448.982461 L607.459297,449.124216 C612.278987,450.187383 614.972343,453.235128 615.539365,458.338329 L616.319021,466.134886 C616.602532,469.253509 617.523943,471.734232 619.012377,473.577054 L612.704254,473.577054 C611.570209,471.875987 610.861431,469.678776 610.648798,466.843664 L610.010897,460.110274 C609.727386,457.133407 608.664219,454.936195 606.821397,453.660395 C605.12033,452.384595 602.710485,451.817572 599.520984,451.817572 L584.211381,451.817572 L584.211381,473.577054 L578.399402,473.577054 L578.399402,422.970311 Z M584.211381,428.002634 L584.211381,446.785249 L599.520984,446.785249 C603.206629,446.785249 606.112619,445.863838 608.097197,444.162771 C609.869142,442.532582 610.790553,440.264492 610.790553,437.287625 C610.790553,434.169002 609.869142,431.830035 608.168075,430.341601 C606.325252,428.78229 603.419263,428.002634 599.520984,428.002634 L584.211381,428.002634 Z M643.32346,421.978022 C648.993683,421.978022 653.529862,423.253822 656.79024,425.876301 C660.192374,428.569657 662.106075,432.609691 662.602219,437.925525 L656.861118,437.925525 C656.223218,434.23988 654.805662,431.546524 652.60845,429.774579 C650.340361,427.931756 647.15086,427.081223 643.039948,427.081223 C639.283426,427.081223 636.377436,427.648245 634.251102,428.924046 C631.841257,430.341601 630.636335,432.467935 630.636335,435.373925 C630.636335,437.925525 632.053891,439.980981 634.95988,441.540293 C636.23568,442.24907 639.354303,443.312237 644.244871,444.729793 C650.907383,446.714371 655.301806,448.344561 657.42814,449.620361 C661.60993,452.171961 663.736264,455.715851 663.736264,460.322907 C663.736264,464.717331 661.964319,468.26122 658.420429,470.812821 C654.87654,473.293543 650.127728,474.569344 644.103115,474.569344 C638.149381,474.569344 633.471447,473.293543 630.069313,470.741943 C626.100156,467.694198 623.902945,463.087141 623.477678,456.849896 L629.218779,456.849896 C629.714924,461.244319 631.274235,464.504697 633.825836,466.560153 C636.164803,468.402976 639.566937,469.395265 644.103115,469.395265 C648.214027,469.395265 651.616161,468.615609 654.167762,467.056298 C656.719362,465.496986 657.995163,463.370652 657.995163,460.677296 C657.995163,457.487796 656.294096,455.007073 652.962839,453.235128 C651.545284,452.384595 647.930516,451.179672 642.260293,449.549483 C636.164803,447.70666 632.266524,446.289105 630.636335,445.438571 C626.738056,443.170482 624.824356,439.910103 624.824356,435.657436 C624.824356,431.263013 626.667179,427.790001 630.423702,425.380156 C633.754958,423.112067 638.078503,421.978022 643.32346,421.978022 Z"/><path id="112,893" fill="#253369" d="M165.851769,534.036888 L178.554485,534.036888 L178.554485,644.643462 L161.669168,644.643462 L161.669168,554.330251 C155.007988,560.681609 146.487873,565.328944 136.263736,568.272256 L136.263736,551.54185 C141.220894,550.302561 146.332962,548.133805 151.909764,545.035581 C157.486566,541.627535 162.133901,538.064579 165.851769,534.036888 Z M229.055526,534.036888 L241.758242,534.036888 L241.758242,644.643462 L224.872924,644.643462 L224.872924,554.330251 C218.211744,560.681609 209.69163,565.328944 199.467493,568.272256 L199.467493,551.54185 C204.42465,550.302561 209.536719,548.133805 215.113521,545.035581 C220.690323,541.627535 225.337658,538.064579 229.055526,534.036888 Z M304.497265,531.868132 C315.031224,531.868132 323.861161,534.811444 330.677252,541.007891 C337.338432,547.204338 340.746478,555.104807 340.746478,564.864211 C340.746478,574.468703 337.02861,583.143729 329.902696,591.044198 C325.565184,595.536622 317.974536,601.423246 306.975844,608.858982 C295.047684,616.759452 287.92177,623.730455 285.598102,629.77199 L340.901389,629.77199 L340.901389,644.643462 L264.685095,644.643462 C264.685095,633.644769 268.248052,624.040277 275.683788,615.675074 C279.711478,610.872828 288.076681,604.211647 300.624486,595.536622 C308.060222,590.269642 313.327201,586.087041 316.425425,582.833906 C321.382582,577.257104 324.016072,571.215569 324.016072,564.7093 C324.016072,558.512853 322.312049,553.865518 318.904003,550.767294 C315.495958,547.669071 310.383889,546.119959 303.87762,546.119959 C296.906618,546.119959 291.639638,548.443627 288.076681,553.245873 C284.358813,557.893208 282.499879,564.554388 282.190057,573.539236 L265.304739,573.539236 C265.45965,561.146343 269.022607,551.232028 275.99361,543.796292 C283.119524,535.740911 292.724016,531.868132 304.497265,531.868132 Z M370.489422,622.491165 C374.517113,622.491165 377.770247,624.040277 380.558648,627.293411 C383.037227,630.701457 384.276516,634.884059 384.276516,640.151038 C384.276516,648.051508 381.952849,654.867599 377.460425,660.754224 C372.81309,666.640848 366.616643,670.668539 358.871085,672.837295 L358.871085,663.232802 C362.898775,661.683691 366.461732,659.360023 369.250133,655.951978 C371.883623,652.389021 373.277823,648.826064 373.277823,645.108196 C372.348356,645.418018 371.109067,645.572929 369.405044,645.572929 C366.306821,645.572929 363.51842,644.488551 361.349664,642.319795 C359.180907,640.151038 358.096529,637.362637 358.096529,634.109503 C358.096529,630.546546 359.180907,627.758145 361.659486,625.589389 C363.828242,623.420632 366.771554,622.491165 370.489422,622.491165 Z M437.875781,531.868132 C449.649029,531.868132 458.943699,534.966355 465.914702,541.162802 C472.111149,546.739604 475.209372,553.710607 475.209372,561.920898 C475.209372,567.652612 473.970083,572.454858 471.491504,576.327637 C468.703103,580.510239 464.520502,583.608462 458.943699,585.777218 L458.943699,586.241952 C464.210679,587.481241 468.858014,590.579465 472.575882,595.536622 C476.913395,600.803602 479.082151,606.845137 479.082151,613.81614 C479.082151,623.575543 475.519194,631.476013 468.393281,637.67246 C461.112456,643.713995 450.888319,646.812219 437.875781,646.812219 C424.708331,646.812219 414.484194,643.713995 407.35828,637.67246 C400.232367,631.476013 396.66941,623.575543 396.66941,613.81614 C396.66941,606.845137 398.838166,600.803602 403.175679,595.536622 C406.893547,590.579465 411.385971,587.481241 416.807862,586.241952 L416.807862,585.777218 C411.23106,583.608462 407.048458,580.510239 404.260057,576.327637 C401.781478,572.454858 400.542189,567.652612 400.542189,561.920898 C400.542189,553.710607 403.640412,546.739604 409.836859,541.162802 C416.652951,534.966355 426.102532,531.868132 437.875781,531.868132 Z M437.875781,545.345403 C431.059689,545.345403 425.637798,547.049426 421.610108,550.767294 C418.047151,553.865518 416.343128,557.893208 416.343128,562.540543 C416.343128,567.807523 417.737329,571.990124 420.680641,575.088348 C424.243598,578.806216 429.975311,580.66515 437.875781,580.66515 C445.621339,580.66515 451.353052,578.806216 455.07092,575.088348 C457.859321,571.990124 459.408433,567.807523 459.408433,562.540543 C459.408433,557.893208 457.549499,553.865518 454.141453,550.767294 C450.113763,547.049426 444.691872,545.345403 437.875781,545.345403 Z M437.875781,593.212954 C429.8204,593.212954 423.623953,595.071888 419.596263,599.099579 C415.413661,602.817447 413.399816,607.619693 413.399816,613.81614 C413.399816,619.547853 415.413661,624.195188 419.751174,627.758145 C423.933775,631.321102 429.975311,633.180036 437.875781,633.180036 C445.621339,633.180036 451.817786,631.321102 456.31021,627.758145 C460.3379,624.195188 462.351745,619.547853 462.351745,613.81614 C462.351745,607.619693 460.3379,602.817447 456.31021,599.25449 C451.972697,595.2268 445.931161,593.212954 437.875781,593.212954 Z M529.583192,531.868132 C543.060464,531.868132 553.284601,536.670378 560.410515,546.584693 C567.226606,556.034274 570.789563,569.201723 570.789563,586.241952 C570.789563,604.211647 567.071695,618.773297 559.79087,629.926901 C552.200223,641.080505 542.130997,646.812219 529.428281,646.812219 C507.895629,646.812219 495.812557,636.742993 493.024156,616.759452 L509.44474,616.759452 C511.613497,627.448323 518.429588,632.870213 529.583192,632.870213 C537.173839,632.870213 543.215375,628.997434 547.86271,621.561698 C552.200223,614.435784 554.52389,605.450937 554.52389,594.762066 C554.52389,594.142421 554.368979,593.522777 554.368979,592.748221 L553.749334,592.748221 C550.651111,597.550467 546.623421,601.113424 541.976086,603.592003 C537.483662,605.760759 532.371593,607.000048 526.63988,607.000048 C515.796098,607.000048 506.966162,603.437092 500.459893,596.466089 C494.108535,589.649998 491.010311,580.820061 491.010311,569.976279 C491.010311,558.822675 494.573268,549.837827 502.009004,542.711914 C509.44474,535.431089 518.584499,531.868132 529.583192,531.868132 Z M530.202837,545.810137 C523.386745,545.810137 517.809943,547.978893 513.782253,552.626228 C509.599651,557.118652 507.585806,562.850365 507.585806,569.976279 C507.585806,577.102193 509.599651,582.678995 513.782253,586.861597 C517.655032,591.199109 523.076923,593.367866 530.047926,593.367866 C536.864017,593.367866 542.440819,591.199109 546.468509,586.861597 C550.4962,582.524084 552.510045,576.637459 552.510045,569.511546 C552.510045,562.230721 550.341289,556.499008 546.313598,552.316406 C542.130997,547.978893 536.709106,545.810137 530.202837,545.810137 Z M624.853561,531.868132 C636.007165,531.868132 644.837101,534.501622 651.653193,539.923513 C658.159462,545.345403 661.567507,552.78114 661.567507,562.230721 C661.567507,574.313792 655.371061,582.524084 643.28799,586.551774 C649.794259,588.565619 654.751416,591.663843 658.159462,595.691533 C661.87733,599.874135 663.736264,605.296026 663.736264,611.802295 C663.736264,622.026432 660.173307,630.391635 653.202304,636.897904 C645.766568,643.404173 636.007165,646.812219 624.233916,646.812219 C612.925401,646.812219 603.785642,643.868906 596.96955,638.137193 C589.223992,631.630924 584.886479,622.181343 583.957012,609.788449 L600.997241,609.788449 C601.307063,617.224186 603.630731,622.955899 608.278066,626.983589 C612.305756,630.701457 617.572736,632.560391 624.079005,632.560391 C631.204918,632.560391 636.936632,630.391635 641.274144,626.363944 C644.992012,622.646076 647.005858,618.153653 647.005858,612.57685 C647.005858,606.070581 644.992012,601.268335 640.964322,598.170112 C637.246454,595.071888 631.669652,593.522777 624.388827,593.522777 L616.333446,593.522777 L616.333446,580.820061 L624.233916,580.820061 C631.050007,580.820061 636.162076,579.270949 639.570122,576.327637 C642.978167,573.384325 644.837101,569.046812 644.837101,563.47001 C644.837101,557.893208 643.133078,553.710607 640.034855,550.767294 C636.626809,547.669071 631.514741,546.274871 625.008472,546.274871 C618.347291,546.274871 613.080312,547.978893 609.362444,551.386939 C605.644576,554.794985 603.320908,559.907053 602.701263,566.723145 L586.125769,566.723145 C587.055236,555.724452 591.082926,547.204338 598.363751,541.007891 C605.179842,534.811444 614.009779,531.868132 624.853561,531.868132 Z"/></g></g></svg>