<?xml version="1.0" encoding="UTF-8"?>
<svg width="1024px" height="1024px" viewBox="0 0 1024 1024" version="1.1" xmlns="http://www.w3.org/2000/svg" xmlns:xlink="http://www.w3.org/1999/xlink">
    <!-- Generator: Sketch 61.2 (89653) - https://sketch.com -->
    <title>3.通用组件/彩色版/文件</title>
    <desc>Created with Sketch.</desc>
    <g id="3.通用组件/彩色版/文件" stroke="none" stroke-width="1" fill="none" fill-rule="evenodd">
        <g id="资源-38" transform="translate(143.000000, 112.000000)" fill-rule="nonzero">
            <path d="M553.576923,0.586538462 L83.8076923,0.586538462 C71.0626596,0.586538462 60.7307692,10.9184289 60.7307692,23.6634615 L60.7307692,680.182692 L480.394231,680.182692 C480.394231,750.663462 540.663462,799.913462 611.259615,799.550096 C680.644231,799.201923 737.403846,740.384615 737.403846,671.009615 L737.403846,183.509615 L614.913462,183.509615 C595.375,183.509615 553.576923,140.740385 553.576923,121.211538 L553.576923,0.586538462 Z" id="路径" fill="#E4EBF7"></path>
            <path d="M481.317308,678.115385 L0,678.115385 C0,741.076923 45.7980769,786.596154 105.884615,796.682692 L127.038462,798.451923 L609.317308,797.490385 C539.163462,797.490385 479.528846,743.615385 481.317308,678.115385 Z" id="路径" fill="#253369"></path>
            <rect id="矩形" fill="#597EF7" x="153.586538" y="62.1634615" width="123.076923" height="123.076923" rx="9"></rect>
            <rect id="矩形" fill="#597EF7" x="153.375" y="245.817308" width="461.538462" height="30.7692308" rx="9"></rect>
            <rect id="矩形" fill="#597EF7" x="153.375" y="338.461538" width="461.538462" height="30.7692308" rx="9"></rect>
            <rect id="矩形" fill="#597EF7" x="153.375" y="431.105769" width="461.538462" height="30.7692308" rx="9"></rect>
            <path d="M553.51923,154.076923 L553.51923,178.115385 C553.51923,183.280947 555.669155,188.213436 559.455161,191.727578 C563.241166,195.241721 568.319974,197.019826 573.471154,196.634615 L738.028846,184.394231 L553.51923,154.076923 Z" id="路径" fill="#BABFD8" opacity="0.6"></path>
            <path d="M648.903846,92.1826923 L553.317308,0 L553.567308,176.673077 C553.567308,180.921421 557.011271,184.365385 561.259615,184.365385 L738.028846,184.365385 L648.903846,92.1826923 Z" id="路径" fill="#FFC53D"></path>
        </g>
    </g>
</svg>