<svg xmlns="http://www.w3.org/2000/svg" xmlns:xlink="http://www.w3.org/1999/xlink" width="1024" height="1024" version="1.1" viewBox="0 0 1024 1024"><title>3.通用组件/彩色版/文字规范页</title><desc>Created with Sketch.</desc><g id="3.通用组件/彩色版/文字规范页" fill="none" fill-rule="evenodd" stroke="none" stroke-width="1"><g id="分组-6" transform="translate(56.000000, 163.000000)"><g id="分组-2-copy-3"><path id="Fill-1" fill="#253369" d="M911.260775,85.7188916 L0.914613525,85.7188916 L0.914613525,24.2517124 C0.914613525,10.9180628 12.0010602,0.107484927 25.6749635,0.107484927 L886.500425,0.107484927 C900.17536,0.107484927 911.260775,10.9180628 911.260775,24.2517124 L911.260775,85.7188916 Z"/><path id="Fill-5" fill="#FF7946" d="M64.7487204,40.3027517 C64.7487204,48.6707386 57.8342938,55.4552665 49.3050656,55.4552665 C40.7768627,55.4552665 33.8634614,48.6707386 33.8634614,40.3027517 C33.8634614,31.9347649 40.7768627,25.150237 49.3050656,25.150237 C57.8342938,25.150237 64.7487204,31.9347649 64.7487204,40.3027517"/><path id="Fill-7" fill="#FFC53D" d="M122.407102,40.3027517 C122.407102,48.6707386 115.493701,55.4552665 106.964473,55.4552665 C98.43627,55.4552665 91.5228687,48.6707386 91.5228687,40.3027517 C91.5228687,31.9347649 98.43627,25.150237 106.964473,25.150237 C115.493701,25.150237 122.407102,31.9347649 122.407102,40.3027517"/><path id="Fill-9" fill="#BAE637" d="M180.06651,40.3027517 C180.06651,48.6707386 173.153108,55.4552665 164.62388,55.4552665 C156.095677,55.4552665 149.182276,48.6707386 149.182276,40.3027517 C149.182276,31.9347649 156.095677,25.150237 164.62388,25.150237 C173.153108,25.150237 180.06651,31.9347649 180.06651,40.3027517"/></g><path id="Fill-3-Copy-3" fill="#E4EBF7" d="M27.6095203,698.047393 C12.3621627,698.047393 0,686.933027 0,673.222377 L0,82.1232227 L911.567773,82.1232227 L911.567773,673.222377 C911.567773,686.933027 899.20676,698.047393 883.958252,698.047393 L27.6095203,698.047393 Z"/><rect id="矩形-copy-28" width="796.595" height="517.376" x="61.592" y="127.291" fill="#FFF" fill-rule="nonzero" rx="11.037"/><rect id="矩形-copy-30" width="410.616" height="57.486" x="344.918" y="238.157" fill="#FFC53D" fill-rule="nonzero" rx="8.212"/><rect id="矩形-copy-33" width="164.246" height="57.486" x="591.287" y="439.359" fill="#FF7946" fill-rule="nonzero" rx="8.212"/><rect id="矩形-copy-34" width="164.246" height="57.486" x="591.287" y="349.024" fill="#597EF7" fill-rule="nonzero" rx="8.212"/><path id="Aa" fill="#253369" d="M243.317462,242.263507 L286.377324,242.263507 L381.872986,492.739336 L341.243923,492.739336 L317.977707,428.190943 L211.369823,428.190943 L188.103607,492.739336 L147.821801,492.739336 L243.317462,242.263507 Z M221.732701,398.29763 L303.855924,398.29763 L263.646213,287.43128 L262.283172,287.43128 L221.732701,398.29763 Z M474.989841,340.811374 C494.327403,340.811374 508.576133,345.964795 517.736031,356.271636 C525.623721,365.222314 529.694787,378.241482 529.694787,395.32914 L529.694787,484.835918 L504.759509,484.835918 L504.759509,465.035934 C499.670677,472.087983 493.309637,477.783869 485.676388,481.852359 C477.025374,486.192081 466.847709,488.633175 455.143395,488.633175 C441.403548,488.633175 430.717001,484.835918 423.083753,477.512636 C414.687179,470.189354 410.616114,460.696211 410.616114,449.033207 C410.616114,433.301712 416.468271,421.096242 428.172585,412.68803 C438.859132,404.55105 454.125629,400.48256 473.463191,399.940095 L502.978418,399.126397 L502.978418,393.430511 C502.978418,373.901759 493.055195,364.137383 473.20875,364.137383 C464.812176,364.137383 457.942253,365.764779 452.853421,369.019571 C446.746822,372.816829 442.930198,378.512714 441.403548,386.378462 L414.687179,383.937368 C417.486037,368.748339 424.610402,357.356567 435.805833,350.304518 C445.474614,343.794934 458.705578,340.811374 474.989841,340.811374 Z M509.163981,422.934597 L480.970497,423.722407 C455.880882,424.247614 443.465403,433.176127 443.465403,449.98274 C443.465403,455.234807 445.534649,459.43646 449.931798,462.850303 C454.070291,466.264146 459.760719,468.10237 466.744427,468.10237 C478.383939,468.10237 488.21286,464.425923 496.489846,457.335633 C504.766832,450.245343 509.163981,441.31683 509.163981,430.812697 L509.163981,422.934597 Z"/><path id="路径-2" fill="#253369" fill-rule="nonzero" d="M757.093922,550.225592 C758.227807,550.225592 759.147002,551.144788 759.147002,552.278673 C759.147002,553.361018 758.309471,554.247747 757.247146,554.326122 L757.093922,554.331754 L406.509953,554.331754 C405.376068,554.331754 404.456872,553.412558 404.456872,552.278673 C404.456872,551.196328 405.294403,550.309599 406.356729,550.231224 L406.509953,550.225592 L757.093922,550.225592 Z"/><path id="fontdesign" fill="#253369" fill-rule="nonzero" d="M183.627526,564.694787 L183.627526,549.912607 L188.423522,549.912607 L188.423522,547.711704 L183.627526,547.711704 L183.627526,545.839295 C183.627526,545.018063 183.791773,544.426775 184.120265,544.065433 C184.448758,543.671242 185.007196,543.506995 185.729881,543.506995 L188.653467,543.506995 L188.653467,541.240394 L185.401388,541.240394 C183.956019,541.240394 182.839143,541.634586 182.083609,542.455818 C181.360925,543.244201 180.999583,544.328227 180.999583,545.773596 L180.999583,547.711704 L176.729175,547.711704 L176.729175,549.912607 L180.999583,549.912607 L180.999583,564.694787 L183.627526,564.694787 Z M198.442555,565.154677 C200.971951,565.154677 203.008607,564.267746 204.552523,562.493884 C205.965043,560.85142 206.687727,558.749065 206.687727,556.21967 C206.687727,553.657426 205.965043,551.555071 204.519674,549.879757 C203.008607,548.105896 200.971951,547.251814 198.442555,547.251814 C195.880311,547.251814 193.876504,548.105896 192.365437,549.879757 C190.920068,551.555071 190.197384,553.657426 190.197384,556.21967 C190.197384,558.749065 190.920068,560.85142 192.365437,562.493884 C193.876504,564.267746 195.880311,565.154677 198.442555,565.154677 Z M198.442555,562.953774 C196.635845,562.953774 195.223325,562.263939 194.237846,560.884269 C193.318066,559.635996 192.891026,558.09208 192.891026,556.21967 C192.891026,554.314411 193.318066,552.770495 194.237846,551.522222 C195.223325,550.142552 196.635845,549.452717 198.442555,549.452717 C200.216417,549.452717 201.628936,550.142552 202.680114,551.522222 C203.567045,552.770495 204.026935,554.314411 204.026935,556.21967 C204.026935,558.05923 203.567045,559.635996 202.680114,560.884269 C201.628936,562.263939 200.216417,562.953774 198.442555,562.953774 Z M212.731996,564.694787 L212.731996,554.445809 C212.830544,552.901892 213.323283,551.686468 214.243064,550.766688 C215.097145,549.912607 216.115473,549.485566 217.298047,549.485566 C220.254483,549.485566 221.765551,551.12803 221.765551,554.445809 L221.765551,564.694787 L224.393494,564.694787 L224.393494,554.248713 C224.393494,549.584114 222.25829,547.251814 218.053581,547.251814 C216.936705,547.251814 215.918377,547.514609 214.998597,548.040197 C214.078817,548.532936 213.323283,549.255621 212.731996,550.20825 L212.731996,547.711704 L210.104053,547.711704 L210.104053,564.694787 L212.731996,564.694787 Z M236.777676,564.694787 L236.777676,562.493884 L234.609623,562.493884 C234.018336,562.493884 233.591295,562.329638 233.36135,562.066844 C233.098555,561.804049 233.000008,561.344159 233.000008,560.720023 L233.000008,549.912607 L237.204717,549.912607 L237.204717,547.711704 L233.000008,547.711704 L233.000008,542.225873 L230.404914,543.3099 L230.404914,547.711704 L226.988588,547.711704 L226.988588,549.912607 L230.404914,549.912607 L230.404914,560.720023 C230.404914,562.001145 230.667708,562.953774 231.226146,563.61076 C231.817433,564.333445 232.835761,564.694787 234.215431,564.694787 L236.777676,564.694787 Z M258.129714,565.154677 C260.691958,565.154677 262.597217,564.07065 263.779791,561.902597 L263.779791,564.694787 L266.243488,564.694787 L266.243488,540.780504 L263.615545,540.780504 L263.615545,550.832387 C262.301573,548.434389 260.429164,547.251814 257.998317,547.251814 C255.567469,547.251814 253.69506,548.138745 252.31539,549.978305 C251.034267,551.62077 250.410131,553.657426 250.410131,556.153972 C250.410131,558.716216 251.034267,560.818571 252.31539,562.461035 C253.69506,564.234897 255.633168,565.154677 258.129714,565.154677 Z M258.458207,562.986624 C256.618646,562.986624 255.238976,562.296789 254.319196,560.982817 C253.497964,559.800243 253.103773,558.190627 253.103773,556.153972 C253.103773,554.117316 253.497964,552.54055 254.352045,551.390825 C255.271826,550.076853 256.684345,549.419867 258.556755,549.419867 C260.067822,549.419867 261.316095,550.011155 262.268724,551.259427 C263.188504,552.474851 263.681244,554.084466 263.681244,556.055424 L263.681244,556.383917 C263.681244,558.289175 263.254203,559.833092 262.432971,561.015666 C261.480341,562.329638 260.16637,562.986624 258.458207,562.986624 Z M277.412246,565.154677 C279.613149,565.154677 281.41986,564.497691 282.832379,563.249418 C283.982104,562.198241 284.737638,560.884269 285.131829,559.241805 L282.503886,559.241805 C282.076845,560.424379 281.518408,561.31131 280.795723,561.902597 C279.941642,562.592432 278.791917,562.953774 277.412246,562.953774 C275.802631,562.953774 274.521509,562.428186 273.601729,561.377009 C272.681949,560.325831 272.189209,558.847613 272.057812,556.942355 L285.460322,556.942355 C285.394624,553.985918 284.737638,551.653619 283.489365,550.011155 C282.109695,548.171594 280.04019,547.251814 277.313699,547.251814 C274.850002,547.251814 272.911894,548.138745 271.466525,549.912607 C270.021156,551.58792 269.331321,553.690275 269.331321,556.186821 C269.331321,558.946161 270.054006,561.114214 271.565073,562.756679 C273.010442,564.333445 274.981399,565.154677 277.412246,565.154677 Z M282.733831,554.905699 L272.123511,554.905699 C272.287757,553.230385 272.813346,551.916413 273.733126,550.930935 C274.652906,549.945456 275.86833,549.452717 277.379397,549.452717 C280.598627,549.452717 282.405338,551.259427 282.733831,554.905699 Z M294.855219,565.154677 C299.651215,565.154677 302.049213,563.380815 302.049213,559.898791 C302.049213,558.420573 301.359378,557.270847 300.012557,556.416766 C299.125627,555.858328 297.680258,555.332739 295.643602,554.84 C293.935439,554.38011 292.752864,554.018768 292.128728,553.723124 C291.143249,553.230385 290.683359,552.606248 290.683359,551.883564 C290.683359,551.12803 291.044701,550.536743 291.767386,550.109702 C292.424372,549.649812 293.344152,549.452717 294.526726,549.452717 C295.873547,549.452717 296.924724,549.715511 297.647409,550.2411 C298.304394,550.70099 298.731435,551.489373 298.96138,552.54055 L301.523625,552.54055 C301.063735,548.992827 298.764284,547.251814 294.559575,547.251814 C292.654317,547.251814 291.077551,547.678855 289.894976,548.532936 C288.613854,549.387018 287.989718,550.503894 287.989718,551.949263 C287.989718,553.394631 288.613854,554.478658 289.927826,555.267041 C290.716209,555.792629 292.128728,556.285369 294.132535,556.778108 C295.972095,557.237998 297.187518,557.59934 297.745956,557.862135 C298.797134,558.387723 299.355572,559.110408 299.355572,560.063037 C299.355572,561.968296 297.811655,562.953774 294.78952,562.953774 C293.344152,562.953774 292.260125,562.69098 291.537441,562.165391 C290.814756,561.574104 290.322017,560.621475 290.124921,559.274654 L287.562677,559.274654 C287.956868,563.183719 290.387716,565.154677 294.855219,565.154677 Z M307.3051,545.215158 C307.863537,545.215158 308.323427,545.018063 308.717619,544.65672 C309.11181,544.262529 309.308906,543.802639 309.308906,543.244201 C309.308906,542.652914 309.11181,542.193024 308.717619,541.864531 C308.323427,541.470339 307.863537,541.306093 307.3051,541.306093 C306.746662,541.306093 306.286772,541.470339 305.89258,541.864531 C305.498389,542.193024 305.334142,542.652914 305.334142,543.244201 C305.334142,543.802639 305.498389,544.262529 305.89258,544.65672 C306.286772,545.018063 306.746662,545.215158 307.3051,545.215158 Z M308.619071,564.694787 L308.619071,547.711704 L305.991128,547.711704 L305.991128,564.694787 L308.619071,564.694787 Z M321.13465,571.658836 C326.291989,571.658836 328.887082,568.932345 328.887082,563.512212 L328.887082,547.711704 L326.259139,547.711704 L326.259139,550.635291 C325.010866,548.36869 323.105608,547.251814 320.543363,547.251814 C318.178214,547.251814 316.305805,548.073046 314.926135,549.74836 C313.546464,551.325126 312.889479,553.328933 312.889479,555.825479 C312.889479,558.289175 313.546464,560.292982 314.926135,561.869748 C316.305805,563.479363 318.178214,564.300595 320.543363,564.300595 C323.105608,564.300595 325.010866,563.15087 326.259139,560.884269 L326.259139,563.873555 C326.259139,567.618373 324.550976,569.523632 321.13465,569.523632 C319.590734,569.523632 318.441009,569.227989 317.685475,568.669551 C316.929941,568.143962 316.437202,567.289881 316.240106,566.140155 L313.612163,566.140155 C313.907807,567.979716 314.66334,569.359386 315.878764,570.279166 C317.061338,571.198946 318.8352,571.658836 321.13465,571.658836 Z M320.904705,562.099693 C319.065145,562.099693 317.718324,561.442707 316.798544,560.194434 C315.977312,559.077558 315.58312,557.59934 315.58312,555.825479 C315.58312,553.92022 316.04301,552.376303 316.962791,551.259427 C317.91542,550.011155 319.229391,549.419867 320.937555,549.419867 C322.612868,549.419867 323.92684,550.011155 324.912318,551.259427 C325.832099,552.376303 326.291989,553.92022 326.291989,555.825479 C326.291989,557.665039 325.832099,559.176106 324.912318,560.325831 C323.92684,561.508406 322.612868,562.099693 320.904705,562.099693 Z M335.588337,564.694787 L335.588337,554.445809 C335.686885,552.901892 336.179625,551.686468 337.099405,550.766688 C337.953486,549.912607 338.971814,549.485566 340.154389,549.485566 C343.110825,549.485566 344.621892,551.12803 344.621892,554.445809 L344.621892,564.694787 L347.249835,564.694787 L347.249835,554.248713 C347.249835,549.584114 345.114631,547.251814 340.909922,547.251814 C339.793046,547.251814 338.774718,547.514609 337.854938,548.040197 C336.935158,548.532936 336.179625,549.255621 335.588337,550.20825 L335.588337,547.711704 L332.960394,547.711704 L332.960394,564.694787 L335.588337,564.694787 Z"/></g></g></svg>