<svg xmlns="http://www.w3.org/2000/svg" xmlns:xlink="http://www.w3.org/1999/xlink" width="1024" height="1024" version="1.1" viewBox="0 0 1024 1024"><title>3.通用组件/彩色版/智能眼镜</title><desc>Created with Sketch.</desc><g id="3.通用组件/彩色版/智能眼镜" fill="none" fill-rule="evenodd" stroke="none" stroke-width="1"><g id="资源-14" fill-rule="nonzero" transform="translate(52.000000, 369.000000)"><path id="路径" fill="#597EF7" d="M899.947621,15.5626476 L844.648873,1.61946333 C839.050571,0.206707664 833.219973,-0.0286682604 827.526011,0.92822898 L654.292809,32.5867621 L659.388193,156.021467 L836.146691,52.8004293 L886.754919,66.3387478 C896.981228,69.0941203 907.861173,65.4285178 914.33517,57.0465832 L914.33517,57.0465832 C919.744725,50.040055 921.25669,40.7781985 918.356175,32.4150809 C915.455661,24.0519633 908.533736,17.7151667 899.947621,15.5626476 Z"/><path id="路径" fill="#597EF7" d="M245.931306,15.5626476 L190.632558,1.61946333 C185.034298,0.206422254 179.20364,-0.0289560719 173.509696,0.92822898 L23.5217174,28.5776029 C10.785694,30.9421303 1.59201032,42.1186837 1.72659511,55.0716279 L2.57731664,128.875707 L182.14025,52.7905546 L232.659606,66.3782469 C242.888892,69.1352078 253.772509,65.4696804 260.249732,57.0860823 L260.249732,57.0860823 C265.678277,50.0882127 267.210029,40.8239291 264.322862,32.4511433 C261.435694,24.0783574 254.519315,17.7272228 245.931306,15.5626476 Z"/><path id="路径" fill="#597EF7" d="M12.8372093,144.63585 L68.7975671,179.118569 L68.7975671,26.1385331 L26.4841503,26.1385331 C12.1573108,26.1385331 0.543106694,37.7527312 0.543106694,52.0795707 L0.543106694,122.545975 C0.537005142,131.542019 5.18863659,139.90001 12.8372093,144.63585 Z"/><path id="路径" fill="#597EF7" d="M691.007227,121.578247 L630.771091,158.292665 L630.771091,26.138401 L680.954705,26.138401 C685.771543,26.1201473 690.397258,28.0214324 693.808856,31.421912 C697.220455,34.8223916 699.13683,39.4418756 699.134171,44.2587478 L699.134171,106.469839 C699.135373,112.551472 696.082344,118.227211 691.007227,121.578247 Z"/><path id="路径" fill="#FFC53D" d="M702.027478,43.7199284 C703.951566,43.7199284 705.5231,45.2293951 705.622488,47.1287362 L705.627478,47.3199284 L705.627478,109.550769 C705.627478,111.538994 704.015703,113.150769 702.027478,113.150769 C700.103389,113.150769 698.531855,111.641303 698.432468,109.741961 L698.427478,109.550769 L698.427478,47.3199284 C698.427478,45.3317033 700.039253,43.7199284 702.027478,43.7199284 Z"/><path id="路径" fill="#E4EBF7" d="M30.2069343,65.7956351 L30.2069343,155.083363 C30.2069343,213.907406 87.3423971,254.018748 128.332594,275.229767 C158.082099,290.565404 194.599842,281.233421 213.344544,253.505259 C238.327728,216.58347 255.351843,159.151771 302.71127,159.151771 C328.514061,159.151771 373.691163,209.394633 397.509123,244.963578 C419.26528,277.35788 459.294502,292.217243 496.918497,281.865617 C573.339392,260.940966 662.123506,212.742182 662.123506,156.623828 L662.123506,65.7758855 C662.123506,49.5348014 648.957506,36.3688014 632.716422,36.3688014 L59.614025,36.3688014 C51.8113584,36.3688014 44.328557,39.469748 38.8130908,44.9889183 C33.2976247,50.5080886 30.2069343,57.9929702 30.2069343,65.7956351 Z"/><path id="路径" fill="#253369" d="M632.746047,26.2707692 C652.105291,26.2707692 667.835715,41.8076001 668.153131,61.0923324 L668.153131,61.6778533 L668.153131,152.525796 C668.153131,155.839505 665.466839,158.525796 662.153131,158.525796 C658.914734,158.525796 656.275559,155.960221 656.157269,152.750734 L656.153131,152.525796 L656.153131,61.6778533 C656.153131,48.8797515 645.881968,38.4806082 633.133125,38.2739051 L632.746047,38.2707692 L59.614025,38.2707692 C46.8159232,38.2707692 36.4167799,48.5419315 36.2100768,61.2907744 L36.206941,61.6778533 L36.206941,150.965581 C36.206941,154.27929 33.5206495,156.965581 30.206941,156.965581 C26.968544,156.965581 24.3293692,154.400007 24.206941,151.19052 L24.206941,150.965581 L24.206941,61.6778533 C24.206941,42.3186087 39.7437719,26.5881853 59.0285042,26.2755128 L59.614025,26.2707692 L632.746047,26.2707692 Z"/><rect id="矩形" width="103.488" height="19.315" x="525.555" y="72.264" fill="#FF7946" rx="9.456"/><rect id="矩形" width="59.328" height="19.315" x="569.705" y="105.384" fill="#FF7946" rx="9.456"/><rect id="矩形" width="59.328" height="19.315" x="569.705" y="137.121" fill="#FF7946" rx="9.456"/><ellipse id="椭圆形" cx="744.123" cy="59.37" fill="#253368" rx="26.731" ry="16.629" transform="translate(744.122529, 59.370358) rotate(-66.490000) translate(-744.122529, -59.370358)"/><path id="路径" fill="#597EF7" d="M116.235993,99.1526297 L104.830626,68.4815742 C103.521017,64.9273519 99.6251706,63.0559463 96.0322004,64.2551699 C89.1198569,66.5757424 78.6624687,71.9574955 73.1819678,84.0047227 C71.6112752,87.4887217 73.1111803,91.5893397 76.559143,93.2376386 C89.9493381,99.6463685 99.5969946,104.396136 106.479714,107.872057 C109.060199,109.171603 112.173013,108.760193 114.327279,106.834872 C116.481545,104.909551 117.238655,101.862315 116.235993,99.1526297 L116.235993,99.1526297 Z"/><path id="路径" fill="#597EF7" d="M252.349911,96.5179964 C254.006765,96.5179964 255.349911,97.8611422 255.349911,99.5179964 C255.349911,101.115677 254.100991,102.421657 252.526183,102.512904 L252.349911,102.517996 L203.27,102.517 L150.123609,147.682221 C148.909637,148.713887 147.112515,148.611461 146.022238,147.479671 L145.89488,147.338922 C144.863215,146.12495 144.965641,144.327828 146.097431,143.237551 L146.23818,143.110194 L200.223582,97.2319825 C200.711714,96.8171551 201.318277,96.5706883 201.953586,96.5255432 L202.166297,96.5179964 L252.349911,96.5179964 Z"/><path id="路径" fill="#FFC53D" d="M419.72737,73.4011449 L419.727,73.445 L419.882504,73.4520214 C420.665307,73.4877234 420.809426,73.5464538 421.339985,73.8696875 L421.459964,73.9430884 L421.823945,74.2509278 C421.964275,74.3759562 422.012195,74.438245 422.143975,74.6095391 L422.457322,75.1423825 C422.505403,75.2291861 422.528992,75.2800737 422.54803,75.3327731 L422.581691,75.4377379 C422.616356,75.5361897 422.644423,75.6282408 422.671599,75.7283709 L422.712408,75.8864354 C422.763701,76.0934304 422.826071,76.3770661 422.90384,76.7528488 L423.318033,78.8557025 L424.321349,84.2454509 L426.828177,98.162748 C428.017139,104.831087 429.426135,112.798027 431.016268,121.836878 L436.001188,150.284976 L440.3,174.964 L440.334526,175.094569 C440.705077,176.381288 441.83423,177.307315 443.168593,177.418808 L443.351771,177.428921 C444.762423,177.467015 446.026386,176.58649 446.488215,175.267523 L446.546158,175.084991 L456.153286,141.464987 C457.184881,137.837762 460.471139,135.314797 464.241735,135.255224 C467.922556,135.19707 471.216215,137.49981 472.434957,140.946196 L472.520406,141.200393 L477.56775,156.915326 C477.973634,158.1854 479.136912,159.061002 480.469704,159.099634 C481.73903,159.136426 482.898833,158.40643 483.42181,157.257118 L483.495414,157.08162 L492.240667,134.482435 C493.597339,131.033762 496.8797,128.739851 500.557511,128.634519 L500.848658,128.630769 L520.035349,128.630769 C521.692203,128.630769 523.035349,129.973915 523.035349,131.630769 C523.035349,133.22845 521.786429,134.53443 520.211622,134.625677 L520.035349,134.630769 L500.84009,134.630757 C499.575392,134.627145 498.431582,135.360802 497.907728,136.482988 L497.830239,136.663353 L489.093169,159.241505 C487.700174,162.862233 484.173683,165.209516 480.295864,165.097115 C476.512627,164.987456 473.198832,162.559935 471.944057,159.013965 L471.853834,158.745939 L466.805911,143.029195 C466.464256,141.957761 465.460967,141.23671 464.336519,141.254475 C463.271253,141.271306 462.33562,141.947463 461.977634,142.94139 L461.923395,143.109928 L452.315494,176.732645 C451.15865,180.785772 447.403253,183.540518 443.189801,183.426734 C439.067945,183.315424 435.531965,180.486606 434.503518,176.516248 L434.438691,176.249883 L434.407959,176.096696 L430.495082,153.633421 L423.875078,115.88283 C422.335527,107.155187 421.000504,99.6368393 419.913114,93.5789238 L417.910399,82.5640411 L417.313,79.401 L385.501395,79.4011449 C383.903714,79.4011449 382.597734,78.1522249 382.506488,76.5774177 L382.501395,76.4011449 C382.501395,74.803464 383.750315,73.497484 385.325123,73.4062376 L385.501395,73.4011449 L419.72737,73.4011449 Z"/><circle id="椭圆形" cx="388.958" cy="76.401" r="9.658" fill="#FF7946"/><circle id="椭圆形" cx="526.928" cy="131.601" r="9.658" fill="#FF7946"/><rect id="矩形" width="15.178" height="62.093" x="343.998" y="71.187" fill="#597EF7" rx="7.428"/><rect id="矩形" width="15.178" height="41.267" x="310.69" y="82.356" fill="#597EF7" rx="7.428"/><rect id="矩形" width="15.178" height="54.025" x="250.286" y="73.537" fill="#597EF7" rx="7.428"/><rect id="矩形" width="15.178" height="78.653" x="279.831" y="62.606" fill="#597EF7" rx="7.428"/><ellipse id="椭圆形" cx="144.887" cy="145.418" fill="#FFF" rx="9.835" ry="11.386" transform="translate(144.886583, 145.418179) rotate(-21.700000) translate(-144.886583, -145.418179)"/><path id="路径" fill="#FFF" d="M94.4719857,113.954919 C86.3369167,130.231976 85.4265649,149.180914 91.9637925,166.162862 C104.228265,198.749624 138.88873,215.892236 169.391914,204.417746 C199.895098,192.943256 214.677639,157.22619 202.413166,124.629553 C190.148694,92.0329159 155.498104,74.9001789 124.994919,86.3746691 L145.50483,147.73653 L94.4719857,113.954919 Z"/><circle id="椭圆形" cx="146.078" cy="145.396" r="31.965" fill="#597EF7"/><circle id="椭圆形" cx="146.078" cy="145.396" r="17.301" fill="#FFF"/></g></g></svg>