<svg xmlns="http://www.w3.org/2000/svg" xmlns:xlink="http://www.w3.org/1999/xlink" width="1024" height="1024" version="1.1" viewBox="0 0 1024 1024"><title>3.通用组件/彩色版/服务器</title><desc>Created with Sketch.</desc><defs><polygon id="path-1" points=".118 .717 209.979 .717 209.979 106.51 .118 106.51"/><polygon id="path-3" points="0 899.71 647.339 899.71 647.339 0 0 0"/></defs><g id="3.通用组件/彩色版/服务器" fill="none" fill-rule="evenodd" stroke="none" stroke-width="1"><g id="分组" transform="translate(188.000000, 62.000000)"><path id="Fill-1" fill="#253369" d="M326.690745,839.015968 L316.229126,839.015968 C301.847365,839.015968 290.075078,827.276174 290.075078,812.920962 L290.075078,604.172752 C290.075078,589.817541 301.847365,578.077747 316.229126,578.077747 L326.690745,578.077747 C341.072506,578.077747 352.844793,589.817541 352.844793,604.172752 L352.844793,812.920962 C352.844793,827.276174 341.072506,839.015968 326.690745,839.015968"/><path id="Fill-3" fill="#253369" d="M637.504026,846.811333 L637.504026,846.811333 C637.504026,864.10741 623.45438,878.125339 606.119168,878.125339 L41.2213888,878.125339 C23.8861775,878.125339 9.83653145,864.10741 9.83653145,846.811333 C9.83653145,829.521173 23.8861775,815.497326 41.2213888,815.497326 L606.119168,815.497326 C623.45438,815.497326 637.504026,829.521173 637.504026,846.811333"/><g transform="translate(216.414791, 793.199410)"><mask id="mask-2" fill="#fff"><use xlink:href="#path-1"/></mask><path id="Fill-5" fill="#CCD7EE" d="M15.8040938,106.51141 C7.17503725,106.51141 0.117595783,99.4639835 0.117595783,90.8544068 L0.117595783,16.368255 C0.117595783,7.75867829 7.17503725,0.71716886 15.8040938,0.71716886 L194.286196,0.71716886 C202.915252,0.71716886 209.978624,7.75867829 209.978624,16.368255 L209.978624,90.8544068 C209.978624,99.4639835 202.915252,106.51141 194.286196,106.51141 L15.8040938,106.51141 Z" mask="url(#mask-2)"/></g><line id="Stroke-7" x1="242.593" x2="242.593" y1="809.343" y2="884.285" stroke="#597EF7" stroke-linecap="round" stroke-linejoin="round" stroke-width="6"/><line id="Stroke-9" x1="397.719" x2="397.719" y1="809.343" y2="884.285" stroke="#597EF7" stroke-linecap="round" stroke-linejoin="round" stroke-width="6"/><mask id="mask-4" fill="#fff"><use xlink:href="#path-3"/></mask><polygon id="Fill-11" fill="#253369" points="29.422 698.944 617.912 698.944 617.912 13.071 29.422 13.071" mask="url(#mask-4)"/><path id="Fill-13" fill="#CCD7EE" d="M26.7809147,704.861012 C12.0492469,704.861012 -0.00177918693,692.83719 -0.00177918693,678.144696 L-0.00177918693,520.201865 C-0.00177918693,505.509371 12.0492469,493.485549 26.7809147,493.485549 L620.560829,493.485549 C635.286566,493.485549 647.343522,505.509371 647.343522,520.201865 L647.343522,678.144696 C647.343522,692.83719 635.286566,704.861012 620.560829,704.861012 L26.7809147,704.861012 Z" mask="url(#mask-4)"/><path id="Fill-14" fill="#CCD7EE" d="M26.7809147,211.379013 C12.0492469,211.379013 -0.00177918693,199.355191 -0.00177918693,184.65678 L-0.00177918693,26.7198655 C-0.00177918693,12.0273715 12.0492469,-0.00236689393 26.7809147,-0.00236689393 L620.560829,-0.00236689393 C635.286566,-0.00236689393 647.343522,12.0273715 647.343522,26.7198655 L647.343522,184.65678 C647.343522,199.355191 635.286566,211.379013 620.560829,211.379013 L26.7809147,211.379013 Z" mask="url(#mask-4)"/><path id="Fill-15" fill="#FFF" d="M75.0330571,125.729405 L75.0330571,125.729405 C63.942792,125.729405 54.9519674,116.75296 54.9519674,105.687731 C54.9519674,94.622502 63.942792,85.651974 75.0330571,85.651974 C86.1292529,85.651974 95.1200775,94.622502 95.1200775,105.687731 C95.1200775,116.75296 86.1292529,125.729405 75.0330571,125.729405" mask="url(#mask-4)"/><path id="Fill-16" fill="#FFF" d="M116.852846,105.687731 C116.852846,94.622502 125.84367,85.651974 136.939866,85.651974 C148.030131,85.651974 157.026887,94.622502 157.026887,105.687731 C157.026887,116.75296 148.030131,125.729405 136.939866,125.729405 C125.84367,125.729405 116.852846,116.75296 116.852846,105.687731 Z" mask="url(#mask-4)"/><path id="Fill-17" fill="#FFF" d="M198.846675,125.729405 L198.846675,125.729405 C187.750479,125.729405 178.759655,116.75296 178.759655,105.687731 C178.759655,94.622502 187.750479,85.651974 198.846675,85.651974 C209.93694,85.651974 218.927765,94.622502 218.927765,105.687731 C218.927765,116.75296 209.93694,125.729405 198.846675,125.729405" mask="url(#mask-4)"/><path id="Fill-18" fill="#597EF7" d="M412.010468,125.729405 C408.950266,125.729405 406.471266,123.256001 406.471266,120.202708 L406.471266,91.1786713 C406.471266,88.1253782 408.950266,85.651974 412.010468,85.651974 L601.778545,85.651974 C604.838747,85.651974 607.317747,88.1253782 607.317747,91.1786713 L607.317747,120.202708 C607.317747,123.256001 604.838747,125.729405 601.778545,125.729405 L412.010468,125.729405 Z" mask="url(#mask-4)"/><path id="Fill-19" fill="#CCD7EE" d="M26.7809147,458.120012 C12.0492469,458.120012 -0.00177918693,446.096191 -0.00177918693,431.39778 L-0.00177918693,273.460865 C-0.00177918693,258.768371 12.0492469,246.738633 26.7809147,246.738633 L620.560829,246.738633 C635.286566,246.738633 647.343522,258.768371 647.343522,273.460865 L647.343522,431.39778 C647.343522,446.096191 635.286566,458.120012 620.560829,458.120012 L26.7809147,458.120012 Z" mask="url(#mask-4)"/><path id="Fill-20" fill="#FF7946" d="M75.0330571,379.630259 L75.0330571,379.630259 C63.942792,379.630259 54.9519674,370.659731 54.9519674,359.588585 C54.9519674,348.523356 63.942792,339.552828 75.0330571,339.552828 C86.1292529,339.552828 95.1200775,348.523356 95.1200775,359.588585 C95.1200775,370.659731 86.1292529,379.630259 75.0330571,379.630259" mask="url(#mask-4)"/><path id="Fill-21" fill="#253369" d="M136.939866,379.630259 L136.939866,379.630259 C125.84367,379.630259 116.852846,370.659731 116.852846,359.588585 C116.852846,348.523356 125.84367,339.552828 136.939866,339.552828 C148.030131,339.552828 157.026887,348.523356 157.026887,359.588585 C157.026887,370.659731 148.030131,379.630259 136.939866,379.630259" mask="url(#mask-4)"/><path id="Fill-22" fill="#253369" d="M198.846675,379.630259 L198.846675,379.630259 C187.750479,379.630259 178.759655,370.659731 178.759655,359.588585 C178.759655,348.523356 187.750479,339.552828 198.846675,339.552828 C209.93694,339.552828 218.927765,348.523356 218.927765,359.588585 C218.927765,370.659731 209.93694,379.630259 198.846675,379.630259" mask="url(#mask-4)"/><path id="Fill-23" fill="#FF7946" d="M600.62326,379.630259 L413.168125,379.630259 C409.467417,379.630259 406.472452,376.642055 406.472452,372.949701 L406.472452,346.227469 C406.472452,342.541031 409.467417,339.552828 413.168125,339.552828 L600.62326,339.552828 C604.323969,339.552828 607.318933,342.541031 607.318933,346.227469 L607.318933,372.949701 C607.318933,376.642055 604.323969,379.630259 600.62326,379.630259" mask="url(#mask-4)"/><path id="Fill-24" fill="#FFF" d="M54.9519674,600.649039 C54.9519674,589.58381 63.942792,580.613282 75.0330571,580.613282 C86.1292529,580.613282 95.1200775,589.58381 95.1200775,600.649039 C95.1200775,611.714268 86.1292529,620.690713 75.0330571,620.690713 C63.942792,620.690713 54.9519674,611.714268 54.9519674,600.649039 Z" mask="url(#mask-4)"/><path id="Fill-25" fill="#FFF" d="M136.939866,620.690713 L136.939866,620.690713 C125.84367,620.690713 116.852846,611.714268 116.852846,600.649039 C116.852846,589.58381 125.84367,580.613282 136.939866,580.613282 C148.030131,580.613282 157.026887,589.58381 157.026887,600.649039 C157.026887,611.714268 148.030131,620.690713 136.939866,620.690713" mask="url(#mask-4)"/><path id="Fill-26" fill="#FFF" d="M198.846675,620.690713 L198.846675,620.690713 C187.750479,620.690713 178.759655,611.714268 178.759655,600.649039 C178.759655,589.58381 187.750479,580.613282 198.846675,580.613282 C209.93694,580.613282 218.927765,589.58381 218.927765,600.649039 C218.927765,611.714268 209.93694,620.690713 198.846675,620.690713" mask="url(#mask-4)"/><path id="Fill-27" fill="#597EF7" d="M600.62326,620.690713 L413.168125,620.690713 C409.467417,620.690713 406.472452,617.696592 406.472452,614.010155 L406.472452,587.287923 C406.472452,583.601485 409.467417,580.613282 413.168125,580.613282 L600.62326,580.613282 C604.323969,580.613282 607.318933,583.601485 607.318933,587.287923 L607.318933,614.010155 C607.318933,617.696592 604.323969,620.690713 600.62326,620.690713" mask="url(#mask-4)"/></g></g></svg>