<svg xmlns="http://www.w3.org/2000/svg" xmlns:xlink="http://www.w3.org/1999/xlink" width="1024" height="1024" version="1.1" viewBox="0 0 1024 1024"><title>3.通用组件/彩色版/柱状图表02</title><desc>Created with Sketch.</desc><defs><polygon id="path-1" points="160.619 23.005 385.087 23.005 385.087 149.587 160.619 149.587"/><polygon id="path-3" points="296.383 193.026 385.087 193.026 385.087 319.607 296.383 319.607"/></defs><g id="3.通用组件/彩色版/柱状图表02" fill="none" fill-rule="evenodd" stroke="none" stroke-width="1"><g id="编组" transform="translate(56.000000, 162.000000)"><rect id="矩形" width="912" height="669.14" x="0" y="30.149" fill="#E4EBF7" fill-rule="nonzero" rx="26.647"/><g id="分组-2" transform="translate(275.107438, 154.512397)"><path id="Fill-30" fill="#FFF" d="M0.150233131,472.447415 L0.150233131,9.22768861 C0.150233131,4.19251676 4.23204641,0.110703488 9.26721826,0.110703488 L570.78478,0.110703488 C575.819952,0.110703488 579.901766,4.19251676 579.901766,9.22768861 L579.901766,474.15742 L579.901766,474.15742 C579.901766,478.247925 576.497762,481.5644 572.299302,481.5644 L9.26721826,481.5644 C4.23204641,481.5644 0.150233131,477.482587 0.150233131,472.447415 Z"/><path id="Fill-34" fill="#FFF" d="M115.828371,92.5555536 L82.646468,92.5555536 C80.0787359,92.5555536 77.9975614,90.5278929 77.9975614,88.0261854 C77.9975614,85.5254038 80.0787359,83.497743 82.646468,83.497743 L115.828371,83.497743 C118.396104,83.497743 120.477278,85.5254038 120.477278,88.0261854 C120.477278,90.5278929 118.396104,92.5555536 115.828371,92.5555536"/><path id="Fill-36" fill="#FFF" d="M116.365485,114.29004 L83.1826318,114.29004 C80.61585,114.29004 78.5346755,112.262379 78.5346755,109.760672 C78.5346755,107.25989 80.61585,105.232229 83.1826318,105.232229 L116.365485,105.232229 C118.933218,105.232229 121.014392,107.25989 121.014392,109.760672 C121.014392,112.262379 118.933218,114.29004 116.365485,114.29004"/><path id="Stroke-42" fill="#E4E6EF" fill-rule="nonzero" d="M523.599154,405.198732 C525.487344,405.198732 527.018024,406.729412 527.018024,408.617601 C527.018024,410.442851 525.587688,411.934028 523.786738,412.031412 L523.599154,412.036471 L54.8188848,412.036471 C52.9306954,412.036471 51.4000154,410.505791 51.4000154,408.617601 C51.4000154,406.792352 52.8303508,405.301175 54.631301,405.203791 L54.8188848,405.198732 L523.599154,405.198732 Z"/><path id="Stroke-44" fill="#E4E6EF" fill-rule="nonzero" d="M448.679725,436.481464 C450.567914,436.481464 452.098594,438.012144 452.098594,439.900333 C452.098594,441.725583 450.668259,443.21676 448.867309,443.314144 L448.679725,443.319203 L54.8188848,443.319203 C52.9306954,443.319203 51.4000154,441.788523 51.4000154,439.900333 C51.4000154,438.075083 52.8303508,436.583906 54.631301,436.486523 L54.8188848,436.481464 L448.679725,436.481464 Z"/></g><path id="路径" fill="#253369" fill-rule="nonzero" d="M24.4285714,-3.90798505e-14 L887.113393,-3.90798505e-14 C900.60492,-3.90798505e-14 911.541964,10.6962529 911.541964,23.8907496 L911.541964,95.0851835 L-2.98427949e-13,95.0851835 L-2.98427949e-13,23.8907496 C-2.98427949e-13,10.6962529 10.937044,-3.90798505e-14 24.4285714,-3.90798505e-14 Z"/><ellipse id="椭圆形" cx="51.353" cy="47.201" fill="#FF7946" fill-rule="nonzero" rx="17.436" ry="17.052"/><ellipse id="椭圆形" cx="119.188" cy="47.201" fill="#FFC53D" fill-rule="nonzero" rx="17.436" ry="17.052"/><ellipse id="椭圆形" cx="183.254" cy="47.201" fill="#BAE637" fill-rule="nonzero" rx="17.436" ry="17.052"/><polygon id="路径" fill="#FFF" fill-rule="nonzero" points="308.936 385.807 297.719 377.555 308.936 369.322 320.153 377.555"/><g id="分组-copy-7" transform="translate(343.942149, 199.735537)"><mask id="mask-2" fill="#fff"><use xlink:href="#path-1"/></mask><mask id="mask-4" fill="#fff"><use xlink:href="#path-3"/></mask><path id="Fill-5" fill="#FF7946" d="M306.168658,308.81029 C306.168658,314.739471 301.298097,319.594966 295.34519,319.594966 L228.287692,319.594966 C222.334784,319.594966 217.464223,314.739471 217.464223,308.81029 L217.464223,42.6322148 C217.464223,36.6986865 222.334784,31.847538 228.287692,31.847538 L295.34519,31.847538 C301.298097,31.847538 306.168658,36.6986865 306.168658,42.6322148 L306.168658,308.81029 Z"/><path id="Fill-34" fill="#CCD7EE" d="M6.3061575,12.617007 C2.94975411,12.617007 0.229353148,9.83467402 0.229353148,6.40185957 C0.229353148,2.9703156 2.94975411,0.187982644 6.3061575,0.187982644 L117.748624,0.187982644 C121.105027,0.187982644 123.825428,2.9703156 123.825428,6.40185957 C123.825428,9.83467402 121.105027,12.617007 117.748624,12.617007 L6.3061575,12.617007 Z"/><path id="Fill-36" fill="#CCD7EE" d="M7.69617059,41.0755723 C4.3410094,41.0755723 1.62060844,38.2932394 1.62060844,34.8604249 C1.62060844,31.428881 4.3410094,28.646548 7.69617059,28.646548 L51.0710386,28.646548 C54.427442,28.646548 57.1478429,31.428881 57.1478429,34.8604249 C57.1478429,38.2932394 54.427442,41.0755723 51.0710386,41.0755723 L7.69617059,41.0755723 Z"/><path id="Fill-7" fill="#AAC2FE" d="M92.4645083,308.580873 C92.4645083,314.510054 87.5939475,319.365549 81.6410398,319.365549 L14.5879062,319.365549 C8.6349985,319.365549 3.76443764,314.510054 3.76443764,308.580873 L3.76443764,203.563941 C3.76443764,197.63476 8.6349985,192.783611 14.5879062,192.783611 L81.6410398,192.783611 C87.5939475,192.783611 92.4645083,197.63476 92.4645083,203.563941 L92.4645083,308.580873 Z"/><path id="Fill-7-Copy" fill="#597EF7" d="M199.314401,308.675714 C199.314401,314.604896 194.44384,319.460391 188.490933,319.460391 L121.437799,319.460391 C115.484891,319.460391 110.61433,314.604896 110.61433,308.675714 L110.61433,116.500164 C110.61433,110.570982 115.484891,105.719834 121.437799,105.719834 L188.490933,105.719834 C194.44384,105.719834 199.314401,110.570982 199.314401,116.500164 L199.314401,308.675714 Z"/><path id="Fill-7-Copy-2" fill="#FFC53D" d="M413.018551,308.675714 C413.018551,314.604896 408.14799,319.460391 402.195082,319.460391 L335.141949,319.460391 C329.189041,319.460391 324.31848,314.604896 324.31848,308.675714 L324.31848,116.500164 C324.31848,110.570982 329.189041,105.719834 335.141949,105.719834 L402.195082,105.719834 C408.14799,105.719834 413.018551,110.570982 413.018551,116.500164 L413.018551,308.675714 Z"/></g><rect id="矩形-copy-14" width="180.893" height="482.38" x="60.298" y="154.512" fill="#597EF7" fill-rule="nonzero" rx="10.13"/><rect id="矩形-copy-15" width="104.308" height="25.739" x="97.983" y="346.711" fill="#FFF" fill-rule="nonzero" rx="5.754"/><rect id="矩形-copy-16" width="104.308" height="24.96" x="97.983" y="395.702" fill="#AAC2FE" fill-rule="nonzero" rx="5.667"/><rect id="矩形-copy-17" width="104.308" height="24.96" x="97.983" y="444.694" fill="#FF7946" fill-rule="nonzero" rx="5.667"/><rect id="矩形-copy-18" width="104.308" height="24.96" x="97.983" y="493.686" fill="#FFC53D" fill-rule="nonzero" rx="5.667"/><ellipse id="椭圆形" cx="152.115" cy="246.859" fill="#FFF" fill-rule="nonzero" rx="46.594" ry="47.124"/><path id="路径" fill="#253369" fill-rule="nonzero" d="M151.655553,293.908267 C165.084904,293.915812 177.829877,287.915676 186.4701,277.518104 C179.662141,264.446944 166.256017,256.264463 151.648273,256.264463 C137.040529,256.264463 123.634405,264.446944 116.826446,277.518104 C125.471193,287.917972 138.221555,293.918136 151.655553,293.908267 L151.655553,293.908267 Z"/><ellipse id="椭圆形" cx="149.425" cy="240.07" fill="#253369" fill-rule="nonzero" rx="17.524" ry="17.723"/></g></g></svg>