<?xml version="1.0" encoding="UTF-8"?>
<svg width="1024px" height="1024px" viewBox="0 0 1024 1024" version="1.1" xmlns="http://www.w3.org/2000/svg" xmlns:xlink="http://www.w3.org/1999/xlink">
    <!-- Generator: Sketch 61.2 (89653) - https://sketch.com -->
    <title>3.通用组件/彩色版/柱状图表01</title>
    <desc>Created with Sketch.</desc>
    <defs>
        <polygon id="path-1" points="0 0.70568387 799.87261 0.70568387 799.87261 100.462304 0 100.462304"></polygon>
        <polygon id="path-3" points="0 0.638866626 799.87261 0.638866626 799.87261 698.650476 0 698.650476"></polygon>
        <polygon id="path-5" points="338.396437 244.931892 636.330328 244.931892 636.330328 413.658327 338.396437 413.658327"></polygon>
        <polygon id="path-7" points="518.595561 471.560696 636.330328 471.560696 636.330328 640.285972 518.595561 640.285972"></polygon>
    </defs>
    <g id="3.通用组件/彩色版/柱状图表01" stroke="none" stroke-width="1" fill="none" fill-rule="evenodd">
        <g id="分组-copy-6" transform="translate(112.000000, 117.000000)">
            <g id="分组" transform="translate(0.000000, 0.466548)">
                <mask id="mask-2" fill="white">
                    <use xlink:href="#path-1"></use>
                </mask>
                <g id="Clip-2"></g>
                <path d="M799.87261,100.462304 L-0.000703812317,100.462304 L-0.000703812317,28.8389084 C-0.000703812317,13.3021409 12.6045748,0.7053322 28.1517889,0.7053322 L771.720117,0.7053322 C787.268504,0.7053322 799.87261,13.3021409 799.87261,28.8389084 L799.87261,100.462304 Z" id="Fill-1" fill="#253369" mask="url(#mask-2)"></path>
            </g>
            <g id="分组" transform="translate(0.000000, 91.900671)">
                <mask id="mask-4" fill="white">
                    <use xlink:href="#path-3"></use>
                </mask>
                <g id="Clip-4"></g>
                <path d="M771.720117,698.650476 L28.1517889,698.650476 C12.6045748,698.650476 -0.000703812317,686.054839 -0.000703812317,670.516899 L-0.000703812317,0.638866626 L799.87261,0.638866626 L799.87261,670.516899 C799.87261,686.054839 787.268504,698.650476 771.720117,698.650476" id="Fill-3" fill="#E4EBF7" mask="url(#mask-4)"></path>
            </g>
            <path d="M65.0026979,47.596267 C65.0026979,57.3468956 57.0918475,65.2524305 47.3334897,65.2524305 C37.576305,65.2524305 29.6666276,57.3468956 29.6666276,47.596267 C29.6666276,37.8456384 37.576305,29.9401035 47.3334897,29.9401035 C57.0918475,29.9401035 65.0026979,37.8456384 65.0026979,47.596267" id="Fill-5" fill="#FF7946"></path>
            <path d="M130.98393,47.596267 C130.98393,57.3468956 123.074252,65.2524305 113.315894,65.2524305 C103.55871,65.2524305 95.6490323,57.3468956 95.6490323,47.596267 C95.6490323,37.8456384 103.55871,29.9401035 113.315894,29.9401035 C123.074252,29.9401035 130.98393,37.8456384 130.98393,47.596267" id="Fill-7" fill="#FFC53D"></path>
            <path d="M196.966334,47.596267 C196.966334,57.3468956 189.056657,65.2524305 179.298299,65.2524305 C169.541114,65.2524305 161.631437,57.3468956 161.631437,47.596267 C161.631437,37.8456384 169.541114,29.9401035 179.298299,29.9401035 C189.056657,29.9401035 196.966334,37.8456384 196.966334,47.596267" id="Fill-9" fill="#BAE637"></path>
            <path d="M86.4515037,695.606305 C81.5990226,695.606305 77.6667449,691.678679 77.6667449,686.834388 L77.6667449,178.313171 C77.6667449,173.468879 81.5990226,169.541253 86.4515037,169.541253 L722.160578,169.541253 C727.011961,169.541253 730.945337,173.468879 730.945337,178.313171 L730.945337,686.834388 C730.945337,691.678679 727.011961,695.606305 722.160578,695.606305 L86.4515037,695.606305 Z" id="Fill-11" fill="#FFFFFF"></path>
            <mask id="mask-6" fill="white">
                <use xlink:href="#path-5"></use>
            </mask>
            <g id="Clip-4"></g>
            <mask id="mask-8" fill="white">
                <use xlink:href="#path-7"></use>
            </mask>
            <g id="Clip-6"></g>
            <path d="M531.58336,625.894282 C531.58336,633.79754 525.118714,640.269635 517.217479,640.269635 L428.212737,640.269635 C420.311502,640.269635 413.846856,633.79754 413.846856,625.894282 L413.846856,271.094236 C413.846856,263.185184 420.311502,256.718883 428.212737,256.718883 L517.217479,256.718883 C525.118714,256.718883 531.58336,263.185184 531.58336,271.094236 L531.58336,625.894282 Z" id="Fill-5" fill="#FF7946"></path>
            <path d="M133.578878,231.085692 C129.123957,231.085692 125.513196,227.377003 125.513196,222.801259 C125.513196,218.227208 129.123957,214.518519 133.578878,214.518519 L281.495343,214.518519 C285.950263,214.518519 289.561024,218.227208 289.561024,222.801259 C289.561024,227.377003 285.950263,231.085692 281.495343,231.085692 L133.578878,231.085692 Z" id="Fill-34" fill="#597EF7"></path>
            <path d="M135.423828,269.019321 C130.970556,269.019321 127.359796,265.310632 127.359796,260.734888 C127.359796,256.160837 130.970556,252.452147 135.423828,252.452147 L192.994854,252.452147 C197.449775,252.452147 201.060536,256.160837 201.060536,260.734888 C201.060536,265.310632 197.449775,269.019321 192.994854,269.019321 L135.423828,269.019321 Z" id="Fill-36" fill="#597EF7"></path>
            <path d="M247.935991,625.588483 C247.935991,633.49174 241.471344,639.963836 233.57011,639.963836 L144.57116,639.963836 C136.669925,639.963836 130.205279,633.49174 130.205279,625.588483 L130.205279,485.60696 C130.205279,477.703703 136.669925,471.237401 144.57116,471.237401 L233.57011,471.237401 C241.471344,471.237401 247.935991,477.703703 247.935991,485.60696 L247.935991,625.588483 Z" id="Fill-7" fill="#CCD7EE"></path>
            <path d="M389.756779,625.714901 C389.756779,633.618158 383.292133,640.090254 375.390898,640.090254 L286.391948,640.090254 C278.490714,640.090254 272.026067,633.618158 272.026067,625.714901 L272.026067,369.555958 C272.026067,361.652701 278.490714,355.1864 286.391948,355.1864 L375.390898,355.1864 C383.292133,355.1864 389.756779,361.652701 389.756779,369.555958 L389.756779,625.714901 Z" id="Fill-7-Copy" fill="#597EF7"></path>
            <path d="M673.404149,625.714901 C673.404149,633.618158 666.939503,640.090254 659.038268,640.090254 L570.039318,640.090254 C562.138083,640.090254 555.673437,633.618158 555.673437,625.714901 L555.673437,369.555958 C555.673437,361.652701 562.138083,355.1864 570.039318,355.1864 L659.038268,355.1864 C666.939503,355.1864 673.404149,361.652701 673.404149,369.555958 L673.404149,625.714901 Z" id="Fill-7-Copy-2" fill="#FFC53D"></path>
        </g>
    </g>
</svg>