<svg xmlns="http://www.w3.org/2000/svg" xmlns:xlink="http://www.w3.org/1999/xlink" width="1024" height="1024" version="1.1" viewBox="0 0 1024 1024"><title>3.通用组件/彩色版/桌子</title><desc>Created with Sketch.</desc><g id="3.通用组件/彩色版/桌子" fill="none" fill-rule="evenodd" stroke="none" stroke-width="1"><g id="编组-2" transform="translate(31.000000, 356.000000)"><g id="编组"><path id="Fill-1" fill="#CCD7EE" d="M949.99392,23.20974 L11.60568,23.20974 C5.19534,23.20974 -9.9475983e-14,18.01278 -9.9475983e-14,11.60406 C-9.9475983e-14,5.19534 5.19534,-5.55111512e-15 11.60568,-5.55111512e-15 L949.99392,-5.55111512e-15 C956.40426,-5.55111512e-15 961.5996,5.19534 961.5996,11.60406 C961.5996,18.01278 956.40426,23.20974 949.99392,23.20974"/><polygon id="Fill-3" fill="#597EF7" points="104.467 297.995 147.038 297.995 147.038 23.211 104.467 23.211"/><path id="Fill-5" fill="#253369" d="M165.04074,311.326092 L86.46426,311.326092 C86.46426,303.963192 92.43234,297.995112 99.79524,297.995112 L151.70976,297.995112 C159.07104,297.995112 165.04074,303.963192 165.04074,311.326092"/><path id="Fill-6" fill="#253369" d="M871.922394,311.326092 L793.345914,311.326092 C793.345914,303.963192 799.315614,297.995112 806.676894,297.995112 L858.591414,297.995112 C865.954314,297.995112 871.922394,303.963192 871.922394,311.326092"/><polygon id="Fill-7" fill="#597EF7" points="811.349 297.995 853.92 297.995 853.92 23.211 811.349 23.211"/></g></g></g></svg>