<svg xmlns="http://www.w3.org/2000/svg" xmlns:xlink="http://www.w3.org/1999/xlink" width="1024" height="1024" version="1.1" viewBox="0 0 1024 1024"><title>3.通用组件/彩色版/模块应用</title><desc>Created with Sketch.</desc><defs><polygon id="path-1" points="0 .542 141.6 .542 141.6 143.31 0 143.31"/></defs><g id="3.通用组件/彩色版/模块应用" fill="none" fill-rule="evenodd" stroke="none" stroke-width="1"><g id="分组" transform="translate(125.000000, 126.000000)"><path id="Fill-1" fill="#597EF7" d="M684.52644,553.89744 L305.32644,553.89744 C257.80644,553.89744 218.92644,515.01744 218.92644,467.49744 L218.92644,88.29744 C218.92644,40.77744 257.80644,1.89744 305.32644,1.89744 L684.52644,1.89744 C732.04644,1.89744 770.92644,40.77744 770.92644,88.29744 L770.92644,467.49744 C770.92644,515.01744 732.04644,553.89744 684.52644,553.89744"/><g transform="translate(0.000000, 0.657600)"><mask id="mask-2" fill="#fff"><use xlink:href="#path-1"/></mask><path id="Fill-3" fill="#7CB305" d="M119.34516,143.31024 L22.25436,143.31024 C10.01436,143.31024 0.00036,133.29504 0.00036,121.05624 L0.00036,22.79664 C0.00036,10.55664 10.01436,0.54144 22.25436,0.54144 L119.34516,0.54144 C131.58516,0.54144 141.60036,10.55664 141.60036,22.79664 L141.60036,121.05624 C141.60036,133.29504 131.58516,143.31024 119.34516,143.31024" mask="url(#mask-2)"/></g><path id="Fill-5" fill="#FF7946" d="M654.74988,771.0576 C642.50988,771.0576 632.49588,761.0424 632.49588,748.8036 L632.49588,650.544 C632.49588,638.304 642.50988,628.2888 654.74988,628.2888 L751.84068,628.2888 C764.08068,628.2888 774.09588,638.304 774.09588,650.544 L774.09588,748.8036 C774.09588,761.0424 764.08068,771.0576 751.84068,771.0576 L654.74988,771.0576 Z"/><path id="Fill-7" fill="#FFC53D" d="M90.3006,769.82064 C42.7806,769.82064 3.9006,730.94064 3.9006,683.42064 L3.9006,304.22064 C3.9006,256.70064 42.7806,217.82064 90.3006,217.82064 L469.5006,217.82064 C517.0206,217.82064 555.9006,256.70064 555.9006,304.22064 L555.9006,683.42064 C555.9006,730.94064 517.0206,769.82064 469.5006,769.82064 L90.3006,769.82064 Z"/></g></g></svg>