<?xml version="1.0" encoding="UTF-8"?>
<svg width="1024px" height="1024px" viewBox="0 0 1024 1024" version="1.1" xmlns="http://www.w3.org/2000/svg" xmlns:xlink="http://www.w3.org/1999/xlink">
    <!-- Generator: Sketch 61.2 (89653) - https://sketch.com -->
    <title>3.通用组件/彩色版/电脑</title>
    <desc>Created with Sketch.</desc>
    <g id="3.通用组件/彩色版/电脑" stroke="none" stroke-width="1" fill="none" fill-rule="evenodd">
        <g id="分组" transform="translate(56.000000, 123.000000)">
            <g transform="translate(0.000000, 0.631071)">
                <path d="M32.8663018,775.607143 C15.1525339,775.607143 0.7915875,761.247214 0.7915875,743.532429 C0.7915875,725.818661 15.1525339,711.458732 32.8663018,711.458732 L878.935623,711.458732 C896.649391,711.458732 911.010338,725.818661 911.010338,743.532429 C911.010338,761.247214 896.649391,775.607143 878.935623,775.607143 L32.8663018,775.607143 Z" id="Fill-4" fill="#E4EBF7"></path>
                <path d="M25.9227857,775.607143 C12.0432857,775.607143 0.791892857,761.247214 0.791892857,743.532429 L911.009625,743.532429 C911.009625,761.247214 899.75925,775.607143 885.87975,775.607143 L25.9227857,775.607143 Z" id="Fill-6" fill="#A3B5D6"></path>
                <path d="M578.601911,711.458427 L553.681714,724.408623 C547.160304,727.798087 540.184929,729.541677 533.143393,729.541677 L368.888732,729.541677 C360.602357,729.541677 352.424893,727.12732 344.979268,722.484873 L327.298071,711.458427 L578.601911,711.458427 Z" id="Fill-8" fill="#CCD7EE"></path>
                <path d="M887.571429,651.815459 L24.4285714,651.815459 C10.936875,651.815459 0,640.878584 0,627.386887 L0,24.8154589 C0,11.3237625 10.936875,0.3868875 24.4285714,0.3868875 L887.571429,0.3868875 C901.063125,0.3868875 912,11.3237625 912,24.8154589 L912,627.386887 C912,640.878584 901.063125,651.815459 887.571429,651.815459" id="Fill-10" fill="#E4EBF7"></path>
                <path d="M40.6742839,612.75 C36.1773911,612.75 32.5314268,609.104036 32.5314268,604.607143 L32.5314268,48.6810536 C32.5314268,44.1841607 36.1773911,40.5381964 40.6742839,40.5381964 L871.186677,40.5381964 C875.68357,40.5381964 879.329534,44.1841607 879.329534,48.6810536 L879.329534,604.607143 C879.329534,609.104036 875.68357,612.75 871.186677,612.75 L40.6742839,612.75 Z" id="Fill-12" fill="#253369"></path>
                <path d="M260.148407,613.007416 L40.2729429,613.007416 C35.7862286,613.007416 32.1484071,609.370612 32.1484071,604.88288 L32.1484071,83.7217018 L260.148407,83.7217018 L260.148407,613.007416 Z" id="Fill-14" fill="#597EF7"></path>
                <path d="M200.870646,337.527434 L85.1331643,337.527434 C81.0597,337.527434 77.7567536,334.224487 77.7567536,330.151023 L77.7567536,311.957845 C77.7567536,307.88438 81.0597,304.582452 85.1331643,304.582452 L200.870646,304.582452 C204.944111,304.582452 208.247057,307.88438 208.247057,311.957845 L208.247057,330.151023 C208.247057,334.224487 204.944111,337.527434 200.870646,337.527434" id="Fill-16" fill="#FFFFFF"></path>
                <path d="M200.983221,401.037139 L85.0207929,401.037139 C81.0094179,401.037139 77.7563464,397.785086 77.7563464,393.773711 L77.7563464,376.353086 C77.7563464,372.341711 81.0094179,369.089657 85.0207929,369.089657 L200.983221,369.089657 C204.994596,369.089657 208.24665,372.341711 208.24665,376.353086 L208.24665,393.773711 C208.24665,397.785086 204.994596,401.037139 200.983221,401.037139" id="Fill-18" fill="#FFFFFF"></path>
                <path d="M200.983221,465.0459 L85.0207929,465.0459 C81.0094179,465.0459 77.7563464,461.793846 77.7563464,457.782471 L77.7563464,440.361846 C77.7563464,436.350471 81.0094179,433.098418 85.0207929,433.098418 L200.983221,433.098418 C204.994596,433.098418 208.24665,436.350471 208.24665,440.361846 L208.24665,457.782471 C208.24665,461.793846 204.994596,465.0459 200.983221,465.0459" id="Fill-20" fill="#FFFFFF"></path>
                <path d="M208.144763,196.243875 C208.144763,232.221054 178.979084,261.386732 143.001905,261.386732 C107.024727,261.386732 77.8590482,232.221054 77.8590482,196.243875 C77.8590482,160.266696 107.024727,131.101018 143.001905,131.101018 C178.979084,131.101018 208.144763,160.266696 208.144763,196.243875" id="Fill-22" fill="#FFFFFF"></path>
                <path d="M143.002109,261.386732 C162.536823,261.386732 180.007323,252.580232 191.685198,238.729232 C182.46443,221.260768 164.128752,209.347768 143.002109,209.347768 C121.875466,209.347768 103.539788,221.260768 94.3190196,238.729232 C105.996895,252.580232 123.467395,261.386732 143.002109,261.386732" id="Fill-24" fill="#253369"></path>
                <path d="M167.8365,187.446536 C167.8365,200.975893 156.869089,211.942286 143.34075,211.942286 C129.811393,211.942286 118.843982,200.975893 118.843982,187.446536 C118.843982,173.917179 129.811393,162.949768 143.34075,162.949768 C156.869089,162.949768 167.8365,173.917179 167.8365,187.446536" id="Fill-26" fill="#253369"></path>
                <path d="M578.495341,584.901021 L274.495002,584.901021 C267.777145,584.901021 262.280716,579.404593 262.280716,572.686736 L262.280716,95.0135036 C262.280716,88.2966643 267.777145,82.7992179 274.495002,82.7992179 L578.495341,82.7992179 C585.213198,82.7992179 590.709627,88.2966643 590.709627,95.0135036 L590.709627,572.686736 C590.709627,579.404593 585.213198,584.901021 578.495341,584.901021" id="Fill-28" fill="#253369"></path>
                <g id="分组-2" transform="translate(259.666667, 83.600000)">
                    <path d="M0.160911905,529.407416 L0.160911905,0.121701786 L621.121965,0.121701786 L621.121965,521.264559 C621.121965,525.761452 617.476001,529.407416 612.979108,529.407416 L0.160911905,529.407416 Z" id="Fill-30" fill="#FFFFFF"></path>
                    <path d="M61.4121958,400.926668 C56.9142851,400.926668 53.2693387,397.280704 53.2693387,392.783811 L53.2693387,62.0514893 C53.2693387,57.5535786 56.9142851,53.9086321 61.4121958,53.9086321 L562.718035,53.9086321 C567.214928,53.9086321 570.860892,57.5535786 570.860892,62.0514893 L570.860892,392.783811 C570.860892,397.280704 567.214928,400.926668 562.718035,400.926668 L61.4121958,400.926668 Z" id="Fill-32" fill="#FFC53D"></path>
                    <path d="M88.5210905,101.75087 C85.7708405,101.75087 83.5417333,99.5217625 83.5417333,96.7715125 C83.5417333,94.0222804 85.7708405,91.7931732 88.5210905,91.7931732 L124.061608,91.7931732 C126.811858,91.7931732 129.040965,94.0222804 129.040965,96.7715125 C129.040965,99.5217625 126.811858,101.75087 124.061608,101.75087 L88.5210905,101.75087 Z" id="Fill-34" fill="#253369"></path>
                    <path d="M89.0953655,125.644659 C86.3461333,125.644659 84.1170262,123.415552 84.1170262,120.665302 C84.1170262,117.91607 86.3461333,115.686962 89.0953655,115.686962 L124.636901,115.686962 C127.387151,115.686962 129.616258,117.91607 129.616258,120.665302 C129.616258,123.415552 127.387151,125.644659 124.636901,125.644659 L89.0953655,125.644659 Z" id="Fill-36" fill="#253369"></path>
                    <path d="M53.2703565,309.283798 C107.137392,309.283798 92.8342885,241.02651 174.417421,241.02651 C256.000553,241.02651 251.75191,302.045714 315.380196,302.045714 C380,302.045714 375.725226,126.787679 437.633333,126.787679 C502.98078,126.787679 488.230232,285.596362 569.628267,285.596362 L569.628267,393.221388 C569.628267,397.721334 565.978232,401.368316 561.478285,401.364248 L61.4060887,400.933691 C56.9122494,400.92962 53.2703565,397.285691 53.2703565,392.790834 L53.2703565,309.283798 Z" id="Fill-38" fill="#253369"></path>
                    <path d="M381.452695,295.620679 L389.41874,287.396927 C392.153431,284.580225 394.263176,282.444995 396.3334,280.41279 C412.860637,264.189064 425.44695,256.717751 440.781599,256.717751 C456.694429,256.717751 470.627121,264.729426 489.594392,282.061373 L490.19504,282.611797 C491.84625,284.129195 493.550734,285.725394 495.499054,287.574969 L505.065537,296.733217 C517.861313,308.941475 525.688262,315.618071 534.632992,321.370019 C546.156551,328.780295 557.280488,332.660766 568.966013,332.801946 L569.628064,332.805943 L569.628064,338.505943 C556.5065,338.505943 544.149403,334.266406 531.550004,326.164306 L530.665098,325.590144 C521.998068,319.915864 514.291605,313.361393 502.372777,302.039703 L493.073624,293.13584 L490.633223,290.816968 C489.08952,289.357639 487.694132,288.054844 486.338179,286.808775 L485.189298,285.758869 C467.488732,269.675374 454.724006,262.417751 440.781599,262.417751 C427.325558,262.417751 415.881514,269.211006 400.326385,284.480475 L398.953518,285.837623 C397.444568,287.33948 395.842673,288.966318 393.928544,290.93497 L385.530809,299.603014 L384.225721,300.93458 C372.598604,312.752303 364.120257,320.117033 354.30639,326.190604 C341.252994,334.269043 327.559202,338.505943 312.192653,338.505943 C287.137214,338.505943 267.413842,328.009858 251.700965,308.26546 C239.325456,292.714711 229.98716,272.633364 220.542829,244.263734 L219.811278,242.044276 C216.501744,231.869058 208.055596,204.249436 207.821837,203.508975 L207.301101,201.867066 C201.870722,184.825593 197.59827,174.002808 192.758318,165.95334 C187.039333,156.441923 180.956156,151.848876 173.749832,151.848876 C164.9512,151.848876 157.606347,157.965783 150.818571,170.473796 L150.412945,171.229229 C145.160173,181.116234 140.681049,193.639448 134.550973,214.351271 L126.377153,242.459479 L125.58831,245.111523 C116.896551,274.150369 109.577058,292.899666 99.909328,308.025627 C87.3205652,327.721787 71.7931315,338.293307 52.0330093,338.502768 L51.4329208,338.505943 L51.4329208,332.805943 C69.3078403,332.805943 83.3532603,323.344877 95.1065242,304.955924 C104.517494,290.231685 111.741182,271.619854 120.418848,242.50212 L121.772175,237.906523 C123.943952,230.469759 127.707813,217.425428 128.123598,216.003409 L129.095873,212.697878 C135.408274,191.371346 140.019623,178.531871 145.596473,168.148228 L145.808722,167.75508 C153.488626,153.60312 162.439281,146.148876 173.749832,146.148876 C183.298781,146.148876 190.995717,151.960378 197.643276,163.016132 L198.129543,163.836433 C203.132748,172.396821 207.48714,183.59738 212.990224,200.948607 L220.717715,225.97388 C222.681203,232.286574 224.5459,238.217228 225.60909,241.432703 C234.977988,269.76767 244.148793,289.621848 256.161009,304.716092 C270.839704,323.160965 288.963748,332.805943 312.192653,332.805943 C326.450724,332.805943 339.119333,328.886238 351.306769,321.343721 C360.996432,315.347017 369.445109,307.917059 381.452695,295.620679 Z" id="Stroke-40" fill="#FFFFFF" fill-rule="nonzero"></path>
                    <path d="M560.817289,445.854486 C562.706103,445.854486 564.237289,447.385672 564.237289,449.274486 C564.237289,451.10034 562.80648,452.59201 561.004935,452.689426 L560.817289,452.694486 L58.7154851,452.694486 C56.8266713,452.694486 55.2954851,451.1633 55.2954851,449.274486 C55.2954851,447.448633 56.7262935,445.956963 58.5278393,445.859547 L58.7154851,445.854486 L560.817289,445.854486 Z" id="Stroke-42" fill="#597EF7" fill-rule="nonzero"></path>
                    <path d="M480.572485,480.245131 C482.461299,480.245131 483.992485,481.776317 483.992485,483.665131 C483.992485,485.490984 482.561677,486.982655 480.760131,487.08007 L480.572485,487.085131 L58.7154851,487.085131 C56.8266713,487.085131 55.2954851,485.553945 55.2954851,483.665131 C55.2954851,481.839278 56.7262935,480.347607 58.5278393,480.250191 L58.7154851,480.245131 L480.572485,480.245131 Z" id="Stroke-44" fill="#597EF7" fill-rule="nonzero"></path>
                </g>
            </g>
        </g>
    </g>
</svg>