<svg xmlns="http://www.w3.org/2000/svg" xmlns:xlink="http://www.w3.org/1999/xlink" width="1024" height="1024" version="1.1" viewBox="0 0 1024 1024"><title>3.通用组件/彩色版/盆栽03</title><desc>Created with Sketch.</desc><g id="3.通用组件/彩色版/盆栽03" fill="none" fill-rule="evenodd" stroke="none" stroke-width="1"><g id="分组" transform="translate(312.000000, 62.000000)"><g id="Fill-1" fill="#BAE637"><path d="M132.999896,521.938937 L0.0534025974,521.938937 L0.0534025974,66.4480199 C0.0534025974,30.1929563 29.6585974,0.801920628 66.1791169,0.801920628 L66.8731429,0.801920628 C103.393662,0.801920628 132.999896,30.1929563 132.999896,66.4480199 L132.999896,521.938937 Z" transform="translate(167.111111, 0.000000)"/></g><path id="Fill-3" fill="#389E0D" d="M366.222222,633.431085 L232.888889,633.431085 L232.888889,395.583286 C232.888889,360.285644 261.840972,331.671554 297.555556,331.671554 L301.556597,331.671554 C337.270139,331.671554 366.222222,360.285644 366.222222,395.583286 L366.222222,633.431085 Z"/><path id="Fill-5" fill="#7CB305" d="M186.666667,521.70088 L52.4444444,521.70088 L52.4444444,263.10148 C52.4444444,227.604129 81.4724093,198.826979 117.279148,198.826979 L121.831963,198.826979 C157.638702,198.826979 186.666667,227.604129 186.666667,263.10148 L186.666667,521.70088 Z"/><g id="Fill-7" fill="#253369"><path d="M374.153232,393.619791 L24.989154,393.619791 C11.1878525,393.619791 0,382.54795 0,368.889759 L0,25.4122726 C0,11.7540815 11.1878525,0.682239779 24.989154,0.682239779 L374.153232,0.682239779 C387.954534,0.682239779 399.142386,11.7540815 399.142386,25.4122726 L399.142386,368.889759 C399.142386,382.54795 387.954534,393.619791 374.153232,393.619791" transform="translate(0.000000, 505.865103)"/></g></g></g></svg>