<?xml version="1.0" encoding="UTF-8"?>
<svg width="1024px" height="1024px" viewBox="0 0 1024 1024" version="1.1" xmlns="http://www.w3.org/2000/svg" xmlns:xlink="http://www.w3.org/1999/xlink">
    <!-- Generator: Sketch 61.2 (89653) - https://sketch.com -->
    <title>3.通用组件/彩色版/盆栽02</title>
    <desc>Created with Sketch.</desc>
    <defs>
        <polygon id="path-1" points="0.0762258814 0.389734513 310.705093 0.389734513 310.705093 516.294073 0.0762258814 516.294073"></polygon>
        <polygon id="path-3" points="0 0.0973035679 276.381447 0.0973035679 276.381447 444.176979 0 444.176979"></polygon>
        <polygon id="path-5" points="0.390584071 0.90700885 310.68085 0.90700885 310.68085 241.061947 0.390584071 241.061947"></polygon>
    </defs>
    <g id="3.通用组件/彩色版/盆栽02" stroke="none" stroke-width="1" fill="none" fill-rule="evenodd">
        <g id="分组-2" transform="translate(235.000000, 62.000000)">
            <g id="分组">
                <g transform="translate(240.000000, 0.672212)">
                    <mask id="mask-2" fill="white">
                        <use xlink:href="#path-1"></use>
                    </mask>
                    <g id="Clip-2"></g>
                    <path d="M158.073664,12.9438584 C277.776319,-43.6759646 349.118973,104.817133 288.918265,187.496071 C215.453841,288.389522 177.821628,404.481558 156.865168,439.458903 C139.186938,468.965097 90.7610973,540.900319 32.448531,507.744212 C-21.2169558,477.23023 8.03224779,357.47023 8.03224779,357.47023 C8.03224779,357.47023 10.4025133,82.792354 158.073664,12.9438584 Z" id="Fill-1" fill="#389E0D" mask="url(#mask-2)"></path>
                </g>
                <path d="M465.856885,489.527469 C419.82892,543.466938 353.408389,651.973487 311.797062,613.970655 C286.577947,590.940212 320.292637,481.870832 412.579009,422.527115 C491.079186,372.048531 511.885912,435.588 465.856885,489.527469 Z" id="Fill-3" fill="#BAE637"></path>
                <path d="M38.0270442,485.358796 C-2.66782301,430.45508 -17.5265841,351.664991 27.8960708,331.460389 C71.4454513,312.090478 143.584566,359.784637 176.998726,451.576142 C210.411823,543.366584 229.689345,609.362336 197.004743,620.836673 C143.379611,639.662867 91.7774867,557.874903 38.0270442,485.358796" id="Fill-5" fill="#389E0D"></path>
                <g transform="translate(0.000000, 103.681062)">
                    <mask id="mask-4" fill="white">
                        <use xlink:href="#path-3"></use>
                    </mask>
                    <g id="Clip-8"></g>
                    <path d="M25.4106903,11.5332743 C42.9136991,-0.242654867 64.9342301,-2.93256637 85.0252035,3.50283186 C113.06485,12.4837168 155.616,39.2246018 197.729628,115.978938 C252.711929,216.189558 281.334584,326.047965 275.676531,395.636283 C271.97777,441.144956 215.912283,460.764425 184.547681,427.582832 C170.143434,412.342832 154.902372,388.852566 139.990513,353.215752 C79.9788319,209.807257 23.8719292,119.94 17.1806018,110.916637 C-0.671787611,86.8380531 -13.4363894,37.6709735 25.4106903,11.5332743" id="Fill-7" fill="#BAE637" mask="url(#mask-4)"></path>
                </g>
                <path d="M141.099204,500.012443 C142.298209,498.86896 144.197171,498.91397 145.340654,500.112974 L145.88929,500.705266 L146.304909,501.16564 C147.061398,502.009712 147.935196,503.01708 148.916495,504.187376 C151.705021,507.512967 154.805694,511.485676 158.14,516.102544 C167.642308,529.259974 177.135445,544.95723 185.990174,563.17016 C211.259382,615.145361 226.414619,676.879728 226.414619,748.147327 C226.414619,749.804182 225.071474,751.147327 223.414619,751.147327 C221.757765,751.147327 220.414619,749.804182 220.414619,748.147327 C220.414619,677.820104 205.477998,616.976263 180.594109,565.793609 C171.895255,547.901291 162.580979,532.499789 153.275876,519.615419 C150.218663,515.382231 147.370993,511.715082 144.798071,508.616766 L144.318883,508.042498 C143.588843,507.171853 142.924135,506.399091 142.329364,505.724408 L141.57727,504.881899 C141.298477,504.573815 141.104077,504.364414 140.998674,504.253893 C139.85519,503.054888 139.9002,501.155927 141.099204,500.012443 Z" id="Stroke-9" fill="#253369" fill-rule="nonzero"></path>
                <path d="M367.748974,521.010348 C368.740226,519.682724 370.620046,519.41004 371.94767,520.401292 C373.275294,521.392544 373.547977,523.272365 372.556725,524.599989 C361.630259,539.234247 351.546598,554.968774 342.273538,571.647902 C322.670572,606.907073 307.514836,644.709138 296.265725,682.51358 C292.328554,695.745074 289.161802,708.028562 286.696718,719.046687 L286.197621,721.304853 C285.609373,724.000253 285.100601,726.457438 284.667904,728.660769 L284.388748,730.10227 L283.890685,732.82323 C283.615614,734.457091 282.068118,735.558607 280.434257,735.283535 C278.800396,735.008463 277.69888,733.460968 277.973952,731.827107 L278.144493,730.861031 C278.285477,730.081512 278.457554,729.163373 278.661815,728.111555 L279.157705,725.613994 C279.640304,723.232985 280.200411,720.602023 280.841471,717.736693 L281.386811,715.328377 C283.797051,704.809239 286.821042,693.216238 290.51492,680.802368 C301.880647,642.606019 317.195414,604.407293 337.029513,568.732393 C346.42875,551.826313 356.656517,535.866923 367.748974,521.010348 Z" id="Stroke-11" fill="#253369" fill-rule="nonzero"></path>
                <path d="M420.173895,146.722519 C421.322319,147.823004 421.405564,149.6172 420.396179,150.817363 L420.264313,150.964196 C420.205421,151.025654 420.078582,151.160171 419.885984,151.367802 L419.148514,152.17295 L418.719611,152.648778 C417.42871,154.087941 415.927275,155.820874 414.232809,157.848007 C409.375153,163.659347 403.955295,170.652779 398.113216,178.83176 C381.394725,202.237847 364.66599,230.428647 349.045879,263.43258 C323.038705,318.383471 302.783728,381.056464 290.507728,451.513642 C275.601207,537.068491 273.132635,630.530663 285.334493,731.967091 C285.53237,733.612087 284.359249,735.106031 282.714254,735.303909 C281.069258,735.501786 279.575314,734.328665 279.377437,732.68367 C267.105653,630.665929 269.589765,536.615367 284.596777,450.483756 C296.967362,379.48372 317.38887,316.295446 343.622605,260.865852 C359.399254,227.531168 376.309905,199.033807 393.230801,175.344351 L394.542007,173.518518 C399.758804,166.293587 404.636512,160.009406 409.076561,154.663326 L409.629281,153.999952 C411.223873,152.0923 412.656778,150.432864 413.914488,149.021279 L414.253146,148.642447 C414.645738,148.204764 414.997311,147.818163 415.306596,147.482609 L415.932218,146.812937 C417.078557,145.616662 418.97762,145.57618 420.173895,146.722519 Z" id="Stroke-13" fill="#253369" fill-rule="nonzero"></path>
                <path d="M160.49864,324.626859 C161.915621,323.76818 163.760408,324.220773 164.619088,325.637755 L164.920376,326.143372 C165.16027,326.549571 165.442394,327.03365 165.765237,327.595134 L166.236124,328.41852 C167.040854,329.832981 167.944704,331.458053 168.940681,333.291539 L169.765526,334.818607 C172.816739,340.499044 176.16056,347.071886 179.731098,354.516439 L180.219389,355.537007 C191.864638,379.935697 203.5046,408.466909 214.365398,440.887625 C244.775686,531.665793 263.276243,634.699209 263.968574,748.128915 C263.978514,749.785739 262.64359,751.137055 260.986766,751.147335 C259.329943,751.157276 257.978626,749.822351 257.968516,748.165527 C257.280406,635.399719 238.892146,532.991711 208.676141,442.793501 C198.090993,411.19563 186.766781,383.335599 175.434134,359.44465 L174.804539,358.12146 C170.9309,350.005556 167.325259,342.923606 164.073034,336.902641 L163.093535,335.101842 C162.15417,333.387328 161.308583,331.881275 160.563761,330.585894 L160.210003,329.973537 L159.487744,328.747307 C158.629065,327.330326 159.081658,325.485539 160.49864,324.626859 Z" id="Stroke-15" fill="#253369" fill-rule="nonzero"></path>
                <path d="M65.6594336,172.415257 C66.2530619,179.496319 60.9943009,185.717204 53.9143009,186.310832 C46.8332389,186.905522 40.612354,181.646761 40.0176637,174.565699 C39.4240354,167.485699 44.6827965,161.264814 51.7638584,160.670124 C58.8438584,160.076496 65.0647434,165.335257 65.6594336,172.415257" id="Fill-17" fill="#FFFFFF"></path>
                <path d="M174.938867,227.345628 C175.533558,234.425628 170.274796,240.647575 163.193735,241.241204 C156.112673,241.835894 149.891788,236.577133 149.297097,229.496071 C148.703469,222.416071 153.96223,216.195186 161.043292,215.600496 C168.123292,215.006867 174.345239,220.265628 174.938867,227.345628" id="Fill-19" fill="#FFFFFF"></path>
                <path d="M156.623363,373.600779 C157.304071,381.709805 151.28177,388.834407 143.172743,389.514053 C135.063717,390.194761 127.939115,384.17246 127.259469,376.063434 C126.578761,367.955469 132.601062,360.830867 140.710088,360.150159 C148.818053,359.469451 155.942655,365.491752 156.623363,373.600779" id="Fill-21" fill="#FFFFFF"></path>
                <path d="M492.275894,155.028531 C492.275894,166.53685 482.947752,175.866053 471.439434,175.866053 C459.931115,175.866053 450.602973,166.53685 450.602973,155.028531 C450.602973,143.521274 459.931115,134.192071 471.439434,134.192071 C482.947752,134.192071 492.275894,143.521274 492.275894,155.028531" id="Fill-23" fill="#FFFFFF"></path>
                <path d="M324.535965,218.657735 C324.535965,230.164991 315.206761,239.494195 303.699504,239.494195 C292.191186,239.494195 282.863044,230.164991 282.863044,218.657735 C282.863044,207.150478 292.191186,197.821274 303.699504,197.821274 C315.206761,197.821274 324.535965,207.150478 324.535965,218.657735" id="Fill-25" fill="#FFFFFF"></path>
                <path d="M378.862195,360.097805 C378.862195,364.907363 374.962726,368.806832 370.153168,368.806832 C365.343611,368.806832 361.444142,364.907363 361.444142,360.097805 C361.444142,355.287186 365.343611,351.387717 370.153168,351.387717 C374.962726,351.387717 378.862195,355.287186 378.862195,360.097805" id="Fill-27" fill="#FFFFFF"></path>
                <line x1="174.618372" y1="855.678584" x2="364.480673" y2="855.678584" id="Fill-29" fill="#A3B5D6"></line>
                <path d="M441.605204,471.476177 C441.605204,478.581664 435.844142,484.341664 428.739717,484.341664 C421.633168,484.341664 415.87423,478.581664 415.87423,471.476177 C415.87423,464.37069 421.633168,458.61069 428.739717,458.61069 C435.844142,458.61069 441.605204,464.37069 441.605204,471.476177" id="Fill-31" fill="#FFFFFF"></path>
                <g transform="translate(106.194690, 655.893451)">
                    <mask id="mask-6" fill="white">
                        <use xlink:href="#path-5"></use>
                    </mask>
                    <g id="Clip-34"></g>
                    <path d="M285.194124,241.062053 L25.8773097,241.062053 C11.8596106,241.062053 0.390584071,229.593027 0.390584071,215.575327 L0.390584071,26.3937345 C0.390584071,12.3749735 11.8596106,0.90700885 25.8773097,0.90700885 L285.194124,0.90700885 C299.210761,0.90700885 310.68085,12.3749735 310.68085,26.3937345 L310.68085,215.575327 C310.68085,229.593027 299.210761,241.062053 285.194124,241.062053" id="Fill-33" fill="#253369" mask="url(#mask-6)"></path>
                </g>
            </g>
        </g>
    </g>
</svg>