<?xml version="1.0" encoding="UTF-8"?>
<svg width="1024px" height="1024px" viewBox="0 0 1024 1024" version="1.1" xmlns="http://www.w3.org/2000/svg" xmlns:xlink="http://www.w3.org/1999/xlink">
    <!-- Generator: Sketch 61.2 (89653) - https://sketch.com -->
    <title>3.通用组件/彩色版/盆栽01</title>
    <desc>Created with Sketch.</desc>
    <defs>
        <polygon id="path-1" points="0 0.989773557 230.2441 0.989773557 230.2441 139 0 139"></polygon>
        <polygon id="path-3" points="0.2443 0.292088278 234.465 0.292088278 234.465 116.50319 0.2443 116.50319"></polygon>
        <polygon id="path-5" points="0.2443 0.445739873 222.465 0.445739873 222.465 106.50319 0.2443 106.50319"></polygon>
    </defs>
    <g id="3.通用组件/彩色版/盆栽01" stroke="none" stroke-width="1" fill="none" fill-rule="evenodd">
        <g id="编组-3" transform="translate(266.000000, 92.000000)">
            <g id="编组">
                <g transform="translate(0.000000, 382.059000)">
                    <mask id="mask-2" fill="white">
                        <use xlink:href="#path-1"></use>
                    </mask>
                    <g id="Clip-2"></g>
                    <path d="M0.2441,139 C0.2441,139 -9.7559,59 98.2441,23 C206.2441,-13 230.2441,6 230.2441,6 L220.2441,38 C220.2441,38 203.2441,118 125.2441,129 C47.2441,140 17.2441,124 0.2441,139" id="Fill-1" fill="#7CB305" mask="url(#mask-2)"></path>
                </g>
                <path d="M218.664583,391.832164 L221.823617,394.285836 L221.562095,394.613619 C221.447977,394.754193 221.306881,394.925725 221.138698,395.127145 L220.639188,395.717958 C220.288189,396.128288 219.901179,396.571264 219.477999,397.045288 L219.153829,397.406603 C216.959199,399.840815 214.310817,402.547625 211.201805,405.458527 C202.340552,413.755128 191.555391,422.04419 178.791831,429.776204 C153.159987,445.303674 122.894481,456.590394 87.8322076,461.846351 L86.5314113,462.038255 C62.9311617,465.464098 44.1246746,473.303869 29.5568644,484.212588 C22.5684135,489.445704 17.0222844,495.043724 12.7712633,500.630321 C11.2915675,502.574904 10.0809502,504.374949 9.121284,505.982994 L8.80795629,506.516955 C8.66052587,506.772753 8.52688261,507.011612 8.40674321,507.232787 L8.07162533,507.873667 L8.05157568,507.915173 L4.43662432,506.202827 L4.54694693,505.976896 C4.77583051,505.519848 5.1518485,504.828931 5.68645829,503.933123 C6.72150847,502.198762 8.01572676,500.274412 9.58804455,498.208107 C14.0570621,492.335025 19.8643873,486.473365 27.1592759,481.010781 C42.0446116,469.864291 61.1388097,461.833994 84.9198801,458.233492 L85.9567945,458.079744 C121.026923,452.989023 151.217845,441.803484 176.719306,426.355 C189.2375,418.771626 199.803057,410.651343 208.467939,402.538599 C211.291398,399.895055 213.717982,397.431083 215.752918,395.202164 L216.182983,394.728157 C216.815569,394.026512 217.367454,393.394046 217.839144,392.836135 L218.367171,392.202245 L218.664583,391.832164 Z" id="Stroke-3" fill="#BAE637" fill-rule="nonzero"></path>
                <path d="M217.2441,575.059 L230.2441,575.059 L230.2441,388.059 L217.2441,388.059 L220.7471,445.517 C221.7441,461.866 221.8531,478.258 221.0751,494.619 L217.2441,575.059 Z" id="Fill-5" fill="#7CB305"></path>
                <g id="编组-2" transform="translate(17.022900, 212.351088)">
                    <path d="M6.82121026e-13,34.9071117 C6.82121026e-13,34.9071117 39.805,-25.6218883 134.637,12.7311117 C229.468,51.0831117 234.221,81.7081117 234.221,81.7081117 L209.306,94.1151117 C209.306,94.1151117 151.041,138.903112 91.296,100.948112 C31.552,62.9931117 20.369,34.5621117 6.82121026e-13,34.9071117" id="Fill-7" fill="#7CB305"></path>
                    <path d="M221.2212,414.707912 L231.2212,414.707912 L235.1392,84.6039117 C235.1872,80.5329117 232.5052,76.9319117 228.5902,75.8129117 L221.2212,73.7079117 C221.2212,73.7079117 223.7322,104.379912 223.2212,142.706912 C222.7322,179.371912 219.2212,222.999912 219.2212,255.312912 C219.2212,346.707912 221.2212,414.707912 221.2212,414.707912" id="Fill-9" fill="#7CB305"></path>
                    <path d="M135.221,32.7081117 C178.375,66.2001117 222.221,87.7081117 222.221,87.7081117 L209.306,94.1151117 C209.306,94.1151117 151.041,138.903112 91.296,100.948112 C31.552,62.9931117 20.369,34.5621117 6.82121026e-13,34.9071117 C6.82121026e-13,34.9071117 68.221,-19.2918883 135.221,32.7081117 Z" id="Fill-11" fill="#389E0D"></path>
                </g>
                <g id="编组-2备份" transform="translate(405.500000, 507.000000) scale(-1, 1) translate(-405.500000, -507.000000) translate(326.000000, 367.000000)" fill="#7CB305">
                    <path d="M0,23.4293856 C0,23.4293856 26.8515206,-17.1972148 90.8229663,8.54502451 C154.793738,34.2865926 158,54.8418577 158,54.8418577 L141.192925,63.1693409 C141.192925,63.1693409 101.88872,93.2307028 61.586143,67.755598 C21.2842401,42.2804933 13.7404503,23.1978242 0,23.4293856" id="Fill-7"></path>
                    <path d="M149.382028,280 L156.292169,280 L158.999562,57.3492082 C159.032731,54.6033724 157.179431,52.1745455 154.474111,51.4197947 L149.382028,50 C149.382028,50 151.117164,70.6878592 150.764056,96.538915 C150.42615,121.268974 148,150.695484 148,172.490176 C148,234.134897 149.382028,280 149.382028,280" id="Fill-9"></path>
                </g>
                <g transform="translate(258.000000, 135.059000)">
                    <mask id="mask-4" fill="white">
                        <use xlink:href="#path-3"></use>
                    </mask>
                    <g id="Clip-14"></g>
                    <path d="M234.4653,35.1992 C234.4653,35.1992 194.6603,-25.3298 99.8283,13.0232 C4.9973,51.3752 0.2443,82.0002 0.2443,82.0002 L25.1593,94.4072 C25.1593,94.4072 83.4243,139.1952 143.1693,101.2402 C202.9133,63.2852 214.0963,34.8542 234.4653,35.1992" id="Fill-13" fill="#7CB305" mask="url(#mask-4)"></path>
                </g>
                <path d="M271.2441,563.059 L261.2441,563.059 L257.3261,219.955 C257.2781,215.884 259.9601,212.283 263.8751,211.164 L271.2441,209.059 C271.2441,209.059 268.7331,239.731 269.2441,278.058 C269.7331,314.723 273.2441,358.351 273.2441,390.664 C273.2441,482.059 271.2441,563.059 271.2441,563.059" id="Fill-15" fill="#7CB305"></path>
                <g transform="translate(270.000000, 145.059000)">
                    <mask id="mask-6" fill="white">
                        <use xlink:href="#path-5"></use>
                    </mask>
                    <g id="Clip-18"></g>
                    <path d="M222.4653,25.1992 C222.4653,25.1992 154.2443,-28.9998 87.2443,23.0002 C44.0903,56.4922 0.2443,78.0002 0.2443,78.0002 L13.1593,84.4072 C13.1593,84.4072 71.4243,129.1952 131.1693,91.2402 C190.9133,53.2852 202.0963,24.8542 222.4653,25.1992" id="Fill-17" fill="#389E0D" mask="url(#mask-6)"></path>
                </g>
                <path d="M289.2441,560.059 L306.2441,560.059 L312.9681,347.539 L300.1621,146.955 C300.2101,142.884 297.5281,139.283 293.6131,138.164 L286.2441,136.059 C286.2441,136.059 302.2441,295.351 302.2441,327.664 C302.2441,419.059 289.2441,560.059 289.2441,560.059" id="Fill-19" fill="#7CB305"></path>
                <path d="M97.9375,23.83 C97.9375,23.83 134.2445,-29.941 220.2445,24.059 C306.8755,78.455 300.8605,149.814 300.8605,149.814 L273.1765,152.695 C273.1765,152.695 202.9035,174.199 160.2685,117.699 C117.6335,61.199 117.1325,30.652 97.9375,23.83" id="Fill-21" fill="#7CB305"></path>
                <path d="M97.9375,23.83 C97.9375,23.83 137.0215,-4.981 170.2445,36.059 C187.2445,57.059 217.3205,72.892 230.2445,85.059 C263.8175,116.669 287.5185,151.224 287.5185,151.224 L273.1765,152.695 C273.1765,152.695 202.9035,174.199 160.2685,117.699 C117.6335,61.199 117.1325,30.652 97.9375,23.83" id="Fill-23" fill="#389E0D"></path>
                <path d="M384,840.059 L152,840.059 C138.745,840.059 128,829.314 128,816.059 L128,584.059 C128,570.804 138.745,560.059 152,560.059 L384,560.059 C397.255,560.059 408,570.804 408,584.059 L408,816.059 C408,829.314 397.255,840.059 384,840.059" id="Fill-25" fill="#253369"></path>
            </g>
        </g>
    </g>
</svg>