<svg xmlns="http://www.w3.org/2000/svg" xmlns:xlink="http://www.w3.org/1999/xlink" width="1024" height="1024" version="1.1" viewBox="0 0 1024 1024"><title>3.通用组件/彩色版/票据</title><desc>Created with Sketch.</desc><g id="3.通用组件/彩色版/票据" fill="none" fill-rule="evenodd" stroke="none" stroke-width="1"><g id="资源-12" transform="translate(66.000000, 185.000000)"><g id="资源-11"><line id="路径" x1="805.8" x2="805.8" y1=".937" y2="308.4" stroke="#FFF" stroke-linecap="round" stroke-linejoin="round" stroke-width="6"/><g id="分组-2" transform="translate(124.800000, 33.600000)"><rect id="矩形-copy" width="766.836" height="384.288" x="0" y=".912" fill="#597EF7" fill-rule="nonzero" rx="28.8"/><rect id="矩形-copy-2" width="344.4" height="38.4" x="307.2" y="96.912" fill="#2A55BB" fill-rule="nonzero" rx="9.6"/><rect id="矩形-copy-3" width="193.2" height="38.4" x="307.2" y="250.512" fill="#597EF7" fill-rule="nonzero" rx="9.6"/><rect id="矩形-copy-4" width="344.4" height="38.4" x="307.2" y="173.712" fill="#2A55BB" fill-rule="nonzero" rx="9.6"/><rect id="矩形-copy-5" width="153.6" height="153.6" x="48" y="96.912" fill="#2A55BB" fill-rule="nonzero" rx="19.2"/><line id="路径-copy" x1="250.2" x2="250.2" y1="96.912" y2="346.92" stroke="#FFF" stroke-linecap="round" stroke-linejoin="round" stroke-width="6"/></g><rect id="矩形" width="766.836" height="384.288" x="0" y="268.8" fill="#E4EBF7" fill-rule="nonzero" rx="28.8"/><rect id="矩形" width="344.4" height="38.4" x="307.2" y="364.8" fill="#597EF7" fill-rule="nonzero" rx="9.6"/><rect id="矩形" width="193.2" height="38.4" x="307.2" y="518.4" fill="#597EF7" fill-rule="nonzero" rx="9.6"/><rect id="矩形" width="344.4" height="38.4" x="307.2" y="441.6" fill="#597EF7" fill-rule="nonzero" rx="9.6"/><rect id="矩形" width="153.6" height="153.6" x="48" y="364.8" fill="#597EF7" fill-rule="nonzero" rx="19.2"/><line id="路径" x1="250.2" x2="250.2" y1="364.8" y2="614.808" stroke="#FFF" stroke-linecap="round" stroke-linejoin="round" stroke-width="6"/></g></g></g></svg>