<svg xmlns="http://www.w3.org/2000/svg" xmlns:xlink="http://www.w3.org/1999/xlink" width="1024" height="1024" version="1.1" viewBox="0 0 1024 1024"><title>3.通用组件/彩色版/笔</title><desc>Created with Sketch.</desc><g id="3.通用组件/彩色版/笔" fill="none" fill-rule="evenodd" stroke="none" stroke-width="1"><g id="分组-2" transform="translate(199.000000, 70.000000)"><path id="路径" fill="#FFA940" fill-rule="nonzero" d="M0,159.888 L111.6,159.888 L111.6,854.232 C111.6,870.137801 98.7058008,883.032 82.8,883.032 L28.8,883.032 C12.8941992,883.032 0,870.137801 0,854.232 L0,159.888 Z"/><polygon id="路径" fill="#FFE7BA" fill-rule="nonzero" points="78.852 48.36 35.856 48.36 0 159.96 111.588 159.96"/><path id="路径" fill="#253369" fill-rule="nonzero" d="M54.816,1.932 L37.2,48.432 L78,48.432 L59.292,1.884 C58.9242827,0.963614789 58.0286217,0.363935736 57.0375556,0.374424789 C56.0464895,0.385191846 55.1638949,1.00394066 54.816,1.932 L54.816,1.932 Z"/><path id="路径" fill="#253369" fill-rule="nonzero" d="M513.528,798 L574.548,798 L574.548,852.516 C574.548,869.369521 560.885521,883.032 544.032,883.032 L544.032,883.032 C527.178479,883.032 513.516,869.369521 513.516,852.516 L513.516,798 L513.528,798 Z"/><rect id="矩形" width="15.54" height="35.1" x="535.452" y="2.4" fill="#50548B" fill-rule="nonzero" rx="7.77"/><path id="路径" fill="#597EF7" fill-rule="nonzero" d="M499.2,120.972 L588.84,120.972 L588.84,793.2 C588.84,809.105801 575.945801,822 560.04,822 L528,822 C512.094199,822 499.2,809.105801 499.2,793.2 L499.2,120.972 Z"/><path id="路径" fill="#CED7EC" fill-rule="nonzero" d="M555.6,30.276 L588.9,120.972 L499.2,120.972 L531.036,30.348 C531.709919,28.4202192 533.529819,27.1299192 535.572,27.131687 L551.04,27.131687 C553.072337,27.1088836 554.89893,28.368271 555.6,30.276 Z"/><rect id="矩形" width="89.592" height="16.212" x="499.248" y="760.968" fill="#FFF" fill-rule="nonzero"/><rect id="矩形" width="26.328" height="107.448" x="588.84" y="650.868" fill="#253369" fill-rule="nonzero"/><rect id="矩形" width="21.6" height="288" x="604.368" y="534.36" fill="#99A7C7" fill-rule="nonzero" rx="10.8"/><path id="路径" fill="#FF7946" fill-rule="nonzero" d="M313.38,71.028 L277.08,71.028 C272.175711,71.028 268.2,67.0522886 268.2,62.148 L268.2,16.14 C268.199052,11.9077681 271.188894,8.2646838 275.34,7.44 L311.628,0.24 C314.236994,-0.285068967 316.943942,0.387690472 319.003576,2.07305654 C321.063209,3.7584226 322.258366,6.27869458 322.26,8.94 L322.26,62.148 C322.26,67.0522886 318.284289,71.028 313.38,71.028 Z"/><rect id="矩形" width="135.936" height="575.736" x="229.428" y="175.776" fill="#FF7946" fill-rule="nonzero"/><path id="路径" fill="#1D1E1F" fill-rule="nonzero" d="M229.428,672.444 L365.364,672.444 L365.364,855.432 C365.364,871.337801 352.469801,884.232 336.564,884.232 L258.228,884.232 C242.322199,884.232 229.428,871.337801 229.428,855.432 L229.428,672.444 L229.428,672.444 Z"/><rect id="矩形" width="135.936" height="50.412" x="229.428" y="175.776" fill="#253369" fill-rule="nonzero"/><polygon id="路径" fill="#CED7EC" fill-rule="nonzero" points="365.364 144.996 365.364 175.776 229.428 175.776 229.428 144.768 266.112 53.016 324.48 53.016"/><rect id="矩形" width="135.936" height="31.008" x="229.2" y="145.2" fill="#F5F5F5" fill-rule="nonzero"/><rect id="矩形-copy" width="135.936" height="31.008" x="229.2" y="722.4" fill="#F5F5F5" fill-rule="nonzero"/><path id="形状" fill="#FFF" fill-rule="nonzero" d="M334.164,355.86 C334.164,372.792 326.748,378.9 311.904,373.968 C297.06,369.036 289.428,357.768 289.428,340.296 L289.428,326.124 C289.428668,323.965657 288.067505,322.041751 286.032,321.324 L264.972,313.92 C262.936495,313.202249 261.575997,311.278343 261.575997,309.12 L261.575997,308.04 C261.574106,306.385732 262.376572,304.83381 263.727527,303.879071 C265.078483,302.924332 266.809262,302.685975 268.368,303.24 L330.768,325.512 C332.794037,326.237832 334.144273,328.159875 334.14,330.312 L334.164,355.86 Z M306.372,328.476 C304.816013,327.925868 303.089704,328.166543 301.74352,329.121283 C300.397336,330.076024 299.599348,331.62563 299.60398,333.276 L299.60398,343.104 C299.60398,348.3 300.612,352.44 302.448,355.464 C304.284,358.488 307.524,360.768 311.904,362.244 C316.284,363.72 319.32,363.444 321.156,361.704 C322.992,359.964 324,356.52 324,351.48 L324,338.28 C324.000668,336.121657 322.639505,334.197751 320.604,333.48 L306.372,328.476 Z"/><path id="路径" fill="#FFF" fill-rule="nonzero" d="M327.6,439.896 L327.6,439.896 C325.462889,439.242423 324.002439,437.270816 324,435.036 L324,403.2 C323.97775,401.008077 322.557342,399.07555 320.472,398.4 L310.512,395.196 C308.970849,394.694014 307.282633,394.95821 305.968524,395.907025 C304.654414,396.855841 303.872438,398.375178 303.864,399.996 L303.864,423.456 C303.864885,425.067408 303.102383,426.583982 301.808447,427.54438 C300.514511,428.504779 298.842115,428.795461 297.3,428.328 L297.3,428.328 C295.16102,427.669775 293.701063,425.693967 293.7,423.456 L293.7,393.456 C293.683164,391.266049 292.266888,389.332567 290.184,388.656 L278.4,384.732 C276.859093,384.235583 275.173917,384.502086 273.861387,385.449761 C272.548857,386.397436 271.765647,387.913162 271.752,389.532 L271.752,417.696 C271.754222,419.307199 270.991389,420.823768 269.696488,421.782516 C268.401587,422.741264 266.728417,423.028316 265.188,422.556 L265.188,422.556 C263.050889,421.902423 261.590439,419.930816 261.588,417.696 L261.588,374.4 C261.595199,372.776259 262.378781,371.253959 263.696065,370.304565 C265.013349,369.355172 266.705334,369.09328 268.248,369.6 L330.648,390 C332.728445,390.677579 334.14059,392.612025 334.152501,394.8 L334.152501,434.952 C334.174728,436.573203 333.423429,438.108173 332.129189,439.084779 C330.834948,440.061385 329.152747,440.362683 327.6,439.896 L327.6,439.896 Z"/><path id="路径" fill="#FFF" fill-rule="nonzero" d="M334.164,462.432 C334.161857,464.531648 332.870184,466.414345 330.912,467.172 L281.808,486.108 L281.808,486.504 L330.444,500.016 C332.641438,500.629407 334.161917,502.630554 334.164,504.912 L334.164,506.016 C334.163206,507.600112 333.424631,509.093475 332.166146,510.05557 C330.90766,511.017664 329.272865,511.338709 327.744,510.924 L265.344,493.896 C263.134616,493.295178 261.600955,491.289621 261.599651,489 L261.599651,484.8 C261.575293,482.681478 262.865965,480.769371 264.84,480 L314.664,460.548 L314.664,460.152 L265.2,445.656 C263.056261,445.004503 261.593234,443.02454 261.599651,440.784 L261.599651,439.524 C261.601394,437.918273 262.360696,436.407428 263.648391,435.448155 C264.936085,434.488882 266.601046,434.193761 268.14,434.652 L330.54,453.312 C332.67898,453.970225 334.138937,455.946033 334.14,458.184 L334.164,462.432 Z"/><text id="read" fill="#D4380D" font-family="PingFangSC-Regular, PingFang SC" font-size="16.896" font-weight="normal" transform="translate(321.828000, 566.904000) rotate(90.000000) translate(-321.828000, -566.904000)"><tspan x="293.028" y="572.904">RED</tspan></text><rect id="矩形" width="11.904" height="59.4" x="268.2" y="538.092" fill="#D4380D" fill-rule="nonzero" rx="5.952"/><rect id="矩形" width="45.588" height="722.76" x="33.6" y="160.272" fill="#FFA940" fill-rule="nonzero"/></g></g></svg>