<svg xmlns="http://www.w3.org/2000/svg" xmlns:xlink="http://www.w3.org/1999/xlink" width="1024" height="1024" version="1.1" viewBox="0 0 1024 1024"><title>3.通用组件/彩色版/箱子</title><desc>Created with Sketch.</desc><g id="3.通用组件/彩色版/箱子" fill="none" fill-rule="evenodd" stroke="none" stroke-width="1"><g id="资源-20" fill-rule="nonzero" transform="translate(51.000000, 186.000000)"><path id="路径" fill="#597EF7" d="M78.768,253.968 L846.252,253.968 L846.252,622.368 C846.252,638.273801 833.357801,651.168 817.452,651.168 L107.568,651.168 C91.6621992,651.168 78.768,638.273801 78.768,622.368 L78.768,253.968 Z"/><path id="路径" fill="#E4EBF7" d="M76.8,114.348 L1.908,279.108 C-0.938719839,285.053113 -0.536759699,292.042914 2.97270733,297.622504 C6.48217436,303.202094 12.6084822,306.591378 19.2,306.6 L903.012,306.6 C909.748417,306.6 915.991361,303.066936 919.462637,297.29376 C922.933913,291.520584 923.125696,284.350486 919.968,278.4 L846.624,114.348 L76.8,114.348 Z"/><polygon id="路径" fill="#7D9DE7" points="691.56 0 846.624 114.348 76.74 114.348 230.976 0"/><polygon id="路径" fill="#597EF7" points="230.976 0 230.976 114.348 76.74 114.348"/><polygon id="路径" fill="#597EF7" points="691.56 0 691.56 114.264 846.624 114.348"/></g></g></svg>