<svg xmlns="http://www.w3.org/2000/svg" xmlns:xlink="http://www.w3.org/1999/xlink" width="1024" height="1024" version="1.1" viewBox="0 0 1024 1024"><title>3.通用组件/彩色版/系统加载页</title><desc>Created with Sketch.</desc><defs><polygon id="path-1" points="0 .722 818.27 .722 818.27 102.842 0 102.842"/><polygon id="path-3" points="0 .654 818.27 .654 818.27 715.2 0 715.2"/></defs><g id="3.通用组件/彩色版/系统加载页" fill="none" fill-rule="evenodd" stroke="none" stroke-width="1"><g id="编组" transform="translate(103.000000, 107.000000)"><g id="分组-copy-3"><g id="分组" transform="translate(0.000000, 0.477600)"><mask id="mask-2" fill="#fff"><use xlink:href="#path-1"/></mask><path id="Fill-1" fill="#253369" d="M818.26968,102.84204 L-0.00072,102.84204 L-0.00072,29.52204 C-0.00072,13.61724 12.89448,0.72204 28.79928,0.72204 L789.46968,0.72204 C805.37568,0.72204 818.26968,13.61724 818.26968,29.52204 L818.26968,102.84204 Z" mask="url(#mask-2)"/></g><g id="分组" transform="translate(0.000000, 94.077600)"><mask id="mask-4" fill="#fff"><use xlink:href="#path-3"/></mask><path id="Fill-3" fill="#E4EBF7" d="M789.46968,715.2 L28.79928,715.2 C12.89448,715.2 -0.00072,702.306 -0.00072,686.4 L-0.00072,0.654 L818.26968,0.654 L818.26968,686.4 C818.26968,702.306 805.37568,715.2 789.46968,715.2" mask="url(#mask-4)"/></g><path id="Fill-5" fill="#FF7946" d="M66.49776,48.72372 C66.49776,58.70532 58.40496,66.79812 48.42216,66.79812 C38.44056,66.79812 30.34896,58.70532 30.34896,48.72372 C30.34896,38.74212 38.44056,30.64932 48.42216,30.64932 C58.40496,30.64932 66.49776,38.74212 66.49776,48.72372"/><path id="Fill-7" fill="#FFC53D" d="M133.99656,48.72372 C133.99656,58.70532 125.90496,66.79812 115.92216,66.79812 C105.94056,66.79812 97.84896,58.70532 97.84896,48.72372 C97.84896,38.74212 105.94056,30.64932 115.92216,30.64932 C125.90496,30.64932 133.99656,38.74212 133.99656,48.72372"/><path id="Fill-9" fill="#BAE637" d="M201.49656,48.72372 C201.49656,58.70532 193.40496,66.79812 183.42216,66.79812 C173.44056,66.79812 165.34896,58.70532 165.34896,48.72372 C165.34896,38.74212 173.44056,30.64932 183.42216,30.64932 C193.40496,30.64932 201.49656,38.74212 201.49656,48.72372"/><path id="Fill-11" fill="#FFF" d="M88.4398883,712.08372 C83.4758001,712.08372 79.45308,708.063057 79.45308,703.104015 L79.45308,182.537025 C79.45308,177.577983 83.4758001,173.55732 88.4398883,173.55732 L738.770272,173.55732 C743.733237,173.55732 747.75708,177.577983 747.75708,182.537025 L747.75708,703.104015 C747.75708,708.063057 743.733237,712.08372 738.770272,712.08372 L88.4398883,712.08372 Z"/><path id="Fill-1" fill="#E4EBF7" d="M311.2794,241.707 L146.6538,241.707 C139.9134,241.707 134.4006,236.193 134.4006,229.4538 C134.4006,222.7134 139.9134,217.2006 146.6538,217.2006 L311.2794,217.2006 C318.0186,217.2006 323.5326,222.7134 323.5326,229.4538 C323.5326,236.193 318.0186,241.707 311.2794,241.707"/><path id="Fill-3" fill="#E4EBF7" d="M216.09744,299.49744 L154.82904,299.49744 C148.06224,299.49744 142.57464,294.01104 142.57464,287.24424 C142.57464,280.47624 148.06224,274.99104 154.82904,274.99104 L216.09744,274.99104 C222.86544,274.99104 228.35064,280.47624 228.35064,287.24424 C228.35064,294.01104 222.86544,299.49744 216.09744,299.49744"/></g><g id="分组" transform="translate(242.400000, 267.600000)"><path id="Fill-1" fill="#597EF7" d="M177.622412,236.046815 C158.352474,236.046815 142.696273,220.370787 142.696273,200.983014 C142.629253,181.720381 158.237052,166.051057 177.556296,165.985135 C177.578708,165.985135 177.6,165.984017 177.622412,165.984017 C196.881144,165.984017 212.537128,181.660046 212.537128,201.037763 C212.504631,220.370787 196.881144,236.035642 177.622412,236.046815 M264.522033,188.788561 C263.842946,184.968437 260.175203,181.060044 256.342731,180.219818 L253.485187,179.56395 C246.547516,177.466736 240.674421,172.80862 237.062708,166.541561 C233.414015,160.209697 232.332631,152.725873 234.040434,145.625292 L234.938039,142.939249 C236.087781,139.217449 234.599616,134.074416 231.60984,131.531391 C231.60984,131.531391 228.92823,129.260992 221.395518,124.894498 C213.829187,120.55035 210.588395,119.338055 210.588395,119.338055 C206.909446,117.983861 201.763624,119.283306 199.070808,122.143651 L197.089577,124.272149 C191.852986,129.266579 184.879456,132.04089 177.633618,132.012957 C170.347439,132.031951 163.338049,129.234177 158.079046,124.206227 L156.174016,122.132478 C153.524904,119.272133 148.345464,118.006207 144.656429,119.338055 C144.656429,119.338055 141.371934,120.55035 133.816809,124.894498 C126.251599,129.293395 123.591281,131.563793 123.591281,131.563793 C120.61271,134.085589 119.123425,139.173874 120.273167,142.939249 L121.094571,145.658811 C122.783324,152.74822 121.70306,160.215283 118.072297,166.541561 C114.467308,172.860017 108.544906,177.540479 101.551205,179.597469 L98.8034795,180.219818 C95.0371233,181.092446 91.3256767,184.947208 90.6241775,188.788561 C90.6241775,188.788561 90,192.238851 90,200.994187 C90,209.749523 90.6241775,213.187523 90.6241775,213.187523 C91.3032646,217.05234 94.9710075,220.91604 98.8034795,221.757383 L101.48621,222.379732 C108.493358,224.442308 114.426966,229.136178 118.028593,235.479216 C121.79495,242.062478 122.703761,249.55077 121.050867,256.395485 L120.273167,259.048008 C119.123425,262.770925 120.61271,267.912841 123.601366,270.455866 C123.601366,270.455866 126.284097,272.726265 133.816809,277.092759 C141.382019,281.460371 144.634017,282.649202 144.634017,282.649202 C148.30176,284.003396 153.458788,282.703951 156.152725,279.843606 L158.035343,277.813432 C168.983662,267.366471 186.23875,267.377644 197.176984,277.834661 L199.059602,279.877126 C201.709835,282.72518 206.888154,284.003396 210.578309,282.671548 C210.578309,282.671548 213.862805,281.460371 221.428015,277.115106 C228.982019,272.748611 231.632252,270.477095 231.632252,270.477095 C234.620908,267.966473 236.110193,262.836847 234.960451,259.069237 L234.139047,256.319507 C232.443571,249.252445 233.524955,241.807728 237.161321,235.511618 C240.78424,229.18981 246.707762,224.499292 253.704825,222.412134 L256.397641,221.789786 C260.163997,220.91604 263.875444,217.063513 264.576943,213.219925 C264.576943,213.219925 265.2,209.770752 265.2,201.02659 C265.135005,192.261198 264.522033,188.788561 264.522033,188.788561"/><path id="Stroke-7" fill="#FF7946" fill-rule="nonzero" d="M204.455105,-10.112187 C210.039911,-13.8039001 217.560017,-12.2692445 221.25173,-6.68443779 C224.884844,-1.18827883 223.456189,6.1822281 218.086857,9.93352051 L217.82398,10.112187 L211.717,14.148 L212.918665,14.3748876 C298.573904,31.1804659 363.433522,105.969887 364.896543,196.165663 L364.9218,199.281903 C364.9218,303.355834 280.516644,387.7218 176.4,387.7218 C72.2840995,387.7218 -12.1218,303.35546 -12.1218,199.281903 C-12.1218,124.171849 32.2517006,57.1594046 99.6938925,27.0980942 C105.808642,24.3725394 112.975125,27.1200247 115.700679,33.2347743 C118.426234,39.3495239 115.678749,46.5160065 109.563999,49.2415612 C50.7859298,75.4409736 12.1218,133.831179 12.1218,199.281903 C12.1218,289.963545 85.6709266,363.4782 176.4,363.4782 C267.129793,363.4782 340.6782,289.963942 340.6782,199.281903 C340.6782,108.599865 267.129793,35.0856069 176.4,35.0856069 C164.502233,35.0856069 159.784585,19.7893642 169.419204,13.0531043 L169.715562,12.8516199 L204.455105,-10.112187 Z"/><path id="Stroke-9" fill="#FF7946" fill-rule="nonzero" d="M167.828593,14.228593 C172.483553,9.57363328 179.98253,9.49605062 184.73229,13.995845 L184.971407,14.228593 L214.971407,44.228593 C219.705264,48.9624504 219.705264,56.6375496 214.971407,61.371407 C210.316447,66.0263667 202.81747,66.1039494 198.06771,61.604155 L197.828593,61.371407 L167.828593,31.371407 C163.094736,26.6375496 163.094736,18.9624504 167.828593,14.228593 Z"/><path id="Stroke-11" fill="#E4EBF7" fill-rule="nonzero" d="M429.600561,345.462 C408.979133,345.462 392.262,362.178603 392.262,382.8 C392.262,403.421397 408.979133,420.138 429.600561,420.138 C450.221075,420.138 466.938,403.42119 466.938,382.8 C466.938,362.17881 450.221075,345.462 429.600561,345.462 Z M429.600561,357.738 C443.441246,357.738 454.662,368.958677 454.662,382.8 C454.662,396.641323 443.441246,407.862 429.600561,407.862 C415.758893,407.862 404.538,396.641463 404.538,382.8 C404.538,368.958537 415.758893,357.738 429.600561,357.738 Z"/><path id="Stroke-13" fill="#597EF7" fill-rule="nonzero" d="M454.992194,363.872816 C458.155231,362.653478 461.707847,364.229158 462.927184,367.392194 C464.773458,372.181542 465.738,377.378597 465.738,382.719818 C465.738,387.092226 465.091647,391.373326 463.840536,395.415043 C462.838115,398.653366 459.400313,400.465923 456.16199,399.463502 C452.923667,398.461082 451.11111,395.02328 452.113531,391.784957 C453.000407,388.919901 453.462,385.862554 453.462,382.719818 C453.462,379.099504 452.84948,375.598052 451.684183,372.373869 L451.472816,371.807806 C450.253478,368.644769 451.829158,365.092153 454.992194,363.872816 Z"/></g></g></g></svg>