<?xml version="1.0" encoding="UTF-8"?>
<svg width="1024px" height="1024px" viewBox="0 0 1024 1024" version="1.1" xmlns="http://www.w3.org/2000/svg" xmlns:xlink="http://www.w3.org/1999/xlink">
    <!-- Generator: Sketch 61.2 (89653) - https://sketch.com -->
    <title>3.通用组件/彩色版/虚拟现实</title>
    <desc>Created with Sketch.</desc>
    <defs>
        <polygon id="path-1" points="0.000344733242 0.166391245 839.227798 0.166391245 839.227798 313.707021 0.000344733242 313.707021"></polygon>
    </defs>
    <g id="3.通用组件/彩色版/虚拟现实" stroke="none" stroke-width="1" fill="none" fill-rule="evenodd">
        <g id="分组" transform="translate(92.000000, 48.000000)">
            <g transform="translate(0.000000, 614.823694)">
                <mask id="mask-2" fill="white">
                    <use xlink:href="#path-1"></use>
                </mask>
                <g id="Clip-2"></g>
                <path d="M544.868471,130.963929 L544.868471,0.166391245 L425.902178,0.166391245 L413.32516,0.166391245 L294.360016,0.166391245 L294.360016,130.963929 C294.360016,142.511343 287.158539,152.821166 276.331617,156.836159 C28.2845581,248.816733 0.000344733242,313.707021 0.000344733242,313.707021 L415.472848,313.707021 L423.755639,313.707021 L839.228142,313.707021 C839.228142,313.707021 810.943929,248.816733 562.89687,156.836159 C552.069948,152.821166 544.868471,142.511343 544.868471,130.963929" id="Fill-1" fill="#253369" mask="url(#mask-2)"></path>
            </g>
            <path d="M249.678796,518.514419 C215.923666,533.227633 187.422271,486.626594 177.778933,466.712503 C160.531929,431.099261 173.690397,390.226539 191.007497,381.567989 C206.847989,373.648317 223.319343,383.876553 223.319343,383.876553 C223.319343,383.876553 251.409357,410.326785 257.937456,466.259754 C261.844432,499.733352 249.678796,518.514419 249.678796,518.514419" id="Fill-3" fill="#597EF7"></path>
            <path d="M586.943967,518.514419 C620.699097,533.227633 649.200492,486.626594 658.84383,466.712503 C676.090834,431.099261 662.932367,390.226539 645.616416,381.567989 C629.775923,373.648317 613.30342,383.876553 613.30342,383.876553 C613.30342,383.876553 585.213406,410.326785 578.685308,466.259754 C574.77948,499.733352 586.943967,518.514419 586.943967,518.514419" id="Fill-5" fill="#597EF7"></path>
            <path d="M218.654528,404.780487 C228.510451,476.909023 230.558167,475.104919 246.882435,546.523305 C254.303393,578.991431 324.195759,685.746123 421.708153,685.746123 C512.874008,685.746123 579.004186,581.583825 586.411354,548.37797 C602.020876,478.398271 603.893926,476.936602 612.351382,404.780487 C644.511546,130.421089 416.305034,140.205767 416.305034,140.205767 C416.305034,140.205767 182.492011,140.127628 218.654528,404.780487" id="Fill-7" fill="#FFC53D"></path>
            <path d="M570.659458,223.774736 C580.903781,268.13501 584.826845,329.820427 584.826845,329.820427 L598.420826,350.534298 L612.24348,421.314927 C619.512755,389.508689 625.507666,324.740208 625.507666,316.256323 C625.507666,179.290358 557.41136,82.5536142 423.826079,82.5536142 C269.102906,82.5536142 203.658747,175.775228 203.658747,316.073614 C203.658747,372.252492 220.641456,422.904148 220.641456,422.904148 L228.750731,350.534298 C228.750731,350.534298 240.34296,332.147376 241.13125,329.309073 C244.07872,318.695885 245.563371,264.729045 255.525012,223.589729 C255.525012,223.589729 564.450813,223.774736 570.659458,223.774736" id="Fill-9" fill="#708191"></path>
            <path d="M570.659458,225.277428 C570.659458,225.277428 610.751934,277.751573 623.721948,323.148345 C630.797023,264.190917 632.259841,217.669166 628.439048,185.184952 C626.079923,165.139863 622.54296,137.429056 584.514287,89.6720109 C571.436257,73.2489193 570.364137,100.285198 570.364137,100.285198 C570.364137,100.285198 568.301483,80.2401094 537.642057,59.0137346 C508.589089,38.9008482 519.954944,64.9098222 519.954944,64.9098222 C519.954944,64.9098222 505.810539,51.4353488 486.937543,31.8924213 C468.064547,12.350643 441.513193,1.48120383 429.157953,0.0551573187 C418.489609,-1.17554036 400.580717,18.4880438 369.020389,29.534446 C321.852837,46.0425718 297.628432,80.0482079 295.39571,81.3811765 C297.024,71.3873598 299.455518,52.2098495 274.686435,75.5218605 C253.535902,95.427907 232.470402,127.871902 231.352317,128.965855 C231.567201,119.671847 230.441073,103.866977 218.085833,125.047387 C201.577707,153.347688 195.682769,184.005964 195.682769,184.005964 C188.688131,210.314856 205.115819,332.582544 205.115819,332.582544 C219.26597,273.623967 256.408679,225.866922 256.408679,225.866922 C256.408679,225.866922 329.812728,222.329959 420.903891,234.710479 C488.116531,222.329959 570.659458,225.277428 570.659458,225.277428" id="Fill-11" fill="#253369"></path>
            <line x1="377.188038" y1="534.229018" x2="459.434495" y2="534.229018" id="Stroke-13" stroke="#D48806" stroke-width="9.6" stroke-linecap="round" stroke-linejoin="round"></line>
            <line x1="403.266878" y1="564.24" x2="433.356345" y2="564.24" id="Stroke-15" stroke="#D48806" stroke-width="9.6" stroke-linecap="round" stroke-linejoin="round"></line>
            <line x1="157.869439" y1="251.967989" x2="274.984514" y2="251.967989" id="Stroke-17" stroke="#FFFFFF" stroke-width="10.6272" stroke-linecap="round" stroke-linejoin="round"></line>
            <path d="M329.792274,253.683677 C329.792274,268.818616 317.523218,281.087672 302.388279,281.087672 C287.253341,281.087672 274.984285,268.818616 274.984285,253.683677 C274.984285,238.548739 287.253341,226.279683 302.388279,226.279683 C317.523218,226.279683 329.792274,238.548739 329.792274,253.683677 Z" id="Stroke-19" stroke="#FFFFFF" stroke-width="10.6272" stroke-linecap="round" stroke-linejoin="round"></path>
            <path d="M658.706167,203.474544 L180.52209,203.474544 C166.203021,203.474544 154.266057,214.432465 153.044553,228.698676 L132.222665,471.69884 C132.222665,487.504859 145.03525,500.318594 160.841269,500.318594 L352.769204,490.037499 C365.908137,489.334244 376.72012,479.446145 378.592022,466.422123 L383.464252,432.521056 C385.415442,418.945461 397.046741,408.865461 410.762528,408.865461 L428.46458,408.865461 C442.180367,408.865461 453.811666,418.945461 455.764005,432.521056 L460.635086,466.422123 C462.506988,479.446145 473.318971,489.334244 486.457904,490.037499 L678.385839,500.318594 C694.191858,500.318594 707.005592,487.504859 707.005592,471.69884 L686.184854,228.698676 C684.9622,214.432465 673.025237,203.474544 658.706167,203.474544" id="Fill-21" fill="#CED7EC"></path>
            <path d="M200.731042,332.734917 C200.731042,332.734917 386.158457,234.097543 638.496295,332.734917" id="Stroke-23" stroke="#253369" stroke-width="21.78" stroke-linecap="round" stroke-linejoin="round"></path>
        </g>
    </g>
</svg>