<svg xmlns="http://www.w3.org/2000/svg" xmlns:xlink="http://www.w3.org/1999/xlink" width="1024" height="1024" version="1.1" viewBox="0 0 1024 1024"><title>3.通用组件/彩色版/表单页</title><desc>Created with Sketch.</desc><g id="3.通用组件/彩色版/表单页" fill="none" fill-rule="evenodd" stroke="none" stroke-width="1"><g id="分组-2" transform="translate(56.000000, 110.000000)"><g id="分组-copy-7"><path id="Fill-1" fill="#253369" d="M912.999284,102.012798 L0.999283887,102.012798 L0.999283887,28.9105461 C0.999283887,13.0529807 13.9050509,0.196077272 29.8228842,0.196077272 L884.175684,0.196077272 C900.094718,0.196077272 912.999284,13.0529807 912.999284,28.9105461 L912.999284,102.012798 Z"/><path id="Fill-3" fill="#E4EBF7" d="M880.901075,804.457944 L33.0989248,804.457944 C15.3722936,804.457944 1,791.619771 1,775.782639 L1,93.0057017 L913,93.0057017 L913,775.782639 C913,791.619771 898.629044,804.457944 880.901075,804.457944"/><path id="Fill-5" fill="#FF7946" d="M67.1387264,47.5790188 C67.1387264,57.5309751 59.0896209,65.5997409 49.1607199,65.5997409 C39.2330124,65.5997409 31.1851004,57.5309751 31.1851004,47.5790188 C31.1851004,37.6270625 39.2330124,29.5582967 49.1607199,29.5582967 C59.0896209,29.5582967 67.1387264,37.6270625 67.1387264,47.5790188"/><path id="Fill-7" fill="#FFC53D" d="M134.273088,47.5790188 C134.273088,57.5309751 126.225176,65.5997409 116.296275,65.5997409 C106.368568,65.5997409 98.3206555,57.5309751 98.3206555,47.5790188 C98.3206555,37.6270625 106.368568,29.5582967 116.296275,29.5582967 C126.225176,29.5582967 134.273088,37.6270625 134.273088,47.5790188"/><path id="Fill-9" fill="#BAE637" d="M201.408643,47.5790188 C201.408643,57.5309751 193.360731,65.5997409 183.43183,65.5997409 C173.504123,65.5997409 165.456211,57.5309751 165.456211,47.5790188 C165.456211,37.6270625 173.504123,29.5582967 183.43183,29.5582967 C193.360731,29.5582967 201.408643,37.6270625 201.408643,47.5790188"/></g><rect id="矩形-copy-6" width="784.15" height="94.006" x="64.925" y="234.014" fill="#FFF" fill-rule="nonzero"/><rect id="矩形-copy-7" width="784.15" height="94.006" x="64.925" y="345.112" fill="#597EF7" fill-rule="nonzero"/><rect id="矩形-copy-8" width="784.15" height="94.006" x="64.925" y="456.21" fill="#FFF" fill-rule="nonzero"/><rect id="矩形-copy-14" width="784.15" height="94.006" x="64.925" y="567.307" fill="#FFF" fill-rule="nonzero"/><rect id="矩形-copy-9" width="123.589" height="53.412" x="64.925" y="137.872" fill="#BDCAE2" fill-rule="nonzero" rx="8.523"/><rect id="矩形-copy-10" width="80.972" height="53.412" x="546.495" y="137.872" fill="#BDCAE2" fill-rule="nonzero" rx="8.523"/><rect id="矩形-copy-12" width="53.271" height="53.412" x="789.411" y="701.906" fill="#BDCAE2" fill-rule="nonzero" rx="12.785"/><rect id="矩形-copy-13" width="53.271" height="53.412" x="714.832" y="701.906" fill="#BDCAE2" fill-rule="nonzero" rx="12.785"/><rect id="矩形-copy-15" width="53.271" height="53.412" x="640.252" y="701.906" fill="#597EF7" fill-rule="nonzero" rx="12.785"/><rect id="矩形-copy-11" width="294.056" height="53.412" x="220.477" y="137.872" fill="#BDCAE2" fill-rule="nonzero" rx="8.523"/></g></g></svg>