<svg xmlns="http://www.w3.org/2000/svg" xmlns:xlink="http://www.w3.org/1999/xlink" width="1024" height="1024" version="1.1" viewBox="0 0 1024 1024"><title>3.通用组件/彩色版/表格详情页02</title><desc>Created with Sketch.</desc><g id="3.通用组件/彩色版/表格详情页02" fill="none" fill-rule="evenodd" stroke="none" stroke-width="1"><g id="编组-3" transform="translate(56.000000, 167.000000)"><g id="编组-2"><g id="分组-2-copy-2" transform="translate(0.000000, 0.000000)"><path id="Fill-1" fill="#253369" d="M911.692857,87.593968 L0.915047196,87.593968 L0.915047196,24.7822117 C0.915047196,11.1568923 12.0067506,0.109836129 25.6871374,0.109836129 L886.920767,0.109836129 C900.602186,0.109836129 911.692857,11.1568923 911.692857,24.7822117 L911.692857,87.593968 Z"/><path id="Fill-5" fill="#FF7946" d="M64.7794215,41.184363 C64.7794215,49.7353972 57.8617164,56.6683347 49.3284441,56.6683347 C40.7961974,56.6683347 33.8795181,49.7353972 33.8795181,41.184363 C33.8795181,32.6333288 40.7961974,25.7003913 49.3284441,25.7003913 C57.8617164,25.7003913 64.7794215,32.6333288 64.7794215,41.184363"/><path id="Fill-7" fill="#FFC53D" d="M122.465143,41.184363 C122.465143,49.7353972 115.548463,56.6683347 107.015191,56.6683347 C98.4829444,56.6683347 91.5662651,49.7353972 91.5662651,41.184363 C91.5662651,32.6333288 98.4829444,25.7003913 107.015191,25.7003913 C115.548463,25.7003913 122.465143,32.6333288 122.465143,41.184363"/><path id="Fill-9" fill="#BAE637" d="M180.15189,41.184363 C180.15189,49.7353972 173.23521,56.6683347 164.701938,56.6683347 C156.169691,56.6683347 149.253012,49.7353972 149.253012,41.184363 C149.253012,32.6333288 156.169691,25.7003913 164.701938,25.7003913 C173.23521,25.7003913 180.15189,32.6333288 180.15189,41.184363"/></g><path id="Fill-3-Copy-2" fill="#E4EBF7" d="M27.5870277,689.006199 C12.3520917,689.006199 5.68434189e-14,677.975237 5.68434189e-14,664.367475 L5.68434189e-14,77.7040359 L910.825149,77.7040359 L910.825149,664.367475 C910.825149,677.975237 898.474207,689.006199 883.238121,689.006199 L27.5870277,689.006199 Z"/><rect id="矩形-copy-13" width="549.398" height="514.008" x="302.637" y="130.87" fill="#FFF" fill-rule="nonzero" rx="10.993"/><rect id="矩形-copy-14" width="201.446" height="514.008" x="57.256" y="126.78" fill="#FFF" fill-rule="nonzero" rx="10.993"/><rect id="矩形-copy-15" width="113.196" height="27.932" x="102.242" y="331.265" fill="#597EF7" fill-rule="nonzero" rx="6.244"/><rect id="矩形-copy-16" width="113.196" height="27.087" x="102.242" y="384.43" fill="#AAC2FE" fill-rule="nonzero" rx="6.15"/><rect id="矩形-copy-17" width="113.196" height="27.087" x="102.242" y="437.596" fill="#FF7946" fill-rule="nonzero" rx="6.15"/><rect id="矩形-copy-18" width="113.196" height="27.087" x="102.242" y="490.762" fill="#AAC2FE" fill-rule="nonzero" rx="6.15"/><rect id="矩形-copy-19" width="329.639" height="14.686" x="355.803" y="507.121" fill="#597EF7" fill-rule="nonzero" rx="7.329"/><rect id="矩形-copy-20" width="329.639" height="14.686" x="355.803" y="584.825" fill="#597EF7" fill-rule="nonzero" rx="7.329"/><rect id="矩形-copy-21" width="439.518" height="14.686" x="355.803" y="543.928" fill="#597EF7" fill-rule="nonzero" rx="7.329"/><rect id="矩形-copy-22" width="441.686" height="294.457" x="355.803" y="179.946" fill="#597EF7" fill-rule="nonzero" rx="14.657"/><g id="分组-3-copy-2" fill-rule="nonzero" transform="translate(110.421525, 171.766816)"><ellipse id="椭圆形" cx="51.099" cy="51.323" fill="#FFC53D" rx="50.564" ry="51.139"/><path id="路径" fill="#253369" d="M51.099243,102.461474 C65.6727985,102.469663 79.5036664,95.9583038 88.8800512,84.6748398 C81.4920423,70.4899944 66.943692,61.6103508 51.0913424,61.6103508 C35.2389927,61.6103508 20.6906424,70.4899944 13.3026335,84.6748398 C22.6839278,95.9607955 36.5206441,102.472185 51.099243,102.461474 L51.099243,102.461474 Z"/><ellipse id="椭圆形" cx="51.368" cy="44.411" fill="#253369" rx="19.017" ry="19.233"/></g><path id="路径-3" fill="#FFF" fill-rule="nonzero" d="M798.891785,282.188341 C800.02112,282.188341 800.936628,283.103848 800.936628,284.233184 C800.936628,285.311186 800.102457,286.194357 799.044394,286.272418 L798.891785,286.278027 L359.892377,286.278027 C358.763041,286.278027 357.847534,285.362519 357.847534,284.233184 C357.847534,283.155182 358.681705,282.272011 359.739768,282.19395 L359.892377,282.188341 L798.891785,282.188341 Z"/><path id="路径-3-copy-2" fill="#FFF" fill-rule="nonzero" d="M458.044843,176.199972 C459.122845,176.199972 460.006016,177.034143 460.084077,178.092206 L460.089686,178.244815 L460.089686,474.403587 C460.089686,475.532923 459.174179,476.44843 458.044843,476.44843 C456.966841,476.44843 456.08367,475.614259 456.005609,474.556196 L456,474.403587 L456,178.244815 C456,177.115479 456.915507,176.199972 458.044843,176.199972 Z"/><path id="路径-3-copy-3" fill="#FFF" fill-rule="nonzero" d="M576.64574,176.199972 C577.723742,176.199972 578.606913,177.034143 578.684974,178.092206 L578.690583,178.244815 L578.690583,474.403587 C578.690583,475.532923 577.775076,476.44843 576.64574,476.44843 C575.567738,476.44843 574.684567,475.614259 574.606506,474.556196 L574.600897,474.403587 L574.600897,178.244815 C574.600897,177.115479 575.516404,176.199972 576.64574,176.199972 Z"/><path id="路径-3-copy-4" fill="#FFF" fill-rule="nonzero" d="M691.156951,176.199972 C692.234953,176.199972 693.118124,177.034143 693.196185,178.092206 L693.201794,178.244815 L693.201794,474.403587 C693.201794,475.532923 692.286286,476.44843 691.156951,476.44843 C690.078948,476.44843 689.195777,475.614259 689.117716,474.556196 L689.112108,474.403587 L689.112108,178.244815 C689.112108,177.115479 690.027615,176.199972 691.156951,176.199972 Z"/><path id="路径-3-copy" fill="#FFF" fill-rule="nonzero" d="M798.891785,380.340807 C800.02112,380.340807 800.936628,381.256315 800.936628,382.38565 C800.936628,383.463652 800.102457,384.346824 799.044394,384.424885 L798.891785,384.430493 L359.892377,384.430493 C358.763041,384.430493 357.847534,383.514986 357.847534,382.38565 C357.847534,381.307648 358.681705,380.424477 359.739768,380.346416 L359.892377,380.340807 L798.891785,380.340807 Z"/></g></g></g></svg>