<svg xmlns="http://www.w3.org/2000/svg" xmlns:xlink="http://www.w3.org/1999/xlink" width="1024" height="1024" version="1.1" viewBox="0 0 1024 1024"><title>3.通用组件/彩色版/表格详情页01</title><desc>Created with Sketch.</desc><defs><polygon id="path-1" points="0 .677 799.873 .677 799.873 96.368 0 96.368"/><polygon id="path-3" points="0 .643 799.873 .643 799.873 703.297 0 703.297"/></defs><g id="3.通用组件/彩色版/表格详情页01" fill="none" fill-rule="evenodd" stroke="none" stroke-width="1"><g id="编组-8" transform="translate(112.000000, 114.000000)"><g id="编组-7"><g id="分组-copy-12"><mask id="mask-2" fill="#fff"><use xlink:href="#path-1"/></mask><path id="Fill-1" fill="#253369" d="M799.87261,96.3678712 L-0.000703812317,96.3678712 L-0.000703812317,27.6635523 C-0.000703812317,12.76 12.6045748,0.67658574 28.1517889,0.67658574 L771.720117,0.67658574 C787.268504,0.67658574 799.87261,12.76 799.87261,27.6635523 L799.87261,96.3678712 Z" mask="url(#mask-2)"/></g><g id="分组-copy-13" transform="translate(0.000000, 92.307692)"><mask id="mask-4" fill="#fff"><use xlink:href="#path-3"/></mask><path id="Fill-3" fill="#E4EBF7" d="M771.720117,703.296703 L28.1517889,703.296703 C12.6045748,703.296703 -0.000703812317,690.617302 -0.000703812317,674.976031 L-0.000703812317,0.643115274 L799.87261,0.643115274 L799.87261,674.976031 C799.87261,690.617302 787.268504,703.296703 771.720117,703.296703" mask="url(#mask-4)"/></g><rect id="矩形-copy-61" width="193.407" height="79.121" x="74.725" y="650.549" fill="#597EF7" fill-rule="nonzero" rx="17.582"/><rect id="矩形-copy-62" width="193.407" height="79.121" x="303.297" y="650.549" fill="#FF7946" fill-rule="nonzero" rx="17.582"/><rect id="矩形-copy-64" width="193.407" height="79.121" x="531.868" y="650.549" fill="#FFC53D" fill-rule="nonzero" rx="17.582"/><path id="Fill-5-Copy-4" fill="#FF7946" d="M75.0906642,48.5224062 C75.0906642,58.3266097 67.1363475,66.2755816 57.3243724,66.2755816 C47.5135767,66.2755816 39.5604396,58.3266097 39.5604396,48.5224062 C39.5604396,38.7182027 47.5135767,30.7692308 57.3243724,30.7692308 C67.1363475,30.7692308 75.0906642,38.7182027 75.0906642,48.5224062"/><path id="Fill-7-Copy-5" fill="#FFC53D" d="M141.023551,48.5224062 C141.023551,58.3266097 133.070413,66.2755816 123.258438,66.2755816 C113.447643,66.2755816 105.494505,58.3266097 105.494505,48.5224062 C105.494505,38.7182027 113.447643,30.7692308 123.258438,30.7692308 C133.070413,30.7692308 141.023551,38.7182027 141.023551,48.5224062"/><path id="Fill-9-Copy-6" fill="#BAE637" d="M206.957617,48.5224062 C206.957617,58.3266097 199.004479,66.2755816 189.192504,66.2755816 C179.381709,66.2755816 171.428571,58.3266097 171.428571,48.5224062 C171.428571,38.7182027 179.381709,30.7692308 189.192504,30.7692308 C199.004479,30.7692308 206.957617,38.7182027 206.957617,48.5224062"/><rect id="矩形-copy-63" width="650.549" height="439.56" x="74.725" y="162.637" fill="#253369" fill-rule="nonzero" rx="17.582"/><path id="路径-3" fill="#FFF" fill-rule="nonzero" d="M720.879121,435.164835 C722.092934,435.164835 723.076923,436.148825 723.076923,437.362637 C723.076923,438.523676 722.176638,439.474441 721.036079,439.554921 L720.879121,439.56044 L70.6950598,439.56044 C69.4812471,439.56044 68.4972576,438.57645 68.4972576,437.362637 C68.4972576,436.201599 69.3975429,435.250834 70.5381017,435.170353 L70.6950598,435.164835 L720.879121,435.164835 Z"/><path id="路径-3-copy-5" fill="#FFF" fill-rule="nonzero" d="M720.879121,342.857143 C722.092934,342.857143 723.076923,343.841132 723.076923,345.054945 C723.076923,346.215983 722.176638,347.166748 721.036079,347.247229 L720.879121,347.252747 L70.6950598,347.252747 C69.4812471,347.252747 68.4972576,346.268758 68.4972576,345.054945 C68.4972576,343.893907 69.3975429,342.943142 70.5381017,342.862661 L70.6950598,342.857143 L720.879121,342.857143 Z"/><path id="路径-3-copy-6" fill="#FFF" fill-rule="nonzero" d="M720.879121,246.153846 C722.092934,246.153846 723.076923,247.137836 723.076923,248.351648 C723.076923,249.512687 722.176638,250.463452 721.036079,250.543932 L720.879121,250.549451 L70.6950598,250.549451 C69.4812471,250.549451 68.4972576,249.565461 68.4972576,248.351648 C68.4972576,247.19061 69.3975429,246.239845 70.5381017,246.159364 L70.6950598,246.153846 L720.879121,246.153846 Z"/><path id="路径-3-copy-7" fill="#FFF" fill-rule="nonzero" d="M163.002752,164.835165 C164.16379,164.835165 165.114556,165.73545 165.195036,166.876009 L165.200554,167.032967 L165.200554,597.802198 C165.200554,599.01601 164.216565,600 163.002752,600 C161.841714,600 160.890949,599.099715 160.810468,597.959156 L160.80495,597.802198 L160.80495,167.032967 C160.80495,165.819154 161.788939,164.835165 163.002752,164.835165 Z"/><path id="路径-3-copy-8" fill="#FFF" fill-rule="nonzero" d="M259.706049,164.835165 C260.867087,164.835165 261.817852,165.73545 261.898333,166.876009 L261.903851,167.032967 L261.903851,597.802198 C261.903851,599.01601 260.919861,600 259.706049,600 C258.545011,600 257.594245,599.099715 257.513765,597.959156 L257.508247,597.802198 L257.508247,167.032967 C257.508247,165.819154 258.492236,164.835165 259.706049,164.835165 Z"/><path id="路径-3-copy-9" fill="#FFF" fill-rule="nonzero" d="M352.013741,164.835165 C353.174779,164.835165 354.125545,165.73545 354.206025,166.876009 L354.211543,167.032967 L354.211543,597.802198 C354.211543,599.01601 353.227554,600 352.013741,600 C350.852703,600 349.901938,599.099715 349.821457,597.959156 L349.815939,597.802198 L349.815939,167.032967 C349.815939,165.819154 350.799928,164.835165 352.013741,164.835165 Z"/><path id="路径-3-copy-10" fill="#FFF" fill-rule="nonzero" d="M448.717038,164.835165 C449.878076,164.835165 450.828841,165.73545 450.909322,166.876009 L450.91484,167.032967 L450.91484,597.802198 C450.91484,599.01601 449.93085,600 448.717038,600 C447.556,600 446.605234,599.099715 446.524754,597.959156 L446.519236,597.802198 L446.519236,167.032967 C446.519236,165.819154 447.503225,164.835165 448.717038,164.835165 Z"/><path id="路径-3-copy-11" fill="#FFF" fill-rule="nonzero" d="M541.02473,164.835165 C542.185768,164.835165 543.136534,165.73545 543.217014,166.876009 L543.222532,167.032967 L543.222532,597.802198 C543.222532,599.01601 542.238543,600 541.02473,600 C539.863692,600 538.912927,599.099715 538.832446,597.959156 L538.826928,597.802198 L538.826928,167.032967 C538.826928,165.819154 539.810917,164.835165 541.02473,164.835165 Z"/><path id="路径-3-copy-12" fill="#FFF" fill-rule="nonzero" d="M637.728027,164.835165 C638.889065,164.835165 639.83983,165.73545 639.920311,166.876009 L639.925829,167.032967 L639.925829,597.802198 C639.925829,599.01601 638.941839,600 637.728027,600 C636.566989,600 635.616223,599.099715 635.535743,597.959156 L635.530225,597.802198 L635.530225,167.032967 C635.530225,165.819154 636.514214,164.835165 637.728027,164.835165 Z"/><path id="路径-3-copy" fill="#FFF" fill-rule="nonzero" d="M725.274725,531.868132 C726.488538,531.868132 727.472527,532.852121 727.472527,534.065934 C727.472527,535.226972 726.572242,536.177738 725.431683,536.258218 L725.274725,536.263736 L70.3296703,536.263736 C69.1158577,536.263736 68.1318681,535.279747 68.1318681,534.065934 C68.1318681,532.904896 69.0321535,531.954131 70.1727123,531.87365 L70.3296703,531.868132 L725.274725,531.868132 Z"/></g></g></g></svg>