<?xml version="1.0" encoding="UTF-8"?>
<svg width="1024px" height="1024px" viewBox="0 0 1024 1024" version="1.1" xmlns="http://www.w3.org/2000/svg" xmlns:xlink="http://www.w3.org/1999/xlink">
    <!-- Generator: Sketch 61.2 (89653) - https://sketch.com -->
    <title>3.通用组件/彩色版/计时器</title>
    <desc>Created with Sketch.</desc>
    <defs>
        <polygon id="path-1" points="0.000111340206 0.462729897 863.536825 0.462729897 863.536825 863.999555 0.000111340206 863.999555"></polygon>
    </defs>
    <g id="3.通用组件/彩色版/计时器" stroke="none" stroke-width="1" fill="none" fill-rule="evenodd">
        <g id="分组" transform="translate(80.000000, 31.000000)">
            <path d="M460.659526,246.048384 L460.659526,246.048384 C454.660515,246.048384 449.797175,241.185043 449.797175,235.186033 L449.797175,211.322487 C449.797175,205.323476 454.660515,200.460136 460.659526,200.460136 C466.658536,200.460136 471.521876,205.323476 471.521876,211.322487 L471.521876,235.186033 C471.521876,241.185043 466.658536,246.048384 460.659526,246.048384" id="Fill-1" fill="#DBDBDB"></path>
            <path d="M681.409188,371.781761 L681.409188,371.781761 C678.409682,366.585513 680.190012,359.942957 685.385146,356.943452 L706.051002,345.012235 C711.246136,342.011616 717.889806,343.791946 720.889311,348.988194 C723.88993,354.183328 722.1096,360.826998 716.913353,363.826503 L696.24861,375.75772 C691.052363,378.757225 684.408693,376.978008 681.409188,371.781761" id="Fill-3" fill="#DBDBDB"></path>
            <path d="M682.895579,625.823926 L682.895579,625.823926 C685.895085,620.627678 692.538755,618.847348 697.733889,621.847967 L718.399744,633.779184 C723.595992,636.778689 725.376322,643.422359 722.375703,648.617493 C719.376198,653.81374 712.732528,655.592957 707.537394,652.593452 L686.871538,640.662235 C681.676404,637.66273 679.896074,631.01906 682.895579,625.823926" id="Fill-5" fill="#DBDBDB"></path>
            <path d="M463.631975,754.131489 L463.631975,754.131489 C469.630986,754.131489 474.494326,758.994829 474.494326,764.993839 L474.494326,788.856272 C474.494326,794.856396 469.630986,799.719736 463.631975,799.719736 C457.632965,799.719736 452.769625,794.856396 452.769625,788.856272 L452.769625,764.993839 C452.769625,758.994829 457.632965,754.131489 463.631975,754.131489" id="Fill-7" fill="#DBDBDB"></path>
            <path d="M242.882425,628.398111 L242.882425,628.398111 C245.88193,633.593245 244.1016,640.236915 238.906466,643.236421 L218.24061,655.167637 C213.045476,658.168256 206.401806,656.387926 203.402301,651.191678 C200.401682,645.996544 202.182012,639.352874 207.37826,636.353369 L228.043002,624.422153 C233.239249,621.421534 239.88292,623.201864 242.882425,628.398111" id="Fill-9" fill="#DBDBDB"></path>
            <path d="M241.396033,374.355946 L241.396033,374.355946 C238.396528,379.552194 231.752858,381.332524 226.557724,378.331905 L205.891868,366.400689 C200.695621,363.401184 198.915291,356.757513 201.915909,351.562379 C204.915414,346.366132 211.559085,344.585802 216.754219,347.586421 L237.420074,359.517637 C242.615208,362.517142 244.395538,369.160812 241.396033,374.355946" id="Fill-11" fill="#DBDBDB"></path>
            <polygon id="Fill-45" fill="#253369" points="395.686503 35.6289773 469.624194 35.6289773 469.624194 124.49739 395.686503 108.000111"></polygon>
            <g transform="translate(0.000000, 98.440330)">
                <mask id="mask-2" fill="white">
                    <use xlink:href="#path-1"></use>
                </mask>
                <g id="Clip-14"></g>
                <path d="M324.880812,13.7957196 C138.120977,61.3591423 0.000111340206,230.665287 0.000111340206,432.231142 C0.000111340206,670.690689 193.308977,863.999555 431.768524,863.999555 C670.22807,863.999555 863.536936,670.690689 863.536936,432.231142 C863.536936,193.772709 670.22807,0.462729897 431.768524,0.462729897 C394.875946,0.462729897 359.063369,5.09002887 324.880812,13.7957196 Z" id="Fill-13" fill="#597EF7" mask="url(#mask-2)"></path>
            </g>
            <path d="M431.768524,156.929901 C225.356029,156.929901 58.0261732,324.259757 58.0261732,530.672252 C58.0261732,737.083633 225.356029,904.413489 431.768524,904.413489 C638.181019,904.413489 805.510874,737.083633 805.510874,530.672252 C805.510874,324.259757 638.181019,156.929901 431.768524,156.929901" id="Fill-15" fill="#CED7EC"></path>
            <path d="M431.768524,179.483419 C237.812771,179.483419 80.5803588,336.714718 80.5803588,530.671584 C80.5803588,724.628449 237.812771,881.859748 431.768524,881.859748 C625.724276,881.859748 782.956689,724.628449 782.956689,530.671584 C782.956689,336.714718 625.724276,179.483419 431.768524,179.483419" id="Fill-17" fill="#FFFFFF"></path>
            <path d="M447.18892,519.36621 L416.348796,519.36621 L416.348796,300.250911 C416.348796,291.734499 423.251889,284.830293 431.768301,284.830293 C440.284713,284.830293 447.18892,291.734499 447.18892,300.250911 L447.18892,519.36621 Z" id="Fill-19" fill="#253369"></path>
            <path d="M431.768524,546.092202 L431.768524,515.250965 L573.369885,515.250965 C581.886297,515.250965 588.790503,522.155171 588.790503,530.671584 C588.790503,539.187996 581.886297,546.092202 573.369885,546.092202 L431.768524,546.092202 Z" id="Fill-21" fill="#253369"></path>
            <path d="M462.609093,530.672029 C462.609093,547.704854 448.801794,561.512153 431.768969,561.512153 C414.736144,561.512153 400.927732,547.704854 400.927732,530.672029 C400.927732,513.639204 414.736144,499.830792 431.768969,499.830792 C448.801794,499.830792 462.609093,513.639204 462.609093,530.672029" id="Fill-25" fill="#FF7946"></path>
            <path d="M431.730445,253.106573 L431.730445,253.106573 C423.214033,253.106573 416.309827,246.202367 416.309827,237.685955 L416.309827,206.845831 C416.309827,198.329419 423.214033,191.425212 431.730445,191.425212 C440.246858,191.425212 447.151064,198.329419 447.151064,206.845831 L447.151064,237.685955 C447.151064,246.202367 440.246858,253.106573 431.730445,253.106573" id="Fill-27" fill="#FFBD3C"></path>
            <path d="M431.730445,253.106573 L431.730445,253.106573 C423.214033,253.106573 416.309827,246.202367 416.309827,237.685955 L416.309827,206.845831 C416.309827,198.329419 423.214033,191.425212 431.730445,191.425212 C440.246858,191.425212 447.151064,198.329419 447.151064,206.845831 L447.151064,237.685955 C447.151064,246.202367 440.246858,253.106573 431.730445,253.106573" id="Fill-29" fill="#CED7EC"></path>
            <path d="M235.473179,334.430016 L235.473179,334.430016 C229.450788,340.452408 219.687365,340.452408 213.666087,334.430016 L191.85788,312.622924 C185.835489,306.600532 185.835489,296.837109 191.85788,290.814718 C197.880272,284.792326 207.643695,284.792326 213.666087,290.814718 L235.473179,312.622924 C241.495571,318.644202 241.495571,328.408738 235.473179,334.430016" id="Fill-31" fill="#CED7EC"></path>
            <path d="M154.202957,530.710107 L154.202957,530.710107 C154.202957,539.22652 147.298751,546.130726 138.782338,546.130726 L107.942214,546.130726 C99.4258021,546.130726 92.5215959,539.22652 92.5215959,530.710107 C92.5215959,522.193695 99.4258021,515.289489 107.942214,515.289489 L138.782338,515.289489 C147.298751,515.289489 154.202957,522.193695 154.202957,530.710107" id="Fill-33" fill="#CED7EC"></path>
            <path d="M235.527068,726.967373 L235.527068,726.967373 C241.54946,732.989765 241.54946,742.753188 235.527068,748.774466 L213.719975,770.582672 C207.697584,776.605064 197.934161,776.605064 191.911769,770.582672 C185.889377,764.56028 185.889377,754.796858 191.911769,748.774466 L213.719975,726.967373 C219.741254,720.944981 229.504676,720.944981 235.527068,726.967373" id="Fill-35" fill="#CED7EC"></path>
            <path d="M431.806491,808.237485 L431.806491,808.237485 C440.322903,808.237485 447.227109,815.141691 447.227109,823.658103 L447.227109,854.498227 C447.227109,863.014639 440.322903,869.917732 431.806491,869.917732 C423.290078,869.917732 416.385872,863.014639 416.385872,854.498227 L416.385872,823.658103 C416.385872,815.141691 423.290078,808.237485 431.806491,808.237485" id="Fill-37" fill="#CED7EC"></path>
            <path d="M628.063757,726.913485 L628.063757,726.913485 C634.086148,720.891093 643.849571,720.891093 649.870849,726.913485 L671.679056,748.720577 C677.701447,754.742969 677.701447,764.506392 671.679056,770.528784 C665.656664,776.551175 655.893241,776.551175 649.871963,770.528784 L628.063757,748.720577 C622.041365,742.699299 622.041365,732.935876 628.063757,726.913485" id="Fill-39" fill="#CED7EC"></path>
            <path d="M709.333979,530.634062 L709.333979,530.634062 C709.333979,522.117649 716.238186,515.213443 724.754598,515.213443 L755.594722,515.213443 C764.111134,515.213443 771.01534,522.117649 771.01534,530.634062 L771.01534,530.634062 C771.01534,539.150474 764.111134,546.05468 755.594722,546.05468 L724.754598,546.05468 C716.238186,546.05468 709.333979,539.150474 709.333979,530.634062" id="Fill-41" fill="#CED7EC"></path>
            <path d="M628.009979,334.376239 L628.009979,334.376239 C621.987588,328.354961 621.987588,318.590425 628.009979,312.569146 L649.817072,290.76094 C655.839464,284.738548 665.602887,284.738548 671.625278,290.76094 L671.625278,290.76094 C677.64767,296.783332 677.64767,306.546755 671.625278,312.569146 L649.817072,334.376239 C643.795794,340.398631 634.032371,340.398631 628.009979,334.376239" id="Fill-43" fill="#CED7EC"></path>
            <path d="M298.160276,71.2578433 C293.241266,71.2578433 289.25306,67.2696371 289.25306,62.3506268 L289.25306,8.90732784 C289.25306,3.98831753 293.241266,0.000111340206 298.160276,0.000111340206 L565.376771,0.000111340206 C570.295781,0.000111340206 574.283988,3.98831753 574.283988,8.90732784 L574.283988,62.3506268 C574.283988,67.2696371 570.295781,71.2578433 565.376771,71.2578433 L298.160276,71.2578433 Z" id="Fill-47" fill="#597EF7"></path>
        </g>
    </g>
</svg>