<svg xmlns="http://www.w3.org/2000/svg" xmlns:xlink="http://www.w3.org/1999/xlink" width="1024" height="1024" version="1.1" viewBox="0 0 1024 1024"><title>3.通用组件/彩色版/详情页02</title><desc>Created with Sketch.</desc><g id="3.通用组件/彩色版/详情页02" fill="none" fill-rule="evenodd" stroke="none" stroke-width="1"><g id="分组" transform="translate(56.000000, 109.000000)"><g id="分组-copy-8"><path id="Fill-1" fill="#253369" d="M912.999284,102.115487 L0.999283887,102.115487 L0.999283887,28.9403627 C0.999283887,13.0669895 13.9050509,0.197269589 29.8228842,0.197269589 L884.175684,0.197269589 C900.094718,0.197269589 912.999284,13.0669895 912.999284,28.9403627 L912.999284,102.115487 Z"/><path id="Fill-3" fill="#E4EBF7" d="M880.901075,805.26087 L33.0989248,805.26087 C15.3722936,805.26087 1,792.409899 1,776.556979 L1,93.0994118 L913,93.0994118 L913,776.556979 C913,792.409899 898.629044,805.26087 880.901075,805.26087"/><path id="Fill-5" fill="#FF7946" d="M67.1387264,47.6274451 C67.1387264,57.5893221 59.0896209,65.6661312 49.1607199,65.6661312 C39.2330124,65.6661312 31.1851004,57.5893221 31.1851004,47.6274451 C31.1851004,37.6655681 39.2330124,29.5887589 49.1607199,29.5887589 C59.0896209,29.5887589 67.1387264,37.6655681 67.1387264,47.6274451"/><path id="Fill-7" fill="#FFC53D" d="M134.273088,47.6274451 C134.273088,57.5893221 126.225176,65.6661312 116.296275,65.6661312 C106.368568,65.6661312 98.3206555,57.5893221 98.3206555,47.6274451 C98.3206555,37.6655681 106.368568,29.5887589 116.296275,29.5887589 C126.225176,29.5887589 134.273088,37.6655681 134.273088,47.6274451"/><path id="Fill-9" fill="#BAE637" d="M201.408643,47.6274451 C201.408643,57.5893221 193.360731,65.6661312 183.43183,65.6661312 C173.504123,65.6661312 165.456211,57.5893221 165.456211,47.6274451 C165.456211,37.6655681 173.504123,29.5887589 183.43183,29.5887589 C193.360731,29.5887589 201.408643,37.6655681 201.408643,47.6274451"/></g><rect id="矩形" width="784.15" height="517.547" x="64.925" y="229.971" fill="#FFF" fill-rule="nonzero"/><rect id="矩形-copy" width="784.15" height="29.941" x="64.925" y="157.258" fill="#FFF" fill-rule="nonzero"/><rect id="矩形-copy-2" width="596.636" height="29.941" x="158.682" y="315.516" fill="#D6E0F2" fill-rule="nonzero" rx="14.927"/><rect id="矩形-copy-3" width="383.551" height="29.941" x="158.682" y="392.507" fill="#D6E0F2" fill-rule="nonzero" rx="14.927"/><rect id="矩形-copy-4" width="426.168" height="29.941" x="158.682" y="465.22" fill="#D6E0F2" fill-rule="nonzero" rx="14.927"/><rect id="矩形" width="255.701" height="121.902" x="158.682" y="570.012" fill="#597EF7" fill-rule="nonzero" rx="25.589"/><rect id="矩形-copy-5" width="255.701" height="121.902" x="499.617" y="570.012" fill="#FFC53D" fill-rule="nonzero" rx="25.589"/></g></g></svg>