<svg xmlns="http://www.w3.org/2000/svg" xmlns:xlink="http://www.w3.org/1999/xlink" width="1024" height="1024" version="1.1" viewBox="0 0 1024 1024"><title>3.通用组件/彩色版/详情页01</title><desc>Created with Sketch.</desc><g id="3.通用组件/彩色版/详情页01" fill="none" fill-rule="evenodd" stroke="none" stroke-width="1"><g id="分组" transform="translate(56.000000, 166.000000)"><g id="分组-2-copy-2"><path id="Fill-1" fill="#253369" d="M911.692857,87.593968 L0.915047196,87.593968 L0.915047196,24.7822117 C0.915047196,11.1568923 12.0067506,0.109836129 25.6871374,0.109836129 L886.920767,0.109836129 C900.602186,0.109836129 911.692857,11.1568923 911.692857,24.7822117 L911.692857,87.593968 Z"/><path id="Fill-5" fill="#FF7946" d="M64.7794215,41.184363 C64.7794215,49.7353972 57.8617164,56.6683347 49.3284441,56.6683347 C40.7961974,56.6683347 33.8795181,49.7353972 33.8795181,41.184363 C33.8795181,32.6333288 40.7961974,25.7003913 49.3284441,25.7003913 C57.8617164,25.7003913 64.7794215,32.6333288 64.7794215,41.184363"/><path id="Fill-7" fill="#FFC53D" d="M122.465143,41.184363 C122.465143,49.7353972 115.548463,56.6683347 107.015191,56.6683347 C98.4829444,56.6683347 91.5662651,49.7353972 91.5662651,41.184363 C91.5662651,32.6333288 98.4829444,25.7003913 107.015191,25.7003913 C115.548463,25.7003913 122.465143,32.6333288 122.465143,41.184363"/><path id="Fill-9" fill="#BAE637" d="M180.15189,41.184363 C180.15189,49.7353972 173.23521,56.6683347 164.701938,56.6683347 C156.169691,56.6683347 149.253012,49.7353972 149.253012,41.184363 C149.253012,32.6333288 156.169691,25.7003913 164.701938,25.7003913 C173.23521,25.7003913 180.15189,32.6333288 180.15189,41.184363"/></g><path id="Fill-3-Copy-2" fill="#E4EBF7" d="M28.5026904,691.156951 C13.2677543,691.156951 0.915662651,680.125988 0.915662651,666.518226 L0.915662651,79.8547871 L911.740811,79.8547871 L911.740811,666.518226 C911.740811,680.125988 899.389869,691.156951 884.153784,691.156951 L28.5026904,691.156951 Z"/><rect id="矩形-copy-13" width="549.398" height="514.008" x="301.253" y="130.338" fill="#FFF" fill-rule="nonzero" rx="10.993"/><rect id="矩形-copy-14" width="201.446" height="514.008" x="59.518" y="129.42" fill="#FFF" fill-rule="nonzero" rx="10.993"/><rect id="矩形-copy-15" width="113.196" height="27.932" x="103.47" y="331.351" fill="#AAC2FE" fill-rule="nonzero" rx="6.244"/><rect id="矩形-copy-16" width="113.196" height="27.087" x="103.47" y="385.506" fill="#FF7946" fill-rule="nonzero" rx="6.15"/><rect id="矩形-copy-17" width="113.196" height="27.087" x="103.47" y="438.742" fill="#FFC53D" fill-rule="nonzero" rx="6.15"/><rect id="矩形-copy-18" width="113.196" height="27.087" x="103.47" y="491.979" fill="#597EF7" fill-rule="nonzero" rx="6.15"/><rect id="矩形-copy-19" width="329.639" height="14.686" x="356.193" y="367.148" fill="#AAC2FE" fill-rule="nonzero" rx="7.329"/><rect id="矩形-copy-20" width="329.639" height="14.686" x="356.193" y="442.414" fill="#AAC2FE" fill-rule="nonzero" rx="7.329"/><rect id="矩形-copy-21" width="439.518" height="14.686" x="356.193" y="403.863" fill="#AAC2FE" fill-rule="nonzero" rx="7.329"/><rect id="矩形-copy-2" width="201.446" height="104.637" x="356.193" y="490.143" fill="#FFC53D" fill-rule="nonzero" rx="21.986"/><rect id="矩形-copy-22" width="439.518" height="165.217" x="356.193" y="179.903" fill="#597EF7" fill-rule="nonzero" rx="14.657"/><rect id="矩形-copy-23" width="201.446" height="104.637" x="594.265" y="490.143" fill="#FF7946" fill-rule="nonzero" rx="21.986"/><g id="分组-3-copy-2" fill-rule="nonzero" transform="translate(108.963855, 172.559770)"><ellipse id="椭圆形" cx="51.099" cy="51.323" fill="#FFC53D" rx="50.564" ry="51.139"/><path id="路径" fill="#253369" d="M51.099243,102.461474 C65.6727985,102.469663 79.5036664,95.9583038 88.8800512,84.6748398 C81.4920423,70.4899944 66.943692,61.6103508 51.0913424,61.6103508 C35.2389927,61.6103508 20.6906424,70.4899944 13.3026335,84.6748398 C22.6839278,95.9607955 36.5206441,102.472185 51.099243,102.461474 L51.099243,102.461474 Z"/><ellipse id="椭圆形" cx="51.368" cy="44.411" fill="#253369" rx="19.017" ry="19.233"/></g></g></g></svg>