<?xml version="1.0" encoding="UTF-8"?>
<svg width="1024px" height="1024px" viewBox="0 0 1024 1024" version="1.1" xmlns="http://www.w3.org/2000/svg" xmlns:xlink="http://www.w3.org/1999/xlink">
    <!-- Generator: Sketch 61.2 (89653) - https://sketch.com -->
    <title>3.通用组件/彩色版/账单</title>
    <desc>Created with Sketch.</desc>
    <g id="3.通用组件/彩色版/账单" stroke="none" stroke-width="1" fill="none" fill-rule="evenodd">
        <g id="资源-4" transform="translate(165.000000, 86.000000)" fill-rule="nonzero">
            <path d="M29.1203977,817.094047 L57.8859091,846.347788 L87.0161648,817.094047 L115.781676,846.347788 L144.911932,817.094047 L173.677443,846.347788 L202.787983,817.094047 L231.553494,846.347788 L260.68375,817.094047 L289.449261,846.347788 L318.569659,817.094047 L347.33517,846.347788 L376.455568,817.094047 L405.22108,846.347788 L434.351335,817.094047 L463.106989,846.347788 L492.237244,817.094047 L521.002756,846.347788 L550.123153,817.094047 L578.888665,846.347788 L608.01892,817.094047 L636.823864,846.357644 L665.90483,817.094047 L694,845.677554 L694,23.6553162 C694,10.5908458 683.407464,0 670.340909,0 L23.6590909,0 C10.5925358,0 0,10.5908458 0,23.6553162 L0,851 L0,851 L0,846.357644 L29.1203977,817.094047 Z" id="路径" fill="#E4EBF7"></path>
            <rect id="矩形" fill="#A3B5D6" x="126" y="284" width="442" height="32" rx="8.72727273"></rect>
            <path d="M23.6590909,0 L670.340909,0 C683.407464,0 694,10.745166 694,24 L694,32 L0,32 L0,24 C0,10.745166 10.5925358,0 23.6590909,0 Z" id="路径" fill="#597EF7"></path>
            <rect id="矩形" fill="#A3B5D6" x="126" y="350" width="442" height="32" rx="8.72727273"></rect>
            <rect id="矩形" fill="#A3B5D6" x="126" y="416" width="442" height="32" rx="8.72727273"></rect>
            <path d="M62.7418182,636 L198.258182,636 C201.981585,636 205,639.018415 205,642.741818 L205,643.258182 C205,646.981585 201.981585,650 198.258182,650 L62.7418182,650 C59.0184148,650 56,646.981585 56,643.258182 L56,642.741818 C56,639.018415 59.0184148,636 62.7418182,636 Z" id="矩形" fill="#253369" transform="translate(130.500000, 643.000000) rotate(90.000000) translate(-130.500000, -643.000000) "></path>
            <path d="M91.7418182,634 L227.258182,634 C230.981585,634 234,637.018415 234,640.741818 L234,648.258182 C234,651.981585 230.981585,655 227.258182,655 L91.7418182,655 C88.0184148,655 85,651.981585 85,648.258182 L85,640.741818 C85,637.018415 88.0184148,634 91.7418182,634 Z" id="矩形" fill="#253369" transform="translate(159.500000, 644.500000) rotate(90.000000) translate(-159.500000, -644.500000) "></path>
            <path d="M235.741818,634 L371.258182,634 C374.981585,634 378,637.018415 378,640.741818 L378,648.258182 C378,651.981585 374.981585,655 371.258182,655 L235.741818,655 C232.018415,655 229,651.981585 229,648.258182 L229,640.741818 C229,637.018415 232.018415,634 235.741818,634 Z" id="矩形" fill="#253369" transform="translate(303.500000, 644.500000) rotate(90.000000) translate(-303.500000, -644.500000) "></path>
            <path d="M177.741818,634 L313.258182,634 C316.981585,634 320,637.018415 320,640.741818 L320,648.258182 C320,651.981585 316.981585,655 313.258182,655 L177.741818,655 C174.018415,655 171,651.981585 171,648.258182 L171,640.741818 C171,637.018415 174.018415,634 177.741818,634 Z" id="矩形" fill="#253369" transform="translate(245.500000, 644.500000) rotate(90.000000) translate(-245.500000, -644.500000) "></path>
            <path d="M118.5,639 L256.5,639 C259.537566,639 262,641.462434 262,644.5 C262,647.537566 259.537566,650 256.5,650 L118.5,650 C115.462434,650 113,647.537566 113,644.5 C113,641.462434 115.462434,639 118.5,639 Z" id="矩形" fill="#253369" transform="translate(187.500000, 644.500000) rotate(90.000000) translate(-187.500000, -644.500000) "></path>
            <rect id="矩形" fill="#253369" transform="translate(216.500000, 644.500000) rotate(90.000000) translate(-216.500000, -644.500000) " x="142" y="639" width="149" height="11" rx="5.5"></rect>
            <path d="M205.5,639 L343.5,639 C346.537566,639 349,641.462434 349,644.5 C349,647.537566 346.537566,650 343.5,650 L205.5,650 C202.462434,650 200,647.537566 200,644.5 C200,641.462434 202.462434,639 205.5,639 Z" id="矩形" fill="#253369" transform="translate(274.500000, 644.500000) rotate(90.000000) translate(-274.500000, -644.500000) "></path>
            <path d="M260.5,642 L404.5,642 C405.880712,642 407,643.119288 407,644.5 C407,645.880712 405.880712,647 404.5,647 L260.5,647 C259.119288,647 258,645.880712 258,644.5 C258,643.119288 259.119288,642 260.5,642 Z" id="矩形" fill="#253369" transform="translate(332.500000, 644.500000) rotate(90.000000) translate(-332.500000, -644.500000) "></path>
            <path d="M292.741818,636 L428.258182,636 C431.981585,636 435,639.018415 435,642.741818 L435,643.258182 C435,646.981585 431.981585,650 428.258182,650 L292.741818,650 C289.018415,650 286,646.981585 286,643.258182 L286,642.741818 C286,639.018415 289.018415,636 292.741818,636 Z" id="矩形" fill="#253369" transform="translate(360.500000, 643.000000) rotate(90.000000) translate(-360.500000, -643.000000) "></path>
            <path d="M321.741818,634 L457.258182,634 C460.981585,634 464,637.018415 464,640.741818 L464,648.258182 C464,651.981585 460.981585,655 457.258182,655 L321.741818,655 C318.018415,655 315,651.981585 315,648.258182 L315,640.741818 C315,637.018415 318.018415,634 321.741818,634 Z" id="矩形" fill="#253369" transform="translate(389.500000, 644.500000) rotate(90.000000) translate(-389.500000, -644.500000) "></path>
            <path d="M465.741818,634 L601.258182,634 C604.981585,634 608,637.018415 608,640.741818 L608,648.258182 C608,651.981585 604.981585,655 601.258182,655 L465.741818,655 C462.018415,655 459,651.981585 459,648.258182 L459,640.741818 C459,637.018415 462.018415,634 465.741818,634 Z" id="矩形" fill="#253369" transform="translate(533.500000, 644.500000) rotate(90.000000) translate(-533.500000, -644.500000) "></path>
            <path d="M408.741818,634 L544.258182,634 C547.981585,634 551,637.018415 551,640.741818 L551,648.258182 C551,651.981585 547.981585,655 544.258182,655 L408.741818,655 C405.018415,655 402,651.981585 402,648.258182 L402,640.741818 C402,637.018415 405.018415,634 408.741818,634 Z" id="矩形" fill="#253369" transform="translate(476.500000, 644.500000) rotate(90.000000) translate(-476.500000, -644.500000) "></path>
            <path d="M349.5,639 L487.5,639 C490.537566,639 493,641.462434 493,644.5 C493,647.537566 490.537566,650 487.5,650 L349.5,650 C346.462434,650 344,647.537566 344,644.5 C344,641.462434 346.462434,639 349.5,639 Z" id="矩形" fill="#253369" transform="translate(418.500000, 644.500000) rotate(90.000000) translate(-418.500000, -644.500000) "></path>
            <path d="M378.5,639 L516.5,639 C519.537566,639 522,641.462434 522,644.5 C522,647.537566 519.537566,650 516.5,650 L378.5,650 C375.462434,650 373,647.537566 373,644.5 C373,641.462434 375.462434,639 378.5,639 Z" id="矩形" fill="#253369" transform="translate(447.500000, 644.500000) rotate(90.000000) translate(-447.500000, -644.500000) "></path>
            <path d="M436.5,639 L574.5,639 C577.537566,639 580,641.462434 580,644.5 C580,647.537566 577.537566,650 574.5,650 L436.5,650 C433.462434,650 431,647.537566 431,644.5 C431,641.462434 433.462434,639 436.5,639 Z" id="矩形" fill="#253369" transform="translate(505.500000, 644.500000) rotate(90.000000) translate(-505.500000, -644.500000) "></path>
            <path d="M490.5,642 L634.5,642 C635.880712,642 637,643.119288 637,644.5 C637,645.880712 635.880712,647 634.5,647 L490.5,647 C489.119288,647 488,645.880712 488,644.5 C488,643.119288 489.119288,642 490.5,642 Z" id="矩形" fill="#253369" transform="translate(562.500000, 644.500000) rotate(90.000000) translate(-562.500000, -644.500000) "></path>
            <path d="M331.404558,182.991523 C329.013619,181.231189 326.899673,179.123892 325.1328,176.73949 C322.762372,173.593751 321.182087,168.436317 320.194408,162.756237 C315.562197,162.194146 311.967047,157.677693 311.967047,152.184977 C311.967047,147.471299 314.614025,143.477493 318.288189,142.087056 C318.149914,136.83101 318.288189,133.211931 318.288189,133.211931 C318.347811,124.188037 322.868979,115.776314 330.367496,110.738141 C330.367496,110.738141 338.160278,102.001073 362.348522,102.001073 L362.348522,109.347705 C371.060357,114.144781 376.504479,123.259332 376.590845,133.192208 C376.590845,133.192208 376.709366,137.018374 376.590845,142.481506 C380.053894,144.470871 382.143918,148.197457 382.032953,152.184977 C382.032953,157.302966 378.902012,161.582748 374.734009,162.588596 C373.696947,168.337705 372.116662,173.564168 369.72648,176.73949 C367.754315,179.437337 365.328128,181.772957 362.555935,183.642365 L362.555935,194.972942 C369.140854,197.285877 375.590648,199.965772 381.874924,203 C407.510458,187.39486 419.616621,156.66639 411.499495,127.805433 C403.382369,98.9444768 377.02447,79 347,79 C316.97553,79 290.617631,98.9444768 282.500505,127.805433 C274.383379,156.66639 286.489542,187.39486 312.125076,203 C318.409352,199.965772 324.859146,197.285877 331.444065,194.972942 L331.404558,182.991523 Z" id="路径" fill="#FFFFFF"></path>
            <path d="M381.838666,203.213585 C375.562384,200.172017 369.120796,197.485639 362.544255,195.16711 L362.544255,183.809124 C365.312921,181.935194 367.736021,179.593924 369.705677,176.889551 C372.092818,173.706548 373.651365,168.467442 374.706836,162.704426 C378.869536,161.715916 381.996493,157.40601 381.996493,152.275641 C382.097058,148.304258 380.0284,144.594011 376.600766,142.598124 C376.758593,137.121776 376.600766,133.286356 376.600766,133.286356 C376.509678,123.309846 371.047099,114.161067 362.317378,109.364403 L362.317378,102 C338.159907,102 330.377039,110.758203 330.377039,110.758203 C322.888062,115.808563 318.372646,124.240633 318.3131,133.286356 C318.3131,133.286356 318.194729,136.933959 318.3131,142.18295 C314.643611,143.576749 312,147.580217 312,152.305297 C312,157.8113 315.590575,162.338678 320.216894,162.902129 C321.252637,168.595949 322.821047,173.775743 325.149003,176.919207 C326.913628,179.309376 329.024884,181.421771 331.412782,183.186363 L331.412782,195.157224 C324.83624,197.475754 318.394652,200.162132 312.118371,203.203699 C333.509649,216.265434 360.388202,216.265434 381.77948,203.203699 L381.838666,203.213585 Z" id="路径" fill="#253369"></path>
        </g>
    </g>
</svg>