<?xml version="1.0" encoding="UTF-8"?>
<svg width="1024px" height="1024px" viewBox="0 0 1024 1024" version="1.1" xmlns="http://www.w3.org/2000/svg" xmlns:xlink="http://www.w3.org/1999/xlink">
    <!-- Generator: Sketch 61.2 (89653) - https://sketch.com -->
    <title>3.通用组件/彩色版/长脚桌子</title>
    <desc>Created with Sketch.</desc>
    <defs>
        <polygon id="path-1" points="0 0.4433535 72.2702655 0.4433535 72.2702655 483.569879 0 483.569879"></polygon>
        <polygon id="path-3" points="0.210114 0.4433535 72.480015 0.4433535 72.480015 483.569879 0.210114 483.569879"></polygon>
    </defs>
    <g id="3.通用组件/彩色版/长脚桌子" stroke="none" stroke-width="1" fill="none" fill-rule="evenodd">
        <g id="编组-2" transform="translate(95.000000, 261.000000)">
            <g id="编组">
                <g transform="translate(0.000000, 17.232345)">
                    <mask id="mask-2" fill="white">
                        <use xlink:href="#path-1"></use>
                    </mask>
                    <g id="Clip-2"></g>
                    <path d="M9.7208505,483.569879 C4.0540905,483.569879 -0.4110345,478.742684 0.0300105,473.094149 L36.9198405,0.4433535 L72.2702655,0.4433535 L20.1953655,474.910574 C19.6534755,479.838614 15.4908855,483.569879 10.5324705,483.569879" id="Fill-1" fill="#F5C565" mask="url(#mask-2)"></path>
                </g>
                <g transform="translate(761.400000, 17.232345)">
                    <mask id="mask-4" fill="white">
                        <use xlink:href="#path-3"></use>
                    </mask>
                    <g id="Clip-4"></g>
                    <path d="M62.759529,483.569879 C68.426289,483.569879 72.891414,478.742684 72.450369,473.094149 L35.560539,0.4433535 L0.210114,0.4433535 L52.285014,474.910574 C52.825689,479.838614 56.989494,483.569879 61.947909,483.569879" id="Fill-3" fill="#F5C565" mask="url(#mask-4)"></path>
                </g>
                <path d="M817.868502,17.6759415 L16.012242,17.6759415 C13.101102,17.6759415 10.377072,16.2422415 8.729532,13.8450465 C4.698162,7.9814565 8.895987,0.0001215 16.012242,0.0001215 L817.868502,0.0001215 C824.983542,0.0001215 829.182582,7.9814565 825.151212,13.8450465 C823.502457,16.2422415 820.779642,17.6759415 817.868502,17.6759415" id="Fill-5" fill="#F5C565"></path>
                <polygon id="Fill-7" fill="#DF9E59" points="798.138482 29.459376 35.7417765 29.459376 36.9191115 17.676306 796.959932 17.676306"></polygon>
            </g>
        </g>
    </g>
</svg>