<?xml version="1.0" encoding="UTF-8"?>
<svg width="1024px" height="1024px" viewBox="0 0 1024 1024" version="1.1" xmlns="http://www.w3.org/2000/svg" xmlns:xlink="http://www.w3.org/1999/xlink">
    <!-- Generator: Sketch 61.2 (89653) - https://sketch.com -->
    <title>3.通用组件/彩色版/黄色钻石</title>
    <desc>Created with Sketch.</desc>
    <g id="3.通用组件/彩色版/黄色钻石" stroke="none" stroke-width="1" fill="none" fill-rule="evenodd">
        <g id="编组" transform="translate(56.000000, 143.000000)">
            <polygon id="路径-3" fill="#FFD067" points="0 194 155.593727 0 315 194"></polygon>
            <polygon id="路径-3备份" fill="#FFA724" transform="translate(760.500000, 97.000000) scale(-1, 1) translate(-760.500000, -97.000000) " points="608 194 763.8025 0 913 194"></polygon>
            <polygon id="路径-4" fill="#FFC65B" points="0 194 456 738 315.144231 194"></polygon>
            <polygon id="路径-4备份" fill="#FE9921" transform="translate(683.500000, 466.000000) scale(-1, 1) translate(-683.500000, -466.000000) " points="456 194 911 738 759.915385 194"></polygon>
            <polygon id="路径-5" fill="#FFC85A" points="154 7.74033615e-15 457 0 305.5 194"></polygon>
            <polygon id="路径-5备份" fill="#FEC65B" points="455 0 758 0 607.597826 194"></polygon>
            <polygon id="路径-6" fill="#FDBC46" points="305 193.736999 456.308288 0 608 193.736999 590.583421 252 322.695806 249.480139"></polygon>
            <polygon id="路径-7" fill="#FDB03B" points="306 194 456.251728 738 608 194"></polygon>
        </g>
    </g>
</svg>