<svg xmlns="http://www.w3.org/2000/svg" xmlns:xlink="http://www.w3.org/1999/xlink" width="512" height="1024" version="1.1" viewBox="0 0 512 1024"><title>2.人物组件/3.商务经理/站立/叉腰</title><desc>Created with Sketch.</desc><defs><polygon id="path-1" points="0 .524 94.692 .524 94.692 77.591 0 77.591"/></defs><g id="2.人物组件/3.商务经理/站立/叉腰" fill="none" fill-rule="evenodd" stroke="none" stroke-width="1"><path id="Fill-1" fill="#ADC6FF" d="M295.1561,415.9049 L309.5501,438.8714 L379.2701,399.5429 C389.3576,394.1294 392.8751,381.3854 386.9966,371.5634 C381.1166,361.7414 368.2211,358.8239 358.6871,365.1584 L295.1561,415.9049 Z"/><path id="Stroke-3" fill="#597EF7" fill-rule="nonzero" d="M295.276943,414.959348 C295.609228,414.775622 296.020369,414.870707 296.240966,415.167042 L296.296202,415.252793 L309.281702,438.738293 C309.48213,439.100786 309.350751,439.557124 308.988257,439.757552 C308.655972,439.941278 308.244831,439.846193 308.024234,439.549858 L307.968998,439.464107 L294.983498,415.978607 C294.78307,415.616114 294.914449,415.159776 295.276943,414.959348 Z"/><path id="Stroke-5" fill="#597EF7" fill-rule="nonzero" d="M310.170873,409.224991 C310.489269,409.023945 310.901025,409.092152 311.139411,409.369353 L311.205459,409.458723 L323.614959,429.111723 C323.836109,429.461959 323.731464,429.925159 323.381227,430.146309 C323.062831,430.347355 322.651075,430.279148 322.412689,430.001947 L322.346641,429.912577 L309.937141,410.259577 C309.715991,409.909341 309.820636,409.446141 310.170873,409.224991 Z"/><path id="Fill-7" fill="#FFF" d="M312.2039,429.0335 C311.0969,429.6965 310.7369,431.1305 311.3999,432.2375 C312.0614,433.343 313.4954,433.7045 314.6039,433.0415 C315.7094,432.3785 316.0694,430.9445 315.4079,429.8375 C314.7434,428.7305 313.3094,428.3705 312.2039,429.0335"/><path id="Fill-9" fill="#ADC6FF" d="M379.2908,393.983 L379.2908,393.983 C387.9953,387.4445 389.9468,375.182 383.7008,366.266 L331.1093,291.1745 C323.5718,280.415 308.6243,278.036 298.1198,285.926 C287.6168,293.816 285.7373,308.837 293.9723,319.0715 L351.4433,390.4985 C358.2668,398.9795 370.5863,400.5215 379.2908,393.983"/><g id="分组" transform="translate(122.000000, 361.848500)"><mask id="mask-2" fill="#fff"><use xlink:href="#path-1"/></mask><path id="Fill-11" fill="#ADC6FF" d="M94.69245,54.62445 L80.29845,77.59095 L10.57845,38.26245 C0.49095,32.84895 -3.02805,20.10495 2.85195,10.28295 C8.73195,0.46095 21.62745,-2.45655 31.16295,3.87795 L94.69245,54.62445 Z" mask="url(#mask-2)"/></g><path id="Stroke-13" fill="#597EF7" fill-rule="nonzero" d="M215.553866,415.820961 C215.754311,415.458477 216.210656,415.32712 216.573139,415.527566 C216.905416,415.711308 217.043482,416.110076 216.909792,416.454466 L216.866534,416.546839 L203.879534,440.032339 C203.679089,440.394823 203.222744,440.52618 202.860261,440.325734 C202.527984,440.141992 202.389918,439.743224 202.523608,439.398834 L202.566866,439.306461 L215.553866,415.820961 Z"/><path id="Stroke-15" fill="#597EF7" fill-rule="nonzero" d="M200.643691,410.026773 C200.864841,409.676536 201.328041,409.571891 201.678277,409.793041 C201.996674,409.994086 202.112103,410.395173 201.964306,410.729574 L201.912009,410.827627 L189.502509,430.480627 C189.281359,430.830864 188.818159,430.935509 188.467923,430.714359 C188.149526,430.513314 188.034097,430.112227 188.181894,429.777826 L188.234191,429.679773 L200.643691,410.026773 Z"/><path id="Fill-17" fill="#FFF" d="M199.6445,429.60155 C200.7515,430.26455 201.1115,431.69855 200.45,432.80555 C199.787,433.91255 198.353,434.27255 197.246,433.60955 C196.139,432.94655 195.779,431.51255 196.442,430.40555 C197.1035,429.29855 198.5375,428.93855 199.6445,429.60155"/><path id="Fill-19" fill="#A08889" d="M216.4133,516.70235 C216.4133,516.70235 202.0538,500.59985 205.9868,491.25485 C209.5478,482.79185 220.9613,485.87435 220.9613,485.87435 C220.9613,485.87435 229.6103,489.30035 237.9173,495.52085 C243.3623,499.59635 254.8658,505.80185 253.5278,509.14835 C251.7848,513.51185 241.0583,505.24835 238.0988,506.96135 C232.1018,510.43235 247.6088,525.21035 248.8373,528.95735 C251.2388,536.27885 233.4893,536.14985 216.4133,516.70235"/><path id="Stroke-21" fill="#607491" fill-rule="nonzero" d="M232.304726,515.310283 C232.540616,515.18932 232.829903,515.282486 232.950867,515.518376 L233.088854,515.778237 C233.168599,515.925024 233.272799,516.112644 233.401053,516.337537 C233.776859,516.996512 234.222071,517.731588 234.734506,518.523673 C236.199261,520.787784 237.907127,523.052068 239.839806,525.16373 C241.824393,527.332106 243.937338,529.215675 246.16762,530.731949 C246.38685,530.880994 246.443746,531.17954 246.294701,531.39877 C246.145656,531.618 245.84711,531.674896 245.62788,531.525851 C243.33163,529.964728 241.163781,528.032216 239.131635,525.811876 C237.160079,523.657737 235.420584,521.351519 233.928477,519.045129 C233.493088,518.372137 233.104929,517.738904 232.765169,517.156424 L232.386749,516.493332 C232.25165,516.250928 232.154695,516.06965 232.096633,515.956424 C231.97567,515.720534 232.068836,515.431247 232.304726,515.310283 Z"/><path id="Stroke-23" fill="#607491" fill-rule="nonzero" d="M226.441106,516.948469 C226.663804,516.804658 226.960919,516.868608 227.104731,517.091306 C227.367126,517.497636 227.632425,517.898626 227.900517,518.294303 C230.760608,522.515498 233.823428,525.983785 236.883998,528.748628 C237.953083,529.714413 238.944676,530.522854 239.833088,531.180099 C239.987888,531.29462 240.133833,531.40027 240.27052,531.497145 L240.853887,531.895036 C240.887538,531.916815 240.91367,531.933359 240.932079,531.94472 C241.157677,532.083939 241.2277,532.379682 241.08848,532.605279 C240.949261,532.830877 240.653518,532.9009 240.427921,532.76168 L240.115661,532.557469 L239.716622,532.281235 C239.645428,532.230784 239.571924,532.178119 239.49616,532.123228 L239.262139,531.951862 C238.349028,531.276344 237.333208,530.448151 236.240465,529.460994 C233.124383,526.646002 230.01055,523.11995 227.105765,518.832791 C226.833712,518.431269 226.56451,518.024379 226.298269,517.612094 C226.154458,517.389396 226.218408,517.092281 226.441106,516.948469 Z"/><path id="Stroke-25" fill="#607491" fill-rule="nonzero" d="M220.772738,516.749473 C221.004519,516.620812 221.296716,516.704407 221.425377,516.936188 L221.549754,517.148547 C221.64046,517.298203 221.767589,517.500151 221.933179,517.751853 C222.378938,518.42942 222.939866,519.213564 223.624327,520.093899 C225.585988,522.61693 228.142101,525.399958 231.359673,528.35989 C231.554773,528.539368 231.567437,528.843023 231.38796,529.038123 C231.208482,529.233223 230.904827,529.245887 230.709727,529.06641 C227.452737,526.070217 224.860569,523.247932 222.866448,520.683151 C222.253893,519.895301 221.736601,519.180716 221.308971,518.546395 L221.131174,518.279478 C221.009829,518.095029 220.90304,517.927709 220.810366,517.778067 L220.586023,517.402112 C220.457362,517.170331 220.540957,516.878134 220.772738,516.749473 Z"/><path id="Fill-27" fill="#A08889" d="M262.3757,284.08025 L251.3417,284.40275 C242.8007,284.65175 235.7372,277.80725 235.7192,269.26325 L235.66217,242.31875 C235.6472,235.16825 241.3292,229.30625 248.4752,229.09775 L260.5082,228.74525 C267.6557,228.53675 273.6677,234.05825 274.0712,241.19675 L275.6702,269.59625 C276.1052,277.30625 270.0947,283.85525 262.3757,284.08025"/><path id="Fill-29" fill="#A08889" d="M232.37645,225.34265 C234.14045,230.53265 232.41245,233.79215 229.47545,234.51215 C225.69395,235.43765 221.45795,231.61415 219.31445,226.56965 C216.27695,219.42065 218.97545,214.95965 223.41395,215.04215 C227.08745,215.10965 230.61395,220.15265 232.37645,225.34265"/><path id="Fill-31" fill="#A08889" d="M276.35915,224.05775 C274.90265,229.34225 276.81815,232.49525 279.79115,233.04125 C283.62065,233.74625 287.62565,229.68125 289.47065,224.51975 C292.08665,217.20575 289.13315,212.90975 284.70515,213.25025 C281.04215,213.53225 277.81715,218.77325 276.35915,224.05775"/><path id="Fill-33" fill="#A08889" d="M282.98315,215.5646 C283.63565,237.8756 272.99765,256.2866 254.98565,256.8131 C238.04315,257.3081 226.30565,239.5256 224.62865,217.2686 C222.32765,186.7646 235.68215,176.5151 252.62615,176.0201 C269.56865,175.5251 282.10715,185.5811 282.98315,215.5646"/><path id="Fill-35" fill="#604346" d="M229.9712,193.6184 L275.9132,192.1709 C275.9132,192.1709 276.9752,197.2094 277.8332,204.8609 C283.9382,211.3724 282.9497,220.9079 282.9497,220.9079 C282.9497,220.9079 290.6897,174.9089 252.6257,176.0204 C213.8567,177.1529 225.3467,222.5909 225.3467,222.5909 C224.9642,209.5034 228.8747,206.6909 228.8747,206.6909 C228.8747,206.6909 229.3457,201.1364 229.9712,193.6184"/><path id="Stroke-37" fill="#604346" fill-rule="nonzero" d="M234.048689,208.722852 L247.793189,209.144352 C248.207208,209.157049 248.532544,209.50297 248.519848,209.916989 C248.508209,210.296507 248.216569,210.601506 247.849143,210.639924 L247.747211,210.643648 L234.229,210.229 L231.932234,211.660101 C231.612611,211.859192 231.201281,211.788463 230.964598,211.509806 L230.899099,211.420034 C230.700008,211.100411 230.770737,210.689081 231.049394,210.452398 L231.139166,210.386899 L233.629166,208.835899 C233.723384,208.777211 233.829045,208.740415 233.938396,208.727598 L234.048689,208.722852 Z"/><path id="Stroke-39" fill="#604346" fill-rule="nonzero" d="M272.853338,207.586801 C272.955511,207.582381 273.057137,207.598915 273.152079,207.63498 L273.244567,207.677503 L275.821567,209.081503 C276.1853,209.279672 276.319516,209.735183 276.121347,210.098917 C275.939692,210.432339 275.541798,210.572903 275.196577,210.441374 L275.103933,210.398697 L272.71,209.094 L259.394162,209.670399 C259.014821,209.686808 258.689125,209.418479 258.623689,209.054892 L258.612451,208.953512 C258.596042,208.574171 258.864371,208.248475 259.227958,208.183039 L259.329338,208.171801 L272.853338,207.586801 Z"/><path id="Fill-41" fill="#7F6567" d="M227.04305,230.78 C227.04305,230.78 229.66355,231.179 231.35705,233.8235 C233.34905,236.933 236.43455,241.28 236.43455,241.28 C236.43455,241.28 237.90905,234.617 242.17055,232.181 C244.72805,230.72 248.55605,229.5485 254.25905,229.541 C259.64405,229.5335 263.42855,230.648 266.05655,232.0445 C270.43655,234.374 273.18005,240.8405 273.18005,240.8405 C273.18005,240.8405 275.42705,238.2395 277.20455,233.963 C278.95655,229.7435 278.99255,230.108 281.71955,229.394 C279.55505,242.132 270.88655,256.3295 254.84405,256.7975 C236.12855,257.345 229.62455,239.5775 227.04305,230.78"/><path id="Stroke-43" fill="#604346" fill-rule="nonzero" d="M256.978973,243.099066 C257.393012,243.087039 257.738407,243.412934 257.750434,243.826973 C257.761459,244.206509 257.488535,244.528364 257.124056,244.588635 L257.022527,244.598434 L252.168527,244.739434 C251.754488,244.751461 251.409093,244.425566 251.397066,244.011527 C251.386041,243.631991 251.658965,243.310136 252.023444,243.249865 L252.124973,243.240066 L256.978973,243.099066 Z"/><path id="Stroke-45" fill="#604346" fill-rule="nonzero" d="M247.990531,210.010333 C248.352567,209.895883 248.736816,210.070328 248.894513,210.404407 L248.931717,210.499381 L250.328217,214.916881 C250.345637,214.971983 250.3566,215.028821 250.360954,215.086255 L250.362509,215.17271 L249.799,229.364 L257.182623,229.148772 C257.562156,229.137646 257.884084,229.410484 257.944452,229.774947 L257.954278,229.876473 C257.965404,230.256006 257.692566,230.577934 257.328103,230.638302 L257.226577,230.648128 L249.039577,230.888128 C248.638607,230.899882 248.30592,230.595792 248.270673,230.207408 L248.268191,230.10869 L248.858,215.245 L247.501483,210.951519 C247.387033,210.589483 247.561478,210.205234 247.895557,210.047537 L247.990531,210.010333 Z"/><path id="Fill-47" fill="#604346" d="M243.4016,219.44405 C243.4616,221.48405 242.2796,223.17305 240.7646,223.21805 C239.2496,223.26305 237.9731,221.64455 237.9131,219.60455 C237.8531,217.56455 239.0336,215.87405 240.5501,215.83055 C242.0651,215.78555 243.3416,217.40405 243.4016,219.44405"/><path id="Fill-49" fill="#604346" d="M269.3645,218.6855 C269.423,220.7255 268.244,222.416 266.7275,222.4595 C265.2125,222.5045 263.936,220.886 263.876,218.846 C263.816,216.806 264.9965,215.1155 266.513,215.072 C268.0265,215.027 269.3045,216.6455 269.3645,218.6855"/><path id="Fill-51" fill="#FFF" d="M245.4326,235.55315 C245.4326,235.55315 251.7656,235.99565 261.4841,235.18415 C261.4841,235.18415 260.0201,239.19065 253.0226,239.16815 C247.5326,239.15015 245.4326,235.55315 245.4326,235.55315"/><path id="Stroke-53" fill="#604346" fill-rule="nonzero" d="M261.421692,234.436751 C255.597212,234.923098 250.590784,235.008563 246.700729,234.863877 L245.532103,234.808112 C245.513116,234.806898 245.497365,234.805847 245.484877,234.804974 C244.883852,234.762979 244.481137,235.410981 244.784903,235.931288 C245.096397,236.464833 245.728716,237.219077 246.731003,237.962941 C248.369524,239.178997 250.459012,239.909749 253.020141,239.918146 C256.257181,239.928554 258.67079,239.12419 260.359261,237.759496 C261.398401,236.91962 261.962853,236.059203 262.188544,235.441558 C262.376535,234.927085 261.967536,234.391173 261.421692,234.436751 Z M259.997,236.053 L259.855764,236.200875 C259.721545,236.333444 259.57527,236.464466 259.416367,236.592898 C258.003225,237.73506 255.92552,238.42748 253.025012,238.418154 C250.79277,238.410835 249.012517,237.788232 247.624953,236.758427 L247.344873,236.540381 L247.157,236.379 L247.655009,236.394587 C250.926147,236.479096 254.882803,236.408406 259.37768,236.097256 L259.997,236.053 Z"/><path id="Stroke-55" fill="#7C5B4D" fill-rule="nonzero" d="M269.458497,250.450822 C269.674401,250.227449 270.030505,250.221394 270.253878,250.437297 C270.477251,250.653201 270.483306,251.009305 270.267403,251.232678 C266.861762,254.756145 261.806246,257.15764 254.859875,257.36051 C247.983909,257.561372 242.561947,255.425634 238.511369,251.978104 C238.274796,251.776751 238.246244,251.421742 238.447596,251.185169 C238.648949,250.948596 239.003958,250.920044 239.240531,251.121396 C243.089169,254.397051 248.245724,256.428244 254.827029,256.23599 C261.468027,256.042038 266.249719,253.770616 269.458497,250.450822 Z"/><path id="Fill-57" fill="#ADC6FF" d="M304.42265,399.10145 L320.12765,283.25195 C317.54915,280.76045 306.61265,277.62095 275.22215,272.51795 C268.53065,271.42895 261.82265,280.70945 254.72765,281.04695 C249.92765,281.27645 240.75965,271.78895 236.74115,272.37845 C212.57165,275.93195 199.83965,278.91545 188.92115,283.81595 L206.65865,374.47745 L211.27415,397.61345 C211.27415,397.61345 207.64865,415.34345 216.32765,418.73045 C307.55315,418.73045 299.81765,417.88595 299.81765,417.88595 C299.81765,417.88595 310.56815,415.35095 304.42265,399.10145"/><polygon id="Fill-59" fill="#ADC6FF" points="235.815 266.355 227.505 275.022 240.467 295.116 255.882 279.701"/><polygon id="Fill-61" fill="#4E5C93" points="244.125 291.791 255.886 279.822 267.646 292.002 262.321 303.749 249.063 303.596"/><path id="Fill-63" fill="#4E5C93" d="M249.1328,303.4937 L262.2458,303.2492 L274.5968,379.1867 C274.7033,379.8422 274.5623,380.5127 274.1978,381.0692 L259.5938,403.4222 C258.5498,405.0197 256.2128,405.0317 255.1523,403.4447 L239.8223,380.5157 C239.4653,379.9802 239.3138,379.3337 239.3963,378.6947 L249.1328,303.4937 Z"/><path id="Stroke-65" fill="#597EF7" fill-rule="nonzero" d="M227.095471,274.393901 C227.410624,274.187808 227.823414,274.249447 228.066186,274.522814 L228.133649,274.611121 L240.537,293.579 L255.365387,279.283179 C255.636469,279.021817 256.053505,279.005219 256.343091,279.228396 L256.425871,279.302537 C256.687233,279.573619 256.703831,279.990655 256.480654,280.280241 L256.406513,280.363021 L240.926513,295.288021 C240.613914,295.589412 240.119394,295.55956 239.842664,295.243524 L239.778251,295.158579 L226.878251,275.432079 C226.651549,275.085411 226.748802,274.620602 227.095471,274.393901 Z"/><polygon id="Fill-67" fill="#ADC6FF" points="275.641 266.355 283.95 275.022 270.988 295.116 255.573 279.701"/><path id="Stroke-69" fill="#597EF7" fill-rule="nonzero" d="M281.800686,274.646331 C282.007942,274.287697 282.466685,274.164981 282.825319,274.372236 C283.154067,274.56222 283.284578,274.963525 283.144407,275.305329 L283.099414,275.396869 L271.699414,295.123369 C271.474318,295.512873 270.966868,295.611815 270.614182,295.358676 L270.529487,295.288021 L255.049487,280.363021 C254.751297,280.075522 254.74263,279.600727 255.030129,279.302537 C255.291492,279.031455 255.707645,278.999649 256.005183,279.212109 L256.090613,279.283179 L270.88,293.542 L281.800686,274.646331 Z"/><path id="Stroke-71" fill="#597EF7" fill-rule="nonzero" d="M262.61225,302.86835 C262.819357,302.86835 262.98725,303.036243 262.98725,303.24335 C262.98725,303.424568 262.858707,303.575764 262.687826,303.610731 L262.61225,303.61835 L248.61875,303.61835 C248.411643,303.61835 248.24375,303.450457 248.24375,303.24335 C248.24375,303.062132 248.372293,302.910936 248.543174,302.875969 L248.61875,302.86835 L262.61225,302.86835 Z"/><path id="Stroke-73" fill="#597EF7" fill-rule="nonzero" d="M314.001423,316.620824 C314.414546,316.650853 314.725106,317.010099 314.695076,317.423223 L314.588351,318.84033 C313.959266,326.927636 312.730227,338.571674 311.039563,352.867895 L310.490196,357.471212 C310.365287,358.508837 310.238531,359.55598 310.110009,360.612123 C309.208622,368.019357 308.25361,375.601058 307.289662,383.063936 L306.074279,392.376336 L305.188827,399.030655 L305.359404,399.590873 C305.526719,400.165198 305.693708,400.8092 305.849454,401.508896 C306.412631,404.038993 306.68666,406.608083 306.510913,409.023364 C306.180199,413.568357 304.290861,416.960009 300.442019,418.576818 C300.060132,418.737239 299.620504,418.557706 299.460082,418.175819 C299.299661,417.793932 299.479194,417.354304 299.861081,417.193882 C303.118012,415.825721 304.72142,412.947357 305.014868,408.914505 C305.178577,406.664664 304.919301,404.233881 304.385288,401.834807 C304.266523,401.301249 304.141046,400.802233 304.014394,400.345203 L303.919272,400.01042 C303.824991,399.686794 303.7526,399.460227 303.712953,399.345146 C303.67481,399.234434 303.663121,399.116328 303.678823,399.000287 L304.388282,393.685044 C304.648785,391.717627 304.928323,389.591499 305.223179,387.33104 C306.18848,379.930744 307.153779,372.353081 308.074365,364.891556 L308.620994,360.430925 C308.877879,358.319948 309.127695,356.244994 309.369811,354.210218 L310.137581,347.668256 C311.618701,334.85854 312.677655,324.487144 313.199024,317.314477 C313.229053,316.901354 313.588299,316.590794 314.001423,316.620824 Z"/><path id="Fill-75" fill="#ADC6FF" d="M132.5576,393.983 L132.5576,393.983 C123.8531,387.4445 121.9016,375.182 128.1476,366.266 L180.7391,291.1745 C188.2751,280.415 203.2256,278.036 213.7286,285.926 C224.2316,293.816 226.1111,308.837 217.8761,319.0715 L160.4051,390.4985 C153.5816,398.9795 141.2606,400.5215 132.5576,393.983"/><path id="Fill-77" fill="#253368" d="M232.28645,808.84775 C232.28645,808.84775 221.71895,834.32975 196.93295,840.42875 C180.70445,844.42175 197.81195,858.92675 226.29845,852.00275 C242.53745,848.05625 238.59995,839.84075 247.70645,839.41475 C252.98645,839.16725 263.47895,835.96475 263.81645,831.94775 C264.40595,824.92775 263.03795,821.48375 262.70045,813.30875 C261.06695,773.49875 246.66245,765.47075 232.28645,808.84775"/><path id="Fill-79" fill="#4E5C93" d="M238.9046,657.59495 L238.9046,657.59495 C225.9461,658.29995 214.7726,648.58145 213.6761,635.64995 L203.7791,489.33095 C202.7441,474.03845 214.5911,460.93145 229.9091,460.42145 C244.9511,459.91895 257.5196,471.77195 257.9006,486.81695 L261.6086,633.22295 C261.8201,646.12895 251.7941,656.89295 238.9046,657.59495"/><path id="Fill-81" fill="#4E5C93" d="M262.59695,806.3831 L261.21845,636.9311 C261.10595,623.2091 249.42995,612.4316 235.74245,613.4186 C222.52595,614.3726 212.64095,625.9481 213.77045,639.1496 L228.23495,808.2536 C228.23495,808.2536 242.43695,815.3816 262.59695,806.3831"/><path id="Fill-83" fill="#253368" d="M299.38505,807.42545 C299.38505,807.42545 310.97105,832.46045 335.98355,837.55595 C352.35905,840.89195 335.85155,856.07495 307.10705,850.30445 C290.72255,847.01495 294.32705,838.64795 285.21005,838.58945 C279.92405,838.55495 269.31155,835.77845 268.81205,831.77795 C267.93905,824.78795 269.16755,821.29145 269.17355,813.10895 C269.20355,773.26445 283.27205,764.66345 299.38505,807.42545"/><path id="Fill-85" fill="#4E5C93" d="M287.1008,656.97515 L287.1008,656.97515 C300.0998,657.15815 310.8263,646.85315 311.1683,633.85715 L314.9978,487.52315 C315.4388,472.44065 303.4658,459.90515 288.3803,459.65165 L288.3803,459.65165 C273.0713,459.39515 260.5943,471.86465 260.8418,487.17215 L263.6963,633.69815 C263.9468,646.49915 274.2998,656.79515 287.1008,656.97515"/><path id="Fill-87" fill="#4E5C93" d="M268.99835,806.18495 L263.54585,636.81545 C263.10335,623.09945 274.33685,611.85995 288.05285,612.29495 C301.29635,612.71495 311.64035,623.88245 311.04335,637.11845 L303.40835,806.66795 C303.40835,806.66795 289.50635,814.36295 268.99835,806.18495"/><polygon id="Fill-89" fill="#12183F" points="303.151 428.585 212.499 428.585 213.999 417.885 301.651 417.885"/><path id="Fill-91" fill="#4E5C93" d="M315.19955,484.5674 C313.71455,443.4704 302.96705,427.0844 302.96705,427.0844 L213.19805,427.0844 C213.19805,427.0844 201.85955,454.4234 204.04505,489.3974 C219.67205,499.1114 250.67705,501.0554 250.67705,501.0554 C253.00955,502.1864 266.77205,502.7024 269.07455,501.6284 C269.07455,501.6284 311.39855,491.0429 315.19955,484.5674"/><path id="Fill-93" fill="#FFF" d="M268.4915,430.4618 L248.5865,430.4618 C246.3515,430.4618 244.5215,428.6318 244.5215,426.3968 L244.5215,419.0033 C244.5215,416.7668 246.3515,414.9383 248.5865,414.9383 L268.4915,414.9383 C270.728,414.9383 272.558,416.7668 272.558,419.0033 L272.558,426.3968 C272.558,428.6318 270.728,430.4618 268.4915,430.4618"/><path id="Fill-95" fill="#12183F" d="M266.34995,427.95485 L250.36595,427.95485 C249.02195,427.95485 247.92245,426.85535 247.92245,425.51135 L247.92245,420.03935 C247.92245,418.69535 249.02195,417.59585 250.36595,417.59585 L266.34995,417.59585 C267.69395,417.59585 268.79345,418.69535 268.79345,420.03935 L268.79345,425.51135 C268.79345,426.85535 267.69395,427.95485 266.34995,427.95485"/><path id="Stroke-97" fill="#253368" fill-rule="nonzero" d="M272.068052,499.539722 C272.477256,499.475492 272.861049,499.755149 272.925278,500.164352 C272.984155,500.539456 272.754072,500.893207 272.400126,500.999034 L272.300648,501.021578 L258.723,503.152 L262.734285,807.224757 C262.737679,807.482062 262.609215,807.720327 262.398786,807.859771 L262.30373,807.913249 L261.825218,808.128644 L261.072557,808.450099 C260.891263,808.525591 260.700769,808.603637 260.50139,808.683937 C259.080259,809.256293 257.496297,809.82822 255.788582,810.361986 C250.762,811.933104 245.722885,812.857483 240.999771,812.807671 C235.819019,812.748683 231.33775,811.506526 227.785615,808.854096 C227.453721,808.606267 227.385574,808.136308 227.633404,807.804415 C227.881233,807.472521 228.351192,807.404374 228.683085,807.652204 C231.953602,810.094345 236.130053,811.252009 241.016248,811.305687 C245.560853,811.355612 250.452443,810.458296 255.341089,808.930292 C257.008792,808.409031 258.555451,807.850573 259.941011,807.292544 L260.751409,806.958079 L261.228,806.753 L257.214415,502.522543 C257.209986,502.186813 257.428247,501.894089 257.740619,501.79673 L257.848052,501.771722 L272.068052,499.539722 Z"/><path id="Stroke-99" fill="#597EF7" fill-rule="nonzero" d="M198.346627,322.534874 C198.759088,322.496809 199.124311,322.800316 199.162376,323.212777 C199.383357,325.607258 199.634021,328.051898 199.913218,330.543548 C201.134304,341.44094 202.872723,353.018516 204.994839,364.912786 C206.528482,373.508722 208.171735,381.767562 209.814918,389.391787 L210.27595,391.513784 C210.62696,393.116178 210.959802,394.605091 211.270941,395.970944 L212.004252,399.127802 C212.027129,399.22291 212.031179,399.321575 212.016175,399.418238 L211.955107,399.863423 C211.908193,400.231182 211.861174,400.652303 211.81723,401.119521 C211.543435,404.030579 211.518181,407.111413 211.901375,409.981879 C212.319844,413.116588 213.19497,415.664727 214.586631,417.4191 C214.84405,417.743612 214.789662,418.215361 214.46515,418.472781 C214.140638,418.7302 213.668889,418.675812 213.411469,418.3513 C211.824117,416.350231 210.865656,413.559443 210.414564,410.180361 C210.014167,407.181025 210.040295,403.993579 210.323821,400.979061 C210.357973,400.615949 210.39399,400.279062 210.430518,399.971409 L210.499495,399.42796 L210.512,399.339 L209.940839,396.88377 L209.252926,393.837227 C208.965197,392.545185 208.663009,391.166705 208.348587,389.707813 C206.701824,382.066979 205.05513,373.790842 203.518157,365.176248 C201.390693,353.252001 199.647565,341.643057 198.422548,330.710582 C198.142281,328.20939 197.890621,325.755035 197.668724,323.350623 C197.630659,322.938162 197.934166,322.572939 198.346627,322.534874 Z"/><path id="Fill-101" fill="#A08889" d="M221.63555,414.9092 C221.63555,414.9092 210.04805,403.8902 206.20055,404.3357 C200.23805,405.0257 204.76655,413.2517 204.76655,413.2517 C204.76655,413.2517 198.71405,417.6167 203.35955,424.9367 C200.12105,429.0197 203.64155,433.2422 203.64155,433.2422 C203.64155,433.2422 199.13555,439.5782 205.41455,442.1072 C214.03655,445.5812 220.32305,441.9002 219.23705,436.9742 C223.49855,432.7772 219.89105,428.7032 219.89105,428.7032 C219.89105,428.7032 222.97205,424.7222 219.37205,420.8447 C222.48905,419.0267 222.83405,416.0702 221.63555,414.9092"/><path id="Stroke-103" fill="#7C5B4D" fill-rule="nonzero" d="M207.370813,414.067686 C207.506609,413.82724 207.792811,413.725114 208.044718,413.812683 L208.137214,413.854513 L219.648214,420.355513 C219.918716,420.508283 220.014156,420.851412 219.861387,421.121914 C219.725591,421.36236 219.439389,421.464486 219.187482,421.376917 L219.094986,421.335087 L207.583986,414.834087 C207.313484,414.681317 207.218044,414.338188 207.370813,414.067686 Z"/><path id="Stroke-105" fill="#7C5B4D" fill-rule="nonzero" d="M208.286625,425.588748 C208.359096,425.31871 208.616237,425.147562 208.885671,425.174735 L208.975702,425.191275 L220.036702,428.159775 C220.336744,428.240299 220.514699,428.548809 220.434175,428.848852 C220.361704,429.11889 220.104563,429.290038 219.835129,429.262865 L219.745098,429.246325 L208.684098,426.277825 C208.384056,426.197301 208.206101,425.888791 208.286625,425.588748 Z"/><path id="Stroke-107" fill="#7C5B4D" fill-rule="nonzero" d="M208.681626,434.62358 L219.330126,436.41908 C219.636462,436.470733 219.842923,436.76094 219.79127,437.067276 C219.744783,437.342978 219.505066,437.537782 219.234269,437.536347 L219.143074,437.52842 L208.494574,435.73292 C208.188238,435.681267 207.981777,435.39106 208.03343,435.084724 C208.079917,434.809022 208.319634,434.614218 208.590431,434.615653 L208.681626,434.62358 Z"/><path id="Stroke-109" fill="#597EF7" fill-rule="nonzero" d="M152.580985,365.252827 C152.818328,364.960485 153.230264,364.893376 153.544804,365.079742 L153.635973,365.143285 L169.964973,378.400285 C170.286549,378.661362 170.335593,379.133697 170.074515,379.455273 C169.837172,379.747615 169.425236,379.814724 169.110696,379.628358 L169.019527,379.564815 L152.690527,366.307815 C152.368951,366.046738 152.319907,365.574403 152.580985,365.252827 Z"/><path id="Fill-111" fill="#A08889" d="M290.21225,414.341 C290.21225,414.341 301.80125,403.322 305.64725,403.7675 C311.61125,404.459 307.42475,415.9895 307.42475,415.9895 C307.42475,415.9895 312.48425,419.411 309.04925,425.2565 C311.12225,430.9925 307.93325,433.6955 307.93325,433.6955 C307.93325,433.6955 311.20925,438.074 306.43475,441.539 C301.66175,445.004 290.91875,443.852 292.61225,436.406 C288.35075,432.209 291.95825,428.135 291.95825,428.135 C291.95825,428.135 288.87575,424.154 292.47725,420.278 C289.36025,418.4585 289.01375,415.502 290.21225,414.341"/><path id="Stroke-113" fill="#7C5B4D" fill-rule="nonzero" d="M303.711186,413.286463 C303.981688,413.133694 304.324817,413.229134 304.477587,413.499636 C304.613382,413.740082 304.55306,414.037913 304.347997,414.208424 L304.264414,414.266037 L292.753414,420.767037 C292.482912,420.919806 292.139783,420.824366 291.987013,420.553864 C291.851218,420.313418 291.91154,420.015587 292.116603,419.845076 L292.200186,419.787463 L303.711186,413.286463 Z"/><path id="Stroke-115" fill="#7C5B4D" fill-rule="nonzero" d="M302.87208,424.62308 C303.17212,424.542545 303.480636,424.72049 303.56117,425.02053 C303.633651,425.290566 303.496764,425.567468 303.249933,425.678857 L303.16372,425.70962 L292.10422,428.67812 C291.80418,428.758655 291.495664,428.58071 291.41513,428.28067 C291.342649,428.010634 291.479536,427.733732 291.726367,427.622343 L291.81258,427.59158 L302.87208,424.62308 Z"/><path id="Stroke-117" fill="#7C5B4D" fill-rule="nonzero" d="M303.166024,434.05538 C303.47236,434.003727 303.762567,434.210188 303.81422,434.516524 C303.860708,434.792226 303.698123,435.054865 303.441822,435.14229 L303.353076,435.16472 L292.704576,436.96022 C292.39824,437.011873 292.108033,436.805412 292.05638,436.499076 C292.009892,436.223374 292.172477,435.960735 292.428778,435.87331 L292.517524,435.85088 L303.166024,434.05538 Z"/><path id="Stroke-119" fill="#597EF7" fill-rule="nonzero" d="M358.213953,364.575363 C358.535541,364.3143 359.007873,364.363365 359.268937,364.684953 C359.506267,364.977306 359.487293,365.394241 359.240268,365.663772 L359.159347,365.739937 L342.828847,378.996937 C342.507259,379.258 342.034927,379.208935 341.773863,378.887347 C341.536533,378.594994 341.555507,378.178059 341.802532,377.908528 L341.883453,377.832363 L358.213953,364.575363 Z"/></g></svg>