<svg xmlns="http://www.w3.org/2000/svg" xmlns:xlink="http://www.w3.org/1999/xlink" width="512" height="1024" version="1.1" viewBox="0 0 512 1024"><title>2.人物组件/3.商务经理/站立/摸后脑勺</title><desc>Created with Sketch.</desc><defs><polygon id="path-1" points=".394 1.277 72.529 1.277 72.529 78 .394 78"/></defs><g id="2.人物组件/3.商务经理/站立/摸后脑勺" fill="none" fill-rule="evenodd" stroke="none" stroke-width="1"><path id="Fill-1" fill="#A08889" d="M222.44,297.6154 L222.44,297.6154 C210.9215,296.5384 202.562,286.1719 203.951,274.6879 L206.522,253.4179 C207.38,246.3199 213.734,241.1944 220.853,241.8604 L232.838,242.9809 C239.957,243.6469 245.252,249.8599 244.7795,256.9939 L243.266,279.8689 C242.555,290.5909 233.1395,298.6159 222.44,297.6154"/><path id="Fill-3" fill="#A08889" d="M205.33355,236.1682 C206.44955,241.5352 204.33755,244.5592 201.33455,244.9147 C197.46755,245.3722 193.73105,241.0597 192.21905,235.7917 C190.07555,228.3247 193.30055,224.2267 197.69555,224.8492 C201.33305,225.3652 204.21605,230.8012 205.33355,236.1682"/><path id="Fill-5" fill="#A08889" d="M249.14405,240.26305 C247.05155,245.33005 248.56805,248.69305 251.45255,249.59905 C255.16805,250.76455 259.63805,247.22005 262.10105,242.32255 C265.59005,235.38205 263.18105,230.75905 258.74555,230.55655 C255.07655,230.38855 251.23655,235.19605 249.14405,240.26305"/><path id="Fill-7" fill="#A08889" d="M256.754,232.64185 C254.6765,254.86435 241.871,271.84135 223.9295,270.16435 C207.0545,268.58635 197.576,249.50335 198.6275,227.20885 C200.0705,196.65235 214.5755,188.10985 231.452,189.68785 C248.3285,191.26435 259.5455,202.77685 256.754,232.64185"/><path id="Fill-9" fill="#604346" d="M206.81885,204.38755 L252.59435,208.55905 C252.59435,208.55905 253.03385,213.69055 252.94985,221.38855 C258.21485,228.59755 256.06835,237.94105 256.06835,237.94105 C256.06835,237.94105 269.36735,193.23055 231.45185,189.68755 C192.83585,186.07705 198.69185,232.57855 198.69185,232.57855 C199.90985,219.54205 204.13385,217.22905 204.13385,217.22905 C204.13385,217.22905 205.28135,211.77355 206.81885,204.38755"/><path id="Stroke-11" fill="#604346" fill-rule="nonzero" d="M233.542083,220.700057 L233.643252,220.71305 L247.761252,223.50005 C247.831222,223.513863 247.898682,223.537548 247.961657,223.570252 L248.052509,223.625965 L250.437509,225.332965 C250.774339,225.574042 250.851962,226.042529 250.610885,226.379359 C250.391724,226.685568 249.984621,226.777557 249.659348,226.610627 L249.564491,226.552735 L247.311,224.94 L233.352748,222.18465 C232.980241,222.111114 232.727031,221.77353 232.749207,221.404767 L232.7622,221.303598 C232.835736,220.931091 233.17332,220.677881 233.542083,220.700057 Z"/><path id="Fill-13" fill="#7F6567" d="M199.3745,240.91345 C199.3745,240.91345 201.9275,241.63045 203.285,244.46095 C204.8825,247.79095 207.413,252.48145 207.413,252.48145 C207.413,252.48145 209.6915,246.04795 214.2185,244.15195 C216.935,243.01345 220.877,242.31745 226.538,243.00595 C231.8855,243.65545 235.505,245.22595 237.944,246.93295 C242.006,249.77845 243.9395,256.53145 243.9395,256.53145 C243.9395,256.53145 246.4865,254.22445 248.774,250.19695 C251.027,246.22345 251.0195,246.58795 253.811,246.21295 C250.109,258.59245 239.771,271.62445 223.7915,270.13195 C205.1495,268.38895 200.8625,249.95995 199.3745,240.91345"/><path id="Stroke-15" fill="#604346" fill-rule="nonzero" d="M222.746997,256.342695 L227.584497,256.794195 C227.996918,256.832688 228.300047,257.198226 228.261555,257.610647 C228.22627,257.9887 227.916176,258.274917 227.547069,258.290345 L227.445103,258.287705 L222.607603,257.836205 C222.195182,257.797712 221.892053,257.432174 221.930545,257.019753 C221.96583,256.6417 222.275924,256.355483 222.645031,256.340055 L222.746997,256.342695 Z"/><path id="Stroke-17" fill="#604346" fill-rule="nonzero" d="M223.327058,220.277532 C223.706358,220.260197 224.032708,220.52773 224.099032,220.891156 L224.110518,220.992508 L224.436018,228.114508 L224.426965,228.269812 L222.134,242.288 L229.489572,242.975002 C229.867621,243.010325 230.153807,243.320447 230.169198,243.689555 L230.166548,243.791522 C230.131225,244.169571 229.821103,244.455757 229.451995,244.471148 L229.350028,244.468498 L221.194528,243.706498 C220.795136,243.669181 220.502092,243.326741 220.514543,242.936968 L220.524135,242.838688 L222.933,228.104 L222.612082,221.060992 C222.594747,220.681692 222.86228,220.355342 223.225706,220.289018 L223.327058,220.277532 Z"/><path id="Stroke-19" fill="#604346" fill-rule="nonzero" d="M214.676176,226.977653 C216.653723,227.162434 217.966316,229.324854 217.742678,231.729842 C217.704326,232.142276 217.338892,232.44553 216.926458,232.407178 C216.514024,232.368826 216.21077,232.003392 216.249122,231.590958 C216.40353,229.93046 215.576716,228.568333 214.536693,228.471154 C213.4951,228.373924 212.430769,229.558307 212.275127,231.218888 C212.236474,231.631295 211.870818,231.934281 211.458412,231.895627 C211.046005,231.856974 210.743019,231.491318 210.781673,231.078912 C211.000272,228.746616 212.596176,226.907398 214.497103,226.966507 L214.676176,226.977653 Z"/><path id="Stroke-21" fill="#604346" fill-rule="nonzero" d="M240.537142,229.394665 C242.515638,229.581316 243.828096,231.742009 243.604478,234.146792 C243.566126,234.559226 243.200692,234.86248 242.788258,234.824128 C242.375824,234.785776 242.07257,234.420342 242.110922,234.007908 C242.265327,232.347441 241.438576,230.986367 240.396924,230.888097 C239.356251,230.790857 238.291278,231.975953 238.136978,233.635292 C238.098626,234.047726 237.733192,234.35098 237.320758,234.312628 C236.908324,234.274276 236.60507,233.908842 236.643422,233.496408 C236.860243,231.164714 238.457174,229.324312 240.358075,229.383508 L240.537142,229.394665 Z"/><path id="Fill-23" fill="#FFF" d="M217.04495,247.8964 C217.04495,247.8964 223.27595,249.1099 233.01995,249.4894 C233.01995,249.4894 231.07895,253.2874 224.13695,252.4114 C218.69045,251.7229 217.04495,247.8964 217.04495,247.8964"/><path id="Stroke-25" fill="#604346" fill-rule="nonzero" d="M216.355955,248.192687 C216.646468,248.868255 217.295819,249.828073 218.405252,250.776668 C219.849586,252.011613 221.71719,252.861483 224.04289,253.155478 C227.529482,253.595446 230.156739,252.96598 232.013379,251.623804 C232.909102,250.976281 233.441983,250.311682 233.68779,249.830705 C233.937037,249.342998 233.59643,248.761284 233.049138,248.739968 C229.502959,248.601855 226.18076,248.344888 223.128609,248.00356 L222.051841,247.878263 C221.002857,247.751316 220.037808,247.61986 219.161946,247.487833 L218.227516,247.341302 L217.18832,247.160231 C216.596851,247.045041 216.117906,247.639119 216.355955,248.192687 Z M218.652,248.926 L219.389993,249.037959 C220.462917,249.194067 221.656319,249.348262 222.9619,249.494268 L223.896144,249.595242 C226.094802,249.824703 228.424016,250.010571 230.868084,250.140948 L231.439,250.169 L231.367958,250.230295 C231.293487,250.290181 231.215722,250.349535 231.134598,250.40818 C229.592868,251.522705 227.347739,252.060617 224.230847,251.667301 C222.2015,251.410768 220.605766,250.684615 219.380048,249.636592 C219.111211,249.40673 218.869557,249.169066 218.652,248.926 Z"/><path id="Stroke-27" fill="#604346" fill-rule="nonzero" d="M208.07676,262.42049 C208.381847,262.140322 208.856291,262.160522 209.13646,262.46561 C212.52081,266.150971 217.354632,268.775865 223.862401,269.38416 C230.424795,269.998014 235.397587,268.344147 238.9542,265.470522 C239.276391,265.210203 239.748608,265.26036 240.008928,265.58255 C240.269247,265.904741 240.21909,266.376958 239.8969,266.637278 C236.046741,269.748078 230.690632,271.529429 223.72275,270.877645 C216.82371,270.232777 211.655386,267.42624 208.03164,263.48019 C207.751472,263.175103 207.771672,262.700659 208.07676,262.42049 Z"/><path id="Stroke-29" fill="#604346" fill-rule="nonzero" d="M208.92839,219.867551 L223.38239,220.277051 C223.796437,220.288781 224.12258,220.633942 224.110849,221.04799 C224.100096,221.427533 223.809169,221.733212 223.441834,221.772487 L223.33991,221.776449 L209.064,221.371 L206.562096,222.533454 C206.217735,222.693406 205.814281,222.569699 205.615027,222.258612 L205.565946,222.169196 C205.405994,221.824835 205.529701,221.421381 205.840788,221.222127 L205.930204,221.173046 L208.591204,219.937046 C208.661528,219.904381 208.736274,219.882919 208.81274,219.873216 L208.92839,219.867551 Z"/><path id="Fill-31" fill="#ADC6FF" d="M270.90725,408.5326 L284.17925,286.7701 C281.60075,284.2786 272.35325,278.3236 252.08075,280.5766 C245.34275,281.3251 229.80725,290.1406 222.71225,290.4781 C217.91375,290.7076 208.71125,281.0266 204.72575,281.8096 C176.62325,287.3341 171.00875,292.7506 159.72875,295.2181 L180.76025,407.0446 C180.76025,407.0446 175.03625,428.1616 186.86225,428.1616 C278.08775,428.1616 265.88225,427.3171 265.88225,427.3171 C265.88225,427.3171 277.05425,424.7821 270.90725,408.5326"/><polygon id="Fill-33" fill="#ADC6FF" points="203.801 275.786 195.491 284.453 208.453 304.547 223.868 289.132"/><polygon id="Fill-35" fill="#253368" points="212.11 301.222 223.871 289.253 235.631 301.433 230.308 313.18 217.048 313.027"/><path id="Fill-37" fill="#253368" d="M217.11815,312.92485 L230.22965,312.68035 L242.58365,388.61635 C242.68865,389.27185 242.54615,389.94385 242.18315,390.50035 L227.57915,412.85335 C226.53515,414.45085 224.19965,414.46285 223.13765,412.87585 L207.80765,389.94685 C207.45065,389.41135 207.29765,388.76485 207.38165,388.12585 L217.11815,312.92485 Z"/><path id="Stroke-39" fill="#597EF7" fill-rule="nonzero" d="M195.080821,283.825051 C195.395974,283.618958 195.808764,283.680597 196.051536,283.953964 L196.118999,284.042271 L208.522,303.01 L223.350737,288.714329 C223.621819,288.452967 224.038855,288.436369 224.328441,288.659546 L224.411221,288.733687 C224.672583,289.004769 224.689181,289.421805 224.466004,289.711391 L224.391863,289.794171 L208.911863,304.719171 C208.599264,305.020562 208.104744,304.99071 207.828014,304.674674 L207.763601,304.589729 L194.863601,284.863229 C194.636899,284.516561 194.734152,284.051752 195.080821,283.825051 Z"/><polygon id="Fill-41" fill="#ADC6FF" points="243.626 275.786 251.935 284.453 238.973 304.547 223.559 289.132"/><path id="Stroke-43" fill="#597EF7" fill-rule="nonzero" d="M249.785265,284.077518 C249.9925,283.718873 250.451237,283.59613 250.809882,283.803365 C251.13864,283.99333 251.269175,284.394627 251.129024,284.736439 L251.084035,284.827982 L239.685535,304.554482 C239.46046,304.944001 238.953013,305.04297 238.600312,304.789847 L238.515613,304.719196 L223.034113,289.794196 C222.735909,289.506711 222.72722,289.031917 223.014704,288.733713 C223.276054,288.462619 223.692205,288.430792 223.989754,288.643238 L224.075187,288.714304 L238.866,302.974 L249.785265,284.077518 Z"/><path id="Stroke-45" fill="#597EF7" fill-rule="nonzero" d="M230.5961,312.29935 C230.803207,312.29935 230.9711,312.467243 230.9711,312.67435 C230.9711,312.855568 230.842557,313.006764 230.671676,313.041731 L230.5961,313.04935 L216.6041,313.04935 C216.396993,313.04935 216.2291,312.881457 216.2291,312.67435 C216.2291,312.493132 216.357643,312.341936 216.528524,312.306969 L216.6041,312.29935 L230.5961,312.29935 Z"/><polygon id="Fill-47" fill="#12183F" points="271.877 435.812 181.225 435.812 182.725 425.113 270.377 425.113"/><path id="Fill-49" fill="#4E5C93" d="M181.9238,434.31205 C181.9238,434.31205 170.5853,461.65105 172.7708,496.62505 C188.3978,506.33905 219.4043,511.28305 219.4043,511.28305 C221.7368,512.41405 235.4993,511.43005 237.8018,510.35605 C237.8018,510.35605 279.4853,496.40605 283.2848,489.93055 C280.1408,456.98755 271.6943,434.31205 271.6943,434.31205"/><path id="Fill-51" fill="#12183F" d="M235.0772,435.1822 L219.0932,435.1822 C217.7492,435.1822 216.6497,434.0827 216.6497,432.7387 L216.6497,427.2667 C216.6497,425.9227 217.7492,424.8232 219.0932,424.8232 L235.0772,424.8232 C236.4212,424.8232 237.5207,425.9227 237.5207,427.2667"/><path id="Fill-53" fill="#FFF" d="M235.09475,436.6063 L215.18975,436.6063 C212.95325,436.6063 211.12475,434.7763 211.12475,432.5413 L211.12475,425.1478 C211.12475,422.9113 212.95325,421.0813 215.18975,421.0813 L235.09475,421.0813 C237.33125,421.0813 239.16125,422.9113 239.16125,425.1478 L239.16125,432.5413 C239.16125,434.7763 237.33125,436.6063 235.09475,436.6063"/><path id="Fill-55" fill="#12183F" d="M232.9532,434.09935 L216.9692,434.09935 C215.6237,434.09935 214.5257,432.99985 214.5257,431.65585 L214.5257,426.18385 C214.5257,424.83985 215.6237,423.74035 216.9692,423.74035 L232.9532,423.74035 C234.2972,423.74035 235.3967,424.83985 235.3967,426.18385 L235.3967,431.65585 C235.3967,432.99985 234.2972,434.09935 232.9532,434.09935"/><path id="Fill-57" fill="#ADC6FF" d="M387.1118,289.15525 L387.1118,289.15525 C388.6283,299.93575 381.3218,309.97525 370.5983,311.84875 L280.2893,327.62725 C267.3488,329.88775 255.1088,320.98075 253.2788,307.97275 C251.4518,294.96475 260.7608,283.02775 273.8228,281.63275 L364.9808,271.89625 C375.8048,270.73975 385.5953,278.37475 387.1118,289.15525"/><path id="Fill-59" fill="#ADC6FF" d="M156.68465,429.07495 L156.68465,429.07495 C145.83965,428.14345 137.68565,418.77895 138.25565,407.90845 L143.05115,316.35745 C143.73965,303.23845 155.15465,293.29795 168.24365,294.42145 C181.33265,295.54495 190.88765,307.28545 189.32915,320.32945 L178.45415,411.35845 C177.16115,422.16895 167.53115,430.00645 156.68465,429.07495"/><g id="分组" transform="translate(149.000000, 780.487000)"><mask id="mask-2" fill="#fff"><use xlink:href="#path-1"/></mask><path id="Fill-61" fill="#253368" d="M39.5259,31.60755 C39.5259,31.60755 30.6774,57.73605 6.3519,65.47155 C-9.5751,70.53555 8.4594,83.87055 36.4239,75.06555 C52.3644,70.04655 47.8869,62.11155 56.9454,61.07955 C62.1954,60.48255 72.4524,56.58855 72.5229,52.55805 C72.6444,45.51405 71.0499,42.16905 70.1709,34.03305 C65.8884,-5.57895 50.9829,-12.63045 39.5259,31.60755" mask="url(#mask-2)"/></g><path id="Fill-63" fill="#4E5C93" d="M202.33055,654.5458 L202.33055,654.5458 C189.35705,654.8428 178.49255,644.7778 177.80255,631.8178 L172.51055,485.2603 C171.95705,469.9423 184.21055,457.2163 199.53755,457.18625 C214.58705,457.1578 226.77755,469.3993 226.685079,484.4488 L225.78905,630.8998 C225.59555,643.8058 215.23505,654.2503 202.33055,654.5458"/><path id="Fill-65" fill="#4E5C93" d="M220.26035,814.93705 L225.00185,636.54655 C225.38585,622.82755 214.10585,611.63755 200.39285,612.12805 C187.15085,612.60355 176.85485,623.81605 177.50585,637.04905 L185.85335,815.56405 C185.85335,815.56405 199.78835,823.20205 220.26035,814.93705"/><path id="Fill-67" fill="#253368" d="M312.692,814.4728 C312.692,814.4728 325.106,839.1073 350.2745,843.3658 C366.752,846.1543 350.759,861.8788 321.8405,857.0713 C305.3525,854.3293 308.6765,845.8468 299.564,846.0913 C294.281,846.2338 283.58,843.8128 282.9485,839.8303 C281.843,832.8733 282.9545,829.3378 282.6875,821.1598 C281.39,781.3378 295.1615,772.2703 312.692,814.4728"/><path id="Fill-69" fill="#4E5C93" d="M299.0729,634.6156 L283.8254,488.7571 C282.2324,473.5126 268.3199,462.6241 253.1384,464.7376 C238.2329,466.8136 227.8739,480.6391 230.0684,495.5281 L251.4314,640.4146 C253.4264,653.1661 265.1459,662.0596 277.9649,660.5491 C290.8529,659.0296 300.2009,647.5441 299.0729,634.6156 Z"/><path id="Fill-71" fill="#4E5C93" d="M280.40675,818.81275 L252.03125,645.74725 C249.73475,632.21875 259.33925,619.56025 272.98775,618.12925 C286.16525,616.74925 297.92825,626.41075 299.13125,639.60625 L313.06475,814.62475 C313.06475,814.62475 301.83425,824.13325 280.40675,818.81275"/><path id="Fill-73" fill="#A08889" d="M282.40775,226.56355 L270.24125,220.60405 C270.24125,220.60405 261.37325,196.53055 256.72625,193.15255 C252.08075,189.77305 246.16775,190.61755 241.09925,188.50705 C236.03225,186.39505 237.29975,191.88505 243.63275,194.84155 C249.96875,197.79805 252.50225,197.37655 254.19125,203.71105 C255.88025,210.04555 254.19125,232.85155 263.48375,236.65405 C266.83925,239.57605 269.47325,241.80505 271.53575,243.50455 C276.03425,247.20955 282.83525,246.44305 286.17425,241.66555 C286.25375,241.55005 286.33475,241.43305 286.41575,241.31455 C289.85525,236.23555 287.91725,229.26205 282.40775,226.56355"/><path id="Stroke-75" fill="#7C5B4D" fill-rule="nonzero" d="M236.874562,189.473104 C236.174605,187.29561 237.900562,186.375421 240.635807,187.515174 C240.922568,187.634664 241.058167,187.963996 240.938676,188.250757 C240.819186,188.537518 240.489854,188.673117 240.203093,188.553626 C238.225558,187.729605 237.602575,188.061746 237.945588,189.128821 C238.431828,190.641464 240.433612,192.572299 243.19085,193.859184 L244.006874,194.225603 C245.6467,194.943876 248.238945,196.007569 248.358329,196.060484 C251.530768,197.46663 252.904033,198.977327 253.96618,202.763453 L254.056493,203.093601 C254.350487,204.197188 254.542472,205.635149 254.751298,208.14225 L255.172829,213.770589 L255.219699,214.365824 C255.343363,215.910192 255.469362,217.266283 255.613247,218.551312 L255.676053,219.09803 C256.751334,228.22318 258.86983,233.794419 262.800723,235.567819 L263.016938,235.660783 L263.173445,235.757278 L264.880902,237.238782 C267.278931,239.310608 269.382659,241.089047 271.213642,242.597777 C275.492918,246.123649 281.905641,245.343766 285.031894,240.870668 C285.209858,240.616033 285.560548,240.55388 285.815182,240.731844 C286.069817,240.909808 286.13197,241.260498 285.954006,241.515132 C282.447265,246.53264 275.278296,247.404494 270.498243,243.46601 L269.182152,242.374274 C267.519763,240.986588 265.658791,239.402005 263.586094,237.606131 L262.502,236.664 L262.350999,236.599267 C257.990525,234.647506 255.760854,228.956895 254.619941,219.736136 L254.558783,219.229686 C254.407861,217.948918 254.277484,216.615558 254.151875,215.111173 L253.85696,211.227643 L253.686106,208.927631 C253.469032,206.17185 253.281876,204.624625 253.004607,203.519352 L252.969471,203.383439 C252.012042,199.795842 250.924263,198.476938 248.158553,197.204584 L247.773475,197.034981 C247.118731,196.763037 244.19647,195.558091 242.857154,194.944304 L242.71505,194.878616 C239.697186,193.470088 237.46832,191.320219 236.874562,189.473104 Z"/><path id="Fill-77" fill="#ADC6FF" d="M267.3287,250.66165 L282.3107,224.61565 L377.3807,273.51715 C387.5597,278.75365 391.3007,291.43315 385.5932,301.35715 C379.8857,311.28115 367.0442,314.42215 357.3992,308.25565 L267.3287,250.66165 Z"/><path id="Stroke-79" fill="#597EF7" fill-rule="nonzero" d="M282.149289,224.523376 C282.330819,224.207808 282.708617,224.072496 283.043393,224.188059 L283.142296,224.230325 L377.723296,272.851325 C378.091684,273.040701 378.236801,273.492858 378.047425,273.861246 C377.87383,274.198935 377.479427,274.349014 377.131146,274.225815 L377.037504,274.185375 L283.092,225.891 L268.823,250.695 L357.803097,307.623587 C358.120291,307.826525 358.233329,308.228292 358.083543,308.561807 L358.030663,308.659547 C357.827725,308.976741 357.425958,309.089779 357.092443,308.939993 L356.994703,308.887113 L267.413203,251.573613 C267.106533,251.377408 266.989179,250.99364 267.120405,250.664678 L267.167289,250.567876 L282.149289,224.523376 Z"/><path id="Stroke-81" fill="#597EF7" fill-rule="nonzero" d="M295.251778,233.365447 C295.458307,233.006394 295.916801,232.882749 296.275853,233.089278 C296.604985,233.278596 296.736309,233.679635 296.596831,234.021722 L296.552022,234.113353 L283.496022,256.811353 C283.289493,257.170406 282.830999,257.294051 282.471947,257.087522 C282.142815,256.898204 282.011491,256.497165 282.150969,256.155078 L282.195778,256.063447 L295.251778,233.365447 Z"/><path id="Fill-83" fill="#FFF" d="M284.14505,237.23785 C283.02755,236.59435 282.64205,235.16635 283.28555,234.04885 C283.92755,232.93135 285.35705,232.54585 286.47455,233.18935 C287.59355,233.83135 287.97905,235.25935 287.33555,236.37835 C286.69055,237.49585 285.26405,237.88135 284.14505,237.23785"/><path id="Stroke-85" fill="#597EF7" fill-rule="nonzero" d="M281.709983,312.771671 C282.122639,312.80756 282.428069,313.171178 282.392179,313.583833 L282.153095,316.268444 L281.916016,318.760834 C281.823119,319.660907 281.618501,321.505451 281.32319,324.119737 L271.682,408.36 L271.760431,408.487296 C275.160932,414.113452 275.069398,419.076076 272.798305,423.120296 L272.653536,423.371861 C272.000265,424.480088 271.340672,425.251631 270.880677,425.668557 C270.573768,425.94673 270.099466,425.923435 269.821293,425.616527 C269.54312,425.309618 269.566415,424.835316 269.873323,424.557143 L269.977233,424.456367 C270.062359,424.369935 270.177937,424.245186 270.316438,424.083178 C270.671209,423.668194 271.027818,423.175929 271.361334,422.610142 C273.546819,418.902624 273.656837,414.326715 270.272659,408.9319 C270.18239,408.787999 270.143645,408.617716 270.162767,408.448925 L275.552985,361.290386 C278.036688,339.674313 280.064915,322.085153 280.423157,318.614653 L280.566072,317.136651 L280.897821,313.453867 C280.930719,313.075599 281.239001,312.787431 281.608002,312.769674 L281.709983,312.771671 Z"/><path id="Stroke-87" fill="#597EF7" fill-rule="nonzero" d="M183.602746,344.227166 C183.982053,344.244326 184.282776,344.540374 184.315843,344.90832 L184.318084,345.010296 L181.510084,407.078796 L181.471701,407.284045 L181.331926,407.721913 C181.287298,407.866676 181.235934,408.037024 181.179022,408.230966 C180.956671,408.98868 180.734117,409.824585 180.526422,410.713166 C180.082725,412.611431 179.769042,414.481103 179.64231,416.221166 C179.307089,420.823828 180.309081,423.728024 182.909621,424.385263 C183.311207,424.486757 183.554481,424.894584 183.452987,425.296171 C183.351493,425.697757 182.943666,425.941031 182.542079,425.839537 C179.00109,424.944617 177.764114,421.359337 178.146273,416.112206 C178.279344,414.285105 178.60554,412.340848 179.065791,410.371762 C179.237295,409.638016 179.418584,408.939183 179.601935,408.287926 L179.739713,407.808601 C179.820373,407.533733 179.895401,407.288107 179.962913,407.074837 L180.016,406.908 L182.819616,344.942504 C182.836776,344.563197 183.132824,344.262474 183.50077,344.229407 L183.602746,344.227166 Z"/><path id="Fill-89" fill="#FF7A46" d="M236.9141,624.36085 L132.0986,624.36085 C129.3191,624.36085 127.0691,622.10935 127.0691,619.33135 L127.0691,545.76835 C127.0691,542.99035 129.3191,540.73735 132.0986,540.73735 L236.9141,540.73735 C239.6936,540.73735 241.9451,542.99035 241.9451,545.76835 L241.9451,619.33135 C241.9451,622.10935 239.6936,624.36085 236.9141,624.36085"/><path id="Fill-91" fill="#FAAD14" d="M233.34575,624.36085 L128.53025,624.36085 C125.75075,624.36085 123.50075,622.10935 123.50075,619.33135 L123.50075,545.76835 C123.50075,542.99035 125.75075,540.73735 128.53025,540.73735 L233.34575,540.73735 C236.12525,540.73735 238.37675,542.99035 238.37675,545.76835 L238.37675,619.33135 C238.37675,622.10935 236.12525,624.36085 233.34575,624.36085"/><path id="Fill-93" fill="#A08889" d="M182.31935,541.15735 C179.01785,542.34685 179.87885,545.27635 179.64485,552.58135 C179.49785,557.14585 182.22485,565.10785 181.12685,568.89385 C179.99585,572.79985 164.16335,570.12685 159.44735,544.67935 C159.44735,544.67935 154.33385,521.05735 162.49385,515.04235 C169.88585,509.59585 176.20835,516.31285 176.20835,516.31285 C176.20835,516.31285 182.76635,523.32835 187.88435,532.29085 L192.67085,540.45535 L182.31935,541.15735 Z"/><path id="Stroke-95" fill="#7C5B4D" fill-rule="nonzero" d="M172.938925,542.428319 C173.249326,542.415631 173.511242,542.656974 173.523931,542.967375 L173.567465,543.800254 C173.577425,543.970356 173.588581,544.151801 173.600994,544.344095 L173.668322,545.31712 C173.729889,546.152498 173.805298,547.047642 173.895977,547.991006 C174.25857,551.763196 174.78779,555.534765 175.514255,559.050862 C176.060155,561.693025 176.698203,564.087003 177.434344,566.173173 C177.537719,566.46613 177.384033,566.78742 177.091077,566.890794 C176.79812,566.994169 176.47683,566.840483 176.373456,566.547527 C175.618831,564.408976 174.968034,561.96716 174.412524,559.278492 C173.676953,555.718321 173.14232,551.908174 172.776138,548.098648 L172.673618,546.980178 C172.610074,546.251026 172.556013,545.555844 172.510693,544.900507 L172.444364,543.865601 L172.399869,543.013325 C172.387181,542.702924 172.628524,542.441008 172.938925,542.428319 Z"/><path id="Stroke-97" fill="#7C5B4D" fill-rule="nonzero" d="M167.315796,544.116778 C167.626331,544.107939 167.885234,544.352512 167.894072,544.663046 C167.913988,545.362769 167.950064,546.079259 168.001685,546.811349 C168.251911,550.3601 168.854355,554.160281 169.701948,558.01692 C170.044894,559.577362 170.408847,561.059011 170.775715,562.429449 L170.959308,563.105251 C171.109167,563.648842 171.248234,564.13355 171.372918,564.552953 L171.52818,565.064131 C171.621747,565.360366 171.457453,565.676363 171.161219,565.76993 C170.864984,565.863497 170.548987,565.699203 170.45542,565.402969 L170.294562,564.873536 L170.051641,564.036637 C169.994558,563.835562 169.935523,563.624626 169.874767,563.404239 C169.441182,561.831469 169.007735,560.099212 168.603171,558.258404 C167.744683,554.352188 167.133973,550.499871 166.879471,546.890477 C166.826766,546.143015 166.789901,545.410843 166.769528,544.695054 C166.760689,544.384519 167.005262,544.125616 167.315796,544.116778 Z"/><path id="Stroke-99" fill="#7C5B4D" fill-rule="nonzero" d="M161.941785,542.14755 C162.251672,542.125644 162.520643,542.359098 162.54255,542.668985 L162.568453,542.975637 C162.591988,543.23293 162.623037,543.535715 162.662526,543.881739 C162.775663,544.873127 162.933642,546.010449 163.143844,547.275647 C163.745032,550.894187 164.643639,554.808226 165.898426,558.873242 C165.990055,559.170082 165.823698,559.484998 165.526858,559.576626 C165.230018,559.668255 164.915102,559.501898 164.823474,559.205058 C163.553011,555.089261 162.64318,551.126332 162.034056,547.460028 C161.820648,546.175531 161.660042,545.019294 161.544781,544.009296 L161.467792,543.285805 L161.42035,542.748315 C161.398444,542.438428 161.631898,542.169457 161.941785,542.14755 Z"/><path id="Fill-101" fill="#ADC6FF" d="M184.4771,521.7724 L154.5791,524.7634 L138.9611,419.0014 C137.2886,407.6764 145.4171,397.2499 156.8096,396.1114 C168.1991,394.9714 178.2326,403.5799 178.8371,415.0114 L184.4771,521.7724 Z"/><path id="Stroke-103" fill="#597EF7" fill-rule="nonzero" d="M143.056109,316.632988 C143.435476,316.64945 143.737258,316.944417 143.771645,317.312242 L143.77425,317.414209 L139.646,416.53 L155.163,523.385 L183.634,520.536 L178.088435,415.051384 C178.068496,414.672212 178.333783,414.344033 178.696745,414.275216 L178.798016,414.263035 C179.177188,414.243096 179.505367,414.508383 179.574184,414.871345 L179.586365,414.972616 L185.170865,521.172616 C185.190142,521.539201 184.942302,521.860389 184.593934,521.942079 L184.496557,521.958275 L154.598557,524.949275 C154.232582,524.985887 153.899614,524.752518 153.802246,524.407521 L153.781685,524.310782 L138.151685,416.678282 L138.14455,416.539291 L142.27555,317.351791 C142.292786,316.937936 142.642254,316.616413 143.056109,316.632988 Z"/><path id="Stroke-105" fill="#597EF7" fill-rule="nonzero" d="M180.06038,505.047976 C180.472535,505.006737 180.840084,505.307424 180.881324,505.71958 C180.919126,506.097389 180.669616,506.437716 180.310304,506.523579 L180.20972,506.540524 L154.15472,509.147524 C153.742565,509.188763 153.375016,508.888076 153.333776,508.47592 C153.295974,508.098111 153.545484,507.757784 153.904796,507.671921 L154.00538,507.654976 L180.06038,505.047976 Z"/><path id="Fill-107" fill="#FFF" d="M163.77155,515.92075 C163.90055,517.20475 162.96305,518.34925 161.67905,518.47675 C160.39655,518.60575 159.25205,517.66975 159.12305,516.38575 C158.99405,515.10175 159.93155,513.95725 161.21555,513.82975 C162.49805,513.70075 163.64255,514.63675 163.77155,515.92075"/><path id="Stroke-109" fill="#7C5B4D" fill-rule="nonzero" d="M193.233318,540.429437 C193.248043,540.739748 193.008424,541.003242 192.698113,541.017968 L191.00519,541.103294 C190.243154,541.143199 189.48114,541.184899 188.73751,541.227791 L187.280203,541.314987 C186.075394,541.389914 185.028232,541.46286 184.183105,541.532306 L183.417766,541.599528 C182.988568,541.640201 182.64667,541.678795 182.400824,541.714756 C180.852149,541.939756 180.116704,542.973977 179.91876,545.143487 L179.872794,545.791856 C179.806963,546.924098 179.838741,547.766998 180.118917,550.390145 L180.752945,556.014241 C180.909518,557.430598 181.027064,558.625167 181.125604,559.83857 C181.15075,560.14821 180.920121,560.419609 180.61048,560.444754 C180.30084,560.4699 180.029441,560.239271 180.004296,559.92963 L179.897068,558.697002 C179.832937,558.004938 179.760471,557.291989 179.676014,556.514317 L178.947,550.006248 C178.67689,547.400904 178.680524,546.678486 178.776736,545.310316 C178.974268,542.501318 180.019762,540.923879 182.238538,540.601523 C182.548391,540.5562 182.983271,540.508715 183.535255,540.458863 L184.419353,540.384711 C185.209908,540.322597 186.149774,540.258115 187.210375,540.192157 L188.672343,540.10468 L192.644787,539.894232 C192.955098,539.879507 193.218592,540.119126 193.233318,540.429437 Z"/></g></svg>