<?xml version="1.0" encoding="UTF-8"?>
<svg width="512px" height="1024px" viewBox="0 0 512 1024" version="1.1" xmlns="http://www.w3.org/2000/svg" xmlns:xlink="http://www.w3.org/1999/xlink">
    <!-- Generator: Sketch 61.2 (89653) - https://sketch.com -->
    <title>2.人物组件/3.商务经理/站立/自信</title>
    <desc>Created with Sketch.</desc>
    <defs>
        <polygon id="path-1" points="0.20355 0.600478022 68.964 0.600478022 68.964 52.5 0.20355 52.5"></polygon>
        <polygon id="path-3" points="0.3579 1.2345 62.3119267 1.2345 62.3119267 68.6352 0.3579 68.6352"></polygon>
        <polygon id="path-5" points="0 1.09005 83.0136 1.09005 83.0136 72.62852 0 72.62852"></polygon>
    </defs>
    <g id="2.人物组件/3.商务经理/站立/自信" stroke="none" stroke-width="1" fill="none" fill-rule="evenodd">
        <path d="M182.46625,798.7881 C182.46625,798.7881 173.19475,824.7681 148.74775,832.1076 C132.73975,836.9121 150.55675,850.5381 178.65775,842.1906 C194.67925,837.4311 190.33075,829.4241 199.40575,828.5406 C204.66475,828.0276 214.98475,824.3016 215.11975,820.2726 C215.35525,813.2316 215.34175,811.2606 215.15575,803.0811 C214.94275,793.6716 191.47075,787.1736 182.46625,798.7881" id="Fill-1" fill="#253368"></path>
        <g id="分组" transform="translate(319.000000, 796.765500)">
            <mask id="mask-2" fill="white">
                <use xlink:href="#path-1"></use>
            </mask>
            <g id="Clip-4"></g>
            <path d="M0.20355,8.8926 C0.20355,8.8926 1.78755,21.3396 2.84805,25.7691 C3.90855,30.1986 5.00505,32.9346 13.46055,34.1466 C28.18905,36.2586 25.54155,48.2871 42.29205,51.2766 C65.12505,55.3506 70.93455,48.4206 68.42205,42.6591 C65.90805,36.8976 44.27205,30.9906 34.16355,6.7581 C27.90555,-8.2479 0.20355,8.8926 0.20355,8.8926" id="Fill-3" fill="#253368" mask="url(#mask-2)"></path>
        </g>
        <path d="M236.67865,504.7479 C236.67865,504.7479 258.87565,441.8169 285.52015,474.1764 C313.35115,555.2439 337.23565,721.0704 353.72215,802.9179 C340.34365,809.3214 319.21015,806.9244 319.21015,806.9244 C319.21015,806.9244 245.51365,555.7089 236.67865,504.7479" id="Fill-5" fill="#4E5C93"></path>
        <path d="M238.8775,510.80175 C238.8775,510.80175 233.0335,511.92375 227.326,509.60925 C212.23,503.48925 184.4185,488.70825 180.7825,482.14425 C179.0425,467.26725 184.6975,430.76925 189.928,430.73325 C199.969,430.66425 233.95,437.07525 248.095,434.29725 C259.099,432.13425 272.9815,429.48975 272.9815,429.48975 C272.9815,429.48975 276.811,435.88275 279.5665,441.88275 C286.249,456.43275 285.9505,475.44075 285.9505,475.44075 C285.9505,475.44075 246.316,512.40375 238.8775,510.80175" id="Fill-7" fill="#4E5C93"></path>
        <path d="M184.97125,404.72055 C184.97125,404.72055 159.90175,329.32005 168.43675,287.99505 C183.58525,279.44955 196.66525,269.42655 227.43475,267.76005 C262.08775,265.88505 295.13725,286.16955 295.13725,286.16955 L290.51275,348.26805 L273.78175,398.45055 C273.78175,398.45055 289.49875,419.48955 258.16375,424.09455 C236.33725,427.30305 202.80925,430.32255 188.88775,422.43405 C182.82325,418.99755 182.07475,412.55655 184.97125,404.72055" id="Fill-9" fill="#ADC6FF"></path>
        <path d="M168.02005,288.84225 C168.02005,288.84225 139.99405,329.41275 125.13955,380.60325 C120.68155,395.96475 136.74055,406.72575 151.00405,400.02975 C165.26755,393.33525 197.90455,317.10225 199.82605,308.90775 C203.57455,292.92675 183.34855,276.63675 168.02005,288.84225" id="Fill-11" fill="#ADC6FF"></path>
        <path d="M210.46825,266.25075 L211.55875,243.54525 L246.01525,232.72875 L249.66325,264.75825 C249.66325,264.75825 232.86025,303.93525 210.46825,266.25075" id="Fill-13" fill="#A08889"></path>
        <path d="M258.29245,216.6918 C254.33395,242.7168 236.22745,254.3853 218.92495,255.1908 C198.29695,256.1508 193.74595,238.3983 194.98795,212.7018 C196.24945,186.6078 207.48445,177.7473 226.87795,177.2088 C247.09495,176.6478 262.30195,190.3308 258.29245,216.6918" id="Fill-15" fill="#A08889"></path>
        <g id="分组" transform="translate(199.000000, 174.265500)">
            <mask id="mask-4" fill="white">
                <use xlink:href="#path-3"></use>
            </mask>
            <g id="Clip-18"></g>
            <path d="M45.0279,46.2087 C45.6369,44.1777 46.2264,40.7727 49.4904,39.4227 C53.9829,37.5627 57.9339,42.6477 57.2889,48.1002 C56.5059,54.7077 50.6649,58.7022 47.3634,58.7232 C47.6859,65.1972 48.1839,68.6352 48.1839,68.6352 C48.1839,68.6352 55.4694,61.4682 59.5239,50.2992 C65.8494,32.8722 61.9374,8.4687 42.3534,2.8647 C11.7519,-4.9608 0.3579,17.9202 0.3579,17.9202 L38.2869,17.4087 L37.3119,30.0852 C37.3119,30.0852 44.0724,30.4632 42.6924,45.4662 L45.0279,46.2087 Z" id="Fill-17" fill="#604346" mask="url(#mask-4)"></path>
        </g>
        <path d="M216.288497,206.687734 L228.079997,206.948734 L228.285002,206.982036 L232.068002,208.152036 C232.463722,208.274423 232.685302,208.694432 232.562914,209.090152 C232.450725,209.452895 232.088452,209.669312 231.724047,209.608593 L231.624798,209.585064 L227.94,208.446 L216.255303,208.187366 C215.8757,208.178964 215.568226,207.889935 215.526677,207.52285 L215.522084,207.420953 C215.530486,207.04135 215.819515,206.733876 216.1866,206.692327 L216.288497,206.687734 Z" id="Stroke-19" fill="#604346" fill-rule="nonzero"></path>
        <path d="M233.88235,240.5313 C229.53835,234.3813 229.92535,228.8883 211.97785,229.2168 C203.24635,229.3758 200.17285,232.2498 197.04985,239.2383 C199.44385,249.9933 208.23235,256.7733 219.89185,255.8718 C244.38685,253.9788 245.49535,229.4748 245.49535,229.4748 C245.49535,229.4748 242.04235,230.3583 240.92785,232.1958 C237.84835,237.2763 235.83985,238.5483 233.88235,240.5313" id="Fill-21" fill="#7F6567"></path>
        <path d="M205.8877,234.30225 C205.8877,234.30225 212.2267,234.68325 221.9332,233.77575 C221.9332,233.77575 220.5097,237.79725 213.5137,237.84225 C208.0237,237.87825 205.8877,234.30225 205.8877,234.30225" id="Fill-23" fill="#FFFFFF"></path>
        <path d="M221.880838,233.215692 C216.100428,233.756126 211.149909,233.892213 207.331973,233.793295 L206.166693,233.753432 C206.063294,233.748676 205.98139,233.744366 205.921448,233.740763 C205.470323,233.713649 205.173035,234.202707 205.404789,234.5907 C205.705128,235.093514 206.319326,235.81364 207.291096,236.526039 C208.913551,237.715453 210.981039,238.42137 213.517388,238.404738 C216.688411,238.384341 219.041306,237.58227 220.681515,236.245179 C221.703799,235.411817 222.251296,234.562828 222.46346,233.963447 C222.600523,233.576233 222.289811,233.177456 221.880838,233.215692 Z M220.892,234.433 L220.862226,234.473778 C220.621916,234.779579 220.326709,235.082971 219.970683,235.373202 C218.534658,236.543844 216.430939,237.260974 213.510082,237.279762 C211.222007,237.294765 209.388564,236.668761 207.956239,235.618731 L207.671378,235.399749 C207.488188,235.252077 207.318392,235.10132 207.161734,234.949191 L207.125,234.912 L207.790152,234.929148 C211.08596,234.99582 215.160679,234.892717 219.839767,234.521359 L220.892,234.433 Z" id="Stroke-25" fill="#604346" fill-rule="nonzero"></path>
        <path d="M206.910172,206.797486 C207.179857,206.723709 207.457413,206.859264 207.569987,207.105558 L207.601164,207.191622 L208.754664,211.408122 C208.769898,211.463808 208.776423,211.521337 208.774164,211.578686 L208.764179,211.664321 L205.756755,227.070435 C205.620349,227.771814 206.11634,228.428756 206.808996,228.506492 L206.933182,228.514089 L216.419182,228.625089 C216.729821,228.628723 216.978696,228.883493 216.975101,229.194132 C216.97179,229.473707 216.7651,229.703254 216.497339,229.743717 L216.406018,229.750011 L206.920503,229.639017 C205.51418,229.623772 204.452118,228.38151 204.627855,227.008337 L204.652521,226.855279 L207.635,211.578 L206.516036,207.488478 C206.442259,207.218793 206.577814,206.941237 206.824108,206.828663 L206.910172,206.797486 Z" id="Stroke-27" fill="#604346" fill-rule="nonzero"></path>
        <polygon id="Fill-29" fill="#ADC6FF" points="210.10945 264.0519 203.35645 272.7624 213.43945 291.2919 228.75295 275.7774"></polygon>
        <polygon id="Fill-31" fill="#ADC6FF" points="228.7525 275.7768 249.655 263.2923 256.792 271.5888 242.932 289.8873"></polygon>
        <polygon id="Fill-33" fill="#253368" points="217.0747 287.9427 228.7582 275.8992 240.5962 288.0012 233.8582 301.2927 222.0997 301.2147"></polygon>
        <path d="M222.30865,301.0023 L233.92315,300.9273 L245.08465,382.9593 C245.17915,383.6628 244.99915,384.3753 244.58065,384.9483 L228.42865,407.0163 C227.26765,408.6033 224.86165,408.4878 223.85665,406.7958 L210.25015,383.8638 C209.92615,383.3178 209.80165,382.6773 209.89915,382.0488 L222.30865,301.0023 Z" id="Fill-35" fill="#253368"></path>
        <path d="M188.0386,421.59465 L188.1046,431.73015 C188.1046,431.73015 199.9561,435.87615 228.2581,436.53765 C255.4876,437.17365 273.4036,429.48615 273.4036,429.48615 L272.6626,418.81665 C272.6626,418.81665 238.3621,431.40315 188.0386,421.59465" id="Fill-37" fill="#12183F"></path>
        <path d="M180.7495,477.19155 C180.7495,477.19155 217.036,474.24405 231.1975,493.96155 C233.8345,518.70555 231.7795,560.90205 229.6765,616.88055 C227.6935,669.72555 215.281,801.68805 215.281,801.68805 C215.281,801.68805 198.4195,806.86605 181.1935,799.08705 C184.339,775.13055 180.2815,658.77855 178.3825,620.82405 C176.485,582.86805 180.7495,477.19155 180.7495,477.19155" id="Fill-39" fill="#4E5C93"></path>
        <path d="M170.446203,303.109793 C170.860224,303.122769 171.185623,303.468632 171.173002,303.882653 C170.953624,311.079002 171.197511,318.904404 171.860269,327.262144 C172.928454,340.73256 175.037381,355.12191 177.881483,369.776582 C179.274022,376.951853 180.759834,383.761226 182.251369,390.018217 L182.878945,392.617074 C183.14913,393.721222 183.408687,394.762606 183.655954,395.737692 L184.18254,397.786307 L184.669051,399.617603 C184.778788,400.017016 184.54396,400.429764 184.144547,400.539501 C183.745134,400.649238 183.332386,400.41441 183.222649,400.014997 L182.635439,397.797042 L182.349613,396.686473 C181.960297,395.162501 181.538686,393.46688 181.09158,391.614062 C179.495154,384.998426 177.898859,377.739306 176.408958,370.062362 C173.554885,355.356311 171.43806,340.913071 170.364963,327.380719 C169.698104,318.971257 169.452535,311.091884 169.673698,303.836947 C169.686319,303.422926 170.032182,303.097527 170.446203,303.109793 Z" id="Stroke-41" fill="#597EF7" fill-rule="nonzero"></path>
        <path d="M211.634607,242.016974 L216.173607,242.090474 C216.484227,242.095504 216.731956,242.351388 216.726926,242.662007 C216.722399,242.941565 216.51468,243.170181 216.24674,243.209442 L216.155393,243.215326 L211.616393,243.141826 C211.305773,243.136796 211.058044,242.880912 211.063074,242.570293 C211.067601,242.290735 211.27532,242.062119 211.54326,242.022858 L211.634607,242.016974 Z" id="Stroke-43" fill="#604346" fill-rule="nonzero"></path>
        <path d="M256.194592,271.136559 C256.444689,270.806371 256.915103,270.741444 257.245291,270.991542 C257.545462,271.218903 257.626409,271.628344 257.450744,271.948984 L257.390308,272.042241 L243.530308,290.340741 C243.279583,290.671759 242.814375,290.731324 242.490241,290.493844 L242.405606,290.421693 L228.756,276.949 L213.897465,291.46097 C213.568257,291.782476 213.038699,291.730715 212.773108,291.374252 L212.716715,291.286613 L202.699715,273.124613 C202.49967,272.761908 202.631532,272.305709 202.994237,272.105665 C203.326716,271.92229 203.737757,272.01781 203.95804,272.314378 L204.013185,272.400187 L213.554,289.699 L228.234935,275.36233 C228.500838,275.102648 228.911281,275.080061 229.202327,275.293872 L229.285794,275.365107 L242.85,288.753 L256.194592,271.136559 Z" id="Stroke-45" fill="#597EF7" fill-rule="nonzero"></path>
        <path d="M232.230213,300.562808 C232.437315,300.561462 232.606296,300.72826 232.60765,300.935363 C232.60882,301.116577 232.481262,301.268605 232.310612,301.304682 L232.235087,301.312792 L222.311087,301.377292 C222.103985,301.378638 221.935004,301.21184 221.93365,301.004737 C221.93248,300.823523 222.060038,300.671495 222.230688,300.635418 L222.306213,300.627308 L232.230213,300.562808 Z" id="Stroke-47" fill="#597EF7" fill-rule="nonzero"></path>
        <path d="M213.94135,434.7705 L213.67285,427.4115 C213.59785,425.3385 215.21785,423.6405 217.20235,423.7245 C221.96035,423.9255 230.36335,424.1385 236.44285,423.4965 C238.43035,423.288 240.14935,424.9275 240.16285,427.0155 L240.212417,434.538 C240.22285,436.2975 239.00635,437.7915 237.34435,438.075 C233.39485,438.7485 225.77335,439.581 216.85885,438.1665 C215.23585,437.9085 214.00435,436.485 213.94135,434.7705" id="Fill-49" fill="#F1F2F6"></path>
        <path d="M216.98095,433.7427 L216.77695,428.5377 C216.71995,427.0707 217.97095,425.8677 219.50245,425.9277 C223.17145,426.0672 229.65595,426.2142 234.34495,425.7582 C235.87945,425.6097 237.20395,426.7692 237.21445,428.2452 L237.249014,433.5672 C237.25795,434.8122 236.31745,435.8697 235.03495,436.0707 C231.98845,436.5477 226.10695,437.1402 219.23095,436.1442 C217.97845,435.9627 217.02895,434.9562 216.98095,433.7427" id="Fill-51" fill="#12183F"></path>
        <path d="M196.50686,206.319282 L206.51636,206.593782 C206.930418,206.605137 207.256873,206.950002 207.245518,207.36406 C207.235109,207.743613 206.944459,208.049556 206.57716,208.089164 L206.47524,208.093218 L196.46574,207.818718 C196.051682,207.807363 195.725227,207.462498 195.736582,207.04844 C195.746991,206.668887 196.037641,206.362944 196.40494,206.323336 L196.50686,206.319282 Z" id="Stroke-53" fill="#604346" fill-rule="nonzero"></path>
        <path d="M233.255781,251.447487 C233.525717,251.293721 233.869196,251.387895 234.022963,251.657831 C234.176729,251.927767 234.082555,252.271246 233.812619,252.425013 C226.686111,256.484557 219.474309,257.257701 213.204772,256.149827 C212.674113,256.056056 212.203391,255.955343 211.797351,255.854267 L211.433591,255.758729 C211.371034,255.741198 211.320815,255.726345 211.283238,255.714588 C210.986751,255.621825 210.821599,255.306276 210.914362,255.009788 C211.007125,254.713301 211.322674,254.548149 211.619162,254.640912 L211.834486,254.702122 C211.900704,254.719864 211.979014,254.740156 212.069107,254.762583 C212.450477,254.857518 212.895898,254.952818 213.400535,255.041991 C219.431501,256.107707 226.383064,255.362462 233.255781,251.447487 Z" id="Stroke-55" fill="#7C5B4D" fill-rule="nonzero"></path>
        <path d="M248.678237,216.867844 C249.528254,216.427185 250.414774,216.341166 251.20766,216.454725 L251.399149,216.487596 C251.424356,216.492817 251.446105,216.497793 251.464243,216.502349 C251.765542,216.578036 251.948437,216.883644 251.872751,217.184943 C251.804633,217.456112 251.550279,217.631374 251.280442,217.608539 L251.048162,217.568362 C250.46765,217.485219 249.808294,217.549196 249.19601,217.866611 C248.143391,218.412302 247.414601,219.618067 247.185222,221.724342 L247.175,221.827 L247.338073,221.866834 C248.76994,222.234118 249.633566,223.0294 249.831788,224.115576 L249.856519,224.280667 C249.988826,225.40295 249.384609,226.643271 248.376664,227.494625 C248.139334,227.695084 247.784435,227.665194 247.583975,227.427864 C247.383516,227.190534 247.413406,226.835635 247.650736,226.635175 C248.39085,226.010043 248.823019,225.122897 248.739256,224.412383 C248.647715,223.635894 247.950087,223.058799 246.491696,222.84389 C246.202888,222.801332 245.994634,222.544909 246.012222,222.253512 C246.184091,219.405879 247.148106,217.661083 248.678237,216.867844 Z" id="Stroke-57" fill="#7C5B4D" fill-rule="nonzero"></path>
        <path d="M331.01755,525.5691 L263.46805,533.0376 C260.58655,533.3571 258.02755,531.1986 257.85355,528.3066 L253.44355,455.1066 C253.26955,452.1981 255.57505,449.7426 258.48655,449.7336 L323.90905,449.534068 C327.30505,449.5236 330.15505,452.0916 330.49555,455.4696 L336.86005,518.3436 C337.22305,521.9466 334.61605,525.1716 331.01755,525.5691" id="Fill-59" fill="#FAAD14"></path>
        <path d="M256.5523,449.7279 L257.0593,449.724821 C258.7948,449.7129 260.2333,451.0674 260.3278,452.8014 L264.4708,530.0409 C264.5683,531.8394 263.1853,533.3739 261.3883,533.4624 C259.6063,533.5524 258.0853,532.1904 257.9788,530.4114 L253.3288,453.1749 C253.2163,451.3134 254.6893,449.7399 256.5523,449.7279" id="Fill-61" fill="#FF7A46"></path>
        <path d="M331.559448,474.623701 C331.766554,474.623175 331.9354,474.790641 331.9354,474.997748 C331.9354,475.178965 331.8077,475.330487 331.636908,475.365888 L331.561352,475.373699 L261.877297,475.550692 L255.775297,475.589692 C255.568194,475.591016 255.399231,475.424199 255.3979,475.217097 C255.396749,475.035882 255.524324,474.883868 255.694978,474.847809 L255.770503,474.839708 L261.873948,474.800701 L331.559448,474.623701 Z" id="Stroke-63" fill="#FF7A46" fill-rule="nonzero"></path>
        <path d="M323.0401,529.8396 C321.0916,533.2311 319.1176,532.6806 316.5871,533.2611 C314.0566,533.8401 310.9831,537.5196 310.9831,537.5196 C304.3906,541.3641 306.0121,530.7951 304.7401,529.9581 C304.1041,529.5411 303.7546,532.7256 301.1116,534.7686 C298.4671,536.8131 295.6201,535.7361 296.3191,533.9556 C297.9811,529.7211 301.2001,519.3831 301.8211,513.9276 C302.6191,506.8836 306.6586,500.3811 306.6586,500.3811 C311.5471,490.4451 327.3226,495.7416 327.3226,495.7416 C327.3226,495.7416 332.0281,526.4016 328.3756,527.5521 C328.3756,527.5521 323.8591,528.4161 323.0401,529.8396" id="Fill-65" fill="#A08889"></path>
        <path d="M276.5107,329.19615 C276.5107,329.19615 267.8842,295.21515 291.4777,286.19265 C310.1572,279.04965 336.5722,359.12265 336.9337,414.87015 C337.1692,451.18515 330.3142,501.07215 330.3142,501.07215 C330.3142,501.07215 313.9012,504.83565 302.8597,499.40415 C304.2472,474.75915 302.1352,421.42665 298.7197,403.84065 C295.3027,386.25465 276.5107,329.19615 276.5107,329.19615" id="Fill-67" fill="#ADC6FF"></path>
        <path d="M277.18716,334.992525 C277.54472,334.864775 277.935152,335.024902 278.105087,335.352926 L278.145775,335.44646 L287.178775,360.72896 C287.318139,361.119025 287.114905,361.548212 286.72484,361.687575 C286.36728,361.815325 285.976848,361.655198 285.806913,361.327174 L285.766225,361.23364 L276.733225,335.95114 C276.593861,335.561075 276.797095,335.131888 277.18716,334.992525 Z" id="Stroke-69" fill="#597EF7" fill-rule="nonzero"></path>
        <path d="M292.113305,286.313331 C292.510077,286.194399 292.928138,286.419633 293.047069,286.816405 C293.166001,287.213177 292.940767,287.631238 292.543995,287.750169 C285.904929,289.740218 281.078969,295.405151 277.803915,303.649367 C276.334142,307.349193 275.279241,311.321146 274.572787,315.294243 C274.360768,316.486638 274.193828,317.605633 274.066543,318.630005 L274.006179,319.134208 C273.971296,319.437247 273.942002,319.714438 273.917838,319.964006 L273.864918,320.573197 C273.83678,320.986454 273.47896,321.298655 273.065703,321.270518 C272.652446,321.24238 272.340245,320.88456 272.368382,320.471303 L272.401411,320.069799 L272.45154,319.55242 C272.461068,319.460073 272.471193,319.36471 272.481934,319.266398 L272.51602,318.962674 C272.652665,317.775594 272.843017,316.454155 273.095952,315.031647 C273.8189,310.965787 274.899045,306.898783 276.409885,303.095582 C279.837662,294.466918 284.956066,288.458701 292.113305,286.313331 Z" id="Stroke-71" fill="#597EF7" fill-rule="nonzero"></path>
        <path d="M302.231769,498.995394 C302.457767,498.648267 302.922378,498.550071 303.269506,498.776069 C305.721492,500.372438 309.811341,501.253694 315.054481,501.513646 C318.723385,501.695549 322.662848,501.564347 326.506584,501.234361 L327.397575,501.153904 C327.685382,501.126602 327.963778,501.098889 328.232105,501.070974 L329.354078,500.946532 C329.616339,500.915492 329.808688,500.891088 329.924656,500.875384 C330.335123,500.819799 330.712932,501.107488 330.768516,501.517956 C330.824101,501.928423 330.536412,502.306232 330.125944,502.361816 L329.532685,502.43586 L329.175477,502.477252 C328.419661,502.563083 327.566925,502.648848 326.634888,502.728864 C322.729183,503.06417 318.725671,503.197505 314.980203,503.011806 C309.49308,502.739758 305.181408,501.810704 302.451094,500.033131 C302.103967,499.807133 302.005771,499.342522 302.231769,498.995394 Z" id="Stroke-73" fill="#597EF7" fill-rule="nonzero"></path>
        <path d="M306.706455,488.080319 L307.59333,488.209029 L308.164315,488.287895 C309.313976,488.444155 310.568651,488.600455 311.886191,488.746322 C314.069074,488.987993 316.2022,489.176305 318.201716,489.290681 L319.177638,489.341013 C322.371042,489.486968 324.960609,489.413366 326.732214,489.07915 C327.139247,489.002362 327.531462,489.27008 327.60825,489.677114 C327.685038,490.084147 327.41732,490.476362 327.010286,490.55315 C324.912045,490.948987 321.872087,491.003086 318.116053,490.788233 C316.087539,490.672198 313.928677,490.481615 311.721132,490.237213 L310.413348,490.086789 C309.771619,490.010213 309.149294,489.931882 308.551594,489.853105 L307.384344,489.694399 L306.479045,489.562981 C306.069619,489.500183 305.788622,489.117371 305.851419,488.707945 C305.908984,488.332638 306.23545,488.065247 306.604823,488.071658 L306.706455,488.080319 Z" id="Stroke-75" fill="#597EF7" fill-rule="nonzero"></path>
        <path d="M325.8643,495.4539 C325.8733,496.7439 324.8338,497.7969 323.5438,497.8044 C322.2553,497.8134 321.2023,496.7739 321.1948,495.4839 C321.1858,494.1939 322.2238,493.1424 323.5153,493.13336 C324.8038,493.1259 325.8568,494.1639 325.8643,495.4539" id="Fill-77" fill="#FFFFFF"></path>
        <path d="M211.744492,507.853694 L238.937992,510.054194 C239.350856,510.087603 239.658465,510.449378 239.625056,510.862242 C239.594432,511.240701 239.287887,511.530716 238.918999,511.550691 L238.817008,511.549306 L211.623508,509.348806 C211.210644,509.315397 210.903035,508.953622 210.936444,508.540758 C210.967068,508.162299 211.273613,507.872284 211.642501,507.852309 L211.744492,507.853694 Z" id="Stroke-79" fill="#12183F" fill-rule="nonzero"></path>
        <path d="M225.39489,213.8814 C225.809096,213.878923 226.146896,214.212684 226.149461,214.62689 C226.162335,216.780039 224.490601,218.549737 222.398108,218.562885 C220.304432,218.576029 218.610217,216.828816 218.5954,214.675555 C218.592571,214.261351 218.926042,213.923264 219.340245,213.920418 C219.754449,213.917571 220.092536,214.251042 220.095382,214.665245 C220.104589,216.004837 221.138185,217.070765 222.388687,217.062915 C223.637578,217.055067 224.657469,215.97541 224.649414,214.63591 C224.646923,214.221704 224.980684,213.883904 225.39489,213.8814 Z" id="Stroke-81" fill="#604346" fill-rule="nonzero"></path>
        <path d="M204.487995,214.0173 C204.902199,214.014471 205.240286,214.347942 205.243132,214.762145 C205.25793,216.915189 203.584915,218.685633 201.491863,218.698785 C199.399393,218.711934 197.705465,216.964422 197.69065,214.811455 C197.687821,214.397251 198.021292,214.059164 198.435495,214.056318 C198.849699,214.053471 199.187786,214.386942 199.190632,214.801145 C199.199838,216.14055 200.233262,217.206664 201.482437,217.198815 C202.731807,217.190964 203.752367,216.110971 203.743168,214.772455 C203.740321,214.358251 204.073792,214.020164 204.487995,214.0173 Z" id="Stroke-83" fill="#604346" fill-rule="nonzero"></path>
        <path d="M194.2246,334.98945 C194.2246,334.98945 214.3891,310.53645 219.4021,310.04745 C225.5926,309.44445 232.3066,309.49245 234.9331,309.77895 C235.7476,309.86745 236.4076,310.47045 236.5756,311.27145 L239.0476,323.01195 C239.3296,324.35445 239.0311,325.75545 238.2226,326.86395 L231.0931,335.50545 C230.7376,335.93895 230.3011,336.29895 229.8076,336.56595 L204.8881,350.10795 C204.8881,350.10795 194.6821,340.86345 194.2246,334.98945" id="Fill-85" fill="#A08889"></path>
        <path d="M236.834767,313.597597 C237.144131,313.569247 237.417902,313.797053 237.446253,314.106417 C237.471768,314.384844 237.289797,314.634442 237.027621,314.702245 L236.937433,314.717903 L223.711933,315.929903 C223.402569,315.958253 223.128798,315.730447 223.100447,315.421083 C223.074932,315.142656 223.256903,314.893058 223.519079,314.825255 L223.609267,314.809597 L236.834767,313.597597 Z" id="Stroke-87" fill="#7C5B4D" fill-rule="nonzero"></path>
        <path d="M236.982485,317.576008 C237.270165,317.45875 237.598433,317.596904 237.715692,317.884585 C237.821225,318.143497 237.719873,318.435286 237.488828,318.576536 L237.407115,318.617792 L227.577615,322.624292 C227.289935,322.74155 226.961667,322.603396 226.844408,322.315715 C226.738875,322.056803 226.840227,321.765014 227.071272,321.623764 L227.152985,321.582508 L236.982485,317.576008 Z" id="Stroke-89" fill="#7C5B4D" fill-rule="nonzero"></path>
        <path d="M237.397066,321.05861 C237.625568,320.848143 237.981423,320.862763 238.19189,321.091266 C238.378972,321.294379 238.388207,321.598116 238.227465,321.810924 L238.159234,321.88609 L232.001734,327.55759 C231.773232,327.768057 231.417377,327.753437 231.20691,327.524934 C231.019828,327.321821 231.010593,327.018084 231.171335,326.805276 L231.239566,326.73011 L237.397066,321.05861 Z" id="Stroke-91" fill="#7C5B4D" fill-rule="nonzero"></path>
        <g id="分组" transform="translate(124.000000, 331.765500)">
            <mask id="mask-6" fill="white">
                <use xlink:href="#path-5"></use>
            </mask>
            <g id="Clip-94"></g>
            <path d="M6.4101,40.59555 L71.0631,1.09005 L83.0136,20.44005 C83.0136,20.44005 37.7436,67.43655 21.2646,71.94705 C4.7856,76.45605 -8.3349,57.74955 6.4101,40.59555" id="Fill-93" fill="#ADC6FF" mask="url(#mask-6)"></path>
        </g>
        <path d="M195.207069,332.367027 L195.272681,332.454909 L207.646181,351.801909 C207.835659,352.098174 207.793839,352.486308 207.545599,352.73541 L205.578563,354.688239 L203.56293,356.668309 C202.387906,357.817671 201.134575,359.035367 199.812546,360.310327 L199.145851,360.952528 C192.742452,367.113435 186.127852,373.274483 179.657438,379.025959 C177.765599,380.707592 175.910593,382.331959 174.09773,383.892923 L173.015112,384.821845 C161.091311,395.016399 151.653098,401.888905 145.551246,404.404871 C145.168308,404.562767 144.729875,404.380335 144.571979,403.997396 C144.414083,403.614458 144.596515,403.176025 144.979454,403.018129 C150.789408,400.62252 159.936552,393.991555 171.471154,384.167462 L172.04035,383.68174 C174.187712,381.845799 176.397656,379.916609 178.660893,377.904844 C184.469621,372.741533 190.397014,367.245284 196.182845,361.715639 L198.105855,359.871598 C199.447845,358.580428 200.722814,357.344623 201.921139,356.175265 L205.385433,352.769518 L206.057,352.101 L194.405,333.883 L185.6607,339.249638 C180.388861,342.487525 175.117029,345.729628 170.042932,348.855563 L151.900888,360.06399 C146.34726,363.508882 141.996434,366.226332 139.095497,368.065888 C138.745686,368.287711 138.282286,368.183957 138.060462,367.834147 C137.838639,367.484336 137.942393,367.020936 138.292203,366.799112 L142.961955,363.861624 C144.664781,362.79641 146.594822,361.593689 148.734912,360.263912 L164.254562,350.661668 L176.122203,343.351806 L194.248953,332.219534 C194.565667,332.025435 194.970649,332.094283 195.207069,332.367027 Z" id="Stroke-95" fill="#597EF7" fill-rule="nonzero"></path>
        <path d="M201.3994,350.77695 C201.4084,352.06695 200.3689,353.11995 199.0789,353.12745 C197.7904,353.13645 196.7374,352.09695 196.72836,350.80695 C196.7209,349.51695 197.7589,348.46545 199.0489,348.45641 C200.3389,348.44895 201.3904,349.48695 201.3994,350.77695" id="Fill-97" fill="#FFFFFF"></path>
        <path d="M186.729805,343.24189 C187.057159,343.049514 187.470652,343.133784 187.698944,343.424233 L187.75641,343.508505 L197.15241,359.497005 C197.362275,359.854118 197.242907,360.313744 196.885795,360.52361 C196.558441,360.715986 196.144948,360.631716 195.916656,360.341267 L195.85919,360.256995 L186.46319,344.268495 C186.253325,343.911382 186.372693,343.451756 186.729805,343.24189 Z" id="Stroke-99" fill="#597EF7" fill-rule="nonzero"></path>
    </g>
</svg>