<?xml version="1.0" encoding="UTF-8"?>
<svg width="512px" height="1024px" viewBox="0 0 512 1024" version="1.1" xmlns="http://www.w3.org/2000/svg" xmlns:xlink="http://www.w3.org/1999/xlink">
    <!-- Generator: Sketch 61.2 (89653) - https://sketch.com -->
    <title>2.人物组件/3.商务经理/站立/讲解</title>
    <desc>Created with Sketch.</desc>
    <defs>
        <polygon id="path-1" points="0 0.922302243 73.6693875 0.922302243 73.6693875 78 0 78"></polygon>
    </defs>
    <g id="2.人物组件/3.商务经理/站立/讲解" stroke="none" stroke-width="1" fill="none" fill-rule="evenodd">
        <path d="M365.54025,291.4646 C365.54025,291.4646 377.94525,248.9036 394.45275,237.338511 C399.51225,237.3101 395.05875,244.1666 391.77525,249.7601 C390.09525,252.6221 389.05875,256.1891 389.05875,256.1891 C389.05875,256.1891 395.95575,255.1706 394.87875,261.1091 C400.41675,260.6036 398.67225,266.9021 398.67225,266.9021 C398.67225,266.9021 402.93975,266.7296 401.81475,272.5586 C401.03925,276.5681 395.58075,281.4116 394.84425,285.7031 C392.94825,296.7686 383.36625,300.4571 380.27025,301.0826 C372.43575,302.6666 367.85925,299.8811 365.54025,291.4646" id="Fill-1" fill="#A08889"></path>
        <path d="M379.092192,259.875682 C380.249669,254.643565 382.481811,252.314666 384.611992,254.183257 C386.325845,255.686645 386.776974,259.596887 385.491759,263.212713 L385.211115,264.012445 C383.099327,270.116136 383.010096,272.493699 384.078819,274.993941 L384.304015,275.492237 C384.735088,276.424271 384.950749,277.021422 385.067239,277.796471 L385.236616,279.143254 C385.485032,281.190332 385.531443,282.712541 385.271439,284.299881 C384.705686,287.753825 382.709034,290.274241 378.870661,291.499435 C378.476062,291.625389 378.05407,291.40761 377.928115,291.013011 C377.802161,290.618412 378.01994,290.19642 378.414539,290.070465 C381.690807,289.024694 383.312932,286.977052 383.791165,284.057413 C384.005122,282.751199 383.985188,281.457131 383.797829,279.757542 L383.726166,279.151656 C383.691592,278.874791 383.630055,278.385146 383.612665,278.235963 C383.537043,277.588553 383.393236,277.125905 383.060612,276.381224 L382.860302,275.944326 C381.412528,272.817476 381.476858,270.026965 384.078414,262.710264 C385.178329,259.615758 384.800897,256.344289 383.622833,255.310893 C382.778827,254.570533 381.498875,255.911883 380.561997,260.174429 L380.497199,260.476566 L380.45691,260.60778 L374.91291,274.11228 C374.755603,274.49546 374.317451,274.678567 373.93427,274.52126 C373.583021,274.377062 373.39989,273.996876 373.492974,273.639366 L373.52529,273.54262 L379.044,260.099 L379.092192,259.875682 Z" id="Stroke-3" fill="#755654" fill-rule="nonzero"></path>
        <path d="M395.179124,260.42154 C395.558522,260.587763 395.731334,261.030076 395.56511,261.409474 L395.380279,261.819471 L395.014032,262.601177 C394.969634,262.694006 394.924044,262.788685 394.877301,262.885075 C394.342786,263.987326 393.766802,265.089947 393.169758,266.121921 C392.443072,267.377978 391.73424,268.443535 391.054564,269.26313 C389.899389,270.65611 388.836046,271.356911 387.760746,271.077321 C385.236698,270.420406 384.429005,268.564834 385.007659,266.154324 C385.209788,265.312309 385.570432,264.431911 386.043893,263.539309 C386.301904,263.052888 386.577648,262.592864 386.853696,262.172258 L387.075448,261.842965 C387.139079,261.751195 387.191696,261.677988 387.231118,261.62505 C387.478513,261.292833 387.948382,261.224072 388.2806,261.471468 C388.612817,261.718863 388.681578,262.188732 388.434182,262.52095 L388.269515,262.753685 C388.221953,262.82316 388.167647,262.904008 388.107732,262.995299 C387.855877,263.379041 387.603716,263.799721 387.369017,264.242192 C386.950036,265.032086 386.635133,265.800823 386.466222,266.504458 C386.061433,268.190696 386.50048,269.199351 388.138383,269.625635 C388.445968,269.705611 389.092062,269.2798 389.899935,268.305616 C390.517754,267.560612 391.183214,266.560255 391.871392,265.370757 C392.448249,264.373676 393.007906,263.302311 393.527624,262.230574 L393.905443,261.43546 L394.19119,260.807526 C394.357413,260.428128 394.799726,260.255316 395.179124,260.42154 Z" id="Stroke-5" fill="#755654" fill-rule="nonzero"></path>
        <path d="M398.636268,266.493999 C399.033886,266.610072 399.262124,267.026501 399.146051,267.424118 L399.074331,267.656209 L399.037879,267.768959 C398.951084,268.034694 398.848351,268.329921 398.72995,268.647442 C398.391403,269.555338 397.993804,270.463785 397.537849,271.316299 C396.13449,273.94021 394.481628,275.532311 392.470757,275.458951 C390.4281,275.384432 389.425755,274.061143 389.312215,272.113704 C389.271838,271.421143 389.343658,270.69585 389.487155,269.981886 C389.556783,269.635456 389.627336,269.366773 389.677255,269.205802 C389.799944,268.810175 390.220122,268.588916 390.615748,268.711605 C391.011375,268.834294 391.232634,269.254472 391.109945,269.650098 L391.067691,269.798906 C391.035648,269.919849 390.996903,270.082634 390.957746,270.277454 C390.83753,270.87559 390.777765,271.479128 390.809672,272.026399 C390.882648,273.278083 391.367129,273.917691 392.525443,273.959949 C393.776809,274.0056 395.059015,272.77053 396.215146,270.608871 C396.636335,269.821358 397.007796,268.972632 397.324485,268.123355 C397.398439,267.925028 397.465754,267.736318 397.526295,267.559429 L397.706149,267.003782 C397.822222,266.606164 398.238651,266.377926 398.636268,266.493999 Z" id="Stroke-7" fill="#755654" fill-rule="nonzero"></path>
        <path d="M402.0729,270.959957 C402.479047,271.041309 402.742345,271.436504 402.660993,271.84265 L402.590839,272.157965 C402.533898,272.399474 402.464818,272.66764 402.383192,272.956002 C402.149673,273.780959 401.861277,274.606645 401.513124,275.382735 C400.228534,278.246291 398.440039,279.804974 396.080068,279.013907 C394.327613,278.426027 393.629227,277.163762 393.89308,275.601872 C394.007745,274.923105 394.293758,274.227488 394.696912,273.531121 C395.004929,272.999084 395.312675,272.576443 395.527152,272.319851 C395.7928,272.00204 396.265788,271.959754 396.583599,272.225402 C396.90141,272.49105 396.943696,272.964038 396.678048,273.281849 L396.575635,273.411607 C396.545512,273.451148 396.510863,273.497559 396.472456,273.550305 C396.30971,273.773811 396.146579,274.020942 395.995056,274.282667 C395.674086,274.837078 395.452482,275.376044 395.372124,275.851729 C395.22775,276.706358 395.52632,277.245996 396.556966,277.591737 C397.941157,278.05572 399.137869,277.01278 400.144525,274.768783 C400.459818,274.065944 400.72488,273.307063 400.939901,272.547453 L401.0391,272.184067 C401.11244,271.904581 401.162566,271.686047 401.190207,271.54805 C401.26478,271.175749 401.603068,270.92348 401.971767,270.946683 L402.0729,270.959957 Z" id="Stroke-9" fill="#755654" fill-rule="nonzero"></path>
        <path d="M337.1568,398.438 L337.1568,398.438 C328.9773,405.6215 316.5753,405.026 309.1233,397.091 L246.3648,330.263 C237.3723,320.687 238.0983,305.567 247.9683,296.897 L247.9683,296.897 C257.8383,288.2285 272.9253,289.4585 281.2623,299.6105 L339.4368,370.4645 C346.3443,378.878 345.3363,391.2545 337.1568,398.438" id="Fill-11" fill="#ADC6FF"></path>
        <path d="M365.74755,287.26115 L389.82255,301.48865 L341.38905,394.23965 C335.70855,404.33465 322.68105,407.53265 312.97155,401.21465 C303.49305,395.04665 300.98505,382.26665 307.42905,372.97415 L365.74755,287.26115 Z" id="Fill-13" fill="#ADC6FF"></path>
        <path d="M365.064207,286.672171 C365.262617,286.352125 365.662738,286.23339 365.998348,286.378422 L366.096829,286.429907 L389.276329,300.799907 C389.628379,301.018158 389.736844,301.480479 389.518593,301.832529 C389.320183,302.152575 388.920062,302.27131 388.584452,302.126278 L388.485971,302.074793 L365.306471,287.704793 C364.954421,287.486542 364.845956,287.024221 365.064207,286.672171 Z" id="Stroke-15" fill="#597EF7" fill-rule="nonzero"></path>
        <path d="M359.294485,298.076283 C359.501751,297.7619 359.90503,297.654379 360.236461,297.808721 L360.333467,297.862935 L382.732967,312.630435 C383.078788,312.858428 383.174307,313.323595 382.946315,313.669417 C382.739049,313.9838 382.33577,314.091321 382.004339,313.936979 L381.907333,313.882765 L359.507833,299.115265 C359.162012,298.887272 359.066493,298.422105 359.294485,298.076283 Z" id="Stroke-17" fill="#597EF7" fill-rule="nonzero"></path>
        <path d="M383.4993,303.2738 C384.3933,303.8243 384.6723,304.9943 384.1218,305.8883 C383.5713,306.7823 382.4013,307.0613 381.5073,306.5108 C380.6133,305.9618 380.3343,304.7903 380.8848,303.8963 C381.4353,303.0023 382.6053,302.7233 383.4993,303.2738" id="Fill-19" fill="#FFFFFF"></path>
        <g id="分组" transform="translate(109.500000, 775.508000)">
            <mask id="mask-2" fill="white">
                <use xlink:href="#path-1"></use>
            </mask>
            <g id="Clip-22"></g>
            <path d="M41.15805,32.7261 C41.15805,32.7261 30.92805,58.3446 6.22305,64.7706 C-9.95145,68.9766 7.34655,83.2551 35.74005,75.9576 C51.92655,71.7966 47.87955,63.6336 56.98005,63.0876 C62.25405,62.7696 72.70455,59.4306 72.98955,55.4091 C73.48755,48.3816 73.61655,46.4121 73.66605,38.2296 C73.95855,-10.2549 54.96255,-10.8369 41.15805,32.7261" id="Fill-21" fill="#253368" mask="url(#mask-2)"></path>
        </g>
        <path d="M175.2417,441.7583 C175.2417,441.7583 248.2707,442.5353 258.3042,442.1378 C263.5302,441.9308 270.5922,474.2018 270.8892,496.1618 C267.5622,502.8893 238.6527,516.4043 223.8582,523.2203 C218.2662,525.7973 213.1302,524.3963 213.1302,524.3963 C205.7742,526.3433 162.6417,494.5703 162.6417,494.5703 C162.6417,494.5703 163.3392,459.5228 175.2417,441.7583" id="Fill-23" fill="#4E5C93"></path>
        <path d="M259.7661,432.92195 L260.1726,443.04995 C260.1726,443.04995 248.5251,447.74345 220.2846,449.71895 C193.1136,451.62095 174.8601,444.77495 174.8601,444.77495 L175.1046,434.08295 C175.1046,434.08295 209.9541,445.06145 259.7661,432.92195" id="Fill-25" fill="#12183F"></path>
        <path d="M234.503606,447.28835 L234.4299,439.92485 C234.4089,437.85035 232.7109,436.22885 230.7324,436.40585 C225.9894,436.82735 217.6044,437.43185 211.5024,437.07335 C209.5074,436.95635 207.8664,438.67535 207.9504,440.76035 L208.2519,448.27835 C208.3209,450.03635 209.6064,451.47185 211.2804,451.67735 C215.2554,452.16635 222.9099,452.64335 231.7464,450.81635 C233.3559,450.48335 234.5214,449.00435 234.503606,447.28835" id="Fill-27" fill="#F1F2F6"></path>
        <path d="M231.419317,446.40305 L231.38025,441.19355 C231.36975,439.72655 230.06475,438.58355 228.53925,438.71255 C224.87925,439.02455 218.40825,439.47305 213.70275,439.23455 C212.16375,439.15805 210.89325,440.37755 210.95175,441.85205 L211.16625,447.17105 C211.21575,448.41455 212.20275,449.42555 213.49275,449.56805 C216.55875,449.90255 222.46125,450.22205 229.28325,448.90655 C230.52675,448.66655 231.42825,447.61655 231.419317,446.40305" id="Fill-29" fill="#12183F"></path>
        <path d="M233.57175,271.04945 L230.10375,247.69745 L194.97525,239.31395 L192.98025,273.33245 C192.86325,281.40245 199.22775,288.94745 206.84625,291.61145 C207.63675,291.88895 208.45425,292.13195 209.29425,292.33295 C221.97525,295.35995 234.86025,284.02295 233.57175,271.04945" id="Fill-31" fill="#A08889"></path>
        <path d="M181.60935,224.17205 C187.37385,249.85805 206.25135,260.23355 223.56885,259.82855 C244.21335,259.34555 247.51485,241.32005 244.48185,215.77205 C241.40085,189.83105 229.57485,181.77605 210.19185,182.59205 C189.98385,183.44405 175.76985,198.15455 181.60935,224.17205" id="Fill-33" fill="#A08889"></path>
        <path d="M196.1025,226.94945 C195.3525,224.96495 194.529,221.61095 191.178,220.49045 C186.567,218.94995 182.979,224.29895 184.0035,229.69145 C185.2455,236.22995 191.352,239.80595 194.6475,239.59595 C194.7765,246.07745 194.5215,249.54245 194.5215,249.54245 C194.5215,249.54245 186.753,242.90045 181.9275,232.04195 C174.402,215.09945 178.353,191.01695 197.4975,184.05845 C230.8725,175.67495 238.6905,195.61145 238.6905,195.61145 L200.8185,197.74895 L202.674,210.32645 C202.674,210.32645 195.957,211.17545 198.381,226.04495 L196.1025,226.94945 Z" id="Fill-35" fill="#604346"></path>
        <path d="M222.812544,211.260367 C223.225008,211.222339 223.590204,211.52588 223.628233,211.938344 C223.663092,212.316436 223.410938,212.65481 223.050968,212.737871 L222.950256,212.754033 L211.307,213.827 L207.716076,215.220459 C207.362068,215.357745 206.967485,215.208139 206.788821,214.884786 L206.745641,214.792376 C206.608355,214.438368 206.757961,214.043785 207.081314,213.865121 L207.173724,213.821941 L210.863724,212.390941 L211.066044,212.343367 L222.812544,211.260367 Z" id="Stroke-37" fill="#604346" fill-rule="nonzero"></path>
        <path d="M207.6243,246.2495 C211.5273,239.8115 210.7578,234.359 228.6843,233.4335 C237.4053,232.9835 240.6738,235.6355 244.2768,242.3885 C242.6388,253.2845 234.3438,260.6615 222.6513,260.576 C198.0828,260.3975 195.2688,236.03 195.2688,236.03 C195.2688,236.03 198.7728,236.6705 200.0133,238.4255 C203.4408,243.278 205.5318,244.4075 207.6243,246.2495" id="Fill-39" fill="#7F6567"></path>
        <path d="M235.1157,238.0817 C235.1157,238.0817 228.8202,238.9037 219.0717,238.6757 C219.0717,238.6757 220.7727,242.5892 227.7552,242.1452 C233.2362,241.7987 235.1157,238.0817 235.1157,238.0817" id="Fill-41" fill="#FFFFFF"></path>
        <path d="M235.042873,237.523934 L234.510541,237.586022 L233.534894,237.684309 C232.974665,237.736707 232.35351,237.788422 231.674174,237.837653 C228.005668,238.103504 223.767341,238.222869 219.084852,238.113354 C218.699386,238.104338 218.428535,238.472728 218.529905,238.82782 L218.56646,238.923448 C218.87421,239.581015 219.522805,240.399499 220.620237,241.140104 C222.34413,242.303478 224.707521,242.90263 227.790896,242.706566 C230.204988,242.553951 232.152602,241.773703 233.667149,240.566183 C234.698263,239.744095 235.325228,238.913884 235.617676,238.335524 C235.821554,237.932323 235.490885,237.465438 235.042873,237.523934 Z M233.924,238.777 L233.883073,238.824271 C233.619279,239.118313 233.314212,239.408779 232.965826,239.686541 C231.627724,240.753385 229.89868,241.44607 227.719711,241.583821 C224.878016,241.764517 222.761551,241.227963 221.24955,240.207586 L221.045267,240.064412 C220.71628,239.824902 220.444351,239.581788 220.22406,239.347634 L220.144,239.259 L220.807353,239.268787 C224.550091,239.312656 227.988181,239.211018 231.054505,239.008272 L231.755488,238.95971 C232.305533,238.919849 232.818281,238.878344 233.292331,238.83612 L233.924,238.777 Z" id="Stroke-43" fill="#604346" fill-rule="nonzero"></path>
        <path d="M232.213439,210.531185 C232.585776,210.605574 232.838211,210.943738 232.81519,211.312449 L232.801965,211.413589 L231.979,215.527 L236.008202,230.517633 C236.403888,231.987031 235.418994,233.456166 233.936743,233.670999 L233.776067,233.68916 L224.320067,234.46166 C223.907229,234.495386 223.545217,234.188055 223.51149,233.775217 C223.480574,233.396782 223.736241,233.061055 224.097058,232.981751 L224.197933,232.96664 L233.654061,232.19413 C234.251419,232.145432 234.670818,231.599649 234.583927,231.022925 L234.559701,230.907306 L230.485701,215.748306 C230.465726,215.673981 230.457369,215.59725 230.460719,215.520812 L230.474535,215.406711 L231.331035,211.119711 C231.405424,210.747374 231.743588,210.494939 232.112299,210.51796 L232.213439,210.531185 Z" id="Stroke-45" fill="#604346" fill-rule="nonzero"></path>
        <path d="M229.921488,246.178679 C230.231,246.151996 230.503539,246.381276 230.530221,246.690788 C230.554235,246.969349 230.370921,247.217962 230.108383,247.28435 L230.018112,247.299521 L225.494112,247.689521 C225.1846,247.716204 224.912061,247.486924 224.885379,247.177412 C224.861365,246.898851 225.044679,246.650238 225.307217,246.58385 L225.397488,246.568679 L229.921488,246.178679 Z" id="Stroke-47" fill="#604346" fill-rule="nonzero"></path>
        <path d="M242.520236,209.512193 C242.932493,209.471979 243.299293,209.773579 243.339507,210.185836 C243.37637,210.563738 243.126014,210.903444 242.766489,210.988412 L242.665864,211.005107 L232.701364,211.977107 C232.289107,212.017321 231.922307,211.715721 231.882093,211.303464 C231.84523,210.925562 232.095586,210.585856 232.455111,210.500888 L232.555736,210.484193 L242.520236,209.512193 Z" id="Stroke-49" fill="#604346" fill-rule="nonzero"></path>
        <path d="M208.261195,257.359077 C208.395744,257.079066 208.731811,256.961146 209.011823,257.095695 C215.834196,260.373934 222.572715,260.753634 228.467987,259.437224 C228.997396,259.319008 229.478308,259.194245 229.907195,259.068433 L230.219049,258.973963 C230.517028,258.880722 230.718693,258.809447 230.817156,258.770903 C231.106442,258.65766 231.432755,258.800371 231.545997,259.089656 C231.65924,259.378942 231.516529,259.705255 231.227244,259.818497 L230.966581,259.913056 C230.854261,259.951696 230.716789,259.997005 230.555009,260.047627 C230.022428,260.214277 229.406231,260.380422 228.713161,260.535184 C222.589148,261.902671 215.598375,261.508757 208.524577,258.109705 C208.244566,257.975156 208.126646,257.639089 208.261195,257.359077 Z" id="Stroke-51" fill="#604346" fill-rule="nonzero"></path>
        <path d="M188.754107,223.422028 C189.614564,223.258768 190.560616,223.326217 191.463384,223.796314 C192.913988,224.551685 193.898115,226.195037 194.246616,228.864123 C194.284408,229.153565 194.094518,229.423823 193.809401,229.48638 C192.370229,229.802151 191.71498,230.426199 191.678034,231.206975 C191.644215,231.921668 192.137523,232.776668 192.919927,233.348933 C193.170673,233.532334 193.225268,233.88428 193.041867,234.135027 C192.858466,234.385773 192.50652,234.440368 192.255773,234.256967 C191.190465,233.47778 190.500877,232.282589 190.554291,231.1538 C190.610006,229.976396 191.424761,229.059894 192.897255,228.570584 L193.056,228.52 L193.040877,228.424886 C192.704378,226.550727 192.013667,225.425475 191.084879,224.872769 L190.94379,224.794135 C190.296327,224.456982 189.597182,224.407137 188.963819,224.527309 L188.786973,224.566954 C188.774579,224.570352 188.764723,224.57329 188.757524,224.575642 C188.462221,224.672111 188.144628,224.510926 188.048158,224.215624 C187.951689,223.920321 188.112874,223.602728 188.408176,223.506258 L188.549959,223.466329 C188.607885,223.451933 188.676206,223.436809 188.754107,223.422028 Z" id="Stroke-53" fill="#7C5B4D" fill-rule="nonzero"></path>
        <path d="M220.271843,218.689569 C220.685218,218.663221 221.041683,218.976968 221.068031,219.390343 C221.204924,221.538078 219.636123,223.399659 217.546669,223.533068 C215.457802,223.664562 213.66741,222.017032 213.530566,219.868216 C213.504241,219.45484 213.818008,219.098391 214.231384,219.072066 C214.64476,219.045741 215.001209,219.359508 215.027534,219.772884 C215.112658,221.109561 216.204813,222.114569 217.451761,222.036074 C218.699164,221.956429 219.656164,220.820827 219.571069,219.485757 C219.544721,219.072382 219.858468,218.715917 220.271843,218.689569 Z" id="Stroke-55" fill="#604346" fill-rule="nonzero"></path>
        <path d="M241.135643,217.365969 C241.549018,217.339621 241.905483,217.653368 241.931831,218.066743 C242.068724,220.214478 240.499923,222.076059 238.410469,222.209468 C236.321602,222.340962 234.53121,220.693432 234.394366,218.544616 C234.368041,218.13124 234.681808,217.774791 235.095184,217.748466 C235.50856,217.722141 235.865009,218.035908 235.891334,218.449284 C235.976458,219.785961 237.068613,220.790969 238.315561,220.712474 C239.562964,220.632829 240.519964,219.497227 240.434869,218.162157 C240.408521,217.748782 240.722268,217.392317 241.135643,217.365969 Z" id="Stroke-57" fill="#604346" fill-rule="nonzero"></path>
        <path d="M178.7376,654.8786 L178.7376,654.8786 C165.8301,653.8391 156.0381,642.8036 156.5436,629.8631 L161.7576,496.0286 C162.4116,479.2676 176.8896,466.4216 193.6086,467.7686 C210.2946,469.1126 222.5196,484.0526 220.5366,500.6741 L204.6591,633.6671 C203.1216,646.5536 191.6736,655.9211 178.7376,654.8786" id="Fill-59" fill="#4E5C93"></path>
        <path d="M183.56565,806.6096 L204.93465,634.0181 C206.65965,620.0831 196.33965,607.5551 182.33265,606.5786 C168.63615,605.6231 156.83115,616.1126 156.16815,629.8271 L147.77265,803.5856 C147.77265,803.5856 162.37815,812.8181 183.56565,806.6096" id="Fill-61" fill="#4E5C93"></path>
        <path d="M264.8652,806.5868 C264.8652,806.5868 275.7972,831.9143 300.6702,837.6563 C316.9542,841.4168 300.0552,856.1648 271.4727,849.6518 C255.1782,845.9393 258.9972,837.6683 249.8862,837.3713 C244.6047,837.2003 234.0657,834.1493 233.6712,830.1383 C232.9797,823.1273 232.7967,821.1623 232.5222,812.9843 C230.8947,764.5253 249.8667,763.4198 264.8652,806.5868" id="Fill-63" fill="#253368"></path>
        <path d="M244.8921,657.76115 L244.8921,657.76115 C257.8446,657.48365 268.2711,647.03765 268.5231,634.08515 L271.1391,500.16665 C271.4661,483.40115 257.7726,469.73465 241.0086,470.09315 C224.2671,470.45165 211.1781,484.65515 212.1891,501.36965 L220.2666,635.07065 C221.0496,648.02015 231.9216,658.03865 244.8921,657.76115" id="Fill-65" fill="#4E5C93"></path>
        <path d="M230.10015,806.68385 L220.23465,637.35185 C219.44565,623.79935 230.06565,612.29885 243.63765,612.00935 C257.09865,611.72135 268.15365,622.57985 268.105806,636.04385 L267.50565,805.88435 C267.50565,805.88435 250.88415,814.12985 230.10015,806.68385" id="Fill-67" fill="#4E5C93"></path>
        <path d="M263.2071,414.5243 C263.2071,414.5243 282.2121,335.7113 272.8506,294.5648 C261.7791,287.9573 253.3716,287.7173 234.0966,281.4818 C230.2326,280.2323 222.1086,289.4753 217.3071,289.3118 C210.2091,289.0703 195.6426,279.1778 189.0321,280.6838 C160.1181,287.2703 150.0441,291.9113 150.0441,291.9113 L155.4861,348.8963 C161.9991,379.9493 171.3096,411.5753 171.3096,411.5753 C171.3096,411.5753 156.0186,432.9248 187.4376,436.9013 C209.3241,439.6718 245.8881,440.4788 259.6461,432.3128 C265.6401,428.7548 266.2596,422.3018 263.2071,414.5243" id="Fill-69" fill="#ADC6FF"></path>
        <polygon id="Fill-71" fill="#ADC6FF" points="233.7081 273.6026 241.6311 283.8131 231.9231 302.5406 216.3006 287.3366"></polygon>
        <polygon id="Fill-73" fill="#ADC6FF" points="216.43605 287.3525 194.00805 273.8585 187.07655 281.837 201.27705 301.4615"></polygon>
        <polygon id="Fill-75" fill="#253368" points="228.5898 298.9787 216.6678 287.1707 205.0728 299.5097 212.0763 312.6617 225.3318 312.3287"></polygon>
        <polygon id="Fill-77" fill="#253368" points="225.26025 312.22805 212.14725 312.16055 205.38825 393.37805 224.52525 420.15155 240.87375 392.37755"></polygon>
        <path d="M186.610347,281.324295 C186.921913,281.112819 187.335701,281.167357 187.583134,281.436513 L187.652105,281.523647 L201.4,301.779 L216.129621,286.647715 C216.388875,286.381377 216.798632,286.348417 217.094997,286.554812 L217.180241,286.623917 L232.093,300.616 L239.815196,283.242236 C239.96941,282.895268 240.354693,282.723117 240.709385,282.826418 L240.805164,282.861496 C241.152132,283.01571 241.324283,283.400993 241.220982,283.755685 L241.185904,283.851464 L233.034904,302.190464 C232.840218,302.628489 232.298241,302.76654 231.920406,302.501218 L231.836359,302.432783 L216.69,288.221 L201.833979,303.484485 C201.528234,303.798584 201.027492,303.780738 200.742509,303.467103 L200.675995,303.382553 L186.410995,282.366053 C186.178371,282.02333 186.267624,281.556919 186.610347,281.324295 Z" id="Stroke-79" fill="#597EF7" fill-rule="nonzero"></path>
        <path d="M224.77215,311.8835 C225.186364,311.8835 225.52215,312.219286 225.52215,312.6335 C225.52215,313.013196 225.239996,313.326991 224.873921,313.376653 L224.77215,313.3835 L213,313.3835 C212.585786,313.3835 212.25,313.047714 212.25,312.6335 C212.25,312.253804 212.532154,311.940009 212.898229,311.890347 L213,311.8835 L224.77215,311.8835 Z" id="Stroke-81" fill="#597EF7" fill-rule="nonzero"></path>
        <path d="M273.584926,316.098933 C273.998611,316.078989 274.350926,316.39739 274.371843,316.811076 C274.781655,324.915916 274.628665,333.885955 273.974246,343.576893 C273.065212,357.038307 271.230013,371.409101 268.741991,386.034251 C267.541479,393.091127 266.26059,399.783737 264.974588,405.931031 L264.717342,407.153165 C264.333067,408.967606 263.970706,410.627773 263.636106,412.119595 L263.155279,414.23081 L262.955,415.085 L263.193339,415.5326 C263.481511,416.094061 263.769001,416.724879 264.03724,417.412378 C265.083,420.092678 265.551145,422.83474 265.104915,425.429105 C264.508361,428.897447 262.317034,431.708801 258.279458,433.57852 C257.90359,433.752577 257.457787,433.588976 257.28373,433.213108 C257.109673,432.83724 257.273274,432.391437 257.649142,432.21738 C261.243514,430.5529 263.11445,428.15259 263.626622,425.174839 C264.019408,422.8912 263.595114,420.405988 262.639836,417.957597 C262.440819,417.447512 262.230488,416.971321 262.018243,416.536128 L261.858847,416.217533 C261.701361,415.910693 261.581035,415.697386 261.516344,415.591228 C261.413012,415.421656 261.381145,415.218027 261.427732,415.024994 L261.768137,413.571289 L262.17256,411.790912 C262.464184,410.490693 262.777073,409.061662 263.10731,407.51326 L263.249892,406.842378 C264.618012,400.382493 265.986239,393.289163 267.263237,385.782686 C269.743375,371.203877 271.572378,356.881602 272.477655,343.47583 C273.128339,333.840183 273.280344,324.9279 272.873757,316.886824 C272.852839,316.473139 273.17124,316.120824 273.584926,316.098933 Z" id="Stroke-83" fill="#597EF7" fill-rule="nonzero"></path>
        <path d="M241.9038,429.24365 L263.6073,361.35065 C263.9658,360.23165 264.9978,359.46665 266.1738,359.45165 L327.0333,358.62789 C328.9233,358.60265 330.2688,360.45815 329.6553,362.24615 L306.9978,428.33465 C306.6333,429.39815 305.6553,430.12865 304.5333,430.17815 L244.6263,432.80615 C242.7273,432.88865 241.3248,431.05415 241.9038,429.24365" id="Fill-85" fill="#7B8DAF"></path>
        <path d="M266.43735,361.7063 C266.87085,360.3518 268.12185,359.4248 269.54535,359.4053 L331.15635,358.571115 C332.47785,358.5533 333.41835,359.8523 332.98935,361.1018 L310.01985,428.1053 C309.61635,429.2828 308.53335,430.0928 307.28985,430.1468 L248.40885,432.7283 C246.10935,432.8303 244.41135,430.6088 245.11185,428.4158 L266.43735,361.7063 Z" id="Fill-87" fill="#394772"></path>
        <path d="M274.78005,365.8337 C275.46855,366.6002 275.22105,367.9457 274.22655,368.8412 C273.23205,369.7352 271.86705,369.8402 271.17855,369.0737 C270.48855,368.3072 270.73605,366.9602 271.73055,366.0662 C272.72655,365.1707 274.09155,365.0672 274.78005,365.8337" id="Fill-89" fill="#4E5C93"></path>
        <path d="M273.9627,366.635 C274.3197,367.0325 274.1907,367.7315 273.6747,368.1965 C273.1587,368.66 272.4507,368.714 272.0922,368.3165 C271.7352,367.919 271.8627,367.22 272.3802,366.755 C272.8962,366.2915 273.6042,366.2375 273.9627,366.635" id="Fill-91" fill="#E1E7F3"></path>
        <path d="M268.99545,416.47775 C272.49195,416.13875 274.33245,414.67625 274.00095,411.76325 C278.20695,410.44025 277.73595,406.87775 277.73595,406.87775 C277.73595,406.87775 285.83145,406.75325 287.19345,403.29425 C287.72295,401.95175 286.69545,400.51325 285.25545,400.41575 C267.91095,399.24125 255.54495,390.04925 255.54495,390.04925 C255.54495,390.04925 262.36245,380.03675 261.64095,375.41525 C261.42795,374.04875 259.64145,373.60775 258.80745,374.71025 C251.65545,384.14675 237.31695,391.54625 237.31695,391.54625 C237.31695,391.54625 220.10445,407.67275 238.77645,414.98525 C238.77645,414.98525 253.00845,420.65675 262.91745,419.93825 C267.60945,419.59925 268.99545,416.47775 268.99545,416.47775" id="Fill-93" fill="#A08889"></path>
        <path d="M264.794672,403.699091 C264.996814,403.33755 265.453768,403.208331 265.815309,403.410472 C267.040956,404.095744 268.476812,404.655485 270.080257,405.098218 C271.995948,405.627167 274.055527,405.965834 276.12833,406.150028 L276.758608,406.201441 C277.570671,406.261656 278.266336,406.289464 278.807517,406.296143 L279.206192,406.297168 C279.620368,406.291585 279.960649,406.622816 279.966301,407.036992 C279.971349,407.416653 279.69345,407.734222 279.328077,407.788814 L279.226408,407.797032 L279.002191,407.797681 C278.270434,407.795503 277.235876,407.754358 275.99556,407.64414 C273.838961,407.4525 271.692831,407.099601 269.681025,406.544114 C267.968749,406.071331 266.422866,405.468699 265.083291,404.719728 C264.72175,404.517586 264.592531,404.060632 264.794672,403.699091 Z" id="Stroke-95" fill="#755654" fill-rule="nonzero"></path>
        <path d="M263.156453,409.040594 C263.336722,408.667665 263.785177,408.511483 264.158106,408.691753 C264.316287,408.768215 264.475946,408.842774 264.637036,408.915447 C266.676829,409.835671 268.869784,410.426651 271.072489,410.750957 C272.223374,410.920403 273.179748,410.992707 273.854791,411.00812 L274.194575,411.011128 C274.615646,411.00542 274.955981,411.336596 274.96163,411.750771 C274.966809,412.130431 274.688961,412.448046 274.323597,412.502696 L274.204953,412.511092 L273.831626,412.507953 C273.094657,412.49162 272.073869,412.414562 270.853998,412.234959 C268.522606,411.891706 266.198084,411.26527 264.020198,410.282748 C263.847108,410.204661 263.675457,410.124502 263.505294,410.042247 C263.132365,409.861978 262.976183,409.413523 263.156453,409.040594 Z" id="Stroke-97" fill="#755654" fill-rule="nonzero"></path>
        <path d="M260.068665,414.996422 C260.248891,414.623472 260.697329,414.467239 261.070278,414.647465 C261.612231,414.909361 262.947455,415.164648 264.755824,415.373254 C265.690233,415.481043 266.693855,415.570916 267.697824,415.643545 L268.66868,415.708021 L269.033528,415.728717 C269.447207,415.749747 269.765512,416.102148 269.744483,416.515828 C269.723453,416.929507 269.371052,417.247812 268.957372,417.226783 L268.578762,417.205324 C268.280123,417.18739 267.947601,417.165535 267.589593,417.139635 C266.565949,417.065582 265.54196,416.973886 264.58393,416.863372 L263.906135,416.780589 C262.270571,416.568699 261.080563,416.318398 260.417622,415.998035 C260.044672,415.817809 259.888439,415.369371 260.068665,414.996422 Z" id="Stroke-99" fill="#755654" fill-rule="nonzero"></path>
        <path d="M127.46955,420.8864 L127.46955,420.8864 C117.02355,417.8264 110.88405,407.0339 113.59455,396.4904 L136.42305,307.7009 C139.69305,294.9779 152.85255,287.4944 165.45855,291.1874 C178.06455,294.8789 185.10705,308.2799 180.99705,320.7569 L152.31405,407.8304 C148.90755,418.1699 137.91705,423.9464 127.46955,420.8864" id="Fill-101" fill="#ADC6FF"></path>
        <path d="M152.122364,297.460773 C152.302589,297.087823 152.751027,296.931589 153.123977,297.111814 C159.747882,300.312765 164.79988,306.929121 168.520448,315.929345 C170.387789,320.446529 171.799038,325.279184 172.819078,330.110856 C173.131378,331.590143 173.386827,332.977359 173.590675,334.245886 L173.759397,335.349068 C173.798426,335.618992 173.832668,335.868409 173.862334,336.096245 L173.920655,336.570109 C173.927613,336.633374 173.926475,336.697136 173.917367,336.759868 L173.897741,336.853003 L161.009741,383.207503 C160.898786,383.606579 160.485323,383.840147 160.086247,383.729191 C159.720427,383.627482 159.493681,383.271583 159.543894,382.905582 L159.564559,382.805697 L172.413,336.591 L172.311192,335.819135 C172.276266,335.569711 172.236678,335.299481 172.192221,335.009526 C171.980075,333.625879 171.702345,332.082904 171.351428,330.420699 C170.349092,325.672888 168.962906,320.926059 167.134223,316.502391 C163.54112,307.810509 158.702439,301.473524 152.471323,298.462386 C152.098373,298.282161 151.942139,297.833723 152.122364,297.460773 Z" id="Stroke-103" fill="#597EF7" fill-rule="nonzero"></path>
        <path d="M237.4917,386.74865 L237.8997,416.87315 L133.2822,422.21165 C121.7142,422.82065 112.0362,413.53115 112.1727,401.94815 C112.3047,390.63965 121.7547,381.67865 133.0542,382.14365 L237.4917,386.74865 Z" id="Fill-105" fill="#ADC6FF"></path>
        <path d="M140.034715,381.405079 L237.665215,385.857079 C238.029996,385.873713 238.324518,386.149097 238.373794,386.501703 L238.38102,386.599647 L238.649551,416.866647 C238.652765,417.232378 238.393005,417.54175 238.042936,417.609541 L237.945353,417.6219 L167.044853,421.9599 C166.631412,421.985196 166.275746,421.670543 166.25045,421.257103 C166.227262,420.878116 166.489726,420.547675 166.852085,420.475749 L166.953247,420.4627 L237.143,416.167 L236.887,387.323 L139.966385,382.903521 C139.587084,382.886225 139.286467,382.59007 139.253532,382.222112 L139.251329,382.120135 C139.268625,381.740834 139.56478,381.440217 139.932738,381.407282 L140.034715,381.405079 Z" id="Stroke-107" fill="#597EF7" fill-rule="nonzero"></path>
        <path d="M225.152296,388.136591 C225.531844,388.14717 225.837656,388.437957 225.8771,388.805274 L225.881109,388.907196 L225.162609,414.686196 C225.151069,415.100248 224.806057,415.426549 224.392004,415.415009 C224.012456,415.40443 223.706644,415.113643 223.6672,414.746326 L223.663191,414.644404 L224.381691,388.865404 C224.393231,388.451352 224.738243,388.125051 225.152296,388.136591 Z" id="Stroke-109" fill="#597EF7" fill-rule="nonzero"></path>
        <path d="M232.6548,409.05935 C232.6698,410.10935 231.8298,410.97185 230.7798,410.98535 C229.7313,411.00035 228.8688,410.16035 228.8538,409.11035 C228.8403,408.06185 229.6803,407.19935 230.7288,407.18435 C231.7788,407.17085 232.6413,408.00935 232.6548,409.05935" id="Fill-111" fill="#FFFFFF"></path>
        <path d="M233.325656,516.858554 C233.704135,516.690248 234.147391,516.860627 234.315696,517.239106 C234.469976,517.586045 234.339667,517.987415 234.025353,518.181539 L233.935144,518.229146 L218.648,525.027 L184.310888,806.699608 C184.264941,807.076513 183.946889,807.353859 183.577494,807.358857 L183.475642,807.353338 C183.098737,807.307391 182.821391,806.989339 182.816393,806.619944 L182.821912,806.518092 L217.210912,524.423592 C217.238256,524.199285 217.364824,524.0014 217.552124,523.881983 L217.650656,523.829054 L233.325656,516.858554 Z" id="Stroke-113" fill="#253368" fill-rule="nonzero"></path>
    </g>
</svg>