<svg xmlns="http://www.w3.org/2000/svg" xmlns:xlink="http://www.w3.org/1999/xlink" width="512" height="1024" version="1.1" viewBox="0 0 512 1024"><title>2.人物组件/6.产品经理/奔跑/打招呼</title><desc>Created with Sketch.</desc><defs><polygon id="path-1" points=".905 .054 46.736 .054 46.736 45.416 .905 45.416"/><polygon id="path-3" points="0 .391 59.808 .391 59.808 33 0 33"/></defs><g id="2.人物组件/6.产品经理/奔跑/打招呼" fill="none" fill-rule="evenodd" stroke="none" stroke-width="1"><path id="Fill-1" fill="#ADC6FF" d="M136.23945,381.4382 C136.23945,381.4382 118.00695,391.8542 127.83045,408.3947 C137.84595,425.2622 155.88345,414.0017 155.88345,414.0017 C155.88345,414.0017 168.71295,406.9322 183.96345,397.8752 C195.88095,390.7967 205.05345,385.4117 212.24745,380.1572 C220.01145,374.4872 222.89595,364.1747 218.29395,356.4272 C211.30245,344.6537 201.27495,344.0327 192.83745,348.5372 C184.63245,352.9187 173.74395,359.1707 164.80695,364.2017 C147.62595,373.8737 136.23945,381.4382 136.23945,381.4382"/><path id="Fill-3" fill="#CE998A" d="M108.18465,326.45165 C108.18465,326.45165 111.31965,323.20865 112.22865,317.07815 C113.12865,310.99715 112.26315,293.90315 111.99615,292.91465 C111.09015,289.54565 107.52615,290.88515 107.56815,300.76115 C102.96465,295.18865 101.17515,290.19215 101.60865,285.33965 C102.04215,280.48715 96.34065,280.14515 93.70965,286.59365 C91.07715,293.04215 88.15665,297.71315 89.06415,304.49465 C90.36465,314.20415 94.11765,321.35315 97.52715,326.62265 C101.28315,332.42615 103.11165,330.72815 108.18465,326.45165"/><path id="Stroke-5" fill="#965C56" fill-rule="nonzero" d="M107.605203,300.199146 L107.695749,300.212574 C107.968124,300.2757 108.148028,300.526792 108.130154,300.797003 L108.116726,300.887549 L107.092226,305.308049 C107.075139,305.381775 107.043351,305.451294 106.998765,305.512445 L106.806722,305.784024 C106.651048,306.007875 106.477267,306.264868 106.289926,306.550851 C105.754169,307.368698 105.218291,308.253185 104.718733,309.170648 C104.060592,310.379357 103.516799,311.552546 103.126479,312.651795 C102.31307,314.942586 102.232722,316.725453 102.994763,317.80833 C103.173548,318.062389 103.112528,318.413278 102.85847,318.592063 C102.604411,318.770848 102.253522,318.709828 102.074737,318.45577 C101.047029,316.995373 101.14249,314.877147 102.066328,312.275359 C102.47846,311.114678 103.046307,309.889597 103.730704,308.632667 C104.245941,307.686409 104.797343,306.776299 105.348867,305.934381 L105.627897,305.514505 L106.022,304.943 L107.020774,300.633551 C107.076886,300.39144 107.281514,300.222392 107.516072,300.200369 L107.605203,300.199146 Z"/><path id="Stroke-7" fill="#965C56" fill-rule="nonzero" d="M91.0052894,292.713093 C92.3752774,292.245171 93.2319105,293.091884 93.6126327,294.556848 C93.7089512,294.927467 93.7706258,295.318521 93.8055811,295.708649 C93.826551,295.942688 93.8340979,296.127 93.8285906,296.322903 L93.8065935,296.519643 C93.8036677,296.551184 93.8006493,296.58587 93.797606,296.62362 C93.6194429,298.833674 94.0087317,301.491503 95.4318334,304.025712 C95.7696245,304.627238 96.1597422,305.203578 96.6051332,305.751654 C96.8010542,305.992744 96.7644371,306.347012 96.5233464,306.542933 C96.2822558,306.738854 95.9279879,306.702237 95.7320668,306.461146 C95.2457901,305.862759 94.8197161,305.233299 94.4509158,304.576553 C92.9696194,301.938713 92.5203663,299.196508 92.6543941,296.850613 L92.6762439,296.533222 C92.6904522,296.356972 92.7050568,296.23051 92.7096056,296.243407 L92.701336,296.024807 C92.6975309,295.961424 92.692231,295.88897 92.6850699,295.809047 C92.6552377,295.476097 92.6028729,295.144072 92.5238019,294.839819 C92.299926,293.978376 91.9845009,293.626594 91.4737054,293.747281 L91.3689106,293.777707 C91.0749253,293.878119 90.7552038,293.721196 90.6547926,293.427211 C90.5543814,293.133225 90.7113042,292.813504 91.0052894,292.713093 Z"/><path id="Stroke-9" fill="#965C56" fill-rule="nonzero" d="M92.6791632,288.664492 C93.5214573,287.877074 94.3474716,287.679801 95.0504583,288.119471 C95.5605855,288.43852 95.9046702,289.032856 96.153889,289.825466 C96.2686071,290.190312 96.3552366,290.576224 96.4186081,290.961428 C96.4566477,291.192653 96.4787778,291.374521 96.4902243,291.508458 C96.6359399,294.726844 97.1518633,297.229439 97.9156462,299.104438 C98.229087,299.873899 98.5613385,300.478931 98.8890721,300.937241 C99.0754256,301.197842 99.2106909,301.34617 99.2720514,301.399566 C99.5064048,301.603497 99.5310663,301.958798 99.3271344,302.193151 C99.1232025,302.427505 98.7679021,302.452166 98.5335486,302.248234 C98.0900477,301.862305 97.4725539,300.998788 96.8737718,299.528847 C96.0595947,297.530135 95.5176973,294.901549 95.3680423,291.584075 L95.3416741,291.362147 C95.3327958,291.298007 95.3218107,291.22478 95.3085298,291.144052 C95.2531649,290.807515 95.1777783,290.471687 95.0806899,290.16291 C94.904935,289.603943 94.6793387,289.214272 94.453914,289.073284 C94.2462291,288.943392 93.9533738,289.013333 93.4474368,289.486308 C93.2204988,289.698461 92.8645452,289.686475 92.6523923,289.459537 C92.4402394,289.232599 92.4522251,288.876645 92.6791632,288.664492 Z"/><path id="Stroke-11" fill="#965C56" fill-rule="nonzero" d="M95.9982846,283.329792 C98.2394138,283.035378 98.8457509,284.267156 99.2120295,288.032472 L99.3976927,289.998574 C99.5001348,291.013454 99.5738207,291.525765 99.7179029,292.316971 C99.9769201,293.735658 100.334771,295.025329 100.766052,296.185371 C101.091329,297.060288 101.438721,297.810092 101.784547,298.434004 L101.946586,298.717734 C102.070697,298.928117 102.16635,299.07331 102.224881,299.152987 C102.408799,299.403355 102.35493,299.755413 102.104563,299.939331 C101.854195,300.123249 101.502137,300.06938 101.318219,299.819013 C101.208569,299.669746 101.027986,299.389647 100.800591,298.979398 C100.427945,298.3071 100.056866,297.506172 99.7115692,296.577407 C99.3144022,295.509123 98.977291,294.339581 98.7176379,293.069333 L98.6111511,292.518776 C98.4237093,291.489468 98.3513416,290.919129 98.1948574,289.24699 L98.1180894,288.414888 C97.8116075,285.060728 97.4597398,284.272468 96.1448154,284.445208 C95.8368016,284.485672 95.5543051,284.268779 95.5138418,283.960765 C95.4733785,283.652752 95.6902709,283.370255 95.9982846,283.329792 Z"/><path id="Fill-13" fill="#ADC6FF" d="M158.4984,387.43595 C158.4984,387.43595 167.7444,406.90295 151.7289,415.16045 C135.2124,423.67745 125.4774,405.41345 125.4774,405.41345 C125.4774,405.41345 118.9449,392.39195 110.8239,376.37945 C105.8649,366.60245 100.6074,355.69895 97.9239,347.23445 C95.0184,338.07095 99.2799,334.81445 107.2884,330.68495 C116.7984,325.78145 121.2279,324.72245 126.7674,332.52095 C132.0489,339.95645 137.8059,350.81045 142.6479,359.01995 C151.8804,374.67245 158.4984,387.43595 158.4984,387.43595"/><polygon id="Fill-15" fill="#ADC6FF" points="95.017 329.093 113.535 319.544 121.321 331.37 100.135 342.293"/><path id="Fill-17" fill="#7D4556" d="M215.56575,310.4783 C215.56575,310.4783 204.59025,305.1893 207.59025,293.5193 C202.38225,283.8863 207.68775,277.5098 207.68775,277.5098 C207.68775,277.5098 207.23925,264.5408 215.78475,263.3783 C220.51725,249.8153 235.89075,254.2613 235.89075,254.2613 C235.89075,254.2613 245.15475,245.8793 259.53075,255.9923 C269.66025,255.8438 269.44425,250.8218 272.87025,254.1488 C276.29625,257.4758 278.16375,265.5758 273.99225,269.0138 C281.63175,271.8563 275.41875,284.0843 275.41875,284.0843 C275.41875,284.0843 278.21325,290.8403 269.85225,296.4503 C261.49125,302.0603 259.03575,318.5798 244.96275,324.4493 C231.42225,330.0968 216.57675,326.4218 215.56575,310.4783"/><path id="Fill-19" fill="#CE998A" d="M223.75215,334.46435 L224.22465,312.03785 L254.01465,314.26535 L255.25965,333.78335 C255.81615,342.49685 249.07815,349.95485 240.35265,350.28185 C240.18615,350.28935 240.01965,350.29535 239.85315,350.30135 C230.92965,350.64035 223.56465,343.39235 223.75215,334.46435"/><path id="Fill-21" fill="#CE998A" d="M228.7077,277.59035 C228.7077,277.59035 231.0912,285.34085 225.1587,287.76185 C227.0577,297.85385 222.5742,297.33635 222.5742,297.33635 C222.5742,297.33635 214.7577,288.90335 210.5712,297.18785 C206.5932,305.05835 215.4912,315.42035 222.7392,313.09685 C236.7012,331.77185 261.4002,330.69635 268.4682,317.09885 C272.7627,308.83835 270.0012,297.57635 270.1782,292.16435 C270.6177,278.85935 267.8532,275.07185 267.8532,275.07185 C267.8532,275.07185 262.9032,276.56585 257.0517,272.89385 C251.5032,277.77185 242.6697,274.14335 242.6697,274.14335 C242.6697,274.14335 237.5922,281.87135 228.7077,277.59035"/><path id="Stroke-23" fill="#965C56" fill-rule="nonzero" d="M214.398757,300.811692 C214.358942,301.07955 214.129896,301.286795 213.85033,301.290744 C213.570763,301.294692 213.335956,301.093998 213.288592,300.827371 L213.27989,300.736244 C213.277349,300.375326 213.371707,299.901251 213.661762,299.423249 C214.23434,298.479654 215.337405,297.995206 216.989486,298.177182 C220.115171,298.521473 222.772311,302.99791 221.016328,304.205148 C220.149239,304.801975 219.52209,305.580945 219.38889,306.28204 C219.238625,307.072955 219.701675,307.815011 221.031186,308.493821 C221.307869,308.635087 221.417646,308.973902 221.276379,309.250586 C221.135113,309.527269 220.796298,309.637046 220.519614,309.495779 C218.779994,308.607579 218.03022,307.406036 218.28366,306.07206 C218.481229,305.032159 219.289892,304.027734 220.378728,303.278276 C220.38931,303.271001 220.426275,303.112291 220.384717,302.814184 C220.327845,302.406223 220.139136,301.901809 219.849384,301.413669 C219.156926,300.247096 218.080279,299.429136 216.866314,299.295418 C215.631321,299.159385 214.958485,299.454883 214.623542,300.006862 C214.482829,300.238752 214.421805,300.477484 214.407989,300.645677 L214.398757,300.811692 Z"/><path id="Stroke-25" fill="#965C56" fill-rule="nonzero" d="M218.97347,302.123031 L219.305229,302.13364 L219.472794,302.144803 C219.782183,302.172883 220.010228,302.446456 219.982147,302.755844 C219.956875,303.034294 219.732754,303.246856 219.462638,303.266113 L219.371106,303.265197 C219.351651,303.263432 219.309189,303.260351 219.247077,303.257137 C218.786706,303.233308 218.264196,303.251521 217.78178,303.341609 C216.863467,303.513097 216.442077,303.855931 216.504359,304.447615 C216.536881,304.756568 216.312788,305.033388 216.003835,305.065909 C215.694882,305.098431 215.418062,304.874338 215.385541,304.565385 C215.245996,303.239708 216.153739,302.501185 217.575264,302.235726 C218.042336,302.148504 218.522786,302.117569 218.97347,302.123031 Z"/><path id="Fill-27" fill="#FFF" d="M249.9765,294.06035 C250.056,299.47985 245.727,303.93785 240.3075,304.01735 C234.8865,304.09535 230.43,299.76635 230.3505,294.34685 C230.271,288.92735 234.6,284.46935 240.0195,284.39135 C245.439,284.31185 249.897,288.64085 249.9765,294.06035"/><path id="Stroke-29" fill="#7D4556" fill-rule="nonzero" d="M240.009357,283.699924 C234.208327,283.783416 229.573968,288.555335 229.659074,294.356993 C229.744179,300.15855 234.514928,304.792268 240.317449,304.708778 C246.118989,304.623674 250.753028,299.851588 250.667926,294.050207 C250.582824,288.248861 245.810738,283.614822 240.009357,283.699924 Z M240.029451,285.082778 C245.0673,285.008877 249.211176,289.032878 249.285074,294.070493 C249.358973,299.10815 245.334972,303.252026 240.297357,303.325924 C235.258584,303.398425 231.115829,299.374662 231.041926,294.336707 C230.968024,289.298869 234.992168,285.155277 240.029451,285.082778 Z"/><path id="Fill-31" fill="#FFF" d="M273.7626,292.79315 C273.8421,298.21265 269.5131,302.67065 264.0936,302.75015 C258.6741,302.82965 254.2161,298.50065 254.1366,293.07965 C254.0571,287.66165 258.3876,283.20365 263.8056,283.12415 C269.2266,283.04465 273.6831,287.37365 273.7626,292.79315"/><path id="Stroke-33" fill="#7D4556" fill-rule="nonzero" d="M263.79546,282.432724 C257.995345,282.517831 253.360075,287.290178 253.445174,293.089796 C253.530271,298.892386 258.302109,303.526681 264.103743,303.441576 C269.905089,303.356474 274.539128,298.584388 274.454026,292.783007 C274.368917,286.981167 269.597845,282.347631 263.79546,282.432724 Z M263.815746,283.815576 C268.854373,283.741683 272.997269,287.765151 273.071174,292.803293 C273.145073,297.84095 269.121072,301.984826 264.083457,302.058724 C259.045581,302.132626 254.901922,298.108404 254.828026,293.06951 C254.754133,288.033678 258.7793,283.889477 263.815746,283.815576 Z"/><path id="Stroke-35" fill="#965C56" fill-rule="nonzero" d="M252.216008,292.222233 C252.469433,292.042552 252.820535,292.102333 253.000217,292.355758 L253.191984,292.632389 C253.342437,292.852231 253.509861,293.102105 253.690039,293.377582 C254.204655,294.164392 254.719258,294.99997 255.200224,295.849332 C255.603236,296.56103 255.964927,297.251884 256.275058,297.911675 C257.438387,300.386602 257.818645,302.228153 257.045053,303.325259 C256.307477,304.371246 255.250997,305.007248 253.978038,305.296508 C252.886521,305.544538 251.738508,305.522347 250.650161,305.338172 L250.366166,305.285947 C250.195042,305.251757 250.061327,305.219639 249.971007,305.194497 C249.671725,305.111189 249.496644,304.801039 249.579953,304.501757 C249.663261,304.202475 249.973411,304.027394 250.272693,304.110703 L250.491495,304.163111 C250.586589,304.183492 250.702946,304.20611 250.83787,304.228943 C251.793389,304.390639 252.80171,304.41013 253.728754,304.199474 C254.746679,303.968167 255.560687,303.478134 256.125641,302.67695 C256.567393,302.050457 256.246174,300.494826 255.256925,298.390244 C254.959781,297.758086 254.611058,297.092001 254.221281,296.403675 C253.870171,295.783631 253.499847,295.16984 253.124725,294.577712 L252.619175,293.796673 L252.082483,293.006442 C251.902802,292.753017 251.962583,292.401915 252.216008,292.222233 Z"/><path id="Fill-37" fill="#FFF" d="M243.43005,308.38355 C243.43005,308.38355 252.52455,309.28955 258.99555,308.15555 C258.99555,308.15555 257.27355,314.66855 250.77705,313.98455 C245.00805,313.37855 243.43005,308.38355 243.43005,308.38355"/><path id="Stroke-39" fill="#965C56" fill-rule="nonzero" d="M258.893536,307.573421 C257.551592,307.808588 256.027368,307.966091 254.35545,308.053309 C251.572835,308.198469 248.588066,308.144071 245.706283,307.965063 L245.013769,307.919292 C244.792047,307.903727 244.579668,307.88791 244.377317,307.872012 L243.488636,307.795461 C243.066338,307.753391 242.73866,308.156909 242.866503,308.561583 C242.931934,308.768699 243.068279,309.108859 243.289011,309.538266 C243.65264,310.245662 244.127597,310.951878 244.728375,311.611868 C246.202831,313.231643 248.181941,314.306201 250.715309,314.572316 C253.899874,314.907611 256.2998,313.679478 257.974922,311.450252 C258.488825,310.766358 258.895129,310.036408 259.206755,309.306162 C259.395109,308.864786 259.511417,308.516528 259.566917,308.306616 C259.677134,307.889748 259.318256,307.498992 258.893536,307.573421 Z M258.096,308.894 L258.119607,308.842231 C257.843197,309.489954 257.482496,310.137974 257.029974,310.740184 C255.589805,312.656738 253.579728,313.68537 250.838933,313.396799 C248.606704,313.162316 246.889284,312.229843 245.602464,310.816197 L245.348279,310.523706 C245.021363,310.129562 244.742186,309.719866 244.507745,309.307479 L244.372,309.057 L245.274991,309.121835 C245.392095,309.129581 245.51146,309.137239 245.633001,309.144789 C248.556043,309.32636 251.58327,309.381532 254.417027,309.233704 C255.489875,309.177737 256.505696,309.093354 257.456881,308.978322 L258.096,308.894 Z"/><path id="Stroke-41" fill="#7D4556" fill-rule="nonzero" d="M255.819673,280.901826 C255.95425,280.604461 256.304409,280.472495 256.601774,280.607073 C259.543855,281.938561 263.178735,282.233546 266.867149,281.161486 C267.180578,281.070386 267.508514,281.250619 267.599614,281.564049 C267.690714,281.877478 267.510481,282.205414 267.197051,282.296514 C263.233901,283.448428 259.309594,283.129955 256.114426,281.683927 C255.817061,281.54935 255.685095,281.199191 255.819673,280.901826 Z"/><path id="Stroke-43" fill="#7D4556" fill-rule="nonzero" d="M252.253834,290.048022 L252.747817,290.059284 C253.37975,290.086662 253.964108,290.164683 254.49274,290.301299 L254.803168,290.390364 L254.385332,291.708736 C253.905806,291.556758 253.333115,291.468939 252.687955,291.440988 C251.811246,291.403005 250.859837,291.475741 249.918772,291.620795 L249.390646,291.709959 C249.237505,291.738288 249.108544,291.764579 249.007597,291.786895 L248.916129,291.807814 L248.596371,290.462286 L248.907911,290.395371 C249.148064,290.34703 249.416718,290.298848 249.708088,290.253937 C250.560965,290.122476 251.423522,290.04549 252.253834,290.048022 Z"/><path id="Stroke-45" fill="#7D4556" fill-rule="nonzero" d="M263.910058,290.582822 C265.581442,290.558669 266.705491,291.413824 267.311226,292.788452 C267.651874,293.561501 267.770275,294.31795 267.778052,294.850754 C267.783498,295.232619 267.478411,295.546657 267.096546,295.552178 C266.746503,295.557238 266.453454,295.301302 266.402791,294.964477 L266.387659,294.735063 C266.380568,294.649228 266.367934,294.537821 266.347493,294.407228 C266.290357,294.042194 266.192072,293.678415 266.045651,293.346133 C265.648799,292.445535 264.997774,291.950248 263.930047,291.965678 C262.846866,291.981338 262.1546,292.465932 261.712609,293.306578 C261.547434,293.620732 261.430701,293.96372 261.356189,294.307533 C261.329666,294.429914 261.311979,294.533982 261.301078,294.613656 L261.287716,294.738675 C261.26401,295.119843 260.935794,295.409623 260.554625,295.385916 C260.173457,295.36221 259.883677,295.033994 259.907384,294.652825 C259.93951,294.136272 260.097741,293.406164 260.488495,292.662968 C261.153047,291.399022 262.285474,290.60631 263.910058,290.582822 Z"/><path id="Stroke-47" fill="#7D4556" fill-rule="nonzero" d="M240.301858,290.927822 C241.973242,290.903669 243.097291,291.758824 243.703026,293.133452 C244.043674,293.906501 244.162075,294.66295 244.169852,295.195754 C244.175298,295.577619 243.870211,295.891657 243.488346,295.897178 C243.106481,295.902698 242.792443,295.597611 242.786922,295.215746 L242.779459,295.080063 C242.772368,294.994228 242.759734,294.882821 242.739293,294.752228 C242.682157,294.387194 242.583872,294.023415 242.437451,293.691133 C242.040599,292.790535 241.389574,292.295248 240.32218,292.310673 C239.239113,292.326854 238.546767,292.811685 238.104688,293.652355 C237.939401,293.966671 237.82259,294.309829 237.748031,294.653813 C237.721492,294.776255 237.703794,294.880375 237.692886,294.960089 L237.679516,295.085175 C237.65581,295.466343 237.327594,295.756123 236.946425,295.732416 C236.565257,295.70871 236.275477,295.380494 236.299184,294.999325 C236.331323,294.482566 236.489641,293.752154 236.880619,293.00866 C237.54517,291.744931 238.677354,290.952092 240.301858,290.927822 Z"/><g id="分组" transform="translate(220.500000, 293.256500)"><line id="Fill-49" x1="9.851" x2=".151" y1="1.091" y2="1.233" fill="#FFF"/><line id="Stroke-51" x1="9.851" x2=".151" y1="1.091" y2="1.233" stroke="#7D4556" stroke-width="1.383"/></g><path id="Stroke-52" fill="#7D4556" fill-rule="nonzero" d="M245.20353,280.463873 C245.492334,280.311791 245.849744,280.422626 246.001827,280.71143 C246.153909,281.000234 246.043074,281.357644 245.75427,281.509727 C244.545497,282.146259 243.101032,282.636071 241.469561,282.998613 C239.910326,283.345102 238.248131,283.561423 236.566685,283.673279 L235.847443,283.714823 C235.268549,283.743105 234.742787,283.756102 234.284766,283.758014 L233.636882,283.75254 C233.310625,283.742865 233.053985,283.470539 233.06366,283.144282 C233.072367,282.850651 233.293822,282.613409 233.575867,282.57595 L233.709278,282.571942 L234.282715,282.576011 C234.899713,282.573369 235.648503,282.549747 236.488227,282.493885 C238.113896,282.38574 239.71831,282.176939 241.213154,281.844758 C242.74958,281.503337 244.097704,281.046195 245.20353,280.463873 Z"/><path id="Stroke-54" fill="#965C56" fill-rule="nonzero" d="M250.908565,320.10241 C251.21875,320.085242 251.484123,320.322779 251.50129,320.632965 L251.510586,320.864623 C251.538723,321.765531 251.510321,322.789612 251.380752,323.769478 C251.174484,325.329388 250.757543,326.451577 249.981899,326.985021 C249.725931,327.161061 249.375719,327.096267 249.199679,326.840299 C249.043199,326.612772 249.077008,326.310781 249.266227,326.122842 L249.344401,326.058079 C249.771306,325.764478 250.098665,324.883398 250.26546,323.622002 C250.385684,322.712807 250.412529,321.74487 250.386134,320.899741 L250.37801,320.695135 C250.360842,320.38495 250.598379,320.119577 250.908565,320.10241 Z"/><path id="Stroke-56" fill="#965C56" fill-rule="nonzero" d="M253.054874,321.824387 C253.364243,321.796096 253.637971,322.023954 253.666263,322.333324 L253.695359,322.727284 L253.703659,322.8668 C253.744854,323.594158 253.755569,324.350719 253.716797,325.063177 C253.685063,325.646326 253.621347,326.163807 253.518785,326.601799 C253.447955,326.904277 253.145329,327.092064 252.842851,327.021235 C252.540373,326.950405 252.352586,326.647779 252.423415,326.345301 C252.508951,325.980021 252.56502,325.524649 252.593459,325.002046 C252.629652,324.336969 252.619493,323.619616 252.580459,322.930414 L252.565077,322.682951 C252.557695,322.574835 252.550993,322.491063 252.545937,322.435776 C252.517646,322.126407 252.745504,321.852679 253.054874,321.824387 Z"/><path id="Stroke-58" fill="#965C56" fill-rule="nonzero" d="M248.556716,322.678684 C248.861421,322.739224 249.059355,323.035312 248.998816,323.340016 L248.934258,323.632957 C248.914904,323.71499 248.892225,323.807469 248.866249,323.908705 C248.75806,324.330347 248.63019,324.752478 248.482184,325.149912 C248.141447,326.064878 247.75164,326.720003 247.236186,327.039857 C246.972218,327.203657 246.625443,327.122454 246.461643,326.858486 C246.316043,326.623848 246.364025,326.323782 246.561879,326.144955 L246.643014,326.083943 C246.88073,325.936433 247.169597,325.450952 247.427916,324.757298 C247.560667,324.40083 247.677477,324.015209 247.776549,323.629099 L247.862241,323.275426 C247.876516,323.212181 247.887583,323.160047 247.895384,323.120784 C247.94987,322.84655 248.19515,322.658799 248.465791,322.668125 L248.556716,322.678684 Z"/><path id="Stroke-60" fill="#965C56" fill-rule="nonzero" d="M254.711665,321.229497 C254.98286,321.161482 255.257465,321.30292 255.364766,321.551556 L255.394103,321.638265 L256.220603,324.933765 C256.296175,325.235093 256.113163,325.540631 255.811835,325.616203 C255.54064,325.684218 255.266035,325.54278 255.158734,325.294144 L255.129397,325.207435 L254.302897,321.911935 C254.227325,321.610607 254.410337,321.305069 254.711665,321.229497 Z"/><path id="Stroke-62" fill="#965C56" fill-rule="nonzero" d="M234.718012,323.164595 C234.861305,322.888956 235.200917,322.781668 235.476555,322.924962 C235.728771,323.056078 235.982736,323.183029 236.238409,323.305857 C242.132224,326.137312 248.38656,326.648508 253.985718,325.824643 C254.381044,325.766474 254.740654,325.705084 255.061788,325.643175 L255.528572,325.547129 C255.62757,325.525278 255.699915,325.508075 255.744443,325.496663 C256.045376,325.419532 256.351857,325.60096 256.428987,325.901893 C256.506118,326.202826 256.32469,326.509307 256.023757,326.586437 L255.657963,326.670189 L255.521822,326.698663 C255.124291,326.78035 254.665081,326.861794 254.149488,326.937659 C248.347357,327.791389 241.876371,327.262486 235.751247,324.319907 C235.484937,324.191969 235.220387,324.059727 234.957645,323.923138 C234.682006,323.779845 234.574718,323.440233 234.718012,323.164595 Z"/><path id="Stroke-64" fill="#965C56" fill-rule="nonzero" d="M244.457452,303.952444 C244.745058,303.835002 245.073414,303.972947 245.190856,304.260552 C245.308298,304.548158 245.170353,304.876514 244.882748,304.993956 L244.512964,305.156353 C244.394627,305.210837 244.25831,305.275498 244.107243,305.349797 C243.51862,305.639302 242.930272,305.967967 242.384002,306.327856 C240.675102,307.4537 239.812052,308.593108 240.097111,309.582464 C240.183122,309.88098 240.010852,310.192701 239.712336,310.278711 C239.41382,310.364722 239.102099,310.192452 239.016089,309.893936 C238.545288,308.259932 239.67968,306.762295 241.765082,305.388408 C242.354369,305.000179 242.982689,304.649184 243.610734,304.340291 L243.825151,304.236519 L244.218728,304.055282 C244.330541,304.005624 244.411789,303.97109 244.457452,303.952444 Z"/><path id="Fill-66" fill="#CE998A" d="M348.57585,573.66605 L348.57585,573.66605 C350.22435,579.76355 356.62935,583.24355 362.64135,581.30555 C374.35635,577.52855 391.92885,572.16155 397.32585,572.10005 C407.17785,571.98905 435.64635,590.88755 439.34535,583.66955 C443.04585,576.45005 420.88035,552.07505 408.82335,550.52855 C403.48935,549.84305 392.08935,553.56455 379.20435,556.10705 C371.66085,557.59655 363.81735,558.88805 357.57735,559.84655 C351.05385,560.84855 346.85235,567.29405 348.57585,573.66605"/><g id="分组" transform="translate(399.000000, 549.756500)"><mask id="mask-2" fill="#fff"><use xlink:href="#path-1"/></mask><path id="Fill-68" fill="#7D4556" d="M20.37615,17.30085 L0.90465,1.46685 C0.90465,1.46685 9.18465,-0.47415 15.19215,0.19335 C20.11365,2.08335 18.40365,2.92485 23.27565,6.82485 C28.14765,10.72335 35.35365,13.16835 42.55965,26.49435 C48.64215,37.74435 47.44965,42.69435 43.01715,45.19035 C40.39065,46.66785 34.10115,40.55835 27.29865,36.16635 C21.37965,32.34585 9.52515,27.09285 7.81215,26.03535 C6.04665,24.94785 9.25365,17.12835 10.78965,16.55535 C12.32565,15.98235 20.37615,17.30085 20.37615,17.30085" mask="url(#mask-2)"/></g><path id="Fill-70" fill="#1D39C4" d="M273.70035,569.7842 L385.97535,550.8407 L390.73935,576.0362 C390.73935,576.0362 333.51135,591.5507 281.30985,605.6372 C281.30985,605.6372 261.63135,610.8077 257.65335,592.0667 C253.67535,573.3242 273.70035,569.7842 273.70035,569.7842"/><path id="Fill-72" fill="#1D39C4" d="M258.78675,594.13055 C239.40075,549.76955 220.16625,505.65755 216.84075,493.36655 C216.84075,493.36655 211.78425,473.13905 229.93125,466.20155 C248.07825,459.26555 261.93975,485.43455 261.93975,485.43455 L293.89725,580.71005 C293.89725,580.71005 299.19825,598.12655 281.84025,604.76105 C264.48225,611.39555 258.78675,594.13055 258.78675,594.13055"/><path id="Fill-74" fill="#597EF7" d="M275.0949,515.1719 C282.2124,497.8034 277.2894,477.4289 274.5084,472.6349 C213.4179,473.6234 198.2139,472.6319 198.2139,472.6319 C198.2139,472.6319 198.6939,485.5649 195.3159,511.3274 C195.3159,511.3274 212.2194,545.2934 235.0959,537.2009 C274.8129,523.1519 275.0949,515.1719 275.0949,515.1719"/><path id="Fill-76" fill="#597EF7" d="M275.34825,472.72295 L274.33575,461.21645 L199.54425,461.18795 L199.05375,472.69295 C199.05375,472.69295 238.61175,474.70745 275.34825,472.72295"/><path id="Fill-78" fill="#ADC6FF" d="M272.4288,381.0983 C272.4288,381.0983 253.2453,372.5573 261.3663,355.1168 C269.6478,337.3328 288.7203,346.7333 288.7203,346.7333 C288.7203,346.7333 302.1918,352.4873 318.2718,359.9738 C330.8358,365.8253 340.5003,370.2668 348.1848,374.7758 C356.4753,379.6418 360.3753,389.6153 356.5728,397.7828 C350.7918,410.1968 340.8768,411.8168 332.0313,408.1778 C323.4303,404.6378 311.9703,399.5048 302.5773,395.3933 C284.5143,387.4883 272.4288,381.0983 272.4288,381.0983"/><path id="Fill-80" fill="#CE998A" d="M379.506,493.1003 C379.506,493.1003 377.826,474.9188 369.7725,471.9593 C362.4795,469.2803 357.7995,478.1243 357.7995,478.1243 C357.7995,478.1243 354.9285,485.4533 353.9835,494.1848 C353.364,499.9073 350.5665,510.6098 353.409,511.7138 C357.117,513.1523 358.1925,501.7433 360.9615,500.9003 C366.57,499.1918 366.768,517.3193 368.3775,520.2428 C371.523,525.9533 381.687,514.8938 379.506,493.1003"/><path id="Stroke-82" fill="#965C56" fill-rule="nonzero" d="M369.419112,501.985852 C369.711297,501.880317 370.033713,502.031627 370.139248,502.323812 L370.235421,502.603961 L370.353152,502.966179 C370.394293,503.095853 370.437246,503.23436 370.481748,503.3814 C370.735257,504.21901 370.988473,505.164124 371.22469,506.197575 C372.229997,510.595794 372.620468,515.110782 372.036315,519.342318 L371.975097,519.760837 C371.927635,520.06785 371.640276,520.278258 371.333263,520.230797 C371.02625,520.183335 370.815842,519.895976 370.863303,519.588963 L370.921884,519.188474 C371.484793,515.110826 371.105478,510.724832 370.127974,506.448253 C369.936128,505.608925 369.73295,504.830028 369.528052,504.122879 L369.301297,503.370657 C369.204406,503.06188 369.128684,502.837584 369.081152,502.705988 C368.975617,502.413803 369.126927,502.091387 369.419112,501.985852 Z"/><path id="Stroke-84" fill="#965C56" fill-rule="nonzero" d="M373.832146,499.297666 C374.133381,499.221724 374.439143,499.40436 374.515084,499.705596 C376.109523,506.030202 376.3972,511.544719 375.932357,515.88426 L375.86813,516.428961 C375.846188,516.598251 375.823836,516.755185 375.801436,516.899524 L375.739217,517.263461 C375.678267,517.568083 375.381911,517.765618 375.077289,517.704667 C374.772667,517.643717 374.575132,517.347361 374.636083,517.042739 L374.689743,516.727001 C374.731853,516.455657 374.774152,516.134163 374.813756,515.764438 C375.265085,511.551057 374.984319,506.169015 373.424216,499.980604 C373.348274,499.679369 373.53091,499.373607 373.832146,499.297666 Z"/><path id="Stroke-86" fill="#965C56" fill-rule="nonzero" d="M376.971355,495.676476 C377.266896,495.58074 377.584088,495.742714 377.679824,496.038255 L377.727244,496.193612 C377.763648,496.318452 377.809304,496.485803 377.862228,496.695516 L377.903252,496.860741 C378.065775,497.525665 378.227777,498.318609 378.378629,499.23876 C378.828683,501.983949 379.08876,505.269126 379.063187,509.086868 C379.061107,509.397521 378.807585,509.647668 378.496932,509.6456 C378.186279,509.643507 377.936132,509.389985 377.938213,509.079332 C377.963357,505.325496 377.708298,502.103709 377.26845,499.420766 C377.143187,498.656699 377.01053,497.985829 376.877145,497.40864 L376.810423,497.127854 C376.718258,496.750783 376.647782,496.502888 376.609576,496.384945 C376.51384,496.089404 376.675814,495.772212 376.971355,495.676476 Z"/><path id="Fill-88" fill="#ADC6FF" d="M325.0965,400.73675 C325.0965,400.73675 320.514,379.67825 337.9875,375.27425 C356.007,370.73225 361.338,390.73025 361.338,390.73025 C361.338,390.73025 364.743,404.89475 369.0135,422.33225 C371.622,432.98075 374.265,444.79475 374.9565,453.64625 C375.7035,463.23125 370.8135,465.43475 362.076,467.63675 C351.702,470.25125 347.148,470.27675 343.524,461.42375 C340.0695,452.98475 336.9285,441.10625 334.077,432.01025 C328.6425,414.67025 325.0965,400.73675 325.0965,400.73675"/><polygon id="Fill-90" fill="#ADC6FF" points="375.984 475.888 355.78 480.981 350.886 467.697 373.998 461.871"/><path id="Fill-92" fill="#ADC6FF" d="M260.3124,341.6567 L258.4839,336.1652 L221.5989,336.7142 L220.0539,341.8742 C220.0539,341.8742 192.4404,343.3022 187.8804,354.3092 C183.1779,365.6612 195.9609,426.0962 196.0479,440.0117 C189.5679,456.5492 198.6234,461.7272 198.6234,461.7272 L273.4149,461.7572 C273.4149,461.7572 282.0459,456.1922 274.8594,444.6827 C278.1144,424.2962 299.1069,358.1732 290.5029,350.9507 C277.4139,339.9647 260.3124,341.6567 260.3124,341.6567"/><path id="Stroke-94" fill="#597EF7" fill-rule="nonzero" d="M190.202566,369.829763 C190.518825,369.860009 190.750684,370.140907 190.720437,370.457166 C190.253818,375.336152 190.393003,381.961682 191.028279,389.891057 C191.391619,394.426183 191.905996,399.243868 192.532545,404.194311 L192.841664,406.579187 C193.207111,409.334132 193.587923,411.987514 193.968718,414.48025 L194.379681,417.104355 L194.620876,418.572772 C194.674243,418.885959 194.463616,419.18311 194.150428,419.236476 C193.837241,419.289843 193.54009,419.079216 193.486724,418.766028 L193.306209,417.673326 C193.183392,416.916899 193.048569,416.065572 192.904314,415.129209 L192.831412,414.653987 C192.340402,411.439769 191.849421,407.959627 191.39115,404.33877 C190.762525,399.371925 190.246321,394.537118 189.881454,389.982937 L189.763817,388.452758 C189.225699,381.136796 189.13143,374.987318 189.575163,370.347634 C189.602385,370.063001 189.832634,369.846732 190.108965,369.828374 L190.202566,369.829763 Z"/><path id="Stroke-96" fill="#597EF7" fill-rule="nonzero" d="M257.465923,342.32346 C257.783288,342.308837 258.052417,342.554257 258.06704,342.871623 C258.081663,343.188988 257.836243,343.458117 257.518877,343.47274 L255.844231,343.546216 C253.567257,343.641337 251.115708,343.725123 248.512082,343.798211 L247.528638,343.825119 C242.513726,343.958829 237.178174,344.049294 231.798828,344.104242 L226.928434,344.144266 L222.104088,344.163133 L221.592566,344.16335 C221.274864,344.163165 221.01765,343.905468 221.01765,343.587766 C221.01765,343.301834 221.226568,343.064748 221.499921,343.020325 L221.593234,343.01285 L224.091731,343.007687 C225.664453,343.002037 227.379585,342.992254 229.205281,342.977451 L233.576022,342.934184 C238.340788,342.878303 243.046392,342.793718 247.497973,342.675027 L250.399493,342.591456 C252.920462,342.513144 255.283504,342.424018 257.465923,342.32346 Z"/><path id="Stroke-98" fill="#597EF7" fill-rule="nonzero" d="M253.777362,441.145358 C254.075288,441.035018 254.406252,441.187087 254.516592,441.485012 C254.626932,441.782938 254.474863,442.113902 254.176938,442.224242 C250.411846,443.618682 244.68257,444.551214 237.499507,445.104118 C231.112656,445.595735 224.42686,445.738864 218.55626,445.679112 L216.233996,445.64235 C215.916404,445.633981 215.66573,445.369737 215.673896,445.052146 C215.682469,444.734554 215.946713,444.48388 216.264304,444.49225 L217.482219,444.51519 C223.574763,444.604547 230.666235,444.476195 237.41121,443.957012 L238.722475,443.850382 C245.192935,443.295239 250.365154,442.409105 253.777362,441.145358 Z"/><path id="Stroke-100" fill="#597EF7" fill-rule="nonzero" d="M286.221158,351.697004 C286.43975,351.466457 286.803849,351.456766 287.034396,351.675358 C287.264943,351.89395 287.274634,352.258049 287.056042,352.488596 C284.135603,355.568755 282.126929,359.218183 280.922784,363.324361 C279.186944,369.243636 279.216619,375.579448 280.311761,381.533269 C280.475875,382.425487 280.651545,383.228355 280.826929,383.928634 L280.985,384.534 L323.561012,403.923781 C323.82123,404.042285 323.950646,404.330449 323.877939,404.597674 L323.846119,404.685712 C323.727615,404.94593 323.439451,405.075346 323.172226,405.002639 L323.084188,404.970819 L280.268188,385.472319 C280.118175,385.404003 280.004676,385.274616 279.956484,385.116982 L279.90492,384.94121 C279.85517,384.766133 279.78905,384.520191 279.710898,384.208143 C279.529752,383.484856 279.348891,382.658265 279.180244,381.7414 C278.055316,375.625647 278.024836,369.118004 279.818776,363.000609 C281.072348,358.725884 283.169693,354.915355 286.221158,351.697004 Z"/><path id="Stroke-102" fill="#1D39C4" fill-rule="nonzero" d="M199.053526,472.11755 L275.348026,472.14755 C275.665728,472.147675 275.92305,472.405324 275.92305,472.723026 C275.92305,473.008958 275.71423,473.246083 275.440885,473.290558 L275.347574,473.29805 L199.053074,473.26805 C198.735372,473.267925 198.47805,473.010276 198.47805,472.692574 C198.47805,472.406642 198.68687,472.169517 198.960215,472.125042 L199.053526,472.11755 Z"/><path id="Stroke-104" fill="#1D39C4" fill-rule="nonzero" d="M198.623631,461.15255 L273.415131,461.18255 C273.732833,461.182677 273.99015,461.440329 273.99015,461.758031 C273.99015,462.043962 273.781326,462.281086 273.507981,462.325558 L273.414669,462.33305 L198.623169,462.30305 C198.305467,462.302923 198.04815,462.045271 198.04815,461.727569 C198.04815,461.441638 198.256974,461.204514 198.530319,461.160042 L198.623631,461.15255 Z"/><path id="Fill-106" fill="#CE998A" d="M127.6767,685.62185 L127.6767,685.62185 C121.2222,684.44585 115.0992,688.89935 114.2337,695.40185 C112.5447,708.07385 109.7337,726.94985 107.3802,732.03935 C103.0857,741.32885 72.6537,759.58835 77.7717,766.28135 C82.8897,772.97285 115.6452,763.06835 122.4792,752.45135 C125.5017,747.75635 127.1022,735.40385 130.4697,722.18435 C132.4407,714.44585 134.7297,706.51235 136.6167,700.23335 C138.5892,693.66785 134.4207,686.85035 127.6767,685.62185"/><g id="分组" transform="translate(66.000000, 738.756500)"><mask id="mask-4" fill="#fff"><use xlink:href="#path-3"/></mask><path id="Fill-108" fill="#7D4556" d="M36.26595,16.2132 L59.80845,5.0202 C59.80845,5.0202 57.93045,13.6527 54.62295,18.9897 C50.65395,22.7592 50.62845,20.7807 44.79645,23.6082 C38.96445,26.4372 33.45495,32.1042 17.74095,32.9112 C4.47495,33.5937 0.36345,30.2667 0.00345,24.9942 C-0.20955,21.8727 8.32695,18.7017 15.48345,14.2827 C21.70845,10.4367 31.92645,1.6647 33.68295,0.5307 C35.49195,-0.6378 41.39295,5.8602 41.24445,7.5567 C41.09595,9.2517 36.26595,16.2132 36.26595,16.2132" mask="url(#mask-4)"/></g><path id="Fill-110" fill="#597EF7" d="M168.26595,595.53095 L133.08045,721.58495 L107.95395,714.89045 C107.95395,714.89045 120.56295,647.92445 132.12195,586.87145 C132.12195,586.87145 136.60845,563.91995 155.50095,568.44695 C174.39345,572.97395 168.26595,595.53095 168.26595,595.53095"/><path id="Fill-112" fill="#597EF7" d="M138.4308,571.80125 C172.8213,535.12475 206.5188,497.89025 216.9603,489.76475 C216.9603,489.76475 234.8493,477.61325 249.6798,492.96875 C264.5088,508.32575 249.3603,530.60825 249.3603,530.60825 L167.1228,601.51175 C167.1228,601.51175 152.5893,613.61075 138.4053,598.92275 C124.2198,584.23475 138.4308,571.80125 138.4308,571.80125"/></g></svg>