<svg xmlns="http://www.w3.org/2000/svg" xmlns:xlink="http://www.w3.org/1999/xlink" width="512" height="1024" version="1.1" viewBox="0 0 512 1024"><title>2.人物组件/8.程序员/跪姿/介绍</title><desc>Created with Sketch.</desc><defs><polygon id="path-1" points=".72 .687 58.487 .687 58.487 54.21 .72 54.21"/></defs><g id="2.人物组件/8.程序员/跪姿/介绍" fill="none" fill-rule="evenodd" stroke="none" stroke-width="1"><path id="Fill-1" fill="#394676" d="M79.25465,774.8644 C79.25465,774.8644 51.94115,772.2049 44.58515,773.9074 C37.01915,779.7529 39.95765,785.5504 32.28665,793.4659 C24.61565,801.3829 11.64815,818.2519 22.90865,834.9724 C31.08815,837.4654 35.17865,832.4434 40.02815,826.2094 C60.01715,800.5099 62.99015,805.4299 73.87565,801.2344 C90.57815,794.7964 90.64715,775.4449 79.25465,774.8644"/><path id="Fill-3" fill="#FFC999" d="M234.1223,431.52115 L231.2993,392.62165 L196.2743,394.87165 L194.7188,432.12715 C194.2493,443.38015 203.2778,452.74315 214.5398,452.686409 C225.9623,452.62765 234.9488,442.91365 234.1223,431.52115"/><path id="Fill-5" fill="#BDC9E0" d="M240.3545,388.44805 C240.3545,388.44805 245.7035,382.89205 247.9655,386.62105 C250.2275,390.35005 246.3005,403.70155 240.4925,404.05705 C232.7375,404.53255 240.3545,388.44805 240.3545,388.44805"/><path id="Fill-7" fill="#FFC999" d="M206.62205,422.68885 C206.62205,422.68885 218.03255,432.00085 233.10905,422.72035 C243.96005,416.04235 245.25305,391.93885 243.12155,374.25385 C241.91705,364.24735 237.29105,358.87135 227.52605,355.92985 C217.75955,352.98835 191.29655,352.94635 191.19155,382.40335 C191.07605,415.21135 206.62205,422.68885 206.62205,422.68885"/><path id="Stroke-9" fill="#DD936F" fill-rule="nonzero" d="M226.198555,378.944887 C226.454257,379.009028 226.620704,379.246629 226.603857,379.500674 L226.588763,379.596405 L225.055,385.708 L228.40487,402.374429 C228.46519,402.674527 228.263805,402.957207 227.973731,403.008865 L227.88422,403.017218 L220.82672,403.093782 C220.530161,403.096933 220.287146,402.85913 220.283868,402.56257 C220.281038,402.295667 220.47337,402.072135 220.728057,402.027754 L220.81508,402.019782 L227.223,401.95 L223.97843,385.802571 C223.967943,385.750396 223.965298,385.6971 223.970455,385.644425 L223.984037,385.566095 L225.547037,379.335095 C225.611178,379.079393 225.848779,378.912946 226.102824,378.929793 L226.198555,378.944887 Z"/><path id="Stroke-11" fill="#FF7A46" fill-rule="nonzero" d="M215.008939,407.227805 C215.111468,406.826481 215.519921,406.58426 215.921245,406.686789 L216.137334,406.736598 C216.204352,406.751108 216.283917,406.767741 216.375788,406.786151 C216.766104,406.86437 217.225918,406.942961 217.751497,407.016554 C220.637655,407.420681 224.083927,407.504687 227.949478,407.065739 C228.361047,407.019004 228.732576,407.31476 228.779311,407.726328 C228.826046,408.137897 228.53029,408.509426 228.118722,408.556161 C224.121566,409.010053 220.549584,408.922983 217.543493,408.502062 L216.90951,408.406357 C216.708954,408.373758 216.51925,408.340577 216.340633,408.307163 L216.081051,408.25691 C215.825333,408.205664 215.647072,408.164922 215.549955,408.140111 C215.148631,408.037582 214.90641,407.629129 215.008939,407.227805 Z"/><g id="分组" transform="translate(186.500000, 340.813000)"><mask id="mask-2" fill="#fff"><use xlink:href="#path-1"/></mask><path id="Fill-13" fill="#253368" d="M8.06505,54.21 L2.30955,42.87 C2.30955,42.87 -1.34745,26.514 2.43255,19.4715 C8.29755,8.5455 21.74955,8.8245 29.73105,5.901 C37.71255,2.979 37.63305,0.2925 40.87455,0.735 C44.11305,1.179 56.66355,9.9105 58.08105,19.0545 C59.32755,27.093 57.30255,47.58 57.30255,47.58 C57.30255,47.58 55.02255,29.442 53.26905,24.654 C46.93905,22.0185 23.94555,21.912 14.35305,24.882 C14.35305,24.882 13.52805,31.056 13.05255,35.4075 C7.91805,39.0885 8.06505,54.21 8.06505,54.21" mask="url(#mask-2)"/></g><path id="Stroke-15" fill="#DD936F" fill-rule="nonzero" d="M233.321696,421.697506 C233.521344,421.478192 233.860979,421.462249 234.080294,421.661896 C234.299608,421.861544 234.315551,422.201179 234.115904,422.420494 L233.983319,422.558183 C233.826266,422.714213 233.595718,422.923625 233.290849,423.17165 C232.623286,423.714743 231.82002,424.255928 230.879231,424.759858 C225.52815,427.62614 218.419972,428.099821 209.528268,424.694991 C209.251303,424.588934 209.112753,424.278434 209.218809,424.001468 C209.324866,423.724503 209.635366,423.585953 209.912332,423.692009 C218.511597,426.984858 225.294648,426.532844 230.372115,423.813121 C231.250676,423.342524 231.997193,422.839573 232.613067,422.338531 L232.861805,422.130468 C233.086624,421.936719 233.239743,421.787533 233.321696,421.697506 Z"/><path id="Stroke-17" fill="#393C68" fill-rule="nonzero" d="M225.704171,384.665105 C226.296798,384.640098 226.797488,385.100245 226.822495,385.692871 C226.845835,386.245989 226.446552,386.719021 225.911383,386.799965 L225.794729,386.811195 L220.604729,387.030195 C220.012102,387.055202 219.511412,386.595055 219.486405,386.002429 C219.463065,385.449311 219.862348,384.976279 220.397517,384.895335 L220.514171,384.884105 L225.704171,384.665105 Z"/><path id="Stroke-19" fill="#393C68" fill-rule="nonzero" d="M221.057967,388.156017 C222.112585,387.694927 223.191954,387.448547 224.251185,387.545853 C225.237011,387.636415 226.13005,388.027734 226.862751,388.751862 C227.284635,389.16881 227.288636,389.848817 226.871688,390.270701 C226.484522,390.66245 225.870535,390.693882 225.447014,390.362542 L225.352849,390.279638 C224.986883,389.917953 224.561061,389.731364 224.054688,389.684846 C223.413248,389.625921 222.669851,389.79561 221.918448,390.124132 C221.519246,390.298667 221.21656,390.470876 221.064009,390.573061 C220.571199,390.903167 219.904094,390.771269 219.573989,390.278459 C219.243883,389.785649 219.375781,389.118544 219.868591,388.788439 C220.119623,388.620286 220.529682,388.386988 221.057967,388.156017 Z"/><path id="Stroke-21" fill="#DD936F" fill-rule="nonzero" d="M224.942107,412.405082 C225.238556,412.39636 225.485946,412.629608 225.494668,412.926057 C225.502518,413.192861 225.314371,413.419927 225.060553,413.469031 L224.973693,413.478618 L220.742193,413.603118 C220.445744,413.61184 220.198354,413.378592 220.189632,413.082143 C220.181782,412.815339 220.369929,412.588273 220.623747,412.539169 L220.710607,412.529582 L224.942107,412.405082 Z"/><path id="Stroke-23" fill="#393C68" fill-rule="nonzero" d="M201.294056,385.404999 C201.887045,385.391002 202.379104,385.860368 202.393101,386.453356 C202.406165,387.006812 201.998166,387.472348 201.461586,387.543339 L201.344744,387.552401 L192.829244,387.753401 C192.236255,387.767398 191.744196,387.298032 191.730199,386.705044 C191.717135,386.151588 192.125134,385.686052 192.661714,385.615061 L192.778556,385.605999 L201.294056,385.404999 Z"/><path id="Fill-25" fill="#FFF" d="M201.9083,384.77875 L218.1638,384.30325 C219.2993,384.27025 220.2458,385.15975 220.2713,386.29525 C220.3178,388.41325 220.2983,391.81075 219.8318,394.73425 C219.2828,398.18125 216.2618,400.36975 212.7818,400.63225 C208.4333,400.96225 204.5258,401.08075 202.4843,398.87875 C199.3733,395.52475 199.9448,389.83525 199.9208,386.83225 C199.9118,385.72975 200.8073,384.81025 201.9083,384.77875"/><path id="Stroke-27" fill="#253368" fill-rule="nonzero" d="M218.153407,383.945651 L201.89784,384.421153 C200.600923,384.458258 199.552484,385.539427 199.563062,386.83517 L199.550041,388.223164 L199.539679,389.033254 C199.523973,390.822703 199.570821,391.946502 199.748563,393.237936 C200.084554,395.679169 200.853931,397.647099 202.222009,399.122037 C204.07466,401.120341 206.857327,401.440626 212.808871,400.988974 C216.607992,400.702403 219.629985,398.275896 220.185097,394.790519 C220.581516,392.306206 220.696185,389.349194 220.628964,386.287398 C220.599032,384.954541 219.488618,383.906847 218.153407,383.945651 Z M201.918531,385.136354 L218.17426,384.660847 C219.113621,384.633547 219.892649,385.368574 219.91364,386.303282 C219.979993,389.32555 219.866798,392.244583 219.478519,394.677877 C218.978935,397.814611 216.241661,400.012503 212.754891,400.275513 L211.976362,400.331225 C206.789906,400.678158 204.310867,400.32272 202.746648,398.635524 C201.492388,397.283294 200.775047,395.448463 200.457381,393.140381 C200.297584,391.979335 200.246843,390.949715 200.252858,389.399289 L200.279116,386.914766 C200.278964,386.886774 200.278771,386.858446 200.278539,386.829391 C200.271148,385.923996 201.009732,385.162355 201.918531,385.136354 Z"/><path id="Fill-29" fill="#FFF" d="M227.2574,383.85655 L245.6609,383.31805 C246.4214,385.98805 246.0689,396.40705 242.9759,398.72755 C238.8089,401.06755 230.2349,400.35805 228.8414,398.13955 C226.7264,394.77205 225.7889,388.26055 225.7409,385.44805 C225.7259,384.59005 226.3994,383.88205 227.2574,383.85655"/><path id="Stroke-31" fill="#253368" fill-rule="nonzero" d="M245.650436,382.960298 L227.246936,383.498953 C226.193264,383.530268 225.364776,384.400181 225.383205,385.454303 C225.451282,389.443217 226.70666,395.413256 228.538446,398.329824 C230.124192,400.854385 239.014564,401.362356 243.151067,399.039482 C245.953163,396.94112 247.110386,387.101014 246.004965,383.220049 C245.960115,383.062586 245.814093,382.955664 245.650436,382.960298 Z M245.386,383.683 L245.426542,383.860143 C246.261803,387.766912 245.132522,396.662321 242.761206,398.441383 C238.958187,400.573419 230.488683,400.089495 229.144345,397.949262 C227.395179,395.164243 226.164654,389.312391 226.098408,385.441945 C226.08701,384.779109 226.606345,384.233808 227.268028,384.214142 L245.386,383.683 Z"/><path id="Stroke-33" fill="#393C68" fill-rule="nonzero" d="M220.308674,383.80585 C220.901825,383.804046 221.384136,384.283423 221.38595,384.876574 C221.387633,385.430182 220.970155,385.887235 220.43223,385.947186 L220.315226,385.953845 L200.150726,386.01535 C199.557575,386.017154 199.075264,385.537777 199.07345,384.944626 C199.071767,384.391018 199.489245,383.933965 200.02717,383.874014 L200.144174,383.867355 L220.308674,383.80585 Z"/><path id="Stroke-35" fill="#393C68" fill-rule="nonzero" d="M245.776722,382.646306 C246.36932,382.620637 246.870525,383.080224 246.896194,383.672822 C246.920152,384.225913 246.521398,384.699391 245.98632,384.780933 L245.869678,384.792294 L226.131178,385.647294 C225.53858,385.672963 225.037375,385.213376 225.011706,384.620778 C224.987748,384.067687 225.386502,383.594209 225.92158,383.512667 L226.038222,383.501306 L245.776722,382.646306 Z"/><path id="Fill-37" fill="#FFC999" d="M191.9729,385.8568 C189.9164,383.6938 186.6974,383.0683 184.3919,385.5133 C180.6749,389.4538 183.9269,404.2828 193.8329,405.0073 C197.6024,404.5258 195.1829,389.2318 191.9729,385.8568"/><path id="Stroke-39" fill="#DD936F" fill-rule="nonzero" d="M187.089646,387.472839 C187.197044,387.196391 187.508213,387.059349 187.784661,387.166746 L187.97609,387.248222 C188.089798,387.299902 188.229213,387.368095 188.388554,387.453245 C188.827248,387.68768 189.2657,387.973161 189.677058,388.313022 C191.170301,389.54673 191.930249,391.15878 191.500286,393.126599 C191.336307,393.875918 190.998974,394.278422 190.364947,394.667976 L190.093167,394.825862 C189.550699,395.132557 189.415751,395.283362 189.371299,395.749028 C189.286954,396.637886 189.69775,397.29682 190.478147,397.797086 C190.741049,397.965617 191.026334,398.101625 191.311789,398.206448 L191.493757,398.269178 C191.573402,398.294692 191.634977,398.311576 191.673716,398.320498 C191.962728,398.387058 192.143061,398.675305 192.076502,398.964316 C192.009942,399.253328 191.721695,399.433661 191.432684,399.367102 C191.036585,399.27588 190.470852,399.068136 189.898536,398.701258 C188.808346,398.002403 188.175044,396.986559 188.30213,395.647271 C188.381564,394.815139 188.701021,394.408587 189.407276,393.982666 L189.668705,393.832014 C190.171332,393.545776 190.350864,393.355107 190.451077,392.897171 C190.784077,391.373125 190.203141,390.140807 188.992995,389.140992 C188.640991,388.850169 188.261555,388.603113 187.882362,388.400475 L187.639719,388.276681 C187.533062,388.225062 187.449736,388.188831 187.395739,388.167854 C187.119291,388.060456 186.982249,387.749287 187.089646,387.472839 Z"/><path id="Stroke-41" fill="#253368" fill-rule="nonzero" d="M219.43373,377.32299 C219.52569,378.146297 218.932817,378.888269 218.10951,378.98023 L212.792235,379.599061 L211.460051,379.742498 C207.62281,380.139423 205.200904,380.232759 203.695767,379.938047 C202.882778,379.77886 202.352767,378.990756 202.511953,378.177767 C202.67114,377.364778 203.459244,376.834767 204.272233,376.993953 C205.390132,377.212843 207.681244,377.116902 211.230266,376.749849 L212.781816,376.581407 L217.77649,375.99877 C218.599797,375.90681 219.341769,376.499683 219.43373,377.32299 Z"/><path id="Stroke-43" fill="#253368" fill-rule="nonzero" d="M229.330104,375.828726 C231.768633,374.909277 234.241286,374.411491 236.607348,374.570307 C238.422879,374.692169 240.090943,375.204187 241.552454,376.164003 C242.244907,376.618757 242.4376,377.548751 241.982847,378.241204 C241.528093,378.933657 240.598099,379.12635 239.905646,378.671597 C238.900931,378.011772 237.730258,377.65243 236.406433,377.563571 C234.531869,377.437746 232.45952,377.854944 230.388519,378.635817 C229.744455,378.878662 229.149784,379.138821 228.620986,379.397839 L228.109618,379.659339 C228.062703,379.68473 228.024603,379.70597 227.995691,379.722622 C227.277819,380.136085 226.360691,379.889313 225.947228,379.171441 C225.533765,378.453569 225.780537,377.536441 226.498409,377.122978 L226.795092,376.95841 C227.389544,376.639716 228.257717,376.23307 229.330104,375.828726 Z"/><path id="Stroke-45" fill="#755654" fill-rule="nonzero" d="M213.148524,388.424979 C213.562556,388.412704 213.908146,388.738393 213.920421,389.152424 C213.987563,391.417124 212.406111,393.338931 210.333779,393.399826 C208.261513,393.460719 206.570399,391.633789 206.505062,389.368776 C206.493118,388.954734 206.819083,388.609405 207.233124,388.597462 C207.647166,388.585518 207.992495,388.911483 208.004438,389.325524 C208.047087,390.804009 209.094548,391.935593 210.289721,391.900474 C211.485395,391.865339 212.464903,390.675024 212.421079,389.196876 C212.408804,388.782844 212.734493,388.437254 213.148524,388.424979 Z"/><path id="Stroke-47" fill="#755654" fill-rule="nonzero" d="M236.119374,387.753429 C236.533406,387.741154 236.878996,388.066843 236.891271,388.480874 C236.958425,390.74597 235.376485,392.667798 233.305296,392.726757 C231.231812,392.789532 229.541276,390.963179 229.475912,388.697226 C229.463968,388.283184 229.789933,387.937855 230.203974,387.925912 C230.618016,387.913968 230.963345,388.239933 230.975288,388.653974 C231.017957,390.133152 232.064375,391.263638 233.261259,391.227404 C234.45633,391.193384 235.435754,390.003526 235.391929,388.525326 C235.379654,388.111294 235.705343,387.765704 236.119374,387.753429 Z"/><path id="Fill-49" fill="#394676" d="M313.2635,802.3324 C313.2635,802.3324 309.113,834.9814 311.54,842.1304 C318.107,849.0784 324.803,844.8709 333.443,851.7169 C342.083,858.5629 360.158,869.7889 375.6755,856.9234 C377.3435,848.5354 371.939,844.9639 365.255,840.7594 C337.694,823.4239 345.2945,815.4769 340.037,805.0624 C331.97,789.0829 312.707,790.9384 313.2635,802.3324"/><path id="Fill-51" fill="#ADC6FF" d="M486.7091,408.9472 L390.9956,408.9472 C387.6026,408.9472 384.8516,411.6982 384.8516,415.0912 L384.8516,501.0472 C384.8516,504.4402 387.6026,507.1912 390.9956,507.1912 L486.7091,507.1912 C490.1021,507.1912 492.8516,504.4402 492.8516,501.0472 L492.8516,415.0912 C492.8516,411.6982 490.1021,408.9472 486.7091,408.9472"/><path id="Fill-53" fill="#435175" d="M486.7091,408.2689 L390.9956,408.2689 C387.6026,408.2689 384.8516,411.0184 384.8516,414.4114 L384.8516,423.0139 L492.8516,423.0139 L492.8516,414.4114 C492.8516,411.0184 490.1021,408.2689 486.7091,408.2689"/><path id="Fill-55" fill="#FFF" d="M468.80645,415.8853 C468.80645,417.1978 467.74295,418.2613 466.43045,418.2613 C465.11945,418.2613 464.05445,417.1978 464.05445,415.8853 C464.05445,414.5728 465.11945,413.5108 466.43045,413.5108 C467.74295,413.5108 468.80645,414.5728 468.80645,415.8853"/><path id="Fill-57" fill="#FFF" d="M476.61335,415.8853 C476.61335,417.1978 475.54985,418.2613 474.23735,418.2613 C472.92485,418.2613 471.86135,417.1978 471.86135,415.8853 C471.86135,414.5728 472.92485,413.5108 474.23735,413.5108 C475.54985,413.5108 476.61335,414.5728 476.61335,415.8853"/><path id="Fill-59" fill="#FFC999" d="M484.7594,415.8853 C484.7594,417.1978 483.6959,418.2613 482.3834,418.2613 C481.0724,418.2613 480.0074,417.1978 480.0074,415.8853 C480.0074,414.5728 481.0724,413.5108 482.3834,413.5108 C483.6959,413.5108 484.7594,414.5728 484.7594,415.8853"/><polygon id="Fill-61" fill="#FFF" points="397.649 474.276 481.4 474.276 481.4 431.745 397.649 431.745"/><path id="Fill-63" fill="#FF7131" d="M433.3052,447.56035 C433.3052,454.29535 427.8452,459.75385 421.1117,459.75385 C414.3782,459.75385 408.9197,454.29535 408.9197,447.56035 C408.9197,440.82685 414.3782,435.36835 421.1117,435.36835 C427.8452,435.36835 433.3052,440.82685 433.3052,447.56035"/><path id="Fill-64" fill="#547CFF" d="M480.42125,474.45355 L399.77225,474.45355 C399.77225,474.45355 408.96875,455.89105 415.87475,454.37155 C429.50825,451.37305 432.44975,466.53355 439.46375,466.53355 C446.47925,466.53355 451.68275,441.64255 461.52725,441.64255 C471.37025,441.64255 480.42125,474.45355 480.42125,474.45355"/><polygon id="Fill-65" fill="#FFF" points="395.034 486.673 482.265 486.673 482.265 482.599 395.034 482.599"/><polygon id="Fill-66" fill="#FFF" points="427.959 495.158 395.035 495.158 395.035 491.086 448.663 491.086 448.663 495.158"/><path id="Fill-67" fill="#FFC999" d="M357.5963,473.16955 C357.5963,473.16955 370.1453,453.87355 375.2138,450.49555 C380.2823,447.11605 385.9133,447.96055 397.4573,445.42705 C406.6808,443.40205 397.7393,453.31105 383.6603,456.12655 L383.6603,486.11155 C383.6603,486.11155 377.2028,492.80305 365.6408,491.88505 C354.0788,490.96555 354.0968,484.28305 357.5963,473.16955"/><path id="Fill-68" fill="#FFC999" d="M300.41465,577.774 L300.41465,577.774 C290.26115,581.701 278.82365,576.8695 274.56065,566.8525 L238.66265,482.497 C233.51765,470.41 239.40815,456.4645 251.66015,451.726 C263.91215,446.9875 277.65365,453.3385 281.98115,465.742 L312.19115,552.298 C315.77765,562.576 310.56815,573.847 300.41465,577.774"/><path id="Fill-69" fill="#597EF7" d="M301.3286,518.96785 L282.0041,464.35885 C277.6751,451.95685 263.9336,445.60435 251.6816,450.34285 C239.4296,455.08285 233.5391,469.02835 238.6841,481.11535 L265.0076,544.30885 C265.0076,544.30885 281.9006,533.60935 301.3286,518.96785"/><path id="Fill-70" fill="#4E5C93" d="M231.3098,806.35705 L231.3098,806.35705 C218.6603,809.15755 206.0603,801.45505 202.7828,788.91955 L166.2533,649.17355 C162.0128,632.95105 172.0973,616.45105 188.4683,612.82705 C204.8408,609.20305 220.9463,619.90555 223.9493,636.40105 L249.8123,778.50955 C252.1328,791.25655 243.9608,803.55655 231.3098,806.35705"/><path id="Fill-71" fill="#4E5C93" d="M72.3662,770.75995 L223.9967,759.43945 C237.6542,758.11045 249.5972,768.59395 250.0502,782.30845 C250.4882,795.55195 240.0137,806.59645 226.7657,806.85745 L72.6107,811.12945 C72.6107,811.12945 65.5322,791.75395 72.3662,770.75995"/><path id="Fill-72" fill="#ADC6FF" d="M184.2671,468.1195 C184.2671,469.0135 183.5426,469.738 182.6471,469.738 C181.7531,469.738 181.0286,469.0135 181.0286,468.1195 C181.0286,467.2255 181.7531,466.501 182.6471,466.501 C183.5426,466.501 184.2671,467.2255 184.2671,468.1195"/><path id="Fill-73" fill="#597EF7" d="M162.7772,588.93025 C196.7057,592.30825 240.9782,595.03075 254.8472,587.05225 C260.8892,583.57525 260.3282,578.82025 257.3807,571.00225 C257.3807,571.00225 275.5652,494.33125 273.0317,452.52025 C260.1977,445.38925 254.0027,444.72325 236.6867,437.12125 C232.9682,435.48925 222.5207,442.11175 217.7207,441.88375 C210.6272,441.54625 198.7247,433.95925 192.1082,435.43075 C171.2237,440.07775 158.5547,445.99075 158.5547,445.99075 C158.5547,445.99075 157.7087,533.18125 160.2437,561.05575 C149.2622,582.17275 162.7772,588.93025 162.7772,588.93025"/><polygon id="Fill-74" fill="#597EF7" points="234.177 429.714 240.09 438.16 232.488 456.743 216.016 441.961"/><polygon id="Fill-75" fill="#597EF7" points="216.439 441.538 194.668 427.849 184.718 437.797 200.197 456.004"/><path id="Stroke-76" fill="#1D39C4" fill-rule="nonzero" d="M238.962182,438.346747 C239.114614,437.961601 239.550407,437.77295 239.935553,437.925382 C240.288603,438.065111 240.476544,438.442943 240.388004,438.801605 L240.356918,438.898753 L233.185418,457.018753 C233.006184,457.471619 232.457155,457.628704 232.068568,457.364731 L231.987948,457.301676 L216.423,443.375 L200.679461,456.577934 C200.380003,456.829049 199.94412,456.805342 199.673095,456.539537 L199.603493,456.461067 L186.679493,439.691067 C186.426648,439.362978 186.487644,438.892038 186.815733,438.639193 C187.113995,438.409334 187.530317,438.438848 187.793513,438.692612 L187.867607,438.775433 L200.314,454.926 L215.957639,441.808566 C216.211627,441.59558 216.570416,441.57722 216.84219,441.750407 L216.939652,441.824324 L232.186,455.465 L238.962182,438.346747 Z"/><path id="Stroke-77" fill="#1D39C4" fill-rule="nonzero" d="M268.706531,467.256985 C269.120173,467.278734 269.437865,467.631688 269.416115,468.045331 C269.389296,468.555406 269.357102,469.072494 269.319676,469.596281 C269.045302,473.436226 268.500676,477.531051 267.765291,481.698651 C267.431056,483.592844 267.075945,485.39645 266.718149,487.067221 L266.397728,488.525289 L266.04,490.052 L266.056777,491.23942 C266.359499,515.550787 264.737473,535.765426 261.829739,552.076297 L261.675517,552.93116 C260.758843,557.952493 259.779434,562.24095 258.795805,565.814181 L258.631838,566.4031 C258.312927,567.535529 258.013568,568.521606 257.739526,569.363068 L257.545442,569.947504 L257.355,570.492 L257.557061,570.885027 C257.831727,571.437092 258.105725,572.057419 258.361352,572.733559 C259.362798,575.382409 259.807931,578.092712 259.372225,580.656399 C258.771312,584.192162 256.537546,587.035556 252.407124,588.881198 C252.028948,589.050183 251.585386,588.8806 251.416402,588.502424 C251.247417,588.124248 251.417,587.680686 251.795176,587.511702 C255.471245,585.869083 257.377112,583.443077 257.89343,580.405074 C258.277607,578.144579 257.873712,575.68536 256.958279,573.264017 C256.721209,572.636962 256.467317,572.062155 256.214093,571.553186 L256.076541,571.282827 C255.993582,571.123692 255.928978,571.007425 255.887944,570.937979 C255.771183,570.740371 255.751336,570.500177 255.834077,570.286084 L255.975213,569.899718 C256.036658,569.725573 256.112146,569.505963 256.200602,569.240561 L256.429964,568.536123 C256.665558,567.796281 256.919446,566.950104 257.188,565.996491 C258.213824,562.353865 259.240727,557.915932 260.199904,552.661778 C263.186877,536.299804 264.863785,515.899798 264.556883,491.257211 L264.539236,489.97881 L264.561537,489.785571 L264.708511,489.175246 L264.856294,488.539188 C264.933229,488.203222 265.014566,487.840733 265.099573,487.453435 C265.504688,485.607686 265.909916,483.581321 266.288112,481.437998 C267.015146,477.317722 267.553179,473.272467 267.823491,469.489375 C267.860255,468.974844 267.891865,468.467131 267.918185,467.966569 C267.939934,467.552927 268.292888,467.235235 268.706531,467.256985 Z"/><path id="Stroke-78" fill="#1D39C4" fill-rule="nonzero" d="M216.772681,444.735471 C217.184038,444.686915 217.556873,444.981023 217.605429,445.392381 L217.696746,446.243501 C217.758456,446.848929 217.826155,447.561632 217.898555,448.382774 L218.027404,449.901509 C218.211792,452.157391 218.394963,454.759442 218.570014,457.713885 L218.656831,459.220502 C220.347405,489.388816 220.221227,532.130144 217.046916,588.554926 C217.02365,588.968486 216.669533,589.284882 216.255974,589.261616 C215.842414,589.23835 215.526018,588.884233 215.549284,588.470674 L215.826506,583.434282 C218.726449,529.550758 218.795912,488.511912 217.159181,459.304427 L217.02893,457.074933 C216.853264,454.190382 216.670183,451.657746 216.486592,449.470799 L216.334207,447.736554 L216.171061,446.072545 C216.145805,445.832306 216.127127,445.664421 216.115771,445.568219 C216.067215,445.156862 216.361323,444.784027 216.772681,444.735471 Z"/><path id="Fill-79" fill="#FFF" d="M222.8804,462.0199 C223.0184,463.3489 224.0279,464.3329 225.1349,464.2174 C226.2434,464.1019 227.0294,462.9304 226.8899,461.6029 C226.7519,460.2739 225.7424,459.2899 224.6354,459.4054 C223.5284,459.5194 222.7424,460.6909 222.8804,462.0199"/><path id="Fill-80" fill="#FFF" d="M222.81965,484.5316 C222.95765,485.8606 223.96715,486.8446 225.07415,486.7291 C226.18265,486.6136 226.96715,485.4436 226.82915,484.1146 C226.69115,482.7856 225.68165,481.8016 224.57315,481.9171 C223.46615,482.0311 222.68165,483.2026 222.81965,484.5316"/><path id="Fill-81" fill="#FFF" d="M222.75365,510.79705 C222.89165,512.12605 223.90265,513.11005 225.00815,512.99455 C226.11665,512.87905 226.90265,511.70905 226.76315,510.38005 C226.62665,509.05105 225.61565,508.06705 224.50865,508.18255 C223.40165,508.29805 222.61565,509.46805 222.75365,510.79705"/><path id="Fill-82" fill="#FFF" d="M222.45785,539.308 C222.59585,540.637 223.60535,541.621 224.71235,541.5055 C225.82085,541.39 226.60685,540.2185 226.46735,538.891 C226.32935,537.562 225.31985,536.578 224.21285,536.6935 C223.10585,536.8075 222.31985,537.979 222.45785,539.308"/><path id="Fill-83" fill="#FFF" d="M221.71955,569.92465 C221.85755,571.25365 222.86855,572.23765 223.97555,572.12215 C225.08255,572.00665 225.86855,570.83665 225.73055,569.50765 C225.59255,568.17865 224.58155,567.19465 223.47455,567.31015 C222.36755,567.42565 221.58155,568.59565 221.71955,569.92465"/><path id="Fill-84" fill="#FFC999" d="M358.1273,472.10755 L372.7043,488.84005 L308.8928,573.15055 C301.3133,581.72905 288.1013,582.23455 279.8888,574.26055 C271.6748,566.28655 271.7888,553.06555 280.1408,545.23555 L358.1273,472.10755 Z"/><path id="Fill-85" fill="#ADC6FF" d="M161.5343,598.22695 C161.5343,598.22695 231.7553,599.44195 252.3368,597.38245 C256.7363,596.94295 256.9583,609.85795 261.5618,639.84445 C254.1428,653.55745 240.0803,668.65795 221.4818,668.14045 C191.0738,667.29595 163.2338,659.77795 160.1018,639.42145 C157.8503,624.78145 158.2868,610.10245 161.5343,598.22695"/><path id="Fill-86" fill="#ADC6FF" d="M253.93655,587.6611 L255.00155,599.0386 C255.00155,599.0386 249.81605,599.4946 221.50655,599.4946 C192.78755,599.4946 161.54855,598.7656 161.54855,598.7656 L162.92255,588.0706 C162.92255,588.0706 217.70555,587.6611 253.93655,587.6611"/><path id="Fill-87" fill="#ADC6FF" d="M360.09638,641.3014 L360.09638,641.3014 C359.9738,654.2569 349.6313,664.7989 336.6803,665.1679 L192.2963,669.2749 C175.5353,669.7519 161.7323,656.2099 161.888465,639.4429 C162.0473,622.6759 176.1008,609.3949 192.8513,610.1869 L337.1318,617.0014 C350.0738,617.6119 360.2168,628.3459 360.09638,641.3014"/><path id="Fill-88" fill="#ADC6FF" d="M307.28255,807.81235 L312.28205,641.35435 C312.32105,627.63235 323.94155,616.79485 337.63505,617.71135 C350.85455,618.59485 360.79955,630.11935 359.73905,643.32685 L346.15505,806.50285 C346.15505,806.50285 330.89255,817.42135 307.28255,807.81235"/><path id="Stroke-89" fill="#DD936F" fill-rule="nonzero" d="M400.081307,446.824386 C400.194174,446.550126 400.508003,446.41929 400.782264,446.532157 C401.056524,446.645024 401.18736,446.958853 401.074493,447.233114 C399.848458,450.212315 396.835416,452.507366 392.595162,454.240056 C390.65529,455.032743 388.581638,455.655041 386.508624,456.127157 C385.928445,456.259289 385.381217,456.371918 384.87561,456.466249 L384.173,456.589 L384.139839,457.073866 C384.085386,457.803561 384.007853,458.615986 383.903147,459.490638 C383.603817,461.991067 383.146512,464.492273 382.4973,466.831637 C380.654189,473.473076 377.645929,477.582909 373.125762,477.779742 C372.829466,477.792644 372.578811,477.562908 372.565908,477.266612 C372.553006,476.970316 372.782742,476.719661 373.079038,476.706758 C376.983262,476.536747 379.731245,472.7825 381.462412,466.544438 C382.095544,464.263019 382.543419,461.813387 382.836761,459.362979 C382.918945,458.676466 382.984036,458.029341 383.034076,457.432231 L383.102004,456.514681 C383.113437,456.33338 383.120635,456.195316 383.124347,456.104354 C383.13495,455.844515 383.330216,455.629615 383.587855,455.594241 L384.042474,455.523247 L384.318118,455.475855 C384.906511,455.372261 385.562907,455.241038 386.270134,455.079971 C388.289838,454.619996 390.308905,454.014079 392.188904,453.245857 C396.188479,451.611516 398.989176,449.47821 400.081307,446.824386 Z"/><path id="Stroke-90" fill="#E49E77" fill-rule="nonzero" d="M307.991604,518.283261 C308.291654,517.997704 308.766383,518.009453 309.051939,518.309504 C309.311536,518.582277 309.325426,518.999412 309.100373,519.287543 L309.025696,519.369839 L287.040196,540.293339 C286.740146,540.578896 286.265417,540.567147 285.979861,540.267096 C285.720264,539.994323 285.706374,539.577188 285.931427,539.289057 L286.006104,539.206761 L307.991604,518.283261 Z"/><path id="Stroke-91" fill="#597EF7" fill-rule="nonzero" d="M181.81716,489.164272 C182.196439,489.182047 182.496682,489.478581 182.529153,489.84658 L182.531228,489.94856 L179.997728,544.00856 C179.978337,544.422319 179.6272,544.742018 179.21344,544.722628 C178.834161,544.704853 178.533918,544.408319 178.501447,544.04032 L178.499372,543.93834 L181.032872,489.87834 C181.052263,489.464581 181.4034,489.144882 181.81716,489.164272 Z"/><path id="Fill-92" fill="#FFC999" d="M263.6588,562.42465 L260.6783,585.02815 L153.6083,580.78015 C142.1843,580.03015 133.7048,569.88865 134.9888,558.51415 C136.2728,547.13815 146.8013,539.14315 158.1038,540.95815 L263.6588,562.42465 Z"/><path id="Fill-93" fill="#FFC999" d="M152.5028,580.5112 L152.5028,580.5112 C141.6668,579.4627 133.6163,570.0112 134.3033,559.1467 L140.0903,467.6527 C140.9183,454.5412 152.4413,444.7252 165.5168,445.9897 C178.5923,447.2557 188.0213,459.0997 186.3203,472.1257 L174.4613,563.0317 C173.0528,573.8257 163.3388,581.5597 152.5028,580.5112"/><path id="Fill-94" fill="#597EF7" d="M180.2579,535.58005 L186.3209,471.84355 C188.0204,458.81755 178.5929,446.97355 165.5174,445.70905 C152.4419,444.44455 140.9189,454.26055 140.0894,467.37055 L136.1699,531.37555 L180.2579,535.58005 Z"/><path id="Fill-95" fill="#FFC999" d="M278.72225,554.65015 C286.02875,554.19715 287.80325,554.62165 298.41125,552.83515 C309.02075,551.04865 301.26875,560.86315 286.51775,562.06615 C284.97125,564.41815 301.693469,570.842438 313.322969,567.300938 C321.700469,565.932938 311.7935,574.65421 311.79425,573.80965 C311.795,572.96509 312.82925,577.49365 308.47175,580.02115 C308.84975,583.82665 301.95125,585.40015 301.95125,585.40015 C301.95125,585.40015 300.45725,588.52465 292.82075,588.61465 C286.06475,588.69415 258.16025,586.95865 254.61425,584.35765 C254.61425,584.35765 252.12575,571.53565 259.57475,564.30265 C259.57475,564.30265 271.41725,555.10465 278.72225,554.65015 Z"/><path id="Stroke-96" fill="#DD936F" fill-rule="nonzero" d="M289.936986,573.431492 C293.326601,574.311806 296.55812,574.79165 299.618491,574.923645 L301.241908,574.987424 C307.288561,575.198982 309.736937,574.959663 310.862421,574.216916 C311.109954,574.05356 311.443046,574.121799 311.606402,574.369332 C311.769758,574.616865 311.701519,574.949957 311.453985,575.113313 C309.959711,576.099439 307.079208,576.320427 299.572212,575.996647 C296.436729,575.861413 293.130226,575.370435 289.667014,574.471008 C289.37996,574.396457 289.207692,574.103318 289.282242,573.816264 C289.34851,573.561105 289.587488,573.396641 289.841384,573.415603 L289.936986,573.431492 Z"/><path id="Stroke-97" fill="#DD936F" fill-rule="nonzero" d="M287.484598,578.849236 C287.567863,578.564587 287.866116,578.401333 288.150764,578.484598 C294.90587,580.460587 300.941717,580.609432 305.889101,579.681028 C306.382854,579.588372 306.82716,579.490622 307.219868,579.392082 L307.504691,579.318096 C307.775708,579.245191 307.956903,579.189557 308.044066,579.15962 C308.324561,579.063283 308.630043,579.212572 308.72638,579.493066 C308.822717,579.773561 308.673428,580.079043 308.392934,580.17538 L308.2517,580.221143 C308.136723,580.2568 307.980308,580.302333 307.783686,580.355226 C307.298903,580.485636 306.732016,580.615597 306.087185,580.736603 C300.981592,581.694696 294.776227,581.54167 287.849236,579.515402 C287.564587,579.432137 287.401333,579.133884 287.484598,578.849236 Z"/><path id="Stroke-98" fill="#DD936F" fill-rule="nonzero" d="M284.502968,582.796706 C284.615245,582.522203 284.928792,582.390692 285.203294,582.502968 C286.861605,583.181246 289.188453,583.616792 292.004329,583.838311 C294.738926,584.053436 297.662581,584.05252 300.404325,583.921641 L301.484834,583.861299 C301.673539,583.84902 301.804353,583.839523 301.871441,583.834189 C302.167085,583.810684 302.425806,584.031297 302.449311,584.326941 C302.472816,584.622585 302.252203,584.881306 301.956559,584.904811 L301.554571,584.933033 L300.754481,584.97954 C300.657429,584.984573 300.55775,584.98954 300.455535,584.99442 C297.672413,585.127274 294.706495,585.128203 291.9201,584.909003 C289.00309,584.679528 286.577915,584.225577 284.796706,583.497032 C284.522203,583.384755 284.390692,583.071208 284.502968,582.796706 Z"/><path id="Stroke-99" fill="#DD936F" fill-rule="nonzero" d="M298.511819,551.644107 C303.900091,550.736665 305.671567,553.015542 302.537688,556.054179 C299.693898,558.811544 294.04112,561.1631 287.685898,561.851201 L287.187,561.901 C287.211057,561.948392 287.241476,561.997513 287.282103,562.054277 L287.350916,562.145271 C287.631116,562.498541 288.148376,562.917869 288.861719,563.360579 C290.388087,564.307864 292.661572,565.27668 295.229494,566.049184 C301.258334,567.86283 307.655768,568.316697 312.697842,566.923294 L313.166513,566.787235 L313.322969,566.763938 C315.304723,566.763938 316.510681,567.174324 316.973651,568.057331 C317.388441,568.848449 317.119782,569.804807 316.37129,570.89892 C315.46785,572.219529 313.901831,573.688842 312.431634,574.84015 L312.118335,575.081821 C311.931876,575.223465 311.883423,575.306068 311.886563,575.605805 L311.895352,575.840828 C311.971907,577.279967 311.46394,578.258946 309.412642,579.5365 L309.213,579.658 L309.214095,579.726929 C309.190793,581.444502 307.938762,582.81759 305.898497,583.897801 L305.64991,584.026024 C304.90763,584.399124 304.116407,584.709934 303.325653,584.962666 C303.141272,585.021596 302.965525,585.074548 302.800274,585.121632 L302.494,585.205 L302.437096,585.290635 C302.149592,585.703563 301.646408,586.19487 300.869638,586.679956 L300.650965,586.812034 C298.904849,587.832384 296.403757,588.451688 293.016817,588.491613 L292.10712,588.498099 C281.391733,588.527547 262.128463,587.010001 256.111624,585.003572 C255.830277,584.909752 255.678258,584.60562 255.772078,584.324274 C255.865898,584.042927 256.17003,583.890908 256.451376,583.984728 C262.493259,585.999507 282.623161,587.539817 293.00417,587.417687 C296.213988,587.379851 298.533348,586.805546 300.109102,585.884748 C300.662201,585.561542 301.077454,585.220676 301.375316,584.88582 C301.514362,584.729504 301.598331,584.610598 301.638031,584.542769 L301.656625,584.50831 C301.727385,584.360473 301.861786,584.253045 302.021581,584.216597 L302.346226,584.134055 C302.524297,584.08541 302.745001,584.020727 302.998686,583.939646 C303.739687,583.702816 304.480218,583.411919 305.167576,583.066425 C307.168355,582.060751 308.268158,580.83403 308.12713,579.414229 C308.106318,579.204704 308.209877,579.002347 308.391996,578.896675 C310.430116,577.714089 310.852799,577.075178 310.827687,576.021368 L310.822868,575.897879 C310.779149,575.076015 310.882618,574.67179 311.468665,574.226599 C312.938757,573.109844 314.6,571.585972 315.484867,570.292512 C316.030859,569.494404 316.19957,568.893838 316.022463,568.556048 C315.810735,568.152226 315.037438,567.870642 313.586142,567.840602 L313.397,567.838 L313.004375,567.952832 C307.897392,569.370053 301.533928,568.973804 295.486111,567.243741 L294.920101,567.077654 C292.267702,566.279737 289.909256,565.274717 288.295381,564.273124 C286.492404,563.154172 285.629886,562.066726 286.258719,561.109753 C286.349557,560.971513 286.499036,560.882851 286.663905,560.869423 C293.161548,560.340176 298.999237,557.98913 301.790062,555.283121 L302.028149,555.044048 C303.941419,553.049349 303.032897,552.018088 298.934977,552.663291 L297.526243,552.896588 C292.81741,553.667014 289.819711,554.001979 286.531699,554.177889 L285.539312,554.226004 L281.369761,554.394548 C280.519417,554.432894 279.858958,554.46947 278.94534,554.526114 C277.139515,554.638445 274.913746,555.321623 272.370524,556.486303 C270.719792,557.242262 268.973498,558.183434 267.171274,559.267821 C265.425849,560.318034 263.723209,561.444027 262.133117,562.569978 L261.491915,563.028578 C261.287191,563.176516 261.09166,563.319321 260.905879,563.45639 L260.093926,564.066735 C259.85971,564.248671 259.522352,564.206291 259.340415,563.972076 C259.158479,563.73786 259.200859,563.400502 259.435074,563.218565 L259.99251,562.796677 L260.558087,562.379443 C260.855421,562.162358 261.174163,561.933023 261.51246,561.693473 C263.123007,560.553038 264.847421,559.412644 266.617559,558.347562 C268.452019,557.243779 270.232833,556.284003 271.923343,555.509827 C274.575933,554.295062 276.918158,553.576139 278.87877,553.454179 L279.927962,553.391829 C280.385641,553.366164 280.819602,553.344264 281.318071,553.32178 L285.687183,553.144304 L286.473663,553.105458 C289.723261,552.931625 292.683751,552.600732 297.356468,551.836091 L298.511819,551.644107 Z"/><path id="Stroke-100" fill="#1D39C4" fill-rule="nonzero" d="M185.379578,488.639511 L185.481531,488.642634 C185.859413,488.679708 186.144158,488.991153 186.157839,489.360328 L186.154716,489.462281 L181.567716,536.215781 C181.530548,536.594621 181.217687,536.879675 180.847585,536.89218 L180.745393,536.888699 L136.142893,532.351199 C135.730806,532.309276 135.430729,531.941229 135.472651,531.529143 C135.51108,531.151397 135.823544,530.86777 136.192766,530.855412 L136.294707,530.858901 L180.148,535.32 L184.661884,489.315819 C184.695587,488.97229 184.956044,488.705733 185.280488,488.649829 L185.379578,488.639511 Z"/><path id="Stroke-101" fill="#1D39C4" fill-rule="nonzero" d="M262.323303,484.748052 L234.027303,483.248052 C233.598093,483.225299 233.2376,483.567188 233.2376,483.997 L233.2376,512.2585 C233.2376,512.513805 233.367474,512.751576 233.582287,512.889548 L247.097287,521.570048 C247.303558,521.702533 247.561559,521.725844 247.788236,521.632478 L249.669089,520.851015 C252.762238,519.55192 254.350788,518.799027 255.638231,518.03324 C255.932934,517.857947 256.215524,517.679489 256.498761,517.490097 L256.925697,517.196839 C257.234074,516.979563 257.539883,516.753692 257.918333,516.464145 L260.356694,514.564 C260.447658,514.493685 260.538468,514.423663 260.630346,514.352997 C260.745265,514.264609 260.832103,514.144807 260.880351,514.008092 C261.81813,511.350773 262.417741,506.800291 262.753716,500.850431 C263.008281,496.342284 263.084839,491.625224 263.056134,487.444461 L263.033449,485.481955 C263.025566,485.08905 262.715735,484.768855 262.323303,484.748052 Z M234.737,484.787 L261.544,486.208 L261.546901,486.427666 C261.596111,490.823483 261.529645,495.921624 261.256102,500.765864 L261.224575,501.306755 C260.912865,506.490235 260.388928,510.541279 259.62939,513.011866 L259.536,513.302 L257.202516,515.122458 C256.744175,515.476164 256.402318,515.73067 256.061737,515.970636 C255.661937,516.252327 255.279419,516.501372 254.871411,516.744059 L254.734736,516.824576 C253.491467,517.549986 251.877455,518.302636 248.723777,519.620724 L247.578,520.096 L234.737,511.849 L234.737,484.787 Z"/><path id="Stroke-102" fill="#1D39C4" fill-rule="nonzero" d="M300.899985,518.351478 C301.240067,518.115009 301.707453,518.199004 301.943922,518.539085 C302.158894,518.84825 302.109019,519.262626 301.842667,519.513074 L301.756315,519.583022 L265.717315,544.642022 C265.377233,544.878491 264.909847,544.794496 264.673378,544.454415 C264.458406,544.14525 264.508281,543.730874 264.774633,543.480426 L264.860985,543.410478 L300.899985,518.351478 Z"/><path id="Stroke-103" fill="#1D39C4" fill-rule="nonzero" d="M162.913703,451.512483 C163.003542,451.108129 163.404164,450.853164 163.808517,450.943003 L164.107286,451.017625 C164.272036,451.061993 164.478506,451.121677 164.723095,451.198206 C165.426481,451.418287 166.207629,451.706303 167.047202,452.070537 C169.439805,453.108528 171.830749,454.550642 174.063086,456.464075 C178.606188,460.358162 181.894368,465.682056 183.384204,472.635012 C183.470989,473.040032 183.213008,473.438719 182.807988,473.525504 C182.402968,473.612289 182.004281,473.354308 181.917496,472.949288 C180.498403,466.326479 177.38694,461.288709 173.086899,457.60296 C170.975237,455.792964 168.711895,454.427813 166.450212,453.44662 C165.660785,453.10414 164.92929,452.834432 164.275177,452.629768 L163.843726,452.500887 C163.681736,452.45515 163.560343,452.42444 163.483183,452.407297 C163.078829,452.317458 162.823864,451.916836 162.913703,451.512483 Z"/><path id="Stroke-106" fill="#597EF7" fill-rule="nonzero" d="M223.05545,587.9758 C223.322369,587.9758 223.543804,588.170543 223.585422,588.425696 L223.59245,588.5128 L223.591669,599.465346 L224.154169,609.882846 C224.170159,610.178992 223.943049,610.432028 223.646904,610.448019 C223.380373,610.46241 223.14876,610.27989 223.093446,610.027352 L223.081731,609.940754 L222.51845,599.4943 L222.51845,588.5128 C222.51845,588.216223 222.758873,587.9758 223.05545,587.9758 Z"/><path id="Stroke-107" fill="#597EF7" fill-rule="nonzero" d="M198.867949,609.374887 L335.142949,616.273387 C335.439147,616.288381 335.667107,616.540652 335.652813,616.836849 C335.638619,617.103427 335.43293,617.314733 335.175999,617.343398 L335.088651,617.346013 L198.813651,610.447513 C198.517453,610.432519 198.289493,610.180248 198.303787,609.884051 C198.317981,609.617473 198.52367,609.406167 198.780601,609.377502 L198.867949,609.374887 Z"/><path id="Stroke-108" fill="#597EF7" fill-rule="nonzero" d="M233.999009,598.237669 C234.265298,598.219332 234.499588,598.398403 234.558636,598.650094 L234.571631,598.736509 L235.416131,611.000509 C235.436505,611.296386 235.213167,611.552757 234.917291,611.573131 C234.651002,611.591468 234.416712,611.412397 234.357664,611.160706 L234.344669,611.074291 L233.500169,598.810291 C233.479795,598.514414 233.703133,598.258043 233.999009,598.237669 Z"/><path id="Fill-109" fill="#FFF" d="M227.0033,594.0946 C227.1413,595.4236 228.1523,596.4076 229.2593,596.2921 C230.3663,596.1766 231.1523,595.0066 231.0128,593.6776 C230.8763,592.3486 229.8653,591.3646 228.7583,591.4801 C227.6513,591.5956 226.8653,592.7656 227.0033,594.0946"/><path id="Stroke-104" fill="#597EF7" fill-rule="nonzero" d="M254.02685,598.22905 C254.323427,598.22905 254.56385,598.469473 254.56385,598.76605 C254.56385,599.032969 254.369107,599.254404 254.113954,599.296022 L254.02685,599.30305 L163.04885,599.30305 C162.752273,599.30305 162.51185,599.062627 162.51185,598.76605 C162.51185,598.499131 162.706593,598.277696 162.961746,598.236078 L163.04885,598.22905 L254.02685,598.22905 Z"/><path id="Stroke-105" fill="#597EF7" fill-rule="nonzero" d="M253.93685,587.5342 C254.233427,587.5342 254.47385,587.774623 254.47385,588.0712 C254.47385,588.338119 254.279107,588.559554 254.023954,588.601172 L253.93685,588.6082 L162.92285,588.6082 C162.626273,588.6082 162.38585,588.367777 162.38585,588.0712 C162.38585,587.804281 162.580593,587.582846 162.835746,587.541228 L162.92285,587.5342 L253.93685,587.5342 Z"/></g></svg>