<?xml version="1.0" encoding="UTF-8"?>
<svg width="512px" height="1024px" viewBox="0 0 512 1024" version="1.1" xmlns="http://www.w3.org/2000/svg" xmlns:xlink="http://www.w3.org/1999/xlink">
    <!-- Generator: Sketch 61.2 (89653) - https://sketch.com -->
    <title>2.人物组件/1.商人/奔跑/打招呼</title>
    <desc>Created with Sketch.</desc>
    <defs>
        <polygon id="path-1" points="1.20395474 0.246 77.6260647 0.246 77.6260647 58.6333954 1.20395474 58.6333954"></polygon>
        <polygon id="path-3" points="1.43725761 0.727745592 49.776 0.727745592 49.776 63.7962504 1.43725761 63.7962504"></polygon>
    </defs>
    <g id="2.人物组件/1.商人/奔跑/打招呼" stroke="none" stroke-width="1" fill="none" fill-rule="evenodd">
        <path d="M374.1543,644.5651 L396.3228,634.2631 C396.3228,634.2631 402.5508,643.3711 404.9823,653.2441 C409.1448,670.1356 411.6858,664.3321 420.4398,683.0341 C428.1528,699.5086 423.8793,713.6521 417.5343,707.4991 C399.2718,689.7871 386.7033,683.4781 386.7033,683.4781 C386.7033,683.4781 358.0143,685.0906 351.5943,675.3271 C341.5068,659.9881 374.1543,644.5651 374.1543,644.5651" id="Fill-1" fill="#E4EBF7"></path>
        <path d="M417.1416,705.11215 C417.1416,705.11215 419.6211,704.24365 420.0021,693.05065 C420.4461,680.01415 407.9001,665.01715 401.5131,655.90765 C391.6761,641.87815 394.2171,639.40015 390.9891,637.29565 C394.1841,633.16165 399.2481,634.42765 399.2481,634.42765 C399.2481,634.42765 402.2211,637.11115 406.3716,648.95815 C410.5221,660.80365 413.6511,659.51515 420.7161,673.65265 C430.6671,693.57265 428.5581,706.04365 424.5681,708.35665 C419.5476,711.26665 415.9851,708.20965 417.1416,705.11215" id="Fill-3" fill="#B0BEDC"></path>
        <path d="M244.7478,709.2841 C238.5828,692.7061 247.6008,674.3521 264.4953,669.1126 C296.9418,659.0461 343.1403,644.7286 343.1403,644.7286 L343.1418,644.7286 C347.1093,638.5441 363.4653,636.7141 363.3363,647.9476 C363.1008,668.5006 374.6043,681.9811 372.2388,689.9701 C369.8718,697.9591 358.2108,695.9611 358.2063,695.9611 C358.2063,695.9611 315.9558,713.8966 285.7893,726.8566 C269.6013,733.8121 250.8888,725.7976 244.7478,709.2841" id="Fill-5" fill="#3B4A7A"></path>
        <path d="M49.9206,342.1108 C49.9206,342.1108 54.0201,373.5763 68.3421,377.4358 C81.3126,380.9308 88.7196,366.7483 88.7196,366.7483 C88.7196,366.7483 93.0996,355.0858 93.9921,341.4208 C94.5771,332.4658 98.5386,315.5668 93.4761,314.1118 C86.8761,312.2143 85.9851,330.0553 81.2241,331.6213 C71.5746,334.7938 69.6591,306.6208 66.5946,302.2258 C60.6051,293.6338 42.0336,308.0773 49.9206,342.1108" id="Fill-7" fill="#B69882"></path>
        <path d="M59.3779457,300.618265 C61.0992176,300.298452 62.2623585,301.591333 63.0067553,303.792868 C63.2262954,304.442153 63.3949902,305.132812 63.520334,305.822771 L63.5613317,306.05798 L63.6270788,306.489685 C63.6438847,306.612386 63.6545114,306.701622 63.6523187,306.70223 C64.1106854,309.054871 64.4973713,311.260911 64.8882845,313.697214 L66.0019059,320.835038 L66.1406173,321.644502 C66.7393132,325.033587 67.3172669,326.909793 68.2756008,328.397717 C68.4438176,328.658892 68.3684593,329.006984 68.1072834,329.175201 C67.8461075,329.343418 67.498016,329.268059 67.3297992,329.006883 C66.2316072,327.301814 65.6119443,325.224557 64.964291,321.446673 L64.7986189,320.441378 C64.5336501,318.776293 63.9805625,315.158308 63.9448879,314.93087 C63.4969668,312.075217 63.0690057,309.591097 62.5406854,306.867676 L62.5202433,306.69586 C62.4981711,306.527398 62.46324,306.29792 62.4134513,306.023856 C62.2972249,305.384085 62.1411308,304.745015 61.9410289,304.153218 C61.355921,302.422776 60.5637129,301.542202 59.5834543,301.724335 C59.2780214,301.781085 58.9844145,301.579487 58.9276649,301.274054 C58.8709153,300.968621 59.0725129,300.675015 59.3779457,300.618265 Z" id="Stroke-9" fill="#7C5B4D" fill-rule="nonzero"></path>
        <path d="M51.9221108,307.245752 C54.2888032,304.857593 56.4947823,305.462194 58.1716142,307.813558 C58.4756694,308.239924 58.7392936,308.693624 58.9628954,309.147175 L59.1043786,309.445682 C59.1447562,309.534711 59.1783305,309.612669 59.205041,309.677766 L59.2399515,309.765542 L59.2766384,309.942714 L59.3296148,310.848368 C59.3461249,311.094346 59.3654087,311.360751 59.3876814,311.646523 L59.4759201,312.697187 C59.5728728,313.775957 59.6963396,314.937203 59.8496689,316.164343 C60.4335936,320.837668 61.3249299,325.510162 62.5858489,329.865917 C63.0976749,331.633983 63.6621375,333.316341 64.2815239,334.900353 C64.3946579,335.18968 64.2518248,335.51594 63.9624972,335.629074 C63.6731697,335.742208 63.3469101,335.599375 63.2337761,335.310047 C62.6014453,333.692932 62.0261909,331.978409 61.5052169,330.178742 C60.2261103,325.760159 59.3240743,321.031576 58.7333492,316.303825 C58.5524968,314.856409 58.4126956,313.499246 58.3085495,312.258489 L58.2248297,311.180047 L58.157,310.087 L58.0201996,309.781823 L57.9538565,309.644634 C57.7553527,309.241992 57.5214822,308.839498 57.2556643,308.466751 C55.9377252,306.61865 54.5141024,306.228472 52.7211892,308.037648 C52.5025132,308.258307 52.1463616,308.259915 51.9257022,308.041239 C51.7050428,307.822563 51.7034349,307.466412 51.9221108,307.245752 Z" id="Stroke-11" fill="#7C5B4D" fill-rule="nonzero"></path>
        <path d="M49.7873552,315.035641 C52.1629137,314.370352 53.6776722,315.664391 54.4182309,318.060268 C54.6189099,318.70951 54.7497132,319.398723 54.8255859,320.086935 C54.8432465,320.247128 54.8570443,320.399841 54.8674678,320.543503 L54.8894008,320.961677 C54.8897534,320.976303 54.8899142,320.987627 54.8898987,320.995239 C55.1503469,326.402757 56.1653835,331.908429 57.6951814,337.261915 C58.3234674,339.460584 58.9965318,341.482526 59.6692464,343.281245 L59.9428636,344.000145 C59.9869867,344.113987 60.0303399,344.224811 60.072878,344.33257 L60.3734297,345.076588 L60.473,345.315 L60.811052,345.468367 C61.2419709,345.668132 61.7210448,345.907971 62.2363358,346.188215 C63.7072405,346.988177 65.1779472,347.953322 66.5528995,349.087421 C71.724795,353.353347 74.1664397,358.755416 72.289549,365.267579 C72.2035147,365.566088 71.8917805,365.738333 71.5932711,365.652299 C71.2947617,365.566265 71.1225167,365.25453 71.208551,364.956021 C72.9434986,358.936352 70.6954649,353.962641 65.8370574,349.955289 C64.5218535,348.870472 63.11025,347.944113 61.6988445,347.176511 C61.3040304,346.961789 60.9321544,346.772203 60.589402,346.607701 L60.3378951,346.489027 C60.0945675,346.376226 59.9231228,346.302253 59.8356276,346.26696 C59.6998812,346.212203 59.5908254,346.106689 59.5316191,345.972824 L59.3345614,345.508302 L59.2771225,345.368915 C59.0772542,344.881652 58.8548398,344.315207 58.6155288,343.675332 C57.9327498,341.849702 57.2503206,339.799628 56.6134793,337.571019 C55.0615234,332.139992 54.031203,326.551419 53.7655829,321.028386 L53.7604947,320.862701 C53.7529945,320.699765 53.7367552,320.476839 53.707361,320.210215 C53.6387466,319.58784 53.520818,318.966466 53.3434048,318.392494 C52.761033,316.508388 51.7584638,315.651905 50.0907448,316.118959 C49.7915945,316.202738 49.4811693,316.028145 49.3973906,315.728995 C49.3136119,315.429845 49.488205,315.119419 49.7873552,315.035641 Z" id="Stroke-13" fill="#7C5B4D" fill-rule="nonzero"></path>
        <path d="M80.8506978,331.199915 C81.0832568,330.993939 81.4387596,331.015489 81.6447354,331.248048 C81.8507112,331.480607 81.8291612,331.83611 81.5966022,332.042085 L81.308988,332.310043 C81.0737573,332.535162 80.8109337,332.798224 80.527441,333.096491 C79.7159861,333.950233 78.904105,334.912516 78.1471326,335.960889 C75.2228804,340.010848 73.9450015,344.109113 75.1884818,347.880962 C75.2672566,348.119909 75.3561891,348.357069 75.4554436,348.592418 C75.576163,348.878664 75.4419775,349.208574 75.1557319,349.329294 C74.8694863,349.450013 74.5395759,349.315828 74.4188564,349.029582 C74.3078459,348.766358 74.2082891,348.500865 74.120046,348.233197 C72.7395458,344.045726 74.1210873,339.615007 77.2350417,335.302318 C78.0235656,334.210248 78.8675733,333.209887 79.7120072,332.321447 C79.9340585,332.087824 80.1444502,331.874399 80.3402819,331.682266 L80.691121,331.345912 C80.7607185,331.280912 80.814406,331.232058 80.8506978,331.199915 Z" id="Stroke-15" fill="#7C5B4D" fill-rule="nonzero"></path>
        <path d="M97.8789,475.12 L97.8789,475.12 C108.4659,489.2605 128.2989,492.577 142.9104,482.65 L196.2534,446.401 C211.5804,435.9865 215.3499,415.009 204.6099,399.9085 L202.8984,397.5025 C192.1359,382.3735 171.0264,379.0765 156.1629,390.2035 L104.5299,428.857 C89.9184,439.7965 86.9409,460.5085 97.8789,475.12" id="Fill-17" fill="#E4EBF7"></path>
        <path d="M88.4292,359.6566 L62.4132,371.9716 C55.6317,375.1831 52.5807,383.1631 55.4922,390.0781 L90.2337,472.6201 C97.8672,488.7481 117.1302,495.6331 133.2582,487.9981 C149.3862,480.3646 156.2727,461.1001 148.6377,444.9721 L106.8207,365.7811 C103.3182,359.1466 95.2107,356.4466 88.4292,359.6566" id="Fill-19" fill="#E4EBF7"></path>
        <path d="M194.1081,821.58925 L186.8886,851.45725 C186.8886,851.45725 173.0571,850.45375 161.4411,845.11825 C141.5706,835.99075 145.2891,843.03175 120.0396,837.00325 C97.7991,831.69325 87.2331,816.42325 98.2506,814.99825 C129.9681,810.89875 146.0121,803.47375 146.0121,803.47375 C146.0121,803.47375 166.8816,773.99425 181.5096,775.32025 C204.4911,777.40525 194.1081,821.58925 194.1081,821.58925" id="Fill-21" fill="#E4EBF7"></path>
        <path d="M100.90605,816.4792 C100.90605,816.4792 99.81855,819.5977 110.53005,828.7327 C123.00705,839.3752 147.57705,838.7722 161.53605,839.6212 C183.03555,840.9262 183.48405,845.3662 188.08005,843.8392 C189.64755,850.2157 184.43805,854.2057 184.43805,854.2057 C184.43805,854.2057 179.47005,855.0307 164.56905,849.8392 C149.66955,844.6492 148.48755,848.7367 129.05205,844.6177 C101.67105,838.8157 91.05405,826.9792 91.90305,821.2432 C92.96955,814.0282 98.76555,812.9167 100.90605,816.4792" id="Fill-23" fill="#B0BEDC"></path>
        <path d="M285.3555,725.22385 L285.3555,725.22385 C267.111,735.42385 243.8445,729.12535 232.4475,710.89885 L187.272,638.65735 C173.853,617.19685 180.606,589.13485 202.083,577.11685 C223.4325,565.17085 250.716,573.90985 262.107,596.34385 L300.6885,672.31285 C310.488,691.61035 303.723,714.95335 285.3555,725.22385" id="Fill-25" fill="#3B4A7A"></path>
        <path d="M175.97775,546.84835 C175.97775,546.84835 171.06975,571.09735 172.38675,589.80535 C176.61075,649.77685 211.24275,662.44735 243.33975,659.91235 C246.74325,659.64535 288.52875,651.44485 308.37975,639.45235 C335.40975,623.12185 345.54525,590.64985 328.82925,558.67435 C324.51075,550.41085 322.89525,541.06435 322.89525,541.06435 C322.89525,541.06435 188.64825,546.84835 175.97775,546.84835" id="Fill-27" fill="#4E5C93"></path>
        <path d="M198.58545,339.4777 C198.58545,339.4777 196.04145,353.9467 204.60045,356.9437 C212.12145,359.5762 218.75895,357.3982 218.16495,347.6662 C217.57095,337.9342 210.31245,312.1132 204.17145,313.8817 C198.02895,315.6487 198.58545,339.4777 198.58545,339.4777" id="Fill-29" fill="#51342D"></path>
        <path d="M237.6558,362.213526 C237.6558,362.213526 253.7763,361.666 262.7958,353.8435 C273.6243,344.452 266.7558,319.573 265.2678,311.3515 C262.6593,296.926 255.1728,290.17 255.1728,290.17 C255.1728,290.17 247.0128,278.8855 221.6523,282.6595 C196.2903,286.4335 198.8883,310.1185 200.5053,320.9875 C202.1238,331.8565 207.9498,352.084 215.5428,356.7085 C224.7048,362.2885 237.6558,362.213526 237.6558,362.213526" id="Fill-31" fill="#B69882"></path>
        <g id="分组" transform="translate(190.500000, 275.254000)">
            <mask id="mask-2" fill="white">
                <use xlink:href="#path-1"></use>
            </mask>
            <g id="Clip-34"></g>
            <path d="M72.0618,27.2415 C72.0618,27.2415 81.3138,14.7555 75.9573,6.756 C70.6008,-1.242 62.3133,-0.9345 53.5938,2.679 C44.8728,6.2895 7.9863,1.473 6.8193,21.21 C-6.0852,40.2585 7.2918,53.2425 7.2918,53.2425 C7.2918,53.2425 12.6198,45.2925 15.7593,50.844 C18.9003,56.394 21.2673,60.1305 22.8093,58.05 C24.3513,55.968 21.6708,49.2195 24.3693,45.5775 C27.0678,41.9355 29.5443,31.5705 25.9458,25.308 C24.4338,21.366 58.3323,15.8595 66.0498,17.952 C70.4028,19.131 72.0618,27.2415 72.0618,27.2415" id="Fill-33" fill="#51342D" mask="url(#mask-2)"></path>
        </g>
        <path d="M251.578929,307.331021 C255.787908,305.874549 258.9154,305.982694 261.055292,307.153171 C261.737211,307.526166 262.189884,307.935875 262.444376,308.278308 C262.938528,308.943218 262.800101,309.882824 262.135192,310.376976 C261.509394,310.84206 260.640268,310.746798 260.128205,310.179642 L260.036524,310.067792 C260.029459,310.058284 259.898862,309.940083 259.615643,309.785168 C258.269647,309.048936 256.013766,308.970931 252.559971,310.166079 C251.777091,310.436986 250.922828,310.021951 250.651921,309.239071 C250.381014,308.456191 250.796049,307.601928 251.578929,307.331021 Z" id="Stroke-35" fill="#634237" fill-rule="nonzero"></path>
        <path d="M229.365619,310.972287 C231.93805,310.007334 234.582873,309.747924 236.819988,309.867386 L237.035592,309.880719 C237.096099,309.885064 237.145064,309.889201 237.181944,309.892802 C238.006449,309.973322 238.609568,310.706989 238.529048,311.531494 C238.453265,312.307498 237.798915,312.887396 237.0348,312.885805 L236.660015,312.863118 C234.799896,312.763787 232.540767,312.985368 230.419269,313.78117 C229.55926,314.103771 228.771109,314.508932 228.067581,315.002031 C227.389192,315.47751 226.453797,315.313019 225.978319,314.634631 C225.50284,313.956242 225.667331,313.020847 226.345719,312.545369 C227.265359,311.900798 228.277755,311.380359 229.365619,310.972287 Z" id="Stroke-37" fill="#634237" fill-rule="nonzero"></path>
        <path d="M247.675022,316.080247 C247.883042,315.849514 248.238721,315.831102 248.469453,316.039122 L248.736492,316.28856 L249.065089,316.607583 C249.17996,316.72105 249.299928,316.841515 249.424271,316.968594 C250.134262,317.694201 250.844164,318.488114 251.507933,319.326363 C252.702563,320.835016 253.61519,322.318817 254.133611,323.729787 C255.631358,327.806164 253.658538,330.71473 247.503605,331.630772 C247.196329,331.676504 246.91016,331.464481 246.864428,331.157205 C246.818696,330.849929 247.030719,330.56376 247.337995,330.518028 C252.81821,329.702405 254.317425,327.492084 253.077633,324.117776 C252.606755,322.836202 251.752808,321.447807 250.625961,320.024755 C249.988541,319.219781 249.304311,318.454578 248.62017,317.755389 L248.275026,317.408473 L247.716147,316.874678 C247.485414,316.666658 247.467002,316.310979 247.675022,316.080247 Z" id="Stroke-39" fill="#7C5B4D" fill-rule="nonzero"></path>
        <path d="M232.28865,324.5905 C232.53015,326.2165 233.84265,327.3685 235.21815,327.163 C236.59365,326.959 237.51165,325.4755 237.27015,323.8495 C237.02865,322.2235 235.71765,321.0715 234.34215,321.277 C232.96665,321.481 232.04715,322.966 232.28865,324.5905" id="Fill-41" fill="#51342D"></path>
        <path d="M255.8388,321.08665 C256.0803,322.71265 257.3913,323.86465 258.7668,323.65915 C260.1438,323.45515 261.0618,321.97015 260.8203,320.34565 C260.5788,318.71965 259.2678,317.56765 257.8908,317.77315 C256.5153,317.97715 255.5958,319.46065 255.8388,321.08665" id="Fill-43" fill="#51342D"></path>
        <path d="M261.4602,332.9701 L264.8142,359.3101 C266.7282,374.3281 256.6077,388.2361 241.7292,391.0351 C225.3567,394.1176 209.8242,382.6096 208.0032,366.0481 L205.0137,338.8336 L261.4602,332.9701 Z" id="Fill-45" fill="#B69882"></path>
        <path d="M261.7422,335.4904 C261.7422,335.4904 260.2317,329.1679 251.2377,329.9374 C243.4692,330.6019 238.8237,333.0604 236.9157,338.8999 C235.0062,344.7394 250.8387,336.8284 250.8387,336.8284 C250.8387,336.8284 264.8832,341.0404 261.7422,335.4904" id="Fill-47" fill="#51342D"></path>
        <path d="M194.88885,335.5006 C196.73835,341.5006 201.66735,345.3061 205.89585,344.0011 C210.12435,342.6976 212.05185,336.7771 210.20235,330.7786 C208.35285,324.7786 203.42385,320.9731 199.19685,322.2781 C194.96685,323.5816 193.03935,329.5006 194.88885,335.5006" id="Fill-49" fill="#B69882"></path>
        <path d="M261.647398,353.945527 C261.88713,353.747946 262.241642,353.782116 262.439223,354.021848 C262.636804,354.26158 262.602634,354.616092 262.362902,354.813673 L262.170984,354.963764 C262.113708,355.007094 262.046696,355.056871 261.969983,355.112691 C261.655722,355.341359 261.281895,355.595079 260.849025,355.867505 C259.618739,356.64178 258.158729,357.4145 256.473247,358.134735 C248.15916,361.687485 237.832071,362.690926 225.642102,359.604897 C225.340943,359.528655 225.158611,359.222711 225.234853,358.921552 C225.311095,358.620393 225.617039,358.438061 225.918198,358.514303 C237.861467,361.537876 247.937397,360.55884 256.031184,357.100227 C257.660742,356.40389 259.068447,355.658853 260.249803,354.915371 C260.578767,354.708339 260.870446,354.513621 261.124547,354.334441 L261.487156,354.070453 C261.562274,354.013724 261.615729,353.971627 261.647398,353.945527 Z" id="Stroke-51" fill="#7C5B4D" fill-rule="nonzero"></path>
        <path d="M249.977034,351.761655 C250.27891,351.688303 250.583093,351.873558 250.656445,352.175434 L250.697288,352.360086 C250.727196,352.506329 250.761659,352.69767 250.795834,352.926991 C250.961689,354.039925 250.993307,355.205915 250.803607,356.311022 C250.469489,358.257437 249.490066,359.700765 247.715755,360.339044 C247.423434,360.444202 247.101214,360.292476 246.996056,360.000155 C246.890898,359.707834 247.042624,359.385614 247.334945,359.280456 C248.680508,358.796412 249.423453,357.70157 249.694824,356.12069 C249.861388,355.150367 249.832836,354.097433 249.683122,353.092814 L249.616678,352.695426 C249.59603,352.585749 249.577553,352.49991 249.563255,352.441066 C249.489903,352.13919 249.675158,351.835007 249.977034,351.761655 Z" id="Stroke-53" fill="#7C5B4D" fill-rule="nonzero"></path>
        <path d="M203.438748,327.987932 C204.997981,328.897145 206.073081,330.589573 206.459271,333.184291 C206.497703,333.442507 206.353424,333.69323 206.11086,333.789746 C204.181149,334.557576 203.411227,335.338028 203.463805,336.079765 C203.509969,336.731028 204.166331,337.521806 205.344301,338.378725 C205.595521,338.561477 205.651026,338.91328 205.468275,339.164501 C205.285523,339.415721 204.93372,339.471226 204.682499,339.288475 C203.256456,338.251093 202.418318,337.241313 202.34162,336.15931 C202.252976,334.908759 203.19761,333.848097 205.178207,332.962276 L205.273,332.921 L205.241048,332.752871 C204.864993,330.93009 204.093612,329.746877 203.040634,329.063537 L202.872051,328.959775 C202.031715,328.469763 201.14568,328.333869 200.419743,328.392913 L200.339755,328.400964 C200.032484,328.446724 199.746295,328.234727 199.700536,327.927455 C199.654776,327.620184 199.866773,327.333995 200.174045,327.288236 L200.328541,327.271616 C201.264182,327.195515 202.370906,327.365257 203.438748,327.987932 Z" id="Stroke-55" fill="#7C5B4D" fill-rule="nonzero"></path>
        <path d="M324.5694,542.81995 C314.1129,549.20995 301.4814,556.33495 266.7654,563.86795 C248.6739,567.79195 224.9229,567.34345 199.1799,564.06745 C145.6374,557.25295 168.5184,487.10845 168.5184,487.10845 C165.3444,473.13445 165.3819,457.85095 165.3819,457.85095 C152.8239,423.39595 158.4489,387.68095 158.4489,387.68095 C177.0324,379.23295 184.6329,375.85495 202.5684,374.35495 C212.9739,373.48495 224.8389,390.94195 235.9194,389.51245 C249.2694,387.79045 255.0639,363.74095 269.2239,365.21095 C285.6249,366.91345 309.7104,366.82345 325.6944,373.31995 C341.3964,385.01995 339.5124,465.09745 333.0864,509.12545 C333.0864,509.12545 344.8419,530.43145 324.5694,542.81995" id="Fill-57" fill="#E4EBF7"></path>
        <path d="M207.4968,381.24265 C207.4968,381.24265 217.8423,433.89265 231.2223,457.41565 C254.0328,400.32415 269.1393,365.79265 269.9583,365.57965 L234.6333,387.14065 L207.4968,381.24265 Z" id="Fill-59" fill="#FFFFFF"></path>
        <polygon id="Fill-61" fill="#253368" points="219.6792 396.08725 231.5562 384.91975 247.1427 394.57975 240.6822 406.46425 223.8087 408.53275"></polygon>
        <polygon id="Fill-63" fill="#253368" points="218.41725 425.4625 224.08575 408.3295 240.86625 406.369 246.54975 418.774 231.97875 459.028"></polygon>
        <polygon id="Fill-65" fill="#FFFFFF" points="212.25105 401.8039 232.99005 385.2079 209.03355 371.8489 205.82355 375.9079"></polygon>
        <polygon id="Fill-67" fill="#FFFFFF" points="232.98945 385.20715 254.26545 397.46065 270.37695 365.53015 265.59345 360.98665"></polygon>
        <polygon id="Fill-69" fill="#FFFFFF" points="211.5567 402.98965 232.1022 384.88615 208.3032 369.87115 204.9357 375.58615"></polygon>
        <path d="M233.349782,384.786468 L208.049521,368.824309 L204.135348,375.46707 L211.119677,404.374344 L233.349782,384.786468 Z M208.556,370.917 L230.854,384.985 L211.993,401.604 L205.735,375.704 L208.556,370.917 Z" id="Stroke-71" fill="#E4EBF7" fill-rule="nonzero"></path>
        <polygon id="Fill-73" fill="#FFFFFF" points="232.10175 384.8857 254.96025 399.6187 270.99975 365.8537 264.82425 358.7302"></polygon>
        <path d="M271.887514,365.732775 L264.918894,357.694404 L230.818763,384.951061 L255.27143,400.711551 L271.887514,365.732775 Z M264.729,359.766 L270.112,365.974 L254.648,398.525 L233.385,384.82 L264.729,359.766 Z" id="Stroke-75" fill="#E4EBF7" fill-rule="nonzero"></path>
        <path d="M231.188063,457.232158 C231.564363,457.181488 231.913005,457.419243 232.011075,457.775417 L232.031442,457.875363 L236.315442,489.690363 C236.331781,489.811704 236.318165,489.935199 236.275783,490.050065 L236.153904,490.390998 L236.011242,490.803486 C235.833699,491.322894 235.639037,491.914251 235.430814,492.573258 L235.304281,492.976746 C234.571242,495.331662 233.837829,497.982458 233.153184,500.869627 C230.582642,511.709676 229.392276,522.732408 230.34635,532.997468 C231.469167,545.078071 235.510359,555.102924 243.017908,562.414141 C243.314656,562.703128 243.320947,563.17796 243.031959,563.474708 C242.742972,563.771456 242.26814,563.777747 241.971392,563.488759 C234.181004,555.9021 230.006167,545.545718 228.852787,533.136285 C227.881531,522.686367 229.088569,511.509267 231.693659,500.523525 C232.31729,497.893654 232.981122,495.456758 233.649246,493.255786 L233.872064,492.530925 C234.045652,491.973269 234.211064,491.458497 234.366477,490.988796 L234.645794,490.161197 L234.804,489.709 L230.544858,458.075537 C230.494188,457.699237 230.731943,457.350595 231.088117,457.252525 L231.188063,457.232158 Z" id="Stroke-77" fill="#96A7CA" fill-rule="nonzero"></path>
        <path d="M164.077122,451.579942 C164.453911,451.533048 164.800151,451.774287 164.894645,452.131426 L164.914008,452.231572 L169.556508,489.533572 C169.571849,489.656838 169.556334,489.781984 169.511355,489.897772 L169.338878,490.361961 L169.060768,491.149264 C168.98201,491.37766 168.900224,491.619264 168.815745,491.873709 L168.687049,492.26496 C168.063828,494.177058 167.440178,496.336839 166.857944,498.698203 C164.444635,508.485844 163.470444,518.50738 164.758991,527.838115 C167.044461,544.387854 176.137005,556.386728 193.816561,562.00195 L194.536798,562.16824 L195.173409,562.307253 C195.509613,562.379202 195.872544,562.454708 196.261667,562.533288 L196.659499,562.612874 C198.986358,563.074073 201.677939,563.535566 204.699863,563.96647 C216.947507,565.712895 230.643955,566.444256 245.142062,565.580607 C264.460154,564.429833 283.290692,560.52672 300.989059,553.294203 C309.877142,549.662048 318.368884,545.227336 326.410257,539.940993 C326.756378,539.713455 327.22142,539.809586 327.448957,540.155707 C327.676495,540.501828 327.580364,540.96687 327.234243,541.194407 C319.110408,546.53496 310.5327,551.014567 301.556489,554.682736 C283.695738,561.981612 264.70516,565.917897 245.231259,567.077953 C230.625849,567.947994 216.830143,567.211332 204.488116,565.451449 C201.43885,565.016646 198.720684,564.550595 196.367863,564.084251 L195.209288,563.848152 C194.849504,563.772659 194.516306,563.700534 194.210229,563.632259 L193.505874,563.469026 C193.471829,563.460621 193.440031,563.452638 193.410281,563.445032 C175.100665,557.631471 165.633929,545.1388 163.273093,528.043314 C161.954848,518.497528 162.946545,508.295898 165.401561,498.339107 C165.99292,495.940739 166.626691,493.745906 167.26089,491.800124 L167.519894,491.019888 C167.603501,490.772763 167.684267,490.538711 167.761858,490.3181 L168.044,489.533 L163.425492,452.416828 C163.378598,452.040039 163.619837,451.693799 163.976976,451.599305 L164.077122,451.579942 Z" id="Stroke-79" fill="#96A7CA" fill-rule="nonzero"></path>
        <path d="M270.77166,365.425538 C270.981121,365.068188 271.440612,364.9483 271.797962,365.15776 C272.155312,365.367221 272.2752,365.826712 272.06574,366.184062 L271.620645,366.951968 C267.724113,373.747714 262.815491,384.188607 257.130741,397.539303 C255.595104,401.145762 254.01438,404.938064 252.395337,408.894751 C247.835214,420.038976 243.174026,431.98064 238.662924,443.922498 L237.243724,447.693057 C236.783723,448.919705 236.337092,450.11518 235.904745,451.276583 L233.571839,457.588458 L232.748907,459.843111 C232.529021,460.450466 231.695368,460.514295 231.385582,459.947496 C226.635921,451.257267 221.862828,439.185999 217.154633,424.583761 C213.85213,414.341206 210.759882,403.415687 207.94991,392.447851 L207.3917,390.25391 C206.516097,386.788588 205.722608,383.532606 205.017895,380.544926 L204.412694,377.951065 L203.66588,374.646408 C203.577731,374.241682 203.834367,373.842129 204.239092,373.75398 C204.610091,373.673177 204.976743,373.882089 205.103173,374.22921 L205.144042,374.384457 L205.379485,375.442378 C205.555054,376.223467 205.757734,377.111872 205.986657,378.09992 L206.477885,380.200791 C207.180817,383.180916 207.972418,386.429151 208.845994,389.886444 C211.795497,401.559504 215.070569,413.232116 218.582259,424.123452 L219.194165,426.005764 C223.275709,438.457711 227.399497,448.964086 231.494998,456.947563 L231.913,457.753 L233.549712,453.310364 C234.474051,450.813385 235.474199,448.132839 236.539757,445.301754 L237.259705,443.392425 C241.775262,431.438775 246.441204,419.484931 251.007066,408.326682 C252.425988,404.859058 253.815666,401.517156 255.171605,398.315275 L256.4057,395.418103 C262.052762,382.240197 266.914399,372.006219 270.77166,365.425538 Z" id="Stroke-81" fill="#96A7CA" fill-rule="nonzero"></path>
        <path d="M263.044752,489.351077 C263.441332,489.231508 263.859754,489.456071 263.979323,489.852652 C264.098892,490.249232 263.874329,490.667654 263.477748,490.787223 C242.706072,497.049869 226.036614,498.472996 214.03471,497.165432 L213.260831,497.075206 C213.015034,497.044559 212.781419,497.013417 212.560049,496.982011 L211.932733,496.887227 C211.573842,496.829413 211.329004,496.783724 211.19987,496.756378 C210.794643,496.670564 210.535708,496.272497 210.621522,495.86727 C210.707336,495.462043 211.105403,495.203108 211.51063,495.288922 L212.034876,495.384016 L212.773391,495.49726 C213.199268,495.55765 213.674023,495.61726 214.197168,495.674255 C226.002324,496.960385 242.469383,495.554537 263.044752,489.351077 Z" id="Stroke-83" fill="#96A7CA" fill-rule="nonzero"></path>
        <path d="M250.848126,480.451046 C251.252705,480.362225 251.652684,480.618198 251.741504,481.022776 C251.830325,481.427355 251.574352,481.827334 251.169774,481.916154 L250.813022,481.990194 C249.609131,482.227437 247.70317,482.491051 245.170011,482.779155 L243.923478,482.91745 C241.694923,483.158968 239.092719,483.41245 236.191442,483.673922 C233.136907,483.949206 229.892004,484.220931 226.623371,484.480121 L220.234836,484.967662 C219.821693,484.997422 219.462649,484.686629 219.432888,484.273486 C219.403128,483.860343 219.713921,483.501299 220.127064,483.471538 L224.459272,483.145169 L227.901344,482.873181 C230.225268,482.685904 232.52479,482.492911 234.739001,482.297493 L238.169204,481.986015 C239.766685,481.836435 241.255858,481.689955 242.621698,481.547396 L244.590138,481.335023 C247.552636,481.003713 249.690804,480.705123 250.848126,480.451046 Z" id="Stroke-85" fill="#96A7CA" fill-rule="nonzero"></path>
        <path d="M158.925993,425.286475 C159.339171,425.257201 159.69785,425.568416 159.727125,425.981593 C160.456568,436.276818 162.052954,445.621863 164.711323,453.310007 C164.846684,453.701479 164.639065,454.128561 164.247593,454.263923 C163.856121,454.399284 163.429039,454.191665 163.293677,453.800193 C160.585965,445.969342 158.968816,436.502758 158.230875,426.087607 C158.201601,425.674429 158.512816,425.31575 158.925993,425.286475 Z" id="Stroke-87" fill="#96A7CA" fill-rule="nonzero"></path>
        <g id="分组" transform="translate(406.500000, 483.754000)">
            <mask id="mask-4" fill="white">
                <use xlink:href="#path-3"></use>
            </mask>
            <g id="Clip-90"></g>
            <path d="M43.8342,24.5601 C43.8342,24.5601 33.0927,2.0151 18.6747,0.7956 C5.6142,-0.3069 1.8867,12.3906 1.8867,12.3906 C1.8867,12.3906 0.4377,22.5966 2.7432,33.9771 C4.2537,41.4336 4.4082,55.8981 9.5247,56.4036 C16.1982,57.0606 12.9267,42.2436 17.0637,40.3011 C25.4487,36.3666 33.7512,59.3106 37.6587,62.5116 C45.2997,68.7696 56.9832,51.5316 43.8342,24.5601" id="Fill-89" fill="#B69882" mask="url(#mask-4)"></path>
        </g>
        <path d="M438.025254,523.000839 C438.234715,522.81439 438.555663,522.833044 438.742111,523.042504 L439.108743,523.470955 L439.215604,523.599317 C439.587477,524.047971 440.00132,524.56841 440.446649,525.154998 C441.717755,526.829304 442.988466,528.700082 444.174855,530.722603 C446.859028,535.298501 448.714885,539.960543 449.366978,544.516662 C449.406709,544.794255 449.213882,545.051497 448.936288,545.091228 C448.658695,545.130959 448.401453,544.938132 448.361722,544.660538 C447.730761,540.252067 445.921759,535.70773 443.298931,531.236411 C442.134176,529.250771 440.885805,527.412881 439.637828,525.769042 C439.288748,525.309233 438.959822,524.89142 438.656431,524.518545 L438.238615,524.013934 C438.123029,523.876991 438.036982,523.777679 437.983589,523.717696 C437.79714,523.508235 437.815794,523.187287 438.025254,523.000839 Z" id="Stroke-91" fill="#7C5B4D" fill-rule="nonzero"></path>
        <path d="M443.99171,518.202067 C444.219794,518.038928 444.536943,518.091576 444.700083,518.31966 C448.583972,523.749698 451.233408,528.996514 452.874066,533.86406 C453.449809,535.57219 453.858229,537.112259 454.127631,538.459866 C454.222397,538.933906 454.293026,539.350688 454.343056,539.70717 L454.392076,540.099503 C454.3943,540.121315 454.396096,540.140375 454.397492,540.156657 C454.421458,540.436054 454.214389,540.681977 453.934993,540.705942 C453.655596,540.729908 453.409673,540.522839 453.385708,540.243443 L453.352637,539.959731 L453.337412,539.848307 C453.290081,539.511061 453.222726,539.113594 453.131835,538.658937 C452.870788,537.353126 452.473461,535.854886 451.911759,534.188415 C450.302573,529.414242 447.69854,524.257339 443.874117,518.91044 C443.710978,518.682356 443.763626,518.365207 443.99171,518.202067 Z" id="Stroke-93" fill="#7C5B4D" fill-rule="nonzero"></path>
        <path d="M447.534385,512.616688 C447.750197,512.437629 448.070303,512.467423 448.249362,512.683235 L448.410155,512.885436 C448.519677,513.027278 448.662227,513.218384 448.834673,513.459168 C449.290239,514.095272 449.796677,514.861945 450.341153,515.760878 C451.892036,518.321398 453.441065,521.431242 454.885531,525.10381 C455.346958,526.276994 455.791179,527.492632 456.216156,528.750985 C456.305883,529.016665 456.163245,529.304779 455.897565,529.394506 C455.631885,529.484233 455.343771,529.341595 455.254044,529.075915 C454.834391,527.83333 454.395868,526.633283 453.940499,525.475502 C452.517408,521.857279 450.994055,518.798983 449.472557,516.286978 C448.941699,515.410528 448.449612,514.665582 448.009068,514.050452 L447.675848,513.596852 C447.585111,513.477124 447.515242,513.388798 447.467838,513.331665 C447.288779,513.115853 447.318573,512.795747 447.534385,512.616688 Z" id="Stroke-95" fill="#7C5B4D" fill-rule="nonzero"></path>
        <path d="M402.36285,489.51655 C406.37085,495.48955 415.55835,497.68105 422.88135,494.41105 C430.20435,491.14105 432.89235,483.65005 428.88285,477.67705 C424.87335,471.70405 415.68735,469.51405 408.36435,472.78255 C401.04135,476.05255 398.35335,483.54505 402.36285,489.51655" id="Fill-97" fill="#B69882"></path>
        <path d="M124.012725,400.693469 C124.351632,400.522264 124.758941,400.632617 124.968331,400.936974 L125.020331,401.024725 L143.275331,437.161225 C143.4621,437.530941 143.313791,437.982062 142.944075,438.168831 C142.605168,438.340036 142.197859,438.229683 141.988469,437.925326 L141.936469,437.837575 L123.681469,401.701075 C123.4947,401.331359 123.643009,400.880238 124.012725,400.693469 Z" id="Stroke-99" fill="#96A7CA" fill-rule="nonzero"></path>
        <path d="M403.5186,440.9305 L403.5186,440.9305 C409.8621,424.444 402.1206,405.8845 385.9431,398.794 L328.2231,373.4935 C310.5111,365.7295 289.8786,374.0425 282.4971,391.9165 C275.1006,409.828 283.9041,430.315 301.9896,437.2735 L360.8061,459.9055 C377.8401,466.4605 396.9636,457.9645 403.5186,440.9305" id="Fill-101" fill="#E4EBF7"></path>
        <path d="M405.30195,505.58215 L431.39145,495.66565 C438.19245,493.08115 441.29145,486.58615 438.42195,480.93265 L404.17395,413.44915 C396.63645,400.25815 377.41395,394.54915 361.23945,400.69615 C345.06645,406.84465 338.06595,422.51965 345.60495,435.71065 L386.94645,500.49715 C390.40995,505.92565 398.50095,508.16665 405.30195,505.58215" id="Fill-103" fill="#E4EBF7"></path>
        <path d="M315.983096,436.963861 C316.135548,436.578723 316.571351,436.390094 316.956489,436.542546 L320.137465,437.796521 C329.903519,441.630254 338.453282,444.835305 345.786758,447.454657 L348.578894,448.444356 C350.196808,449.013207 351.676806,449.525019 353.01889,449.981434 L355.288217,450.744337 L357.449183,451.447548 C357.584269,451.489769 357.703937,451.569104 357.795087,451.675531 L357.857898,451.760275 L389.497398,501.398275 C389.720038,501.747566 389.617366,502.211208 389.268075,502.433848 C388.950538,502.636248 388.538496,502.569795 388.298931,502.293613 L388.232502,502.204525 L356.739,452.796 L355.160332,452.282065 L353.035641,451.571101 C351.55891,451.071268 349.907647,450.50155 348.081853,449.859612 L345.28282,448.867472 C337.147414,445.961697 327.521277,442.337731 316.404411,437.937254 C316.019273,437.784802 315.830644,437.348999 315.983096,436.963861 Z" id="Stroke-105" fill="#96A7CA" fill-rule="nonzero"></path>
        <path d="M311.721874,375.261479 C312.049639,375.008214 312.520657,375.068609 312.773921,375.396374 C313.027186,375.724139 312.966791,376.195157 312.639026,376.448421 L312.534367,376.532936 C312.447053,376.605523 312.32523,376.710678 312.172331,376.848878 C311.781948,377.201732 311.344716,377.632223 310.872187,378.141965 C309.513784,379.607345 308.152247,381.409464 306.879473,383.561537 C300.848938,393.758281 298.926414,407.601131 303.614974,425.500911 C303.71993,425.901606 303.480185,426.311518 303.079489,426.416474 C302.678794,426.52143 302.268882,426.281685 302.163926,425.880989 C297.374052,407.594418 299.353772,393.339744 305.588371,382.797956 C306.917203,380.551097 308.343101,378.663789 309.772133,377.122219 C310.191361,376.669976 310.586707,376.274145 310.951415,375.933704 L311.166509,375.736078 C311.424962,375.502472 311.613964,375.344861 311.721874,375.261479 Z" id="Stroke-107" fill="#96A7CA" fill-rule="nonzero"></path>
        <path d="M217.34355,652.7008 C238.62555,659.1328 249.75855,683.2783 241.70655,705.5563 C226.24155,748.3483 204.20805,809.2618 204.20805,809.2618 L204.20805,809.2633 C207.23205,818.3968 196.21755,837.4123 185.17305,828.4258 C164.96955,811.9873 142.57305,813.7318 136.50255,804.8953 C130.43505,796.0618 141.56205,785.1058 141.56655,785.1013 L141.56655,785.0998 C141.56655,785.0998 156.91305,725.5783 167.71755,682.9588 C173.51505,660.0868 196.14405,646.2943 217.34355,652.7008" id="Fill-109" fill="#4E5C93"></path>
        <path d="M178.4256,719.8771 L178.4256,719.8771 C162.3366,705.7261 161.9001,679.4716 177.4341,660.1726 L239.0016,583.6831 C257.2896,560.9611 288.5046,555.8761 307.4556,572.5306 C326.2911,589.0861 325.3971,620.4481 305.4876,641.5291 L238.0611,712.9216 C220.9341,731.0566 194.6241,734.1241 178.4256,719.8771" id="Fill-111" fill="#4E5C93"></path>
        <path d="M221.495941,567.393279 C221.905334,567.45629 222.186132,567.839248 222.123121,568.248641 L222.02627,568.910776 C221.533477,572.451468 221.158248,577.836293 220.887768,584.568294 C220.728082,588.542731 220.613325,592.770648 220.536216,597.026871 L220.478871,600.711362 L220.438345,605.011892 C220.437891,605.131597 220.408805,605.248853 220.354247,605.354133 L220.291315,605.455069 L174.679315,667.117069 C174.432985,667.450078 173.963339,667.520345 173.630331,667.274015 C173.327596,667.050079 173.242003,666.641584 173.414013,666.318968 L173.473385,666.225031 L218.939,604.76 L218.950866,603.243095 C218.963457,601.842048 218.982481,600.281021 219.009241,598.599967 C219.085706,593.796503 219.208788,588.992837 219.388977,584.508075 L219.499774,581.951461 C219.780471,575.941511 220.155679,571.17094 220.640579,568.020459 C220.698339,567.645182 221.024944,567.37796 221.394314,567.384217 L221.495941,567.393279 Z" id="Stroke-113" fill="#3B4A7A" fill-rule="nonzero"></path>
        <path d="M318.59381,553.125056 C318.968117,552.947668 319.415355,553.107302 319.592744,553.48161 C319.770132,553.855917 319.610498,554.303155 319.23619,554.480544 C289.867122,568.398868 263.140926,575.501843 239.095867,576.947794 C220.743686,578.051403 205.147617,575.820638 192.346968,571.420001 C188.646557,570.147866 185.463407,568.783442 182.800221,567.417047 C181.99829,567.005603 181.292594,566.618673 180.683335,566.263362 L180.386743,566.088375 C179.978088,565.844379 179.701398,565.667598 179.556992,565.569307 C179.214571,565.336238 179.125924,564.869712 179.358993,564.527292 C179.592062,564.184871 180.058588,564.096224 180.401008,564.329293 L180.591623,564.454023 C180.728336,564.541187 180.916394,564.657584 181.155711,564.800474 C181.80169,565.186169 182.578219,565.617237 183.484957,566.082455 C186.085553,567.416737 189.202982,568.75299 192.834628,570.001486 C205.452761,574.339376 220.852944,576.542123 239.005827,575.450498 C262.854923,574.016332 289.394382,566.962986 318.59381,553.125056 Z" id="Stroke-115" fill="#3B4A7A" fill-rule="nonzero"></path>
    </g>
</svg>