<svg xmlns="http://www.w3.org/2000/svg" xmlns:xlink="http://www.w3.org/1999/xlink" width="512" height="1024" version="1.1" viewBox="0 0 512 1024"><title>2.人物组件/6.产品经理/坐姿/打招呼</title><desc>Created with Sketch.</desc><defs><polygon id="path-1" points=".13 1.209 69.991 1.209 69.991 51.489 .13 51.489"/><polygon id="path-3" points="0 1.455 51.714 1.455 51.714 39 0 39"/><polygon id="path-5" points=".806 1.455 52.519 1.455 52.519 39 .806 39"/><polygon id="path-7" points="1.439 .017 47.339 .017 47.339 95.155 1.439 95.155"/></defs><g id="2.人物组件/6.产品经理/坐姿/打招呼" fill="none" fill-rule="evenodd" stroke="none" stroke-width="1"><path id="Fill-1" fill="#CE998A" d="M269.76315,428.9836 L268.69365,406.5781 L238.97565,406.5961 L238.24815,429.1411 C237.92415,437.8666 244.85865,445.1431 253.59015,445.2376 C253.75665,445.2406 253.92165,445.2421 254.08965,445.2436 C263.01915,445.3456 270.18915,437.9026 269.76315,428.9836"/><path id="Fill-3" fill="#CE998A" d="M280.93395,378.64135 C280.93395,378.64135 288.52245,370.00285 292.92795,378.17335 C297.11445,385.93585 288.49545,396.53035 281.18745,394.40185 C277.99395,387.13135 280.93395,378.64135 280.93395,378.64135"/><path id="Fill-5" fill="#CE998A" d="M228.03405,378.64135 C228.03405,378.64135 220.44405,370.00285 216.03855,378.17335 C211.85205,385.93585 220.47255,396.53035 227.77905,394.40185 C230.97405,387.13135 228.03405,378.64135 228.03405,378.64135"/><path id="Fill-7" fill="#CE998A" d="M284.04675,380.4739 C284.04675,407.3104 270.71625,414.4054 254.27175,414.4054 C237.82875,414.4054 225.62325,407.5924 224.49825,380.4739 C223.46025,355.5259 237.82875,347.1499 254.27175,347.1499 C270.71625,347.1499 284.04675,356.9119 284.04675,380.4739"/><path id="Fill-9" fill="#FFF" d="M256.64985,383.4292 C256.71585,388.8487 261.16185,393.1897 266.58135,393.1237 C272.00085,393.0592 276.34185,388.6132 276.27735,383.1937 C276.21135,377.7727 271.76535,373.4332 266.34585,373.4977 C260.92635,373.5622 256.58535,378.0097 256.64985,383.4292"/><path id="Stroke-11" fill="#7D4556" fill-rule="nonzero" d="M266.337621,372.806249 C260.536564,372.87529 255.88935,377.63573 255.958399,383.437429 C256.029056,389.239337 260.788734,393.885795 266.589771,393.815149 C272.390886,393.746107 277.037847,388.98692 276.968801,383.185471 C276.899313,377.47798 272.294069,372.889828 266.622092,372.806639 L266.337621,372.806249 Z M266.354079,374.189151 C271.39215,374.129191 275.524554,378.163296 275.585901,383.202118 C275.645855,388.239641 271.610653,392.372295 266.573121,392.432249 C261.535733,392.493595 257.402653,388.45883 257.341299,383.420779 C257.281341,378.382944 261.316862,374.249101 266.354079,374.189151 Z"/><path id="Stroke-13" fill="#7D4556" fill-rule="nonzero" d="M264.065529,383.903778 C264.023781,384.241824 263.737595,384.505412 263.387541,384.509651 C263.037486,384.513789 262.745076,384.257123 262.695252,383.920173 L262.687817,383.826423 C262.684362,383.259358 262.789198,382.49305 263.114664,381.715696 C263.688511,380.345102 264.785483,379.476134 266.439973,379.4562 C268.082611,379.436419 269.241569,380.214812 269.936264,381.481471 C270.332966,382.204793 270.505013,382.916148 270.549604,383.419648 C270.583295,383.800064 270.302218,384.135763 269.921802,384.169454 C269.541386,384.203145 269.205687,383.922068 269.171996,383.541652 C269.165632,383.469796 269.142666,383.320914 269.094648,383.122378 C269.01362,382.787354 268.89175,382.452998 268.723662,382.146518 C268.260485,381.301992 267.551647,380.825913 266.456631,380.8391 C265.3998,380.851833 264.765205,381.354529 264.390364,382.249812 C264.251561,382.581333 264.160752,382.944321 264.110703,383.31016 C264.092222,383.445246 264.081313,383.562853 264.075674,383.656939 L264.065529,383.903778 Z"/><path id="Stroke-15" fill="#7D4556" fill-rule="nonzero" d="M234.764149,370.434866 C237.795875,368.51448 242.306339,368.51448 248.456614,371.589186 C248.798209,371.75996 248.936688,372.175318 248.765914,372.516914 C248.59514,372.858509 248.179782,372.996988 247.838186,372.826214 C242.100128,369.957587 238.102147,369.957587 235.504207,371.6032 C235.139899,371.833964 234.840793,372.07897 234.603268,372.320798 L234.467795,372.465552 C234.412959,372.527522 234.377315,372.573009 234.360167,372.598081 C234.144565,372.913307 233.714244,372.994068 233.399019,372.778467 C233.083793,372.562865 233.003032,372.132544 233.218633,371.817319 C233.471924,371.446988 233.975163,370.934634 234.764149,370.434866 Z"/><path id="Stroke-17" fill="#7D4556" fill-rule="nonzero" d="M267.67485,368.92025 C269.577763,368.818465 271.2739,369.123401 272.697168,369.914246 C273.030999,370.09974 273.151249,370.520737 272.965754,370.854568 C272.78026,371.188399 272.359263,371.308649 272.025432,371.123154 C270.853097,370.471741 269.410504,370.212389 267.748719,370.301276 C266.033724,370.393009 264.177345,370.847032 262.304031,371.547962 C261.559391,371.826581 260.864023,372.125204 260.23799,372.423427 L259.819708,372.627692 C259.661719,372.70702 259.541869,372.770116 259.463845,372.813164 C259.129457,372.997652 258.708824,372.876133 258.524336,372.541745 C258.339848,372.207357 258.461367,371.786724 258.795755,371.602236 L259.070727,371.456878 C259.223238,371.378722 259.415257,371.283446 259.643211,371.174856 C260.303657,370.860241 261.035329,370.546027 261.819375,370.252664 C263.813811,369.506414 265.800571,369.020503 267.67485,368.92025 Z"/><path id="Stroke-19" fill="#965C56" fill-rule="nonzero" d="M250.146277,374.803533 C250.423174,374.662687 250.761822,374.772979 250.902667,375.049877 L251.027578,375.309196 C251.078806,375.419711 251.139023,375.553752 251.206426,375.70968 C251.429248,376.225152 251.651684,376.801552 251.85924,377.425923 C252.540421,379.47505 252.907461,381.547613 252.791338,383.503784 C252.721534,384.695805 252.504835,385.78297 252.105128,387.180359 L251.571631,388.99282 C251.116902,390.572601 251.106139,390.853286 251.254672,391.397158 C251.475958,392.207426 252.458833,392.726669 254.755187,392.976705 C255.064022,393.010332 255.287122,393.287952 255.253495,393.596787 C255.219868,393.905622 254.942248,394.128722 254.633413,394.095095 C251.92777,393.800495 250.545382,393.070192 250.169416,391.693544 L250.102256,391.43213 C249.948252,390.772662 250.005212,390.348517 250.518901,388.581311 L250.901648,387.287657 C251.359264,385.753869 251.597586,384.644926 251.668288,383.437567 C251.774768,381.643849 251.431496,379.705495 250.791681,377.780806 C250.63427,377.307281 250.467899,376.863038 250.299933,376.455099 L250.173775,376.156062 C250.04866,375.866624 249.952564,375.663395 249.899933,375.559923 C249.759087,375.283026 249.869379,374.944378 250.146277,374.803533 Z"/><path id="Stroke-21" fill="#7D4556" fill-rule="nonzero" d="M245.607425,395.892598 C245.693306,395.577698 246.018203,395.392043 246.333102,395.477925 L246.538524,395.530023 C246.629385,395.551992 246.742299,395.578279 246.876267,395.608032 C247.327612,395.708271 247.847312,395.808763 248.427359,395.902701 C252.409975,396.547682 256.725623,396.547682 260.859801,395.476009 C261.175758,395.394105 261.498288,395.583844 261.580191,395.899801 C261.662095,396.215758 261.472356,396.538288 261.156399,396.620191 C256.842244,397.738518 252.369447,397.738518 248.238397,397.069499 C247.75584,396.991349 247.312396,396.908635 246.912085,396.824877 L246.620002,396.761918 C246.333262,396.698236 246.131338,396.648068 246.022098,396.618275 C245.707198,396.532394 245.521543,396.207497 245.607425,395.892598 Z"/><path id="Fill-23" fill="#FFF" d="M231.87345,383.4292 C231.93795,388.8487 236.38395,393.1897 241.80345,393.1237 C247.22295,393.0592 251.56545,388.6132 251.49945,383.1937 C251.43495,377.7727 246.98745,373.4332 241.56945,373.4977 C236.14995,373.5622 231.80745,378.0097 231.87345,383.4292"/><path id="Stroke-25" fill="#7D4556" fill-rule="nonzero" d="M241.561221,372.806249 C235.759625,372.875296 231.111352,377.636312 231.182001,383.437621 C231.251046,389.239019 236.010556,393.885799 241.811871,393.815149 C247.613525,393.746101 252.261545,388.986337 252.190899,383.185279 C252.123002,377.478776 247.516968,372.889844 241.845656,372.806639 L241.561221,372.806249 Z M241.577679,374.189151 C246.61496,374.129183 250.748056,378.163965 250.807999,383.201927 C250.869344,388.239176 246.833262,392.372289 241.795221,392.432249 C236.757652,392.493598 232.624857,388.458689 232.564901,383.420971 C232.503552,378.38341 236.539953,374.249107 241.577679,374.189151 Z"/><path id="Stroke-27" fill="#7D4556" fill-rule="nonzero" d="M239.287629,383.903778 C239.245881,384.241824 238.959695,384.505412 238.609641,384.509651 C238.259586,384.513789 237.967176,384.257123 237.917352,383.920173 L237.909917,383.826423 C237.906462,383.25933 238.011357,382.492979 238.337002,381.715583 C238.91112,380.345019 240.008525,379.476131 241.663569,379.4562 C243.305556,379.436417 244.464312,380.21479 245.159247,381.481366 C245.556071,382.204612 245.728367,382.915904 245.773177,383.419344 C245.807036,383.799745 245.526107,384.135568 245.145706,384.169427 C244.765305,384.203286 244.429482,383.922357 244.395623,383.541956 L244.379422,383.420483 C244.36679,383.343011 244.346955,383.241751 244.318096,383.122614 C244.236934,382.787548 244.114943,382.453148 243.946761,382.146623 C243.483347,381.302014 242.774584,380.825915 241.680227,380.8391 C240.622652,380.851836 239.987646,381.354612 239.612607,382.249924 C239.473742,382.58143 239.382892,382.944399 239.332821,383.31022 C239.314332,383.445296 239.303418,383.562891 239.297776,383.656966 L239.287629,383.903778 Z"/><g id="分组" transform="translate(250.500000, 377.791000)"><path id="Fill-29" fill="#FFF" d="M0.99945,2.4024 C0.99945,2.4024 3.67095,0.9984 6.15045,2.4024"/><path id="Stroke-31" stroke="#7D4556" stroke-width="1.383" d="M0.99945,2.4024 C0.99945,2.4024 3.67095,0.9984 6.15045,2.4024"/></g><path id="Stroke-32" fill="#965C56" fill-rule="nonzero" d="M268.908074,411.343096 C269.195651,411.225583 269.524041,411.363447 269.641554,411.651024 C269.759067,411.938601 269.621203,412.266991 269.333626,412.384504 C259.48961,416.407084 249.412465,415.80472 240.524837,412.746695 C240.23108,412.64562 240.07488,412.325545 240.175955,412.031787 C240.27703,411.73803 240.597105,411.58183 240.890863,411.682905 C249.543759,414.660164 259.355329,415.246653 268.908074,411.343096 Z"/><path id="Stroke-34" fill="#965C56" fill-rule="nonzero" d="M256.17225,400.99855 C256.48291,400.99855 256.73475,401.25039 256.73475,401.56105 C256.73475,401.840644 256.53076,402.072594 256.26349,402.116188 L256.17225,402.12355 L251.73825,402.12355 C251.42759,402.12355 251.17575,401.87171 251.17575,401.56105 C251.17575,401.281456 251.37974,401.049506 251.64701,401.005912 L251.73825,400.99855 L256.17225,400.99855 Z"/><path id="Stroke-36" fill="#965C56" fill-rule="nonzero" d="M253.63815,407.1223 C253.917744,407.1223 254.149694,407.32629 254.193288,407.59356 L254.20065,407.6848 L254.20065,413.8093 C254.20065,414.11996 253.94881,414.3718 253.63815,414.3718 C253.358556,414.3718 253.126606,414.16781 253.083012,413.90054 L253.07565,413.8093 L253.07565,407.6848 C253.07565,407.37414 253.32749,407.1223 253.63815,407.1223 Z"/><path id="Stroke-38" fill="#965C56" fill-rule="nonzero" d="M256.096128,408.816474 C256.373151,408.778638 256.630572,408.949362 256.709934,409.208274 L256.729576,409.297678 L257.364076,413.943178 C257.406116,414.250981 257.190674,414.534585 256.882872,414.576626 C256.605849,414.614462 256.348428,414.443738 256.269066,414.184826 L256.249424,414.095422 L255.614924,409.449922 C255.572884,409.142119 255.788326,408.858515 256.096128,408.816474 Z"/><path id="Stroke-40" fill="#965C56" fill-rule="nonzero" d="M250.345477,410.295759 C250.621835,410.338172 250.820157,410.574986 250.822704,410.845775 L250.816141,410.937077 L250.394641,413.683577 C250.347516,413.990642 250.060388,414.201365 249.753323,414.154241 C249.476965,414.111828 249.278643,413.875014 249.276096,413.604225 L249.282659,413.512923 L249.704159,410.766423 C249.746572,410.490065 249.983386,410.291743 250.254175,410.289196 L250.345477,410.295759 Z"/><path id="Stroke-42" fill="#965C56" fill-rule="nonzero" d="M258.350563,409.88643 C258.620723,409.814413 258.897389,409.951775 259.008355,410.198797 L259.03897,410.285063 L259.88347,413.453063 C259.963489,413.753241 259.785015,414.061451 259.484837,414.14147 C259.214677,414.213487 258.938011,414.076125 258.827045,413.829103 L258.79643,413.742837 L257.95193,410.574837 C257.871911,410.274659 258.050385,409.966449 258.350563,409.88643 Z"/><path id="Stroke-44" fill="#965C56" fill-rule="nonzero" d="M217.411129,380.550448 C218.652705,379.077295 220.295713,379.077295 221.84516,381.485537 C222.478495,382.933529 222.421929,383.899057 221.870991,385.247374 L221.558682,385.980774 C221.227424,386.807722 221.248819,387.333379 221.797914,388.156559 C221.960242,388.400196 222.147087,388.596404 222.354142,388.75165 C222.729814,389.03332 223.103255,389.147517 223.353829,389.169417 L223.4418,389.17345 C223.75246,389.17345 224.0043,389.42529 224.0043,389.73595 C224.0043,390.04661 223.75246,390.29845 223.4418,390.29845 C222.974473,390.29845 222.32546,390.136245 221.67927,389.651746 C221.371052,389.420651 221.095545,389.131337 220.861852,388.78059 C220.136224,387.692756 220.060642,386.820515 220.438283,385.762993 L220.580599,385.400557 C220.605873,385.341636 220.648461,385.244027 220.737327,385.040078 C221.268097,383.821945 221.339195,383.136105 220.857536,382.016521 C219.78222,380.354605 219.047451,380.354605 218.271359,381.275452 C218.055625,381.531424 217.901084,381.791378 217.826309,381.950358 C217.694087,382.231476 217.359009,382.35218 217.077892,382.219959 C216.796774,382.087737 216.67607,381.752659 216.808291,381.471542 C216.921183,381.231522 217.122447,380.892976 217.411129,380.550448 Z"/><path id="Stroke-46" fill="#965C56" fill-rule="nonzero" d="M286.130336,381.405379 C287.636687,379.077295 289.279695,379.077295 290.521271,380.550448 C290.809953,380.892976 291.011217,381.231522 291.124109,381.471542 C291.25633,381.752659 291.135626,382.087737 290.854508,382.219959 C290.573391,382.35218 290.238313,382.231476 290.106091,381.950358 C290.031316,381.791378 289.876775,381.531424 289.661041,381.275452 C288.884949,380.354605 288.15018,380.354605 287.11796,381.936363 C286.626002,383.061121 286.657743,383.734208 287.100974,384.81766 L287.418046,385.562439 C287.878667,386.712327 287.841528,387.624767 287.070714,388.780341 C286.836855,389.131337 286.561348,389.420651 286.25313,389.651746 C285.60694,390.136245 284.957927,390.29845 284.4906,390.29845 C284.17994,390.29845 283.9281,390.04661 283.9281,389.73595 C283.9281,389.456356 284.13209,389.224406 284.39936,389.180812 L284.4906,389.17345 C284.73582,389.17345 285.155627,389.068529 285.578258,388.75165 C285.785313,388.596404 285.972158,388.400196 286.134652,388.15631 C286.646985,387.388241 286.699779,386.879131 286.435216,386.142324 L286.297026,385.795691 C286.271572,385.736894 286.231786,385.645664 286.163725,385.489462 C285.519514,384.010979 285.41665,383.018705 286.130336,381.405379 Z"/><g id="分组" transform="translate(219.000000, 337.291000)"><mask id="mask-2" fill="#fff"><use xlink:href="#path-1"/></mask><path id="Fill-48" fill="#7D4556" d="M4.37145,47.5869 C4.37145,47.5869 -0.13455,42.8004 2.11845,36.8874 C-1.82355,29.8494 0.71145,23.0919 4.37145,20.5569 C3.24495,14.3634 7.46745,3.3819 16.19745,2.2554 C21.33495,4.2969 27.45945,4.5084 27.45945,4.5084 C27.45945,4.5084 42.09945,-3.9381 52.23645,6.1974 C62.65245,5.0724 68.00295,16.8969 67.15845,21.1209 C72.78945,28.1589 68.28495,38.8584 68.28495,38.8584 C68.28495,38.8584 67.65645,42.9969 65.75145,48.7134 C63.77895,54.6264 62.93595,47.0244 62.93595,45.3354 C62.93595,43.6464 58.71195,42.2379 60.12045,34.6359 C55.33395,31.2564 56.38995,26.0484 56.38995,26.0484 C56.38995,26.0484 52.93995,29.5674 43.08645,24.7809 C36.04545,30.6939 25.34595,24.7809 25.34595,24.7809 C25.34595,24.7809 16.68945,28.9329 11.62095,25.8369 C11.62095,25.8369 13.02795,30.0594 9.08745,35.9724 C10.49445,41.6034 6.34095,44.2089 7.46745,47.5869 C8.59395,50.9664 5.49795,54.3444 4.37145,47.5869" mask="url(#mask-2)"/></g><path id="Fill-50" fill="#597EF7" d="M157.9647,648.73285 C177.6717,624.78235 195.3267,602.48635 212.3712,583.42885 C212.3712,583.42885 227.8572,572.02135 242.7477,587.39035 C257.3442,602.45635 251.5062,620.13685 251.5062,620.13685 L183.3192,675.52585 C183.3192,675.52585 173.9427,684.07285 159.9387,671.60485 C147.1647,660.23335 157.9647,648.73285 157.9647,648.73285"/><path id="Fill-52" fill="#CE998A" d="M195.75915,758.56915 L195.75915,758.56915 C203.21865,757.70965 202.02915,764.02615 201.14715,771.48115 C200.13165,780.06115 204.80265,825.65815 203.76765,826.93765 C199.20765,832.57465 188.80815,836.16115 179.97165,841.38565 C172.97865,845.52265 171.65415,847.65415 163.10715,848.52865 C150.99315,849.76915 156.97515,845.17315 171.55215,830.27215 C184.53915,816.99715 184.30215,810.24415 184.30215,810.24415 L177.96165,769.79365 C178.12815,764.01265 190.01415,759.23065 195.75915,758.56915"/><g id="分组" transform="translate(153.000000, 814.291000)"><mask id="mask-4" fill="#fff"><use xlink:href="#path-3"/></mask><path id="Fill-54" fill="#7D4556" d="M20.06505,12.2952 C10.65105,21.1542 0.14355,27.9027 0.00405,32.4717 C-0.13395,37.0407 3.10905,41.4477 18.38505,37.4172 C28.83855,34.6602 26.11305,32.2392 36.33105,26.7402 C41.43255,23.9952 45.79005,23.5422 50.55705,20.2482 C53.38755,17.1717 50.13405,1.4547 50.13405,1.4547 L32.41305,19.2372 C32.41305,19.2372 37.55055,10.9377 34.07955,8.7567 C30.60705,6.5757 27.37305,5.0172 25.10355,6.3807 C22.83555,7.7427 20.06505,12.2952 20.06505,12.2952" mask="url(#mask-4)"/></g><path id="Fill-56" fill="#597EF7" d="M153.6654,660.541 C169.2909,739.9405 176.6949,796.5295 176.6949,796.5295 L205.8354,794.8405 L197.0259,661.1035 C197.0259,661.1035 192.6399,643.378 173.7969,642.0985 C156.7929,640.945 153.6654,660.541 153.6654,660.541"/><path id="Fill-58" fill="#597EF7" d="M353.5551,648.73285 C333.8466,624.78235 316.1931,602.48635 299.1486,583.42885 C299.1486,583.42885 283.6611,572.02135 268.7721,587.39035 C254.1756,602.45635 260.0121,620.13685 260.0121,620.13685 L328.2006,675.52585 C328.2006,675.52585 337.5771,684.07285 351.5811,671.60485 C364.3536,660.23335 353.5551,648.73285 353.5551,648.73285"/><path id="Fill-60" fill="#CE998A" d="M315.75915,758.56915 L315.75915,758.56915 C308.29965,757.70965 309.48915,764.02615 310.37265,771.48115 C311.38665,780.06115 306.71715,825.65815 307.75065,826.93765 C312.31065,832.57465 322.71165,836.16115 331.54665,841.38565 C338.54115,845.52265 339.86415,847.65415 348.41265,848.52865 C360.52665,849.76915 354.54315,845.17315 339.96765,830.27215 C326.97915,816.99715 327.21765,810.24415 327.21765,810.24415 L333.55815,769.79365 C333.39165,764.01265 321.50565,759.23065 315.75915,758.56915"/><g id="分组" transform="translate(306.000000, 814.291000)"><mask id="mask-6" fill="#fff"><use xlink:href="#path-5"/></mask><path id="Fill-62" fill="#7D4556" d="M32.454,12.2952 C41.868,21.1542 52.3755,27.9027 52.515,32.4717 C52.6545,37.0407 49.41,41.4477 34.134,37.4172 C23.6805,34.6602 26.406,32.2392 16.188,26.7402 C11.0865,23.9952 6.7305,23.5422 1.9635,20.2482 C-0.8685,17.1717 2.385,1.4547 2.385,1.4547 L20.1075,19.2372 C20.1075,19.2372 14.9685,10.9377 18.4395,8.7567 C21.912,6.5757 25.1475,5.0172 27.4155,6.3807 C29.6835,7.7427 32.454,12.2952 32.454,12.2952" mask="url(#mask-6)"/></g><path id="Fill-64" fill="#597EF7" d="M357.8544,660.541 C342.2274,739.9405 334.8234,796.5295 334.8234,796.5295 L305.6844,794.8405 L314.4939,661.1035 C314.4939,661.1035 318.8784,643.378 337.7229,642.0985 C354.7269,640.945 357.8544,660.541 357.8544,660.541"/><path id="Fill-66" fill="#ADC6FF" d="M274.9926,430.5085 L273.0966,425.0395 L234.7221,424.546 L233.2401,429.7255 C233.2401,429.7255 202.9386,433.4635 199.1376,441.487 C193.8756,452.593 213.1926,517.24 213.4521,531.1525 C207.1776,547.768 216.2961,549.835 216.2961,549.835 L292.5831,548.938 C292.5831,548.938 302.6451,543.2665 295.3161,531.847 C298.3176,511.4215 317.3601,447.6055 307.6776,441.91 C293.3196,433.4635 274.9926,430.5085 274.9926,430.5085"/><path id="Stroke-68" fill="#965C56" fill-rule="nonzero" d="M204.600419,453.213385 C204.91001,453.239132 205.140112,453.510977 205.114365,453.820569 C204.677024,459.079339 205.033761,466.855004 206.022556,476.469278 C206.446698,480.593296 206.976827,484.949327 207.588841,489.440578 C208.106037,493.236011 208.656101,496.943943 209.209803,500.447286 L209.600622,502.882837 C209.719957,503.615083 209.833712,504.302347 209.940917,504.940745 L210.248251,506.738756 C210.302206,507.044695 210.097933,507.336447 209.791994,507.390401 C209.486055,507.444356 209.194303,507.240083 209.140349,506.934144 L208.910852,505.598051 L208.578956,503.605985 C208.491373,503.072513 208.400514,502.513178 208.30679,501.929618 C207.682023,498.039602 207.057276,493.871784 206.474143,489.592475 C205.860553,485.08966 205.328956,480.721574 204.903459,476.584373 L204.755361,475.110011 C203.873309,466.10897 203.571482,458.798671 203.993235,453.727331 C204.018982,453.41774 204.290827,453.187638 204.600419,453.213385 Z"/><path id="Stroke-70" fill="#597EF7" fill-rule="nonzero" d="M236.315002,432.357293 L240.33009,432.451293 C241.769045,432.482542 243.298414,432.513482 244.898913,432.543183 L245.705,432.557926 C251.341484,432.65951 256.918495,432.728787 262.130207,432.751035 L264.820329,432.758218 C267.454309,432.760819 269.917005,432.749535 272.182697,432.723138 C272.493336,432.719519 272.748093,432.968408 272.751826,433.279047 C272.755331,433.589686 272.506442,433.844443 272.195803,433.848062 L269.860647,433.869512 C267.461839,433.886005 264.874912,433.887762 262.125405,433.876025 L258.953646,433.857131 C255.207921,433.828774 251.313478,433.778799 247.375025,433.71226 L244.083179,433.653028 L236.285498,433.481907 C235.974944,433.473759 235.729796,433.215401 235.737746,432.904848 C235.746091,432.594294 236.004449,432.349146 236.315002,432.357293 Z"/><path id="Fill-72" fill="#597EF7" d="M301.6029,602.22415 C299.2089,576.88315 294.3039,565.09315 292.6464,560.30665 C231.5724,562.05265 216.3579,561.25015 216.3579,561.25015 C216.3579,561.25015 213.0729,574.66465 208.4289,601.69465 C208.4289,601.69465 230.3409,625.97965 254.6064,625.97965 C276.4839,625.97965 301.6029,602.22415 301.6029,602.22415"/><path id="Fill-74" fill="#597EF7" d="M292.64685,560.3062 L291.49185,548.8132 L216.70635,549.7102 L216.35835,561.2212 C216.35835,561.2212 255.93735,562.7452 292.64685,560.3062"/><path id="Stroke-76" fill="#1D39C4" fill-rule="nonzero" d="M252.670706,561.269935 C252.956496,561.260941 253.200148,561.461991 253.253305,561.733781 L253.267057,561.931826 L253.474976,568.84645 C253.562975,571.856678 253.650974,574.961967 253.737162,578.117993 L253.939612,585.767181 C254.007193,588.407519 254.070977,590.997551 254.130418,593.523947 L254.286013,600.465277 C254.497983,610.456913 254.61555,618.657332 254.61555,624.5014 C254.61555,624.819102 254.358002,625.07665 254.0403,625.07665 C253.722598,625.07665 253.46505,624.819102 253.46505,624.5014 L253.452592,620.940515 C253.416044,615.321373 253.300104,608.121605 253.118375,599.675478 L252.944065,592.028059 C252.895156,589.987674 252.843537,587.90825 252.789488,585.796619 L252.58709,578.149359 C252.518156,575.625159 252.448064,573.133412 252.37774,570.696818 L252.113835,561.862994 C252.103842,561.545449 252.353162,561.279928 252.670706,561.269935 Z"/><path id="Stroke-78" fill="#1D39C4" fill-rule="nonzero" d="M263.284585,561.271636 C263.601189,561.245256 263.879234,561.48053 263.905614,561.797135 L264.079991,564.077734 L264.226474,566.181311 C264.307342,567.390538 264.38693,568.664579 264.463117,569.989412 C264.736337,574.740524 264.925695,579.435328 264.993534,583.826016 L265.013236,585.470612 C265.047167,589.520333 264.965403,593.102022 264.75032,596.108123 C264.422386,600.266644 262.281133,603.019504 258.952166,604.583752 C257.694766,605.174592 256.353828,605.552553 255.013619,605.762207 C254.544207,605.83564 254.107441,605.882887 253.71383,605.909182 L253.355651,605.927655 L253.196542,605.93065 L253.103043,605.923039 C252.829755,605.878217 252.621349,605.640826 252.621599,605.354895 C252.621851,605.068963 252.830674,604.831939 253.103918,604.787597 L253.197187,604.78015 L253.410522,604.774116 C253.47554,604.771151 253.551564,604.766958 253.637143,604.761241 C253.99802,604.737133 254.401207,604.693518 254.835804,604.625532 C256.075192,604.431649 257.313212,604.082697 258.462882,603.542478 C261.437591,602.144693 263.310049,599.737403 263.603067,596.021849 C263.843792,592.657143 263.915766,588.542187 263.843172,583.84379 C263.783114,579.956793 263.627321,575.8277 263.402153,571.631741 L263.314515,570.055464 C263.223348,568.470147 263.127299,566.957792 263.030034,565.542688 L262.85424,563.104658 L262.759086,561.892665 C262.732706,561.576061 262.96798,561.298016 263.284585,561.271636 Z"/><path id="Stroke-80" fill="#1D39C4" fill-rule="nonzero" d="M285.963955,562.508199 C286.281617,562.503249 286.543205,562.756693 286.548228,563.074355 L286.567585,563.619836 C286.572306,563.719728 286.577989,563.830086 286.58476,563.95043 C286.624449,564.655877 286.688309,565.442799 286.78173,566.2906 C287.04846,568.711202 287.497772,571.130821 288.171116,573.383186 C289.714179,578.544791 292.179709,582.01692 295.712855,583.087415 C296.016907,583.179539 296.188709,583.500702 296.096585,583.804755 C296.004461,584.108807 295.683298,584.280609 295.379245,584.188485 C291.390843,582.980054 288.711122,579.206285 287.068819,573.712718 C286.373504,571.386863 285.911938,568.901247 285.638151,566.416613 C285.561543,565.721389 285.504294,565.065685 285.463567,564.459886 L285.411564,563.522263 C285.403639,563.334772 285.399417,563.190268 285.397799,563.092545 C285.392849,562.774883 285.646293,562.513295 285.963955,562.508199 Z"/><path id="Stroke-82" fill="#1D39C4" fill-rule="nonzero" d="M223.378846,561.983722 C223.696176,561.999073 223.940979,562.268765 223.925628,562.586096 L223.891103,563.125716 C223.883929,563.2232 223.875659,563.330527 223.866213,563.447252 C223.811332,564.125387 223.735111,564.88034 223.634061,565.693091 C223.34516,568.016713 222.914917,570.341133 222.314212,572.515681 C220.79645,578.009963 218.463628,581.657795 215.048924,582.543138 C214.74139,582.622874 214.427447,582.438207 214.347712,582.130674 C214.267976,581.82314 214.452643,581.509197 214.760176,581.429462 C217.652697,580.679507 219.787621,577.341129 221.205247,572.209336 C221.789446,570.094542 222.209856,567.82324 222.492351,565.55114 C222.571501,564.914537 222.635059,564.314477 222.684759,563.760827 L222.753103,562.910363 C222.764826,562.742418 222.772404,562.614602 222.776472,562.530504 C222.791823,562.213174 223.061515,561.968371 223.378846,561.983722 Z"/><path id="Stroke-84" fill="#1D39C4" fill-rule="nonzero" d="M293.18745,561.25285 C293.505152,561.25285 293.7627,561.510398 293.7627,561.8281 C293.7627,562.114032 293.554086,562.351239 293.280759,562.395821 L293.18745,562.40335 L216.68745,562.40335 C216.369748,562.40335 216.1122,562.145802 216.1122,561.8281 C216.1122,561.542168 216.320814,561.304961 216.594141,561.260379 L216.68745,561.25285 L293.18745,561.25285 Z"/><path id="Stroke-86" fill="#1D39C4" fill-rule="nonzero" d="M290.89095,549.25285 C291.208652,549.25285 291.4662,549.510398 291.4662,549.8281 C291.4662,550.114032 291.257586,550.351239 290.984259,550.395821 L290.89095,550.40335 L216.68745,550.40335 C216.369748,550.40335 216.1122,550.145802 216.1122,549.8281 C216.1122,549.542168 216.320814,549.304961 216.594141,549.260379 L216.68745,549.25285 L290.89095,549.25285 Z"/><path id="Fill-88" fill="#ADC6FF" d="M284.6796,469.4506 C284.6796,469.4506 274.5831,451.0396 291.6036,442.0756 C308.9616,432.9346 318.4506,451.9621 318.4506,451.9621 C318.4506,451.9621 325.6896,464.6971 333.9561,480.3916 C340.4121,492.6556 345.4161,502.0411 348.8016,510.2821 C352.4556,519.1741 349.5231,529.4731 341.5491,533.6716 C329.4336,540.0526 320.5611,535.3396 315.7236,527.0866 C311.0211,519.0631 305.0076,508.0411 300.0216,499.0801 C290.4306,481.8541 284.6796,469.4506 284.6796,469.4506"/><path id="Fill-90" fill="#CE998A" d="M358.87395,420.56005 C358.87395,420.56005 358.57545,438.81655 350.76945,442.37605 C343.69845,445.59955 338.36295,437.13655 338.36295,437.13655 C338.36295,437.13655 334.94595,430.04455 333.34245,421.40905 C332.29095,415.74955 328.69095,405.29155 331.44345,403.97455 C335.02995,402.26005 336.96795,413.55505 339.79095,414.18505 C345.51495,415.46455 344.33895,397.37305 345.72195,394.33855 C348.42795,388.40455 359.39895,398.66305 358.87395,420.56005"/><path id="Stroke-92" fill="#965C56" fill-rule="nonzero" d="M348.671136,394.124052 C348.973676,394.05349 349.276136,394.241546 349.346698,394.544086 C349.447186,394.974936 349.537455,395.412091 349.61775,395.855245 C350.391816,400.127392 350.224206,404.679877 349.478185,409.038953 C349.366397,409.69214 349.248147,410.297057 349.128494,410.846918 L348.933665,411.690613 C348.892521,411.857743 348.859147,411.985329 348.835381,412.07089 C348.75224,412.370218 348.442188,412.545473 348.14286,412.462331 C347.843532,412.37919 347.668277,412.069138 347.751419,411.76981 L347.842423,411.417084 C347.871522,411.298752 347.905038,411.158278 347.942196,410.99672 C348.087623,410.364423 348.233265,409.644081 348.369307,408.849177 C349.09506,404.608535 349.258092,400.180344 348.510774,396.055817 C348.433779,395.630871 348.347291,395.212034 348.251102,394.799614 C348.18054,394.497074 348.368596,394.194614 348.671136,394.124052 Z"/><path id="Stroke-94" fill="#965C56" fill-rule="nonzero" d="M352.594576,396.361191 C352.893698,396.277313 353.204181,396.451803 353.288059,396.750926 L353.374007,397.092718 C353.392179,397.17031 353.412103,397.258121 353.433525,397.356011 C353.539263,397.839192 353.644661,398.405426 353.742811,399.050904 C354.389996,403.307087 354.411489,408.482915 353.396722,414.350656 C353.343783,414.656772 353.05271,414.862012 352.746594,414.809072 C352.440478,414.756133 352.235238,414.46506 352.288178,414.158944 C353.28131,408.416297 353.260319,403.361376 352.630596,399.220024 C352.555027,398.723048 352.475292,398.276485 352.394897,397.8823 L352.256586,397.256464 C352.234685,397.165998 352.217151,397.098575 352.204841,397.054674 C352.120963,396.755552 352.295453,396.445069 352.594576,396.361191 Z"/><path id="Stroke-96" fill="#965C56" fill-rule="nonzero" d="M356.615641,404.138918 C356.925242,404.113287 357.197001,404.34349 357.222632,404.653091 C357.594898,409.149708 357.513007,412.882219 357.149896,415.823895 C357.094987,416.26873 357.0368,416.665067 356.977801,417.012527 L356.884019,417.521958 C356.861856,417.632199 356.843745,417.71426 356.830726,417.767983 C356.800087,417.894411 356.726575,418.006311 356.622705,418.084631 L356.35583,418.296692 L356.008572,418.587865 C355.886913,418.692383 355.759616,418.804274 355.627495,418.923274 C354.87123,419.604433 354.114642,420.374656 353.409667,421.216409 C350.768805,424.369648 349.580269,427.590535 350.586708,430.611193 C350.684908,430.905924 350.525588,431.224458 350.230857,431.322658 C349.936126,431.420858 349.617592,431.261538 349.519392,430.966807 C348.361784,427.492442 349.681695,423.915536 352.547191,420.494079 C353.288426,419.609031 354.081347,418.801821 354.874592,418.087354 L355.27634,417.73378 C355.340601,417.678579 355.403446,417.625263 355.464776,417.573862 L355.777,417.317 L355.826901,417.060968 C355.897017,416.678741 355.967439,416.220204 356.03337,415.686075 C356.387119,412.820245 356.467314,409.164993 356.101468,404.745909 C356.075837,404.436308 356.30604,404.164549 356.615641,404.138918 Z"/><g id="分组" transform="translate(312.000000, 442.291000)"><mask id="mask-8" fill="#fff"><use xlink:href="#path-7"/></mask><path id="Fill-98" fill="#ADC6FF" d="M1.6263,70.407 C1.6263,70.407 -1.3482,91.752 16.4073,94.821 C34.7193,97.986 38.5218,77.6415 38.5218,77.6415 C38.5218,77.6415 40.8453,63.261 43.7823,45.549 C45.5778,34.734 47.3208,22.755 47.3388563,13.875 C47.3583,4.2615 42.3153,2.4345 33.4368,0.9 C22.8948,-0.9225 18.3498,-0.6015 15.4083,8.499 C12.6018,17.1765 10.3683,29.259 8.2158,38.544 C4.1073,56.247 1.6263,70.407 1.6263,70.407" mask="url(#mask-8)"/></g><polygon id="Fill-100" fill="#ADC6FF" points="356.665 437.989 336.133 434.44 332.258 448.057 355.745 452.116"/><path id="Stroke-102" fill="#965C56" fill-rule="nonzero" d="M339.822469,413.624073 L339.91314,413.636632 L340.268735,413.727663 C340.540833,413.802914 340.842908,413.896658 341.167634,414.010225 C342.095109,414.334593 343.02288,414.754106 343.892589,415.281007 C347.876688,417.694714 349.312772,421.437975 346.608021,426.546505 C346.462657,426.821057 346.122248,426.925785 345.847695,426.780421 C345.573143,426.635057 345.468415,426.294648 345.613779,426.020095 C348.014932,421.484979 346.819795,418.369764 343.309659,416.2432 C342.512614,415.760323 341.654577,415.372341 340.796243,415.072154 C340.571013,414.993384 340.358155,414.925109 340.160856,414.86687 L339.783153,414.762442 C339.732972,414.749658 339.694828,414.740547 339.66966,414.734968 C339.366363,414.667733 339.174997,414.367357 339.242232,414.06406 C339.302744,413.791093 339.552099,413.608789 339.822469,413.624073 Z"/><path id="Fill-104" fill="#CE998A" d="M168.33075,618.31915 C168.33075,618.31915 176.20125,601.84315 184.78125,601.855143 C192.55125,601.86715 193.88025,611.78365 193.88025,611.78365 C193.88025,611.78365 194.03475,619.65565 191.89875,628.17415 C190.49775,633.75715 189.41925,644.76565 186.36825,644.81665 C182.39325,644.88265 185.33325,633.80665 183.02775,632.05765 C178.35675,628.51165 171.89475,645.45115 169.37325,647.63515 C164.44425,651.90565 158.73825,638.00965 168.33075,618.31915"/><path id="Stroke-106" fill="#965C56" fill-rule="nonzero" d="M173.923949,630.2152 C174.124097,629.977607 174.478957,629.947251 174.71655,630.147399 C174.954143,630.347547 174.984499,630.702407 174.784351,630.94 L174.54049,631.24128 L174.449163,631.357321 C174.177299,631.70459 173.873778,632.109155 173.546519,632.566572 C172.609994,633.875572 171.672982,635.343143 170.798739,636.933377 C169.129493,639.969709 167.89277,643.081185 167.267408,646.161998 C167.205608,646.466449 166.908704,646.663157 166.604252,646.601358 C166.299801,646.539558 166.103093,646.242654 166.164892,645.938202 C166.815187,642.734561 168.092774,639.520275 169.812896,636.391402 C170.709798,634.759951 171.670442,633.255366 172.631573,631.911974 L173.023995,631.372793 C173.087334,631.287296 173.149598,631.204006 173.210725,631.122957 L173.56333,630.663834 C173.733616,630.446317 173.856455,630.295322 173.923949,630.2152 Z"/><path id="Stroke-108" fill="#965C56" fill-rule="nonzero" d="M170.725524,626.244533 C170.901077,625.988231 171.251165,625.922771 171.507467,626.098324 C171.763769,626.273877 171.829229,626.623965 171.653676,626.880267 C169.042135,630.69304 167.160048,634.441918 165.888574,637.965096 C165.444722,639.194982 165.108981,640.307653 164.866508,641.282777 C164.803226,641.537273 164.749924,641.768145 164.705821,641.974318 L164.628832,642.357931 C164.619745,642.407217 164.613468,642.44378 164.609769,642.467299 C164.561499,642.774187 164.273588,642.983838 163.966701,642.935569 C163.659813,642.887299 163.450162,642.599388 163.498431,642.292501 L163.561759,641.950796 L163.655332,641.513564 C163.690752,641.356876 163.730482,641.18935 163.774754,641.011304 C164.026344,639.999514 164.373196,638.850021 164.830376,637.583204 C166.133277,633.972944 168.05819,630.13876 170.725524,626.244533 Z"/><path id="Stroke-110" fill="#965C56" fill-rule="nonzero" d="M169.027068,621.707889 C169.219296,621.463844 169.572966,621.421839 169.817011,621.614068 C170.061056,621.806296 170.103061,622.159966 169.910832,622.404011 L169.76573,622.598416 C169.703576,622.684561 169.62792,622.792131 169.539615,622.921372 L169.447126,623.057845 C169.066316,623.624141 168.639904,624.315091 168.178737,625.133821 C166.855442,627.483128 165.523419,630.380991 164.269497,633.852541 C164.16396,634.144726 163.841543,634.296033 163.549359,634.190497 C163.257174,634.08496 163.105867,633.762543 163.211403,633.470359 C164.486668,629.939721 165.844802,626.985053 167.198538,624.581704 C167.606361,623.857676 167.989343,623.228071 168.340612,622.690939 L168.513571,622.43007 C168.754913,622.071174 168.929716,621.831483 169.027068,621.707889 Z"/><path id="Fill-112" fill="#ADC6FF" d="M225.32115,462.82 C225.32115,462.82 231.62265,442.789 213.17565,437.3275 C194.36715,431.7565 188.78265,452.2735 188.78265,452.2735 C188.78265,452.2735 184.17315,466.177 179.13615,483.1855 C175.20015,496.4755 172.12815,506.6575 170.41965,515.4025 C168.57615,524.8375 173.46765,534.364 182.10615,536.9215 C195.23565,540.811 203.01615,534.4525 206.14515,525.4135 C209.18865,516.625 212.92965,504.64 216.06915,494.878 C222.10515,476.107 225.32115,462.82 225.32115,462.82"/><path id="Fill-114" fill="#ADC6FF" d="M206.817386,527.35525 C206.817386,527.35525 207.0108,505.80475 189.0063,505.05475 C170.4408,504.28225 169.2978,524.94625 169.2978,524.94625 C169.2978,524.94625 168.8523,539.50825 168.2253,557.44975 C167.8428,568.40575 167.6613,580.51075 168.7908,589.31725 C170.0133,598.85425 175.2498,600.01375 184.2513,600.38875 C194.9418,600.83425 199.4058,599.92975 201.1488,590.52475 C202.8093,581.55775 203.4633,569.28775 204.4008,559.80325 C206.1858,541.71775 206.817386,527.35525 206.817386,527.35525"/><polygon id="Fill-116" fill="#ADC6FF" points="173.79 606.998 194.607 607.865 196.692 593.863 172.878 592.87"/><path id="Stroke-118" fill="#597EF7" fill-rule="nonzero" d="M205.870745,470.911652 C206.181128,470.898532 206.443379,471.139512 206.456498,471.449895 L206.521589,472.764701 C206.578921,473.839294 206.65307,475.086159 206.745814,476.490928 L206.865312,478.239349 C207.116197,481.791092 207.438897,485.668228 207.842365,489.798358 C209.126008,502.938471 210.96567,516.078017 213.459632,528.415882 L213.820373,530.172894 C213.880523,530.461342 213.940995,530.749075 214.00179,531.036087 C214.024624,531.143884 214.015294,531.256014 213.974959,531.358556 C211.560957,537.495487 211.837258,542.437223 213.734344,546.216323 C214.054011,546.853118 214.395322,547.397589 214.734812,547.849343 L214.91673,548.083107 C215.025979,548.218172 215.109998,548.311653 215.161748,548.363402 C215.381417,548.583072 215.381417,548.939228 215.161748,549.158898 C214.942078,549.378567 214.585922,549.378567 214.366252,549.158898 C213.942846,548.735492 213.332348,547.92311 212.728917,546.721042 C210.737704,542.754435 210.410039,537.630014 212.755918,531.394059 L212.866,531.106 L212.719063,530.402549 C210.031615,517.514885 208.071121,503.711 206.722695,489.907737 L206.527154,487.858887 C206.180877,484.142599 205.901363,480.649341 205.68169,477.434785 L205.556927,475.537706 C205.504517,474.706654 205.45921,473.938719 205.420572,473.237404 L205.332502,471.497405 C205.319382,471.187022 205.560362,470.924771 205.870745,470.911652 Z"/><path id="Stroke-120" fill="#597EF7" fill-rule="nonzero" d="M302.618363,473.867098 C302.928994,473.871456 303.177403,474.126681 303.173251,474.437313 L303.150918,475.482352 C303.132368,476.210042 303.10651,477.037261 303.072165,477.956909 L302.986408,480.037224 C302.863369,482.774054 302.690146,485.751373 302.458057,488.916993 C301.66222,499.771952 300.347168,510.627603 298.392104,520.763951 C297.718679,524.255433 296.978169,527.606434 296.167567,530.799584 L295.905,531.814 L296.006704,532.079648 C298.380746,538.446729 298.06439,543.324755 296.036131,546.83427 L295.8952,547.071436 C295.22647,548.166325 294.548146,548.868084 294.07385,549.215834 C293.823315,549.399524 293.471306,549.345335 293.287616,549.0948 C293.103926,548.844265 293.158115,548.492256 293.40865,548.308566 C293.488418,548.250081 293.647461,548.112931 293.859902,547.89315 C294.22431,547.516152 294.591155,547.048192 294.935114,546.48504 C296.949219,543.187415 297.278181,538.457943 294.791844,532.05018 C294.748967,531.939679 294.742092,531.818458 294.7722,531.703818 C295.697302,528.18132 296.534394,524.455301 297.287463,520.550892 C299.233256,510.462612 300.543214,499.649018 301.336068,488.834733 L301.467864,486.964954 C301.676019,483.887631 301.82723,481.008671 301.930141,478.380387 L301.993015,476.612464 L302.048302,474.422087 C302.052506,474.111456 302.307731,473.863047 302.618363,473.867098 Z"/><path id="Stroke-122" fill="#597EF7" fill-rule="nonzero" d="M324.687848,462.476183 C324.961412,462.53394 325.146219,462.781445 325.133662,463.051955 L325.122017,463.142748 L317.097017,501.152748 C317.032843,501.456708 316.734411,501.651092 316.430452,501.586917 C316.156888,501.52916 315.972081,501.281655 315.984638,501.011145 L315.996283,500.920352 L324.021283,462.910352 C324.07904,462.636788 324.326545,462.451981 324.597055,462.464538 L324.687848,462.476183 Z"/></g></svg>