<?xml version="1.0" encoding="UTF-8"?>
<svg width="512px" height="1024px" viewBox="0 0 512 1024" version="1.1" xmlns="http://www.w3.org/2000/svg" xmlns:xlink="http://www.w3.org/1999/xlink">
    <!-- Generator: Sketch 61.2 (89653) - https://sketch.com -->
    <title>2.人物组件/8.程序员/后仰/讲解</title>
    <desc>Created with Sketch.</desc>
    <defs>
        <polygon id="path-1" points="0.92037987 1.302 58.7284201 1.302 58.7284201 54.3813 0.92037987 54.3813"></polygon>
        <polygon id="path-3" points="0.193100442 1.19017646 85.7115 1.19017646 85.7115 65.9995056 0.193100442 65.9995056"></polygon>
        <polygon id="path-5" points="0 1.37316667 75.489 1.37316667 75.489 75.21465 0 75.21465"></polygon>
    </defs>
    <g id="2.人物组件/8.程序员/后仰/讲解" stroke="none" stroke-width="1" fill="none" fill-rule="evenodd">
        <path d="M351.6882,296.52215 C351.6882,296.52215 346.8822,288.73265 352.9077,277.18265 C357.5682,268.25315 355.8507,266.32865 357.3087,261.02915 C358.7667,255.73115 362.4792,261.51065 361.8102,271.74065 C360.7842,279.12815 377.3037,266.13815 381.2562,257.09015 C385.0917,248.30915 398.6037,276.66965 369.3792,295.99865 C354.9702,305.52665 351.6882,296.52215 351.6882,296.52215" id="Fill-1" fill="#FFC999"></path>
        <path d="M382.874105,269.578404 C383.831344,266.898206 384.963854,265.995462 385.992705,266.280008 C386.059155,266.298386 386.112822,266.319874 386.153234,266.340723 C386.391035,266.463404 386.484358,266.755632 386.361677,266.993434 C386.252627,267.204813 386.009614,267.302036 385.789942,267.234869 L385.734408,267.213948 C385.626751,267.184174 385.461739,267.2155 385.214966,267.412207 C384.751551,267.781604 384.260728,268.576937 383.78665,269.904322 L383.709483,270.125675 L383.557377,270.594248 C381.788008,276.302412 377.012204,280.202988 368.756635,283.175187 C366.216947,284.089006 364.503723,285.406789 363.474959,287.019601 C362.446018,288.632693 362.197636,290.332219 362.385331,291.793079 L362.411629,291.973061 C362.419649,292.020928 362.426642,292.056401 362.431767,292.07868 C362.491756,292.339451 362.328991,292.599478 362.06822,292.659467 C361.807449,292.719456 361.547422,292.556691 361.487433,292.29592 L361.457891,292.144379 C361.447067,292.080899 361.435556,292.004708 361.424231,291.916564 C361.210035,290.249442 361.490799,288.328352 362.658009,286.498494 C363.805612,284.699375 365.692794,283.247787 368.428481,282.263443 C376.268951,279.44069 380.788781,275.81939 382.530629,270.621183 L382.63181,270.307392 C382.711094,270.051538 382.791876,269.808638 382.874105,269.578404 Z" id="Stroke-3" fill="#DD936F" fill-rule="nonzero"></path>
        <path d="M383.597144,262.429814 C384.687243,261.409085 385.836764,261.200651 386.511209,262.095481 C386.672266,262.309166 386.629603,262.612953 386.415919,262.774009 C386.225977,262.917171 385.964843,262.899368 385.796043,262.743568 L385.737391,262.678719 C385.499536,262.363142 384.986754,262.456121 384.259456,263.137136 C383.398449,263.943351 382.539056,265.351837 381.867173,267.155906 L381.735351,267.521933 C381.149021,269.205681 380.032873,270.899977 378.542249,272.560998 C377.757828,273.435088 376.918719,274.244799 376.079493,274.971068 C375.932512,275.098266 375.790706,275.218369 375.654929,275.33107 L375.108378,275.771008 C375.039648,275.824416 374.986776,275.864554 374.95124,275.890885 C374.736244,276.050186 374.432816,276.005036 374.273515,275.79004 C374.114214,275.575044 374.159364,275.271616 374.37436,275.112315 L374.663861,274.887886 C374.89923,274.700936 375.162044,274.48356 375.445394,274.238347 C376.255633,273.537164 377.06599,272.755197 377.821071,271.913802 C379.233242,270.340202 380.282545,268.747375 380.820232,267.203316 C381.557305,265.085957 382.552788,263.407711 383.597144,262.429814 Z" id="Stroke-5" fill="#DD936F" fill-rule="nonzero"></path>
        <path d="M379.322111,263.658547 L379.844972,262.556378 C381.654948,258.829547 383.19189,257.655302 384.394589,258.131181 C384.488571,258.168367 384.561095,258.210995 384.612526,258.250915 C384.823904,258.414985 384.862256,258.719347 384.698185,258.930726 C384.534115,259.142104 384.229753,259.180456 384.018374,259.016385 L384.038073,259.032212 C383.873841,258.967229 383.596238,259.019813 383.147522,259.383291 C382.369622,260.013419 381.459992,261.350128 380.444555,263.555254 C379.703925,265.164081 378.793182,266.64052 377.750167,267.986124 C376.711364,269.326293 375.598209,270.466988 374.483827,271.411793 C374.092526,271.74355 373.728394,272.027494 373.400515,272.264047 L373.031118,272.52004 C373.009828,272.533943 372.991009,272.545993 372.974733,272.556193 C372.747996,272.698287 372.449,272.62967 372.306907,272.402933 C372.164813,272.176196 372.23343,271.8772 372.460167,271.735107 L372.73099,271.551502 C372.762955,271.528902 372.797171,271.504474 372.833567,271.478216 C373.1414,271.256125 373.485634,270.987696 373.857188,270.672682 C374.922393,269.769571 375.988824,268.676755 376.984302,267.39248 C377.872492,266.246618 378.660228,265.002259 379.322111,263.658547 Z" id="Stroke-7" fill="#DD936F" fill-rule="nonzero"></path>
        <path d="M317.50905,375.75845 L317.50905,375.75845 C314.23005,385.01345 304.20255,390.00245 294.84255,387.03245 L216.02055,362.02445 C204.72555,358.44245 198.64455,346.21595 202.60305,335.04695 C206.55855,323.87795 218.98005,318.20795 230.01105,322.53395 L306.99555,352.72895 C316.13805,356.31395 320.78955,366.50345 317.50905,375.75845" id="Fill-9" fill="#FFC999"></path>
        <path d="M263.63205,380.2577 L215.24055,365.0972 C202.52805,361.0637 195.68355,347.3027 200.13855,334.7297 L200.13855,334.7297 C204.59205,322.1582 218.57355,315.7742 230.99055,320.6447 L281.79255,341.4017 L263.63205,380.2577 Z" id="Fill-11" fill="#597EF7"></path>
        <path d="M280.973118,341.788754 C281.148466,341.413486 281.594829,341.251419 281.970096,341.426768 C282.314092,341.587504 282.478939,341.975967 282.368962,342.328646 L282.332082,342.423746 L264.840582,379.857746 C264.699412,380.159867 264.37872,380.328458 264.056827,380.283029 L263.94973,380.259849 L241.42423,373.643349 C241.026806,373.526612 240.799264,373.109803 240.916001,372.71238 C241.02301,372.348075 241.382163,372.126518 241.747396,372.182039 L241.84697,372.204151 L263.754,378.638 L280.973118,341.788754 Z" id="Stroke-13" fill="#1D39C4" fill-rule="nonzero"></path>
        <path d="M350.31705,286.8332 L366.57105,297.4997 L314.92305,379.9202 C309.16455,388.4912 297.41205,390.5147 289.12005,384.3602 C280.82955,378.2072 279.35955,366.3722 285.89505,358.3772 L350.31705,286.8332 Z" id="Fill-15" fill="#FFC999"></path>
        <path d="M199.97865,308.1131 L197.68665,269.1776 L162.63465,270.9506 L160.57215,308.1821 C159.94815,319.4276 168.84615,328.9136 180.10965,329.0096 C191.53065,329.1056 200.65065,319.5161 199.97865,308.1131" id="Fill-17" fill="#FFC999"></path>
        <path d="M206.7975,265.12865 C206.7975,265.12865 212.2215,259.64765 214.4325,263.40665 C216.642,267.16565 212.535,280.46165 206.7225,280.73915 C198.9615,281.10815 206.7975,265.12865 206.7975,265.12865" id="Fill-19" fill="#FFC999"></path>
        <path d="M172.6008,298.9073 C172.6008,298.9073 183.8838,308.3723 199.0848,299.3003 C210.0258,292.7708 211.6473,268.6868 209.7573,250.9733 C208.6908,240.9518 204.1368,235.5128 194.4123,232.4393 C184.6878,229.3658 158.2278,228.9623 157.7223,258.4148 C157.1583,291.2183 172.6008,298.9073 172.6008,298.9073" id="Fill-21" fill="#FFC999"></path>
        <path d="M192.771743,255.434253 C193.026554,255.50185 193.18977,255.741682 193.169485,255.995476 L193.153097,256.090993 L191.537,262.184 L194.658917,278.891681 C194.715137,279.192605 194.509864,279.472526 194.219078,279.52018 L194.129452,279.527298 L187.071952,279.506298 C186.775377,279.505415 186.53567,279.264278 186.536548,278.967702 C186.537347,278.700784 186.732747,278.47993 186.988023,278.439072 L187.075148,278.432302 L193.484,278.451 L190.459183,262.260419 C190.449413,262.208121 190.447495,262.154809 190.453365,262.102223 L190.468003,262.024107 L192.115003,255.815607 C192.1826,255.560796 192.422432,255.39758 192.676226,255.417865 L192.771743,255.434253 Z" id="Stroke-23" fill="#DD936F" fill-rule="nonzero"></path>
        <path d="M181.198938,283.561615 C181.306929,283.161727 181.718646,282.925097 182.118535,283.033088 L182.473389,283.117295 L182.61306,283.147467 C183.036681,283.237311 183.535301,283.327565 184.10476,283.412065 C186.963554,283.836272 190.350992,283.954066 194.139595,283.57635 C194.551766,283.535257 194.919208,283.836075 194.9603,284.248245 C195.001393,284.660416 194.700575,285.027858 194.288405,285.06895 C190.371072,285.4595 186.86068,285.337431 183.88459,284.895819 C183.404244,284.824542 182.969647,284.749011 182.582904,284.67242 L182.301851,284.614828 C182.025158,284.556145 181.832327,284.50953 181.727465,284.481212 C181.327577,284.373221 181.090947,283.961504 181.198938,283.561615 Z" id="Stroke-25" fill="#FF7A46" fill-rule="nonzero"></path>
        <g id="分组" transform="translate(153.000000, 216.698000)">
            <mask id="mask-2" fill="white">
                <use xlink:href="#path-1"></use>
            </mask>
            <g id="Clip-28"></g>
            <path d="M7.92165,54.3813 L2.32365,42.9633 C2.32365,42.9633 -1.10985,26.5593 2.76465,19.5693 C8.77665,8.7243 22.22415,9.1863 30.24615,6.3723 C38.26515,3.5598 38.22315,0.8718 41.45715,1.3593 C44.69115,1.8468 57.12015,10.7493 58.41315,19.9113 C59.55015,27.9663 57.24615,48.4233 57.24615,48.4233 C57.24615,48.4233 55.21365,30.2568 53.52465,25.4448 C47.23215,22.7223 24.24315,22.3023 14.61015,25.1418 C14.61015,25.1418 13.70115,31.3053 13.16565,35.6478 C7.98165,39.2598 7.92165,54.3813 7.92165,54.3813" id="Fill-27" fill="#253368" mask="url(#mask-2)"></path>
        </g>
        <path d="M199.312617,298.27957 C199.515239,298.063001 199.855061,298.051695 200.07163,298.254317 C200.288199,298.456939 200.299505,298.796761 200.096883,299.01333 C199.954119,299.165921 199.683201,299.418192 199.282709,299.736466 C198.625141,300.25904 197.835483,300.779748 196.912444,301.264594 C191.520277,304.096945 184.378411,304.499674 175.480408,300.95278 C175.204912,300.842962 175.070603,300.530604 175.18042,300.255108 C175.290238,299.979612 175.602596,299.845303 175.878092,299.95512 C184.483044,303.3852 191.297245,303.000948 196.41301,300.313783 C197.274665,299.86118 198.0082,299.37748 198.614505,298.895646 L198.859382,298.695622 C199.080774,298.509373 199.231745,298.366009 199.312617,298.27957 Z" id="Stroke-29" fill="#DD936F" fill-rule="nonzero"></path>
        <path d="M192.2006,261.146139 C192.793512,261.129184 193.287906,261.596089 193.304861,262.189 C193.320686,262.742384 192.915015,263.209949 192.378796,263.283617 L192.262,263.293261 L187.069,263.441761 C186.476088,263.458716 185.981694,262.991811 185.964739,262.3989 C185.948914,261.845516 186.354585,261.377951 186.890804,261.304283 L187.0076,261.294639 L192.2006,261.146139 Z" id="Stroke-31" fill="#393C68" fill-rule="nonzero"></path>
        <path d="M187.483736,264.583795 C188.527015,264.140837 189.59434,263.905022 190.640567,264.000426 C191.651555,264.092617 192.563645,264.496982 193.304179,265.248354 C193.720544,265.670812 193.715605,266.350814 193.293146,266.767179 C192.900863,267.153804 192.286516,267.177161 191.867388,266.840281 L191.774321,266.756146 C191.404048,266.380455 190.968168,266.187212 190.445503,266.139551 C189.807007,266.081327 189.068655,266.244459 188.323206,266.560963 C188.041749,266.680465 187.809065,266.798757 187.644354,266.89221 L187.480557,266.99092 C186.983406,267.314452 186.318112,267.173707 185.99458,266.676557 C185.671048,266.179406 185.811793,265.514112 186.308943,265.19058 C186.557051,265.029118 186.962104,264.805271 187.483736,264.583795 Z" id="Stroke-33" fill="#393C68" fill-rule="nonzero"></path>
        <path d="M191.059228,288.874765 C191.355769,288.870142 191.599911,289.106787 191.604535,289.403328 C191.608696,289.670215 191.417429,289.894659 191.162956,289.940249 L191.075972,289.948635 L186.842972,290.014635 C186.546431,290.019258 186.302289,289.782613 186.297665,289.486072 C186.293504,289.219185 186.484771,288.994741 186.739244,288.949151 L186.826228,288.940765 L191.059228,288.874765 Z" id="Stroke-35" fill="#DD936F" fill-rule="nonzero"></path>
        <path d="M167.782369,261.553904 C168.375493,261.54795 168.861142,262.023945 168.867151,262.617069 C168.872653,263.170651 168.458379,263.630611 167.920886,263.694319 L167.803931,263.701796 L159.286931,263.787296 C158.693807,263.79325 158.208158,263.317255 158.202149,262.724131 C158.196647,262.170549 158.610921,261.710589 159.148414,261.646881 L159.265369,261.639404 L167.782369,261.553904 Z" id="Stroke-37" fill="#393C68" fill-rule="nonzero"></path>
        <path d="M168.40545,260.93555 L184.66545,260.68205 C185.80095,260.66405 186.73545,261.56705 186.74595,262.70255 C186.76245,264.82055 186.69645,268.21805 186.19095,271.13405 C185.59545,274.57355 182.54445,276.72155 179.06145,276.93755 C174.70845,277.20605 170.80095,277.27205 168.78945,275.04305 C165.72345,271.64555 166.37295,265.96505 166.38945,262.96205 C166.39545,261.85955 167.30295,260.95205 168.40545,260.93555" id="Fill-39" fill="#FFFFFF"></path>
        <path d="M184.65978,260.324345 L168.399873,260.577843 C167.101706,260.597272 166.038759,261.664036 166.031705,262.960103 L166.003352,264.230221 L165.977121,265.216069 C165.93884,266.985204 165.973474,268.136283 166.138424,269.43018 C166.446336,271.845489 167.187989,273.802424 168.523857,275.282728 C170.348859,277.305064 173.120234,277.662444 179.083475,277.294621 C182.886377,277.058783 185.941359,274.672683 186.543456,271.195081 C186.972766,268.718582 187.127601,265.769237 187.103689,262.699763 C187.09136,261.366371 185.994893,260.303181 184.65978,260.324345 Z M168.410803,261.29326 L184.671027,261.039757 C185.610192,261.024869 186.37957,261.770897 186.388215,262.705858 C186.411818,265.735607 186.258963,268.64724 185.838457,271.072944 C185.296588,274.202681 182.529335,276.36405 179.039306,276.580486 L178.259369,276.625243 C173.064235,276.899286 170.595871,276.510807 169.055043,274.803373 C167.830447,273.446371 167.139187,271.622405 166.84818,269.339698 C166.677147,267.998086 166.650722,266.803474 166.701786,264.841776 L166.746128,263.109908 C166.746577,263.063119 166.746912,263.015395 166.747195,262.964016 C166.752123,262.058341 167.500898,261.306878 168.410803,261.29326 Z" id="Stroke-41" fill="#253368" fill-rule="nonzero"></path>
        <path d="M193.7634,260.3591 L212.1729,260.0711 C212.8974,262.7516 212.4039,273.1646 209.2779,275.4431 C205.0794,277.7261 196.5174,276.8996 195.1539,274.6631 C193.0839,271.2671 192.2349,264.7436 192.22739,261.9296 C192.2244,261.0716 192.9069,260.3726 193.7634,260.3591" id="Fill-43" fill="#FFFFFF"></path>
        <path d="M212.167304,259.71335 L193.757804,260.001394 C192.705545,260.017979 191.865969,260.876852 191.86963,261.930847 C191.880277,265.915701 193.054902,271.906882 194.848425,274.849299 C196.400175,277.394579 205.281367,278.023497 209.4488,275.75739 C212.280591,273.697175 213.571446,263.874334 212.518257,259.977755 C212.475541,259.819714 212.330996,259.710833 212.167304,259.71335 Z M211.892,260.432 L211.929493,260.60122 C212.715754,264.515181 211.465563,273.405844 209.067176,275.153997 C205.235702,277.233889 196.77492,276.634742 195.459359,274.476875 C193.746777,271.667247 192.595457,265.794937 192.585131,261.928645 C192.582828,261.265537 193.109062,260.727208 193.769038,260.716806 L211.892,260.432 Z" id="Stroke-45" fill="#253368" fill-rule="nonzero"></path>
        <path d="M166.653094,260.00111 L186.817594,260.21411 C187.410715,260.220375 187.886455,260.706273 187.880251,261.299394 C187.874343,261.852974 187.450681,262.304302 186.91199,262.356924 L186.794906,262.36199 L166.630406,262.14899 C166.037285,262.142725 165.561545,261.656827 165.567749,261.063706 C165.573657,260.510126 165.997319,260.058798 166.53601,260.006176 L166.653094,260.00111 Z" id="Stroke-47" fill="#393C68" fill-rule="nonzero"></path>
        <path d="M212.298366,259.401523 C212.891259,259.383914 213.386168,259.850274 213.403777,260.443166 C213.420212,260.996533 213.015056,261.464544 212.478919,261.538803 L212.362134,261.548577 L192.614634,262.135077 C192.021741,262.152686 191.526832,261.686326 191.509223,261.093434 C191.492788,260.540067 191.897944,260.072056 192.434081,259.997797 L192.550866,259.988023 L212.298366,259.401523 Z" id="Stroke-49" fill="#393C68" fill-rule="nonzero"></path>
        <path d="M158.45625,261.8786 C156.42825,259.6886 153.21975,259.0181 150.87975,261.4316 C147.11025,265.3211 150.15975,280.1936 160.05375,281.0531 C163.83075,280.6226 161.61975,265.2971 158.45625,261.8786" id="Fill-51" fill="#FFC999"></path>
        <path d="M153.550639,263.428145 C153.661789,263.153184 153.974794,263.020389 154.249755,263.131539 L154.437982,263.214649 C154.549774,263.267255 154.686822,263.336517 154.843443,263.422796 C155.274556,263.660285 155.7054,263.948167 156.109568,264.289342 C157.596726,265.544714 158.342375,267.171851 157.883535,269.14207 C157.710075,269.887742 157.367238,270.286115 156.729853,270.665844 L156.454493,270.820708 C155.907353,271.119917 155.77097,271.26814 155.720837,271.733595 C155.623613,272.625456 156.029158,273.292205 156.80869,273.803717 C157.067762,273.973714 157.348813,274.111897 157.629995,274.219306 L157.881438,274.30708 C157.925443,274.320741 157.960839,274.330594 157.986236,274.336813 C158.2743,274.40736 158.450633,274.698071 158.380087,274.986136 C158.30954,275.2742 158.018829,275.450533 157.730764,275.379987 C157.340453,275.2844 156.783092,275.071493 156.219478,274.701662 C155.131516,273.987765 154.50672,272.96055 154.653088,271.617894 C154.74266,270.786266 155.067458,270.384317 155.780414,269.967998 L156.045808,269.820023 C156.549593,269.542307 156.731565,269.353974 156.837496,268.898599 C157.192936,267.372367 156.622686,266.127981 155.416789,265.110032 C155.070785,264.817955 154.697873,264.568783 154.325231,264.363504 L154.086858,264.237987 C153.982088,264.18558 153.900253,264.148689 153.847245,264.127261 C153.572284,264.016111 153.439489,263.703106 153.550639,263.428145 Z" id="Stroke-53" fill="#DD936F" fill-rule="nonzero"></path>
        <path d="M185.281991,253.793077 C185.322294,254.205325 185.020772,254.572189 184.608523,254.612491 L179.972367,255.09004 L178.404269,255.242051 C174.385502,255.614064 171.869278,255.691644 170.412126,255.386085 C170.006729,255.301075 169.747005,254.903522 169.832015,254.498126 C169.917025,254.092729 170.314578,253.833005 170.719974,253.918015 L171.007737,253.96929 C172.283699,254.161317 174.525573,254.084301 177.884911,253.783029 L179.477606,253.632006 L184.462577,253.119609 C184.874825,253.079306 185.241689,253.380828 185.281991,253.793077 Z" id="Stroke-55" fill="#755654" fill-rule="nonzero"></path>
        <path d="M196.139248,253.088003 C198.468639,252.237903 200.824787,251.783031 203.051766,251.938553 C204.79234,252.060106 206.373108,252.556727 207.742149,253.482899 C208.085229,253.714996 208.175198,254.18127 207.943101,254.524349 C207.711004,254.867429 207.24473,254.957398 206.901651,254.725301 C205.764377,253.955923 204.437149,253.538954 202.947267,253.434908 C200.961158,253.296208 198.801783,253.713091 196.653491,254.4971 C196.128276,254.688775 195.635441,254.891379 195.182926,255.095881 L194.851225,255.249473 C194.530803,255.401492 194.306458,255.517908 194.193435,255.580992 C193.831748,255.782872 193.374887,255.653322 193.173008,255.291635 C192.971128,254.929948 193.100678,254.473087 193.462365,254.271208 L193.811441,254.087893 C193.924939,254.03075 194.057597,253.965741 194.208266,253.894259 C194.788413,253.619018 195.436858,253.344337 196.139248,253.088003 Z" id="Stroke-57" fill="#755654" fill-rule="nonzero"></path>
        <path d="M179.593632,264.735146 C180.007793,264.728509 180.348917,265.058872 180.355554,265.473032 C180.391852,267.738073 178.784255,269.639107 176.711857,269.671459 C174.63936,269.703812 172.972718,267.854343 172.938237,265.589467 C172.931931,265.175301 173.262567,264.834442 173.676733,264.828137 C174.090899,264.821831 174.431758,265.152467 174.438063,265.566633 C174.460565,267.044647 175.49297,268.190303 176.688443,268.171641 C177.883607,268.152984 178.879437,266.975383 178.855746,265.497068 C178.849109,265.082907 179.179472,264.741783 179.593632,264.735146 Z" id="Stroke-59" fill="#755654" fill-rule="nonzero"></path>
        <path d="M202.572582,264.376496 C202.986743,264.369859 203.327867,264.700222 203.334504,265.114382 C203.370784,267.378272 201.762785,269.27853 199.690796,269.312809 C197.617101,269.345151 195.950173,267.496001 195.915687,265.230817 C195.909381,264.816651 196.240017,264.475792 196.654183,264.469487 C197.068349,264.463181 197.409208,264.793817 197.415513,265.207983 C197.438018,266.686212 198.470587,267.831657 199.666694,267.813003 C200.861917,267.793229 201.85837,266.615667 201.834696,265.138418 C201.828059,264.724257 202.158422,264.383133 202.572582,264.376496 Z" id="Stroke-61" fill="#755654" fill-rule="nonzero"></path>
        <path d="M230.81655,463.0247 C242.56605,463.1147 243.53655,450.2897 239.75055,442.8422 C239.75055,442.8422 249.55305,368.5727 231.77505,323.0822 C219.75105,318.5492 209.81955,316.8902 199.48605,316.2332 C195.43305,315.9752 188.32305,320.6612 183.52905,320.9612 C176.44005,321.4037 164.78355,314.3357 158.10405,315.4952 C149.81205,316.9352 141.64605,319.0157 135.19005,320.8607 C126.10905,323.4587 116.87355,333.6482 116.65905,343.0922 C116.27355,359.9822 123.20805,389.7482 145.74855,443.7947 C145.74855,443.7947 138.96705,460.5617 154.19505,462.9407 C172.21605,465.7562 230.81655,463.0247 230.81655,463.0247" id="Fill-63" fill="#597EF7"></path>
        <polygon id="Fill-65" fill="#597EF7" points="199.4001 308.48255 206.8071 317.17055 201.6876 332.53355 182.9181 321.19805"></polygon>
        <polygon id="Fill-67" fill="#597EF7" points="182.9148 321.12635 161.1438 305.50385 151.6923 318.53135 170.7168 333.09635"></polygon>
        <path d="M205.537428,317.896312 C205.689576,317.511054 206.125229,317.32208 206.510488,317.474228 C206.863641,317.613697 207.051861,317.991389 206.963586,318.350116 L206.932572,318.447288 L201.261072,332.808288 C201.100499,333.214881 200.633471,333.391849 200.24988,333.21426 L200.155947,333.162403 L182.961,322.031 L171.244124,333.629822 C171.011809,333.859785 170.661745,333.90987 170.378014,333.76615 L170.275084,333.703143 L152.584084,320.824143 C152.24921,320.580356 152.17537,320.111258 152.419157,319.776384 C152.640782,319.471953 153.048614,319.383252 153.372529,319.552802 L153.466916,319.611457 L170.641,332.114 L182.334376,320.541278 C182.556918,320.32099 182.889077,320.264763 183.167839,320.389433 L183.269553,320.444697 L200.202,331.405 L205.537428,317.896312 Z" id="Stroke-69" fill="#1D39C4" fill-rule="nonzero"></path>
        <path d="M237.580285,332.924522 C237.986258,332.842307 238.382012,333.104763 238.464228,333.510735 L238.588218,334.15654 L238.792036,335.284963 C238.898071,335.888968 239.010778,336.556121 239.129042,337.285338 L239.200658,337.730307 C239.75064,341.173356 240.300388,345.196519 240.813335,349.764345 C243.771047,376.102961 244.243738,407.126199 240.667426,441.318546 L240.513,442.761 L240.608427,443.053805 C242.589069,449.323975 241.837727,454.939237 239.343352,459.704656 L239.162232,460.043595 C238.602443,461.070022 238.001917,461.970907 237.39965,462.740523 C237.03353,463.208375 236.743775,463.532636 236.56898,463.70743 C236.276087,464.000323 235.801213,464.000323 235.50832,463.70743 C235.215427,463.414537 235.215427,462.939663 235.50832,462.64677 L235.629508,462.519519 C235.771271,462.365138 235.972961,462.129688 236.218362,461.8161 C236.771629,461.109099 237.326636,460.2765 237.845345,459.325397 C240.356273,454.721368 241.109945,449.259185 239.040007,443.081376 C239.005651,442.97884 238.993875,442.870086 239.005486,442.762573 C242.754083,408.05143 242.31496,376.577968 239.322704,349.931736 L239.129709,348.253192 C238.67575,344.396437 238.197503,340.95975 237.719436,337.966913 L237.510589,336.688625 C237.420561,336.150373 237.3344,335.652096 237.252676,335.194348 L237.097143,334.342784 C237.051022,334.096659 237.016294,333.918191 236.994072,333.808465 C236.911857,333.402492 237.174313,333.006738 237.580285,332.924522 Z" id="Stroke-71" fill="#1D39C4" fill-rule="nonzero"></path>
        <path d="M183.444727,320.555014 C183.839962,320.431069 184.26084,320.650992 184.384786,321.046227 L184.667958,321.97997 C184.831777,322.529721 185.014222,323.154477 185.214182,323.853483 L185.787386,325.890241 C186.55594,328.662946 187.396666,331.858822 188.293246,335.466736 L188.825252,337.629267 C191.484825,348.549235 194.134223,361.076706 196.627039,375.111769 L196.875793,376.520297 C200.639404,397.952917 203.723442,421.121307 205.895041,445.866567 L206.08,448.018 L206.226373,448.26456 C209.991224,454.695331 210.475031,459.467805 208.908033,462.726642 L208.809543,462.924273 C208.45622,463.608807 208.08948,464.061403 207.817395,464.301503 C207.506817,464.575571 207.032866,464.545974 206.758797,464.235395 C206.484729,463.924817 206.514326,463.450866 206.824905,463.176797 C206.963787,463.054241 207.213496,462.746074 207.476623,462.236286 C208.937438,459.406073 208.512782,454.98566 204.705538,448.640534 C204.646688,448.542456 204.611051,448.432217 204.601351,448.31825 C202.424783,422.743452 199.272077,398.839154 195.398399,376.779731 C192.674108,361.265723 189.755564,347.570949 186.837521,335.828489 L186.271163,333.57457 C185.526735,330.64529 184.826026,328.020369 184.179306,325.706826 L183.772207,324.266653 C183.653106,323.850303 183.540319,323.460675 183.434085,323.097931 L182.953514,321.495073 C182.829569,321.099838 183.049492,320.67896 183.444727,320.555014 Z" id="Stroke-73" fill="#1D39C4" fill-rule="nonzero"></path>
        <path d="M193.7136,339.29045 C193.8516,340.61945 194.8611,341.60345 195.9681,341.48795 C197.0751,341.37245 197.8626,340.20245 197.7231,338.87345 C197.5851,337.54445 196.5741,336.56045 195.4686,336.67595 C194.3616,336.79145 193.5741,337.96145 193.7136,339.29045" id="Fill-75" fill="#FFFFFF"></path>
        <path d="M198.80535,363.35855 C198.94335,364.68755 199.95285,365.67155 201.05985,365.55605 C202.16685,365.44055 202.95435,364.27055 202.81485,362.94155 C202.67685,361.61255 201.66735,360.62855 200.56035,360.74405 C199.45335,360.85955 198.66585,362.02955 198.80535,363.35855" id="Fill-77" fill="#FFFFFF"></path>
        <path d="M203.02845,392.07785 C203.16645,393.40685 204.17745,394.39085 205.28445,394.27535 C206.39145,394.15985 207.17745,392.98985 207.03945,391.66085 C206.89995,390.33185 205.89045,389.34785 204.78345,389.46335 C203.67645,389.57885 202.89045,390.74885 203.02845,392.07785" id="Fill-79" fill="#FFFFFF"></path>
        <path d="M207.90795,419.76275 C208.04595,421.09175 209.05545,422.07575 210.16245,421.96025 C211.26945,421.84475 212.05545,420.67475 211.91745,419.34575 C211.77945,418.01675 210.76845,417.03275 209.66145,417.14825 C208.55445,417.26375 207.76845,418.43375 207.90795,419.76275" id="Fill-81" fill="#FFFFFF"></path>
        <path d="M209.13105,448.01585 C209.26905,449.34485 210.27855,450.32885 211.38555,450.21335 C212.49255,450.09785 213.28005,448.92785 213.14055,447.59885 C213.00255,446.26985 211.99305,445.28585 210.88605,445.40135 C209.77905,445.51685 208.99155,446.68685 209.13105,448.01585" id="Fill-83" fill="#FFFFFF"></path>
        <path d="M239.98065,349.5212 L212.95065,349.5212 C212.484504,349.5212 212.131273,349.941937 212.211975,350.401044 L216.435975,374.431044 C216.469696,374.62288 216.576724,374.794072 216.734416,374.908402 L232.782916,386.543902 C233.115273,386.784868 233.579598,386.713855 233.824743,386.384568 L243.115743,373.904568 C243.228854,373.752634 243.280287,373.563527 243.259712,373.375232 L240.726212,350.189732 C240.684643,349.809313 240.363333,349.5212 239.98065,349.5212 Z M239.308,351.021 L241.736,373.244 L233.063,384.894 L217.86,373.872 L213.844,351.021 L239.308,351.021 Z" id="Stroke-85" fill="#1D39C4" fill-rule="nonzero"></path>
        <path d="M223.113,417.59405 L223.113,417.59405 C215.9565,425.79755 203.5845,426.84755 195.147,419.96855 L124.0965,362.03255 C113.916,353.73155 112.6365,338.64755 121.272,328.74905 C129.9075,318.84905 145.026,318.07205 154.632,327.03155 L221.6715,389.56505 C229.632,396.99005 230.2695,409.39055 223.113,417.59405" id="Fill-87" fill="#FFC999"></path>
        <path d="M244.06605,527.1929 L228.15405,557.5889 L186.92205,560.8109 C186.92205,560.8109 164.63505,558.4169 154.81905,536.0009 C145.00455,513.5864 151.62105,471.2804 151.62105,471.2804 L237.07605,469.1654 C237.07605,469.1654 249.92205,505.5314 244.06605,527.1929" id="Fill-89" fill="#ADC6FF"></path>
        <g id="分组" transform="translate(309.000000, 800.198000)">
            <mask id="mask-4" fill="white">
                <use xlink:href="#path-3"></use>
            </mask>
            <g id="Clip-92"></g>
            <path d="M31.1217,27.42555 C31.1217,27.42555 42.3087,40.64655 66.9732,34.07505 C74.7222,32.00955 87.2472,38.78805 85.5567,45.05505 C83.7237,51.85155 71.8497,58.41555 57.1242,62.38305 C40.9872,66.73305 40.4907,57.63555 32.3007,61.64055 C27.5532,63.96255 13.6077,68.21205 11.8197,64.59855 C9.4857,59.88255 7.7262,50.99505 6.1062,43.41105 C5.0412,38.42505 0.0912,24.35055 0.1947,20.18205 C0.9177,-8.99745 19.0557,-2.96295 31.1217,27.42555" id="Fill-91" fill="#4E5C93" mask="url(#mask-4)"></path>
        </g>
        <path d="M245.89425,754.028 C245.89425,754.028 239.82225,772.3085 247.58325,786.971 C250.17075,791.858 258.68475,798.6635 259.17525,805.0265 C260.25225,819.068 249.97275,822.7205 227.45325,803.9495 C214.61625,793.2485 222.03225,786.134 214.04625,781.736 C209.41575,779.1875 198.38025,770.4365 199.84875,766.682 C202.41225,760.121 204.17025,759.5285 212.09175,751.694 C261.77325,702.551 266.37675,722.7755 245.89425,754.028" id="Fill-93" fill="#4E5C93"></path>
        <path d="M304.3635,829.5494 L233.499,675.6209 C227.76,663.1544 233.7405,648.4334 246.546,643.5014 C258.9105,638.7404 272.781,645.0089 277.3785,657.4364 L337.0695,817.4249 C337.0695,817.4249 326.4375,829.1114 304.3635,829.5494" id="Fill-95" fill="#ADC6FF"></path>
        <path d="M260.70825,675.34235 L260.70825,675.34235 C272.17425,669.30785 276.81675,655.28885 271.22025,643.60385 L208.82625,513.33185 C201.58425,498.21035 183.22875,492.13085 168.38925,499.93985 L168.38925,499.93985 C153.55125,507.74885 148.17075,526.32185 156.53625,540.85535 L228.59475,666.03785 C235.05825,677.26685 249.24225,681.37685 260.70825,675.34235" id="Fill-97" fill="#ADC6FF"></path>
        <path d="M219.7599,741.8543 L308.0589,597.2198 C315.2109,585.5078 330.7659,582.2663 341.9979,590.1503 C352.8444,597.7628 355.3704,612.7733 347.6154,623.5163 L248.2734,761.1248 C248.2734,761.1248 232.4259,759.9368 219.7599,741.8543" id="Fill-99" fill="#ADC6FF"></path>
        <path d="M345.51675,626.47775 L345.51675,626.47775 C354.36375,617.01275 354.22125,602.31725 345.19275,593.20775 L244.54575,491.66075 C232.86075,479.87225 213.63075,480.25625 202.18125,492.50675 L202.17975,492.50675 C190.73175,504.75725 191.64525,523.96925 204.19575,534.83225 L312.30075,628.39925 C321.99825,636.79175 336.67125,635.94275 345.51675,626.47775" id="Fill-101" fill="#ADC6FF"></path>
        <path d="M217.098436,471.223701 C217.31946,471.025948 217.658946,471.044812 217.856699,471.265836 C221.104942,474.896315 223.465985,480.333604 225.081755,487.099493 C226.138909,491.526229 226.816458,496.263024 227.190869,501.006485 C227.30408,502.44078 227.382401,503.791906 227.431757,505.035862 L227.469004,506.142058 C227.479662,506.529817 227.485963,506.858717 227.489081,507.123987 L227.491508,507.531721 C227.490461,507.549105 227.488901,507.568985 227.485002,507.618684 C227.13603,509.841556 226.025298,513.513206 224.33628,518.262639 L224.159498,518.757789 C223.885405,519.522557 223.599078,520.307803 223.301811,521.110781 C222.366577,523.637034 221.364795,526.228328 220.363035,528.74309 L219.543463,530.782423 L219.117,531.828 L279.480717,660.586439 L337.994217,817.658939 C338.062956,817.843461 338.025192,818.050805 337.89581,818.199243 L337.701204,818.414145 C337.616219,818.505683 337.511213,818.616626 337.386474,818.745484 C336.974171,819.171401 336.487589,819.645022 335.929009,820.154404 C334.336199,821.606923 332.483231,823.058466 330.388089,824.413229 C322.666768,829.405997 313.863326,831.779748 304.269717,830.078147 C303.977698,830.026352 303.782958,829.747636 303.834753,829.455617 C303.886548,829.163598 304.165264,828.968858 304.457283,829.020653 C313.755856,830.669924 322.294953,828.36745 329.804915,823.511351 C331.847748,822.190412 333.654426,820.775131 335.205329,819.360828 C335.638704,818.965623 336.026585,818.5934 336.367731,818.250276 L336.873,817.726 L278.491283,661.001852 L218.044283,532.069352 C217.980216,531.932698 217.976613,531.775393 218.034356,531.63595 L219.024361,529.198413 C219.13502,528.922622 219.248764,528.638143 219.365285,528.345635 C220.364015,525.838479 221.362724,523.255133 222.294614,520.737911 L222.871637,519.163349 L223.148471,518.395436 C224.855288,513.633123 225.99873,509.917906 226.380711,507.752284 L226.417502,507.533803 L226.415121,507.133246 C226.410829,506.770395 226.400401,506.28301 226.380633,505.684236 C226.334646,504.291219 226.250938,502.747348 226.120199,501.090995 C225.749859,496.399104 225.079933,491.715603 224.03713,487.348961 C222.45905,480.740897 220.163811,475.455149 217.056301,471.981964 C216.858548,471.76094 216.877412,471.421454 217.098436,471.223701 Z" id="Stroke-103" fill="#597EF7" fill-rule="nonzero"></path>
        <polygon id="Fill-105" fill="#ADC6FF" points="238.34145 471.7796 151.25295 471.7796 152.75295 461.0801 237.40545 461.0801"></polygon>
        <g id="分组" transform="translate(115.500000, 318.698000)">
            <mask id="mask-6" fill="white">
                <use xlink:href="#path-5"></use>
            </mask>
            <g id="Clip-108"></g>
            <path d="M75.489,41.99115 C75.489,41.99115 50.712,66.76815 43.392,75.21465 C27.9585,64.63965 14.9385,54.59415 7.071,43.68015 C-0.561,33.09315 -3.417,21.66165 5.6625,9.89265 C13.266,0.03915 25.449,-1.12785 36.6345,5.67015 C55.2765,16.99815 75.489,41.99115 75.489,41.99115" id="Fill-107" fill="#597EF7" mask="url(#mask-6)"></path>
        </g>
        <path d="M174.128595,343.828495 C174.394849,343.562216 174.811511,343.53799 175.105133,343.755831 L175.189255,343.828445 L190.957255,359.594945 C191.214481,359.852146 191.246643,360.251159 191.049461,360.543786 L190.975233,360.637047 L159.439233,394.424547 C159.188465,394.693219 158.785132,394.737254 158.484898,394.543478 L158.398176,394.478197 L127.708176,367.730197 C127.395916,367.458045 127.363401,366.984286 127.635553,366.672026 C127.882964,366.388153 128.296992,366.335475 128.604831,366.532715 L128.693724,366.599403 L158.837,392.871 L189.384,360.143 L174.128645,344.889155 C173.862366,344.622901 173.83814,344.206239 174.055981,343.912617 L174.128595,343.828495 Z" id="Stroke-109" fill="#1D39C4" fill-rule="nonzero"></path>
        <path d="M289.85715,327.55145 C289.85715,327.55145 269.14665,336.68495 261.09015,329.74295 C253.79265,323.45495 260.52165,316.34045 260.52165,316.34045 C260.52165,316.34045 266.76615,305.52995 275.65815,299.24645 C281.48415,295.12895 291.39165,285.64895 294.30165,288.06395 C298.09515,291.21395 286.38315,299.25395 287.13765,302.76095 C288.66465,309.86645 308.42415,299.15945 312.55965,299.14295 C320.64315,299.10995 314.78265,316.78445 289.85715,327.55145" id="Fill-111" fill="#FFC999"></path>
        <path d="M313.449874,302.355433 C313.684024,302.173413 314.021397,302.215673 314.203417,302.449824 C314.385437,302.683974 314.343177,303.021347 314.109026,303.203367 C312.476636,304.472327 310.673637,305.619398 308.728553,306.651239 C305.546556,308.339246 302.141808,309.644034 298.73755,310.614426 C297.716332,310.905526 296.757284,311.148201 295.878014,311.346162 L295.190774,311.495276 L294.312074,311.666257 C294.255996,311.676194 294.212658,311.683565 294.182498,311.688461 C293.889753,311.735984 293.613912,311.537192 293.566389,311.244448 C293.518866,310.951703 293.717658,310.675862 294.010402,310.628339 L294.320802,310.572934 C294.579445,310.524599 294.880162,310.46433 295.21943,310.391412 C296.191289,310.182532 297.27526,309.914473 298.443131,309.581569 C301.779709,308.63047 305.115796,307.351994 308.225245,305.702473 C310.117761,304.698518 311.868769,303.584524 313.449874,302.355433 Z" id="Stroke-113" fill="#DD936F" fill-rule="nonzero"></path>
        <path d="M312.967205,307.973515 C313.193082,307.781323 313.531993,307.808629 313.724185,308.034505 C313.916377,308.260382 313.889071,308.599293 313.663195,308.791485 L313.362832,309.034277 C313.261865,309.113302 313.141522,309.205674 313.001866,309.310501 C312.463892,309.714312 311.822486,310.16321 311.078487,310.64584 C308.958943,312.020784 306.439291,313.394206 303.526327,314.675124 C300.584647,315.968668 297.396999,317.096353 293.967046,318.010873 C293.68048,318.08728 293.386233,317.916912 293.309827,317.630346 C293.23342,317.34378 293.403788,317.049533 293.690354,316.973127 C297.066176,316.07304 300.201902,314.963723 303.094009,313.691977 C305.952677,312.434935 308.421691,311.089115 310.493995,309.744816 C311.217142,309.275712 311.838484,308.840856 312.357129,308.451554 L312.695643,308.192651 C312.820451,308.095064 312.911027,308.021315 312.967205,307.973515 Z" id="Stroke-115" fill="#DD936F" fill-rule="nonzero"></path>
        <path d="M306.304246,316.367434 C306.562476,316.221573 306.890056,316.312666 307.035916,316.570896 C307.181777,316.829126 307.090684,317.156706 306.832454,317.302566 C302.788819,319.586605 299.133048,321.263466 295.927132,322.426674 C294.942147,322.784058 294.061029,323.070008 293.288965,323.292366 L292.964772,323.383791 C292.741146,323.445478 292.539317,323.49816 292.359693,323.542455 L291.91042,323.645418 C291.619411,323.702618 291.337132,323.513079 291.279932,323.22207 C291.222732,322.931061 291.412271,322.648782 291.70328,322.591582 L291.954557,322.536137 C292.132758,322.493995 292.374924,322.432387 292.679178,322.348459 C293.498721,322.12239 294.461828,321.815824 295.560818,321.417076 C298.711152,320.274034 302.312756,318.62202 306.304246,316.367434 Z" id="Stroke-117" fill="#DD936F" fill-rule="nonzero"></path>
        <path d="M269.9733,318.19625 L273.5778,321.17825 C277.0278,324.03425 277.8648,328.98725 275.5428,332.81675 L225.5883,415.22075 C219.2043,424.72325 206.1753,426.96575 196.9833,420.14375 C187.7898,413.32175 186.1608,400.20125 193.4058,391.33925 L257.4633,319.15925 C260.6928,315.52025 266.2248,315.09425 269.9733,318.19625" id="Fill-119" fill="#FFC999"></path>
        <path d="M206.906031,373.862466 C207.094572,373.633534 207.433001,373.60079 207.661934,373.789331 C207.865429,373.956923 207.913912,374.242945 207.789755,374.465223 L207.735069,374.545234 L199.851069,384.118234 C199.662528,384.347166 199.324099,384.37991 199.095166,384.191369 C198.891671,384.023777 198.843188,383.737755 198.967345,383.515477 L199.022031,383.435466 L206.906031,373.862466 Z" id="Stroke-121" fill="#DD936F" fill-rule="nonzero"></path>
        <path d="M237.40605,460.5434 C237.702627,460.5434 237.94305,460.783823 237.94305,461.0804 C237.94305,461.347319 237.748307,461.568754 237.493154,461.610372 L237.40605,461.6174 L152.75355,461.6174 C152.456973,461.6174 152.21655,461.376977 152.21655,461.0804 C152.21655,460.813481 152.411293,460.592046 152.666446,460.550428 L152.75355,460.5434 L237.40605,460.5434 Z" id="Stroke-123" fill="#597EF7" fill-rule="nonzero"></path>
        <path d="M238.34205,471.2426 C238.638627,471.2426 238.87905,471.483023 238.87905,471.7796 C238.87905,472.046519 238.684307,472.267954 238.429154,472.309572 L238.34205,472.3166 L152.75355,472.3166 C152.456973,472.3166 152.21655,472.076177 152.21655,471.7796 C152.21655,471.512681 152.411293,471.291246 152.666446,471.249628 L152.75355,471.2426 L238.34205,471.2426 Z" id="Stroke-125" fill="#597EF7" fill-rule="nonzero"></path>
        <path d="M205.3488,461.8874 C205.615719,461.8874 205.837154,462.082143 205.878772,462.337296 L205.8858,462.4244 L205.885,471.744 L206.153559,472.167055 C206.225732,472.283159 206.302598,472.408485 206.383952,472.542982 C206.847054,473.308592 207.362315,474.216019 207.916636,475.262002 C209.49754,478.245111 211.077355,481.743141 212.551199,485.729984 C217.49842,499.112537 220.088647,514.598905 219.066863,531.873109 C219.049351,532.169168 218.795151,532.394975 218.499091,532.377463 C218.203032,532.359951 217.977225,532.105751 217.994737,531.809691 C219.00733,514.690858 216.441669,499.351356 211.543829,486.102385 C210.086986,482.161531 208.526778,478.706912 206.96766,475.764914 C206.500786,474.883938 206.062888,474.104361 205.662196,473.428261 L205.277457,472.79188 C205.105078,472.512749 204.978768,472.31727 204.904045,472.206835 C204.858958,472.1402 204.829614,472.064583 204.817759,471.985683 L204.8118,471.9059 L204.8118,462.4244 C204.8118,462.127823 205.052223,461.8874 205.3488,461.8874 Z" id="Stroke-127" fill="#597EF7" fill-rule="nonzero"></path>
        <path d="M210.1023,466.7816 C210.2403,468.1106 211.2498,469.0946 212.3568,468.9791 C213.4638,468.8636 214.2498,467.6936 214.1118,466.3646 C213.9738,465.0356 212.9628,464.0516 211.8558,464.1671 C210.7503,464.2826 209.9628,465.4526 210.1023,466.7816" id="Fill-129" fill="#FFFFFF"></path>
    </g>
</svg>