<?xml version="1.0" encoding="UTF-8"?>
<svg width="512px" height="1024px" viewBox="0 0 512 1024" version="1.1" xmlns="http://www.w3.org/2000/svg" xmlns:xlink="http://www.w3.org/1999/xlink">
    <!-- Generator: Sketch 61.2 (89653) - https://sketch.com -->
    <title>2.人物组件/9.互联网人群/后仰/讲解</title>
    <desc>Created with Sketch.</desc>
    <defs>
        <polygon id="path-1" points="0.842331906 0.854124579 47.8995 0.854124579 47.8995 49.1682232 0.842331906 49.1682232"></polygon>
        <polygon id="path-3" points="0.9621 0.3807 90.455007 0.3807 90.455007 30 0.9621 30"></polygon>
        <polygon id="path-5" points="0 0.700869244 59.8303493 0.700869244 59.8303493 122.498787 0 122.498787"></polygon>
    </defs>
    <g id="2.人物组件/9.互联网人群/后仰/讲解" stroke="none" stroke-width="1" fill="none" fill-rule="evenodd">
        <path d="M169.696464,381.354981 C169.80453,381.035161 170.151399,380.863499 170.471219,380.971564 C170.759057,381.068823 170.926887,381.359513 170.878795,381.649828 L170.854636,381.746319 L161.518636,409.376319 C161.418075,409.67393 161.11159,409.842028 160.813638,409.778886 L160.724723,409.752905 L123.145223,395.645405 C122.829175,395.526759 122.669149,395.174371 122.787795,394.858323 C122.894576,394.57388 123.190689,394.415815 123.479242,394.473539 L123.574877,394.500895 L160.562,408.386 L169.696464,381.354981 Z" id="Stroke-1" fill="#96A7CA" fill-rule="nonzero"></path>
        <path d="M352.407297,340.270584 C352.58031,340.016559 352.926492,339.950885 353.180516,340.123897 C353.406316,340.277686 353.483295,340.5683 353.376102,340.809392 L353.327203,340.897116 L300.111703,419.030616 C299.93869,419.284641 299.592508,419.350315 299.338484,419.177303 C299.112684,419.023514 299.035705,418.7329 299.142898,418.491808 L299.191797,418.404084 L352.407297,340.270584 Z" id="Stroke-2" fill="#DD936F" fill-rule="nonzero"></path>
        <path d="M301.37366,381.343068 C301.647528,381.145687 302.029551,381.207692 302.226932,381.48156 C302.404575,381.728042 302.372115,382.062128 302.164197,382.270371 L302.08844,382.334832 L269.52494,405.803832 C269.260198,405.994635 268.898503,405.941684 268.69725,405.698571 L268.641945,405.619986 L264.815445,399.174486 C264.643113,398.884202 264.738731,398.509178 265.029014,398.336845 C265.290269,398.181746 265.620165,398.243687 265.809162,398.469242 L265.866655,398.550414 L269.352,404.421 L301.37366,381.343068 Z" id="Stroke-3" fill="#96A7CA" fill-rule="nonzero"></path>
        <path d="M325.13495,426.2391 C325.13495,426.2391 312.23345,397.8801 296.85095,373.6146 C282.82295,351.4881 267.20045,334.1751 252.81695,342.4506 C234.75545,352.8426 255.85745,382.8816 265.34195,398.8626 C272.16695,410.3631 288.63995,433.0311 298.15295,444.2181 C313.32545,462.0606 336.20795,443.2416 325.13495,426.2391" id="Fill-4" fill="#FFC999"></path>
        <path d="M269.16755,405.30795 C259.68305,389.32845 230.38955,355.34595 252.67355,342.20895 C268.39505,332.93895 284.40155,351.53595 301.73105,381.83895 L269.16755,405.30795 Z" id="Fill-6" fill="#E4EBF7"></path>
        <path d="M372.2033,347.2503 C372.2033,347.2503 344.4218,422.2728 325.9673,445.0638 C315.6458,457.8108 293.9978,451.7808 296.4188,432.5148 C298.4048,416.7018 353.5508,337.3488 353.5508,337.3488 C353.5508,337.3488 357.5348,328.9443 367.4318,333.7188 C377.7023,338.6748 372.2033,347.2503 372.2033,347.2503" id="Fill-8" fill="#FFC999"></path>
        <g id="分组" transform="translate(351.500000, 302.488500)">
            <mask id="mask-2" fill="white">
                <use xlink:href="#path-1"></use>
            </mask>
            <g id="Clip-11"></g>
            <path d="M31.98555,37.5966 C31.98555,37.5966 16.36155,52.2486 6.98955,48.5781 C-1.49895,45.2541 1.27605,33.8481 1.27605,33.8481 C1.27605,33.8481 4.46055,25.1796 10.42755,16.7796 C14.33655,11.2761 20.20905,-0.2979 23.56605,0.9471 C27.94005,2.5686 20.00505,13.4211 21.77805,16.3161 C25.37355,22.1826 39.65505,6.4221 43.34205,5.1096 C50.54955,2.5446 50.86305,20.1636 31.98555,37.5966" id="Fill-10" fill="#FFC999" mask="url(#mask-2)"></path>
        </g>
        <path d="M396.604229,310.161639 C396.770638,309.90324 397.115013,309.828669 397.373411,309.995079 C397.63181,310.161488 397.706381,310.505863 397.539971,310.764261 C396.010093,313.139831 394.091978,315.390069 391.874646,317.505278 C389.802827,319.481676 387.584938,321.234448 385.366812,322.745404 C384.590035,323.274533 383.868247,323.735916 383.219683,324.127166 L382.778664,324.389055 C382.610833,324.486905 382.481423,324.559915 382.393837,324.607632 C382.123946,324.754671 381.785957,324.655079 381.638918,324.385187 C381.491879,324.115296 381.591471,323.777307 381.861363,323.630268 L382.22209,323.425212 C382.341891,323.355331 382.483265,323.271576 382.64477,323.174148 L383.299971,322.770132 C383.752104,322.485488 384.233997,322.170371 384.740215,321.825542 C386.91096,320.346862 389.081941,318.63116 391.1064,316.699941 C393.263618,314.642078 395.125432,312.457889 396.604229,310.161639 Z" id="Stroke-12" fill="#DD936F" fill-rule="nonzero"></path>
        <path d="M397.934442,315.330208 C398.089243,315.064692 398.429976,314.974941 398.695492,315.129742 C398.961008,315.284543 399.050759,315.625276 398.895958,315.890792 L398.691007,316.221635 L398.47388,316.553653 C398.395804,316.670671 398.312011,316.793962 398.22244,316.92331 L398.083742,317.121847 C397.405822,318.084025 396.571771,319.154191 395.574251,320.305221 C392.880135,323.413942 389.520444,326.520253 385.445569,329.439085 L384.759792,329.92379 C384.57082,330.055583 384.380635,330.186747 384.189234,330.31727 C383.93531,330.49043 383.58909,330.424958 383.41593,330.171034 C383.24277,329.91711 383.308242,329.57089 383.562166,329.39773 L384.12311,329.01088 C388.430359,326.006913 391.947832,322.790264 394.733155,319.5763 C395.705824,318.453944 396.517018,317.413107 397.173894,316.480797 L397.490249,316.022113 L397.75345,315.62184 C397.846672,315.476121 397.906704,315.377783 397.934442,315.330208 Z" id="Stroke-14" fill="#DD936F" fill-rule="nonzero"></path>
        <path d="M394.624163,324.907581 C394.826503,324.676236 395.178074,324.652723 395.409419,324.855063 C395.640764,325.057403 395.664277,325.408974 395.461937,325.640319 C392.566467,328.950843 389.826667,331.597072 387.327245,333.643129 C386.449351,334.361784 385.663283,334.954498 384.979628,335.429302 L384.640602,335.660554 C384.587849,335.695831 384.536986,335.729484 384.488033,335.761531 L384.117295,335.995565 C383.98652,336.072523 383.829992,336.092744 383.683953,336.051545 L383.366636,335.968793 L383.120323,335.909184 C382.659578,335.800227 382.138289,335.691077 381.567669,335.58912 C379.161849,335.159253 376.695626,334.990525 374.406411,335.232436 C369.647351,335.735345 366.529055,337.901184 365.660738,342.241617 C365.600447,342.542991 365.307258,342.738429 365.005883,342.678138 C364.704509,342.617847 364.509071,342.324658 364.569362,342.023283 C365.546817,337.13731 369.092237,334.674809 374.289447,334.125598 C376.697306,333.87115 379.262857,334.046674 381.763437,334.493472 C382.236709,334.578035 382.677806,334.667488 383.081134,334.758018 L383.6385,334.889506 L383.745,334.916 L384.074537,334.700282 L384.344738,334.515145 L384.858669,334.149465 C385.391574,333.761617 385.980906,333.306891 386.62223,332.781896 C389.074214,330.774672 391.769571,328.171369 394.624163,324.907581 Z" id="Stroke-16" fill="#DD936F" fill-rule="nonzero"></path>
        <path d="M324.0113,642.3042 C273.1253,603.8172 239.8223,561.9207 239.8223,561.9207 C239.8223,561.9207 216.8048,513.4902 258.5783,518.1342 C278.8073,520.3842 308.2463,551.0622 353.5763,605.8812 C353.5763,605.8812 376.9013,629.3997 359.5298,646.4292 C344.9888,660.6852 324.0113,642.3042 324.0113,642.3042" id="Fill-18" fill="#FFC999"></path>
        <path d="M289.89215,615.33795 C314.54765,602.55645 328.13015,574.61595 328.13015,574.61595 C315.02465,560.44245 296.72465,540.80595 249.05015,497.35845 C209.34815,505.65795 224.30165,553.80345 224.30165,553.80345 L289.89215,615.33795 Z" id="Fill-20" fill="#597EF7"></path>
        <path d="M317.849224,568.145771 C318.121075,568.290041 318.224499,568.627374 318.080229,568.899224 L317.731621,569.527597 L317.425164,570.060001 C317.208068,570.43242 316.965381,570.839476 316.697046,571.279193 C315.54891,573.160631 314.167784,575.255795 312.552159,577.511285 C307.938305,583.952445 302.368808,590.39268 295.830981,596.404303 C291.629622,600.267511 287.153777,603.829184 282.401559,607.026353 C282.146209,607.198146 281.79994,607.130409 281.628147,606.875059 C281.456354,606.619709 281.524091,606.27344 281.779441,606.101647 C286.483611,602.936804 290.91554,599.410078 295.076617,595.583909 C301.554685,589.627236 307.074634,583.244296 311.646121,576.862282 C313.09998,574.832625 314.361155,572.935411 315.430611,571.210802 L315.745697,570.698638 C316.142024,570.04918 316.480891,569.47317 316.762461,568.97729 L317.095771,568.376776 C317.240041,568.104925 317.577374,568.001501 317.849224,568.145771 Z" id="Stroke-22" fill="#1D39C4" fill-rule="nonzero"></path>
        <path d="M223.896,553.422331 C224.083172,553.222821 224.382608,553.191763 224.604476,553.335214 L224.683669,553.3972 L289.988,614.662 L290.140378,614.582291 C290.5499,614.364669 291.025793,614.101769 291.562522,613.793168 C293.099324,612.90956 294.813155,611.838029 296.659728,610.575226 C301.93906,606.964884 307.219422,602.548809 312.147106,597.300793 C318.479421,590.556838 323.755183,582.927612 327.623277,574.386216 C327.750239,574.105863 328.080432,573.981516 328.360784,574.108477 C328.641137,574.235439 328.765484,574.565632 328.638523,574.845984 C324.717339,583.504611 319.372102,591.234304 312.959583,598.063678 C307.973322,603.374077 302.631601,607.841468 297.28885,611.495179 C295.417694,612.774795 293.679347,613.861654 292.118042,614.75935 L291.490486,615.115141 C291.291276,615.226403 291.102161,615.330337 290.923493,615.426974 L290.341217,615.735473 C290.253662,615.780687 290.186167,615.814795 290.139424,615.837853 C289.960905,615.925916 289.751616,615.911167 289.588805,615.805094 L289.511631,615.7445 L223.921131,554.21 C223.696682,553.999431 223.68543,553.646779 223.896,553.422331 Z" id="Stroke-24" fill="#1D39C4" fill-rule="nonzero"></path>
        <path d="M296.84285,652.9581 C269.46035,691.5531 254.30135,720.7776 222.00935,755.1801 C218.09135,759.3546 223.75535,765.3696 229.71935,770.3571 C232.49435,792.6216 252.96035,818.1846 260.52785,816.6501 C265.07135,815.7291 266.56685,797.4066 260.55785,787.9281 C247.12385,766.7436 266.95685,746.7711 266.95685,746.7711 C266.95685,746.7711 317.12285,695.5041 354.87185,655.5321 C354.87185,655.5321 376.68485,630.2511 360.49985,616.9146 C332.48285,593.8281 306.18785,639.7851 296.84285,652.9581" id="Fill-26" fill="#FFC999"></path>
        <path d="M270.83165,825.7371 C270.83165,825.7371 263.32865,829.0011 249.72665,816.2736 C236.12465,803.5461 234.78665,791.7471 228.25865,784.3581 C216.06065,770.5476 213.05015,761.9571 213.05015,761.9571 C213.05015,761.9571 210.55715,763.4616 209.34215,767.3091 C207.46715,773.2446 221.76965,782.8026 226.47065,792.9036 C229.87115,800.2116 233.00015,805.3626 240.49715,815.3811 C247.99565,825.3996 262.03115,832.5831 266.03765,830.5851 C270.04415,828.5871 270.83165,825.7371 270.83165,825.7371" id="Fill-28" fill="#96A7CA"></path>
        <path d="M213.04805,762.825 C213.04805,762.825 214.65155,767.2665 223.05305,778.617 C225.06155,781.332 226.95755,784.0875 230.06405,789.27 C234.83555,797.235 247.98305,824.6025 267.84005,826.5495 C271.56005,826.0215 273.12455,823.0755 273.76505,820.326 C274.37555,817.71 273.90755,814.9605 272.52005,812.6595 C268.31705,805.6875 258.24005,789.057 260.01905,772.209 C260.22755,770.2365 259.21055,768.3555 257.44055,767.46 C255.29855,766.3785 252.24005,765.3105 249.03305,765.765 C246.36455,766.143 245.37005,775.221 243.61955,774.219 C238.80605,771.462 232.74755,764.3925 230.72255,757.638 C229.02605,751.98 228.64805,747.606 228.64805,747.606 C228.64805,747.606 216.25955,755.22 213.04805,762.825" id="Fill-30" fill="#4E5C93"></path>
        <path d="M252.15178,802.775014 C252.44393,802.569029 252.84775,802.638879 253.053736,802.93103 C256.771299,808.203669 260.714841,811.815048 264.628638,814.073052 C265.988691,814.857713 267.245049,815.417785 268.365838,815.791023 C268.753616,815.920159 269.095451,816.016675 269.387323,816.085265 L269.679001,816.147262 C269.69368,816.149861 269.705908,816.151867 269.715654,816.15332 C270.069216,816.20601 270.31312,816.535342 270.26043,816.888904 C270.20774,817.242466 269.878408,817.48637 269.524846,817.43368 C269.223744,817.388808 268.69013,817.263409 267.956834,817.019211 C266.754557,816.618836 265.418458,816.023217 263.981737,815.194323 C259.904752,812.842171 255.821139,809.102519 251.995764,803.67697 C251.789779,803.38482 251.859629,802.981 252.15178,802.775014 Z" id="Stroke-32" fill="#96A7CA" fill-rule="nonzero"></path>
        <path d="M250.313177,778.696689 C252.653201,778.153096 255.131248,778.378116 257.523201,779.078547 C258.030314,779.227043 258.492809,779.386356 258.902248,779.546181 L259.166909,779.652571 C259.281778,779.70027 259.370046,779.739233 259.429867,779.767249 C259.753589,779.91886 259.893113,780.304194 259.741501,780.627917 C259.58989,780.951639 259.204556,781.091163 258.880833,780.939551 L258.663965,780.845375 C258.597915,780.818016 258.520246,780.786695 258.431531,780.752064 C258.055994,780.605473 257.628941,780.45837 257.159411,780.320878 C254.962753,779.677635 252.696995,779.471892 250.606093,779.957614 L250.32861,780.026565 C249.983065,780.118111 249.628732,779.912205 249.537185,779.56666 C249.445639,779.221115 249.651545,778.866782 249.99709,778.775235 C250.101868,778.747476 250.207235,778.7213 250.313177,778.696689 Z" id="Stroke-34" fill="#96A7CA" fill-rule="nonzero"></path>
        <path d="M238.4132,720.7767 C260.6912,765.0447 285.0962,794.6757 301.0847,841.4292 C303.0242,847.1007 311.3702,844.8102 318.9092,841.7397 C340.8692,850.0947 374.5622,843.6987 376.8542,835.9437 C378.2312,831.2877 362.0117,820.9167 350.2952,821.8272 C324.1037,823.8642 315.3542,795.7152 315.3542,795.7152 C315.3542,795.7152 292.5287,724.1517 274.0637,669.6162 C274.0637,669.6162 258.5522,630.3687 238.2737,638.8002 C203.1677,653.3982 230.8097,705.6672 238.4132,720.7767" id="Fill-36" fill="#FFC999"></path>
        <g id="分组" transform="translate(302.000000, 830.488500)">
            <mask id="mask-4" fill="white">
                <use xlink:href="#path-3"></use>
            </mask>
            <g id="Clip-39"></g>
            <path d="M88.3161,0.3807 C88.3161,0.3807 87.6561,8.9232 69.2076,15.2652 C50.7591,21.6057 39.1866,17.0577 29.1471,19.4712 C10.3851,23.9817 0.9621,22.5522 0.9621,22.5522 C0.9621,22.5522 1.1286,25.5987 4.0941,28.6107 C8.6646,33.2562 24.5241,24.7122 36.1761,25.3182 C44.6061,25.7562 50.9076,25.3872 63.8541,23.3652 C76.8006,21.3432 90.3351,11.8812 90.4506,7.1952 C90.5676,2.5077 88.3161,0.3807 88.3161,0.3807" id="Fill-38" fill="#96A7CA" mask="url(#mask-4)"></path>
        </g>
        <path d="M303.7613,853.46955 C303.7613,853.46955 308.6588,854.16405 323.2823,851.96055 C326.7788,851.43405 330.2588,851.03205 336.5768,850.70055 C346.2893,850.19205 378.0578,851.45355 389.6018,834.03405 C390.9368,830.33505 388.9808,827.44305 386.7488,825.50055 C384.6278,823.65255 381.8558,822.73605 379.0448,822.89055 C370.5323,823.36005 350.2013,824.52555 335.4863,814.61355 C333.7643,813.45405 331.5248,813.47055 329.8283,814.67055 C327.7763,816.12105 325.2878,818.42805 324.1358,821.61705 C323.1758,824.27205 331.0883,829.64655 329.3003,830.77455 C324.3878,833.87505 314.8763,836.01255 307.6328,834.57255 C301.5653,833.36655 297.3353,831.56955 297.3353,831.56955 C297.3353,831.56955 298.2998,846.76755 303.7613,853.46955" id="Fill-40" fill="#4E5C93"></path>
        <path d="M380.900776,827.200252 C381.123014,826.898885 381.54748,826.834738 381.848848,827.056976 C382.150215,827.279214 382.214362,827.70368 381.992124,828.005048 L381.845441,828.193116 C381.564763,828.536683 381.101899,829.027903 380.439473,829.622498 C379.133546,830.794699 377.480543,831.962569 375.45124,833.049281 C371.495651,835.167539 366.596084,836.72067 360.665635,837.476214 C360.294188,837.523536 359.954709,837.260782 359.907386,836.889335 C359.860064,836.517888 360.122818,836.178409 360.494265,836.131086 C366.261627,835.396319 371.002231,833.893579 374.811097,831.853893 C376.743269,830.819195 378.307384,829.714126 379.533695,828.613388 C379.9586,828.231993 380.310172,827.879783 380.592112,827.566117 L380.759181,827.375359 C380.828005,827.294333 380.874939,827.235288 380.900776,827.200252 Z" id="Stroke-42" fill="#96A7CA" fill-rule="nonzero"></path>
        <path d="M343.140403,819.000573 C343.365585,819.299747 343.305602,819.724822 343.006427,819.950003 L342.778824,820.131605 C342.624446,820.259893 342.425643,820.433339 342.193059,820.64941 C341.567846,821.230233 340.941872,821.900063 340.358515,822.647723 C339.197203,824.136119 338.355605,825.738275 337.965587,827.415834 C337.880793,827.780556 337.516388,828.007482 337.151666,827.922687 C336.786944,827.837893 336.560018,827.473488 336.644813,827.108766 C337.084035,825.219565 338.015525,823.446281 339.289433,821.813577 C339.920018,821.005387 340.594697,820.28344 341.270138,819.655955 C341.507428,819.435511 341.728436,819.242185 341.927772,819.077086 L342.190973,818.866597 C342.490147,818.641415 342.915222,818.701398 343.140403,819.000573 Z" id="Stroke-44" fill="#96A7CA" fill-rule="nonzero"></path>
        <path d="M239.66705,332.4444 C239.66705,332.4444 236.09105,352.5879 213.97055,353.7669 C188.29355,355.1364 183.56555,334.7424 183.56555,334.7424 L189.61355,332.4429 C190.86755,331.9659 191.70455,330.7884 191.73455,329.4474 C191.83955,324.6654 192.02705,312.4764 191.68955,296.4294 C213.35705,288.0084 228.90455,293.8194 228.90455,293.8194 C228.90455,293.8194 229.52855,312.8544 230.23655,326.8749 C230.30555,328.2339 231.19805,329.4114 232.49105,329.8374 C234.72305,330.5694 238.10855,331.7214 239.66705,332.4444" id="Fill-46" fill="#FFC999"></path>
        <path d="M185.14415,280.93395 C185.14415,280.93395 182.38715,250.10445 205.64915,248.16645 C233.74415,245.82495 235.83215,261.67995 237.92315,269.03745 C240.14465,276.85395 243.60965,309.97095 226.95215,317.68545 C219.85715,320.44695 215.45765,322.00995 202.85165,315.36945 C184.50665,305.70795 185.14415,280.93395 185.14415,280.93395" id="Fill-48" fill="#FFC999"></path>
        <path d="M192.839,303.57675 L191.8655,286.28325 C191.8655,286.28325 178.13,278.52675 176.9,287.39475 C175.6445,296.43675 182.048,302.44125 187.7945,304.37175 C191.4905,305.61225 192.839,303.57675 192.839,303.57675" id="Fill-50" fill="#FFC999"></path>
        <path d="M193.6637,243.33645 C193.6637,243.33645 207.8417,233.02395 214.6367,234.07545 C221.4317,235.12545 216.2507,240.50295 216.2507,240.50295 C216.2507,240.50295 234.8657,236.80995 236.6897,240.97695 C238.5122,245.14545 231.8207,247.33095 231.8207,247.33095 C231.8207,247.33095 250.2797,251.95245 251.2982,257.41395 C252.3182,262.87395 243.6947,261.88245 243.6947,261.88245 C243.6947,261.88245 250.4192,269.55495 248.4557,274.26645 C246.4937,278.97645 242.2547,278.54895 242.2547,278.54895 L239.4842,284.83245 L238.0937,271.77945 C238.0937,271.77945 231.4457,269.10195 219.1562,263.57895 C226.7147,270.94395 222.1682,271.08495 215.9822,270.01845 C208.7297,268.76895 200.2292,266.50395 200.6492,266.28195 C200.6492,266.28195 200.6972,274.80195 195.1352,278.85345 C188.3177,283.82145 193.5737,293.48295 191.7572,293.96295 C188.2667,294.91995 188.4542,285.33645 181.6457,283.86345 C176.3567,283.60995 175.3067,277.16295 176.7137,274.93545 C169.7162,274.17345 169.7687,266.98845 178.5767,260.50845 C170.7347,259.70295 175.3592,252.37095 186.8747,249.04695 C182.8757,236.28645 193.6637,243.33645 193.6637,243.33645" id="Fill-52" fill="#253368"></path>
        <path d="M203.075346,276.629165 C206.558962,276.006507 210.127171,275.751659 213.483121,276.078788 C213.991726,276.128365 214.491283,276.191316 214.981203,276.268127 C215.595025,276.364364 216.01461,276.939981 215.918373,277.553803 C215.822136,278.167625 215.246519,278.58721 214.632697,278.490973 C214.186772,278.421059 213.730594,278.363575 213.264832,278.318174 C210.141872,278.013756 206.768727,278.254673 203.471234,278.844062 C202.828731,278.958903 202.230365,279.080194 201.684444,279.202579 L200.983941,279.366982 C200.757609,279.422647 200.593368,279.465934 200.497095,279.493017 C199.898989,279.661267 199.277734,279.312801 199.109483,278.714695 C198.941233,278.116589 199.289699,277.495334 199.887805,277.327083 L200.439812,277.183768 C200.539258,277.159281 200.648737,277.132847 200.76788,277.104713 C201.455728,276.942286 202.2301,276.780243 203.075346,276.629165 Z" id="Stroke-54" fill="#253368" fill-rule="nonzero"></path>
        <path d="M225.460004,275.6231 C228.622803,274.661744 232.158683,274.580558 235.761943,275.95558 C236.342434,276.177097 236.633438,276.827253 236.41192,277.407743 C236.190403,277.988234 235.540247,278.279238 234.959757,278.05772 C231.871828,276.879353 228.834319,276.949095 226.114349,277.77585 C225.684489,277.906509 225.303234,278.045689 224.976385,278.183471 L224.710508,278.300814 C224.667678,278.320842 224.635867,278.336515 224.615443,278.347189 C224.064794,278.634981 223.385103,278.421893 223.097311,277.871243 C222.809519,277.320594 223.022607,276.640903 223.573257,276.353111 C223.943445,276.159635 224.586073,275.888738 225.460004,275.6231 Z" id="Stroke-56" fill="#253368" fill-rule="nonzero"></path>
        <path d="M223.039824,278.36182 C223.120723,278.065311 223.426672,277.890525 223.72318,277.971424 C223.990038,278.044233 224.1583,278.299332 224.130309,278.565779 L224.113576,278.65478 L223.132,282.25 L224.39759,295.267969 C224.42116,295.510487 224.284628,295.736156 224.067563,295.831344 L223.982544,295.860701 L218.929044,297.162701 C218.631417,297.239383 218.32798,297.060271 218.251299,296.762644 C218.182285,296.49478 218.320464,296.22221 218.56576,296.114473 L218.651356,296.084899 L223.243,294.901 L222.01481,282.256631 L222.031824,282.05632 L223.039824,278.36182 Z" id="Stroke-58" fill="#DD936F" fill-rule="nonzero"></path>
        <path d="M204.288574,285.71508 C206.441882,284.515703 208.982258,284.427274 211.68438,286.160262 C211.943091,286.326185 212.018311,286.670418 211.852388,286.92913 C211.686465,287.187841 211.342232,287.263061 211.08352,287.097138 C208.752733,285.602303 206.646723,285.675612 204.830162,286.687423 C204.544917,286.846302 204.293601,287.016161 204.079491,287.184879 L203.90266,287.331387 C203.873971,287.3567 203.852451,287.376788 203.8383,287.390856 C203.620338,287.607545 203.267983,287.606513 203.051294,287.38855 C202.834605,287.170588 202.835637,286.818233 203.0536,286.601544 C203.287271,286.369238 203.704746,286.040268 204.288574,285.71508 Z" id="Stroke-60" fill="#253368" fill-rule="nonzero"></path>
        <path d="M227.819996,284.539919 C229.205872,283.86811 230.639346,283.591494 232.01043,283.956733 C232.746507,284.152815 233.428688,284.531373 234.040463,285.104913 C234.264684,285.315119 234.276044,285.667293 234.065837,285.891513 C233.855631,286.115734 233.503457,286.127094 233.279237,285.916887 C232.80156,285.469065 232.282486,285.18102 231.723932,285.032228 C230.654569,284.747363 229.473431,284.975286 228.305491,285.541449 C228.016622,285.68148 227.752185,285.831567 227.518782,285.981069 L227.319772,286.113667 L227.242961,286.169293 C226.998634,286.35575 226.649415,286.308837 226.462957,286.064511 C226.2765,285.820184 226.323413,285.470965 226.567739,285.284507 C226.820035,285.091969 227.25216,284.81518 227.819996,284.539919 Z" id="Stroke-62" fill="#253368" fill-rule="nonzero"></path>
        <path d="M210.9635,299.72205 C210.9635,299.72205 218.9825,301.29555 226.5455,299.92755 C226.5455,299.92755 224.639,304.58955 219.284,304.71405 C212.522,304.87005 210.9635,299.72205 210.9635,299.72205" id="Fill-64" fill="#FFFFFF"></path>
        <path d="M211.085673,299.099423 C210.61625,299.007312 210.217609,299.448045 210.356219,299.905898 C210.571795,300.617985 211.103291,301.640293 212.074226,302.657815 C213.73979,304.403296 216.121385,305.421681 219.298634,305.348381 C221.789096,305.29048 223.79015,304.327808 225.327901,302.767442 C225.881459,302.205743 226.335065,301.604847 226.697012,301.002737 L226.866895,300.708276 C226.992983,300.479719 227.080725,300.295033 227.13279,300.167719 C227.322349,299.704186 226.925362,299.214044 226.432564,299.303182 C226.039451,299.374288 225.639788,299.438233 225.233914,299.495177 C221.477261,300.022237 217.446435,299.936586 213.602389,299.47431 C213.053271,299.408274 212.546,299.338514 212.086357,299.268076 L211.33961,299.146036 C211.228312,299.126497 211.143197,299.110711 211.085673,299.099423 Z M212.174256,300.743813 L212.053,300.546 L212.257117,300.576493 C212.629674,300.630415 213.028394,300.683426 213.450874,300.734232 L214.192489,300.818573 C217.662765,301.19047 221.257603,301.254733 224.679679,300.846614 L225.341,300.76 L225.194948,300.971547 C224.968032,301.280785 224.711374,301.585155 224.424057,301.876697 C223.106147,303.213988 221.410053,304.029949 219.269252,304.079721 C216.454359,304.144661 214.414857,303.272558 212.992315,301.78176 C212.673818,301.447981 212.402268,301.098287 212.174256,300.743813 Z" id="Stroke-66" fill="#FF7A46" fill-rule="nonzero"></path>
        <path d="M229.033374,316.191441 C229.247693,315.971147 229.600016,315.966305 229.820309,316.180624 C230.040603,316.394943 230.045445,316.747266 229.831126,316.967559 L229.694227,317.101334 C229.532589,317.253086 229.296813,317.457166 228.987573,317.699145 C228.309421,318.229797 227.504237,318.758818 226.573648,319.251684 C221.399808,321.99189 214.858419,322.503523 207.071419,319.403536 C206.785868,319.289859 206.646537,318.96622 206.760214,318.680669 C206.873891,318.395118 207.19753,318.255787 207.483081,318.369464 C214.957342,321.344951 221.159165,320.859877 226.052723,318.268116 C226.923258,317.807056 227.673679,317.314015 228.301684,316.822604 L228.556421,316.618104 C228.78733,316.427584 228.946641,316.280591 229.033374,316.191441 Z" id="Stroke-68" fill="#DD936F" fill-rule="nonzero"></path>
        <path d="M220.563224,308.01375 C220.87057,308.013267 221.120115,308.262028 221.1206,308.569374 C221.121035,308.845985 220.919582,309.075778 220.655232,309.119324 L220.564976,309.126749 L216.754976,309.13275 C216.44763,309.133233 216.198085,308.884472 216.1976,308.577126 C216.197165,308.300515 216.398618,308.070722 216.662968,308.027176 L216.753224,308.019751 L220.563224,308.01375 Z" id="Stroke-70" fill="#DD936F" fill-rule="nonzero"></path>
        <path d="M180.443737,287.607512 C181.987601,286.858953 183.800267,287.411087 185.488046,290.000556 L185.749194,290.406111 C186.98022,292.344037 187.088891,292.955833 186.002212,293.211904 L185.675911,293.280743 C185.503225,293.319173 185.437544,293.344792 185.335992,293.40296 C185.12802,293.522083 184.955076,293.734247 184.812423,294.114417 C184.187553,295.783491 186.027378,297.1111 188.404463,297.035084 C188.711652,297.025261 188.968642,297.266324 188.978466,297.573513 C188.988289,297.880702 188.747226,298.137692 188.440037,298.147516 C185.397043,298.244827 182.783647,296.359011 183.770223,293.723794 C184.001367,293.10779 184.342389,292.689431 184.782803,292.437169 C184.992561,292.317023 185.121444,292.265971 185.372225,292.20804 L185.502,292.179 L185.38513,291.953734 C185.27977,291.761867 185.133517,291.51651 184.940304,291.208659 L184.555537,290.608171 C183.167658,288.478822 181.957836,288.110313 180.929319,288.609 C180.849224,288.647835 180.785441,288.68517 180.74015,288.714964 L180.674872,288.762708 C180.442687,288.964083 180.091217,288.939107 179.889842,288.706922 C179.688467,288.474737 179.713443,288.123267 179.945628,287.921892 C180.04778,287.833295 180.2152,287.718321 180.443737,287.607512 Z" id="Stroke-72" fill="#DD936F" fill-rule="nonzero"></path>
        <path d="M192.609621,303.069722 C192.889645,302.943039 193.219346,303.067347 193.346028,303.347371 L193.505095,303.688531 C193.635342,303.963289 193.784721,304.269791 193.950799,304.600025 C194.425071,305.543087 194.937302,306.485874 195.467406,307.363637 C196.147907,308.49043 196.806927,309.423982 197.417925,310.09436 C197.753485,310.462531 198.067235,310.742608 198.350733,310.925974 C198.608803,311.092892 198.682695,311.437414 198.515776,311.695483 C198.348858,311.953553 198.004336,312.027445 197.746267,311.860526 C197.372947,311.619064 196.990461,311.277628 196.595328,310.844095 C195.927289,310.111133 195.229532,309.122708 194.514671,307.939019 C193.968199,307.034154 193.44272,306.066983 192.95646,305.100086 L192.714313,304.61171 L192.331972,303.806129 C192.205289,303.526105 192.329597,303.196404 192.609621,303.069722 Z" id="Stroke-74" fill="#DD936F" fill-rule="nonzero"></path>
        <path d="M258.63755,486.4203 C233.98055,489.0993 172.12505,489.7563 172.12505,489.7563 C161.87105,486.6573 167.09555,465.9723 167.09555,465.9723 C167.09555,465.9723 160.30655,420.0288 155.08505,383.8893 C152.83805,368.3283 145.7678,345.748994 146.8178,345.255494 C158.6183,339.706994 170.06075,336.089863 188.42225,332.251363 C188.98475,333.379363 194.49605,342.7608 211.80605,342.2733 C230.75405,341.7393 236.69855,333.2133 237.32405,331.6953 C246.60305,333.8433 250.76255,335.7918 261.64055,339.3168 C264.94955,340.3893 266.98055,343.7238 266.43755,347.1573 C266.43755,347.1573 270.82505,393.5838 258.66905,469.3128 C265.22255,478.0653 258.63755,486.4203 258.63755,486.4203 Z" id="Fill-76" fill="#E4EBF7"></path>
        <path d="M186.796768,341.304327 C186.975693,341.01806 187.352806,340.931043 187.639073,341.109968 C201.40607,349.714758 215.650518,350.011047 228.70993,345.350308 C230.499558,344.711612 232.101169,344.02772 233.491308,343.344665 L234.043501,343.067473 C234.217589,342.978115 234.381637,342.891918 234.535459,342.809252 L234.979914,342.564385 C235.073562,342.511309 235.14148,342.471569 235.183036,342.44641 C235.47182,342.271577 235.847656,342.363952 236.02249,342.652736 C236.197323,342.94152 236.104948,343.317356 235.816164,343.49219 L235.587254,343.625349 L235.348166,343.758834 C234.972912,343.965462 234.53271,344.195069 234.030428,344.441869 C232.599912,345.144764 230.955755,345.846822 229.12084,346.50168 C215.738324,351.277731 201.11348,350.97353 186.991127,342.146632 C186.70486,341.967707 186.617843,341.590594 186.796768,341.304327 Z" id="Stroke-78" fill="#96A7CA" fill-rule="nonzero"></path>
        <path d="M264.525544,363.628394 C264.860701,363.58799 265.165153,363.826936 265.205556,364.162094 L265.256117,364.615041 C265.295899,364.986711 265.340177,365.428907 265.387821,365.940539 L265.469291,366.847998 C265.56416,367.943592 265.658105,369.168027 265.74803,370.518315 L265.786314,371.104707 C267.41688,396.583254 266.067076,429.636114 259.497461,468.104131 L259.303,469.229 L259.411632,469.461491 C263.184138,477.705583 262.528858,482.818869 258.986755,485.384421 L258.810233,485.508544 C258.129791,485.973016 257.403679,486.299365 256.677342,486.512915 C256.237245,486.642308 255.888407,486.706139 255.627952,486.730334 L245.435989,486.987981 L236.204373,487.241569 C227.249258,487.496021 218.357963,487.773761 209.913188,488.070658 L200.977998,488.398967 C188.844833,488.865915 178.922628,489.342638 171.850043,489.8221 C171.513232,489.844933 171.221683,489.590404 171.19885,489.253593 C171.176017,488.916782 171.430546,488.625233 171.767357,488.6024 L174.292438,488.438763 C182.543945,487.926484 193.960141,487.418696 207.767709,486.923564 L216.283633,486.629825 C222.048265,486.438388 227.968708,486.255933 233.931633,486.08368 L246.315376,485.741826 L255.553051,485.511016 L255.706543,485.48953 C255.859739,485.463477 256.073934,485.41608 256.33251,485.340057 C256.943011,485.160563 257.553738,484.886074 258.121012,484.498851 C261.31515,482.318522 261.931248,477.701043 258.115878,469.572983 C258.062609,469.459502 258.045521,469.332385 258.066929,469.208865 C264.738323,430.716964 266.177517,397.611077 264.620546,372.051217 L264.56631,371.182785 C264.452934,369.411227 264.332316,367.846917 264.211031,366.496206 L264.064607,364.973268 L263.991844,364.308406 C263.95144,363.973249 264.190386,363.668797 264.525544,363.628394 Z" id="Stroke-80" fill="#96A7CA" fill-rule="nonzero"></path>
        <path d="M180.12995,591.8763 L208.84895,579.3063 C208.84895,579.3063 219.59045,572.1378 229.22345,567.8058 C243.21995,561.5118 267.34595,546.9393 277.83245,535.8453 C264.31595,510.5058 258.20495,495.7173 258.20495,495.7173 L168.21245,499.8468 C168.21245,499.8468 148.45445,545.4183 180.12995,591.8763" id="Fill-82" fill="#597EF7"></path>
        <path d="M259.09235,496.5069 L257.46935,485.6229 L168.28235,489.4224 L167.66285,499.8819 C167.66285,499.8819 250.00535,497.0664 259.09235,496.5069" id="Fill-84" fill="#597EF7"></path>
        <path d="M259.654859,496.483372 C259.667352,496.79376 259.426266,497.055914 259.115878,497.068908 L227.488285,498.379086 L183.012628,500.174108 C177.372473,500.395566 172.439685,500.585382 168.307818,500.739509 C167.997374,500.751089 167.736321,500.508812 167.723971,500.198368 C167.713161,499.887924 167.955438,499.626871 168.265882,499.615291 L192.36058,498.678092 L219.462898,497.582033 L259.068822,495.944892 C259.37921,495.931898 259.641364,496.172984 259.654859,496.483372 Z" id="Stroke-86" fill="#1D39C4" fill-rule="nonzero"></path>
        <path d="M257.216807,485.219729 C257.230459,485.530089 256.989931,485.792754 256.679571,485.806407 L227.932927,487.052384 L195.059728,488.437061 C184.565661,488.869418 175.70475,489.222134 168.870317,489.477059 C168.559872,489.488639 168.298821,489.246361 168.287241,488.935917 C168.275661,488.625472 168.517939,488.364421 168.828383,488.352841 L189.081082,487.556013 L208.674257,486.744121 L236.263039,485.568199 L256.630129,484.682493 C256.940489,484.668841 257.203154,484.909369 257.216807,485.219729 Z" id="Stroke-88" fill="#1D39C4" fill-rule="nonzero"></path>
        <path d="M230.3039,492.57375 C230.3834,493.65825 231.5564,494.46825 232.9244,494.38425 C234.2939,494.29875 235.3379,493.35225 235.2599,492.26775 C235.1804,491.18475 234.0074,490.37475 232.6394,490.45875 C231.2714,490.54275 230.2244,491.48925 230.3039,492.57375" id="Fill-90" fill="#1D39C4"></path>
        <path d="M227.033834,486.151729 C227.313166,486.163849 227.536054,486.377703 227.568021,486.646611 L227.571421,486.738084 L227.154,496.336 L227.693223,497.795509 L228.420591,499.816669 C228.675064,500.532439 228.94101,501.289215 229.216789,502.083864 C230.792487,506.624195 232.368137,511.469537 233.838931,516.419701 C235.236695,521.124071 236.467521,525.685418 237.485537,530.016484 L237.795216,531.355538 C240.513338,543.308082 241.362064,552.577761 239.800696,558.237783 C239.718084,558.537258 239.408341,558.713059 239.108867,558.630446 C238.809392,558.547834 238.633591,558.238091 238.716204,557.938617 C240.269144,552.309142 239.310259,542.696278 236.390383,530.273899 C235.377697,525.965507 234.152438,521.424796 232.760525,516.740117 C231.457762,512.355485 230.072125,508.052407 228.677313,503.972104 L228.153972,502.452709 C227.879176,501.660891 227.614209,500.906899 227.360711,500.193871 L226.542347,497.923669 L226.061938,496.626993 C226.043917,496.579427 226.032472,496.529749 226.027824,496.479329 L226.025979,496.403316 L226.447479,486.689316 C226.460946,486.378947 226.723466,486.138262 227.033834,486.151729 Z" id="Stroke-92" fill="#1D39C4" fill-rule="nonzero"></path>
        <g id="分组" transform="translate(111.500000, 342.988500)">
            <mask id="mask-6" fill="white">
                <use xlink:href="#path-5"></use>
            </mask>
            <g id="Clip-95"></g>
            <path d="M0.92055,101.0697 C0.92055,101.0697 5.93355,70.3197 14.41305,42.8682 C22.14555,17.8377 32.68005,-2.9673 48.73155,1.2462 C68.88555,6.5367 56.40105,41.0592 51.44055,58.9692 C47.87055,71.8557 37.91955,98.0517 31.67505,111.3417 C21.71205,132.5382 -5.30445,120.3807 0.92055,101.0697" id="Fill-94" fill="#FFC999" mask="url(#mask-6)"></path>
        </g>
        <path d="M160.9391,409.1802 C165.9011,391.2717 185.2556,350.7957 160.3061,343.9632 C142.7036,339.1422 132.1346,361.2852 123.3596,395.0727 L160.9391,409.1802 Z" id="Fill-96" fill="#E4EBF7"></path>
        <path d="M227.837,411.34965 C227.837,411.34965 163.259,458.56965 135.29,467.38515 C119.6465,472.31715 104.9255,455.34015 117.578,440.61015 C127.964,428.52165 217.751,392.79615 217.751,392.79615 C217.751,392.79615 225.713,387.98715 231.3275,397.43415 C237.1565,407.23515 227.837,411.34965 227.837,411.34965" id="Fill-98" fill="#FFC999"></path>
        <path d="M236.20565,415.3356 C236.20565,415.3356 214.85765,413.5851 211.28915,404.1726 C208.05665,395.6481 218.37515,390.0531 218.37515,390.0531 C218.37515,390.0531 226.93865,386.5971 237.17165,385.3836 C243.87515,384.5871 256.39715,381.1761 257.72615,384.4986 C259.45865,388.8306 246.08765,390.2301 245.13215,393.4881 C243.19565,400.0881 264.46415,400.1001 267.91115,401.9541 C274.64915,405.5766 261.79865,417.6321 236.20565,415.3356" id="Fill-100" fill="#FFC999"></path>
        <path d="M246.605133,403.430182 C246.706569,403.140057 247.023993,402.987096 247.314118,403.088533 L247.605477,403.185202 L248.223705,403.377033 L248.459727,403.446889 C249.389309,403.718848 250.441364,403.991087 251.593932,404.245293 C256.617636,405.353303 261.780343,405.764581 266.584031,405.074367 L267.19382,404.98028 C267.497063,404.930226 267.783467,405.135476 267.83352,405.43872 C267.883574,405.741963 267.678324,406.028367 267.37508,406.07842 L266.742325,406.176053 C261.787375,406.888001 256.497759,406.466612 251.354214,405.332171 C250.344541,405.109482 249.409623,404.873066 248.563062,404.634513 L248.147207,404.515112 C247.812804,404.417279 247.517403,404.326286 247.26371,404.244431 L246.946782,404.139167 C246.656657,404.037731 246.503696,403.720307 246.605133,403.430182 Z" id="Stroke-102" fill="#DD936F" fill-rule="nonzero"></path>
        <path d="M244.178747,408.219517 C251.149347,409.90098 257.253227,410.217296 262.12815,409.728162 L262.611532,409.676584 C262.990154,409.633749 263.329578,409.588558 263.628512,409.543003 L264.205916,409.445191 C264.224759,409.441498 264.24077,409.438249 264.253928,409.435474 C264.554662,409.37206 264.849861,409.564445 264.913276,409.865178 C264.97669,410.165912 264.784305,410.461111 264.483572,410.524526 L264.150288,410.586236 L264.024929,410.607175 C263.658688,410.667136 263.228426,410.726892 262.736653,410.782529 C257.661015,411.356761 251.254001,411.071148 243.917753,409.301483 C243.618976,409.229412 243.435195,408.92878 243.507267,408.630003 C243.572131,408.361104 243.82213,408.185351 244.089289,408.20543 L244.178747,408.219517 Z" id="Stroke-104" fill="#DD936F" fill-rule="nonzero"></path>
        <path d="M239.29569,412.362024 C239.387466,412.0687 239.699652,411.905314 239.992976,411.99709 L240.24205,412.068349 C240.3514,412.097827 240.487049,412.132731 240.648924,412.172174 L240.819538,412.213096 C241.52517,412.379792 242.371537,412.546971 243.357695,412.70333 C246.550985,413.209638 250.412731,413.485542 254.932851,413.40878 C255.240153,413.403562 255.493501,413.648449 255.498802,413.955751 C255.503938,414.263053 255.259051,414.516401 254.951749,414.52162 C250.36651,414.599488 246.44014,414.318966 243.183402,413.802598 C242.169706,413.641873 241.296128,413.469319 240.56365,413.296281 L240.217806,413.212002 C239.958834,413.146743 239.772988,413.094467 239.660624,413.05931 C239.3673,412.967534 239.203914,412.655348 239.29569,412.362024 Z" id="Stroke-106" fill="#DD936F" fill-rule="nonzero"></path>
        <path d="M216.6017,669.53565 C190.7777,615.64215 182.0657,598.07865 167.5802,551.69565 C167.5802,551.69565 179.6552,503.08365 220.1357,546.21615 C227.4707,554.03115 241.5482,586.78965 263.6072,643.93065 C263.6072,643.93065 277.4267,673.12065 253.3532,686.36565 C230.7827,698.78265 216.6017,669.53565 216.6017,669.53565" id="Fill-108" fill="#FFC999"></path>
        <path d="M164.45615,558.0516 C164.45615,558.0516 173.49065,500.1021 228.04715,542.2536 C240.12365,577.0986 257.23115,620.9886 257.23115,620.9886 C257.23115,620.9886 234.61565,643.5321 202.74365,646.2081 C166.74215,564.8646 164.45615,558.0516 164.45615,558.0516" id="Fill-110" fill="#597EF7"></path>
        <path d="M249.366145,612.221509 C249.575677,612.461972 249.550603,612.826764 249.310141,613.036295 L249.030417,613.275293 C248.859852,613.419503 248.666602,613.580839 248.451329,613.758232 L248.22874,613.940938 C247.354511,614.655814 246.344122,615.45187 245.210109,616.308828 C241.971513,618.756191 238.389418,621.203234 234.56365,623.487731 C225.543398,628.874031 216.603877,632.518856 208.223958,633.619285 C205.545647,633.970994 202.956141,634.054449 200.465579,633.852511 C200.147678,633.826735 199.910863,633.54813 199.936639,633.230229 C199.962415,632.912328 200.24102,632.675513 200.558921,632.701289 C202.965222,632.896394 205.473444,632.81556 208.073577,632.474117 C216.272578,631.397445 225.074785,627.808606 233.971498,622.496075 C237.758867,620.234508 241.306849,617.810769 244.51376,615.387349 L245.331921,614.763217 C245.861712,614.355161 246.35994,613.963591 246.825025,613.591046 L247.716489,612.867146 L248.551359,612.165505 C248.791822,611.955973 249.156614,611.981047 249.366145,612.221509 Z" id="Stroke-112" fill="#1D39C4" fill-rule="nonzero"></path>
        <path d="M240.675976,498.030296 C240.957395,497.880199 241.307207,497.986657 241.457304,498.268076 C242.854906,500.888465 244.075807,503.60755 245.127763,506.415823 C250.30265,520.230571 251.127927,534.860963 249.441438,548.082366 C249.277949,549.36405 249.102661,550.506371 248.927187,551.495163 L248.796503,552.201485 L248.690689,552.722766 C248.671162,552.811274 248.63118,552.893515 248.574451,552.963139 L248.512276,553.028322 L236.557,563.746 L257.771529,620.788045 C257.841845,620.977116 257.807767,621.186549 257.687217,621.3425 L257.619803,621.415677 L257.296856,621.704961 C257.033787,621.938127 256.723958,622.208268 256.369169,622.512305 C255.356983,623.3797 254.186637,624.345684 252.87253,625.385631 C249.11932,628.355815 244.964436,631.325685 240.522585,634.098223 C229.818349,640.779652 219.199779,645.247967 209.249691,646.472518 C207.021957,646.746684 204.845797,646.853258 202.725545,646.784547 C202.406768,646.774216 202.156722,646.507422 202.166744,646.188645 C202.177384,645.869868 202.444178,645.619822 202.762955,645.630153 C204.822012,645.696881 206.938658,645.593221 209.108611,645.326167 C218.864127,644.125561 229.33707,639.718527 239.91101,633.118427 C244.313969,630.370164 248.434445,627.424889 252.155783,624.479928 C253.295019,623.578369 254.324615,622.733401 255.234841,621.96155 L255.617601,621.635281 C255.897478,621.395441 256.148645,621.177284 256.370175,620.982391 L256.551,620.821 L235.337971,563.781155 C235.267063,563.590493 235.302323,563.379285 235.425118,563.223059 L235.493724,563.149878 L247.6,552.295 L247.703244,551.768585 C247.730932,551.621223 247.759896,551.462736 247.789956,551.293347 C247.962214,550.322674 248.134659,549.198882 248.295721,547.936221 C249.960494,534.885066 249.145307,520.433544 244.046157,506.820984 C243.011694,504.059405 241.811548,501.386545 240.438196,498.811624 C240.288099,498.530205 240.394557,498.180393 240.675976,498.030296 Z" id="Stroke-114" fill="#1D39C4" fill-rule="nonzero"></path>
        <path d="M256.526355,560.892044 C256.844199,560.865565 257.123327,561.101762 257.149806,561.419605 C257.173638,561.705664 256.984701,561.960364 256.714967,562.027747 L256.622245,562.043056 L236.348245,563.732056 C236.030401,563.758535 235.751273,563.522338 235.724794,563.204495 C235.700962,562.918436 235.889899,562.663736 236.159633,562.596353 L236.252355,562.581044 L256.526355,560.892044 Z" id="Stroke-116" fill="#1D39C4" fill-rule="nonzero"></path>
    </g>
</svg>