<?xml version="1.0" encoding="UTF-8"?>
<svg width="1024px" height="1024px" viewBox="0 0 1024 1024" version="1.1" xmlns="http://www.w3.org/2000/svg" xmlns:xlink="http://www.w3.org/1999/xlink">
    <!-- Generator: Sketch 61.2 (89653) - https://sketch.com -->
    <title>4.背景组件/灰色版/三角构成</title>
    <desc>Created with Sketch.</desc>
    <defs>
        <polygon id="path-1" points="0 0.309890158 209.820896 0.309890158 209.820896 182.257327 0 182.257327"></polygon>
    </defs>
    <g id="4.背景组件/灰色版/三角构成" stroke="none" stroke-width="1" fill="none" fill-rule="evenodd">
        <g id="编组" transform="translate(86.000000, 190.000000)">
            <path d="M397.5,157.464725 L633.591549,566.267113 L161.408451,566.267113 L397.5,157.464725 Z M369.789216,47.9824305 L52.7229599,596.996485 C43.8844629,612.300729 49.1259858,631.872287 64.4302289,640.710784 C69.2956792,643.520675 74.815194,645 80.4337435,645 L714.566257,645 C732.239369,645 746.566257,630.673112 746.566257,613 C746.566257,607.381451 745.086932,601.861936 742.27704,596.996485 L425.210784,47.9824305 C416.372287,32.6781874 396.800729,27.4366645 381.496485,36.2751615 C376.634611,39.0829885 372.597043,43.1205556 369.789216,47.9824305 Z" id="Fill-1" fill="#4E5C93"></path>
            <path d="M376.211546,329.03332 L312.765388,439.006661 C306.14165,450.487807 310.079357,465.164716 321.560503,471.788454 C325.20738,473.892421 329.34357,475 333.553842,475 L460.446158,475 C473.700992,475 484.446158,464.254834 484.446158,451 C484.446158,446.789728 483.33858,442.653538 481.234612,439.006661 L417.788454,329.03332 C411.164716,317.552174 396.487807,313.614467 385.006661,320.238205 C381.353007,322.346083 378.319423,325.379666 376.211546,329.03332 Z" id="Fill-2" fill="#4E5C93"></path>
            <g transform="translate(0.000000, 28.000000)">
                <g opacity="0.653738839" transform="translate(0.000000, 0.309890)">
                    <mask id="mask-2" fill="white">
                        <use xlink:href="#path-1"></use>
                    </mask>
                    <g id="Clip-4"></g>
                    <polygon id="Fill-3" fill="#4E5C93" mask="url(#mask-2)" points="104.910448 0.309785111 0 182.257327 209.820896 182.257327"></polygon>
                </g>
                <polygon id="Fill-5" fill="#4E5C93" opacity="0.453078497" points="786.828358 355.370478 721.783881 468.821791 851.872836 468.821791"></polygon>
            </g>
        </g>
    </g>
</svg>