<?xml version="1.0" encoding="UTF-8"?>
<svg width="1024px" height="1024px" viewBox="0 0 1024 1024" version="1.1" xmlns="http://www.w3.org/2000/svg" xmlns:xlink="http://www.w3.org/1999/xlink">
    <!-- Generator: Sketch 61.2 (89653) - https://sketch.com -->
    <title>4.背景组件/灰色版/五角星收藏</title>
    <desc>Created with Sketch.</desc>
    <g id="4.背景组件/灰色版/五角星收藏" stroke="none" stroke-width="1" fill="none" fill-rule="evenodd">
        <path d="M512,719.5 L325.460229,817.569761 C309.817202,825.793787 290.469133,819.779498 282.245108,804.136472 C278.970257,797.907336 277.840188,790.772358 279.029847,783.836114 L314.655773,576.121026 L314.655773,576.121026 L163.741928,429.016385 C151.086454,416.680346 150.8275,396.420721 163.163539,383.765247 C168.075814,378.725771 174.512371,375.446181 181.476756,374.434196 L390.03456,344.128974 L390.03456,344.128974 L483.304446,155.143544 C491.125959,139.295427 510.313986,132.788579 526.162103,140.610092 C532.472906,143.72466 537.580987,148.832741 540.695554,155.143544 L633.96544,344.128974 L633.96544,344.128974 L842.523244,374.434196 C860.012679,376.97556 872.130486,393.213731 869.589122,410.703167 C868.577138,417.667552 865.297548,424.104109 860.258072,429.016385 L709.344227,576.121026 L709.344227,576.121026 L744.970153,783.836114 C747.957705,801.25488 736.258895,817.79747 718.840129,820.785022 C711.903885,821.974681 704.768906,820.844611 698.539771,817.569761 L512,719.5 L512,719.5 Z" id="星形" fill="#4E5C93"></path>
    </g>
</svg>