<?xml version="1.0" encoding="UTF-8"?>
<svg width="1024px" height="1024px" viewBox="0 0 1024 1024" version="1.1" xmlns="http://www.w3.org/2000/svg" xmlns:xlink="http://www.w3.org/1999/xlink">
    <!-- Generator: Sketch 61.2 (89653) - https://sketch.com -->
    <title>4.背景组件/灰色版/点线结构</title>
    <desc>Created with Sketch.</desc>
    <defs>
        <polygon id="path-1" points="0 0.00760281553 225.904196 0.00760281553 225.904196 225.912233 0 225.912233"></polygon>
        <polygon id="path-3" points="0.0838089459 0.678426396 86.9143655 0.678426396 86.9143655 143.983248 0.0838089459 143.983248"></polygon>
    </defs>
    <g id="4.背景组件/灰色版/点线结构" stroke="none" stroke-width="1" fill="none" fill-rule="evenodd">
        <g id="编组" transform="translate(122.000000, 116.500000)">
            <path d="M724.568716,355.931284 C755.810428,387.172997 755.810428,437.825916 724.568716,469.068716 C693.327003,500.310428 642.674084,500.310428 611.431284,469.068716 C580.189572,437.825916 580.189572,387.172997 611.431284,355.931284 C642.674084,324.689572 693.327003,324.689572 724.568716,355.931284" id="Fill-1" fill="#4E5C93"></path>
            <path d="M113.000544,596.5 C157.183211,596.5 193,632.317877 193,676.499456 C193,720.683211 157.183211,756.5 113.000544,756.5 C68.8178766,756.5 33,720.683211 33,676.499456 C33,632.317877 68.8178766,596.5 113.000544,596.5" id="Fill-3" fill="#4E5C93"></path>
            <g transform="translate(0.000000, 563.500000)">
                <mask id="mask-2" fill="white">
                    <use xlink:href="#path-1"></use>
                </mask>
                <g id="Clip-6"></g>
                <path d="M112.952424,225.912233 C50.6701589,225.912233 -0.000434446602,175.24164 -0.000434446602,112.959375 C-0.000434446602,50.6781961 50.6701589,0.00760281553 112.952424,0.00760281553 C115.351655,0.00760281553 117.29689,1.95283748 117.29689,4.35206883 C117.29689,6.75130019 115.351655,8.69653485 112.952424,8.69653485 C55.4610188,8.69653485 8.68849759,55.469056 8.68849759,112.959375 C8.68849759,170.45078 55.4610188,217.223301 112.952424,217.223301 C170.443829,217.223301 217.215264,170.45078 217.215264,112.959375 C217.215264,110.560143 219.160498,108.614909 221.55973,108.614909 C223.958961,108.614909 225.904196,110.560143 225.904196,112.959375 C225.904196,175.24164 175.234689,225.912233 112.952424,225.912233" id="Fill-5" fill="#4E5C93" mask="url(#mask-2)"></path>
            </g>
            <path d="M359.999456,334.5 C404.182123,334.5 440,370.317877 440,414.500544 C440,458.683211 404.182123,494.5 359.999456,494.5 C315.816789,494.5 280,458.683211 280,414.500544 C280,370.317877 315.816789,334.5 359.999456,334.5" id="Fill-7" fill="#4E5C93"></path>
            <path d="M218.772716,131.919102 C206.390843,174.319154 161.981789,198.65461 119.581839,186.272708 C77.1808026,173.890805 52.8454061,129.481642 65.2272785,87.0815893 C77.6091509,44.6804493 122.018205,20.3460805 164.419242,32.7268959 C206.819191,45.1087985 231.154588,89.5190487 218.772716,131.919102" id="Fill-9" fill="#4E5C93"></path>
            <g transform="translate(168.000000, 0.500000)">
                <mask id="mask-4" fill="white">
                    <use xlink:href="#path-3"></use>
                </mask>
                <g id="Clip-12"></g>
                <path d="M78.2091153,143.983248 C77.8052453,143.983248 77.3959468,143.926803 76.9899054,143.808485 C74.6871945,143.135486 73.3659313,140.725716 74.0379625,138.423408 C90.1471676,83.2689704 58.3727973,25.2955352 3.20978933,9.18914985 C0.908164122,8.51723635 -0.413099029,6.1063803 0.258932105,3.80407249 C0.930963239,1.50176467 3.34441269,0.180732792 5.64495223,0.853731777 C65.4057823,18.3017732 99.8270216,81.1066897 82.3759255,140.857059 C81.8222327,142.752311 80.088414,143.983248 78.2091153,143.983248" id="Fill-11" fill="#4E5C93" mask="url(#mask-4)"></path>
            </g>
            <path d="M111.649599,217.5 C111.244941,217.5 110.834844,217.443675 110.42801,217.325609 C50.5505571,199.914713 16.062145,137.242419 33.5472967,77.619252 C34.2206393,75.3218455 36.6377108,74.003626 38.9438277,74.6751922 C41.2499445,75.3456753 42.5748739,77.7513989 41.9004435,80.0488053 C25.7608891,135.084742 57.5961791,192.93584 112.866837,209.006853 C115.174042,209.67842 116.497884,212.084143 115.824541,214.380467 C115.269768,216.271684 113.532566,217.5 111.649599,217.5" id="Fill-13" fill="#4E5C93"></path>
            <path d="M665.259364,527.5 C635.311617,527.5 607.132898,515.862255 585.863363,494.698471 C584.164792,493.007368 584.153952,490.254434 585.8406,488.550289 C587.528331,486.847231 590.272927,486.835276 591.972582,488.526379 C611.604248,508.06101 637.617207,518.805383 665.260448,518.805383 C665.395944,518.805383 665.530355,518.805383 665.666935,518.804296 C693.460847,518.698874 719.550768,507.746917 739.129319,487.966663 C758.707871,468.18641 769.432607,441.944969 769.327462,414.077634 C769.222318,386.2103 758.299216,360.051458 738.571078,340.421186 C697.846563,299.896663 631.831009,300.14772 591.414341,340.980902 C589.726609,342.685047 586.982013,342.695916 585.281274,341.003726 C583.581619,339.312623 583.571864,336.55969 585.258511,334.855545 C629.044139,290.619507 700.559725,290.3478 744.680297,334.249095 C766.051724,355.516128 777.884271,383.854059 778,414.043943 C778.112988,444.234913 766.495065,472.661964 745.285149,494.090934 C724.074148,515.519905 695.81088,527.384796 665.699454,527.5 C665.554202,527.5 665.404615,527.5 665.259364,527.5" id="Fill-15" fill="#4E5C93"></path>
            <path d="M475.328153,419.5 C472.985553,419.5 471.058646,417.600596 471,415.209853 C470.943897,412.781738 472.835081,410.766918 475.225313,410.707562 L727.564676,404.500424 C729.97331,404.467448 731.941354,406.362455 732,408.789472 C732.056103,411.217587 730.164919,413.232406 727.774687,413.291763 L475.435324,419.498901 C475.3996,419.5 475.363877,419.5 475.328153,419.5" id="Fill-17" fill="#4E5C93"></path>
            <path d="M284.661477,321.5 C283.293754,321.5 281.947741,320.854969 281.103227,319.649607 L135.787037,112.338261 C134.41063,110.374933 134.886077,107.665584 136.849736,106.288648 C138.812309,104.909541 141.520617,105.386256 142.897024,107.35067 L288.212128,314.662016 C289.58962,316.62643 289.114174,319.334693 287.150515,320.711628 C286.391755,321.244811 285.522274,321.5 284.661477,321.5" id="Fill-19" fill="#4E5C93"></path>
            <path d="M105.326144,692.5 C104.250992,692.5 103.173677,692.099646 102.335404,691.292409 C100.609104,689.631156 100.548532,686.876543 102.200199,685.140223 L276.54791,501.843155 C278.199578,500.106835 280.938295,500.045911 282.664596,501.707165 C284.390896,503.368418 284.451468,506.124119 282.799801,507.860439 L108.453171,691.156419 C107.603001,692.049601 106.465113,692.5 105.326144,692.5" id="Fill-21" fill="#4E5C93"></path>
        </g>
    </g>
</svg>