<svg xmlns="http://www.w3.org/2000/svg" xmlns:xlink="http://www.w3.org/1999/xlink" width="1024" height="1024" version="1.1" viewBox="0 0 1024 1024"><title>4.背景组件/灰色版/矩阵点圆</title><desc>Created with Sketch.</desc><g id="4.背景组件/灰色版/矩阵点圆" fill="none" fill-rule="evenodd" stroke="none" stroke-width="1"><g id="编组-2" fill="#4E5C93" transform="translate(144.000000, 144.500000)"><g id="编组" transform="translate(10.000000, 6.500000)"><rect id="矩形备份-4" width="158.713" height="158.64" x="0" y="0" rx="79.32"/><rect id="矩形备份-5" width="158.713" height="158.64" x="278.055" y="0" rx="79.32"/><rect id="矩形备份-6" width="158.713" height="158.64" x="556.109" y="0" rx="79.32"/></g><g id="编组备份" transform="translate(10.000000, 281.500000)"><rect id="矩形备份-4" width="158.713" height="158.64" x="0" y="0" rx="79.32"/><rect id="矩形备份-5" width="158.713" height="158.64" x="278.055" y="0" rx="79.32"/><rect id="矩形备份-6" width="158.713" height="158.64" x="556.109" y="0" rx="79.32"/></g><g id="编组备份-2" transform="translate(10.000000, 557.500000)"><rect id="矩形备份-4" width="158.713" height="158.64" x="0" y="0" rx="79.32"/><rect id="矩形备份-5" width="158.713" height="158.64" x="278.055" y="0" rx="79.32"/><rect id="矩形备份-6" width="158.713" height="158.64" x="556.109" y="0" rx="79.32"/></g><ellipse id="椭圆形备份-3" cx="368.5" cy="368" opacity=".553" rx="259.585" ry="260.816" transform="translate(368.500000, 368.000000) scale(-1, 1) rotate(-495.000000) translate(-368.500000, -368.000000)"/></g></g></svg>