<?xml version="1.0" encoding="UTF-8"?>
<svg width="1024px" height="1024px" viewBox="0 0 1024 1024" version="1.1" xmlns="http://www.w3.org/2000/svg" xmlns:xlink="http://www.w3.org/1999/xlink">
    <!-- Generator: Sketch 61.2 (89653) - https://sketch.com -->
    <title>4.背景组件/灰色版/蜂窝分子结构</title>
    <desc>Created with Sketch.</desc>
    <g id="4.背景组件/灰色版/蜂窝分子结构" stroke="none" stroke-width="1" fill="none" fill-rule="evenodd">
        <g id="编组" transform="translate(236.000000, 105.000000)" stroke="#4E5C93" stroke-width="17.9685">
            <polygon id="Fill-1备份" transform="translate(394.500000, 272.000000) rotate(-360.000000) translate(-394.500000, -272.000000) " points="316.250216 136 238 272.000434 316.250216 408 472.750648 408 551 272.000434 472.750648 136"></polygon>
            <polyline id="路径" transform="translate(433.500000, 68.000000) rotate(-360.000000) translate(-433.500000, -68.000000) " points="316 136 472.667244 136 551 0"></polyline>
            <polygon id="Fill-1备份-2" fill="#4E5C93" transform="translate(159.500000, 407.000000) rotate(-360.000000) translate(-159.500000, -407.000000) " points="81.2502162 271 3 407.000434 81.2502162 543 237.750648 543 316 407.000434 237.750648 271"></polygon>
            <polygon id="Fill-1备份-3" transform="translate(393.500000, 546.000000) rotate(-360.000000) translate(-393.500000, -546.000000) " points="315.250216 410 237 546.000434 315.250216 682 471.750648 682 550 546.000434 471.750648 410"></polygon>
            <polyline id="路径" transform="translate(195.500000, 679.000000) rotate(-360.000000) translate(-195.500000, -679.000000) " points="234.667244 815 313 679.000434 234.667244 543 78 543 78 543"></polyline>
            <polyline id="路径" transform="translate(156.500000, 204.000000) rotate(-360.000000) translate(-156.500000, -204.000000) " points="0 136 78.2502162 272 234.750648 272 313 136"></polyline>
        </g>
    </g>
</svg>