<?xml version="1.0" encoding="UTF-8"?>
<svg width="1024px" height="1024px" viewBox="0 0 1024 1024" version="1.1" xmlns="http://www.w3.org/2000/svg" xmlns:xlink="http://www.w3.org/1999/xlink">
    <!-- Generator: Sketch 61.2 (89653) - https://sketch.com -->
    <title>4.背景组件/灰色版/蜂窝结构</title>
    <desc>Created with Sketch.</desc>
    <g id="4.背景组件/灰色版/蜂窝结构" stroke="none" stroke-width="1" fill="none" fill-rule="evenodd">
        <g id="编组" transform="translate(213.000000, 124.000000)">
            <polygon id="Fill-1" fill="#4E5C93" points="119.488484 0.5 7.98897963 56.7087271 1 181.207737 105.511516 249.5 217.012012 193.291273 224 68.7922625"></polygon>
            <polygon id="Fill-2" fill="#4E5C93" points="382.989011 293.707961 376 418.208456 480.512972 486.5 592.012972 430.291049 599 305.806389 599 305.790555 494.489011 237.5"></polygon>
            <polygon id="Fill-3" fill="#4E5C93" points="0 534.318305 9.91375317 658.818801 122.913257 712.5 226 641.682686 216.086247 517.18219 103.086743 463.5"></polygon>
            <g opacity="0.78297061" transform="translate(235.000000, 94.500000)" fill="#4E5C93">
                <polygon id="Fill-4" points="48.950517 562.123906 0 595.743933 4.70861325 654.849133 58.3647653 680.334307 107.315282 646.714281 102.608655 587.609081"></polygon>
                <polygon id="Fill-6" points="221.168816 0.519014045 168.12122 27.2452659 164.7965 86.4445626 214.519377 118.916617 267.56598 92.1893745 270.891693 32.9910683"></polygon>
                <polygon id="Fill-8" points="335.414486 59.9481032 308.449411 73.5335929 306.75975 103.625512 332.034172 120.130951 358.999248 106.545461 360.688908 76.4545327"></polygon>
                <polygon id="Fill-10" opacity="0.417480469" transform="translate(64.481712, 493.754940) rotate(-11.000000) translate(-64.481712, -493.754940) " points="66.6794608 454.31645 31.3511015 472.107785 29.1543455 511.546275 62.2839634 533.19343 97.6123226 515.402095 99.8090787 475.963605"></polygon>
            </g>
            <line x1="113" y1="124.5" x2="488" y2="362.5" id="Stroke-12" stroke="#4E5C93" stroke-width="8.91"></line>
            <line x1="143" y1="562.5" x2="520" y2="327.5" id="Stroke-13" stroke="#4E5C93" stroke-width="8.91"></line>
        </g>
    </g>
</svg>