<?xml version="1.0" encoding="UTF-8"?>
<svg width="1024px" height="1024px" viewBox="0 0 1024 1024" version="1.1" xmlns="http://www.w3.org/2000/svg" xmlns:xlink="http://www.w3.org/1999/xlink">
    <!-- Generator: Sketch 61.2 (89653) - https://sketch.com -->
    <title>4.背景组件/灰色版/蜂窝</title>
    <desc>Created with Sketch.</desc>
    <defs>
        <polygon id="path-1" points="0 0.317801387 238.859939 0.317801387 238.859939 268.041215 0 268.041215"></polygon>
    </defs>
    <g id="4.背景组件/灰色版/蜂窝" stroke="none" stroke-width="1" fill="none" fill-rule="evenodd">
        <g id="编组" transform="translate(512.500000, 512.000000) rotate(-16.000000) translate(-512.500000, -512.000000) translate(131.000000, 144.000000)">
            <g>
                <polygon id="Fill-1" fill="#4E5C93" opacity="0.178524926" points="494.469891 309.774979 382.525173 236.348254 263.094478 296.784355 255.609617 430.646062 367.555451 504.071668 486.98503 443.636685"></polygon>
                <polygon id="Fill-1备份" fill="#4E5C93" opacity="0.222074963" points="762.409825 320.961256 650.465107 247.534531 531.034413 307.970632 523.549552 441.832339 635.495386 515.257945 754.924964 454.822963"></polygon>
                <polygon id="Fill-1备份-2" fill="#4E5C93" opacity="0.222074963" points="375.050135 73.7450854 263.105418 0.318360701 143.674723 60.7544615 136.189862 194.616168 248.135696 268.041774 367.565275 207.606792"></polygon>
                <g opacity="0.460053943" transform="translate(0.000000, 236.030453)">
                    <mask id="mask-2" fill="white">
                        <use xlink:href="#path-1"></use>
                    </mask>
                    <g id="Clip-4"></g>
                    <polygon id="Fill-3" fill="#4E5C93" mask="url(#mask-2)" points="238.859939 73.7445261 126.915221 0.317801387 7.48452597 60.7539021 -0.000334893105 194.615609 111.945499 268.041215 231.375078 207.606233"></polygon>
                </g>
            </g>
            <polygon id="Fill-5" fill="#4E5C93" opacity="0.331705729" points="530.989204 20 411.489204 80.2716812 404 213.771681 516.010796 287 635.510796 226.728319 643 93.2283188"></polygon>
            <polygon id="Fill-6" fill="#4E5C93" opacity="0.275018601" points="134.489239 529.272797 127 662.772797 239.011319 736 358.510761 675.727203 366 542.228319 253.989798 469"></polygon>
            <polygon id="Fill-7" fill="#4E5C93" opacity="0.767624628" points="392.489274 529.272797 385 662.772797 497.010726 736 616.510726 675.727203 624 542.228319 511.989274 469"></polygon>
        </g>
    </g>
</svg>