<?xml version="1.0" encoding="UTF-8"?>
<svg width="512px" height="1024px" viewBox="0 0 512 1024" version="1.1" xmlns="http://www.w3.org/2000/svg" xmlns:xlink="http://www.w3.org/1999/xlink">
    <!-- Generator: Sketch 61.2 (89653) - https://sketch.com -->
    <title>2.人物组件/1.商人/摆手/欢呼</title>
    <desc>Created with Sketch.</desc>
    <defs>
        <polygon id="path-1" points="1.15230385 0.95175 87.0759974 0.95175 87.0759974 64.5 1.15230385 64.5"></polygon>
        <polygon id="path-3" points="0.605723807 0.189502828 22.6575 0.189502828 22.6575 100.139646 0.605723807 100.139646"></polygon>
    </defs>
    <g id="2.人物组件/1.商人/摆手/欢呼" stroke="none" stroke-width="1" fill="none" fill-rule="evenodd">
        <path d="M257.9718,769.8854 L276.9378,794.0624 C276.9378,794.0624 267.5763,804.2954 256.1913,810.1034 C236.7108,820.0424 244.5438,821.4869 224.1633,837.5654 C206.2113,851.7284 187.6788,850.5554 193.3893,841.0259 C201.2628,827.8874 206.3118,817.0979 209.4333,809.4209 C212.4453,802.0094 212.9613,793.8449 211.0473,786.0764 C208.0533,773.9369 204.6858,754.5419 211.4238,747.4379 C227.3043,730.6949 257.9718,769.8854 257.9718,769.8854" id="Fill-1" fill="#E4EBF7"></path>
        <g id="分组" transform="translate(190.500000, 787.454000)">
            <mask id="mask-2" fill="white">
                <use xlink:href="#path-1"></use>
            </mask>
            <g id="Clip-4"></g>
            <path d="M5.6964,52.40625 C5.6964,52.40625 7.4709,55.19175 21.2784,52.44825 C37.3614,49.25325 52.1184,29.59725 61.4349,19.16775 C75.7854,3.10425 79.5459,5.50575 81.1974,0.95175 C87.1734,3.67425 87.0759974,10.23525 87.0759974,10.23525 C87.0759974,10.23525 84.6444,14.64375 71.3349,23.12175 C58.0269,31.59675 60.5034,35.05875 45.2244,47.75925 C23.6994,65.65125 7.8309,66.64575 3.8559,62.42475 C-1.1451,57.11625 1.5744,51.87825 5.6964,52.40625" id="Fill-3" fill="#B0BEDC" mask="url(#mask-2)"></path>
        </g>
        <path d="M171.67785,693.2462 L171.67785,693.2462 C150.84885,691.5002 135.04485,673.7312 135.73935,652.8407 L138.49335,570.0392 C139.31085,545.4422 160.55385,526.5407 185.08035,528.5897 C209.45835,530.6252 227.23785,552.5492 224.19435,576.8222 L213.88935,659.0267 C211.27185,679.9067 192.64785,695.0042 171.67785,693.2462" id="Fill-5" fill="#4E5C93"></path>
        <path d="M154.296,633.14735 C173.5305,621.99485 198.1815,629.28035 208.2555,649.10135 C227.604,687.17135 255.1365,741.37685 255.1365,741.37685 L255.138,741.37835 C263.64,744.98285 270.405,759.10835 258.7815,767.12885 C226.5225,789.39185 216.9525,790.95935 206.553,789.72035 C196.1535,788.48135 194.853,770.90885 194.8515,770.90285 L194.2005,769.55135 C194.2005,769.55135 163.674,722.35535 141.2205,687.72485 C129.1725,669.14135 135.1365,644.25785 154.296,633.14735" id="Fill-7" fill="#4E5C93"></path>
        <path d="M418.5054,660.588945 L449.2329,660.62045 C449.2329,660.62045 451.4934,674.30495 449.0229,686.84495 C444.7959,708.30095 450.7734,703.03745 450.816992,728.99645 C450.8559,751.86245 438.4809,765.70745 434.5194,755.32745 C429.0549,741.01745 423.6924,730.38095 419.5869,723.18245 C415.6239,716.23295 409.5234,710.78045 402.2319,707.48645 C390.8394,702.33695 373.5114,692.99795 372.0909,683.30945 C368.7414,660.47795 418.5054,660.588945 418.5054,660.588945" id="Fill-9" fill="#E4EBF7"></path>
        <g id="分组" transform="translate(433.500000, 659.954000)">
            <mask id="mask-4" fill="white">
                <use xlink:href="#path-3"></use>
            </mask>
            <g id="Clip-12"></g>
            <path d="M1.83795,92.4462 C1.83795,92.4462 5.12295,92.7732 11.49945,80.2227 C18.92895,65.6037 12.59595,41.8557 10.15545,28.0857 C6.39495,6.8772 10.60845,5.4027 8.04795,1.2897 C13.88145,-1.7238 18.97995,2.4087 18.97995,2.4087 C18.97995,2.4087 20.94195,7.0437 19.38045,22.7472 C17.81895,38.4462 22.07145,38.6382 22.61295,58.4997 C23.37495,86.4777 14.35095,99.5697 8.57595,100.0857 C1.30995,100.7352 -1.12605,95.3622 1.83795,92.4462" id="Fill-11" fill="#B0BEDC" mask="url(#mask-4)"></path>
        </g>
        <path d="M287.2335,693.19715 L287.2335,693.19715 C308.0715,691.54115 323.952,673.84115 323.346,652.94765 L320.9505,570.13415 C320.2365,545.53415 299.076,526.54115 274.542,528.48365 C250.1535,530.41565 232.281,552.26165 235.2195,576.54815 L245.1705,658.79615 C247.6995,679.68665 266.2575,694.86515 287.2335,693.19715" id="Fill-13" fill="#4E5C93"></path>
        <path d="M247.31505,657.3605 C251.06355,635.4455 272.44455,621.1745 294.11955,626.1275 C335.75205,635.642 395.01855,649.202 395.01855,649.202 C403.23255,644.978 417.83955,648.785 417.13305,662.891 C415.53705,694.721 408.65505,710.2775 401.04255,717.4745 C393.43305,724.6685 379.10055,714.416 379.09605,714.413 L377.64105,714.0485 C377.64105,714.0485 321.84255,707.2775 280.86555,702.35 C258.87555,699.7055 243.58155,679.1915 247.31505,657.3605" id="Fill-15" fill="#4E5C93"></path>
        <path d="M150.297,501.3341 C150.297,501.3341 150.249,505.8821 148.5285,512.9501 C145.23,526.5101 135.732,557.8856 140.898,575.6696 C146.13,593.6801 185.1015,611.6621 229.353,611.6621 C250.9875,611.6621 312.4365,606.5081 319.407,577.3601 C325.6005,551.4566 313.497,525.1646 309.723,512.0336 C307.662,504.8591 304.737,500.4896 304.737,500.4896 C304.737,500.4896 162.9675,501.3341 150.297,501.3341" id="Fill-17" fill="#4E5C93"></path>
        <path d="M301.08,500.5841 C301.494214,500.5841 301.83,500.919886 301.83,501.3341 C301.83,501.713796 301.547846,502.027591 301.181771,502.077253 L301.08,502.0841 L155.418,502.0841 C155.003786,502.0841 154.668,501.748314 154.668,501.3341 C154.668,500.954404 154.950154,500.640609 155.316229,500.590947 L155.418,500.5841 L301.08,500.5841 Z" id="Stroke-19" fill="#3B4A7A" fill-rule="nonzero"></path>
        <path d="M298.342065,514.975495 C298.752829,514.922152 299.129062,515.2119 299.182405,515.622665 C299.235748,516.033429 298.946,516.409662 298.535235,516.463005 C258.323223,521.685015 216.463175,521.869643 177.98457,519.051446 L176.035697,518.905583 C172.189738,518.611484 168.656106,518.303799 165.46357,517.994136 L163.89586,517.839194 C163.17731,517.766826 162.50359,517.697034 161.875765,517.630247 L158.825384,517.287053 C158.414317,517.236096 158.12239,516.861552 158.173347,516.450484 C158.224304,516.039417 158.598848,515.74749 159.009916,515.798447 L160.299177,515.948787 C161.363238,516.068816 162.61508,516.202614 164.04617,516.346744 L165.608888,516.501192 C169.056625,516.835604 172.904485,517.167797 177.115849,517.483018 L178.094138,517.555453 C216.480048,520.366861 258.244406,520.182655 298.342065,514.975495 Z" id="Stroke-21" fill="#3B4A7A" fill-rule="nonzero"></path>
        <path d="M105.1593,289.3046 L105.1593,289.3046 C90.2073,299.0951 86.0433,319.1636 95.8668,334.0931 L136.6398,396.0656 C146.4333,410.9501 166.4253,415.0976 181.3293,405.3386 C196.2813,395.5481 200.4438,375.4796 190.6233,360.5501 L149.8488,298.5776 C140.0568,283.6931 120.0648,279.5456 105.1593,289.3046" id="Fill-23" fill="#E4EBF7"></path>
        <path d="M256.76775,285.6497 L255.81375,324.2507 C255.38325,341.6867 240.39525,355.1837 223.00875,353.7902 C205.69575,352.4027 193.06575,336.8132 195.30075,319.5887 L200.31975,280.9232 L256.76775,285.6497 Z" id="Fill-25" fill="#B69882"></path>
        <path d="M182.29215,282.9611 C183.27465,289.1606 187.61565,293.6261 191.98665,292.9331 C196.35765,292.2401 199.10415,286.6511 198.12015,280.4516 C197.13615,274.2506 192.79815,269.7866 188.42715,270.4796 C184.05615,271.1726 181.30965,276.7601 182.29215,282.9611" id="Fill-27" fill="#AA8972"></path>
        <path d="M271.5201,291.4322 C269.0466,297.2027 263.7441,300.4667 259.6761,298.7237 C255.6096,296.9807 254.3166,290.8892 256.7901,285.1202 C259.2636,279.3497 264.5646,276.0857 268.6326,277.8287 C272.7006,279.5717 273.9921,285.6617 271.5201,291.4322" id="Fill-29" fill="#AA8972"></path>
        <path d="M263.922,285.5252 C261.4635,313.1987 253.449,320.6837 226.0395,318.9527 C202.5765,317.4707 189.4425,309.3437 192.126,279.1472 C194.2755,254.9357 211.7445,240.6572 231.57,242.4197 C251.3955,244.1807 265.848,263.8382 263.922,285.5252" id="Fill-31" fill="#B69882"></path>
        <path d="M260.85015,275.54885 C263.81415,278.44685 260.21565,289.06085 262.63965,290.40635 C264.34815,290.27585 265.24515,280.17935 267.48765,267.65885 C268.96965,259.38335 267.08115,252.24485 264.62115,249.03035 C261.83415,245.39135 258.89115,245.61335 252.23565,238.88435 C242.12115,228.65735 219.50865,228.62735 211.22115,239.19785 C199.28565,236.72435 186.07365,245.44385 189.66465,268.65935 C191.31765,279.33785 191.01615,284.38985 192.24615,284.15285 C194.25765,283.76735 192.12165,272.83535 196.62765,269.84285 C202.26465,266.09885 200.10765,256.92785 203.75565,253.23335 C203.75565,253.23335 230.03715,240.58685 256.20015,257.89235 C258.63165,262.34885 255.13065,269.95235 260.85015,275.54885" id="Fill-33" fill="#51342D"></path>
        <path d="M210.781939,264.851206 C214.02599,263.568554 217.898865,263.236413 222.247995,264.418242 C223.047431,264.63548 223.519396,265.459658 223.302158,266.259095 C223.08492,267.058531 222.260742,267.530496 221.461305,267.313258 C217.769894,266.310157 214.553402,266.586007 211.885004,267.641053 C211.372838,267.843556 210.928951,268.058429 210.557262,268.26999 L210.304868,268.419826 L210.174695,268.505553 C209.505434,268.993797 208.567092,268.847055 208.078847,268.177795 C207.590603,267.508534 207.737345,266.570192 208.406605,266.081947 C208.863231,265.748826 209.662943,265.29364 210.781939,264.851206 Z" id="Stroke-35" fill="#51342D" fill-rule="nonzero"></path>
        <path d="M237.436185,265.765514 C240.748937,265.488567 243.822937,266.120405 246.558867,267.342156 C247.946317,267.961733 248.953676,268.591184 249.527218,269.038952 C250.18021,269.548749 250.296294,270.491375 249.786498,271.144368 C249.308564,271.756548 248.450212,271.896836 247.806736,271.491922 L247.516642,271.284558 C247.41706,271.215663 247.282539,271.126574 247.11464,271.021662 C246.605249,270.703367 246.009378,270.38231 245.335619,270.081438 C243.034343,269.053785 240.45495,268.523609 237.686115,268.755086 C236.860568,268.824102 236.135381,268.210812 236.066364,267.385265 C235.997348,266.559718 236.610638,265.834531 237.436185,265.765514 Z" id="Stroke-37" fill="#51342D" fill-rule="nonzero"></path>
        <path d="M223.682377,268.060128 C223.945256,267.964905 224.232813,268.077704 224.364826,268.314149 L224.402822,268.397427 L226.333322,273.726927 C226.389223,273.881251 226.374929,274.052293 226.294189,274.195197 L226.152546,274.45428 C226.037509,274.668487 225.909063,274.914943 225.770569,275.189838 C225.37432,275.976349 224.977906,276.831354 224.608217,277.724072 C224.056442,279.056486 223.614241,280.353373 223.321681,281.566426 L223.203407,282.088793 C222.337906,286.190339 223.418634,288.428757 227.146731,288.387534 C227.457372,288.3841 227.711981,288.633139 227.715416,288.943781 C227.71885,289.254422 227.469811,289.509031 227.159169,289.512466 C222.350734,289.565634 221.011717,286.345934 222.228038,281.302665 C222.535736,280.026844 222.996227,278.676316 223.568817,277.293639 C223.949848,276.373531 224.357778,275.49369 224.765873,274.683666 L224.972449,274.279867 L225.188,273.871 L223.345078,268.780573 C223.249855,268.517694 223.362654,268.230137 223.599099,268.098124 L223.682377,268.060128 Z" id="Stroke-39" fill="#7C5B4D" fill-rule="nonzero"></path>
        <path d="M214.942738,270.499617 C216.963848,270.678408 218.336277,272.823538 218.122687,275.219301 C218.085905,275.631878 217.721627,275.93652 217.309049,275.899737 C216.896472,275.862955 216.59183,275.498677 216.628613,275.086099 C216.775022,273.443877 215.909463,272.090993 214.810625,271.993788 C213.709782,271.896499 212.618644,273.075546 212.472187,274.718301 C212.435405,275.130878 212.071127,275.43552 211.658549,275.398737 C211.245972,275.361955 210.94133,274.997677 210.978113,274.585099 C211.185224,272.262006 212.817456,270.434656 214.759772,270.48897 L214.942738,270.499617 Z" id="Stroke-41" fill="#51342D" fill-rule="nonzero"></path>
        <path d="M242.426125,272.941462 C244.448458,273.120189 245.82126,275.265015 245.607637,277.661151 C245.570855,278.073728 245.206577,278.37837 244.793999,278.341587 C244.381422,278.304805 244.07678,277.940527 244.113563,277.527949 C244.259995,275.885465 243.394263,274.532869 242.293299,274.435569 C241.194333,274.337296 240.102354,275.51761 239.957186,277.1596 C239.920708,277.572204 239.556654,277.877114 239.14405,277.840636 C238.731446,277.804158 238.426536,277.440104 238.463014,277.0275 C238.668409,274.704292 240.302204,272.87466 242.243283,272.930646 L242.426125,272.941462 Z" id="Stroke-43" fill="#51342D" fill-rule="nonzero"></path>
        <path d="M222.521393,301.046104 C222.666145,300.771228 223.006321,300.665742 223.281196,300.810493 L223.454905,300.894645 C223.628345,300.973222 223.871576,301.070544 224.170252,301.168755 C225.323772,301.548057 226.510818,301.665935 227.595702,301.374894 C227.969143,301.274711 228.323404,301.126791 228.65699,300.927385 C228.923641,300.76799 229.26902,300.854938 229.428415,301.12159 C229.58781,301.388241 229.500862,301.73362 229.23421,301.893015 C228.809782,302.146724 228.359285,302.334827 227.887198,302.461474 C226.558719,302.817863 225.162185,302.679182 223.818839,302.237461 C223.336249,302.078776 222.970523,301.918348 222.757004,301.805907 C222.482128,301.661155 222.376642,301.320979 222.521393,301.046104 Z" id="Stroke-45" fill="#7C5B4D" fill-rule="nonzero"></path>
        <path d="M205.834219,313.600747 C206.026554,313.356786 206.380241,313.314934 206.624203,313.507269 L206.875067,313.690387 C207.094158,313.844229 207.35617,314.016612 207.660254,314.202969 C208.534841,314.738956 209.567779,315.276278 210.752325,315.778555 C214.614959,317.416407 219.113064,318.299539 224.179764,318.037198 L224.766902,318.001822 L224.939149,318.01662 C231.383892,319.593651 236.694358,319.376744 240.832161,318.071611 C241.546785,317.846207 242.160313,317.605634 242.671613,317.366358 C242.971701,317.225925 243.167233,317.119748 243.256999,317.064341 C243.521355,316.901167 243.867936,316.983193 244.031109,317.247549 C244.194283,317.511905 244.112257,317.858486 243.847901,318.021659 L243.626801,318.147315 C243.502261,318.214008 243.342743,318.294381 243.148454,318.385303 C242.592931,318.645274 241.93324,318.903947 241.17057,319.144506 C236.970597,320.469248 231.65301,320.721392 225.272989,319.252181 L224.756,319.129 L224.236347,319.160778 C219.193939,319.421671 214.68608,318.584684 210.779097,317.007129 L210.313148,316.81429 C209.07567,316.289569 207.993309,315.726538 207.072412,315.16217 C206.748078,314.963403 206.466535,314.77817 206.228572,314.611076 L205.96595,314.420342 C205.951364,314.409218 205.938611,314.399335 205.927697,314.390731 C205.683736,314.198396 205.641884,313.844709 205.834219,313.600747 Z" id="Stroke-47" fill="#7C5B4D" fill-rule="nonzero"></path>
        <path d="M225.396268,311.691456 C225.675436,311.706873 225.895785,311.923343 225.924574,312.19261 L225.926894,312.284118 L225.577394,318.612618 C225.560264,318.922805 225.29492,319.160375 224.984732,319.143244 C224.705564,319.127827 224.485215,318.911357 224.456426,318.64209 L224.454106,318.550582 L224.803606,312.222082 C224.820736,311.911895 225.08608,311.674325 225.396268,311.691456 Z" id="Stroke-49" fill="#7C5B4D" fill-rule="nonzero"></path>
        <path d="M187.001822,274.900712 C188.810345,273.858287 189.788583,275.936028 189.971342,281.054629 C189.97551,281.171377 189.943226,281.286526 189.87897,281.38409 C188.750593,283.097387 188.77532,284.249311 189.422568,285.039149 C189.555937,285.201899 189.686042,285.312869 189.773433,285.37186 L189.820426,285.401015 C190.091976,285.551914 190.189783,285.894376 190.038885,286.165926 C189.887986,286.437476 189.545524,286.535283 189.273974,286.384385 C189.076593,286.274701 188.812154,286.069172 188.552416,285.752213 C187.618408,284.612442 187.55129,282.998935 188.795738,280.990133 L188.84,280.92 L188.832678,280.733541 C188.738912,278.604679 188.511076,277.168275 188.183616,276.377847 L188.128123,276.252082 C187.904946,275.778063 187.801466,275.738303 187.563625,275.875394 C187.25153,276.055283 186.861255,276.508501 186.459651,277.139571 C186.248303,277.471677 186.047439,277.830162 185.864609,278.188934 L185.635882,278.660909 C185.509294,278.944608 185.17669,279.071971 184.892991,278.945382 C184.609292,278.818794 184.481929,278.48619 184.608518,278.202491 L184.794815,277.811937 L184.862257,277.678135 C185.060225,277.289659 185.278054,276.900895 185.510542,276.535571 C186.002442,275.762612 186.491192,275.195038 187.001822,274.900712 Z" id="Stroke-51" fill="#7C5B4D" fill-rule="nonzero"></path>
        <path d="M267.320692,281.830618 C268.351951,281.528281 269.089013,282.399868 269.733882,283.931267 C269.908566,284.346098 270.063621,284.78711 270.198105,285.227681 L270.283185,285.515799 C270.319765,285.644332 270.347317,285.748245 270.365447,285.821549 C270.440034,286.123123 270.256024,286.428061 269.954451,286.502647 C269.652877,286.577234 269.347939,286.393224 269.273353,286.091651 L269.200105,285.820055 C269.177922,285.742207 269.151876,285.653617 269.122117,285.556125 C268.998041,285.149649 268.855284,284.743616 268.697059,284.367871 C268.27502,283.365635 267.839664,282.85082 267.637189,282.91018 C267.157801,283.050723 266.487119,284.444231 265.824899,287.288664 L265.72,287.749 L265.754187,287.831509 C266.543117,289.824407 266.327234,291.314076 265.421072,292.298243 L265.304229,292.418631 C264.95139,292.76374 264.594781,292.96129 264.331381,293.051349 C264.037428,293.151855 263.717656,292.995034 263.617151,292.701081 C263.516645,292.407128 263.673466,292.087356 263.967419,291.986851 C264.084774,291.946726 264.299299,291.827886 264.517593,291.614374 C265.214265,290.932966 265.386196,289.817067 264.616486,288.023425 C264.570401,287.916034 264.558908,287.796957 264.583602,287.682735 L264.739064,286.989762 C265.493713,283.752259 266.299269,282.13007 267.320692,281.830618 Z" id="Stroke-53" fill="#7C5B4D" fill-rule="nonzero"></path>
        <path d="M217.8951,292.16105 L235.8111,293.32955 C235.8111,293.32955 232.1451,298.77755 226.6641,298.45205 C219.4941,298.02755 217.8951,292.16105 217.8951,292.16105" id="Fill-55" fill="#FFFFFF"></path>
        <path d="M235.847709,292.768243 L217.931709,291.599743 C217.546343,291.574609 217.250843,291.936379 217.352398,292.308971 C217.414727,292.537647 217.551125,292.91477 217.780153,293.391417 C218.157664,294.177081 218.66504,294.961464 219.321755,295.694102 C221.035533,297.606013 223.443495,298.824859 226.630855,299.013567 C229.252371,299.169251 231.660545,298.133871 233.794128,296.327073 C234.483202,295.743539 235.09349,295.119319 235.619738,294.494489 C235.742945,294.348201 235.855773,294.20862 235.958001,294.077224 L236.210127,293.740521 C236.239227,293.699835 236.26181,293.667314 236.27778,293.643582 C236.520022,293.283588 236.280698,292.796483 235.847709,292.768243 Z M218.735,292.779 L234.714,293.821 L234.759264,293.769775 C234.271579,294.348818 233.704863,294.928472 233.067101,295.468553 C231.135219,297.104543 228.990367,298.026709 226.697446,297.890539 C223.814079,297.719829 221.68016,296.639697 220.159472,294.943199 C219.577897,294.294387 219.127857,293.598645 218.794169,292.904183 L218.735,292.779 Z" id="Stroke-57" fill="#7C5B4D" fill-rule="nonzero"></path>
        <path d="M240.50055,295.44155 C240.50055,295.44155 239.65605,289.47305 226.49055,288.47255 C219.55305,287.94605 214.75455,289.33805 213.73005,293.69855 C212.32755,299.67905 226.86555,293.80655 226.86555,293.80655 C226.86555,293.80655 241.91505,301.78505 240.50055,295.44155" id="Fill-59" fill="#51342D"></path>
        <path d="M95.9601,190.0226 C95.9601,190.0226 104.6931,180.6551 99.5976,163.1546 C95.6571,149.6231 98.5416,147.4541 97.9956,139.7831 C97.4511,132.1136 90.7701,139.0241 88.8786,153.2426 C88.2561,163.6601 69.1611,141.3011 66.2241,127.8041 C63.3726,114.7001 37.0446,149.8991 71.8341,184.4456 C88.9836,201.4751 95.9601,190.0226 95.9601,190.0226" id="Fill-61" fill="#B69882"></path>
        <path d="M59.1508912,140.40449 C59.8038117,141.372401 60.2830414,142.927241 60.5484646,145.185942 L60.5907152,145.568929 C61.4041615,153.433634 66.6394366,159.798059 76.850354,165.960713 C78.9926827,167.253679 80.6483225,168.706674 81.8567281,170.293418 C84.3843738,173.612443 84.7865224,177.144442 83.9553198,180.33197 L83.8503244,180.708056 C83.7462965,181.056146 83.6472586,181.31905 83.5719926,181.485992 C83.4443086,181.7692 83.1112151,181.895277 82.8280075,181.767593 C82.5448,181.639909 82.4187233,181.306815 82.5464074,181.023608 L82.6109634,180.86709 C82.6827298,180.68017 82.774091,180.403329 82.8667232,180.0481 C83.617691,177.168259 83.255468,173.986919 80.9617199,170.975023 C79.841933,169.504643 78.293425,168.145667 76.2690451,166.923887 C65.9544075,160.698634 60.5051644,154.175933 59.5166983,146.083865 L59.4716799,145.684623 C59.2340758,143.38547 58.7883985,141.878827 58.2182492,141.03362 C57.9827051,140.684441 57.7523946,140.487271 57.5377811,140.39751 C57.4496821,140.360663 57.3778127,140.34672 57.3245813,140.345556 L57.2869741,140.346139 L57.3043274,140.34163 C57.0056355,140.427028 56.6942688,140.254119 56.6088704,139.955427 C56.5234721,139.656736 56.6963807,139.345369 56.9950726,139.25997 L57.1068049,139.236324 C57.754146,139.136862 58.5086678,139.452437 59.1508912,140.40449 Z" id="Stroke-63" fill="#7C5B4D" fill-rule="nonzero"></path>
        <path d="M57.7155747,133.311817 C58.8218554,132.326945 60.2699567,132.900501 61.4506396,134.552144 C62.5480012,136.08723 63.4152531,138.480832 63.8641198,141.374133 L63.9282884,141.811831 C63.9499843,141.968585 63.9750127,142.12657 64.003333,142.285755 C64.4285155,144.675654 65.5716822,147.257405 67.2129604,149.879119 C67.9616028,151.074971 68.7644456,152.199307 69.5670184,153.217903 C69.8475812,153.573983 70.1078109,153.891117 70.3409003,154.165089 L70.6281801,154.495524 C70.8366268,154.725871 70.8188731,155.081583 70.5885261,155.29003 C70.3581791,155.498477 70.0024666,155.480723 69.7940199,155.250376 L69.5669059,154.991026 L69.4840483,154.894081 C69.2420514,154.609639 68.9728991,154.281631 68.6833583,153.914157 C67.8570636,152.865454 67.0310389,151.708654 66.259405,150.476076 C64.5482117,147.742681 63.3501144,145.036874 62.8957251,142.482807 L62.8521396,142.223631 L62.8138939,141.965941 C62.4101789,139.044139 61.5711635,136.655249 60.5354354,135.206381 C59.6903361,134.024182 58.940773,133.727299 58.4636253,134.152083 C58.2315925,134.358651 57.8760359,134.338008 57.6694675,134.105975 C57.462899,133.873942 57.4835419,133.518386 57.7155747,133.311817 Z" id="Stroke-65" fill="#7C5B4D" fill-rule="nonzero"></path>
        <path d="M61.540123,128.506491 C62.9530626,128.130902 64.5316259,129.484871 65.9027584,133.548162 C66.1613615,134.31452 66.4100573,135.171467 66.6479738,136.123187 L66.7660297,136.606964 C67.4814213,139.60918 68.6267569,142.379492 70.0837843,144.89802 C70.9873962,146.459948 71.9551073,147.829518 72.9215557,148.99546 C73.191174,149.320733 73.4449283,149.610815 73.6786178,149.864994 L73.8500572,150.048885 C74.0152196,150.223502 74.1310302,150.339031 74.1892734,150.394092 C74.4150243,150.607508 74.4250239,150.963523 74.2116081,151.189273 C73.9981923,151.415024 73.6421774,151.425024 73.4164266,151.211608 L73.2244191,151.021326 C73.1687538,150.964495 73.1046869,150.898008 73.0327439,150.821946 C72.7369538,150.509225 72.4084379,150.139285 72.0554209,149.713398 C71.0503267,148.500833 70.0464952,147.080144 69.1100007,145.461377 C67.7011488,143.026121 66.5732721,140.362868 65.8259456,137.48718 L65.6716653,136.867715 C65.4059831,135.752564 65.127071,134.76803 64.8368115,133.907859 C64.1322604,131.819953 63.3960083,130.552306 62.6886441,129.945583 C62.3369977,129.643968 62.0778001,129.561633 61.894393,129.581656 L61.8291354,129.593734 C61.8252853,129.594758 61.8317279,129.592272 61.8496821,129.583327 C61.5716192,129.721858 61.2339033,129.608745 61.0953726,129.330682 C60.9568418,129.052619 61.069955,128.714903 61.3480179,128.576373 C61.3958168,128.552559 61.4600713,128.527771 61.540123,128.506491 Z" id="Stroke-67" fill="#7C5B4D" fill-rule="nonzero"></path>
        <path d="M102.05085,181.33235 L77.69985,186.48635 C70.17285,188.07785 65.17635,195.24035 66.28035,202.85435 L81.24735,306.03035 C84.86835,323.50385 101.96685,334.73285 119.44035,331.11185 C136.91235,327.49085 148.14285,310.39235 144.52035,292.91885 L119.22285,192.05735 C117.31485,184.44635 109.72785,179.70785 102.05085,181.33235" id="Fill-69" fill="#E4EBF7"></path>
        <path d="M362.2569,288.2132 L362.2569,288.2132 C375.6894,300.0002 377.0004,320.4557 365.1834,333.8627 L316.1319,389.5127 C304.3509,402.8777 283.9749,404.1842 270.5844,392.4332 C257.1519,380.6462 255.8394,360.1922 267.6564,346.7852 L316.7094,291.1352 C328.4889,277.7702 348.8649,276.4637 362.2569,288.2132" id="Fill-71" fill="#E4EBF7"></path>
        <path d="M365.24235,199.8128 C365.24235,199.8128 357.71385,189.4508 364.90335,172.7018 C370.46235,159.7508 367.86435,157.2458 369.33885,149.6993 C370.81335,142.1528 376.60335,149.8253 376.74885,164.1683 C376.09935,174.5843 397.77435,154.7168 402.33435,141.6773 C406.75935,129.0188 428.60535,167.1623 389.86785,197.2148 C370.77435,212.0288 365.24235,199.8128 365.24235,199.8128" id="Fill-73" fill="#B69882"></path>
        <path d="M406.92691,156.449791 C407.856398,154.532876 408.960921,153.898533 409.930571,154.11965 L410.051485,154.153879 C410.068657,154.159861 410.084321,154.1659 410.098451,154.171876 C410.384575,154.292882 410.51843,154.622926 410.397424,154.909051 C410.276418,155.195175 409.946374,155.32903 409.660249,155.208024 L409.68045,155.216492 C409.568745,155.191019 409.405322,155.210778 409.18568,155.336921 C408.786547,155.566149 408.360182,156.072394 407.939185,156.940631 C407.577209,157.687148 407.242979,158.658367 406.945707,159.874775 L406.857643,160.247074 C404.998937,168.35952 398.774242,174.280794 387.6002,179.282846 C384.539963,180.652927 382.407423,182.404278 381.066526,184.44367 C379.431361,186.930619 379.100909,189.559684 379.512748,191.8865 C379.540031,192.040643 379.56697,192.171268 379.591148,192.276409 L379.652978,192.513417 C379.745227,192.810065 379.57953,193.125328 379.282883,193.217578 C378.986235,193.309827 378.670972,193.14413 378.578722,192.847483 L378.527258,192.662716 C378.489815,192.515399 378.447086,192.320542 378.404966,192.082574 C377.94721,189.496329 378.313357,186.583265 380.126511,183.825611 C381.525634,181.697663 383.691789,179.876144 386.721955,178.448301 L388.19519,177.774193 C398.237646,173.09028 403.860305,167.639484 405.67079,160.373364 L405.761039,159.995906 C406.097612,158.525924 406.488627,157.353678 406.92691,156.449791 Z" id="Stroke-75" fill="#7C5B4D" fill-rule="nonzero"></path>
        <path d="M406.249703,148.956977 C407.623042,147.461077 409.130117,147.067941 410.10781,148.18067 C410.312863,148.414043 410.289904,148.769458 410.05653,148.97451 C409.823157,149.179563 409.467742,149.156604 409.26269,148.92323 C408.841291,148.44363 408.06143,148.647064 407.078422,149.717798 C405.931121,150.967488 404.856667,153.085177 404.102622,155.746437 L403.991949,156.149662 C403.333716,158.631292 401.886656,161.190176 399.889047,163.735193 C398.918618,164.971551 397.880079,166.124684 396.841339,167.164684 C396.568439,167.437915 396.309975,167.688708 396.069531,167.915453 L395.835227,168.134122 C395.651458,168.30379 395.518946,168.422003 395.446196,168.484917 C395.211217,168.688128 394.855994,168.662375 394.652783,168.427396 C394.449572,168.192417 394.475325,167.837194 394.710304,167.633983 L395.072078,167.307546 C395.365267,167.036855 395.69255,166.722912 396.045361,166.369672 C397.054272,165.359537 398.063382,164.23908 399.004093,163.040584 C400.915486,160.605408 402.291681,158.171838 402.904615,155.860994 C403.705611,152.846586 404.909651,150.416619 406.249703,148.956977 Z" id="Stroke-77" fill="#7C5B4D" fill-rule="nonzero"></path>
        <path d="M400.722164,150.348819 C402.982133,144.270502 405.099149,142.323838 406.832735,142.921386 C406.937871,142.957625 407.019712,142.99904 407.077963,143.037524 C407.337165,143.208767 407.408469,143.557712 407.237226,143.816913 C407.08501,144.047315 406.792388,144.129254 406.547194,144.024349 L406.466127,143.984976 C406.201527,143.893771 405.788292,143.992447 405.176224,144.555264 C404.21622,145.438019 403.165646,147.187496 402.064899,149.986716 L401.776636,150.740881 C400.817844,153.319609 399.550595,155.687823 398.04993,157.842947 C396.808266,159.626115 395.477602,161.165206 394.145553,162.457713 C393.67794,162.911445 393.24289,163.302404 392.851304,163.630252 L392.635667,163.808053 C392.506966,163.912373 392.408916,163.988247 392.344743,164.03557 C392.094713,164.219946 391.742557,164.166723 391.55818,163.916693 C391.373804,163.666663 391.427027,163.314507 391.677057,163.13013 L391.931609,162.930597 C391.98991,162.883291 392.05588,162.828972 392.129115,162.767658 C392.500065,162.457087 392.9147,162.084474 393.362132,161.650324 C394.644496,160.406027 395.928246,158.921198 397.126702,157.200081 C398.57507,155.120062 399.797683,152.835264 400.722164,150.348819 Z" id="Stroke-79" fill="#7C5B4D" fill-rule="nonzero"></path>
        <path d="M362.53965,189.1283 L386.66865,195.2363 C394.12815,197.1248 398.83665,204.4778 397.43415,212.0423 L378.41715,314.5493 C374.11065,331.8668 356.58165,342.4133 339.26565,338.1068 C321.94815,333.8018 311.40165,316.2728 315.70815,298.9568 L344.95665,199.1693 C347.16465,191.6378 354.93315,187.2023 362.53965,189.1283" id="Fill-81" fill="#E4EBF7"></path>
        <path d="M314.0856,343.53665 C300.0096,307.92515 275.9361,315.52715 260.0556,322.26665 C254.7666,324.51065 237.3006,337.66115 226.2396,337.34315 C209.8971,336.87065 198.8046,323.55665 192.8601,321.70265 C177.1101,316.79465 154.3026,306.65765 131.6346,340.15865 C131.6346,340.15865 131.8896,352.48865 140.3661,388.16915 C140.3661,388.16915 142.0971,416.64065 143.6286,430.88765 C143.6286,430.88765 126.0036,473.05415 144.0246,499.52015 C149.0346,506.88065 153.2661,508.57715 165.4236,509.09465 C191.3496,510.19565 257.1666,510.41315 278.6106,509.65715 C322.5336,508.10765 329.2911,479.52965 308.1741,428.84915 C308.1741,428.84915 311.5521,403.69265 309.8631,389.99465 C314.3661,355.08065 314.0856,343.53665 314.0856,343.53665" id="Fill-83" fill="#E4EBF7"></path>
        <path d="M194.6304,330.2615 C194.6304,330.2615 215.9649,388.592 226.5234,413.51 C248.4834,351.848 257.6514,322.0715 258.4869,321.953 L220.8999,339.269 L194.6304,330.2615 Z" id="Fill-85" fill="#FFFFFF"></path>
        <path d="M218.50305,341.37455 L219.52155,340.61855 C223.17855,337.90505 228.17205,337.86755 231.86955,340.52705 L231.98355,340.60955 C235.68105,343.26755 237.23505,348.01205 235.82955,352.34255 L235.21605,354.23255 C233.82105,358.52255 229.83555,361.43705 225.32355,361.46405 L225.17505,361.465751 C220.54905,361.49405 216.45405,358.48205 215.09955,354.05855 L214.72905,352.84205 C213.43455,348.60605 214.94505,344.01305 218.50305,341.37455" id="Fill-87" fill="#51342D"></path>
        <polygon id="Fill-89" fill="#51342D" points="212.16315 378.0338 217.44765 360.1853 232.84215 360.1853 239.19315 377.1893 226.52265 413.5103"></polygon>
        <polygon id="Fill-91" fill="#FFFFFF" points="226.36635 335.78105 248.60835 353.52005 259.49085 322.34705 255.36135 317.00855"></polygon>
        <path d="M260.333067,322.210045 L255.532635,316.004184 L225.084129,335.717741 L248.967769,354.766022 L260.333067,322.210045 Z M255.19,318.012 L258.648,322.483 L248.248,352.274 L227.648,335.844 L255.19,318.012 Z" id="Stroke-93" fill="#E4EBF7" fill-rule="nonzero"></path>
        <polygon id="Fill-95" fill="#FFFFFF" points="225.09915 335.35925 202.19265 354.36425 191.31165 323.19125 195.44115 317.85425"></polygon>
        <path d="M226.39883,335.255463 L195.25275,316.872156 L190.469424,323.054166 L201.840436,355.631002 L226.39883,335.255463 Z M195.629,318.836 L223.799,335.463 L202.544,353.097 L192.153,323.328 L195.629,318.836 Z" id="Stroke-97" fill="#E4EBF7" fill-rule="nonzero"></path>
        <path d="M259.220996,322.057742 C259.380776,321.675586 259.820103,321.495315 260.202258,321.655096 C260.584414,321.814876 260.764685,322.254203 260.604904,322.636358 L259.800475,324.570429 C257.772291,329.471626 255.616483,334.865654 253.348755,340.700419 L252.893721,341.873233 C251.69681,344.963486 250.473607,348.163204 249.226959,351.462924 L248.601694,353.121074 C243.987358,365.380966 239.250372,378.462884 234.622385,391.596313 L232.257578,398.338834 C231.43821,400.686238 230.656532,402.937704 229.916932,405.078627 L227.23336,412.905502 C227.019677,413.536825 226.150214,413.596606 225.852135,413.000471 C222.353347,406.003165 218.865944,398.347497 215.406403,390.137553 C209.254167,375.537495 203.476324,359.898156 198.240189,344.259283 L197.51781,342.091116 C196.094427,337.797696 194.799894,333.765472 193.644966,330.061057 L192.884982,327.605138 L191.851972,324.193388 L191.617924,323.40146 C191.501994,323.0038 191.730381,322.587454 192.12804,322.471524 C192.5257,322.355594 192.942046,322.583981 193.057976,322.98164 L193.754672,325.314026 C193.973924,326.038651 194.21317,326.822422 194.471957,327.662546 L195.36801,330.545547 C196.641481,334.608326 198.07758,339.049091 199.66258,343.783045 C204.887557,359.388593 210.652745,374.993676 216.788692,389.555078 C219.80533,396.713954 222.842298,403.447894 225.887976,409.686482 L226.393,410.716 L228.184515,405.500299 C229.328512,402.183761 230.577995,398.58904 231.915936,394.772786 L232.28301,393.726539 C237.206352,379.704126 242.271499,365.681549 247.197837,352.592695 L248.445873,349.28932 C249.272663,347.109391 250.088845,344.974567 250.893581,342.887642 L251.494974,341.331473 C254.238566,334.24791 256.822822,327.793582 259.220996,322.057742 Z" id="Stroke-99" fill="#96A7CA" fill-rule="nonzero"></path>
        <path d="M208.730945,446.856261 C221.679544,444.953821 236.551653,444.982373 252.141699,448.233242 C252.54719,448.317796 252.807362,448.715057 252.722808,449.120549 C252.638254,449.52604 252.240993,449.786212 251.835501,449.701658 C236.433701,446.490042 221.734691,446.461822 208.948988,448.340329 C207.318596,448.57987 205.853314,448.834442 204.565999,449.090447 L204.091623,449.186489 C203.701394,449.266929 203.35191,449.342669 203.044342,449.412469 L202.397073,449.566141 C201.996009,449.66968 201.586947,449.428487 201.483409,449.027423 C201.37987,448.626359 201.621063,448.217297 202.022127,448.113759 L202.481213,448.002804 L202.957417,447.894755 C203.211236,447.838573 203.488523,447.779272 203.788786,447.717377 C205.214332,447.42352 206.867785,447.130001 208.730945,446.856261 Z" id="Stroke-101" fill="#96A7CA" fill-rule="nonzero"></path>
        <path d="M209.379607,437.39149 L212.055854,437.503956 C213.839699,437.576285 215.731075,437.648616 217.673242,437.717402 L220.960679,437.828502 C222.103287,437.865154 223.22417,437.898938 224.317266,437.929474 L227.84315,438.018592 C233.971108,438.155436 238.337833,438.147761 240.242034,437.956986 C240.654185,437.915694 241.021772,438.216334 241.063064,438.628484 C241.104356,439.040635 240.803716,439.408222 240.391566,439.449514 L239.891147,439.492038 C237.419312,439.670549 232.338819,439.642461 225.361318,439.458393 L223.171353,439.397231 C222.058346,439.364511 220.919644,439.328669 219.761285,439.290081 L215.694385,439.146531 C215.059516,439.122913 214.432408,439.099033 213.815158,439.075022 L209.312993,438.89001 C208.899188,438.871615 208.578645,438.521248 208.59704,438.107443 C208.615435,437.693638 208.965802,437.373095 209.379607,437.39149 Z" id="Stroke-103" fill="#96A7CA" fill-rule="nonzero"></path>
        <path d="M144.722183,367.659943 C144.853161,367.266983 145.277897,367.054605 145.670857,367.185583 C146.063817,367.316561 146.276195,367.741297 146.145217,368.134257 C144.326274,373.591445 143.15823,379.649524 142.558417,386.277388 C141.711985,395.630357 141.97916,404.893599 143.066655,416.782189 L143.443986,420.69591 L143.929847,425.533507 C144.163064,427.898007 144.30066,429.498009 144.377968,430.84513 C144.385154,430.97035 144.360821,431.095373 144.307196,431.208757 C143.296181,433.346443 142.394125,435.538833 141.597437,437.782032 C136.310502,452.668224 135.875772,468.535999 138.310767,483.191667 C138.577983,484.79998 138.861995,486.258659 139.14763,487.551067 L139.25479,488.027893 C139.322119,488.322505 139.386502,488.594755 139.447354,488.844005 L139.676226,489.735981 C141.42335,495.676391 143.881161,500.058429 146.858174,503.100468 C148.948492,505.236444 151.17574,506.595053 153.405028,507.336171 C154.575569,507.725312 155.541857,507.886952 156.213271,507.917688 L157.109492,507.939562 L164.439291,508.160097 L172.131578,508.373209 C176.103696,508.479005 180.254294,508.583091 184.536217,508.682899 L189.290698,508.790658 C198.77133,508.999323 208.069777,509.166214 216.966432,509.279383 L223.982136,509.358126 C250.066953,509.610241 269.35593,509.321703 279.097576,508.347322 L280.612055,508.193111 C304.962385,505.666909 310.518272,502.725015 315.991493,491.790898 L316.075069,491.655554 C316.18788,491.465172 316.352902,491.161033 316.555858,490.742344 C316.998897,489.828378 317.443978,488.721619 317.860791,487.420248 C319.514105,482.258281 320.236834,475.7367 319.49334,467.819659 C318.501268,457.255669 314.965172,445.230853 308.344154,431.713002 C308.279494,431.580989 308.255053,431.432884 308.27387,431.287096 L308.496638,429.527714 C310.410126,414.114499 310.892384,402.095161 310.552078,393.637012 L310.50321,392.568477 L310.44256,391.580851 C310.435471,391.483361 310.429861,391.413182 310.426093,391.370414 C310.389745,390.957799 310.69477,390.593842 311.107386,390.557493 C311.520001,390.521145 311.883958,390.82617 311.920307,391.238786 L311.955297,391.712726 L312.001081,392.488574 C312.011079,392.678886 312.020905,392.881118 312.030452,393.095239 L312.06935,394.061936 C312.375627,402.571814 311.872729,414.507556 309.985467,429.710436 L309.79,431.256 L310.105852,431.906019 C316.401173,444.953135 319.849606,456.644945 320.920307,467.005602 L320.986769,467.67941 C321.749302,475.799185 321.004046,482.52404 319.289308,487.877784 C318.850656,489.247342 318.379166,490.419769 317.905635,491.396639 L317.663583,491.879355 C317.490896,492.211391 317.358148,492.438584 317.290501,492.53605 L316.941041,493.223584 C311.280253,504.174681 304.953561,507.220434 280.023818,509.761441 L278.58595,509.903604 C268.579232,510.834053 249.537483,511.10521 223.97147,510.858096 L221.364,510.831346 C211.141965,510.720531 200.323821,510.533856 189.257937,510.2903 L184.501263,510.182491 C177.8378,510.027172 171.492258,509.861498 165.642074,509.695132 L156.5692,509.421951 L156.550835,509.422355 C156.288598,509.427049 155.901055,509.406713 155.40624,509.341044 C154.645721,509.240112 153.814753,509.0531 152.931823,508.759574 C150.48102,507.944815 148.04749,506.460374 145.786118,504.149608 C142.735204,501.032055 140.223589,496.631485 138.418897,490.763058 L138.218545,490.092317 L138.11104,489.683656 C138.033982,489.382653 137.950035,489.03989 137.860587,488.656871 L137.792491,488.362082 C137.46443,486.926598 137.136717,485.277246 136.831051,483.437517 C134.357943,468.552453 134.799344,452.441181 140.183938,437.280018 C140.881067,435.317141 141.657445,433.391839 142.515411,431.506671 L142.869,430.744 L142.83118,430.156792 C142.781338,429.438149 142.714783,428.630624 142.627154,427.671632 L141.762404,418.932661 L141.572353,416.913016 C140.477604,404.943957 140.208366,395.602612 141.064522,386.142192 C141.674183,379.405514 142.863839,373.23534 144.722183,367.659943 Z" id="Stroke-105" fill="#96A7CA" fill-rule="nonzero"></path>
        <path d="M240.912713,607.614507 C241.308614,607.492708 241.728294,607.714912 241.850093,608.110813 C241.971892,608.506714 241.749688,608.926394 241.353787,609.048193 C240.615079,609.275456 239.861369,609.476374 239.093611,609.651755 C233.425569,610.946519 227.394163,610.815956 221.67144,609.820931 C220.712078,609.654124 219.844204,609.475223 219.082344,609.296006 L218.534338,609.162157 L218.121257,609.052507 C217.722974,608.93874 217.492327,608.523641 217.606093,608.125357 C217.71986,607.727074 218.134959,607.496427 218.533243,607.610193 L218.811281,607.685019 C218.930601,607.715843 219.076175,607.752241 219.246839,607.793293 L219.425823,607.835861 C220.159796,608.008519 220.998922,608.181493 221.928394,608.343103 C227.47158,609.306912 233.313932,609.433382 238.759567,608.189423 C239.491785,608.022161 240.209811,607.830755 240.912713,607.614507 Z" id="Stroke-107" fill="#3B4A7A" fill-rule="nonzero"></path>
        <path d="M180.473255,582.360044 C180.821032,582.135046 181.285358,582.234578 181.510356,582.582355 C184.581859,587.329944 189.369747,591.723621 195.408587,595.7202 C199.307315,598.300426 203.488988,600.559727 207.670986,602.480391 C209.134668,603.152615 210.493292,603.734254 211.71162,604.223291 L212.638006,604.587247 L213.230438,604.809135 C213.620414,604.948746 213.823376,605.378061 213.683765,605.768038 C213.544154,606.158014 213.114839,606.360976 212.724862,606.221365 L212.308394,606.066808 C211.974486,605.940507 211.587847,605.789939 211.152855,605.615333 C209.912571,605.117483 208.5316,604.526277 207.044949,603.843504 C202.797423,601.892746 198.549572,599.597689 194.580745,596.971071 C188.383908,592.869928 183.450577,588.342783 180.250944,583.397145 C180.025946,583.049368 180.125478,582.585042 180.473255,582.360044 Z" id="Stroke-109" fill="#3B4A7A" fill-rule="nonzero"></path>
        <path d="M278.486332,582.909867 C278.686195,582.547061 279.142328,582.41497 279.505133,582.614832 C279.867939,582.814695 280.00003,583.270828 279.800168,583.633633 C276.988823,588.736997 271.987168,593.584086 265.421232,598.118231 C261.772273,600.63804 257.866729,602.903939 253.961496,604.882283 C252.789947,605.475776 251.689807,606.006693 250.681359,606.472277 L249.893393,606.831245 L248.740493,607.334564 C248.357863,607.493204 247.919076,607.311624 247.760436,606.928993 C247.601796,606.546363 247.783376,606.107576 248.166007,605.948936 L248.526782,605.794998 C248.8257,605.665566 249.17304,605.511642 249.564753,605.333794 C250.68612,604.824665 251.93655,604.226603 253.283632,603.544187 C257.13237,601.594463 260.980798,599.361701 264.568879,596.883931 C270.960564,592.470117 275.807169,587.773287 278.486332,582.909867 Z" id="Stroke-111" fill="#3B4A7A" fill-rule="nonzero"></path>
        <path d="M292.314269,516.92109 C292.727052,516.886693 293.089563,517.193436 293.12396,517.606219 L293.206875,518.464395 C293.231107,518.697726 293.258471,518.950459 293.289092,519.221586 C293.435125,520.514641 293.624206,521.956281 293.860884,523.509146 C294.536846,527.944204 295.457731,532.37835 296.658572,536.510905 C299.576841,546.553789 303.651351,553.141856 308.918535,554.677996 C309.316182,554.793967 309.544526,555.210337 309.428554,555.607985 C309.312583,556.005632 308.896213,556.233976 308.498565,556.118004 C302.573295,554.389938 298.269949,547.431867 295.218152,536.929463 C293.99697,532.726906 293.06317,528.230576 292.378008,523.735156 C292.172537,522.387041 292.002425,521.121238 291.864728,519.961085 L291.714828,518.618662 L291.62914,517.730781 C291.594743,517.317998 291.901486,516.955487 292.314269,516.92109 Z" id="Stroke-113" fill="#3B4A7A" fill-rule="nonzero"></path>
        <path d="M171.931981,516.92109 C172.344764,516.955487 172.651507,517.317998 172.61711,517.730781 L172.576672,518.168936 C172.542412,518.521605 172.499611,518.930146 172.447687,519.389919 C172.299555,520.701586 172.107974,522.16235 171.868271,523.735151 C171.183145,528.230567 170.249409,532.726894 169.028327,536.929448 C165.976776,547.431857 161.673858,554.38992 155.749206,556.117998 C155.351562,556.233981 154.935185,556.00565 154.819202,555.608006 C154.703219,555.210362 154.93155,554.793985 155.329194,554.678002 C160.595753,553.141873 164.669867,546.553799 167.587898,536.510921 C168.788643,532.378362 169.709466,527.944213 170.385394,523.509152 L170.576701,522.206234 C170.726587,521.14462 170.852855,520.1452 170.957162,519.221589 L171.062569,518.23757 L171.12229,517.606219 C171.153821,517.227834 171.461059,516.938554 171.829994,516.919462 L171.931981,516.92109 Z" id="Stroke-115" fill="#3B4A7A" fill-rule="nonzero"></path>
        <path d="M219.281912,511.850556 C219.694742,511.884391 220.001978,512.246483 219.968144,512.659312 C217.181197,546.66422 219.030836,572.588793 223.806363,591.371847 C224.923727,595.766653 226.119124,599.39692 227.312113,602.30701 C227.727512,603.320305 228.112146,604.170152 228.455969,604.862099 L228.762856,605.457558 C228.808978,605.542776 228.845654,605.607831 228.872353,605.653018 C229.083068,606.00963 228.964795,606.469539 228.608182,606.680253 C228.25157,606.890968 227.791661,606.772695 227.580947,606.416082 L227.395379,606.081349 C227.316912,605.933827 227.222254,605.750132 227.112663,605.529578 C226.797759,604.895831 226.452525,604.140791 226.083702,603.260786 L225.924211,602.87598 C224.704468,599.900629 223.487132,596.203738 222.352613,591.741458 C217.534592,572.791266 215.673142,546.701142 218.473156,512.536788 C218.504171,512.158361 218.811014,511.868661 219.179923,511.849067 L219.281912,511.850556 Z" id="Stroke-117" fill="#3B4A7A" fill-rule="nonzero"></path>
        <path d="M226.69947,411.936682 C227.102067,412.034089 227.349474,412.439422 227.252068,412.84202 L227.001843,413.928535 L226.824654,414.730286 C226.67252,415.428156 226.50947,416.19987 226.337601,417.041563 C225.649625,420.410791 224.961463,424.201597 224.319105,428.329096 C221.922058,443.731416 220.802863,459.389384 221.669154,473.986754 C222.266368,484.050052 223.802042,493.170222 226.39175,501.123951 C226.519991,501.517813 226.304662,501.94106 225.910799,502.0693 C225.516937,502.197541 225.09369,501.982212 224.96545,501.588349 C222.332554,493.501981 220.776089,484.258341 220.171788,474.075617 C219.298324,459.35738 220.424771,443.597958 222.836947,428.098429 C223.483059,423.946811 224.1754,420.132979 224.867927,416.741464 L225.169845,415.29069 C225.267018,414.832881 225.360574,414.40113 225.45006,413.996271 L225.794132,412.48928 C225.891539,412.086683 226.296872,411.839276 226.69947,411.936682 Z" id="Stroke-119" fill="#96A7CA" fill-rule="nonzero"></path>
    </g>
</svg>