<svg xmlns="http://www.w3.org/2000/svg" xmlns:xlink="http://www.w3.org/1999/xlink" width="512" height="1024" version="1.1" viewBox="0 0 512 1024"><title>2.人物组件/4.商务拓展/后仰/讲解</title><desc>Created with Sketch.</desc><defs><polygon id="path-1" points="0 1.236 134.541 1.236 134.541 148.862 0 148.862"/></defs><g id="2.人物组件/4.商务拓展/后仰/讲解" fill="none" fill-rule="evenodd" stroke="none" stroke-width="1"><path id="Fill-1" fill="#FFC999" d="M261.00975,623.59835 C261.25425,623.31785 193.78725,700.70885 188.86275,705.15485 C175.42575,717.28835 172.18875,717.40835 175.08975,727.80185 C175.83375,730.46435 179.36775,732.30935 178.71675,738.17435 C176.93925,754.22735 182.36625,770.45285 188.84325,767.28035 C194.52375,763.88135 192.95625,731.22485 201.23625,720.36035 C209.83725,709.07435 301.25175,639.40835 306.93075,628.37585 C315.27225,612.16835 319.77375,575.09885 261.00975,623.59835"/><path id="Fill-3" fill="#253368" d="M169.18815,724.73105 C169.18815,724.73105 174.38865,715.81205 184.68465,709.25255 C184.68465,709.25255 184.60815,720.29405 183.30915,731.03255 C181.80765,743.43455 182.78565,745.23755 182.78565,745.23755 C187.31115,755.07305 193.27065,752.84705 193.27065,752.84705 C193.27065,752.84705 191.64765,761.88755 192.94815,775.00955 C194.11215,786.76055 168.32865,760.22855 171.88665,750.22205 C175.44615,740.21555 175.04265,731.60855 175.04265,731.60855 L162.58515,738.91805 L160.30365,736.23305 L169.18815,724.73105 Z"/><path id="Fill-5" fill="#A3B5D6" d="M297.6009,580.49225 L199.1199,677.39975 L238.6674,721.92725 C238.6674,721.92725 289.3329,671.96975 339.3699,619.57775 C339.3699,619.57775 365.8269,594.82175 344.6964,573.68225 C323.5689,552.54275 297.6009,580.49225 297.6009,580.49225"/><path id="Fill-7" fill="#FFC999" d="M214.08558,688.9442 C214.0422,688.5617 225.8367,794.2967 225.7782,801.1712 C225.6237,819.9317 223.4457,822.4862 233.4132,827.5547 C235.9662,828.8537 239.8512,827.4497 243.8727,832.0562 C254.8797,844.6637 271.0692,851.8907 273.1857,844.7252 C274.5732,838.0067 248.5482,816.3182 246.0567,802.3832 C243.4692,787.9082 254.3562,669.3062 249.9147,657.2387 C243.3897,639.5147 218.2467,610.0997 214.08558,688.9442"/><path id="Fill-9" fill="#253368" d="M226.93305,829.9091 C226.93305,829.9091 223.76955,819.6896 225.97755,807.2321 C225.97755,807.2321 234.35205,815.0291 241.63905,823.5476 C250.05405,833.3846 252.11505,833.9006 252.11505,833.9006 C262.79355,837.3386 265.27155,831.2306 265.27155,831.2306 C265.27155,831.2306 271.03455,838.8041 281.96355,847.0076 C291.74805,854.3546 253.42605,855.4406 248.28255,845.7131 C243.13905,835.9841 236.28555,830.2601 236.28555,830.2601 L233.13405,844.8911 L229.48605,844.7516 L226.93305,829.9091 Z"/><path id="Fill-11" fill="#E4EBF7" d="M206.82525,630.80465 L211.78125,773.89265 L273.48525,774.90965 C273.48525,774.90965 270.85725,701.22365 265.93275,626.31365 C265.93275,626.31365 265.57575,588.76865 234.63375,590.08265 C203.68875,591.39665 206.82525,630.80465 206.82525,630.80465"/><path id="Fill-13" fill="#A3B5D6" d="M341.22165,566.55365 C307.54065,518.84615 271.46115,468.17915 259.95765,460.52465 C259.95765,460.52465 247.86165,460.75115 238.38615,481.78565 C227.33865,506.31065 240.60765,522.45365 240.60765,522.45365 L295.12815,599.75165 C299.80365,605.91215 313.79265,625.40015 338.58165,608.84015 C362.98215,592.53965 341.95515,567.59315 341.22165,566.55365"/><path id="Fill-15" fill="#E4EBF7" d="M263.8962,595.83065 C253.0542,539.05565 240.3567,479.74565 232.1352,468.02315 C232.1352,468.02315 213.6327,458.52365 196.5612,475.25915 C176.6562,494.77265 183.3837,515.35565 183.3837,515.35565 L206.8932,610.51265 C209.0862,618.22115 215.2482,642.30365 245.4162,635.65715 C275.1132,629.11415 264.1437,597.12515 263.8962,595.83065"/><g id="分组" transform="translate(126.000000, 255.764000)"><mask id="mask-2" fill="#fff"><use xlink:href="#path-1"/></mask><path id="Fill-17" fill="#253368" d="M60.25875,1.2615 C60.25875,1.2615 98.93475,2.4675 102.07725,24.114 C103.69425,35.247 94.43925,48.8115 100.15875,51.5115 C122.51025,62.064 103.04775,72.6375 119.30775,77.643 C142.22775,84.696 137.55525,120.5295 116.79075,121.4805 C95.28375,122.4675 100.49475,152.2605 62.73225,148.5405 C41.45025,146.4435 44.85825,133.4175 29.23875,128.0775 C13.62075,122.7375 -10.51275,94.962 4.99725,73.749 C14.60775,60.351 25.47225,60.084 29.05275,39.4485 C32.63325,18.8115 37.00425,5.874 47.03175,6.189 C49.92075,0.591 60.25875,1.2615 60.25875,1.2615" mask="url(#mask-2)"/></g><path id="Fill-19" fill="#FFF" d="M214.64385,301.01705 C214.69185,300.58505 215.26935,300.48455 215.46285,300.87305 C217.16385,304.30955 221.38935,313.63355 217.63935,314.61455 C213.41085,315.72155 214.21485,304.95455 214.64385,301.01705"/><path id="Fill-21" fill="#F4B784" d="M184.67385,338.0621 C183.78885,320.5826 182.50635,313.8656 182.50635,313.8656 L204.99135,316.9436 L208.59135,335.1296 C209.91735,341.8241 205.43685,348.2876 198.70185,349.3961 C191.57985,350.5676 185.03985,345.2696 184.67385,338.0621"/><path id="Fill-23" fill="#FFC999" d="M188.1192,280.151 C188.1192,280.151 189.5742,273.035 194.6967,275.546 C198.3582,277.34 197.1747,275.5715 197.6232,273.644 C199.2912,266.4875 203.1717,282.017 214.3827,283.763 C215.9202,292.154 220.4277,319.862 202.3977,323.843 C195.3852,325.3925 186.1272,322.3925 180.8367,312.7205 C177.6387,306.8765 178.4712,300.2225 180.7512,298.568 C188.2632,293.117 187.4247,288.878 188.1192,280.151"/><path id="Stroke-25" fill="#DD936F" fill-rule="nonzero" d="M204.353213,285.191845 C204.636861,285.227913 204.845858,285.464783 204.855606,285.74155 L204.851305,285.835063 L204.288,290.261 L204.406852,290.849139 L204.442842,291.019394 C204.591202,291.716389 204.777568,292.530899 205.004663,293.455254 L205.318505,294.700298 C205.919634,297.027288 206.663196,299.596286 207.562367,302.370113 C207.646504,302.629665 207.536733,302.912616 207.299568,303.047519 L206.169391,303.694931 L204.795136,304.49156 L202.138307,306.05265 C201.865119,306.214832 201.512182,306.124844 201.35,305.851657 C201.187818,305.578469 201.277806,305.225532 201.550993,305.06335 L202.80367,304.324117 C203.510865,303.90844 204.222289,303.492749 204.912578,303.092572 L206.324,302.279 L206.224542,301.967231 C205.346261,299.208011 204.623285,296.657323 204.042321,294.352276 L203.887387,293.729746 C203.690259,292.927363 203.523217,292.205761 203.384536,291.569762 L203.171885,290.550109 L203.14034,290.384286 L203.135495,290.207937 L203.709995,285.689937 C203.746063,285.406289 203.982933,285.197292 204.2597,285.187544 L204.353213,285.191845 Z"/><path id="Stroke-27" fill="#253368" fill-rule="nonzero" d="M212.308018,290.204776 C212.709791,290.104021 213.117169,290.348045 213.217924,290.749818 C213.246388,290.863323 213.285732,291.05258 213.324197,291.300899 C213.440781,292.053533 213.469018,292.838256 213.351226,293.59074 C213.066745,295.408079 211.971997,296.631137 209.964934,296.756777 C208.331165,296.859326 207.245212,295.86975 206.645909,294.28587 C206.460965,293.797087 206.33403,293.28156 206.252707,292.767263 L206.205711,292.429092 C206.18775,292.277427 206.177638,292.153322 206.173312,292.063206 C206.153454,291.649469 206.472756,291.297971 206.886494,291.278112 C207.300231,291.258254 207.651729,291.577556 207.671588,291.991294 L207.684269,292.152336 C207.694357,292.252964 207.710455,292.38219 207.734299,292.532989 C207.800714,292.953005 207.90383,293.371792 208.048839,293.755035 C208.440364,294.789785 209.015029,295.313449 209.871092,295.259715 C211.105074,295.182469 211.68526,294.534282 211.869273,293.358759 C211.959698,292.781099 211.936734,292.142891 211.841875,291.530513 L211.78953,291.234178 C211.779202,291.183346 211.770107,291.14312 211.762976,291.114682 C211.662221,290.712909 211.906245,290.305531 212.308018,290.204776 Z"/><path id="Stroke-29" fill="#253368" fill-rule="nonzero" d="M195.712735,292.722025 C196.117436,292.633762 196.517062,292.890285 196.605325,293.294985 L196.64805,293.526366 C196.658536,293.591436 196.669421,293.665224 196.680184,293.746964 C196.780364,294.507804 196.786307,295.313541 196.632566,296.088057 C196.281129,297.858519 195.155339,299.04214 193.165509,299.168328 C191.536943,299.270496 190.44301,298.297955 189.828339,296.736808 C189.63842,296.254451 189.506374,295.745658 189.420052,295.238051 C189.368124,294.932694 189.342472,294.69104 189.333818,294.542392 C189.309743,294.128878 189.625445,293.774143 190.038958,293.750068 C190.452472,293.725993 190.807207,294.041695 190.831282,294.455208 L190.845402,294.612969 C190.856389,294.711649 190.873639,294.838492 190.898822,294.986575 C190.968998,295.399237 191.075787,295.810713 191.22405,296.187274 C191.625643,297.207242 192.208497,297.725417 193.071083,297.671304 C194.318913,297.59217 194.932862,296.946683 195.161272,295.796005 C195.278417,295.205856 195.273614,294.554874 195.19302,293.942779 L195.157506,293.707177 C195.150552,293.667298 195.144474,293.636162 195.139775,293.614615 C195.051512,293.209914 195.308035,292.810288 195.712735,292.722025 Z"/><path id="Stroke-31" fill="#B53026" fill-rule="nonzero" d="M205.555846,307.54478 C205.949581,307.41615 206.373041,307.631061 206.50167,308.024796 C206.6303,308.418531 206.415389,308.841991 206.021654,308.97062 L205.782297,309.043053 C205.46173,309.133887 204.998004,309.244838 204.406297,309.354576 C201.850226,309.828627 198.917293,309.900311 195.788211,309.314387 C195.381074,309.23815 195.112826,308.846298 195.189063,308.439161 C195.2653,308.032024 195.657152,307.763776 196.064289,307.840013 C198.997601,308.389278 201.747701,308.322063 204.13277,307.879726 C204.437284,307.823251 204.714947,307.763941 204.963997,307.704139 L205.389087,307.594233 C205.467214,307.572363 205.5231,307.555477 205.555846,307.54478 Z"/><path id="Stroke-33" fill="#253368" fill-rule="nonzero" d="M214.381124,283.241817 C214.495244,283.64 214.264965,284.055303 213.866783,284.169424 L212.37622,284.584257 C211.238663,284.894837 210.057959,285.205424 208.89488,285.495485 L207.937848,285.730246 L207.473103,285.841178 C206.686348,286.027118 205.951963,286.191 205.279465,286.329527 C204.873769,286.413096 204.477142,286.151961 204.393573,285.746265 C204.310004,285.340569 204.571139,284.943942 204.976835,284.860373 C205.6341,284.724983 206.354624,284.564195 207.128099,284.381393 L208.054842,284.158082 C208.212409,284.119428 208.371465,284.080077 208.531911,284.040063 C209.683287,283.75292 210.853571,283.445074 211.981145,283.13722 L213.453517,282.727476 C213.8517,282.613356 214.267003,282.843635 214.381124,283.241817 Z"/><path id="Stroke-35" fill="#253368" fill-rule="nonzero" d="M198.528208,286.989821 C198.560919,287.402741 198.252699,287.763996 197.839779,287.796708 L197.308273,287.833707 C196.881963,287.861136 196.392154,287.888534 195.845819,287.914086 C192.973926,288.048407 189.81753,288.080078 186.618995,287.945386 C186.205148,287.927959 185.883787,287.578342 185.901214,287.164495 C185.918641,286.750648 186.268258,286.429287 186.682105,286.446714 C189.481866,286.564613 192.25287,286.553031 194.822082,286.456021 L196.091359,286.400445 L197.721321,286.301392 C198.134241,286.268681 198.495496,286.576901 198.528208,286.989821 Z"/><path id="Stroke-37" fill="#DD936F" fill-rule="nonzero" d="M202.907175,312.050224 C203.222268,312.00959 203.510641,312.232083 203.551276,312.547175 C203.587846,312.830759 203.411284,313.0927 203.145904,313.171874 L203.054325,313.191276 L201.065325,313.447776 C200.750232,313.48841 200.461859,313.265917 200.421224,312.950825 C200.384654,312.667241 200.561216,312.4053 200.826596,312.326126 L200.918175,312.306724 L202.907175,312.050224 Z"/><path id="Fill-39" fill="#FFC999" d="M168.84405,304.65785 C166.30155,297.74585 173.21205,297.19685 173.21205,297.19685 C173.21205,297.19685 174.36705,304.28285 177.14055,310.36985 C170.24655,311.14685 168.84405,304.65785 168.84405,304.65785"/><path id="Fill-41" fill="#FFF" d="M173.42895,309.09995 C173.47545,308.66795 174.05445,308.56745 174.24645,308.95595 C175.94895,312.39245 180.17445,321.71645 176.42445,322.69745 C172.19595,323.80445 172.99845,313.03745 173.42895,309.09995"/><path id="Fill-43" fill="#FFC999" d="M290.9094,410.0687 C290.9094,410.0687 256.4859,368.2067 249.3174,361.0187 C232.0029,343.6592 218.6589,349.5872 216.9984,363.4757 C214.9989,380.2202 270.5514,430.2527 270.5514,430.2527 C270.5514,430.2527 278.4669,439.0172 289.2714,429.1187 C299.1369,420.0812 290.9094,410.0687 290.9094,410.0687"/><path id="Fill-45" fill="#597EF7" d="M266.0466,379.53485 C262.6431,375.76085 238.4976,335.89535 222.0456,349.95635 C209.4861,360.68885 217.2411,375.82535 243.4701,401.29235 L266.0466,379.53485 Z"/><path id="Fill-47" fill="#597EF7" d="M194.66985,444.31385 C206.67735,446.22035 239.38635,440.43935 242.55735,438.31385 C250.88235,432.72635 244.55385,419.26235 244.55385,419.26235 C244.55385,419.26235 250.31385,400.92335 250.19985,393.38885 C250.08435,385.85435 242.01435,369.45935 242.01435,369.45935 C242.01435,369.45935 239.89935,357.21035 238.39785,352.99685 C236.06085,346.43735 219.59535,346.88285 215.55885,345.20285 C211.52385,343.52135 210.08085,333.87335 210.08085,333.87335 L183.77985,334.39835 C183.77985,334.39835 182.93235,341.93885 181.60035,344.63435 C179.01285,349.87685 167.44185,346.40735 162.32685,348.70535 C141.67035,357.98735 179.53785,409.44485 191.56485,431.18285 C191.56485,431.18285 188.02335,439.69535 194.66985,444.31385"/><path id="Stroke-49" fill="#1D39C4" fill-rule="nonzero" d="M185.188144,346.809301 L210.413644,347.776801 C210.827554,347.792676 211.150224,348.141085 211.134349,348.554994 C211.119797,348.934411 210.825824,349.237162 210.458114,349.272758 L210.356156,349.275699 L185.130656,348.308199 C184.716746,348.292324 184.394076,347.943915 184.409951,347.530006 C184.424503,347.150589 184.718476,346.847838 185.086186,346.812242 L185.188144,346.809301 Z"/><path id="Stroke-51" fill="#1D39C4" fill-rule="nonzero" d="M186.300983,350.462294 L199.790483,352.824794 C200.198486,352.89625 200.471312,353.284929 200.399856,353.692933 C200.334354,354.066936 200.002298,354.327352 199.633143,354.313118 L199.531717,354.302306 L186.042217,351.939806 C185.634214,351.86835 185.361388,351.479671 185.432844,351.071667 C185.498346,350.697664 185.830402,350.437248 186.199557,350.451482 L186.300983,350.462294 Z"/><path id="Stroke-53" fill="#1D39C4" fill-rule="nonzero" d="M188.705252,388.702749 C188.960381,388.376432 189.431735,388.318724 189.758051,388.573852 L189.886531,388.668726 C190.019757,388.76316 190.218132,388.894743 190.479773,389.053878 C191.102533,389.432651 191.839348,389.813188 192.685089,390.16938 C197.360519,392.138483 203.021667,392.535386 209.514713,390.374235 L210.003249,390.207337 C212.209551,389.434822 217.479047,389.01061 225.000752,388.836526 C228.810539,388.748352 232.833151,388.733015 236.684002,388.765283 L240.794872,388.819866 C241.208994,388.828577 241.537645,389.17135 241.529423,389.585472 C241.520223,389.999594 241.17745,390.328245 240.763328,390.319534 L238.92743,390.289728 L238.574526,390.28515 C234.177471,390.230013 229.459664,390.23373 225.035458,390.336125 L224.049297,390.360808 C217.401434,390.540114 212.631781,390.937818 210.639889,391.575889 L210.499112,391.623007 C203.432865,394.098981 197.223707,393.708467 192.102878,391.55178 C191.186941,391.166025 190.384547,390.751618 189.7003,390.335448 L189.373467,390.130935 C189.127337,389.972155 188.94701,389.843787 188.834149,389.755548 C188.507832,389.500419 188.450124,389.029065 188.705252,388.702749 Z"/><path id="Stroke-55" fill="#1D39C4" fill-rule="nonzero" d="M240.000917,358.726008 C240.275413,358.672856 240.541912,358.829032 240.635519,359.08314 L240.660092,359.171317 L242.287,367.577 L242.604287,368.222636 L243.137369,369.332854 C243.262671,369.596907 243.392278,369.872126 243.525687,370.157728 C244.478489,372.197497 245.431278,374.349519 246.32092,376.516175 C246.941838,378.028373 247.509948,379.495341 248.013602,380.899227 C249.404706,384.776794 250.245299,387.997803 250.390791,390.365747 C250.556228,393.057766 249.879121,397.803277 248.562638,404.069729 L248.444824,404.626584 C248.127538,406.115964 247.779892,407.665203 247.406728,409.260275 C246.750647,412.06467 246.047838,414.876724 245.345025,417.560741 L244.87816,419.323915 L244.487,420.763 L244.622907,420.927786 L244.813511,421.170205 C245.205282,421.679627 245.596319,422.259314 245.961391,422.900244 C248.084345,426.627365 248.430656,430.589412 245.831245,434.29329 C245.557074,434.683953 245.251102,435.068199 244.912702,435.445709 C244.705341,435.677035 244.349716,435.696462 244.118391,435.489102 C243.887065,435.281741 243.867638,434.926116 244.074998,434.694791 C244.383902,434.350187 244.662079,434.000846 244.910392,433.647028 C247.219679,430.356545 246.912588,426.843205 244.983847,423.45705 C244.645739,422.863457 244.283368,422.326266 243.921732,421.856029 L243.675445,421.545787 C243.580075,421.429882 243.504666,421.343759 243.453915,421.289322 C243.320333,421.146036 243.270917,420.943574 243.323466,420.754859 L243.791526,419.032625 C243.937641,418.487217 244.093283,417.899916 244.256717,417.275766 C244.957186,414.6007 245.657658,411.797995 246.311306,409.004004 C246.60853,407.733531 246.88943,406.492551 247.151516,405.288337 L247.344515,404.392183 C248.716589,397.951494 249.429756,393.068352 249.267909,390.434746 C249.130482,388.19807 248.312689,385.064426 246.954685,381.279121 C246.457091,379.892125 245.895025,378.440764 245.280233,376.943487 C244.397902,374.794637 243.452147,372.658502 242.506405,370.633848 L242.121129,369.815432 L241.407068,368.334984 L241.247563,368.012963 L241.198108,367.867683 L239.555608,359.385183 C239.49655,359.080188 239.695922,358.785065 240.000917,358.726008 Z"/><path id="Fill-57" fill="#E4EBF7" d="M247.07625,528.44135 L276.000535,476.597656 C276.000535,476.597656 268.52475,457.20635 247.10475,445.43135 L195.34125,451.38185 C195.34125,451.38185 179.42625,467.40485 182.70225,505.70585 L236.95575,520.33985 L247.07625,528.44135 Z"/><polygon id="Fill-59" fill="#E4EBF7" points="194.375 452.234 248.227 445.516 242.9 437.492 193.934 444.067"/><path id="Stroke-61" fill="#A3B5D6" fill-rule="nonzero" d="M228.334693,446.93338 C228.608361,446.786358 228.949398,446.889025 229.09642,447.162693 C239.747992,466.989592 245.300513,482.686158 246.772245,494.461388 L246.871186,495.310011 C247.613209,502.172188 246.752704,507.335406 245.340491,508.815266 L245.302,508.853 L246.084207,511.703708 L246.813117,514.417171 C247.253055,516.068893 247.718029,517.839209 248.204057,519.718013 L248.413632,520.529828 C250.823111,529.882438 253.232553,539.882054 255.481463,550.121487 C257.72347,560.329488 259.68302,570.228282 261.279913,579.614716 C263.568226,593.06526 265.044589,605.064993 265.562388,615.246225 L266.075953,625.95631 C266.407208,632.668412 266.850621,641.391103 267.392896,651.882194 L269.667265,695.320637 C270.499938,711.081443 271.38548,727.729977 272.276897,744.410198 L273.949586,775.613656 C273.965662,775.912205 273.746782,776.165347 273.459861,776.201882 L273.37191,776.206173 L211.76541,774.454173 C211.454875,774.445342 211.210296,774.186444 211.218676,773.87591 C211.227075,773.596429 211.437577,773.370372 211.705977,773.334393 L211.79739,773.329627 L272.793,775.064 L267.445777,674.521144 C266.42134,654.980459 265.61109,639.264304 265.063587,628.257166 L264.482985,616.218043 C264.01187,605.894378 262.521389,593.619713 260.170849,579.803398 C258.57717,570.435862 256.621035,560.554316 254.382653,550.362821 C252.136838,540.137481 249.730503,530.150756 247.324205,520.810493 L246.704185,518.418558 C246.366349,517.123342 246.039834,515.884927 245.726092,514.706998 L244.698085,510.894525 L244.117018,508.79208 C244.050974,508.557898 244.143301,508.311677 244.33809,508.176947 L244.415829,508.131891 C244.688506,508.001562 245.268961,506.763099 245.622175,504.948297 C246.129847,502.339885 246.188901,498.865176 245.65593,494.600912 C244.203088,482.976818 238.695858,467.408285 228.10538,447.695107 C227.958358,447.421439 228.061025,447.080402 228.334693,446.93338 Z"/><path id="Stroke-63" fill="#A3B5D6" fill-rule="nonzero" d="M247.255442,444.736364 C247.563913,444.699549 247.843822,444.919771 247.880636,445.228242 C247.913769,445.505866 247.738703,445.760355 247.478483,445.835314 L247.388758,445.853436 L194.675758,452.144436 C194.367287,452.181251 194.087378,451.961029 194.050564,451.652558 C194.017431,451.374934 194.192497,451.120445 194.452717,451.045486 L194.542442,451.027364 L247.255442,444.736364 Z"/><path id="Fill-65" fill="#FFC999" d="M256.4886,396.16445 C256.4886,396.16445 240.1371,395.16245 233.3316,389.55995 C227.7696,384.97895 234.7941,380.65145 234.7941,380.65145 C234.7941,380.65145 247.0611,374.23445 255.0231,372.51995 C260.2416,371.39495 269.8416,367.77995 271.1346,370.29545 C272.8206,373.57595 262.4016,375.67145 261.8916,378.30695 C260.8581,383.64545 277.5966,382.07495 280.4481,383.27645 C286.0191,385.62695 276.8016,396.06995 256.4886,396.16445"/><path id="Stroke-67" fill="#DD936F" fill-rule="nonzero" d="M264.354295,385.568897 L264.593458,385.624104 C264.698545,385.647288 264.828565,385.674956 264.982227,385.706219 C265.498369,385.811231 266.088508,385.916431 266.742271,386.014719 C270.658877,386.60355 274.78889,386.678526 278.638899,385.91195 C279.125561,385.815051 279.603339,385.705052 280.071674,385.581601 C280.378882,385.500621 280.69357,385.684016 280.774549,385.991224 C280.855529,386.298432 280.672134,386.61312 280.364926,386.694099 C279.873572,386.823619 279.372934,386.938881 278.863565,387.040301 C274.864128,387.836629 270.608252,387.759369 266.571225,387.152433 C266.032131,387.071385 265.534218,386.985635 265.082705,386.898849 L264.235971,386.723009 C264.171966,386.708419 264.119285,386.695929 264.078305,386.685803 C263.76988,386.609591 263.581634,386.297781 263.657847,385.989355 C263.726438,385.711773 263.985863,385.531535 264.261904,385.553823 L264.354295,385.568897 Z"/><path id="Stroke-69" fill="#DD936F" fill-rule="nonzero" d="M278.085135,389.307558 C278.388473,389.213109 278.710943,389.382447 278.805392,389.685785 C278.899841,389.989123 278.730503,390.311593 278.427165,390.406042 L278.174573,390.478329 C278.065178,390.507859 277.930764,390.542479 277.771864,390.58115 C277.249068,390.708381 276.636929,390.8352 275.93973,390.953295 C272.044336,391.613117 267.369808,391.733655 262.091492,390.976725 C261.777008,390.931627 261.558627,390.640127 261.603725,390.325642 C261.648823,390.011158 261.940323,389.792777 262.254808,389.837875 C267.409697,390.577106 271.965176,390.459637 275.747589,389.818953 C276.417566,389.705469 277.003078,389.584167 277.49981,389.463278 L277.956541,389.345161 C278.010598,389.33004 278.053516,389.317403 278.085135,389.307558 Z"/><path id="Stroke-71" fill="#DD936F" fill-rule="nonzero" d="M259.25067,393.122553 L259.56887,393.179003 L259.92919,393.232577 C260.058201,393.250343 260.196103,393.26795 260.342862,393.285203 L260.569638,393.310792 C263.248077,393.600808 266.759286,393.602454 271.068788,393.121056 C271.384526,393.085786 271.669074,393.31315 271.704344,393.628888 C271.739614,393.944626 271.51225,394.229174 271.196512,394.264444 C266.802574,394.755274 263.207036,394.753589 260.445788,394.454606 L259.981871,394.400088 C259.836118,394.381514 259.699263,394.362603 259.571342,394.343555 L259.386166,394.314903 C259.204062,394.285612 259.07903,394.262263 259.01163,394.247947 C258.700861,394.181938 258.502444,393.876499 258.568453,393.56573 C258.627861,393.286038 258.881208,393.097351 259.157833,393.110531 L259.25067,393.122553 Z"/><path id="Fill-73" fill="#FFC999" d="M239.86185,378.50285 C239.86185,378.50285 172.31985,415.57685 164.56785,422.13185 C145.34385,438.38735 160.62585,456.82835 176.38635,448.89635 C197.35485,438.34535 248.48535,390.27485 248.48535,390.27485 L239.86185,378.50285 Z"/><path id="Fill-75" fill="#FFC999" d="M374.355,373.18985 C374.355,373.18985 363.0285,385.02635 354.357,386.60435 C347.2665,387.89435 348.4995,379.73435 348.4995,379.73435 C348.4995,379.73435 351.5235,366.22535 355.356,359.03735 C357.867,354.32885 361.308,344.66435 364.0635,345.30185 C367.6575,346.13285 362.5275,355.44035 364.209,357.53285 C367.6185,361.76885 377.2305,347.97485 379.989,346.57535 C385.3815,343.83935 387.4005,357.62135 374.355,373.18985"/><path id="Stroke-77" fill="#DD936F" fill-rule="nonzero" d="M381.505427,348.349435 C381.642016,348.062593 381.985274,347.940789 382.272115,348.077377 C382.558957,348.213966 382.680761,348.557224 382.544173,348.844065 C381.468043,351.103983 379.999623,353.284112 378.237499,355.361415 C376.879822,356.96193 375.426429,358.410749 373.972643,359.683558 C373.565161,360.040314 373.180659,360.36281 372.825234,360.649445 L372.331307,361.039485 C372.192571,361.14653 372.087491,361.225092 372.019598,361.274235 C371.762242,361.46052 371.402599,361.402905 371.216315,361.145548 C371.03003,360.888192 371.087645,360.528549 371.345002,360.342265 L371.631494,360.126297 C371.696633,360.076016 371.77017,360.018672 371.851664,359.954387 C372.262276,359.630479 372.720643,359.250564 373.214782,358.817939 C374.628115,357.580547 376.041841,356.17127 377.360141,354.617174 C379.061813,352.611137 380.475595,350.512128 381.505427,348.349435 Z"/><path id="Stroke-79" fill="#DD936F" fill-rule="nonzero" d="M383.067603,352.273385 C383.191378,351.980786 383.528916,351.843928 383.821515,351.967703 C384.114114,352.091478 384.250972,352.429016 384.127197,352.721615 L383.992683,353.016948 L383.809925,353.390495 C383.74274,353.52391 383.669244,353.666112 383.589295,353.816762 C383.13522,354.67239 382.564449,355.630576 381.867983,356.669606 C379.883662,359.629936 377.288844,362.652288 374.011853,365.562144 C373.774291,365.773091 373.410703,365.751516 373.199756,365.513953 C372.988809,365.276391 373.010384,364.912803 373.247947,364.701856 C376.449456,361.859024 378.980701,358.91072 380.912317,356.029019 C381.586429,355.023338 382.137072,354.098942 382.573036,353.277441 L382.749201,352.939188 C382.907445,352.628999 383.012342,352.40402 383.067603,352.273385 Z"/><path id="Stroke-81" fill="#DD936F" fill-rule="nonzero" d="M381.447824,360.093672 C381.624847,359.829859 381.982215,359.759501 382.246028,359.936524 C382.509841,360.113547 382.580199,360.470915 382.403176,360.734728 C380.461832,363.627868 378.575362,365.984071 376.816653,367.845062 C376.198262,368.499415 375.639116,369.045673 375.148325,369.489067 L374.812908,369.785341 C374.685669,369.894761 374.58797,369.974751 374.521509,370.026288 C374.270447,370.220973 373.909097,370.175271 373.714412,369.924209 C373.519727,369.673147 373.565429,369.311797 373.816491,369.117112 L374.069638,368.90716 C374.155635,368.833078 374.258348,368.742617 374.377066,368.635364 C374.845513,368.212156 375.382995,367.687063 375.980472,367.054838 C377.695669,365.239892 379.542231,362.933532 381.447824,360.093672 Z"/><path id="Fill-83" fill="#FFC999" d="M356.7432,369.3131 C356.7432,369.3131 285.5067,398.6711 277.0752,404.3261 C256.1697,418.3496 269.3112,438.3716 285.8547,432.2366 C307.8642,424.0736 364.0077,381.9686 364.0077,381.9686 L356.7432,369.3131 Z"/><path id="Fill-85" fill="#FFC999" d="M181.6401,436.24475 C181.6401,436.24475 182.2116,382.05125 181.3461,371.93525 C179.2566,347.50625 165.2256,343.46075 155.0211,353.02775 C142.7196,364.55975 155.8386,440.55275 155.8386,440.55275 C155.8386,440.55275 158.1951,449.08625 169.4976,449.65925 C182.8596,450.33875 181.6401,436.24475 181.6401,436.24475"/><path id="Fill-87" fill="#597EF7" d="M182.2443,396.87275 C182.0673,391.79525 186.6813,347.51225 165.0393,347.69375 C148.5213,347.83475 147.2643,362.63825 150.9633,399.00875 L182.2443,396.87275 Z"/><path id="Stroke-89" fill="#1D39C4" fill-rule="nonzero" d="M181.733554,375.793696 C182.113139,375.784733 182.433669,376.059212 182.492174,376.423979 L182.50148,376.525554 L182.993704,396.855054 C183.002382,397.222887 182.744369,397.537374 182.392851,397.608297 L182.294794,397.621458 L151.013794,399.757458 C150.600543,399.785676 150.242661,399.473545 150.214442,399.060294 C150.188575,398.681481 150.448696,398.349192 150.810538,398.274706 L150.911606,398.260942 L181.476,396.173 L181.00192,376.561846 C180.992733,376.182261 181.267212,375.861731 181.631979,375.803226 L181.733554,375.793696 Z"/></g></svg>