<?xml version="1.0" encoding="UTF-8"?>
<svg width="512px" height="1024px" viewBox="0 0 512 1024" version="1.1" xmlns="http://www.w3.org/2000/svg" xmlns:xlink="http://www.w3.org/1999/xlink">
    <!-- Generator: Sketch 61.2 (89653) - https://sketch.com -->
    <title>2.人物组件/9.互联网人群/奔跑/打招呼</title>
    <desc>Created with Sketch.</desc>
    <defs>
        <polygon id="path-1" points="1.056 0.801335144 46.4235 0.801335144 46.4235 73.185566 1.056 73.185566"></polygon>
    </defs>
    <g id="2.人物组件/9.互联网人群/奔跑/打招呼" stroke="none" stroke-width="1" fill="none" fill-rule="evenodd">
        <path d="M150.9125,657.6731 C184.397,602.6681 200.1125,550.9856 200.1125,550.9856 C200.1125,550.9856 203.7515,496.9826 166.265,516.8381 C148.1105,526.4546 131.861,566.1731 109.649,634.4486 C109.649,634.4486 96.482,665.1776 119.105,674.7206 C138.041,682.7081 150.9125,657.6731 150.9125,657.6731" id="Fill-1" fill="#FFC999"></path>
        <path d="M172.9334,619.70225 C145.0469,616.84925 121.9349,595.65875 121.9349,595.65875 C128.9774,577.49225 139.5194,542.88425 170.3864,481.82375 C210.7304,474.88775 211.6679,537.60725 211.6679,537.60725 L172.9334,619.70225 Z" id="Fill-3" fill="#597EF7"></path>
        <path d="M129.184367,585.771558 C129.386058,585.535272 129.741107,585.507227 129.977392,585.708917 L130.304413,585.979892 C130.524558,586.159563 130.778197,586.362527 131.06476,586.587233 L131.285847,586.759814 C132.37033,587.602658 133.646388,588.542616 135.105109,589.555438 C139.276492,592.451722 144.071998,595.348897 149.420169,598.053124 C158.100866,602.442395 167.378817,605.885727 177.12073,608.022815 C177.424174,608.089382 177.616202,608.389335 177.549635,608.69278 C177.483068,608.996224 177.183115,609.188252 176.87967,609.121685 C167.03987,606.963123 157.673772,603.487078 148.912532,599.057081 C143.515759,596.328279 138.67597,593.404351 134.46349,590.479532 L133.506996,589.807521 C132.423006,589.036688 131.451123,588.313073 130.595492,587.64809 L129.956644,587.144948 L129.414916,586.705139 C129.339025,586.642355 129.282976,586.595285 129.247008,586.564583 C129.010722,586.362892 128.982677,586.007843 129.184367,585.771558 Z" id="Stroke-5" fill="#1D39C4" fill-rule="nonzero"></path>
        <path d="M211.159632,537.367224 C211.292195,537.086267 211.627419,536.96597 211.908376,537.098532 C212.161237,537.217839 212.283964,537.501301 212.209343,537.761618 L212.177068,537.847276 L173.442568,619.942276 C173.342524,620.154311 173.121458,620.282058 172.887794,620.262861 L172.607475,620.236368 C172.448864,620.22007 172.245328,620.197524 171.998625,620.167868 C171.283127,620.081859 170.454307,619.964826 169.521585,619.812139 C166.86096,619.376594 163.898047,618.742876 160.708204,617.873866 C151.596424,615.391541 142.484648,611.522206 133.977372,605.967082 C129.540013,603.069554 125.379093,599.776186 121.544066,596.062858 C121.320883,595.846757 121.315142,595.490648 121.531242,595.267466 C121.747343,595.044283 122.103452,595.038542 122.326634,595.254642 C126.108993,598.916974 130.213754,602.165891 134.592459,605.02512 C142.994092,610.51126 151.999004,614.335215 161.003911,616.788425 C163.892326,617.575317 166.590849,618.166578 169.041237,618.590446 L169.703329,618.701917 C170.358108,618.809104 170.959986,618.898301 171.505519,618.97118 L172.303707,619.071116 L172.594,619.103 L211.159632,537.367224 Z" id="Stroke-7" fill="#1D39C4" fill-rule="nonzero"></path>
        <path d="M141.65615,706.0511 C128.26115,753.7646 114.44765,785.3546 107.70215,834.3041 C106.88315,840.2411 98.25365,839.5916 90.26615,838.0196 C70.31165,850.4246 36.01715,850.5926 32.28365,843.4211 C30.04265,839.1131 43.97465,825.8306 55.65065,824.4821 C81.74765,821.4686 84.94865,792.1661 84.94865,792.1661 C84.94865,792.1661 93.65615,717.5576 101.34515,660.4961 C101.34515,660.4961 109.05965,619.0046 130.57565,623.3996 C167.82515,631.0106 146.22815,689.7671 141.65615,706.0511" id="Fill-9" fill="#FFC999"></path>
        <path d="M18.0995,841.01525 C18.0995,841.01525 20.381,849.27425 39.7025,851.96825 C59.024,854.66075 69.512,847.98275 79.8275,848.42975 C99.107,849.26675 108.083,846.06125 108.083,846.06125 C108.083,846.06125 108.5015,849.08225 106.169,852.60575 C102.569,858.04175 85.37,852.68975 74.048,855.51425 C65.858,857.55725 59.603,858.40175 46.5065,858.89375 C33.413,859.38725 18.3185,852.68975 17.309,848.11175 C16.2965,843.53375 18.0995,841.01525 18.0995,841.01525" id="Fill-11" fill="#96A7CA"></path>
        <path d="M107.37875,846.6344 C107.37875,846.6344 102.70625,848.2544 87.93125,848.8889 C84.39875,849.0404 80.90525,849.3119 74.63975,850.1969 C65.01125,851.5559 34.07075,858.8729 19.40675,843.9854 C17.38775,840.6104 18.75575,837.3974 20.57225,835.0634 C22.30175,832.8434 24.84725,831.4139 27.63425,831.0284 C36.08075,829.8599 56.25875,827.1119 68.80325,814.5689 C70.27325,813.1004 72.47525,812.6894 74.36975,813.5414 C76.66175,814.5719 79.54475,816.3599 81.28625,819.2699 C82.73525,821.6924 75.99875,828.4799 77.96975,829.2449 C83.38475,831.3494 93.12875,831.6269 99.96425,828.8264 C105.68675,826.4819 109.49675,823.9094 109.49675,823.9094 C109.49675,823.9094 111.45725,839.0114 107.37875,846.6344" id="Fill-13" fill="#4E5C93"></path>
        <path d="M25.6271322,835.605068 C25.907296,835.299977 26.3817396,835.279768 26.6868315,835.559932 L26.8114558,835.667499 C26.9881962,835.813162 27.2749716,836.027628 27.6752049,836.292141 C28.5515628,836.871324 29.6301951,837.453618 30.9187133,837.999294 C35.4129134,839.902547 41.1960363,840.874704 48.3721469,840.400979 C48.7854608,840.373694 49.1426365,840.686633 49.1699211,841.099947 C49.1972057,841.513261 48.8842671,841.870437 48.4709531,841.897721 C41.0614372,842.386854 35.0441115,841.375328 30.3337681,839.380539 C28.959455,838.79853 27.7999716,838.172589 26.848159,837.543538 C26.2658423,837.158686 25.8763774,836.8522 25.6722685,836.664768 C25.3671765,836.384604 25.3469683,835.91016 25.6271322,835.605068 Z" id="Stroke-15" fill="#96A7CA" fill-rule="nonzero"></path>
        <path d="M62.0676328,820.306782 C62.2488473,819.934312 62.6976976,819.779268 63.070168,819.960483 L63.3342781,820.097903 L63.4286898,820.149545 C63.700277,820.299482 64.0014299,820.47789 64.3248533,820.684713 C65.2464372,821.274049 66.1674481,821.975721 67.0292793,822.790499 C68.3574025,824.04611 69.422828,825.456226 70.1254711,827.024195 C70.2948594,827.402191 70.1257501,827.845933 69.7477547,828.015321 C69.3697594,828.184709 68.9260173,828.0156 68.7566289,827.637605 C68.1414208,826.264749 67.1930335,825.009536 65.998792,823.880497 C65.2103795,823.135129 64.3632721,822.489761 63.5167377,821.948417 C63.2951742,821.806732 63.0859477,821.680176 62.8921966,821.568897 L62.4952994,821.350571 C62.4602619,821.332343 62.4329809,821.318585 62.413932,821.309317 C62.0414617,821.128103 61.8864182,820.679252 62.0676328,820.306782 Z" id="Stroke-17" fill="#96A7CA" fill-rule="nonzero"></path>
        <path d="M67.18055,394.2731 C67.18055,394.2731 85.05155,368.7521 104.61455,347.7101 C122.45405,328.5236 140.97755,314.3591 153.60605,325.1261 C169.46255,338.6471 143.22005,364.3196 130.97255,378.2951 C122.15855,388.3526 101.81855,407.6261 90.41855,416.8841 C72.23855,431.6501 53.18555,408.9626 67.18055,394.2731" id="Fill-19" fill="#FFC999"></path>
        <path d="M126.0335,383.9327 C138.281,369.9572 172.814,342.4442 153.791,324.9152 C136.1255,308.6342 120.8915,328.2812 98.312,354.9017 L126.0335,383.9327 Z" id="Fill-21" fill="#E4EBF7"></path>
        <path d="M214.36505,311.67275 C214.36505,311.67275 210.99755,331.85225 188.89055,333.25775 C163.22855,334.89125 158.29055,314.54525 158.29055,314.54525 L164.31455,312.18275 C165.56405,311.69375 166.39055,310.50875 166.40555,309.16775 C166.46105,304.38425 166.52405,292.19375 166.02155,276.15125 C187.60205,267.50975 203.20955,273.15875 203.20955,273.15875 C203.20955,273.15875 204.02705,292.18775 204.87905,306.19925 C204.96005,307.55825 205.86605,308.72675 207.16355,309.13925 C209.40155,309.85025 212.80055,310.96625 214.36505,311.67275" id="Fill-23" fill="#FFC999"></path>
        <path d="M159.31925,260.7239 C159.31925,260.7239 156.24425,229.9229 179.48525,227.7479 C207.55625,225.1184 209.80625,240.9509 211.97225,248.2859 C214.27325,256.0799 218.07725,289.1594 201.50075,297.0449 C194.43425,299.8799 190.04975,301.4864 177.37625,294.9749 C158.93375,285.5024 159.31925,260.7239 159.31925,260.7239" id="Fill-25" fill="#FFC999"></path>
        <path d="M167.2454,283.2869 L166.0934,266.0039 C166.0934,266.0039 152.2799,258.3884 151.1414,267.2684 C149.9789,276.3224 156.4424,282.2624 162.2084,284.1329 C165.9164,285.3359 167.2454,283.2869 167.2454,283.2869" id="Fill-27" fill="#FFC999"></path>
        <path d="M167.45195,223.0409 C167.45195,223.0409 181.52345,212.5844 188.32895,213.5654 C195.13295,214.5464 190.00745,219.9764 190.00745,219.9764 C190.00745,219.9764 208.58495,216.0929 210.45095,220.2419 C212.31545,224.3894 205.64795,226.6439 205.64795,226.6439 C205.64795,226.6439 224.15345,231.0764 225.22895,236.5259 C226.30295,241.9769 217.67045,241.0724 217.67045,241.0724 C217.67045,241.0724 224.47295,248.6759 222.55745,253.4069 C220.64495,258.1379 216.40145,257.7524 216.40145,257.7524 L213.69395,264.0659 L212.17145,251.0264 C212.17145,251.0264 205.49495,248.4179 193.15145,243.0209 C200.78495,250.3079 196.23845,250.4954 190.04195,249.4934 C182.77745,248.3189 174.25445,246.1409 174.67295,245.9144 C174.67295,245.9144 174.80645,254.4314 169.28795,258.5414 C162.51995,263.5784 167.87495,273.1859 166.06445,273.6854 C162.58445,274.6769 162.67295,265.0919 155.85095,263.6894 C150.55745,263.4884 149.44145,257.0549 150.82595,254.8124 C143.82245,254.1209 143.79995,246.9359 152.54195,240.3674 C144.69095,239.6414 149.24045,232.2629 160.72145,228.8204 C156.59195,216.1019 167.45195,223.0409 167.45195,223.0409" id="Fill-29" fill="#253368"></path>
        <path d="M177.392862,256.581866 C180.837286,255.938935 184.355887,255.661715 187.656647,255.959535 C188.130083,256.002253 188.59544,256.056825 189.052215,256.123649 C189.462066,256.183608 189.74571,256.564464 189.685751,256.974315 C189.625792,257.384166 189.244936,257.66781 188.835085,257.607851 C188.406113,257.545094 187.968186,257.493738 187.521853,257.453467 C184.376691,257.169685 180.988369,257.436641 177.668096,258.056398 C176.997953,258.181486 176.372977,258.313647 175.80189,258.447087 L175.066932,258.626802 C174.828271,258.687934 174.65396,258.735744 174.550176,258.766096 C174.152616,258.882367 173.736074,258.654337 173.619804,258.256776 C173.503533,257.859216 173.731563,257.442674 174.129124,257.326404 L174.690217,257.174877 C174.791751,257.14885 174.903648,257.120714 175.02552,257.090736 C175.731629,256.917044 176.526282,256.74362 177.392862,256.581866 Z" id="Stroke-31" fill="#253368" fill-rule="nonzero"></path>
        <path d="M199.737791,255.3429 C202.808499,254.386005 206.242285,254.28048 209.752034,255.578677 C210.140524,255.722373 210.338969,256.153794 210.195273,256.542284 C210.051577,256.930774 209.620156,257.129219 209.231666,256.985523 C206.064678,255.814108 202.961491,255.909473 200.184055,256.774978 C199.731252,256.916081 199.328785,257.06671 198.982474,257.21638 L198.692697,257.347684 C198.645031,257.370592 198.608702,257.388982 198.584081,257.402175 C198.218979,257.597812 197.764411,257.460433 197.568775,257.095331 C197.373138,256.730229 197.510517,256.275661 197.875619,256.080025 L198.123327,255.955697 C198.497009,255.778551 199.042479,255.559573 199.737791,255.3429 Z" id="Stroke-33" fill="#253368" fill-rule="nonzero"></path>
        <path d="M197.184023,257.764537 C197.26182,257.467199 197.565926,257.289226 197.863263,257.367023 C198.130867,257.43704 198.301785,257.690368 198.276579,257.957092 L198.260777,258.046263 L197.317,261.65 L198.716707,274.654871 C198.742777,274.897181 198.608518,275.124279 198.392381,275.221665 L198.307645,275.251881 L193.266145,276.604881 C192.969303,276.684545 192.664084,276.508488 192.584419,276.211645 C192.512721,275.944487 192.648158,275.670544 192.892361,275.560351 L192.977655,275.529919 L197.559,274.299 L196.200093,261.668429 L196.215023,261.468037 L197.184023,257.764537 Z" id="Stroke-35" fill="#DD936F" fill-rule="nonzero"></path>
        <path d="M178.490537,265.229839 C180.65252,264.004837 183.215219,263.895863 185.951663,265.612014 C186.248536,265.798197 186.338268,266.189791 186.152086,266.486663 C185.965903,266.783536 185.574309,266.873268 185.277437,266.687086 C182.965499,265.237163 180.8965,265.325143 179.116122,266.333924 C178.832026,266.494896 178.58202,266.666955 178.369422,266.837701 L178.242795,266.942911 C178.190024,266.988478 178.153213,267.022878 178.133034,267.04336 C177.887096,267.292984 177.485364,267.295972 177.23574,267.050034 C176.986116,266.804096 176.983128,266.402364 177.229066,266.15274 C177.468605,265.909611 177.8945,265.567559 178.490537,265.229839 Z" id="Stroke-37" fill="#253368" fill-rule="nonzero"></path>
        <path d="M202.01157,263.813718 C203.435619,263.108806 204.912239,262.821533 206.328872,263.216665 C207.043275,263.41593 207.708043,263.786217 208.308135,264.337811 C208.566129,264.574954 208.583032,264.976342 208.345889,265.234335 C208.108746,265.492329 207.707358,265.509232 207.449365,265.272089 C206.996554,264.855873 206.509178,264.584396 205.987931,264.439008 C204.924516,264.142396 203.744183,264.372027 202.574536,264.951009 C202.286433,265.093621 202.022727,265.246504 201.790145,265.398713 L201.592895,265.532971 C201.560078,265.556414 201.534811,265.575241 201.517502,265.588743 C201.241198,265.804274 200.842487,265.755007 200.626957,265.478702 C200.411426,265.202398 200.460693,264.803687 200.736998,264.588157 C200.994738,264.387107 201.434135,264.099552 202.01157,263.813718 Z" id="Stroke-39" fill="#253368" fill-rule="nonzero"></path>
        <path d="M185.32895,279.2462 C185.32895,279.2462 193.36295,280.7372 200.91245,279.2912 C200.91245,279.2912 199.05395,283.9727 193.70045,284.1527 C186.93995,284.3777 185.32895,279.2462 185.32895,279.2462" id="Fill-41" fill="#FFFFFF"></path>
        <path d="M185.442474,278.621938 C184.972818,278.53653 184.580599,278.980809 184.723582,279.436251 C184.943585,280.137025 185.477706,281.142803 186.44385,282.143707 C188.127448,283.887875 190.527453,284.893154 193.721555,284.786849 C196.198198,284.703577 198.182002,283.72988 199.701508,282.166901 C200.256485,281.596046 200.709655,280.985393 201.069864,280.373543 L201.238763,280.074383 C201.364004,279.84219 201.450856,279.654596 201.502179,279.525315 C201.686962,279.059854 201.284948,278.57382 200.79309,278.668028 C197.63726,279.272483 194.15937,279.407651 190.607046,279.195037 C189.547283,279.131608 188.537412,279.040053 187.595113,278.929417 L187.037984,278.860818 C186.427676,278.782136 185.942084,278.708359 185.601588,278.65 L185.442474,278.621938 Z M186.540919,280.241474 L186.427,280.059 L186.875725,280.119402 C188.000813,280.26445 189.229299,280.383847 190.531229,280.46177 L191.260112,280.50065 C194.171327,280.636794 197.027355,280.53857 199.716,280.137 L199.563052,280.362494 C199.336447,280.676761 199.079643,280.986068 198.791625,281.282326 C197.489535,282.621669 195.808055,283.446978 193.679128,283.518558 C190.849623,283.612729 188.794805,282.752037 187.356883,281.262382 C187.039971,280.934069 186.76906,280.590113 186.540919,280.241474 Z" id="Stroke-43" fill="#FF7A46" fill-rule="nonzero"></path>
        <path d="M203.56632,295.529947 C203.778371,295.30747 204.130626,295.299018 204.353103,295.51107 C204.57558,295.723121 204.584032,296.075376 204.37198,296.297853 L204.234033,296.435371 C204.071077,296.591387 203.833155,296.801248 203.520806,297.050109 C202.835739,297.59593 202.021291,298.140095 201.078767,298.647083 C195.938124,301.412262 189.422925,301.972439 181.639172,298.966535 C181.352462,298.855814 181.209794,298.533632 181.320515,298.246922 C181.431236,297.960212 181.753418,297.817544 182.040128,297.928265 C189.511569,300.813562 195.689084,300.282419 200.551517,297.666891 C201.433386,297.192529 202.192633,296.685247 202.827252,296.17962 L203.084671,295.969162 C203.317968,295.77308 203.478803,295.621766 203.56632,295.529947 Z" id="Stroke-45" fill="#DD936F" fill-rule="nonzero"></path>
        <path d="M195.013511,287.438191 C195.320835,287.434442 195.573009,287.680538 195.576801,287.987861 C195.580133,288.264452 195.381133,288.496373 195.11726,288.542724 L195.027089,288.551109 L191.215589,288.597609 C190.908265,288.601358 190.656091,288.355262 190.652299,288.047939 C190.648967,287.771348 190.847967,287.539427 191.11184,287.493076 L191.202011,287.484691 L195.013511,287.438191 Z" id="Stroke-47" fill="#DD936F" fill-rule="nonzero"></path>
        <path d="M154.695326,267.441467 C156.230562,266.683866 158.04423,267.221699 159.753964,269.786801 L160.019192,270.189274 C161.269828,272.112699 161.386487,272.723608 160.305242,272.991201 L159.978725,273.063672 C159.806952,273.103519 159.746339,273.127811 159.646446,273.184843 C159.435257,273.305415 159.261854,273.519954 159.121046,273.907715 C158.513943,275.581378 160.368677,276.890227 162.744548,276.79044 C163.051623,276.777543 163.311013,277.016022 163.32391,277.323098 C163.336807,277.630173 163.098328,277.889563 162.791252,277.90246 C159.749866,278.030198 157.115928,276.171481 158.07482,273.528003 C158.303149,272.899226 158.646961,272.473851 159.094613,272.218277 C159.29942,272.101348 159.418737,272.052938 159.665505,271.993726 L159.79,271.964 L159.780133,271.94327 C159.64453,271.673564 159.383012,271.244146 158.959714,270.602885 L158.827836,270.404099 C157.421553,268.294262 156.210217,267.935047 155.187858,268.439556 C155.052752,268.506228 154.963538,268.568682 154.930296,268.598113 C154.70018,268.801848 154.348473,268.780463 154.144737,268.550346 C153.941002,268.32023 153.962387,267.968523 154.192504,267.764787 C154.29533,267.673749 154.464246,267.555499 154.695326,267.441467 Z" id="Stroke-49" fill="#DD936F" fill-rule="nonzero"></path>
        <path d="M167.010906,282.782217 C167.289634,282.65271 167.620575,282.773677 167.750083,283.052406 L167.912083,283.390904 C168.044693,283.663522 168.196704,283.967638 168.365611,284.295302 C168.847972,285.231033 169.368253,286.166496 169.905808,287.037455 C170.57378,288.119718 171.220404,289.022936 171.821197,289.683851 C172.185582,290.084701 172.524896,290.38665 172.829058,290.579196 C173.088744,290.743587 173.165996,291.087371 173.001604,291.347058 C172.837213,291.606744 172.493429,291.683996 172.233742,291.519604 C171.834648,291.266962 171.423888,290.901435 170.99762,290.43251 C170.343402,289.712824 169.659632,288.757719 168.958681,287.622022 C168.40457,286.724239 167.870855,285.764622 167.376319,284.805273 L167.129985,284.320703 L166.740717,283.521394 C166.61121,283.242666 166.732177,282.911725 167.010906,282.782217 Z" id="Stroke-51" fill="#DD936F" fill-rule="nonzero"></path>
        <path d="M155.75675,452.11745 C150.30875,461.59745 157.85375,469.09595 157.85375,469.09595 C182.65625,468.77645 247.19975,456.02945 247.19975,456.02945 C256.49075,448.00595 248.46725,433.64645 248.46725,433.64645 C248.46725,433.64645 253.56275,390.75245 254.38025,354.24545 C254.73125,338.52695 253.79225,314.06495 252.68975,313.70195 C240.30575,309.61895 224.81525,305.25545 206.85725,308.58095 C206.43575,309.77045 201.99125,319.14395 184.74875,320.75045 C165.87575,322.50845 161.12825,314.36045 160.32425,312.92945 C151.37075,316.18145 144.80825,316.49045 134.43425,321.30395 C131.28125,322.76795 129.27575,328.18445 130.22825,331.52795 L130.21175,348.33395 C130.21175,348.33395 134.54075,378.41195 155.75675,452.11745" id="Fill-53" fill="#E4EBF7"></path>
        <path d="M210.693962,316.165144 C211.016113,315.904776 211.488338,315.954861 211.748706,316.277012 C212.009074,316.599163 211.958989,317.071388 211.636838,317.331756 C210.179065,318.509954 208.691807,319.59194 207.176872,320.580182 C194.3156,328.970015 180.669262,330.210645 168.292114,327.303208 C167.035119,327.007936 165.912945,326.691158 164.939639,326.373713 L164.457949,326.212198 L163.843155,325.990068 C163.789186,325.969467 163.747396,325.953056 163.718003,325.941159 C163.334049,325.785748 163.14878,325.348506 163.304191,324.964553 C163.459602,324.580599 163.896844,324.39533 164.280797,324.550741 L164.461547,324.620195 L164.558007,324.655889 C164.796865,324.743518 165.07971,324.841632 165.404752,324.947645 C166.338822,325.252293 167.42039,325.557608 168.635133,325.842955 C180.64644,328.664454 193.88335,327.461047 206.35733,319.323857 C207.829628,318.363429 209.275723,317.311389 210.693962,316.165144 Z" id="Stroke-55" fill="#96A7CA" fill-rule="nonzero"></path>
        <path d="M207.789598,308.366359 C208.064852,308.05683 208.538913,308.029044 208.848441,308.304298 C209.15797,308.579552 209.185756,309.053613 208.910502,309.363141 C204.536301,314.282022 199.528799,317.642107 194.013531,319.60019 C185.103927,322.763362 175.60763,322.134378 166.534767,319.182321 C164.861812,318.637987 163.344481,318.05446 162.009515,317.470193 L161.473873,317.231108 C161.304388,317.1539 161.144037,317.079279 160.993035,317.007555 L160.77357,316.902178 C160.558515,316.79776 160.409331,316.72201 160.32938,316.679721 C159.963231,316.486051 159.823409,316.032229 160.017079,315.66608 C160.210749,315.299931 160.664571,315.160109 161.03072,315.353779 L161.428737,315.552824 C161.765278,315.716228 162.160485,315.898895 162.610933,316.09604 C163.902523,316.661323 165.374337,317.227346 166.998877,317.755926 C175.78487,320.614644 184.960891,321.222414 193.511677,318.186633 C198.789525,316.312841 203.583874,313.095785 207.789598,308.366359 Z" id="Stroke-57" fill="#96A7CA" fill-rule="nonzero"></path>
        <path d="M132.623084,362.797691 C133.031752,362.730138 133.417806,363.006666 133.485359,363.415334 L133.711571,364.685718 L134.007087,366.248693 C134.08912,366.673066 134.177346,367.122721 134.271937,367.597788 L134.46966,368.581847 C135.354685,372.94887 136.529183,378.276827 138.030577,384.594299 L138.687537,387.335309 C142.932204,404.899698 148.775795,426.356156 156.474992,451.900715 C156.519387,452.04801 156.517413,452.205394 156.469337,452.351528 C153.782032,460.520107 154.766131,464.958374 157.8924,466.832032 C158.891793,467.430995 159.910119,467.658213 160.643183,467.681122 L160.789,467.682 L167.743264,467.010941 C169.316675,466.860529 170.978326,466.702548 172.717711,466.538164 C180.310274,465.820612 188.08906,465.103059 195.754415,464.418713 L203.653515,463.722086 L208.511112,463.303148 C223.693817,462.006245 235.98264,461.077228 244.345915,460.630717 C244.759539,460.608633 245.11275,460.92604 245.135919,461.339665 C245.156917,461.753289 244.83951,462.1065 244.425885,462.128583 L242.431151,462.239894 C234.176783,462.718983 222.639966,463.601727 208.638777,464.797705 L202.133809,465.360444 L200.469156,465.506578 C192.864078,466.176055 185.085365,466.885398 177.432826,467.601385 L165.594242,468.723848 L160.823587,469.183676 C159.830797,469.193648 158.474044,468.929393 157.121293,468.118653 C153.370244,465.870547 152.197551,460.822204 154.90581,452.31121 L154.971,452.109 L153.443576,447.010519 C146.387639,423.327852 140.981498,403.301346 137.006959,386.764232 L136.185955,383.311318 C134.98928,378.221205 134.013622,373.804515 133.237892,370.045126 L132.999546,368.879781 C132.722906,367.514745 132.49241,366.331007 132.304774,365.326057 L132.090982,364.154028 L132.005441,363.659966 C131.937888,363.251298 132.214416,362.865244 132.623084,362.797691 Z" id="Stroke-59" fill="#96A7CA" fill-rule="nonzero"></path>
        <path d="M349.0004,444.03815 C349.0004,444.03815 342.4904,374.91965 331.2224,351.67715 C324.9224,338.67815 303.2984,338.88215 300.5969,355.57715 C298.3814,369.27815 329.1599,448.16015 329.1599,448.16015 C329.1599,448.16015 330.6974,456.09965 341.1014,454.31315 C351.8999,452.45915 349.0004,444.03815 349.0004,444.03815" id="Fill-61" fill="#FFC999"></path>
        <path d="M321.0365,343.36085 C321.0365,343.36085 293.6525,328.50185 266.7545,318.40535 C242.225,309.19835 219.326,304.79435 212.8325,320.06585 C204.6815,339.24185 239.6225,350.50085 256.82,357.54035 C269.1965,362.60585 296.003,370.77035 310.334,373.96685 C333.194,379.06385 340.118,350.25785 321.0365,343.36085" id="Fill-63" fill="#FFC999"></path>
        <path d="M273.80705,363.53765 C243.39905,356.78015 205.75055,344.91215 212.57255,319.95965 C218.90255,296.80865 253.54355,310.94015 285.63305,324.68315 L273.80705,363.53765 Z" id="Fill-65" fill="#E4EBF7"></path>
        <path d="M353.5457,463.96955 C353.5457,463.96955 352.1447,444.58655 342.9512,441.23255 C334.6247,438.19505 328.9697,447.48305 328.9697,447.48305 C328.9697,447.48305 325.4462,455.20655 324.0992,464.46905 C323.2172,470.54105 319.6772,481.85255 322.9217,483.09905 C327.1517,484.72505 328.7282,472.61705 331.9442,471.79205 C338.4587,470.11805 338.1527,489.40655 339.9212,492.55655 C343.3802,498.71255 355.4192,487.20755 353.5457,463.96955" id="Fill-67" fill="#FFC999"></path>
        <path d="M341.686779,473.236647 C341.95994,473.13819 342.261197,473.279817 342.359653,473.552979 L342.453954,473.828564 C342.508795,473.993612 342.568213,474.17905 342.631344,474.383909 L342.695681,474.595207 C342.944482,475.421997 343.192998,476.356926 343.424826,477.381706 C344.480607,482.048727 344.84288,486.863623 344.096843,491.376447 C344.054899,491.630165 344.00947,491.882114 343.960508,492.132245 C343.90473,492.417201 343.628511,492.602986 343.343555,492.547208 C343.058599,492.49143 342.872814,492.215211 342.928592,491.930255 C342.975557,491.690319 343.019154,491.448532 343.059423,491.204946 C343.780134,486.845326 343.42756,482.159338 342.399241,477.613715 C342.210718,476.78036 342.011063,476.008564 341.809718,475.30911 L341.688783,474.898206 C341.544349,474.418237 341.432789,474.082485 341.370447,473.909521 C341.27199,473.63636 341.413617,473.335103 341.686779,473.236647 Z" id="Stroke-69" fill="#DD936F" fill-rule="nonzero"></path>
        <path d="M346.843585,470.489882 C347.125675,470.421059 347.410145,470.593946 347.478968,470.876035 C349.080351,477.439749 349.287895,483.18879 348.679745,487.789457 C348.613591,488.28991 348.542533,488.728167 348.471218,489.10156 L348.372774,489.570058 C348.303513,489.85204 348.018774,490.024485 347.736792,489.955224 C347.45481,489.885963 347.282365,489.601224 347.351626,489.319242 L347.395308,489.121501 C347.407955,489.060398 347.422413,488.98794 347.438387,488.9043 L347.519323,488.448817 C347.559557,488.205756 347.599219,487.939844 347.637313,487.651661 C348.229132,483.174536 348.026287,477.555657 346.457432,471.125265 C346.388609,470.843175 346.561496,470.558705 346.843585,470.489882 Z" id="Stroke-71" fill="#DD936F" fill-rule="nonzero"></path>
        <path d="M350.572492,466.718714 C350.848958,466.629958 351.145029,466.782126 351.233786,467.058592 L351.303016,467.293338 C351.340064,467.426736 351.385037,467.598848 351.436137,467.809506 C351.583281,468.416103 351.72995,469.138961 351.866521,469.977176 C352.356575,472.984924 352.594448,476.651102 352.443629,480.96268 C352.433478,481.252866 352.190007,481.479879 351.89982,481.469729 C351.609634,481.459578 351.382621,481.216107 351.392771,480.92592 C351.541162,476.683764 351.307761,473.086512 350.828706,470.146267 C350.715361,469.450606 350.59533,468.839451 350.474642,468.313346 L350.347836,467.791595 C350.296852,467.594146 350.257282,467.456844 350.232614,467.380008 C350.143858,467.103542 350.296026,466.807471 350.572492,466.718714 Z" id="Stroke-73" fill="#DD936F" fill-rule="nonzero"></path>
        <path d="M35.35535,308.0069 C35.35535,308.0069 48.94535,386.8454 62.92085,412.6289 C70.73585,427.0469 93.12035,425.0789 94.26485,405.6944 C95.20535,389.7854 55.50485,301.6844 55.50485,301.6844 C55.50485,301.6844 53.12585,292.6934 42.52085,295.5779 C31.51685,298.5704 35.35535,308.0069 35.35535,308.0069" id="Fill-75" fill="#FFC999"></path>
        <path d="M31.5731,280.91465 C31.5731,280.91465 29.1146,300.48215 36.6626,307.61915 C45.8231,316.28165 53.8391,306.93065 53.8391,306.93065 C53.8391,306.93065 59.7461,302.77415 61.1876,290.33165 C61.9181,284.01965 69.6296,273.95765 66.5471,271.84415 C62.5316,269.08865 58.2086,280.89065 54.6971,280.87565 C47.5811,280.84715 51.5666,261.20765 50.4356,257.56415 C48.2261,250.43915 34.1366,256.32065 31.5731,280.91465" id="Fill-77" fill="#FFC999"></path>
        <path d="M44.4389102,255.222316 C46.2552245,254.862758 47.2802483,255.733947 47.5482086,257.275811 C47.639272,257.799797 47.6362412,258.346006 47.5776059,258.861567 L47.5513642,259.06202 C47.5464586,259.093909 47.5425115,259.115836 47.5402053,259.124751 L47.3669358,260.749755 C46.5103567,269.040655 46.4111107,274.281886 47.1187446,276.892096 C47.1936366,277.168346 47.0304038,277.453003 46.7541539,277.527895 C46.477904,277.602787 46.1932474,277.439554 46.1183554,277.163304 C45.3184096,274.212588 45.4807802,268.386414 46.5157724,258.972182 L46.5384397,258.821434 L46.547745,258.744439 C46.5961577,258.318763 46.5986722,257.865603 46.5270154,257.453284 C46.3514526,256.443082 45.8334935,256.002858 44.6401898,256.239084 C44.3594169,256.294666 44.0867475,256.112113 44.0311656,255.83134 C43.9755838,255.550567 44.1581372,255.277897 44.4389102,255.222316 Z" id="Stroke-79" fill="#DD936F" fill-rule="nonzero"></path>
        <path d="M40.2146514,257.829702 C42.2135954,256.931818 43.3939894,257.667563 43.6750671,259.314213 C43.7529097,259.770242 43.7555648,260.244055 43.7144002,260.687451 C43.7045993,260.793019 43.6944997,260.872526 43.6733888,260.982548 L43.5718248,261.370234 C43.539349,261.501156 43.5019432,261.657198 43.4604701,261.837503 C43.2981138,262.543349 43.1354986,263.359615 42.9835702,264.275408 C42.1815914,269.109567 41.9933502,274.514266 42.7999438,280.107479 C42.840797,280.39077 42.6442623,280.653541 42.3609713,280.694394 C42.0776803,280.735247 41.8149094,280.538712 41.7740562,280.255421 C40.95089,274.547288 41.1427677,269.038181 41.9610458,264.105773 C42.0906285,263.324676 42.2280393,262.613152 42.3669046,261.977439 L42.5215251,261.302297 C42.5878486,261.02659 42.6384521,260.835777 42.6629195,260.760721 L42.6823384,260.591635 C42.7158394,260.230786 42.7136606,259.841965 42.6533453,259.488618 C42.4808742,258.478222 41.9865094,258.170082 40.6393486,258.775198 C40.3782569,258.892475 40.0715284,258.77589 39.9542515,258.514799 C39.8369746,258.253707 39.9535596,257.946978 40.2146514,257.829702 Z" id="Stroke-81" fill="#DD936F" fill-rule="nonzero"></path>
        <path d="M37.0708237,262.552888 C38.9990998,262.332966 39.655348,263.839049 39.434632,266.176225 C39.3779976,266.775931 39.2662781,267.411085 39.1157022,268.056251 C39.0637783,268.278727 39.0093968,268.493044 38.9541601,268.696459 L38.7906944,269.257463 C38.781882,269.284065 38.7758824,269.300161 38.7735028,269.303093 C37.7695932,274.392566 37.6078365,278.919582 37.9515624,282.618729 L37.9992352,283.09651 C38.0256459,283.343981 38.053147,283.572583 38.0810488,283.781771 L38.171,284.382 L38.2936667,284.509922 C38.4817551,284.707388 38.6906769,284.937104 38.9152345,285.197025 C39.5552385,285.937816 40.1947456,286.774382 40.7920775,287.690772 C43.3931216,291.681135 44.3863377,295.810846 42.7881284,299.703078 C42.5269119,300.339237 42.1970312,300.961137 41.796457,301.56747 C41.6386858,301.806282 41.3171919,301.871978 41.0783801,301.714207 C40.8395684,301.556436 40.7738719,301.234942 40.931643,300.99613 C41.2953881,300.445544 41.5937317,299.883099 41.829312,299.309373 C43.2724811,295.794722 42.3575621,291.990564 39.9237581,288.25677 C39.3534604,287.381854 38.7419356,286.581893 38.1309079,285.874641 L37.823336,285.526739 L37.4103608,285.087344 L37.3283777,285.005454 C37.2525493,284.931965 37.2009792,284.837066 37.180571,284.733461 L37.1299063,284.441277 L37.0538597,283.920389 C37.0246816,283.701744 36.9960261,283.463602 36.9685879,283.206503 C36.5541912,279.323552 36.6876511,274.521691 37.7729995,269.040106 L37.8754644,268.704078 C37.9540987,268.433224 38.0328546,268.135483 38.1063286,267.820672 C38.247046,267.217747 38.3509458,266.62705 38.4027233,266.078775 C38.5703701,264.303551 38.205715,263.466672 37.1882763,263.582712 C36.9038983,263.615146 36.6470717,263.410904 36.6146381,263.126526 C36.5822045,262.842148 36.7864457,262.585322 37.0708237,262.552888 Z" id="Stroke-83" fill="#DD936F" fill-rule="nonzero"></path>
        <path d="M54.1744616,280.812313 C54.4400755,280.705674 54.7418467,280.834548 54.8484865,281.100162 C54.9551263,281.365775 54.8262523,281.667547 54.5606384,281.774187 L54.2613822,281.905443 C54.0143606,282.018786 53.7381521,282.15527 53.4401507,282.314794 C52.5876983,282.771122 51.7351424,283.318782 50.9416761,283.955911 C48.5028781,285.914189 47.1568369,288.254754 47.4164677,290.982138 C47.4435917,291.267071 47.2345958,291.520044 46.9496623,291.547168 C46.6647288,291.574292 46.4117563,291.365296 46.3846323,291.080362 C46.0865555,287.949108 47.6080932,285.303381 50.2927179,283.147712 C51.140031,282.467346 52.0454531,281.885726 52.9509787,281.400987 C53.1889468,281.2736 53.414452,281.15972 53.624433,281.059305 L54.0014638,280.885811 C54.0765806,280.852744 54.1347701,280.828249 54.1744616,280.812313 Z" id="Stroke-85" fill="#DD936F" fill-rule="nonzero"></path>
        <path d="M48.6610077,275.941778 C48.9225821,275.825581 49.2288259,275.943433 49.3450224,276.205008 C49.4612188,276.466582 49.3433667,276.772826 49.0817923,276.889022 L48.7130307,277.060826 L48.5753435,277.127154 C48.1664724,277.325362 47.7102457,277.55791 47.2185977,277.822827 C45.8138435,278.579755 44.4092644,279.442902 43.1008008,280.395543 C41.1986378,281.780432 39.6675605,283.234544 38.6425428,284.726383 C38.4804567,284.962287 38.1578217,285.022129 37.9219173,284.860043 C37.6860128,284.697957 37.6261712,284.375322 37.7882572,284.139417 C38.8891508,282.537147 40.5013544,281.005987 42.4907293,279.557602 C43.8403561,278.574992 45.2837308,277.688004 46.7269304,276.91036 L47.3151651,276.599669 C47.4100903,276.550561 47.5033957,276.502801 47.5949867,276.456402 L48.3535326,276.08399 C48.4906473,276.018996 48.5943065,275.971408 48.6610077,275.941778 Z" id="Stroke-87" fill="#DD936F" fill-rule="nonzero"></path>
        <path d="M270.413,519.7025 L220.3055,554.4335 C220.3055,554.4335 209.1905,555.2795 196.8095,556.2875 C181.175,557.5595 161.816,537.8975 149.639,528.2495 C153.863,499.109 158.57,477.881 158.57,477.881 L249.734,467.8565 C249.734,467.8565 260.87,476.4605 270.413,519.7025" id="Fill-89" fill="#597EF7"></path>
        <path d="M157.784,478.78055 L157.889,467.76755 L247.622,456.03005 L250.7585,470.26355 C250.7585,470.26355 167.0555,478.15655 157.784,478.78055" id="Fill-91" fill="#597EF7"></path>
        <path d="M193.926051,464.778156 C194.234747,464.74328 194.513268,464.965255 194.548144,465.273951 L195.052319,469.593875 L195.593963,474.088301 C195.822818,475.962254 196.066065,477.924212 196.32282,479.961892 L196.452318,480.986985 C197.845515,491.98707 199.350999,502.987015 200.922686,513.347257 L201.260472,515.557285 C203.75206,531.736353 206.18233,544.784891 208.467065,553.563421 C208.545312,553.864066 208.365023,554.171218 208.064379,554.249465 C207.763734,554.327712 207.456582,554.147423 207.378335,553.846779 L207.122574,552.848817 C204.901084,544.049045 202.553079,531.342074 200.14858,515.728517 C198.566078,505.452575 197.046827,494.492582 195.636714,483.487118 L194.954239,478.089052 C194.623795,475.439328 194.3179,472.931553 194.038647,470.594831 L193.60695,466.935672 L193.430256,465.400249 C193.39538,465.091553 193.617355,464.813032 193.926051,464.778156 Z" id="Stroke-93" fill="#1D39C4" fill-rule="nonzero"></path>
        <path d="M208.697487,474.790897 C208.974597,474.753711 209.231617,474.925039 209.310371,475.184136 L209.339309,475.344475 L210.29676,482.595151 C210.901069,487.219113 211.50538,491.923546 212.081729,496.516829 L212.696034,501.45837 L213.35918,506.918497 C214.441088,515.95867 215.164964,522.747256 215.420532,526.532645 C215.689701,530.533865 213.608436,533.676602 210.021068,536.032923 C208.856414,536.797913 207.612185,537.423889 206.368126,537.922277 C205.932512,538.09679 205.527468,538.243089 205.162988,538.362423 L204.832583,538.466493 C204.774714,538.483829 204.727536,538.497342 204.69169,538.507111 C204.391959,538.588788 204.082766,538.41202 204.001089,538.11229 C203.919412,537.812559 204.09618,537.503366 204.39591,537.421689 L204.698622,537.330232 L204.81294,537.293268 C205.155085,537.181248 205.537423,537.043149 205.949759,536.877962 C207.128413,536.405776 208.306898,535.812876 209.403443,535.092623 C212.684082,532.937773 214.535776,530.141691 214.298078,526.608291 L214.196225,525.243938 C213.847429,520.920437 213.062335,513.795821 211.945166,504.5881 L211.307538,499.396596 C210.856518,495.765412 210.384009,492.038424 209.904337,488.313809 L208.643531,478.648927 L208.214797,475.423213 C208.173479,475.115313 208.389587,474.832215 208.697487,474.790897 Z" id="Stroke-95" fill="#1D39C4" fill-rule="nonzero"></path>
        <path d="M249.633609,467.30235 C249.939327,467.247154 250.231905,467.450242 250.2871,467.755959 C250.342296,468.061677 250.139208,468.354255 249.833491,468.40945 L247.842117,468.764532 C241.947579,469.803101 234.831551,470.951726 226.660696,472.192572 L222.704011,472.788345 C219.572362,473.256025 216.315839,473.733563 212.94602,474.219714 L208.482918,474.85929 C198.734438,476.247167 188.499375,477.646391 178.229601,479.008404 L169.944658,480.098079 L159.001299,481.505996 C158.693071,481.544794 158.411751,481.326377 158.372954,481.018149 C158.334156,480.709921 158.552573,480.428601 158.860801,480.389804 L166.112457,479.461304 C169.093363,479.075808 172.3092,478.655891 175.712015,478.206707 L180.44994,477.578337 C190.7083,476.21134 200.897047,474.810902 210.564014,473.425629 L217.052263,472.486384 C219.38704,472.144768 221.661454,471.807825 223.871276,471.476011 L229.274819,470.654964 C237.191466,469.436959 244.033743,468.313375 249.633609,467.30235 Z" id="Stroke-97" fill="#1D39C4" fill-rule="nonzero"></path>
        <path d="M245.183862,472.462531 C245.430743,472.27396 245.783748,472.32123 245.972319,472.568112 L246.117293,472.764595 C246.160234,472.824021 246.210226,472.893987 246.267073,472.974554 L246.565536,473.405646 C246.670765,473.560291 246.78167,473.725902 246.898054,473.902542 L247.076715,474.17578 C247.943604,475.51143 248.908174,477.135002 249.945857,479.054117 C252.904986,484.526801 255.861884,491.273211 258.620067,499.354204 C261.05421,506.485815 263.219107,514.342267 265.044549,522.945295 C265.109032,523.249189 264.91495,523.547817 264.611055,523.612299 C264.307161,523.676782 264.008533,523.4827 263.944051,523.178805 C262.127929,514.619707 259.974984,506.806629 257.555376,499.717601 C254.8175,491.696105 251.885762,485.007099 248.956257,479.589202 C247.932917,477.696613 246.98368,476.098851 246.133052,474.788255 L245.793576,474.272904 C245.73977,474.192506 245.687366,474.114849 245.63639,474.039927 L245.208011,473.427038 C245.148614,473.34478 245.10515,473.286166 245.078281,473.250988 C244.88971,473.004107 244.93698,472.651102 245.183862,472.462531 Z" id="Stroke-99" fill="#1D39C4" fill-rule="nonzero"></path>
        <path d="M164.882713,480.386793 C165.192604,480.408643 165.426107,480.677572 165.404257,480.987463 L165.38167,481.26794 C165.362336,481.492777 165.337726,481.753121 165.307357,482.046026 L165.211016,482.911952 C165.140195,483.509136 165.055995,484.144956 164.957268,484.812445 C164.53395,487.674468 163.933259,490.537245 163.122972,493.214043 C161.268924,499.33892 158.608857,503.593226 154.92286,505.119603 C154.635836,505.23846 154.306804,505.102134 154.187947,504.81511 C154.06909,504.528086 154.205416,504.199054 154.49244,504.080197 C157.77999,502.718818 160.281382,498.718285 162.046223,492.888103 C162.838814,490.269764 163.428554,487.459178 163.844375,484.647839 C163.965715,483.827469 164.064691,483.056113 164.143485,482.347521 L164.260122,481.182865 C164.26996,481.068941 164.277201,480.977015 164.282043,480.908337 C164.303893,480.598446 164.572822,480.364943 164.882713,480.386793 Z" id="Stroke-101" fill="#1D39C4" fill-rule="nonzero"></path>
        <path d="M203.6834,468.91775 C203.7569,470.00375 202.6829,470.96075 201.2864,471.05525 C199.8914,471.14825 198.7004,470.34425 198.6269,469.25825 C198.5534,468.17225 199.6259,467.21525 201.0224,467.12225 C202.4189,467.02775 203.6099,467.83175 203.6834,468.91775" id="Fill-103" fill="#1D39C4"></path>
        <path d="M313.6508,611.63825 C291.2723,558.63125 284.1728,541.13375 259.9088,501.34175 C259.9088,501.34175 216.8498,480.16175 221.9453,537.50525 C222.8693,547.89425 237.5168,578.89625 264.6833,631.09025 C264.6833,631.09025 276.9113,659.67425 302.0843,649.79375 C325.6853,640.53125 313.6508,611.63825 313.6508,611.63825" id="Fill-105" fill="#FFC999"></path>
        <path d="M262.28885,494.24135 C262.28885,494.24135 218.67485,473.66285 213.95585,540.99485 C231.41135,571.78835 252.17285,612.00185 252.17285,612.00185 C252.17285,612.00185 283.14485,609.01085 305.69585,586.67735 C269.99885,508.91135 262.28885,494.24135 262.28885,494.24135" id="Fill-107" fill="#597EF7"></path>
        <path d="M256.238762,492.270701 C256.516422,492.131366 256.854464,492.243501 256.993799,492.521162 L257.752022,494.042909 C261.540039,501.695606 267.105905,513.640683 274.032388,528.896586 L277.132577,535.744554 L280.602163,543.449903 C283.890885,550.772142 287.273437,558.353589 290.665001,565.994842 L296.654302,579.528887 L300.92025,589.222674 C301.044943,589.507211 300.915363,589.838958 300.630826,589.96365 C300.346289,590.088343 300.014542,589.958763 299.88985,589.674226 L295.222096,579.069948 L290.654262,568.744919 C286.244816,558.800197 281.836305,548.922924 277.615148,539.551349 L272.609157,528.483502 C265.636281,513.137746 260.073224,501.221682 256.360248,493.769641 L255.988301,493.025738 C255.848966,492.748078 255.961101,492.410036 256.238762,492.270701 Z" id="Stroke-109" fill="#1D39C4" fill-rule="nonzero"></path>
        <path d="M297.310321,576.609322 C297.49375,576.358596 297.845702,576.304041 298.096428,576.487471 C298.347154,576.6709 298.401709,577.022852 298.218279,577.273578 C293.650026,583.517838 286.534293,588.677979 277.566354,592.867298 C271.8744,595.52626 265.780736,597.635438 259.687673,599.252829 C257.555348,599.81885 255.574947,600.283092 253.796869,600.652613 L252.751788,600.863147 L251.550658,601.083981 C251.244123,601.134437 250.954724,600.926844 250.904269,600.620308 C250.853813,600.313773 251.061406,600.024374 251.367942,599.973919 L251.938139,599.87253 L252.863932,599.694478 C253.087233,599.650013 253.322045,599.602254 253.567962,599.551148 C255.326659,599.185654 257.287235,598.72606 259.39904,598.165486 C265.432062,596.564032 271.464483,594.476052 277.090208,591.848028 C285.901327,587.731968 292.870379,582.678195 297.310321,576.609322 Z" id="Stroke-111" fill="#1D39C4" fill-rule="nonzero"></path>
        <path d="M220.82507,553.144654 C221.016829,553.128221 221.20122,553.210887 221.316875,553.359422 L221.368691,553.439025 L252.479,611.387 L253.66175,611.19234 C253.875189,611.155405 254.098115,611.116011 254.330252,611.074115 L254.68533,611.009386 C256.755602,610.628319 259.063372,610.1418 261.549077,609.540193 C268.650265,607.821513 275.750794,605.526823 282.373205,602.580587 C292.1404,598.235272 299.998564,592.84886 305.25867,586.323579 C305.453638,586.081717 305.807758,586.043702 306.049621,586.23867 C306.291483,586.433638 306.329498,586.787758 306.13453,587.029621 C300.746748,593.713287 292.747145,599.196648 282.830492,603.608455 C276.139889,606.58503 268.976473,608.900043 261.813716,610.633623 C259.58556,611.172897 257.49857,611.620598 255.594397,611.983621 L254.888983,612.1158 C254.400799,612.205658 253.948964,612.285359 253.535675,612.355264 L252.250415,612.559622 C252.046225,612.58833 251.845315,612.503005 251.723602,612.342133 L251.676509,612.268675 L220.552,554.297 L201.21263,555.954546 C200.934057,555.978419 200.685536,555.794979 200.61928,555.532408 L200.604154,555.44213 C200.580281,555.163557 200.763721,554.915036 201.026292,554.84878 L201.11657,554.833654 L220.82507,553.144654 Z" id="Stroke-113" fill="#1D39C4" fill-rule="nonzero"></path>
        <path d="M326.41685,589.2518 C368.95235,577.1318 399.42785,572.8688 439.79585,555.1178 C444.69335,552.9638 448.23185,559.8278 450.76985,566.6363 C469.52885,576.0083 485.68835,602.0033 481.98035,608.1938 C479.75435,611.9123 463.14035,607.5278 456.65885,599.2823 C442.16885,580.8503 418.39385,592.1123 418.39385,592.1123 C418.39385,592.1123 344.01185,630.7463 297.03635,651.5738 C297.03635,651.5738 272.44085,658.8008 268.75835,636.3098 C263.27585,602.8238 311.89835,593.3873 326.41685,589.2518" id="Fill-115" fill="#FFC999"></path>
        <g id="分组" transform="translate(447.500000, 546.920000)">
            <mask id="mask-2" fill="white">
                <use xlink:href="#path-1"></use>
            </mask>
            <g id="Clip-118"></g>
            <path d="M39.282,73.1829 C39.282,73.1829 44.4945,67.5864 37.509,51.6384 C30.5265,35.6904 20.5455,30.8379 16.0635,22.7859 C7.689,7.7379 1.056,2.4114 1.056,2.4114 C1.056,2.4114 3.1575,0.6819 6.927,0.8079 C12.7425,1.0029 16.713,16.5819 24.153,23.8704 C29.535,29.1414 33.099,33.5019 39.5955,43.2279 C46.0905,52.9539 48.0555,67.5579 45.0465,70.4664 C42.039,73.3764 39.282,73.1829 39.282,73.1829" id="Fill-117" fill="#96A7CA" mask="url(#mask-2)"></path>
        </g>
        <path d="M449.3216,549.5984 C449.3216,549.5984 452.7356,552.3944 460.1261,563.3309 C461.8931,565.9454 463.7306,568.4744 467.3321,572.8244 C472.8656,579.5099 492.8936,599.6129 488.4281,617.7209 C486.8066,620.8334 483.7241,621.2954 481.1006,621.0044 C478.6031,620.7269 476.3276,619.4609 474.7301,617.5214 C469.8956,611.6459 458.3741,597.5909 442.9736,593.9144 C441.1691,593.4854 439.8281,592.0034 439.5911,590.1644 C439.3016,587.9399 439.3136,584.9114 440.7131,582.2279 C441.8771,579.9929 450.1871,581.9414 449.8481,580.0874 C448.9151,574.9859 444.5726,567.4469 439.2491,563.5604 C434.7896,560.3054 431.0546,558.6104 431.0546,558.6104 C431.0546,558.6104 441.6191,550.0619 449.3216,549.5984" id="Fill-119" fill="#4E5C93"></path>
        <path d="M472.321933,596.441751 C472.623231,596.227897 473.040845,596.298784 473.254699,596.600083 C476.418473,601.057514 478.378874,605.308711 479.357491,609.263041 C480.029057,611.976661 480.167597,614.214871 479.998954,615.88792 L479.957211,616.233102 C479.948408,616.293097 479.940151,616.341861 479.932904,616.379217 C479.862534,616.741932 479.511448,616.978924 479.148733,616.908554 C478.818992,616.844581 478.593154,616.548612 478.607688,616.222815 L478.656242,615.860907 L478.6677,615.75373 C478.821356,614.229359 478.692335,612.144929 478.058673,609.584472 C477.120553,605.793777 475.230935,601.696075 472.163601,597.374517 C471.949747,597.073219 472.020634,596.655605 472.321933,596.441751 Z" id="Stroke-121" fill="#96A7CA" fill-rule="nonzero"></path>
        <path d="M451.826727,587.088997 C452.034968,586.783792 452.451198,586.705187 452.756403,586.913427 C453.061608,587.121668 453.140213,587.537898 452.931973,587.843103 C452.516484,588.452058 452.173365,589.124314 451.8977,589.850174 C451.226081,591.618628 451.008426,593.477501 451.055251,595.065102 L451.077912,595.541043 C451.080559,595.578238 451.08288,595.605793 451.084604,595.623223 C451.120959,595.990908 450.852363,596.318448 450.484677,596.354804 C450.116992,596.391159 449.789452,596.122563 449.753096,595.754877 L449.738586,595.565452 L449.733215,595.473253 C449.634404,593.645668 449.850154,591.472977 450.646867,589.375136 C450.958607,588.554288 451.349483,587.788462 451.826727,587.088997 Z" id="Stroke-123" fill="#96A7CA" fill-rule="nonzero"></path>
        <path d="M83.2981022,369.943126 C83.5366767,369.810014 83.8310172,369.871219 83.9986556,370.074966 L84.0552244,370.157952 L94.2447244,388.420452 C94.3944752,388.688848 94.298294,389.027824 94.0298978,389.177574 C93.7913233,389.310686 93.4969828,389.249481 93.3293444,389.045734 L93.2727756,388.962748 L83.0832756,370.700248 C82.9335248,370.431852 83.029706,370.092876 83.2981022,369.943126 Z" id="Stroke-125" fill="#DD936F" fill-rule="nonzero"></path>
        <path d="M284.913815,324.46858 C285.03207,324.071606 285.449746,323.845659 285.84672,323.963915 C286.210613,324.072315 286.430795,324.432313 286.373879,324.797331 L286.351385,324.89682 L274.525385,364.59582 C274.419234,364.952164 274.071013,365.171955 273.71179,365.125764 L273.613721,365.106474 L238.701221,355.815474 C238.300939,355.70895 238.062802,355.298103 238.169326,354.897821 C238.266973,354.530896 238.620336,354.300217 238.98687,354.34637 L239.086979,354.365926 L273.295,363.469 L284.913815,324.46858 Z" id="Stroke-127" fill="#96A7CA" fill-rule="nonzero"></path>
        <path d="M234.108919,472.489443 C234.407627,472.404098 234.718962,472.577062 234.804307,472.875769 L234.928885,473.285418 C234.971801,473.421368 235.02357,473.581745 235.084239,473.764913 C235.321322,474.480698 235.608153,475.279169 235.945319,476.139512 C236.908628,478.597578 238.080585,481.055319 239.464545,483.345646 C242.926606,489.075045 247.100487,492.778495 251.980889,493.537481 C252.28786,493.58522 252.498008,493.872769 252.450269,494.179739 C252.40253,494.48671 252.114981,494.696858 251.808011,494.649119 C246.53116,493.828478 242.118739,489.913373 238.501681,483.927469 C237.081717,481.577559 235.882961,479.063617 234.897882,476.549999 C234.610573,475.816877 234.358797,475.127103 234.142104,474.492607 L233.902597,473.770193 C233.817812,473.506033 233.757899,473.308404 233.722593,473.184831 C233.637248,472.886123 233.810212,472.574788 234.108919,472.489443 Z" id="Stroke-129" fill="#1D39C4" fill-rule="nonzero"></path>
    </g>
</svg>