<svg xmlns="http://www.w3.org/2000/svg" xmlns:xlink="http://www.w3.org/1999/xlink" width="512" height="1024" version="1.1" viewBox="0 0 512 1024"><title>2.人物组件/1.商人/站立/双手交叉</title><desc>Created with Sketch.</desc><defs><polygon id="path-1" points=".142 1.218 71.656 1.218 71.656 21 .142 21"/><polygon id="path-3" points=".657 .639 80.315 .639 80.315 52.392 .657 52.392"/></defs><g id="2.人物组件/1.商人/站立/双手交叉" fill="none" fill-rule="evenodd" stroke="none" stroke-width="1"><path id="Stroke-1" fill="#96A7CA" fill-rule="nonzero" d="M196.365624,426.891877 C196.74323,426.931656 197.025739,427.245132 197.036776,427.614396 L197.032923,427.716324 L192.459423,471.130824 C192.416028,471.542758 192.04691,471.841518 191.634976,471.798123 C191.25737,471.758344 190.974861,471.444868 190.963824,471.075604 L190.967677,470.973676 L195.541177,427.559176 C195.580956,427.18157 195.894432,426.899061 196.263696,426.888024 L196.365624,426.891877 Z"/><path id="Fill-2" fill="#E4EBF7" d="M195.9209,807.99845 C195.9209,807.99845 173.1134,829.11545 153.6869,833.10095 C142.8029,835.33295 158.1809,849.18545 180.9974,847.69745 C206.9009,846.00845 201.2699,840.37745 222.9509,843.23645 C235.6229,844.90745 249.1349,841.78445 249.1349,841.78445 L246.3194,818.41595 C246.3194,818.41595 224.6399,797.01695 195.9209,807.99845"/><path id="Fill-4" fill="#4E5C93" d="M188.33735,790.2599 C188.33735,790.2599 167.66735,573.6869 185.40485,564.3959 C203.14385,555.1034 255.52235,572.4659 259.74485,603.7184 C263.96885,634.9724 251.97035,794.2019 251.97035,794.2019 C251.97035,794.2019 257.60135,813.0659 249.71735,818.9789 C238.73735,824.0474 226.91135,804.9014 194.81285,810.5324 C179.61035,803.7749 188.33735,790.2599 188.33735,790.2599"/><path id="Fill-6" fill="#4E5C93" d="M252.1958,614.6771 L296.3738,797.7476 C296.3738,797.7476 288.2423,825.6071 300.9143,826.4516 C312.3758,827.2151 353.9348,828.0416 359.1953,818.0051 C364.4573,807.9671 354.9728,793.5086 354.9728,793.5086 C354.9728,793.5086 350.4983,630.3791 340.4873,572.1761 C336.4163,548.5121 254.3558,580.0796 252.1958,614.6771"/><path id="Fill-8" fill="#E4EBF7" d="M295.6679,831.3503 C295.6679,831.3503 309.5594,810.8948 328.3724,812.1953 C347.1854,813.4973 365.4134,828.9158 364.2014,843.0218 C363.3809,852.5903 278.4884,859.5923 295.6679,831.3503"/><path id="Fill-10" fill="#B0BEDC" d="M156.6602,833.732 C156.6602,833.732 156.5417,837.032 169.4702,842.6015 C184.5317,849.0875 207.8297,841.2635 221.4182,837.9545 C242.3462,832.859 244.0832,836.969 248.0252,834.1535 C251.4047,839.786 247.6037,845.135 247.6037,845.135 C247.6037,845.135 243.1007,847.388 227.3312,846.824 C211.5647,846.2615 211.6412,850.5155 191.8547,852.314 C163.9802,854.849 150.3437,846.671 149.4632,840.941 C148.3547,833.732 153.5627,830.96 156.6602,833.732"/><g id="分组" transform="translate(293.000000, 832.361000)"><mask id="mask-2" fill="#fff"><use xlink:href="#path-1"/></mask><path id="Fill-12" fill="#B0BEDC" d="M2.1069,3.68775 C2.1069,3.68775 19.3194,14.84775 24.2439,6.51975 C29.2449,-1.93725 44.2959,1.82925 46.8474,3.60075 C49.4004,5.37375 50.7729,9.83175 59.4684,8.55225 C67.9689,7.30125 70.3959,3.58125 70.3959,3.58125 C70.3959,3.58125 75.8649,13.10475 64.0239,16.64475 C45.4239,22.20825 27.5469,21.98475 15.4809,18.54225 C-0.4446,14.00025 -2.0721,4.35525 2.1069,3.68775" mask="url(#mask-2)"/></g><path id="Fill-14" fill="#4E5C93" d="M183.2939,537.7502 C183.2939,537.7502 177.2834,585.1697 179.8184,603.7532 C182.3519,622.3367 233.7509,640.8017 262.4684,640.8017 C277.8839,640.8017 333.2609,621.8522 337.9379,599.1347 C343.8494,570.4157 339.0029,561.7502 334.6454,549.5762 C331.5044,540.7982 328.7324,536.9057 328.7324,536.9057 C328.7324,536.9057 195.9629,537.7502 183.2939,537.7502"/><path id="Stroke-16" fill="#3B4A7A" fill-rule="nonzero" d="M210.942941,618.048029 C211.280951,617.808608 211.74905,617.888531 211.988471,618.226541 L212.159917,618.457003 C212.283627,618.61804 212.454932,618.833066 212.674624,619.096999 C213.267464,619.809224 213.990733,620.605147 214.847672,621.463991 C217.304435,623.926214 220.335207,626.391562 223.966206,628.694476 C233.735761,634.890686 245.949578,638.772296 260.802334,639.205869 C261.216371,639.217956 261.542217,639.563397 261.530456,639.977434 C261.518044,640.391471 261.172603,640.717317 260.758566,640.705231 C245.630647,640.263625 233.155647,636.29901 223.162812,629.961187 C219.435118,627.596946 216.318504,625.061771 213.785835,622.523473 C212.896473,621.632134 212.142921,620.802886 211.52175,620.056626 L211.217109,619.683797 C211.170296,619.625342 211.125458,619.568755 211.082589,619.514077 L210.959883,619.355813 C210.864325,619.2311 210.799317,619.142813 210.764429,619.093559 C210.525008,618.755549 210.604931,618.28745 210.942941,618.048029 Z"/><path id="Stroke-18" fill="#3B4A7A" fill-rule="nonzero" d="M239.52012,568.704333 C239.934241,568.713404 240.26287,569.056198 240.254133,569.47032 L240.250988,569.690592 C240.237383,570.943469 240.259329,572.723123 240.345617,574.951417 C240.475538,578.306459 240.727343,581.95418 241.129758,585.816365 C242.237296,596.446014 244.291286,606.998669 247.519015,616.847246 C248.876816,620.990225 250.422774,624.9365 252.166907,628.657702 C252.342698,629.032762 252.181159,629.479316 251.806098,629.655107 C251.431038,629.830898 250.984484,629.669359 250.808693,629.294298 C249.037818,625.51604 247.469759,621.513349 246.093614,617.314401 C242.829473,607.354723 240.755666,596.700247 239.637834,585.971814 C239.231916,582.076001 238.977879,578.395958 238.846741,575.00946 L238.801945,573.711689 C238.760329,572.331048 238.745044,571.157135 238.747524,570.213016 L238.754467,569.43868 C238.763204,569.024559 239.105998,568.69593 239.52012,568.704333 Z"/><path id="Stroke-20" fill="#3B4A7A" fill-rule="nonzero" d="M298.256207,619.486853 C298.614418,619.278867 299.073411,619.400647 299.281397,619.758857 C299.472051,620.087217 299.38561,620.500262 299.093966,620.727025 L299.009393,620.784047 L272.823893,635.988047 C272.465682,636.196033 272.006689,636.074253 271.798703,635.716043 C271.608049,635.387683 271.69449,634.974638 271.986134,634.747875 L272.070707,634.690853 L298.256207,619.486853 Z"/><path id="Stroke-22" fill="#3B4A7A" fill-rule="nonzero" d="M331.449923,546.260086 C331.833769,546.104409 332.271138,546.289377 332.426814,546.673223 C332.582491,547.057069 332.397523,547.494438 332.013677,547.650114 C304.170085,558.942654 277.791287,564.160081 253.097419,564.314063 C233.920947,564.43364 216.864276,561.518341 202.144385,556.583671 C197.092074,554.889944 192.681917,553.074205 188.939366,551.256947 C187.626617,550.61952 186.490336,550.026895 185.533697,549.494124 L184.854928,549.108252 L184.360889,548.813341 C184.008377,548.593581 183.903299,548.130799 184.123059,547.779689 C184.342819,547.428579 184.805601,547.322099 185.156711,547.541859 L185.427274,547.704965 C185.659806,547.842554 185.938691,548.00274 186.263527,548.183648 C187.195933,548.702923 188.307348,549.282579 189.594561,549.907607 C193.280475,551.697364 197.63122,553.488641 202.621165,555.161461 C217.189175,560.045215 234.082548,562.932603 253.088066,562.814092 C277.59209,562.661294 303.782731,557.481082 331.449923,546.260086 Z"/><path id="Stroke-24" fill="#3B4A7A" fill-rule="nonzero" d="M239.63746,537.844395 C240.01693,537.831313 240.34026,538.102488 240.402506,538.466635 L240.412855,538.56811 L241.257355,563.06461 C241.271626,563.478577 240.947608,563.825733 240.53364,563.840005 C240.15417,563.853087 239.83084,563.581912 239.768594,563.217765 L239.758245,563.11629 L238.913745,538.61979 C238.899474,538.205823 239.223492,537.858667 239.63746,537.844395 Z"/><path id="Stroke-26" fill="#3B4A7A" fill-rule="nonzero" d="M303.742062,561.628693 C304.098786,561.418169 304.558632,561.536687 304.769157,561.893412 C307.487744,566.499936 310.462929,570.472075 313.653287,573.853306 C319.274209,579.810519 325.285452,583.684291 331.288895,585.890455 C333.382938,586.65998 335.324124,587.166568 337.061908,587.461418 C337.545315,587.543437 337.984034,587.603876 338.374808,587.646015 L338.897944,587.694002 C339.037278,587.704276 339.136169,587.709065 339.192729,587.71027 C339.606849,587.719095 339.935405,588.06196 339.926753,588.476079 C339.917755,588.890199 339.57489,589.218755 339.160771,589.210103 L339.010286,589.204081 C338.889012,589.197809 338.726151,589.186469 338.523585,589.168128 C338.027158,589.123179 337.454171,589.049411 336.810989,588.940282 C334.984655,588.630408 332.954398,588.100575 330.7715,587.298397 C324.555115,585.013981 318.34653,581.013038 312.562279,574.882725 C309.294588,571.419534 306.252238,567.357723 303.477343,562.655788 C303.266819,562.299064 303.385337,561.839218 303.742062,561.628693 Z"/><path id="Stroke-28" fill="#3B4A7A" fill-rule="nonzero" d="M327.940418,536.3987 C328.354628,536.396977 328.691814,536.731358 328.69355,537.145568 C328.695129,537.52526 328.414288,537.840231 328.048423,537.891422 L327.946682,537.8987 L183.916682,538.5002 C183.502472,538.501923 183.165286,538.167542 183.16355,537.753332 C183.161971,537.37364 183.442812,537.058669 183.808677,537.007478 L183.910418,537.000207 L327.940418,536.3987 Z"/><path id="Fill-30" fill="#E4EBF7" d="M174.4931,513.6242 L174.4931,513.6242 C192.1601,516.5732 208.8551,504.5867 211.7096,486.9032 L223.0571,416.5802 C225.8876,399.0317 214.0136,382.4927 196.4801,379.5662 C178.8131,376.6157 162.1181,388.6037 159.2651,406.2857 L147.9176,476.6102 C145.0871,494.1572 156.9611,510.6962 174.4931,513.6242"/><path id="Fill-32" fill="#51342D" d="M293.6714,331.7492 C293.6714,331.7492 298.3169,345.6872 290.2919,349.9097 C283.2404,353.6207 276.3554,352.4432 275.5109,342.7307 C274.6649,333.0167 278.0444,306.4082 284.3804,307.2527 C290.7134,308.0987 293.6714,331.7492 293.6714,331.7492"/><path id="Fill-34" fill="#B69882" d="M258.3731,359.9873 C258.3731,359.9873 242.3471,361.8188 232.2746,355.4093 C220.1816,347.7128 223.3136,322.0943 223.5761,313.7423 C224.0321,299.0918 230.4431,291.3068 230.4431,291.3068 C230.4431,291.3068 236.8526,278.9453 262.4936,278.9453 C288.1346,278.9453 289.0496,302.7533 289.0496,313.7423 C289.0496,324.7313 286.2656,345.5963 279.4346,351.2873 C271.1936,358.1558 258.3731,359.9873 258.3731,359.9873"/><g id="分组" transform="translate(216.500000, 275.861000)"><mask id="mask-4" fill="#fff"><use xlink:href="#path-3"/></mask><path id="Fill-36" fill="#51342D" d="M8.44815,28.7244 C8.44815,28.7244 -2.53935,17.7354 1.58115,9.0369 C5.70165,0.3369 13.94265,-0.5796 23.10165,1.7094 C32.25765,3.9999 68.03415,-6.1941 72.09315,13.1574 C87.66015,30.0984 76.34115,44.9094 76.34115,44.9094 C76.34115,44.9094 69.90165,37.8309 67.61115,43.7829 C65.32215,49.7349 63.53115,53.7789 61.69965,51.9474 C59.86665,50.1159 61.52565,43.0464 58.32015,39.8409 C55.11465,36.6354 51.14115,26.7489 53.77815,20.0244 C54.69315,15.9039 20.35365,15.4464 13.02765,18.6519 C8.89665,20.4594 8.44815,28.7244 8.44815,28.7244" mask="url(#mask-4)"/></g><path id="Stroke-38" fill="#51342D" fill-rule="nonzero" d="M227.562549,308.667817 C229.546747,307.418528 232.489505,306.995646 236.522964,307.751301 C237.337225,307.90385 237.873648,308.687603 237.721099,309.501864 C237.56855,310.316125 236.784797,310.852548 235.970536,310.699999 C232.638352,310.075726 230.459737,310.388799 229.16097,311.206527 C228.806764,311.429542 228.626749,311.612996 228.573973,311.683025 L228.560054,311.703824 C228.16894,312.434113 227.259864,312.709068 226.529576,312.317954 C225.799287,311.92684 225.524332,311.017764 225.915446,310.287476 C226.174473,309.803819 226.700176,309.210783 227.562549,308.667817 Z"/><path id="Stroke-40" fill="#51342D" fill-rule="nonzero" d="M252.379671,307.933904 C254.835697,307.568734 257.472151,307.60402 259.992303,308.324689 C260.7795,308.549797 261.533716,308.838915 262.249446,309.196897 C262.990365,309.567478 263.290584,310.468527 262.920003,311.209446 C262.549422,311.950365 261.648373,312.250584 260.907454,311.880003 C260.362338,311.607356 259.781073,311.384536 259.167478,311.209071 C257.119802,310.623513 254.889811,310.593667 252.820871,310.901284 L252.357214,310.976801 C252.133464,311.016791 251.967758,311.052281 251.868347,311.07714 C251.064667,311.278115 250.250234,310.789526 250.04926,309.985847 C249.848285,309.182167 250.336874,308.367734 251.140553,308.16676 L251.359828,308.115887 C251.610734,308.061349 251.955069,307.997035 252.379671,307.933904 Z"/><path id="Stroke-42" fill="#7C5B4D" fill-rule="nonzero" d="M241.672734,315.830953 C241.912452,316.028552 241.946596,316.383066 241.748997,316.622784 L241.564084,316.854996 C241.413336,317.047865 241.24496,317.270153 241.063387,317.5185 C240.543936,318.22898 240.024314,319.003963 239.540012,319.816115 C238.753774,321.134601 238.139974,322.419076 237.764848,323.613318 C236.467613,327.74316 238.10531,330.062 244.13045,330.062 C244.44111,330.062 244.69295,330.31384 244.69295,330.6245 C244.69295,330.93516 244.44111,331.187 244.13045,331.187 C237.33509,331.187 235.169725,328.121028 236.691552,323.276182 C237.096221,321.987888 237.746164,320.627777 238.573767,319.239925 C239.077367,318.395411 239.61621,317.591762 240.155226,316.854521 L240.555992,316.319307 L240.880903,315.907216 C241.078502,315.667498 241.433016,315.633354 241.672734,315.830953 Z"/><path id="Fill-44" fill="#51342D" d="M258.1445,321.9845 C258.1445,323.6285 257.0165,324.9605 255.626,324.9605 C254.2355,324.9605 253.1075,323.6285 253.1075,321.9845 C253.1075,320.3405 254.2355,319.0085 255.626,319.0085 C257.0165,319.0085 258.1445,320.3405 258.1445,321.9845"/><path id="Fill-46" fill="#51342D" d="M234.335,321.9845 C234.335,323.6285 233.207,324.9605 231.8165,324.9605 C230.426,324.9605 229.2995,323.6285 229.2995,321.9845 C229.2995,320.3405 230.426,319.0085 231.8165,319.0085 C233.207,319.0085 234.335,320.3405 234.335,321.9845"/><path id="Fill-48" fill="#B69882" d="M230.52335,334.56635 L231.08135,361.11335 C231.40085,376.24835 243.45635,388.51535 258.58535,389.09585 C275.23385,389.73335 288.90335,376.06535 288.26585,359.41685 L287.21885,332.05685 L230.52335,334.56635 Z"/><path id="Fill-50" fill="#51342D" d="M230.61575,337.1006 C230.61575,337.1006 231.17825,330.6251 240.18875,330.0611 C247.97075,329.5751 252.92675,331.3241 255.67475,336.8186 C258.42125,342.3131 241.59575,336.8186 241.59575,336.8186 C241.59575,336.8186 228.32675,343.0526 230.61575,337.1006"/><path id="Fill-52" fill="#B69882" d="M296.74175,327.2711 C295.79525,333.4766 291.48125,337.9661 287.10575,337.3001 C282.73175,336.6311 279.95375,331.0601 280.90025,324.8531 C281.84675,318.6476 286.16075,314.1581 290.53475,314.8256 C294.91025,315.4931 297.68975,321.0656 296.74175,327.2711"/><path id="Stroke-54" fill="#7C5B4D" fill-rule="nonzero" d="M269.438849,354.601359 C269.725508,354.481623 270.054955,354.616941 270.174691,354.903599 C270.294427,355.190258 270.159109,355.519705 269.872451,355.639441 C257.255056,360.909664 246.213059,361.06867 237.256056,358.166276 C236.012305,357.763255 234.923815,357.330721 233.997255,356.897112 C233.752461,356.782553 233.531856,356.673843 233.335788,356.572476 L233.147913,356.473613 C233.001218,356.394983 232.900031,356.337398 232.84518,356.3044 C232.578979,356.144254 232.493004,355.798632 232.65315,355.53243 C232.813296,355.266229 233.158918,355.180254 233.42512,355.3404 C233.596703,355.443624 233.948644,355.632267 234.474098,355.878168 C235.35929,356.292418 236.404474,356.707744 237.602844,357.096059 C246.313592,359.918658 257.079921,359.763622 269.438849,354.601359 Z"/><path id="Stroke-56" fill="#7C5B4D" fill-rule="nonzero" d="M244.647077,351.463156 C244.956464,351.491254 245.184493,351.764841 245.156394,352.074227 L245.145541,352.24379 C245.096636,353.215189 245.174635,354.360958 245.478108,355.438225 C245.953652,357.126309 246.87421,358.212282 248.366704,358.511311 C248.67131,358.572341 248.868768,358.868747 248.807739,359.173354 C248.746709,359.47796 248.450303,359.675418 248.145696,359.614389 C246.178483,359.220247 244.974688,357.800142 244.395255,355.743271 C244.053153,354.528878 243.967452,353.269988 244.021964,352.187224 L244.036006,351.972473 C244.061295,351.694024 244.285428,351.481476 244.555545,351.462235 L244.647077,351.463156 Z"/><path id="Stroke-58" fill="#7C5B4D" fill-rule="nonzero" d="M290.3066,319.92605 C290.61726,319.92605 290.8691,320.17789 290.8691,320.48855 C290.8691,320.79921 290.61726,321.05105 290.3066,321.05105 C290.194639,321.05105 289.971985,321.071629 289.677291,321.135182 C289.1792,321.2426 288.681205,321.435914 288.218901,321.735014 C286.998449,322.524617 286.220406,323.903141 286.099208,326.071073 L286.091,326.246 L286.192108,326.273996 C288.194368,326.83463 289.279138,327.693917 289.450737,328.864715 L289.467941,329.019196 C289.551187,330.100758 288.870648,331.222875 287.612339,332.459275 C287.390749,332.677007 287.034607,332.67388 286.816875,332.452289 C286.599143,332.230699 286.60227,331.874557 286.823861,331.656825 C287.86337,330.635415 288.396368,329.756572 288.346259,329.105529 C288.289194,328.364123 287.412885,327.705384 285.391237,327.22959 C285.13716,327.169794 284.9576,326.943068 284.9576,326.68205 C284.9576,323.786138 285.947639,321.864545 287.607799,320.790461 C288.611052,320.141381 289.609532,319.92605 290.3066,319.92605 Z"/><path id="Fill-60" fill="#E4EBF7" d="M180.74795,470.5307 C180.74795,470.5307 149.88095,537.5447 202.26995,550.5287 C227.45945,556.7702 247.98245,558.3167 266.42195,556.6742 C306.73445,553.0802 326.86745,545.3447 331.74395,539.6837 C344.83745,524.4782 336.83345,501.3647 338.79995,465.8852 C340.59245,433.5332 359.73095,401.9417 341.45795,384.6887 C327.86345,377.0552 310.01945,364.1252 291.92045,359.6447 C278.10245,356.2247 269.48045,381.2567 256.02245,381.4172 C244.84895,381.5507 234.65345,359.4797 224.65445,362.4902 C205.18295,368.3537 197.86145,374.3642 181.81295,382.8107 C181.81295,382.8107 175.55495,405.4277 184.02995,441.1082 C184.02995,441.1082 179.21645,456.2822 180.74795,470.5307"/><path id="Fill-62" fill="#FFF" d="M228.75095,369.90395 C228.75095,369.90395 232.91645,423.39845 243.47495,448.31645 C272.75795,394.25645 291.77045,361.71395 292.60595,361.59545 L255.01895,378.91145 L228.75095,369.90395 Z"/><polygon id="Fill-64" fill="#253368" points="239.128 386.063 252.221 376.349 266.581 387.752 258.785 398.808 241.784 398.903"/><polygon id="Fill-66" fill="#253368" points="232.965 415.093 242.084 398.732 258.978 398.732 263.184 411.713 242.538 450.005"/><polygon id="Fill-68" fill="#FFF" points="231.086 390.878 253.611 376.801 231.366 360.752 227.708 364.412"/><polygon id="Fill-70" fill="#FFF" points="253.611 376.8 273.321 391.442 293.029 361.596 288.807 356.528"/><polygon id="Fill-72" fill="#FFF" points="230.258 391.975 252.767 376.378 231.086 358.78 226.862 363.99"/><path id="Stroke-74" fill="#E4EBF7" fill-rule="nonzero" d="M230.503738,358.308043 L226.279738,363.517543 C226.15173,363.675416 226.093278,363.878481 226.117762,364.080249 L229.513762,392.065749 C229.581779,392.626258 230.22137,392.913448 230.685464,392.591867 L253.194464,376.994867 C253.605241,376.71023 253.62798,376.111031 253.239956,375.79608 L231.558956,358.19808 C231.237233,357.936945 230.764708,357.986186 230.503738,358.308043 Z M231.195,359.835 L251.518,376.33 L230.852,390.65 L227.644,364.215 L231.195,359.835 Z"/><polygon id="Fill-76" fill="#FFF" points="252.767 376.378 273.76 393.664 295.111 360.489 287.399 354.276"/><path id="Stroke-78" fill="#E4EBF7" fill-rule="nonzero" d="M296.106194,360.327554 L287.449991,353.353426 L251.493742,376.301075 L273.933926,394.779152 L296.106194,360.327554 Z M287.348,355.197 L294.114,360.649 L273.585,392.549 L254.04,376.455 L287.348,355.197 Z"/><path id="Stroke-80" fill="#96A7CA" fill-rule="nonzero" d="M241.962408,448.129434 C242.342046,448.123012 242.660737,448.399624 242.716806,448.764773 L242.725435,448.866408 L243.287935,480.963408 C243.28979,481.069246 243.26922,481.174277 243.227578,481.271595 L242.825785,482.2539 L242.540367,482.978507 C242.295285,483.608578 242.032572,484.303705 241.755614,485.059962 C240.64671,488.087913 239.537425,491.466158 238.502044,495.108309 C235.471358,505.769337 233.686884,516.441389 233.776355,526.382904 C233.878895,537.776442 236.462183,547.44459 241.965861,554.862148 C242.212678,555.194795 242.143099,555.664543 241.810452,555.911361 C241.477805,556.158178 241.008057,556.088599 240.761239,555.755952 C235.045718,548.052884 232.381585,538.082169 232.276416,526.396403 C232.185485,516.292763 233.992503,505.485888 237.059212,494.698145 C238.018038,491.325289 239.039687,488.176199 240.066864,485.316751 L240.347097,484.544132 C240.68376,483.624849 240.999976,482.793864 241.289893,482.057924 L241.785,480.83 L241.225665,448.892692 C241.219012,448.513054 241.495624,448.194363 241.860773,448.138294 L241.962408,448.129434 Z"/><path id="Stroke-82" fill="#96A7CA" fill-rule="nonzero" d="M183.650487,402.531354 C184.056662,402.612561 184.320102,403.007662 184.238896,403.413837 C183.953331,404.842168 184.152473,407.663292 184.731825,411.397494 C184.906304,412.522098 185.11139,413.704804 185.340844,414.925619 C185.557194,416.076719 185.785978,417.213755 186.017236,418.305137 L186.265642,419.456118 L186.576418,420.832119 L186.596429,421.009871 L186.219929,471.691871 C186.218897,471.830851 186.179267,471.96681 186.105461,472.084578 L185.81835,472.556972 C185.741128,472.686398 185.652401,472.836491 185.552847,473.006711 L185.159526,473.688027 C184.821774,474.280427 184.459686,474.933918 184.077939,475.644757 C182.54937,478.491052 181.020263,481.664254 179.593218,485.081885 C175.505227,494.872213 173.061972,504.657233 173.082432,513.761208 C173.116755,529.034064 180.0803,540.814159 195.665752,547.848397 L196.351689,548.076342 L196.818275,548.225977 C197.654576,548.491307 198.61927,548.783429 199.706817,549.096499 L200.180413,549.231938 C203.850206,550.274604 208.058632,551.317741 212.739495,552.29159 C226.448537,555.143745 241.289218,556.824563 256.698234,556.742092 C276.552252,556.635832 295.853187,553.58539 314.040693,547.001828 C318.950712,545.224486 323.754269,543.196538 328.443509,540.909609 L329.58,540.348 L329.831383,540.033676 C330.115441,539.669735 330.43307,539.239545 330.775921,538.74593 C331.759096,537.330417 332.743562,535.694567 333.662775,533.861153 C338.75867,523.697141 339.740283,512.382066 334.027104,500.735611 C333.844678,500.363732 333.998261,499.914379 334.370139,499.731954 C334.742018,499.549528 335.191371,499.703111 335.373796,500.074989 C341.316426,512.189186 340.293274,523.98309 335.003682,534.533438 C334.051148,536.433314 333.030171,538.129831 332.007903,539.601629 C331.72066,540.015183 331.449361,540.387528 331.19829,540.717285 L330.717144,541.32787 C330.679643,541.373357 330.648323,541.41058 330.623493,541.439441 C330.5586,541.514869 330.479345,541.57663 330.390348,541.621127 C325.244954,544.193703 319.96176,546.453753 314.551247,548.412265 C296.192284,555.057892 276.72301,558.134939 256.706262,558.242071 C241.184726,558.325144 226.240668,556.632618 212.433963,553.760144 L210.572594,553.36401 C206.901025,552.564898 203.538352,551.726713 200.51831,550.885244 L199.770457,550.674829 C198.959386,550.444387 198.210698,550.22414 197.526405,550.016222 L196.117834,549.577012 L195.479756,549.368807 C195.329036,549.318648 195.22649,549.283749 195.111038,549.240453 C178.903864,541.929011 171.618032,529.60371 171.581548,513.76458 C171.561461,504.431813 174.050647,494.462848 178.209039,484.503915 C179.655853,481.03894 181.205881,477.822322 182.756448,474.935066 C183.222091,474.068007 183.659489,473.283947 184.060564,472.589286 L184.585796,471.695928 L184.721,471.472 L185.095,421.088 L184.800674,419.778403 L184.725225,419.433272 C184.432549,418.087003 184.139899,416.656492 183.866656,415.202694 C183.634408,413.967009 183.426636,412.768817 183.249558,411.627463 L183.116657,410.742197 C182.613955,407.271713 182.461151,404.654577 182.768004,403.119763 C182.842443,402.747436 183.180641,402.495046 183.549349,402.516655 L183.650487,402.531354 Z"/><path id="Stroke-84" fill="#96A7CA" fill-rule="nonzero" d="M294.933346,360.037561 C295.182862,359.706934 295.653161,359.64118 295.983789,359.890696 C296.314416,360.140212 296.38017,360.610511 296.130654,360.941139 L295.598668,361.652419 C290.296292,368.803369 282.900279,380.564478 273.946172,395.850571 L272.449301,398.413962 C271.695269,399.709184 270.932946,401.024486 270.162795,402.358924 C264.849547,411.565159 259.356889,421.342113 253.926908,431.195257 L251.426095,435.746471 C249.579082,439.117551 247.855631,442.284853 246.283888,445.190876 L243.965917,449.491964 L243.200279,450.921765 C242.900684,451.483559 242.081504,451.44007 241.843075,450.849713 C238.211102,441.856849 235.071313,429.639491 232.384851,414.992772 C230.293907,403.592841 228.594726,391.382631 227.255861,379.172982 L226.943966,376.264765 C226.644514,373.40778 226.382248,370.708237 226.155885,368.19982 L225.871249,364.917564 L225.710478,362.888288 C225.680413,362.475167 225.990941,362.115893 226.404062,362.085828 C226.817183,362.055763 227.176457,362.366291 227.206522,362.779412 L227.296762,363.942427 C227.372949,364.892957 227.465837,365.995868 227.575908,367.238452 L227.80564,369.760695 C228.074225,372.632532 228.387405,375.730889 228.746923,379.009478 C230.082144,391.1859 231.776545,403.36176 233.860239,414.722161 L234.219421,416.651433 C236.571415,429.097004 239.261211,439.68674 242.303431,447.88339 L242.643,448.784 L244.12168,446.037462 L246.284762,442.040628 C247.186774,440.378827 248.131651,438.643935 249.11483,436.84528 L250.110606,435.025715 C256.352048,423.634137 262.726789,412.242414 268.863636,401.609133 L270.395277,398.962746 C271.155752,397.652576 271.908106,396.362152 272.651877,395.092415 L274.456864,392.023036 C282.926725,377.67811 289.906257,366.698833 294.933346,360.037561 Z"/><path id="Stroke-86" fill="#96A7CA" fill-rule="nonzero" d="M225.28778,482.250488 C237.617753,480.161402 253.213651,480.186249 271.648277,483.731143 C272.055038,483.809362 272.321375,484.202516 272.243157,484.609277 C272.164938,485.016038 271.771784,485.282375 271.365023,485.204157 C253.111519,481.694091 237.695948,481.669532 225.538356,483.72941 C223.792534,484.025207 222.279123,484.341686 221.004562,484.657536 L220.501858,484.785433 C220.344265,484.826647 220.196664,484.866388 220.059106,484.904484 L219.665552,485.01693 C219.583715,485.041164 219.52523,485.059204 219.490271,485.070474 C219.096037,485.197566 218.673418,484.981005 218.546326,484.586771 C218.419234,484.192537 218.635795,483.769918 219.030029,483.642826 L219.448442,483.518026 L220.120505,483.334719 C220.284921,483.291711 220.459356,483.247273 220.643758,483.201576 C221.954397,482.876785 223.504555,482.552622 225.28778,482.250488 Z"/><path id="Stroke-88" fill="#96A7CA" fill-rule="nonzero" d="M229.430307,472.90744 L232.106554,473.019906 C233.890399,473.092235 235.781775,473.164566 237.723942,473.233352 L241.011379,473.344452 C242.153987,473.381104 243.27487,473.414888 244.367966,473.445424 L247.89385,473.534542 C254.021808,473.671386 258.388533,473.663711 260.292734,473.472936 C260.704885,473.431644 261.072472,473.732284 261.113764,474.144434 C261.155056,474.556585 260.854416,474.924172 260.442266,474.965464 L260.118047,474.994556 C257.716713,475.187776 252.559702,475.162901 245.412018,474.974343 L243.222053,474.913181 C242.109046,474.880461 240.970344,474.844619 239.811985,474.806031 L235.745085,474.662481 L231.204942,474.48424 L229.363693,474.40596 C228.949888,474.387565 228.629345,474.037198 228.64774,473.623393 C228.666135,473.209588 229.016502,472.889045 229.430307,472.90744 Z"/><path id="Fill-90" fill="#E4EBF7" d="M318.80075,517.70015 L318.80075,517.70015 C336.64025,519.57365 352.58975,506.55665 354.33125,488.70515 L361.25975,417.66665 C362.98325,399.99965 350.13275,384.25265 332.47925,382.39865 C314.64125,380.52515 298.69025,393.54215 296.94875,411.39365 L290.02025,482.43215 C288.29675,500.09765 301.14725,515.84615 318.80075,517.70015"/><path id="Fill-92" fill="#E4EBF7" d="M215.21585,471.9296 L214.97837,500.7116 C214.91735,508.2146 220.77485,514.4366 228.26735,514.8251 L317.70185,519.4721 C335.54585,519.6176 350.12735,505.2731 350.27547,487.4291 C350.42135,469.5866 336.07385,455.0021 318.23135,454.8566 L228.73385,458.0366 C221.23535,458.3036 215.27585,464.4281 215.21585,471.9296"/><path id="Stroke-94" fill="#96A7CA" fill-rule="nonzero" d="M323.83181,453.895806 C324.246,453.891453 324.585367,454.22362 324.589807,454.63781 C324.593877,455.017484 324.315103,455.334286 323.949581,455.38787 L323.84789,455.395806 L234.299446,456.355806 C227.304114,456.431326 221.589581,461.919511 221.196624,468.867768 L221.182442,469.18459 L220.232942,497.953091 C220.002158,504.945133 225.234519,510.894308 232.159402,511.590063 L232.475322,511.618055 L321.672199,518.479222 L321.984616,518.45797 L322.413595,518.420466 C322.567166,518.405728 322.731164,518.388695 322.905131,518.369187 C323.903616,518.257221 325.018021,518.088448 326.219021,517.85148 C329.649978,517.174524 333.079873,516.088796 336.274142,514.506326 C342.60778,511.368584 347.209332,506.688195 349.382838,500.167679 C349.513823,499.774722 349.938563,499.562352 350.331521,499.693338 C350.724478,499.824323 350.936848,500.249063 350.805862,500.642021 C348.494262,507.576821 343.60752,512.547287 336.940021,515.850426 C333.616095,517.497129 330.062209,518.622107 326.509386,519.323108 C325.44368,519.533381 324.442628,519.691969 323.52441,519.80632 L323.072288,519.859844 C322.798543,519.890541 322.54738,519.915486 322.320325,519.935297 L322.101363,519.95342 C321.987228,519.96233 321.895779,519.968648 321.800347,519.972411 L321.650878,519.976145 L232.360431,513.113649 C224.585318,512.516642 218.635653,505.984156 218.726609,498.223231 L218.733758,497.90361 L219.683258,469.135109 C219.940486,461.341889 226.206288,455.111624 233.963685,454.862742 L234.28331,454.855893 L323.83181,453.895806 Z"/><path id="Fill-96" fill="#B69882" d="M334.22855,483.1913 C338.66105,490.1558 328.49255,493.8908 328.49255,493.8908 C328.49255,493.8908 330.42755,495.6563 323.27255,499.8923 C312.73955,506.1293 276.41705,505.2848 276.41705,505.2848 L273.16055,467.1158 L290.48405,466.5623 C290.48405,466.5623 301.12805,458.4263 306.50255,455.3708 C311.87855,452.3153 324.74705,454.7693 331.80905,452.1773 C338.87105,449.5853 334.19705,462.3878 317.97905,462.8828 C343.16105,465.6833 347.12405,459.3203 347.04905,465.9668 C346.98305,471.7958 340.56005,471.4208 340.56005,471.4208 C340.56005,471.4208 347.08805,478.3643 334.22855,483.1913"/><path id="Stroke-98" fill="#607491" fill-rule="nonzero" d="M346.21977,462.230805 C346.553844,462.136569 346.901058,462.330996 346.995295,462.66507 C347.089531,462.999144 346.895104,463.346358 346.56103,463.440595 C344.145485,464.121977 339.272123,464.399137 332.606359,464.372082 C329.761798,464.360536 326.741904,464.293404 323.689309,464.186501 L322.379467,464.138296 C321.488826,464.103956 320.638467,464.06798 319.838254,464.031457 L317.262056,463.902677 C316.91551,463.882881 316.650627,463.585902 316.670423,463.239356 C316.690219,462.89281 316.987198,462.627927 317.333744,462.647723 L318.738573,462.720917 C319.6695,462.76674 320.686391,462.812567 321.76993,462.856276 L322.427897,462.882229 C325.910557,463.016507 329.376614,463.101962 332.611461,463.115092 L334.167596,463.115596 C339.914131,463.094888 344.143682,462.816433 346.21977,462.230805 Z"/><path id="Fill-100" fill="#E4EBF7" d="M282.66605,502.8509 L283.192136,467.0519 C283.27055,461.5109 278.97455,456.8909 273.44555,456.5684 L180.53855,451.1414 C162.69605,450.8804 148.02155,465.1319 147.76055,482.9744 C147.49955,500.8154 161.75255,515.4914 179.59355,515.7524 L272.61905,513.0449 C278.15555,512.8844 282.58505,508.3904 282.66605,502.8509"/><path id="Stroke-102" fill="#96A7CA" fill-rule="nonzero" d="M167.684993,450.664665 L274.3174,456.615961 C280.147201,457.038364 284.632694,461.90182 284.617461,467.712646 L284.612893,468.003961 L283.588397,503.792316 C283.42226,509.63561 278.759851,514.329192 272.951877,514.56724 L272.660539,514.575414 L179.608039,515.982502 C179.193873,515.988677 178.853048,515.658005 178.846786,515.243839 C178.841045,514.864187 179.118423,514.546162 179.483706,514.49097 L179.585361,514.482586 L272.637832,513.075586 C277.685787,512.999061 281.793846,509.033147 282.077353,504.023794 L282.089007,503.749539 L283.113503,467.961173 C283.257006,462.916716 279.474067,458.638771 274.494207,458.13647 L274.221407,458.112835 L167.601407,452.162335 C167.187837,452.139253 166.871284,451.785277 166.894365,451.371707 C166.915523,450.992601 167.214725,450.695016 167.582999,450.66583 L167.684993,450.664665 Z"/><path id="Fill-104" fill="#B69882" d="M205.17425,453.38615 C205.17425,453.38615 185.09975,427.37465 177.87425,426.94715 C170.64725,426.51965 157.93625,429.01565 155.91125,432.85715 C151.14275,441.91565 151.15025,454.13915 151.15025,454.13915 L175.45325,453.12665 L205.17425,453.38615 Z"/><path id="Stroke-106" fill="#607491" fill-rule="nonzero" d="M167.256238,434.159002 C169.126389,434.030941 170.8554,433.995596 172.415347,434.064894 C172.719908,434.078423 172.955836,434.336287 172.942306,434.640847 C172.928777,434.945408 172.670913,435.181336 172.366353,435.167806 C170.851389,435.100507 169.16296,435.135023 167.331659,435.260423 C164.873349,435.428759 162.245383,435.753437 159.566784,436.188815 C158.381917,436.381403 157.250024,436.585463 156.195803,436.791394 L155.259713,436.978831 L154.022357,437.243856 C153.725224,437.312066 153.429055,437.126489 153.360844,436.829357 C153.292634,436.532224 153.478211,436.236055 153.775343,436.167844 L154.194317,436.075126 C154.531678,436.001989 154.92013,435.920562 155.354379,435.832921 C156.594095,435.582718 157.95328,435.332585 159.389664,435.099116 C162.099627,434.65864 164.760411,434.329907 167.256238,434.159002 Z"/><path id="Stroke-108" fill="#607491" fill-rule="nonzero" d="M163.25899,440.620546 L164.156482,440.570213 C167.234463,440.41084 169.641915,440.429285 171.174865,440.672838 C171.475949,440.720674 171.681248,441.00353 171.633412,441.304615 C171.585576,441.605699 171.30272,441.810998 171.001635,441.763162 C169.425874,441.512808 166.757176,441.516015 163.325311,441.722552 C161.855638,441.811 160.29485,441.933907 158.689937,442.082526 C157.964836,442.149671 157.255919,442.219699 156.572424,442.290877 L154.706584,442.494797 L153.868721,442.593799 C153.56618,442.631338 153.29049,442.416512 153.252951,442.113971 C153.215412,441.81143 153.430238,441.53574 153.732779,441.498201 L155.119786,441.337046 C156.202095,441.216421 157.372387,441.09581 158.588139,440.983229 C160.204146,440.833583 161.776499,440.709765 163.25899,440.620546 Z"/><path id="Stroke-110" fill="#607491" fill-rule="nonzero" d="M171.215228,447.171772 C171.520022,447.165354 171.772309,447.407234 171.778852,447.712028 C171.784504,447.986342 171.589159,448.218126 171.327837,448.266419 L171.238472,448.275528 L151.721972,448.686528 C151.417178,448.692946 151.164891,448.451066 151.158348,448.146272 C151.152696,447.871958 151.348041,447.640174 151.609363,447.591881 L151.698728,447.582772 L171.215228,447.171772 Z"/></g></svg>