<svg xmlns="http://www.w3.org/2000/svg" xmlns:xlink="http://www.w3.org/1999/xlink" width="512" height="1024" version="1.1" viewBox="0 0 512 1024"><title>2.人物组件/1.商人/站立/打电话</title><desc>Created with Sketch.</desc><defs><polygon id="path-1" points="0 1.265 143.491 1.265 143.491 73.259 0 73.259"/><polygon id="path-3" points=".181 1.388 96.399 1.388 96.399 21 .181 21"/><polygon id="path-5" points=".385 .652 78.178 .652 78.178 56.545 .385 56.545"/></defs><g id="2.人物组件/1.商人/站立/打电话" fill="none" fill-rule="evenodd" stroke="none" stroke-width="1"><g id="分组" transform="translate(95.500000, 355.347500)"><mask id="mask-2" fill="#fff"><use xlink:href="#path-1"/></mask><path id="Fill-1" fill="#E4EBF7" d="M0.1122,43.62075 L0.1122,43.62075 C1.5987,61.53375 17.4207,74.78925 35.3172,73.11675 L114.1902,65.74125 C131.8242,64.09275 144.8427,48.55275 143.3787,30.90225 C141.8922,12.98925 126.0717,-0.26625 108.1752,1.40775 L29.3007,8.78175 C11.6667,10.43175 -1.3518,25.97025 0.1122,43.62075" mask="url(#mask-2)"/></g><path id="Fill-3" fill="#A08889" d="M217.27915,332.3414 C225.90565,323.4359 229.02715,324.5129 234.75115,320.6684 C240.47665,316.8239 231.70465,315.1109 219.63265,320.1449 C211.16965,324.3824 219.03865,300.5384 228.11665,292.3439 C236.92765,284.3909 195.37015,284.5544 185.87515,325.2104 C181.19665,345.2504 187.67065,362.9054 217.27915,332.3414"/><path id="Stroke-5" fill="#7C5B4D" fill-rule="nonzero" d="M213.724457,290.838017 C213.920812,290.59728 214.275146,290.561302 214.515883,290.757657 C214.598817,290.825302 214.693515,290.931312 214.779847,291.080414 C215.460405,292.255801 214.647748,293.943094 211.653473,296.156207 L211.383593,296.352846 C205.76653,300.389132 203.421989,306.838855 203.650182,316.655331 L203.664564,317.175102 C203.816643,321.938863 202.148856,325.234789 199.276847,327.274251 C198.316172,327.956444 197.289226,328.4447 196.261898,328.772415 C195.64133,328.970375 195.152573,329.071669 194.859761,329.107813 C194.55144,329.145871 194.270645,328.926781 194.232587,328.618461 C194.194529,328.31014 194.413619,328.029345 194.721939,327.991287 L194.946979,327.953105 L195.034226,327.935554 C195.30001,327.88047 195.598011,327.80334 195.92,327.700626 C196.842822,327.406249 197.766025,326.967316 198.625488,326.356996 C201.192648,324.534012 202.680077,321.594516 202.540138,317.21106 C202.211122,306.940022 204.576096,300.037078 210.421662,295.663222 L210.727127,295.43924 C212.352089,294.271686 213.292546,293.30041 213.679038,292.5323 C213.88081,292.1313 213.901107,291.873895 213.834946,291.70389 L213.794891,291.622173 C213.796142,291.622531 213.79929,291.624935 213.804817,291.629443 C213.56408,291.433088 213.528102,291.078754 213.724457,290.838017 Z"/><path id="Stroke-7" fill="#7C5B4D" fill-rule="nonzero" d="M218.837535,288.996868 C218.917772,288.696748 219.226112,288.518498 219.526232,288.598735 C220.88271,288.96139 221.178976,290.336162 220.461564,291.978953 C219.773779,293.553905 218.216615,295.364762 216.006148,297.070934 C214.647333,298.11975 213.415524,299.589452 212.316355,301.373441 C211.481899,302.727791 210.771956,304.182619 210.18617,305.637751 C209.981144,306.147049 209.806456,306.619548 209.661898,307.042794 L209.538958,307.413635 C209.518716,307.477108 209.503185,307.52756 209.492349,307.564195 C209.404235,307.862097 209.091307,308.032164 208.793405,307.944049 C208.495503,307.855935 208.325436,307.543007 208.413551,307.245105 L208.546158,306.830407 L208.597281,306.679178 C208.748134,306.237504 208.929761,305.746235 209.142559,305.217629 C209.750558,303.70732 210.487723,302.196708 211.358558,300.783313 C212.523619,298.892381 213.84004,297.321726 215.318752,296.180366 C217.390761,294.581064 218.827029,292.910799 219.430586,291.528722 C219.882153,290.494684 219.791311,289.899286 219.322323,289.714009 L219.235668,289.685565 C218.935548,289.605328 218.757298,289.296988 218.837535,288.996868 Z"/><path id="Stroke-9" fill="#7C5B4D" fill-rule="nonzero" d="M224.297442,289.307447 C224.448715,289.036105 224.791311,288.93877 225.062653,289.090042 C225.183163,289.157226 225.324448,289.276118 225.454522,289.459457 C226.391735,290.780466 225.408979,293.109357 221.510942,296.771269 C220.926418,297.320534 220.374199,297.890216 219.853353,298.478404 C217.946478,300.631824 216.531136,302.938932 215.534908,305.244424 C215.187076,306.049385 214.916695,306.795559 214.714666,307.463275 L214.58754,307.905742 C214.54264,308.072219 214.512779,308.197541 214.496246,308.27803 C214.433738,308.582337 214.136376,308.778354 213.83207,308.715846 C213.527763,308.653338 213.331746,308.355976 213.394254,308.05167 L213.435408,307.869676 C213.478727,307.690662 213.545065,307.444216 213.637875,307.137473 C213.851968,306.429887 214.136891,305.643581 214.502198,304.798179 C215.543511,302.388349 217.020879,299.980134 219.011106,297.732586 C219.55457,297.118856 220.130742,296.524463 220.740613,295.951379 C222.773622,294.04152 223.946324,292.542178 224.417857,291.424761 C224.712379,290.726815 224.691098,290.327643 224.536986,290.11042 L224.50759,290.069567 C224.508279,290.069244 224.510595,290.070287 224.514847,290.072658 C224.243505,289.921385 224.14617,289.578789 224.297442,289.307447 Z"/><path id="Fill-11" fill="#394772" d="M200.92645,332.9024 L192.69145,311.0579 C192.00895,309.2489 192.92245,307.2314 194.73145,306.5489 L241.74145,288.8249 C243.55045,288.1439 245.56795,289.0574 246.24895,290.8649 L254.48545,312.7094 C255.16795,314.5184 254.25445,316.5359 252.44545,317.2169 L205.43545,334.9424 C203.62645,335.6234 201.60895,334.7114 200.92645,332.9024"/><path id="Fill-13" fill="#E4EBF7" d="M211.03015,805.52915 C211.03015,805.52915 192.26515,828.78065 174.33715,835.26665 C164.29315,838.89965 180.84265,849.94415 202.34215,845.36465 C226.74865,840.16415 220.61065,835.58915 241.63015,835.30115 C253.91665,835.13165 266.33815,830.28815 266.33815,830.28815 L260.41765,808.44815 C260.41765,808.44815 231.70015,723.96215 211.03015,805.52915"/><path id="Fill-15" fill="#B0BEDC" d="M177.253,835.45445 C177.253,835.45445 177.598,838.61045 190.6705,842.11445 C205.897,846.19595 226.9735,835.52045 239.4415,830.48795 C258.6415,822.73895 260.866,826.40795 264.2245,823.18145 C268.2205,828.06995 265.3465,833.68595 265.3465,833.68595 C265.3465,833.68595 261.376,836.45495 246.2965,838.10645 C231.22,839.75795 231.883,843.79445 213.31,848.24945 C187.1455,854.52695 173.0395,848.63945 171.4075,843.30995 C169.3525,836.60645 173.923,833.24645 177.253,835.45445"/><path id="Fill-17" fill="#E4EBF7" d="M371.3881,809.91635 C371.3881,809.91635 392.7706,830.78585 411.3406,835.10585 C421.7431,837.52685 406.6156,850.45085 384.7261,848.44535 C359.8756,846.16685 365.4286,840.89735 344.5231,843.09785 C332.3026,844.38335 319.3966,841.04135 319.3966,841.04135 L322.6921,818.65535 C322.6921,818.65535 339.5446,734.70185 371.3881,809.91635"/><g id="分组" transform="translate(319.000000, 832.347500)"><mask id="mask-4" fill="#fff"><use xlink:href="#path-3"/></mask><path id="Fill-19" fill="#B0BEDC" d="M89.4669,3.28995 C89.4669,3.28995 89.4984,6.46395 76.9314,11.48895 C62.2944,17.34345 40.1019,9.23595 27.1269,5.71245 C7.1454,0.28845 5.3724,4.19445 1.6539,1.38795 C-1.7346,6.71445 1.7829,11.95095 1.7829,11.95095 C1.7829,11.95095 6.0534,14.22945 21.2214,14.08695 C36.3879,13.94445 36.2064,18.03045 55.1754,20.25945 C81.8994,23.39895 95.2089,15.88395 96.2004,10.39995 C97.4484,3.49995 92.5134,0.70395 89.4669,3.28995" mask="url(#mask-4)"/></g><path id="Fill-21" fill="#4E5C93" d="M200.7769,785.09525 C200.7769,785.09525 170.2354,568.40975 187.4614,558.19775 C204.6844,547.98575 257.9044,562.56575 263.7679,593.55425 C269.6299,624.54125 264.5284,785.68325 264.5284,785.68325 C264.5284,785.68325 271.1449,804.22475 263.5834,810.54425 C252.8854,816.18275 240.0679,797.68625 208.3114,804.99875 C192.7729,799.05125 200.7769,785.09525 200.7769,785.09525"/><path id="Fill-23" fill="#4E5C93" d="M256.95085,602.9924 L306.95185,786.9509 C306.95185,786.9509 301.74685,813.3959 319.79335,817.3409 C325.40485,818.5679 335.56735,811.5599 347.49685,809.7569 C359.42635,807.9539 373.12585,811.3559 375.91135,806.4224 C381.48385,796.5539 374.56735,781.8719 374.56735,781.8719 C374.56735,781.8719 350.82535,624.8099 342.63985,566.3219 C339.31285,542.5424 260.19535,568.4804 256.95085,602.9924"/><path id="Fill-25" fill="#4E5C93" d="M188.101,526.99265 C188.101,526.99265 180.61,574.20215 182.5615,592.85465 C184.513,611.50715 235.3075,631.57265 264.0115,632.47115 C279.418,632.95415 335.362,615.74765 340.747,593.18765 C347.557,564.66815 342.9835,555.85415 339.0085,543.54965 C336.1435,534.67715 332.2435,523.27115 332.2435,523.27115 C332.2435,523.27115 200.7655,527.38865 188.101,526.99265"/><path id="Stroke-27" fill="#3B4A7A" fill-rule="nonzero" d="M213.195357,608.136858 C213.529596,607.8922 213.998884,607.964819 214.243542,608.299057 L214.430547,608.542307 L214.702121,608.879832 C214.801307,609.000727 214.909164,609.129888 215.025726,609.266956 C215.695975,610.055122 216.508762,610.935472 217.466215,611.885078 C220.209289,614.605671 223.55703,617.328996 227.526597,619.872259 C237.544101,626.290377 249.737775,630.469745 264.220193,631.346922 C264.504575,631.364146 264.75129,631.540315 264.862566,631.796227 L264.897754,631.895777 L306.641254,782.950277 C306.751586,783.349526 306.517372,783.762623 306.118123,783.872954 C305.752144,783.974092 305.37453,783.785715 305.229153,783.446093 L305.195446,783.349823 L263.593,632.809 L263.297281,632.79003 C249.191314,631.808571 237.220027,627.72527 227.298645,621.503704 L226.717398,621.13527 C222.655394,618.532783 219.225715,615.742804 216.409928,612.950094 C215.545298,612.09255 214.792928,611.287509 214.151263,610.550392 L213.883037,610.238688 C213.637548,609.95001 213.42728,609.692873 213.251944,609.470152 L213.033158,609.185043 C212.7885,608.850804 212.861119,608.381516 213.195357,608.136858 Z"/><path id="Stroke-29" fill="#3B4A7A" fill-rule="nonzero" d="M244.865609,559.741436 C245.277815,559.782172 245.57895,560.149353 245.538214,560.561559 L245.477761,561.271397 L245.431937,561.892504 C245.401527,562.328405 245.371548,562.807653 245.342915,563.328365 C244.57634,577.269112 245.68397,593.506281 250.155111,608.943341 C251.274096,612.80675 252.584437,616.503355 254.096574,620.010883 C254.260556,620.391255 254.085139,620.832541 253.704767,620.996524 C253.324395,621.160506 252.883109,620.985089 252.719126,620.604717 C251.181413,617.037863 249.850223,613.282439 248.714327,609.360645 C244.284756,594.067109 243.119268,578.03797 243.798293,564.148761 L243.845178,563.246007 C243.874238,562.717534 243.904699,562.230606 243.935645,561.787098 L244.014975,560.752377 C244.027773,560.601586 244.038136,560.488414 244.045486,560.414041 C244.082827,560.036186 244.394473,559.75166 244.763658,559.738241 L244.865609,559.741436 Z"/><path id="Stroke-31" fill="#3B4A7A" fill-rule="nonzero" d="M300.448271,612.287395 C300.81281,612.090711 301.26777,612.226783 301.464455,612.591321 C301.644749,612.925481 301.545435,613.335622 301.246843,613.553155 L301.160529,613.607505 L274.513029,627.985005 C274.14849,628.181689 273.69353,628.045617 273.496845,627.681079 C273.316551,627.346919 273.415865,626.936778 273.714457,626.719245 L273.800771,626.664895 L300.448271,612.287395 Z"/><path id="Stroke-33" fill="#3B4A7A" fill-rule="nonzero" d="M335.919661,540.135055 C336.30819,539.991467 336.739557,540.190031 336.883145,540.578561 C337.026733,540.96709 336.828169,541.398457 336.439639,541.542045 C306.864087,552.472225 279.838635,558.140706 255.432051,559.447709 C236.886332,560.440855 221.095246,558.875353 208.127514,555.653657 C204.523244,554.758215 201.41666,553.797868 198.812499,552.836217 L198.059733,552.552661 C197.458445,552.321474 196.922226,552.103446 196.451291,551.901475 L195.892465,551.655397 C195.784437,551.606219 195.700187,551.566575 195.639761,551.537092 C195.267498,551.355451 195.112968,550.906424 195.294608,550.534161 C195.476249,550.161898 195.925276,550.007368 196.297539,550.189008 L196.750701,550.396131 L197.042521,550.522908 C197.678354,550.795599 198.441746,551.100301 199.332115,551.429092 C201.885105,552.371847 204.939003,553.315907 208.489178,554.197911 C221.314343,557.384187 236.956657,558.93494 255.351839,557.949855 C279.606561,556.650985 306.483913,551.013567 335.919661,540.135055 Z"/><path id="Stroke-35" fill="#3B4A7A" fill-rule="nonzero" d="M244.413413,528.8513 C244.793107,528.850095 245.107799,529.131249 245.158626,529.497165 L245.1658,529.598913 L245.2438,554.108913 C245.245114,554.523125 244.910398,554.859978 244.496187,554.8613 C244.116493,554.862505 243.801801,554.581351 243.750974,554.215435 L243.743804,554.113687 L243.6658,529.603687 C243.664486,529.189475 243.999202,528.852622 244.413413,528.8513 Z"/><path id="Stroke-37" fill="#3B4A7A" fill-rule="nonzero" d="M188.741597,526.261976 L332.719097,530.169476 C333.133158,530.180714 333.459711,530.525486 333.448755,530.939547 C333.438173,531.319103 333.14761,531.625128 332.780322,531.664841 L332.678403,531.668924 L188.700903,527.761424 C188.286842,527.750186 187.960289,527.405414 187.971245,526.991353 C187.981827,526.611797 188.27239,526.305772 188.639678,526.266059 L188.741597,526.261976 Z"/><path id="Fill-39" fill="#51342D" d="M306.29995,325.1819 C306.29995,325.1819 309.67195,339.4814 301.30045,342.9644 C293.94295,346.0259 287.19145,344.2334 287.22433,334.4834 C287.25745,324.7334 293.01895,298.5374 299.25145,299.9489 C305.48545,301.3619 306.29995,325.1819 306.29995,325.1819"/><path id="Fill-41" fill="#B69882" d="M268.6021,350.1275 C268.6021,350.1275 252.4771,350.5085 243.0226,343.217 C231.6721,334.4645 237.0976,309.23 238.1101,300.9365 C239.8846,286.3865 246.9706,279.2105 246.9706,279.2105 C246.9706,279.2105 254.4676,267.476 280.0051,269.7845 C305.5396,272.0945 304.3081,295.889 303.3196,306.833 C302.3296,317.777 297.6766,338.306 290.3626,343.3595 C281.5351,349.457 268.6021,350.1275 268.6021,350.1275"/><g id="分组" transform="translate(233.500000, 263.847500)"><mask id="mask-6" fill="#fff"><use xlink:href="#path-5"/></mask><path id="Fill-43" fill="#51342D" d="M6.8028,28.09275 C6.8028,28.09275 -3.1527,16.15875 1.7358,7.86675 C6.6228,-0.42675 14.9133,-0.59625 23.8278,2.50725 C32.7408,5.61225 69.2898,-1.31775 71.5893,18.32025 C85.5678,36.59325 72.9603,50.32575 72.9603,50.32575 C72.9603,50.32575 67.1853,42.69525 64.3698,48.41775 C61.5528,54.14025 59.4048,58.00575 57.7458,56.01675 C56.0853,54.02925 58.3743,47.13525 55.4703,43.65525 C52.5678,40.17525 49.4988,29.96925 52.7313,23.51025 C54.0138,19.48875 19.8543,15.93975 12.2703,18.47325 C7.9923,19.90125 6.8028,28.09275 6.8028,28.09275" mask="url(#mask-6)"/></g><path id="Stroke-45" fill="#51342D" fill-rule="nonzero" d="M242.239334,296.404189 C244.319957,295.196356 247.383777,294.959531 251.544423,296.136103 C252.341589,296.36153 252.805075,297.190506 252.579647,297.987673 C252.35422,298.784839 251.525244,299.248325 250.728077,299.022897 C247.305598,298.055068 245.073835,298.227577 243.745489,298.998702 C243.462002,299.163271 243.312882,299.296111 243.270669,299.340987 L243.259043,299.35467 C242.803867,300.046845 241.873755,300.23897 241.18158,299.783793 C240.489405,299.328617 240.29728,298.398505 240.752457,297.70633 C241.011076,297.313055 241.492218,296.837902 242.239334,296.404189 Z"/><path id="Stroke-47" fill="#51342D" fill-rule="nonzero" d="M266.609273,297.800543 L266.762219,297.786314 C269.105815,297.578552 271.736522,297.751034 274.269331,298.604395 C275.253032,298.935826 276.179146,299.361961 277.035763,299.891812 C277.740306,300.327599 277.958175,301.25202 277.522388,301.956563 C277.086601,302.661106 276.16218,302.878975 275.457637,302.443188 C274.803453,302.03855 274.085184,301.708051 273.311469,301.447368 C271.233279,300.747179 268.993148,300.600306 267.027132,300.774594 L266.574437,300.823371 C266.556513,300.825839 266.541143,300.828087 266.52839,300.830077 C265.709861,300.957759 264.942806,300.397718 264.815123,299.57919 C264.687441,298.760661 265.247482,297.993606 266.06601,297.865923 L266.346627,297.828566 C266.424333,297.819481 266.512037,297.810034 266.609273,297.800543 Z"/><path id="Stroke-49" fill="#7C5B4D" fill-rule="nonzero" d="M255.150374,304.650794 C255.368751,304.429839 255.7249,304.427748 255.945856,304.646124 C256.166811,304.864501 256.168902,305.22065 255.950526,305.441606 L255.729442,305.673317 L255.444261,305.983468 C255.344385,306.093935 255.239913,306.211349 255.131507,306.335295 C254.511439,307.044251 253.891243,307.818617 253.313373,308.631353 C252.341426,309.998332 251.591824,311.330614 251.151874,312.565032 C249.83704,316.25421 251.375788,318.52221 257.11157,319.040482 C257.42097,319.068439 257.649124,319.34192 257.621168,319.65132 C257.593211,319.96072 257.31973,320.188874 257.01033,320.160918 C250.556788,319.57779 248.525336,316.583581 250.092166,312.187349 C250.57176,310.841698 251.369488,309.423881 252.396508,307.979445 C252.997923,307.133595 253.641248,306.33035 254.2847,305.594659 L254.610286,305.228411 L254.908167,304.904466 C255.022292,304.782559 255.104776,304.696931 255.150374,304.650794 Z"/><path id="Stroke-51" fill="#51342D" fill-rule="nonzero" d="M266.980578,309.563519 C267.393097,309.600952 267.697164,309.96571 267.659731,310.378228 C267.54641,311.627053 268.278016,312.669305 269.220202,312.75403 C270.162362,312.839681 271.06843,311.945789 271.181869,310.695672 C271.219302,310.283153 271.58406,309.979086 271.996578,310.016519 C272.409097,310.053952 272.713164,310.41871 272.675731,310.831228 C272.492001,312.855967 270.912669,314.414076 269.085128,314.247936 C267.257514,314.083589 265.982198,312.266765 266.165869,310.242672 C266.200182,309.86453 266.50954,309.577517 266.878605,309.56114 L266.980578,309.563519 Z"/><path id="Stroke-53" fill="#51342D" fill-rule="nonzero" d="M243.165024,307.417372 L243.266999,307.419658 C243.679552,307.456715 243.98395,307.821197 243.946892,308.233749 C243.834652,309.483288 244.565437,310.524513 245.5065,310.610158 C246.449706,310.694883 247.355572,309.801527 247.468969,308.551872 C247.506402,308.139353 247.87116,307.835286 248.283678,307.872719 C248.696197,307.910152 249.000264,308.27491 248.962831,308.687428 C248.779163,310.71149 247.200487,312.268363 245.371425,312.104063 C243.544623,311.93781 242.271121,310.12332 242.452908,308.099551 C242.486877,307.721378 242.795974,307.434084 243.165024,307.417372 Z"/><path id="Fill-55" fill="#B69882" d="M243.1549,322.30205 L241.3204,348.79055 C240.2749,363.89405 251.1784,377.19605 266.1919,379.13705 C282.7174,381.27155 297.5599,368.88905 298.4254,352.25105 L299.8459,324.90755 L243.1549,322.30205 Z"/><path id="Fill-57" fill="#51342D" d="M243.0187,324.83405 C243.0187,324.83405 244.1632,318.43505 253.1857,318.68555 C260.9812,318.90155 265.7602,321.09005 268.0012,326.80955 C270.2422,332.52905 253.9807,325.54205 253.9807,325.54205 C253.9807,325.54205 240.2032,330.55505 243.0187,324.83405"/><path id="Fill-59" fill="#B69882" d="M309.76135,320.999 C308.25985,327.0935 303.55885,331.178 299.26135,330.119 C294.96535,329.06 292.69885,323.2595 294.20185,317.165 C295.70335,311.069 300.40435,306.986 304.70035,308.045 C308.99785,309.104 311.26285,314.903 309.76135,320.999"/><path id="Stroke-61" fill="#7C5B4D" fill-rule="nonzero" d="M291.073098,338.081404 C291.319083,337.891665 291.672308,337.937262 291.862046,338.183248 C292.051785,338.429233 292.006188,338.782458 291.760202,338.972196 C282.489135,346.123351 273.647985,349.743091 265.336014,350.419017 C258.965124,350.937096 253.321144,349.709597 248.500828,347.343983 C247.076377,346.644921 245.831472,345.895147 244.773176,345.14397 C244.475364,344.932583 244.209154,344.732813 243.974997,344.547801 L243.805396,344.411859 C243.638965,344.27646 243.524611,344.177651 243.463223,344.121561 C243.233881,343.91201 243.217837,343.556216 243.427389,343.326873 C243.63694,343.097531 243.992734,343.081487 244.222077,343.291039 L244.431864,343.470697 L244.515361,343.539177 C244.769196,343.745683 245.072512,343.976849 245.424341,344.226577 C246.434885,344.94386 247.628172,345.662546 248.996463,346.334047 C253.643074,348.614413 259.087229,349.798453 265.24483,349.297719 C273.331984,348.640074 281.968604,345.104072 291.073098,338.081404 Z"/><path id="Stroke-63" fill="#7C5B4D" fill-rule="nonzero" d="M255.699946,340.401378 C256.005537,340.457267 256.207961,340.750305 256.152072,341.055896 L256.117349,341.28474 C256.108295,341.353085 256.098621,341.432603 256.088877,341.522315 C255.979751,342.526951 255.991695,343.610779 256.204805,344.613828 C256.550918,346.242892 257.362294,347.339626 258.77037,347.756323 C259.068259,347.844478 259.238283,348.15743 259.150127,348.45532 C259.061972,348.753209 258.74902,348.923233 258.45113,348.835077 C256.594817,348.285732 255.528645,346.844591 255.104367,344.847629 C254.862716,343.710242 254.849534,342.514061 254.970455,341.40083 L255.018466,341.019729 C255.028405,340.952141 255.037579,340.896421 255.045428,340.853504 C255.095728,340.578472 255.338118,340.387005 255.60887,340.392205 L255.699946,340.401378 Z"/><path id="Stroke-65" fill="#7C5B4D" fill-rule="nonzero" d="M304.013567,313.104396 C304.32296,313.132434 304.551042,313.405975 304.523004,313.715367 C304.49777,313.993821 304.273678,314.206413 304.003565,314.225707 L303.883909,314.223191 C303.231084,314.191795 302.380352,314.342726 301.563978,314.834463 C300.385673,315.544208 299.566171,316.823328 299.268669,318.852454 L299.246,319.02 L299.343835,319.05614 C301.287816,319.794622 302.291138,320.748173 302.356759,321.92976 L302.360001,322.085175 C302.34563,323.170123 301.56628,324.22679 300.201595,325.34387 C299.961203,325.540646 299.606807,325.505288 299.41003,325.264895 C299.213254,325.024503 299.248612,324.670107 299.489005,324.47333 C300.616208,323.550644 301.226451,322.723258 301.235099,322.070275 C301.244949,321.32665 300.431174,320.591551 298.460231,319.935837 C298.212526,319.853428 298.054072,319.611424 298.077587,319.351432 C298.324234,316.624382 299.375655,314.839263 300.983511,313.870781 C301.575112,313.514434 302.205304,313.292979 302.842793,313.17988 C303.184991,313.11917 303.493022,313.095153 303.752588,313.095153 L304.013567,313.104396 Z"/><path id="Fill-67" fill="#E4EBF7" d="M188.9989,461.47025 C188.9989,461.47025 155.9944,531.85925 208.3579,544.94975 C228.6289,550.01825 252.1144,549.57425 270.5959,548.50775 C311.0014,546.17825 332.5429,533.98625 337.5934,528.47975 C351.1549,513.69275 342.7039,495.43175 345.7804,460.03025 C348.5869,427.75175 368.0569,389.32775 350.3329,371.51225 C336.9844,363.45725 320.1994,357.41825 302.2489,352.37525 C288.5464,348.52325 279.1459,373.27325 265.6864,373.01225 C254.5159,372.79625 246.7429,352.22225 236.3014,352.08425 C215.2534,351.80525 201.2479,349.97225 193.2229,366.86675 C193.2229,366.86675 191.7454,446.18075 188.9989,461.47025"/><path id="Fill-69" fill="#FFF" d="M233.76745,354.1961 C233.76745,354.1961 244.39495,407.9771 256.57345,444.5771 C284.56345,388.6301 298.38595,365.1776 302.87545,354.3476 L264.76345,370.4771 L233.76745,354.1961 Z"/><polygon id="Fill-71" fill="#253368" points="248.656 377.127 262.047 367.827 276.777 378.127 269.406 390.481 252.411 390.044"/><polygon id="Fill-73" fill="#253368" points="244.748 404.877 252.714 389.883 269.6 390.412 275.156 407.41 256.062 444.145"/><polygon id="Fill-75" fill="#FFF" points="240.468 381.689 263.422 368.322 241.692 351.586 237.919 355.128"/><polygon id="Fill-77" fill="#FFF" points="263.422 368.323 282.663 383.574 303.297 354.36 299.233 349.162"/><polygon id="Fill-79" fill="#FFF" points="239.606 382.759 262.591 367.875 241.472 349.606 234.422 353.119"/><path id="Stroke-81" fill="#E4EBF7" fill-rule="nonzero" d="M241.137854,348.934823 L234.087854,352.447823 C233.790837,352.595826 233.626392,352.921425 233.683564,353.248313 L238.867564,382.888313 C238.960142,383.417631 239.562987,383.680712 240.014024,383.388625 L262.998524,368.504125 C263.417987,368.232486 263.459472,367.634322 263.081523,367.307379 L241.963023,349.038879 C241.73415,348.840893 241.408714,348.799855 241.137854,348.934823 Z M241.359,350.5 L261.345,367.788 L240.15,381.513 L235.257,353.54 L241.359,350.5 Z"/><polygon id="Fill-83" fill="#FFF" points="262.591 367.874 286.491 384.039 303.91 353.318 297.898 346.866"/><path id="Stroke-85" fill="#E4EBF7" fill-rule="nonzero" d="M304.833984,353.209257 L298.03447,345.912673 L261.192545,367.833446 L286.742738,385.115466 L304.833984,353.209257 Z M297.762,347.82 L302.986,353.426 L286.238,382.963 L263.989,367.914 L297.762,347.82 Z"/><path id="Stroke-87" fill="#96A7CA" fill-rule="nonzero" d="M255.642753,447.062848 L255.744643,447.067599 C256.121884,447.110703 256.401619,447.426656 256.409402,447.796003 L256.404651,447.897893 L253.026651,477.461393 C253.011528,477.593753 252.961421,477.719697 252.881484,477.826271 L252.767507,477.986452 C252.701841,478.081796 252.616584,478.209432 252.513419,478.369715 C252.20643,478.846675 251.862655,479.427421 251.491118,480.113867 C250.42271,482.08784 249.351608,484.507524 248.350014,487.38839 C243.361573,501.736543 241.953915,521.193052 246.331793,546.232078 C246.403132,546.640102 246.130196,547.028703 245.722172,547.100043 C245.314148,547.171382 244.925547,546.898446 244.854207,546.490422 C240.433106,521.204182 241.859456,501.489314 246.933201,486.895805 C247.961559,483.937958 249.065408,481.444296 250.171949,479.39987 C250.496695,478.799874 250.802961,478.273927 251.08548,477.820933 L251.33452,477.430833 L251.558,477.097 L254.914349,447.727607 C254.953534,447.384661 255.218215,447.122297 255.543511,447.071582 L255.642753,447.062848 Z"/><path id="Stroke-89" fill="#96A7CA" fill-rule="nonzero" d="M190.354338,388.515075 C190.448268,388.111652 190.851452,387.860758 191.254875,387.954688 C191.658298,388.048618 191.909192,388.451802 191.815262,388.855225 C191.453199,390.410259 191.540584,395.530392 191.971601,402.944095 L191.999578,403.420413 C192.082765,404.822571 192.17643,406.279969 192.278931,407.778356 L192.357438,408.909609 C192.469381,410.500455 192.586661,412.078116 192.705719,413.611797 L193.026904,417.59716 L193.124945,418.748769 L193.124399,418.885491 L188.900399,463.090491 C188.892891,463.169065 188.873026,463.245962 188.841539,463.318341 L188.46192,464.230865 L188.051046,465.262784 C187.860428,465.750378 187.659544,466.276116 187.450033,466.83811 C186.401405,469.650973 185.352395,472.786916 184.373282,476.164803 C181.566925,485.846577 179.888784,495.526513 179.902143,504.542961 C179.927785,521.849105 186.154033,534.553661 200.261155,540.908013 L200.576697,541.065483 C200.686063,541.11826 200.818292,541.180807 200.973387,541.252478 C201.584175,541.534726 202.319559,541.850214 203.179593,542.190729 C205.646731,543.16755 208.613104,544.145897 212.079196,545.060063 C224.153133,548.244509 238.996288,549.857481 256.616314,549.044823 C279.765093,547.977172 305.703781,542.773295 334.439494,532.576829 C334.829861,532.438312 335.258605,532.642478 335.397121,533.032844 C335.535638,533.423211 335.331472,533.851955 334.941106,533.990471 C306.068244,544.235603 279.984074,549.468667 256.685422,550.54323 C238.912078,551.362959 223.916704,549.733446 211.696659,546.510465 C208.172394,545.580956 205.149411,544.583938 202.6274,543.585392 C201.867828,543.284652 201.200169,543.001808 200.624395,542.742053 L199.964657,542.435598 C199.785589,542.349622 199.661538,542.287068 199.602844,542.255009 C184.926661,535.646027 178.42858,522.386798 178.40175,504.545183 C178.388548,495.368014 180.08985,485.554476 182.932584,475.747203 C183.9226,472.331703 184.983371,469.160601 186.044525,466.31414 L186.356541,465.486854 C186.559981,464.953832 186.754003,464.458128 186.936968,464.001618 L187.358739,462.971538 L187.418,462.829 L191.624,418.812 L191.390084,415.996491 C191.239818,414.13987 191.089553,412.190329 190.946238,410.207855 L190.861138,409.014899 C190.754028,407.492731 190.655351,406.007863 190.566748,404.574444 L190.392922,401.590491 C190.021045,394.756983 189.969979,390.16587 190.354338,388.515075 Z"/><path id="Stroke-91" fill="#96A7CA" fill-rule="nonzero" d="M239.250134,472.573749 L239.482879,472.531005 C244.281308,471.68432 254.177097,471.877733 271.019381,473.817927 C271.430873,473.86533 271.726026,474.237339 271.678623,474.648831 C271.63122,475.060323 271.259211,475.355476 270.847719,475.308073 L269.489858,475.153743 C253.829634,473.398443 244.506693,473.219293 239.936489,473.975218 L239.743529,474.008186 C239.297532,474.086882 238.949899,474.16866 238.689852,474.24837 L238.567077,474.288028 C238.436257,474.332669 238.384868,474.356588 238.394916,474.350155 C238.046063,474.57348 237.58222,474.471719 237.358895,474.122866 C237.13557,473.774013 237.237331,473.31017 237.586184,473.086845 C237.83507,472.927516 238.351303,472.745634 239.250134,472.573749 Z"/><path id="Stroke-93" fill="#96A7CA" fill-rule="nonzero" d="M242.337558,460.843107 C242.450965,460.444721 242.865856,460.2137 243.264243,460.327108 L244.00807,460.535376 C244.607205,460.701579 245.285504,460.886834 246.029273,461.086371 C248.154483,461.65652 250.377584,462.226671 252.588775,462.758635 C253.48655,462.974619 254.365022,463.180033 255.219977,463.373417 L256.066936,463.562737 C261.220857,464.700679 265.097551,465.29373 267.07531,465.158692 C267.488562,465.130476 267.846442,465.442609 267.874658,465.85586 C267.902874,466.269112 267.590741,466.626992 267.17749,466.655208 C265.00447,466.803578 261.043316,466.197606 255.743537,465.02746 C254.615529,464.778405 253.443729,464.507115 252.237918,464.217024 C250.013005,463.681759 247.777595,463.108451 245.640599,462.535141 L243.978374,462.083425 L242.853557,461.769792 C242.455171,461.656385 242.22415,461.241494 242.337558,460.843107 Z"/><path id="Fill-95" fill="#E4EBF7" d="M375.93925,498.1529 L375.93925,498.1529 C392.74375,491.8799 401.22175,473.1194 394.82425,456.3629 L369.36775,389.6804 C363.03775,373.0979 344.51575,364.7279 327.88675,370.9349 L327.88525,370.9349 C311.08225,377.2079 302.60425,395.9684 309.00175,412.7264 L334.45825,479.4074 C340.78825,495.9899 359.31025,504.3599 375.93925,498.1529"/><path id="Stroke-97" fill="#96A7CA" fill-rule="nonzero" d="M327.624309,370.23226 C328.012367,370.0874 328.444381,370.284552 328.58924,370.672609 C328.7341,371.060667 328.536948,371.492681 328.148891,371.63754 C311.898465,377.703709 303.619778,395.724795 309.519165,411.967279 L309.70228,412.458917 L331.11028,468.537917 C331.258007,468.924892 331.064058,469.358354 330.677083,469.50608 C330.322356,469.641496 329.928567,469.48981 329.751612,469.165519 L329.70892,469.072883 L308.300922,412.993889 C301.754978,395.847046 310.429557,376.650938 327.624309,370.23226 Z"/><path id="Fill-99" fill="#E4EBF7" d="M202.18765,340.32185 L185.95615,321.69935 C181.20115,316.24385 172.95865,315.58235 167.39365,320.20985 L106.05865,371.22185 C92.91865,383.29385 92.05465,403.73285 104.12665,416.87285 C115.97665,429.76985 135.88915,430.84085 149.04565,419.45585 C149.53765,419.03135 149.99065,418.55585 150.41515,418.06235 L202.24765,357.75935 C206.56315,352.74035 206.53765,345.31235 202.18765,340.32185"/><path id="Stroke-101" fill="#96A7CA" fill-rule="nonzero" d="M168.38119,319.426026 C174.367244,314.860021 182.865743,315.823857 187.683481,321.556846 L187.903202,321.824829 L203.335251,341.114891 C207.629273,346.483586 207.408463,354.149369 202.861246,359.259286 L202.622188,359.521288 L148.292188,417.583288 C148.009176,417.88574 147.534564,417.9015 147.232112,417.618488 C146.957156,417.361205 146.919135,416.945574 147.127125,416.644894 L147.196912,416.558412 L201.526841,358.496488 C205.718783,354.01535 206.055452,347.180406 202.36897,342.315263 L202.163898,342.051871 L186.731868,322.761833 C182.465523,317.428194 174.721084,316.47668 169.29091,320.618674 C168.96157,320.869886 168.490938,320.806551 168.239726,320.47721 C167.988514,320.14787 168.051849,319.677238 168.38119,319.426026 Z"/><path id="Fill-103" fill="#A08889" d="M330.90565,591.12875 C337.65115,579.60125 334.28365,565.78775 334.28365,565.78775 C334.28365,565.78775 323.35015,553.72325 311.73415,555.59075 C311.73415,555.59075 304.69015,554.85875 297.11815,566.21075 C292.49665,573.14075 281.34715,576.54725 284.44765,580.99325 C286.13965,583.41725 291.62815,582.25925 302.81065,577.44875 C317.39065,593.66225 330.90565,591.12875 330.90565,591.12875"/><path id="Fill-105" fill="#E4EBF7" d="M303.2677,555.0071 L336.9307,571.2086 C340.8142,573.0776 345.4837,571.5791 347.5537,567.7976 L393.3187,484.2281 C401.1982,468.2186 394.6057,448.8521 378.5947,440.9741 C362.7082,433.1561 343.5172,439.5866 335.5252,455.3291 C335.4007,455.5721 335.2897,455.8241 335.1862,456.0761 L299.2717,544.6586 C297.6652,548.6231 299.4142,553.1516 303.2677,555.0071"/><path id="Stroke-107" fill="#96A7CA" fill-rule="nonzero" d="M335.420808,456.113313 C335.609682,455.744668 336.061641,455.598934 336.430287,455.787808 C336.798932,455.976682 336.944666,456.428641 336.755792,456.797287 C336.677732,456.949643 336.601651,457.113498 336.523431,457.296261 L336.444345,457.485601 L300.529862,546.066561 C299.103676,549.584753 300.591715,553.59528 303.930723,555.344278 L304.156054,555.457497 L337.819054,571.658997 C338.19229,571.83863 338.349236,572.286818 338.169603,572.660054 C338.00494,573.002187 337.614615,573.162576 337.263218,573.048569 L337.168546,573.010603 L303.505422,556.809044 C299.376465,554.820908 297.458885,550.022133 299.04255,545.753461 L299.139755,545.502999 L335.054944,456.920305 C335.177509,456.62011 335.295075,456.35872 335.420808,456.113313 Z"/><path id="Stroke-109" fill="#3B4A7A" fill-rule="nonzero" d="M302.495012,578.249133 C302.844038,577.953032 303.367016,577.995936 303.663117,578.344962 L303.914756,578.628457 C303.973852,578.693329 304.041448,578.766712 304.117424,578.848158 C304.501976,579.260395 304.955674,579.721081 305.475295,580.218097 C306.963541,581.641601 308.677606,583.06622 310.591093,584.395294 C316.843429,588.738055 323.679836,591.05634 330.81884,590.304409 C331.274028,590.256465 331.681897,590.586602 331.729841,591.04179 C331.777785,591.496978 331.447648,591.904847 330.99246,591.952791 C323.406015,592.751849 316.197148,590.30726 309.645536,585.756627 C307.657035,584.37545 305.877272,582.896227 304.329608,581.415891 C303.89525,581.000428 303.503909,580.608176 303.157119,580.245318 L302.684856,579.739606 C302.554944,579.59689 302.45942,579.488242 302.399183,579.417238 C302.103082,579.068212 302.145986,578.545234 302.495012,578.249133 Z"/><path id="Stroke-111" fill="#96A7CA" fill-rule="nonzero" d="M234.270189,352.384216 C234.642005,352.307259 235.006474,352.519957 235.129302,352.868369 L235.183048,353.094035 L236.718979,360.413415 C237.148763,362.445432 237.605496,364.593199 238.085768,366.838295 L238.29303,367.806385 C240.518937,378.194858 242.801373,388.583235 245.028546,398.367708 L245.504911,400.454918 C246.05567,402.861579 246.597024,405.203847 247.127922,407.476043 L247.983907,411.117079 C251.246257,424.905798 253.95979,435.335344 255.953575,441.500272 L256.185,442.207 L257.987898,438.608775 C270.800942,413.171926 298.136742,361.722166 303.111652,353.198568 L303.26565,352.936357 C303.476509,352.57983 303.936466,352.461742 304.292993,352.6726 C304.64952,352.883459 304.767608,353.343416 304.55675,353.699943 L304.049593,354.573722 C297.831024,365.43635 267.723499,422.199382 256.735335,444.477906 C256.443042,445.070531 255.582736,445.022948 255.357581,444.401703 L255.160957,443.85019 C253.00062,437.694872 249.859984,425.683915 245.984881,409.173657 L245.024615,405.05476 C244.700844,403.657 244.373468,402.234852 244.042711,400.789539 L243.087613,396.593664 C241.330724,388.835152 239.544792,380.730951 237.78396,372.573617 L236.212919,365.250955 L233.687766,353.270661 C233.603813,352.865044 233.864573,352.468169 234.270189,352.384216 Z"/></g></svg>