<svg xmlns="http://www.w3.org/2000/svg" xmlns:xlink="http://www.w3.org/1999/xlink" width="512" height="1024" version="1.1" viewBox="0 0 512 1024"><title>2.人物组件/1.商人/站立/看手机</title><desc>Created with Sketch.</desc><defs><polygon id="path-1" points="1.417 1.071 101.468 1.071 101.468 22.5 1.417 22.5"/><polygon id="path-3" points=".053 .877 121.189 .877 121.189 118.316 .053 118.316"/><polygon id="path-5" points="1.231 1.006 80.19 1.006 80.19 57.66 1.231 57.66"/><polygon id="path-7" points="0 1.226 134.645 1.226 134.645 91.989 0 91.989"/></defs><g id="2.人物组件/1.商人/站立/看手机" fill="none" fill-rule="evenodd" stroke="none" stroke-width="1"><path id="Fill-1" fill="#B69882" d="M289.1542,521.7664 C289.1542,521.7664 311.4157,508.5544 310.3042,496.4419 C309.2992,485.4709 295.1257,484.8589 295.1257,484.8589 C295.1257,484.8589 286.9777,486.9079 275.2672,489.0904 C269.2387,490.2154 255.9907,485.2879 259.0627,488.3299 C265.1947,494.4019 266.8732,496.2919 269.6377,499.3249 C275.2387,505.4674 250.3882,520.1899 247.6252,524.0284 C242.2267,531.5329 262.5727,537.8179 289.1542,521.7664"/><path id="Stroke-3" fill="#607491" fill-rule="nonzero" d="M270.668822,514.417649 C270.892719,514.191667 271.257418,514.189976 271.483401,514.413872 C271.709383,514.637769 271.711074,515.002468 271.487178,515.228451 L271.192118,515.517209 C271.09369,515.611673 270.976976,515.722362 270.842451,515.848198 C270.322067,516.334968 269.71685,516.87668 269.032813,517.459615 C267.080283,519.123558 264.885236,520.787016 262.495329,522.340146 C258.556685,524.899754 254.48407,526.901588 250.367318,528.130966 C250.062503,528.221992 249.74161,528.048682 249.650584,527.743868 C249.559558,527.439053 249.732868,527.11816 250.037682,527.027134 C254.038977,525.832236 258.015043,523.877859 261.867591,521.374202 C264.213134,519.849902 266.369029,518.216115 268.285604,516.582813 C268.844063,516.106895 269.348259,515.659594 269.794632,515.248872 L270.391377,514.689007 C270.516603,514.568867 270.609466,514.477559 270.668822,514.417649 Z"/><path id="Stroke-5" fill="#607491" fill-rule="nonzero" d="M276.784027,518.33645 C277.029269,518.133832 277.392331,518.168385 277.59495,518.413627 C277.797568,518.658869 277.763015,519.021931 277.517773,519.22455 C272.373839,523.474462 267.221297,526.670895 262.306388,528.962722 C260.582986,529.766346 259.011219,530.399681 257.62176,530.881359 C257.133489,531.050625 256.70231,531.188956 256.332051,531.29868 L256.001963,531.393325 C255.94544,531.40883 255.90026,531.420726 255.866666,531.42916 C255.558127,531.506627 255.245207,531.319306 255.16774,531.010766 C255.090273,530.702227 255.277594,530.389307 255.586134,530.31184 L256.004735,530.194158 L256.458068,530.054726 C256.618756,530.003641 256.78894,529.947898 256.968373,529.88735 L257.244431,529.792907 C258.597335,529.323901 260.132572,528.705287 261.819537,527.918653 C266.648534,525.666887 271.718024,522.521976 276.784027,518.33645 Z"/><path id="Stroke-7" fill="#607491" fill-rule="nonzero" d="M283.337114,520.216923 C283.568316,519.99842 283.932873,520.008713 284.151377,520.239914 C284.36988,520.471116 284.359587,520.835673 284.128386,521.054177 L283.888216,521.270397 L283.56768,521.545492 C283.450795,521.643864 283.32384,521.748832 283.186726,521.86016 C282.407783,522.492613 281.457595,523.204363 280.330385,523.98042 C277.119543,526.191004 273.13122,528.479008 268.319328,530.724513 C268.031056,530.859038 267.688311,530.7344 267.553787,530.446128 C267.419262,530.157856 267.5439,529.815111 267.832172,529.680587 C272.58578,527.46228 276.518582,525.206127 279.677115,523.031555 C280.641428,522.36765 281.470851,521.753663 282.169272,521.199592 L282.460587,520.96583 C282.909635,520.601231 283.199881,520.34662 283.337114,520.216923 Z"/><path id="Fill-9" fill="#E4EBF7" d="M232.92025,806.62795 L236.13775,837.18745 C236.13775,837.18745 222.76975,840.88045 210.03775,839.75095 C188.25625,837.81595 194.12125,843.20245 168.31375,845.99095 C145.57825,848.44795 130.50325,837.60445 140.40475,832.56745 C168.90925,818.06695 181.53475,805.69195 181.53475,805.69195 C181.53475,805.69195 191.30875,770.92045 205.53475,767.26495 C227.88475,761.52145 232.92025,806.62795 232.92025,806.62795"/><path id="Fill-11" fill="#B0BEDC" d="M143.4037,833.07205 C143.4037,833.07205 143.4262,836.37355 156.5797,841.38805 C171.9022,847.22905 194.8477,838.42105 208.2832,834.53905 C228.9757,828.55855 230.8852,832.59055 234.7042,829.61005 C238.3192,835.09255 234.7492,840.59905 234.7492,840.59905 C234.7492,840.59905 230.3467,843.04105 214.5667,843.14905 C198.7912,843.25705 199.0492,847.50355 179.3572,850.14205 C151.6162,853.85905 137.6437,846.26755 136.5187,840.57955 C135.1057,833.42455 140.1907,830.43355 143.4037,833.07205"/><path id="Fill-13" fill="#4E5C93" d="M203.65855,719.08315 L203.65855,719.08315 C182.77405,719.96515 164.86705,704.32015 162.93355,683.50765 L155.27455,601.01515 C152.99905,576.51115 171.70255,555.09265 196.29055,554.04715 C220.73155,553.00615 241.12255,572.52565 241.14955,596.98915 L241.241073,679.83715 C241.26355,700.88065 224.68405,718.19665 203.65855,719.08315"/><path id="Fill-15" fill="#4E5C93" d="M200.1268,647.4295 C222.3283,646.234 240.9778,663.925 240.9463,686.158 C240.8848,728.863 240.7828,789.661 240.7828,789.661 L240.7828,789.661 C246.7198,796.7365 242.7943,817.0495 229.3618,812.692 C204.7858,804.7195 184.3048,813.481 175.6018,807.652 C166.9018,801.823 173.6608,788.5765 173.6638,788.5705 C173.6638,788.5705 167.9473,731.158 163.6813,690.1075 C161.3923,668.0785 178.0108,648.6205 200.1268,647.4295"/><path id="Fill-17" fill="#E4EBF7" d="M271.28305,809.0794 L268.10605,839.6434 C268.10605,839.6434 281.47855,843.3199 294.20755,842.1724 C315.98905,840.2104 310.12855,845.6044 335.94055,848.3599 C358.67755,850.7884 373.74055,839.9269 363.83155,834.9019 C335.30905,820.4374 322.66855,808.0789 322.66855,808.0789 C322.66855,808.0789 312.85105,773.3194 298.62055,769.6804 C276.26305,763.9654 271.28305,809.0794 271.28305,809.0794"/><g id="分组" transform="translate(266.500000, 830.993500)"><mask id="mask-2" fill="#fff"><use xlink:href="#path-1"/></mask><path id="Fill-19" fill="#B0BEDC" d="M94.33485,4.41645 C94.33485,4.41645 94.31685,7.71795 81.16935,12.75045 C65.85285,18.60945 42.89685,9.83145 29.45685,5.96595 C8.75685,0.01095 6.85185,4.04595 3.02835,1.07145 C-0.57915,6.55695 2.99685,12.05895 2.99685,12.05895 C2.99685,12.05895 7.40385,14.49645 23.18235,14.58345 C38.96085,14.67045 38.70735,18.91845 58.40235,21.53295 C86.14935,25.21395 100.11135,17.60445 101.22885,11.91645 C102.63285,4.75995 97.54335,1.77495 94.33485,4.41645" mask="url(#mask-2)"/></g><path id="Fill-21" fill="#4E5C93" d="M290.9911,718.79005 L290.9911,718.79005 C311.8681,717.75355 328.2676,700.53205 328.2811,679.63105 L328.342614,596.78305 C328.3621,572.17255 307.7731,552.56005 283.1926,553.77355 C258.7591,554.97955 240.2446,576.28705 242.4601,600.64855 L249.9676,683.15605 C251.8741,704.11255 269.9731,719.83405 290.9911,718.79005"/><path id="Fill-23" fill="#4E5C93" d="M287.93695,647.1145 C265.71745,647.959 248.77045,667.2865 250.84195,689.4235 C254.81845,731.9425 260.49595,792.475 260.49595,792.475 L260.49595,792.4765 C255.23245,800.065 261.00445,819.9325 273.98095,814.3615 C297.71995,804.169 318.91945,811.0165 327.05095,804.412 C335.18095,797.8105 327.23395,785.239 327.23245,785.2345 L327.23245,785.2345 C327.23245,785.2345 327.65845,727.5385 328.14295,686.2705 C328.40245,664.123 310.06795,646.273 287.93695,647.1145"/><g id="分组" transform="translate(299.500000, 407.993500)"><mask id="mask-4" fill="#fff"><use xlink:href="#path-3"/></mask><path id="Fill-25" fill="#E4EBF7" d="M3.8178,92.80215 L23.4438,113.85765 C28.5588,119.34465 37.0908,119.83215 42.7968,114.96015 L110.9118,56.81865 C123.9633,44.65215 124.6803,24.20715 112.5153,11.15565 L112.5138,11.15565 C100.3488,-1.89735 79.9038,-2.61435 66.8493,9.55215 L4.0743,73.41915 C-1.1862,78.76965 -1.2987,87.31365 3.8178,92.80215" mask="url(#mask-4)"/></g><path id="Fill-27" fill="#E4EBF7" d="M411.58735,458.73205 L411.58735,458.73205 C422.25985,444.43255 419.31835,424.18705 405.01885,413.51455 L341.87335,366.38755 C327.57385,355.71505 307.32985,358.65505 296.65735,372.95605 C285.98485,387.25555 288.92485,407.49955 303.22435,418.17205 L366.36835,465.30055 C380.66935,475.97305 400.91485,473.03305 411.58735,458.73205"/><path id="Stroke-29" fill="#96A7CA" fill-rule="nonzero" d="M352.879968,432.745696 C353.174835,432.45479 353.649698,432.458001 353.940604,432.752868 C354.205064,433.020929 354.226452,433.437747 354.006617,433.729878 L353.933432,433.813504 L304.360584,482.720337 C299.46296,487.703173 299.280113,495.611625 303.887378,500.812641 L304.117827,501.066221 L323.743827,522.121721 C324.026254,522.424719 324.009577,522.8993 323.706579,523.181727 C323.431126,523.438478 323.01387,523.448038 322.72809,523.220007 L322.646573,523.144479 L303.020605,502.089013 C297.713577,496.396133 297.747701,487.582207 303.04672,481.923608 L303.298968,481.660696 L352.879968,432.745696 Z"/><path id="Fill-31" fill="#B69882" d="M273.64585,313.31725 L276.31735,349.80925 C277.52485,366.29125 263.13985,380.41975 246.61435,380.71525 C230.15935,381.00925 215.30485,367.48975 215.81935,351.03925 L216.97585,314.11075 L273.64585,313.31725 Z"/><path id="Fill-33" fill="#AA8972" d="M198.7894,316.92265 C200.3734,322.99765 205.1284,327.01615 209.4094,325.90015 C213.6934,324.78415 215.8804,318.95365 214.2964,312.88015 C212.7124,306.80515 207.9574,302.78515 203.6749,303.90265 C199.3924,305.01865 197.2054,310.84765 198.7894,316.92265"/><path id="Fill-35" fill="#AA8972" d="M288.4174,316.6411 C286.5184,322.6261 281.5609,326.3911 277.3429,325.0546 C273.1249,323.7166 271.2439,317.7811 273.1414,311.7961 C275.0389,305.8126 279.9979,302.0461 284.2144,303.3841 C288.4339,304.7221 290.3149,310.6576 288.4174,316.6411"/><path id="Fill-37" fill="#B69882" d="M280.2787,311.5042 C280.5157,337.3147 273.2887,347.5177 245.8417,348.4717 C222.3442,349.2877 208.4542,339.6652 208.2022,312.1672 C207.9787,287.8612 213.2902,268.2427 243.8377,267.9622 C276.6367,267.6607 280.0777,289.7332 280.2787,311.5042"/><g id="分组" transform="translate(202.000000, 259.493500)"><mask id="mask-6" fill="#fff"><use xlink:href="#path-5"/></mask><path id="Fill-39" fill="#51342D" d="M74.24895,42.3819 C77.47995,44.9769 74.93595,55.8909 77.47995,56.9934 C79.16595,56.6964 79.07295,46.5609 80.08395,33.8814 C80.74995,25.5009 78.17295,18.5814 75.40995,15.6219 C72.28095,12.2724 69.37545,12.7809 62.09445,6.7344 C51.02895,-2.4561 28.52445,-0.2781 21.30645,11.0514 C9.18645,9.7539 -3.11055,19.7229 2.72895,42.4764 C5.41545,52.9434 5.61045,57.9984 6.81195,57.6429 C8.77695,57.0624 5.58195,46.3914 9.77445,42.9744 C15.02145,38.6979 11.97645,29.7819 15.24645,25.7484 C15.24645,25.7484 40.16745,10.5954 67.89645,25.2639 C70.75095,29.4624 68.00745,37.3704 74.24895,42.3819" mask="url(#mask-6)"/></g><path id="Stroke-41" fill="#51342D" fill-rule="nonzero" d="M225.867179,295.875403 C228.906223,294.44952 232.558593,293.859449 236.743134,294.567736 C237.559943,294.705992 238.110019,295.480225 237.971764,296.297034 C237.833508,297.113843 237.059275,297.663919 236.242466,297.525664 C232.687735,296.923979 229.648676,297.414965 227.141456,298.591322 C226.536254,298.875276 226.014994,299.177027 225.580869,299.474742 L225.282801,299.68855 C225.232227,299.726849 225.192155,299.758589 225.162709,299.78294 L225.126524,299.81382 C224.508175,300.365124 223.559984,300.310773 223.00868,299.692424 C222.457376,299.074075 222.511727,298.125884 223.130076,297.57458 C223.642157,297.118022 224.559378,296.489008 225.867179,295.875403 Z"/><path id="Stroke-43" fill="#51342D" fill-rule="nonzero" d="M251.988024,294.425769 C255.487709,293.784444 258.798282,294.202976 261.756964,295.290391 C262.956132,295.731125 263.835878,296.180309 264.343041,296.501828 C265.042715,296.945391 265.250334,297.872167 264.806772,298.571841 C264.389301,299.230358 263.543793,299.453006 262.862443,299.10712 L262.56445,298.93509 C262.510556,298.905137 262.446405,298.870409 262.372284,298.83152 L262.253663,298.770141 C261.814105,298.54571 261.300924,298.318986 260.722048,298.10623 C258.234659,297.192031 255.454275,296.840527 252.528776,297.376631 C251.713918,297.525956 250.932293,296.986434 250.782969,296.171576 C250.633644,295.356718 251.173166,294.575093 251.988024,294.425769 Z"/><path id="Stroke-45" fill="#7C5B4D" fill-rule="nonzero" d="M238.527304,298.05114 C238.77969,297.93083 239.076845,298.01516 239.231203,298.237661 L239.27711,298.316854 L241.71611,303.433354 C241.786684,303.581403 241.789127,303.75288 241.7228,303.90288 L241.545521,304.323035 C241.507841,304.41518 241.466391,304.517974 241.421615,304.630803 L241.352011,304.807496 C241.0711,305.525765 240.790022,306.310886 240.527807,307.136266 C240.080677,308.543713 239.736071,309.918769 239.534184,311.202625 C238.791939,315.922773 240.006766,318.375587 243.959761,317.943727 C244.268584,317.909989 244.546284,318.132988 244.580023,318.441811 C244.613761,318.750634 244.390762,319.028334 244.081939,319.062073 C239.180815,319.597515 237.582669,316.370754 238.422841,311.027866 C238.634492,309.681912 238.992479,308.253466 239.455613,306.795642 C239.725679,305.945548 240.0149,305.137681 240.304289,304.397737 L240.591,303.687 L238.26159,298.800946 C238.14128,298.54856 238.22561,298.251405 238.448111,298.097047 L238.527304,298.05114 Z"/><path id="Fill-47" fill="#51342D" d="M233.5195,307.2217 C233.539,309.2482 232.2835,310.9042 230.7175,310.9177 C229.15,310.9327 227.8645,309.3007 227.848,307.2742 C227.8285,305.2462 229.0825,303.5917 230.65,303.5782 C232.216,303.5632 233.5,305.1952 233.5195,307.2217"/><path id="Fill-49" fill="#51342D" d="M260.54725,306.97345 C260.56675,308.99995 259.31275,310.65595 257.74525,310.66945 C256.17925,310.68445 254.89375,309.05245 254.87575,307.02595 C254.85625,304.99795 256.11175,303.34345 257.67775,303.32995 C259.24375,303.31495 260.52925,304.94695 260.54725,306.97345"/><path id="Fill-51" fill="#51342D" d="M257.03305,325.14085 C257.03305,325.14085 256.65655,318.21835 243.45655,318.50785 C236.50105,318.66085 231.37405,321.15385 230.85505,325.94485 C230.19205,332.05135 244.07605,324.69685 244.07605,324.69685 C244.07605,324.69685 259.06255,331.31635 257.03305,325.14085"/><path id="Stroke-53" fill="#7C5B4D" fill-rule="nonzero" d="M247.093123,329.188142 C247.395752,329.11796 247.697975,329.306394 247.768158,329.609023 C247.83834,329.911652 247.649906,330.213875 247.347277,330.284058 C246.749427,330.422705 246.072012,330.508426 245.328543,330.548442 C244.240854,330.606986 243.082888,330.566267 241.953828,330.462914 L241.450111,330.412043 L240.946257,330.349818 C240.63879,330.305391 240.425554,330.020124 240.469982,329.712657 C240.514409,329.40519 240.799676,329.191954 241.107143,329.236382 L241.555394,329.292143 C241.700261,329.308206 241.868317,329.325383 242.056381,329.342598 C243.135597,329.441388 244.242019,329.480295 245.268079,329.425068 C245.950769,329.388324 246.565203,329.310572 247.093123,329.188142 Z"/><path id="Stroke-55" fill="#7C5B4D" fill-rule="nonzero" d="M272.650467,338.69772 C272.857314,338.465936 273.212895,338.44572 273.44468,338.652567 C273.676464,338.859414 273.69668,339.214995 273.489833,339.44678 C272.614377,340.42778 271.634294,341.320406 270.568275,342.128898 C268.978191,343.334852 267.277173,344.298242 265.575876,345.043956 C265.09898,345.252989 264.648855,345.432818 264.23255,345.584953 L263.78257,345.743272 L263.389,345.869 L263.338365,345.90644 C263.199013,346.005616 263.006088,346.132787 262.759388,346.281445 L262.604912,346.373167 C261.901774,346.784725 261.059345,347.194524 260.076932,347.575813 C256.093791,349.121731 251.103376,349.757515 245.100115,348.982765 L244.583,348.912 L244.106484,348.988549 C238.694377,349.811268 234.118096,349.248217 230.39531,347.776987 L230.013239,347.621571 C229.097964,347.238541 228.309708,346.826944 227.648889,346.413627 L227.334665,346.210778 C227.146127,346.084848 226.999488,345.978356 226.894803,345.896282 L226.412983,345.689198 L225.84497,345.434749 C225.545494,345.298133 225.223166,345.147426 224.879562,344.982609 C223.246118,344.199095 221.46421,343.257899 219.592243,342.15826 C219.32438,342.00091 219.234791,341.656207 219.39214,341.388343 C219.54949,341.12048 219.894193,341.030891 220.162057,341.18824 C222.005778,342.271288 223.760026,343.197874 225.366113,343.968266 C225.927276,344.237439 226.42947,344.467722 226.865363,344.659161 L227.394759,344.885368 L227.543144,344.974118 L227.667024,345.070569 C227.795881,345.166331 227.988768,345.299279 228.245455,345.459827 C228.855642,345.841476 229.589837,346.224844 230.44754,346.583781 C234.047843,348.09046 238.539149,348.69471 243.922844,347.878542 L244.482962,347.789023 L244.655887,347.78693 C250.735431,348.657525 255.732013,348.055382 259.669885,346.527034 C260.595528,346.167779 261.384182,345.784137 262.036622,345.402254 L262.299502,345.244154 C262.418314,345.170588 262.51819,345.105554 262.599164,345.050437 L262.785415,344.916219 L262.981853,344.81684 L263.306619,344.71612 C263.38089,344.691677 263.46489,344.663341 263.558102,344.631009 C264.029528,344.467489 264.556224,344.262565 265.124245,344.013589 C266.749064,343.301398 268.374161,342.381006 269.888453,341.232535 C270.898552,340.466454 271.825136,339.622553 272.650467,338.69772 Z"/><path id="Stroke-57" fill="#7C5B4D" fill-rule="nonzero" d="M244.49159,341.306411 C244.770931,341.294501 245.011359,341.488426 245.066298,341.753596 L245.077539,341.84444 L245.347539,348.17744 C245.360772,348.487818 245.119888,348.750157 244.80951,348.763389 C244.530169,348.775299 244.289741,348.581374 244.234802,348.316204 L244.223561,348.22536 L243.953561,341.89236 C243.940328,341.581982 244.181212,341.319643 244.49159,341.306411 Z"/><path id="Stroke-59" fill="#7C5B4D" fill-rule="nonzero" d="M201.388988,310.16515 C202.192005,308.600259 203.048735,307.755678 204.097571,308.275216 C205.09104,308.767328 205.759699,310.649376 206.247036,314.274914 C206.262611,314.390786 206.241694,314.508632 206.187193,314.612067 C205.255695,316.379894 205.362869,317.514986 206.040726,318.245139 C206.199961,318.416658 206.356205,318.52934 206.462251,318.587474 L206.519477,318.615843 C206.80446,318.739515 206.935228,319.070795 206.811557,319.355777 C206.687885,319.64076 206.356605,319.771528 206.071623,319.647857 C205.838987,319.546901 205.525467,319.343628 205.216254,319.01056 C204.238858,317.957761 204.057905,316.38566 205.06983,314.327293 L205.108,314.251 L205.086533,314.095662 C204.672044,311.18427 204.132705,309.640666 203.651438,309.314548 L203.598212,309.283316 C203.396334,309.183316 202.912554,309.660235 202.389901,310.678764 C202.206551,311.036069 202.036234,311.421985 201.884248,311.808271 L201.750305,312.161993 C201.727425,312.225282 201.709276,312.277487 201.69614,312.316861 C201.597827,312.611555 201.279233,312.770753 200.984539,312.67244 C200.689845,312.574127 200.530647,312.255533 200.62896,311.960839 L200.732447,311.670187 C200.762753,311.588744 200.797808,311.49691 200.837366,311.39637 C201.002029,310.977863 201.186893,310.558985 201.388988,310.16515 Z"/><path id="Stroke-61" fill="#7C5B4D" fill-rule="nonzero" d="M283.600942,307.415558 C284.50145,307.295339 285.22083,308.066129 285.933092,309.397089 C286.141141,309.785858 286.332485,310.19939 286.50371,310.612567 L286.656618,310.995645 C286.683234,311.065385 286.704802,311.124032 286.721049,311.16992 C286.824729,311.462768 286.671378,311.784218 286.37853,311.887899 C286.085682,311.991579 285.764232,311.838228 285.660551,311.54538 L285.564472,311.290773 C285.535766,311.217777 285.50231,311.134698 285.464418,311.043261 C285.306351,310.661835 285.130027,310.280764 284.941193,309.927902 C284.454683,309.018791 283.971493,308.50107 283.749809,308.530664 C283.316781,308.588474 282.749094,310.002882 282.344693,313.078404 L282.286,313.541 L282.327159,313.618652 C283.3407,315.590221 283.231022,317.12662 282.358373,318.191592 L282.250017,318.317124 C281.950118,318.647263 281.645832,318.851248 281.419816,318.954116 C281.137065,319.082808 280.803525,318.957918 280.674834,318.675166 C280.559011,318.42069 280.64859,318.125075 280.87379,317.974681 L280.953784,317.930184 C281.051196,317.885847 281.232053,317.764606 281.417298,317.560682 C282.090248,316.819873 282.182518,315.681602 281.21448,313.922323 C281.158158,313.819965 281.135105,313.70261 281.148521,313.586553 C281.619511,309.51241 282.359525,307.581287 283.600942,307.415558 Z"/><path id="Fill-63" fill="#4E5C93" d="M163.4311,533.2171 C163.4311,533.2171 163.2541,537.7621 161.3371,544.7791 C157.6546,558.2401 151.5256,583.0696 156.1876,600.9931 C160.9096,619.1446 198.7741,635.6191 243.0061,636.8656 C264.6316,637.4761 315.4621,631.0201 326.2546,603.0601 C333.0826,585.3706 325.8946,561.6391 322.4926,548.4061 C320.6341,541.1761 317.8336,536.7256 317.8336,536.7256 C317.8336,536.7256 176.0956,533.5741 163.4311,533.2171"/><path id="Stroke-65" fill="#3B4A7A" fill-rule="nonzero" d="M240.778306,536.8054 C241.157992,536.802614 241.473864,537.082441 241.526231,537.448139 L241.53383,537.549856 L242.21335,629.478856 C242.216391,629.893059 241.883096,630.231318 241.468894,630.2344 C241.089208,630.237186 240.773336,629.957359 240.720969,629.591661 L240.71337,629.489944 L240.03385,537.560944 C240.030809,537.146741 240.364104,536.808482 240.778306,536.8054 Z"/><path id="Stroke-67" fill="#3B4A7A" fill-rule="nonzero" d="M168.570389,532.611698 L314.175389,536.717198 C314.589438,536.728873 314.915627,537.07399 314.904256,537.488039 C314.89325,537.867584 314.602364,538.173302 314.235034,538.212627 L314.133111,538.216602 L168.528111,534.111102 C168.114062,534.099427 167.787873,533.75431 167.799244,533.340261 C167.81025,532.960716 168.101136,532.654998 168.468466,532.615673 L168.570389,532.611698 Z"/><path id="Stroke-69" fill="#3B4A7A" fill-rule="nonzero" d="M170.896206,544.350526 C170.99298,543.947776 171.397924,543.699733 171.800674,543.796506 L172.742521,544.011322 L174.009413,544.285476 C174.706759,544.433042 175.468052,544.589095 176.291886,544.752389 L177.310415,544.95174 C181.807234,545.821049 187.008897,546.690641 192.849754,547.502431 C228.686764,552.483229 269.019126,553.01239 310.582756,546.206607 C310.991526,546.139673 311.37716,546.416786 311.444093,546.825556 C311.511027,547.234326 311.233914,547.61996 310.825144,547.686893 C269.098621,554.519349 228.619216,553.988259 192.643262,548.98815 C186.77565,548.172641 181.547959,547.298698 177.025712,546.424473 L175.508881,546.125752 C174.542721,545.931794 173.66709,545.748574 172.884413,545.578245 L171.450226,545.254994 C171.047476,545.15822 170.799433,544.753276 170.896206,544.350526 Z"/><path id="Fill-71" fill="#E4EBF7" d="M330.97405,367.43665 C331.81705,357.30115 296.49055,354.25315 279.69505,354.53665 C276.39655,354.59215 260.45455,369.92515 245.57455,369.34765 C229.84855,368.73565 215.34805,351.96715 212.54305,352.079086 C191.95705,352.90615 169.47805,355.45615 156.69205,359.32015 C156.69205,359.32015 155.49205,386.50915 162.95605,422.41465 C162.95605,422.41465 159.12505,445.54765 160.25455,459.83215 C160.25455,459.83215 135.90955,529.73215 170.10355,538.34815 C175.13605,539.61715 195.64555,542.21515 217.31005,542.62315 C244.13005,543.13015 275.17855,544.85215 292.79605,542.65165 C332.95705,537.63565 341.25655,524.87815 327.89605,463.12765 C327.89605,463.12765 326.61805,432.09565 325.31455,418.35415 C330.80155,383.58115 330.97405,367.43665 330.97405,367.43665"/><path id="Fill-73" fill="#FFF" d="M214.07215,360.6841 C214.07215,360.6841 233.14165,421.6801 242.99215,446.8861 C270.02365,386.6326 277.29715,354.2731 278.13715,354.1801 L240.07615,370.4296 L214.07215,360.6841 Z"/><polygon id="Fill-75" fill="#51342D" points="231.565 376.699 244.927 367.358 257.197 376.717 251.427 392.906 235.93 392.564"/><polygon id="Fill-77" fill="#51342D" points="229.772 412.047 236.036 391.239 251.425 391.672 257.18 413.989 242.744 446.446"/><polygon id="Fill-79" fill="#FFF" points="245.638 367.096 267.373 385.455 280.627 354.643 276.675 348.535"/><path id="Stroke-81" fill="#E4EBF7" fill-rule="nonzero" d="M276.289707,347.891474 L245.253207,366.452474 C244.811505,366.716628 244.761017,367.337016 245.154195,367.669114 L266.889195,386.027614 C267.273885,386.352543 267.86313,386.213586 268.062111,385.751016 L281.316111,354.939516 C281.414969,354.709702 281.392729,354.445727 281.256815,354.235692 L277.304315,348.127692 C277.084889,347.788601 276.636344,347.684172 276.289707,347.891474 Z M276.437,349.55 L279.78,354.714 L267.084,384.228 L246.924,367.2 L276.437,349.55 Z"/><polygon id="Fill-83" fill="#FFF" points="244.384 366.638 220.951 384.991 210.954 353.524 216.519 347.684"/><path id="Stroke-85" fill="#E4EBF7" fill-rule="nonzero" d="M215.975712,347.166935 L210.410712,353.006435 C210.221829,353.204635 210.155956,353.490013 210.238859,353.750949 L220.236359,385.217949 C220.394729,385.716416 221.001829,385.903802 221.413594,385.581312 L244.846594,367.228812 C245.246476,366.915628 245.225945,366.30388 244.805966,366.018212 L216.940466,347.064212 C216.637054,346.857832 216.228866,346.901294 215.975712,347.166935 Z M216.622,348.662 L243.113,366.68 L221.338,383.734 L211.802,353.719 L216.622,348.662 Z"/><path id="Stroke-87" fill="#96A7CA" fill-rule="nonzero" d="M210.234035,352.801669 C210.592661,352.676944 210.981727,352.840363 211.148884,353.169811 L211.203388,353.305683 L223.017915,387.232431 L242.817,443.928 L255.013464,414.707877 C258.439542,406.511643 261.83052,398.41048 265.107832,390.594539 L277.368641,361.438832 C278.410527,358.970772 279.408563,356.609858 280.360255,354.36213 C280.521754,353.980697 280.961888,353.802406 281.34332,353.963905 C281.724753,354.125404 281.903044,354.565538 281.741545,354.94697 L272.891878,375.929841 L268.443109,386.521132 C263.277555,398.831036 257.780745,411.968587 252.274512,425.154834 L243.449775,446.312351 C243.185355,446.947373 242.276919,446.921161 242.049554,446.271949 L232.797464,419.815346 C228.254162,406.807906 223.506408,393.195381 218.750514,379.545044 L209.772019,353.756415 C209.635955,353.365187 209.842807,352.937732 210.234035,352.801669 Z"/><path id="Stroke-89" fill="#96A7CA" fill-rule="nonzero" d="M223.415111,478.140237 C236.684169,477.053369 252.134621,477.405854 268.188696,480.222282 C268.596679,480.293856 268.869392,480.682613 268.797818,481.090596 C268.726244,481.498579 268.337487,481.771292 267.929504,481.699718 C252.384747,478.972643 237.401429,478.575641 224.458566,479.562407 L223.537566,479.635231 C222.278954,479.738324 221.148305,479.847798 220.154432,479.95799 L219.203225,480.068718 L218.413479,480.171701 C218.003573,480.231281 217.622979,479.947285 217.563399,479.537379 C217.503819,479.127473 217.787815,478.746879 218.197721,478.687299 L219.019782,478.579977 L219.564743,478.515153 C220.533598,478.403226 221.640696,478.291391 222.877256,478.185325 L223.415111,478.140237 Z"/><path id="Stroke-91" fill="#96A7CA" fill-rule="nonzero" d="M225.794019,468.187327 L229.126898,468.420483 L232.257478,468.629647 C233.316004,468.69887 234.386786,468.767347 235.4616,468.834329 L237.075818,468.933588 C238.379874,469.012671 239.653208,469.087112 240.887643,469.156168 L244.243539,469.335288 C250.35986,469.64445 254.721309,469.759683 256.629425,469.622773 C257.042576,469.593129 257.401533,469.904023 257.431177,470.317175 C257.460821,470.730326 257.149927,471.089283 256.736775,471.118927 L256.235581,471.147305 C253.821314,471.253341 248.933645,471.093131 242.230398,470.732156 L238.920548,470.546096 L236.985019,470.430837 C235.367394,470.332738 233.749728,470.230438 232.159726,470.126459 L225.685181,469.683373 C225.27206,469.653319 224.961522,469.294053 224.991577,468.880931 C225.019127,468.502236 225.323305,468.209741 225.69202,468.186771 L225.794019,468.187327 Z"/><path id="Stroke-93" fill="#96A7CA" fill-rule="nonzero" d="M242.746112,445.273748 C243.125769,445.268415 243.443553,445.546068 243.498428,445.911399 L243.506724,446.013062 L244.868724,541.575062 C244.874627,541.989233 244.54366,542.329771 244.129488,542.335752 C243.749831,542.341085 243.432047,542.063432 243.377172,541.698101 L243.368876,541.596438 L242.006876,446.034438 C242.000973,445.620267 242.33194,445.279729 242.746112,445.273748 Z"/><path id="Stroke-95" fill="#96A7CA" fill-rule="nonzero" d="M326.954613,397.427987 C327.367611,397.460659 327.676708,397.821165 327.644999,398.234163 L327.009323,406.435519 L326.064,418.366 L328.639,462.997 L328.856012,463.775673 L329.15536,464.898427 C329.225158,465.165877 329.297041,465.445126 329.37081,465.735839 L329.482853,466.180466 C330.130297,468.767441 330.777523,471.652423 331.381547,474.763224 C333.163636,483.941213 334.208346,493.137695 334.141424,501.731998 C334.069862,510.922119 332.716911,518.867301 329.845299,525.201888 C324.466182,537.06886 317.009995,540.719087 291.374249,542.83122 C253.108848,545.982109 218.172305,545.132468 188.083832,541.779486 L186.698582,541.622961 C181.025229,540.97305 175.982627,540.279152 171.612748,539.582611 L170.848585,539.459673 C169.434042,539.229979 168.183794,539.01478 167.102215,538.818385 L166.239488,538.65902 L165.643148,538.544912 C165.463767,538.509945 165.342601,538.485698 165.186301,538.44714 C164.738815,538.292547 163.994626,537.94583 163.053225,537.356066 C161.504257,536.385677 159.95985,535.070954 158.521952,533.36203 C155.586959,529.873828 153.477339,525.206086 152.540175,519.202933 C152.476286,518.793676 152.756261,518.410115 153.165517,518.346225 C153.574774,518.282336 153.958335,518.562311 154.022225,518.971567 C154.917338,524.70536 156.91204,529.118836 159.669714,532.396297 C161.00354,533.981531 162.428835,535.194857 163.849571,536.084912 C164.243888,536.331942 164.614202,536.538734 164.954238,536.708329 L165.431912,536.93221 C165.535182,536.978074 165.593868,537.003472 165.581972,537.003561 L166.51749,537.185007 L168.206481,537.492114 C169.073721,537.645022 170.035179,537.807945 171.089007,537.979066 L172.623684,538.223671 C176.530084,538.834867 180.958017,539.442444 185.878617,540.018026 L186.869298,540.132707 C217.175779,543.604465 252.500473,544.527128 291.251116,541.336283 L292.738442,541.210295 C316.679351,539.124533 323.472929,535.626822 328.479111,524.58259 C331.252147,518.465455 332.571405,510.718134 332.641469,501.720319 C332.707517,493.23834 331.673583,484.136725 329.909048,475.049139 C329.370212,472.274067 328.796784,469.68071 328.220055,467.322082 L327.809102,465.682923 C327.738151,465.40718 327.669192,465.143043 327.602423,464.890849 L327.176367,463.338823 L327.147445,463.171445 L324.564445,418.396445 L324.565623,418.293015 L325.355416,408.340723 C325.618911,404.985406 325.885998,401.550132 326.149401,398.119337 C326.178467,397.740755 326.483814,397.44948 326.852617,397.427987 L326.954613,397.427987 Z"/><path id="Fill-97" fill="#E4EBF7" d="M109.8559,488.4163 L109.8559,488.4163 C125.5114,496.9783 145.1434,491.2288 153.7054,475.5748 L191.5159,406.4473 C200.0779,390.7918 194.3284,371.1598 178.6744,362.5963 C163.0189,354.0343 143.3869,359.7838 134.8249,375.4393 L97.0129,444.5668 C88.4509,460.2208 94.2004,479.8543 109.8559,488.4163"/><path id="Stroke-99" fill="#96A7CA" fill-rule="nonzero" d="M167.020297,390.357178 C167.386208,390.255798 167.763947,390.443924 167.90955,390.783449 L167.943322,390.879697 L171.010822,401.951197 C171.025573,402.004438 171.034373,402.059063 171.037118,402.114073 L171.036681,402.196753 L169.454181,428.347753 C169.429161,428.76121 169.073705,429.0761 168.660247,429.051081 C168.281245,429.028146 167.985066,428.727553 167.957606,428.359146 L167.956919,428.257147 L169.531,402.23 L166.497778,391.280203 C166.396398,390.914292 166.584524,390.536553 166.924049,390.39095 L167.020297,390.357178 Z"/><path id="Fill-101" fill="#607493" d="M260.14735,420.8035 L237.39685,420.1615 C235.13935,420.0985 233.32135,418.291 233.24335,416.035 L231.62935,368.7085 C231.54685,366.244 233.55835,364.2205 236.02285,364.2895 L264.66835,365.098 C267.13135,365.167 269.02735,367.3015 268.80385,369.757 L264.52585,416.917 C264.32035,419.1655 262.40485,420.8665 260.14735,420.8035"/><path id="Fill-103" fill="#253368" d="M260.0785,423.2527 L237.3265,422.6107 C235.0705,422.5477 233.2525,420.7402 233.1745,418.4842 L231.5605,371.1577 C231.478,368.6932 233.4895,366.6697 235.954,366.7387 L264.598,367.5472 C267.0625,367.6162 268.9585,369.7507 268.735,372.2062 L264.457,419.3662 C264.2515,421.6147 262.336,423.3157 260.0785,423.2527"/><path id="Fill-105" fill="#B69882" d="M233.3569,435.6424 C233.3569,435.6424 208.0624,441.1444 200.6194,431.5234 C193.8799,422.8114 203.8324,412.7044 203.8324,412.7044 C203.8324,412.7044 211.1929,408.6484 221.2489,402.2674 C226.4284,398.9809 232.7644,386.3449 232.5889,390.6649 C232.2394,399.2884 232.2994,401.8159 232.3429,405.9184 C232.4329,414.2314 260.6494,408.0679 265.2874,408.9949 C274.3534,410.8054 263.7484,429.2719 233.3569,435.6424"/><path id="Stroke-107" fill="#7C5B4D" fill-rule="nonzero" d="M265.565817,412.833059 C265.850902,412.691904 266.196437,412.808583 266.337591,413.093667 C266.478746,413.378752 266.362067,413.724287 266.076983,413.865441 C264.594973,414.599232 263.030883,415.24783 261.394681,415.815808 C257.463073,417.180593 253.263248,418.03763 249.017906,418.485916 C246.403667,418.761966 244.145189,418.849784 242.426714,418.829102 L241.829709,418.816283 C241.511851,418.803475 241.264559,418.535417 241.277367,418.217559 C241.290175,417.899701 241.558233,417.652409 241.876091,417.665217 L242.114625,417.6718 C243.824197,417.707946 246.16025,417.629265 248.896934,417.340285 C253.06048,416.900636 257.176052,416.060792 261.0169,414.727513 C262.608816,414.174909 264.128451,413.544745 265.565817,412.833059 Z"/><path id="Stroke-109" fill="#7C5B4D" fill-rule="nonzero" d="M263.745211,419.016605 C264.023781,418.862993 264.374133,418.964291 264.527745,419.242861 C264.681357,419.521431 264.580059,419.871783 264.301489,420.025395 L264.103164,420.130332 C264.016668,420.174875 263.909851,420.228743 263.782917,420.291213 C263.364661,420.497056 262.869207,420.725762 262.298179,420.971558 C260.672577,421.67129 258.764311,422.370046 256.586423,423.021601 C251.70999,424.480474 246.20885,425.490597 240.140042,425.851484 C239.822487,425.870368 239.549749,425.628247 239.530866,425.310692 C239.511982,424.993137 239.754103,424.720399 240.071658,424.701516 C246.049041,424.346065 251.462713,423.352003 256.25624,421.917933 C258.390593,421.279402 260.257136,420.595924 261.84271,419.913422 C262.17444,419.77063 262.479112,419.634126 262.756371,419.505151 L263.27423,419.257606 C263.511863,419.140656 263.669407,419.058405 263.745211,419.016605 Z"/><path id="Stroke-111" fill="#7C5B4D" fill-rule="nonzero" d="M254.353166,426.90261 C254.655812,426.804616 254.980596,426.970519 255.07859,427.273166 C255.176584,427.575812 255.010681,427.900596 254.708034,427.99859 C249.710126,429.616867 245.270921,430.656182 241.436824,431.231269 L240.682504,431.339767 C238.740221,431.606764 237.353194,431.698498 236.553941,431.695638 C236.230876,431.69334 235.974841,431.433619 235.9771,431.115511 C235.979161,430.829214 236.189739,430.593197 236.463735,430.550513 L236.557216,430.543642 L236.650633,430.543236 C236.887531,430.540561 237.270551,430.525396 237.795849,430.488149 C238.780111,430.418359 239.938719,430.291088 241.265943,430.092014 C245.038018,429.526229 249.41568,428.501323 254.353166,426.90261 Z"/><g id="分组" transform="translate(91.000000, 403.493500)"><mask id="mask-8" fill="#fff"><use xlink:href="#path-7"/></mask><path id="Fill-113" fill="#E4EBF7" d="M133.7655,37.3491 L123.744,10.3656 C121.1325,3.3321 113.445,-0.3969 106.3035,1.9056 L21.069,29.3826 C4.3425,35.5956 -4.182,54.1926 2.0295,70.9191 C8.241,87.6471 26.838,96.1716 43.566,89.9586 L126.075,55.1436 C132.987,52.2261 136.377,44.3826 133.7655,37.3491" mask="url(#mask-8)"/></g><path id="Stroke-115" fill="#96A7CA" fill-rule="nonzero" d="M196.301757,403.772983 C203.720557,401.381079 211.699265,405.1691 214.557759,412.380447 L214.675477,412.687182 L224.697,439.670743 C227.409504,446.976277 223.976143,455.11119 216.900449,458.282923 L216.594982,458.415799 L134.085982,493.232299 C133.704354,493.393336 133.264437,493.214511 133.103401,492.832882 C132.955784,492.483056 133.093745,492.084252 133.411715,491.896175 L133.502818,491.850301 L216.011875,457.033777 C222.454782,454.315675 225.664587,447.073957 223.399272,440.496025 L223.290823,440.192918 L213.2693,413.209357 C210.834872,406.652761 203.740456,403.129134 197.075625,405.103517 L196.768341,405.198555 L132.667341,426.492555 C132.27425,426.623138 131.849728,426.410333 131.719145,426.017241 C131.599444,425.656907 131.768284,425.270163 132.100036,425.107626 L132.194459,425.069045 L196.301757,403.772983 Z"/><path id="Stroke-117" fill="#3B4A7A" fill-rule="nonzero" d="M225.601463,633.027796 C225.751189,632.641591 226.185648,632.449886 226.571854,632.599613 L226.866273,632.706984 C227.117937,632.795897 227.414895,632.895382 227.754975,633.002826 C228.731407,633.311316 229.854476,633.620375 231.106788,633.909141 C238.861892,635.697363 247.279436,635.872948 255.482284,633.393968 C255.878787,633.274141 256.297355,633.498431 256.417182,633.894934 C256.537009,634.291437 256.312719,634.710005 255.916216,634.829832 C247.431564,637.393975 238.759343,637.213078 230.769752,635.370787 C229.477614,635.072837 228.316374,634.753273 227.303088,634.433139 L226.801457,634.270423 L226.127689,634.035168 C226.086776,634.020031 226.05405,634.007648 226.029646,633.998187 C225.643441,633.848461 225.451736,633.414002 225.601463,633.027796 Z"/><path id="Stroke-119" fill="#3B4A7A" fill-rule="nonzero" d="M292.442447,600.817166 C292.743488,600.532654 293.218173,600.546055 293.502684,600.847097 C293.761331,601.120771 293.77377,601.537952 293.547716,601.825299 L293.472753,601.907334 L265.691253,628.163334 C265.390212,628.447846 264.915527,628.434445 264.631016,628.133403 C264.372369,627.859729 264.35993,627.442548 264.585984,627.155201 L264.660947,627.073166 L292.442447,600.817166 Z"/><path id="Stroke-121" fill="#3B4A7A" fill-rule="nonzero" d="M191.869831,601.35928 C192.143498,601.100626 192.560678,601.088175 192.848032,601.31422 L192.93007,601.389181 L219.18757,629.170681 C219.47209,629.471715 219.458703,629.9464 219.157669,630.23092 C218.884002,630.489574 218.466822,630.502025 218.179468,630.27598 L218.09743,630.201019 L191.83993,602.419519 C191.55541,602.118485 191.568797,601.6438 191.869831,601.35928 Z"/></g></svg>