<svg xmlns="http://www.w3.org/2000/svg" xmlns:xlink="http://www.w3.org/1999/xlink" width="512" height="1024" version="1.1" viewBox="0 0 512 1024"><title>2.人物组件/1.商人/站立/讲解</title><desc>Created with Sketch.</desc><defs><polygon id="path-1" points="1.423 .889 40.449 .889 40.449 71.655 1.423 71.655"/><polygon id="path-3" points="0 .073 135.323 .073 135.323 64.688 0 64.688"/></defs><g id="2.人物组件/1.商人/站立/讲解" fill="none" fill-rule="evenodd" stroke="none" stroke-width="1"><g id="分组" transform="translate(363.000000, 265.610500)"><mask id="mask-2" fill="#fff"><use xlink:href="#path-1"/></mask><path id="Fill-1" fill="#B69882" d="M1.4229,63.2556 C1.4229,63.2556 8.9874,16.4766 26.2659,0.9906 C32.1234,-0.1074 28.0599,7.9461 25.1499,14.4441 C23.6619,17.7681 23.0319,21.6891 23.0319,21.6891 C23.0319,21.6891 30.8604,19.1766 30.5604,25.5651 C36.8979,23.8701 35.8839,30.7746 35.8839,30.7746 C35.8839,30.7746 40.8009,29.6931 40.4289,35.9811 C40.1724,40.3041 37.7019,48.7386 35.6664,54.7131 C30.1074,71.0316 23.5164,68.8236 20.0289,70.1271 C11.2044,73.4226 5.4564,71.4996 1.4229,63.2556" mask="url(#mask-2)"/></g><path id="Stroke-3" fill="#7C5B4D" fill-rule="nonzero" d="M375.386029,293.194293 C375.872859,287.691709 377.904792,285.039282 380.341602,286.350509 C382.477098,287.499601 383.606646,291.397731 382.711107,295.352845 L382.524479,296.193482 C381.010257,303.162623 381.329462,305.693218 383.060333,308.112261 L383.307407,308.448347 C383.96643,309.338416 384.30459,309.899925 384.560069,310.679152 L385.105057,312.500623 C385.812518,314.994148 386.049411,317.030989 385.621139,319.076122 C385.027805,321.909474 383.155392,324.228709 379.742942,325.900252 C379.463954,326.036911 379.127006,325.92153 378.990348,325.642542 C378.853689,325.363554 378.96907,325.026606 379.248058,324.889948 C382.355611,323.367754 383.999392,321.33171 384.520023,318.845537 C384.880484,317.124222 384.708508,315.361973 384.134983,313.214864 L383.964231,312.60554 C383.825297,312.131767 383.574344,311.30309 383.554457,311.234954 C383.354795,310.549704 383.105724,310.088564 382.572119,309.348635 L382.259091,308.923172 C380.226145,306.172844 379.819674,303.364094 381.423691,295.962196 L381.613888,295.10438 C382.409012,291.592742 381.429855,288.213616 379.808523,287.341191 C378.382529,286.573876 376.930852,288.471191 376.50849,293.27017 L376.481869,293.594404 L376.462558,293.703656 L372.199558,308.886656 C372.11558,309.18575 371.805039,309.360136 371.505944,309.276158 C371.236759,309.200578 371.068588,308.941481 371.098866,308.672378 L371.116442,308.582544 L375.365,293.449 L375.386029,293.194293 Z"/><path id="Stroke-5" fill="#7C5B4D" fill-rule="nonzero" d="M393.726243,290.637215 C394.023171,290.728559 394.189829,291.043315 394.098485,291.340243 L393.94324,291.824977 L393.741231,292.429041 C393.669193,292.640324 393.592527,292.861087 393.511457,293.089989 C393.047963,294.398659 392.535605,295.707684 391.988017,296.932018 C390.696612,299.81943 389.424882,301.788719 388.130493,302.499582 C387.753125,302.706828 387.368765,302.809016 386.982733,302.790172 C383.875474,302.637428 382.800342,300.706891 383.336224,297.846754 C383.490684,297.022363 383.771176,296.152869 384.14128,295.269183 C384.292384,294.908396 384.451431,294.562052 384.61256,294.235836 L384.774166,293.91654 C384.904504,293.665176 385.006938,293.481065 385.067587,293.378024 C385.225168,293.110297 385.569949,293.021006 385.837676,293.178587 C386.105403,293.336168 386.194694,293.680949 386.037113,293.948676 L385.903341,294.187845 C385.864911,294.258875 385.821128,294.341367 385.772887,294.434402 C385.570472,294.824768 385.367828,295.252791 385.178947,295.703777 C384.837184,296.519795 384.580118,297.316671 384.441983,298.053931 C384.018876,300.312162 384.709386,301.552062 387.037776,301.666519 C387.201678,301.67452 387.384035,301.626037 387.588949,301.513501 C388.58851,300.964554 389.771074,299.133339 390.961053,296.472705 C391.495052,295.278753 391.996831,293.996756 392.451003,292.714406 L392.676299,292.066348 L393.023215,291.009457 C393.114559,290.712529 393.429315,290.545871 393.726243,290.637215 Z"/><path id="Stroke-7" fill="#7C5B4D" fill-rule="nonzero" d="M398.738324,296.205909 C399.044975,296.255655 399.253238,296.544573 399.203491,296.851224 L399.127444,297.260795 L399.02067,297.763906 C398.981196,297.939787 398.937799,298.123482 398.890361,298.313898 C398.619063,299.4029 398.271862,300.492519 397.839885,301.513923 C396.681311,304.253354 395.12831,306.038056 393.061133,306.34601 C390.74889,306.690472 389.476777,305.474512 389.12499,303.390849 C388.996902,302.632173 389.000459,301.836279 389.08218,301.085965 L389.1199,300.786483 C389.127732,300.732999 389.134982,300.688617 389.141216,300.654119 C389.196461,300.348411 389.489073,300.14537 389.794781,300.200616 C390.100489,300.255861 390.30353,300.548473 390.248284,300.854181 L390.211572,301.111631 C390.207955,301.141698 390.204269,301.173781 390.200566,301.207775 C390.129119,301.863763 390.125998,302.562131 390.234292,303.203565 C390.493385,304.738198 391.265378,305.476114 392.895367,305.23329 C394.469513,304.998784 395.782923,303.489419 396.80374,301.075712 C397.210626,300.113636 397.540595,299.078098 397.798727,298.041944 C397.866546,297.769715 397.925623,297.512247 397.976295,297.273327 L398.024178,297.040729 C398.059903,296.861631 398.082568,296.735438 398.093009,296.671076 C398.137781,296.39509 398.376281,296.198799 398.647082,296.198565 L398.738324,296.205909 Z"/><path id="Stroke-9" fill="#7C5B4D" fill-rule="nonzero" d="M403.457591,300.110254 C403.767558,300.130987 404.002029,300.399073 403.981296,300.709041 L403.947503,301.077559 L403.893502,301.52789 C403.872588,301.685294 403.84869,301.849669 403.821591,302.020048 C403.666527,302.994996 403.439388,303.970772 403.124851,304.886797 C402.116931,307.822163 400.433495,309.55435 397.918004,309.270456 C395.674865,309.017448 394.800165,307.683311 395.108866,305.808745 C395.208312,305.20487 395.423892,304.574287 395.720304,303.937987 C395.815618,303.73338 395.915324,303.536868 396.016578,303.350701 L396.169263,303.07949 C396.262177,302.919983 396.335736,302.802738 396.380354,302.735733 C396.552538,302.477155 396.901739,302.40712 397.160317,302.579304 C397.418895,302.751488 397.48893,303.100689 397.316746,303.359267 L397.198344,303.54922 C397.180658,303.578761 397.161614,303.610981 397.141365,303.645744 C397.004645,303.880455 396.867645,304.139206 396.740085,304.413038 C396.483482,304.96388 396.299553,305.501881 396.218915,305.991547 C396.009635,307.262386 396.477392,307.975833 398.044132,308.152548 C399.897448,308.361711 401.203717,307.017613 402.06083,304.521443 C402.352093,303.673197 402.564972,302.758682 402.710556,301.843339 C402.744576,301.629444 402.773202,301.425878 402.796902,301.235016 L402.828816,300.958547 C402.845607,300.800708 402.855065,300.689857 402.858804,300.633959 C402.879537,300.323992 403.147623,300.089521 403.457591,300.110254 Z"/><path id="Fill-11" fill="#E4EBF7" d="M380.6139,438.07525 L380.6139,438.07525 C387.5349,421.62925 379.8144,402.68425 363.3669,395.76325 L301.8054,369.85375 C285.3594,362.93275 266.4144,370.65325 259.4934,387.10075 C252.5709,403.54675 260.2929,422.49025 276.7389,429.41275 L338.3019,455.32225 C354.7479,462.24325 373.6929,454.52125 380.6139,438.07525"/><path id="Fill-13" fill="#E4EBF7" d="M397.49475,331.65445 L368.87175,322.34245 C363.44625,320.57695 357.57975,323.30995 355.43775,328.59895 L320.61225,414.65995 C314.64825,431.47645 323.44575,449.94445 340.26225,455.90995 C356.87625,461.80195 375.10125,453.28645 381.29025,436.86595 C381.44175,436.46395 381.56625,436.04995 381.67125,435.63295 L404.66775,344.65045 C406.06875,339.10495 402.93225,333.42445 397.49475,331.65445"/><path id="Fill-15" fill="#E4EBF7" d="M309.62385,806.82475 C309.62385,806.82475 329.13285,829.45525 347.26185,835.35625 C357.41685,838.66375 341.23485,850.23775 319.59885,846.35725 C295.03635,841.95025 301.02285,837.17875 280.00335,837.57175 C267.71835,837.80275 255.14835,833.36275 255.14835,833.36275 L260.35635,811.34275 C260.35635,811.34275 286.32135,725.97025 309.62385,806.82475"/><path id="Fill-17" fill="#B0BEDC" d="M344.3532,835.63975 C344.3532,835.63975 344.1102,838.80475 331.1592,842.73025 C316.0722,847.30375 294.6597,837.31825 282.0372,832.69225 C262.5942,825.56875 260.4912,829.30675 257.0292,826.19275 C253.1952,831.20725 256.2492,836.72725 256.2492,836.72725 C256.2492,836.72725 260.3067,839.36425 275.4327,840.52675 C290.5542,841.68925 290.0217,845.74525 308.7297,849.59725 C335.0832,855.02275 348.9912,848.68075 350.4507,843.30175 C352.2882,836.53525 347.6097,833.32525 344.3532,835.63975"/><path id="Fill-19" fill="#E4EBF7" d="M158.3055,808.94515 C158.3055,808.94515 138.5685,831.37765 120.381,837.09565 C110.193,840.29815 126.258,852.03715 147.9315,848.37415 C172.5375,844.21615 166.599,839.38315 187.6125,839.99065 C199.896,840.34465 212.511,836.03215 212.511,836.03215 L207.525,813.96115 C207.525,813.96115 184.347,731.52865 158.3055,808.94515"/><path id="Fill-21" fill="#B0BEDC" d="M123.2862,837.40705 C123.2862,837.40705 123.4977,840.57355 136.4082,844.63105 C151.4472,849.35605 172.9602,839.58805 185.6292,835.08955 C205.1427,828.16255 207.2082,831.92305 210.7002,828.84355 C214.4847,833.89705 211.3752,839.38555 211.3752,839.38555 C211.3752,839.38555 207.2892,841.98205 192.1542,842.99155 C177.0207,844.00105 177.5112,848.06155 158.7672,851.72305 C132.3597,856.88155 118.5177,850.40005 117.1122,845.00755 C115.3437,838.22155 120.0522,835.05955 123.2862,837.40705"/><path id="Fill-23" fill="#4E5C93" d="M314.5098,785.1715 C314.5098,785.1715 325.4853,563.014 312.1068,557.5945 C293.5473,550.078 237.6888,570.586 234.8613,601.996 C232.0353,633.4075 251.1168,791.944 251.1168,791.944 C251.1168,791.944 246.3303,811.042 254.4708,816.5965 C265.6653,821.1715 276.6273,801.517 308.9433,805.7125 C323.8323,798.2845 314.5098,785.1715 314.5098,785.1715"/><path id="Fill-25" fill="#4E5C93" d="M239.5362,605.9281 L216.9942,786.9016 C216.9942,786.9016 226.0317,812.6266 208.0857,817.0036 C202.5042,818.3656 192.1782,811.6036 180.2082,810.0871 C168.2382,808.5706 154.6257,812.2996 151.7217,807.4336 C145.9137,797.7031 152.4762,782.8591 152.4762,782.8591 C152.4762,782.8591 146.2137,629.9896 152.9922,571.3216 C155.7492,547.4701 235.4667,571.5031 239.5362,605.9281"/><path id="Fill-27" fill="#4E5C93" d="M308.04405,528.26275 C308.04405,528.26275 320.83605,571.44475 315.16155,593.97325 C310.57905,612.16075 263.35905,633.94525 234.68355,635.53075 C219.29355,636.38275 163.89405,620.25325 157.02855,598.09975 C150.28005,576.32575 153.89805,560.82925 157.57605,548.43325 C160.22805,539.49475 163.25655,527.78725 163.25655,527.78725 C163.25655,527.78725 295.39305,528.96325 308.04405,528.26275"/><path id="Stroke-29" fill="#3B4A7A" fill-rule="nonzero" d="M284.872999,609.966622 C285.224149,610.187011 285.329366,610.649983 285.108978,611.000699 L284.9655,611.218602 L284.910959,611.298731 C284.75242,611.530252 284.561191,611.797377 284.336613,612.097134 C283.699314,612.947773 282.920767,613.893136 281.995699,614.909389 C279.360867,617.803938 276.07711,620.69514 272.102594,623.391503 C262.992592,629.571846 251.686795,633.79404 238.007549,635.191634 L236.991,635.289 L217.737481,786.997081 C217.689675,787.373755 217.370257,787.649528 217.000842,787.652703 L216.899019,787.646681 C216.522345,787.598875 216.246572,787.279457 216.243397,786.910042 L216.249419,786.808219 L235.579919,634.501219 C235.624458,634.150288 235.908152,633.87819 236.260636,633.848327 C250.409172,632.649639 262.002466,628.430951 271.260477,622.150198 C275.133726,619.522536 278.328788,616.709425 280.886442,613.899662 C281.778744,612.919405 282.526964,612.010866 283.136153,611.197748 L283.429136,610.798829 C283.518638,610.674286 283.600007,610.558297 283.673321,610.451232 L283.838922,610.202601 C284.059311,609.851451 284.522283,609.746234 284.872999,609.966622 Z"/><path id="Stroke-31" fill="#3B4A7A" fill-rule="nonzero" d="M252.081032,562.364117 C252.492143,562.313518 252.866434,562.60577 252.917033,563.016882 L252.992047,563.697726 L253.096432,564.787408 C253.154261,565.434044 253.211262,566.147267 253.265468,566.923292 C254.264449,581.224961 253.39726,597.409681 249.237331,612.755891 C248.234829,616.454178 247.055398,620.007538 245.689298,623.397809 C245.534488,623.782005 245.097537,623.967959 244.713341,623.813148 C244.329145,623.658338 244.143191,623.221387 244.298002,622.837191 C245.641311,619.503479 246.802143,616.006154 247.789579,612.363446 C251.898614,597.204983 252.757422,581.176688 251.769114,567.027813 L251.670331,565.717798 C251.636713,565.304231 251.602547,564.914044 251.568255,564.548057 L251.458224,563.459084 C251.446147,563.349996 251.436067,563.263491 251.428267,563.200118 C251.377668,562.789007 251.66992,562.414716 252.081032,562.364117 Z"/><path id="Stroke-33" fill="#3B4A7A" fill-rule="nonzero" d="M196.765639,616.555613 C196.937863,616.217223 197.331655,616.065544 197.680432,616.18733 L197.774237,616.227389 L224.759237,629.961389 C225.12839,630.14927 225.275341,630.600834 225.087461,630.969987 C224.915237,631.308377 224.521445,631.460056 224.172668,631.33827 L224.078863,631.298211 L197.093863,617.564211 C196.72471,617.37633 196.577759,616.924766 196.765639,616.555613 Z"/><path id="Stroke-35" fill="#3B4A7A" fill-rule="nonzero" d="M306.675561,538.180404 C306.993122,537.914458 307.466149,537.956299 307.732096,538.273861 C307.998042,538.591422 307.956201,539.064449 307.638639,539.330396 L307.344689,539.566313 L307.039261,539.802121 C306.875465,539.926764 306.695046,540.061398 306.497992,540.205506 C305.564736,540.888006 304.446076,541.646896 303.141622,542.462937 C299.424626,544.788216 294.959926,547.111081 289.744568,549.277475 C276.045625,554.967843 259.703888,558.575502 240.703919,559.099521 C216.51426,559.766671 189.633331,555.353382 160.045987,544.86379 C159.655582,544.72538 159.4513,544.296691 159.58971,543.906287 C159.72812,543.515882 160.156809,543.3116 160.547213,543.45001 C189.963364,553.878909 216.660729,558.262061 240.662564,557.600091 C259.475534,557.08123 275.636742,553.513425 289.169156,547.892231 C294.30651,545.758239 298.697837,543.473548 302.346093,541.191271 L303.167659,540.66901 C303.961872,540.155768 304.674038,539.670213 305.304258,539.218021 L305.96818,538.731385 L306.418964,538.386045 C306.550301,538.283032 306.635819,538.213687 306.675561,538.180404 Z"/><path id="Stroke-37" fill="#3B4A7A" fill-rule="nonzero" d="M251.792094,531.472147 C252.171707,531.464412 252.491306,531.739975 252.548575,532.104938 L252.557538,532.206544 L253.067538,556.710544 C253.076157,557.124668 252.74743,557.467368 252.333306,557.476153 C251.953693,557.483888 251.634094,557.208325 251.576825,556.843362 L251.567862,556.741756 L251.057862,532.237756 C251.049243,531.823632 251.37797,531.480932 251.792094,531.472147 Z"/><path id="Stroke-39" fill="#3B4A7A" fill-rule="nonzero" d="M307.386088,527.548229 C307.799761,527.52707 308.152262,527.845265 308.174418,528.258938 C308.192817,528.638138 307.927061,528.965937 307.564,529.034234 L307.462712,529.046271 L163.620212,536.403771 C163.206539,536.42493 162.854038,536.106735 162.831882,535.693062 C162.813483,535.313862 163.079239,534.986063 163.4423,534.917766 L163.543588,534.905729 L307.386088,527.548229 Z"/><path id="Fill-41" fill="#51342D" d="M190.76055,327.39835 C190.76055,327.39835 186.48855,341.45485 194.62155,345.46285 C201.77055,348.98485 208.62255,347.62435 209.20755,337.89085 C209.79255,328.15885 205.70505,301.65085 199.39455,302.66335 C193.08555,303.67735 190.76055,327.39835 190.76055,327.39835"/><path id="Fill-43" fill="#B69882" d="M226.79865,354.68545 C226.79865,354.68545 242.86665,356.08945 252.76665,349.41145 C264.64965,341.39695 260.83515,315.87145 260.35065,307.52995 C259.50315,292.89445 252.88815,285.28495 252.88815,285.28495 C252.88815,285.28495 246.15015,273.09745 220.51815,273.78145 C194.88765,274.46545 194.60715,298.28995 194.89965,309.27595 C195.19215,320.26045 198.53415,341.04295 205.51215,346.55095 C213.93465,353.19595 226.79865,354.68545 226.79865,354.68545"/><path id="Fill-45" fill="#51342D" d="M258.7338,298.4119 C258.7338,298.4119 269.4258,287.1334 265.0743,278.5474 C260.7228,269.9614 252.4593,269.2654 243.3663,271.7974 C234.2733,274.3309 198.2388,265.0954 194.6973,284.5474 C179.5878,301.8979 191.2983,316.4014 191.2983,316.4014 C191.2983,316.4014 197.5458,309.1534 199.9938,315.0424 C202.4403,320.9314 204.3393,324.9274 206.1213,323.0464 C207.9033,321.1669 206.0583,314.1439 209.1768,310.8544 C212.2953,307.5649 216.0048,297.5749 213.1893,290.9239 C212.1633,286.8289 246.4803,285.4549 253.8888,288.4639 C258.0663,290.1619 258.7338,298.4119 258.7338,298.4119"/><path id="Stroke-47" fill="#51342D" fill-rule="nonzero" d="M247.248014,301.885756 C251.326567,301.007583 254.308239,301.377614 256.321311,302.617402 C257.147459,303.126201 257.65979,303.682342 257.919429,304.137869 C258.329656,304.857595 258.078757,305.773603 257.359031,306.183829 C256.681641,306.569925 255.830383,306.370387 255.390571,305.745535 L255.313071,305.623431 C255.291702,305.58594 255.122762,305.402554 254.748122,305.171825 C253.440696,304.366622 251.244312,304.094046 247.879486,304.818544 C247.06962,304.99292 246.271733,304.477753 246.097356,303.667886 C245.92298,302.85802 246.438147,302.060133 247.248014,301.885756 Z"/><path id="Stroke-49" fill="#51342D" fill-rule="nonzero" d="M223.990667,303.025725 C226.508581,302.270867 229.139056,302.195042 231.564855,302.511416 L231.957664,302.566726 C232.258279,302.612409 232.49085,302.656106 232.646175,302.690576 C233.454926,302.870055 233.965053,303.671174 233.785574,304.479925 C233.606095,305.288676 232.804976,305.798803 231.996225,305.619324 L231.744193,305.570966 C231.59787,305.545685 231.40707,305.516245 231.176878,305.486223 C229.134274,305.219825 226.904456,305.284101 224.85217,305.899366 C224.188414,306.098357 223.563342,306.351489 222.98197,306.661773 C222.251119,307.051835 221.34244,306.775571 220.952377,306.04472 C220.562315,305.313869 220.838579,304.40519 221.56943,304.015127 C222.332094,303.608086 223.141543,303.280288 223.990667,303.025725 Z"/><path id="Stroke-51" fill="#7C5B4D" fill-rule="nonzero" d="M242.315601,310.099763 C242.549956,309.895833 242.905256,309.920497 243.109187,310.154851 L243.323916,310.410134 C243.490907,310.612551 243.676566,310.844793 243.876255,311.103611 C244.446139,311.842241 245.015862,312.647624 245.548367,313.494274 C246.428945,314.89434 247.119356,316.266846 247.547042,317.567573 C249.098347,322.285571 246.976967,325.337091 240.268379,325.516399 C239.95783,325.5247 239.699351,325.279678 239.691051,324.969129 C239.68275,324.65858 239.927772,324.400101 240.238321,324.391801 C246.190582,324.232708 247.795323,321.924353 246.47833,317.918971 C246.082919,316.716403 245.431776,315.421956 244.596066,314.093229 C244.084098,313.279231 243.534743,312.502642 242.985549,311.790828 L242.708613,311.437586 L242.456112,311.126053 C242.361416,311.011267 242.294656,310.932586 242.260513,310.893349 C242.056583,310.658994 242.081247,310.303694 242.315601,310.099763 Z"/><path id="Fill-53" fill="#51342D" d="M226.0143,316.68955 C226.0578,318.33355 227.2203,319.63405 228.6108,319.59805 C230.0013,319.56055 231.0933,318.19855 231.0483,316.55605 C231.0048,314.91205 229.8423,313.61005 228.4518,313.64755 C227.0613,313.68505 225.9708,315.04705 226.0143,316.68955"/><path id="Fill-55" fill="#51342D" d="M249.8151,316.0546 C249.8586,317.6986 251.0211,318.9991 252.4116,318.9631 C253.8021,318.9256 254.8941,317.5636 254.8491,315.9211 C254.8056,314.2771 253.6431,312.9751 252.2526,313.0126 C250.8621,313.0501 249.7716,314.4121 249.8151,316.0546"/><path id="Fill-57" fill="#B69882" d="M253.9605,328.53055 L254.110965,355.08355 C254.196,370.22155 242.4705,382.80505 227.364,383.78905 C210.738,384.87205 196.7085,371.57155 196.9005,354.91255 L197.2185,327.53455 L253.9605,328.53055 Z"/><path id="Fill-59" fill="#51342D" d="M253.93635,331.0663 C253.93635,331.0663 253.19985,324.6073 244.17885,324.2848 C236.38635,324.0058 231.47835,325.8868 228.87885,331.4533 C226.27935,337.0183 242.95185,331.0783 242.95185,331.0783 C242.95185,331.0783 256.38285,336.9553 253.93635,331.0663"/><path id="Fill-61" fill="#B69882" d="M187.57095,323.0038 C188.68395,329.1823 193.11495,333.5563 197.47095,332.7718 C201.82545,331.9873 204.45495,326.3443 203.34345,320.1643 C202.23045,313.9858 197.79795,309.6133 193.44345,310.3978 C189.08745,311.1808 186.45795,316.8253 187.57095,323.0038"/><path id="Stroke-63" fill="#7C5B4D" fill-rule="nonzero" d="M204.344098,341.289531 C204.549062,341.056079 204.904468,341.032985 205.137919,341.237948 C213.982949,349.003619 222.565705,353.089707 230.756774,354.146666 C236.924274,354.942507 242.441185,353.984387 247.175415,351.901194 C248.425302,351.351209 249.52085,350.762664 250.45309,350.175376 C250.696405,350.022093 250.914899,349.877382 251.1081,349.743349 L251.292852,349.612953 C251.431055,349.51364 251.521813,349.444532 251.564008,349.410634 C251.806194,349.216068 252.160251,349.254672 252.354816,349.496858 C252.549382,349.739044 252.510778,350.093101 252.268592,350.287666 L252.036471,350.463416 L251.949355,350.526533 C251.696035,350.708571 251.396812,350.910483 251.052741,351.127239 C250.075009,351.743186 248.930791,352.357877 247.62852,352.930913 C242.715892,355.092605 236.995628,356.086042 230.6128,355.262415 C222.191655,354.175768 213.403366,349.991829 204.395681,342.083352 C204.162229,341.878388 204.139135,341.522982 204.344098,341.289531 Z"/><path id="Stroke-65" fill="#7C5B4D" fill-rule="nonzero" d="M240.293006,345.797611 C240.601534,345.761274 240.881102,345.981928 240.917439,346.290456 L240.944142,346.601315 C241.017582,347.700395 240.95358,348.939225 240.644163,350.127005 C240.112276,352.168794 238.949398,353.59726 237.012809,354.038683 C236.709918,354.107724 236.408407,353.91815 236.339367,353.615259 C236.270326,353.312368 236.4599,353.010857 236.762791,352.941817 C238.23178,352.606978 239.119722,351.516241 239.555495,349.843407 C239.79909,348.908304 239.872128,347.914566 239.838943,347.010747 L239.821645,346.676321 C239.813263,346.550887 239.80511,346.464066 239.800161,346.422044 C239.763824,346.113516 239.984478,345.833948 240.293006,345.797611 Z"/><path id="Stroke-67" fill="#7C5B4D" fill-rule="nonzero" d="M196.601314,316.326923 C198.24889,317.368512 199.259883,319.251012 199.33585,322.101866 C199.342805,322.362839 199.169284,322.594298 198.916829,322.660796 C196.908702,323.189751 196.050216,323.871595 196.012839,324.61449 C195.980025,325.266714 196.536086,326.131065 197.60141,327.123217 C197.828748,327.334941 197.841407,327.690871 197.629683,327.91821 C197.417959,328.145548 197.062029,328.158207 196.83469,327.946483 C195.544886,326.745269 194.83475,325.64142 194.889261,324.55796 C194.952266,323.305669 196.018086,322.366671 198.091046,321.72668 L198.19,321.697 L198.179068,321.530168 C198.012277,319.492746 197.282333,318.168195 196.162729,317.385917 L196.000153,317.277833 C195.268914,316.815548 194.524542,316.637262 193.980101,316.616539 L193.836734,316.614698 C193.527983,316.622925 193.269524,316.377883 193.26125,316.067333 C193.253802,315.787838 193.451542,315.550537 193.717555,315.499839 L193.82145,315.489802 C194.572524,315.479597 195.590223,315.687716 196.601314,316.326923 Z"/><path id="Fill-69" fill="#E4EBF7" d="M307.3446,463.11895 C307.3446,463.11895 339.9876,529.28545 287.9646,543.66145 C262.9506,550.57345 242.4756,551.16745 223.9986,550.01695 C183.6036,547.49845 163.2711,537.30445 158.2476,531.77395 C144.7536,516.92395 153.4326,491.97745 155.1216,464.94895 C157.1421,432.61045 129.7131,388.92295 147.5196,371.18845 C160.9056,363.19495 175.2816,360.19945 193.2546,355.23745 C206.9751,351.44995 216.2616,376.24345 229.7211,376.04395 C240.8931,375.88045 247.7376,357.28495 258.1716,357.67495 C272.6646,358.21495 299.5611,361.89745 307.1631,374.56795 C307.1631,374.56795 310.8006,397.90045 303.2796,433.79395 C303.2796,433.79395 308.4951,448.83595 307.3446,463.11895"/><path id="Fill-71" fill="#FFF" d="M256.67565,363.80845 C256.67565,363.80845 253.93815,417.39595 244.04715,442.58545 C213.33315,389.32645 193.45965,357.30145 192.61965,357.20695 L230.65665,373.51345 L256.67565,363.80845 Z"/><polygon id="Fill-73" fill="#253368" points="246.732 380.238 233.385 370.877 219.335 382.659 227.421 393.503 244.419 393.144"/><polygon id="Fill-75" fill="#253368" points="253.668 409.093 244.116 392.983 227.229 393.433 223.369 406.522 245.029 444.249"/><polygon id="Fill-77" fill="#FFF" points="254.899 384.838 232.008 371.366 253.815 354.73 257.571 358.291"/><polygon id="Fill-79" fill="#FFF" points="232.008 371.366 212.695 386.526 192.198 357.218 196.285 352.04"/><polygon id="Fill-81" fill="#FFF" points="255.756 385.912 232.841 370.921 254.043 352.752 258.405 357.846"/><path id="Stroke-83" fill="#E4EBF7" fill-rule="nonzero" d="M253.55542,352.182154 L232.35292,370.351654 C231.973451,370.676839 232.01216,371.275196 232.430364,371.548779 L255.345864,386.539779 C255.818363,386.848882 256.450077,386.544749 256.503132,385.982624 L259.152132,357.916124 C259.171234,357.713729 259.107357,357.51225 258.975129,357.357833 L254.613129,352.263833 C254.343644,351.949124 253.870027,351.91255 253.55542,352.182154 Z M253.961,353.809 L257.628,358.091 L255.126,384.603 L234.087,370.84 L253.961,353.809 Z"/><polygon id="Fill-85" fill="#FFF" points="232.84 370.921 212.316 388.762 190.089 356.167 197.631 349.75"/><path id="Stroke-87" fill="#E4EBF7" fill-rule="nonzero" d="M234.111382,370.810025 L197.555527,348.829479 L189.089576,356.032609 L212.171513,389.88134 L234.111382,370.810025 Z M197.707,350.67 L231.569,371.031 L212.46,387.642 L191.088,356.301 L197.707,350.67 Z"/><path id="Stroke-89" fill="#96A7CA" fill-rule="nonzero" d="M245.555016,442.358437 C245.934696,442.355072 246.251049,442.634355 246.304045,442.999963 L246.311819,443.101666 L246.603,475.045 L246.910092,475.74279 L247.331551,476.733191 C247.555998,477.269199 247.793141,477.848729 248.041026,478.469645 L248.228923,478.943058 C249.493451,482.14755 250.757579,485.714691 251.937414,489.553095 C255.248929,500.326584 257.263193,511.093375 257.33475,521.161853 C257.415327,532.499494 255.001802,542.250029 249.625872,549.914671 C249.388019,550.253786 248.920294,550.335875 248.581179,550.098022 C248.242064,549.860169 248.159975,549.392444 248.397828,549.053329 C253.573868,541.673678 255.913319,532.222395 255.834788,521.172513 C255.764404,511.269105 253.775733,500.639119 250.503618,489.99381 C249.433077,486.510975 248.292457,483.253853 247.146306,480.293588 L246.83363,479.493656 C246.396227,478.385214 245.99031,477.401477 245.626361,476.553967 L245.172948,475.523355 C245.143458,475.459229 245.123243,475.391425 245.112757,475.321979 L245.104381,475.216834 L244.811787,443.115334 C244.808107,442.701137 245.14082,442.362305 245.555016,442.358437 Z"/><path id="Stroke-91" fill="#96A7CA" fill-rule="nonzero" d="M304.462828,399.176793 C304.86669,399.08477 305.268684,399.337566 305.360707,399.741428 C305.716682,401.303702 305.843008,403.877333 305.795316,407.215722 C305.774314,408.685771 305.72006,410.239737 305.641175,411.819988 L305.590958,412.770831 C305.553573,413.442674 305.51405,414.08128 305.474091,414.675139 L305.381,415.963 L308.364,466.628 L308.730713,467.377352 L309.036117,468.020743 C309.298205,468.579875 309.578781,469.195988 309.874286,469.865691 C311.054952,472.541438 312.235145,475.525199 313.33665,478.742742 C316.588157,488.240531 318.495266,497.760642 318.373851,506.668028 C318.148403,523.207559 310.948791,535.661265 294.996112,542.219231 L294.283656,542.447302 C294.136581,542.493242 293.978127,542.54219 293.808421,542.594013 L293.051583,542.821694 C292.263518,543.055383 291.382149,543.306702 290.410887,543.572115 C286.715167,544.582027 282.477337,545.591491 277.762017,546.533411 C263.555882,549.371189 248.137729,551.006281 232.097655,550.824367 C211.349721,550.58906 191.165201,547.305175 172.137039,540.355412 C168.369482,538.979366 164.661369,537.463412 161.016088,535.804065 L159.652059,535.175082 L159.513753,535.091235 L159.281861,534.903776 C159.21509,534.847872 159.138466,534.782473 159.052606,534.707581 C158.701476,534.401306 158.312012,534.035886 157.893865,533.611355 C156.705027,532.404364 155.518279,530.961885 154.411402,529.284064 C149.054544,521.164051 147.458483,510.864104 151.880143,498.483301 C152.019456,498.093218 152.448617,497.889929 152.838699,498.029243 C153.228782,498.168556 153.432071,498.597717 153.292757,498.987799 C149.036391,510.905777 150.556748,520.717182 155.663483,528.458054 C156.71436,530.05099 157.83949,531.418573 158.962531,532.558761 C159.353541,532.955742 159.715437,533.295295 160.038605,533.57718 L160.315897,533.812659 L160.365,533.852 L161.806895,534.515822 C164.854431,535.89858 167.946423,537.180363 171.080883,538.363241 L172.651643,538.946447 C191.510053,545.834211 211.527937,549.090984 232.114666,549.324463 C248.043298,549.505113 263.358964,547.88089 277.468187,545.062471 C281.836393,544.18989 285.789817,543.259368 289.275689,542.325348 L290.015486,542.125167 C291.135957,541.818981 292.134271,541.532102 293.004994,541.27014 L294.472721,540.814404 C309.778809,534.520499 316.656217,522.624135 316.87399,506.647584 C316.992734,497.936179 315.11784,488.57688 311.917508,479.228576 C310.939274,476.371115 309.898161,473.700545 308.851105,471.271787 L308.501945,470.471232 C308.211262,469.812458 307.935559,469.207037 307.678396,468.658391 L307.238513,467.737375 C307.1094,467.47243 307.014648,467.28343 306.958381,467.174332 C306.926381,467.112285 306.903279,467.04623 306.88961,466.978113 L306.876247,466.874634 L303.880747,416.000634 L303.881885,415.896169 L303.94775,415.006915 C303.99735,414.300407 304.046965,413.519716 304.093275,412.687491 C304.198279,410.800486 304.270594,408.935496 304.295469,407.194296 L304.303645,406.370514 C304.31877,403.547245 304.191492,401.361879 303.898193,400.074672 C303.80617,399.67081 304.058966,399.268816 304.462828,399.176793 Z"/><path id="Stroke-93" fill="#96A7CA" fill-rule="nonzero" d="M189.199319,355.590948 C189.52318,355.33271 189.995064,355.385908 190.253302,355.709769 L190.803506,356.405839 C196.287121,363.401791 203.926451,374.848307 213.194202,389.728796 L213.666844,390.488385 C214.913423,392.493626 216.183205,394.550913 217.47419,396.656423 C223.029165,405.716212 228.775773,415.336054 234.460193,425.030477 L237.078432,429.508354 C238.309041,431.618896 239.487444,433.648275 240.606028,435.581931 L243.636206,440.839851 L244.891,443.031 L245.007939,442.70185 C247.862088,434.52165 250.313668,423.996472 252.389028,411.653179 L252.714028,409.686531 C254.45431,398.972308 255.830265,387.53417 256.882455,376.052968 L257.075956,373.899904 C257.39439,370.285966 257.661105,366.89056 257.879822,363.775428 L258.062301,361.071725 L258.229218,358.33428 L258.267372,357.636183 C258.288451,357.222506 258.64089,356.904243 259.054567,356.925322 C259.468244,356.946401 259.786507,357.29884 259.765428,357.712517 L259.699784,358.889009 C259.659887,359.57233 259.613119,360.333592 259.559198,361.168159 L259.376156,363.880236 C259.156831,367.004048 258.889416,370.408367 258.570167,374.031562 C257.492074,386.266965 256.050205,398.502947 254.194624,409.927021 C251.880373,424.174948 249.081853,436.135912 245.746578,445.074541 C245.537089,445.635977 244.800392,445.726879 244.452265,445.274078 L244.278954,444.984496 L242.045095,441.081243 L239.30756,436.332918 C238.349514,434.676779 237.347534,432.950333 236.306417,431.162754 L235.782619,430.263913 C229.692834,419.819697 223.485879,409.375605 217.479356,399.53885 L216.195427,397.440492 C215.421782,396.17873 214.655785,394.934344 213.897869,393.708164 L211.453291,389.771606 C202.112926,374.802721 194.462414,363.39449 189.080498,356.644931 C188.82226,356.32107 188.875458,355.849186 189.199319,355.590948 Z"/><path id="Stroke-95" fill="#96A7CA" fill-rule="nonzero" d="M216.82879,478.738731 C235.385096,474.654661 251.069451,474.254142 263.38965,476.05875 L264.0239,476.154051 C265.391362,476.364728 266.600036,476.589082 267.646027,476.815329 L268.482358,477.004762 L269.248007,477.197686 C269.327238,477.219056 269.386287,477.235643 269.425003,477.246993 C269.822486,477.363527 270.05024,477.78022 269.933707,478.177703 C269.817173,478.575186 269.40048,478.80294 269.002997,478.686407 L268.685661,478.60055 L268.133595,478.463653 C267.997958,478.431395 267.853706,478.39798 267.700884,478.363542 L266.938647,478.198737 C266.013913,478.006802 264.965329,477.816789 263.795498,477.63656 C251.559261,475.751393 235.841102,476.090199 217.15121,480.203669 C216.746678,480.292703 216.346564,480.036941 216.257531,479.63241 C216.168497,479.227878 216.424259,478.827764 216.82879,478.738731 Z"/><path id="Stroke-97" fill="#96A7CA" fill-rule="nonzero" d="M259.544906,467.488135 C259.574324,467.901303 259.263233,468.260089 258.850065,468.289506 L255.534711,468.51636 L252.420473,468.719736 C250.840467,468.820698 249.232217,468.920029 247.623101,469.015282 L243.744863,469.236032 L239.876784,469.435125 C233.948884,469.720494 229.734243,469.820007 227.797121,469.678404 C227.38401,469.648206 227.073598,469.288833 227.103796,468.875721 C227.133994,468.46261 227.493367,468.152198 227.906479,468.182396 L228.389976,468.210197 C230.671149,468.311794 235.352632,468.169504 241.735778,467.840464 L244.610742,467.686057 C245.565258,467.632869 246.541037,467.57671 247.534463,467.517903 C249.141163,467.422793 250.747134,467.323603 252.324945,467.22278 L258.743535,466.793294 C259.156703,466.763876 259.515489,467.074967 259.544906,467.488135 Z"/><path id="Fill-99" fill="#E4EBF7" d="M126.49785,492.8671 L126.49785,492.8671 C109.69185,486.8716 100.92735,468.3871 106.92285,451.5811 L129.36435,388.6711 C135.35985,371.8651 153.84285,363.1006 170.65035,369.0961 C187.45635,375.0916 196.22085,393.5761 190.22535,410.3821 L167.78385,473.2921 C161.78835,490.0981 143.30385,498.8626 126.49785,492.8671"/><path id="Stroke-101" fill="#96A7CA" fill-rule="nonzero" d="M180.521846,376.705208 C180.801989,376.400096 181.276431,376.379854 181.581542,376.659996 C191.176782,385.469988 194.785442,399.187742 190.514529,411.701672 L190.362345,412.137707 L181.632345,436.203707 C181.491094,436.593092 181.060929,436.794246 180.671543,436.652995 C180.314606,436.523515 180.115837,436.151267 180.193987,435.790198 L180.222255,435.692193 L188.950912,411.629927 C193.251487,399.575979 189.833718,386.273206 180.567058,377.764904 C180.261946,377.484761 180.241704,377.010319 180.521846,376.705208 Z"/><path id="Stroke-103" fill="#96A7CA" fill-rule="nonzero" d="M332.647848,381.057313 C332.795687,380.670381 333.229205,380.476558 333.616137,380.624398 C333.970825,380.759917 334.163247,381.135486 334.07898,381.495176 L334.049052,381.592687 L321.312552,414.927187 C321.164713,415.314119 320.731195,415.507942 320.344263,415.360102 C319.989575,415.224583 319.797153,414.849014 319.88142,414.489324 L319.911348,414.391813 L332.647848,381.057313 Z"/><path id="Fill-105" fill="#7B8DAF" d="M246.33675,494.52595 L268.04025,426.63295 C268.39875,425.51395 269.43075,424.74895 270.60675,424.73395 L331.46625,423.90869 C333.35625,423.88345 334.70025,425.74045 334.08675,427.52695 L311.43075,493.61695 C311.06625,494.68045 310.08825,495.41095 308.96625,495.46045 L249.05775,498.08845 C247.15875,498.17095 245.75775,496.33645 246.33675,494.52595"/><path id="Fill-107" fill="#253368" d="M249.5448,493.69765 L270.8703,426.98815 C271.3038,425.63365 272.5548,424.70665 273.9768,424.68715 L335.5878,423.852994 C336.9108,423.83665 337.8513,425.13415 337.4223,426.38515 L314.4513,493.38715 C314.0478,494.56465 312.9648,495.37465 311.7228,495.42865 L252.8418,498.01015 C250.5408,498.11215 248.8428,495.89065 249.5448,493.69765"/><path id="Fill-109" fill="#51342D" d="M279.21225,431.11585 C279.90075,431.88235 279.65325,433.22785 278.65875,434.12335 C277.66425,435.01735 276.29925,435.12085 275.61075,434.35585 C274.92075,433.58935 275.16825,432.24235 276.16425,431.34835 C277.15875,430.45435 278.52375,430.34935 279.21225,431.11585"/><path id="Fill-111" fill="#E1E7F3" d="M278.3949,431.91715 C278.7519,432.31465 278.6244,433.01365 278.1084,433.47865 C277.5909,433.94365 276.8829,433.99615 276.5244,433.59865 C276.1674,433.20115 276.2964,432.50215 276.8124,432.03865 C277.3284,431.57365 278.0379,431.51965 278.3949,431.91715"/><path id="Fill-113" fill="#B69882" d="M272.43585,485.90245 C276.24885,485.53195 278.25435,483.93895 277.89435,480.76195 C282.48135,479.31745 281.96685,475.43245 281.96685,475.43245 C281.96685,475.43245 290.79735,475.29745 292.28235,471.52495 C292.85985,470.05945 291.74085,468.49195 290.16885,468.38545 C271.25235,467.10295 257.76585,457.07995 257.76585,457.07995 C257.76585,457.07995 265.20135,446.15845 264.41535,441.11995 C264.18285,439.62895 262.23435,439.14745 261.32235,440.34895 C253.52535,450.64195 237.88635,458.71195 237.88635,458.71195 C237.88635,458.71195 219.11385,476.29945 239.47635,484.27645 C239.47635,484.27645 254.99835,490.46095 265.80735,489.67795 C270.92385,489.30745 272.43585,485.90245 272.43585,485.90245"/><path id="Stroke-115" fill="#7C5B4D" fill-rule="nonzero" d="M268.076612,472.092214 C268.228151,471.821021 268.570843,471.724023 268.842036,471.875562 C270.197892,472.633196 271.782074,473.250521 273.54863,473.738175 C275.654414,474.319472 277.915497,474.691172 280.190579,474.893263 C281.500363,475.009608 282.589248,475.052902 283.349627,475.055241 L283.57504,475.054651 C283.885672,475.050449 284.140896,475.298859 284.145151,475.60949 C284.148881,475.889059 283.948047,476.123747 283.681392,476.170953 L283.59026,476.179549 L283.086503,476.177063 C282.901663,476.174093 282.689389,476.168866 282.451836,476.160719 C281.725584,476.135814 280.932921,476.088633 280.09104,476.013851 C277.75312,475.806178 275.427132,475.423808 273.249273,474.822615 C271.401153,474.312445 269.734509,473.662987 268.293264,472.857638 C268.022071,472.706099 267.925073,472.363407 268.076612,472.092214 Z"/><path id="Stroke-117" fill="#7C5B4D" fill-rule="nonzero" d="M266.296921,477.902333 C266.43213,477.622639 266.768474,477.505512 267.048167,477.640721 C267.223109,477.725291 267.399671,477.807742 267.577804,477.888097 C269.826044,478.902273 272.240227,479.552837 274.6645,479.909788 C276.161532,480.130211 277.361001,480.201408 278.10713,480.19628 C278.426861,480.191993 278.68209,480.440398 278.686351,480.75103 C278.690086,481.030598 278.489257,481.26529 278.222603,481.312501 L278.13147,481.321098 L277.922167,481.321098 L277.489935,481.311354 C276.718891,481.284101 275.69921,481.199268 274.500622,481.022788 C271.979849,480.651629 269.467006,479.974478 267.115207,478.913587 C266.928056,478.829163 266.74248,478.742503 266.558533,478.653579 C266.278839,478.51837 266.161712,478.182026 266.296921,477.902333 Z"/><path id="Stroke-119" fill="#7C5B4D" fill-rule="nonzero" d="M262.92934,484.397801 C263.064456,484.118062 263.400761,484.000823 263.680499,484.13594 C264.306932,484.438512 265.779404,484.719944 267.78277,484.951136 C268.601272,485.045592 269.467728,485.127481 270.343909,485.197212 L271.28542,485.267328 L272.464504,485.34068 C272.774761,485.356506 273.013445,485.620848 272.99762,485.931104 C272.981794,486.241361 272.717452,486.480045 272.407196,486.46422 L271.483042,486.408339 C271.30338,486.396413 271.115634,486.383404 270.920952,486.369295 C269.807909,486.28863 268.694607,486.188829 267.653799,486.068719 L266.924515,485.97962 C265.164393,485.75159 263.882437,485.482834 263.191201,485.14896 C262.911462,485.013844 262.794223,484.677539 262.92934,484.397801 Z"/><g id="分组" transform="translate(105.000000, 432.110500)"><mask id="mask-4" fill="#fff"><use xlink:href="#path-3"/></mask><path id="Fill-121" fill="#E4EBF7" d="M135.322942,19.03125 L135.0312,47.81325 C134.9547,55.31625 128.9847,61.42875 121.4847,61.68075 L31.9812,64.68825 C14.1387,64.50825 -0.1788,49.89675 0.0012,32.05425 C0.1827,14.21175 14.7927,-0.10725 32.6352,0.07425 L122.0607,4.89375 C129.5532,5.29725 135.3987,11.52975 135.322942,19.03125" mask="url(#mask-4)"/></g><path id="Stroke-123" fill="#96A7CA" fill-rule="nonzero" d="M138.608563,431.435537 L228.032532,436.255035 C235.818846,436.674358 241.917452,443.069333 242.004404,450.829388 L242.004404,451.149051 L241.712661,479.932598 C241.633153,487.729066 235.511125,494.100755 227.765914,494.526261 L227.446716,494.540389 L163.597716,497.012961 C163.183812,497.028413 162.835286,496.705869 162.819261,496.291966 C162.804572,495.912554 163.074375,495.588078 163.438255,495.52429 L163.539684,495.513511 L227.392509,493.041373 C234.383498,492.806429 239.971323,487.189202 240.205782,480.234384 L240.212739,479.917349 L240.504481,451.133876 C240.575118,444.13938 235.206976,438.311099 228.2683,437.773635 L227.951837,437.752863 L138.527837,432.933363 C138.114224,432.911071 137.796995,432.557701 137.819287,432.144087 C137.839721,431.764942 138.138353,431.466786 138.506571,431.436897 L138.608563,431.435537 Z"/></g></svg>