<?xml version="1.0" encoding="UTF-8"?>
<svg width="512px" height="1024px" viewBox="0 0 512 1024" version="1.1" xmlns="http://www.w3.org/2000/svg" xmlns:xlink="http://www.w3.org/1999/xlink">
    <!-- Generator: Sketch 61.2 (89653) - https://sketch.com -->
    <title>2.人物组件/2.保安/坐姿/讨论</title>
    <desc>Created with Sketch.</desc>
    <defs>
        <polygon id="path-1" points="0.99880866 0.981 70.67715 0.981 70.67715 63.9765 0.99880866 63.9765"></polygon>
    </defs>
    <g id="2.人物组件/2.保安/坐姿/讨论" stroke="none" stroke-width="1" fill="none" fill-rule="evenodd">
        <path d="M117.84085,439.77665 C132.66985,459.22715 165.50935,506.33915 190.07785,529.18265 C190.07785,529.18265 216.27085,552.35465 236.64385,529.26365 C256.50985,506.74865 228.61285,484.38365 228.61285,484.38365 C197.93485,458.68265 158.00035,432.51815 141.38635,417.59465 C141.38635,417.59465 135.17035,407.10665 123.42085,416.33915 C109.47685,427.29365 117.84085,439.77665 117.84085,439.77665" id="Fill-1" fill="#FFC2BD"></path>
        <path d="M188.2501,500.2571 C188.2501,500.2571 206.7901,439.2461 211.5016,428.9036 C215.6251,419.8526 228.9946,397.2941 254.2921,406.5776 C274.5226,414.0026 276.1861,433.0661 273.6631,446.7266 C269.3056,470.3261 255.1126,496.9421 242.0821,521.0996 C242.0821,521.0996 228.2326,549.0401 201.3751,535.6181 C178.6456,524.2601 188.2501,500.2571 188.2501,500.2571" id="Fill-3" fill="#FFC2BD"></path>
        <path d="M195.34795,456.7952 C198.56695,446.9702 207.44245,419.8622 208.92745,416.6042 C213.04945,407.5547 226.41895,384.9947 251.71645,394.2782 C271.94695,401.7032 273.61045,420.7667 271.08895,434.4272 C269.34895,443.8442 257.95495,470.6867 253.78345,480.7172 L195.34795,456.7952 Z" id="Fill-5" fill="#597EF7"></path>
        <path d="M198.383679,467.92149 C198.487268,467.692343 198.738543,467.576407 198.974157,467.63532 L199.06146,467.665729 L255.24396,493.063729 C255.50175,493.180267 255.616258,493.483719 255.499721,493.74151 C255.396132,493.970657 255.144857,494.086593 254.909243,494.02768 L254.82194,493.997271 L198.63944,468.599271 C198.38165,468.482733 198.267142,468.179281 198.383679,467.92149 Z" id="Stroke-7" fill="#965C56" fill-rule="nonzero"></path>
        <path d="M140.78905,421.31675 C140.78905,421.31675 141.41305,413.83325 138.91855,404.47775 C136.42405,395.12225 130.61155,383.67125 130.61155,372.44375 C130.61155,361.21775 119.89555,370.79825 125.19655,392.00375 C110.85205,388.26125 95.80555,381.32225 91.36255,370.33025 C89.73805,366.31475 85.86655,366.94025 85.74955,370.79825 C85.63255,374.65775 87.15205,378.28325 87.15205,378.28325 C87.15205,378.28325 84.34555,381.40175 86.21755,385.76675 C82.47505,392.31575 88.55605,396.52625 88.55605,396.52625 C88.55605,396.52625 84.81355,398.86475 92.29855,408.68825 C100.05355,418.86575 118.78105,439.16825 118.78105,439.16825 L140.78905,421.31675 Z" id="Fill-9" fill="#FFC2BD"></path>
        <path d="M124.665334,391.780922 C124.788398,391.487125 125.126331,391.348719 125.420128,391.471784 C125.713925,391.594848 125.852331,391.932781 125.729266,392.226578 L125.590562,392.578959 C125.546163,392.696447 125.495,392.835368 125.438264,392.99435 C125.216194,393.61662 124.993821,394.313532 124.786213,395.06751 C124.130782,397.447861 123.768722,399.839413 123.851136,402.055901 C123.954675,404.840561 124.757403,407.119205 126.385124,408.746926 C126.610359,408.972161 126.610359,409.337339 126.385124,409.562574 C126.159889,409.787809 125.794711,409.787809 125.569476,409.562574 C123.711417,407.704515 122.811928,405.151202 122.698432,402.098761 C122.61105,399.748659 122.989925,397.246035 123.674102,394.761289 C123.889619,393.97859 124.120593,393.254721 124.351871,392.606648 L124.558923,392.047183 C124.601904,391.935926 124.637771,391.846723 124.665334,391.780922 Z" id="Stroke-11" fill="#D18682" fill-rule="nonzero"></path>
        <path d="M91.4917009,391.665646 C92.6098809,390.64015 93.6452273,390.265745 94.5148,390.91775 C95.4786604,391.640645 95.7160665,393.242375 95.5136319,395.519332 C95.4424384,396.320106 95.3164451,397.170258 95.1513057,398.036887 C95.0818341,398.401465 95.0086569,398.752015 94.9345162,399.082479 L94.8151604,399.594566 L94.786,399.707 L94.8903458,399.872761 C95.0781441,400.168368 95.2994121,400.498617 95.5524597,400.854775 C96.2762446,401.873484 97.1074343,402.892394 98.0316025,403.841552 C100.63772,406.518142 103.446082,408.1109 106.33075,408.1109 C115.90203,408.1109 125.262637,410.765006 126.98629,415.506088 C127.095124,415.805448 126.940673,416.136355 126.641312,416.24519 C126.341952,416.354024 126.011045,416.199573 125.90221,415.900212 C124.41688,411.814662 115.422516,409.2644 106.33075,409.2644 C103.075543,409.2644 100.007468,407.524346 97.2051475,404.646248 C96.2363626,403.651266 95.36831,402.587168 94.612134,401.522869 C94.41343,401.243198 94.2330801,400.978246 94.0717197,400.73165 L93.7006897,400.142006 C93.6887838,400.121985 93.6784184,400.104329 93.6696058,400.089106 C93.5929625,399.956712 93.5720573,399.799292 93.6114898,399.651484 L93.737344,399.141721 C93.8330396,398.735185 93.9288231,398.289976 94.0181943,397.820968 C94.1766544,396.989392 94.2972015,396.175988 94.3646638,395.417182 C94.5319081,393.53604 94.3378738,392.22693 93.8227592,391.840594 C93.5489118,391.635264 93.0247583,391.82481 92.271355,392.515765 C91.8077383,392.940953 91.3071036,393.515863 90.7888142,394.201677 C90.357701,394.772137 89.939343,395.385545 89.5509858,395.999176 L89.1537627,396.645138 C89.1151533,396.710248 89.0826052,396.766133 89.0565022,396.81181 C88.8984601,397.088368 88.5461473,397.184444 88.2695895,397.026402 C87.9930317,396.86836 87.8969558,396.516047 88.0549978,396.23949 L88.1957615,396.000121 C88.3073699,395.813418 88.4348701,395.605758 88.576289,395.382306 C88.9805323,394.743574 89.4163134,394.104619 89.868551,393.506207 C90.4254815,392.769262 90.9693689,392.144683 91.4917009,391.665646 Z" id="Stroke-13" fill="#D18682" fill-rule="nonzero"></path>
        <path d="M89.5041942,380.891245 C90.9919845,379.663417 92.3623138,379.442766 93.2460245,380.768686 C93.9735718,381.860299 94.0294832,383.398917 93.5918809,385.271375 C93.3750684,386.199094 93.0423905,387.179192 92.6251309,388.18095 C92.424258,388.663206 92.2128055,389.128928 91.9986318,389.569699 L91.7838422,390.001841 C91.6110245,390.341832 91.4756651,390.591365 91.3964016,390.730124 C91.2384073,391.006709 90.8861111,391.102846 90.609526,390.944852 C90.3329409,390.786857 90.2368041,390.434561 90.3947984,390.157976 L90.5401172,389.893266 C90.6010259,389.779261 90.6736216,389.640358 90.7555578,389.479163 C91.0298884,388.939462 91.3043996,388.35181 91.5603091,387.737422 C91.9548879,386.790117 92.2678194,385.868193 92.4686474,385.00887 C92.8406016,383.417314 92.795363,382.1724 92.2861755,381.408414 C91.8983023,380.826449 91.2729257,380.927147 90.2384046,381.780906 C89.7228532,382.206375 89.1664374,382.786452 88.5906435,383.481054 C88.1209583,384.047654 87.665673,384.656819 87.2433804,385.266172 L86.8795294,385.803708 C86.806903,385.914009 86.7486507,386.004784 86.706172,386.072745 C86.5373416,386.342852 86.1815125,386.424952 85.9114055,386.256122 C85.6412985,386.087292 85.5591976,385.731463 85.728028,385.461355 L85.8812436,385.223227 C86.0026551,385.037633 86.1413838,384.831224 86.2952971,384.609133 C86.7351862,383.974389 87.2097297,383.339457 87.7025907,382.744899 C88.3209463,381.998953 88.9248904,381.369326 89.5041942,380.891245 Z" id="Stroke-15" fill="#D18682" fill-rule="nonzero"></path>
        <path d="M95.0120326,395.418179 C95.2567615,395.214294 95.6204353,395.247404 95.8243208,395.492133 C98.5583423,398.773847 101.092095,400.711736 105.144151,402.603183 C105.432784,402.737913 105.557547,403.081117 105.422817,403.369751 C105.288087,403.658384 104.944883,403.783147 104.656249,403.648417 C100.4517,401.685788 97.7816003,399.643616 94.9380792,396.230467 C94.7341937,395.985739 94.7673038,395.622065 95.0120326,395.418179 Z" id="Stroke-17" fill="#D18682" fill-rule="nonzero"></path>
        <path d="M92.6913407,388.969711 C92.9002641,388.729268 93.264547,388.703717 93.5049893,388.912641 L93.9274993,389.265119 L94.3727862,389.622509 C94.6083288,389.808614 94.8629678,390.005437 95.1355671,390.211187 C96.435057,391.192003 97.8715606,392.173128 99.4025424,393.088244 C101.728958,394.478816 104.060786,395.588401 106.328397,396.313663 C106.631788,396.410698 106.799072,396.735307 106.702037,397.038697 C106.605002,397.342088 106.280393,397.509372 105.977003,397.412337 C103.616904,396.657494 101.207621,395.511053 98.8107237,394.078352 C97.2417479,393.140525 95.7714999,392.136353 94.4406594,391.131874 C94.0676326,390.850325 93.7268754,390.58467 93.4210206,390.339135 L92.7945858,389.823142 C92.7772348,389.808297 92.7618351,389.795024 92.7484107,389.783359 C92.5079683,389.574436 92.4824172,389.210153 92.6913407,388.969711 Z" id="Stroke-19" fill="#D18682" fill-rule="nonzero"></path>
        <path d="M93.1957162,382.201911 C93.406766,381.963332 93.7712614,381.941016 94.0098395,382.152066 L94.528749,382.594845 L95.0707008,383.041584 C95.3568498,383.274177 95.6654214,383.520107 95.9948985,383.777147 C97.5648098,385.001903 99.2833168,386.226855 101.093724,387.369374 C103.304712,388.764693 105.499618,389.938417 107.627183,390.818607 C107.921519,390.940376 108.061412,391.277696 107.939643,391.572033 C107.817874,391.866369 107.480554,392.006262 107.186217,391.884493 C104.992523,390.976945 102.741064,389.772978 100.478108,388.344863 C98.6329527,387.180415 96.8837937,385.933615 95.285378,384.686621 C94.8375493,384.33725 94.4271955,384.007678 94.0578531,383.703167 L93.4549457,383.197568 C93.364152,383.119884 93.2940682,383.058944 93.2455605,383.016034 C93.0069825,382.804984 92.9846664,382.440489 93.1957162,382.201911 Z" id="Stroke-21" fill="#D18682" fill-rule="nonzero"></path>
        <path d="M109.557923,388.381146 C109.857291,388.489959 110.011767,388.820855 109.902954,389.120223 L109.747901,389.558801 C109.623496,389.916128 109.484756,390.324966 109.335269,390.778466 C108.907926,392.0749 108.480513,393.468133 108.081746,394.903164 C107.631409,396.52378 107.246487,398.095762 106.947199,399.579744 C106.106145,403.750021 106.014493,406.875719 106.839257,408.414778 C106.989712,408.695535 106.88408,409.045102 106.603322,409.195557 C106.322565,409.346012 105.972998,409.24038 105.822543,408.959622 C104.825635,407.099331 104.922895,403.782375 105.816466,399.3517 C106.121667,397.838396 106.513044,396.240053 106.970358,394.594331 C107.374337,393.140543 107.807009,391.730164 108.239751,390.417351 L108.458551,389.762246 L108.818846,388.726177 C108.927659,388.426809 109.258555,388.272333 109.557923,388.381146 Z" id="Stroke-23" fill="#D18682" fill-rule="nonzero"></path>
        <path d="M89.1653806,374.162634 C89.9402573,373.33991 90.6722251,372.966361 91.3866481,373.323573 C92.5027416,373.881262 93.0361877,375.048204 93.1464344,376.59088 C93.2027769,377.379277 93.1448085,378.212439 93.0143396,379.028697 L92.9572893,379.359646 C92.9200409,379.560114 92.885269,379.718722 92.8584113,379.826256 C92.7812263,380.135293 92.4681314,380.323246 92.1590942,380.246061 C91.850057,380.168876 91.6621037,379.855781 91.7392887,379.546744 L91.8000819,379.269426 C91.823506,379.151374 91.8493339,379.009076 91.875298,378.846635 C91.9929277,378.110704 92.0450595,377.361428 91.9958687,376.673105 C91.9116295,375.49435 91.5449152,374.692143 90.8709196,374.355361 C90.7768858,374.308344 90.4607736,374.469667 90.0050799,374.953499 C89.6737022,375.305339 89.3139639,375.780231 88.9409616,376.345676 C88.6247291,376.825062 88.3173372,377.340996 88.0317675,377.857191 L87.8109318,378.264572 C87.7498289,378.379927 87.7017452,378.473362 87.6682109,378.54043 C87.5257598,378.825333 87.1793217,378.940812 86.8944196,378.798361 C86.6095175,378.65591 86.4940381,378.309472 86.6364891,378.02457 L86.8589773,377.598397 C86.9079499,377.507283 86.9625784,377.406988 87.0224281,377.298804 C87.3214765,376.758244 87.6436955,376.217424 87.9780898,375.710506 C88.3845691,375.094313 88.7819018,374.569792 89.1653806,374.162634 Z" id="Stroke-25" fill="#D18682" fill-rule="nonzero"></path>
        <path d="M116.260299,628.91435 L116.260299,628.91435 C116.2558,614.15285 127.4248,601.78535 142.1113,600.29135 L255.4153,588.76685 C276.3058,586.64135 294.4558,603.03485 294.463302,624.03185 C294.4693,643.84385 278.2408,659.81885 258.4318,659.49935 L144.5578,657.66185 C128.8603,657.40835 116.2648,644.61335 116.260299,628.91435" id="Fill-27" fill="#4E5C93"></path>
        <path d="M171.7024,778.36655 L128.3164,778.89755 C115.9414,769.76255 126.2014,752.65205 126.2014,752.65205 L115.4374,631.77305 C114.0259,615.65255 126.3139,601.59755 142.4779,600.84155 C158.6404,600.08555 172.1869,612.93155 172.2874,629.11355 L172.9294,752.51705 C172.9294,752.51705 183.5089,768.92405 171.7024,778.36655" id="Fill-29" fill="#4E5C93"></path>
        <path d="M114.7537,839.94785 L168.9322,836.00435 L171.1792,777.06485 L129.6652,779.00735 L134.9122,814.51085 L112.5262,834.72935 C110.4067,836.64335 111.9067,840.15485 114.7537,839.94785" id="Fill-31" fill="#253368"></path>
        <path d="M366.619,537.92045 C366.619,537.92045 403.72,416.07395 398.218,405.07145 C392.716,394.06745 355.984,378.46295 311.146,379.36895 C249.3685,380.61545 229.453,394.44245 229.453,394.44245 C229.453,394.44245 243.796,482.19545 257.089,529.91795 C250.087,542.42195 262.8145,551.29745 262.8145,551.29745 C262.8145,551.29745 342.709,547.60445 361.714,548.60345 C370.5895,544.79945 366.619,537.92045 366.619,537.92045" id="Fill-33" fill="#597EF7"></path>
        <path d="M255.0454,636.93515 L301.9249,658.47515 L374.1454,631.86815 C374.1454,631.86815 381.7474,598.92515 363.3784,560.96615 C360.8434,553.99265 359.8129,548.76215 359.8129,548.76215 C359.8129,548.76215 299.1094,550.77815 262.8154,551.29865 L261.5464,562.70915 C261.5464,562.70915 258.7549,584.70215 252.5119,595.12415 C240.3139,615.48365 255.0454,636.93515 255.0454,636.93515" id="Fill-35" fill="#4E5C93"></path>
        <polygon id="Fill-37" fill="#FFC2BD" points="333.73105 369.33665 325.17955 314.70065 273.12805 319.81865 279.01255 379.17665 296.73505 406.10015"></polygon>
        <path d="M304.6312,285.689 C304.6312,285.689 274.7662,281.6285 268.5322,296.111 C262.4692,310.1945 267.6772,357.836 283.6567,363.251 C296.6812,367.6655 321.4867,361.88 324.6937,338.186 C324.6937,338.186 327.6022,319.955 323.8162,304.4465 C320.0302,288.9395 304.6312,285.689 304.6312,285.689" id="Fill-39" fill="#FFC2BD"></path>
        <path d="M323.023,324.33815 C323.023,324.33815 329.068,308.28365 336.0355,315.74465 C343.0015,323.20565 334.753,339.52565 325.867,339.96065 C316.978,340.39415 323.023,324.33815 323.023,324.33815" id="Fill-41" fill="#FFC2BD"></path>
        <g id="分组" transform="translate(262.000000, 263.519000)">
            <mask id="mask-2" fill="white">
                <use xlink:href="#path-1"></use>
            </mask>
            <g id="Clip-44"></g>
            <path d="M4.80015,60.579 C4.80015,60.579 -1.17885,42.7815 1.86015,30.921 C4.89915,19.059 9.19665,7.047 14.01015,12.5325 C14.29815,9.624 17.39115,3.504 19.99515,1.2735 C22.59915,-0.9555 32.89215,10.254 32.89215,10.254 C32.89215,10.254 31.57965,4.6665 35.45865,7.71 C39.33765,10.7535 61.71315,18.9105 65.85915,24.1575 C70.00515,29.4045 70.67715,50.451 70.67715,50.451 C70.67715,50.451 63.83565,50.6385 61.77315,63.9765 C61.46415,53.478 56.48715,48.5715 54.01815,46.773 C53.08065,46.092 52.46865,45.0615 52.24215,43.926 C51.81015,41.7465 51.11565,38.0835 50.58915,34.4865 C50.35665,32.9025 49.03515,31.7265 47.43465,31.644 C31.14615,30.807 13.90665,35.4075 7.78965,37.2375 C6.40515,37.6515 5.46165,38.916 5.44365,40.3605 L5.29365,52.353 C5.29365,52.353 4.70715,54.5235 4.80015,60.579" id="Fill-43" fill="#253368" mask="url(#mask-2)"></path>
        </g>
        <path d="M305.058313,315.189966 L305.194876,315.201647 L310.687876,315.972647 C311.380691,316.069891 311.863497,316.71036 311.766253,317.403176 C311.675087,318.05269 311.106476,318.517626 310.464894,318.493079 L310.335724,318.481553 L305.117,317.749 L295.393085,320.682389 C294.765143,320.87178 294.104728,320.550321 293.858172,319.957497 L293.814511,319.835385 C293.62512,319.207443 293.946579,318.547028 294.539403,318.300472 L294.661515,318.256811 L304.653015,315.243311 C304.784624,315.203617 304.921518,315.185697 305.058313,315.189966 Z" id="Stroke-45" fill="#253368" fill-rule="nonzero"></path>
        <path d="M274.035604,317.841208 L284.429104,319.300708 C285.121913,319.397995 285.604679,320.038495 285.507392,320.731304 C285.416185,321.380813 284.847546,321.845713 284.205965,321.821126 L284.076796,321.809592 L274.024,320.398 L270.543759,321.842249 C269.937921,322.093526 269.248653,321.839766 268.944013,321.274589 L268.888351,321.157459 C268.637074,320.551621 268.890834,319.862353 269.456011,319.557713 L269.573141,319.502051 L273.374141,317.925551 C273.54134,317.856204 273.720956,317.823696 273.900835,317.829576 L274.035604,317.841208 Z" id="Stroke-47" fill="#253368" fill-rule="nonzero"></path>
        <path d="M323.2822,330.4532 C323.2822,330.4532 315.9142,337.7837 312.4642,344.9042 C305.6797,338.2997 299.0842,335.9027 299.0842,335.9027 C299.0842,335.9027 292.5952,342.0587 288.6187,340.8617 C287.2672,339.5882 287.2207,338.1317 287.2207,338.1317 C287.2207,338.1317 281.1322,341.2622 277.4452,348.4112 C274.9882,343.9187 268.9312,338.4482 268.9312,338.4482 C268.9312,338.4482 271.5172,369.4007 294.2332,367.1402 C317.1277,364.3772 323.2312,350.7902 324.5452,339.8552 C324.7432,336.4532 324.6502,327.8942 323.2822,330.4532" id="Fill-49" fill="#EFADAB"></path>
        <path d="M303.911343,340.793194 C304.218913,340.627008 304.602969,340.741622 304.769156,341.049193 C304.935342,341.356763 304.820728,341.740819 304.513157,341.907006 L304.182955,342.077755 L303.978491,342.179712 C303.766416,342.284315 303.531668,342.396683 303.275671,342.51526 C302.302965,342.965816 301.220164,343.415966 300.054124,343.836131 C296.720004,345.037529 293.381398,345.760696 290.245644,345.764148 C289.143186,345.765314 288.08302,345.675715 287.070671,345.488551 C286.7269,345.424995 286.499742,345.094791 286.563299,344.751021 C286.626855,344.40725 286.957059,344.180092 287.300829,344.243649 C288.233899,344.416155 289.216906,344.499233 290.244265,344.498114 C293.213915,344.494878 296.416751,343.80112 299.624952,342.645094 C300.754276,342.23816 301.803106,341.802132 302.743572,341.36651 L303.20754,341.14722 L303.612868,340.947376 C303.761181,340.872578 303.861822,340.819952 303.911343,340.793194 Z" id="Stroke-51" fill="#D18682" fill-rule="nonzero"></path>
        <path d="M286.889168,320.400601 C287.199928,320.33401 287.506273,320.507899 287.614439,320.796892 L287.640749,320.886918 L288.374249,324.309918 L288.385327,324.503823 L288.315236,325.292266 L288.220894,326.492187 C288.200264,326.773335 288.179971,327.063526 288.16024,327.361519 C288.038829,329.195207 287.958762,331.014329 287.939402,332.711157 L287.935296,333.409044 C287.934537,337.292274 288.313865,339.94034 288.943733,340.318911 C289.528687,340.670261 291.007637,340.275013 292.984123,339.226273 C293.572159,338.914257 294.190947,338.553156 294.830468,338.152664 C295.65097,337.638834 296.463238,337.087356 297.229958,336.535863 L297.613036,336.257421 L298.216413,335.804706 C298.492469,335.590205 298.890144,335.640106 299.104644,335.916163 C299.319145,336.192219 299.269244,336.589894 298.993187,336.804394 L298.715474,337.01559 C298.495079,337.181146 298.244822,337.365364 297.969207,337.563611 C297.181919,338.129899 296.347818,338.696201 295.502401,339.225633 C294.838649,339.641299 294.194167,340.017394 293.577514,340.344595 C291.199773,341.606243 289.420104,342.081859 288.291712,341.404096 C287.01136,340.634562 286.617225,337.627591 286.673485,332.696713 C286.693137,330.974241 286.774181,329.132922 286.897006,327.277879 L286.989811,325.98006 L287.115,324.479 L286.402851,321.152182 C286.33626,320.841422 286.510149,320.535077 286.799142,320.426911 L286.889168,320.400601 Z" id="Stroke-53" fill="#D18682" fill-rule="nonzero"></path>
        <path d="M296.643542,349.792563 C296.990812,349.752297 297.304971,350.001172 297.345237,350.348442 C297.381843,350.664142 297.179488,350.952478 296.881485,351.032546 L296.789358,351.050137 L291.485358,351.665137 C291.138088,351.705403 290.823929,351.456528 290.783663,351.109258 C290.747057,350.793558 290.949412,350.505222 291.247415,350.425154 L291.339542,350.407563 L296.643542,349.792563 Z" id="Stroke-55" fill="#D18682" fill-rule="nonzero"></path>
        <path d="M300.2374,327.2474 C300.4579,329.0729 301.6924,330.4244 302.9959,330.2669 C304.2994,330.1094 305.1784,328.5029 304.9579,326.6774 C304.7374,324.8534 303.5029,323.5004 302.1994,323.6579 C300.8959,323.8154 300.0184,325.4219 300.2374,327.2474" id="Fill-57" fill="#253368"></path>
        <path d="M275.4544,330.23705 C275.6749,332.06255 276.9094,333.41405 278.2129,333.25655 C279.5164,333.09905 280.3954,331.49255 280.1749,329.66855 C279.9544,327.84305 278.7199,326.49005 277.4164,326.64755 C276.1129,326.80505 275.2354,328.41305 275.4544,330.23705" id="Fill-59" fill="#253368"></path>
        <path d="M302.152012,338.593686 C302.346244,338.346158 302.687972,338.28252 302.954874,338.429596 L303.040764,338.486462 L307.624764,342.083462 C307.899796,342.299275 307.947801,342.697183 307.731988,342.972214 C307.537756,343.219742 307.196028,343.28338 306.929126,343.136304 L306.843236,343.079438 L302.259236,339.482438 C301.984204,339.266625 301.936199,338.868717 302.152012,338.593686 Z" id="Stroke-61" fill="#D18682" fill-rule="nonzero"></path>
        <path d="M324.499753,340.198822 C324.846797,340.240991 325.093947,340.55651 325.051778,340.903553 L325.006023,341.220195 L324.938444,341.621158 C324.912872,341.764176 324.884198,341.916425 324.852253,342.077506 C324.670603,342.993459 324.420412,344.012216 324.090789,345.108295 C323.149638,348.237857 321.759794,351.367391 319.832153,354.291732 C313.704115,363.588316 303.683234,368.726952 288.962762,367.52209 C288.614331,367.493571 288.354991,367.187993 288.38351,366.839562 C288.412029,366.491131 288.717607,366.231791 289.066038,366.26031 C303.315234,367.426597 312.896309,362.513491 318.775135,353.594976 C320.630027,350.780999 321.970633,347.762336 322.878425,344.743701 C323.150574,343.838738 323.366166,342.989893 323.53177,342.213384 L323.610437,341.831233 C323.713954,341.309259 323.771971,340.94055 323.795022,340.750847 C323.833357,340.435352 324.097602,340.202415 324.406068,340.194352 L324.499753,340.198822 Z" id="Stroke-63" fill="#D18682" fill-rule="nonzero"></path>
        <path d="M294.190761,356.896754 C294.338274,356.579804 294.714796,356.442448 295.031746,356.589961 C295.348696,356.737474 295.486052,357.113996 295.338539,357.430946 L295.265939,357.600415 C295.198055,357.769749 295.113782,358.007451 295.028646,358.299194 C294.710808,359.388354 294.604098,360.507394 294.826529,361.527853 C295.102473,362.793818 295.865396,363.803161 297.25966,364.50314 C297.572093,364.659995 297.698214,365.040427 297.54136,365.35286 C297.384505,365.665293 297.004073,365.791414 296.69164,365.63456 C294.95024,364.760303 293.945701,363.431304 293.589573,361.797474 C293.31542,360.539727 293.441332,359.219317 293.813336,357.944543 C293.951889,357.469751 294.092135,357.108663 294.190761,356.896754 Z" id="Stroke-65" fill="#D18682" fill-rule="nonzero"></path>
        <path d="M331.371451,319.598226 C333.214365,318.622454 334.463555,319.222608 334.911059,320.726457 C335.028248,321.120274 335.07674,321.512687 335.084829,321.853183 L335.08411,322.082785 C335.069676,322.432083 334.774813,322.703544 334.425515,322.68911 C334.107972,322.675989 333.854756,322.431107 333.822185,322.124259 L333.81919,322.030515 C333.82507,321.761957 333.793994,321.411328 333.697643,321.087535 C333.469673,320.321436 333.071959,320.130361 331.964073,320.716955 C329.913476,321.80374 329.882503,323.40291 331.168453,326.768708 C332.24401,329.5835 331.282022,331.683414 328.581617,332.570062 C328.249466,332.679119 327.891796,332.498267 327.782738,332.166117 C327.673681,331.833966 327.854533,331.476296 328.186683,331.367238 C330.125221,330.730741 330.76385,329.456522 330.063108,327.432617 L329.787754,326.686575 C328.50397,323.111204 328.668685,321.03065 331.371451,319.598226 Z" id="Stroke-67" fill="#D18682" fill-rule="nonzero"></path>
        <path d="M301.30075,348.6458 C301.39375,348.9608 301.72375,349.1423 302.03875,349.0493 C302.35375,348.9578 302.53375,348.6278 302.44225,348.3128 C302.34925,347.9978 302.01925,347.8163 301.70425,347.9093 C301.38925,348.0008 301.20775,348.3308 301.30075,348.6458" id="Fill-69" fill="#D18682"></path>
        <path d="M310.4275,349.79795 C310.5205,350.11295 310.8505,350.29445 311.1655,350.20145 C311.4805,350.10995 311.6605,349.77995 311.569,349.46495 C311.476,349.14845 311.146,348.96845 310.8325,349.06145 C310.516,349.15295 310.336,349.48295 310.4275,349.79795" id="Fill-71" fill="#D18682"></path>
        <path d="M282.1216,355.1702 C282.0451,355.4897 282.2416,355.8107 282.5596,355.8872 C282.8791,355.9637 283.2001,355.7672 283.2766,355.4492 C283.3531,355.1297 283.1566,354.8087 282.8386,354.7322 C282.5191,354.6542 282.1981,354.8507 282.1216,355.1702" id="Fill-73" fill="#D18682"></path>
        <path d="M276.24325,353.01695 C276.16675,353.33645 276.36325,353.65745 276.68125,353.73395 C277.00075,353.81045 277.32175,353.61395 277.39825,353.29595 C277.47625,352.97645 277.27975,352.65545 276.96025,352.57895 C276.64075,352.50095 276.31975,352.69745 276.24325,353.01695" id="Fill-75" fill="#D18682"></path>
        <path d="M287.13505,356.30915 C287.05855,356.62865 287.25505,356.94965 287.57305,357.02615 C287.89255,357.10265 288.21355,356.90615 288.29155,356.58815 C288.36805,356.26865 288.17005,355.94765 287.85205,355.87115 C287.53255,355.79315 287.21155,355.98965 287.13505,356.30915" id="Fill-77" fill="#D18682"></path>
        <path d="M293.8579,354.12425 C293.7814,354.44375 293.9779,354.76475 294.2959,354.84125 C294.6154,354.91775 294.9364,354.72125 295.0144,354.40325 C295.0894,354.08375 294.8929,353.76275 294.5749,353.68625 C294.2554,353.60825 293.9344,353.80625 293.8579,354.12425" id="Fill-79" fill="#D18682"></path>
        <path d="M317.00905,346.5422 C316.93255,346.8602 317.12905,347.1827 317.44705,347.2592 C317.76655,347.3357 318.08755,347.1392 318.16555,346.8197 C318.24205,346.5017 318.04405,346.1792 317.72605,346.1042 C317.40655,346.0262 317.08555,346.2227 317.00905,346.5422" id="Fill-81" fill="#D18682"></path>
        <path d="M306.75145,356.39045 C306.84445,356.70545 307.17445,356.88695 307.48945,356.79545 C307.80445,356.70245 307.98445,356.37245 307.89295,356.05745 C307.79995,355.74245 307.46995,355.56095 307.15645,355.65395 C306.83995,355.74545 306.65995,356.07545 306.75145,356.39045" id="Fill-83" fill="#D18682"></path>
        <path d="M302.0632,356.0279 C302.1562,356.3429 302.4862,356.5244 302.8012,356.4314 C303.1162,356.3399 303.2962,356.0099 303.2047,355.6934 C303.1117,355.3784 302.7817,355.1984 302.4667,355.2899 C302.1517,355.3829 301.9702,355.7129 302.0632,356.0279" id="Fill-85" fill="#D18682"></path>
        <path d="M283.7644,359.8475 C283.8574,360.1625 284.1874,360.344 284.5024,360.2525 C284.8174,360.1595 284.9974,359.8295 284.9059,359.5145 C284.8129,359.1995 284.4829,359.018 284.1679,359.111 C283.8529,359.2025 283.6714,359.5325 283.7644,359.8475" id="Fill-87" fill="#D18682"></path>
        <path d="M285.85255,352.5239 C285.94555,352.8389 286.27405,353.0189 286.58905,352.9274 C286.90555,352.8359 287.08555,352.5044 286.99405,352.1894 C286.90105,351.8744 286.57105,351.6944 286.25605,351.7859 C285.94105,351.8789 285.75955,352.2089 285.85255,352.5239" id="Fill-89" fill="#D18682"></path>
        <path d="M283.0159,346.87925 C283.1089,347.19425 283.4389,347.37575 283.7539,347.28275 C284.0689,347.19125 284.2489,346.86125 284.1574,346.54625 C284.0644,346.22975 283.7344,346.04975 283.4209,346.14125 C283.1044,346.23425 282.9244,346.56425 283.0159,346.87925" id="Fill-91" fill="#D18682"></path>
        <path d="M311.45215,353.4065 C311.54515,353.7215 311.87515,353.9015 312.19015,353.81 C312.50515,353.7185 312.68515,353.387 312.59365,353.072 C312.50065,352.757 312.17065,352.577 311.85565,352.6685 C311.54065,352.7615 311.35915,353.0915 311.45215,353.4065" id="Fill-93" fill="#D18682"></path>
        <path d="M273.21325,393.77105 L276.61525,373.49855 L288.82225,373.92605 L297.90775,399.49655 L309.22525,371.94155 L336.11875,367.17455 L344.30275,382.15355 C344.30275,382.15355 329.76025,412.29605 296.18275,408.80255 C279.59575,407.07605 273.21325,393.77105 273.21325,393.77105" id="Fill-95" fill="#597EF7"></path>
        <path d="M240.12272,433.452999 C240.432111,433.525194 240.624395,433.83453 240.552201,434.14392 L240.498866,434.389478 C240.470094,434.52875 240.434867,434.708044 240.394404,434.926731 L240.363094,435.098123 C240.218687,435.898448 240.074018,436.845671 239.93882,437.934761 C239.124241,444.496641 239.022369,452.612828 240.09436,462.045525 C241.579026,475.10944 245.160067,489.014964 251.299285,503.525556 C251.423076,503.818148 251.286236,504.155693 250.993644,504.279485 C250.701052,504.403276 250.363507,504.266436 250.239715,503.973844 C244.056799,489.359969 240.448141,475.347204 238.951218,462.175439 C237.902457,452.947145 237.966357,444.95667 238.721829,438.420967 L238.797084,437.793028 C238.934907,436.682789 239.082761,435.714716 239.230877,434.893832 L239.341465,434.309976 L239.431799,433.88248 C239.496775,433.604028 239.753834,433.420433 240.030142,433.439128 L240.12272,433.452999 Z" id="Stroke-97" fill="#1D39C4" fill-rule="nonzero"></path>
        <path d="M261.3883,562.86815 C309.5263,565.13765 363.6163,560.22815 363.6163,560.22815 L361.7143,546.67715 C361.7143,546.67715 303.6148,548.24315 262.4983,548.97515 C261.6268,555.47315 261.3883,562.86815 261.3883,562.86815" id="Fill-99" fill="#253368"></path>
        <path d="M307.91651,560.601794 C308.380267,560.651423 308.715984,561.067603 308.666356,561.53136 L308.573106,562.447125 C308.498633,563.198664 308.415613,564.074592 308.326181,565.066114 L308.134709,567.257637 C307.943761,569.513879 307.755189,571.960976 307.576194,574.569229 C306.664016,587.861136 306.250564,601.396471 306.614572,614.020332 C306.991419,627.089443 308.189257,638.240766 310.345445,646.867217 C310.458544,647.319701 310.183417,647.778196 309.730933,647.891295 C309.278449,648.004394 308.819954,647.729267 308.706855,647.276783 C306.516146,638.51222 305.306329,627.249373 304.926274,614.069014 C304.56048,601.383251 304.975523,587.795864 305.891157,574.453591 L306.073739,571.890896 C306.238414,569.662728 306.408805,567.569916 306.579848,565.63327 L306.755883,563.697549 L306.986944,561.35164 C307.032755,560.923557 307.390895,560.604573 307.810479,560.597065 L307.91651,560.601794 Z" id="Stroke-101" fill="#253368" fill-rule="nonzero"></path>
        <path d="M289.530885,561.235949 C289.994666,561.285342 290.330594,561.701353 290.281201,562.165135 L290.089902,564.021805 L289.746711,567.502924 L289.506252,570.039123 C289.186209,573.468166 288.869585,577.079666 288.570085,580.785756 C288.169442,585.743415 287.823983,590.572032 287.549502,595.170138 L287.395616,597.862175 C286.384418,616.421144 286.789415,628.746327 288.800544,630.310186 C289.768219,631.063105 290.947578,631.887048 292.311256,632.769654 C293.345283,633.438902 294.475548,634.135582 295.686743,634.8533 C297.892743,636.160508 300.258683,637.474763 302.624927,638.730692 L303.589271,639.239182 L305.608935,640.280297 L305.776042,640.364317 C306.193229,640.572855 306.362372,641.080106 306.153833,641.497292 C305.945295,641.914479 305.438044,642.083622 305.020858,641.875083 L304.14132,641.428033 L303.2685,640.977008 C302.814317,640.740724 302.334423,640.488667 301.833084,640.222572 C299.445161,638.955136 297.056935,637.628502 294.825712,636.306347 C293.596358,635.577869 292.447428,634.869684 291.393539,634.187581 C289.99176,633.280315 288.773726,632.429353 287.76355,631.643365 C284.977066,629.476588 284.609888,617.074404 285.774383,596.598264 C286.033635,592.039649 286.365704,587.240306 286.754789,582.301137 L286.886573,580.649706 C287.224177,576.472102 287.583471,572.414756 287.944944,568.602522 L288.363674,564.3064 L288.601699,561.986265 C288.647293,561.558159 289.005271,561.238993 289.424851,561.231273 L289.530885,561.235949 Z" id="Stroke-103" fill="#253368" fill-rule="nonzero"></path>
        <path d="M283.1866,549.6671 L283.1866,563.2031 C283.1866,564.9716 284.5351,566.4191 286.2436,566.4701 C291.9031,566.6396 304.4836,566.7911 315.8956,565.3436 C317.4886,565.1411 318.6886,563.7536 318.6886,562.0946 L318.6886,549.3686 C318.6886,547.5476 317.2621,546.0776 315.5026,546.1001 C309.0346,546.1796 294.2971,546.3551 286.3171,546.4001 C284.5801,546.4091 283.1866,547.8701 283.1866,549.6671" id="Fill-105" fill="#E1E7F3"></path>
        <path d="M286.8487,552.0035 L286.8517,560.9645 C286.8517,562.133 287.9527,563.0915 289.3462,563.1245 C293.9647,563.2355 304.2277,563.33 313.5382,562.37 C314.8372,562.235 315.8167,561.3155 315.8167,560.2175 L315.8137,551.7935 C315.8137,550.589 314.6482,549.617 313.2127,549.6305 C307.9357,549.686 295.9117,549.8075 289.4017,549.839 C287.9842,549.8465 286.8487,550.814 286.8487,552.0035" id="Fill-107" fill="#253368"></path>
        <polygon id="Fill-109" fill="#E1E7F3" points="315.7171 564.0986 285.7471 550.7231 286.9846 547.9991 317.2036 561.6221"></polygon>
        <polygon id="Fill-111" fill="#E1E7F3" points="317.0047 551.1524 286.9657 564.3719 285.7792 561.6239 316.1677 548.3879"></polygon>
        <path d="M341.616,384.022388 C341.914571,383.913809 342.244632,384.067828 342.353212,384.3664 C342.450933,384.635114 342.33595,384.929335 342.094317,385.064646 L342.0092,385.103612 L321.0887,392.711612 C320.790129,392.820191 320.460068,392.666172 320.351488,392.3676 C320.253767,392.098886 320.36875,391.804665 320.610383,391.669354 L320.6955,391.630388 L341.616,384.022388 Z" id="Stroke-113" fill="#1D39C4" fill-rule="nonzero"></path>
        <path d="M297.564202,399.79094 C297.875558,399.854123 298.076742,400.157746 298.01356,400.469102 L297.842348,401.377516 C297.797613,401.625117 297.750313,401.893947 297.700874,402.183079 L297.52432,403.249073 C297.348239,404.346664 297.174319,405.537438 297.009216,406.806909 C296.164056,413.305336 295.783322,419.924426 296.126612,426.092428 C296.299105,429.19166 296.653648,432.081346 297.207305,434.721641 C297.272507,435.03258 297.073298,435.337503 296.762359,435.402705 C296.45142,435.467907 296.146497,435.268698 296.081295,434.957759 C295.514948,432.256946 295.153437,429.310471 294.97789,426.156362 C294.630135,419.90814 295.014742,413.221713 295.868325,406.658529 C296.06274,405.163674 296.269342,403.776449 296.477539,402.519713 L296.710279,401.172408 L296.88604,400.240298 C296.942905,399.960078 297.194526,399.769097 297.47126,399.779763 L297.564202,399.79094 Z" id="Stroke-115" fill="#1D39C4" fill-rule="nonzero"></path>
        <path d="M197.6485,645.5381 L197.6485,645.5381 C196.1275,630.8546 205.969,617.4056 220.4245,614.4116 L331.945,591.3131 C352.507,587.0546 372.244,601.4966 374.4085,622.3826 C376.45,642.0896 361.9465,659.6456 342.2095,661.3616 L228.748,671.2271 C213.1075,672.5876 199.267,661.1546 197.6485,645.5381" id="Fill-117" fill="#4E5C93"></path>
        <path d="M238.61215,793.2551 L195.25465,789.1676 C183.92065,778.7711 195.93865,762.8471 195.93865,762.8471 L198.06715,641.5076 C198.37615,625.3301 212.08465,612.6581 228.23815,613.6226 L228.23815,613.6226 C244.39165,614.5856 256.49665,628.7981 254.87815,644.8991 L242.41615,767.6726 C242.41615,767.6726 251.35315,785.1191 238.61215,793.2551" id="Fill-119" fill="#4E5C93"></path>
        <path d="M179.57155,853.018871 L228.79705,852.44705 L238.07005,793.39655 L196.58455,789.42155 L197.66905,828.26555 L176.81605,845.49005 C173.72455,848.04455 175.56355,853.06505 179.57155,853.018871" id="Fill-121" fill="#253368"></path>
        <path d="M332.77619,591.164593 C332.858208,591.623729 332.552493,592.062422 332.093357,592.14444 L326.941335,593.073901 C323.427887,593.711308 319.570205,594.416912 315.44207,595.178972 L308.08744,596.543454 C296.680594,598.670342 285.351191,600.8331 274.602117,602.951678 L272.132092,603.43976 C268.890502,604.081978 265.741577,604.712659 262.693989,605.330424 L258.528903,606.179635 C244.273089,609.103711 232.820016,611.639992 224.845637,613.680256 C212.657013,616.798152 205.011774,627.393977 201.051714,643.202545 C198.59942,652.992111 197.876786,663.230699 198.12788,671.908951 L198.165502,673.013084 L198.216479,674.044909 C198.247512,674.51028 197.895412,674.912695 197.430041,674.943729 C196.96467,674.974762 196.562255,674.622662 196.531221,674.157291 L196.510941,673.803393 C196.496042,673.518431 196.481174,673.184945 196.467318,672.805475 C196.138791,663.808254 196.836645,653.078289 199.413337,642.79213 C203.508237,626.44528 211.516333,615.346557 224.427025,612.043954 L226.456629,611.532531 C234.674747,609.491309 246.035027,607.004458 259.950126,604.16489 L263.891824,603.364898 C266.461516,602.846117 269.100526,602.31854 271.803851,601.782962 L276.76735,600.804668 C287.608795,598.678576 298.991245,596.51462 310.412269,594.39275 L317.17755,593.141598 C320.205799,592.584173 323.074967,592.059612 325.753936,591.572869 L331.796343,590.48176 C332.255479,590.399742 332.694172,590.705457 332.77619,591.164593 Z" id="Stroke-123" fill="#253368" fill-rule="nonzero"></path>
        <path d="M253.8487,521.4461 L191.8162,521.4461 C190.0762,521.4461 188.5357,520.3211 188.0077,518.6636 L166.8727,452.3231 C166.0507,449.7461 167.9737,447.1151 170.6797,447.1151 L232.7137,447.1151 C234.4522,447.1151 235.9927,448.2401 236.5207,449.8976 L257.6557,516.2381 C258.4762,518.8151 256.5532,521.4461 253.8487,521.4461" id="Fill-125" fill="#4E5C93"></path>
        <path d="M249.5509,521.4461 L187.5184,521.4461 C185.7784,521.4461 184.2379,520.3211 183.7099,518.6636 L162.5749,452.3231 C161.7544,449.7461 163.6774,447.1151 166.3819,447.1151 L228.4159,447.1151 C230.1544,447.1151 231.6949,448.2401 232.2229,449.8976 L253.3594,516.2381 C254.1799,518.8151 252.2569,521.4461 249.5509,521.4461" id="Fill-127" fill="#253368"></path>
        <path d="M245.8675,534.75485 C272.3185,539.33135 333.9115,552.71585 370.7305,552.74885 C370.7305,552.74885 409.102,551.83385 408.2515,518.04785 C407.425,485.10485 368.284,487.93835 368.284,487.93835 C324.418,490.16735 273.049,494.27885 248.542,494.67785 C248.542,494.67785 235.417,495.53435 232.858,511.73435 C229.8205,530.95685 245.8675,534.75485 245.8675,534.75485" id="Fill-129" fill="#FFC2BD"></path>
        <path d="M346.09645,516.9761 C346.09645,516.9761 337.60195,447.5081 337.73545,435.0341 C337.85245,424.1201 341.24995,395.5391 370.76245,393.6206 C394.36345,392.0846 402.46345,409.9856 406.00045,424.8161 C412.10995,450.4361 411.72895,483.9461 409.38145,513.9791 C409.38145,513.9791 407.89495,548.1731 374.97595,546.6341 C347.12095,545.3336 346.09645,516.9761 346.09645,516.9761" id="Fill-131" fill="#FFC2BD"></path>
        <path d="M342.2425,481.3856 C341.107,470.0966 336.475,438.9476 336.516716,435.0176 C336.634,424.1036 341.53,394.0226 371.044,392.1041 C394.645,390.5681 405.463,412.9856 409,427.8161 C411.4375,438.0401 411.247,467.5166 411.5155,479.4356 L342.2425,481.3856 Z" id="Fill-133" fill="#597EF7"></path>
        <path d="M337.971518,433.597999 C338.289202,433.601393 338.544011,433.861652 338.540649,434.179336 L338.543899,434.523496 C338.63412,438.369289 340.400471,457.978404 342.112889,475.43142 L342.709,481.441 L411.435736,478.018212 C411.721314,478.003989 411.968604,478.200546 412.026727,478.471318 L412.039613,478.564136 C412.053111,478.849714 411.856554,479.097004 411.585782,479.155127 L411.492964,479.167288 L342.219964,482.617288 C341.913921,482.63253 341.64965,482.405197 341.618987,482.100313 L340.664946,472.441018 C338.98628,455.151438 337.361453,436.885481 337.389838,434.167164 C337.393575,433.84948 337.653834,433.594671 337.971518,433.597999 Z" id="Stroke-135" fill="#1D39C4" fill-rule="nonzero"></path>
        <path d="M242.7379,536.6057 C242.7379,536.6057 253.6684,536.5517 260.4934,522.7352 C266.6749,510.2222 258.9679,504.2987 258.9679,504.2987 C258.9679,504.2987 249.0529,493.1207 233.7049,489.8747 C223.6459,487.7462 205.1524,480.8447 202.6369,485.7137 C199.3579,492.0602 218.8264,495.6677 219.7894,500.7497 C221.7394,511.0487 191.7994,508.8542 186.2899,511.1987 C177.8284,514.7987 186.2689,533.6342 215.3629,537.5792 C223.3009,538.6562 231.1759,538.7132 242.7379,536.6057" id="Fill-137" fill="#FFC2BD"></path>
        <path d="M216.46973,516.066798 C216.554894,516.405862 216.349067,516.749767 216.010002,516.83493 L215.666417,516.916531 L215.217198,517.017043 C215.055989,517.052177 214.883418,517.088866 214.699804,517.126886 C213.65329,517.343582 212.460923,517.560067 211.143153,517.762007 C203.450186,518.940906 195.357204,519.117772 187.766657,517.649016 C186.766337,517.455456 185.783935,517.233954 184.820615,516.983658 C184.482254,516.895742 184.279227,516.550177 184.367142,516.211815 C184.455058,515.873454 184.800623,515.670427 185.138985,515.758342 C186.07616,516.001846 187.032612,516.217497 188.007165,516.406071 C195.434402,517.843227 203.389899,517.669365 210.951385,516.510615 C212.246762,516.312107 213.417554,516.099539 214.443105,515.887183 L215.173226,515.730263 L215.701598,515.60707 C216.040662,515.521906 216.384567,515.727733 216.46973,516.066798 Z" id="Stroke-139" fill="#D18682" fill-rule="nonzero"></path>
        <path d="M188.131411,523.34953 C188.234258,523.015404 188.588494,522.827915 188.92262,522.930761 L189.200188,523.010032 L189.592364,523.113959 C189.734496,523.150388 189.887995,523.188525 190.052735,523.228128 C190.998927,523.455593 192.113074,523.683505 193.38722,523.896515 C200.738481,525.125487 209.61311,525.325764 219.671372,523.839549 C220.017213,523.788447 220.338999,524.027381 220.390101,524.373222 C220.441203,524.719063 220.202269,525.040849 219.856428,525.091951 C209.66155,526.598352 200.654986,526.395098 193.178469,525.145185 C191.874644,524.927214 190.731453,524.693361 189.75682,524.459059 L189.062058,524.284026 L188.601443,524.15617 C188.581298,524.150209 188.564206,524.145056 188.55018,524.140739 C188.216054,524.037892 188.028565,523.683656 188.131411,523.34953 Z" id="Stroke-141" fill="#D18682" fill-rule="nonzero"></path>
        <path d="M223.72176,530.919348 C223.791681,531.261881 223.570684,531.59624 223.228152,531.66616 L222.099482,531.918758 C221.26881,532.110123 220.330095,532.331847 220.298951,532.338912 C214.719735,533.604431 209.404261,533.796203 200.714354,532.381727 C200.369299,532.325562 200.135107,532.000309 200.191273,531.655254 C200.247438,531.310199 200.572691,531.076007 200.917746,531.132173 L202.141931,531.324116 C209.747848,532.469381 214.606932,532.28491 219.622554,531.192404 L222.974948,530.42574 C223.317481,530.355819 223.65184,530.576816 223.72176,530.919348 Z" id="Stroke-143" fill="#D18682" fill-rule="nonzero"></path>
        <path d="M202.031453,485.528634 C202.133745,485.194338 202.48767,485.006261 202.821966,485.108553 C203.156262,485.210845 203.344339,485.56477 203.242047,485.899066 C202.869917,487.115207 202.961429,487.753618 203.572911,488.438976 C203.923782,488.832237 204.455874,489.255233 205.314331,489.829336 L205.8992,490.210075 L209.214651,492.295532 C209.874818,492.714873 210.511626,493.079446 211.480591,493.594071 L213.936592,494.873287 C217.038042,496.499748 218.4566,497.43413 219.551037,498.753132 C221.180234,500.716619 221.145598,502.959969 219.221505,505.543836 C217.130693,508.352457 211.514875,509.967373 203.368462,510.745336 C198.711734,511.190043 193.819738,511.308047 189.404252,511.230846 L188.136211,511.203003 L187.121899,511.169759 C186.772629,511.154653 186.501736,510.859269 186.516841,510.509999 C186.531947,510.160729 186.827331,509.889836 187.176601,509.904941 L187.499708,509.917059 L188.425135,509.944006 C193.050579,510.057515 198.29189,509.958378 203.24811,509.48507 L204.207661,509.38803 C211.467644,508.611746 216.490896,507.091783 218.206051,504.787789 C219.793571,502.655906 219.818245,501.057772 218.576753,499.561542 C217.624285,498.413639 216.279549,497.531267 213.322269,495.980734 L211.126915,494.839244 C210.166384,494.33298 209.511513,493.967369 208.879915,493.579213 L205.072979,491.184516 C204.987875,491.129986 204.916623,491.083962 204.862469,491.048454 C203.773952,490.33472 203.103374,489.814337 202.628249,489.281811 C201.695941,488.236866 201.538609,487.139278 202.031453,485.528634 Z" id="Stroke-145" fill="#D18682" fill-rule="nonzero"></path>
        <path d="M368.246817,487.306832 C368.595843,487.286877 368.894962,487.553641 368.915968,487.902667 C368.933059,488.219964 368.714242,488.496015 368.412079,488.558576 L368.319083,488.570768 L245.538083,495.590768 C245.189057,495.610723 244.889938,495.343959 244.868932,494.994933 C244.851841,494.677636 245.070658,494.401585 245.372821,494.339024 L245.465817,494.326832 L368.246817,487.306832 Z" id="Stroke-147" fill="#D18682" fill-rule="nonzero"></path>
    </g>
</svg>