<svg xmlns="http://www.w3.org/2000/svg" xmlns:xlink="http://www.w3.org/1999/xlink" width="512" height="1024" version="1.1" viewBox="0 0 512 1024"><title>2.人物组件/2.保安/坐姿/讲解</title><desc>Created with Sketch.</desc><defs><polygon id="path-1" points=".873 .678 70.899 .678 70.899 62.395 .873 62.395"/></defs><g id="2.人物组件/2.保安/坐姿/讲解" fill="none" fill-rule="evenodd" stroke="none" stroke-width="1"><path id="Fill-1" fill="#253368" d="M342.49255,787.0336 L382.66255,775.8451 C391.20055,763.7986 376.70305,751.2811 376.70305,751.2811 L350.19055,637.8286 C346.63255,622.7056 331.20655,613.5826 316.24105,617.7511 C301.27405,621.9196 292.78405,637.7026 297.55555,652.4881 L334.05655,765.1996 C334.05655,765.1996 328.89055,781.9711 342.49255,787.0336"/><path id="Fill-3" fill="#FFC2BD" d="M301.54795,488.6977 C301.54795,488.6977 279.77695,433.3927 274.62895,424.1332 C270.12445,416.0332 256.02145,396.0682 233.20795,406.5787 C214.96645,414.9832 214.84045,432.8197 218.20195,445.3237 C224.00845,466.9252 239.17645,490.5982 253.08295,512.0722 C253.08295,512.0722 268.03345,537.0007 291.98695,522.5302 C312.25945,510.2857 301.54795,488.6977 301.54795,488.6977"/><path id="Fill-5" fill="#597EF7" d="M290.0218,460.56535 C286.3003,451.67635 277.1533,426.54535 275.5318,423.62785 C271.0273,415.52635 255.1978,395.04835 232.3858,405.56035 C214.1428,413.96485 214.6228,432.92035 217.9843,445.42435 C220.3018,454.04485 232.8883,478.13635 237.5113,487.14535 L290.0218,460.56535 Z"/><path id="Stroke-7" fill="#1D39C4" fill-rule="nonzero" d="M290.114945,460.594035 C290.358483,460.477307 290.650537,460.580107 290.767265,460.823645 C290.871023,461.040124 290.801327,461.294935 290.613514,461.430869 L290.537655,461.475965 L237.419655,486.935465 C237.176117,487.052193 236.884063,486.949393 236.767335,486.705855 C236.663577,486.489376 236.733273,486.234565 236.921086,486.098631 L236.996945,486.053535 L290.114945,460.594035 Z"/><path id="Fill-9" fill="#FFC2BD" d="M341.79085,408.86875 C335.19535,430.69225 321.90985,482.54575 307.91935,510.51025 C307.91935,510.51025 292.61785,539.29225 267.29185,525.78625 C242.59735,512.61775 259.64785,483.98125 259.64785,483.98125 C278.03935,451.52725 300.71485,414.09475 310.34785,395.64325 C310.34785,395.64325 315.99385,386.00425 329.26585,390.22825 C345.01585,395.23975 341.79085,408.86875 341.79085,408.86875"/><path id="Fill-11" fill="#FFC2BD" d="M312.79645,415.78585 L316.06945,363.75235 C316.06945,363.75235 331.50745,322.05235 339.98845,322.86685 C348.06895,324.66535 333.43195,339.08635 332.24845,350.71585 C339.23245,348.81985 338.08345,359.98735 338.08345,359.98735 C338.08345,359.98735 343.68295,358.67335 343.85245,367.55635 C349.69495,369.62785 348.58945,379.05535 348.58945,379.05535 C348.58945,379.05535 344.28595,399.62035 337.58995,424.00885 C337.58995,424.00885 317.34745,446.64535 312.79645,415.78585"/><path id="Fill-13" fill="#FFC2BD" d="M310.33045,398.185 C310.33045,398.185 308.41795,388.1425 309.85195,372.838 C310.66045,364.2145 304.67095,350.47 311.55595,353.2765 C316.18495,355.162 317.23495,364.2865 318.38995,370.942 C319.54345,377.5975 334.34545,389.572 328.50445,402.01 C324.55795,410.413 312.24295,410.1415 310.33045,398.185"/><path id="Stroke-15" fill="#965C56" fill-rule="nonzero" d="M332.505297,350.31288 C332.727934,350.454484 332.793624,350.74976 332.65202,350.972397 L332.378276,351.414231 L332.103035,351.869931 C331.95975,352.109636 331.808271,352.366783 331.649968,352.639842 C330.895877,353.940585 330.141728,355.333537 329.438291,356.761692 C328.710713,358.238858 328.079349,359.670293 327.572405,361.023606 C325.54387,366.43888 325.751116,369.794785 328.754944,370.407901 C329.013468,370.460669 329.180266,370.713021 329.127499,370.971544 C329.074731,371.230068 328.822379,371.396866 328.563856,371.344099 C324.70894,370.557266 324.464362,366.596835 326.677623,360.688425 C327.196589,359.303021 327.840434,357.843287 328.581126,356.339496 C329.294835,354.890487 330.059057,353.478931 330.823337,352.160612 L331.134922,351.628512 C331.235473,351.458558 331.33258,351.296165 331.425838,351.141784 L331.84578,350.459603 C331.987384,350.236966 332.28266,350.171276 332.505297,350.31288 Z"/><path id="Stroke-17" fill="#965C56" fill-rule="nonzero" d="M337.792181,360.077007 C337.990033,360.251574 338.00891,360.553479 337.834343,360.751331 L337.513215,361.12444 L337.105213,361.611295 C336.962407,361.783788 336.813106,361.966231 336.658243,362.157858 C335.773155,363.253059 334.888072,364.421895 334.062794,365.614748 C333.280135,366.746 332.591974,367.841344 332.024645,368.878201 C329.902716,372.756263 329.717954,375.273419 331.861711,376.071993 C333.672607,376.74583 335.64955,375.538453 337.603381,373.029919 C338.170661,372.301587 338.690348,371.518984 339.150199,370.736258 L339.377056,370.341104 C339.447772,370.214906 339.513526,370.094507 339.57414,369.980748 L339.718893,369.701406 C339.835338,369.464638 340.121675,369.367097 340.358444,369.483543 C340.595212,369.599988 340.692753,369.886325 340.576307,370.123094 L340.417407,370.430059 C340.290137,370.66892 340.141914,370.934524 339.974042,371.220265 C339.494471,372.036556 338.952331,372.852971 338.357207,373.617054 C336.172579,376.421909 333.85919,377.834762 331.528328,376.967446 C328.586571,375.871607 328.815505,372.752663 331.186418,368.419555 C331.771124,367.35094 332.476597,366.22804 333.277022,365.07111 C334.116953,363.857077 335.016022,362.669772 335.915087,361.557276 L336.369486,361.001635 L337.117857,360.119169 C337.292424,359.921317 337.594329,359.90244 337.792181,360.077007 Z"/><path id="Stroke-19" fill="#965C56" fill-rule="nonzero" d="M341.92296,368.103872 C342.170814,368.013386 342.445092,368.140957 342.535578,368.38881 C342.626064,368.636664 342.498493,368.910942 342.25064,369.001428 C341.047335,369.44073 339.740287,370.811959 338.363606,373.269641 C335.455727,378.460497 335.223583,381.620529 336.764375,382.15765 C338.245912,382.674115 340.848375,380.810411 342.150863,377.864937 C342.390908,377.322095 343.208845,377.616736 343.047578,378.187955 C341.438016,383.889147 339.088646,387.257774 335.607908,389.793951 C335.197132,390.093255 334.772888,390.381169 334.293457,390.68892 L333.638735,391.100195 C333.135539,391.410539 332.316991,391.909914 332.308923,391.914885 C327.941288,394.606253 326.461431,396.892499 326.435046,403.063693 C326.433918,403.327544 326.219109,403.540524 325.955257,403.539405 C325.691406,403.538268 325.478426,403.323459 325.479545,403.059607 C325.506912,396.661063 327.111051,394.058179 331.538611,391.269029 L333.415212,390.114467 C334.034893,389.725825 334.551736,389.381274 335.045224,389.021703 C337.574827,387.178553 339.470298,384.880487 340.915957,381.443882 L340.979,381.288 L340.945388,381.323141 C339.546807,382.729413 337.903255,383.459037 336.609681,383.109271 L336.44985,383.0599 C334.086949,382.236191 334.364895,378.452679 337.529988,372.802671 C339.007845,370.164368 340.464293,368.636402 341.92296,368.103872 Z"/><path id="Stroke-21" fill="#965C56" fill-rule="nonzero" d="M316.816652,362.164154 C317.042276,362.100115 317.276074,362.209435 317.375843,362.41279 L317.406696,362.493302 L320.899,374.799 L321.129814,375.062569 C321.370547,375.342124 321.638288,375.66609 321.926298,376.030951 C322.748038,377.071962 323.569427,378.233926 324.336496,379.489099 C326.673721,383.313554 328.018447,387.161257 327.851174,390.78531 C327.800367,391.886058 327.607545,392.949527 327.263873,393.970203 C327.179675,394.220263 326.908706,394.35472 326.658647,394.270523 C326.408587,394.186325 326.27413,393.915356 326.358327,393.665297 C326.67298,392.730804 326.849896,391.755067 326.89669,390.741254 C327.053573,387.342292 325.768014,383.663883 323.521191,379.987353 C322.775278,378.766799 321.975616,377.635571 321.176304,376.622972 L320.773306,376.122866 L320.202385,375.453406 L320.119733,375.361998 L320.011004,375.168198 L316.487504,362.754198 C316.41546,362.500371 316.562824,362.236199 316.816652,362.164154 Z"/><path id="Fill-23" fill="#4E5C93" d="M238.68565,769.21675 L278.26915,787.09675 C293.13865,783.16675 289.90765,763.47925 289.90765,763.47925 L344.47315,655.08175 C351.72715,640.61725 345.48715,623.02225 330.73915,616.36075 C315.99265,609.69925 298.66465,616.64875 292.60765,631.65325 L246.52165,746.12875 C246.52165,746.12875 231.19165,756.08725 238.68565,769.21675"/><path id="Fill-25" fill="#253368" d="M265.35385,853.4239 L218.28685,827.9719 L239.09935,769.5949 L276.97435,786.7024 L257.24335,821.9104 L269.77135,849.2929 C271.04335,852.0754 268.04635,854.8804 265.35385,853.4239"/><path id="Fill-27" fill="#4E5C93" d="M347.39095,644.25595 L347.39095,644.25595 C348.37945,629.08795 337.29295,615.81145 320.69395,614.16895 L172.12045,597.14245 C153.26695,594.72295 135.10495,609.89095 133.77295,630.33145 C132.43945,650.77195 148.48045,668.16895 168.96145,668.49895 L318.48595,670.90495 C333.68545,671.14945 346.40245,659.42395 347.39095,644.25595"/><path id="Fill-29" fill="#253368" d="M413.97025,829.6642 L363.62425,839.8807 L343.03075,784.0567 L381.46675,773.3512 L388.59775,811.4377 L414.68125,823.9027 C417.33175,825.1687 416.84875,829.0807 413.97025,829.6642"/><path id="Fill-31" fill="#597EF7" d="M125.0167,545.056 C125.0167,545.056 97.8382,424.0735 103.3402,413.0695 C108.8407,402.067 134.8447,389.5045 179.6842,390.409 C241.4617,391.6555 263.8897,410.5525 263.8897,410.5525 C263.8897,410.5525 248.2012,493.9945 231.3082,535.1695 C238.3102,547.6735 228.8212,558.433 228.8212,558.433 C228.8212,558.433 148.9267,554.7385 129.9217,555.739 C121.0462,551.935 125.0167,545.056 125.0167,545.056"/><path id="Fill-33" fill="#4E5C93" d="M236.59015,644.0707 L185.69665,658.8712 L118.40365,639.8662 C118.40365,639.8662 108.26665,621.2842 128.25715,568.1017 C130.79215,561.1282 131.82265,555.8977 131.82265,555.8977 C131.82265,555.8977 192.52615,557.9137 228.82015,558.4342 L230.08915,569.8447 C230.08915,569.8447 241.44415,594.2542 241.44415,606.9232 C241.44415,630.6577 236.59015,644.0707 236.59015,644.0707"/><polygon id="Fill-35" fill="#FFC2BD" points="165.343 393.658 178.845 330.385 229.692 338.51 222.906 393.424 200.076 421.189"/><path id="Fill-37" fill="#FFC2BD" d="M200.2708,302.01505 C200.2708,302.01505 230.2453,298.86955 236.0338,313.53655 C241.6648,327.79855 235.0003,375.25855 218.8633,380.18305 C205.7098,384.19705 181.0933,377.65555 178.6123,353.87305 C178.6123,353.87305 176.2618,335.56255 180.5203,320.17705 C184.7803,304.79305 200.2708,302.01505 200.2708,302.01505"/><path id="Fill-39" fill="#FFC2BD" d="M180.7057,340.08415 C180.7057,340.08415 175.1542,323.85115 167.9617,331.09615 C160.7707,338.33965 168.5167,354.90565 177.3862,355.61065 C186.2572,356.31565 180.7057,340.08415 180.7057,340.08415"/><g id="分组" transform="translate(170.500000, 280.822000)"><mask id="mask-2" fill="#fff"><use xlink:href="#path-1"/></mask><path id="Fill-41" fill="#253368" d="M66.4095,60.7401 C66.4095,60.7401 72.93,43.1346 70.254,31.1856 C67.5795,19.2381 63.6525,7.0986 58.674,12.4356 C58.4745,9.5196 55.5705,3.3066 53.0355,0.9981 C50.5005,-1.3104 39.87,9.5811 39.87,9.5811 C39.87,9.5811 41.3535,4.0341 37.3815,6.9591 C33.411,9.8826 10.797,17.3511 6.4935,22.4676 C2.19,27.5856 0.873,48.6021 0.873,48.6021 C0.873,48.6021 7.7055,48.9981 9.36,62.3946 C9.9885,51.9096 15.114,47.1576 17.637,45.4356 C18.594,44.7831 19.2375,43.7721 19.4985,42.6456 C19.998,40.4796 20.8035,36.8391 21.441,33.2601 C21.7215,31.6836 23.0775,30.5496 24.6795,30.5166 C40.986,30.1776 58.077,35.3031 64.1355,37.3191 C65.5065,37.7736 66.411,39.0681 66.384,40.5111 L66.168,52.5036 C66.168,52.5036 66.687,54.6906 66.4095,60.7401" mask="url(#mask-2)"/></g><path id="Stroke-43" fill="#253368" fill-rule="nonzero" d="M198.73584,330.006404 C198.835886,329.989795 198.937381,329.98529 199.03815,329.992856 L199.188485,330.013255 L211.011485,332.345755 C211.697862,332.481167 212.144507,333.147358 212.009095,333.833735 C211.882147,334.477213 211.288693,334.90999 210.64945,334.849998 L210.521115,334.831345 L198.924,332.543 L195.69926,333.078696 C195.052234,333.186112 194.438424,332.782726 194.269817,332.163208 L194.242154,332.03651 C194.134738,331.389484 194.538124,330.775674 195.157642,330.607067 L195.28434,330.579404 L198.73584,330.006404 Z"/><path id="Fill-45" fill="#EFADAB" d="M180.2596,346.1881 C180.2596,346.1881 187.3996,353.7391 190.6321,360.9631 C198.8701,352.3126 207.1051,351.6796 207.1051,351.6796 C207.1051,351.6796 210.9076,354.4246 214.2856,355.9021 C215.6746,354.6706 218.5096,354.8461 218.5096,354.8461 C218.5096,354.8461 223.7881,358.0141 225.5251,365.5381 C228.1186,361.1236 234.3421,355.8406 234.3421,355.8406 C234.3421,355.8406 232.3801,371.0356 224.4211,378.9196 C220.8046,382.5031 215.7601,383.3251 209.4286,382.7206 C186.6301,379.2601 179.6896,366.5161 178.7086,355.5466 C178.6156,352.1401 178.9711,343.5886 180.2596,346.1881"/><path id="Fill-47" fill="#FFF" d="M218.64955,360.05575 C210.36505,358.57675 202.60105,356.95825 202.60105,356.95825 C202.60105,356.95825 203.38105,362.05675 209.38105,363.55675 C216.26005,365.27575 218.64955,360.05575 218.64955,360.05575"/><path id="Stroke-49" fill="#D18682" fill-rule="nonzero" d="M201.599453,357.11148 C201.758581,358.151624 202.311651,359.629807 203.514929,361.103522 C204.838747,362.724868 206.693965,363.929413 209.135301,364.539747 C212.840308,365.465595 215.748728,364.654867 217.847763,362.726012 C218.744082,361.902364 219.298768,361.07189 219.57086,360.477488 C219.846562,359.875201 219.479707,359.174684 218.827626,359.058271 L216.872935,358.705158 C214.249351,358.225856 211.586588,357.719075 208.975297,357.206796 L204.903974,356.395467 L202.807829,355.966324 C202.115868,355.822076 201.492561,356.412773 201.599453,357.11148 Z M204.12,358.304 L206.632188,358.809389 L208.585531,359.19546 C211.204831,359.70931 213.875975,360.217684 216.508742,360.698663 L216.928,360.774 L216.917673,360.787185 C216.781695,360.939029 216.634718,361.08853 216.476578,361.233849 C214.86707,362.712865 212.653128,363.330005 209.626698,362.573728 C207.616575,362.071197 206.136705,361.110356 205.084651,359.821854 C204.769349,359.435687 204.503762,359.03346 204.283569,358.624761 L204.12,358.304 Z"/><path id="Stroke-51" fill="#965C56" fill-rule="nonzero" d="M220.888209,336.286011 C221.037651,336.013657 221.379585,335.914017 221.651939,336.063459 C221.894032,336.196297 221.999659,336.481226 221.915184,336.734187 L221.874491,336.827189 L218.888,342.269 L219.025572,343.037204 C219.157038,343.792169 219.288465,344.611792 219.411154,345.467776 C219.592322,346.731763 219.73845,347.964528 219.836898,349.125671 L219.893718,349.856938 C220.152578,353.547315 219.865387,355.870326 218.656161,356.547401 C217.548202,357.167773 215.566016,356.780216 212.821867,355.693308 C212.161876,355.431898 211.471929,355.133749 210.76097,354.805733 C209.811216,354.367543 208.871524,353.89855 207.98302,353.42954 L207.333334,353.08136 L206.827721,352.801528 C206.557693,352.647921 206.463316,352.304498 206.616922,352.034471 C206.770529,351.764443 207.113952,351.670066 207.383979,351.823672 L208.072429,352.202274 C208.210188,352.27651 208.355661,352.354128 208.50819,352.434643 C209.380059,352.894871 210.302221,353.355115 211.23227,353.784214 C211.925397,354.104003 212.596615,354.394058 213.236146,354.647365 C215.641521,355.60009 217.423164,355.948437 218.106539,355.565799 C218.789401,355.183449 219.01627,352.763159 218.71592,349.220715 C218.619465,348.083077 218.475825,346.871296 218.297535,345.627392 L218.148736,344.633282 C218.123429,344.471053 218.097914,344.310705 218.072261,344.152467 L217.855165,342.878372 C217.807319,342.611031 217.769626,342.409706 217.745259,342.284814 C217.726367,342.187978 217.733377,342.088473 217.764759,341.996118 L217.804209,341.906511 L220.888209,336.286011 Z"/><path id="Stroke-53" fill="#965C56" fill-rule="nonzero" d="M205.723263,368.114954 L211.031763,369.442454 C211.333142,369.51782 211.516362,369.823233 211.440996,370.124613 C211.373167,370.395854 211.118999,370.571387 210.849138,370.548839 L210.758837,370.533846 L205.450337,369.206346 C205.148958,369.13098 204.965738,368.825567 205.041104,368.524187 C205.108933,368.252946 205.363101,368.077413 205.632962,368.099961 L205.723263,368.114954 Z"/><path id="Stroke-55" fill="#965C56" fill-rule="nonzero" d="M200.187172,341.102071 C200.504771,339.010061 202.024618,337.446017 203.677432,337.696327 C205.331519,337.946541 206.318206,339.89174 206.000428,341.984929 C205.953799,342.292069 205.667012,342.503256 205.359871,342.456628 C205.052731,342.409999 204.841544,342.123212 204.888172,341.816071 C205.122528,340.27238 204.452453,338.951364 203.509073,338.808658 C202.566033,338.665839 201.533627,339.728268 201.299428,341.270929 C201.252799,341.578069 200.966012,341.789256 200.658871,341.742628 C200.351731,341.695999 200.140544,341.409212 200.187172,341.102071 Z"/><path id="Stroke-57" fill="#965C56" fill-rule="nonzero" d="M223.415872,345.114271 C223.733471,343.022261 225.253318,341.458217 226.906227,341.708542 C228.559224,341.95888 229.546788,343.904717 229.229128,345.997129 C229.182499,346.304269 228.895712,346.515456 228.588571,346.468828 C228.281431,346.422199 228.070244,346.135412 228.116872,345.828271 C228.351108,344.285374 227.68027,342.963595 226.737773,342.820858 C225.794733,342.678039 224.762327,343.740468 224.528128,345.283129 C224.481499,345.590269 224.194712,345.801456 223.887571,345.754828 C223.580431,345.708199 223.369244,345.421412 223.415872,345.114271 Z"/><path id="Stroke-59" fill="#D18682" fill-rule="nonzero" d="M201.105301,354.037973 C201.41327,353.760975 201.887479,353.786082 202.164477,354.094051 C202.416294,354.374022 202.418437,354.791383 202.185363,355.073066 L202.108399,355.153227 L199.453399,357.541227 C199.14543,357.818225 198.671221,357.793118 198.394223,357.485149 C198.142406,357.205178 198.140263,356.787817 198.373337,356.506134 L198.450301,356.425973 L201.105301,354.037973 Z"/><path id="Stroke-61" fill="#D18682" fill-rule="nonzero" d="M178.739061,355.891967 C179.086963,355.857593 179.396859,356.111758 179.431233,356.459661 L179.451824,356.637319 C179.478994,356.848361 179.526503,357.158324 179.599783,357.556137 C179.764141,358.448392 180.000037,359.444736 180.320231,360.518935 C181.236016,363.591247 182.641748,366.663916 184.637781,369.529213 C191.03236,378.708601 201.866941,383.73582 218.331597,382.425894 C218.680092,382.398168 218.98508,382.658202 219.012806,383.006697 C219.040532,383.355192 218.780498,383.66018 218.432003,383.687906 C201.522276,385.033242 190.252653,379.804165 183.598989,370.25286 C181.520472,367.26916 180.05918,364.075046 179.106983,360.880576 C178.773383,359.761401 178.527065,358.72104 178.35473,357.785483 L178.273713,357.319069 C178.249956,357.172873 178.229378,357.036089 178.211773,356.909122 L178.171367,356.584139 C178.136993,356.236237 178.391158,355.926341 178.739061,355.891967 Z"/><path id="Stroke-63" fill="#965C56" fill-rule="nonzero" d="M207.660321,373.273749 C207.927737,373.115642 208.272693,373.204254 208.430801,373.471671 L208.528857,373.648514 C208.555902,373.699527 208.586179,373.758148 208.619147,373.82397 C208.754248,374.093713 208.888887,374.395411 209.01452,374.722944 C209.458586,375.880656 209.683196,377.0589 209.563234,378.182472 C209.383435,379.866468 208.438564,381.221632 206.619022,382.066621 C206.337262,382.197469 206.002777,382.075131 205.871929,381.793372 C205.741081,381.511612 205.863419,381.177127 206.145178,381.046279 C207.601691,380.36988 208.30617,379.359493 208.444592,378.063036 C208.542788,377.143325 208.349922,376.131605 207.964139,375.125841 C207.852328,374.83434 207.732563,374.565972 207.613259,374.327771 L207.462399,374.044229 C207.304292,373.776813 207.392904,373.431857 207.660321,373.273749 Z"/><path id="Stroke-65" fill="#D18682" fill-rule="nonzero" d="M169.979441,337.540789 C169.937544,337.846504 169.676991,338.083564 169.359195,338.087013 C169.041399,338.090462 168.775763,337.859113 168.727241,337.55438 L168.719363,337.46092 C168.717363,337.100303 168.767842,336.621629 168.926625,336.13142 C169.413904,334.627046 170.682417,334.051497 172.506757,335.090582 C175.16351,336.604571 175.264311,338.688347 173.872279,342.223506 L173.658033,342.75131 C172.772586,344.873331 173.345084,346.231092 175.329701,346.950989 C175.658344,347.070201 175.828122,347.433259 175.708911,347.761901 C175.589699,348.090544 175.226641,348.260322 174.897999,348.141111 C172.225882,347.171831 171.329134,345.045068 172.489671,342.263779 C173.877487,338.937985 173.895568,337.339152 171.880066,336.190588 C170.784648,335.566674 170.380983,335.749825 170.13102,336.521534 C170.068195,336.715492 170.0266,336.930577 170.003677,337.147945 L169.994757,337.24346 L169.979441,337.540789 Z"/><path id="Fill-67" fill="#D18682" d="M201.6742,365.0443 C201.5722,365.3563 201.2362,365.5273 200.9242,365.4253 C200.6122,365.3233 200.4427,364.9873 200.5447,364.6753 C200.6452,364.3633 200.9812,364.1938 201.2932,364.2943 C201.6052,364.3963 201.7762,364.7323 201.6742,365.0443"/><path id="Fill-69" fill="#D18682" d="M192.5167,365.9167 C192.4147,366.2287 192.0787,366.3997 191.7667,366.2977 C191.4547,366.1957 191.2852,365.8597 191.3857,365.5477 C191.4877,365.2357 191.8237,365.0662 192.1357,365.1667 C192.4477,365.2687 192.6172,365.6047 192.5167,365.9167"/><path id="Fill-71" fill="#D18682" d="M220.6453,372.15175 C220.7128,372.47275 220.5058,372.78775 220.1848,372.85525 C219.8638,372.92275 219.5488,372.71575 219.4813,372.39475 C219.4153,372.07375 219.6208,371.75875 219.9418,371.69125 C220.2643,371.62375 220.5793,371.83075 220.6453,372.15175"/><path id="Fill-73" fill="#D18682" d="M226.5868,370.1794 C226.6528,370.5004 226.4473,370.8154 226.1263,370.8829 C225.8053,370.9504 225.4903,370.7434 225.4228,370.4224 C225.3568,370.1014 225.5623,369.7864 225.8833,369.7189 C226.2043,369.6514 226.5193,369.8584 226.5868,370.1794"/><path id="Fill-75" fill="#D18682" d="M215.59975,373.1368 C215.66575,373.4578 215.46025,373.7728 215.13925,373.8403 C214.81825,373.9063 214.50325,373.7008 214.43575,373.3798 C214.36825,373.0573 214.57525,372.7438 214.89625,372.6763 C215.21725,372.6088 215.53225,372.8158 215.59975,373.1368"/><path id="Fill-77" fill="#D18682" d="M208.94635,370.74775 C209.01385,371.06875 208.80685,371.38375 208.48585,371.45125 C208.16485,371.51875 207.84985,371.31175 207.78235,370.99075 C207.71635,370.66975 207.92185,370.35475 208.24285,370.28725 C208.56535,370.21975 208.88035,370.42675 208.94635,370.74775"/><path id="Fill-79" fill="#D18682" d="M186.03775,362.46115 C186.10525,362.78215 185.89825,363.09715 185.57725,363.16465 C185.25625,363.23065 184.94125,363.02515 184.87375,362.70415 C184.80775,362.38165 185.01325,362.06665 185.33425,362.00065 C185.65675,361.93315 185.97175,362.14015 186.03775,362.46115"/><path id="Fill-81" fill="#D18682" d="M195.98905,372.61825 C195.88705,372.93025 195.55105,373.10125 195.23905,372.99925 C194.92705,372.89875 194.75755,372.56275 194.85955,372.24925 C194.96005,371.93725 195.29605,371.76775 195.60805,371.86825 C195.92005,371.97025 196.09105,372.30625 195.98905,372.61825"/><path id="Fill-83" fill="#D18682" d="M200.68615,372.39925 C200.58565,372.71125 200.24965,372.88225 199.93615,372.78025 C199.62415,372.67825 199.45465,372.34225 199.55665,372.03025 C199.65715,371.71825 199.99315,371.54875 200.30515,371.64925 C200.61715,371.75125 200.78815,372.08725 200.68615,372.39925"/><path id="Fill-85" fill="#D18682" d="M218.8597,376.777 C218.7577,377.089 218.4217,377.26 218.1097,377.158 C217.7977,377.056 217.6282,376.72 217.7302,376.408 C217.8307,376.096 218.1667,375.9265 218.4787,376.027 C218.7907,376.129 218.9617,376.465 218.8597,376.777"/><path id="Fill-87" fill="#D18682" d="M216.99715,369.39265 C216.89515,369.70465 216.55915,369.87565 216.24715,369.77365 C215.93515,369.67165 215.76565,369.33565 215.86765,369.02365 C215.96815,368.71165 216.30415,368.54215 216.61615,368.64265 C216.92815,368.74465 217.09915,369.08065 216.99715,369.39265"/><path id="Fill-89" fill="#D18682" d="M220.0045,363.83725 C219.9025,364.14925 219.5665,364.32025 219.2545,364.21825 C218.9425,364.11625 218.773,363.78025 218.875,363.46825 C218.9755,363.15625 219.3115,362.98675 219.6235,363.08725 C219.9355,363.18925 220.1065,363.52525 220.0045,363.83725"/><path id="Fill-91" fill="#D18682" d="M191.3821,369.49165 C191.2801,369.80365 190.9441,369.97465 190.6321,369.87265 C190.3201,369.77065 190.1506,369.43465 190.2526,369.12265 C190.3531,368.81065 190.6891,368.64115 191.0011,368.74165 C191.3131,368.84365 191.4841,369.17965 191.3821,369.49165"/><path id="Stroke-93" fill="#253368" fill-rule="nonzero" d="M220.77938,335.915028 C220.887191,335.268068 221.46755,334.817883 222.108291,334.858892 L222.237122,334.87373 L232.372622,336.56273 C232.464467,336.578036 232.554203,336.603397 232.640235,336.638267 L232.766305,336.697635 L235.371805,338.104635 C235.98739,338.437058 236.216938,339.20557 235.884515,339.821155 C235.572868,340.398266 234.87794,340.636086 234.285066,340.389651 L234.167995,340.333865 L231.748,339.026 L221.820678,337.37277 C221.173718,337.264959 220.723533,336.6846 220.764542,336.043859 L220.77938,335.915028 Z"/><path id="Fill-95" fill="#597EF7" d="M227.64955,402.1942 L225.66655,389.0347 L213.00655,387.6262 L202.22755,413.0857 L192.57805,386.1652 L167.17255,377.8207 L158.02855,394.0042 C158.02855,394.0042 170.63305,423.6292 204.33805,421.7437 C220.99105,420.8122 227.64955,402.1942 227.64955,402.1942"/><path id="Stroke-97" fill="#1D39C4" fill-rule="nonzero" d="M257.236105,440.394334 C257.548459,440.452382 257.754615,440.752652 257.696566,441.065005 L257.453043,442.346111 C257.252451,443.388919 257.015453,444.598384 256.74327,445.960623 L256.375495,447.787823 C255.684959,451.194065 254.90524,454.906296 254.042254,458.857247 C251.128121,472.198832 247.866129,485.540756 244.334044,497.995544 L243.758719,500.007833 C239.631241,514.3265 235.411784,526.42611 231.154699,535.649329 L230.715,536.589 L230.827709,536.73631 L231.022624,537.004896 C231.422201,537.569305 231.820752,538.220204 232.192426,538.950221 C234.937606,544.342127 234.726524,550.422852 229.576337,556.482923 C229.370598,556.72501 229.007564,556.754476 228.765477,556.548737 C228.52339,556.342998 228.493924,555.979964 228.699663,555.737877 C233.522367,550.063146 233.716214,544.478906 231.167159,539.472215 C230.821861,538.794003 230.452228,538.190332 230.083621,537.669669 L229.909748,537.429855 C229.776375,537.250563 229.673049,537.123059 229.609095,537.050361 C229.45714,536.877634 229.422709,536.630982 229.521552,536.423244 C234.14553,526.70503 238.741294,513.499759 243.227192,497.681649 C246.752146,485.252007 250.00877,471.932043 252.918254,458.611738 L253.604603,455.438541 C254.197979,452.667659 254.746506,450.032644 255.247898,447.5594 L255.812183,444.744435 L256.421068,441.618298 L256.565434,440.854795 C256.617677,440.573676 256.86612,440.378579 257.142992,440.383936 L257.236105,440.394334 Z"/><path id="Fill-99" fill="#253368" d="M230.2474,570.00385 C182.1079,572.27335 128.0194,567.36385 128.0194,567.36385 L129.9214,553.81285 C129.9214,553.81285 188.0209,555.37885 229.1374,556.11085 C230.0089,562.60885 230.2474,570.00385 230.2474,570.00385"/><path id="Stroke-101" fill="#253368" fill-rule="nonzero" d="M192.444712,569.776524 C192.909585,569.738754 193.317057,570.084989 193.354826,570.549862 L193.43719,571.654989 L193.579106,573.793491 C193.665874,575.184386 193.751621,576.717956 193.832843,578.379662 C194.530121,592.645181 194.548396,607.825197 193.437371,622.061396 C192.669571,631.899662 191.390793,640.673309 189.531383,648.110581 C189.418258,648.563058 188.959747,648.838158 188.507269,648.725033 C188.054792,648.611908 187.779692,648.153397 187.892817,647.700919 C189.726724,640.365651 190.992464,631.681464 191.753491,621.929982 C192.858136,607.775539 192.839942,592.662296 192.145857,578.462119 L192.075555,577.076252 C192.004318,575.722403 191.930527,574.465628 191.856383,573.315104 L191.671374,570.686638 C191.633604,570.221765 191.979839,569.814293 192.444712,569.776524 Z"/><path id="Stroke-103" fill="#253368" fill-rule="nonzero" d="M208.983495,569.77375 C209.414022,569.77375 209.769687,570.094981 209.822293,570.511322 L209.829004,570.622012 L209.81756,573.95888 L209.799052,576.394448 C209.783873,578.068316 209.76287,579.839469 209.735165,581.689736 C209.628102,588.839941 209.440545,595.969495 209.154216,602.701027 L209.015185,605.776279 C208.095505,624.983126 206.554609,636.692707 203.873459,638.77883 C202.862843,639.564953 201.644596,640.415904 200.242638,641.32316 C199.188995,642.005009 198.040398,642.712922 196.811447,643.441118 C194.951774,644.543038 192.983051,645.648089 190.996329,646.71941 L189.802865,647.35786 C189.301439,647.623995 188.821462,647.876091 188.3672,648.112413 L186.786124,648.924369 L186.614542,649.010633 C186.197356,649.219172 185.690105,649.050029 185.481567,648.632842 C185.273028,648.215656 185.442171,647.708405 185.859358,647.499867 L186.72317,647.060782 L188.04652,646.374543 C188.35769,646.211571 188.679619,646.041875 189.011035,645.865973 C191.3777,644.609849 193.744061,643.295411 195.950453,641.988049 C197.161263,641.270602 198.291211,640.574182 199.325011,639.905175 C200.688895,639.022558 201.868492,638.198604 202.836356,637.445736 C204.932049,635.815141 206.524028,623.304455 207.386427,604.449575 C207.690059,597.811179 207.893616,590.738233 208.01521,583.609691 L208.046354,581.664449 C208.083225,579.202051 208.108204,576.880118 208.123363,574.741782 L208.140005,570.623655 C208.139445,570.15285 208.517091,569.77375 208.983495,569.77375 Z"/><path id="Fill-105" fill="#E1E7F3" d="M217.4491,556.80265 L217.4491,570.33865 C217.4491,572.10715 216.1006,573.55465 214.3921,573.60565 C208.7326,573.77515 196.1521,573.92665 184.7401,572.47915 C183.1471,572.27665 181.9471,570.88915 181.9471,569.23015 L181.9471,556.50265 C181.9471,554.68315 183.3736,553.21315 185.1316,553.23565 C191.6011,553.31515 206.3386,553.49065 214.3186,553.53415 C216.0556,553.54465 217.4491,555.00415 217.4491,556.80265"/><path id="Fill-107" fill="#253368" d="M213.787,559.13905 L213.784,568.09855 C213.784,569.26855 212.683,570.22705 211.2895,570.26005 C206.671,570.37105 196.408,570.46555 187.0975,569.50405 C185.7985,569.37055 184.819,568.45105 184.819,567.35305 L184.822,558.92905 C184.822,557.72455 185.9875,556.75255 187.423,556.76605 C192.7,556.82155 204.724,556.94305 211.234,556.97455 C212.6515,556.98205 213.787,557.94955 213.787,559.13905"/><polygon id="Fill-109" fill="#E1E7F3" points="184.919 571.234 214.889 557.859 213.651 555.135 183.432 568.758"/><polygon id="Fill-111" fill="#E1E7F3" points="183.631 558.288 213.67 571.507 214.857 568.759 184.468 555.523"/><path id="Stroke-113" fill="#1D39C4" fill-rule="nonzero" d="M203.345615,411.669041 C203.661445,411.703484 203.889553,411.987436 203.855109,412.303265 L203.707178,413.594362 C203.666249,413.942327 203.621257,414.318918 203.572235,414.722658 L203.324607,416.715711 C203.179136,417.861337 203.020541,419.069044 202.849031,420.329439 L202.744577,421.091923 C201.835902,427.681122 200.775115,434.270655 199.571714,440.423124 C199.36054,441.502768 199.146377,442.561043 198.929255,443.596459 C198.864053,443.907398 198.55913,444.106607 198.248191,444.041405 C197.937252,443.976203 197.738043,443.67128 197.803245,443.360341 C198.01928,442.330106 198.232414,441.276915 198.44261,440.202276 C199.541509,434.584078 200.521679,428.596006 201.375224,422.576855 L201.604863,420.934752 C201.921981,418.635192 202.197483,416.499975 202.430123,414.583983 L202.711391,412.178535 C202.74239,411.894288 202.975491,411.681096 203.252041,411.666409 L203.345615,411.669041 Z"/><path id="Fill-115" fill="#4E5C93" d="M329.2942,640.58065 L329.2942,640.58065 C329.7607,625.38715 318.2242,612.50065 303.0727,611.29015 L154.0027,599.38015 C133.5832,597.74965 115.9522,613.53265 115.3237,634.00765 C114.6952,654.48265 131.3227,671.31865 151.8037,670.94365 L301.3237,668.20615 C316.5217,667.92865 328.8277,655.77415 329.2942,640.58065"/><path id="Fill-117" fill="#FFC2BD" d="M118.39855,658.16095 C110.01355,632.66095 87.78955,573.67795 82.38655,537.25795 C82.38655,537.25795 77.69455,499.16395 111.24505,495.07645 C143.95705,491.09095 146.86105,530.22595 146.86105,530.22595 C151.05355,573.94795 154.47805,625.36795 157.65655,649.67095 C157.65655,649.67095 158.72305,662.77945 143.07055,667.67545 C124.49605,673.48345 118.39855,658.16095 118.39855,658.16095"/><path id="Fill-119" fill="#FFC2BD" d="M142.7809,526.6723 C142.7809,526.6723 161.3194,459.1873 163.0069,446.8273 C164.4829,436.0138 165.2929,407.2423 136.3744,401.0383 C113.2504,396.0763 100.5364,412.7938 94.8739,426.9493 C85.0924,451.4038 82.6699,484.4203 80.6104,514.4743 C80.6104,514.4743 77.0929,548.5198 109.8829,551.8003 C137.6314,554.5768 142.7809,526.6723 142.7809,526.6723"/><path id="Fill-121" fill="#597EF7" d="M151.786,492.025 C154.5565,481.0225 163.684,450.8815 164.215,446.9875 C165.6925,436.174 165.2365,405.7015 136.318,399.496 C113.194,394.534 100.261,412.735 94.5985,426.8905 C90.6955,436.6495 85.543,468.238 83.5375,479.9905 L151.786,492.025 Z"/><path id="Stroke-123" fill="#1D39C4" fill-rule="nonzero" d="M162.982839,445.372504 C163.297612,445.415549 163.51789,445.705617 163.474846,446.020389 C163.036231,449.227835 157.054271,473.935253 152.298237,492.822917 C152.231728,493.087041 151.991564,493.263617 151.727937,493.257934 L151.628271,493.246666 L83.6002709,479.727166 C83.2886631,479.665239 83.0862569,479.362429 83.1481841,479.050821 C83.2039185,478.770374 83.4547681,478.57838 83.7315427,478.587931 L83.8245291,478.598734 L151.315,492.011 L153.331047,483.949238 C157.505444,467.143523 161.865313,448.973446 162.320411,445.965161 L162.334954,445.864511 C162.373695,445.581216 162.612524,445.37446 162.889371,445.367322 L162.982839,445.372504 Z"/><path id="Stroke-125" fill="#253368" fill-rule="nonzero" d="M181.1773,598.91814 L244.5283,603.98664 C244.993219,604.023837 245.339957,604.430882 245.30276,604.8958 C245.268425,605.324956 244.918952,605.653413 244.499719,605.672149 L244.3936,605.67026 L181.0426,600.60176 C180.577681,600.564563 180.230943,600.157518 180.26814,599.6926 C180.302475,599.263444 180.651948,598.934987 181.071181,598.916251 L181.1773,598.91814 Z"/><path id="Fill-127" fill="#FFC2BD" d="M191.16835,696.2542 C196.16635,694.4107 187.57435,672.3427 184.87435,667.8142 C181.27285,661.7752 151.31485,636.0442 151.31485,636.0442 L113.92435,637.1992 C113.92435,637.1992 115.33585,657.8167 123.93235,672.9847 C130.34785,684.3022 141.48835,682.0147 157.13935,697.0792 C164.38135,704.0512 173.46235,711.4447 177.24985,705.9847 C177.99685,704.9092 185.58385,706.9852 184.67935,700.2502 C184.67935,700.2502 187.24435,702.2947 189.70135,700.2832 C191.83735,698.5342 191.16835,696.2542 191.16835,696.2542"/><path id="Stroke-129" fill="#965C56" fill-rule="nonzero" d="M151.173282,680.00073 C151.305787,679.719745 151.640986,679.599378 151.92197,679.731882 L152.429284,679.982881 L152.731206,680.138298 C153.367322,680.469075 154.075334,680.858336 154.837366,681.303789 C157.014069,682.576201 159.190808,684.045389 161.224864,685.694061 C163.064588,687.185221 164.698592,688.754371 166.072447,690.396175 L178.304883,705.012099 C178.504286,705.250317 178.47282,705.60508 178.234601,705.804483 C177.996383,706.003886 177.64162,705.97242 177.442217,705.734201 L165.209661,691.118135 C163.885614,689.535853 162.303071,688.016121 160.516482,686.568029 C158.530515,684.958335 156.400087,683.520404 154.269623,682.275021 C153.673242,681.926401 153.111203,681.613249 152.59273,681.336828 L151.921614,680.986821 C151.702113,680.875047 151.540099,680.795617 151.44213,680.749418 C151.161145,680.616913 151.040778,680.281714 151.173282,680.00073 Z"/><path id="Stroke-131" fill="#965C56" fill-rule="nonzero" d="M159.481,670.456699 C159.672478,670.212064 160.026017,670.168972 160.270651,670.36045 L160.967516,670.921664 L161.657316,671.492931 C162.01623,671.79355 162.395416,672.11625 162.791511,672.459245 C164.677637,674.092522 166.563854,675.851474 168.32587,677.670593 C170.335831,679.745692 172.055143,681.76832 173.395137,683.694073 L174.399874,685.125272 C174.865614,685.783489 175.356432,686.470579 175.870297,687.184024 L176.909966,688.620289 C178.333541,690.577656 179.842117,692.616935 181.364889,694.65048 L183.4957,697.480276 L184.72009,699.090465 C184.908935,699.337138 184.862057,699.690194 184.615385,699.87904 C184.368712,700.067885 184.015656,700.021007 183.82681,699.774335 L182.006782,697.376359 L181.380714,696.545582 C179.852272,694.514082 178.323795,692.459184 176.86587,690.468209 L175.348323,688.383174 L174.574777,687.309178 C173.818613,686.255047 173.115348,685.261437 172.471729,684.336679 C171.170276,682.466315 169.488723,680.488107 167.517793,678.453304 C165.780736,676.659953 163.917947,674.922848 162.055066,673.3097 L161.296118,672.659604 C161.051285,672.452221 160.814937,672.254333 160.588074,672.066476 L159.89027,671.495849 C159.752188,671.384533 159.646874,671.300846 159.577249,671.24635 C159.332614,671.054872 159.289522,670.701333 159.481,670.456699 Z"/><path id="Stroke-133" fill="#965C56" fill-rule="nonzero" d="M166.972874,663.808007 C167.147172,663.550849 167.496935,663.483677 167.754093,663.657974 L168.445596,664.146663 C168.990157,664.54062 169.596369,664.996211 170.248888,665.507992 C172.112801,666.969888 173.976709,668.590633 175.718114,670.327474 C178.937438,673.538362 181.363142,676.76841 182.679166,679.922413 L182.844502,680.333366 C183.483404,681.98223 184.192566,683.600515 184.960045,685.181457 C186.188583,687.712142 187.504924,690.026997 188.820667,692.076455 C189.280569,692.792817 189.707237,693.424444 190.089609,693.965169 L190.563677,694.617214 C190.752495,694.863906 190.705579,695.216958 190.458886,695.405777 C190.212194,695.594595 189.859142,695.547679 189.670323,695.300986 L189.437644,694.98706 L189.171067,694.614712 C188.779203,694.060563 188.343151,693.415046 187.873971,692.68423 C186.535192,690.598891 185.197011,688.245631 183.947996,685.672763 C183.167382,684.064763 182.445864,682.418284 181.795467,680.739754 C180.590179,677.627769 178.181616,674.373428 174.923663,671.124012 C173.216523,669.421345 171.385561,667.829249 169.554605,666.393201 C169.042056,665.991201 168.55899,665.624799 168.113313,665.296854 L167.536137,664.878471 C167.347192,664.743702 167.207574,664.646612 167.122907,664.589226 C166.865749,664.414928 166.798577,664.065165 166.972874,663.808007 Z"/><path id="Stroke-135" fill="#965C56" fill-rule="nonzero" d="M283.940717,441.551862 C284.076958,441.325904 284.37058,441.253175 284.596538,441.389417 C284.79739,441.51052 284.877172,441.755973 284.796734,441.967721 L284.758983,442.045238 L255.346983,490.825238 C255.210742,491.051196 254.91712,491.123925 254.691162,490.987683 C254.49031,490.86658 254.410528,490.621127 254.490966,490.409379 L254.528717,490.331862 L283.940717,441.551862 Z"/><path id="Stroke-137" fill="#1D39C4" fill-rule="nonzero" d="M160.431287,391.562087 C160.655936,391.337438 161.020164,391.337438 161.244813,391.562087 L161.53861,391.846315 C161.668721,391.969583 161.830761,392.120664 162.023981,392.297417 L162.606393,392.821438 C163.114518,393.271438 163.679303,393.753897 164.298555,394.262574 C166.778347,396.299573 169.61344,398.337337 172.755348,400.239073 C178.110856,403.480656 183.792516,405.983524 189.696545,407.45927 C190.004765,407.536311 190.192171,407.848626 190.11513,408.156845 C190.038089,408.465065 189.725774,408.652471 189.417555,408.57543 C183.393384,407.069655 177.607815,404.521013 172.159604,401.223318 C168.96804,399.291527 166.088676,397.221942 163.568281,395.151591 C162.811327,394.5298 162.133378,393.945694 161.53814,393.410047 L161.078804,392.991243 L160.511974,392.455034 L160.431287,392.375613 C160.206638,392.150964 160.206638,391.786736 160.431287,391.562087 Z"/></g></svg>