<?xml version="1.0" encoding="UTF-8"?>
<svg width="1024px" height="1024px" viewBox="0 0 1024 1024" version="1.1" xmlns="http://www.w3.org/2000/svg" xmlns:xlink="http://www.w3.org/1999/xlink">
    <!-- Generator: Sketch 61.2 (89653) - https://sketch.com -->
    <title>4.背景组件/彩色版/DNA基因</title>
    <desc>Created with Sketch.</desc>
    <g id="4.背景组件/彩色版/DNA基因" stroke="none" stroke-width="1" fill="none" fill-rule="evenodd">
        <g id="编组-2" transform="translate(88.000000, 72.000000)" fill="#597EF7">
            <g id="编组" transform="translate(424.686202, 439.913070) rotate(43.000000) translate(-424.686202, -439.913070) translate(280.686202, -27.086930)">
                <g transform="translate(0.602498, 0.122665)" id="Fill-1">
                    <path d="M0.0824513988,932.915209 C0.000113575244,931.914347 -1.71901708,908.00698 15.6413975,875.861668 C44.4593298,822.499429 103.091065,789.235507 147.203119,770.726792 C215.652245,742.007292 256.243703,692.310805 258.568143,634.384149 C261.114011,570.919986 217.341331,509.60973 141.478255,470.379519 C66.2594351,431.482559 22.8973432,370.046778 25.4854937,306.039418 C26.6783129,276.504565 37.8409638,247.709529 57.7639367,222.766864 C78.9898865,196.195717 109.081865,174.625544 147.204232,158.657306 C228.717621,124.513604 260.609956,83.3583188 273.011047,54.8465448 C286.320104,24.246403 280.608592,1.53429281 280.549619,1.30879353 L284.854673,0.182407941 C285.11282,1.16549595 291.010153,24.620754 277.093559,56.6172141 C264.368671,85.8754685 231.802038,128.039391 148.926699,162.754062 C111.498659,178.431261 81.9986393,199.554879 61.2444762,225.537284 C41.9145747,249.73569 31.0879605,277.635394 29.9318606,306.218262 C27.4160359,368.457175 69.881288,428.351118 143.525631,466.433837 C220.963184,506.477178 265.631591,569.329272 263.01451,634.561882 C260.618857,694.283646 219.03598,745.406444 148.927811,774.823548 C105.476703,793.054554 47.7607238,825.748618 19.5592299,877.970031 C2.81859161,908.968962 4.49988801,932.323134 4.51880399,932.555299 L0.0824513988,932.915209 Z"></path>
                </g>
                <g transform="translate(0.914260, 0.000000)" id="Fill-3">
                    <path d="M284.854895,933.298113 L280.549842,932.171489 C280.607702,931.947053 286.313836,908.965698 272.871068,878.302411 C260.412117,849.879039 228.495303,808.847254 147.203342,774.78965 C109.080975,758.818031 78.9889964,737.24329 57.7641592,710.666515 C37.8411863,685.718567 26.6785354,656.917432 25.4846035,627.376325 C22.8975657,563.355407 66.2596576,501.906615 141.478478,463.001416 C217.341553,423.762897 261.114233,362.439656 258.567253,298.962051 C256.243926,241.023127 215.652468,191.316114 147.203342,162.590531 C103.091287,144.077896 44.4595523,110.80693 15.6416201,57.4333882 C-1.71879454,25.2812682 0.00033611613,1.36883723 0.0826739397,0.367763899 L4.51902653,0.727750314 L2.30029388,0.547757107 L4.51902653,0.724417107 C4.50011055,0.959963774 2.86220962,24.5701839 19.72302,55.6267897 C47.9901635,107.694825 105.587083,140.304705 148.926921,158.492908 C219.036202,187.916242 260.61908,239.049868 263.014732,298.78428 C265.631813,364.030707 220.963406,426.896112 143.524741,466.949045 C69.8815106,505.038719 27.4162584,564.945347 29.9320832,627.197442 C31.0881831,655.786364 41.9147972,683.691977 61.2446987,707.895508 C81.9988619,733.884527 111.498882,755.011508 148.925808,770.692027 C231.80226,805.41405 264.367781,847.586903 277.093782,876.851354 C291.010376,908.854591 285.113043,932.314817 284.854895,933.298113"></path>
                </g>
                <path d="M239.123134,324.994429 L48.9381338,324.994429 C41.8745961,324.994429 36.1479145,319.271238 36.1479145,312.209524 C36.1479145,305.147809 41.8745961,299.424618 48.9381338,299.424618 L239.123134,299.424618 C246.186672,299.424618 251.913353,305.147809 251.913353,312.209524 C251.913353,319.271238 246.186672,324.994429 239.123134,324.994429" id="Fill-5"></path>
                <path d="M216.297791,384.099551 L70.8650937,384.099551 C63.8143833,384.099551 58.0981012,378.376361 58.0981012,371.314646 C58.0981012,364.252931 63.8143833,358.52974 70.8650937,358.52974 L216.297791,358.52974 C223.348501,358.52974 229.064784,364.252931 229.064784,371.314646 C229.064784,378.376361 223.348501,384.099551 216.297791,384.099551" id="Fill-7"></path>
                <path d="M215.904002,265.844236 L70.4713049,265.844236 C63.4205945,265.844236 57.7043124,260.121045 57.7043124,253.05933 C57.7043124,245.997615 63.4205945,240.274424 70.4713049,240.274424 L215.904002,240.274424 C222.954713,240.274424 228.670995,245.997615 228.670995,253.05933 C228.670995,260.121045 222.954713,265.844236 215.904002,265.844236" id="Fill-9"></path>
                <path d="M166.25345,213.192532 L120.569004,213.192532 C113.492372,213.192532 107.755074,207.469342 107.755074,200.407627 C107.755074,193.345912 113.492372,187.622721 120.569004,187.622721 L166.25345,187.622721 C173.330082,187.622721 179.06738,193.345912 179.06738,200.407627 C179.06738,207.469342 173.330082,213.192532 166.25345,213.192532" id="Fill-11"></path>
                <path d="M166.109845,439.332622 L120.425399,439.332622 C113.348767,439.332622 107.611469,433.609431 107.611469,426.547716 C107.611469,419.486002 113.348767,413.762811 120.425399,413.762811 L166.109845,413.762811 C173.186477,413.762811 178.923775,419.486002 178.923775,426.547716 C178.923775,433.609431 173.186477,439.332622 166.109845,439.332622" id="Fill-13"></path>
                <path d="M238.766207,631.247056 L48.581207,631.247056 C41.5176694,631.247056 35.7909877,625.523865 35.7909877,618.46215 C35.7909877,611.400436 41.5176694,605.677245 48.581207,605.677245 L238.766207,605.677245 C245.829745,605.677245 251.556426,611.400436 251.556426,618.46215 C251.556426,625.523865 245.829745,631.247056 238.766207,631.247056" id="Fill-15"></path>
                <path d="M215.940864,690.352178 L70.508167,690.352178 C63.4574566,690.352178 57.7411745,684.628987 57.7411745,677.567272 C57.7411745,670.505558 63.4574566,664.782367 70.508167,664.782367 L215.940864,664.782367 C222.991575,664.782367 228.707857,670.505558 228.707857,677.567272 C228.707857,684.628987 222.991575,690.352178 215.940864,690.352178" id="Fill-17"></path>
                <path d="M216.1706,572.76474 L70.7379022,572.76474 C63.6871918,572.76474 57.9709097,567.041549 57.9709097,559.979834 C57.9709097,552.91812 63.6871918,547.194929 70.7379022,547.194929 L216.1706,547.194929 C223.22131,547.194929 228.937592,552.91812 228.937592,559.979834 C228.937592,567.041549 223.22131,572.76474 216.1706,572.76474" id="Fill-19"></path>
                <path d="M165.896523,519.445159 L120.212077,519.445159 C113.135445,519.445159 107.398147,513.721968 107.398147,506.660253 C107.398147,499.598539 113.135445,493.875348 120.212077,493.875348 L165.896523,493.875348 C172.973155,493.875348 178.710453,499.598539 178.710453,506.660253 C178.710453,513.721968 172.973155,519.445159 165.896523,519.445159" id="Fill-21"></path>
                <path d="M166.376442,746.253127 L120.691996,746.253127 C113.615364,746.253127 107.878066,740.529936 107.878066,733.468221 C107.878066,726.406506 113.615364,720.683315 120.691996,720.683315 L166.376442,720.683315 C173.453074,720.683315 179.190372,726.406506 179.190372,733.468221 C179.190372,740.529936 173.453074,746.253127 166.376442,746.253127" id="Fill-23"></path>
            </g>
            <circle id="椭圆形备份-12" cx="367" cy="146.5" r="30"></circle>
            <circle id="椭圆形备份-13" cx="455" cy="702.5" r="30"></circle>
            <circle id="椭圆形备份-14" cx="73" cy="586.5" r="30"></circle>
        </g>
    </g>
</svg>