<?xml version="1.0" encoding="UTF-8"?>
<svg width="1024px" height="1024px" viewBox="0 0 1024 1024" version="1.1" xmlns="http://www.w3.org/2000/svg" xmlns:xlink="http://www.w3.org/1999/xlink">
    <!-- Generator: Sketch 61.2 (89653) - https://sketch.com -->
    <title>4.背景组件/彩色版/关联</title>
    <desc>Created with Sketch.</desc>
    <g id="4.背景组件/彩色版/关联" stroke="none" stroke-width="1" fill="none" fill-rule="evenodd">
        <g id="编组" transform="translate(101.000000, 113.000000)" fill="#597EF7">
            <path d="M107.564356,215 C166.376551,215 214.164426,262.199753 215.114302,320.78558 L215.128713,322.564356 C222.560453,518.97462 412.19965,570.147055 476.803832,581.901515 C535.114516,583.154413 582,630.81957 582,689.435644 C582,748.841901 533.841901,797 474.435644,797 C426.246491,797 385.458768,765.311365 371.773764,721.635385 L371.353135,722.089109 C317.100526,456.362042 151.798061,431.881212 108.041495,430.122495 L107.564356,430.128713 L107.564356,430.128713 C105.802038,430.128713 104.049619,430.086332 102.308062,430.002533 C99.0716787,430.001328 97.320132,430.128713 97.320132,430.128713 L97.320132,430.128713 L97.8015593,429.691635 C42.9703417,424.758654 0,378.679739 0,322.564356 C0,263.158099 48.158099,215 107.564356,215 Z" id="形状结合"></path>
            <path d="M809.960886,21.5943515 C828.894002,45.2765709 825.080781,79.8523807 801.445715,98.8219884 C790.994357,107.209728 778.417375,111.141566 766.001331,110.870432 L765.990146,110.863238 C639.103919,127.060996 618.607341,205.358673 615.360113,226.832421 C615.354398,226.914034 615.344973,227.001417 615.335337,227.088825 C615.235855,227.990893 615.115108,228.885435 614.973653,229.772005 C614.794275,231.400511 614.761052,232.289227 614.761052,232.289227 L614.761052,232.289227 L614.567236,232.020956 C608.997959,259.580628 583.246488,278.810836 554.814839,275.662809 C524.714433,272.331436 503.011553,245.180744 506.336293,215.021566 C509.629052,185.165249 536.218134,163.550744 565.954739,166.355111 L566.856663,166.447198 C666.71815,173.687205 703.279996,80.4160437 712.882656,48.2154771 C714.771301,34.8585324 721.548,22.1639647 732.888297,13.0621922 C756.523363,-5.90741548 791.030328,-2.0865867 809.960886,21.5943515 Z" id="形状结合"></path>
            <path d="M774.03969,0.337530063 C804.229165,3.67353292 825.998472,30.8502206 822.66247,61.0396997 C819.32775,91.2278963 792.149784,112.998489 761.961592,109.662487 C731.770835,106.327766 710.001527,79.149796 713.33753,48.9603168 C716.672249,18.7708377 743.850216,-2.9984728 774.03969,0.337530063" id="Fill-9"></path>
        </g>
    </g>
</svg>