<svg xmlns="http://www.w3.org/2000/svg" xmlns:xlink="http://www.w3.org/1999/xlink" width="1024" height="1024" version="1.1" viewBox="0 0 1024 1024"><title>4.背景组件/彩色版/圆柱与点</title><desc>Created with Sketch.</desc><defs><polygon id="path-1" points="0 949.522 667.825 949.522 667.825 0 0 0"/></defs><g id="4.背景组件/彩色版/圆柱与点" fill="none" fill-rule="evenodd" stroke="none" stroke-width="1"><g id="编组-2" transform="translate(80.000000, 37.000000)"><ellipse id="椭圆形备份-3" cx="765.576" cy="572.612" fill="#597EF7" rx="68.828" ry="69.272" transform="translate(765.575543, 572.611668) rotate(-315.000000) translate(-765.575543, -572.611668)"/><ellipse id="椭圆形备份-4" cx="98.048" cy="377.727" fill="#597EF7" rx="68.828" ry="69.272" transform="translate(98.047975, 377.726787) rotate(-315.000000) translate(-98.047975, -377.726787)"/><g id="编组" transform="translate(97.000000, 0.500000)"><path id="Fill-1" fill="#597EF7" d="M333.912393,0 C149.497349,0 0,48.7158068 0,108.810725 C0,168.905644 149.497349,217.62145 333.912393,217.62145 C518.327438,217.62145 667.824787,168.905644 667.824787,108.810725 C667.824787,48.7158068 518.327438,0 333.912393,0 M333.912393,12.9923254 C421.769298,12.9923254 504.1882,24.0834405 565.988012,44.2215449 C621.60936,62.3458388 654.815213,86.4920756 654.815213,108.810725 C654.815213,131.129375 621.60936,155.275612 565.988012,173.399906 C504.1882,193.53801 421.769298,204.629125 333.912393,204.629125 C246.055489,204.629125 163.636587,193.53801 101.836775,173.399906 C46.2154267,155.275612 13.0095738,131.129375 13.0095738,108.810725 C13.0095738,86.4920756 46.2154267,62.3458388 101.836775,44.2215449 C163.636587,24.0834405 246.055489,12.9923254 333.912393,12.9923254"/><path id="Fill-3" fill="#597EF7" d="M333.912393,0 C149.497349,0 0,48.7158068 0,108.810725 C0,168.905644 149.497349,217.62145 333.912393,217.62145 C518.327438,217.62145 667.824787,168.905644 667.824787,108.810725 C667.824787,48.7158068 518.327438,0 333.912393,0 M333.912393,12.9923254 C421.769298,12.9923254 504.1882,24.0834405 565.988012,44.2215449 C621.60936,62.3458388 654.815213,86.4920756 654.815213,108.810725 C654.815213,131.129375 621.60936,155.275612 565.988012,173.399906 C504.1882,193.53801 421.769298,204.629125 333.912393,204.629125 C246.055489,204.629125 163.636587,193.53801 101.836775,173.399906 C46.2154267,155.275612 13.0095738,131.129375 13.0095738,108.810725 C13.0095738,86.4920756 46.2154267,62.3458388 101.836775,44.2215449 C163.636587,24.0834405 246.055489,12.9923254 333.912393,12.9923254"/><line id="Fill-5" x1="661.325" x2="661.325" y1="849.915" y2="105.021" fill="#FFF"/><mask id="mask-2" fill="#fff"><use xlink:href="#path-1"/></mask><polygon id="Fill-7" fill="#597EF7" points="654.815 849.915 667.825 849.915 667.825 105.021 654.815 105.021" mask="url(#mask-2)"/><line id="Fill-9" x1="6.51" x2="6.51" y1="103.939" y2="843.418" fill="#FFF" mask="url(#mask-2)"/><polygon id="Fill-10" fill="#597EF7" points="0 843.418 13.01 843.418 13.01 103.939 0 103.939" mask="url(#mask-2)"/><path id="Fill-11" fill="#597EF7" d="M333.912393,744.893323 C421.769298,744.893323 504.1882,755.984438 565.988012,776.122543 C621.60936,794.246837 654.815213,818.393073 654.815213,840.711723 C654.815213,863.030373 621.60936,887.176609 565.988012,905.300903 C504.1882,925.439008 421.769298,936.530123 333.912393,936.530123 C246.055489,936.530123 163.636587,925.439008 101.836775,905.300903 C46.2154267,887.176609 13.0095738,863.030373 13.0095738,840.711723 C13.0095738,818.393073 46.2154267,794.246837 101.836775,776.122543 C163.636587,755.984438 246.055489,744.893323 333.912393,744.893323" mask="url(#mask-2)"/><path id="Fill-12" fill="#597EF7" d="M333.912393,731.900998 C149.497349,731.900998 0,780.616804 0,840.711723 C0,900.806641 149.497349,949.522448 333.912393,949.522448 C518.327438,949.522448 667.824787,900.806641 667.824787,840.711723 C667.824787,780.616804 518.327438,731.900998 333.912393,731.900998" mask="url(#mask-2)"/></g></g></g></svg>