<?xml version="1.0" encoding="UTF-8"?>
<svg width="1024px" height="1024px" viewBox="0 0 1024 1024" version="1.1" xmlns="http://www.w3.org/2000/svg" xmlns:xlink="http://www.w3.org/1999/xlink">
    <!-- Generator: Sketch 61.2 (89653) - https://sketch.com -->
    <title>4.背景组件/彩色版/点立法</title>
    <desc>Created with Sketch.</desc>
    <g id="4.背景组件/彩色版/点立法" stroke="none" stroke-width="1" fill="none" fill-rule="evenodd">
        <g id="编组" transform="translate(105.000000, 108.000000)" fill="#597EF7">
            <polygon id="Fill-1" points="79.3159724 199.5 76 189.74201 404.874001 77.5 406.467057 77.992216 746 182.753058 742.973323 192.60511 405.033435 88.3351957"></polygon>
            <path d="M85.2857143,625.098788 L415.714286,726.58171 L415.714286,304.472871 L85.2857143,204.363007 L85.2857143,625.098788 Z M426,740.5 L75,632.699465 L75,190.5 L426,296.841339 L426,740.5 Z" id="Fill-2"></path>
            <path d="M426.590163,300.902627 L425.335677,726.991091 L735.317199,618.669988 L736.66175,196.822453 L426.590163,300.902627 Z M415,741.5 L416.318818,293.498364 L747,182.5 L745.587256,625.979094 L415,741.5 Z" id="Fill-3"></path>
            <g transform="translate(0.000000, 0.500000)">
                <path d="M137.537025,186.403377 C137.537025,221.192675 109.338079,249.394863 74.5527801,249.394863 C39.7674812,249.394863 11.5685348,221.192675 11.5685348,186.403377 C11.5685348,151.614079 39.7674812,123.411891 74.5527801,123.411891 C109.338079,123.411891 137.537025,151.614079 137.537025,186.403377" id="Fill-4"></path>
                <path d="M149.10556,633.771483 C149.10556,674.951203 115.727766,708.332834 74.5527801,708.332834 C33.3777938,708.332834 0,674.951203 0,633.771483 C0,592.591763 33.3777938,559.210132 74.5527801,559.210132 C115.727766,559.210132 149.10556,592.591763 149.10556,633.771483" id="Fill-6"></path>
                <path d="M493.59082,732.758104 C493.59082,773.937824 460.213026,807.319455 419.03804,807.319455 C377.863053,807.319455 344.48526,773.937824 344.48526,732.758104 C344.48526,691.578384 377.863053,658.196753 419.03804,658.196753 C460.213026,658.196753 493.59082,691.578384 493.59082,732.758104" id="Fill-8"></path>
                <path d="M475.595321,74.5613509 C475.595321,115.741071 442.217527,149.122702 401.042541,149.122702 C359.867555,149.122702 326.489761,115.741071 326.489761,74.5613509 C326.489761,33.381631 359.867555,0 401.042541,0 C442.217527,0 475.595321,33.381631 475.595321,74.5613509" id="Fill-10"></path>
                <path d="M813.653617,613.202834 C813.653617,654.382554 780.275823,687.764185 739.100837,687.764185 C697.925851,687.764185 664.548057,654.382554 664.548057,613.202834 C664.548057,572.023114 697.925851,538.641483 739.100837,538.641483 C780.275823,538.641483 813.653617,572.023114 813.653617,613.202834" id="Fill-12"></path>
                <path d="M798.228904,181.261215 C798.228904,213.920372 771.75624,240.39608 739.100837,240.39608 C706.445434,240.39608 679.97277,213.920372 679.97277,181.261215 C679.97277,148.602058 706.445434,122.126351 739.100837,122.126351 C771.75624,122.126351 798.228904,148.602058 798.228904,181.261215" id="Fill-14"></path>
                <path d="M473.024536,299.530944 C473.024536,328.640724 449.429866,352.238106 420.323432,352.238106 C391.216999,352.238106 367.622329,328.640724 367.622329,299.530944 C367.622329,270.421164 391.216999,246.823782 420.323432,246.823782 C449.429866,246.823782 473.024536,270.421164 473.024536,299.530944" id="Fill-16"></path>
            </g>
        </g>
    </g>
</svg>