<?xml version="1.0" encoding="UTF-8"?>
<svg width="1024px" height="1024px" viewBox="0 0 1024 1024" version="1.1" xmlns="http://www.w3.org/2000/svg" xmlns:xlink="http://www.w3.org/1999/xlink">
    <!-- Generator: Sketch 61.2 (89653) - https://sketch.com -->
    <title>4.背景组件/彩色版/箭头深色</title>
    <desc>Created with Sketch.</desc>
    <defs>
        <polygon id="path-1" points="0 0.0481678131 724.705141 0.0481678131 724.705141 594.523431 0 594.523431"></polygon>
    </defs>
    <g id="4.背景组件/彩色版/箭头深色" stroke="none" stroke-width="1" fill="none" fill-rule="evenodd">
        <g id="编组" transform="translate(150.000000, 215.000000)">
            <g>
                <mask id="mask-2" fill="white">
                    <use xlink:href="#path-1"></use>
                </mask>
                <g id="Clip-4"></g>
                <path d="M339.815202,361.630422 C340.961246,361.630422 342.112339,361.802357 343.233139,362.158868 C346.81011,363.289086 349.602014,366.115893 350.689999,369.713877 L408.542507,561.259142 C411.218293,570.128945 419.031082,571.496836 421.361036,571.706697 C423.696037,571.924144 431.622422,571.954486 435.825425,563.696568 L700.331898,44.3301647 C702.9471,39.1999395 702.452332,33.3819759 699.014199,28.7675545 C695.578592,24.1506046 690.156339,22.0216497 684.496799,23.0658995 L102.657279,130.755117 C93.612618,132.431479 91.360919,139.99913 90.8863457,142.279792 C90.409248,144.557926 89.4525284,152.39865 97.0759935,157.554159 L268.273273,273.377401 C271.332756,275.445673 273.195709,278.87678 273.273963,282.570845 C273.349693,286.267439 271.628102,289.771871 268.65697,291.964037 L25.1251236,471.797521 C22.5881758,473.673631 22.0025321,477.178063 23.7948037,479.779838 L77.17673,557.218678 C78.4161742,559.016406 80.155435,559.524625 81.0818627,559.66369 C82.0057661,559.795169 83.8182323,559.838153 85.5347741,558.48796 L332.802623,364.057734 C334.827133,362.464811 337.306021,361.630422 339.815202,361.630422" id="Fill-3" fill="#597EF7" mask="url(#mask-2)"></path>
            </g>
        </g>
    </g>
</svg>