<svg xmlns="http://www.w3.org/2000/svg" xmlns:xlink="http://www.w3.org/1999/xlink" width="1024" height="1024" version="1.1" viewBox="0 0 1024 1024"><title>4.背景组件/彩色版/箭头白色</title><desc>Created with Sketch.</desc><defs><polygon id="path-1" points="0 .048 722.941 .048 722.941 593.524 0 593.524"/></defs><g id="4.背景组件/彩色版/箭头白色" fill="none" fill-rule="evenodd" stroke="none" stroke-width="1"><g id="编组"><g transform="translate(151.000000, 214.500000) translate(0.000000, 0.500000)"><mask id="mask-2" fill="#fff"><use xlink:href="#path-1"/></mask><path id="Fill-3" fill="#597EF7" d="M338.987865,361.02264 C340.131119,361.02264 341.279409,361.194286 342.397481,361.550198 C345.965743,362.678516 348.75085,365.500572 349.836186,369.092509 L407.547842,560.315849 C410.217113,569.170745 418.010881,570.536337 420.335162,570.745846 C422.664479,570.962927 430.571565,570.993218 434.764335,562.749178 L698.626823,44.2556602 C701.235658,39.1340573 700.742095,33.3258717 697.312333,28.7192056 C693.88509,24.1100154 688.476038,21.9846385 682.830278,23.0271333 L102.407343,130.53536 C93.3847025,132.208905 91.1384856,139.763838 90.6650677,142.040667 C90.1891316,144.314971 89.2347413,152.142517 96.8396458,157.289362 L267.620117,272.917943 C270.672151,274.982739 272.530568,278.408079 272.608632,282.095936 C272.684177,285.786318 270.966778,289.28486 268.00288,291.473341 L25.0639523,471.004584 C22.5331811,472.877541 21.9489633,476.376083 23.7368713,478.973485 L76.9888304,556.282177 C78.225257,558.076883 79.9602832,558.584247 80.8844554,558.723078 C81.8061094,558.854337 83.6141628,558.897248 85.3265254,557.549325 L331.99236,363.445873 C334.011941,361.855626 336.484794,361.02264 338.987865,361.02264 M421.710088,593.524232 C420.584462,593.524232 419.456317,593.476272 418.320618,593.37278 C403.040299,592.007187 390.295789,581.612529 385.851201,566.893916 L332.944232,391.578088 L99.3200535,575.420665 C93.1756935,580.257034 85.2207619,582.364741 77.4874301,581.183415 C69.7591347,580.009662 62.7787389,575.637747 58.339187,569.190938 L5.08470969,491.879723 C-3.70122143,479.122413 -0.833014048,461.92251 11.6143513,452.719275 L241.632496,282.737083 L84.1555716,176.117375 C71.3229247,167.4316 65.3145465,152.594349 68.477381,137.401186 C71.6402154,122.208023 83.0626813,111.015717 98.2901177,108.198709 L678.713053,0.687958133 C692.817381,-1.93216208 706.904082,3.61350661 715.481004,15.1364823 C724.055408,26.6569338 725.334643,41.7693227 718.817593,54.5796406 L454.955105,573.073159 C448.498491,585.752218 435.696062,593.524232 421.710088,593.524232" mask="url(#mask-2)"/></g></g></g></svg>