<svg xmlns="http://www.w3.org/2000/svg" xmlns:xlink="http://www.w3.org/1999/xlink" width="1024" height="1024" version="1.1" viewBox="0 0 1024 1024"><title>4.背景组件/彩色版/蜂窝分子结构</title><desc>Created with Sketch.</desc><g id="4.背景组件/彩色版/蜂窝分子结构" fill="none" fill-rule="evenodd" stroke="none" stroke-width="1"><g id="编组" stroke="#597EF7" stroke-width="17.968" transform="translate(236.000000, 105.000000)"><polygon id="Fill-1备份" points="316.25 136 238 272 316.25 408 472.751 408 551 272 472.751 136" transform="translate(394.500000, 272.000000) rotate(-360.000000) translate(-394.500000, -272.000000)"/><polyline id="路径" points="316 136 472.667 136 551 0" transform="translate(433.500000, 68.000000) rotate(-360.000000) translate(-433.500000, -68.000000)"/><polygon id="Fill-1备份-2" fill="#597EF7" points="81.25 271 3 407 81.25 543 237.751 543 316 407 237.751 271" transform="translate(159.500000, 407.000000) rotate(-360.000000) translate(-159.500000, -407.000000)"/><polygon id="Fill-1备份-3" points="315.25 410 237 546 315.25 682 471.751 682 550 546 471.751 410" transform="translate(393.500000, 546.000000) rotate(-360.000000) translate(-393.500000, -546.000000)"/><polyline id="路径" points="234.667 815 313 679 234.667 543 78 543 78 543" transform="translate(195.500000, 679.000000) rotate(-360.000000) translate(-195.500000, -679.000000)"/><polyline id="路径" points="0 136 78.25 272 234.751 272 313 136" transform="translate(156.500000, 204.000000) rotate(-360.000000) translate(-156.500000, -204.000000)"/></g></g></svg>