<svg xmlns="http://www.w3.org/2000/svg" xmlns:xlink="http://www.w3.org/1999/xlink" width="512" height="1024" version="1.1" viewBox="0 0 512 1024"><title>2.人物组件/8.程序员/起身/打招呼</title><desc>Created with Sketch.</desc><defs><polygon id="path-1" points="1.322 .237 65.247 .237 65.247 64.5 1.322 64.5"/><polygon id="path-3" points="1.452 1.46 63.062 1.46 63.062 64.522 1.452 64.522"/><polygon id="path-5" points="1.471 1.028 38.648 1.028 38.648 53.073 1.471 53.073"/></defs><g id="2.人物组件/8.程序员/起身/打招呼" fill="none" fill-rule="evenodd" stroke="none" stroke-width="1"><g id="分组" transform="translate(197.500000, 788.540500)"><mask id="mask-2" fill="#fff"><use xlink:href="#path-1"/></mask><path id="Fill-1" fill="#4E5C93" d="M35.6817,59.1738 C53.3007,70.3473 64.9602,60.4713 64.9602,60.4713 C64.9602,60.4713 66.1737,56.5353 63.6117,51.4773 C60.4047,45.1458 51.4947,41.5908 42.3417,28.9713 C35.3112,19.2783 31.9167,5.4588 31.9167,5.4588 C27.3402,-4.5387 6.1512,2.8953 6.1512,2.8953 C6.1512,2.8953 2.7117,21.3903 1.3222947,32.0688 C1.3222947,32.0688 1.0422,38.0313 15.2397,42.5613 C25.8627,45.9498 25.1307,52.4823 35.6817,59.1738" mask="url(#mask-2)"/></g><path id="Fill-3" fill="#FFC999" d="M430.21915,419.0329 L430.21915,419.0329 C433.43515,423.3874 432.67015,429.4504 428.47015,432.8974 L348.52315,498.5179 C341.02015,504.6769 329.79565,503.3164 324.03415,495.5509 C318.28315,487.7989 320.36065,476.8774 328.57015,471.7009 L416.22115,416.4349 C420.85015,413.5174 426.98815,414.6559 430.21915,419.0329"/><path id="Fill-5" fill="#FFC999" d="M344.79535,501.60025 L344.79535,501.60025 C335.94685,504.86275 326.04985,500.75425 322.24435,492.24025 L287.76385,415.11175 C282.69235,403.76875 288.34735,390.55975 300.13585,386.21425 C311.78485,381.91975 324.72535,388.02325 328.62685,399.65425 L355.46485,479.67325 C358.46335,488.61775 353.75485,498.29725 344.79535,501.60025"/><path id="Fill-7" fill="#597EF7" d="M353.08645,452.08045 L311.27395,468.84145 L287.84695,413.27995 C282.71845,401.11945 288.55945,387.11695 300.80995,382.20595 C313.06045,377.29495 326.95795,383.38495 331.64995,395.72095 L353.08645,452.08045 Z"/><path id="Stroke-9" fill="#1D39C4" fill-rule="nonzero" d="M352.80739,451.384299 C353.191864,451.230179 353.62848,451.416917 353.782601,451.80139 C353.923878,452.153824 353.778739,452.550073 353.457426,452.732379 L353.36551,452.776601 L311.55301,469.537601 C311.168536,469.691721 310.73192,469.504983 310.577799,469.12051 C310.436522,468.768076 310.581661,468.371827 310.902974,468.189521 L310.99489,468.145299 L352.80739,451.384299 Z"/><path id="Fill-11" fill="#FFC999" d="M270.29635,333.0436 L291.78835,300.4966 L321.23635,319.5931 L304.36735,352.8481 C299.27035,362.8921 286.81735,366.6421 277.02235,361.0831 C267.08935,355.4446 264.00235,342.5746 270.29635,333.0436"/><path id="Fill-13" fill="#FFC999" d="M285.93205,292.4272 C285.93205,292.4272 283.98355,284.9662 280.18855,287.1112 C276.39205,289.2577 273.28405,302.8222 278.17555,305.9737 C284.70805,310.1812 285.93205,292.4272 285.93205,292.4272"/><path id="Fill-15" fill="#FFC999" d="M298.603,338.79355 C298.603,338.79355 284.095,341.33155 275.4865,325.86505 C269.2885,314.73055 279.952,293.07505 290.461,278.69305 C296.4085,270.55555 303.0715,268.13005 313.0285,270.34255 C322.9855,272.55505 346.0855,285.46405 331.7665,311.20555 C315.82,339.87655 298.603,338.79355 298.603,338.79355"/><path id="Stroke-17" fill="#DD936F" fill-rule="nonzero" d="M302.832038,291.047528 L302.927456,291.064489 C303.181856,291.133613 303.34363,291.374421 303.321822,291.628088 L303.304861,291.723506 L301.620361,297.923006 C301.606401,297.974383 301.584919,298.023252 301.556732,298.068074 L301.509525,298.132078 L290.778,310.627 L296.335829,313.822671 C296.564366,313.95408 296.659749,314.228054 296.574294,314.467887 L296.533679,314.555879 C296.40227,314.784416 296.128296,314.879799 295.888463,314.794344 L295.800471,314.753729 L289.680471,311.234729 C289.41772,311.083647 289.337038,310.750969 289.483485,310.499702 L289.540775,310.419322 L300.615,297.524 L302.268439,291.441894 C302.328923,291.219294 302.520852,291.067611 302.737826,291.047778 L302.832038,291.047528 Z"/><path id="Stroke-19" fill="#253368" fill-rule="nonzero" d="M309.676673,292.999197 C310.137501,292.356626 311.031983,292.209295 311.674553,292.670123 L315.516905,295.456209 L316.292003,296.012736 C319.60642,298.3807 321.80932,299.767229 322.984255,300.153451 C323.735444,300.40038 324.144228,301.209515 323.897299,301.960705 C323.65037,302.711894 322.841235,303.120678 322.090045,302.873749 C320.630597,302.394003 318.532504,301.103705 315.35213,298.857612 L314.372782,298.160474 L310.005747,294.997077 C309.363176,294.536249 309.215845,293.641767 309.676673,292.999197 Z"/><path id="Stroke-21" fill="#FF7A46" fill-rule="nonzero" d="M286.596678,314.90517 C286.83865,314.568983 287.307342,314.492606 287.64353,314.734578 C290.257514,316.616001 292.829583,318.063308 295.247298,319.131178 C295.969793,319.450294 296.632969,319.714842 297.227928,319.929135 L297.827574,320.136062 C298.05849,320.212001 298.224568,320.261565 298.320649,320.287258 C298.720803,320.394263 298.958447,320.805396 298.851442,321.205549 C298.744437,321.605703 298.333304,321.843347 297.933151,321.736342 L297.642021,321.651376 C297.520472,321.613845 297.37479,321.566922 297.206083,321.510052 L297.029743,321.449845 C296.323841,321.2059 295.522966,320.892737 294.641252,320.503297 C292.131467,319.394761 289.468911,317.896536 286.76727,315.952022 C286.431083,315.71005 286.354706,315.241358 286.596678,314.90517 Z"/><g id="分组" transform="translate(281.500000, 256.040500)"><mask id="mask-4" fill="#fff"><use xlink:href="#path-3"/></mask><path id="Fill-23" fill="#253368" d="M41.1528,64.5219 L51.7203,57.4464 C51.7203,57.4464 62.9103,44.9694 63.0588,36.9804 C63.2898,24.5799 51.4203,18.2424 45.8883,11.7894 C40.3563,5.3364 41.7393,3.0309 38.6973,1.8324 C35.6553,0.6339 20.4363,2.1114 14.7273,9.3924 C9.7083,15.7944 1.4523,34.6524 1.4523,34.6524 C1.4523,34.6524 12.3123,19.9494 16.1838,16.6299 C22.9953,17.4279 43.1013,28.5834 50.0148,35.8659 C50.0148,35.8659 47.7138,41.6559 46.0008,45.6819 C48.6783,51.4059 41.1528,64.5219 41.1528,64.5219" mask="url(#mask-4)"/></g><path id="Stroke-25" fill="#DD936F" fill-rule="nonzero" d="M275.155776,324.465265 C275.444723,324.398426 275.733145,324.578479 275.799985,324.867426 L275.857382,325.07465 C275.885456,325.166657 275.922823,325.281021 275.970534,325.416018 C276.133062,325.875889 276.353809,326.390981 276.641152,326.947609 C277.467137,328.547673 278.660404,330.151226 280.289142,331.650962 C283.730152,334.819431 288.625711,337.088599 295.241623,338.057619 C295.535069,338.1006 295.738111,338.373327 295.695131,338.666773 C295.65215,338.960219 295.379423,339.163261 295.085977,339.120281 C288.260222,338.120525 283.164595,335.758623 279.561643,332.441039 C277.837111,330.853096 276.568597,329.148423 275.686809,327.44026 C275.376431,326.839009 275.136402,326.278927 274.957915,325.773899 C274.848727,325.464953 274.783551,325.238886 274.753615,325.109474 C274.686776,324.820527 274.866829,324.532105 275.155776,324.465265 Z"/><path id="Stroke-27" fill="#393C68" fill-rule="nonzero" d="M299.0828,296.644128 C299.372281,296.17555 299.963592,296.007264 300.450617,296.235218 L300.560972,296.2949 L304.979972,299.0249 C305.484594,299.336649 305.640949,299.998449 305.3292,300.503072 C305.039719,300.97165 304.448408,301.139936 303.961383,300.911982 L303.851028,300.8523 L299.432028,298.1223 C298.927406,297.810551 298.771051,297.148751 299.0828,296.644128 Z"/><path id="Stroke-29" fill="#393C68" fill-rule="nonzero" d="M297.550084,299.29229 C299.411201,298.780507 301.050666,299.52924 302.393741,300.996566 C302.987815,301.6456 303.401567,302.289056 303.633322,302.746292 C303.901488,303.275365 303.689981,303.921655 303.160908,304.189822 C302.667106,304.44011 302.071196,304.27255 301.775907,303.81894 L301.613431,303.532721 C301.580241,303.47714 301.540436,303.412648 301.494241,303.340807 C301.297647,303.035069 301.067432,302.728906 300.809273,302.446864 C300.007916,301.571371 299.17204,301.157788 298.295474,301.322683 L298.119616,301.36341 C297.547692,301.520682 296.956562,301.18454 296.79929,300.612616 C296.642018,300.040692 296.97816,299.449562 297.550084,299.29229 Z"/><path id="Stroke-31" fill="#253368" fill-rule="nonzero" d="M290.901326,281.196155 C294.320164,280.956484 297.460889,282.565675 300.263197,285.331558 C301.151139,286.207958 301.941813,287.142566 302.628848,288.077887 L302.887827,288.437147 C303.168552,288.834349 303.373919,289.152198 303.499745,289.363587 C303.90419,290.04306 303.681236,290.92175 303.001763,291.326195 C302.364757,291.705362 301.552658,291.533105 301.120382,290.950223 L300.867904,290.558475 C300.713878,290.323299 300.531081,290.059019 300.321042,289.773075 C299.718489,288.952767 299.023909,288.131746 298.251685,287.36956 C295.978043,285.125471 293.549263,283.881054 291.101574,284.052645 C290.312777,284.107942 289.628502,283.513322 289.573205,282.724524 C289.517908,281.935727 290.112528,281.251452 290.901326,281.196155 Z"/><path id="Stroke-33" fill="#DD936F" fill-rule="nonzero" d="M286.917226,321.047 C287.052818,320.820919 287.3285,320.730595 287.566721,320.820448 L287.65395,320.862676 L291.28545,323.040676 C291.539791,323.193217 291.622315,323.52306 291.469774,323.7774 C291.334182,324.003481 291.0585,324.093805 290.820279,324.003952 L290.73305,323.961724 L287.10155,321.783724 C286.847209,321.631183 286.764685,321.30134 286.917226,321.047 Z"/><path id="Stroke-35" fill="#393C68" fill-rule="nonzero" d="M320.01633,309.258419 C320.297021,308.784523 320.88509,308.605237 321.376282,308.824067 L321.487731,308.88168 L328.816731,313.22268 C329.32708,313.524963 329.495752,314.183731 329.19347,314.694081 C328.912779,315.167977 328.32471,315.347263 327.833518,315.128433 L327.722069,315.07082 L320.393069,310.72982 C319.88272,310.427537 319.714048,309.768769 320.01633,309.258419 Z"/><path id="Fill-37" fill="#FFF" d="M321.25975,308.0347 L307.31425,299.6677 C306.34075,299.0842 305.07925,299.3962 304.50175,300.3742 C303.42475,302.1982 301.78075,305.1727 300.75625,307.9492 C299.54875,311.2237 301.11325,314.6122 304.02025,316.5442 C307.65175,318.9577 311.00125,320.9722 313.85875,320.0512 C318.21475,318.6472 320.49775,313.4062 321.98725,310.7977 C322.53625,309.8407 322.20475,308.6017 321.25975,308.0347"/><path id="Stroke-39" fill="#253368" fill-rule="nonzero" d="M304.193693,300.192305 C302.645239,302.814757 301.292288,305.463045 300.42062,307.825356 C299.199594,311.136536 300.648725,314.733028 303.822232,316.84215 L304.51657,317.299151 C309.040494,320.245401 311.499079,321.187618 313.968497,320.391701 C316.332654,319.629699 318.227068,317.81031 319.990234,315.04611 C320.293712,314.570333 320.582379,314.085795 320.89448,313.53329 L322.297919,310.975098 C322.942588,309.851332 322.557523,308.396159 321.443811,307.727932 L307.498306,299.360929 C306.402739,298.704264 304.999469,299.014623 304.286542,300.047058 L304.193693,300.192305 Z M307.130328,299.974551 L321.075694,308.341471 C321.856302,308.809836 322.127422,309.834409 321.676936,310.619683 L320.654899,312.490642 C320.190206,313.340609 319.801825,314.010999 319.387003,314.661335 C317.704971,317.298336 315.922603,319.010118 313.749002,319.7107 C311.453014,320.450719 308.997985,319.422857 304.218268,316.24625 C301.305757,314.310588 299.993084,311.052761 301.091905,308.072976 C301.945712,305.759074 303.28132,303.14473 304.809803,300.556102 C305.284899,299.751525 306.324586,299.491603 307.130328,299.974551 Z"/><path id="Fill-41" fill="#FFF" d="M299.602,294.8299 L283.8145,285.3574 C281.845,287.3149 277.0555,296.5729 278.6185,300.1114 C281.107,304.1899 288.9325,307.7659 291.2335,306.5119 C294.7255,304.6114 298.729,299.3899 300.145,296.9599 C300.577,296.2189 300.337,295.2709 299.602,294.8299"/><path id="Stroke-43" fill="#253368" fill-rule="nonzero" d="M283.562307,285.103661 C280.69878,287.949741 276.895362,297.095769 278.291253,300.255949 C280.783665,304.346828 288.786579,308.252851 291.404695,306.82603 C294.429622,305.179731 298.447284,300.583918 300.4541,297.140017 C300.984918,296.229518 300.688592,295.064651 299.786061,294.523132 L283.998561,285.050632 C283.858144,284.966382 283.67845,284.988225 283.562307,285.103661 Z M283.753661,285.945003 L283.875,285.811 L299.417939,295.136668 C299.984042,295.47633 300.169888,296.2069 299.835938,296.779718 C297.888927,300.120986 293.950958,304.625638 291.062484,306.197673 C288.842778,307.407369 281.218814,303.686302 278.923892,299.925065 C277.746652,297.252496 281.113208,288.94531 283.753661,285.945003 Z"/><path id="Stroke-45" fill="#393C68" fill-rule="nonzero" d="M304.221664,298.592299 C304.492544,298.112728 305.0768,297.921379 305.572391,298.130056 L305.685001,298.185364 L323.244001,308.103364 C323.760462,308.395081 323.942654,309.05024 323.650936,309.566701 C323.380056,310.046272 322.7958,310.237621 322.300209,310.028944 L322.187599,309.973636 L304.628599,300.055636 C304.112138,299.763919 303.929946,299.10876 304.221664,298.592299 Z"/><path id="Stroke-47" fill="#393C68" fill-rule="nonzero" d="M282.562871,285.061924 C282.852868,284.593664 283.444363,284.426029 283.931137,284.654518 L284.041426,284.714321 L300.838426,295.116821 C301.342706,295.429125 301.498333,296.091097 301.186029,296.595376 C300.896032,297.063636 300.304537,297.231271 299.817763,297.002782 L299.707474,296.942979 L282.910474,286.540479 C282.406194,286.228175 282.250567,285.566203 282.562871,285.061924 Z"/><path id="Fill-49" fill="#FFC999" d="M329.39695,313.8355 C332.24845,312.955 335.36245,313.984 336.17845,317.245 C337.49095,322.4995 327.40045,333.8425 318.40645,329.629 C315.35395,327.364 324.94645,315.208 329.39695,313.8355"/><path id="Stroke-51" fill="#DD936F" fill-rule="nonzero" d="M329.251556,317.346222 C330.240466,317.005734 331.267034,316.930615 332.171688,317.002631 L332.36738,317.021661 C332.383301,317.023586 332.397218,317.025406 332.409067,317.02708 C332.702728,317.068566 332.907156,317.340256 332.86567,317.633917 C332.824184,317.927578 332.552494,318.132006 332.258833,318.09052 L332.163961,318.079973 L332.086461,318.073244 C331.316267,318.011932 330.42841,318.076901 329.601196,318.361715 C328.457148,318.755617 327.65051,319.504805 327.279766,320.720884 C327.153919,321.135164 327.194228,321.372493 327.443266,321.810596 L327.603197,322.078606 C328.052511,322.825178 328.160326,323.376061 327.809095,324.168931 C327.380043,325.139436 326.620794,325.715354 325.657734,325.946283 C325.001545,326.103628 324.318333,326.089917 323.670837,325.974655 L323.428245,325.925836 C323.359477,325.91017 323.30327,325.895527 323.261018,325.883153 C322.976396,325.799795 322.81324,325.501489 322.896597,325.216868 C322.979955,324.932246 323.278261,324.76909 323.562882,324.852447 L323.6752,324.880602 C323.725086,324.891807 323.786895,324.904431 323.859064,324.917278 C324.373308,325.008819 324.915945,325.019709 325.407302,324.901888 C326.060544,324.74525 326.541231,324.380631 326.826968,323.734301 C326.992514,323.360597 326.975755,323.153012 326.761682,322.767851 L326.616057,322.522017 C326.144164,321.744878 326.00397,321.225654 326.252291,320.408202 C326.730544,318.839478 327.800328,317.845887 329.251556,317.346222 Z"/><path id="Stroke-53" fill="#253368" fill-rule="nonzero" d="M287.192871,297.057893 C288.358099,295.114032 290.725822,294.348661 292.504319,295.415759 C294.281605,296.481369 294.720628,298.932107 293.55527,300.874372 C293.342159,301.229557 292.881463,301.344731 292.526278,301.13162 C292.171093,300.918509 292.055919,300.457813 292.26903,300.102628 C293.029673,298.83489 292.757693,297.31663 291.732778,296.70212 C290.706289,296.086226 289.240071,296.560184 288.479429,297.829107 C288.266464,298.18438 287.805816,298.299743 287.450543,298.086779 C287.09527,297.873814 286.979907,297.413166 287.192871,297.057893 Z"/><path id="Stroke-55" fill="#253368" fill-rule="nonzero" d="M306.898346,308.880337 C308.065593,306.937949 310.433175,306.172051 312.209875,307.239213 C313.987312,308.306817 314.426805,310.756403 313.260054,312.697963 C313.046699,313.053002 312.585925,313.16786 312.230887,312.954504 C311.875848,312.741149 311.76099,312.280375 311.974346,311.925337 C312.735655,310.65846 312.463455,309.141305 311.437525,308.525087 C310.413158,307.90981 308.94645,308.384281 308.184054,309.652963 C307.970699,310.008002 307.509925,310.12286 307.154887,309.909504 C306.799848,309.696149 306.68499,309.235375 306.898346,308.880337 Z"/><path id="Fill-57" fill="#597EF7" d="M191.3296,431.16955 C191.3296,431.16955 213.6541,336.23155 230.3806,331.24105 C237.4846,329.12155 261.6691,336.38755 261.6691,336.38755 C261.6691,336.38755 271.9771,343.68805 282.8776,353.87155 C291.5071,361.93255 292.8436,353.24155 303.6496,362.44105 C308.2261,366.33655 334.0006,389.13205 330.8851,393.93955 C306.3646,431.77105 272.6311,463.58455 272.6311,463.58455 C272.6311,463.58455 273.5926,481.31605 261.4831,481.11355 C256.8481,482.36005 241.7686,480.39655 219.7696,474.62755 C199.4581,469.30105 186.0256,458.81455 184.7326,455.70955 C177.0091,437.17555 191.3296,431.16955 191.3296,431.16955"/><polygon id="Fill-59" fill="#597EF7" points="303.413 353.242 286.062 356.096 290.959 377.198 307.017 365.176"/><polygon id="Fill-61" fill="#597EF7" points="286.171 356.591 265.258 365.663 260.366 336.025 271.07 332.062"/><path id="Stroke-63" fill="#1D39C4" fill-rule="nonzero" d="M285.344672,358.763824 C285.744458,358.872194 285.980697,359.284136 285.872326,359.683922 L285.721316,360.228817 C285.596082,360.675636 285.445528,361.203732 285.26953,361.810548 L284.835411,363.290782 C284.429001,364.66218 283.967806,366.180957 283.451435,367.83925 L282.860384,369.721713 C280.951675,375.75172 278.690789,382.431798 276.071682,389.640865 C268.05198,411.715015 258.294466,434.373442 246.738724,456.424043 L245.805,458.196 L246.027027,458.861103 C246.276224,459.636279 246.525075,460.502552 246.757251,461.439776 C247.506267,464.463321 247.915042,467.511236 247.803169,470.372741 C247.622325,474.998371 246.091036,478.659588 242.867239,480.913839 C242.527783,481.151205 242.060176,481.068445 241.822811,480.728989 C241.585445,480.389533 241.668205,479.921926 242.007661,479.684561 C244.791458,477.737981 246.140141,474.513363 246.304314,470.314141 C246.409938,467.612468 246.019059,464.697989 245.301262,461.800465 C245.122371,461.078336 244.933315,460.400337 244.742404,459.777134 L244.599002,459.320173 C244.456478,458.876822 244.34666,458.564268 244.285825,458.403195 C244.209725,458.201706 244.223921,457.977226 244.324797,457.78693 C256.322538,435.153799 266.413879,411.831099 274.661843,389.12866 C277.548438,381.183335 279.998245,373.883655 282.019262,367.39329 L282.749319,365.021769 C283.093732,363.889288 283.407258,362.837466 283.690059,361.869622 L284.199525,360.099228 L284.424574,359.291478 C284.532944,358.891692 284.944886,358.655453 285.344672,358.763824 Z"/><path id="Stroke-65" fill="#1D39C4" fill-rule="nonzero" d="M283.75105,395.258449 L273.78205,415.193449 C273.669868,415.41778 273.677249,415.683339 273.801718,415.901092 L282.033718,430.302592 C282.174949,430.54967 282.443857,430.695525 282.727981,430.679159 L296.242981,429.900659 C296.457559,429.888299 296.656523,429.784471 296.789387,429.615522 L296.974722,429.372544 C297.094325,429.213298 297.233071,429.02517 297.391081,428.807109 L297.885477,428.115232 C298.337114,427.475238 298.849432,426.729101 299.423088,425.871184 L299.672698,425.496645 C302.080014,421.872734 305.011593,417.132854 308.482695,411.145565 C308.6476,410.861121 308.608015,410.502434 308.38505,410.260796 C306.360367,408.066543 304.096255,406.033764 301.634934,404.157372 C297.924376,401.328623 293.952508,398.986253 289.980452,397.100854 C288.589603,396.440666 287.297255,395.884431 286.136029,395.428685 L285.558702,395.206474 C285.377867,395.138332 285.208811,395.076102 285.052043,395.01973 L284.657411,394.881853 C284.303689,394.764833 283.917691,394.925217 283.75105,395.258449 Z M275.303,415.505 L284.795,396.522 L285.588018,396.824996 C286.717977,397.268471 287.978664,397.811078 289.337237,398.455946 C293.220673,400.29928 297.104297,402.589609 300.725532,405.350262 L301.437994,405.902383 C303.322073,407.38667 305.078713,408.966751 306.686675,410.644336 L306.904,410.876 L305.684434,412.961161 C302.876387,417.727201 300.459068,421.601989 298.423252,424.666655 L297.706163,425.735592 C297.174769,426.519415 296.704749,427.193037 296.295465,427.762084 L295.812,428.423 L283.104,429.154 L275.303,415.505 Z"/><path id="Fill-67" fill="#FFF" d="M279.48685,369.25345 C278.81635,370.40995 277.49185,370.89295 276.52885,370.33495 C275.56585,369.77695 275.32885,368.38645 275.99935,367.23145 C276.66835,366.07495 277.99285,365.59195 278.95585,366.14995 C279.91885,366.70795 280.15585,368.09695 279.48685,369.25345"/><path id="Fill-69" fill="#FFF" d="M269.5918,391.9447 C268.9228,393.1012 267.5983,393.5857 266.6338,393.0262 C265.6723,392.4682 265.4353,391.0777 266.1043,389.9227 C266.7748,388.7662 268.0978,388.2832 269.0608,388.8412 C270.0238,389.3992 270.2623,390.7882 269.5918,391.9447"/><path id="Fill-71" fill="#FFF" d="M257.7514,417.694 C257.0824,418.8505 255.7579,419.335 254.7934,418.7755 C253.8319,418.2175 253.5949,416.827 254.2639,415.672 C254.9344,414.5155 256.2574,414.0325 257.2204,414.5905 C258.1834,415.1485 258.4219,416.5375 257.7514,417.694"/><path id="Fill-73" fill="#FFF" d="M246.7168,441.8398 C246.0463,442.9963 244.7218,443.4793 243.7588,442.9213 C242.7958,442.3633 242.5588,440.9728 243.2293,439.8178 C243.8983,438.6613 245.2228,438.1783 246.1858,438.7363 C247.1488,439.2943 247.3858,440.6833 246.7168,441.8398"/><path id="Fill-75" fill="#FFF" d="M242.87455,467.6053 C242.54605,468.8998 241.40605,469.7293 240.32755,469.4563 C239.24755,469.1833 238.63855,467.9128 238.96705,466.6168 C239.29255,465.3223 240.43405,464.4928 241.51255,464.7658 C242.59255,465.0388 243.20155,466.3093 242.87455,467.6053"/><path id="Stroke-77" fill="#1D39C4" fill-rule="nonzero" d="M260.100323,336.013497 C260.475059,335.952327 260.830211,336.180241 260.9382,336.533534 L260.961353,336.632873 L265.494,364.401 L285.590039,355.971582 C285.940178,355.82471 286.338688,355.963519 286.526088,356.281888 L286.571768,356.373089 C286.71864,356.723228 286.579831,357.121738 286.261462,357.309138 L286.170261,357.354818 L265.197261,366.152318 C264.781998,366.326507 264.31692,366.09773 264.190045,365.680948 L264.166947,365.581527 L259.480947,336.874527 C259.414216,336.465724 259.69152,336.080228 260.100323,336.013497 Z"/><path id="Stroke-79" fill="#1D39C4" fill-rule="nonzero" d="M285.934554,356.032953 C286.308679,355.968153 286.666024,356.192615 286.777433,356.544845 L286.801547,356.643954 L290.553,378.303 L306.329045,364.951951 C306.616484,364.708692 307.033719,364.719137 307.308245,364.960599 L307.386049,365.039945 C307.629308,365.327384 307.618863,365.744619 307.377401,366.019145 L307.298055,366.096949 L290.522055,380.294449 C290.10716,380.645574 289.481812,380.449748 289.323737,379.953194 L289.298553,379.849946 L285.323553,356.899946 C285.252862,356.491809 285.526417,356.103643 285.934554,356.032953 Z"/><path id="Fill-81" fill="#FFC999" d="M121.0756,381.72115 L121.0756,381.72115 C118.5616,371.85415 124.1881,361.74115 133.8991,358.67515 L221.8516,330.90115 C234.7876,326.81665 248.4961,334.44415 251.8456,347.59015 C255.1561,360.58015 246.9991,373.71865 233.8891,376.51465 L143.6836,395.75665 C133.6021,397.90765 123.6211,391.71115 121.0756,381.72115"/><path id="Fill-83" fill="#597EF7" d="M177.24955,391.59565 L165.12805,348.21115 L222.90505,330.95365 C235.55005,327.17665 248.83555,334.50415 252.38755,347.21665 C255.93955,359.92765 248.37655,373.07965 235.60255,376.40515 L177.24955,391.59565 Z"/><path id="Fill-85" fill="#4E5C93" d="M235.7554,740.12005 C235.7554,740.12005 227.4499,766.42555 242.4994,787.04305 C252.3529,800.54155 229.9234,800.63755 212.5729,777.00955 C202.6804,763.53805 210.9799,759.78355 204.2854,753.59755 C200.4034,750.01105 194.2459,736.31305 196.5739,733.02055 C200.6389,727.26655 201.7864,725.66155 206.9284,719.29705 C237.4084,681.58855 252.6619,697.66405 235.7554,740.12005"/><path id="Fill-87" fill="#ADC6FF" d="M375.59815,626.00035 L375.59815,626.00035 C367.99315,636.50185 353.45515,639.13135 342.65365,631.95985 L233.56165,559.52035 C219.60415,550.25185 216.16465,531.23335 225.99115,517.66285 C235.81765,504.09385 254.96065,501.42835 268.12015,511.79635 L370.98115,592.84135 C381.16465,600.86635 383.20165,615.49885 375.59815,626.00035"/><path id="Fill-89" fill="#ADC6FF" d="M257.83495,654.898 L257.83495,654.898 C246.28345,660.7885 232.14145,656.515 225.78745,645.2125 L161.61295,531.0625 C153.40195,516.46 158.99245,497.9575 173.91895,490.3465 C188.84395,482.7355 207.10345,489.073 214.10245,504.295 L268.81195,623.2705 C274.22995,635.0515 269.38495,649.0075 257.83495,654.898"/><path id="Fill-91" fill="#ADC6FF" d="M236.0527,730.26235 L367.3567,633.74785 C378.3067,625.69885 380.3632,610.15735 371.8852,599.53735 C363.4987,589.03435 348.1087,587.49535 337.8097,596.13085 L212.7082,701.02435 C212.7082,701.02435 217.0207,719.07085 236.0527,730.26235"/><path id="Fill-93" fill="#ADC6FF" d="M236.39995,802.1206 L270.81745,643.2601 C274.09045,630.0706 265.73545,616.8046 252.42445,614.0611 C239.26045,611.3491 226.44445,620.0056 224.04895,633.2311 L194.93245,793.8721 C194.93245,793.8721 214.61245,805.6846 236.39995,802.1206"/><path id="Fill-95" fill="#ADC6FF" d="M180.2524,464.29795 C180.2524,464.29795 216.7054,492.80695 258.1594,489.58195 C264.7729,489.06745 263.2294,500.75995 266.2009,513.74395 C263.3224,531.89395 236.4589,555.04795 236.4589,555.04795 C205.7704,507.26545 171.0589,506.83195 158.2174,513.27145 C158.2174,513.27145 156.2659,494.74945 180.2524,464.29795"/><path id="Fill-97" fill="#ADC6FF" d="M262.60885,481.10635 L259.87135,492.95035 C259.87135,492.95035 252.02935,494.73385 232.25935,490.03135 C205.74985,483.72835 179.97385,464.86285 179.97385,464.86285 L185.28685,454.57885 C185.28685,454.57885 219.86485,482.47435 262.60885,481.10635"/><path id="Stroke-99" fill="#597EF7" fill-rule="nonzero" d="M228.122877,537.717182 C228.36216,537.606542 228.640897,537.686947 228.787304,537.895244 L228.835668,537.979227 L241.686168,565.771227 C241.810638,566.040421 241.693316,566.359548 241.424123,566.484018 C241.18484,566.594658 240.906103,566.514253 240.759696,566.305956 L240.711332,566.221973 L227.860832,538.429973 C227.736362,538.160779 227.853684,537.841652 228.122877,537.717182 Z"/><path id="Stroke-101" fill="#597EF7" fill-rule="nonzero" d="M184.380841,467.208537 C184.560534,466.972596 184.897472,466.926998 185.133413,467.106691 L185.37492,467.28616 L186.034324,467.76036 L186.474565,468.068777 C187.584984,468.839985 188.890406,469.70001 190.381358,470.626677 C194.644805,473.276525 199.537044,475.927178 204.982168,478.401363 C222.052107,486.157698 240.587823,490.482924 259.826875,489.597967 C260.123139,489.58434 260.374355,489.813462 260.387983,490.109725 C260.40161,490.405989 260.172488,490.657205 259.876225,490.670833 C240.451081,491.56435 221.75198,487.200998 204.537873,479.379156 C199.048655,476.884934 194.115831,474.212293 189.814419,471.538848 C188.475087,470.706416 187.28281,469.926481 186.244185,469.214623 L185.861916,468.950897 C185.546242,468.731656 185.264111,468.531922 185.016124,468.353117 L184.482687,467.961109 C184.246746,467.781416 184.201148,467.444478 184.380841,467.208537 Z"/><path id="Stroke-103" fill="#597EF7" fill-rule="nonzero" d="M234.317624,488.801081 C234.60913,488.746474 234.889711,488.938518 234.944319,489.230024 L235.01463,489.628992 C235.069857,489.953129 235.131312,490.333908 235.197432,490.7688 C235.386033,492.00929 235.574514,493.435835 235.75036,495.028217 C237.200235,508.157669 236.909976,522.392141 233.664738,535.784969 C233.027604,538.414369 232.281848,540.966438 231.422624,543.433519 C231.32508,543.713596 231.018958,543.861568 230.738881,543.764024 C230.458804,543.66648 230.310832,543.360358 230.408376,543.080281 C231.255866,540.646891 231.991852,538.128257 232.620945,535.532046 C235.83233,522.278923 236.120191,508.162057 234.682849,495.146101 L234.550075,493.994324 C234.460273,493.247573 234.36816,492.543448 234.275297,491.884486 L234.135634,490.930233 C234.083516,490.587437 234.034413,490.279222 233.989126,490.006885 L233.888681,489.427776 C233.834074,489.13627 234.026118,488.855689 234.317624,488.801081 Z"/><path id="Stroke-105" fill="#597EF7" fill-rule="nonzero" d="M245.277576,480.960031 C245.532323,481.027865 245.695316,481.267849 245.674795,481.521623 L245.658319,481.617126 L243.501,489.719 L243.685686,491.345642 L243.721874,491.681005 C243.896674,493.313012 244.071447,495.115763 244.234566,497.03767 C244.605895,501.412757 244.861316,505.73909 244.948403,509.785417 C245.165868,519.889604 244.337827,526.806125 242.03011,529.354848 L241.896152,529.49623 C241.472252,529.925557 241.031219,530.365647 240.574751,530.815168 C239.023214,532.343094 237.361736,533.913951 235.700366,535.44115 L234.391689,536.634614 L233.48362,537.449791 C233.261689,537.646526 232.922294,537.626101 232.725559,537.40417 C232.528824,537.182239 232.549249,536.842844 232.77118,536.646109 L233.979718,535.558556 C234.294103,535.273071 234.62637,534.969587 234.973532,534.650461 C236.626486,533.130999 238.279332,531.568304 239.821163,530.049935 L240.268923,529.60707 L241.140663,528.732771 C243.241855,526.603405 244.088494,519.744389 243.874651,509.808526 C243.788104,505.787239 243.533968,501.482673 243.164414,497.128497 L243.040605,495.716307 C242.956859,494.790765 242.870939,493.898138 242.7843,493.044897 L242.583123,491.143561 L242.422433,489.746638 L242.436481,489.542774 L244.620481,481.340774 C244.688315,481.086027 244.928299,480.923034 245.182073,480.943555 L245.277576,480.960031 Z"/><path id="Stroke-107" fill="#1D39C4" fill-rule="nonzero" d="M164.926681,347.488814 C165.292372,347.386641 165.670518,347.573948 165.816856,347.913157 L165.850836,348.009331 L177.776,390.692 L213.736951,381.773206 C214.10548,381.681801 214.477971,381.880117 214.614299,382.223471 L214.645444,382.320601 C214.736849,382.68913 214.538533,383.061621 214.195179,383.197949 L214.098049,383.229094 L177.430549,392.323594 C177.06964,392.413109 176.703445,392.224707 176.560841,391.891757 L176.527664,391.797469 L164.406164,348.412969 C164.294703,348.014033 164.527746,347.600275 164.926681,347.488814 Z"/><g id="分组" transform="translate(406.000000, 385.040500)"><mask id="mask-6" fill="#fff"><use xlink:href="#path-5"/></mask><path id="Fill-109" fill="#FFC999" d="M5.18655,49.3989 C5.18655,49.3989 -1.37895,41.2614 2.94555,27.9339 C6.28905,17.6274 4.10055,15.6684 4.68855,9.6789 C5.27505,3.6894 10.30455,9.7134 11.46405,21.0699 C11.72355,29.3229 27.00255,13.3944 29.56755,3.0264 C32.05905,-7.0371 51.70755,22.9704 24.00405,47.1189 C10.34805,59.0229 5.18655,49.3989 5.18655,49.3989" mask="url(#mask-6)"/></g><path id="Stroke-111" fill="#DD936F" fill-rule="nonzero" d="M442.241273,398.784461 L442.178718,398.766797 L442.128597,398.759492 C441.956249,398.747529 441.730842,398.86568 441.444407,399.301263 C441.056499,399.891157 440.732469,400.892985 440.514301,402.375317 L440.469187,402.700339 C439.625489,409.169182 435.230454,413.938942 426.944258,418.014942 C424.752073,419.093508 423.267165,420.447391 422.382333,422.011433 C421.314123,423.899617 421.188357,425.913953 421.617097,427.760284 C421.698646,428.111466 421.778634,428.360726 421.828295,428.485927 C421.928023,428.737352 421.805048,429.022018 421.553623,429.121745 C421.302198,429.221473 421.017532,429.098498 420.917805,428.847073 L420.854359,428.672058 C420.796935,428.50114 420.729561,428.268549 420.662984,427.98184 C420.183456,425.9168 420.324368,423.659877 421.529806,421.529129 C422.514684,419.788243 424.147921,418.299119 426.511879,417.13604 C434.383804,413.263821 438.54779,408.831307 439.450326,402.910257 L439.497933,402.573507 C439.732829,400.776931 440.116814,399.537411 440.626001,398.763088 C441.166805,397.940685 441.82028,397.68321 442.392063,397.810813 C442.446975,397.823068 442.481766,397.834184 442.526331,397.851446 C442.776822,397.953498 442.897156,398.23929 442.795104,398.489781 C442.704391,398.71244 442.468501,398.832258 442.241273,398.784461 Z"/><path id="Stroke-113" fill="#DD936F" fill-rule="nonzero" d="M439.086581,393.789894 C440.062507,392.560717 441.249431,392.220379 442.097606,393.105754 C442.284717,393.301072 442.278065,393.611094 442.082746,393.798206 C441.90913,393.964527 441.644884,393.977751 441.456891,393.841458 L441.390294,393.783346 C441.04306,393.420882 440.50857,393.574142 439.853694,394.398956 C439.030415,395.435875 438.33343,397.230989 437.959572,399.484351 C437.614925,401.557874 436.60936,403.701651 435.150964,405.827925 C434.515598,406.754259 433.835587,407.615541 433.155305,408.39037 L432.810886,408.774946 C432.755805,408.835185 432.701944,408.893468 432.649389,408.949752 L432.315569,409.298562 L432.23915,409.374924 C432.04592,409.564192 431.735844,409.56098 431.546576,409.36775 C431.357308,409.17452 431.36052,408.864444 431.55375,408.675176 L431.787127,408.436319 L432.088585,408.113355 C432.19417,407.997871 432.304623,407.874675 432.419243,407.744125 C433.075197,406.997006 433.731422,406.16585 434.34321,405.273892 C435.727678,403.2554 436.675807,401.234073 436.993305,399.323891 C437.39233,396.918838 438.148413,394.971515 439.086581,393.789894 Z"/><path id="Stroke-115" fill="#DD936F" fill-rule="nonzero" d="M435.112834,394.235215 C436.381142,389.931826 437.843737,388.519741 439.187458,388.971371 C439.270861,388.999403 439.33647,389.031326 439.383873,389.061041 C439.613049,389.204703 439.682371,389.506948 439.538709,389.736123 C439.411009,389.939835 439.15801,390.017243 438.942407,389.931031 L438.875399,389.899832 C438.702211,389.841623 438.449929,389.899476 438.077056,390.259472 C437.407753,390.90566 436.713612,392.268545 436.052378,394.512121 C435.984674,394.741842 435.917593,394.980032 435.851198,395.22668 C435.227889,397.544597 434.284008,399.648606 433.105455,401.534325 C432.325079,402.782949 431.488417,403.862465 430.650433,404.770635 C430.429496,405.010077 430.21998,405.224888 430.024767,405.414945 L429.834428,405.596746 C429.683689,405.737876 429.573793,405.834282 429.511558,405.885665 C429.30298,406.057872 428.994292,406.028387 428.822085,405.819808 C428.649878,405.61123 428.679363,405.302542 428.887942,405.130335 L429.088604,404.952607 L429.164983,404.881719 C429.395042,404.666327 429.652503,404.40775 429.930564,404.1064 C430.728703,403.241411 431.528164,402.209894 432.274836,401.015198 C433.403873,399.208707 434.308139,397.193003 434.905335,394.972197 C434.973748,394.718049 435.042922,394.472429 435.112834,394.235215 Z"/><path id="Stroke-117" fill="#DD936F" fill-rule="nonzero" d="M367.128689,446.131832 C367.391587,445.976661 367.730498,446.063991 367.885668,446.326889 C368.023598,446.560576 367.969922,446.854323 367.771649,447.025696 L367.690611,447.083868 L334.276611,466.805868 C334.013713,466.961039 333.674802,466.873709 333.519632,466.610811 C333.381702,466.377124 333.435378,466.083377 333.633651,465.912004 L333.714689,465.853832 L367.128689,446.131832 Z"/><path id="Stroke-119" fill="#1D39C4" fill-rule="nonzero" d="M316.714354,414.570635 C317.035737,414.831951 317.084431,415.304321 316.823115,415.625704 L314.936311,417.927098 L312.032142,421.434163 C311.345973,422.258642 310.63384,423.111538 309.898211,423.989509 C304.643474,430.261022 299.264308,436.532678 294.068795,442.387268 C293.149969,443.422652 292.243765,444.437108 291.351238,445.429206 L290.463309,446.413798 C283.856813,453.721425 278.222108,459.549412 273.846196,463.504558 L273.398,463.905 L273.404686,464.021364 C273.735406,471.474685 271.810286,476.447852 268.340718,479.354308 L268.117166,479.537024 C266.936205,480.478693 265.670209,481.113649 264.402334,481.499498 C263.718178,481.707705 263.160673,481.809541 262.763586,481.845466 L262.596398,481.856322 L261.932277,481.857266 C261.632096,481.855136 261.283834,481.849836 260.88916,481.840407 L260.584479,481.832547 C259.339575,481.798122 257.93746,481.730897 256.391489,481.623203 C252.151021,481.327807 247.495782,480.778464 242.532578,479.9137 C228.647319,477.494402 214.816971,473.074606 201.897862,466.15929 C196.096553,463.053977 190.593942,459.496462 185.436469,455.460179 C185.110274,455.204896 185.052788,454.733514 185.308071,454.407319 C185.563354,454.081124 186.034736,454.023638 186.360931,454.278921 C191.448829,458.260754 196.87894,461.771397 202.605746,464.83683 C215.372575,471.670634 229.052787,476.04245 242.790051,478.435963 C247.700659,479.291562 252.304977,479.834896 256.495728,480.126829 L257.612147,480.19911 C258.701239,480.264131 259.707723,480.307729 260.625941,480.33312 L261.711777,480.355121 C261.94796,480.35789 262.157373,480.358788 262.339308,480.358219 L262.56542,480.3573 L262.733339,480.339589 C262.786101,480.332645 262.848839,480.323488 262.920915,480.311707 C263.23353,480.260608 263.585066,480.180291 263.965618,480.064479 C265.060657,479.731229 266.157575,479.181074 267.182001,478.364221 C270.464379,475.746931 272.302028,471.04605 271.882894,463.626852 C271.869939,463.397536 271.962774,463.174926 272.134818,463.02276 L272.844481,462.388049 C276.933052,458.692206 282.158116,453.317507 288.264012,446.606043 L289.350614,445.40786 C290.525163,444.108659 291.724756,442.768781 292.946867,441.391639 C298.131922,435.548834 303.502177,429.287566 308.74845,423.026155 L311.388003,419.862743 L314.965031,415.52916 L315.659285,414.679396 C315.920601,414.358013 316.392971,414.309319 316.714354,414.570635 Z"/><path id="Stroke-121" fill="#1D39C4" fill-rule="nonzero" d="M222.660585,447.597077 C222.824129,447.216517 223.265212,447.04059 223.645773,447.204135 L224.611644,447.602352 L225.321591,447.885038 C225.93832,448.12777 226.617252,448.387951 227.354195,448.66223 C230.304438,449.760266 233.571761,450.858622 237.063877,451.883726 C245.12447,454.249899 253.114012,455.861555 260.604818,456.383288 L261.671601,456.450374 C262.085166,456.473543 262.401645,456.827586 262.378476,457.241151 C262.355307,457.654716 262.001264,457.971195 261.587699,457.948026 L261.452024,457.940306 C253.565361,457.484669 245.13879,455.817395 236.641382,453.322996 C233.113543,452.287405 229.812973,451.177873 226.830981,450.068021 L225.551723,449.584087 C225.281811,449.480243 225.02161,449.378972 224.771388,449.280487 L223.476361,448.759355 L223.053527,448.582265 C222.672967,448.418721 222.49704,447.977638 222.660585,447.597077 Z"/><path id="Fill-123" fill="#4E5C93" d="M167.7397,469.7989 L171.5767,470.3584 C174.3412,470.7604 176.2567,473.3284 175.8532,476.0944 L166.4272,540.7954 C166.0237,543.5599 163.4557,545.4739 160.6912,545.0719 L156.8542,544.5124 C154.0882,544.1104 152.1742,541.5424 152.5777,538.7764 L162.0052,474.0769 C162.4072,471.3109 164.9752,469.3954 167.7397,469.7989"/><path id="Fill-125" fill="#253368" d="M82.2163,457.33825 L168.0613,469.84525 C170.8273,470.24875 172.7428,472.81675 172.3393,475.58275 L162.9133,540.28225 C162.5098,543.04825 159.9418,544.96375 157.1773,544.56025 L71.3308,532.05175 C68.5648,531.64975 66.6508,529.08175 67.0543,526.31575 L76.4803,461.61625 C76.8823,458.85025 79.4518,456.93475 82.2163,457.33825"/><path id="Stroke-127" fill="#4E5C93" fill-rule="nonzero" d="M72.9856345,504.368957 L166.965134,518.062457 C167.138106,518.08766 167.257896,518.248313 167.232693,518.421284 C167.21109,518.569546 167.089974,518.678735 166.946883,518.691035 L166.873866,518.688843 L72.8943655,504.995343 C72.7213939,504.97014 72.6016039,504.809487 72.6268072,504.636516 C72.6484099,504.488254 72.7695264,504.379065 72.912617,504.366765 L72.9856345,504.368957 Z"/><path id="Stroke-129" fill="#597EF7" fill-rule="nonzero" d="M268.807014,650.004313 C269.06913,650.054722 269.249802,650.287779 269.242485,650.5462 L269.232937,650.633064 L256.562437,716.517564 C256.506427,716.808804 256.224926,716.999496 255.933686,716.943487 C255.67157,716.893078 255.490898,716.660021 255.498215,716.4016 L255.507763,716.314736 L268.178263,650.430236 C268.228672,650.16812 268.461729,649.987448 268.72015,649.994349 L268.807014,650.004313 Z"/><path id="Fill-131" fill="#FFC999" d="M101.728,504.3883 L101.728,504.3883 C95.6755,502.5673 92.0725,496.3648 93.487,490.2058 L120.4435,372.9478 C122.9725,361.9438 134.2675,355.3633 145.087,358.5913 C155.887,361.8133 161.734,373.4743 157.8565,384.0568 L116.4535,497.0248 C114.268,502.9903 107.812,506.2183 101.728,504.3883"/><path id="Fill-133" fill="#FFC999" d="M90.27145,508.1269 C90.27145,508.1269 92.11195,484.2949 102.60895,480.1789 C112.11595,476.4499 118.42645,487.8739 118.42645,487.8739 C118.42645,487.8739 122.33395,497.3719 123.74545,508.7644 C124.67245,516.2284 128.55295,530.1409 124.84945,531.6709 C120.01795,533.6674 118.37995,518.7784 114.73495,517.7599 C107.34895,515.6974 107.45095,539.4139 105.39895,543.2854 C101.38945,550.8529 87.84745,536.6989 90.27145,508.1269"/><path id="Stroke-135" fill="#DD936F" fill-rule="nonzero" d="M103.609915,519.614831 C103.898604,519.714085 104.052173,520.028575 103.952919,520.317265 L103.847651,520.639912 L103.639357,521.322653 C103.614574,521.406818 103.589283,521.493703 103.563522,521.583263 C103.268387,522.609348 102.97298,523.770622 102.697153,525.04295 C101.490511,530.608913 101.045411,536.33069 101.805167,541.656763 C101.847697,541.954911 101.893987,542.250884 101.944083,542.544624 C101.995405,542.845554 101.793057,543.131111 101.492126,543.182433 C101.191196,543.233755 100.905639,543.031407 100.854317,542.730476 C100.802525,542.426786 100.754685,542.120902 100.710746,541.81288 C99.9298339,536.338498 100.384613,530.492294 101.61675,524.80873 C101.857795,523.696844 102.113688,522.66743 102.371872,521.735467 L102.501098,521.277675 C102.580486,521.001669 102.655702,520.749846 102.725695,520.523464 L102.907481,519.957835 C103.006735,519.669146 103.321225,519.515577 103.609915,519.614831 Z"/><path id="Stroke-137" fill="#DD936F" fill-rule="nonzero" d="M97.788618,516.23868 C98.0857306,516.308803 98.2697425,516.606505 98.19962,516.903618 C96.3069365,524.923014 96.0204548,531.907217 96.6628427,537.429237 C96.7266826,537.97801 96.7949309,538.455934 96.8629638,538.860082 L96.9508512,539.336538 C97.0155304,539.634883 96.826107,539.929172 96.5277622,539.993851 C96.2294173,540.05853 95.9351281,539.869107 95.8704488,539.570762 L95.8199688,539.312953 C95.8058995,539.236072 95.790078,539.146224 95.772802,539.043596 L95.687862,538.501278 C95.6457414,538.212536 95.6043684,537.89756 95.5647481,537.55698 C94.9081779,531.913048 95.1999126,524.800783 97.12368,516.649682 C97.1867903,516.382281 97.4342406,516.206491 97.6996947,516.225126 L97.788618,516.23868 Z"/><path id="Stroke-139" fill="#DD936F" fill-rule="nonzero" d="M92.9013783,511.961892 C92.9911287,511.670108 93.3004235,511.506328 93.5922075,511.596078 C93.8839916,511.685829 94.0477722,511.995123 93.9580217,512.286908 L93.9179327,512.424688 C93.8713511,512.591619 93.8058568,512.845946 93.7265361,513.187171 C93.5484166,513.953412 93.369833,514.87177 93.202843,515.941072 C92.6422128,519.531006 92.3469831,523.884291 92.4598149,528.987181 C92.4665633,529.292382 92.2246199,529.545267 91.9194191,529.552153 C91.6142183,529.558763 91.3613335,529.31682 91.3545851,529.011619 C91.2402994,523.842978 91.5399535,519.424453 92.1105819,515.770497 C92.2817739,514.674288 92.4655283,513.729339 92.6497467,512.936861 L92.7978983,512.33277 C92.8403411,512.170225 92.8753386,512.046549 92.9013783,511.961892 Z"/><path id="Stroke-141" fill="#DD936F" fill-rule="nonzero" d="M111.37576,518.2708 C113.423006,517.001666 115.112175,517.12706 116.47608,518.484802 C117.330156,519.335018 117.900047,520.350712 118.813687,522.493988 L119.787762,524.821989 C120.017375,525.356896 120.200723,525.757853 120.39194,526.140642 L121.87937,529.026923 L122.127829,529.484866 C122.400294,529.974085 122.616137,530.312185 122.820391,530.567909 C123.330282,531.206286 123.763235,531.339012 124.732626,531.130239 C125.031058,531.065968 125.325089,531.255793 125.389361,531.554226 C125.453632,531.852658 125.263807,532.146689 124.965374,532.210961 C123.603231,532.504318 122.741106,532.240026 121.956605,531.25784 C121.675627,530.906058 121.398595,530.461345 121.040962,529.802555 L120.510791,528.789295 L119.557326,526.937065 C119.295693,526.435055 119.072556,525.958175 118.777728,525.27175 L117.933118,523.249926 C116.997942,521.027529 116.454291,520.022995 115.696146,519.268277 C114.70897,518.285562 113.584725,518.202104 111.95834,519.210338 C110.101154,520.3622 108.629689,524.261727 107.608556,529.965802 C107.159471,532.474396 106.825261,535.165814 106.589408,537.85775 L106.498918,538.954988 C106.485248,539.131981 106.472273,539.305913 106.459975,539.476603 L106.355803,541.129497 C106.348901,541.261549 106.343944,541.366392 106.340765,541.442247 C106.327981,541.747255 106.070361,541.984149 105.765353,541.971365 C105.460345,541.958581 105.223451,541.700961 105.236235,541.395953 L105.270944,540.724882 L105.290769,540.392532 C105.339612,539.598324 105.404676,538.713741 105.488127,537.761262 C105.726654,535.038806 106.064783,532.315832 106.520355,529.770994 L106.685688,528.881667 C107.755187,523.342531 109.253587,519.587013 111.37576,518.2708 Z"/></g></svg>