<?xml version="1.0" encoding="UTF-8"?>
<svg width="512px" height="1024px" viewBox="0 0 512 1024" version="1.1" xmlns="http://www.w3.org/2000/svg" xmlns:xlink="http://www.w3.org/1999/xlink">
    <!-- Generator: Sketch 61.2 (89653) - https://sketch.com -->
    <title>2.人物组件/5.用研/站立/双手交叉</title>
    <desc>Created with Sketch.</desc>
    <defs>
        <polygon id="path-1" points="0.432432078 0.9717 57.558 0.9717 57.558 33 0.432432078 33"></polygon>
        <polygon id="path-3" points="0 0.54405 118.60305 0.54405 118.60305 42.3559327 0 42.3559327"></polygon>
    </defs>
    <g id="2.人物组件/5.用研/站立/双手交叉" stroke="none" stroke-width="1" fill="none" fill-rule="evenodd">
        <path d="M180.0471,486.92895 L180.0471,486.92895 C169.0056,483.55545 162.7866,471.86895 166.1601,460.82745 L187.0251,392.52345 C190.3986,381.48045 202.0851,375.26445 213.1281,378.63795 C224.1696,382.00995 230.3871,393.69645 227.0151,404.73945 L206.1486,473.04345 C202.7751,484.08495 191.0886,490.30245 180.0471,486.92895" id="Fill-1" fill="#E4EBF7"></path>
        <path d="M286.09455,739.4196 C286.09455,739.4196 288.75855,777.0756 290.86905,806.4036 C292.01955,822.4161 292.28655,834.9231 294.07905,835.9176 C299.15805,838.7301 305.01855,836.3226 311.19555,842.0871 C317.37405,847.8516 321.83205,852.2841 338.03655,848.3421 C356.98755,843.7341 340.00155,839.0211 330.95355,831.1551 C314.97105,817.2636 316.09905,808.6791 315.73455,798.1206 C314.64405,766.6056 315.65055,730.5096 315.65055,730.5096 L286.09455,739.4196 Z" id="Fill-3" fill="#FFC6A0"></path>
        <g id="分组" transform="translate(291.000000, 820.237500)">
            <mask id="mask-2" fill="white">
                <use xlink:href="#path-1"></use>
            </mask>
            <g id="Clip-6"></g>
            <path d="M0.8265,0.9717 C0.8265,0.9717 3.7365,3.1452 13.215,10.3902 C20.6895,16.1052 25.5435,19.5582 29.4915,17.7237 C36.7005,14.3772 42.276,12.6342 42.276,12.6342 C42.276,12.6342 49.1505,15.9177 54.3525,19.6827 C59.553,23.4462 59.109,29.8722 47.913,31.9497 C36.7155,34.0272 30.2325,33.5442 19.344,25.6827 C8.454,17.8197 3.912,21.3237 2.1285,16.6977 C-0.6555,9.4707 0.8265,0.9717 0.8265,0.9717" id="Fill-5" fill="#253368" mask="url(#mask-2)"></path>
        </g>
        <path d="M238.3377,737.07885 C238.3377,737.07885 237.1812,775.83285 236.0862,805.21635 C235.4892,821.25885 235.4502,832.73985 233.6922,833.79435 C228.7137,836.78235 222.7737,834.57885 216.7992,840.55185 C210.8247,846.52635 206.5212,851.11035 190.1907,847.73235 C171.0942,843.77985 187.9047,838.48335 196.6767,830.30985 C212.1687,815.87385 210.7452,807.33435 210.7452,796.76985 C210.7452,765.23535 208.4937,729.19485 208.4937,729.19485 L238.3377,737.07885 Z" id="Fill-7" fill="#FFC6A0"></path>
        <polygon id="Fill-9" fill="#253368" points="305.30295 522.11295 202.74495 517.13445 202.24095 797.89845 239.56095 796.90395 256.92045 605.73195 284.88495 798.13245 325.21695 799.39845"></polygon>
        <path d="M225.9495,543.5502 C215.25,401.6442 243.828,365.4207 243.828,365.4207 L293.6655,365.4207 L291.552,542.8017 C291.552,542.8017 257.766,556.3182 225.9495,543.5502" id="Fill-11" fill="#597EF7"></path>
        <path d="M247.960022,377.411109 C248.102092,377.126942 248.447625,377.011751 248.731791,377.153822 C249.796444,377.686101 250.882719,378.161886 251.989347,378.582794 C260.569058,381.846106 269.748317,381.713807 278.40368,379.525985 C279.74711,379.186405 280.957555,378.822818 282.014689,378.459691 L282.533074,378.277037 L283.30591,377.982222 C283.598968,377.859537 283.935994,377.997652 284.058678,378.29071 C284.181363,378.583768 284.043248,378.920794 283.75019,379.043478 L283.391983,379.185086 L282.925783,379.358439 C282.758424,379.419017 282.579209,379.482261 282.388451,379.547786 C281.301977,379.920992 280.061039,380.293738 278.685625,380.641403 C269.821097,382.882096 260.413086,383.017692 251.580338,379.658137 C250.438051,379.223665 249.316571,378.732461 248.217309,378.182878 C247.933142,378.040808 247.817951,377.695275 247.960022,377.411109 Z" id="Stroke-13" fill="#3C65D6" fill-rule="nonzero"></path>
        <path d="M289.3875,315.21705 C289.3875,315.21705 292.9215,284.18355 254.0025,286.47255 C232.329,289.21455 233.5635,325.30305 233.5635,325.30305 C233.5635,325.30305 232.2015,332.91255 235.206,340.65405 C238.5705,349.32705 246.9195,352.08405 257.8575,352.84605 C278.13,351.72105 286.0815,340.40055 286.0815,340.40055 C286.0815,340.40055 300.072,341.16405 298.545,323.61255 C297.0195,307.33155 289.3875,315.21705 289.3875,315.21705" id="Fill-15" fill="#FFC999"></path>
        <path d="M285.72105,293.92995 C285.72105,301.90245 292.18605,308.36745 300.15855,308.36745 C308.13105,308.36745 314.59605,301.90245 314.59605,293.92995 C314.59605,285.95595 308.13105,279.49245 300.15855,279.49245 C292.18605,279.49245 285.72105,285.95595 285.72105,293.92995" id="Fill-17" fill="#253368"></path>
        <path d="M233.75265,326.42385 C233.75265,326.42385 229.00965,318.20385 226.16265,308.40135 C223.31865,298.59885 241.97265,278.99535 244.50315,277.41435 C247.03365,275.83335 248.29665,274.25235 265.68765,280.57635 C317.31615,282.64185 305.06715,329.94435 305.06715,329.94435 C305.06715,329.94435 311.08065,334.29435 307.60065,345.99285 C303.49065,357.69135 287.32965,358.09935 287.32965,358.09935 L286.76715,339.79785 C286.76715,339.79785 292.22865,340.20885 296.34015,333.88635 C300.45015,327.56085 296.89815,319.87635 294.36765,319.24485 C292.11615,317.55435 286.48515,318.39885 286.48515,325.15635 C286.48515,328.55835 280.00965,320.93385 277.47465,307.98285 C259.45215,304.50435 254.93715,291.95835 254.93715,291.95835 C254.93715,291.95835 254.30415,303.97485 257.15115,309.03285 C247.66365,306.18735 242.60565,301.12785 244.18665,295.75335 C233.43615,300.49635 233.75265,326.42385 233.75265,326.42385" id="Fill-19" fill="#253368"></path>
        <path d="M287.32935,360.35175 L286.87185,333.06375 L251.29485,333.88575 C251.29485,333.88575 251.42985,352.51725 250.72785,360.07575 C232.42485,374.47875 282.68385,379.77975 289.86285,366.26475 C292.58535,361.14225 287.32935,360.35175 287.32935,360.35175" id="Fill-21" fill="#FFC999"></path>
        <path d="M254.13015,320.5593 C254.79615,327.4758 260.19165,332.6148 266.18115,332.0373 C272.16915,331.4598 276.48465,325.3863 275.81865,318.4698 C275.15265,311.5533 269.75715,306.4143 263.76765,306.9918 C257.77965,307.5693 253.46415,313.6443 254.13015,320.5593" id="Fill-23" fill="#FFFFFF"></path>
        <path d="M263.695652,306.245264 C257.269543,306.865016 252.68002,313.32597 253.383605,320.631202 C254.087195,327.938085 259.825521,333.40358 266.25313,332.783838 C272.679636,332.164047 277.268729,325.704191 276.565197,318.397914 C275.872106,311.200073 270.293451,305.789079 263.982998,306.221565 L263.695652,306.245264 Z M275.072103,318.541686 C275.700466,325.067324 271.659603,330.755462 266.109152,331.290764 C260.557809,331.826017 255.505108,327.013549 254.876697,320.487414 C254.248296,313.962802 258.289608,308.273598 263.83963,307.738338 C269.390991,307.203083 274.443692,312.015551 275.072103,318.541686 Z" id="Stroke-25" fill="#253368" fill-rule="nonzero"></path>
        <path d="M229.9119,319.63065 C230.5779,326.54565 235.6644,331.71465 241.2714,331.17465 C246.8799,330.63465 250.8849,324.58965 250.2189,317.67315 C249.5529,310.75815 244.4664,305.58915 238.8594,306.12915 C233.2524,306.66915 229.2459,312.71415 229.9119,319.63065" id="Fill-27" fill="#FFFFFF"></path>
        <path d="M238.787502,305.382604 C232.729469,305.966042 228.462603,312.404385 229.165353,319.702536 C229.86813,326.999382 235.285417,332.504619 241.343298,331.921196 C247.402294,331.337821 251.668262,324.900088 250.965447,317.601264 C250.273319,310.414976 245.00846,304.966417 239.062404,305.360263 L238.787502,305.382604 Z M249.472355,317.745052 C250.10163,324.280164 246.356734,329.931553 241.199521,330.428102 C236.043311,330.924688 231.287662,326.09183 230.658445,319.558748 C230.029236,313.024328 233.774996,307.37229 238.931298,306.875696 C244.087489,306.379112 248.843138,311.21197 249.472355,317.745052 Z" id="Stroke-29" fill="#253368" fill-rule="nonzero"></path>
        <path d="M251.305523,322.111492 C251.588187,321.808715 252.062781,321.79241 252.365558,322.075073 C252.64081,322.33204 252.679308,322.747627 252.471664,323.048546 L252.401977,323.135108 L248.987,326.791 L252.691813,330.040967 C252.9749,330.289276 253.026266,330.703469 252.828053,331.010681 L252.761083,331.099363 C252.512774,331.38245 252.098581,331.433816 251.791369,331.235603 L251.702687,331.168633 L247.417187,327.409633 C247.127872,327.155862 247.081488,326.730267 247.292488,326.422498 L247.363523,326.333992 L251.305523,322.111492 Z" id="Stroke-31" fill="#DD936F" fill-rule="nonzero"></path>
        <path d="M259.963186,332.537606 C260.362291,332.426755 260.775692,332.660431 260.886544,333.059536 C260.997395,333.458641 260.763719,333.872042 260.364614,333.982894 L259.646737,334.168454 C259.089841,334.305945 258.483906,334.443331 257.848821,334.571617 C256.844338,334.774521 255.862206,334.935318 254.935598,335.038257 C253.367805,335.212427 252.050256,335.212509 251.040436,334.988442 C250.636057,334.898716 250.380981,334.498164 250.470708,334.093786 C250.560434,333.689407 250.960986,333.434331 251.365364,333.524058 C252.180988,333.705035 253.351939,333.704962 254.769978,333.547428 C255.648364,333.449846 256.587929,333.296018 257.551822,333.101314 C258.011508,333.008458 258.455681,332.910591 258.875638,332.811517 L259.577732,332.639304 C259.750694,332.595169 259.881196,332.560379 259.963186,332.537606 Z" id="Stroke-33" fill="#F5222D" fill-rule="nonzero"></path>
        <path d="M250.5867,359.50725 C250.5867,359.50725 244.2507,383.15925 234.9597,470.79375 C228.3027,533.59125 227.0757,680.20425 227.0757,680.20425 C227.0757,680.20425 198.7302,677.19825 197.2317,670.63125 C193.0902,652.49775 196.1922,551.03325 198.3567,506.19975 C202.2987,424.54725 194.4357,397.12725 201.7557,379.10775 C209.5392,375.00825 223.5552,372.17775 237.0702,366.68775 C240.0897,365.46075 244.0842,361.28475 245.9397,360.35175 C250.9842,357.81825 250.5867,359.50725 250.5867,359.50725" id="Fill-35" fill="#E4EBF7"></path>
        <path d="M204.602276,404.371934 C205.015524,404.400312 205.327616,404.758228 205.299352,405.171476 L205.057817,408.933423 C204.975033,410.268918 204.887144,411.726828 204.79493,413.302496 L204.55167,417.558607 C204.123502,425.223493 203.697587,433.774505 203.29774,443.068758 C202.734681,456.156833 202.265463,469.761101 201.921371,483.693817 C201.911145,484.107904 201.56717,484.435298 201.153083,484.425741 C200.738996,484.414845 200.411602,484.07087 200.421829,483.656783 C200.741559,470.710453 201.169249,458.047656 201.679838,445.818607 L201.91414,440.367242 C202.261186,432.51754 202.625745,425.224043 202.992814,418.576693 L203.3368,412.545864 C203.427865,411.00221 203.514494,409.576994 203.595912,408.274872 L203.802848,405.069124 C203.828756,404.690313 204.131664,404.396502 204.500275,404.371934 L204.602276,404.371934 Z" id="Stroke-37" fill="#96A7CA" fill-rule="nonzero"></path>
        <path d="M250.564663,316.287561 C251.601598,315.802435 252.682577,315.884267 253.693407,316.2979 C254.001872,316.424124 254.236315,316.553351 254.380839,316.649738 C254.725443,316.879565 254.818489,317.345234 254.588662,317.689839 C254.358835,318.034443 253.893166,318.127489 253.548561,317.897662 C253.481919,317.853216 253.333112,317.771193 253.125327,317.686167 C252.466768,317.416684 251.798985,317.366132 251.200307,317.646221 C251.072032,317.706234 250.946518,317.781614 250.823615,317.873764 C250.492209,318.122245 250.022117,318.055021 249.773636,317.723615 C249.525155,317.392209 249.592379,316.922117 249.923785,316.673636 C250.128931,316.519822 250.342954,316.391287 250.564663,316.287561 Z" id="Stroke-39" fill="#253368" fill-rule="nonzero"></path>
        <path d="M269.741347,350.232804 C270.043445,350.16037 270.347062,350.346549 270.419496,350.648647 C270.49193,350.950745 270.305751,351.254362 270.003653,351.326796 C268.427989,351.704593 266.630945,352.002641 264.653232,352.22916 C260.953421,352.652921 257.111387,352.791252 253.830748,352.765868 L252.681941,352.749085 C252.3714,352.740492 252.126622,352.481782 252.135215,352.171241 C252.143808,351.8607 252.402518,351.615922 252.713059,351.624515 L253.153547,351.633094 C256.534487,351.684019 260.617891,351.558996 264.525216,351.111467 C266.460792,350.889774 268.214246,350.598956 269.741347,350.232804 Z" id="Stroke-41" fill="#DD9987" fill-rule="nonzero"></path>
        <path d="M327.6141,380.37465 C321.5511,377.39565 307.4736,370.94265 300.0006,366.54615 C295.2126,363.73065 291.3936,359.98665 287.6106,358.66215 C265.6491,450.16965 276.8151,632.52765 281.0376,683.20815 C309.7581,687.43215 328.4376,675.13515 328.4376,675.13515 C328.4376,675.13515 328.9251,547.97715 327.1221,490.43265 C325.6221,442.56765 330.6456,381.86565 327.6141,380.37465" id="Fill-43" fill="#E4EBF7"></path>
        <path d="M287.330787,357.85297 C287.549682,357.546571 287.956705,357.454229 288.282123,357.620878 L288.37703,357.678687 L300.063546,366.027687 C300.231273,366.147513 300.341028,366.330052 300.369938,366.531203 L300.37755,366.633125 L300.372859,367.031217 C300.359582,367.585513 300.317135,368.415628 300.227568,369.528108 L300.145362,370.474343 C299.949496,372.580634 299.637002,375.052128 299.183792,377.897623 L298.963972,379.241258 C297.443954,388.296665 294.82863,399.310496 290.86221,412.376312 L289.967468,415.339403 C281.811687,442.502367 279.038842,456.241306 274.839345,487.435515 C274.78408,487.846026 274.406495,488.134009 273.995985,488.078745 C273.585474,488.02348 273.297491,487.645895 273.352755,487.235385 L273.798627,483.950702 C277.76812,454.964307 280.642437,441.181232 288.529599,414.912163 L289.42689,411.940588 C293.473482,398.610675 296.104302,387.43901 297.595389,378.324903 L297.702463,377.661687 C298.219353,374.416379 298.550301,371.669577 298.732406,369.40773 L298.802559,368.445345 C298.815458,368.245645 298.826617,368.055369 298.836145,367.874475 L298.871,367.019 L287.50507,358.899213 C287.198671,358.680318 287.106329,358.273295 287.272978,357.947877 L287.330787,357.85297 Z" id="Stroke-45" fill="#96A7CA" fill-rule="nonzero"></path>
        <path d="M260.3001,318.7737 C260.3001,320.4837 261.0561,321.8697 261.9891,321.8697 C262.9221,321.8697 263.6781,320.4837 263.6781,318.7737 C263.6781,317.0622 262.9221,315.6762 261.9891,315.6762 C261.0561,315.6762 260.3001,317.0622 260.3001,318.7737" id="Fill-47" fill="#253368"></path>
        <path d="M238.3377,319.05495 C238.3377,320.76495 239.0952,322.15245 240.0282,322.15245 C240.9612,322.15245 241.7172,320.76495 241.7172,319.05495 C241.7172,317.34495 240.9612,315.95745 240.0282,315.95745 C239.0952,315.95745 238.3377,317.34495 238.3377,319.05495" id="Fill-49" fill="#253368"></path>
        <path d="M249.747825,357.475762 C250.092471,357.245998 250.558123,357.339128 250.787888,357.683775 C250.996764,357.99709 250.938786,358.410409 250.66758,358.655594 L250.579875,358.723838 L238.98,366.455 L238.809967,367.08078 L238.594208,367.91784 C238.426097,368.588694 238.246251,369.348814 238.056725,370.199622 L237.961164,370.63259 C237.13331,374.417845 236.304671,379.07895 235.530751,384.654259 L235.31684,386.227742 C231.871076,412.113168 230.792464,447.080019 233.45554,492.07749 C233.480011,492.49098 233.16465,492.846018 232.75116,492.871823 C232.33767,492.894961 231.982632,492.5796 231.95816,492.16611 L231.79945,489.417952 C229.309007,445.191708 230.46513,410.77075 233.936889,385.234954 L234.044997,384.448019 C234.824191,378.834713 235.659604,374.135506 236.495801,370.312107 L236.688257,369.44809 C236.845968,368.753246 236.996848,368.12122 237.139709,367.551191 L237.307217,366.896864 C237.371905,366.649723 237.431262,366.429671 237.484921,366.236456 L237.620891,365.763641 C237.661496,365.631409 237.737655,365.51365 237.840155,365.422728 L237.921825,365.359762 L249.747825,357.475762 Z" id="Stroke-51" fill="#96A7CA" fill-rule="nonzero"></path>
        <path d="M275.920731,317.72663 L287.712231,319.34663 C288.12259,319.403008 288.409548,319.781373 288.35317,320.191731 C288.301491,320.567894 287.979252,320.840365 287.609824,320.839742 L287.508069,320.83267 L275.716569,319.21267 C275.30621,319.156292 275.019252,318.777927 275.07563,318.367569 C275.127309,317.991406 275.449548,317.718935 275.818976,317.719558 L275.920731,317.72663 Z" id="Stroke-53" fill="#253368" fill-rule="nonzero"></path>
        <path d="M325.427213,530.889265 C325.837553,530.832746 326.216016,531.119574 326.272535,531.529913 C326.324344,531.906058 326.087647,532.255418 325.731771,532.354566 L325.631887,532.375235 L300.371,535.854 L300.37155,588.96225 C300.37155,593.061933 303.914219,596.239774 307.959886,595.834138 L308.189403,595.807332 L326.274903,593.395332 C326.685481,593.340575 327.06271,593.629025 327.117468,594.039603 C327.167662,594.415966 326.929467,594.764307 326.573169,594.861928 L326.473197,594.882159 L308.387673,597.294171 C303.433573,597.954718 299.023461,594.177991 298.875389,589.219748 L298.87155,588.96225 L298.87155,535.20075 C298.87155,534.860142 299.100061,534.567034 299.42047,534.478147 L299.519213,534.457765 L325.427213,530.889265 Z" id="Stroke-55" fill="#96A7CA" fill-rule="nonzero"></path>
        <path d="M236.992573,567.016783 C237.132752,566.76757 237.430867,566.663098 237.69095,566.758241 L237.775967,566.797423 L251.290967,574.399423 C251.409002,574.465816 251.498849,574.571105 251.546394,574.695686 L251.5739,574.792432 L258.5579,611.201932 C258.61775,611.513946 258.413331,611.815401 258.101318,611.87525 C257.820506,611.929115 257.548246,611.768922 257.452972,611.508887 L257.428,611.418668 L250.493,575.271 L237.211933,567.800177 C236.96272,567.659998 236.858248,567.361883 236.953391,567.1018 L236.992573,567.016783 Z" id="Stroke-57" fill="#090D33" fill-rule="nonzero"></path>
        <path d="M285.6975,801.4551 L325.7805,801.4551 C326.628,801.4551 327.3,800.6886 327.249,799.7811 L326.187,781.3581 C326.139,780.5256 325.4955,779.8776 324.7185,779.8776 L282.1245,779.8776 C281.1915,779.8776 280.4925,780.7971 280.683,781.7751 L284.2575,800.1996 C284.4,800.9301 285,801.4551 285.6975,801.4551" id="Fill-59" fill="#4E5C93"></path>
        <path d="M201.2757,801.1731 L238.6827,801.1731 C239.4477,801.1731 240.0912,800.5971 240.1752,799.8366 L242.0922,782.3136 C242.1897,781.4256 241.4937,780.6501 240.6012,780.6501 L200.1927,780.6501 C199.3287,780.6501 198.6432,781.3791 198.6957,782.2431 L201.0042,800.2341 C201.0537,801.0651 200.4837,801.1731 201.2757,801.1731" id="Fill-61" fill="#4E5C93"></path>
        <path d="M235.8621,816.6675 C235.8621,816.6675 233.0706,821.592 223.3806,828.858 C215.1096,835.062 211.3776,838.4475 207.3666,836.751 C200.0466,833.6535 194.4141,832.1055 194.4141,832.1055 C194.4141,832.1055 187.6566,835.6245 182.5896,839.5665 C177.5211,843.5085 180.3366,848.5755 191.5986,850.266 C202.8621,851.955 207.1731,852.5865 217.7841,844.353 C228.3951,836.1195 233.0571,839.4645 234.6786,834.78 C237.2121,827.46 235.8621,816.6675 235.8621,816.6675" id="Fill-63" fill="#253368"></path>
        <path d="M197.837096,528.481537 C197.960174,528.122343 198.32881,527.916951 198.691218,527.988634 L198.789713,528.015146 L211.935713,532.519646 C212.205233,532.611997 212.39611,532.847517 212.435199,533.123823 L212.4426,533.22915 L212.4426,587.61315 C212.4426,591.024274 209.145871,593.438856 205.918338,592.460209 L205.724796,592.397399 L196.801296,589.308899 C196.409864,589.173422 196.202373,588.746277 196.337851,588.354846 C196.462039,587.996033 196.831307,587.791782 197.193492,587.864584 L197.291904,587.891401 L206.215342,590.979879 C208.471002,591.760359 210.821975,590.145833 210.938113,587.795378 L210.9426,587.61315 L210.942,533.764 L198.303487,529.434154 C197.944293,529.311076 197.738901,528.94244 197.810584,528.580032 L197.837096,528.481537 Z" id="Stroke-65" fill="#96A7CA" fill-rule="nonzero"></path>
        <path d="M312.261,495.33495 L312.261,495.33495 C323.7,496.91295 334.2495,488.91945 335.8275,477.48195 L346.0515,403.34445 C347.6295,391.90695 339.636,381.35595 328.1985,379.77795 C316.7595,378.20145 306.21,386.19495 304.632,397.63245 L294.408,471.76995 C292.83,483.20745 300.8235,493.75845 312.261,495.33495" id="Fill-67" fill="#E4EBF7"></path>
        <path d="M218.85375,447.885 L215.57625,483.5475 L312.43275,495.4575 C323.93025,496.5135 334.10625,488.049 335.16225,476.5515 C336.21825,465.054 327.75525,454.8765 316.25775,453.8205 L218.85375,447.885 Z" id="Fill-69" fill="#E4EBF7"></path>
        <path d="M309.795301,398.599384 L309.896766,398.609824 C310.271008,398.67395 310.532643,399.005047 310.520221,399.374251 L310.509326,399.475716 L301.371326,452.805216 C301.312664,453.147573 301.028552,453.40009 300.690812,453.426314 L300.588053,453.427255 L219.009,448.628 L215.797953,483.567688 C215.763204,483.945791 215.453516,484.232447 215.084432,484.248399 L214.982462,484.245903 C214.604359,484.211154 214.317703,483.901466 214.301751,483.532382 L214.304247,483.430412 L217.581747,447.767912 C217.615691,447.398571 217.912578,447.114942 218.272942,447.088539 L218.372647,447.087845 L300.005,451.89 L309.030874,399.222384 C309.08917,398.882164 309.368104,398.635008 309.695726,398.602557 L309.795301,398.599384 Z" id="Stroke-71" fill="#96A7CA" fill-rule="nonzero"></path>
        <path d="M233.676942,451.261643 C234.055047,451.296369 234.341722,451.606039 234.357696,451.975122 L234.355207,452.077092 L231.574207,482.357592 C231.536324,482.77007 231.171235,483.073739 230.758758,483.035857 C230.380653,483.001131 230.093978,482.691461 230.078004,482.322378 L230.080493,482.220408 L232.861493,451.939908 C232.896219,451.561803 233.205889,451.275128 233.574972,451.259154 L233.676942,451.261643 Z" id="Stroke-73" fill="#96A7CA" fill-rule="nonzero"></path>
        <path d="M323.4963,469.1391 C325.9308,474.4686 319.5738,477.5406 319.5738,477.5406 C319.5738,477.5406 320.3988,482.0106 314.0553,482.2761 C307.7118,482.5431 280.5483,482.3436 280.5483,482.3436 L278.7288,458.6796 L289.4388,458.3061 C289.4388,458.3061 297.2118,451.6536 301.1808,449.0976 C305.1513,446.5401 315.0663,447.8676 320.3403,445.5936 C325.6158,443.3196 322.5948,453.2781 310.2483,454.3401 C329.5683,455.4126 330.5823,451.9971 331.1103,457.0446 C331.3758,459.5811 327.1428,461.2431 327.1428,461.2431 C327.1428,461.2431 329.6433,466.3266 323.4963,469.1391" id="Fill-75" fill="#FFC999"></path>
        <path d="M321.613529,453.50418 L322.727556,453.552787 C325.636643,453.693413 328.046669,453.922766 329.817227,454.256704 C330.108665,454.311671 330.300363,454.592488 330.245396,454.883927 C330.190429,455.175365 329.909612,455.367063 329.618173,455.312096 C327.689765,454.948387 324.93365,454.708989 321.571513,454.577358 C318.702245,454.465023 315.673831,454.438845 312.826458,454.467534 L310.893642,454.495974 L310.349101,454.508207 C310.052631,454.51616 309.805847,454.282271 309.797893,453.985801 C309.78994,453.689331 310.023829,453.442547 310.320299,453.434593 L311.601392,453.409229 C314.806446,453.358974 318.311654,453.374908 321.613529,453.50418 Z" id="Stroke-77" fill="#DD936F" fill-rule="nonzero"></path>
        <g id="分组" transform="translate(165.000000, 445.237500)">
            <mask id="mask-4" fill="white">
                <use xlink:href="#path-3"></use>
            </mask>
            <g id="Clip-80"></g>
            <path d="M118.27755,2.66205 L118.60305,38.47305 L21.09555,42.35505 C9.55005,42.46005 0.10605,33.18405 -0.00130776677,21.63855 C-0.10395,10.09305 9.17205,0.64905 20.71755,0.54405 L118.27755,2.66205 Z" id="Fill-79" fill="#E4EBF7" mask="url(#mask-4)"></path>
        </g>
        <path d="M188.840415,445.128319 L283.821915,447.144319 C284.193426,447.152204 284.497561,447.429384 284.548495,447.787755 L284.555969,447.887365 L284.880001,483.698365 C284.88333,484.069845 284.615621,484.38218 284.259066,484.444042 L284.159758,484.454559 L195.311758,487.982559 C194.89787,487.998994 194.549025,487.676795 194.532591,487.262908 C194.517525,486.883511 194.787007,486.558768 195.150823,486.49462 L195.252242,486.483741 L283.373,482.984 L283.063,448.628 L188.808585,446.627981 C188.428974,446.619924 188.121237,446.331175 188.079354,445.964128 L188.074669,445.862235 C188.082726,445.482624 188.371475,445.174887 188.738522,445.133004 L188.840415,445.128319 Z" id="Stroke-81" fill="#96A7CA" fill-rule="nonzero"></path>
        <path d="M268.224843,450.041999 C268.604523,450.038585 268.920866,450.317879 268.973849,450.683488 L268.981619,450.785193 L269.257619,481.191693 C269.261379,481.605889 268.928654,481.944709 268.514457,481.948501 C268.134777,481.951915 267.818434,481.672621 267.765451,481.307012 L267.757681,481.205307 L267.481681,450.798807 C267.477921,450.384611 267.810646,450.045791 268.224843,450.041999 Z" id="Stroke-83" fill="#96A7CA" fill-rule="nonzero"></path>
        <path d="M246.304199,445.72765 C248.987444,446.435902 230.20965,425.87965 223.92765,425.46715 C217.64565,425.05465 206.2285,428.76025 206.2285,428.76025 C202.86135,437.556625 201.27765,445.03165 201.27765,445.03165 L222.10815,445.72765 L246.304199,445.72765 Z" id="Fill-85" fill="#FFC999"></path>
        <path d="M217.366138,430.033196 C218.163857,430.0275 218.935334,430.04289 219.677774,430.080647 C219.973968,430.09571 220.20187,430.348034 220.186807,430.644228 C220.171744,430.940422 219.91942,431.168324 219.623226,431.153261 C218.902225,431.116594 218.151407,431.101617 217.373806,431.107169 C214.734509,431.126013 211.901341,431.376199 209.060842,431.781613 C208.024416,431.929538 207.060459,432.088007 206.19453,432.246392 L205.572401,432.363623 L205.111807,432.456185 C204.82173,432.517935 204.536518,432.332838 204.474768,432.042761 C204.413019,431.752684 204.598115,431.467472 204.888193,431.405722 L205.776622,431.231427 L206.001293,431.189919 C206.880492,431.029107 207.858184,430.868379 208.909091,430.718387 C211.793709,430.306677 214.672917,430.052425 217.366138,430.033196 Z" id="Stroke-87" fill="#DD936F" fill-rule="nonzero"></path>
        <path d="M212.503252,435.395465 C215.514542,435.3868 217.860145,435.487041 219.308245,435.726601 C219.600845,435.775006 219.798804,436.051445 219.750399,436.344045 C219.701994,436.636645 219.425555,436.834604 219.132955,436.786199 C217.829978,436.570648 215.688028,436.471117 212.944496,436.46899 L212.506342,436.469461 C211.052003,436.473645 209.510566,436.503372 207.950559,436.551682 L206.597018,436.597995 L204.326847,436.696657 C204.030681,436.712257 203.777944,436.484814 203.762343,436.188647 C203.746743,435.892481 203.974186,435.639744 204.270353,435.624143 L205.75897,435.556157 C206.144282,435.540223 206.550819,435.524548 206.974827,435.509517 C208.548508,435.453733 210.117606,435.415233 211.614396,435.401021 L212.503252,435.395465 Z" id="Stroke-89" fill="#DD936F" fill-rule="nonzero"></path>
        <path d="M201.882106,439.697385 L218.484106,440.238885 C218.780525,440.248554 219.012983,440.496686 219.003315,440.793106 C218.994613,441.059883 218.792755,441.274852 218.536381,441.308129 L218.449094,441.312315 L201.847094,440.770815 C201.550675,440.761146 201.318217,440.513014 201.327885,440.216594 C201.336587,439.949817 201.538445,439.734848 201.794819,439.701571 L201.882106,439.697385 Z" id="Stroke-91" fill="#DD936F" fill-rule="nonzero"></path>
        <path d="M217.040332,425.579096 C215.521682,425.848445 213.918719,426.187633 212.267227,426.580627 C211.042489,426.87207 209.844645,427.180095 208.703603,427.491461 L207.298639,427.884513 L206.069931,428.247196 C205.913522,428.295537 205.787706,428.412585 205.728214,428.565102 L204.824704,430.91452 C204.316678,432.247991 203.80864,433.600142 203.319582,434.925796 L202.668827,436.705704 L201.958751,438.692875 C200.840395,441.869449 200.133574,444.135531 199.962128,445.216641 C199.910642,445.541301 200.160308,445.835607 200.489018,445.837739 L219.446146,445.95924 L247.313629,446.419757 C247.783778,446.427444 248.036157,445.870016 247.720132,445.521838 L246.272752,443.943732 C245.932401,443.574952 245.574158,443.188185 245.200066,442.785881 L244.820766,442.37849 C242.623849,440.021807 240.380558,437.665035 238.221379,435.464738 L237.340174,434.570893 L236.223193,433.450645 C231.949085,429.193027 228.805243,426.410391 227.138784,425.56352 C225.308702,424.633809 221.809202,424.733287 217.040332,425.579096 Z M226.652281,426.521012 C228.259282,427.337668 231.622442,430.348934 236.146283,434.892841 L237.454817,436.216975 C239.606867,438.410006 241.844061,440.760372 244.035171,443.110827 L246.084,445.324 L218.755375,444.880879 L201.15,444.767 L201.269951,444.300246 C201.607067,443.046051 202.235547,441.129161 203.091815,438.709835 L203.678689,437.071291 L203.84677,436.608311 C204.319554,435.309492 204.817766,433.96872 205.322342,432.631388 L206.633,429.198 L207.463985,428.954511 C207.680147,428.89215 207.908976,428.826958 208.14955,428.759339 C209.524839,428.372782 210.999969,427.986178 212.515857,427.625452 C214.148278,427.236996 215.731274,426.902033 217.22789,426.636592 L218.063582,426.494236 C222.171309,425.824383 225.206578,425.786572 226.652281,426.521012 Z" id="Stroke-93" fill="#DD936F" fill-rule="nonzero"></path>
    </g>
</svg>