<svg xmlns="http://www.w3.org/2000/svg" xmlns:xlink="http://www.w3.org/1999/xlink" width="512" height="1024" version="1.1" viewBox="0 0 512 1024"><title>2.人物组件/5.用研/站立/思考</title><desc>Created with Sketch.</desc><defs><polygon id="path-1" points=".432 .972 57.558 .972 57.558 33 .432 33"/><polygon id="path-3" points=".869 .263 83.685 .263 83.685 82.362 .869 82.362"/><polygon id="path-5" points="0 .544 118.603 .544 118.603 42.356 0 42.356"/></defs><g id="2.人物组件/5.用研/站立/思考" fill="none" fill-rule="evenodd" stroke="none" stroke-width="1"><path id="Fill-1" fill="#E4EBF7" d="M178.5468,487.4294 L178.5468,487.4294 C167.5053,484.0559 161.2878,472.3694 164.6598,461.3279 L185.5263,393.0224 C188.8983,381.9809 200.5848,375.7634 211.6278,379.1369 C222.6708,382.5104 228.8883,394.1969 225.5148,405.2384 L204.6483,473.5424 C201.2748,484.5854 189.5883,490.8029 178.5468,487.4294"/><path id="Fill-3" fill="#FFC6A0" d="M284.59425,739.91945 C284.59425,739.91945 287.25975,777.57545 289.36875,806.90345 C290.51925,822.91595 290.78625,835.42295 292.57875,836.41745 C297.65925,839.22995 303.51975,836.82245 309.69675,842.58695 C315.87525,848.35145 320.33175,852.78395 336.53625,848.84345 C355.48725,844.23395 338.50275,839.52095 329.45325,831.65495 C313.47075,817.76345 314.59875,809.17895 314.23425,798.62045 C313.14375,767.10545 314.15025,731.00945 314.15025,731.00945 L284.59425,739.91945 Z"/><g id="分组" transform="translate(289.500000, 820.737500)"><mask id="mask-2" fill="#fff"><use xlink:href="#path-1"/></mask><path id="Fill-5" fill="#253368" d="M0.8262,0.97155 C0.8262,0.97155 3.7377,3.14505 13.2147,10.39005 C20.6907,16.10505 25.5432,19.55805 29.4912,17.72355 C36.7017,14.37705 42.2757,12.63405 42.2757,12.63405 C42.2757,12.63405 49.1502,15.91755 54.3522,19.68255 C59.5527,23.44605 59.1102,29.87205 47.9142,31.94955 C36.7152,34.02705 30.2322,33.54405 19.3437,25.68255 C8.4537,17.81955 3.9117,21.32355 2.1282,16.69755 C-0.6558,9.47055 0.8262,0.97155 0.8262,0.97155" mask="url(#mask-2)"/></g><path id="Fill-7" fill="#FFC6A0" d="M236.83875,737.5787 C236.83875,737.5787 235.68075,776.3327 234.58575,805.7162 C233.98875,821.7587 233.94975,833.2397 232.19175,834.2957 C227.21325,837.2822 221.27325,835.0787 215.29875,841.0517 C209.32425,847.0262 205.02225,851.6102 188.69025,848.2322 C169.59375,844.2812 186.40425,838.9832 195.17625,830.8097 C210.66975,816.3752 209.24475,807.8342 209.24475,797.2697 C209.24475,765.7352 206.99325,729.6947 206.99325,729.6947 L236.83875,737.5787 Z"/><polygon id="Fill-9" fill="#253368" points="303.803 522.614 201.245 517.635 200.741 798.399 238.061 797.403 255.422 606.231 283.385 798.633 323.717 799.899"/><path id="Fill-11" fill="#597EF7" d="M224.4492,544.05005 C213.7497,402.14405 242.3292,365.92055 242.3292,365.92055 L292.1652,365.92055 L290.0532,543.30305 C290.0532,543.30305 256.2657,556.81805 224.4492,544.05005"/><path id="Stroke-13" fill="#3C65D6" fill-rule="nonzero" d="M246.459722,377.910959 C246.601792,377.626792 246.947325,377.511601 247.231491,377.653672 C248.297224,378.186491 249.384628,378.6627 250.49243,379.083924 C259.071366,382.345921 268.249816,382.213341 276.904523,380.025832 C278.248047,379.686252 279.458582,379.322664 280.515798,378.959537 L281.034224,378.776882 C281.114786,378.747728 281.1924,378.719249 281.267027,378.691494 L281.807126,378.482065 C282.100187,378.359389 282.437209,378.497514 282.559885,378.790576 C282.682561,379.083637 282.544436,379.420659 282.251374,379.543335 L281.991051,379.647221 L281.893141,379.684941 C281.606448,379.794666 281.271078,379.91659 280.889535,380.047641 C279.80298,380.420846 278.561955,380.793591 277.186451,381.141255 C268.322618,383.38162 258.915465,383.517504 250.083533,380.159309 C248.940033,379.724512 247.817387,379.232868 246.717009,378.682728 C246.432842,378.540658 246.317651,378.195125 246.459722,377.910959 Z"/><path id="Fill-15" fill="#FFC999" d="M287.8872,315.7175 C287.8872,315.7175 291.4227,284.684 252.5037,286.973 C230.8287,289.715 232.0632,325.802 232.0632,325.802 C232.0632,325.802 230.7012,333.4115 233.7057,341.1545 C237.0717,349.8275 245.4192,352.5845 256.3572,353.3465 C276.6297,352.22 284.5812,340.901 284.5812,340.901 C284.5812,340.901 298.5717,341.663 297.0447,324.1115 C295.5192,307.832 287.8872,315.7175 287.8872,315.7175"/><path id="Fill-17" fill="#253368" d="M284.2206,294.42965 C284.2206,302.40365 290.6856,308.86715 298.6581,308.86715 C306.6321,308.86715 313.0956,302.40365 313.0956,294.42965 C313.0956,286.45565 306.6321,279.99215 298.6581,279.99215 C290.6856,279.99215 284.2206,286.45565 284.2206,294.42965"/><g id="分组" transform="translate(223.500000, 276.237500)"><mask id="mask-4" fill="#fff"><use xlink:href="#path-3"/></mask><path id="Fill-19" fill="#253368" d="M8.75235,50.68605 C8.75235,50.68605 4.00935,42.46605 1.16385,32.66355 C-1.68165,22.86105 16.97235,3.25755 19.50285,1.67655 C22.03335,0.09555 23.29635,-1.48545 40.68735,4.83855 C92.31585,6.90405 80.06835,54.20655 80.06835,54.20655 C80.06835,54.20655 86.08035,58.55655 82.60185,70.25505 C78.49035,81.95355 62.32935,82.36155 62.32935,82.36155 L61.76685,64.06155 C61.76685,64.06155 67.22835,64.47105 71.33985,58.14855 C75.44985,51.82455 71.89785,44.13855 69.36885,43.50705 C67.11585,41.81655 61.48485,42.66255 61.48485,49.42005 C61.48485,52.82205 55.00935,45.19605 52.47435,32.24505 C34.45185,28.76655 29.93685,16.22055 29.93685,16.22055 C29.93685,16.22055 29.30535,28.23705 32.15085,33.29505 C22.66485,30.44955 17.60535,25.39155 19.18635,20.01555 C8.43585,24.75855 8.75235,50.68605 8.75235,50.68605" mask="url(#mask-4)"/></g><path id="Fill-21" fill="#FFC999" d="M285.82905,360.85235 L285.37305,333.56435 L249.79605,334.38485 C249.79605,334.38485 249.92955,353.01635 249.22755,360.57485 C230.92455,374.97785 281.18355,380.28035 288.36255,366.76385 C291.08505,361.64135 285.82905,360.85235 285.82905,360.85235"/><path id="Fill-23" fill="#FFF" d="M252.62985,321.0599 C253.29585,327.9749 258.69135,333.1139 264.68085,332.5364 C270.67035,331.9604 274.98435,325.8854 274.31835,318.9689 C273.65235,312.0539 268.25685,306.9149 262.26885,307.4924 C256.27935,308.0699 251.96385,314.1434 252.62985,321.0599"/><path id="Stroke-25" fill="#253368" fill-rule="nonzero" d="M262.19687,306.745862 C255.769137,307.365616 251.179741,313.825204 251.883303,321.131786 C252.58693,328.437459 258.325461,333.902657 264.75283,333.282938 C271.179861,332.664861 275.768536,326.204405 275.064897,318.897014 C274.371796,311.700629 268.793131,306.28967 262.484114,306.722166 L262.19687,306.745862 Z M273.571805,319.040802 C274.200271,325.567507 270.159877,331.256031 264.609055,331.789844 C259.05771,332.325098 254.004823,327.512886 253.376395,320.987998 C252.748008,314.462106 256.789121,308.774227 262.340848,308.238936 C267.890691,307.703693 272.9434,312.516149 273.571805,319.040802 Z"/><path id="Fill-27" fill="#FFF" d="M228.4131,320.13035 C229.0791,327.04685 234.1656,332.21435 239.7711,331.67435 C245.3796,331.13435 249.3846,325.08935 248.7186,318.17285 C248.0526,311.25785 242.9661,306.08885 237.3591,306.63035 C231.7521,307.16885 227.7471,313.21385 228.4131,320.13035"/><path id="Stroke-29" fill="#253368" fill-rule="nonzero" d="M237.287399,305.883785 C231.229662,306.465574 226.963745,312.903483 227.666553,320.202236 C228.369241,327.499744 233.785945,333.004396 239.843018,332.420894 C245.901994,331.837521 250.167962,325.399788 249.465147,318.100964 C248.772989,310.914372 243.507867,305.466019 237.561902,305.86141 L237.287399,305.883785 Z M247.972055,318.244752 C248.60133,324.779864 244.856434,330.431253 239.699221,330.927802 C234.543829,331.424442 229.78879,326.592198 229.159647,320.058464 C228.540532,313.628874 232.155482,308.054601 237.182824,307.404844 L237.431196,307.376877 C242.587074,306.878944 247.342818,311.711464 247.972055,318.244752 Z"/><path id="Stroke-31" fill="#DD936F" fill-rule="nonzero" d="M249.805223,322.611192 C250.087887,322.308415 250.562481,322.29211 250.865258,322.574773 C251.14051,322.83174 251.179008,323.247327 250.971364,323.548246 L250.901677,323.634808 L247.487,327.291 L251.191513,330.540667 C251.4746,330.788976 251.525966,331.203169 251.327753,331.510381 L251.260783,331.599063 C251.012474,331.88215 250.598281,331.933516 250.291069,331.735303 L250.202387,331.668333 L245.916887,327.909333 C245.627572,327.655562 245.581188,327.229967 245.792188,326.922198 L245.863223,326.833692 L249.805223,322.611192 Z"/><path id="Stroke-33" fill="#F5222D" fill-rule="nonzero" d="M259.386244,333.559386 C259.497095,333.958491 259.263419,334.371892 258.864314,334.482744 L258.146437,334.668304 C257.589541,334.805795 256.983606,334.943181 256.348521,335.071467 C255.344038,335.274371 254.361906,335.435168 253.435298,335.538107 C251.867505,335.712277 250.549956,335.712359 249.540136,335.488292 C249.135757,335.398566 248.880681,334.998014 248.970408,334.593636 C249.060134,334.189257 249.460686,333.934181 249.865064,334.023908 C250.680688,334.204885 251.851639,334.204812 253.269678,334.047278 C254.148064,333.949696 255.087629,333.795868 256.051522,333.601164 C256.664437,333.477356 257.249773,333.344641 257.7869,333.21203 L258.462886,333.037456 C258.861991,332.926605 259.275392,333.160281 259.386244,333.559386 Z"/><path id="Fill-35" fill="#E4EBF7" d="M249.0864,360.0071 C249.0864,360.0071 242.7504,383.6591 233.4594,471.2936 C226.8024,534.0911 225.5754,680.7041 225.5754,680.7041 C225.5754,680.7041 197.2314,677.6981 195.7314,671.1311 C191.5899,652.9976 194.6919,551.5346 196.8579,506.6996 C200.7999,425.0471 192.9354,397.6286 200.2554,379.6076 C208.0389,375.5081 222.0549,372.6776 235.5714,367.1876 C238.5894,365.9606 242.5854,361.7846 244.4394,360.8516 C249.4854,358.3181 249.0864,360.0071 249.0864,360.0071"/><path id="Stroke-37" fill="#96A7CA" fill-rule="nonzero" d="M203.101942,404.871896 C203.515191,404.900141 203.827299,405.258043 203.799054,405.671292 L203.521791,410.014966 C203.413523,411.777634 203.297005,413.74164 203.173885,415.897077 L202.868285,421.403884 C202.502333,428.191093 202.140535,435.614511 201.797885,443.5841 C201.235367,456.667553 200.766524,470.266574 200.422571,484.193667 C200.412345,484.607754 200.06837,484.935148 199.654283,484.925591 C199.240196,484.914695 198.912802,484.57072 198.923029,484.156633 C199.218045,472.211006 199.604877,460.506692 200.063858,449.161683 L200.29927,443.519667 C200.680263,434.658251 201.084928,426.471312 201.492692,419.082309 L201.836602,413.048959 L202.302546,405.569008 C202.330791,405.155759 202.688693,404.843651 203.101942,404.871896 Z"/><path id="Stroke-39" fill="#253368" fill-rule="nonzero" d="M249.069304,316.785394 C250.10465,316.302336 251.1838,316.384563 252.193052,316.797616 C252.501461,316.923838 252.735876,317.053058 252.880389,317.149438 C253.224993,317.379265 253.318039,317.844934 253.088212,318.189539 C252.879278,318.502816 252.475434,318.608193 252.144828,318.452091 L251.930178,318.328194 C251.852979,318.286805 251.749547,318.236868 251.624893,318.185851 C250.967468,317.916788 250.300909,317.865999 249.70352,318.144721 C249.57457,318.204885 249.448421,318.280592 249.32492,318.373272 C248.99362,318.621894 248.5235,318.554871 248.274878,318.22357 C248.026256,317.89227 248.093279,317.42215 248.42458,317.173528 C248.630889,317.018704 248.846203,316.889485 249.069304,316.785394 Z"/><path id="Stroke-41" fill="#DD9987" fill-rule="nonzero" d="M268.240937,350.73253 C268.54302,350.660035 268.846675,350.846153 268.91917,351.148237 C268.991665,351.45032 268.805547,351.753975 268.503463,351.82647 C266.927769,352.20461 265.130697,352.502866 263.152956,352.729475 C259.454876,353.1532 255.614275,353.291379 252.333388,353.265731 L251.181558,353.248782 C250.871018,353.240144 250.626279,352.981398 250.634918,352.670858 C250.643556,352.360318 250.902302,352.115579 251.212842,352.124218 L251.656203,352.132901 C255.037629,352.18412 259.119473,352.05927 263.024892,351.611788 C264.96044,351.390013 266.713866,351.099001 268.240937,350.73253 Z"/><path id="Fill-43" fill="#E4EBF7" d="M326.11365,380.8745 C320.05065,377.8955 305.97315,371.4425 298.50015,367.046 C293.71215,364.2305 289.89315,360.4865 286.11165,359.162 C264.14865,450.6695 275.31465,633.029 279.53715,683.7095 C308.25765,687.932 326.93715,675.635 326.93715,675.635 C326.93715,675.635 327.42465,548.477 325.62165,490.9325 C324.12165,443.0675 329.14665,382.3655 326.11365,380.8745"/><path id="Stroke-45" fill="#96A7CA" fill-rule="nonzero" d="M285.830374,358.352768 C286.049295,358.046387 286.456326,357.954081 286.781729,358.120757 L286.876632,358.178574 L298.563148,366.529074 C298.73083,366.648889 298.84056,366.831387 298.86948,367.032494 L298.8771,367.134394 L298.872413,367.530196 C298.860371,368.037384 298.824197,368.769983 298.750416,369.735156 L298.72714,370.031692 C298.541917,372.332864 298.20633,375.11832 297.683373,378.401584 L297.463565,379.745081 C295.981621,388.573191 293.458365,399.262654 289.656723,411.90019 L288.46699,415.839485 C280.310927,443.004605 277.53814,456.743026 273.338895,487.935365 C273.28363,488.345876 272.906045,488.633859 272.495535,488.578595 C272.085024,488.52333 271.797041,488.145745 271.852305,487.735235 L272.444672,483.38414 C276.436509,454.417341 279.383436,440.679884 287.622642,413.442955 L287.926449,412.440407 C292.071848,398.787154 294.731467,387.398325 296.202046,378.165639 L296.398979,376.894069 C296.773361,374.403961 297.031891,372.231662 297.193564,370.37023 L297.231975,369.911345 C297.27788,369.341031 297.311896,368.829962 297.335711,368.377522 L297.371,367.52 L286.004568,359.399026 C285.698187,359.180105 285.605881,358.773074 285.772557,358.447671 L285.830374,358.352768 Z"/><path id="Fill-47" fill="#253368" d="M258.7998,319.2734 C258.7998,320.9834 259.5558,322.3709 260.4888,322.3709 C261.4218,322.3709 262.1793,320.9834 262.1793,319.2734 C262.1793,317.5619 261.4218,316.1759 260.4888,316.1759 C259.5558,316.1759 258.7998,317.5619 258.7998,319.2734"/><path id="Fill-49" fill="#253368" d="M236.83875,319.55465 C236.83875,321.26615 237.59475,322.65215 238.52775,322.65215 C239.46075,322.65215 240.21675,321.26615 240.21675,319.55465 C240.21675,317.84465 239.46075,316.45865 238.52775,316.45865 C237.59475,316.45865 236.83875,317.84465 236.83875,319.55465"/><path id="Stroke-51" fill="#96A7CA" fill-rule="nonzero" d="M248.247488,357.975637 C248.592121,357.745852 249.057779,357.838955 249.287563,358.183588 C249.496458,358.496891 249.438504,358.910214 249.167313,359.155415 L249.079612,359.223663 L237.481,366.956 L237.358757,367.40258 L237.259468,367.776658 C237.019335,368.69399 236.751249,369.811121 236.46215,371.132846 C235.634138,374.918414 234.805341,379.579877 234.031274,385.155583 L233.817334,386.729087 C230.371106,412.614843 229.292204,447.581289 231.95524,492.57734 C231.979712,492.99083 231.66435,493.345868 231.25086,493.371673 C230.83737,493.394812 230.482332,493.07945 230.45786,492.66596 L230.299152,489.917888 C227.783085,445.237073 228.989509,410.563749 232.545524,384.949318 L232.769675,383.370244 C233.48403,378.448401 234.240091,374.271881 234.996793,370.812331 L235.189286,369.948241 C235.347027,369.253339 235.497935,368.621259 235.640824,368.051181 L235.871273,367.158655 L236.037857,366.552033 C236.078306,366.409678 236.106675,366.313691 236.122097,366.263472 C236.1627,366.131258 236.238848,366.013513 236.341332,365.922599 L236.422988,365.859637 L248.247488,357.975637 Z"/><path id="Stroke-53" fill="#253368" fill-rule="nonzero" d="M274.420419,318.226478 L286.213419,319.846478 C286.623779,319.902849 286.910743,320.281209 286.854372,320.691569 C286.802699,321.067732 286.480465,321.340209 286.111037,321.339591 L286.009281,321.332522 L274.216281,319.712522 C273.805921,319.656151 273.518957,319.277791 273.575328,318.867431 C273.627001,318.491268 273.949235,318.218791 274.318663,318.219409 L274.420419,318.226478 Z"/><path id="Stroke-55" fill="#96A7CA" fill-rule="nonzero" d="M323.926955,531.389859 C324.337298,531.333363 324.715745,531.620213 324.772241,532.030555 C324.824029,532.406703 324.587311,532.756049 324.23143,532.855178 L324.131545,532.875841 L298.871,536.353 L298.87125,589.46285 C298.87125,593.562533 302.413919,596.740374 306.459529,596.334745 L306.689042,596.30794 L324.774542,593.89444 C325.185116,593.83965 325.562369,594.128069 325.61716,594.538642 C325.667385,594.915002 325.429218,595.263362 325.072928,595.361011 L324.972958,595.38126 L306.887373,597.794771 C301.933273,598.455318 297.523161,594.678591 297.375089,589.720348 L297.37125,589.46285 L297.37125,535.69985 C297.37125,535.359228 297.599781,535.066111 297.920207,534.977237 L298.018955,534.956859 L323.926955,531.389859 Z"/><path id="Stroke-57" fill="#090D33" fill-rule="nonzero" d="M235.492273,567.516633 C235.632452,567.26742 235.930567,567.162948 236.19065,567.258091 L236.275667,567.297273 L249.790667,574.899273 C249.908702,574.965666 249.998549,575.070955 250.046094,575.195536 L250.0736,575.292282 L257.0576,611.701782 C257.11745,612.013796 256.913031,612.315251 256.601018,612.3751 C256.320206,612.428965 256.047946,612.268772 255.952672,612.008737 L255.9277,611.918518 L248.993,575.771 L235.711633,568.300027 C235.46242,568.159848 235.357948,567.861733 235.453091,567.60165 L235.492273,567.516633 Z"/><path id="Fill-59" fill="#4E5C93" d="M284.1987,801.95555 L324.2802,801.95555 C325.1277,801.95555 325.8012,801.18905 325.7487,800.28155 L324.6867,781.85705 C324.6402,781.02605 323.9952,780.37805 323.2197,780.37805 L280.6242,780.37805 C279.6912,780.37805 278.9937,781.29605 279.1827,782.27555 L282.7572,800.70005 C282.8997,801.43055 283.5012,801.95555 284.1987,801.95555"/><path id="Fill-61" fill="#4E5C93" d="M199.7754,801.67355 L237.1824,801.67355 C237.9474,801.67355 238.5909,801.09755 238.6749,800.33555 L240.5919,782.81405 C240.6894,781.92605 239.9934,781.15055 239.1024,781.15055 L198.6939,781.15055 C197.8284,781.15055 197.1429,781.87955 197.1969,782.74205 L199.5039,800.73305 C199.5534,801.56555 198.9834,801.67355 199.7754,801.67355"/><path id="Fill-63" fill="#253368" d="M234.3618,817.1672 C234.3618,817.1672 231.5703,822.0917 221.8818,829.3577 C213.6093,835.5617 209.8773,838.9472 205.8663,837.2507 C198.5463,834.1532 192.9153,832.6052 192.9153,832.6052 C192.9153,832.6052 186.1578,836.1242 181.0893,840.0662 C176.0208,844.0082 178.8363,849.0767 190.0983,850.7657 C201.3618,852.4547 205.6728,853.0862 216.2838,844.8527 C226.8948,836.6192 231.5568,839.9642 233.1783,835.2797 C235.7118,827.9597 234.3618,817.1672 234.3618,817.1672"/><path id="Stroke-65" fill="#96A7CA" fill-rule="nonzero" d="M196.336796,528.981237 C196.459874,528.622043 196.82851,528.416651 197.190918,528.488334 L197.289413,528.514846 L210.435413,533.019346 C210.704933,533.111697 210.89581,533.347217 210.934899,533.623523 L210.9423,533.72885 L210.9423,588.11285 C210.9423,591.523974 207.645571,593.938556 204.418038,592.959909 L204.224496,592.897099 L195.300996,589.808599 C194.909564,589.673122 194.702073,589.245977 194.837551,588.854546 C194.961739,588.495733 195.331007,588.291482 195.693192,588.364284 L195.791604,588.391101 L204.715042,591.479579 C206.970702,592.260059 209.321675,590.645533 209.437813,588.295078 L209.4423,588.11285 L209.442,534.264 L196.803187,529.933854 C196.443993,529.810776 196.238601,529.44214 196.310284,529.079732 L196.336796,528.981237 Z"/><path id="Fill-67" fill="#E4EBF7" d="M310.7622,495.83555 L310.7622,495.83555 C322.1997,497.41205 332.7507,489.42005 334.3272,477.98105 L344.5512,403.84505 C346.1292,392.40755 338.1357,381.85655 326.6982,380.27855 C315.2607,378.70205 304.7097,386.69555 303.1317,398.13305 L292.9077,472.26905 C291.3297,483.70805 299.3232,494.25755 310.7622,495.83555"/><path id="Fill-69" fill="#FFC6A0" d="M254.04345,380.5142 C254.04345,380.5142 266.53395,392.7677 275.92845,388.5032 C284.43795,384.6392 281.60595,375.6872 281.60595,375.6872 C281.60595,375.6872 280.20195,366.3437 274.77945,357.3467 C271.20645,351.4187 263.26995,340.8362 259.90245,342.2927 C255.51195,344.1902 265.19295,355.6442 262.56645,357.9272 C259.87095,360.2702 257.69595,358.0517 251.08845,354.6347 C246.95895,352.4987 243.73095,348.7697 239.88645,347.6267 C232.36845,345.3917 233.77395,363.6932 254.04345,380.5142"/><path id="Stroke-71" fill="#DD9987" fill-rule="nonzero" d="M259.545911,342.301824 C262.814433,340.88896 269.788615,348.725629 275.127922,357.581884 C275.321572,357.903332 275.511819,358.227965 275.698692,358.555673 C277.890472,362.399266 279.545446,366.512888 280.739776,370.6261 C281.157821,372.065822 281.48859,373.403312 281.741373,374.604756 L281.862537,375.201522 C281.899011,375.388403 281.931621,375.563067 281.960509,375.724985 L282.028842,376.130477 C282.075053,376.437681 281.863477,376.724181 281.556273,376.770392 C281.249069,376.816603 280.962569,376.605027 280.916358,376.297823 L280.852998,375.92258 C280.79722,375.609948 280.726757,375.246464 280.640477,374.836384 C280.39332,373.66168 280.069294,372.35146 279.659399,370.939803 C278.488189,366.906216 276.865579,362.87304 274.721419,359.112955 C274.53897,358.793005 274.353266,358.476122 274.164375,358.162575 L273.750442,357.484438 C268.871832,349.588897 262.320552,342.328052 259.992403,343.334427 C258.651126,343.914562 258.940928,345.757879 260.773887,349.864228 L261.835425,352.194247 C263.739367,356.430024 264.02712,357.813894 262.802002,358.878788 C262.486775,359.152639 262.173777,359.37313 261.856288,359.543443 C260.557552,360.240133 259.257413,360.106958 257.3676,359.23676 L256.968819,359.040013 C255.639296,358.360204 252.343827,356.533198 250.992011,355.81499 L250.696813,355.659844 C249.40188,354.990505 248.258823,354.232306 246.549634,352.96358 L245.042109,351.83411 C244.603772,351.506966 244.247012,351.245603 243.905029,351.002622 C242.225794,349.809516 240.916539,349.085846 239.591379,348.691349 C236.415994,347.747795 235.123597,351.282872 236.949275,357.287585 C239.161163,364.562556 245.182395,373.067346 254.269318,380.608289 C254.50838,380.806679 254.541352,381.161305 254.342961,381.400368 C254.144571,381.63943 253.789945,381.672402 253.550882,381.474011 C244.302431,373.799021 238.152507,365.112458 235.872925,357.61484 C233.834466,350.910283 235.517337,346.307147 239.912094,347.613032 C241.378998,348.049727 242.785543,348.827172 244.556625,350.085535 L244.987543,350.395551 C245.136207,350.50374 245.291351,350.617808 245.457335,350.740848 L246.874316,351.802364 C248.618602,353.108404 249.753187,353.881742 250.969102,354.532017 L251.69604,354.915422 C253.283617,355.764739 256.757445,357.690814 257.733305,358.165105 L257.838138,358.21489 C259.439469,358.952251 260.395873,359.050217 261.324482,358.552077 C261.564682,358.423224 261.809597,358.250694 262.064084,358.029611 C262.726807,357.453561 262.317976,355.973322 260.520338,352.0187 L260.023335,350.934664 C257.624894,345.695964 257.168184,343.330249 259.545911,342.301824 Z"/><path id="Stroke-73" fill="#DD9987" fill-rule="nonzero" d="M238.078863,350.783884 C238.32914,350.599842 238.681225,350.653537 238.865266,350.903813 C239.896743,352.306511 240.993374,353.594395 242.14669,354.772466 C244.897865,357.582695 247.843182,359.6548 250.785571,361.10118 C251.812412,361.60594 252.76425,361.996234 253.616164,362.286027 L253.966768,362.401604 C254.288532,362.504033 254.522599,362.567681 254.65842,362.59846 C254.961398,362.66712 255.15135,362.968392 255.08269,363.27137 C255.01403,363.574348 254.712758,363.7643 254.40978,363.69564 L254.199327,363.642313 L254.09537,363.613747 C253.851339,363.545514 253.569798,363.458562 253.253865,363.351093 C252.357234,363.046089 251.360693,362.637464 250.289279,362.110793 C247.236657,360.610227 244.186962,358.464689 241.342793,355.55947 C240.152791,354.343925 239.021898,353.015805 237.958934,351.570287 C237.774892,351.32001 237.828587,350.967925 238.078863,350.783884 Z"/><path id="Stroke-75" fill="#DD9987" fill-rule="nonzero" d="M238.971573,357.841862 C239.227302,357.665475 239.577601,357.729794 239.753988,357.985523 L240.058938,358.401671 L240.153572,358.525775 C240.490525,358.964874 240.890204,359.455192 241.350646,359.983903 C242.668331,361.496956 244.206027,363.010757 245.947462,364.422945 C248.047483,366.125922 250.302251,367.562641 252.697612,368.648046 C252.980578,368.776265 253.106024,369.109597 252.977804,369.392562 C252.849585,369.675528 252.516253,369.800974 252.233288,369.672754 C249.745136,368.545304 247.409945,367.057339 245.238871,365.296743 C243.443902,363.841143 241.860466,362.282314 240.502267,360.722737 C240.121373,360.285369 239.780025,359.872592 239.479136,359.490949 L239.261069,359.210656 C239.048821,358.934066 238.903832,358.734347 238.827912,358.624277 C238.651525,358.368548 238.715844,358.018249 238.971573,357.841862 Z"/><path id="Stroke-77" fill="#DD9987" fill-rule="nonzero" d="M241.37894,366.226882 C241.603674,366.012396 241.959733,366.020705 242.174218,366.24544 C245.149467,369.362862 247.97765,371.669168 250.564011,373.286769 C251.46368,373.849454 252.267258,374.285652 252.962923,374.610593 L253.245542,374.739291 C253.503107,374.853299 253.684952,374.923944 253.786081,374.957633 C254.080817,375.055819 254.240153,375.374345 254.141967,375.669081 C254.043781,375.963817 253.725255,376.123153 253.430519,376.024967 L253.272216,375.968089 C253.087474,375.897961 252.82398,375.787368 252.486818,375.629882 C251.749924,375.285683 250.906115,374.827646 249.967464,374.240581 C247.301482,372.573182 244.40032,370.207363 241.360382,367.02216 C241.145896,366.797426 241.154205,366.441367 241.37894,366.226882 Z"/><path id="Fill-79" fill="#E4EBF7" d="M285.09225,379.77815 L253.43325,396.51515 L296.36625,484.14815 C301.76175,494.35415 314.41125,498.25415 324.62025,492.85865 C334.82625,487.46315 338.72625,474.81215 333.33075,464.60615 L285.09225,379.77815 Z"/><path id="Stroke-81" fill="#96A7CA" fill-rule="nonzero" d="M284.493471,378.648004 C284.818664,378.476086 285.214537,378.566846 285.434657,378.848711 L285.495175,378.938933 L326.401675,450.521933 C326.60719,450.881566 326.482251,451.33971 326.122617,451.545225 C325.792953,451.733613 325.380513,451.644178 325.155764,451.351131 L325.099325,451.266167 L284.552,380.313 L253.535529,396.711096 C253.199855,396.888555 252.79057,396.785773 252.575572,396.48535 L252.521954,396.398579 C252.344495,396.062905 252.447277,395.65362 252.7477,395.438622 L252.834471,395.385004 L284.493471,378.648004 Z"/><path id="Stroke-83" fill="#96A7CA" fill-rule="nonzero" d="M289.348813,393.726308 C289.715001,393.532712 290.168795,393.672626 290.362392,394.038813 C290.539855,394.374485 290.437077,394.783771 290.136657,394.998773 L290.049887,395.052392 L263.166887,409.264892 C262.800699,409.458488 262.346905,409.318574 262.153308,408.952387 C261.975845,408.616715 262.078623,408.207429 262.379043,407.992427 L262.465813,407.938808 L289.348813,393.726308 Z"/><path id="Fill-85" fill="#FFC6A0" d="M294.9843,483.48095 C294.9843,483.48095 277.5318,482.22395 274.5153,472.35695 C271.7808,463.42145 280.3668,459.62045 280.3668,459.62045 C280.3668,459.62045 288.3018,454.49045 298.6353,452.60345 C305.4438,451.35995 318.6303,450.30995 319.7658,453.79745 C321.2478,458.34545 306.2553,458.66645 306.2808,462.14495 C306.3078,465.71795 309.4113,465.87995 316.3443,468.57245 C320.6778,470.25545 325.6098,470.20895 329.0133,472.33595 C335.6613,476.49395 321.0078,487.54895 294.9843,483.48095"/><path id="Stroke-87" fill="#DD936F" fill-rule="nonzero" d="M307.278946,471.331233 C307.439339,471.108826 307.74966,471.058553 307.972067,471.218946 L308.093907,471.302441 C308.131956,471.327765 308.17729,471.357465 308.229853,471.391272 C308.453222,471.534934 308.719968,471.695789 309.02918,471.869597 C309.917781,472.369078 310.965477,472.869656 312.165004,473.337515 C316.478787,475.020049 321.534257,475.843641 327.235122,475.336106 C327.508251,475.31179 327.749378,475.513493 327.773694,475.786622 C327.79801,476.059751 327.596307,476.300878 327.323178,476.325194 C321.462471,476.846959 316.254921,475.998592 311.804173,474.262637 C310.560182,473.777435 309.470665,473.256875 308.542615,472.73522 C308.297652,472.597527 308.07689,472.466908 307.880693,472.345164 L307.692699,472.226445 C307.546261,472.132262 307.445482,472.063476 307.391233,472.024354 C307.168826,471.863961 307.118553,471.55364 307.278946,471.331233 Z"/><path id="Stroke-89" fill="#DD936F" fill-rule="nonzero" d="M304.090042,476.948452 C304.202459,476.698345 304.496342,476.586725 304.746448,476.699142 C305.010063,476.81763 305.276112,476.932179 305.544518,477.042837 C310.674197,479.157687 316.059487,479.71687 320.602265,479.417064 L321.109329,479.378046 C321.207902,479.369103 321.284891,479.361051 321.339312,479.354528 C321.611573,479.321895 321.858738,479.516152 321.891372,479.788412 C321.924005,480.060673 321.729748,480.307838 321.457488,480.340472 L321.091973,480.376323 C320.971555,480.386466 320.829791,480.397208 320.667657,480.407908 C315.986517,480.716846 310.458505,480.142843 305.166031,477.960877 C304.888074,477.846281 304.612488,477.727626 304.339352,477.604858 C304.089245,477.492441 303.977625,477.198558 304.090042,476.948452 Z"/><path id="Stroke-91" fill="#DD936F" fill-rule="nonzero" d="M298.609594,480.234619 C298.747296,479.997492 299.051154,479.916893 299.288281,480.054594 C299.435449,480.140056 299.75116,480.298355 300.239892,480.505657 C301.066421,480.856242 302.074886,481.208113 303.269821,481.537418 C306.106543,482.319174 309.520168,482.847626 313.533322,483.004328 C313.807323,483.015027 314.020771,483.245822 314.010072,483.519822 C313.999373,483.793823 313.768578,484.007271 313.494578,483.996572 C309.405433,483.836902 305.916283,483.296759 303.006001,482.494731 C301.923302,482.196357 300.98417,481.878602 300.185723,481.557563 L299.852136,481.419821 C299.324966,481.196213 298.972247,481.019359 298.789619,480.913306 C298.552492,480.775604 298.471893,480.471746 298.609594,480.234619 Z"/><g id="分组" transform="translate(163.500000, 445.737500)"><mask id="mask-6" fill="#fff"><use xlink:href="#path-5"/></mask><path id="Fill-93" fill="#E4EBF7" d="M118.27875,2.6619 L118.60275,38.4729 L21.09525,42.3549 C9.54975,42.4599 0.10575,33.1854 -0.000132686363,21.6384 C-0.10425,10.0929 9.17175,0.6489 20.71725,0.5439 L118.27875,2.6619 Z" mask="url(#mask-6)"/></g><path id="Stroke-95" fill="#96A7CA" fill-rule="nonzero" d="M187.341616,445.628169 L282.321616,447.644169 C282.693126,447.652054 282.997261,447.929234 283.048195,448.287605 L283.055669,448.387215 L283.379701,484.198215 C283.38303,484.56969 283.115327,484.882023 282.758778,484.94389 L282.659471,484.954409 L193.812971,488.483909 C193.399084,488.500351 193.050233,488.178158 193.033791,487.764271 C193.018719,487.384874 193.288195,487.060127 193.652011,486.995972 L193.753429,486.985091 L281.872,483.484 L281.562,449.128 L187.309784,447.127831 C186.930174,447.119774 186.622437,446.831024 186.580554,446.463977 L186.575869,446.362084 C186.583926,445.982474 186.872676,445.674737 187.239723,445.632854 L187.341616,445.628169 Z"/><path id="Stroke-97" fill="#96A7CA" fill-rule="nonzero" d="M266.72608,450.542449 C267.10576,450.539053 267.422089,450.818363 267.475054,451.183975 L267.482819,451.28568 L267.757319,481.69218 C267.761059,482.106376 267.428317,482.44518 267.01412,482.448951 C266.63444,482.452347 266.318111,482.173037 266.265146,481.807425 L266.257381,481.70572 L265.982881,451.29922 C265.979141,450.885024 266.311883,450.54622 266.72608,450.542449 Z"/></g></svg>