<svg xmlns="http://www.w3.org/2000/svg" xmlns:xlink="http://www.w3.org/1999/xlink" width="512" height="1024" version="1.1" viewBox="0 0 512 1024"><title>2.人物组件/5.用研/站立/打招呼</title><desc>Created with Sketch.</desc><defs><polygon id="path-1" points="0 1.185 101.991 1.185 101.991 83.649 0 83.649"/></defs><g id="2.人物组件/5.用研/站立/打招呼" fill="none" fill-rule="evenodd" stroke="none" stroke-width="1"><path id="Fill-1" fill="#253368" d="M310.6904,641.57105 L302.5394,556.92455 C301.0439,541.44605 288.0224,534.39605 272.5409,535.87055 C272.5409,535.87055 243.1364,542.04155 247.3079,574.50155 L261.3494,653.00855 C261.3494,653.00855 263.9294,670.42205 289.0754,667.09655 C311.9909,664.06505 310.6904,641.57105 310.6904,641.57105"/><path id="Fill-3" fill="#FFC6A0" d="M277.5791,725.9702 C270.0341,725.5007 263.7236,731.6222 263.9801,739.1777 C264.4211,752.0957 264.8441,771.9632 264.2066,790.4252 C263.6351,806.9732 259.9886,817.9817 262.7666,822.5957 C265.7606,827.5697 273.5486,824.4887 278.8841,831.0407 C284.2181,837.5927 288.0311,842.5922 304.6196,840.8957 C324.0221,838.9112 307.8386,831.9287 299.9456,822.9032 C286.0046,806.9642 284.8841,800.0387 285.2261,789.4802 C285.9266,767.8547 287.8706,751.3397 289.4591,740.5982 C290.5541,733.1882 285.0536,726.4367 277.5791,725.9702"/><path id="Fill-5" fill="#253368" d="M262.856,806.43995 C262.856,806.43995 265.127,810.26795 273.5285,818.73695 C280.1555,825.41795 284.492,829.49945 288.6545,828.22145 C296.2535,825.88595 302.012,824.91995 302.012,824.91995 C302.012,824.91995 308.3765,829.10945 313.0145,833.54795 C317.6555,837.98645 316.34,844.29095 304.964,844.82345 C293.588,845.35595 287.2325,843.99395 277.5155,834.72095 C267.8,825.44795 262.823,828.30095 261.686,823.47545 C259.9115,815.93495 262.856,806.43995 262.856,806.43995"/><path id="Fill-7" fill="#253368" d="M311.4551,646.77635 L294.2426,782.15435 C293.5316,787.74935 288.1676,791.67785 282.2441,790.93985 L265.8581,788.89985 C260.2856,788.20535 256.1306,783.60185 256.2866,778.29485 L260.1881,645.49985 C260.1881,645.49985 264.9116,622.53935 288.4886,624.68285 C311.5061,626.77385 311.4551,646.77635 311.4551,646.77635"/><path id="Fill-9" fill="#4E5C93" d="M293.0054,793.19855 L255.9479,788.10155 C255.1889,787.99655 254.6309,787.33805 254.6534,786.57305 L255.1409,768.95255 C255.1634,768.06005 255.9599,767.38655 256.8449,767.50805 L296.8739,773.01455 C297.7304,773.13305 298.3109,773.94905 298.1414,774.79505 L294.6809,792.00905 C294.5249,792.78455 293.7899,793.30655 293.0054,793.19855"/><path id="Fill-11" fill="#FFC6A0" d="M220.2803,734.9285 C212.7323,734.498 206.4533,740.6525 206.7503,748.208 C207.2573,761.1215 207.7853,780.9875 207.2453,799.4525 C206.7608,816.0035 203.1728,827.0315 205.9733,831.6305 C208.9943,836.588 216.7658,833.4665 222.1328,839.99 C227.5013,846.515 231.3413,851.4935 247.9223,849.71 C267.3113,847.625 251.0933,840.728 243.1538,831.743 C229.1288,815.876 227.9723,808.958 228.2588,798.398 C228.8483,776.7695 230.7053,760.2425 232.2368,749.4935 C233.2943,742.079 227.7578,735.356 220.2803,734.9285"/><path id="Fill-13" fill="#253368" d="M205.979,815.4737 C205.979,815.4737 208.268,819.2897 216.7145,827.7152 C223.3775,834.3602 227.735,838.4207 231.8885,837.1202 C239.4755,834.7457 245.231,833.7497 245.231,833.7497 C245.231,833.7497 251.615,837.9062 256.2785,842.3192 C260.942,846.7337 259.6595,853.0442 248.2865,853.6367 C236.9135,854.2277 230.5505,852.9002 220.7855,843.6782 C211.0205,834.4562 206.0585,837.3347 204.8975,832.5152 C203.0825,824.9837 205.979,815.4737 205.979,815.4737"/><path id="Fill-15" fill="#253368" d="M196.18805,651.1079 L194.00105,568.1114 C193.77005,550.9424 208.74605,537.5174 225.78755,539.6204 C240.53705,541.4399 251.37155,554.3519 250.60355,569.1929 L246.28355,652.5959 C246.28355,652.5959 246.35705,676.4219 221.36855,675.4544 C197.06855,674.5139 196.18805,651.1079 196.18805,651.1079"/><path id="Fill-17" fill="#253368" d="M196.1777,642.58685 L199.8992,790.24685 C199.9892,793.77635 202.6337,796.71785 206.1347,797.18135 L230.8412,800.44835 C235.0037,800.99735 238.7477,797.87435 238.9517,793.68035 L246.0107,648.03935 C246.0107,648.03935 248.1437,623.32835 221.6087,622.09235 C196.8587,620.93885 196.1777,642.58685 196.1777,642.58685"/><path id="Fill-19" fill="#4E5C93" d="M198.6548,797.12945 L239.1638,802.48595 C240.0203,802.59845 240.7958,801.96545 240.8558,801.10295 L242.0798,783.58895 C242.1353,782.79845 241.5653,782.10095 240.7808,781.99745 L197.7338,776.30645 C196.7903,776.18045 195.9713,776.95445 196.0403,777.90245 L197.3558,795.75245 C197.4083,796.46195 197.9498,797.03645 198.6548,797.12945"/><path id="Fill-21" fill="#253368" d="M240.47465,611.5952 L196.51265,578.5352 C193.46015,576.2387 191.85665,572.4917 192.30515,568.6967 L197.44115,525.1922 L299.98565,526.8932 L300.47677,571.8122 C300.50615,574.6052 299.44565,577.2902 297.52865,579.3197 C291.64565,585.5477 276.90215,597.9242 251.25965,611.2427 C247.78115,613.0487 243.51365,614.0717 240.47465,611.5952"/><path id="Stroke-23" fill="#253368" fill-rule="nonzero" d="M199.948771,537.65703 L292.842271,539.63103 C293.159901,539.63778 293.41192,539.900741 293.405303,540.218371 C293.399095,540.504238 293.185489,540.73696 292.911276,540.775725 L292.817829,540.78127 L199.924329,538.80727 C199.606699,538.80052 199.35468,538.537559 199.361297,538.219929 C199.367505,537.934062 199.581111,537.70134 199.855324,537.662575 L199.948771,537.65703 Z"/><path id="Stroke-25" fill="#253368" fill-rule="nonzero" d="M253.41984,526.120547 C253.705708,526.126738 253.938441,526.340332 253.977221,526.614543 L253.982771,526.70799 L253.714271,539.37549 C253.707538,539.693121 253.44459,539.945153 253.12696,539.938553 C252.841092,539.932362 252.608359,539.718768 252.569579,539.444557 L252.564029,539.35111 L252.832529,526.68361 C252.839262,526.365979 253.10221,526.113947 253.41984,526.120547 Z"/><path id="Fill-27" fill="#FFC6A0" d="M224.8697,312.28955 C224.8697,312.28955 222.7847,281.12555 261.5552,285.22655 C283.0802,288.97505 280.1627,324.96605 280.1627,324.96605 C280.1627,324.96605 281.1692,332.63105 277.8062,340.22555 C274.0397,348.73205 265.5737,351.09605 254.6102,351.34805 C234.4127,349.27805 226.9982,337.60055 226.9982,337.60055 C226.9982,337.60055 212.9882,337.71005 215.3312,320.24855 C217.6142,304.05605 224.8697,312.28955 224.8697,312.28955"/><path id="Fill-29" fill="#253368" d="M229.52495,291.1958 C229.15295,299.1608 222.39545,305.3168 214.43045,304.9448 C206.46545,304.5728 200.30795,297.8153 200.68145,289.8503 C201.05345,281.8838 207.81095,275.7293 215.77595,276.1013 C223.74245,276.4733 229.89695,283.2308 229.52495,291.1958"/><path id="Fill-31" fill="#253368" d="M279.92135,326.0774 C279.92135,326.0774 285.04235,318.0869 288.34235,308.4284 C291.64085,298.7699 273.92135,278.3174 271.46735,276.6194 C269.01485,274.9229 267.82535,273.2849 250.15835,278.7914 C198.49085,278.4479 208.51985,326.2679 208.51985,326.2679 C208.51985,326.2679 202.31135,330.3329 205.24085,342.1814 C208.80185,354.0599 224.92685,355.2209 224.92685,355.2209 L226.34135,336.9659 C226.34135,336.9659 220.86635,337.1219 217.05485,330.6134 C213.24335,324.1049 217.14935,316.5944 219.70535,316.0799 C222.03485,314.4974 227.62085,315.6044 227.30585,322.3544 C227.14685,325.7519 233.97185,318.4364 237.10685,305.6174 C255.27185,302.9834 260.36735,290.6624 260.36735,290.6624 C260.36735,290.6624 260.43935,302.6939 257.35985,307.6154 C266.96735,305.2154 272.25785,300.3974 270.92885,294.9539 C281.44685,300.1934 279.92135,326.0774 279.92135,326.0774"/><path id="Fill-33" fill="#FFC6A0" d="M223.915621,359.737 L225.643621,332.5 L261.144121,334.9795 C261.144121,334.9795 260.140621,353.584 260.491621,361.168 C283.033621,374.971 230.274121,382.0915 218.850121,367.183 C215.322121,362.5795 223.915621,359.737 223.915621,359.737"/><path id="Fill-35" fill="#FFF" d="M259.8398,319.27025 C258.8513,326.14625 253.2233,331.02875 247.2668,330.17375 C241.3103,329.31725 237.2843,323.04875 238.2728,316.17125 C239.2598,309.29375 244.8893,304.41275 250.8458,305.26775 C256.8008,306.12275 260.8268,312.39275 259.8398,319.27025"/><path id="Stroke-37" fill="#253368" fill-rule="nonzero" d="M237.530406,316.064708 C236.486118,323.330357 240.76808,329.996997 247.160054,330.916115 C253.551716,331.833578 259.537772,326.641782 260.582168,319.376973 C261.624973,312.110618 257.342603,305.442849 250.952363,304.525359 C244.559934,303.607786 238.573066,308.799365 237.530406,316.064708 Z M250.73921,306.010137 C256.258001,306.802508 260.028792,312.673732 259.097406,319.163708 C258.164622,325.652148 252.893646,330.223744 247.373363,329.431359 C241.852782,328.637541 238.082439,322.767446 239.015171,316.277951 C239.93164,309.891916 245.051732,305.363221 250.476525,305.976442 L250.73921,306.010137 Z"/><path id="Fill-39" fill="#FFF" d="M284.07425,319.47095 C283.08725,326.34845 277.76525,331.27445 272.18825,330.47195 C266.61275,329.67095 262.89425,323.44595 263.88125,316.56995 C264.86975,309.69245 270.19175,304.76645 275.76725,305.56745 C281.34425,306.36845 285.06275,312.59345 284.07425,319.47095"/><path id="Stroke-41" fill="#253368" fill-rule="nonzero" d="M263.138879,316.463249 C262.097279,323.719621 266.058195,330.348981 272.081597,331.214328 C278.106781,332.081319 283.775116,326.834947 284.816644,319.577492 C285.859754,312.320041 281.898981,305.690427 275.873903,304.825072 C269.849936,303.959643 264.181931,309.206205 263.138879,316.463249 Z M275.660625,306.309832 C280.788926,307.046387 284.265851,312.866128 283.331879,319.364249 C282.399354,325.862162 277.42355,330.467556 272.295071,329.729596 C267.168201,328.993048 263.691062,323.173384 264.623641,316.676515 C265.542213,310.285538 270.371245,305.724737 275.408574,306.277893 L275.660625,306.309832 Z"/><path id="Stroke-43" fill="#DD936F" fill-rule="nonzero" d="M261.670374,321.028237 C261.871264,320.857531 262.161353,320.860315 262.358216,321.021769 L262.427313,321.089724 L266.168313,325.492224 C266.342793,325.697556 266.335558,325.995002 266.165341,326.191305 L266.093906,326.2598 L261.635906,329.8148 C261.40403,329.999708 261.066159,329.961633 260.88125,329.729756 C260.716887,329.523644 260.728709,329.233782 260.896219,329.042046 L260.966294,328.9751 L264.991,325.765 L261.608887,321.785176 C261.438181,321.584286 261.440965,321.294197 261.602419,321.097334 L261.670374,321.028237 Z"/><path id="Stroke-45" fill="#F5222D" fill-rule="nonzero" d="M252.507664,331.44102 C252.637025,331.047525 253.060884,330.833402 253.45438,330.962764 L253.918913,331.108 L254.195251,331.190522 C254.781392,331.363355 255.416266,331.536298 256.07602,331.697588 C256.970887,331.916356 257.840238,332.096006 258.655255,332.222976 C260.038181,332.43842 261.186249,332.489042 261.996989,332.347868 C262.405062,332.276811 262.793474,332.550016 262.864532,332.958089 C262.935589,333.366162 262.662384,333.754574 262.254311,333.825632 C261.249249,334.000643 259.955185,333.943584 258.424357,333.705099 C257.563516,333.57099 256.653442,333.382924 255.719805,333.154678 C255.206794,333.029262 254.708846,332.897201 254.235628,332.763433 L253.355562,332.504421 C253.196164,332.455496 253.071508,332.415873 252.98592,332.387736 C252.592425,332.258375 252.378302,331.834516 252.507664,331.44102 Z"/><path id="Stroke-47" fill="#253368" fill-rule="nonzero" d="M260.419135,315.052828 C261.355173,314.707225 262.350612,314.636153 263.310183,315.03288 C263.632021,315.165941 263.937274,315.349394 264.222031,315.584811 C264.541274,315.848737 264.586116,316.321489 264.322189,316.640731 C264.058263,316.959974 263.585511,317.004816 263.266269,316.740889 C263.09698,316.600934 262.920728,316.495009 262.737071,316.419077 C262.179473,316.188542 261.552627,316.233298 260.938682,316.459978 C260.744184,316.53179 260.605458,316.600742 260.544028,316.637665 C260.189011,316.851056 259.728225,316.736246 259.514835,316.381228 C259.301444,316.026211 259.416254,315.565425 259.771272,315.352035 C259.908194,315.269735 260.129273,315.159851 260.419135,315.052828 Z"/><path id="Stroke-49" fill="#DD936F" fill-rule="nonzero" d="M242.189095,348.573198 C242.271691,348.288354 242.569559,348.1244 242.854402,348.206995 C244.394116,348.653462 246.172185,349.032261 248.141348,349.34789 C250.69104,349.756569 253.426554,350.040208 256.1626,350.220664 C256.929007,350.271212 257.651532,350.310606 258.318392,350.340274 L259.805938,350.392345 C260.102463,350.397916 260.338327,350.642814 260.332852,350.939338 C260.327184,351.235863 260.082286,351.471727 259.785762,351.466155 L258.766059,351.433908 C257.958915,351.402427 257.059919,351.35618 256.091918,351.292336 C253.325078,351.109848 250.557706,350.822907 247.97137,350.408354 C245.961602,350.086217 244.141639,349.698493 242.555298,349.238505 C242.270454,349.155909 242.1065,348.858041 242.189095,348.573198 Z"/><path id="Fill-51" fill="#253368" d="M253.76075,317.1983 C253.67975,318.9068 252.85925,320.2568 251.92775,320.2133 C250.99625,320.1698 250.30475,318.7493 250.38425,317.0408 C250.46525,315.3323 251.28575,313.9823 252.21725,314.0258 C253.14875,314.0693 253.84025,315.4898 253.76075,317.1983"/><path id="Fill-53" fill="#253368" d="M275.68505,318.50345 C275.60405,320.21195 274.78355,321.56195 273.85205,321.51845 C272.92055,321.47495 272.22905,320.05445 272.31005,318.34595 C272.38955,316.63745 273.21005,315.28745 274.14155,315.33095 C275.07455,315.37445 275.76455,316.79495 275.68505,318.50345"/><g id="分组" transform="translate(227.000000, 315.257000)"><line id="Fill-55" x1="11.273" x2="1.451" y1=".914" y2=".667" fill="#FFF"/><line id="Stroke-57" x1="11.273" x2="1.451" y1=".914" y2=".667" stroke="#253368" stroke-linecap="round" stroke-linejoin="round" stroke-width="1.5"/></g><path id="Fill-58" fill="#E4EBF7" d="M364.58345,464.54105 L364.58345,464.54105 C372.80195,456.16205 372.67145,442.70555 364.29245,434.48705 L316.29395,387.41555 C307.91495,379.19705 294.45845,379.32905 286.23995,387.70805 C278.02145,396.08855 278.15345,409.54355 286.53245,417.76205 L334.53095,464.83355 C342.90995,473.05205 356.36495,472.92155 364.58345,464.54105"/><path id="Fill-60" fill="#FFC6A0" d="M379.44875,345.61985 C379.44875,345.61985 378.95375,362.32985 369.65975,365.60885 C361.24025,368.57885 357.26525,360.53885 357.26525,360.53885 C357.26525,360.53885 352.04675,353.17235 349.82825,343.38635 C348.36575,336.93785 346.82975,324.39485 350.11175,323.16785 C354.39275,321.57035 355.30625,335.86835 358.62725,335.70185 C362.03525,335.53085 362.06375,332.56235 364.35425,325.83635 C365.78525,321.63335 365.54225,316.92635 367.43375,313.59335 C371.13275,307.07885 382.27775,320.61785 379.44875,345.61985"/><path id="Stroke-62" fill="#DD936F" fill-rule="nonzero" d="M368.344765,313.071412 C368.625651,313.034334 368.883411,313.23198 368.920488,313.512865 C369.682695,319.287049 369.015595,324.439053 367.435799,328.834855 C367.042005,329.930591 366.619423,330.892734 366.195817,331.714395 L365.980065,332.120098 C365.910975,332.245827 365.844858,332.362016 365.782145,332.468557 L365.616822,332.738177 C365.46098,332.974788 365.142834,333.040264 364.906223,332.884422 C364.669612,332.72858 364.604136,332.410434 364.759978,332.173823 L364.850556,332.029538 C364.955887,331.855548 365.104191,331.592779 365.283876,331.244247 C365.687441,330.461458 366.092029,329.540286 366.47026,328.487852 C367.997053,324.239533 368.643011,319.250808 367.903312,313.647135 C367.866234,313.366249 368.06388,313.108489 368.344765,313.071412 Z"/><path id="Stroke-64" fill="#DD936F" fill-rule="nonzero" d="M372.181052,318.467856 C372.463985,318.453001 372.705389,318.67032 372.720244,318.953252 L372.728181,319.171848 C372.765886,320.544013 372.690194,322.415948 372.408545,324.632358 C371.981342,327.994199 371.162157,331.387397 369.856875,334.656383 C369.751812,334.919505 369.453339,335.047637 369.190217,334.942575 C368.927095,334.837512 368.798963,334.539039 368.904025,334.275917 C370.174801,331.09335 370.973867,327.783488 371.39073,324.50302 L371.490058,323.657257 C371.668139,322.003569 371.725359,320.581383 371.708342,319.471066 L371.695656,319.007048 C371.680801,318.724115 371.89812,318.482711 372.181052,318.467856 Z"/><path id="Stroke-66" fill="#DD936F" fill-rule="nonzero" d="M376.385551,324.473744 C376.668872,324.472815 376.899309,324.701731 376.900247,324.985051 C376.914243,329.211725 376.551473,332.773518 375.936919,335.690285 C375.724859,336.696752 375.497025,337.554363 375.268333,338.265491 L375.156416,338.602014 C375.086999,338.803309 375.028436,338.958569 374.983512,339.06824 L374.952421,339.141953 L374.867424,339.275586 L374.56158,339.633348 L374.17188,340.103341 C374.035464,340.270171 373.89283,340.446933 373.74487,340.632933 C372.899068,341.696185 372.053221,342.840927 371.264581,344.022131 C370.33107,345.42032 369.541407,346.775969 368.941781,348.05097 C367.274283,351.596621 367.238917,354.110171 369.158835,355.317476 C369.398678,355.468297 369.470844,355.784992 369.320024,356.024835 C369.169203,356.264859 368.852508,356.336844 368.612665,356.186024 C366.108488,354.611317 366.151226,351.573777 368.013332,347.614326 C368.636903,346.288409 369.451437,344.890064 370.411288,343.452423 C371.217037,342.245593 372.079462,341.078416 372.941933,339.994208 L373.377957,339.453446 L374.041,338.661 L374.144153,338.388416 C374.172656,338.308469 374.204174,338.217103 374.23836,338.114261 L374.291598,337.951383 C374.50948,337.27387 374.728219,336.450493 374.932961,335.478755 C375.532578,332.632883 375.88801,329.143133 375.874253,324.988449 C375.873315,324.705128 376.102231,324.474691 376.385551,324.473744 Z"/><path id="Fill-68" fill="#E4EBF7" d="M351.85985,358.7786 L385.47485,365.1431 L370.95485,457.2311 C368.90285,468.0686 358.45385,475.1906 347.61635,473.1386 C336.77885,471.0866 329.65685,460.6376 331.70735,449.8001 L351.85985,358.7786 Z"/><path id="Stroke-70" fill="#96A7CA" fill-rule="nonzero" d="M352.087144,357.579253 L385.702144,363.943753 C386.090813,364.017341 386.346236,364.392075 386.272647,364.780744 C386.205191,365.137024 385.884689,365.38134 385.532367,365.362903 L385.435656,365.351247 L352.512,359.117 L335.859565,438.964227 C335.785535,439.319199 335.460573,439.557551 335.108652,439.532606 L335.012173,439.519165 C334.657201,439.445135 334.418849,439.120173 334.443794,438.768252 L334.457235,438.671773 L351.252735,358.136773 C351.325799,357.786431 351.643718,357.548882 351.991666,357.567667 L352.087144,357.579253 Z"/><path id="Stroke-72" fill="#96A7CA" fill-rule="nonzero" d="M351.901299,372.710804 L380.444799,378.115304 C380.833467,378.188895 381.088888,378.563631 381.015296,378.952299 C380.947837,379.308578 380.627334,379.552892 380.275011,379.534453 L380.178301,379.522796 L351.634801,374.118296 C351.246133,374.044705 350.990712,373.669969 351.064304,373.281301 C351.131763,372.925022 351.452266,372.680708 351.804589,372.699147 L351.901299,372.710804 Z"/><path id="Fill-74" fill="#597EF7" d="M268.3931,364.83125 L266.6966,364.81925 C268.1096,374.98025 229.7366,377.06675 223.6196,365.34425 C223.4651,365.04725 223.3421,364.76675 223.2371,364.49675 L218.5586,364.46225 L219.3611,541.85675 C219.3611,541.85675 253.0466,555.62075 284.9561,543.08825 C296.7026,401.26475 268.3931,364.83125 268.3931,364.83125"/><path id="Stroke-76" fill="#3C65D6" fill-rule="nonzero" d="M263.197148,378.012844 C263.482351,377.872867 263.827028,377.990595 263.967006,378.275798 C264.106983,378.561001 263.989255,378.905678 263.704052,379.045656 C262.692482,379.542134 261.662544,379.989419 260.615315,380.388779 C251.726178,383.778649 242.256882,383.614743 233.326339,381.308018 C232.100326,380.991343 230.978896,380.654684 229.975779,380.315212 L229.553155,380.169601 C229.261505,380.067294 228.996304,379.970331 228.758634,379.880064 L228.211071,379.664109 C228.193458,379.656775 228.178117,379.650308 228.165069,379.644733 C227.87292,379.519899 227.737284,379.181868 227.862117,378.889719 C227.986951,378.59757 228.324982,378.461934 228.617131,378.586767 L228.948926,378.720489 L229.40543,378.893783 C229.569715,378.954494 229.746009,379.018019 229.933986,379.08396 C231.011725,379.462018 232.245369,379.840548 233.614065,380.194077 C242.333641,382.44631 251.571767,382.606215 260.205369,379.313793 C261.219858,378.926919 262.217438,378.493686 263.197148,378.012844 Z"/><path id="Fill-78" fill="#E4EBF7" d="M260.491621,361.168 C261.47315,364.071777 271.61915,382.67855 275.21015,470.73155 C278.07065,540.86255 277.97015,669.11705 277.97015,669.11705 C277.97015,669.11705 313.12265,660.69005 318.94565,648.85055 C324.94865,636.64655 318.20015,547.13855 316.36715,502.29005 C313.02815,420.61055 317.31215,401.45255 310.12415,383.37905 C302.37215,379.22255 287.94365,373.72805 275.97065,367.68305 C273.06215,366.21605 263.322754,360.612377 261.466329,360.35405"/><path id="Stroke-80" fill="#96A7CA" fill-rule="nonzero" d="M310.404275,406.295656 C310.816635,406.256513 311.18265,406.559065 311.221794,406.971425 L311.413588,409.096343 L311.757592,413.156506 C311.80996,413.794965 311.863619,414.458054 311.918452,415.145239 L312.165637,418.306555 C312.604586,424.035354 313.039616,430.337893 313.449952,437.119873 C314.480381,454.150639 315.213945,471.837904 315.521038,489.593831 C315.528201,490.007982 315.198271,490.349525 314.784119,490.357125 C314.369968,490.363851 314.028425,490.033921 314.021262,489.619769 C313.733735,472.99515 313.071805,456.42933 312.142158,440.407445 L311.95269,437.210464 C311.466015,429.166772 310.944594,421.798791 310.423205,415.26455 L310.060723,410.862946 L309.728506,407.113175 C309.689363,406.700815 309.991915,406.3348 310.404275,406.295656 Z"/><path id="Fill-82" fill="#E4EBF7" d="M179.58695,379.6424 C191.45495,373.8164 204.50195,371.3684 212.00795,367.0274 C216.81545,364.2479 220.66445,360.5309 224.45495,359.2364 C250.72745,468.8609 242.91695,607.5149 239.06945,670.8389 C210.32045,674.8499 173.65745,647.5079 173.65745,647.5079 C173.65745,647.5079 183.27245,551.2514 185.50145,493.7204 C187.35545,445.8674 176.55395,381.1319 179.58695,379.6424"/><path id="Stroke-84" fill="#96A7CA" fill-rule="nonzero" d="M222.689975,358.185796 C223.017372,357.932055 223.488477,357.991765 223.742218,358.319161 C223.972891,358.616794 223.944515,359.033195 223.691472,359.297084 L223.608853,359.371404 L213.118,367.501 L213.11521,367.632073 C213.026104,371.021858 213.216311,375.945773 213.904996,382.239484 L214.054667,383.561122 C215.254059,393.810919 217.50447,405.138846 221.048529,417.36329 L221.816866,419.972415 C222.362742,421.813099 222.910762,423.647693 223.499608,425.607015 L227.99434,440.473499 C230.124373,447.555253 231.561753,452.550826 232.82812,457.377083 L233.087858,458.373832 C235.881538,469.169362 237.818502,479.324549 239.471018,492.329711 C239.52323,492.74062 239.232449,493.116055 238.821539,493.168268 C238.41063,493.22048 238.035195,492.929699 237.982982,492.518789 C236.389774,479.980378 234.533352,470.116663 231.893615,459.754115 L231.377076,457.757179 C230.289989,453.614243 229.075156,449.341822 227.399166,443.715292 L221.627994,424.58892 C221.128097,422.920581 220.652035,421.322631 220.173882,419.707387 L219.968756,419.013825 C216.192433,406.236669 213.813947,394.410176 212.564832,383.735457 L212.413583,382.399757 C211.7416,376.25754 211.538795,371.39348 211.607353,367.955544 L211.633495,367.084633 C211.642864,366.902904 211.717848,366.732098 211.842464,366.6028 L211.923061,366.530446 L222.689975,358.185796 Z"/><path id="Stroke-86" fill="#96A7CA" fill-rule="nonzero" d="M260.807701,359.995289 C260.989328,359.661851 261.38721,359.521253 261.732443,359.652753 L261.82509,359.695422 L278.730311,368.903872 C278.929613,369.012434 279.069038,369.205404 279.109521,369.428715 L279.227739,370.153788 L279.352025,370.996516 C279.39522,371.301318 279.440113,371.630104 279.486498,371.983147 L279.533373,372.344285 C279.828635,374.646426 280.123634,377.451124 280.401171,380.781225 L280.45644,381.454258 C282.465567,406.284324 282.465567,442.923808 279.119891,493.147301 C279.092359,493.560599 278.734996,493.873324 278.321699,493.845791 C277.908401,493.818259 277.595676,493.460896 277.623209,493.047599 L277.81967,490.054698 C280.963399,441.436495 280.924142,405.832958 278.961327,381.575235 L278.851047,380.251835 C278.610192,377.445146 278.357452,375.032099 278.104045,372.997834 L277.954213,371.839675 C277.90957,371.508118 277.866519,371.200737 277.825265,370.917259 L277.72311,370.239708 L277.692,370.046 L261.107567,361.012678 C260.77413,360.831051 260.633532,360.433168 260.765032,360.087936 L260.807701,359.995289 Z"/><path id="Stroke-88" fill="#96A7CA" fill-rule="nonzero" d="M185.36805,531.178688 L211.24905,534.937688 C211.586131,534.986646 211.843354,535.254927 211.885254,535.584795 L211.89123,535.685445 L211.493731,589.446747 C211.458114,594.442829 207.101838,598.284225 202.172096,597.740136 L201.916617,597.708065 L183.849117,595.162565 C183.438954,595.104778 183.153297,594.72543 183.211085,594.315267 C183.264056,593.939285 183.587228,593.667922 183.956652,593.669816 L184.058383,593.677235 L202.125751,596.222716 C206.184525,596.793813 209.826714,593.727871 209.988359,589.666773 L209.99377,589.435855 L210.386,536.328 L185.15245,532.663112 C184.776697,532.608537 184.506715,532.28421 184.510185,531.914798 L184.518038,531.8131 C184.572613,531.437347 184.89694,531.167365 185.266352,531.17077 L185.36805,531.178688 Z"/><path id="Stroke-90" fill="#96A7CA" fill-rule="nonzero" d="M317.8404,526.470315 C318.227875,526.323904 318.660675,526.519325 318.807085,526.9068 C318.941295,527.261985 318.788271,527.655256 318.463381,527.831108 L318.3706,527.873485 L299.837,534.876 L300.337969,591.699572 C300.350558,593.082248 301.73858,594.006705 303.016682,593.518887 L303.153134,593.461174 L319.087634,586.496674 C319.467178,586.330786 319.909339,586.503989 320.075226,586.883534 C320.22729,587.23145 320.094423,587.63198 319.778877,587.824095 L319.688366,587.871126 L303.769885,594.8284 C301.537429,595.867099 298.985664,594.313027 298.84405,591.891704 L298.838029,591.713011 L298.3325,534.366511 C298.330066,534.087085 298.482736,533.832651 298.72323,533.701518 L298.8174,533.658315 L317.8404,526.470315 Z"/><path id="Fill-92" fill="#4E5C93" d="M223.52495,529.1186 L227.38745,529.4396 C230.17295,529.6721 232.24295,532.1171 232.01045,534.9011 L226.59545,600.0596 C226.36445,602.8451 223.91795,604.9151 221.13245,604.6826 L217.26995,604.3631 C214.48595,604.1306 212.41595,601.6856 212.64695,598.9001 L218.06345,533.7416 C218.29595,530.9576 220.74095,528.8876 223.52495,529.1186"/><g id="分组" transform="translate(126.500000, 520.757000)"><mask id="mask-2" fill="#fff"><use xlink:href="#path-1"/></mask><path id="Fill-94" fill="#253368" d="M10.89495,1.20225 L97.35045,8.38875 C100.13445,8.61975 102.20445,11.06475 101.97345,13.85025 L96.55545,79.00875 C96.32445,81.79425 93.87945,83.86275 91.09545,83.63175 L4.63995,76.44675 C1.85595,76.21425 -0.21405,73.76925 0.01695,70.98375 L5.43345,5.82525 C5.66595,3.04125 8.11095,0.97125 10.89495,1.20225" mask="url(#mask-2)"/></g><path id="Fill-96" fill="#E4EBF7" d="M159.2651,482.56295 L159.2651,482.56295 C148.3076,478.92545 142.3736,467.09195 146.0126,456.13445 L166.8536,393.37145 C170.4896,382.41395 182.3231,376.47995 193.2821,380.11895 C204.2381,383.75645 210.1721,395.58995 206.5346,406.54745 L185.6951,469.31045 C182.0561,480.26795 170.2241,486.20195 159.2651,482.56295"/><path id="Fill-98" fill="#FFC6A0" d="M151.5923,584.8091 C151.5923,584.8091 148.2518,560.3816 156.7298,554.5001 C164.4083,549.1751 170.3108,556.6346 170.3108,556.6346 C170.3108,556.6346 177.6158,562.6286 182.5613,571.8941 C185.8223,578.0006 190.8428,590.2391 187.8683,592.3841 C183.9878,595.1816 179.1113,580.9991 175.8053,582.0851 C172.4123,583.1996 173.2028,586.2056 172.7513,593.6291 C172.4708,598.2686 174.1253,601.0841 173.1368,604.9721 C171.2048,612.5711 155.0738,606.8471 151.5923,584.8091"/><path id="Stroke-100" fill="#DD936F" fill-rule="nonzero" d="M166.696863,586.142007 C166.788732,585.860018 167.091804,585.705894 167.373793,585.797763 C167.655782,585.889632 167.809906,586.192704 167.718037,586.474693 L167.658549,586.676789 C167.641261,586.739281 167.621466,586.813377 167.599572,586.898842 C167.506712,587.261313 167.413451,587.687572 167.32615,588.173961 C166.416321,593.24296 166.864461,599.389099 169.668856,606.048434 C169.783961,606.321763 169.655695,606.636651 169.382366,606.751756 C169.109037,606.866861 168.794149,606.738595 168.679044,606.465266 C165.787955,599.600065 165.324642,593.245835 166.269043,587.984222 C166.342651,587.574127 166.420641,587.202929 166.499714,586.872478 L166.55917,586.632308 C166.619704,586.396015 166.667746,586.23138 166.696863,586.142007 Z"/><path id="Stroke-102" fill="#DD936F" fill-rule="nonzero" d="M160.956172,584.468299 L161.043514,584.471098 C161.338214,584.504408 161.550113,584.770314 161.516802,585.065014 C161.032636,589.348463 161.544269,593.687148 162.694482,597.780073 C162.991232,598.836031 163.308966,599.792271 163.626252,600.631069 L163.819705,601.128469 C163.91578,601.368023 163.991807,601.545415 164.042541,601.656336 C164.165902,601.926039 164.047268,602.244681 163.777564,602.368041 C163.507861,602.491402 163.189219,602.372768 163.065859,602.103064 L162.940744,601.814125 L162.788237,601.440573 C162.734953,601.306636 162.679334,601.163371 162.621716,601.011047 C162.293677,600.143822 161.966087,599.157918 161.660534,598.070638 C160.475554,593.853998 159.948101,589.381159 160.449598,584.944386 C160.479577,584.679156 160.697959,584.480995 160.956172,584.468299 Z"/><path id="Stroke-104" fill="#DD936F" fill-rule="nonzero" d="M156.247019,580.253367 C156.536683,580.317029 156.719894,580.603455 156.656233,580.893119 L156.630973,581.024379 C156.607301,581.160555 156.577788,581.363622 156.547773,581.632912 C156.190029,584.842521 156.549237,589.434466 158.188194,595.34025 C158.267502,595.626027 158.100126,595.921986 157.81435,596.001294 C157.528573,596.080602 157.232614,595.913226 157.153306,595.62745 C155.477521,589.588957 155.107527,584.859133 155.480382,581.51394 L155.519907,581.190372 C155.552472,580.947412 155.583385,580.771246 155.607267,580.662581 C155.663855,580.405102 155.896455,580.231734 156.150886,580.241098 L156.247019,580.253367 Z"/><path id="Fill-106" fill="#E4EBF7" d="M185.8199,560.273 L150.0194,561.146 L144.6434,463.7105 C144.3614,452.1665 153.4904,442.5815 165.0344,442.301 C176.5754,442.019 186.1619,451.148 186.4424,462.6905 L185.8199,560.273 Z"/><path id="Stroke-108" fill="#96A7CA" fill-rule="nonzero" d="M205.822362,406.312156 C205.952892,405.919047 206.377384,405.706183 206.770494,405.836712 C207.130844,405.956364 207.339738,406.323027 207.27151,406.686101 L207.245938,406.784844 L186.444,469.431 L186.582649,560.799869 C186.583213,561.173438 186.310235,561.484754 185.950927,561.541698 L185.850933,561.550777 L150.050433,562.424004 C149.636343,562.433875 149.292471,562.106374 149.282146,561.692283 C149.273117,561.3127 149.547537,560.99212 149.912293,560.933548 L150.013867,560.924223 L185.081,560.069 L184.944651,469.311131 C184.94457,469.257332 184.950277,469.203759 184.961626,469.151329 L184.982862,469.073656 L205.822362,406.312156 Z"/><path id="Stroke-110" fill="#96A7CA" fill-rule="nonzero" d="M182.680574,544.524123 C183.094665,544.514029 183.438534,544.841534 183.448854,545.255624 C183.457879,545.635208 183.183456,545.955785 182.818699,546.014353 L182.717126,546.023677 L152.316626,546.764677 C151.902535,546.774771 151.558666,546.447266 151.548346,546.033176 C151.539321,545.653592 151.813744,545.333015 152.178501,545.274447 L152.280074,545.265123 L182.680574,544.524123 Z"/></g></svg>