<svg xmlns="http://www.w3.org/2000/svg" xmlns:xlink="http://www.w3.org/1999/xlink" width="512" height="1024" version="1.1" viewBox="0 0 512 1024"><title>2.人物组件/5.用研/站立/打电话</title><desc>Created with Sketch.</desc><defs><polygon id="path-1" points=".447 .776 90.934 .776 90.934 95.827 .447 95.827"/><polygon id="path-3" points=".199 1.45 83.115 1.45 83.115 83.432 .199 83.432"/></defs><g id="2.人物组件/5.用研/站立/打电话" fill="none" fill-rule="evenodd" stroke="none" stroke-width="1"><path id="Fill-1" fill="#E4EBF7" d="M126.26055,437.3879 L126.26055,437.3879 C121.63005,426.8114 126.44955,414.4829 137.02755,409.8524 L197.60655,383.3294 C208.18455,378.6989 220.51155,383.5184 225.14355,394.0964 C229.77405,404.6729 224.95305,417.0014 214.37655,421.6319 L153.79455,448.1534 C143.21955,452.7854 130.89105,447.9644 126.26055,437.3879"/><g id="分组" transform="translate(295.500000, 378.549500)"><mask id="mask-2" fill="#fff"><use xlink:href="#path-1"/></mask><path id="Fill-3" fill="#E4EBF7" d="M84.13455,90.3501 L84.13455,90.3501 C92.65755,82.5591 93.24855,69.3351 85.45755,60.8151 L36.78255,7.5741 C28.99155,-0.9459 15.76755,-1.5384 7.24605,6.2526 C-1.27395,14.0421 -1.86645,27.2661 5.92305,35.7876 L54.59955,89.0271 C62.39055,97.5486 75.61305,98.1411 84.13455,90.3501" mask="url(#mask-2)"/></g><path id="Fill-5" fill="#FFC6A0" d="M291.55065,535.07315 C291.55065,535.07315 299.11065,519.29165 292.03665,511.78115 C285.63165,504.97865 278.07465,510.54965 278.07465,510.54965 C278.07465,510.54965 269.68515,514.89815 262.92465,522.93665 C258.46965,528.23315 251.01915,539.16515 253.48665,541.88165 C256.70115,545.42165 264.41265,532.56065 267.42165,534.30815 C270.51015,536.10215 269.11365,538.87715 268.01565,546.23315 C267.32865,550.83065 264.84315,555.09215 265.00515,559.10165 C265.32015,566.93615 282.18465,559.69115 291.55065,535.07315"/><path id="Stroke-7" fill="#DD936F" fill-rule="nonzero" d="M274.899999,539.687473 C275.194907,539.656048 275.459452,539.869642 275.490877,540.164549 L275.502164,540.29263 C275.506334,540.347525 275.510796,540.41452 275.515202,540.49331 C275.611637,542.217847 275.455672,544.538514 274.8465,547.279337 C273.932162,551.393186 272.162557,555.571702 269.337822,559.634973 C269.168534,559.878488 268.833891,559.93866 268.590377,559.769372 C268.346862,559.600084 268.28669,559.265441 268.455978,559.021927 C271.198256,555.077265 272.913116,551.028016 273.798083,547.046317 C274.350162,544.562369 274.514982,542.447058 274.456433,540.847176 L274.442877,540.553274 C274.435084,540.413915 274.427516,540.321453 274.422923,540.278351 C274.391498,539.983443 274.605092,539.718898 274.899999,539.687473 Z"/><path id="Stroke-9" fill="#DD936F" fill-rule="nonzero" d="M281.281986,539.700703 L281.369362,539.702096 C281.664561,539.730655 281.880714,539.993113 281.852154,540.288312 C281.494251,543.987666 280.42259,547.598151 278.860502,551.00999 C278.1792,552.498058 277.449125,553.848733 276.718386,555.037873 L276.419674,555.514594 C276.323227,555.665436 276.230031,555.808148 276.140471,555.942536 L275.870455,556.338618 C275.810243,556.424699 275.763838,556.489182 275.732535,556.531407 C275.55591,556.769654 275.21959,556.819609 274.981343,556.642985 C274.743096,556.46636 274.693141,556.13004 274.869765,555.891793 L275.12124,555.533263 C275.326543,555.231834 275.555912,554.878229 275.803348,554.475573 C276.512184,553.322075 277.221684,552.009466 277.883986,550.562898 C279.399521,547.252736 280.437761,543.75485 280.783146,540.184888 C280.808849,539.919209 281.024011,539.717557 281.281986,539.700703 Z"/><path id="Stroke-11" fill="#DD936F" fill-rule="nonzero" d="M286.93386,536.5709 C287.200772,536.568926 287.423651,536.762014 287.467169,537.01685 L287.474883,537.1039 C287.477576,537.834396 287.330658,539.153237 286.891409,541.012904 C286.1718,544.059546 284.874916,547.546383 282.858762,551.422692 C282.72191,551.685807 282.397673,551.788163 282.134558,551.651312 C281.871443,551.51446 281.769087,551.190223 281.905938,550.927108 C283.881177,547.129464 285.146994,543.726156 285.84617,540.766021 C286.090865,539.730044 286.247287,538.82333 286.333215,538.051983 L286.377466,537.59329 C286.391405,537.417406 286.398262,537.27902 286.400254,537.178899 L286.400871,537.111176 L286.407255,537.024746 C286.446971,536.76929 286.666949,536.572903 286.93386,536.5709 Z"/><path id="Fill-13" fill="#E4EBF7" d="M277.09845,500.25605 L299.06745,528.53705 L377.93745,471.07205 C387.05595,463.98905 388.70445,450.85505 381.62295,441.73655 C374.53845,432.61805 361.40445,430.96955 352.28745,438.05105 L277.09845,500.25605 Z"/><path id="Stroke-15" fill="#96A7CA" fill-rule="nonzero" d="M340.602386,447.694099 C340.923899,447.432944 341.396245,447.481873 341.657401,447.803386 C341.894815,448.09567 341.875961,448.51261 341.629013,448.782212 L341.548114,448.858401 L277.724,500.7 L299.243041,528.402151 C299.474046,528.699527 299.446134,529.115959 299.193385,529.380129 L299.110849,529.454541 C298.813473,529.685546 298.397041,529.657634 298.132871,529.404885 L298.058459,529.322349 L276.089459,501.041349 C275.861996,500.748534 275.885164,500.339268 276.129109,500.074075 L276.208886,499.999099 L340.602386,447.694099 Z"/><path id="Stroke-17" fill="#96A7CA" fill-rule="nonzero" d="M290.229978,492.595627 C290.527344,492.36461 290.943777,492.392506 291.207958,492.645245 L291.282373,492.727778 L309.937873,516.741278 C310.191992,517.068381 310.132826,517.539554 309.805722,517.793673 C309.508356,518.02469 309.091923,517.996794 308.827742,517.744055 L308.753327,517.661522 L290.097827,493.648022 C289.843708,493.320919 289.902874,492.849746 290.229978,492.595627 Z"/><path id="Fill-19" fill="#FFC6A0" d="M179.55015,315.63965 C179.55015,315.63965 169.62465,330.05015 175.44015,338.57315 C180.70815,346.29065 189.04065,341.96315 189.04065,341.96315 C189.04065,341.96315 198.00465,338.97515 205.93665,332.08715 C211.16115,327.54965 220.22265,317.91215 218.20965,314.84615 C215.58615,310.84715 205.96515,322.35065 203.26515,320.15465 C200.49315,317.90165 202.30665,315.37865 204.53715,308.28215 C205.93215,303.84815 209.05065,300.02615 209.51715,296.04215 C210.42615,288.25265 192.63765,292.78265 179.55015,315.63965"/><path id="Stroke-21" fill="#96A7CA" fill-rule="nonzero" d="M205.354421,294.872648 C205.540956,294.677924 205.850028,294.671286 206.044752,294.857821 C206.239476,295.044356 206.246114,295.353428 206.059579,295.548152 C205.908498,295.705865 205.759321,295.864329 205.612038,296.023528 C202.129182,299.788173 199.810923,303.818186 198.433688,307.845407 C197.952681,309.251937 197.623611,310.556405 197.418719,311.724801 C197.365213,312.02992 197.3233,312.308744 197.291512,312.559474 L197.243935,312.990537 C197.236595,313.070863 197.232411,313.12915 197.230631,313.164476 C197.217058,313.433787 196.987736,313.641104 196.718424,313.627531 C196.449113,313.613958 196.241796,313.384636 196.255369,313.115324 L196.270952,312.907726 L196.292266,312.695234 C196.32813,312.365338 196.381826,311.98422 196.456896,311.556134 C196.670323,310.339069 197.011791,308.985452 197.509724,307.529429 C198.929461,303.377927 201.315999,299.229217 204.895243,295.360386 C205.046367,295.197035 205.199423,295.034451 205.354421,294.872648 Z"/><path id="Stroke-23" fill="#DD936F" fill-rule="nonzero" d="M198.535422,296.924915 C198.73755,296.726381 199.06235,296.729295 199.260885,296.931422 C199.459419,297.13355 199.456505,297.45835 199.254378,297.656885 L199.03877,297.877963 C198.989659,297.929593 198.934182,297.98854 198.872676,298.054693 L198.483447,298.483309 C198.280717,298.711551 198.066249,298.960548 197.841998,299.229644 C196.772023,300.51359 195.701339,301.984904 194.702181,303.619016 C193.035709,306.344513 191.740633,309.242551 190.960086,312.263244 C190.889204,312.537556 190.609368,312.702468 190.335056,312.631586 C190.060744,312.560704 189.895832,312.280868 189.966714,312.006556 C190.774502,308.880444 192.110458,305.890925 193.826841,303.0838 C194.853478,301.404747 195.953289,299.893406 197.053809,298.572808 C197.362546,298.20233 197.653948,297.868042 197.923387,297.571436 L198.298174,297.167898 C198.350888,297.11251 198.397239,297.064495 198.436892,297.023962 L198.535422,296.924915 Z"/><path id="Fill-25" fill="#E4EBF7" d="M201.8583,347.4311 L169.2048,332.7251 L126.4173,420.4286 C121.6758,430.9571 126.3663,443.3351 136.8933,448.0751 C147.4218,452.8166 159.7998,448.1261 164.5413,437.5976 L201.8583,347.4311 Z"/><path id="Stroke-27" fill="#96A7CA" fill-rule="nonzero" d="M168.738302,331.936369 C168.894221,331.590163 169.280346,331.41991 169.634526,331.524954 L169.730131,331.560502 L202.383631,346.266502 C202.71857,346.417347 202.890135,346.784765 202.803586,347.131295 L202.769784,347.234389 L174.506784,416.303389 C174.349913,416.686749 173.91197,416.870354 173.528611,416.713484 C173.177198,416.569686 172.993634,416.189709 173.08631,415.832094 L173.118516,415.735311 L201.107,347.337 L169.114169,332.928198 C168.767963,332.772279 168.59771,332.386154 168.702754,332.031974 L168.738302,331.936369 Z"/><path id="Stroke-29" fill="#96A7CA" fill-rule="nonzero" d="M163.824397,345.209445 C163.965419,344.856909 164.343936,344.670353 164.702271,344.760206 L164.799305,344.791647 L194.362805,356.617647 C194.74739,356.771489 194.934444,357.20797 194.780603,357.592555 C194.639581,357.945091 194.261064,358.131647 193.902729,358.041794 L193.805695,358.010353 L164.242195,346.184353 C163.85761,346.030511 163.670556,345.59403 163.824397,345.209445 Z"/><path id="Fill-31" fill="#394772" d="M205.33425,344.9738 L183.70875,330.5483 C181.91925,329.3543 181.43475,326.9363 182.62875,325.1453 L213.67275,278.6063 C214.86525,276.8168 217.28625,276.3338 219.07575,277.5278 L240.70125,291.9518 C242.49075,293.1458 242.97525,295.5653 241.78125,297.3548 L210.73875,343.8938 C209.54475,345.6848 207.12375,346.1678 205.33425,344.9738"/><path id="Fill-33" fill="#FFC6A0" d="M296.62635,737.8574 C289.09485,738.5009 283.75035,745.4834 285.11535,752.9204 C287.44935,765.6329 290.78685,785.2214 292.87035,803.5769 C294.73635,820.0304 292.74885,831.4544 296.17335,835.6094 C299.86635,840.0899 307.11735,835.8974 313.35585,841.5944 C319.59435,847.2929 324.10035,851.6759 340.26135,847.5614 C359.15985,842.7479 342.12735,838.2194 332.99385,830.4509 C316.86285,816.7334 314.73585,810.0479 313.52385,799.5539 C311.03835,778.0604 310.53435,761.4374 310.52835,750.5804 C310.52235,743.0909 304.09035,737.2199 296.62635,737.8574"/><path id="Fill-35" fill="#253368" d="M293.88855,819.61685 C293.88855,819.61685 296.69655,823.06835 306.25005,830.21135 C313.78905,835.84535 318.67755,839.24585 322.60605,837.36935 C329.77905,833.94485 335.33505,832.14185 335.33505,832.14185 C335.33505,832.14185 342.24405,835.35185 347.48505,839.05985 C352.72755,842.76785 352.35405,849.19835 341.17905,851.39585 C330.00555,853.59335 323.51805,853.18085 312.54405,845.43635 C301.57005,837.69185 297.06555,841.24535 295.23255,836.63885 C292.37055,829.44035 293.88855,819.61685 293.88855,819.61685"/><path id="Fill-37" fill="#253368" d="M260.8929,658.2995 L246.9624,576.4505 C244.2984,559.487 257.2224,544.076 274.3884,543.7415 C289.2474,543.452 301.8024,554.696 303.1464,569.4965 L310.6944,652.67 C310.6944,652.67 314.1444,676.2455 289.2729,678.83 C265.0839,681.344 260.8929,658.2995 260.8929,658.2995"/><path id="Fill-39" fill="#253368" d="M259.67565,649.865 L284.29365,795.506 C284.88315,798.989 287.91615,801.524 291.44865,801.486911 L316.36965,801.218 C320.56815,801.173 323.83065,797.549 323.43765,793.3685 L309.77715,648.1985 C309.77715,648.1985 308.38515,623.435 281.94465,625.973 C257.28015,628.34 259.67565,649.865 259.67565,649.865"/><path id="Fill-41" fill="#4E5C93" d="M284.03745,802.495935 L324.89595,802.05485 C325.75995,802.04585 326.43945,801.30785 326.37645,800.44685 L325.10445,782.93585 C325.04745,782.14535 324.38445,781.53635 323.59245,781.545252 L280.17345,782.01335 C279.22245,782.02385 278.52045,782.90435 278.72445,783.83435 L282.55695,801.31685 C282.70845,802.01135 283.32645,802.50335 284.03745,802.495935"/><path id="Fill-43" fill="#FFC6A0" d="M208.4529,734.75555 C216.0069,735.04355 221.6724,741.76805 220.6599,749.25905 C218.9259,762.06755 216.5124,781.79255 215.2959,800.22605 C214.2039,816.74855 216.7284,828.06755 213.5019,832.37855 C210.0234,837.02855 202.5834,833.18105 196.6194,839.16455 C190.6554,845.14955 186.3594,849.74105 170.0244,846.39005 C150.9204,842.47055 167.7219,837.14555 176.4804,828.95705 C191.9484,814.49555 193.7589,807.71855 194.4774,797.17805 C195.9474,775.59155 195.6699,758.96405 195.1674,748.11905 C194.8194,740.63555 200.9694,734.46905 208.4529,734.75555"/><path id="Fill-45" fill="#253368" d="M215.0331,816.2954 C215.0331,816.2954 212.3901,819.8759 203.1831,827.4599 C195.9186,833.4434 191.1936,837.0704 187.1811,835.3799 C179.8551,832.2959 174.2211,830.7554 174.2211,830.7554 C174.2211,830.7554 167.4696,834.2864 162.4086,838.2374 C157.3476,842.1884 158.0226,848.5934 169.2876,850.2629 C180.5541,851.9339 187.0146,851.2154 197.6121,842.9639 C208.2081,834.7124 212.8761,838.0484 214.4901,833.3624 C217.0101,826.0379 215.0331,816.2954 215.0331,816.2954"/><path id="Fill-47" fill="#253368" d="M240.4056,653.60465 L250.4736,571.19165 C252.3366,554.12165 238.7031,539.33465 221.5386,539.80865 C206.6826,540.21815 194.6706,552.04115 194.0241,566.88815 L190.3956,650.32265 C190.3956,650.32265 188.0571,674.03465 213.0231,675.44765 C237.3036,676.82165 240.4056,653.60465 240.4056,653.60465"/><path id="Fill-49" fill="#253368" d="M241.22595,645.1232 L223.48245,791.7602 C223.05795,795.2657 220.14645,797.9417 216.61845,798.0707 L191.71095,798.9737 C187.51395,799.1252 184.08495,795.6602 184.28145,791.4662 L191.10045,645.8132 C191.10045,645.8132 191.32695,621.0122 217.85895,622.3037 C242.60595,623.5082 241.22595,645.1232 241.22595,645.1232"/><path id="Fill-51" fill="#4E5C93" d="M224.0667,798.7304 L183.2337,800.2109 C182.3697,800.2424 181.6587,799.5389 181.679246,798.6734 L182.1252,781.1234 C182.1462,780.3299 182.7792,779.6909 183.5712,779.6624 L226.9647,778.0889 C227.9142,778.0544 228.6582,778.9019 228.4977,779.8394 L225.4917,797.4824 C225.3717,798.1829 224.7777,798.7034 224.0667,798.7304"/><path id="Fill-53" fill="#253368" d="M254.64975,586.6196 L298.09875,552.8876 C301.11675,550.5446 302.66175,546.7736 302.15475,542.9861 L296.35275,499.5656 L193.84575,502.8416 L194.04525,547.7636 C194.05575,550.5566 195.15825,553.2236 197.10825,555.2246 C203.08425,561.3611 218.01675,573.5096 243.86025,586.4321 C247.36725,588.1856 251.64825,589.1426 254.64975,586.6196"/><path id="Stroke-55" fill="#253368" fill-rule="nonzero" d="M294.035947,512.067885 C294.353436,512.056258 294.620237,512.304208 294.632257,512.621697 C294.642329,512.907437 294.442536,513.15212 294.171024,513.206676 L294.078053,513.217615 L201.226553,516.618115 C200.909064,516.629742 200.642263,516.381792 200.630243,516.064303 C200.620171,515.778563 200.819964,515.53388 201.091476,515.479324 L201.184447,515.468385 L294.035947,512.067885 Z"/><path id="Stroke-57" fill="#253368" fill-rule="nonzero" d="M240.393406,501.353985 C240.679146,501.343525 240.923826,501.543322 240.978377,501.814835 L240.989315,501.907806 L241.452815,514.569306 C241.464437,514.886795 241.216483,515.153593 240.898994,515.165215 C240.613254,515.175675 240.368574,514.975878 240.314023,514.704365 L240.303085,514.611394 L239.839585,501.949894 C239.827963,501.632405 240.075917,501.365607 240.393406,501.353985 Z"/><path id="Fill-59" fill="#FFC6A0" d="M278.2455,315.5927 C278.2455,315.5927 281.6865,284.5487 242.7735,286.9562 C221.106,289.7642 222.453,325.8482 222.453,325.8482 C222.453,325.8482 221.112,333.4622 224.142,341.1962 C227.5335,349.8587 235.8915,352.5902 246.831,353.3192 C267.099,352.1312 275.016,340.7867 275.016,340.7867 C275.016,340.7867 289.0095,341.5067 287.4285,323.9597 C285.852,307.6847 278.2455,315.5927 278.2455,315.5927"/><path id="Fill-61" fill="#253368" d="M274.512983,294.31655 C274.53855,302.29055 281.02155,308.73455 288.99405,308.710617 C296.96955,308.68655 303.41355,302.20205 303.389617,294.22805 C303.36405,286.25405 296.88105,279.81005 288.90705,279.835475 C280.93305,279.85955 274.48905,286.34255 274.512983,294.31655"/><g id="分组" transform="translate(214.500000, 275.049500)"><mask id="mask-4" fill="#fff"><use xlink:href="#path-3"/></mask><path id="Fill-63" fill="#253368" d="M8.1444,51.91995 C8.1444,51.91995 3.3759,43.71345 0.5004,33.91995 C-2.3751,24.12645 16.2204,4.46595 18.7449,2.87745 C21.2709,1.28895 22.5309,-0.29655 39.9399,5.97495 C91.5729,7.88295 79.4709,55.22145 79.4709,55.22145 C79.4709,55.22145 85.4949,59.55345 82.0524,71.26395 C77.9799,82.97445 61.8174,83.43195 61.8174,83.43195 L61.1994,65.13195 C61.1994,65.13195 66.6639,65.52645 70.7544,59.19045 C74.8464,52.85445 71.2704,45.18045 68.7384,44.55495 C66.4809,42.87345 60.8529,43.73445 60.8724,50.49195 C60.8829,53.89395 54.3834,46.28895 51.8094,33.34395 C33.7779,29.92095 29.2254,17.38995 29.2254,17.38995 C29.2254,17.38995 28.6284,29.40795 31.4889,34.45845 C21.9954,31.64145 16.9209,26.59845 18.4854,21.21795 C7.7484,25.99245 8.1444,51.91995 8.1444,51.91995" mask="url(#mask-4)"/></g><path id="Fill-65" fill="#FFC6A0" d="M276.32505,360.734 L275.78505,333.4475 L240.20955,334.3775 C240.20955,334.3775 240.40305,353.009 239.72205,360.569 C216.59955,373.3775 268.99755,382.79 281.06055,368.393 C284.78805,363.947 276.32505,360.734 276.32505,360.734"/><path id="Fill-67" fill="#FFF" d="M243.0042,321.0434 C243.6927,327.9569 249.1017,333.0794 255.0912,332.4839 C261.0777,331.8884 265.3737,325.8014 264.6867,318.8879 C263.9982,311.9729 258.5877,306.8504 252.5997,307.4459 C246.6132,308.0414 242.3172,314.1299 243.0042,321.0434"/><path id="Stroke-69" fill="#253368" fill-rule="nonzero" d="M252.525461,306.699583 C246.101205,307.338629 241.53208,313.813652 242.257876,321.117563 C242.985353,328.422449 248.73889,333.86917 255.165402,333.23022 C261.589885,332.591153 266.158797,326.117417 265.433024,318.813737 C264.716492,311.61719 259.121851,306.22358 252.812735,306.675022 L252.525461,306.699583 Z M263.94039,318.962207 C264.588599,325.485345 260.565549,331.185644 255.016961,331.737583 C249.466368,332.289445 244.400261,327.493496 243.750508,320.969077 C243.102274,314.445685 247.125596,308.744132 252.673921,308.192219 C258.223727,307.640296 263.29071,312.437098 263.94039,318.962207 Z"/><path id="Fill-71" fill="#FFF" d="M218.78445,320.18795 C219.47145,327.10145 224.57295,332.25395 230.17845,331.69745 C235.78395,331.13945 239.77095,325.08245 239.08395,318.16895 C238.39545,311.25545 233.29545,306.10145 227.68995,306.65945 C222.08295,307.21745 218.09595,313.27445 218.78445,320.18795"/><path id="Stroke-73" fill="#253368" fill-rule="nonzero" d="M227.615678,305.913137 C221.558043,306.515983 217.311612,312.966902 218.038142,320.262273 C218.763033,327.557087 224.196151,333.045045 230.252544,332.443781 C236.308841,331.840907 240.555213,325.390077 239.830274,318.094787 C239.11467,310.90912 233.834788,305.477059 227.890469,305.889918 L227.615678,305.913137 Z M238.337642,318.243273 C238.986704,324.774991 235.258924,330.438007 230.104158,330.951139 C224.949305,331.462899 220.179812,326.645265 219.530774,320.113787 C218.880271,313.581831 222.607993,307.918903 227.764242,307.405761 C232.918218,306.892708 237.687064,311.710561 238.337642,318.243273 Z"/><path id="Stroke-75" fill="#DD936F" fill-rule="nonzero" d="M240.357659,322.764414 C240.550316,322.556677 240.874899,322.544452 241.082636,322.737109 C241.267291,322.908359 241.297468,323.183848 241.166585,323.388854 L241.109941,323.462086 L237.541,327.31 L241.439857,330.708018 C241.629711,330.873486 241.668379,331.147912 241.543887,331.356861 L241.489532,331.431807 C241.324064,331.621661 241.049638,331.660329 240.840689,331.535837 L240.765743,331.481482 L236.468243,327.735982 C236.27423,327.566889 236.23869,327.284949 236.371461,327.075287 L236.429159,327.000414 L240.357659,322.764414 Z"/><path id="Stroke-77" fill="#F5222D" fill-rule="nonzero" d="M249.79959,333.522425 C249.911635,333.921196 249.679197,334.335295 249.280425,334.44734 L248.55763,334.636416 C247.997015,334.776522 247.387281,334.916522 246.74853,335.047252 C245.748694,335.251884 244.771351,335.414539 243.849105,335.519609 C242.283696,335.697954 240.967566,335.701771 239.957843,335.480989 C239.55319,335.39251 239.296881,334.992746 239.385361,334.588093 C239.47384,334.18344 239.873604,333.927131 240.278257,334.015611 C241.093859,334.193947 242.263474,334.190555 243.67931,334.02925 C244.553498,333.929655 245.488399,333.774064 246.447767,333.577714 C246.910094,333.483092 247.356993,333.383363 247.779669,333.282402 L248.874675,333.00326 C249.273446,332.891215 249.687545,333.123653 249.79959,333.522425 Z"/><g id="分组" transform="translate(238.500000, 315.549500)"><path id="Fill-79" fill="#FFF" d="M4.3284,2.20755 C4.3284,2.20755 2.4234,0.94605 0.7389,2.21805"/><path id="Stroke-81" stroke="#253368" stroke-linecap="round" stroke-linejoin="round" stroke-width="1.5" d="M4.3284,2.20755 C4.3284,2.20755 2.4234,0.94605 0.7389,2.21805"/></g><path id="Stroke-82" fill="#DD936F" fill-rule="nonzero" d="M258.717508,350.715045 C258.992797,350.648057 259.270267,350.816919 259.337255,351.092208 C259.404243,351.367497 259.235381,351.644967 258.960092,351.711955 C257.385908,352.09501 255.589503,352.398873 253.611897,352.631594 C249.868543,353.072104 245.991476,353.219713 242.722899,353.200501 L241.655627,353.187343 C241.372391,353.180344 241.148457,352.945063 241.155297,352.661827 C241.162456,352.378591 241.397737,352.154657 241.680973,352.161657 L242.045761,352.167968 C245.40982,352.212852 249.533661,352.078433 253.491987,351.612625 C255.431093,351.384435 257.187678,351.087307 258.717508,350.715045 Z"/><path id="Fill-84" fill="#253368" d="M249.16828,319.238 C249.1743,320.948 249.9348,322.3325 250.8678,322.331001 C251.8008,322.328 252.5523,320.9375 252.54782,319.2275 C252.5418,317.5175 251.7813,316.133 250.8483,316.135995 C249.9153,316.139 249.1638,317.528 249.16828,319.238"/><path id="Fill-86" fill="#253368" d="M227.20738,319.5866 C227.2134,321.2966 227.9739,322.6811 228.9069,322.679601 C229.8399,322.6766 230.5914,321.2861 230.58692,319.5761 C230.5809,317.8661 229.8204,316.4816 228.8874,316.484595 C227.9544,316.4876 227.2029,317.8766 227.20738,319.5866"/><path id="Stroke-88" fill="#253368" fill-rule="nonzero" d="M264.700707,318.137278 L274.522707,318.318778 C274.936847,318.326431 275.266375,318.668364 275.258722,319.082507 C275.251707,319.462138 274.963803,319.770666 274.596873,319.813557 L274.494993,319.818522 L264.672993,319.637022 C264.25885,319.629369 263.929325,319.287436 263.936978,318.873293 C263.943993,318.493662 264.231897,318.185134 264.598827,318.142243 L264.700707,318.137278 Z"/><path id="Fill-90" fill="#597EF7" d="M233.35965,366.10205 L235.05465,366.06305 C233.80365,376.24505 272.20365,377.72855 278.13615,365.91155 C278.28615,365.61005 278.40465,365.32805 278.50515,365.05805 L283.18215,364.95005 L285.17265,542.33405 C285.17265,542.33405 251.70615,556.62605 219.60315,544.59755 C205.62615,402.97655 233.35965,366.10205 233.35965,366.10205"/><path id="Stroke-92" fill="#3C65D6" fill-rule="nonzero" d="M237.997062,379.476774 C238.132524,379.189399 238.475301,379.066249 238.762676,379.201712 C239.549591,379.572646 240.347441,379.913176 241.155752,380.223938 C249.913482,383.590913 259.286705,383.372913 268.150848,380.977179 C269.572727,380.592885 270.855183,380.181397 271.976265,379.770405 L272.526216,379.563634 L273.001352,379.375207 C273.174182,379.304663 273.290323,379.255006 273.347041,379.229704 C273.637182,379.100271 273.977313,379.230551 274.106746,379.520691 C274.236179,379.810832 274.105899,380.150963 273.815759,380.280396 L273.436128,380.440393 L272.941821,380.636445 C272.764399,380.704958 272.574436,380.776489 272.37227,380.850604 C271.220646,381.272793 269.906378,381.694488 268.451026,382.087829 C259.371781,384.541699 249.761826,384.765205 240.742894,381.297809 C239.908415,380.976987 239.084648,380.625395 238.272124,380.242388 C237.984749,380.106926 237.861599,379.764149 237.997062,379.476774 Z"/><path id="Fill-94" fill="#E4EBF7" d="M239.13405,359.847043 C239.13405,359.847043 230.41605,383.99855 228.21105,472.09655 C226.45305,542.26355 223.64805,662.24255 223.64805,662.24255 C223.64805,662.24255 190.16505,661.14455 187.32705,645.94655 C185.63805,636.90305 187.20705,404.04455 194.10855,385.86005 C201.79455,381.58205 213.95055,375.30455 225.82755,369.07355 C228.71355,367.56005 233.74905,363.44405 235.58355,362.46905 C240.56655,359.81705 239.13405,359.847043 239.13405,359.847043"/><path id="Stroke-96" fill="#96A7CA" fill-rule="nonzero" d="M189.878003,408.088312 C190.257603,408.097571 190.564978,408.386705 190.606403,408.753804 L190.610441,408.878816 L190.064481,434.154059 L189.631707,455.090551 C189.392612,466.87893 189.156854,478.889492 188.929995,490.924863 L188.52191,513.178175 C188.413188,519.288441 188.309326,525.289639 188.210771,531.165915 L187.900958,550.359971 C187.201909,595.58741 186.936016,628.204019 187.231513,643.645 C187.239438,644.059137 186.910138,644.401287 186.496,644.409745 C186.081863,644.417138 185.739713,644.087838 185.731787,643.6737 L185.694904,641.459103 C185.427503,622.898172 185.821772,584.159424 186.710982,531.140761 L186.975846,515.763716 C187.098512,508.815987 187.22761,501.722858 187.362471,494.507988 L187.776549,472.885742 C187.917178,465.708588 188.060009,458.575903 188.203842,451.530318 L189.111339,408.821997 C189.120647,408.407888 189.463894,408.079732 189.878003,408.088312 Z"/><path id="Fill-98" fill="#E4EBF7" d="M322.38855,379.5134 C310.42905,373.8764 297.34605,371.6339 289.77255,367.4114 C284.92005,364.7069 281.01555,361.0514 277.20405,359.8169 C252.66105,469.8419 267.79605,602.9624 272.63955,666.2189 C301.44855,669.7769 322.47555,638.5919 322.47555,638.5919 C322.47555,638.5919 321.40305,551.1599 318.26955,493.6709 C315.66255,445.8539 325.44555,380.9549 322.38855,379.5134"/><path id="Stroke-100" fill="#96A7CA" fill-rule="nonzero" d="M276.904458,359.01304 C277.116239,358.701681 277.521027,358.59999 277.850196,358.7591 L277.94641,358.814708 L289.82191,366.892208 C289.986395,367.004087 290.099694,367.17673 290.13688,367.372152 L290.201005,367.762774 L290.222648,367.910869 C290.284371,368.342767 290.345825,368.858442 290.403003,369.457769 C291.380067,379.699121 290.04078,394.792688 284.583003,414.682267 L284.041036,416.619076 C282.063712,423.559757 274.079232,450.918802 272.164797,458.415754 C269.149451,470.223884 267.157171,480.860193 265.77501,493.295203 C265.729251,493.706881 265.358425,494.003518 264.946747,493.95776 C264.535069,493.912001 264.238432,493.541175 264.28419,493.129497 C265.618728,481.122949 267.519978,470.777361 270.352494,459.464019 L270.711435,458.044621 C272.714802,450.19941 281.315066,420.771914 282.815233,415.443384 L282.898092,415.147647 C288.427274,395.292689 289.843265,380.241184 288.950068,370.040672 L288.909783,369.600228 C288.865823,369.139448 288.819474,368.732143 288.772784,368.37837 L288.712,367.951 L277.10279,360.054992 C276.791431,359.843211 276.68974,359.438423 276.84885,359.109254 L276.904458,359.01304 Z"/><path id="Stroke-102" fill="#96A7CA" fill-rule="nonzero" d="M238.723517,359.219039 C239.070275,358.992474 239.535046,359.089909 239.761611,359.436667 C239.967579,359.751902 239.905778,360.164667 239.632315,360.407332 L239.543983,360.474761 L225.66,369.545 L225.593156,369.934712 C225.520726,370.359157 225.442268,370.849073 225.358852,371.405448 L225.25644,372.105062 C224.906698,374.550085 224.556609,377.551774 224.229631,381.131807 L224.092419,382.680225 C221.899312,408.200644 222.070174,444.981394 226.147215,494.447794 C226.18124,494.860607 225.87417,495.222841 225.461356,495.256865 C225.048543,495.29089 224.686309,494.98382 224.652285,494.571006 L224.407134,491.553291 C220.482422,442.522365 220.438834,406.145046 222.735849,380.995375 L222.860396,379.670486 C223.132463,376.858432 223.418286,374.426281 223.705304,372.362407 L223.875639,371.181661 C223.926549,370.842139 223.975708,370.526536 224.022885,370.234639 L224.163918,369.397517 C224.201394,369.185094 224.229526,369.034968 224.247247,368.946151 C224.278779,368.788115 224.360107,368.645542 224.477718,368.53842 L224.572517,368.465039 L238.723517,359.219039 Z"/><path id="Stroke-104" fill="#96A7CA" fill-rule="nonzero" d="M318.992196,531.122574 C319.401122,531.056601 319.786103,531.33462 319.852076,531.743546 C319.912551,532.118395 319.683978,532.473124 319.330485,532.580458 L319.231104,532.603426 L294.056,536.664 L295.285446,589.759006 C295.381068,593.857475 298.997364,596.953192 303.031578,596.453701 L303.260356,596.421571 L321.284356,593.592571 C321.693559,593.528344 322.077351,593.808002 322.141579,594.217206 C322.200454,594.592309 321.97037,594.94606 321.616422,595.051885 L321.516944,595.074429 L303.493048,597.903413 C298.556703,598.678916 294.059386,595.004598 293.795695,590.051183 L293.785851,589.793847 L292.542147,536.045847 C292.534472,535.705316 292.756161,535.406993 293.074446,535.310731 L293.172696,535.288074 L318.992196,531.122574 Z"/><path id="Stroke-106" fill="#96A7CA" fill-rule="nonzero" d="M188.380175,531.665572 C188.494933,531.303634 188.858732,531.089791 189.222697,531.153093 L189.321778,531.177325 L202.568278,535.377325 C202.843638,535.464633 203.041171,535.700746 203.083244,535.980375 L203.091582,536.08707 L203.487734,593.435154 C203.504378,595.897183 201.03222,597.573357 198.770824,596.697457 L198.605772,596.628786 L186.241272,591.117786 C185.862936,590.949158 185.692936,590.505757 185.861564,590.127422 C186.01614,589.780614 186.401601,589.608866 186.756186,589.712536 L186.851928,589.747714 L199.216126,595.258579 C200.479084,595.820826 201.896007,594.941749 201.983469,593.591822 L201.987685,593.44543 L201.595,536.642 L188.868422,532.607175 C188.506484,532.492417 188.292641,532.128618 188.355943,531.764653 L188.380175,531.665572 Z"/><path id="Stroke-108" fill="#96A7CA" fill-rule="nonzero" d="M318.238175,430.050497 C318.617809,430.043775 318.936641,430.320224 318.992897,430.685344 L319.001578,430.786975 L320.972578,540.066475 C320.980048,540.480621 320.650371,540.822408 320.236225,540.830003 C319.856591,540.836725 319.537759,540.560276 319.481503,540.195156 L319.472822,540.093525 L317.501822,430.814025 C317.494352,430.399879 317.824029,430.058092 318.238175,430.050497 Z"/></g></svg>