<?xml version="1.0" encoding="UTF-8"?>
<svg width="512px" height="1024px" viewBox="0 0 512 1024" version="1.1" xmlns="http://www.w3.org/2000/svg" xmlns:xlink="http://www.w3.org/1999/xlink">
    <!-- Generator: Sketch 61.2 (89653) - https://sketch.com -->
    <title>2.人物组件/5.用研/站立/看手机</title>
    <desc>Created with Sketch.</desc>
    <g id="2.人物组件/5.用研/站立/看手机" stroke="none" stroke-width="1" fill="none" fill-rule="evenodd">
        <path d="M205.4787,738.19805 C213.0162,738.76055 218.4357,745.68605 217.1502,753.13505 C214.9542,765.87155 211.8267,785.49605 209.9427,803.87405 C208.2537,820.34555 210.3657,831.74855 206.9847,835.93955 C203.3397,840.45905 196.0452,836.34605 189.8682,842.10905 C183.6912,847.87355 179.2317,852.30605 163.0287,848.36555 C144.0777,843.75755 161.0622,839.04305 170.1117,831.17855 C186.0927,817.28705 188.1477,810.57905 189.2487,800.07305 C191.5002,778.55405 191.8242,761.92655 191.7147,751.07105 C191.6397,743.58005 198.0087,737.64005 205.4787,738.19805" id="Fill-1" fill="#FFC6A0"></path>
        <path d="M209.09835,819.9224 C209.09835,819.9224 206.32635,823.4054 196.84935,830.6504 C189.37485,836.3654 184.52085,839.8199 180.57135,837.9854 C173.36385,834.6374 167.78985,832.8944 167.78985,832.8944 C167.78985,832.8944 160.91385,836.1779 155.71335,839.9429 C150.51135,843.7064 150.95385,850.1324 162.15135,852.2099 C173.34885,854.2874 179.83185,853.8044 190.72185,845.9429 C201.61035,838.0799 206.15385,841.5839 207.93585,836.9594 C210.72135,829.7309 209.09835,819.9224 209.09835,819.9224" id="Fill-3" fill="#253368"></path>
        <path d="M240.35085,658.25855 L253.39785,576.26405 C255.87885,559.27355 242.78985,544.00205 225.62085,543.850989 C210.75885,543.72455 198.32535,555.10355 197.14185,569.91755 L190.49235,653.16605 C190.49235,653.16605 187.29585,676.77755 212.19435,679.09505 C236.40885,681.34655 240.35085,658.25855 240.35085,658.25855" id="Fill-5" fill="#253368"></path>
        <path d="M241.4772,649.8122 L218.4312,795.7097 C217.8807,799.1987 214.8732,801.7667 211.3422,801.7667 L186.4182,801.7667 C182.2197,801.7667 178.9182,798.1787 179.2662,793.9952 L191.3592,648.6857 C191.3592,648.6857 192.4857,623.9087 218.9517,626.1602 C243.6402,628.2617 241.4772,649.8122 241.4772,649.8122" id="Fill-7" fill="#253368"></path>
        <path d="M218.76345,802.69655 L177.90345,802.69655 C177.03795,802.69655 176.35245,801.96755 176.40645,801.10355 L177.48645,783.58055 C177.53745,782.79005 178.19145,782.17355 178.98345,782.17355 L222.40695,782.17355 C223.35795,782.17355 224.06895,783.04655 223.87545,783.97805 L220.23195,801.50255 C220.08795,802.19705 219.47445,802.69655 218.76345,802.69655" id="Fill-9" fill="#4E5C93"></path>
        <path d="M297.57345,738.19805 C290.03595,738.76055 284.61645,745.68605 285.90195,753.13505 C288.09795,765.87155 291.22545,785.49605 293.10945,803.87405 C294.79845,820.34555 292.68645,831.74855 296.06745,835.93955 C299.71245,840.45905 307.00695,836.34605 313.18395,842.10905 C319.36095,847.87355 323.81895,852.30605 340.02345,848.36555 C358.97445,843.75755 341.98995,839.04305 332.94045,831.17855 C316.95945,817.28705 314.90445,810.57905 313.80345,800.07305 C311.55195,778.55405 311.22795,761.92655 311.33745,751.07105 C311.41245,743.58005 305.04345,737.64005 297.57345,738.19805" id="Fill-11" fill="#FFC6A0"></path>
        <path d="M293.9538,819.9224 C293.9538,819.9224 296.7258,823.4054 306.2028,830.6504 C313.6773,836.3654 318.5313,839.8199 322.4793,837.9854 C329.6883,834.6374 335.2623,832.8944 335.2623,832.8944 C335.2623,832.8944 342.1383,836.1779 347.3388,839.9429 C352.5408,843.7064 352.0983,850.1324 340.9008,852.2099 C329.7033,854.2874 323.2203,853.8044 312.3303,845.9429 C301.4403,838.0799 296.8983,841.5839 295.1163,836.9594 C292.3308,829.7309 293.9538,819.9224 293.9538,819.9224" id="Fill-13" fill="#253368"></path>
        <path d="M262.70145,658.25855 L249.65445,576.26405 C247.17195,559.27355 260.26245,544.00205 277.43145,543.850989 C292.29345,543.72455 304.72695,555.10355 305.91045,569.91755 L312.55995,653.16605 C312.55995,653.16605 315.75645,676.77755 290.85795,679.09505 C266.64345,681.34655 262.70145,658.25855 262.70145,658.25855" id="Fill-15" fill="#253368"></path>
        <path d="M261.57495,649.8122 L284.62095,795.7097 C285.17145,799.1987 288.17895,801.7667 291.70995,801.7667 L316.63395,801.7667 C320.83245,801.7667 324.13395,798.1787 323.78595,793.9952 L311.69295,648.6857 C311.69295,648.6857 310.56645,623.9087 284.10045,626.1602 C259.41195,628.2617 261.57495,649.8122 261.57495,649.8122" id="Fill-17" fill="#253368"></path>
        <path d="M284.28885,802.69655 L325.14885,802.69655 C326.01435,802.69655 326.69985,801.96755 326.64585,801.10355 L325.56585,783.58055 C325.51485,782.79005 324.86085,782.17355 324.06885,782.17355 L280.64535,782.17355 C279.69435,782.17355 278.98335,783.04655 279.17685,783.97805 L282.82035,801.50255 C282.96435,802.19705 283.57785,802.69655 284.28885,802.69655" id="Fill-19" fill="#4E5C93"></path>
        <path d="M244.22385,604.47755 L200.84235,579.11705 C197.74185,576.88505 196.05885,573.17405 196.42635,569.37005 L200.63535,525.76655 L303.19335,525.28955 L304.63935,570.18755 C304.72935,572.97905 303.72585,575.68505 301.85235,577.75655 C296.10285,584.10755 285.62685,590.61905 260.27235,604.47755 C256.83285,606.35855 247.31685,606.88805 244.22385,604.47755" id="Fill-21" fill="#253368"></path>
        <path d="M296.32335,538.1762 C296.641052,538.1762 296.8986,538.433748 296.8986,538.75145 C296.8986,539.037382 296.689986,539.274589 296.416659,539.319171 L296.32335,539.3267 L203.40885,539.3267 C203.091148,539.3267 202.8336,539.069152 202.8336,538.75145 C202.8336,538.465518 203.042214,538.228311 203.315541,538.183729 L203.40885,538.1762 L296.32335,538.1762 Z" id="Stroke-23" fill="#253368" fill-rule="nonzero"></path>
        <path d="M256.62375,525.5054 C256.909682,525.5054 257.146889,525.714014 257.191471,525.987341 L257.199,526.08065 L257.199,538.75115 C257.199,539.068852 256.941452,539.3264 256.62375,539.3264 C256.337818,539.3264 256.100611,539.117786 256.056029,538.844459 L256.0485,538.75115 L256.0485,526.08065 C256.0485,525.762948 256.306048,525.5054 256.62375,525.5054 Z" id="Stroke-25" fill="#253368" fill-rule="nonzero"></path>
        <path d="M236.5671,355.0754 L237.0246,327.7874 L272.6016,328.6079 C272.6016,328.6079 272.4666,347.2394 273.1686,354.7979 C297.0171,388.5014 220.9956,387.2339 231.8541,362.7494 C234.2061,357.4469 236.5671,355.0754 236.5671,355.0754" id="Fill-27" fill="#FFC6A0"></path>
        <path d="M229.75995,312.0383 C232.16145,317.6918 230.45445,323.8268 225.94545,325.7423 C221.43795,327.6578 215.83695,324.6278 213.43395,318.9758 C211.03245,313.3223 212.73795,307.1858 217.24695,305.2703 C221.75595,303.3548 227.35695,306.3848 229.75995,312.0383" id="Fill-29" fill="#FFC6A0"></path>
        <path d="M280.34835,312.0383 C277.94535,317.6918 279.65235,323.8268 284.16135,325.7423 C288.67035,327.6578 294.27135,324.6278 296.67435,318.9758 C299.07435,313.3223 297.36885,307.1858 292.85985,305.2703 C288.35235,303.3548 282.75135,306.3848 280.34835,312.0383" id="Fill-31" fill="#FFC6A0"></path>
        <path d="M269.1042,272.8457 C269.1042,280.8197 262.6407,287.2832 254.6667,287.2832 C246.6942,287.2832 240.2292,280.8197 240.2292,272.8457 C240.2292,264.8717 246.6942,258.4082 254.6667,258.4082 C262.6407,258.4082 269.1042,264.8717 269.1042,272.8457" id="Fill-33" fill="#253368"></path>
        <path d="M270.2307,271.43795 C270.2307,279.41195 263.7657,285.87545 255.7932,285.87545 C247.8207,285.87545 241.3557,279.41195 241.3557,271.43795 C241.3557,263.46395 247.8207,257.00045 255.7932,257.00045 C263.7657,257.00045 270.2307,263.46395 270.2307,271.43795" id="Fill-35" fill="#090D33"></path>
        <path d="M287.904,311.24 C287.904,333.623 277.767,345.26 255.384,345.26 C234.408,345.26 222.864,333.857 222.864,311.24 C222.864,280.409 237.4245,272.807 255.384,272.807 C273.345,272.807 287.904,282.9425 287.904,311.24" id="Fill-37" fill="#FFC6A0"></path>
        <path d="M239.098231,342.042187 C239.216206,341.758385 239.541911,341.623955 239.825713,341.741931 C244.607931,343.729878 249.83172,344.8448 255.2421,344.8448 C260.192622,344.8448 264.676078,343.969687 269.44261,342.294771 C269.732575,342.19288 270.050238,342.345344 270.152129,342.63531 C270.25402,342.925275 270.101556,343.242938 269.81159,343.344829 C264.933583,345.058917 260.328345,345.9578 255.2421,345.9578 C249.679742,345.9578 244.311795,344.81211 239.398487,342.769669 C239.114685,342.651694 238.980255,342.325989 239.098231,342.042187 Z" id="Stroke-39" fill="#DD936F" fill-rule="nonzero"></path>
        <path d="M229.33965,275.1998 C229.33965,275.1998 240.48465,266.0978 257.02965,264.5933 C263.22465,264.0293 270.09765,268.3568 274.76265,271.6328 C287.99565,280.9238 289.31115,286.5548 290.15715,296.4098 C290.85765,304.5788 287.05815,317.8073 287.05815,317.8073 C287.05815,317.8073 286.39965,305.8253 285.37065,301.4783 C282.83565,290.7788 276.92415,285.4283 271.85565,284.0198 C267.63165,304.8563 249.33015,300.9143 249.33015,300.9143 C249.33015,300.9143 254.74965,290.7788 251.37165,284.0198 C249.47115,301.9703 225.11715,299.7878 225.11715,299.7878 C225.11715,299.7878 223.42815,310.4873 223.28565,317.8073 C222.44115,314.8523 219.89415,309.2213 219.48615,300.3518 C218.64015,282.0488 229.33965,275.1998 229.33965,275.1998" id="Fill-41" fill="#253368"></path>
        <path d="M252.9147,312.77735 C252.9147,319.75385 247.2582,325.41035 240.2817,325.41035 C233.3067,325.41035 227.6502,319.75385 227.6502,312.77735 C227.6502,305.80085 233.3067,300.14585 240.2817,300.14585 C247.2582,300.14585 252.9147,305.80085 252.9147,312.77735" id="Fill-43" fill="#FFFFFF"></path>
        <path d="M240.2817,299.39585 C232.891982,299.39585 226.9002,305.387141 226.9002,312.77735 C226.9002,320.167818 232.892241,326.16035 240.2817,326.16035 C247.672414,326.16035 253.6647,320.168064 253.6647,312.77735 C253.6647,305.386895 247.672672,299.39585 240.2817,299.39585 Z M240.2817,300.89585 C246.8443,300.89585 252.1647,306.215377 252.1647,312.77735 C252.1647,319.339636 246.843986,324.66035 240.2817,324.66035 C233.720695,324.66035 228.4002,319.339418 228.4002,312.77735 C228.4002,306.215595 233.720382,300.89585 240.2817,300.89585 Z" id="Stroke-45" fill="#253368" fill-rule="nonzero"></path>
        <path d="M283.88595,312.77735 C283.88595,319.75385 278.22945,325.41035 271.25445,325.41035 C264.27795,325.41035 258.62145,319.75385 258.62145,312.77735 C258.62145,305.80085 264.27795,300.14585 271.25445,300.14585 C278.22945,300.14585 283.88595,305.80085 283.88595,312.77735" id="Fill-47" fill="#FFFFFF"></path>
        <path d="M271.25445,299.39585 C263.863478,299.39585 257.87145,305.386895 257.87145,312.77735 C257.87145,320.168064 263.863736,326.16035 271.25445,326.16035 C278.643909,326.16035 284.63595,320.167818 284.63595,312.77735 C284.63595,305.387141 278.644168,299.39585 271.25445,299.39585 Z M271.25445,300.89585 C277.815768,300.89585 283.13595,306.215595 283.13595,312.77735 C283.13595,319.339418 277.815455,324.66035 271.25445,324.66035 C264.692164,324.66035 259.37145,319.339636 259.37145,312.77735 C259.37145,306.215377 264.69185,300.89585 271.25445,300.89585 Z" id="Stroke-49" fill="#253368" fill-rule="nonzero"></path>
        <path d="M253.655067,307.673689 C254.568761,307.405051 255.499782,307.272288 256.392776,307.353944 C257.17741,307.425691 257.888662,307.662859 258.494933,308.095318 C258.832149,308.335856 258.910521,308.804218 258.669982,309.141433 C258.429444,309.478649 257.961082,309.557021 257.623867,309.316482 C257.249649,309.04955 256.791013,308.896617 256.256184,308.847712 C255.578209,308.785717 254.825514,308.893051 254.078178,309.112778 L253.790628,309.202748 C253.570834,309.275899 253.402637,309.3426 253.301202,309.388698 C252.924104,309.560073 252.479478,309.393301 252.308102,309.016202 C252.136727,308.639104 252.303499,308.194478 252.680598,308.023102 C252.882589,307.931306 253.219587,307.801726 253.655067,307.673689 Z" id="Stroke-51" fill="#253368" fill-rule="nonzero"></path>
        <g id="分组" transform="translate(237.000000, 307.260500)">
            <path d="M1.34985,5.28615 C1.34985,3.10815 2.86185,1.34115 4.72785,1.34115 C6.59385,1.34115 8.10735,3.10815 8.10735,5.28615" id="Fill-53" fill="#FFFFFF"></path>
            <path d="M1.34985,5.28615 C1.34985,3.10815 2.86185,1.34115 4.72785,1.34115 C6.59385,1.34115 8.10735,3.10815 8.10735,5.28615" id="Stroke-55" stroke="#253368" stroke-width="1.5" stroke-linecap="round" stroke-linejoin="round"></path>
        </g>
        <g id="分组" transform="translate(265.500000, 307.260500)">
            <path d="M1.3791,5.28615 C1.3791,3.10815 2.8926,1.34115 4.7586,1.34115 C6.6231,1.34115 8.1366,3.10815 8.1366,5.28615" id="Fill-56" fill="#FFFFFF"></path>
            <path d="M1.3791,5.28615 C1.3791,3.10815 2.8926,1.34115 4.7586,1.34115 C6.6231,1.34115 8.1366,3.10815 8.1366,5.28615" id="Stroke-58" stroke="#253368" stroke-width="1.5" stroke-linecap="round" stroke-linejoin="round"></path>
        </g>
        <path d="M255.52515,316.68785 C255.801762,316.68785 256.031237,316.889664 256.074366,317.154083 L256.08165,317.24435 L256.08165,321.74885 C256.08165,322.056196 255.832496,322.30535 255.52515,322.30535 C255.248538,322.30535 255.019063,322.103536 254.975934,321.839117 L254.96865,321.74885 L254.96865,317.24435 C254.96865,316.937004 255.217804,316.68785 255.52515,316.68785 Z" id="Stroke-59" fill="#DD936F" fill-rule="nonzero"></path>
        <path d="M259.895076,324.504128 C260.239741,324.274392 260.705386,324.367561 260.935122,324.712226 C261.164858,325.056891 261.071689,325.522536 260.727024,325.752272 C259.9522,326.268729 259.113885,326.633307 258.224312,326.857444 C256.211947,327.36448 254.091575,327.140402 252.046442,326.466155 C251.292042,326.217441 250.720393,325.966457 250.388717,325.791877 C250.022179,325.598945 249.881442,325.145406 250.074373,324.778867 C250.267305,324.412329 250.720844,324.271592 251.087383,324.464523 L251.263541,324.550429 C251.317807,324.575691 251.381904,324.604754 251.455337,324.636995 C251.768298,324.774402 252.124525,324.912482 252.516102,325.041578 C254.314558,325.6345 256.163257,325.829867 257.857825,325.402904 C258.584982,325.219689 259.265649,324.923671 259.895076,324.504128 Z" id="Stroke-61" fill="#F5222D" fill-rule="nonzero"></path>
        <path d="M219.666592,305.208766 C219.844231,304.873187 220.240409,304.727856 220.587185,304.85523 L220.680334,304.896792 L227.860834,308.697792 C228.22692,308.89158 228.366596,309.345448 228.172808,309.711534 C227.995169,310.047113 227.598991,310.192444 227.252215,310.06507 L227.159066,310.023508 L219.978566,306.222508 C219.61248,306.02872 219.472804,305.574852 219.666592,305.208766 Z" id="Stroke-63" fill="#253368" fill-rule="nonzero"></path>
        <path d="M289.128988,304.547998 C289.454671,304.292062 289.926167,304.348604 290.182102,304.674288 C290.414771,304.970364 290.389194,305.386945 290.13793,305.652529 L290.055812,305.727402 L284.144312,310.372902 C283.818629,310.628838 283.347133,310.572296 283.091198,310.246612 C282.858529,309.950536 282.884106,309.533955 283.13537,309.268371 L283.217488,309.193498 L289.128988,304.547998 Z" id="Stroke-65" fill="#253368" fill-rule="nonzero"></path>
        <path d="M293.3913,364.8899 L277.3428,357.2879 C278.8293,367.4384 237.8733,371.1029 231.6708,359.4254 C231.5118,359.1284 231.3873,358.8494 231.2808,358.5809 L205.1223,369.1139 L228.7143,535.9634 C228.7143,535.9634 262.5003,549.4784 294.3168,536.7104 C305.0163,394.8044 293.3913,364.8899 293.3913,364.8899" id="Fill-67" fill="#597EF7"></path>
        <path d="M271.534809,370.314622 C271.818975,370.172551 272.164508,370.287742 272.306578,370.571909 C272.448649,370.856075 272.333458,371.201608 272.049291,371.343678 C270.950029,371.893261 269.828549,372.384465 268.686262,372.818937 C259.853514,376.178492 250.445503,376.042896 241.580975,373.802203 C240.402049,373.504205 239.321921,373.187779 238.353179,372.868432 L237.878149,372.708586 C237.592012,372.610298 237.331847,372.517143 237.098708,372.430419 L236.51641,372.204278 C236.223352,372.081594 236.085237,371.744568 236.207922,371.45151 C236.318338,371.187758 236.60237,371.04951 236.871712,371.113934 L236.96069,371.143022 C237.013926,371.165308 237.123168,371.209124 237.285881,371.271403 L237.733526,371.437837 C237.894637,371.496146 238.067538,371.557158 238.251911,371.620491 C239.309045,371.983618 240.51949,372.347205 241.86292,372.686785 C250.518283,374.874607 259.697542,375.006906 268.277253,371.743594 C269.383881,371.322686 270.470156,370.846901 271.534809,370.314622 Z" id="Stroke-69" fill="#3C65D6" fill-rule="nonzero"></path>
        <path d="M191.6652,371.9432 C203.4912,366.0302 214.4712,363.0737 223.2657,359.7077 C228.4527,357.7217 233.3742,353.1467 237.1557,351.8237 C260.0712,467.5187 245.4462,626.0897 244.5312,677.4902 C215.8137,681.7127 184.2522,661.6682 184.2522,661.6682 C184.2522,661.6682 186.5532,565.3742 186.5532,509.6267 C186.5532,440.0417 188.6412,373.4552 191.6652,371.9432" id="Fill-71" fill="#E4EBF7"></path>
        <path d="M236.006587,350.74915 C236.456487,350.452596 237.063003,350.713107 237.157682,351.24357 L237.548185,353.507845 L238.059061,356.5785 C238.375708,358.511672 238.713344,360.626175 239.068404,362.911756 L239.307653,364.460709 C240.919101,374.953016 242.530465,386.615739 244.034385,399.140129 C248.060633,432.670035 250.586372,466.083498 250.88163,497.285126 C250.921585,501.507449 250.919703,505.66722 250.874805,509.761104 C250.765568,519.686134 250.588117,530.141043 250.347604,541.063448 L250.22263,546.542793 C249.768119,565.814985 249.135342,586.063487 248.365339,606.79086 L248.14164,612.725567 C247.567905,627.732117 246.956607,642.140049 246.342174,655.531909 L245.677086,669.601317 L245.280329,677.52948 C245.258718,677.943129 244.90587,678.260939 244.49222,678.240369 C244.113042,678.219519 243.814395,677.921377 243.783899,677.553209 L243.790851,677.287885 L244.297122,667.091204 C244.417505,664.595357 244.544187,661.923926 244.676173,659.08897 L245.011175,651.786939 C245.540939,640.067848 246.066037,627.619314 246.56429,614.710311 L246.866365,606.735379 C247.636131,586.014419 248.268701,565.772586 248.723041,546.507673 L248.847967,541.030426 C249.088364,530.113316 249.265722,519.663873 249.374895,509.744625 C249.419679,505.661138 249.421557,501.511573 249.381697,497.29932 C249.352229,494.185301 249.300491,491.049075 249.22721,487.892745 L249.17,485.611 L249.122099,485.594668 C248.914196,485.507726 248.750321,485.329021 248.687919,485.102363 L248.667555,485.002415 C246.979468,472.463161 245.047833,462.606345 242.326776,452.25079 L241.795164,450.257506 C240.544058,445.631335 239.131743,440.843312 237.077295,434.17777 L232.714679,420.127009 C231.77487,417.089814 230.951085,414.405359 230.10969,411.633712 C223.858231,391.040728 222.061165,374.070016 222.727406,361.92018 L222.758877,361.379383 C222.776456,361.093926 222.794814,360.831241 222.813505,360.591595 L222.880923,359.835082 C222.886363,359.782826 222.890961,359.741406 222.894584,359.710899 C222.916298,359.528064 223.004273,359.360959 223.13975,359.239968 L223.226587,359.17315 L236.006587,350.74915 Z M235.876,352.631 L224.349,360.229 L224.308838,360.709828 L224.256041,361.471581 C223.527117,373.30829 225.203863,389.977537 231.270432,410.286216 L232.384701,413.95429 C232.9472,415.794244 233.521705,417.660747 234.147791,419.684077 L238.287888,433.013664 L239.151336,435.821601 C240.940729,441.669959 242.220741,446.058179 243.377335,450.363762 L243.510262,450.860272 C245.669162,458.951444 247.342,466.682353 248.78216,475.529024 L248.852,475.966 L248.754497,473.560655 C247.766557,450.274292 245.703758,426.096945 242.843777,401.82966 L242.545084,399.318963 L242.167443,396.210239 C240.775023,384.878651 239.299995,374.292019 237.825037,364.688414 L237.352568,361.646764 C236.967583,359.196887 236.605098,356.960963 236.270005,354.953069 L235.876,352.631 Z" id="Stroke-73" fill="#96A7CA" fill-rule="nonzero"></path>
        <path d="M188.219297,522.810196 L216.272297,527.622196 C216.596325,527.677777 216.841897,527.936184 216.887771,528.253605 L216.8955,528.3614 L216.8955,582.1229 C216.8955,587.120504 212.568301,590.993609 207.635051,590.485048 L207.379361,590.454819 L189.292361,588.042819 C188.881782,587.988066 188.593328,587.61084 188.648081,587.200261 C188.698271,586.823897 189.019428,586.550152 189.388856,586.549315 L189.490639,586.555981 L207.577655,588.967983 C211.640209,589.509834 215.259096,586.41745 215.391736,582.35393 L215.3955,582.1229 L215.395,528.993 L187.965703,524.288604 C187.591472,524.224411 187.329896,523.893268 187.342838,523.524066 L187.353296,523.422603 C187.417489,523.048372 187.748632,522.786796 188.117834,522.799738 L188.219297,522.810196 Z" id="Stroke-75" fill="#96A7CA" fill-rule="nonzero"></path>
        <path d="M314.98755,509.62595 C317.52105,569.59745 317.00055,662.84195 317.00055,662.84195 C317.00055,662.84195 289.47105,680.96945 260.75355,676.74695 C259.83705,625.34645 247.60305,470.17295 272.63055,351.08045 C276.41055,352.40495 281.73255,356.14895 286.51905,358.96445 C293.99205,363.36095 305.04105,364.34195 316.86705,370.25345 L314.98755,509.62595 Z" id="Fill-77" fill="#E4EBF7"></path>
        <path d="M272.775469,350.328358 C272.904154,349.868692 273.41758,349.652434 273.830245,349.858086 L273.916954,349.908677 L286.563454,358.434677 C286.760567,358.567566 286.883007,358.786036 286.893473,359.02353 L286.904786,359.402388 L286.913414,359.92859 C286.926315,361.123938 286.900395,362.677489 286.813022,364.572046 C286.666203,367.755602 286.368021,371.340285 285.883699,375.299664 C284.610801,385.705718 282.24977,397.218177 278.548476,409.645143 L271.139756,433.903466 L270.154718,437.185772 C268.339382,443.275746 266.927272,448.263563 265.667562,453.084992 L265.504096,453.713007 C262.50516,465.278251 260.366721,476.083908 258.663495,488.735615 C258.612835,489.111917 258.291337,489.385261 257.921909,489.385638 L257.820135,489.378845 L257.794,489.373 L257.793026,489.4008 C257.334421,504.937562 257.226458,521.139033 257.510407,537.991043 L257.543571,539.866165 L257.69584,547.836468 C258.034957,565.057803 258.433317,581.963868 258.879873,598.447076 L259.185842,609.416288 C259.678026,626.566753 260.196922,642.370063 260.715812,656.566068 L261.030884,664.980073 L261.502989,676.714905 C261.521018,677.128726 261.200166,677.47881 260.786345,677.497563 C260.407009,677.513366 260.08123,677.245138 260.015681,676.881571 L260.000746,676.695558 L259.630783,667.587929 C259.533673,665.102759 259.431451,662.421981 259.324849,659.552705 L259.055765,652.16271 C258.554911,638.134153 258.056638,622.632231 257.584997,605.891069 L257.484348,602.284794 C256.925573,582.074181 256.438533,561.210383 256.043829,539.89394 C255.010419,484.102188 258.258991,435.374803 264.310672,394.219776 L264.67031,391.805762 C266.356009,380.637153 268.142837,370.824385 269.93354,362.400854 L270.41994,360.14749 C270.954192,357.710991 271.45651,355.548526 271.918891,353.662841 L272.292309,352.16598 L272.738819,350.46108 C272.753526,350.407287 272.765759,350.363041 272.775469,350.328358 Z M285.405,359.463 L273.95,351.74 L273.584723,353.175728 L273.249304,354.538508 C272.740182,356.637572 272.184238,359.065638 271.591859,361.819137 L271.209463,363.617991 C269.361528,372.415166 267.520611,382.700866 265.794713,394.437999 C262.005403,420.207562 259.31693,448.956816 258.094305,480.560443 L258.013,482.697 L258.215915,481.388103 C259.674224,472.082141 261.440503,463.572867 263.708181,454.674346 L264.381996,452.073911 C265.771202,446.796388 267.352851,441.277534 269.449677,434.312676 L276.73854,410.455188 C280.630155,397.635785 283.089771,385.786238 284.394796,375.117537 C284.840207,371.47626 285.126426,368.157786 285.281215,365.183257 L285.314615,364.502943 C285.400603,362.638423 285.426055,361.114592 285.413548,359.948649 L285.405,359.463 Z" id="Stroke-79" fill="#96A7CA" fill-rule="nonzero"></path>
        <path d="M314.421202,523.241907 C314.831683,523.186431 315.209417,523.47422 315.264893,523.884702 C315.315746,524.260977 315.078161,524.609734 314.722035,524.707978 L314.622098,524.728393 L288.39,528.273 L288.39015,581.38115 C288.39015,585.479885 291.933397,588.657432 295.978461,588.252977 L296.207942,588.22624 L314.293442,585.81274 C314.704016,585.75795 315.081269,586.046369 315.13606,586.456942 C315.186285,586.833302 314.948118,587.181662 314.591828,587.279311 L314.491858,587.29956 L296.406066,589.713098 C291.452664,590.372149 287.042078,586.595926 286.893989,581.6386 L286.89015,581.38115 L286.89015,527.61815 C286.89015,527.276883 287.119522,526.983402 287.440724,526.895089 L287.539702,526.874907 L314.421202,523.241907 Z" id="Stroke-81" fill="#96A7CA" fill-rule="nonzero"></path>
        <path d="M149.66385,492.6485 L149.66385,492.6485 C138.56385,488.2985 133.34985,475.553 138.22335,464.6705 L174.67635,383.2655 C179.23185,373.0925 190.97385,368.291 201.35235,372.3575 C212.45385,376.706 217.66635,389.453 212.79435,400.3355 L176.33985,481.7405 C171.78585,491.9135 160.04235,496.715 149.66385,492.6485" id="Fill-83" fill="#E4EBF7"></path>
        <path d="M369.4914,476.48975 L369.4914,476.48975 C360.0894,483.82175 346.4664,481.80575 339.5904,472.06625 L288.1479,399.20075 C281.7204,390.09425 283.5774,377.54525 292.3674,370.69025 C301.7694,363.35825 315.3924,365.37275 322.2684,375.11375 L373.7109,447.97925 C380.1384,457.08425 378.2814,469.63475 369.4914,476.48975" id="Fill-85" fill="#E4EBF7"></path>
        <path d="M267.73455,402.7568 L246.94755,402.1703 C244.88655,402.1118 243.22455,400.4618 243.15405,398.3993 L241.67955,355.1618 C241.60305,352.9103 243.44205,351.0608 245.69355,351.1238 L271.86405,351.8618 C274.11555,351.9248 275.84655,353.8763 275.64255,356.1188 L271.73355,399.2063 C271.54755,401.2598 269.79555,402.8153 267.73455,402.7568" id="Fill-87" fill="#607493"></path>
        <path d="M267.67155,404.99435 L246.88455,404.40785 C244.82355,404.34935 243.16155,402.69935 243.09105,400.63685 L241.61655,357.39935 C241.54005,355.14785 243.37905,353.29835 245.63055,353.36135 L271.79955,354.09935 C274.05255,354.16235 275.78205,356.11385 275.57955,358.35635 L271.67055,401.44385 C271.48455,403.49735 269.73255,405.05285 267.67155,404.99435" id="Fill-89" fill="#253368"></path>
        <path d="M243.2571,416.3132 C243.2571,416.3132 226.9506,420.6227 220.1511,411.8327 C213.9921,403.8722 220.5741,395.7827 220.5741,395.7827 C220.5741,395.7827 223.0071,391.6517 232.1946,385.8212 C236.9256,382.8182 242.7171,371.2742 242.5551,375.2207 C242.2356,383.0987 242.2896,385.4087 242.3316,389.1572 C242.4126,396.7517 268.1931,391.1207 272.4291,391.9682 C280.7136,393.6227 271.0251,410.4947 243.2571,416.3132" id="Fill-91" fill="#FFC6A0"></path>
        <path d="M272.672463,395.448038 C272.947922,395.311714 273.281738,395.424505 273.418062,395.699963 C273.554386,395.975422 273.441595,396.309238 273.166137,396.445562 C271.811423,397.116007 270.381806,397.70864 268.886378,398.227645 C265.290737,399.475553 261.450117,400.259173 257.568029,400.669115 C255.188501,400.920389 253.131535,401.001137 251.563299,400.983273 L250.996949,400.971351 C250.68985,400.959007 250.450905,400.700047 250.463249,400.392949 C250.475593,400.08585 250.734553,399.846905 251.041651,399.859249 L251.258258,399.86521 C252.818569,399.898117 254.951718,399.826205 257.451148,399.562269 C261.254233,399.16067 265.013477,398.393653 268.521452,397.176171 C269.974135,396.672001 271.360843,396.097156 272.672463,395.448038 Z" id="Stroke-93" fill="#DD936F" fill-rule="nonzero"></path>
        <path d="M271.762486,401.316307 C271.910881,401.585455 271.812991,401.923941 271.543843,402.072336 L271.312274,402.194017 L271.068833,402.3158 C270.686266,402.504053 270.23316,402.713181 269.711003,402.93791 C268.224829,403.577538 266.48038,404.216223 264.489567,404.811732 C260.031954,406.145133 255.003438,407.068306 249.456168,407.39802 C249.149363,407.416255 248.885866,407.182324 248.86763,406.875518 C248.849395,406.568713 249.083326,406.305216 249.390132,406.28698 C254.849074,405.962516 259.793084,405.054858 264.170601,403.745416 C266.119356,403.162487 267.8235,402.538559 269.271004,401.915574 C269.775634,401.698389 270.211609,401.497167 270.577424,401.317158 L271.006457,401.097664 C271.275605,400.949269 271.614091,401.047159 271.762486,401.316307 Z" id="Stroke-95" fill="#DD936F" fill-rule="nonzero"></path>
        <path d="M262.431562,408.301133 C262.723978,408.206505 263.03774,408.366845 263.132367,408.659262 C263.226995,408.951678 263.066655,409.26544 262.774238,409.360067 C258.459268,410.756414 254.599998,411.681011 251.232098,412.222138 L250.642871,412.313668 C248.754803,412.596777 247.363148,412.713013 246.496924,412.734446 L246.178526,412.738133 C245.866629,412.735939 245.619242,412.485031 245.6214,412.177692 C245.623369,411.901087 245.826799,411.673043 246.091516,411.631784 L246.181832,411.625138 L246.483798,411.619675 C246.692169,411.612772 246.968001,411.598785 247.310172,411.574523 C248.208446,411.510827 249.266073,411.394671 250.477826,411.212973 C253.922618,410.696439 257.921105,409.76074 262.431562,408.301133 Z" id="Stroke-97" fill="#DD936F" fill-rule="nonzero"></path>
        <path d="M215.67255,393.9473 L239.88405,420.3353 L170.03955,488.4863 C161.53155,496.2923 148.30755,495.7238 140.50155,487.2158 C132.69555,478.7078 133.26555,465.4838 141.77205,457.6778 L215.67255,393.9473 Z" id="Fill-99" fill="#E4EBF7"></path>
        <path d="M215.568252,393.02354 C215.847079,392.781287 216.25518,392.780924 216.533453,393.007789 L216.612781,393.082651 L240.824281,419.470651 C241.068532,419.736859 241.08516,420.133678 240.879295,420.417487 L240.80244,420.50757 L189.85044,471.54807 C189.557801,471.841217 189.082928,471.841629 188.78978,471.54899 C188.523283,471.282955 188.498715,470.866312 188.716315,470.572512 L188.78886,470.48833 L239.233,419.955 L216.001,394.634 L163.204548,440.50586 C162.920292,440.75283 162.502956,440.747804 162.225318,440.509927 L162.14649,440.431598 C161.89952,440.147342 161.904546,439.730006 162.142423,439.452368 L162.220752,439.37354 L215.568252,393.02354 Z" id="Stroke-101" fill="#96A7CA" fill-rule="nonzero"></path>
        <path d="M205.922519,405.613653 C206.19999,405.359084 206.61731,405.35282 206.90128,405.5831 L206.982197,405.659269 L227.539697,428.066269 C227.819723,428.371487 227.7993,428.845922 227.494081,429.125947 C227.21661,429.380516 226.79929,429.38678 226.51532,429.1565 L226.434403,429.080331 L205.876903,406.673331 C205.596877,406.368113 205.6173,405.893678 205.922519,405.613653 Z" id="Stroke-103" fill="#96A7CA" fill-rule="nonzero"></path>
        <path d="M307.57545,492.7319 L328.63395,521.7689 C328.63395,521.7689 365.85795,485.9414 374.30445,471.6149 C391.67595,442.1519 346.71195,447.6494 346.71195,447.6494 L307.57545,492.7319 Z" id="Fill-105" fill="#E4EBF7"></path>
        <path d="M350.075252,442.103721 C350.339039,441.784364 350.811771,441.739315 351.131129,442.003102 C351.421454,442.242908 351.485077,442.655396 351.296059,442.968351 L351.231748,443.058979 L321.668248,478.850479 C321.404461,479.169836 320.931729,479.214885 320.612371,478.951098 C320.322046,478.711292 320.258423,478.298804 320.447441,477.985849 L320.511752,477.895221 L350.075252,442.103721 Z" id="Stroke-107" fill="#96A7CA" fill-rule="nonzero"></path>
        <path d="M321.4506,513.27612 C321.738105,513.032939 322.155337,513.043496 322.429798,513.285033 L322.50758,513.3644 L329.20658,521.2844 C329.474079,521.600655 329.434555,522.073881 329.1183,522.34138 C328.830795,522.584561 328.413563,522.574004 328.139102,522.332467 L328.06132,522.2531 L321.36232,514.3331 C321.094821,514.016845 321.134345,513.543619 321.4506,513.27612 Z" id="Stroke-109" fill="#96A7CA" fill-rule="nonzero"></path>
        <path d="M327.417231,492.962741 C327.725712,492.746789 328.140244,492.795346 328.391537,493.060902 L328.461759,493.147031 L340.287759,510.040031 C340.525307,510.37936 340.442797,510.847011 340.103469,511.084559 C339.794988,511.300511 339.380456,511.251954 339.129163,510.986398 L339.058941,510.900269 L327.232941,494.007269 C326.995393,493.66794 327.077903,493.200289 327.417231,492.962741 Z" id="Stroke-111" fill="#96A7CA" fill-rule="nonzero"></path>
        <path d="M302.36205,487.36625 C302.36205,487.36625 314.24205,476.06975 318.18555,476.52725 C324.29955,477.23525 320.00655,489.05525 320.00655,489.05525 C320.00655,489.05525 325.19355,492.56375 321.67305,498.55625 C323.79855,504.43625 320.52855,507.20825 320.52855,507.20825 C320.52855,507.20825 323.88705,511.69625 318.99255,515.24825 C314.09805,518.80175 303.08505,517.61825 304.82205,509.98625 C300.45405,505.68425 304.15155,501.50675 304.15155,501.50675 C304.15155,501.50675 300.99255,497.42675 304.68405,493.45175 C301.48755,491.58725 301.13505,488.55575 302.36205,487.36625" id="Fill-113" fill="#FFC6A0"></path>
        <path d="M316.21054,486.301364 C316.478142,486.150198 316.81762,486.244588 316.968786,486.51219 C317.103156,486.750058 317.043506,487.044718 316.840646,487.21343 L316.75796,487.270436 L304.95746,493.936436 C304.689858,494.087602 304.35038,493.993212 304.199214,493.72561 C304.064844,493.487742 304.124494,493.193082 304.327354,493.02437 L304.41004,492.967364 L316.21054,486.301364 Z" id="Stroke-115" fill="#DD936F" fill-rule="nonzero"></path>
        <path d="M317.655237,476.35759 C317.749186,476.064955 318.062575,475.903888 318.35521,475.997837 C321.182446,476.905508 322.316169,479.316359 322.14517,482.644702 C322.07411,484.027826 321.781547,485.496779 321.33866,486.97421 C321.159702,487.571201 320.967979,488.12909 320.776006,488.633184 L320.662,488.925 L320.867143,489.148664 C321.218858,489.541707 321.569939,489.988668 321.898036,490.482944 C323.601387,493.04903 324.047302,495.788844 322.448596,498.394336 L322.301,498.624 L322.32374,498.677274 C323.567505,501.810917 323.338119,504.325643 322.14917,506.214926 L322.018134,506.414956 C321.732649,506.83395 321.444038,507.156581 321.191325,507.388141 L321.085,507.481 L321.060594,512.659305 C321.059299,512.935914 320.856413,513.164442 320.591796,513.206333 L320.501495,513.213194 C320.224886,513.211899 319.996358,513.009013 319.954467,512.744396 L319.947606,512.654095 L319.973106,507.206095 C319.973819,507.053862 320.036756,506.909999 320.144939,506.806535 L320.338314,506.651786 C320.375841,506.619551 320.419628,506.58028 320.468652,506.533912 C320.681729,506.332381 320.896736,506.084145 321.098346,505.788251 C322.231698,504.124881 322.458313,501.830321 321.160381,498.774242 C321.084445,498.595444 321.107237,498.389991 321.220514,498.232184 C322.877631,495.923643 322.55124,493.479497 320.970736,491.09848 C320.673959,490.651386 320.35553,490.245995 320.037736,489.89086 L319.791335,489.625366 C319.722219,489.553993 319.667056,489.50008 319.628652,489.464632 C319.453962,489.303391 319.400986,489.048987 319.496796,488.831419 L319.555155,488.694156 C319.590131,488.609747 319.633456,488.502095 319.683565,488.373105 L319.735878,488.237074 C319.918669,487.757091 320.101711,487.224462 320.272532,486.654618 C320.691823,485.255898 320.967718,483.870638 321.033636,482.587595 C321.181521,479.709144 320.275938,477.78343 318.01499,477.057563 C317.722355,476.963614 317.561288,476.650225 317.655237,476.35759 Z" id="Stroke-117" fill="#DD936F" fill-rule="nonzero"></path>
        <path d="M315.34563,497.926376 C315.642469,497.846698 315.947696,498.022741 316.027374,498.31958 C316.099084,498.586735 315.96366,498.860685 315.719463,498.970888 L315.63417,499.001324 L304.29567,502.044824 C303.998831,502.124502 303.693604,501.948459 303.613926,501.65162 C303.542216,501.384465 303.67764,501.110515 303.921837,501.000312 L304.00713,500.969876 L315.34563,497.926376 Z" id="Stroke-119" fill="#DD936F" fill-rule="nonzero"></path>
        <path d="M315.646535,507.596244 C315.949605,507.545149 316.236711,507.749415 316.287806,508.052485 C316.333791,508.325248 316.172934,508.585081 315.919365,508.671567 L315.831565,508.693756 L304.914565,510.534256 C304.611495,510.585351 304.324389,510.381085 304.273294,510.078015 C304.227309,509.805252 304.388166,509.545419 304.641735,509.458933 L304.729535,509.436744 L315.646535,507.596244 Z" id="Stroke-121" fill="#DD936F" fill-rule="nonzero"></path>
    </g>
</svg>