<?xml version="1.0" encoding="UTF-8"?>
<svg width="512px" height="1024px" viewBox="0 0 512 1024" version="1.1" xmlns="http://www.w3.org/2000/svg" xmlns:xlink="http://www.w3.org/1999/xlink">
    <!-- Generator: Sketch 61.2 (89653) - https://sketch.com -->
    <title>2.人物组件/5.用研/站立/自信</title>
    <desc>Created with Sketch.</desc>
    <defs>
        <polygon id="path-1" points="1.31336961 0.97185 58.4398123 0.97185 58.4398123 33 1.31336961 33"></polygon>
        <polygon id="path-3" points="0.686942165 0.2625 83.502562 0.2625 83.502562 82.362 0.686942165 82.362"></polygon>
    </defs>
    <g id="2.人物组件/5.用研/站立/自信" stroke="none" stroke-width="1" fill="none" fill-rule="evenodd">
        <path d="M338.2637,342.76515 C338.2637,342.76515 355.5212,301.93065 373.2587,292.35915 C378.2897,292.91715 373.0697,299.20965 369.1592,304.38615 C367.1582,307.03365 365.7167,310.45665 365.7167,310.45665 C365.7167,310.45665 372.6842,310.24515 370.9247,316.01715 C376.4852,316.15815 374.0222,322.21215 374.0222,322.21215 C374.0222,322.21215 378.2807,322.53465 376.4852,328.19565 C375.2507,332.08665 369.2672,336.26565 368.0387,340.44315 C364.8707,351.21165 354.9257,353.76465 351.7787,354.02715 C343.8122,354.69165 339.5912,351.39465 338.2637,342.76515" id="Fill-1" fill="#FFC999"></path>
        <path d="M355.566753,313.015909 C357.282719,308.072951 359.637081,306.130194 361.392274,308.073606 C362.860866,309.699685 362.855438,313.555422 361.189516,316.935385 L360.821411,317.690136 C357.92144,323.702238 357.604885,326.05294 358.468913,328.808406 L358.579844,329.149818 C358.890291,330.097457 359.031224,330.701911 359.056306,331.461591 L359.064648,332.331405 C359.085434,334.498703 359.014675,335.766614 358.672057,337.263097 C357.838681,340.903106 355.601825,343.354992 351.464175,344.162338 C351.159265,344.221833 350.863856,344.022885 350.804362,343.717975 C350.744867,343.413065 350.943815,343.117656 351.248725,343.058162 C354.920558,342.341706 356.835869,340.242275 357.575431,337.012026 C357.872834,335.71303 357.950325,334.576369 357.942386,332.72274 L357.93545,331.72125 C357.93545,331.051159 357.843374,330.557079 357.598222,329.77285 L357.454522,329.328918 C356.385507,326.076389 356.756012,323.387358 360.180406,316.43807 C361.662883,313.430295 361.667632,310.056958 360.557376,308.827644 C359.661824,307.836055 358.102533,309.126723 356.635314,313.367383 L356.535428,313.661098 L356.494069,313.755193 L349.423069,326.527693 C349.272603,326.799483 348.930297,326.897835 348.658507,326.747369 C348.416916,326.613622 348.312362,326.328297 348.397788,326.075656 L348.438831,325.982807 L355.485,313.253 L355.566753,313.015909 Z" id="Stroke-3" fill="#DD9987" fill-rule="nonzero"></path>
        <path d="M371.209299,315.531458 C371.477456,315.688307 371.56769,316.032842 371.410842,316.300999 L371.188712,316.671849 C371.01143,316.963857 370.809631,317.288932 370.586819,317.638872 C369.949995,318.63904 369.271576,319.639423 368.578998,320.574928 C367.951297,321.422798 367.341458,322.176632 366.758614,322.812526 C365.184545,324.529866 363.878325,325.350022 362.767066,324.917308 C360.623334,324.084304 359.973739,322.445884 360.559051,320.412478 C360.811054,319.537007 361.278685,318.621926 361.899194,317.694833 C362.227639,317.204108 362.578638,316.740685 362.92982,316.317708 L363.1256,316.085998 C363.244902,315.947439 363.340657,315.841389 363.406211,315.771927 C363.619434,315.545993 363.97544,315.535689 364.201373,315.748911 C364.427307,315.962134 364.437611,316.31814 364.224389,316.544073 L364.052222,316.73472 C363.979769,316.817371 363.893203,316.918518 363.795375,317.036346 C363.467503,317.431247 363.139448,317.864377 362.83411,318.320578 C362.272891,319.159087 361.855297,319.976253 361.640154,320.723672 C361.205868,322.232402 361.614238,323.262398 363.174905,323.868836 C363.663628,324.059141 364.667882,323.428585 365.929278,322.052378 C366.482861,321.448407 367.068824,320.724087 367.674816,319.905539 C368.215052,319.175811 368.748119,318.403141 369.259044,317.621772 L369.637851,317.034649 C369.856203,316.691714 370.053801,316.373407 370.227064,316.088019 L370.439758,315.733001 C370.596607,315.464844 370.941142,315.37461 371.209299,315.531458 Z" id="Stroke-5" fill="#DD9987" fill-rule="nonzero"></path>
        <path d="M373.222621,322.273893 C373.343685,321.987793 373.673757,321.854006 373.959857,321.975071 C374.245957,322.096135 374.379744,322.426207 374.258679,322.712307 L374.12149,323.019768 L373.87813,323.530449 C373.833622,323.620835 373.787165,323.713696 373.738799,323.808788 C373.32415,324.624024 372.853612,325.439514 372.334486,326.203427 C370.646168,328.687845 368.836067,330.104476 366.897481,329.806538 C365.067915,329.524605 364.259964,328.275533 364.298769,326.51938 C364.313122,325.869839 364.440705,325.18764 364.643712,324.506204 C364.693591,324.338776 364.745848,324.179037 364.79898,324.028613 L364.944644,323.643518 C364.963557,323.597046 364.979341,323.559885 364.991367,323.532743 C365.117209,323.248712 365.449476,323.120475 365.733507,323.246317 C366.017538,323.372159 366.145775,323.704426 366.019933,323.988457 L365.949365,324.158843 C365.883735,324.326309 365.803009,324.555095 365.721885,324.827403 C365.545279,325.420216 365.435342,326.008061 365.423494,326.544232 C365.396073,327.785237 365.864258,328.509041 367.068597,328.694628 C368.433673,328.904424 369.939863,327.725642 371.404004,325.571107 C371.893993,324.850072 372.341471,324.074546 372.736052,323.298766 C372.828139,323.117714 372.912832,322.945412 372.989781,322.783849 L373.203464,322.318388 C373.211163,322.300732 373.217554,322.285865 373.222621,322.273893 Z" id="Stroke-7" fill="#DD9987" fill-rule="nonzero"></path>
        <path d="M376.161688,327.176108 C376.257616,326.88063 376.574913,326.718861 376.870392,326.814788 C377.16587,326.910716 377.327639,327.228013 377.231712,327.523492 L377.133251,327.806725 C377.054247,328.025416 376.960986,328.268421 376.853809,328.529787 C376.54744,329.276913 376.189845,330.0244 375.782656,330.725371 C374.203197,333.44439 372.300774,334.797548 370.12121,333.77177 C368.731691,333.117947 368.155537,332.074212 368.338174,330.83225 C368.448149,330.0844 368.820811,329.321362 369.369798,328.560755 C369.592937,328.2516 369.831009,327.963486 370.069316,327.702933 L370.293245,327.466452 C370.334346,327.424798 370.369199,327.390639 370.396861,327.364436 C370.622394,327.15079 370.978419,327.160427 371.192064,327.385961 C371.40571,327.611494 371.396073,327.967519 371.170539,328.181164 L371.034356,328.317986 C370.994786,328.359248 370.949498,328.407491 370.89946,328.462199 C370.688799,328.692525 370.477903,328.947753 370.282006,329.219163 C369.829235,329.846465 369.530197,330.458756 369.451203,330.995927 C369.34151,331.741861 369.654489,332.30884 370.60023,332.753849 C372.068089,333.444673 373.489148,332.433901 374.809873,330.160288 C375.188748,329.508059 375.524759,328.805688 375.812925,328.102957 L375.947299,327.766712 C376.047884,327.507942 376.1198,327.305133 376.161688,327.176108 Z" id="Stroke-9" fill="#DD9987" fill-rule="nonzero"></path>
        <path d="M194.7764,686.9199 C194.7764,686.9199 192.1124,724.5759 190.0019,753.9039 C188.8514,769.9164 188.5859,782.4234 186.7919,783.4179 C181.7129,786.2304 175.8524,783.8229 169.6754,789.5859 C163.4969,795.3519 159.0404,799.7844 142.8359,795.8424 C123.8849,791.2329 140.8694,786.5214 149.9189,778.6554 C165.8999,764.7639 164.7734,756.1794 165.1379,745.6209 C166.2284,714.1059 165.2219,678.0099 165.2219,678.0099 L194.7764,686.9199 Z" id="Fill-11" fill="#FFC6A0"></path>
        <g id="分组" transform="translate(131.000000, 767.737500)">
            <mask id="mask-2" fill="white">
                <use xlink:href="#path-1"></use>
            </mask>
            <g id="Clip-14"></g>
            <path d="M58.04595,0.97185 C58.04595,0.97185 55.13445,3.14535 45.65745,10.39035 C38.18145,16.10535 33.32745,19.55835 29.38095,17.72385 C22.17045,14.37585 16.59645,12.63435 16.59645,12.63435 C16.59645,12.63435 9.72045,15.91785 4.51995,19.68285 C-0.68055,23.44635 -0.23805,29.87235 10.95795,31.94985 C22.15545,34.02735 28.63845,33.54435 39.52845,25.68285 C50.41845,17.81985 54.96045,21.32385 56.74245,16.69785 C59.52795,9.46935 58.04595,0.97185 58.04595,0.97185" id="Fill-13" fill="#253368" mask="url(#mask-2)"></path>
        </g>
        <path d="M242.53325,684.579 C242.53325,684.579 243.69125,723.333 244.78625,752.7165 C245.38325,768.7575 245.42075,780.24 247.18025,781.2945 C252.15725,784.281 258.09875,782.0775 264.07175,788.052 C270.04775,794.0265 274.34975,798.6105 290.68025,795.2325 C309.77825,791.28 292.96775,785.9835 284.19575,777.81 C268.70225,763.374 270.12725,754.833 270.12725,744.2685 C270.12725,712.7355 272.37875,676.695 272.37875,676.695 L242.53325,684.579 Z" id="Fill-15" fill="#FFC6A0"></path>
        <polygon id="Fill-17" fill="#253368" points="175.56935 469.61325 278.12735 464.63475 278.63135 745.39875 241.31135 744.40425 223.95035 553.23075 195.98735 745.63275 155.65535 746.89875"></polygon>
        <path d="M254.9228,491.0505 C265.6223,349.1445 237.0428,312.921 237.0428,312.921 L187.2068,312.921 L189.3188,490.302 C189.3188,490.302 223.1063,503.817 254.9228,491.0505" id="Fill-19" fill="#597EF7"></path>
        <path d="M232.140509,324.653372 C232.424675,324.511301 232.770208,324.626492 232.912278,324.910659 C233.054349,325.194825 232.939158,325.540358 232.654991,325.682428 C231.554613,326.232568 230.431967,326.724212 229.288467,327.159009 C220.456535,330.517204 211.049382,330.38132 202.185549,328.140955 C200.810045,327.793291 199.56902,327.420546 198.482465,327.047341 L197.702966,326.769174 L197.120626,326.543035 C196.827564,326.420359 196.689439,326.083337 196.812115,325.790276 C196.934791,325.497214 197.271813,325.359089 197.564874,325.481765 L197.890094,325.610148 C198.164544,325.715187 198.487426,325.832571 198.856202,325.959237 C199.913418,326.322364 201.123953,326.685952 202.467477,327.025532 C211.122184,329.213041 220.300634,329.345621 228.87957,326.083624 C229.987372,325.6624 231.074776,325.186191 232.140509,324.653372 Z" id="Stroke-21" fill="#3C65D6" fill-rule="nonzero"></path>
        <path d="M191.48345,262.7172 C191.48345,262.7172 187.94945,231.6837 226.86845,233.9727 C248.54345,236.7147 247.30895,272.8032 247.30895,272.8032 C247.30895,272.8032 248.67095,280.4127 245.66645,288.1542 C242.30045,296.8272 233.95145,299.5842 223.01495,300.3462 C202.74095,299.2212 194.79095,287.9007 194.79095,287.9007 C194.79095,287.9007 180.80045,288.6642 182.32745,271.1112 C183.85295,254.8317 191.48345,262.7172 191.48345,262.7172" id="Fill-23" fill="#FFC999"></path>
        <path d="M195.1514,241.42935 C195.1514,249.40335 188.6864,255.86685 180.7139,255.86685 C172.7399,255.86685 166.2749,249.40335 166.2749,241.42935 C166.2749,233.45535 172.7399,226.99185 180.7139,226.99185 C188.6864,226.99185 195.1514,233.45535 195.1514,241.42935" id="Fill-25" fill="#253368"></path>
        <g id="分组" transform="translate(171.500000, 223.237500)">
            <mask id="mask-4" fill="white">
                <use xlink:href="#path-3"></use>
            </mask>
            <g id="Clip-28"></g>
            <path d="M75.61965,50.6865 C75.61965,50.6865 80.36115,42.465 83.20815,32.6625 C86.05365,22.8615 67.39815,3.2565 64.86915,1.677 C62.33865,0.0945 61.07415,-1.485 43.68315,4.839 C-7.94385,6.9045 4.30365,54.2055 4.30365,54.2055 C4.30365,54.2055 -1.70835,58.5555 1.77015,70.254 C5.88015,81.954 22.04115,82.362 22.04115,82.362 L22.60515,64.0605 C22.60515,64.0605 17.14365,64.4715 13.03215,58.1475 C8.92215,51.8235 12.47265,44.139 15.00315,43.506 C17.25615,41.817 22.88715,42.6615 22.88715,49.419 C22.88715,52.821 29.36265,45.1965 31.89765,32.244 C49.91865,28.767 54.43365,16.221 54.43365,16.221 C54.43365,16.221 55.06665,28.236 52.21965,33.2955 C61.70715,30.45 66.76665,25.3905 65.18415,20.016 C75.93615,24.759 75.61965,50.6865 75.61965,50.6865" id="Fill-27" fill="#253368" mask="url(#mask-4)"></path>
        </g>
        <path d="M193.54145,307.85205 L193.99895,280.56405 L229.57595,281.38455 C229.57595,281.38455 229.44095,300.01605 230.14445,307.57455 C248.44745,321.97755 198.18845,327.28005 191.00945,313.76505 C188.28695,308.64255 193.54145,307.85205 193.54145,307.85205" id="Fill-29" fill="#FFC999"></path>
        <path d="M226.74065,268.05945 C226.07615,274.97595 220.67915,280.11495 214.69115,279.53745 C208.70165,278.95995 204.38765,272.88495 205.05365,265.96995 C205.71965,259.05345 211.11515,253.91445 217.10315,254.49195 C223.09265,255.06945 227.40665,261.14445 226.74065,268.05945" id="Fill-31" fill="#FFFFFF"></path>
        <path d="M204.307103,265.898064 C203.60346,273.203911 208.192084,279.664296 214.61917,280.283988 C221.045976,280.903808 226.785271,275.43739 227.487212,268.131176 C228.19084,260.825489 223.602216,254.365104 217.175148,253.745414 C210.748801,253.125638 205.010671,258.591417 204.307103,265.898064 Z M217.03117,255.238488 C222.582121,255.773704 226.622567,261.4623 225.994105,267.987548 C225.367177,274.512971 220.313656,279.326221 214.763148,278.790914 C209.212179,278.255696 205.171733,272.5671 205.800195,266.041852 C206.418611,259.619522 211.321825,254.85644 216.767256,255.217025 L217.03117,255.238488 Z" id="Stroke-33" fill="#253368" fill-rule="nonzero"></path>
        <path d="M250.9589,267.13005 C250.2929,274.04655 245.2064,279.21555 239.5994,278.67405 C233.9909,278.13405 229.9874,272.09055 230.6534,265.17405 C231.3194,258.25755 236.4059,253.08855 242.0129,253.63005 C247.6199,254.17005 251.6249,260.21505 250.9589,267.13005" id="Fill-35" fill="#FFFFFF"></path>
        <path d="M229.906853,265.102164 C229.204027,272.401107 233.468595,278.83723 239.527521,279.420598 C245.585309,280.005633 251.002675,274.500316 251.705447,267.201936 C252.408258,259.904731 248.142392,253.4669 242.084996,252.883523 C236.026991,252.298467 230.609625,257.803784 229.906853,265.102164 Z M241.940804,254.376577 C247.096803,254.873142 250.841614,260.524623 250.212355,267.058148 C249.583133,273.592696 244.827562,278.425474 239.671496,277.927523 C234.514184,277.430965 230.770657,271.7812 231.399947,265.245936 C232.029167,258.711404 236.784738,253.878626 241.940804,254.376577 Z" id="Stroke-37" fill="#253368" fill-rule="nonzero"></path>
        <path d="M228.506839,269.574383 C228.782137,269.317464 229.199387,269.307653 229.485305,269.535511 L229.566867,269.610989 L233.508867,273.834989 C233.771473,274.116381 233.775151,274.544548 233.534435,274.829738 L233.454903,274.910717 L229.167903,278.668217 C228.856406,278.94124 228.382557,278.910051 228.109533,278.598553 C227.86133,278.315373 227.864542,277.89802 228.10121,277.619351 L228.179197,277.540183 L231.884,274.292 L228.470233,270.634411 C228.213314,270.359113 228.203503,269.941863 228.431361,269.655945 L228.506839,269.574383 Z" id="Stroke-39" fill="#DD936F" fill-rule="nonzero"></path>
        <path d="M219.984393,280.559733 C220.095219,280.16062 220.508605,279.926918 220.907717,280.037743 L221.430897,280.174255 L221.583878,280.212321 C222.121137,280.344932 222.70661,280.477648 223.319662,280.601458 C224.283527,280.796115 225.22306,280.949917 226.101422,281.047505 C227.520001,281.205112 228.691333,281.205213 229.507086,281.024208 C229.911464,280.934481 230.312016,281.189557 230.401742,281.593936 C230.491469,281.998314 230.236393,282.398866 229.832014,282.488592 C228.822045,282.712692 227.504127,282.712577 225.935789,282.538332 C225.009233,282.43539 224.027157,282.274624 223.022724,282.071773 C222.546313,281.975559 222.086298,281.874227 221.651072,281.771571 L220.919401,281.592103 C220.736953,281.545538 220.597295,281.508301 220.506383,281.483057 C220.10727,281.372231 219.873568,280.958845 219.984393,280.559733 Z" id="Stroke-41" fill="#F5222D" fill-rule="nonzero"></path>
        <path d="M266.1845,324.74535 C266.1845,324.74535 278.2445,324.73485 310.1075,380.49435 C325.8755,355.71735 337.8695,340.50285 337.8695,340.50285 L361.7675,359.08935 C361.7675,359.08935 336.125,431.17485 309.686,431.17485 C297.29,431.17485 288.686,420.25185 280.2635,409.77735 C268.022,394.55385 258.5825,377.96085 258.5825,377.96085 C258.5825,377.96085 249.59,334.03935 266.1845,324.74535" id="Fill-43" fill="#E4EBF7"></path>
        <path d="M230.2856,307.00755 C230.2856,307.00755 236.6216,330.65805 245.9126,418.29405 C252.5696,481.09155 253.7966,627.70305 253.7966,627.70305 C253.7966,627.70305 282.1406,624.69855 283.6406,618.13155 C287.7821,599.99805 284.6801,498.53355 282.5141,453.70005 C278.5721,372.04755 278.5721,345.29955 271.2536,327.28005 C263.4701,323.18055 257.3156,319.67805 243.8006,314.18805 C240.7811,312.96105 236.7866,308.78505 234.9311,307.85205 C229.8866,305.31705 230.2856,307.00755 230.2856,307.00755" id="Fill-45" fill="#E4EBF7"></path>
        <path d="M276.27006,351.871596 C276.68331,351.843352 277.041211,352.155461 277.069454,352.56871 L277.347373,356.922644 C277.455776,358.687562 277.572426,360.653839 277.695674,362.81157 L277.940447,367.196764 C278.307109,373.918542 278.670428,381.281593 279.015406,389.195895 L279.07273,390.520034 C279.635629,403.612324 280.104785,417.220225 280.448971,431.156333 C280.459198,431.57042 280.131805,431.914394 279.717717,431.925291 C279.30363,431.934848 278.959656,431.607455 278.949429,431.193367 C278.630044,418.261492 278.202973,405.612279 277.693209,393.395883 L277.45921,387.948286 C277.093228,379.665212 276.707767,372.001743 276.320462,365.063798 L275.961166,358.844299 L275.572946,352.67099 C275.544702,352.25774 275.856811,351.899839 276.27006,351.871596 Z" id="Stroke-47" fill="#96A7CA" fill-rule="nonzero"></path>
        <path d="M227.177994,263.797252 C228.186398,263.384812 229.264453,263.302261 230.298905,263.783348 C230.523367,263.887737 230.739952,264.017534 230.94742,264.173228 C231.278721,264.42185 231.345744,264.89197 231.097122,265.22327 C230.8485,265.554571 230.37838,265.621594 230.04708,265.372972 C229.922918,265.279796 229.796067,265.203775 229.666366,265.143456 C229.069346,264.865803 228.40302,264.916826 227.745839,265.185615 C227.537885,265.270669 227.388917,265.352728 227.322162,265.397213 C226.977473,265.626915 226.511838,265.5337 226.282137,265.189012 C226.052435,264.844323 226.14565,264.378688 226.490338,264.148987 C226.634917,264.052639 226.869448,263.923448 227.177994,263.797252 Z" id="Stroke-49" fill="#253368" fill-rule="nonzero"></path>
        <path d="M211.130953,297.732954 C212.657687,298.099018 214.410594,298.389785 216.345489,298.611458 C219.992395,299.02927 223.792681,299.166067 227.032019,299.141041 L228.157739,299.124665 C228.46828,299.116071 228.72699,299.360847 228.735585,299.671389 C228.744179,299.98193 228.499403,300.24064 228.188861,300.249235 L227.734262,300.258117 C224.30904,300.309715 220.181611,300.183307 216.21744,299.729147 C214.240417,299.502647 212.44393,299.204652 210.868647,298.826946 C210.566549,298.754512 210.38037,298.450895 210.452804,298.148797 C210.517994,297.876909 210.770444,297.698915 211.040511,297.718839 L211.130953,297.732954 Z" id="Stroke-51" fill="#DD9987" fill-rule="nonzero"></path>
        <path d="M155.53175,325.5906 C161.59325,322.6116 173.39825,318.4431 180.87275,314.0466 C185.65775,311.2311 189.47975,307.4856 193.25975,306.1626 C215.22275,397.6701 204.05825,580.0281 199.83275,630.7086 C171.11525,634.9326 152.43575,622.6356 152.43575,622.6356 C152.43575,622.6356 151.94675,495.4776 153.75125,437.9331 C155.25125,390.0666 152.49875,327.0816 155.53175,325.5906" id="Fill-53" fill="#E4EBF7"></path>
        <path d="M192.49542,305.178837 C192.832459,304.938051 193.300878,305.016081 193.541663,305.35312 C193.760559,305.659519 193.715972,306.074497 193.452833,306.328321 L193.36738,306.399363 L182,314.519 L182.012495,314.861589 C182.031604,315.348405 182.064424,315.919291 182.113877,316.575317 L182.140002,316.91043 C182.322051,319.172699 182.652942,321.919793 183.16977,325.165256 L183.387939,326.498955 C184.859022,335.263481 187.367369,345.891408 191.15053,358.469356 L192.341351,362.412313 C200.52063,389.654311 203.308866,403.468298 207.518195,434.735535 C207.573459,435.146045 207.285476,435.52363 206.874965,435.578895 C206.464455,435.634159 206.08687,435.346176 206.031605,434.935665 L205.440647,430.594759 C201.555822,402.402546 198.670892,388.709043 190.903482,362.839553 L190.00874,359.876462 C185.84454,346.159138 183.169794,334.703455 181.688436,325.401153 C181.20042,322.336622 180.875599,319.705726 180.68389,317.497479 L180.644836,317.030748 C180.563412,316.018911 180.520936,315.240374 180.503925,314.690219 L180.494872,314.139342 C180.496244,313.927968 180.582232,313.732377 180.729985,313.592782 L180.808904,313.527837 L192.49542,305.178837 Z" id="Stroke-55" fill="#96A7CA" fill-rule="nonzero"></path>
        <path d="M220.5722,266.2731 C220.5722,267.9846 219.8147,269.3706 218.8817,269.3706 C217.9502,269.3706 217.1927,267.9846 217.1927,266.2731 C217.1927,264.5631 217.9502,263.1771 218.8817,263.1771 C219.8147,263.1771 220.5722,264.5631 220.5722,266.2731" id="Fill-57" fill="#253368"></path>
        <path d="M242.53325,266.5551 C242.53325,268.2651 241.77725,269.6511 240.84425,269.6511 C239.91125,269.6511 239.15525,268.2651 239.15525,266.5551 C239.15525,264.8436 239.91125,263.4576 240.84425,263.4576 C241.77725,263.4576 242.53325,264.8436 242.53325,266.5551" id="Fill-59" fill="#253368"></path>
        <path d="M230.083026,305.18398 C230.291875,304.870646 230.695691,304.76516 231.026339,304.921173 L231.12307,304.975876 L242.94907,312.858376 C243.092968,312.954289 243.1993,313.096984 243.250062,313.2623 L243.334285,313.550845 C243.400712,313.784657 243.477484,314.06603 243.563735,314.395563 L243.731243,315.049913 C243.931248,315.847981 244.146971,316.767566 244.37515,317.81092 L244.613994,318.927218 C245.330175,322.347808 246.041901,326.414532 246.714263,331.151499 L246.825953,331.947203 C250.454055,358.084593 251.635868,393.654943 248.91279,439.66626 C248.888318,440.07975 248.53328,440.395111 248.11979,440.37064 C247.7063,440.346168 247.390939,439.99113 247.41541,439.57764 L247.573792,436.835218 C250.084719,392.246749 248.882009,357.669171 245.340199,332.153439 L245.117638,330.585301 C244.445775,325.955314 243.737595,321.994305 243.028049,318.678123 L242.909785,318.131393 C242.684972,317.103436 242.47287,316.199241 242.27674,315.41655 L242.013347,314.401317 L241.89,313.955 L230.29113,306.224024 C229.977796,306.015175 229.87231,305.611359 230.028323,305.280711 L230.083026,305.18398 Z" id="Stroke-61" fill="#96A7CA" fill-rule="nonzero"></path>
        <path d="M213.81485,443.80635 L236.43635,376.21335 C236.80835,375.10035 237.85085,374.34885 239.02685,374.34885 L299.89235,374.34885 C301.78385,374.34885 303.10085,376.22235 302.46485,378.00135 L278.91485,443.77785 C278.53685,444.83685 277.54835,445.55385 276.42635,445.58835 L216.48935,447.40485 C214.58885,447.46185 213.21185,445.60935 213.81485,443.80635" id="Fill-63" fill="#4E5C93"></path>
        <path d="M217.0346,443.02185 L239.2601,376.60785 C239.7116,375.25785 240.9761,374.34885 242.3981,374.34885 L304.0151,374.34885 C305.3366,374.34885 306.2591,375.65835 305.8151,376.90335 L281.9411,443.58885 C281.5196,444.76185 280.4276,445.55685 279.1841,445.59435 L220.2716,447.37935 C217.9706,447.44985 216.3041,445.20585 217.0346,443.02185" id="Fill-65" fill="#090D33"></path>
        <path d="M247.54595,380.8467 C248.22545,381.6222 247.95845,382.9662 246.95195,383.8467 C245.94545,384.7272 244.57895,384.8127 243.89945,384.0372 C243.22145,383.2617 243.48845,381.9192 244.49495,381.0372 C245.50145,380.1567 246.86795,380.0712 247.54595,380.8467" id="Fill-67" fill="#253368"></path>
        <path d="M246.71825,381.6369 C247.06925,382.0404 246.93275,382.7364 246.40925,383.1939 C245.88575,383.6514 245.17775,383.6964 244.82525,383.2929 C244.47275,382.8909 244.61075,382.1934 245.13275,381.7359 C245.65625,381.2784 246.36575,381.2349 246.71825,381.6369" id="Fill-69" fill="#E1E7F3"></path>
        <path d="M204.951581,265.226928 C205.361941,265.170557 205.740301,265.457521 205.796672,265.867881 C205.848346,266.244044 205.611522,266.593319 205.255611,266.692339 L205.155719,266.712972 L193.362719,268.332972 C192.952359,268.389343 192.573999,268.102379 192.517628,267.692019 C192.465954,267.315856 192.702778,266.966581 193.058689,266.867561 L193.158581,266.846928 L204.951581,265.226928 Z" id="Stroke-71" fill="#253368" fill-rule="nonzero"></path>
        <path d="M241.0772,431.40795 C244.5782,431.11695 246.4367,429.67995 246.1457,426.76245 C250.3682,425.49495 249.9467,421.92795 249.9467,421.92795 C249.9467,421.92795 258.0437,421.91295 259.4522,418.47195 C259.9997,417.13545 258.9917,415.68495 257.5517,415.56645 C240.2267,414.15795 227.9837,404.80095 227.9837,404.80095 C227.9837,404.80095 234.9377,394.87995 234.2792,390.25095 C234.0842,388.87995 232.3037,388.41495 231.4547,389.50545 C224.1752,398.84595 209.7377,406.05045 209.7377,406.05045 C209.7377,406.05045 192.3092,421.94145 210.8792,429.50745 C210.8792,429.50745 225.0347,435.37095 234.9527,434.78595 C239.6492,434.50995 241.0772,431.40795 241.0772,431.40795" id="Fill-73" fill="#FFC999"></path>
        <path d="M237.211006,418.668868 C237.366189,418.399743 237.710158,418.307374 237.979282,418.462556 C239.223095,419.179762 240.682543,419.768974 242.313779,420.239467 C244.304025,420.813508 246.442869,421.183649 248.582724,421.38938 C249.182373,421.447032 249.747555,421.488198 250.26892,421.515514 L250.943581,421.544196 C251.164104,421.551262 251.32672,421.55385 251.4248,421.55385 C251.73546,421.55385 251.9873,421.80569 251.9873,422.11635 C251.9873,422.42701 251.73546,422.67885 251.4248,422.67885 L251.0428,422.672611 C250.917902,422.669247 250.771585,422.664345 250.605268,422.657492 C249.961899,422.630982 249.245849,422.583322 248.47506,422.509216 C246.271052,422.297318 244.066033,421.915725 242.002007,421.320403 C240.28883,420.826276 238.746661,420.203667 237.417318,419.437144 C237.148193,419.281961 237.055824,418.937992 237.211006,418.668868 Z" id="Stroke-75" fill="#DD936F" fill-rule="nonzero"></path>
        <path d="M235.506335,423.977092 C235.645266,423.699229 235.983145,423.586603 236.261008,423.725535 C236.450266,423.820164 236.641664,423.912076 236.835122,424.001303 C238.917389,424.961693 241.154617,425.58081 243.392889,425.924925 C244.019826,426.021311 244.610559,426.090118 245.155233,426.135756 L245.554947,426.16571 C245.942394,426.191238 246.215959,426.19965 246.35645,426.19965 C246.66711,426.19965 246.91895,426.45149 246.91895,426.76215 C246.91895,427.07281 246.66711,427.32465 246.35645,427.32465 L246.183219,427.322198 C246.012307,427.317939 245.77593,427.30771 245.480983,427.288276 C244.798314,427.243295 244.039011,427.162478 243.221939,427.03686 C240.886656,426.677832 238.55033,426.031291 236.363946,425.02288 C236.159831,424.928737 235.957786,424.831712 235.757892,424.731765 C235.480029,424.592834 235.367403,424.254955 235.506335,423.977092 Z" id="Stroke-77" fill="#DD936F" fill-rule="nonzero"></path>
        <path d="M232.339263,429.888535 C232.478392,429.610771 232.816351,429.498385 233.094115,429.637513 C233.658765,429.92034 235.004223,430.196575 236.834797,430.4328 C237.536,430.523286 238.275805,430.604154 239.025368,430.675328 L240.119947,430.772037 L241.113345,430.846612 C241.423363,430.866575 241.6585,431.134077 241.638538,431.444095 C241.618575,431.754113 241.351073,431.98925 241.041055,431.969288 L240.02831,431.893298 C239.915497,431.884063 239.799552,431.874343 239.680787,431.864136 C238.662236,431.7766 237.643426,431.671477 236.690816,431.548548 L236.020533,431.457486 C234.403025,431.225711 233.22643,430.962024 232.590285,430.643387 C232.312521,430.504258 232.200135,430.166299 232.339263,429.888535 Z" id="Stroke-79" fill="#DD936F" fill-rule="nonzero"></path>
        <path d="M151.871,327.56145 C164.648,318.06045 178.574,330.12645 174.3965,358.53195 C165.95,391.19295 160.1285,407.33445 160.1285,407.33445 L211.514,404.85945 C211.514,404.85945 211.514,417.89295 213.203,438.16545 C174.347,443.59695 142.439,448.30245 130.1915,444.07845 C126.0185,442.63995 119.2115,441.54495 119.006,425.50845 C118.664,398.77095 133.4705,341.24445 151.871,327.56145" id="Fill-81" fill="#E4EBF7"></path>
        <path d="M170.095148,361.511732 C170.184352,361.107238 170.584573,360.851645 170.989068,360.940848 C171.393562,361.030052 171.649155,361.430273 171.559952,361.834768 L170.463016,366.777995 C167.801212,378.696882 165.465075,388.591436 163.460741,396.601128 L162.557711,400.16847 C162.179949,401.642192 161.833675,402.967861 161.51906,404.149347 L161.159121,405.489032 L160.989,406.11 L211.474804,403.498752 C211.870675,403.478273 212.207775,403.767893 212.257294,404.150332 L212.26355,404.24775 L212.27966,406.68698 L212.299833,408.384499 C212.32111,409.954811 212.351501,411.687531 212.39256,413.571912 L212.451161,416.069777 C212.620418,422.809296 212.894498,430.170645 213.296065,437.996818 C213.315519,438.375974 213.048577,438.709868 212.674438,438.774352 L210.935397,439.07063 C193.330852,442.036055 169.484789,445.058336 155.82116,446.092611 C155.408128,446.123875 155.047954,445.814392 155.016689,445.40136 C154.985425,444.988328 155.294908,444.628154 155.70794,444.596889 L157.102851,444.487281 C170.665469,443.384551 192.925849,440.551042 209.801832,437.739618 L211.764,437.408 L211.724101,436.609207 C211.361858,429.314482 211.110603,422.437412 210.951628,416.1072 L210.892915,413.604588 C210.851763,411.71589 210.821298,409.978914 210.799965,408.4044 L210.7688,405.424717 L210.766,405.037 L160.025796,407.662248 C159.545745,407.687082 159.176184,407.263788 159.244727,406.804798 L159.26624,406.706047 L159.869479,404.511222 L160.563624,401.888548 C160.865602,400.73146 161.191775,399.46248 161.542027,398.079019 L162.333045,394.923584 C164.535341,386.057037 167.125308,374.978468 170.095148,361.511732 Z" id="Stroke-83" fill="#96A7CA" fill-rule="nonzero"></path>
        <path d="M160.082929,405.974427 C160.496382,405.949341 160.851888,406.264176 160.876973,406.677629 C160.899968,407.056628 160.637336,407.386935 160.27494,407.458676 L160.173771,407.471673 L143.139771,408.505173 C142.726318,408.530259 142.370812,408.215424 142.345727,407.801971 C142.322732,407.422972 142.585364,407.092665 142.94776,407.020924 L143.048929,407.007927 L160.082929,405.974427 Z" id="Stroke-85" fill="#96A7CA" fill-rule="nonzero"></path>
        <path d="M199.752583,404.521496 C200.132189,404.52992 200.439784,404.81882 200.481488,405.185887 L200.486123,405.287783 L199.923623,431.191283 C199.914631,431.605399 199.571633,431.933816 199.157517,431.925004 C198.777911,431.91658 198.470316,431.62768 198.428612,431.260613 L198.423977,431.158717 L198.986477,405.255217 C198.995469,404.841101 199.338467,404.512684 199.752583,404.521496 Z" id="Stroke-87" fill="#96A7CA" fill-rule="nonzero"></path>
        <path d="M155.445093,478.389565 L181.351593,481.958065 C181.689012,482.004543 181.948196,482.270911 181.992531,482.60045 L181.99925,482.70105 L181.99925,536.46255 C181.99925,541.460568 177.673106,545.333202 172.738839,544.824693 L172.483095,544.794467 L154.399095,542.382458 C153.988517,542.327705 153.700072,541.950473 153.754833,541.539895 C153.805032,541.163532 154.126195,540.889794 154.495623,540.888965 L154.597405,540.895633 L172.681373,543.307629 C176.744962,543.849441 180.362883,540.757554 180.495487,536.693605 L180.49925,536.46255 L180.499,483.355 L155.240407,479.875535 C154.864263,479.823722 154.591905,479.501388 154.592661,479.13196 L154.599765,479.030207 C154.651578,478.654063 154.973912,478.381705 155.34334,478.382458 L155.445093,478.389565 Z" id="Stroke-89" fill="#96A7CA" fill-rule="nonzero"></path>
        <path d="M243.096333,514.296823 C243.373235,514.141069 243.723973,514.23928 243.879727,514.516183 C244.019905,514.765395 243.954373,515.074414 243.738002,515.24727 L243.660367,515.299577 L230.378,522.77 L223.4443,558.918068 C223.390436,559.19888 223.140871,559.392541 222.864039,559.385056 L222.770982,559.37465 C222.49017,559.320786 222.296509,559.071221 222.304216,558.794389 L222.3144,558.701332 L229.2984,522.291832 C229.323912,522.158831 229.395254,522.04022 229.498312,521.955605 L229.581333,521.898823 L243.096333,514.296823 Z" id="Stroke-91" fill="#090D33" fill-rule="nonzero"></path>
        <path d="M195.1733,748.95525 L155.0918,748.95525 C154.2428,748.95525 153.5708,748.18875 153.6233,747.28125 L154.6853,728.85825 C154.7318,728.02575 155.3753,727.37775 156.1523,727.37775 L198.7478,727.37775 C199.6808,727.37775 200.3783,728.29725 200.1893,729.27525 L196.6148,747.69975 C196.4723,748.43025 195.8708,748.95525 195.1733,748.95525" id="Fill-93" fill="#4E5C93"></path>
        <path d="M279.5966,748.67325 L242.1896,748.67325 C241.4246,748.67325 240.7811,748.09725 240.6971,747.33675 L238.7786,729.81375 C238.6826,728.92575 239.3786,728.15025 240.2696,728.15025 L280.6781,728.15025 C281.5436,728.15025 282.2291,728.87925 282.1751,729.74175 L279.8666,747.73425 C279.8186,748.56525 280.3886,748.67325 279.5966,748.67325" id="Fill-95" fill="#4E5C93"></path>
        <path d="M245.0087,764.16765 C245.0087,764.16765 247.8017,769.09215 257.4902,776.35815 C265.7627,782.56215 269.4947,785.94765 273.5042,784.25115 C280.8257,781.15365 286.4567,779.60565 286.4567,779.60565 C286.4567,779.60565 293.2142,783.12465 298.2827,787.06665 C303.3512,791.00865 300.5357,796.07565 289.2722,797.76615 C278.0102,799.45515 273.6992,800.08665 263.0882,791.85315 C252.4772,783.61965 247.8152,786.96465 246.1937,782.28015 C243.6602,774.95865 245.0087,764.16765 245.0087,764.16765" id="Fill-97" fill="#253368"></path>
        <path d="M155.343506,330.759089 C155.930135,330.832401 156.912752,331.070683 158.159902,331.568542 C160.218318,332.390255 162.272798,333.661109 164.18668,335.474792 C168.306281,339.378717 171.194392,345.22903 172.32387,353.361628 C172.38085,353.771904 172.094447,354.15069 171.684172,354.20767 C171.273896,354.26465 170.89511,353.978247 170.83813,353.567972 C169.754329,345.764255 167.0208,340.227072 163.154903,336.563569 C161.384908,334.88624 159.492376,333.715564 157.60378,332.961642 C156.946961,332.699442 156.339369,332.50816 155.797369,332.376726 L155.513753,332.311959 C155.347301,332.276565 155.226916,332.256187 155.157494,332.247511 C154.746478,332.196145 154.454923,331.821311 154.506289,331.410294 C154.553374,331.033529 154.872263,330.757145 155.241672,330.753262 L155.343506,330.759089 Z" id="Stroke-99" fill="#96A7CA" fill-rule="nonzero"></path>
        <path d="M282.082587,475.515296 C282.474435,475.381028 282.900937,475.589839 283.035204,475.981687 C283.158283,476.340881 282.99308,476.729194 282.662869,476.894838 L282.568813,476.934304 L269.929,481.264 L269.9297,535.1133 C269.9297,537.500404 272.224281,539.19412 274.483239,538.53539 L274.656896,538.480051 L283.580396,535.391551 C283.971827,535.256073 284.398972,535.463564 284.534449,535.854996 C284.658637,536.213808 284.494636,536.602629 284.164938,536.769293 L284.071004,536.809049 L275.147442,539.897571 C271.924084,541.012884 268.564152,538.687056 268.433629,535.316752 L268.4297,535.1133 L268.4297,480.7293 C268.4297,480.444397 268.59063,480.187483 268.839347,480.060939 L268.936587,480.019796 L282.082587,475.515296 Z" id="Stroke-101" fill="#96A7CA" fill-rule="nonzero"></path>
        <path d="M337.086177,340.646202 C337.308834,340.328123 337.732281,340.236788 338.062498,340.419276 L338.150025,340.475869 L362.216025,358.489369 C362.547634,358.73758 362.615241,359.207616 362.367031,359.539225 C362.141385,359.840688 361.732412,359.923967 361.410775,359.750133 L361.317175,359.690231 L337.871,342.14 L302.838523,392.186898 C302.622581,392.495386 302.216464,392.591633 301.88946,392.428118 L301.794002,392.371223 C301.485514,392.155281 301.389267,391.749164 301.552782,391.42216 L301.609677,391.326702 L337.086177,340.646202 Z" id="Stroke-103" fill="#96A7CA" fill-rule="nonzero"></path>
        <path d="M333.739606,352.991416 C333.977055,352.69916 334.389015,352.632201 334.703488,352.81868 L334.794634,352.882256 L352.815634,367.523756 C353.137115,367.78495 353.185988,368.257302 352.924794,368.578784 C352.687345,368.87104 352.275385,368.937999 351.960912,368.75152 L351.869766,368.687944 L333.848766,354.046444 C333.527285,353.78525 333.478412,353.312898 333.739606,352.991416 Z" id="Stroke-105" fill="#96A7CA" fill-rule="nonzero"></path>
    </g>
</svg>