<svg xmlns="http://www.w3.org/2000/svg" xmlns:xlink="http://www.w3.org/1999/xlink" width="512" height="1024" version="1.1" viewBox="0 0 512 1024"><title>2.人物组件/5.用研/站立/讲解</title><desc>Created with Sketch.</desc><defs><polygon id="path-1" points="1.313 .972 58.44 .972 58.44 33 1.313 33"/><polygon id="path-3" points=".687 .263 83.503 .263 83.503 82.362 .687 82.362"/></defs><g id="2.人物组件/5.用研/站立/讲解" fill="none" fill-rule="evenodd" stroke="none" stroke-width="1"><path id="Fill-1" fill="#FFC999" d="M346.7637,395.76515 C346.7637,395.76515 364.0212,354.93065 381.7587,345.35915 C386.7897,345.91715 381.5697,352.20965 377.6592,357.38615 C375.6582,360.03365 374.2167,363.45665 374.2167,363.45665 C374.2167,363.45665 381.1842,363.24515 379.4247,369.01715 C384.9852,369.15815 382.5222,375.21215 382.5222,375.21215 C382.5222,375.21215 386.7807,375.53465 384.9852,381.19565 C383.7507,385.08665 377.7672,389.26565 376.5387,393.44315 C373.3707,404.21165 363.4257,406.76465 360.2787,407.02715 C352.3122,407.69165 348.0912,404.39465 346.7637,395.76515"/><path id="Stroke-3" fill="#DD9987" fill-rule="nonzero" d="M364.066753,366.015909 C365.782719,361.072951 368.137081,359.130194 369.892274,361.073606 C371.360866,362.699685 371.355438,366.555422 369.689516,369.935385 L369.321411,370.690136 C366.42144,376.702238 366.104885,379.05294 366.968913,381.808406 L367.079844,382.149818 C367.390291,383.097457 367.531224,383.701911 367.556306,384.461591 L367.564648,385.331405 C367.585434,387.498703 367.514675,388.766614 367.172057,390.263097 C366.338681,393.903106 364.101825,396.354992 359.964175,397.162338 C359.659265,397.221833 359.363856,397.022885 359.304362,396.717975 C359.244867,396.413065 359.443815,396.117656 359.748725,396.058162 C363.420558,395.341706 365.335869,393.242275 366.075431,390.012026 C366.372834,388.71303 366.450325,387.576369 366.442386,385.72274 L366.43545,384.72125 C366.43545,384.051159 366.343374,383.557079 366.098222,382.77285 L365.954522,382.328918 C364.885507,379.076389 365.256012,376.387358 368.680406,369.43807 C370.162883,366.430295 370.167632,363.056958 369.057376,361.827644 C368.161824,360.836055 366.602533,362.126723 365.135314,366.367383 L365.035428,366.661098 L364.994069,366.755193 L357.923069,379.527693 C357.772603,379.799483 357.430297,379.897835 357.158507,379.747369 C356.916916,379.613622 356.812362,379.328297 356.897788,379.075656 L356.938831,378.982807 L363.985,366.253 L364.066753,366.015909 Z"/><path id="Stroke-5" fill="#DD9987" fill-rule="nonzero" d="M379.709299,368.531458 C379.977456,368.688307 380.06769,369.032842 379.910842,369.300999 L379.688712,369.671849 C379.51143,369.963857 379.309631,370.288932 379.086819,370.638872 C378.449995,371.63904 377.771576,372.639423 377.078998,373.574928 C376.451297,374.422798 375.841458,375.176632 375.258614,375.812526 C373.684545,377.529866 372.378325,378.350022 371.267066,377.917308 C369.123334,377.084304 368.473739,375.445884 369.059051,373.412478 C369.311054,372.537007 369.778685,371.621926 370.399194,370.694833 C370.727639,370.204108 371.078638,369.740685 371.42982,369.317708 L371.6256,369.085998 C371.744902,368.947439 371.840657,368.841389 371.906211,368.771927 C372.119434,368.545993 372.47544,368.535689 372.701373,368.748911 C372.927307,368.962134 372.937611,369.31814 372.724389,369.544073 L372.552222,369.73472 C372.479769,369.817371 372.393203,369.918518 372.295375,370.036346 C371.967503,370.431247 371.639448,370.864377 371.33411,371.320578 C370.772891,372.159087 370.355297,372.976253 370.140154,373.723672 C369.705868,375.232402 370.114238,376.262398 371.674905,376.868836 C372.163628,377.059141 373.167882,376.428585 374.429278,375.052378 C374.982861,374.448407 375.568824,373.724087 376.174816,372.905539 C376.715052,372.175811 377.248119,371.403141 377.759044,370.621772 L378.137851,370.034649 C378.356203,369.691714 378.553801,369.373407 378.727064,369.088019 L378.939758,368.733001 C379.096607,368.464844 379.441142,368.37461 379.709299,368.531458 Z"/><path id="Stroke-7" fill="#DD9987" fill-rule="nonzero" d="M381.722621,375.273893 C381.843685,374.987793 382.173757,374.854006 382.459857,374.975071 C382.745957,375.096135 382.879744,375.426207 382.758679,375.712307 L382.62149,376.019768 L382.37813,376.530449 C382.333622,376.620835 382.287165,376.713696 382.238799,376.808788 C381.82415,377.624024 381.353612,378.439514 380.834486,379.203427 C379.146168,381.687845 377.336067,383.104476 375.397481,382.806538 C373.567915,382.524605 372.759964,381.275533 372.798769,379.51938 C372.813122,378.869839 372.940705,378.18764 373.143712,377.506204 C373.193591,377.338776 373.245848,377.179037 373.29898,377.028613 L373.444644,376.643518 C373.463557,376.597046 373.479341,376.559885 373.491367,376.532743 C373.617209,376.248712 373.949476,376.120475 374.233507,376.246317 C374.517538,376.372159 374.645775,376.704426 374.519933,376.988457 L374.449365,377.158843 C374.383735,377.326309 374.303009,377.555095 374.221885,377.827403 C374.045279,378.420216 373.935342,379.008061 373.923494,379.544232 C373.896073,380.785237 374.364258,381.509041 375.568597,381.694628 C376.933673,381.904424 378.439863,380.725642 379.904004,378.571107 C380.393993,377.850072 380.841471,377.074546 381.236052,376.298766 C381.328139,376.117714 381.412832,375.945412 381.489781,375.783849 L381.703464,375.318388 C381.711163,375.300732 381.717554,375.285865 381.722621,375.273893 Z"/><path id="Stroke-9" fill="#DD9987" fill-rule="nonzero" d="M384.661688,380.176108 C384.757616,379.88063 385.074913,379.718861 385.370392,379.814788 C385.66587,379.910716 385.827639,380.228013 385.731712,380.523492 L385.633251,380.806725 C385.554247,381.025416 385.460986,381.268421 385.353809,381.529787 C385.04744,382.276913 384.689845,383.0244 384.282656,383.725371 C382.703197,386.44439 380.800774,387.797548 378.62121,386.77177 C377.231691,386.117947 376.655537,385.074212 376.838174,383.83225 C376.948149,383.0844 377.320811,382.321362 377.869798,381.560755 C378.092937,381.2516 378.331009,380.963486 378.569316,380.702933 L378.793245,380.466452 C378.834346,380.424798 378.869199,380.390639 378.896861,380.364436 C379.122394,380.15079 379.478419,380.160427 379.692064,380.385961 C379.90571,380.611494 379.896073,380.967519 379.670539,381.181164 L379.534356,381.317986 C379.494786,381.359248 379.449498,381.407491 379.39946,381.462199 C379.188799,381.692525 378.977903,381.947753 378.782006,382.219163 C378.329235,382.846465 378.030197,383.458756 377.951203,383.995927 C377.84151,384.741861 378.154489,385.30884 379.10023,385.753849 C380.568089,386.444673 381.989148,385.433901 383.309873,383.160288 C383.688748,382.508059 384.024759,381.805688 384.312925,381.102957 L384.447299,380.766712 C384.547884,380.507942 384.6198,380.305133 384.661688,380.176108 Z"/><path id="Fill-11" fill="#FFC6A0" d="M203.2764,739.9199 C203.2764,739.9199 200.6124,777.5759 198.5019,806.9039 C197.3514,822.9164 197.0859,835.4234 195.2919,836.4179 C190.2129,839.2304 184.3524,836.8229 178.1754,842.5859 C171.9969,848.3519 167.5404,852.7844 151.3359,848.8424 C132.3849,844.2329 149.3694,839.5214 158.4189,831.6554 C174.3999,817.7639 173.2734,809.1794 173.6379,798.6209 C174.7284,767.1059 173.7219,731.0099 173.7219,731.0099 L203.2764,739.9199 Z"/><g id="分组" transform="translate(139.500000, 820.737500)"><mask id="mask-2" fill="#fff"><use xlink:href="#path-1"/></mask><path id="Fill-13" fill="#253368" d="M58.04595,0.97185 C58.04595,0.97185 55.13445,3.14535 45.65745,10.39035 C38.18145,16.10535 33.32745,19.55835 29.38095,17.72385 C22.17045,14.37585 16.59645,12.63435 16.59645,12.63435 C16.59645,12.63435 9.72045,15.91785 4.51995,19.68285 C-0.68055,23.44635 -0.23805,29.87235 10.95795,31.94985 C22.15545,34.02735 28.63845,33.54435 39.52845,25.68285 C50.41845,17.81985 54.96045,21.32385 56.74245,16.69785 C59.52795,9.46935 58.04595,0.97185 58.04595,0.97185" mask="url(#mask-2)"/></g><path id="Fill-15" fill="#FFC6A0" d="M251.03325,737.579 C251.03325,737.579 252.19125,776.333 253.28625,805.7165 C253.88325,821.7575 253.92075,833.24 255.68025,834.2945 C260.65725,837.281 266.59875,835.0775 272.57175,841.052 C278.54775,847.0265 282.84975,851.6105 299.18025,848.2325 C318.27825,844.28 301.46775,838.9835 292.69575,830.81 C277.20225,816.374 278.62725,807.833 278.62725,797.2685 C278.62725,765.7355 280.87875,729.695 280.87875,729.695 L251.03325,737.579 Z"/><polygon id="Fill-17" fill="#253368" points="184.069 522.613 286.627 517.635 287.131 798.399 249.811 797.404 232.45 606.231 204.487 798.633 164.155 799.899"/><path id="Fill-19" fill="#597EF7" d="M263.4228,544.0505 C274.1223,402.1445 245.5428,365.921 245.5428,365.921 L195.7068,365.921 L197.8188,543.302 C197.8188,543.302 231.6063,556.817 263.4228,544.0505"/><path id="Stroke-21" fill="#3C65D6" fill-rule="nonzero" d="M240.640509,377.653372 C240.924675,377.511301 241.270208,377.626492 241.412278,377.910659 C241.554349,378.194825 241.439158,378.540358 241.154991,378.682428 C240.054613,379.232568 238.931967,379.724212 237.788467,380.159009 C228.956535,383.517204 219.549382,383.38132 210.685549,381.140955 C209.310045,380.793291 208.06902,380.420546 206.982465,380.047341 L206.202966,379.769174 L205.620626,379.543035 C205.327564,379.420359 205.189439,379.083337 205.312115,378.790276 C205.434791,378.497214 205.771813,378.359089 206.064874,378.481765 L206.390094,378.610148 C206.664544,378.715187 206.987426,378.832571 207.356202,378.959237 C208.413418,379.322364 209.623953,379.685952 210.967477,380.025532 C219.622184,382.213041 228.800634,382.345621 237.37957,379.083624 C238.487372,378.6624 239.574776,378.186191 240.640509,377.653372 Z"/><path id="Fill-23" fill="#FFC999" d="M199.98345,315.7172 C199.98345,315.7172 196.44945,284.6837 235.36845,286.9727 C257.04345,289.7147 255.80895,325.8032 255.80895,325.8032 C255.80895,325.8032 257.17095,333.4127 254.16645,341.1542 C250.80045,349.8272 242.45145,352.5842 231.51495,353.3462 C211.24095,352.2212 203.29095,340.9007 203.29095,340.9007 C203.29095,340.9007 189.30045,341.6642 190.82745,324.1112 C192.35295,307.8317 199.98345,315.7172 199.98345,315.7172"/><path id="Fill-25" fill="#253368" d="M203.6514,294.42935 C203.6514,302.40335 197.1864,308.86685 189.2139,308.86685 C181.2399,308.86685 174.7749,302.40335 174.7749,294.42935 C174.7749,286.45535 181.2399,279.99185 189.2139,279.99185 C197.1864,279.99185 203.6514,286.45535 203.6514,294.42935"/><g id="分组" transform="translate(180.000000, 276.237500)"><mask id="mask-4" fill="#fff"><use xlink:href="#path-3"/></mask><path id="Fill-27" fill="#253368" d="M75.61965,50.6865 C75.61965,50.6865 80.36115,42.465 83.20815,32.6625 C86.05365,22.8615 67.39815,3.2565 64.86915,1.677 C62.33865,0.0945 61.07415,-1.485 43.68315,4.839 C-7.94385,6.9045 4.30365,54.2055 4.30365,54.2055 C4.30365,54.2055 -1.70835,58.5555 1.77015,70.254 C5.88015,81.954 22.04115,82.362 22.04115,82.362 L22.60515,64.0605 C22.60515,64.0605 17.14365,64.4715 13.03215,58.1475 C8.92215,51.8235 12.47265,44.139 15.00315,43.506 C17.25615,41.817 22.88715,42.6615 22.88715,49.419 C22.88715,52.821 29.36265,45.1965 31.89765,32.244 C49.91865,28.767 54.43365,16.221 54.43365,16.221 C54.43365,16.221 55.06665,28.236 52.21965,33.2955 C61.70715,30.45 66.76665,25.3905 65.18415,20.016 C75.93615,24.759 75.61965,50.6865 75.61965,50.6865" mask="url(#mask-4)"/></g><path id="Fill-29" fill="#FFC999" d="M202.04145,360.85205 L202.49895,333.56405 L238.07595,334.38455 C238.07595,334.38455 237.94095,353.01605 238.64445,360.57455 C256.94745,374.97755 206.68845,380.28005 199.50945,366.76505 C196.78695,361.64255 202.04145,360.85205 202.04145,360.85205"/><path id="Fill-31" fill="#FFF" d="M235.24065,321.05945 C234.57615,327.97595 229.17915,333.11495 223.19115,332.53745 C217.20165,331.95995 212.88765,325.88495 213.55365,318.96995 C214.21965,312.05345 219.61515,306.91445 225.60315,307.49195 C231.59265,308.06945 235.90665,314.14445 235.24065,321.05945"/><path id="Stroke-33" fill="#253368" fill-rule="nonzero" d="M212.807103,318.898064 C212.10346,326.203911 216.692084,332.664296 223.11917,333.283988 C229.545976,333.903808 235.285271,328.43739 235.987212,321.131176 C236.69084,313.825489 232.102216,307.365104 225.675148,306.745414 C219.248801,306.125638 213.510671,311.591417 212.807103,318.898064 Z M225.53117,308.238488 C231.082121,308.773704 235.122567,314.4623 234.494105,320.987548 C233.867177,327.512971 228.813656,332.326221 223.263148,331.790914 C217.712179,331.255696 213.671733,325.5671 214.300195,319.041852 C214.918611,312.619522 219.821825,307.85644 225.267256,308.217025 L225.53117,308.238488 Z"/><path id="Fill-35" fill="#FFF" d="M259.4589,320.13005 C258.7929,327.04655 253.7064,332.21555 248.0994,331.67405 C242.4909,331.13405 238.4874,325.09055 239.1534,318.17405 C239.8194,311.25755 244.9059,306.08855 250.5129,306.63005 C256.1199,307.17005 260.1249,313.21505 259.4589,320.13005"/><path id="Stroke-37" fill="#253368" fill-rule="nonzero" d="M238.406853,318.102164 C237.704027,325.401107 241.968595,331.83723 248.027521,332.420598 C254.085309,333.005633 259.502675,327.500316 260.205447,320.201936 C260.908258,312.904731 256.642392,306.4669 250.584996,305.883523 C244.526991,305.298467 239.109625,310.803784 238.406853,318.102164 Z M250.440804,307.376577 C255.596803,307.873142 259.341614,313.524623 258.712355,320.058148 C258.083133,326.592696 253.327562,331.425474 248.171496,330.927523 C243.014184,330.430965 239.270657,324.7812 239.899947,318.245936 C240.529167,311.711404 245.284738,306.878626 250.440804,307.376577 Z"/><path id="Stroke-39" fill="#DD936F" fill-rule="nonzero" d="M237.006839,322.574383 C237.282137,322.317464 237.699387,322.307653 237.985305,322.535511 L238.066867,322.610989 L242.008867,326.834989 C242.271473,327.116381 242.275151,327.544548 242.034435,327.829738 L241.954903,327.910717 L237.667903,331.668217 C237.356406,331.94124 236.882557,331.910051 236.609533,331.598553 C236.36133,331.315373 236.364542,330.89802 236.60121,330.619351 L236.679197,330.540183 L240.384,327.292 L236.970233,323.634411 C236.713314,323.359113 236.703503,322.941863 236.931361,322.655945 L237.006839,322.574383 Z"/><path id="Stroke-41" fill="#F5222D" fill-rule="nonzero" d="M228.484393,333.559733 C228.595219,333.16062 229.008605,332.926918 229.407717,333.037743 L229.930897,333.174255 L230.083878,333.212321 C230.621137,333.344932 231.20661,333.477648 231.819662,333.601458 C232.783527,333.796115 233.72306,333.949917 234.601422,334.047505 C236.020001,334.205112 237.191333,334.205213 238.007086,334.024208 C238.411464,333.934481 238.812016,334.189557 238.901742,334.593936 C238.991469,334.998314 238.736393,335.398866 238.332014,335.488592 C237.322045,335.712692 236.004127,335.712577 234.435789,335.538332 C233.509233,335.43539 232.527157,335.274624 231.522724,335.071773 C231.046313,334.975559 230.586298,334.874227 230.151072,334.771571 L229.419401,334.592103 C229.236953,334.545538 229.097295,334.508301 229.006383,334.483057 C228.60727,334.372231 228.373568,333.958845 228.484393,333.559733 Z"/><path id="Fill-43" fill="#E4EBF7" d="M274.6845,377.74535 C274.6845,377.74535 286.7445,377.73485 318.6075,433.49435 C334.3755,408.71735 346.3695,393.50285 346.3695,393.50285 L370.2675,412.08935 C370.2675,412.08935 344.625,484.17485 318.186,484.17485 C305.79,484.17485 297.186,473.25185 288.7635,462.77735 C276.522,447.55385 267.0825,430.96085 267.0825,430.96085 C267.0825,430.96085 258.09,387.03935 274.6845,377.74535"/><path id="Fill-45" fill="#E4EBF7" d="M238.7856,360.00755 C238.7856,360.00755 245.1216,383.65805 254.4126,471.29405 C261.0696,534.09155 262.2966,680.70305 262.2966,680.70305 C262.2966,680.70305 290.6406,677.69855 292.1406,671.13155 C296.2821,652.99805 293.1801,551.53355 291.0141,506.70005 C287.0721,425.04755 287.0721,398.29955 279.7536,380.28005 C271.9701,376.18055 265.8156,372.67805 252.3006,367.18805 C249.2811,365.96105 245.2866,361.78505 243.4311,360.85205 C238.3866,358.31705 238.7856,360.00755 238.7856,360.00755"/><path id="Stroke-47" fill="#96A7CA" fill-rule="nonzero" d="M284.77006,404.871596 C285.18331,404.843352 285.541211,405.155461 285.569454,405.56871 L285.847373,409.922644 C285.955776,411.687562 286.072426,413.653839 286.195674,415.81157 L286.440447,420.196764 C286.807109,426.918542 287.170428,434.281593 287.515406,442.195895 L287.57273,443.520034 C288.135629,456.612324 288.604785,470.220225 288.948971,484.156333 C288.959198,484.57042 288.631805,484.914394 288.217717,484.925291 C287.80363,484.934848 287.459656,484.607455 287.449429,484.193367 C287.130044,471.261492 286.702973,458.612279 286.193209,446.395883 L285.95921,440.948286 C285.593228,432.665212 285.207767,425.001743 284.820462,418.063798 L284.461166,411.844299 L284.072946,405.67099 C284.044702,405.25774 284.356811,404.899839 284.77006,404.871596 Z"/><path id="Stroke-49" fill="#253368" fill-rule="nonzero" d="M235.677994,316.797252 C236.686398,316.384812 237.764453,316.302261 238.798905,316.783348 C239.023367,316.887737 239.239952,317.017534 239.44742,317.173228 C239.778721,317.42185 239.845744,317.89197 239.597122,318.22327 C239.3485,318.554571 238.87838,318.621594 238.54708,318.372972 C238.422918,318.279796 238.296067,318.203775 238.166366,318.143456 C237.569346,317.865803 236.90302,317.916826 236.245839,318.185615 C236.037885,318.270669 235.888917,318.352728 235.822162,318.397213 C235.477473,318.626915 235.011838,318.5337 234.782137,318.189012 C234.552435,317.844323 234.64565,317.378688 234.990338,317.148987 C235.134917,317.052639 235.369448,316.923448 235.677994,316.797252 Z"/><path id="Stroke-51" fill="#DD9987" fill-rule="nonzero" d="M219.630953,350.732954 C221.157687,351.099018 222.910594,351.389785 224.845489,351.611458 C228.492395,352.02927 232.292681,352.166067 235.532019,352.141041 L236.657739,352.124665 C236.96828,352.116071 237.22699,352.360847 237.235585,352.671389 C237.244179,352.98193 236.999403,353.24064 236.688861,353.249235 L236.234262,353.258117 C232.80904,353.309715 228.681611,353.183307 224.71744,352.729147 C222.740417,352.502647 220.94393,352.204652 219.368647,351.826946 C219.066549,351.754512 218.88037,351.450895 218.952804,351.148797 C219.017994,350.876909 219.270444,350.698915 219.540511,350.718839 L219.630953,350.732954 Z"/><path id="Fill-53" fill="#E4EBF7" d="M164.03175,378.5906 C170.09325,375.6116 181.89825,371.4431 189.37275,367.0466 C194.15775,364.2311 197.97975,360.4856 201.75975,359.1626 C223.72275,450.6701 212.55825,633.0281 208.33275,683.7086 C179.61525,687.9326 160.93575,675.6356 160.93575,675.6356 C160.93575,675.6356 160.44675,548.4776 162.25125,490.9331 C163.75125,443.0666 160.99875,380.0816 164.03175,378.5906"/><path id="Stroke-55" fill="#96A7CA" fill-rule="nonzero" d="M200.99542,358.178837 C201.332459,357.938051 201.800878,358.016081 202.041663,358.35312 C202.260559,358.659519 202.215972,359.074497 201.952833,359.328321 L201.86738,359.399363 L190.5,367.519 L190.512495,367.861589 C190.531604,368.348405 190.564424,368.919291 190.613877,369.575317 L190.640002,369.91043 C190.822051,372.172699 191.152942,374.919793 191.66977,378.165256 L191.887939,379.498955 C193.359022,388.263481 195.867369,398.891408 199.65053,411.469356 L200.841351,415.412313 C209.02063,442.654311 211.808866,456.468298 216.018195,487.735535 C216.073459,488.146045 215.785476,488.52363 215.374965,488.578895 C214.964455,488.634159 214.58687,488.346176 214.531605,487.935665 L213.940647,483.594759 C210.055822,455.402546 207.170892,441.709043 199.403482,415.839553 L198.50874,412.876462 C194.34454,399.159138 191.669794,387.703455 190.188436,378.401153 C189.70042,375.336622 189.375599,372.705726 189.18389,370.497479 L189.144836,370.030748 C189.063412,369.018911 189.020936,368.240374 189.003925,367.690219 L188.994872,367.139342 C188.996244,366.927968 189.082232,366.732377 189.229985,366.592782 L189.308904,366.527837 L200.99542,358.178837 Z"/><path id="Fill-57" fill="#253368" d="M229.0722,319.2731 C229.0722,320.9846 228.3147,322.3706 227.3817,322.3706 C226.4502,322.3706 225.6927,320.9846 225.6927,319.2731 C225.6927,317.5631 226.4502,316.1771 227.3817,316.1771 C228.3147,316.1771 229.0722,317.5631 229.0722,319.2731"/><path id="Fill-59" fill="#253368" d="M251.03325,319.5551 C251.03325,321.2651 250.27725,322.6511 249.34425,322.6511 C248.41125,322.6511 247.65525,321.2651 247.65525,319.5551 C247.65525,317.8436 248.41125,316.4576 249.34425,316.4576 C250.27725,316.4576 251.03325,317.8436 251.03325,319.5551"/><path id="Stroke-61" fill="#96A7CA" fill-rule="nonzero" d="M238.583026,358.18398 C238.791875,357.870646 239.195691,357.76516 239.526339,357.921173 L239.62307,357.975876 L251.44907,365.858376 C251.592968,365.954289 251.6993,366.096984 251.750062,366.2623 L251.834285,366.550845 C251.900712,366.784657 251.977484,367.06603 252.063735,367.395563 L252.231243,368.049913 C252.431248,368.847981 252.646971,369.767566 252.87515,370.81092 L253.113994,371.927218 C253.830175,375.347808 254.541901,379.414532 255.214263,384.151499 L255.325953,384.947203 C258.954055,411.084593 260.135868,446.654943 257.41279,492.66626 C257.388318,493.07975 257.03328,493.395111 256.61979,493.37064 C256.2063,493.346168 255.890939,492.99113 255.91541,492.57764 L256.073792,489.835218 C258.584719,445.246749 257.382009,410.669171 253.840199,385.153439 L253.617638,383.585301 C252.945775,378.955314 252.237595,374.994305 251.528049,371.678123 L251.409785,371.131393 C251.184972,370.103436 250.97287,369.199241 250.77674,368.41655 L250.513347,367.401317 L250.39,366.955 L238.79113,359.224024 C238.477796,359.015175 238.37231,358.611359 238.528323,358.280711 L238.583026,358.18398 Z"/><path id="Fill-63" fill="#4E5C93" d="M222.31485,496.80635 L244.93635,429.21335 C245.30835,428.10035 246.35085,427.34885 247.52685,427.34885 L308.39235,427.34885 C310.28385,427.34885 311.60085,429.22235 310.96485,431.00135 L287.41485,496.77785 C287.03685,497.83685 286.04835,498.55385 284.92635,498.58835 L224.98935,500.40485 C223.08885,500.46185 221.71185,498.60935 222.31485,496.80635"/><path id="Fill-65" fill="#090D33" d="M225.5346,496.02185 L247.7601,429.60785 C248.2116,428.25785 249.4761,427.34885 250.8981,427.34885 L312.5151,427.34885 C313.8366,427.34885 314.7591,428.65835 314.3151,429.90335 L290.4411,496.58885 C290.0196,497.76185 288.9276,498.55685 287.6841,498.59435 L228.7716,500.37935 C226.4706,500.44985 224.8041,498.20585 225.5346,496.02185"/><path id="Fill-67" fill="#253368" d="M256.04595,433.8467 C256.72545,434.6222 256.45845,435.9662 255.45195,436.8467 C254.44545,437.7272 253.07895,437.8127 252.39945,437.0372 C251.72145,436.2617 251.98845,434.9192 252.99495,434.0372 C254.00145,433.1567 255.36795,433.0712 256.04595,433.8467"/><path id="Fill-69" fill="#E1E7F3" d="M255.21825,434.6369 C255.56925,435.0404 255.43275,435.7364 254.90925,436.1939 C254.38575,436.6514 253.67775,436.6964 253.32525,436.2929 C252.97275,435.8909 253.11075,435.1934 253.63275,434.7359 C254.15625,434.2784 254.86575,434.2349 255.21825,434.6369"/><path id="Stroke-71" fill="#253368" fill-rule="nonzero" d="M213.451581,318.226928 C213.861941,318.170557 214.240301,318.457521 214.296672,318.867881 C214.348346,319.244044 214.111522,319.593319 213.755611,319.692339 L213.655719,319.712972 L201.862719,321.332972 C201.452359,321.389343 201.073999,321.102379 201.017628,320.692019 C200.965954,320.315856 201.202778,319.966581 201.558689,319.867561 L201.658581,319.846928 L213.451581,318.226928 Z"/><path id="Fill-73" fill="#FFC999" d="M249.5772,484.40795 C253.0782,484.11695 254.9367,482.67995 254.6457,479.76245 C258.8682,478.49495 258.4467,474.92795 258.4467,474.92795 C258.4467,474.92795 266.5437,474.91295 267.9522,471.47195 C268.4997,470.13545 267.4917,468.68495 266.0517,468.56645 C248.7267,467.15795 236.4837,457.80095 236.4837,457.80095 C236.4837,457.80095 243.4377,447.87995 242.7792,443.25095 C242.5842,441.87995 240.8037,441.41495 239.9547,442.50545 C232.6752,451.84595 218.2377,459.05045 218.2377,459.05045 C218.2377,459.05045 200.8092,474.94145 219.3792,482.50745 C219.3792,482.50745 233.5347,488.37095 243.4527,487.78595 C248.1492,487.50995 249.5772,484.40795 249.5772,484.40795"/><path id="Stroke-75" fill="#DD936F" fill-rule="nonzero" d="M245.711006,471.668868 C245.866189,471.399743 246.210158,471.307374 246.479282,471.462556 C247.723095,472.179762 249.182543,472.768974 250.813779,473.239467 C252.804025,473.813508 254.942869,474.183649 257.082724,474.38938 C257.682373,474.447032 258.247555,474.488198 258.76892,474.515514 L259.443581,474.544196 C259.664104,474.551262 259.82672,474.55385 259.9248,474.55385 C260.23546,474.55385 260.4873,474.80569 260.4873,475.11635 C260.4873,475.42701 260.23546,475.67885 259.9248,475.67885 L259.5428,475.672611 C259.417902,475.669247 259.271585,475.664345 259.105268,475.657492 C258.461899,475.630982 257.745849,475.583322 256.97506,475.509216 C254.771052,475.297318 252.566033,474.915725 250.502007,474.320403 C248.78883,473.826276 247.246661,473.203667 245.917318,472.437144 C245.648193,472.281961 245.555824,471.937992 245.711006,471.668868 Z"/><path id="Stroke-77" fill="#DD936F" fill-rule="nonzero" d="M244.006335,476.977092 C244.145266,476.699229 244.483145,476.586603 244.761008,476.725535 C244.950266,476.820164 245.141664,476.912076 245.335122,477.001303 C247.417389,477.961693 249.654617,478.58081 251.892889,478.924925 C252.519826,479.021311 253.110559,479.090118 253.655233,479.135756 L254.054947,479.16571 C254.442394,479.191238 254.715959,479.19965 254.85645,479.19965 C255.16711,479.19965 255.41895,479.45149 255.41895,479.76215 C255.41895,480.07281 255.16711,480.32465 254.85645,480.32465 L254.683219,480.322198 C254.512307,480.317939 254.27593,480.30771 253.980983,480.288276 C253.298314,480.243295 252.539011,480.162478 251.721939,480.03686 C249.386656,479.677832 247.05033,479.031291 244.863946,478.02288 C244.659831,477.928737 244.457786,477.831712 244.257892,477.731765 C243.980029,477.592834 243.867403,477.254955 244.006335,476.977092 Z"/><path id="Stroke-79" fill="#DD936F" fill-rule="nonzero" d="M240.839263,482.888535 C240.978392,482.610771 241.316351,482.498385 241.594115,482.637513 C242.158765,482.92034 243.504223,483.196575 245.334797,483.4328 C246.036,483.523286 246.775805,483.604154 247.525368,483.675328 L248.619947,483.772037 L249.613345,483.846612 C249.923363,483.866575 250.1585,484.134077 250.138538,484.444095 C250.118575,484.754113 249.851073,484.98925 249.541055,484.969288 L248.52831,484.893298 C248.415497,484.884063 248.299552,484.874343 248.180787,484.864136 C247.162236,484.7766 246.143426,484.671477 245.190816,484.548548 L244.520533,484.457486 C242.903025,484.225711 241.72643,483.962024 241.090285,483.643387 C240.812521,483.504258 240.700135,483.166299 240.839263,482.888535 Z"/><path id="Fill-81" fill="#E4EBF7" d="M160.371,380.56145 C173.148,371.06045 187.074,383.12645 182.8965,411.53195 C174.45,444.19295 168.6285,460.33445 168.6285,460.33445 L220.014,457.85945 C220.014,457.85945 220.014,470.89295 221.703,491.16545 C182.847,496.59695 150.939,501.30245 138.6915,497.07845 C134.5185,495.63995 127.7115,494.54495 127.506,478.50845 C127.164,451.77095 141.9705,394.24445 160.371,380.56145"/><path id="Stroke-83" fill="#96A7CA" fill-rule="nonzero" d="M178.595148,414.511732 C178.684352,414.107238 179.084573,413.851645 179.489068,413.940848 C179.893562,414.030052 180.149155,414.430273 180.059952,414.834768 L178.963016,419.777995 C176.301212,431.696882 173.965075,441.591436 171.960741,449.601128 L171.057711,453.16847 C170.679949,454.642192 170.333675,455.967861 170.01906,457.149347 L169.659121,458.489032 L169.489,459.11 L219.974804,456.498752 C220.370675,456.478273 220.707775,456.767893 220.757294,457.150332 L220.76355,457.24775 L220.77966,459.68698 L220.799833,461.384499 C220.82111,462.954811 220.851501,464.687531 220.89256,466.571912 L220.951161,469.069777 C221.120418,475.809296 221.394498,483.170645 221.796065,490.996818 C221.815519,491.375974 221.548577,491.709868 221.174438,491.774352 L219.435397,492.07063 C201.830852,495.036055 177.984789,498.058336 164.32116,499.092611 C163.908128,499.123875 163.547954,498.814392 163.516689,498.40136 C163.485425,497.988328 163.794908,497.628154 164.20794,497.596889 L165.602851,497.487281 C179.165469,496.384551 201.425849,493.551042 218.301832,490.739618 L220.264,490.408 L220.224101,489.609207 C219.861858,482.314482 219.610603,475.437412 219.451628,469.1072 L219.392915,466.604588 C219.351763,464.71589 219.321298,462.978914 219.299965,461.4044 L219.2688,458.424717 L219.266,458.037 L168.525796,460.662248 C168.045745,460.687082 167.676184,460.263788 167.744727,459.804798 L167.76624,459.706047 L168.369479,457.511222 L169.063624,454.888548 C169.365602,453.73146 169.691775,452.46248 170.042027,451.079019 L170.833045,447.923584 C173.035341,439.057037 175.625308,427.978468 178.595148,414.511732 Z"/><path id="Stroke-85" fill="#96A7CA" fill-rule="nonzero" d="M168.582929,458.974427 C168.996382,458.949341 169.351888,459.264176 169.376973,459.677629 C169.399968,460.056628 169.137336,460.386935 168.77494,460.458676 L168.673771,460.471673 L151.639771,461.505173 C151.226318,461.530259 150.870812,461.215424 150.845727,460.801971 C150.822732,460.422972 151.085364,460.092665 151.44776,460.020924 L151.548929,460.007927 L168.582929,458.974427 Z"/><path id="Stroke-87" fill="#96A7CA" fill-rule="nonzero" d="M208.252583,457.521496 C208.632189,457.52992 208.939784,457.81882 208.981488,458.185887 L208.986123,458.287783 L208.423623,484.191283 C208.414631,484.605399 208.071633,484.933816 207.657517,484.925004 C207.277911,484.91658 206.970316,484.62768 206.928612,484.260613 L206.923977,484.158717 L207.486477,458.255217 C207.495469,457.841101 207.838467,457.512684 208.252583,457.521496 Z"/><path id="Stroke-89" fill="#96A7CA" fill-rule="nonzero" d="M163.84334,531.382459 L163.945093,531.389565 L189.851593,534.958065 C190.189012,535.004543 190.448196,535.270911 190.492531,535.60045 L190.49925,535.70105 L190.49925,589.46255 C190.49925,594.460568 186.173106,598.333202 181.238839,597.824693 L180.983095,597.794467 L162.899095,595.382459 C162.488517,595.327705 162.200072,594.950473 162.254833,594.539895 C162.305032,594.163532 162.626195,593.889794 162.995623,593.888965 L163.097405,593.895633 L181.181373,596.307629 C185.244962,596.849441 188.862883,593.757554 188.995487,589.693605 L188.99925,589.46255 L188.999,536.355 L163.740407,532.875535 C163.364263,532.823722 163.091905,532.501388 163.092661,532.13196 L163.099765,532.030207 C163.151578,531.654063 163.473912,531.381705 163.84334,531.382459 Z"/><path id="Stroke-91" fill="#090D33" fill-rule="nonzero" d="M251.596333,567.296823 C251.873235,567.141069 252.223973,567.23928 252.379727,567.516183 C252.519905,567.765395 252.454373,568.074414 252.238002,568.24727 L252.160367,568.299577 L238.878,575.77 L231.9443,611.918068 C231.890436,612.19888 231.640871,612.392541 231.364039,612.385056 L231.270982,612.37465 C230.99017,612.320786 230.796509,612.071221 230.804216,611.794389 L230.8144,611.701332 L237.7984,575.291832 C237.823912,575.158831 237.895254,575.04022 237.998312,574.955605 L238.081333,574.898823 L251.596333,567.296823 Z"/><path id="Fill-93" fill="#4E5C93" d="M203.6733,801.95525 L163.5918,801.95525 C162.7428,801.95525 162.0708,801.18875 162.1233,800.28125 L163.1853,781.85825 C163.2318,781.02575 163.8753,780.37775 164.6523,780.37775 L207.2478,780.37775 C208.1808,780.37775 208.8783,781.29725 208.6893,782.27525 L205.1148,800.69975 C204.9723,801.43025 204.3708,801.95525 203.6733,801.95525"/><path id="Fill-95" fill="#4E5C93" d="M288.0966,801.67325 L250.6896,801.67325 C249.9246,801.67325 249.2811,801.09725 249.1971,800.33675 L247.2786,782.81375 C247.1826,781.92575 247.8786,781.15025 248.7696,781.15025 L289.1781,781.15025 C290.0436,781.15025 290.7291,781.87925 290.6751,782.74175 L288.3666,800.73425 C288.3186,801.56525 288.8886,801.67325 288.0966,801.67325"/><path id="Fill-97" fill="#253368" d="M253.5087,817.16765 C253.5087,817.16765 256.3017,822.09215 265.9902,829.35815 C274.2627,835.56215 277.9947,838.94765 282.0042,837.25115 C289.3257,834.15365 294.9567,832.60565 294.9567,832.60565 C294.9567,832.60565 301.7142,836.12465 306.7827,840.06665 C311.8512,844.00865 309.0357,849.07565 297.7722,850.76615 C286.5102,852.45515 282.1992,853.08665 271.5882,844.85315 C260.9772,836.61965 256.3152,839.96465 254.6937,835.28015 C252.1602,827.95865 253.5087,817.16765 253.5087,817.16765"/><path id="Stroke-99" fill="#96A7CA" fill-rule="nonzero" d="M163.843506,383.759089 C164.430135,383.832401 165.412752,384.070683 166.659902,384.568542 C168.718318,385.390255 170.772798,386.661109 172.68668,388.474792 C176.806281,392.378717 179.694392,398.22903 180.82387,406.361628 C180.88085,406.771904 180.594447,407.15069 180.184172,407.20767 C179.773896,407.26465 179.39511,406.978247 179.33813,406.567972 C178.254329,398.764255 175.5208,393.227072 171.654903,389.563569 C169.884908,387.88624 167.992376,386.715564 166.10378,385.961642 C165.446961,385.699442 164.839369,385.50816 164.297369,385.376726 L164.013753,385.311959 C163.847301,385.276565 163.726916,385.256187 163.657494,385.247511 C163.246478,385.196145 162.954923,384.821311 163.006289,384.410294 C163.053374,384.033529 163.372263,383.757145 163.741672,383.753262 L163.843506,383.759089 Z"/><path id="Stroke-101" fill="#96A7CA" fill-rule="nonzero" d="M290.582587,528.515296 C290.974435,528.381028 291.400937,528.589839 291.535204,528.981687 C291.658283,529.340881 291.49308,529.729194 291.162869,529.894838 L291.068813,529.934304 L278.429,534.264 L278.4297,588.1133 C278.4297,590.500404 280.724281,592.19412 282.983239,591.53539 L283.156896,591.480051 L292.080396,588.391551 C292.471827,588.256073 292.898972,588.463564 293.034449,588.854996 C293.158637,589.213808 292.994636,589.602629 292.664938,589.769293 L292.571004,589.809049 L283.647442,592.897571 C280.424084,594.012884 277.064152,591.687056 276.933629,588.316752 L276.9297,588.1133 L276.9297,533.7293 C276.9297,533.444397 277.09063,533.187483 277.339347,533.060939 L277.436587,533.019796 L290.582587,528.515296 Z"/><path id="Stroke-103" fill="#96A7CA" fill-rule="nonzero" d="M345.586177,393.646202 C345.808834,393.328123 346.232281,393.236788 346.562498,393.419276 L346.650025,393.475869 L370.716025,411.489369 C371.047634,411.73758 371.115241,412.207616 370.867031,412.539225 C370.641385,412.840688 370.232412,412.923967 369.910775,412.750133 L369.817175,412.690231 L346.371,395.14 L311.338523,445.186898 C311.122581,445.495386 310.716464,445.591633 310.38946,445.428118 L310.294002,445.371223 C309.985514,445.155281 309.889267,444.749164 310.052782,444.42216 L310.109677,444.326702 L345.586177,393.646202 Z"/><path id="Stroke-105" fill="#96A7CA" fill-rule="nonzero" d="M342.239606,405.991416 C342.477055,405.69916 342.889015,405.632201 343.203488,405.81868 L343.294634,405.882256 L361.315634,420.523756 C361.637115,420.78495 361.685988,421.257302 361.424794,421.578784 C361.187345,421.87104 360.775385,421.937999 360.460912,421.75152 L360.369766,421.687944 L342.348766,407.046444 C342.027285,406.78525 341.978412,406.312898 342.239606,405.991416 Z"/></g></svg>