<?xml version="1.0" encoding="UTF-8"?>
<svg width="512px" height="1024px" viewBox="0 0 512 1024" version="1.1" xmlns="http://www.w3.org/2000/svg" xmlns:xlink="http://www.w3.org/1999/xlink">
    <!-- Generator: Sketch 61.2 (89653) - https://sketch.com -->
    <title>2.人物组件/7.设计师/走路/看电脑</title>
    <desc>Created with Sketch.</desc>
    <defs>
        <polygon id="path-1" points="0.558661947 0.476311947 64.6251685 0.476311947 64.6251685 27 0.558661947 27"></polygon>
        <polygon id="path-3" points="0.0786012971 1.09389149 133.3365 1.09389149 133.3365 87.5558085 0.0786012971 87.5558085"></polygon>
    </defs>
    <g id="2.人物组件/7.设计师/走路/看电脑" stroke="none" stroke-width="1" fill="none" fill-rule="evenodd">
        <path d="M275.65975,300.08045 C275.65975,300.08045 291.73525,297.21095 296.55925,314.14445 C312.39475,319.32695 308.68375,336.53945 308.68375,336.53945 C308.68375,336.53945 316.98175,349.69445 301.59025,357.07445 C300.78775,370.85645 285.09175,368.86595 285.09175,368.86595 C285.09175,368.86595 281.68975,379.60745 269.67925,375.62045 C257.19925,385.99745 233.00275,384.78545 224.03725,372.88895 C207.46225,386.12495 177.39325,371.60795 180.72475,359.90945 C160.84375,359.35445 150.53725,338.62145 161.58325,320.36645 C152.19025,306.51845 162.09925,297.83945 162.09925,297.83945 C162.09925,297.83945 158.23075,265.45145 180.57325,260.34695 C191.55925,242.48195 217.00225,255.72095 217.00225,255.72095 C217.00225,255.72095 233.44225,251.74595 239.84425,265.91945 C258.43225,268.16195 257.89525,278.35745 259.59775,286.84745 C276.18025,287.24495 275.65975,300.08045 275.65975,300.08045" id="Fill-1" fill="#253368"></path>
        <path d="M223.8211,285.89345 C210.9271,288.59195 206.6641,278.90645 206.6641,278.90645 C206.6641,278.90645 200.8636,265.26095 199.7701,273.78995 C199.1881,278.32295 192.0211,272.56745 188.9731,277.47845 C186.9211,280.78445 192.4501,284.77745 185.7226,293.63195 C181.8256,298.76045 197.9731,302.22545 188.3896,311.75795 C188.3896,311.75795 195.7831,322.77245 183.8341,326.83295 L182.9851,340.05695 C182.4901,347.75345 188.7436,354.19745 196.4506,353.93345 C203.8006,353.68295 209.4916,347.41145 209.0281,340.07345 L208.0156,324.01595 C226.7551,323.40395 226.8301,297.62045 223.8211,285.89345" id="Fill-3" fill="#FFC999"></path>
        <path d="M200.359908,300.381381 C200.674279,300.045873 201.20111,300.028737 201.536619,300.343108 L201.701996,300.485325 C201.777666,300.547067 201.873647,300.622261 201.989241,300.708255 C202.385092,301.00274 202.848856,301.298925 203.374728,301.575968 C205.268057,302.573422 207.419377,303.057926 209.767189,302.753032 C210.223138,302.693821 210.640757,303.015441 210.699968,303.471389 C210.759179,303.927338 210.437559,304.344957 209.981611,304.404168 C207.264933,304.756963 204.777012,304.196653 202.598672,303.049047 C201.557535,302.50055 200.812438,301.946249 200.398181,301.558092 C200.062673,301.243721 200.045537,300.71689 200.359908,300.381381 Z" id="Stroke-5" fill="#F5222D" fill-rule="nonzero"></path>
        <path d="M210.16591,287.119236 C210.459826,287.130524 210.695422,287.354328 210.730458,287.637049 L210.734514,287.73326 L210.73495,287.836576 C210.744735,288.246875 210.85065,288.919854 211.135542,289.825372 C211.648474,291.455705 212.59145,293.282794 214.074688,295.267285 C214.277112,295.538118 214.211843,295.923209 213.931481,296.112215 L213.089009,296.674726 C211.997743,297.396042 211.034406,298.003287 210.196713,298.505108 L209.888462,298.688366 C209.57647,298.872392 209.300978,299.030246 209.061606,299.163365 L208.54671,299.440142 C208.254501,299.586502 207.898969,299.468269 207.752608,299.17606 C207.606248,298.883851 207.724481,298.528319 208.01669,298.381958 L208.23444,298.267218 L208.860041,297.917722 C208.993299,297.841211 209.135665,297.758358 209.287188,297.668984 L209.904187,297.299322 C210.65161,296.844957 211.495742,296.309218 212.438097,295.6863 L212.759,295.471 L212.531291,295.147491 C211.398935,293.506612 210.614463,291.961584 210.123307,290.534782 L210.006598,290.180558 C209.685757,289.160779 209.562098,288.371039 209.55148,287.845172 L209.551886,287.68784 C209.564428,287.361266 209.839336,287.106694 210.16591,287.119236 Z" id="Stroke-7" fill="#DD936F" fill-rule="nonzero"></path>
        <path d="M201.45637,287.245367 C201.898105,287.231101 202.267767,287.577634 202.282033,288.01937 C202.381338,291.094325 200.149056,293.688583 197.258819,293.783024 C194.366877,293.877462 191.969415,291.434282 191.868381,288.357968 C191.853874,287.91624 192.200204,287.546389 192.641932,287.531881 C193.08366,287.517374 193.453511,287.863704 193.468019,288.305432 C193.540986,290.527161 195.229562,292.247937 197.206565,292.183377 C199.18183,292.118834 200.754081,290.291634 200.682367,288.07103 C200.668101,287.629295 201.014634,287.259633 201.45637,287.245367 Z" id="Stroke-9" fill="#373A65" fill-rule="nonzero"></path>
        <path d="M221.665547,287.13721 C222.084919,287.123429 222.436059,287.452225 222.44984,287.871597 C222.549687,290.910045 220.551435,293.491958 217.905465,293.57889 C215.261328,293.66582 213.100529,291.218618 213.00066,288.179503 C212.986879,287.760131 213.315675,287.408991 213.735047,287.39521 C214.154419,287.381429 214.505559,287.710225 214.51934,288.129597 C214.593528,290.387199 216.12109,292.117233 217.855552,292.06021 C219.592686,292.003138 221.005308,290.177908 220.93116,287.921503 C220.917379,287.502131 221.246175,287.150991 221.665547,287.13721 Z" id="Stroke-11" fill="#373A65" fill-rule="nonzero"></path>
        <path d="M192.625695,278.705174 C195.566235,277.513469 198.677793,277.609423 201.615603,278.477946 C202.441266,278.722042 203.057584,278.968892 203.410969,279.140952 C203.808337,279.334428 203.973623,279.813402 203.780148,280.210769 C203.586672,280.608137 203.107698,280.773423 202.710331,280.579948 L202.428007,280.456144 L202.317253,280.411114 C201.979758,280.27594 201.592194,280.140003 201.161851,280.012778 C198.54097,279.237951 195.782221,279.152876 193.226835,280.188491 C192.599094,280.442894 191.993545,280.763213 191.41209,281.153433 C191.045106,281.399719 190.547953,281.301874 190.301667,280.93489 C190.055381,280.567906 190.153226,280.070753 190.52021,279.824467 C191.193692,279.372487 191.896728,279.000601 192.625695,278.705174 Z" id="Stroke-13" fill="#373A65" fill-rule="nonzero"></path>
        <path d="M195.911541,321.215928 C196.058322,320.92393 196.414023,320.806209 196.706022,320.952991 C200.40592,322.812855 204.207761,323.683995 207.994087,323.612555 C208.320843,323.60639 208.590729,323.866281 208.597002,324.193037 C208.60306,324.519793 208.343169,324.789679 208.016413,324.795845 C204.037253,324.870923 200.045402,323.956245 196.174478,322.010409 C195.88248,321.863628 195.764759,321.507927 195.911541,321.215928 Z" id="Stroke-15" fill="#DD936F" fill-rule="nonzero"></path>
        <path d="M323.5843,434.31425 L323.5843,434.31425 C323.2018,429.44825 319.0588,425.74475 314.1793,425.90675 L220.0078,429.02975 C211.3633,429.60275 204.8533,437.12975 205.5343,445.76675 L205.5343,445.76675 C206.2213,454.47875 213.9508,460.91525 222.6448,460.01075 L316.0228,444.03125 C320.6773,443.23475 323.9563,439.02125 323.5843,434.31425" id="Fill-17" fill="#FFC999"></path>
        <path d="M219.92905,461.10185 L219.92905,461.10185 C228.63805,461.95835 236.39155,455.59385 237.24805,446.88485 L245.59405,362.02235 C246.45205,353.31485 240.08605,345.55985 231.37705,344.70335 C222.66955,343.84685 214.91605,350.21285 214.05955,358.92035 L205.71205,443.78285 C204.85555,452.49185 211.22005,460.24535 219.92905,461.10185" id="Fill-19" fill="#FFC999"></path>
        <path d="M210.5203,394.8953 L214.0588,358.9208 C214.9123,350.2478 222.7063,343.8503 231.3778,344.7038 C240.0508,345.5558 246.4483,353.3498 245.5948,362.0213 L242.0893,397.6553 L210.5203,394.8953 Z" id="Fill-21" fill="#597EF7"></path>
        <path d="M165.25735,472.9481 L165.25735,472.9481 C177.72235,469.1501 190.86985,476.3591 194.37085,488.9111 L232.00435,623.8601 C234.90235,634.2551 228.97735,645.0626 218.65435,648.2066 C208.33285,651.3521 197.38735,645.6851 193.99735,635.4401 L149.99035,502.4321 C145.89835,490.0616 152.79235,476.7461 165.25735,472.9481" id="Fill-23" fill="#FFC999"></path>
        <path d="M251.09575,791.4329 L251.09575,791.4329 C258.09025,789.8219 262.56475,782.9759 261.23275,775.9229 L232.74475,625.0709 C230.69125,614.2034 220.01275,607.2239 209.23675,609.7079 C198.45925,612.1889 191.91025,623.1374 194.81875,633.8069 L235.19575,781.9214 C237.08275,788.8454 244.10125,793.0439 251.09575,791.4329" id="Fill-25" fill="#FFC999"></path>
        <polygon id="Fill-27" fill="#597EF7" points="266.24815 795.0248 241.27165 801.7568 229.53715 763.6148 258.32815 755.8463"></polygon>
        <path d="M259.036842,763.055543 C259.478425,762.936715 259.932728,763.198359 260.051557,763.639942 C260.161245,764.047557 259.946743,764.466011 259.565776,764.621438 L259.467158,764.654657 L233.664158,771.598157 C233.222575,771.716985 232.768272,771.455341 232.649443,771.013758 C232.539755,770.606143 232.754257,770.187689 233.135224,770.032262 L233.233842,769.999043 L259.036842,763.055543 Z" id="Stroke-29" fill="#DFE5F1" fill-rule="nonzero"></path>
        <path d="M267.63025,793.02965 L240.65725,800.29415 L252.70825,849.62165 L313.01275,833.39165 L311.13475,825.82565 C310.43575,823.04615 307.84525,821.16815 304.98625,821.36915 L287.71075,820.96865 L278.22475,818.49965 C275.36875,817.75715 273.15475,815.51165 272.46325,812.64065 C270.97525,806.47115 268.44175,796.01165 267.63025,793.02965" id="Fill-31" fill="#4E5C93"></path>
        <g id="分组" transform="translate(250.000000, 825.563000)">
            <mask id="mask-2" fill="white">
                <use xlink:href="#path-1"></use>
            </mask>
            <g id="Clip-34"></g>
            <path d="M0.72,27.00015 L60.8415,10.81965 C64.4115,9.16665 64.749,8.58015 64.596,8.01015 L62.781,1.26765 C62.628,0.69765 62.0415,0.36015 61.4715,0.51315 L1.35,16.69365 C0.78,16.84665 0.4425,17.43315 0.5955,18.00315 L2.4105,24.74565 C2.5635,25.31565 3.15,25.65315 0.72,27.00015" id="Fill-33" fill="#C9D4EA" mask="url(#mask-2)"></path>
        </g>
        <path d="M311.4715,826.07645 L311.4715,826.07645 C311.1595,824.91695 308.0095,817.73495 301.8925,819.48545 L287.704,820.94645 L289.657,831.78845 L311.4715,826.07645 Z" id="Fill-35" fill="#C9D4EA"></path>
        <path d="M311.368976,825.695505 C311.579366,825.638883 311.795823,825.763536 311.852445,825.973926 C311.90199,826.158018 311.812745,826.346753 311.648715,826.428993 L311.574024,826.457395 L251.452524,842.637895 C251.242134,842.694517 251.025677,842.569864 250.969055,842.359474 C250.91951,842.175382 251.008755,841.986647 251.172785,841.904407 L251.247476,841.876005 L311.368976,825.695505 Z" id="Stroke-37" fill="#96A7CA" fill-rule="nonzero"></path>
        <path d="M271.385357,810.285812 C271.792936,810.07846 272.291436,810.240777 272.498788,810.648357 C272.70614,811.055936 272.543823,811.554436 272.136243,811.761788 L271.876668,811.9034 C271.700093,812.004461 271.472067,812.142589 271.205038,812.316562 C270.487535,812.784026 269.769585,813.333785 269.102162,813.959203 C268.600714,814.429093 268.151131,814.920238 267.762578,815.430807 L267.684,815.536 L267.958169,815.504717 C268.280849,815.46958 268.623494,815.438038 268.984967,815.409836 L269.732679,815.357811 C270.678497,815.299353 271.687137,815.263103 272.709533,815.244746 L273.542525,815.233777 L274.572717,815.232843 C275.299018,815.240226 275.664517,816.112506 275.160429,816.635443 L275.053829,816.750962 C274.928933,816.890798 274.750756,817.103122 274.533757,817.383783 C274.125867,817.911342 273.716928,818.510081 273.326563,819.174118 L273.09473,819.580328 L272.92,819.905 L273.10104,819.858388 C273.544601,819.747353 274.010545,819.645446 274.497197,819.552168 L274.990689,819.461747 C276.48365,819.200375 278.076688,819.027157 279.668769,818.92445 C280.086171,818.897524 280.481353,818.876977 280.848877,818.861933 L281.505102,818.839942 C281.634501,818.836669 281.733785,818.834948 281.800157,818.834335 C282.662325,818.826376 282.942016,819.956085 282.239411,820.370008 L282.013086,820.483078 C281.906399,820.539057 281.760119,820.622797 281.584285,820.735458 C281.133708,821.024153 280.681332,821.386132 280.2598,821.824248 C279.577305,822.533596 279.0445,823.371559 278.714881,824.348907 C278.568743,824.782219 278.099005,825.015019 277.665693,824.868881 C277.232381,824.722743 276.999581,824.253005 277.145719,823.819693 C277.516293,822.720911 278.091495,821.764671 278.818556,820.944459 L279.066462,820.676084 L279.117,820.624 L279.007701,820.632299 C277.985566,820.713735 276.971822,820.826438 275.998332,820.974857 L275.27626,821.092938 C273.875825,821.338112 272.658419,821.650795 271.682077,822.033652 C271.006794,822.298454 270.341576,821.628591 270.61107,820.955166 C270.914189,820.19772 271.262045,819.471312 271.646112,818.777931 C271.980273,818.174648 272.330506,817.615721 272.686543,817.103611 L272.832,816.898 L272.73926,816.90048 C271.989316,816.913944 271.247607,816.937229 270.53583,816.971998 L269.834835,817.010657 L269.182727,817.055586 C267.920041,817.152181 266.911927,817.289174 266.255406,817.466236 C265.574619,817.649842 264.990531,816.952807 265.290419,816.314647 C265.902793,815.011514 266.824364,813.824209 267.969836,812.750827 C268.713264,812.054187 269.506939,811.446442 270.301061,810.92906 L270.641011,810.712903 C270.960335,810.515048 271.215451,810.37225 271.385357,810.285812 Z" id="Stroke-39" fill="#DFE5F1" fill-rule="nonzero"></path>
        <path d="M269.894122,802.998402 C269.801927,802.990464 269.709053,802.998038 269.619362,803.020807 L269.097717,803.165751 L268.946806,803.210329 C268.424307,803.366152 267.843383,803.555257 267.218414,803.778605 C265.432436,804.416866 263.645871,805.203276 261.972801,806.147539 C256.721498,809.111319 253.681645,812.960968 254.155046,817.792591 C254.422634,820.519415 255.825539,821.693489 257.901402,820.978527 C259.357997,820.476852 261.135642,819.041569 263.226764,816.836469 C264.031934,815.987413 264.871168,815.0355 265.735337,813.998698 C267.002405,812.478511 268.261065,810.852138 269.454923,809.226027 L270.164498,808.24845 L271.007355,807.052553 L271.08152,806.967333 C271.173339,806.854253 271.312885,806.662602 271.453044,806.437502 C271.664988,806.097114 271.827676,805.755746 271.920796,805.411866 C272.26774,804.130651 271.538183,803.139943 269.894122,802.998402 Z M269.893,804.66 L269.987209,804.66988 C270.387113,804.711134 270.384006,804.751391 270.322365,804.979022 C270.277417,805.145008 270.180764,805.347816 270.047278,805.562198 L269.891115,805.796012 C269.816331,805.900606 269.749165,805.984659 269.701631,806.03885 L268.818577,807.283654 C268.600264,807.588022 268.366901,807.909775 268.120055,808.245994 C266.944905,809.846625 265.70637,811.446993 264.463264,812.938431 C263.620449,813.949613 262.804176,814.875482 262.025152,815.696967 C260.108187,817.718417 258.491331,819.023878 257.362137,819.412791 C256.405545,819.742257 255.974963,819.381908 255.803142,817.630985 C255.408557,813.603778 258.043737,810.266605 262.786743,807.589703 C264.370129,806.696056 266.072623,805.946652 267.775706,805.338015 C268.252668,805.167562 268.701993,805.018257 269.116158,804.889749 L269.420072,804.797262 C269.616098,804.738802 269.773501,804.694038 269.893,804.66 Z" id="Stroke-41" fill="#DFE5F1" fill-rule="nonzero"></path>
        <path d="M236.5477,469.695319 L236.5477,469.695319 C249.5782,469.67435 260.0722,480.38435 259.7827,493.41335 L256.6777,633.47735 C256.4392,644.26535 247.6342,652.89035 236.8447,652.908378 C226.0537,652.92635 217.2217,644.32835 216.9472,633.54185 L213.3892,493.48835 C213.0577,480.46085 223.5157,469.71635 236.5477,469.695319" id="Fill-43" fill="#FFC999"></path>
        <path d="M143.89195,775.1285 L143.89195,775.1285 C149.90845,779.0435 157.94095,777.509 162.09145,771.6545 L250.86595,646.406 C257.26195,637.3835 254.86945,624.8525 245.59945,618.821 C236.33095,612.7895 223.90495,615.6785 218.24545,625.1795 L139.69645,757.082 C136.02445,763.2485 137.87695,771.215 143.89195,775.1285" id="Fill-45" fill="#FFC999"></path>
        <polygon id="Fill-47" fill="#597EF7" points="151.45855 788.28935 129.84055 775.32035 149.13805 740.39735 173.95705 755.28635"></polygon>
        <path d="M145.975225,747.775132 C146.190877,747.415674 146.636214,747.278856 147.010984,747.439756 L147.111218,747.491075 L170.023718,761.237075 C170.415854,761.472331 170.54303,761.980933 170.307775,762.373068 C170.092123,762.732526 169.646786,762.869344 169.272016,762.708444 L169.171782,762.657125 L146.259282,748.911125 C145.867146,748.675869 145.73997,748.167267 145.975225,747.775132 Z" id="Stroke-49" fill="#DFE5F1" fill-rule="nonzero"></path>
        <path d="M154.4212,788.23445 L130.6552,773.97695 L103.3342,816.79145 L156.8887,848.91845 L161.0287,842.31395 C162.5422,839.88095 162.0952,836.71295 159.9667,834.79445 L148.2577,822.08495 L143.4487,813.54545 C141.9997,810.97295 142.0777,807.81995 143.6647,805.32845 C147.0712,799.97495 152.8387,790.88795 154.4212,788.23445" id="Fill-51" fill="#4E5C93"></path>
        <path d="M100,820.0208 L153.391,852.0503 C156.8965,850.8548 157.5535,850.6898 157.8565,850.1843 L161.449,844.1963 C161.752,843.6908 161.5885,843.0338 161.0815,842.7308 L107.6905,810.7013 C107.185,810.3968 106.5295,810.5603 106.225,811.0673 L102.6325,817.0538 C102.3295,817.5608 102.4945,818.2163 100,820.0208" id="Fill-53" fill="#C9D4EA"></path>
        <path d="M161.0818,842.73035 L161.0818,842.73035 C165.5098,837.23435 158.8183,830.96135 159.1738,831.26135 L148.2688,822.06485 L141.8233,830.99735 L161.0818,842.73035 Z" id="Fill-55" fill="#C9D4EA"></path>
        <path d="M107.352505,810.497905 C107.450578,810.334424 107.648364,810.267594 107.821443,810.328527 L107.893745,810.362555 L161.284745,842.392055 C161.47158,842.504138 161.532179,842.74646 161.420095,842.933295 C161.322022,843.096776 161.124236,843.163606 160.951157,843.102673 L160.878855,843.068645 L107.487855,811.039145 C107.30102,810.927062 107.240421,810.68474 107.352505,810.497905 Z" id="Stroke-57" fill="#96A7CA" fill-rule="nonzero"></path>
        <path d="M137.382653,802.365777 C139.262514,802.004931 141.246331,802.121962 143.155651,802.532455 L143.573474,802.627293 C144.031694,802.737049 144.385362,802.841661 144.611231,802.919777 C145.043407,803.069242 145.272589,803.540755 145.123123,803.972931 C144.985156,804.371862 144.57278,804.597829 144.170236,804.512674 L143.746573,804.385455 C143.470367,804.306042 143.155164,804.22619 142.807574,804.15146 C141.382394,803.845054 139.913927,803.72137 138.520751,803.869719 L138.263,803.902 L138.293231,803.926852 C138.462038,804.065009 138.636407,804.211421 138.81617,804.365785 L139.371472,804.852421 L139.89024,805.322681 C139.978217,805.403581 140.066923,805.485707 140.15632,805.569009 C140.698712,806.074426 141.24861,806.606087 141.789985,807.144239 L142.685346,808.0477 L143.26368,808.647366 C143.762932,809.175266 143.388689,810.0443 142.6621,810.0443 L142.546065,810.046814 C142.470378,810.049489 142.368605,810.054535 142.242627,810.063043 C141.883317,810.08731 141.473887,810.131259 141.023059,810.199874 C140.376131,810.298334 139.713294,810.436289 139.043194,810.618542 L138.753,810.701 L139.13595,810.941098 C139.811201,811.373422 140.508041,811.868416 141.22026,812.416061 L141.649386,812.750886 C142.643538,813.537636 143.611926,814.378753 144.517282,815.219819 L144.969412,815.645032 L145.597126,816.255385 L145.690127,816.348902 C146.296468,816.965824 145.671679,817.955994 144.882241,817.729107 L144.652316,817.647257 C144.538532,817.609537 144.377487,817.562611 144.17528,817.514448 C142.725485,817.169127 141.125245,817.225962 139.580135,817.958057 C139.166884,818.153862 138.673147,817.977586 138.477343,817.564335 C138.281538,817.151084 138.457814,816.657347 138.871065,816.461543 C140.049343,815.903258 141.244385,815.659978 142.403466,815.652324 L142.53,815.654 L142.313104,815.460814 C141.946059,815.13912 141.571852,814.82101 141.193053,814.510059 L140.621733,814.049448 C139.665383,813.292615 138.740778,812.634048 137.870489,812.102687 C137.339792,811.778667 136.835467,811.505884 136.362211,811.289052 C135.702928,810.986988 135.722948,810.043425 136.39445,809.769597 C137.710373,809.232983 139.028001,808.867107 140.299384,808.641018 L140.854,808.55 L140.62343,808.31961 C140.270215,807.968491 139.913538,807.620428 139.558371,807.281448 L139.027375,806.780546 L138.516733,806.310996 L138.268638,806.087773 C137.293297,805.217058 136.473253,804.568155 135.880811,804.212932 C135.27616,803.850389 135.37232,802.946252 136.0397,802.718996 C136.472451,802.571636 136.920649,802.45446 137.382653,802.365777 Z" id="Stroke-59" fill="#DFE5F1" fill-rule="nonzero"></path>
        <path d="M127.244433,795.732787 C125.198949,798.134526 125.734602,800.102184 128.350681,800.968877 C130.171737,801.572183 133.042867,801.715658 136.724032,801.514552 C138.532145,801.415772 140.457603,801.236742 142.421055,801.000529 C143.289114,800.896097 144.121161,800.785704 144.90057,800.67409 L146.156323,800.486251 L146.675655,800.402593 C146.906807,800.397453 147.367499,800.335362 147.845987,800.187647 C148.515873,799.980845 149.033854,799.65667 149.313259,799.11861 C149.680462,798.411476 149.484255,797.6059 148.818701,796.785862 C148.760417,796.71405 148.690513,796.652509 148.611892,796.603798 L148.291973,796.413532 L147.885627,796.18244 C147.813225,796.142074 147.738518,796.100824 147.661562,796.058753 L147.423996,795.930143 C146.49647,795.432803 145.470117,794.935961 144.371968,794.472003 C141.68266,793.335797 139.008483,792.579666 136.485549,792.383307 C132.669139,792.086277 129.485209,793.101743 127.244433,795.732787 Z M136.357052,794.034314 C138.678001,794.214952 141.188879,794.924911 143.727483,795.997446 C144.775903,796.440393 145.756808,796.915235 146.641446,797.389579 L147.078062,797.628184 L147.618,797.938 L147.678461,798.019283 C147.835819,798.239568 147.855194,798.333107 147.843597,798.355439 C147.815486,798.409574 147.644032,798.516877 147.357506,798.605331 C147.038034,798.703956 146.700766,798.749413 146.498258,798.759095 L146.232389,798.797474 L145.23122,798.952266 L144.080472,799.116981 C143.486038,799.19876 142.864596,799.279227 142.223256,799.356384 C140.293092,799.588592 138.402382,799.764392 136.633697,799.861017 C133.149128,800.051383 130.438078,799.915908 128.871469,799.396898 C127.376612,798.901661 127.217761,798.318141 128.505167,796.806513 C130.363059,794.625038 133.027699,793.775191 136.357052,794.034314 Z" id="Stroke-61" fill="#DFE5F1" fill-rule="nonzero"></path>
        <path d="M236.971,445.3409 C250.5955,445.4144 288.9835,528.6764 303.361,558.4019 C302.1925,564.6839 293.1055,576.2789 293.1055,576.2789 C293.1055,576.2789 294.52,581.1104 295.3855,584.0114 C284.5195,594.3614 262.5385,601.1534 262.5385,601.1534 L262.7965,605.3759 C228.2515,624.4379 179.236,612.1529 179.236,612.1529 C179.236,612.1529 178.276,611.3024 178.6765,607.9499 C162.433,608.9429 126.1825,590.8844 126.1825,590.8844 L130.378,580.3379 L115.021,566.7509 C115.021,566.7509 148.444,492.9329 158.878,472.2059 C168.037,454.0124 177.454,448.2779 177.454,448.2779 C177.454,448.2779 212.7985,445.2089 236.971,445.3409" id="Fill-63" fill="#4E5C93"></path>
        <path d="M176.397676,465.211067 C176.522124,464.901719 176.873785,464.751828 177.183133,464.876276 C177.461546,464.988279 177.610799,465.284325 177.547143,465.567928 L177.517924,465.661733 L127.494,590.009 L127.943792,590.292434 L128.364704,590.551604 C129.427232,591.200038 130.678388,591.923282 132.109703,592.702673 C136.203648,594.93194 140.916961,597.162105 146.181843,599.24398 C156.22868,603.216769 167.056505,606.16717 178.472144,607.67082 C178.80273,607.714365 179.035424,608.017658 178.99188,608.348244 C178.948335,608.67883 178.645042,608.911524 178.314456,608.86798 C166.795312,607.350696 155.872583,604.374435 145.737819,600.366878 C140.42549,598.266241 135.667934,596.015142 131.532247,593.763145 C130.083192,592.974094 128.814871,592.240927 127.735681,591.582326 L126.924291,591.078169 L126.411883,590.746736 C126.201325,590.605443 126.104213,590.35029 126.160008,590.109458 L126.188176,590.020067 L176.397676,465.211067 Z" id="Stroke-65" fill="#253368" fill-rule="nonzero"></path>
        <path d="M249.58284,484.409211 C249.855097,484.282978 250.173058,484.376894 250.336176,484.617467 L250.384539,484.70299 L296.574039,584.32399 C296.692986,584.580534 296.617936,584.885267 296.393455,585.057232 L296.099534,585.277328 L295.490438,585.720856 L295.255805,585.888614 C294.334146,586.544726 293.263322,587.275236 292.054631,588.06154 C288.603676,590.306534 284.737348,592.550996 280.545727,594.646019 C274.765611,597.534991 268.82897,599.904918 262.843607,601.575474 C262.522441,601.665114 262.189416,601.477424 262.099776,601.156257 C262.010136,600.835091 262.197826,600.502066 262.518993,600.412426 C268.424944,598.764033 274.290981,596.422292 280.005879,593.565917 C284.154408,591.492432 287.981691,589.270636 291.396172,587.049371 L292.26591,586.477471 C292.828337,586.103575 293.355728,585.744808 293.846657,585.403497 L294.785636,584.740392 L295.272,584.386 L249.289061,485.21091 C249.162828,484.938653 249.256744,484.620692 249.497317,484.457574 L249.58284,484.409211 Z" id="Stroke-67" fill="#253368" fill-rule="nonzero"></path>
        <path d="M221.691757,448.753674 C221.980982,448.673627 222.279324,448.818237 222.400938,449.082232 L222.44718,449.219692 L226.031269,462.263327 C227.070056,466.059922 228.169604,470.090752 229.32027,474.322983 L232.14839,484.751622 C236.763787,501.814533 241.347915,518.979901 245.697477,535.555623 L247.820355,543.670836 L250.561597,554.232388 C255.715484,574.185717 260.066293,591.606335 263.421941,605.840516 C263.489467,606.126949 263.340642,606.420339 263.069633,606.535047 C259.812406,607.913709 256.466765,609.137015 253.039482,610.210432 C231.621857,616.918381 208.850628,617.499962 187.835307,614.470789 C185.525313,614.137823 183.431599,613.783342 181.578039,613.42655 L180.969112,613.307561 C180.501797,613.214853 180.073258,613.126513 179.684708,613.043516 L178.489985,612.775544 C178.225299,612.710865 178.041036,612.479004 178.030027,612.214649 L178.034201,612.114255 L195.143201,475.072755 C195.184509,474.741882 195.486221,474.507143 195.817095,474.548451 C196.114881,474.585628 196.334798,474.833733 196.34569,475.124189 L196.341399,475.222345 L179.299,611.723 L180.232181,611.925115 L181.20408,612.123142 L182.427459,612.358584 C184.105807,612.67198 185.971458,612.982152 188.007577,613.27564 C208.859466,616.281257 231.45896,615.704062 252.678583,609.058126 C255.645352,608.128941 258.549668,607.086451 261.387055,605.927088 L262.128,605.619 L261.374471,602.439996 C258.157639,588.953502 254.123239,572.851353 249.418054,554.633434 L247.75638,548.218895 L245.528792,539.675663 C240.554068,520.662952 235.246132,500.793881 229.917362,481.131958 L225.81749,466.060772 L221.270924,449.496593 C221.181983,449.175232 221.370396,448.842616 221.691757,448.753674 Z" id="Stroke-69" fill="#253368" fill-rule="nonzero"></path>
        <path d="M207.509644,452.109798 C207.809702,452.104958 208.06222,452.319793 208.113711,452.605856 L208.123219,452.703644 L209.974219,565.506644 C209.979689,565.840041 209.713853,566.114748 209.380456,566.120302 C209.080398,566.125142 208.82788,565.910307 208.776389,565.624244 L208.766881,565.526456 L206.915881,452.723456 C206.910411,452.390059 207.176247,452.115352 207.509644,452.109798 Z" id="Stroke-71" fill="#253368" fill-rule="nonzero"></path>
        <path d="M191.20397,450.408584 C191.496272,450.476541 191.689182,450.74618 191.669796,451.036193 L191.655316,451.13337 L173.451316,529.43337 C173.375808,529.75815 173.05131,529.960224 172.72653,529.884716 C172.434228,529.816759 172.241318,529.54712 172.260704,529.257107 L172.275184,529.15993 L190.479184,450.85993 C190.547141,450.567628 190.81678,450.374718 191.106793,450.394104 L191.20397,450.408584 Z" id="Stroke-73" fill="#253368" fill-rule="nonzero"></path>
        <path d="M174.96715,449.85635 L175.42465,442.03985 C175.42465,442.03985 206.00965,439.99385 235.88515,436.30835 C236.89465,439.68935 238.21465,445.81235 238.21465,445.81235 C235.54315,443.92535 208.74715,451.95635 174.96715,449.85635" id="Fill-75" fill="#4E5C93"></path>
        <path d="M234.952335,445.444504 C235.283399,445.404759 235.584,445.64092 235.623746,445.971985 C235.663491,446.303049 235.42733,446.60365 235.096265,446.643396 C220.590805,448.384822 206.514998,449.69004 194.179377,450.540271 L191.577053,450.714274 C187.982859,450.946973 184.802858,451.120225 182.309359,451.224099 L180.975072,451.275087 C180.567525,451.289035 180.198696,451.299903 179.873097,451.307604 L179.215353,451.319547 C178.869507,451.323429 178.611003,451.321475 178.442706,451.313444 C178.333984,451.308251 178.255941,451.300874 178.184547,451.28518 L178.137064,451.282815 C178.079428,451.273069 178.026434,451.223825 177.761464,450.977607 L177.816645,450.479447 C177.861237,450.153547 177.903789,450.146122 178.063356,450.11828 C178.18589,450.065605 178.316225,450.056652 178.436942,450.084477 L178.51,450.107 L178.781744,450.113577 L179.201799,450.112123 L180.097285,450.094056 C180.525284,450.082587 181.019462,450.066237 181.57074,450.045173 L183.163936,449.97826 C186.116771,449.844534 189.887723,449.625708 194.096348,449.335629 L196.76162,449.146779 C208.422381,448.298343 221.502445,447.059206 234.952335,445.444504 Z" id="Stroke-77" fill="#253368" fill-rule="nonzero"></path>
        <path d="M235.0228,370.38995 C237.6418,377.49245 242.5603,389.75045 242.6833,397.60745 C242.8843,410.34395 233.9218,419.11895 233.9218,419.11895 C233.9218,419.11895 234.1273,415.39295 230.7973,448.09895 C192.5683,451.80245 169.0648,442.91045 169.0648,442.91045 L170.4703,434.28095 L165.9298,413.27795 C165.9298,413.27795 162.7993,405.34445 156.4693,387.69695 C152.0698,375.42695 153.5743,360.75395 154.9003,352.94945 C155.4688,349.60595 158.0353,346.95545 161.3608,346.29245 C172.9813,343.97195 177.2953,344.20445 177.2953,344.20445 L178.9468,336.78395 C179.2303,335.51345 180.4033,334.64345 181.7023,334.74395 L209.4283,336.88445 C210.6178,336.97745 211.5958,337.86395 211.8028,339.03995 L213.2218,347.12045 L232.5733,350.16995 C235.2268,350.90495 234.6343,354.92945 234.7033,357.68195 L235.0228,370.38995 Z" id="Fill-79" fill="#597EF7"></path>
        <path d="M185.06797,344.719765 L210.03247,346.647265 C210.295128,346.667545 210.491614,346.896912 210.471335,347.15957 C210.453308,347.393044 210.270077,347.574234 210.045109,347.597373 L209.95903,347.598435 L184.99453,345.670935 C184.731872,345.650655 184.535386,345.421288 184.555665,345.15863 C184.573692,344.925156 184.756923,344.743966 184.981891,344.720827 L185.06797,344.719765 Z" id="Stroke-81" fill="#1D39C4" fill-rule="nonzero"></path>
        <path d="M176.778159,342.053539 C177.030345,341.883426 177.363672,341.926295 177.565607,342.140841 L177.627761,342.218659 L201.414,377.481 L214.036215,347.276444 C214.153499,346.995764 214.455579,346.848483 214.742173,346.916833 L214.836856,346.947715 C215.117536,347.064999 215.264817,347.367079 215.196467,347.653673 L215.165585,347.748356 L202.106585,379.000856 C201.932228,379.418121 201.392141,379.500237 201.097819,379.186578 L201.034539,379.107141 L176.613039,342.903141 C176.424025,342.622934 176.497951,342.242554 176.778159,342.053539 Z" id="Stroke-83" fill="#C9D4EA" fill-rule="nonzero"></path>
        <path d="M208.8973,381.92855 C211.3048,386.81105 209.6053,392.57105 205.1008,394.79255 C200.5963,397.01405 194.9923,394.85555 192.5848,389.97305 C190.1773,385.09055 191.8768,379.33205 196.3813,377.11055 C200.8858,374.88905 206.4898,377.04605 208.8973,381.92855" id="Fill-85" fill="#C9D4EA"></path>
        <path d="M209.89345,381.9827 C212.30095,386.8652 210.60145,392.6237 206.09695,394.8452 C201.59245,397.0667 195.98845,394.9097 193.58095,390.0272 C191.17345,385.1432 192.87295,379.3847 197.37745,377.1632 C201.88195,374.9417 207.48595,377.1002 209.89345,381.9827" id="Fill-87" fill="#F0F0F5"></path>
        <path d="M208.0726,382.66025 C209.9431,386.45075 208.6231,390.92375 205.1251,392.64725 C201.6286,394.37225 197.2771,392.69675 195.4081,388.90625 C193.5376,385.11575 194.8576,380.64425 198.3541,378.91925 C201.8521,377.19425 206.2036,378.86975 208.0726,382.66025" id="Fill-89" fill="#FAAD14"></path>
        <path d="M154.95102,352.47524 C155.213002,352.502921 155.40294,352.737739 155.37526,352.99972 L155.176591,355.005093 L155.027807,356.612556 C154.953783,357.434828 154.880586,358.28316 154.809463,359.149676 L154.739076,360.021962 C154.59061,361.894256 154.462679,363.722917 154.360973,365.471811 L154.303143,366.511287 C154.068988,370.926239 154.030896,374.469164 154.23755,376.808628 C154.456238,379.284319 155.709775,383.574035 157.735321,389.133655 C158.117918,390.183791 158.524188,391.268211 158.951097,392.381009 C159.994513,395.100818 161.112726,397.866586 162.230955,400.533051 L163.145703,402.690836 L163.701596,403.986146 L163.746971,404.095666 L171.362471,434.350666 L171.369613,434.550158 L169.869,443.035 L170.288377,443.152589 C170.874676,443.314114 171.550012,443.491591 172.310939,443.68161 L172.698519,443.77765 C175.332407,444.42533 178.363597,445.073262 181.748306,445.678142 C196.579626,448.328644 212.869502,449.303825 229.638659,447.637336 L230.447,447.553 L230.894985,443.329437 L231.962764,433.781254 L233.520514,420.108688 L233.596003,419.900785 L233.959955,419.330824 L234.325639,418.74094 C234.516003,418.430143 234.717248,418.095967 234.927557,417.740237 C235.929453,416.045565 236.931463,414.21227 237.866271,412.308209 C239.11372,409.767345 240.143393,407.297424 240.880777,404.97532 C241.533534,402.919713 241.941108,401.027472 242.071816,399.334877 C242.414016,394.903226 242.113588,391.418844 241.126782,387.833618 C240.626464,386.015882 239.948175,384.143296 238.963363,381.814969 L238.418314,380.551644 C238.18649,380.027128 237.814697,379.202774 237.390025,378.266995 L234.485488,371.910116 L234.443269,371.694349 L234.750769,363.877849 C234.761124,363.614613 234.982914,363.409613 235.246151,363.419969 C235.480138,363.429174 235.668112,363.605438 235.699723,363.829373 L235.704031,363.915351 L235.4,371.617 L238.563239,378.544733 C238.85256,379.184284 239.102004,379.739177 239.27717,380.134989 L239.396716,380.406905 C240.641875,383.26404 241.460897,385.452585 242.046577,387.580451 C243.063505,391.275116 243.37344,394.86976 243.022984,399.408326 C242.886067,401.181332 242.463464,403.143344 241.790034,405.264054 C241.036866,407.635866 239.989512,410.148196 238.72263,412.728643 C237.776165,414.656448 236.762527,416.511019 235.748775,418.225745 L235.335459,418.916815 C235.20208,419.137188 235.073271,419.347398 234.94957,419.546909 L234.45547,420.329181 L232.011744,441.905977 C231.638127,445.279777 231.409879,447.423994 231.363484,448.024823 C231.345786,448.254025 231.167126,448.437998 230.938542,448.462404 C213.649654,450.308349 196.848041,449.345727 181.580476,446.617264 C178.175117,446.008693 175.123983,445.356498 172.470714,444.704052 L171.702428,444.512215 C171.455876,444.449677 171.218908,444.388587 170.991653,444.329073 L170.034992,444.072324 C169.618151,443.957485 169.333551,443.875112 169.186649,443.830626 C168.984382,443.769372 168.850107,443.584289 168.847873,443.379642 L168.855187,443.291042 L170.412,434.485 L162.847771,404.404152 L162.435662,403.454753 C162.162947,402.821757 161.864299,402.121155 161.545116,401.363415 L161.351186,400.901998 C160.229421,398.227101 159.10764,395.452508 158.060394,392.722715 C157.631619,391.605054 157.22347,390.515617 156.838958,389.460228 L156.282173,387.909125 C154.556121,383.023549 153.494308,379.236607 153.28725,376.892572 C153.075625,374.496832 153.114108,370.917547 153.350482,366.460761 C153.441865,364.737742 153.560667,362.92832 153.701188,361.068328 L153.788061,359.94655 C153.857874,359.066144 153.930178,358.20139 154.003729,357.36014 L154.287848,354.280956 L154.42654,352.89948 C154.451146,352.666607 154.639414,352.490658 154.864946,352.473874 L154.95102,352.47524 Z" id="Stroke-91" fill="#1D39C4" fill-rule="nonzero"></path>
        <path d="M331.62115,451.22735 L229.93465,454.11635 C226.06915,454.22735 223.20265,450.56135 224.24065,446.83535 L244.31965,374.74835 C244.99615,372.32285 247.17265,370.62035 249.68815,370.54835 L351.37315,367.65935 C355.24015,367.54835 358.10665,371.21435 357.07015,374.94035 L336.98965,447.02735 C336.31465,449.45285 334.13815,451.15685 331.62115,451.22735" id="Fill-93" fill="#4E5C93"></path>
        <g id="分组" transform="translate(230.500000, 366.563000)">
            <mask id="mask-4" fill="white">
                <use xlink:href="#path-3"></use>
            </mask>
            <g id="Clip-96"></g>
            <path d="M107.67345,84.66435 L5.98695,87.55335 C2.12145,87.66435 -0.74505,83.99835 0.29295,80.27235 L20.37195,8.18535 C21.04845,5.75985 23.22495,4.05735 25.74045,3.98535 L127.42545,1.09635 C131.29245,0.98535 134.16045,4.65135 133.12245,8.37735 L113.04195,80.46435 C112.36695,82.88985 110.19045,84.59385 107.67345,84.66435" id="Fill-95" fill="#253368" mask="url(#mask-4)"></path>
        </g>
        <path d="M342.29185,422.06315 C342.29185,422.06315 354.25435,415.80665 357.27385,417.06065 C361.95385,419.00315 355.88185,427.39265 355.88185,427.39265 C355.88185,427.39265 359.19535,431.34365 355.05085,435.29315 C355.40335,440.43065 352.18885,441.88415 352.18885,441.88415 C352.18885,441.88415 353.83135,446.19815 349.15285,447.90365 C344.47285,449.60915 334.06885,443.11415 339.12235,440.53115 C336.63535,436.13615 340.50985,433.66565 340.50985,433.66565 C340.50985,433.66565 338.93185,429.71915 342.75385,427.40765 C340.64335,425.20715 341.04985,422.72765 342.29185,422.06315" id="Fill-97" fill="#FFC999"></path>
        <path d="M353.481829,424.282834 C353.766568,424.214394 354.052877,424.389739 354.121316,424.674479 C354.182152,424.927581 354.050367,425.181922 353.820348,425.283385 L353.729671,425.313966 L342.877171,427.922466 C342.592432,427.990906 342.306123,427.815561 342.237684,427.530821 C342.176848,427.277719 342.308633,427.023378 342.538652,426.921915 L342.629329,426.891334 L353.481829,424.282834 Z" id="Stroke-99" fill="#DD936F" fill-rule="nonzero"></path>
        <path d="M356.778017,416.874621 C356.880261,416.600201 357.185608,416.460624 357.460029,416.562867 C359.660384,417.382676 360.051185,419.462906 359.151046,422.232652 C358.8625,423.120514 358.449,424.056813 357.942903,425.015578 C357.587191,425.68945 357.20662,426.335222 356.825913,426.931081 L356.503,427.423 L356.526626,427.467512 C356.629936,427.669855 356.732958,427.891179 356.832009,428.129126 L356.929598,428.372528 C357.473309,429.78157 357.689317,431.234264 357.377623,432.615839 C357.147485,433.635922 356.63572,434.552281 355.815463,435.330545 L355.608,435.517 L355.613523,435.560199 C355.848248,437.976579 355.2956,439.786791 354.200592,441.051024 L354.047934,441.220041 C353.597559,441.69834 353.143044,442.019972 352.757305,442.216987 L352.625,442.281 L351.445081,446.342237 C351.372431,446.592204 351.131886,446.74775 350.881823,446.721828 L350.787913,446.703431 C350.537946,446.630781 350.3824,446.390236 350.408322,446.140173 L350.426719,446.046263 L351.679219,441.736763 C351.727817,441.569553 351.855413,441.43686 352.020592,441.381753 C352.080461,441.36178 352.209303,441.30539 352.384065,441.204655 C352.6863,441.030443 352.990699,440.795859 353.275849,440.49303 C354.303528,439.401635 354.820611,437.745487 354.524189,435.357571 C354.501376,435.173793 354.576094,434.991428 354.721297,434.87649 C355.607332,434.175133 356.127545,433.338 356.343124,432.382449 C356.601319,431.238002 356.41495,429.98463 355.940203,428.754309 C355.826037,428.458444 355.703819,428.188127 355.582112,427.949751 L355.474043,427.746335 C355.455055,427.712296 355.439694,427.685898 355.428515,427.66754 C355.318075,427.486182 355.326476,427.256428 355.449867,427.08362 L355.61051,426.851108 C355.698436,426.720848 355.807236,426.555757 355.932247,426.360099 C356.298058,425.787554 356.664007,425.166592 357.005046,424.520518 C357.484867,423.61153 357.87469,422.728846 358.142472,421.904876 C358.88984,419.605206 358.611499,418.123598 357.089771,417.556633 C356.815351,417.454389 356.675774,417.149042 356.778017,416.874621 Z" id="Stroke-101" fill="#DD936F" fill-rule="nonzero"></path>
        <path d="M340.517355,433.134419 L350.184855,433.290419 C350.477666,433.295144 350.711206,433.536344 350.706551,433.829155 C350.702281,434.089432 350.511236,434.302876 350.263183,434.343777 L350.167745,434.350781 L340.500245,434.194781 C340.207434,434.190056 339.973894,433.948856 339.978549,433.656045 C339.982819,433.395768 340.173864,433.182324 340.421917,433.141423 L340.517355,433.134419 Z" id="Stroke-103" fill="#DD936F" fill-rule="nonzero"></path>
        <path d="M339.180032,440.003129 L348.241532,441.015629 C348.53257,441.048149 348.74214,441.310444 348.709621,441.601482 C348.680714,441.860182 348.470257,442.054513 348.21944,442.071664 L348.123768,442.069571 L339.062268,441.057071 C338.77123,441.024551 338.56166,440.762256 338.594179,440.471218 C338.623086,440.212518 338.833543,440.018187 339.08436,440.001036 L339.180032,440.003129 Z" id="Stroke-105" fill="#DD936F" fill-rule="nonzero"></path>
        <path d="M223.7251,447.2906 L223.7251,447.2906 C224.4046,442.4561 221.1631,437.9441 216.3646,437.0441 L123.7516,419.6996 C115.1881,418.3856 107.2021,424.3241 105.9961,432.9041 C104.7796,441.5591 110.9326,449.5166 119.6146,450.5156 L214.2391,455.1386 C218.9551,455.3681 223.0681,451.9661 223.7251,447.2906" id="Fill-107" fill="#FFC999"></path>
        <path d="M114.12115,448.76495 L114.12115,448.76495 C121.90915,452.75345 131.45665,449.67395 135.44515,441.88595 L174.31615,365.98745 C178.30615,358.20095 175.22515,348.65195 167.43715,344.66345 C159.64915,340.67495 150.10165,343.75595 146.11315,351.54395 L107.24215,427.44095 C103.25215,435.22895 106.33315,444.77645 114.12115,448.76495" id="Fill-109" fill="#FFC999"></path>
        <path d="M129.6346,383.71715 L146.1121,351.54365 C150.0856,343.78715 159.6811,340.69115 167.4376,344.66315 C175.1941,348.63665 178.2901,358.23215 174.3166,365.98865 L157.9951,397.85615 L129.6346,383.71715 Z" id="Fill-111" fill="#597EF7"></path>
        <path d="M170.20022,370.234904 C170.314099,369.997349 170.598992,369.897091 170.836546,370.01097 C171.047706,370.112195 171.150385,370.348543 171.090614,370.566657 L171.06048,370.647296 L158.01798,397.854296 C157.915646,398.067769 157.67555,398.169998 157.45606,398.106624 L157.375026,398.07499 L129.014526,383.93599 C128.778761,383.81845 128.682921,383.532041 128.80046,383.296276 C128.90494,383.086707 129.142847,382.987696 129.360011,383.050833 L129.440174,383.08221 L157.366,397.005 L170.20022,370.234904 Z" id="Stroke-113" fill="#1D39C4" fill-rule="nonzero"></path>
        <path d="M231.6514,460.50125 C231.6514,460.50125 214.7404,460.15775 211.3354,450.78425 C208.2514,442.29575 216.3484,438.19775 216.3484,438.19775 C216.3484,438.19775 223.7524,432.85025 233.6329,430.51325 C240.1429,428.97275 252.8194,427.30025 254.0899,430.60925 C255.7474,434.92625 241.2904,435.98375 241.4899,439.34225 C241.6939,442.78775 244.6984,442.79075 251.5249,445.04375 C255.7909,446.45075 260.5519,446.15975 263.9404,448.04375 C270.5659,451.72475 256.9744,463.12775 231.6514,460.50125" id="Fill-115" fill="#FFC999"></path>
        <path d="M242.818073,448.09844 C242.995307,447.823857 243.361576,447.744939 243.63616,447.922173 L243.777851,448.009336 C243.949024,448.110888 244.208297,448.254356 244.552618,448.428451 C245.32727,448.820129 246.238864,449.212961 247.280185,449.580299 C251.596195,451.102823 256.667779,451.72268 262.360369,450.917433 C262.683962,450.871659 262.983393,451.096876 263.029167,451.420469 C263.074941,451.744062 262.849724,452.043493 262.526131,452.089267 C256.635558,452.92252 251.374103,452.279456 246.886471,450.696391 C245.795872,450.311669 244.837596,449.898722 244.018599,449.484621 L243.674642,449.306472 C243.359658,449.139101 243.131916,449.005327 242.99434,448.916527 C242.719757,448.739293 242.640839,448.373024 242.818073,448.09844 Z" id="Stroke-117" fill="#DD936F" fill-rule="nonzero"></path>
        <path d="M240.008291,453.700966 C240.126609,453.396321 240.469489,453.245273 240.774134,453.363591 L240.887486,453.407314 C245.818253,455.296212 251.041965,455.694215 255.645413,455.243631 L256.132414,455.191542 L256.556741,455.137805 C256.711317,455.116539 256.815631,455.100308 256.866272,455.091569 C257.188327,455.035993 257.494456,455.252018 257.550031,455.574072 C257.605607,455.896127 257.389582,456.202256 257.067528,456.257831 L256.71804,456.310262 L256.270935,456.366908 C256.111239,456.385551 255.941021,456.403852 255.760703,456.421502 C251.160652,456.871753 245.977452,456.505436 241.01459,454.717084 L240.345666,454.466809 C240.041021,454.348491 239.889973,454.005611 240.008291,453.700966 Z" id="Stroke-119" fill="#DD936F" fill-rule="nonzero"></path>
        <path d="M234.888231,457.135022 C235.037557,456.844317 235.394273,456.729706 235.684978,456.879031 L235.905941,456.981778 C236.037365,457.039088 236.213188,457.111131 236.43384,457.194725 C237.090479,457.443495 237.888983,457.693516 238.831701,457.927729 C241.718964,458.645051 245.277977,459.056555 249.531038,459.002198 C249.857826,458.998022 250.126125,459.25955 250.130351,459.586338 C250.134478,459.913126 249.87295,460.181425 249.546162,460.185602 C245.191965,460.241251 241.531963,459.818071 238.546342,459.076312 C237.557954,458.830753 236.714741,458.566733 236.014548,458.301462 L235.681614,458.171013 C235.432365,458.069743 235.253501,457.987902 235.144222,457.931769 C234.853517,457.782443 234.738906,457.425727 234.888231,457.135022 Z" id="Stroke-121" fill="#DD936F" fill-rule="nonzero"></path>
    </g>
</svg>