<?xml version="1.0" encoding="UTF-8"?>
<svg width="512px" height="1024px" viewBox="0 0 512 1024" version="1.1" xmlns="http://www.w3.org/2000/svg" xmlns:xlink="http://www.w3.org/1999/xlink">
    <!-- Generator: Sketch 61.2 (89653) - https://sketch.com -->
    <title>2.人物组件/6.产品经理/起身/打招呼</title>
    <desc>Created with Sketch.</desc>
    <defs>
        <polygon id="path-1" points="0.680371216 1.0785 70.1078807 1.0785 70.1078807 84.2858528 0.680371216 84.2858528"></polygon>
        <polygon id="path-3" points="0 1.03627184 98.3111989 1.03627184 98.3111989 88.1946836 0 88.1946836"></polygon>
    </defs>
    <g id="2.人物组件/6.产品经理/起身/打招呼" stroke="none" stroke-width="1" fill="none" fill-rule="evenodd">
        <path d="M343.91295,617.13955 C317.98095,587.66755 290.87445,557.46355 268.75995,533.93155 C268.75995,533.93155 249.79845,519.52855 236.59245,536.79505 C223.64895,553.71805 241.37895,573.34855 241.37895,573.34855 L317.83245,644.46655 C317.83245,644.46655 330.41445,655.91155 343.21245,642.02155 C354.88545,629.35105 343.91295,617.13955 343.91295,617.13955" id="Fill-1" fill="#597EF7"></path>
        <path d="M281.58825,677.1367 L281.58825,677.1367 C278.05725,670.5097 269.27475,668.9047 263.63925,673.8667 C257.15775,679.5757 248.36025,687.2437 238.77525,695.3722 C228.91125,703.7377 220.75275,710.6902 220.28925,712.2697 C218.24025,719.2252 221.68425,726.9397 222.40575,737.1802 C222.97575,745.2847 221.97375,747.5872 226.10925,755.1172 C231.97125,765.7912 232.35525,758.2567 236.33475,737.7952 C239.88075,719.5657 245.57325,715.9237 245.57325,715.9237 L278.20125,691.9882 C282.86475,688.5682 284.30625,682.2412 281.58825,677.1367" id="Fill-3" fill="#CE998A"></path>
        <path d="M238.5087,734.45605 C236.5662,747.23755 236.9817,759.71755 233.3022,762.42805 C229.6212,765.13855 224.1522,764.97205 218.7897,750.11155 C215.1192,739.94305 218.6592,740.81005 217.3797,729.27805 C216.7407,723.51955 215.3547,722.36605 215.3547,716.57305 C216.2787,712.49455 229.4007,703.21555 229.4007,703.21555 L225.7812,728.23855 C225.7812,728.23855 229.6917,719.29555 233.4597,720.91255 C237.2277,722.53105 240.3462,724.30855 240.5142,726.94855 C240.6807,729.58855 238.5087,734.45605 238.5087,734.45605" id="Fill-5" fill="#7D4556"></path>
        <path d="M344.01255,643.67305 C299.22405,677.77255 252.15255,713.08855 252.15255,713.08855 L238.83555,692.51155 L320.23755,613.93255 C320.23755,613.93255 334.05855,604.18405 345.44655,619.18705 C355.72155,632.72455 344.01255,643.67305 344.01255,643.67305" id="Fill-7" fill="#597EF7"></path>
        <path d="M363.0687,447.01855 C363.0687,447.01855 377.4747,460.86655 364.5657,473.84905 C351.4032,487.08655 337.3737,472.50655 337.3737,472.50655 C337.3737,472.50655 326.0937,463.38055 314.1237,451.47955 C304.7712,442.17805 298.6407,434.69755 293.2227,428.17555 C287.3757,421.13905 287.1102,410.95255 293.1567,404.87155 C302.3442,395.63155 311.7417,397.38805 318.4812,403.50655 C325.0362,409.45555 333.6312,417.75505 340.7097,424.47355 C354.3177,437.39155 363.0687,447.01855 363.0687,447.01855" id="Fill-9" fill="#ADC6FF"></path>
        <path d="M413.38755,386.86465 C413.38755,386.86465 406.10805,402.64315 397.94505,402.74065 C390.55005,402.83065 389.15955,393.41065 389.15955,393.41065 C389.15955,393.41065 388.91055,385.92265 390.83505,377.78965 C392.09655,372.45865 392.98155,361.96915 395.88255,361.88215 C399.66705,361.76815 397.01055,372.34465 399.22605,373.97965 C403.71705,377.29315 409.64805,361.09165 412.01955,358.98115 C416.65455,354.85615 422.26155,368.00515 413.38755,386.86465" id="Fill-11" fill="#CE998A"></path>
        <path d="M414.667991,359.929323 C414.958591,359.984271 415.149624,360.264392 415.094677,360.554991 C414.510589,363.644035 413.31748,366.750614 411.696254,369.777498 C410.870627,371.318973 409.9863,372.741187 409.101511,374.011494 C408.915408,374.278685 408.737159,374.527712 408.568334,374.757685 L408.077004,375.408437 C408.004596,375.501314 407.948958,375.570953 407.91166,375.616459 C407.724182,375.845193 407.386776,375.878637 407.158041,375.69116 C406.929307,375.503682 406.895863,375.166276 407.08334,374.937541 L407.391812,374.542884 C407.642052,374.214448 407.921436,373.83187 408.222677,373.399373 C409.084779,372.161638 409.947344,370.774423 410.752148,369.271826 C412.325547,366.334237 413.480612,363.326716 414.042323,360.356009 C414.091166,360.097698 414.317923,359.918057 414.571807,359.919875 L414.667991,359.929323 Z" id="Stroke-13" fill="#965C56" fill-rule="nonzero"></path>
        <path d="M417.224031,363.384889 C417.516775,363.426935 417.720007,363.698336 417.677961,363.991081 L417.622049,364.317036 L417.53858,364.734281 C417.506872,364.88383 417.471203,365.043747 417.431346,365.213733 C417.20485,366.179719 416.889494,367.277957 416.470691,368.489247 C415.277157,371.941268 413.494878,375.614329 411.007267,379.354036 C410.843467,379.600281 410.51106,379.667117 410.264814,379.503317 C410.018569,379.339517 409.951733,379.00711 410.115533,378.760864 C412.55111,375.099383 414.293737,371.508039 415.458484,368.139278 C415.86508,366.963294 416.170336,365.900231 416.388626,364.969245 L416.475283,364.586328 C416.551481,364.235948 416.596976,363.98408 416.617839,363.838819 C416.655681,363.575349 416.8793,363.384385 417.137056,363.379478 L417.224031,363.384889 Z" id="Stroke-15" fill="#965C56" fill-rule="nonzero"></path>
        <path d="M417.053499,372.03212 C417.150303,371.752663 417.455323,371.604594 417.73478,371.701399 C417.983186,371.787447 418.127779,372.038012 418.088856,372.288902 L418.060973,372.395749 C416.892272,375.767483 415.63852,378.592988 414.382703,380.894544 C414.00438,381.587904 413.648533,382.191212 413.321696,382.70623 L413.160726,382.95639 C412.936058,383.300594 412.773105,383.530651 412.682243,383.649367 C412.599575,383.757378 412.478904,383.829884 412.344725,383.852166 L412.098621,383.896929 C412.025221,383.910996 411.939729,383.927845 411.842906,383.947547 C411.436597,384.030224 410.983129,384.132939 410.494451,384.256758 C409.099076,384.610313 407.704282,385.061147 406.406666,385.616529 C402.255087,387.393411 400.101594,389.76145 400.801295,392.794527 C400.867776,393.082706 400.688053,393.370215 400.399873,393.436695 C400.111694,393.503176 399.824185,393.323453 399.757705,393.035273 C398.906525,389.345569 401.413788,386.588515 405.985252,384.631921 C407.339341,384.052369 408.78566,383.584881 410.231398,383.218566 C410.610682,383.122464 410.969818,383.038569 411.30386,382.966371 L411.95,382.834 L412.029181,382.722243 L412.263868,382.370995 C412.61839,381.827848 413.014723,381.165646 413.44255,380.381561 C414.588331,378.281669 415.735912,375.727586 416.818153,372.700828 L417.053499,372.03212 Z" id="Stroke-17" fill="#965C56" fill-rule="nonzero"></path>
        <path d="M338.57805,449.6809 C338.57805,449.6809 327.78255,467.1184 342.05955,476.6164 C356.78505,486.4114 367.91505,470.1619 367.91505,470.1619 C367.91505,470.1619 375.46605,458.5354 384.83205,444.2464 C390.55155,435.5224 396.67305,425.7634 400.10355,418.0399 C403.81605,409.6789 400.12905,406.1494 392.98905,401.4004 C384.51255,395.7619 380.43405,394.2934 374.37405,401.0854 C368.59605,407.5609 362.00655,417.2194 356.56155,424.4749 C346.18005,438.3064 338.57805,449.6809 338.57805,449.6809" id="Fill-19" fill="#ADC6FF"></path>
        <polygon id="Fill-21" fill="#ADC6FF" points="404.76405 401.188 388.25505 390.2065 379.64655 400.57 398.53305 413.1325"></polygon>
        <g id="分组" transform="translate(258.000000, 289.421500)">
            <mask id="mask-2" fill="white">
                <use xlink:href="#path-1"></use>
            </mask>
            <g id="Clip-24"></g>
            <path d="M50.96325,73.08135 C50.96325,73.08135 63.04575,71.51085 63.86625,59.48985 C71.83725,51.98235 68.80725,44.26035 68.80725,44.26035 C68.80725,44.26035 73.30875,32.09085 65.56275,28.30035 C65.33475,13.93785 49.34175,13.32435 49.34175,13.32435 C49.34175,13.32435 43.18275,2.45535 26.35875,7.53585 C16.78875,4.21035 18.57075,-0.48915 14.27325,1.59135 C9.97575,3.67335 5.65575,10.77585 8.53575,15.35085 C0.38775,15.64785 2.44275,29.20785 2.44275,29.20785 C2.44275,29.20785 -2.33325,34.74285 3.83925,42.69735 C10.01175,50.65185 7.14975,67.10535 18.66525,77.10285 C29.74425,86.71935 44.99175,87.89835 50.96325,73.08135" id="Fill-23" fill="#7D4556" mask="url(#mask-2)"></path>
        </g>
        <path d="M293.65125,382.6987 L300.25275,361.2607 L271.27425,354.0097 L263.95425,372.1462 C260.68725,380.2447 264.73875,389.4427 272.91975,392.4967 C273.07425,392.5537 273.23175,392.6122 273.38625,392.6707 C281.75025,395.7982 291.02175,391.2322 293.65125,382.6987" id="Fill-25" fill="#CE998A"></path>
        <path d="M306.82755,327.151 C306.82755,327.151 302.12805,333.7585 306.99705,337.9225 C302.02305,346.906 306.44205,347.824 306.44205,347.824 C306.44205,347.824 316.51305,342.2755 317.88255,351.457 C319.18455,360.1795 307.48005,367.2175 301.33005,362.734 C282.20505,376.0705 259.09605,367.285 256.66305,352.156 C255.18255,342.964 261.34455,333.142 262.87605,327.9475 C266.64255,315.1795 270.45855,312.4525 270.45855,312.4525 C270.45855,312.4525 274.68705,315.4285 281.39655,313.7815 C285.13005,320.155 294.65805,319.489 294.65805,319.489 C294.65805,319.489 297.04605,328.4215 306.82755,327.151" id="Fill-27" fill="#CE998A"></path>
        <path d="M305.760651,354.834706 C304.473826,353.136773 308.404567,349.722392 311.480498,350.377869 C312.769178,350.65325 313.605548,351.21799 314.022163,352.003921 C314.32861,352.582022 314.369081,353.184474 314.257811,353.733846 C314.236578,353.838681 314.213847,353.919687 314.195264,353.973145 C314.093259,354.266581 313.772692,354.421768 313.479255,354.319764 C313.215163,354.22796 313.063052,353.95912 313.109632,353.692354 L313.145201,353.556415 C313.148244,353.543465 313.151639,353.528106 313.1552,353.510524 C313.219205,353.194509 313.195872,352.847164 313.028182,352.530822 C312.778643,352.060076 312.22743,351.687882 311.245714,351.478097 C310.050983,351.223501 308.771449,351.661704 307.746888,352.551674 C307.318202,352.924046 306.980286,353.343637 306.797852,353.713098 C306.664584,353.98299 306.649698,354.145231 306.657308,354.155272 C307.455515,355.208868 307.907558,356.416451 307.768177,357.465708 C307.589406,358.811483 306.499937,359.716337 304.569364,360.012927 C304.262306,360.0601 303.975145,359.849421 303.927973,359.542364 C303.8808,359.235306 304.091479,358.948145 304.398536,358.900973 C305.874077,358.674288 306.54699,358.115404 306.652973,357.317567 C306.746928,356.610284 306.396383,355.673842 305.760651,354.834706 Z" id="Stroke-29" fill="#965C56" fill-rule="nonzero"></path>
        <path d="M307.873974,353.363101 L308.129764,353.431283 C308.200792,353.451921 308.28058,353.476254 308.367735,353.504358 C308.729825,353.62112 309.092401,353.763804 309.434732,353.935011 C310.842773,354.639203 311.578591,355.653644 310.99297,356.947756 C310.864892,357.230786 310.531623,357.356399 310.248594,357.22832 C309.993867,357.11305 309.866648,356.831575 309.937121,356.570104 L309.96803,356.483944 C310.22929,355.906607 309.869179,355.410137 308.931519,354.941193 C308.645108,354.797952 308.334032,354.675535 308.022469,354.575067 L307.739398,354.489925 C307.689221,354.476101 307.64827,354.465665 307.618026,354.458599 C307.315512,354.38792 307.127573,354.085389 307.198251,353.782876 C307.261862,353.510614 307.513273,353.331156 307.783452,353.349512 L307.873974,353.363101 Z" id="Stroke-31" fill="#965C56" fill-rule="nonzero"></path>
        <path d="M281.4594,336.0991 C279.6789,341.2186 282.3879,346.8121 287.5074,348.5911 C292.6269,350.3701 298.2204,347.6611 299.9994,342.5416 C301.7784,337.4221 299.0709,331.8286 293.9499,330.0496 C288.8304,328.2706 283.2384,330.9796 281.4594,336.0991" id="Fill-33" fill="#FFFFFF"></path>
        <path d="M280.806273,335.87195 C278.900419,341.351882 281.799762,347.339786 287.280421,349.244287 C292.760579,351.148614 298.748199,348.248911 300.652587,342.768579 C302.557127,337.287808 299.658096,331.30055 294.17682,329.396393 C288.788201,327.523875 282.910052,330.296326 280.904816,335.600258 L280.806273,335.87195 Z M293.722921,330.702787 C298.482654,332.356285 301.000038,337.555343 299.346213,342.314621 C297.692532,347.073485 292.493025,349.591518 287.734379,347.937913 C282.975284,346.284152 280.457643,341.084564 282.112587,336.326079 C283.766332,331.567029 288.964461,329.049246 293.722921,330.702787 Z" id="Stroke-35" fill="#7D4556" fill-rule="nonzero"></path>
        <path d="M259.27725,327.41845 C257.49675,332.53795 260.20575,338.13145 265.32525,339.91045 C270.44475,341.68945 276.03825,338.98045 277.81725,333.86095 C279.59625,328.74145 276.88875,323.14795 271.76775,321.36895 C266.64825,319.58995 261.05625,322.29895 259.27725,327.41845" id="Fill-37" fill="#FFFFFF"></path>
        <path d="M258.624123,327.1913 C256.718269,332.671232 259.617612,338.659136 265.098271,340.563637 C270.578429,342.467964 276.566049,339.568261 278.470437,334.087929 C280.374977,328.607158 277.475946,322.6199 271.99467,320.715743 C266.606051,318.843225 260.727902,321.615676 258.722666,326.919608 L258.624123,327.1913 Z M271.540771,322.022137 C276.300504,323.675635 278.817888,328.874693 277.164063,333.633971 C275.510382,338.392835 270.310875,340.910868 265.552229,339.257263 C260.793134,337.603502 258.275493,332.403914 259.930437,327.645429 C261.584182,322.886379 266.782311,320.368596 271.540771,322.022137 Z" id="Stroke-39" fill="#7D4556" fill-rule="nonzero"></path>
        <path d="M279.909997,333.650469 C280.09409,333.900707 280.04047,334.252803 279.790231,334.436897 L279.491511,334.662103 C279.250764,334.84607 278.982179,335.056015 278.692773,335.288152 C277.866052,335.951278 277.03948,336.658221 276.269603,337.378057 C275.558599,338.042848 274.932101,338.685626 274.413857,339.292378 C273.255189,340.64893 272.726895,341.735551 272.912168,342.346478 C273.258774,343.488808 274.100852,344.309125 275.314814,344.862863 C275.905157,345.132143 276.543603,345.319224 277.182927,345.437039 L277.487878,345.488213 C277.72206,345.523467 277.904116,345.540995 278.017065,345.546456 C278.327363,345.561459 278.566747,345.825168 278.551744,346.135465 C278.536741,346.445763 278.273032,346.685147 277.962735,346.670144 L277.754073,346.654716 C277.553904,346.635766 277.290181,346.600746 276.979044,346.54341 C276.254995,346.409982 275.530069,346.19756 274.847932,345.886409 C273.363501,345.209299 272.286956,344.160572 271.835609,342.673045 C271.498465,341.561333 272.161896,340.196757 273.55842,338.561726 C274.106668,337.919846 274.761643,337.24785 275.501263,336.556304 C276.293903,335.815185 277.141455,335.090298 277.98886,334.410581 L278.617653,333.914933 L279.123569,333.530703 C279.373807,333.34661 279.725903,333.40023 279.909997,333.650469 Z" id="Stroke-41" fill="#965C56" fill-rule="nonzero"></path>
        <path d="M283.1703,351.7546 C283.1703,351.7546 274.2528,349.7551 268.4658,346.6441 C268.4658,346.6441 268.0518,353.3686 274.4343,354.7621 C280.1028,355.9996 283.1703,351.7546 283.1703,351.7546" id="Fill-43" fill="#FFFFFF"></path>
        <path d="M267.875917,346.607783 L267.872381,346.689153 C267.858904,347.104449 267.882652,347.651878 267.973077,348.285544 C268.109716,349.243073 268.37359,350.190881 268.796909,351.082124 C269.816576,353.228895 271.611916,354.750807 274.308236,355.339498 C277.227924,355.9769 279.742392,355.324977 281.800521,353.852015 C282.705163,353.204582 283.32246,352.553081 283.649322,352.100749 C283.897869,351.756794 283.713682,351.270764 283.299605,351.177919 L282.471651,350.980909 L281.640746,350.771832 C281.208231,350.660544 280.751041,350.539202 280.273316,350.408117 C277.999292,349.784137 275.725718,349.069025 273.606903,348.275023 C271.764451,347.584585 270.12576,346.865482 268.745639,346.123551 C268.36589,345.919404 267.90241,346.177454 267.875917,346.607783 Z M269.085,347.627 L269.177581,347.673344 C270.377037,348.261582 271.723197,348.831393 273.192128,349.381859 C275.348031,350.18976 277.654513,350.915222 279.960543,351.547984 L280.437583,351.677524 C280.907424,351.803761 281.355211,351.920059 281.776839,352.026123 L282.064,352.097 L281.875909,352.2757 C281.6444,352.485606 281.389808,352.692432 281.112611,352.890817 C279.310954,354.180226 277.129992,354.745681 274.560353,354.184699 C272.235973,353.677214 270.732864,352.403026 269.864593,350.574999 C269.496407,349.799832 269.264033,348.96517 269.143223,348.118565 L269.112474,347.883336 L269.085,347.627 Z" id="Stroke-45" fill="#7D4556" fill-rule="nonzero"></path>
        <path d="M268.657418,318.695074 C268.842476,318.426204 269.210456,318.358261 269.479326,318.543318 C272.644126,320.721585 276.187712,321.584282 279.399053,321.244432 C279.723641,321.210081 280.014618,321.445365 280.048968,321.769953 C280.083319,322.094541 279.848035,322.385518 279.523447,322.419868 C276.035674,322.788973 272.209775,321.857545 268.809174,319.516982 C268.540304,319.331924 268.472361,318.963944 268.657418,318.695074 Z" id="Stroke-47" fill="#7D4556" fill-rule="nonzero"></path>
        <path d="M278.031298,331.098607 C278.461841,331.104116 278.916482,331.159284 279.392749,331.258763 C280.213828,331.430265 281.07711,331.727631 281.95462,332.114995 C282.44801,332.332795 282.91562,332.565751 283.343655,332.79898 L283.620282,332.952821 L283.899637,333.117105 L283.173263,334.293995 L282.815211,334.086755 L282.681939,334.013402 C282.285871,333.797591 281.85213,333.581508 281.396111,333.380205 C280.600489,333.028989 279.825231,332.761944 279.10998,332.612547 C278.814831,332.550898 278.534478,332.510421 278.271159,332.492223 L278.013602,332.481493 L278.031298,331.098607 Z" id="Stroke-49" fill="#7D4556" fill-rule="nonzero"></path>
        <path d="M265.138685,329.759833 C266.158897,328.426214 267.580679,327.810965 269.324599,328.417468 C270.61328,328.864991 271.414978,329.72943 271.773476,330.857245 C272.018726,331.628787 272.034841,332.427608 271.918896,333.169991 L271.880114,333.388102 C271.867549,333.450105 271.855662,333.50107 271.845403,333.539984 C271.748044,333.909271 271.369753,334.129711 271.000466,334.032353 C270.664751,333.943844 270.452049,333.623161 270.489297,333.288136 L270.539088,333.037173 C270.543404,333.012705 270.547898,332.985793 270.552461,332.956581 C270.638166,332.407819 270.626171,331.813248 270.455461,331.276202 C270.225459,330.552628 269.735305,330.024115 268.870604,329.723829 C267.761044,329.337944 266.926403,329.699119 266.237128,330.600137 C266.049934,330.844838 265.891134,331.110473 265.762006,331.375978 L265.655609,331.610681 C265.638753,331.651362 265.626404,331.683719 265.618531,331.706407 C265.493324,332.067204 265.09934,332.258188 264.738543,332.132981 C264.377746,332.007774 264.186762,331.61379 264.311969,331.252993 C264.446823,330.864396 264.714087,330.314866 265.138685,329.759833 Z" id="Stroke-51" fill="#7D4556" fill-rule="nonzero"></path>
        <path d="M287.441687,337.50958 C288.462203,336.176692 289.883599,335.561563 291.626749,336.167218 C292.915356,336.614715 293.717213,337.47906 294.076099,338.606771 C294.321719,339.378571 294.338085,340.177654 294.222346,340.920159 L294.183711,341.137855 C294.171193,341.19974 294.15935,341.250607 294.149128,341.289447 C294.051927,341.658776 293.673731,341.879379 293.304403,341.782178 C292.96865,341.693814 292.75581,341.373222 292.792915,341.038181 L292.84253,340.78757 C292.846828,340.763157 292.851304,340.736303 292.855848,340.707153 C292.941402,340.158296 292.92922,339.563479 292.758226,339.026175 C292.527921,338.302498 292.037529,337.773891 291.172948,337.473646 C290.064125,337.088386 289.229411,337.449621 288.539787,338.350332 C288.352448,338.595014 288.193498,338.860625 288.064221,339.126103 L287.986401,339.293693 C287.954301,339.366687 287.932391,339.42247 287.920562,339.4565 C287.795166,339.817232 287.401081,340.008008 287.04035,339.882612 C286.679618,339.757216 286.488842,339.363131 286.614238,339.0024 C286.74929,338.613893 287.016831,338.064482 287.441687,337.50958 Z" id="Stroke-53" fill="#7D4556" fill-rule="nonzero"></path>
        <g id="分组" transform="translate(300.000000, 341.921500)">
            <line x1="-0.00015" y1="0.61995" x2="9.16185" y2="3.80445" id="Fill-55" fill="#FFFFFF"></line>
            <line x1="-0.00015" y1="0.61995" x2="9.16185" y2="3.80445" id="Stroke-57" stroke="#7D4556" stroke-width="1.383"></line>
        </g>
        <path d="M289.428888,324.67826 C289.66399,324.451844 290.038124,324.458886 290.26454,324.693988 C291.292579,325.761467 292.695405,326.765818 294.378282,327.694191 C295.727289,328.438382 297.176552,329.091307 298.626233,329.646678 C299.0069,329.79251 299.366993,329.923592 299.701292,330.039651 L300.292558,330.238286 C300.407011,330.275313 300.493233,330.302158 300.548559,330.318691 C300.861295,330.412142 301.039061,330.741422 300.945609,331.054159 C300.852158,331.366895 300.522878,331.544661 300.210141,331.451209 L299.800946,331.321174 L299.6514,331.271497 C299.213943,331.124976 298.727209,330.951131 298.203379,330.750452 C296.706244,330.176902 295.208691,329.502221 293.807337,328.729153 C292.029012,327.748125 290.534065,326.67782 289.41316,325.513912 C289.186744,325.27881 289.193786,324.904676 289.428888,324.67826 Z" id="Stroke-58" fill="#7D4556" fill-rule="nonzero"></path>
        <path d="M271.657649,360.844971 C271.771519,360.555932 272.09814,360.413929 272.387179,360.527799 C272.676218,360.641669 272.818221,360.96829 272.704351,361.257329 L272.593269,361.55657 L272.554142,361.667063 C272.439283,361.994505 272.324298,362.351048 272.217094,362.723663 C272.053491,363.292307 271.923386,363.845505 271.839211,364.361054 C271.670937,365.391696 271.70677,366.176351 271.941466,366.584706 L271.999154,366.672202 C272.186902,366.919711 272.138456,367.272556 271.890948,367.460304 C271.643439,367.648052 271.290594,367.599606 271.102846,367.352098 C270.574335,366.655361 270.501477,365.572765 270.728913,364.179774 C270.820931,363.616188 270.960906,363.021023 271.135951,362.412611 C271.211621,362.1496 271.290839,361.894502 271.371278,361.650935 L271.492559,361.294683 C271.565973,361.085394 271.623621,360.931344 271.657649,360.844971 Z" id="Stroke-60" fill="#965C56" fill-rule="nonzero"></path>
        <path d="M269.068371,361.777575 C269.192649,361.492857 269.524206,361.362793 269.808925,361.487071 C270.093643,361.611349 270.223707,361.942906 270.099429,362.227625 L269.923389,362.654866 C269.789441,362.991848 269.655422,363.353106 269.530572,363.723326 C269.399833,364.111008 269.286905,364.486008 269.197124,364.838879 C269.088062,365.267536 269.016389,365.651265 268.987722,365.976056 C268.960408,366.285513 268.687401,366.514235 268.377944,366.486922 C268.068487,366.459608 267.839765,366.186601 267.867078,365.877144 C267.90168,365.48512 267.984012,365.044321 268.10686,364.561484 C268.20423,364.178783 268.325229,363.776981 268.464557,363.363831 C268.552338,363.103532 268.644188,362.848051 268.737415,362.601626 L268.877951,362.239312 C268.962836,362.025762 269.029347,361.866978 269.068371,361.777575 Z" id="Stroke-62" fill="#965C56" fill-rule="nonzero"></path>
        <path d="M273.809009,363.712693 C274.117299,363.750999 274.336164,364.03197 274.297857,364.340259 L274.268626,364.631035 L274.260015,364.736251 C274.221981,365.223346 274.208667,365.72526 274.234339,366.187652 C274.267709,366.788731 274.367851,367.247696 274.508323,367.477864 L274.556604,367.545993 C274.755927,367.784279 274.724342,368.139031 274.486057,368.338354 C274.247771,368.537677 273.893019,368.506092 273.693696,368.267807 C273.326993,367.829423 273.16072,367.144343 273.111068,366.250014 C273.089451,365.860644 273.092242,365.454362 273.112544,365.050716 L273.138429,364.648674 C273.154299,364.445425 273.170332,364.290956 273.181443,364.201541 C273.215918,363.92408 273.446952,363.719054 273.717558,363.708748 L273.809009,363.712693 Z" id="Stroke-64" fill="#965C56" fill-rule="nonzero"></path>
        <path d="M267.645563,360.575452 C267.81202,360.313151 268.159597,360.235455 268.421898,360.401913 C268.655054,360.549875 268.74235,360.840944 268.641962,361.088021 L268.595437,361.178248 L266.774437,364.047748 C266.60798,364.310049 266.260403,364.387745 265.998102,364.221287 C265.764946,364.073325 265.67765,363.782256 265.778038,363.535179 L265.824563,363.444952 L267.645563,360.575452 Z" id="Stroke-66" fill="#965C56" fill-rule="nonzero"></path>
        <path d="M265.323972,364.29728 C265.491822,364.035869 265.839808,363.960022 266.10122,364.127872 L266.309849,364.255191 L266.391693,364.303435 C266.63906,364.448304 266.930698,364.610332 267.264414,364.785264 C268.221846,365.287142 269.321587,365.789783 270.546028,366.259229 C275.425096,368.129844 280.730845,368.930843 286.149886,368.058352 C286.456597,368.00897 286.745266,368.217576 286.794648,368.524286 C286.84403,368.830997 286.635424,369.119666 286.328714,369.169048 C280.693388,370.076361 275.194161,369.246154 270.143292,367.309671 C268.876388,366.823945 267.73701,366.303188 266.742107,365.781667 C266.567307,365.690039 266.403151,365.60158 266.249906,365.516826 L265.823168,365.274211 C265.663514,365.180711 265.552874,365.112728 265.49338,365.074528 C265.231969,364.906678 265.156122,364.558692 265.323972,364.29728 Z" id="Stroke-68" fill="#965C56" fill-rule="nonzero"></path>
        <path d="M282.795554,347.286722 C282.997429,347.050595 283.3525,347.022828 283.588628,347.224704 L283.826486,347.436614 C283.9243,347.526341 284.039498,347.634581 284.168647,347.759594 C284.597617,348.174828 285.026536,348.628798 285.428176,349.108377 C286.141912,349.960613 286.692434,350.800779 287.01625,351.608829 C287.461016,352.718693 287.460427,353.735216 286.885097,354.574732 C286.709481,354.830991 286.359376,354.896364 286.103118,354.720747 C285.846859,354.545131 285.781486,354.195026 285.957103,353.938768 C286.289321,353.453997 286.289688,352.820115 285.97198,352.027308 C285.6993,351.346865 285.209706,350.599681 284.565691,349.830696 C284.19128,349.38363 283.788713,348.957551 283.386199,348.567925 L283.070101,348.26939 C282.980832,348.187423 282.908823,348.123613 282.857572,348.079796 C282.621445,347.877921 282.593678,347.52285 282.795554,347.286722 Z" id="Stroke-70" fill="#965C56" fill-rule="nonzero"></path>
        <path d="M256.33575,377.30515 L259.64625,372.55765 L294.85875,383.55415 L294.87675,388.93915 C294.87675,388.93915 322.56975,399.10915 319.75425,412.06015 C317.14425,424.06915 294.69525,479.35315 289.34625,490.61515 C291.59925,506.66515 280.05525,509.19865 280.05525,509.19865 L209.68425,488.74765 C209.68425,488.74765 202.98825,480.96115 213.14475,471.96565 C215.81025,451.49365 216.18525,389.08465 223.46025,380.52565 C233.03475,369.26365 256.33575,377.30515 256.33575,377.30515" id="Fill-72" fill="#ADC6FF"></path>
        <path d="M314.210234,423.31656 C314.524396,423.363854 314.740735,423.656872 314.69344,423.971034 C313.759158,430.177188 311.842633,437.416875 309.094344,445.486404 C307.245026,450.916371 305.051637,456.625547 302.585602,462.514827 C299.801066,469.164736 296.818054,475.696381 293.834995,481.833286 L293.150204,483.234941 C292.701397,484.148861 292.268392,485.021242 291.853369,485.849045 L290.772087,487.985291 L289.85467,489.758229 C289.7062,490.039104 289.358147,490.14644 289.077271,489.99797 C288.796396,489.8495 288.68906,489.501447 288.83753,489.220571 L289.12108,488.678022 L289.925714,487.112802 L290.518271,485.943382 C291.226111,484.53898 291.990669,482.995854 292.800262,481.330317 C295.774497,475.211566 298.748777,468.699038 301.524382,462.07046 C303.980856,456.204014 306.165006,450.518885 308.005273,445.115493 C310.733205,437.105737 312.633045,429.929075 313.55576,423.799766 C313.598325,423.51702 313.839926,423.313511 314.116844,423.310114 L314.210234,423.31656 Z" id="Stroke-74" fill="#597EF7" fill-rule="nonzero"></path>
        <path d="M258.196147,378.997177 C258.361404,378.725838 258.715334,378.639841 258.986673,378.805097 C262.345789,380.850934 266.481121,382.683164 271.218691,384.308033 C275.980352,385.941164 281.086608,387.279662 286.193475,388.343073 L287.509659,388.610872 C288.585374,388.824566 289.606931,389.014664 290.56387,389.181793 L292.002826,389.423726 L292.994688,389.576273 C293.309284,389.620587 293.528391,389.911541 293.484077,390.226138 C293.439763,390.540734 293.148809,390.759841 292.834212,390.715527 L291.820588,390.559701 C291.548223,390.515887 291.253533,390.467209 290.93767,390.413596 C289.435015,390.158545 287.761226,389.844707 285.958935,389.469413 C280.808434,388.396915 275.657323,387.04666 270.845441,385.396304 C266.035144,383.746492 261.826687,381.881862 258.388227,379.787703 C258.116888,379.622446 258.030891,379.268516 258.196147,378.997177 Z" id="Stroke-76" fill="#597EF7" fill-rule="nonzero"></path>
        <path d="M258.2049,653.15785 C249.2274,614.94085 237.0684,563.48335 228.6594,532.30585 C228.6594,532.30585 218.7264,510.66535 198.9399,519.66835 C179.5479,528.49285 185.9289,554.16085 185.9289,554.16085 L222.3234,664.96585 C222.3234,664.96585 228.0234,680.99035 245.8584,674.77285 C262.1259,669.09985 258.2049,653.15785 258.2049,653.15785" id="Fill-78" fill="#597EF7"></path>
        <path d="M229.80165,753.6052 L229.80165,753.6052 C222.63765,751.3582 215.25315,756.3772 214.71765,763.8652 C214.10115,772.4812 213.21015,784.1167 212.08215,796.6342 C210.92115,809.5162 209.98515,820.1947 210.76215,821.6452 C214.18065,828.0397 222.04815,831.1207 229.74615,837.9142 C235.83615,843.2902 236.73765,845.6332 244.96665,848.0977 C256.63365,851.5927 251.62065,845.9542 240.10365,828.5797 C229.84215,813.1012 231.34515,806.5117 231.34515,806.5117 L237.80715,766.5652 C238.73115,760.8562 235.32165,755.3347 229.80165,753.6052" id="Fill-80" fill="#CE998A"></path>
        <path d="M239.31,824.67505 C246.8925,835.14655 255.945,843.74905 255.222,848.26255 C254.5005,852.77455 250.485,856.49455 236.2395,849.66505 C226.491,844.99255 229.6215,843.12805 220.62,835.80655 C216.126,832.15105 214.329,832.30105 210.2655,828.17155 C208.062,824.61805 210.9045,808.80055 210.9045,808.80055 L225.8775,829.17355 C225.8775,829.17355 222.3915,820.05505 226.212,818.56555 C230.031,817.07605 233.5005,816.15505 235.473,817.91905 C237.4455,819.68305 239.31,824.67505 239.31,824.67505" id="Fill-82" fill="#7D4556"></path>
        <path d="M258.89925,657.9457 C248.24175,725.0977 236.66925,796.7377 236.66925,796.7377 L211.57725,789.7972 L219.09825,654.0202 C219.09825,654.0202 222.93675,633.9382 242.54475,636.4462 C260.23575,638.7082 258.89925,657.9457 258.89925,657.9457" id="Fill-84" fill="#597EF7"></path>
        <path d="M184.6053,544.6753 C185.4498,515.9563 200.6658,502.7533 204.5148,498.7648 C263.5938,514.3438 278.5923,517.0198 278.5923,517.0198 C278.5923,517.0198 278.8623,532.2688 272.8338,561.4093 C272.8338,561.4093 247.5333,582.4933 223.9038,576.9793 C202.5993,572.0083 184.6053,544.6753 184.6053,544.6753" id="Fill-86" fill="#597EF7"></path>
        <path d="M204.51555,498.76405 L209.71305,488.17405 L280.33605,508.35355 L278.60055,516.99205 C278.60055,516.99205 239.70855,509.48155 204.51555,498.76405" id="Fill-88" fill="#597EF7"></path>
        <path d="M257.009857,513.129553 L257.102321,513.144169 C257.41112,513.218849 257.600912,513.529721 257.526231,513.838521 L256.781149,516.871483 L256.027296,519.893008 C255.698283,521.2034 255.351093,522.575778 254.987446,524.001537 L254.767296,524.863329 C252.652,533.130903 250.443973,541.39863 248.253086,549.11621 L247.591177,551.432396 C246.8234,554.100802 246.07147,556.649526 245.33818,559.064537 L245.025062,560.091314 C243.020024,566.637493 241.194782,572.040247 239.588953,576.096066 C239.471998,576.391457 239.137726,576.536108 238.842334,576.419153 C238.546943,576.302198 238.402292,575.967926 238.519247,575.672534 C240.111861,571.650092 241.928161,566.273808 243.925006,559.754377 L244.552078,557.689207 C245.394256,554.892122 246.260413,551.922693 247.146319,548.802018 C249.151837,541.737416 251.172234,534.209319 253.122586,526.642479 L254.088607,522.869114 C254.445239,521.466483 254.78508,520.118924 255.106409,518.835049 L255.959077,515.402363 L256.407969,513.568079 C256.475181,513.29016 256.733708,513.108637 257.009857,513.129553 Z" id="Stroke-90" fill="#1D39C4" fill-rule="nonzero"></path>
        <path d="M244.133058,508.635184 C244.444003,508.700359 244.64324,509.005264 244.578066,509.316208 L244.147448,511.322656 C243.800671,512.917131 243.405674,514.693677 242.969475,516.606821 C241.72309,522.073386 240.396186,527.540152 239.044715,532.643838 C237.840693,537.1907 236.67329,541.232461 235.56246,544.637391 C235.250454,545.593756 234.943918,546.496627 234.643159,547.343829 L234.439,547.909 L234.404599,548.170449 C233.961713,551.897451 235.800896,554.994237 239.216319,557.512806 L239.504572,557.721349 C240.655221,558.538227 241.891344,559.228638 243.127543,559.79432 C243.451861,559.942727 243.758503,560.074289 244.042975,560.189168 L244.319891,560.298492 C244.532786,560.380563 244.682539,560.433975 244.758525,560.459159 C245.060095,560.559109 245.223541,560.884605 245.123591,561.186175 C245.023641,561.487745 244.698145,561.651191 244.396575,561.551241 L244.036683,561.421802 L243.906056,561.371986 C243.525882,561.225428 243.103314,561.048466 242.648819,560.84049 C241.350965,560.246596 240.053035,559.521663 238.838567,558.659479 C234.918598,555.876584 232.73659,552.333229 233.265726,548.004158 L233.309296,547.685994 L233.337423,547.575642 C233.631603,546.766511 233.931939,545.900767 234.238042,544.98073 L234.468695,544.280559 C235.571978,540.898763 236.733644,536.876865 237.932548,532.349332 C239.145456,527.76891 240.339099,522.892843 241.472316,517.987064 L241.847761,516.351069 C242.119831,515.15779 242.375828,514.017803 242.614037,512.942227 L243.452034,509.080192 C243.510691,508.800341 243.76353,508.610974 244.04019,508.623412 L244.133058,508.635184 Z" id="Stroke-92" fill="#1D39C4" fill-rule="nonzero"></path>
        <path d="M214.296258,499.768348 C214.606063,499.838741 214.800145,500.146953 214.729752,500.456758 L214.658303,500.748197 C214.626336,500.872475 214.586128,501.023211 214.537409,501.198385 C214.376164,501.778159 214.176581,502.423141 213.93645,503.117198 C213.250376,505.10017 212.375734,507.083512 211.29326,508.938612 C207.730643,515.044087 202.799933,518.378263 196.342483,517.369152 C196.028591,517.3201 195.813896,517.025875 195.862948,516.711983 C195.912,516.398091 196.206225,516.183396 196.520117,516.232448 C202.428426,517.155744 206.950861,514.097646 210.29956,508.358776 C211.340916,506.574141 212.186026,504.657767 212.849185,502.741023 C213.034866,502.204348 213.195268,501.698661 213.331407,501.23234 L213.510278,500.591025 C213.557152,500.414048 213.589474,500.282708 213.607848,500.201842 C213.671202,499.923017 213.927189,499.737929 214.203601,499.755016 L214.296258,499.768348 Z" id="Stroke-94" fill="#1D39C4" fill-rule="nonzero"></path>
        <path d="M271.49263,518.020574 C271.801482,518.095039 271.99149,518.405778 271.917026,518.71463 L271.820415,519.139991 C271.78964,519.280961 271.754259,519.447156 271.715082,519.636898 C271.562183,520.377426 271.409166,521.20368 271.266318,522.09426 C270.852426,524.674662 270.606939,527.255988 270.614263,529.657846 C270.629791,534.750234 271.77913,538.277695 274.272401,539.58482 C274.553779,539.732336 274.662296,540.080023 274.51478,540.361401 C274.367264,540.642779 274.019577,540.751296 273.738199,540.60378 C270.749427,539.036882 269.480482,535.142334 269.463768,529.661354 C269.456231,527.189718 269.707353,524.549143 270.130338,521.91205 C270.246876,521.185502 270.370093,520.500702 270.494708,519.868437 L270.663701,519.045791 C270.7219,518.77417 270.768109,518.571328 270.798574,518.44497 C270.865592,518.167003 271.123993,517.9853 271.400156,518.006023 L271.49263,518.020574 Z" id="Stroke-96" fill="#1D39C4" fill-rule="nonzero"></path>
        <path d="M399.146872,373.450247 C399.439419,373.406849 399.711756,373.608825 399.755153,373.901372 L399.795475,374.206101 L399.853941,374.727105 C399.86348,374.820547 399.872869,374.917169 399.882035,375.016788 C400.020419,376.520669 400.057861,378.083521 399.931914,379.552077 C399.758953,381.568823 399.295228,383.177272 398.44667,384.238393 C398.261963,384.469369 397.924984,384.506878 397.694007,384.32217 C397.463031,384.137463 397.425522,383.800484 397.61023,383.569507 C398.297581,382.709974 398.708343,381.28523 398.864831,379.460562 C398.984606,378.063977 398.948595,376.560892 398.815541,375.114924 L398.760715,374.576748 L398.695747,374.058528 C398.652349,373.765981 398.854325,373.493644 399.146872,373.450247 Z" id="Stroke-98" fill="#965C56" fill-rule="nonzero"></path>
        <path d="M97.9731,505.186 L117.5616,451.528 C118.1901,449.809 120.0411,448.888 121.7646,449.44 L193.3881,471.589 C195.2181,472.1725 196.1961,474.1795 195.5466,476.008 L174.9711,533.86 C174.3321,535.6585 172.3641,536.5855 170.5971,535.9195 L99.9591,509.5765 C98.2146,508.9195 97.3251,506.956 97.9731,505.186" id="Fill-100" fill="#4E5C93"></path>
        <g id="分组" transform="translate(94.500000, 446.921500)">
            <mask id="mask-4" fill="white">
                <use xlink:href="#path-3"></use>
            </mask>
            <g id="Clip-103"></g>
            <path d="M0.17565,57.61185 L20.14515,2.90985 C20.66865,1.47585 22.21215,0.70935 23.65065,1.16985 L96.34365,23.65935 C97.86915,24.14685 98.68515,25.81935 98.14365,27.34335 L77.17515,86.29785 C76.64265,87.79785 75.00315,88.56885 73.52865,88.01535 L1.83165,61.27185 C0.37815,60.72435 -0.36285,59.08785 0.17565,57.61185" id="Fill-102" fill="#253368" mask="url(#mask-4)"></path>
        </g>
        <path d="M173.54145,420.3883 C173.54145,420.3883 152.84145,423.9178 149.92845,404.9008 C146.95695,385.5103 168.04245,382.7578 168.04245,382.7578 C168.04245,382.7578 182.44395,380.0758 199.97595,377.3893 C213.67695,375.2908 224.18145,373.6273 233.07645,373.1188 C242.67495,372.5713 251.44995,378.7063 252.81495,387.6133 C254.88795,401.1493 247.53495,407.9953 238.15545,409.8718 C229.03545,411.6958 216.65295,413.7793 206.55645,415.5673 C187.14045,419.0038 173.54145,420.3883 173.54145,420.3883" id="Fill-104" fill="#ADC6FF"></path>
        <path d="M125.1429,495.8689 C125.1429,495.8689 128.0949,477.8494 136.3359,475.4629 C143.7999,473.3029 147.8469,482.4529 147.8469,482.4529 C147.8469,482.4529 150.1974,489.9649 150.5274,498.7429 C150.7419,504.4939 152.7849,515.3659 149.8689,516.2674 C146.0694,517.4434 145.7979,505.9864 143.0949,504.9514 C137.6184,502.8529 136.1514,520.9234 134.3409,523.7254 C130.8009,529.2019 121.4379,517.4569 125.1429,495.8689" id="Fill-106" fill="#CE998A"></path>
        <path d="M133.839606,505.727329 C133.965373,505.443265 134.297606,505.31494 134.581671,505.440706 C134.865735,505.566473 134.99406,505.898706 134.868294,506.182771 L134.741145,506.484565 L134.576789,506.89521 C134.519217,507.042424 134.458985,507.199843 134.396469,507.367081 C134.038253,508.325363 133.67968,509.404075 133.344912,510.578486 C132.163171,514.724193 131.576437,518.94458 131.905514,522.900418 C131.931268,523.210009 131.701173,523.48186 131.391582,523.507614 C131.081991,523.533368 130.81014,523.303273 130.784386,522.993682 C130.44254,518.88435 131.047123,514.535575 132.263009,510.270088 C132.557311,509.237637 132.86971,508.27682 133.184919,507.402846 L133.437894,506.721283 L133.700351,506.057513 C133.765912,505.89773 133.81334,505.786656 133.839606,505.727329 Z" id="Stroke-108" fill="#965C56" fill-rule="nonzero"></path>
        <path d="M129.657607,502.809016 C129.754497,502.513851 130.07232,502.353118 130.367484,502.450007 C130.662649,502.546897 130.823382,502.86472 130.726493,503.159884 C128.63845,509.520889 128.027942,515.002172 128.245543,519.105064 L128.288882,519.763224 C128.30161,519.918204 128.313163,520.028979 128.32149,520.093968 C128.360968,520.40211 128.143173,520.683911 127.835032,520.72339 C127.52689,520.762868 127.245089,520.545073 127.20561,520.236932 L127.178524,519.980718 C127.168416,519.86991 127.15752,519.733919 127.146708,519.573408 C126.858412,515.293561 127.454206,509.521451 129.657607,502.809016 Z" id="Stroke-110" fill="#965C56" fill-rule="nonzero"></path>
        <path d="M127.490592,498.617419 C127.778681,498.733671 127.917983,499.061453 127.801731,499.349542 L127.700611,499.621459 C127.632111,499.816272 127.543995,500.083996 127.44086,500.424614 C127.162775,501.343026 126.883923,502.447906 126.623139,503.739207 C126.143177,506.115801 125.781104,508.842337 125.585466,511.918749 C125.56575,512.228783 125.298435,512.464132 124.988401,512.444416 C124.678367,512.4247 124.443018,512.157385 124.462734,511.847351 C124.66162,508.71987 125.030404,505.942792 125.520402,503.516505 C125.788263,502.190158 126.075815,501.050811 126.364135,500.098594 L126.511064,499.630382 C126.558118,499.486018 126.60315,499.353361 126.645865,499.232414 L126.758469,498.928558 C126.874721,498.640469 127.202503,498.501167 127.490592,498.617419 Z" id="Stroke-112" fill="#965C56" fill-rule="nonzero"></path>
        <path d="M183.31185,411.29245 C183.31185,411.29245 189.35985,390.60745 172.23885,384.98845 C154.58385,379.19395 147.86235,398.76745 147.86235,398.76745 C147.86235,398.76745 143.47185,412.65895 137.98785,429.75445 C134.63985,440.19295 131.17335,451.79095 129.86235,460.57345 C128.44485,470.08195 133.16835,472.62295 141.72885,475.43245 C151.89585,478.76995 156.43635,479.11345 160.67085,470.53795 C164.71035,462.35995 168.67635,450.73195 172.15785,441.85795 C178.79685,424.94245 183.31185,411.29245 183.31185,411.29245" id="Fill-114" fill="#ADC6FF"></path>
        <polygon id="Fill-116" fill="#ADC6FF" points="129.86415 478.94695 149.66115 485.44495 155.47665 472.53595 132.82965 465.10345"></polygon>
        <path d="M205.509765,496.990017 C205.66111,496.710679 206.010246,496.606921 206.289583,496.758265 L206.470992,496.847367 C207.566665,497.347068 211.249749,498.527658 217.710998,500.467397 L223.002964,502.041047 C229.868834,504.067013 244.589322,508.385412 247.828356,509.342625 L253.636446,511.065657 C264.436953,514.28376 272.519249,516.779808 278.546982,518.789327 C278.848377,518.889806 279.011251,519.215588 278.910773,519.516982 C278.810294,519.818377 278.484512,519.981251 278.183118,519.880773 L276.894171,519.453954 C270.443445,517.331648 261.788332,514.680938 250.224159,511.25167 L220.053425,502.368067 L215.365579,500.962207 C209.632011,499.225464 206.560723,498.21368 205.741517,497.769835 C205.462179,497.61849 205.358421,497.269354 205.509765,496.990017 Z" id="Stroke-118" fill="#1D39C4" fill-rule="nonzero"></path>
        <path d="M209.157913,488.022917 C209.241796,487.716489 209.558205,487.53608 209.864633,487.619963 L217.456269,489.721957 C219.146965,490.193358 220.92273,490.690405 222.770479,491.209805 L226.91669,492.378841 C235.2016,494.721998 243.418895,497.089983 251.162519,499.380616 L253.90511,500.194661 L258.335814,501.522459 C267.021836,504.142224 274.33467,506.451915 279.959134,508.372411 C280.259792,508.475071 280.4203,508.802026 280.317639,509.102684 C280.214979,509.403342 279.888024,509.56385 279.587366,509.461189 L278.443029,509.072936 C272.998416,507.237006 266.098737,505.065497 258.002807,502.623712 L256.24975,502.096359 C254.490706,501.568558 252.685018,501.030766 250.836169,500.48386 C243.09732,498.194639 234.884236,495.827868 226.603352,493.485851 L217.999313,491.067915 L209.560867,488.729637 C209.254439,488.645754 209.07403,488.329345 209.157913,488.022917 Z" id="Stroke-120" fill="#1D39C4" fill-rule="nonzero"></path>
        <path d="M229.700611,410.648806 C230.013919,410.596151 230.31059,410.807453 230.363244,411.120761 C230.410633,411.402738 230.244218,411.671239 229.982059,411.760505 L229.891289,411.783394 L179.632289,420.229894 C179.318981,420.282549 179.02231,420.071247 178.969656,419.757939 C178.922267,419.475962 179.088682,419.207461 179.350841,419.118195 L179.441611,419.095306 L229.700611,410.648806 Z" id="Stroke-122" fill="#597EF7" fill-rule="nonzero"></path>
    </g>
</svg>