<?xml version="1.0" encoding="UTF-8"?>
<svg width="512px" height="1024px" viewBox="0 0 512 1024" version="1.1" xmlns="http://www.w3.org/2000/svg" xmlns:xlink="http://www.w3.org/1999/xlink">
    <!-- Generator: Sketch 61.2 (89653) - https://sketch.com -->
    <title>2.人物组件/6.产品经理/后仰/讲解</title>
    <desc>Created with Sketch.</desc>
    <defs>
        <polygon id="path-1" points="0 0.676501434 58.8459201 0.676501434 58.8459201 101.657914 0 101.657914"></polygon>
    </defs>
    <g id="2.人物组件/6.产品经理/后仰/讲解" stroke="none" stroke-width="1" fill="none" fill-rule="evenodd">
        <path d="M333.52245,368.78685 L342.45795,333.41235 C342.45795,333.41235 357.91395,304.47885 363.83745,306.06285 C369.36045,308.29635 357.26145,316.79535 355.04295,324.91035 C360.22395,324.39285 358.08495,332.18235 358.08495,332.18235 C358.08495,332.18235 362.21445,331.91385 361.28145,338.23785 C365.18295,340.40085 362.31195,347.71035 362.31195,347.71035 C362.31195,347.71035 355.14045,366.95235 346.95645,379.88235 C346.95645,379.88235 333.09345,391.22835 333.52245,368.78685" id="Fill-1" fill="#CE998A"></path>
        <path d="M335.392937,356.8674 C335.392937,356.8674 336.53445,344.7909 337.46745,338.6274 C338.40195,332.4654 335.49795,321.4659 340.05195,324.2739 C343.11345,326.1609 342.77895,332.7624 342.80745,337.6224 C342.83895,342.4839 351.00795,353.7729 345.38745,361.9089 C341.59095,367.4049 335.38245,368.2899 335.392937,356.8674" id="Fill-3" fill="#CE998A"></path>
        <path d="M355.418288,324.491928 C355.649376,324.699553 355.668397,325.0552 355.460772,325.286288 L355.185434,325.600657 L354.834198,326.012779 C354.711242,326.158859 354.582678,326.31343 354.449312,326.475844 C353.68702,327.404168 352.924729,328.396399 352.214222,329.410577 C351.514463,330.409414 350.903165,331.376181 350.405745,332.289269 C348.64514,335.521125 348.5281,337.584085 350.307587,338.267771 C350.597581,338.379187 350.742346,338.704594 350.630929,338.994587 C350.519513,339.284581 350.194106,339.429346 349.904113,339.317929 C347.213036,338.284008 347.370453,335.509346 349.417827,331.751085 C349.937209,330.797681 350.570461,329.796194 351.292835,328.765076 C352.021188,327.725425 352.800532,326.710996 353.579875,325.761908 L353.973836,325.287932 L354.623928,324.534412 C354.831553,324.303324 355.1872,324.284303 355.418288,324.491928 Z" id="Stroke-5" fill="#965C56" fill-rule="nonzero"></path>
        <path d="M358.036513,332.073879 C358.232448,332.314959 358.195851,332.669229 357.954771,332.865163 L357.661519,333.109863 L357.286926,333.431355 C357.155789,333.545359 357.018668,333.666036 356.876424,333.792885 C356.063612,334.517731 355.250899,335.293877 354.493837,336.088678 C353.711875,336.909621 353.03479,337.703745 352.494139,338.450934 C350.947621,340.588251 350.710472,342.002822 351.871423,342.670534 C352.290767,342.911694 352.749224,342.976056 353.262321,342.878833 C354.158607,342.709001 355.174646,342.05655 356.211093,341.070415 C356.655108,340.647954 357.072166,340.19358 357.448859,339.739245 L357.736337,339.382583 C357.814901,339.281895 357.875681,339.200725 357.917113,339.143034 C358.098327,338.890702 358.449785,338.833049 358.702116,339.014263 C358.954448,339.195477 359.012101,339.546935 358.830887,339.799266 L358.627473,340.069251 C358.54099,340.180216 358.436316,340.310857 358.314904,340.457292 C357.911671,340.943636 357.465305,341.429941 356.98656,341.885446 C355.807306,343.007456 354.627276,343.765213 353.471764,343.984165 C352.704634,344.129523 351.973211,344.02684 351.310558,343.645755 C349.340613,342.512756 349.694689,340.400728 351.582712,337.791444 C352.15611,336.998998 352.864896,336.167694 353.679237,335.312758 C354.459315,334.493793 355.293538,333.697105 356.127662,332.953254 C356.346617,332.757996 356.553937,332.576823 356.746743,332.411383 L357.245229,331.992137 C357.486309,331.796202 357.840579,331.832799 358.036513,332.073879 Z" id="Stroke-7" fill="#965C56" fill-rule="nonzero"></path>
        <path d="M359.806771,338.183353 C360.112155,338.126342 360.405935,338.327687 360.462947,338.633071 C360.519958,338.938455 360.318613,339.232235 360.013229,339.289247 C359.168396,339.446967 358.116967,340.235795 356.879245,341.779307 L356.485477,342.281926 C354.226208,345.238574 353.815445,347.125175 354.625786,347.568765 C355.494793,348.04447 357.451293,347.084939 358.668981,345.232788 C359.052943,344.648768 359.945889,345.149571 359.647762,345.781732 C358.022943,349.227074 356.052542,351.53036 353.484108,353.347102 C352.897712,353.76188 352.286445,354.148998 351.569816,354.568127 L349.742355,355.602943 C345.797334,357.831801 344.274363,359.59175 343.524914,363.963836 C343.472427,364.27003 343.181658,364.4757 342.875464,364.423214 C342.56927,364.370727 342.3636,364.079958 342.416086,363.773764 C343.191158,359.252205 344.80795,357.206965 348.589872,354.969553 L350.837474,353.692668 L351.001854,353.597022 C351.692489,353.193096 352.2773,352.822734 352.83445,352.428642 C354.303239,351.389717 355.560603,350.185236 356.66713,348.665029 L356.899,348.337 L356.747464,348.412267 C355.838616,348.834973 354.937221,348.938192 354.233331,348.628339 L354.085589,348.555585 C352.3311,347.595157 353.010361,344.803801 356.001665,341.075404 C357.391847,339.341767 358.647402,338.399794 359.806771,338.183353 Z" id="Stroke-9" fill="#965C56" fill-rule="nonzero"></path>
        <path d="M342.709113,330.988515 C342.986985,330.95753 343.240112,331.134558 343.313057,331.39535 L343.330485,331.485213 L344.345,340.583 L344.419712,340.704368 C344.534192,340.891478 344.661315,341.107777 344.797915,341.350892 C345.186987,342.043341 345.575647,342.814132 345.93852,343.64452 C346.981778,346.031879 347.60905,348.425515 347.608222,350.682224 C347.607625,352.305149 347.276367,353.79739 346.569196,355.122401 C346.422923,355.39647 346.082168,355.500069 345.808099,355.353796 C345.53403,355.207523 345.430431,354.866768 345.576704,354.592699 C346.19158,353.440619 346.48269,352.129236 346.483221,350.681811 C346.483984,348.603401 345.894052,346.352253 344.907651,344.095002 C344.560621,343.300869 344.188671,342.563219 343.817132,341.901972 L343.562183,341.459893 C343.463083,341.292995 343.384117,341.166457 343.330022,341.083939 C343.297718,341.034661 343.273458,340.98077 343.257972,340.924292 L343.241415,340.837887 L342.212415,331.609887 C342.177987,331.301141 342.400366,331.022943 342.709113,330.988515 Z" id="Stroke-11" fill="#965C56" fill-rule="nonzero"></path>
        <path d="M309.90765,427.59885 C309.90765,427.59885 329.45865,435.25935 322.13865,453.05085 C314.67615,471.19185 295.19415,462.66885 295.19415,462.66885 C295.19415,462.66885 281.47665,457.53435 265.07115,450.78585 C252.25365,445.51185 242.39865,441.51435 234.51765,437.35935 C226.01265,432.87435 221.66415,423.08985 225.09165,414.75735 C230.30265,402.09285 240.13365,400.02435 249.13515,403.25835 C257.88765,406.40235 269.56815,411.00885 279.13965,414.68985 C297.54315,421.76535 309.90765,427.59885 309.90765,427.59885" id="Fill-13" fill="#ADC6FF"></path>
        <path d="M294.46665,435.7032 C294.46665,435.7032 286.53915,455.7417 303.06915,462.9162 C320.11665,470.3127 328.61265,451.4397 328.61265,451.4397 C328.61265,451.4397 334.26315,438.0132 341.29965,421.4952 C345.59565,411.4092 350.11665,400.1787 352.22865,391.5552 C354.51615,382.2177 350.04765,379.2522 341.78265,375.6657 C331.96665,371.4072 327.47715,370.6452 322.46865,378.7962 C317.69415,386.5662 312.67365,397.7802 308.38815,406.2942 C300.21915,422.5272 294.46665,435.7032 294.46665,435.7032" id="Fill-15" fill="#ADC6FF"></path>
        <polygon id="Fill-17" fill="#ADC6FF" points="353.92035 373.25985 334.80735 364.96635 327.82635 377.28435 349.69335 386.77185"></polygon>
        <path d="M178.1274,370.7652 C178.1274,370.7652 166.6599,366.6462 168.4314,354.7272 C162.2514,345.6882 166.8639,338.7942 166.8639,338.7942 C166.8639,338.7942 165.0699,325.9422 173.4489,323.8977 C176.7444,309.9162 192.4989,312.7392 192.4989,312.7392 C192.4989,312.7392 200.8404,303.4392 216.1884,312.0027 C226.2474,310.8027 225.5124,305.8302 229.2654,308.7837 C233.0184,311.7357 235.7184,319.5987 231.9264,323.4522 C239.8209,325.4847 234.9114,338.2917 234.9114,338.2917 C234.9114,338.2917 238.3944,344.7207 230.6604,351.1692 C222.9294,357.6177 222.2049,374.3037 208.8174,381.6042 C195.9369,388.6287 180.7899,386.5167 178.1274,370.7652" id="Fill-19" fill="#7D4556"></path>
        <path d="M188.7636,393.7698 L186.9021,371.4168 L216.7611,370.5333 L220.0296,389.8173 C221.4876,398.4258 215.5626,406.5438 206.9196,407.7768 C206.7531,407.8008 206.5896,407.8248 206.4231,407.8473 C197.5836,409.1133 189.5046,402.6693 188.7636,393.7698" id="Fill-21" fill="#CE998A"></path>
        <path d="M187.77915,336.68925 C187.77915,336.68925 190.95465,344.14875 185.30715,347.17575 C188.24565,357.01575 183.73215,356.96625 183.73215,356.96625 C183.73215,356.96625 175.08165,349.38975 171.77715,358.06575 C168.63915,366.30825 178.56765,375.68775 185.53515,372.62475 C201.36165,389.74575 225.81615,386.10825 231.43215,371.85075 C234.84315,363.18825 230.92665,352.27425 230.54115,346.87275 C229.59315,333.59475 226.45065,330.11475 226.45065,330.11475 C226.45065,330.11475 221.68365,332.11575 215.48265,329.07225 C210.46965,334.49925 201.30765,331.80975 201.30765,331.80975 C201.30765,331.80975 197.05965,340.02375 187.77915,336.68925" id="Fill-23" fill="#CE998A"></path>
        <path d="M178.263527,358.383909 C181.408021,358.401947 184.51725,362.576601 182.897544,363.959689 C182.096847,364.64332 181.553965,365.483335 181.494401,366.194651 C181.427219,366.996937 181.96487,367.687 183.357239,368.224091 C183.647083,368.335895 183.791413,368.661495 183.679609,368.951339 C183.567805,369.241183 183.242205,369.385513 182.952361,369.273709 C181.130465,368.570933 180.260029,367.453749 180.373324,366.100774 C180.461675,365.045691 181.161765,363.962425 182.167027,363.104136 L182.174433,363.069733 C182.180629,363.007266 182.178354,362.861687 182.124012,362.642732 C182.024791,362.242957 181.784446,361.760983 181.445361,361.305706 C180.634881,360.217501 179.478732,359.515898 178.257073,359.508891 C177.075592,359.502114 176.438332,359.833687 176.141644,360.369378 C176.014051,360.599755 175.961245,360.845121 175.955797,361.053555 L175.957992,361.173769 C175.995227,361.489026 175.775094,361.769004 175.466634,361.805915 C175.18902,361.839136 174.934476,361.66415 174.859435,361.403953 L174.837932,361.280189 L174.83534,361.246419 C174.807763,360.820271 174.884389,360.317442 175.157502,359.824318 C175.664773,358.908406 176.690165,358.374884 178.263527,358.383909 Z" id="Stroke-25" fill="#965C56" fill-rule="nonzero"></path>
        <path d="M181.147436,362.070653 C181.458067,362.066393 181.713337,362.314755 181.717597,362.625386 C181.721857,362.936017 181.473495,363.191287 181.162864,363.195547 L181.022388,363.200914 C180.935403,363.205758 180.824586,363.21414 180.695721,363.227398 C180.337706,363.264234 179.980624,363.326448 179.653039,363.418576 C178.774204,363.665736 178.36048,364.02652 178.416409,364.560935 L178.433858,364.670151 C178.498447,364.974023 178.30447,365.272719 178.000599,365.337308 C177.696727,365.401897 177.398031,365.20792 177.333442,364.904049 C177.049963,363.570365 177.913601,362.739124 179.348464,362.33559 C179.744678,362.22416 180.163096,362.151261 180.58058,362.108306 L180.854046,362.084387 C180.976401,362.075713 181.075991,362.071633 181.147436,362.070653 Z" id="Stroke-27" fill="#965C56" fill-rule="nonzero"></path>
        <path d="M210.64395,350.8587 C211.28745,356.2407 207.44445,361.1247 202.06245,361.7667 C196.68045,362.4087 191.79795,358.5672 191.15445,353.1852 C190.51245,347.8032 194.35545,342.9192 199.73745,342.2772 C205.11795,341.6352 210.00195,345.4767 210.64395,350.8587" id="Fill-29" fill="#FFFFFF"></path>
        <path d="M199.655522,341.590571 C193.894325,342.277804 189.780583,347.505892 190.467818,353.267106 C191.156685,359.028541 196.383329,363.140545 202.144356,362.453332 C207.90588,361.76606 212.01938,356.537649 211.330582,350.776794 C210.643405,345.016067 205.415743,340.903262 199.655522,341.590571 Z M209.95734,350.940795 C210.555458,355.943234 206.983537,360.483278 201.980544,361.080068 C196.977844,361.676823 192.439248,358.106132 191.84106,353.103105 C191.244318,348.100513 194.81657,343.560597 199.819356,342.963832 C204.733435,342.377485 209.201197,345.814335 209.922291,350.678666 L209.95734,350.940795 Z" id="Stroke-31" fill="#7D4556" fill-rule="nonzero"></path>
        <path d="M234.17085,347.12625 C234.81285,352.50825 230.96985,357.39075 225.58785,358.03275 C220.20585,358.67625 215.32335,354.83325 214.68135,349.45125 C214.03785,344.06925 217.88085,339.18675 223.26285,338.54325 C228.64335,337.90125 233.52735,341.74425 234.17085,347.12625" id="Fill-33" fill="#FFFFFF"></path>
        <path d="M223.180922,337.856621 C217.418924,338.545555 213.305976,343.772768 213.99474,349.533345 C214.682016,355.2949 219.909121,359.408154 225.669945,358.71936 C231.431195,358.03212 235.544691,352.805338 234.85746,347.044155 C234.168633,341.283061 228.940617,337.169375 223.180922,337.856621 Z M233.484218,347.208156 C234.080949,352.21066 230.509007,356.74932 225.505944,357.346118 C220.503593,357.944225 215.964805,354.372614 215.367982,349.369344 C214.769894,344.367148 218.341359,339.828114 223.344945,339.22986 C228.258339,338.643595 232.726627,342.081373 233.449137,346.946369 L233.484218,347.208156 Z" id="Stroke-35" fill="#7D4556" fill-rule="nonzero"></path>
        <path d="M212.680988,348.797629 C212.914395,348.592615 213.269806,348.615631 213.474821,348.849038 L213.708351,349.120864 L214.153545,349.654904 C214.206409,349.719353 214.260325,349.785438 214.315213,349.853089 C214.942414,350.626138 215.569648,351.446417 216.15601,352.279421 C216.635662,352.960829 217.06753,353.622415 217.440034,354.254884 C218.756219,356.48962 219.272046,358.205157 218.637156,359.339283 C217.962366,360.546029 216.871347,361.312561 215.501931,361.70987 C214.390902,362.032213 213.229796,362.083812 212.177613,361.981237 L211.863869,361.944227 C211.838458,361.940536 211.816324,361.937068 211.797595,361.933907 C211.491266,361.88221 211.284846,361.591973 211.336543,361.285645 C211.38824,360.979316 211.678477,360.772896 211.984805,360.824593 L212.183961,360.850849 C212.215329,360.854334 212.249643,360.857926 212.286768,360.861545 C213.20905,360.951456 214.23577,360.90583 215.188461,360.629425 C216.29299,360.308968 217.137946,359.715316 217.655375,358.789983 C218.014762,358.147998 217.584461,356.716906 216.470668,354.825809 C216.114773,354.22154 215.699221,353.584948 215.236069,352.92698 C214.665752,352.116771 214.053685,351.316326 213.441587,350.561893 L212.987859,350.011549 L212.629579,349.591462 C212.424565,349.358055 212.447581,349.002644 212.680988,348.797629 Z" id="Stroke-37" fill="#965C56" fill-rule="nonzero"></path>
        <path d="M205.6224,365.78535 C205.6224,365.78535 214.7634,365.73885 221.0814,363.94035 C221.0814,363.94035 220.0449,370.59735 213.5124,370.592852 C207.7119,370.58835 205.6224,365.78535 205.6224,365.78535" id="Fill-39" fill="#FFFFFF"></path>
        <path d="M220.919592,363.371932 C218.274198,364.124977 214.926294,364.628296 211.225908,364.925352 C210.165005,365.010517 209.128822,365.074084 208.139254,365.119116 L206.862059,365.168071 C206.606269,365.175996 206.37537,365.181922 206.171609,365.186168 L205.618188,365.194365 C205.194336,365.197386 204.911373,365.63244 205.080463,366.021115 L205.164858,366.199764 C205.250592,366.370205 205.375188,366.592751 205.541313,366.85381 C205.923824,367.454914 206.40208,368.05469 206.984128,368.61491 C208.648348,370.216722 210.81441,371.181758 213.511941,371.183855 C216.584259,371.185967 218.796197,369.827813 220.244049,367.587376 C220.744848,366.81243 221.116789,365.985935 221.38059,365.159524 C221.53981,364.660733 221.628561,364.26764 221.665364,364.031274 C221.731695,363.605259 221.334266,363.25389 220.919592,363.371932 Z M220.264,364.768 L220.254567,364.800084 C220.020658,365.532854 219.690933,366.265539 219.251305,366.945829 C218.010046,368.866578 216.158133,370.003674 213.512807,370.001859 C211.136992,370.000008 209.257834,369.162795 207.803808,367.763295 L207.556032,367.514792 C207.235647,367.179958 206.955075,366.832051 206.712942,366.482003 L206.629,366.356 L207.450175,366.330642 C208.67238,366.285098 209.976556,366.211448 211.320491,366.103561 C214.384597,365.857584 217.215203,365.472287 219.635416,364.919002 L220.264,364.768 Z" id="Stroke-41" fill="#7D4556" fill-rule="nonzero"></path>
        <path d="M226.10308,336.273126 C226.405303,336.149845 226.750242,336.294906 226.873524,336.59713 C226.996805,336.899353 226.851744,337.244292 226.54952,337.367574 C222.728869,338.926071 218.792226,339.016892 215.46295,337.910702 C215.153201,337.807784 214.98553,337.47325 215.088448,337.1635 C215.191366,336.853751 215.5259,336.68608 215.83565,336.788998 C218.901307,337.807598 222.547551,337.723477 226.10308,336.273126 Z" id="Stroke-43" fill="#7D4556" fill-rule="nonzero"></path>
        <path d="M213.179707,346.581334 C213.748968,346.556821 214.282046,346.579251 214.77354,346.6553 L215.063402,346.707418 L214.784398,348.061982 C214.336261,347.969678 213.816185,347.938208 213.239207,347.963054 C212.446376,347.997195 211.586665,348.13447 210.7175,348.34233 C210.479091,348.399346 210.251036,348.459073 210.036297,348.519636 L209.623881,348.641791 L209.356865,348.728693 L208.898935,347.423707 L209.322755,347.287523 C209.649177,347.188417 210.009964,347.089538 210.395827,346.997259 C211.34447,346.770392 212.287999,346.619733 213.179707,346.581334 Z" id="Stroke-45" fill="#7D4556" fill-rule="nonzero"></path>
        <path d="M224.140634,345.952119 C225.86118,345.746855 227.087989,346.538608 227.823815,347.918655 C228.19749,348.619486 228.374699,349.308159 228.432674,349.793778 C228.477946,350.17299 228.207234,350.517102 227.828022,350.562374 C227.480411,350.603874 227.162294,350.379859 227.076817,350.050145 L227.023055,349.750109 C227.010075,349.688408 226.993624,349.617185 226.973287,349.53815 C226.887689,349.205496 226.765632,348.87352 226.603447,348.569341 C226.11591,347.654961 225.402291,347.194409 224.304216,347.325411 C223.275732,347.44773 222.649207,347.95945 222.286531,348.777204 C222.068967,349.267763 221.979498,349.782165 221.966778,350.187717 L221.965937,350.358131 C221.982019,350.739697 221.685735,351.062055 221.304169,351.078137 C220.9544,351.092878 220.654383,350.845147 220.594422,350.509852 L220.583867,350.408673 L220.583369,350.175395 C220.596563,349.601441 220.71532,348.908654 221.022289,348.216508 C221.573388,346.973902 222.600083,346.13534 224.140634,345.952119 Z" id="Stroke-47" fill="#7D4556" fill-rule="nonzero"></path>
        <path d="M200.697245,348.749924 C202.417211,348.544629 203.643603,349.336463 204.379176,350.716549 C204.752698,351.417352 204.929853,352.105992 204.987824,352.591578 C205.033096,352.97079 204.762384,353.314902 204.383172,353.360174 C204.00396,353.405446 203.659848,353.134734 203.614576,352.755522 L203.595121,352.63309 C203.580706,352.555453 203.558947,352.454469 203.528447,352.335909 C203.442865,352.003235 203.320842,351.671241 203.158709,351.367047 C202.671374,350.452707 201.958193,349.992234 200.860827,350.123215 C199.831651,350.245558 199.204728,350.757347 198.841848,351.575127 C198.59308,352.135747 198.511702,352.727496 198.521026,353.15229 C198.537169,353.537497 198.240885,353.859855 197.859319,353.875937 C197.50955,353.890678 197.209533,353.642947 197.149572,353.307652 L197.138359,353.182639 L197.138522,352.9732 C197.151731,352.399217 197.270562,351.70638 197.577715,351.014185 C198.129094,349.771605 199.156217,348.933112 200.697245,348.749924 Z" id="Stroke-49" fill="#7D4556" fill-rule="nonzero"></path>
        <line x1="191.15415" y1="353.1849" x2="181.52265" y2="354.3339" id="Fill-51"></line>
        <polygon id="Stroke-53" fill="#7D4556" fill-rule="nonzero" points="191.072238 352.498269 191.236062 353.871531 181.604562 355.020531 181.440738 353.647269"></polygon>
        <path d="M204.485074,337.832024 C204.756508,337.65075 205.123501,337.723839 205.304776,337.995274 C205.48605,338.266708 205.412961,338.633701 205.141526,338.814976 C203.934819,339.620861 202.447554,340.289336 200.741138,340.837499 C199.115981,341.359559 197.380362,341.745957 195.645553,342.018131 L194.939084,342.12243 C194.597081,342.169699 194.2726,342.209768 193.968686,342.243178 L193.390797,342.300424 C193.36525,342.30255 193.342407,342.304358 193.322335,342.305857 C192.996842,342.330177 192.713262,342.086028 192.688943,341.760535 C192.664623,341.435042 192.908772,341.151462 193.234265,341.127143 L193.700876,341.083194 L193.839523,341.068257 C194.328595,341.014491 194.874324,340.94267 195.46235,340.850415 C197.141017,340.587049 198.818875,340.213511 200.379631,339.712139 C201.989453,339.195005 203.380152,338.569933 204.485074,337.832024 Z" id="Stroke-54" fill="#7D4556" fill-rule="nonzero"></path>
        <path d="M214.279824,376.663122 C214.586551,376.613844 214.87515,376.822547 214.924428,377.129274 L214.955203,377.337515 C214.97788,377.502005 215.004244,377.716081 215.030508,377.969301 C215.113894,378.773246 215.15418,379.589579 215.127403,380.357518 C215.074258,381.881671 214.77476,383.005789 214.074451,383.604154 C213.838264,383.80596 213.483201,383.778088 213.281396,383.541901 C213.07959,383.305714 213.107462,382.950651 213.343649,382.748846 C213.727086,382.421225 213.960279,381.54597 214.003086,380.318315 C214.027824,379.608862 213.98997,378.841804 213.911511,378.085364 L213.857658,377.618335 C213.840822,377.487215 213.825631,377.382165 213.813672,377.307726 C213.764394,377.000999 213.973097,376.7124 214.279824,376.663122 Z" id="Stroke-56" fill="#965C56" fill-rule="nonzero"></path>
        <path d="M216.5935,378.151982 C216.898261,378.091728 217.194164,378.289939 217.254418,378.5947 L217.309775,378.898856 C217.350473,379.134612 217.391111,379.393905 217.429038,379.669354 C217.50921,380.251603 217.566468,380.826366 217.590798,381.367579 C217.615879,381.925504 217.604782,382.425049 217.550101,382.854799 C217.510889,383.162975 217.229276,383.381013 216.921101,383.341801 C216.612925,383.302589 216.394887,383.020976 216.434099,382.712801 C216.479616,382.355066 216.489352,381.91681 216.466933,381.418101 C216.444315,380.914969 216.390358,380.373339 216.314554,379.822812 L216.239707,379.321316 L216.150782,378.8129 C216.090528,378.508139 216.288739,378.212236 216.5935,378.151982 Z" id="Stroke-58" fill="#965C56" fill-rule="nonzero"></path>
        <path d="M212.209223,379.470165 C212.518549,379.498924 212.745994,379.772997 212.717235,380.082323 L212.682008,380.390274 C212.670817,380.476532 212.657307,380.573785 212.641323,380.680258 C212.574714,381.123966 212.487704,381.568262 212.377025,381.986846 C212.133848,382.90653 211.817291,383.580022 211.346512,383.94452 C211.100872,384.134707 210.747566,384.089752 210.55738,383.844112 C210.388325,383.625766 210.405061,383.322349 210.583388,383.124045 L210.657788,383.05498 C210.873365,382.88807 211.105854,382.393436 211.289403,381.699264 C211.388431,381.324746 211.467834,380.919289 211.528789,380.513245 L211.579414,380.141015 C211.587379,380.074435 211.59322,380.019539 211.597065,379.978177 C211.622949,379.699784 211.847535,379.487714 212.117693,379.46905 L212.209223,379.470165 Z" id="Stroke-60" fill="#965C56" fill-rule="nonzero"></path>
        <path d="M218.178122,377.38807 C218.440756,377.292174 218.728602,377.404236 218.86122,377.640341 L218.89943,377.723522 L220.06493,380.915522 C220.171481,381.207338 220.021294,381.530278 219.729478,381.63683 C219.466844,381.732726 219.178998,381.620664 219.04638,381.384559 L219.00817,381.301378 L217.84267,378.109378 C217.736119,377.817562 217.886306,377.494622 218.178122,377.38807 Z" id="Stroke-62" fill="#965C56" fill-rule="nonzero"></path>
        <path d="M198.49376,381.391969 C198.607576,381.102908 198.934171,380.960845 199.223231,381.07466 C205.138399,383.403721 211.287115,383.503908 216.918451,382.274199 C217.524868,382.141776 218.079908,382.001947 218.578478,381.860848 L218.941737,381.754881 C219.290781,381.649912 219.529898,381.569315 219.649164,381.525112 C219.94046,381.417147 220.264124,381.565767 220.372088,381.857064 C220.480053,382.14836 220.331433,382.472024 220.040136,382.579988 L219.890128,382.63324 C219.740897,382.684474 219.531579,382.752268 219.26573,382.832218 C218.651196,383.01703 217.945528,383.201427 217.158461,383.373299 C211.32728,384.646648 204.960943,384.542915 198.811069,382.12144 C198.522008,382.007624 198.379945,381.681029 198.49376,381.391969 Z" id="Stroke-64" fill="#965C56" fill-rule="nonzero"></path>
        <path d="M206.184527,361.27144 C206.458382,361.124768 206.799288,361.227871 206.94596,361.501727 C207.092632,361.775582 206.989529,362.116488 206.715673,362.26316 L206.483611,362.3934 C206.356245,362.467244 206.1983,362.561891 206.016681,362.675445 C205.485625,363.007474 204.95472,363.377483 204.461508,363.774278 C203.108385,364.862882 202.316305,365.9335 202.330411,366.816891 C202.333183,366.990437 202.366939,367.158299 202.433899,367.323486 C202.550605,367.611391 202.41182,367.939393 202.123914,368.056099 C201.836009,368.172805 201.508007,368.03402 201.391301,367.746114 C201.271884,367.45152 201.21053,367.146417 201.205555,366.834853 C201.184193,365.497048 202.15288,364.187718 203.756317,362.897733 C204.287375,362.47049 204.853902,362.075655 205.420277,361.721543 L205.693319,361.553868 C205.904384,361.426709 206.072513,361.331433 206.184527,361.27144 Z" id="Stroke-66" fill="#965C56" fill-rule="nonzero"></path>
        <path d="M184.81875,400.97385 L185.98425,395.30535 L222.67575,391.49385 L224.82075,396.43485 C224.82075,396.43485 251.45475,402.20985 257.28225,412.60035 C263.29275,423.31935 258.69225,477.22335 260.24925,491.05035 C268.63725,506.70735 260.25675,512.91885 260.25675,512.91885 L185.99175,521.78235 C185.99175,521.78235 176.76375,517.27485 182.54025,504.99735 C176.90175,485.13735 150.43725,430.40985 158.12775,422.22285 C169.82775,409.76685 184.81875,400.97385 184.81875,400.97385" id="Fill-68" fill="#ADC6FF"></path>
        <path d="M158.315415,425.074225 C158.479678,424.810545 158.826595,424.729951 159.090275,424.894215 L159.22922,424.985629 C159.389903,425.095794 159.614995,425.262762 159.897246,425.491499 C160.513356,425.990797 161.196749,426.62345 161.930213,427.401161 C164.012257,429.608804 166.088837,432.537228 168.02263,436.279208 C172.586463,445.110444 175.655065,457.054017 176.550416,472.574254 C176.568308,472.884398 176.331391,473.150324 176.021246,473.168216 C175.711102,473.186108 175.445176,472.949191 175.427284,472.639046 C174.540702,457.270818 171.511591,445.480952 167.023198,436.795698 C165.137587,433.146951 163.12195,430.304471 161.111777,428.173033 C160.412965,427.432065 159.766388,426.833495 159.188933,426.365523 L158.953657,426.178895 C158.738221,426.01199 158.583098,425.903703 158.495425,425.849085 C158.231745,425.684822 158.151151,425.337905 158.315415,425.074225 Z" id="Stroke-70" fill="#597EF7" fill-rule="nonzero"></path>
        <path d="M257.765624,415.794202 C258.069213,415.7283 258.368746,415.920984 258.434648,416.224574 C259.589583,421.544989 260.257425,429.512236 260.52496,439.433785 C260.720028,446.667883 260.690723,454.362587 260.515613,461.834495 L260.432071,465.010487 L260.32203,468.350457 L260.270912,469.647004 C260.257323,469.957367 259.994709,470.19795 259.684346,470.184362 C259.373983,470.170773 259.1334,469.908159 259.146988,469.597796 L259.20715,468.053797 C259.252336,466.809216 259.297529,465.394437 259.339711,463.835815 C259.558449,455.753592 259.612547,447.332756 259.400369,439.464109 L259.357513,438.000341 C259.067104,428.823422 258.414739,421.436073 257.335252,416.463226 C257.26935,416.159637 257.462034,415.860104 257.765624,415.794202 Z" id="Stroke-72" fill="#597EF7" fill-rule="nonzero"></path>
        <path d="M224.037734,398.170863 C224.119465,398.470579 223.942753,398.779803 223.643037,398.861534 L222.973188,399.036894 L222.28359,399.210425 C222.040569,399.270616 221.784557,399.333071 221.516055,399.397538 L221.103994,399.495717 C219.099206,399.969781 216.881905,400.443725 214.51424,400.886064 C208.929428,401.929448 203.397366,402.634433 198.221986,402.845334 C194.364735,403.00252 190.829717,402.876846 187.686025,402.430771 C187.378446,402.387127 187.164485,402.102405 187.208129,401.794825 C187.251773,401.487246 187.536495,401.273285 187.844075,401.316929 C190.91408,401.752548 194.38261,401.875858 198.17618,401.721267 C203.291459,401.512816 208.771982,400.814398 214.307637,399.780198 C216.363276,399.396153 218.30462,398.988112 220.089743,398.577152 L220.845109,398.400909 C221.262321,398.302253 221.652045,398.20785 222.012595,398.118552 L223.347063,397.776166 C223.646779,397.694435 223.956003,397.871147 224.037734,398.170863 Z" id="Stroke-74" fill="#597EF7" fill-rule="nonzero"></path>
        <path d="M262.04235,672.13845 C250.62885,634.57695 238.44585,595.86495 228.05085,565.29195 C228.05085,565.29195 216.74685,544.33545 197.58135,554.58945 C178.79535,564.64245 186.81435,589.84845 186.81435,589.84845 L226.99335,686.22795 C226.99335,686.22795 233.71035,701.85195 251.11035,694.50045 C266.98035,687.79545 262.04235,672.13845 262.04235,672.13845" id="Fill-76" fill="#597EF7"></path>
        <path d="M278.4105,769.1829 L278.4105,769.1829 C270.9825,770.2839 266.523,778.0194 269.3055,784.9929 C272.5065,793.0149 276.7755,803.8749 281.2155,815.6319 C285.786,827.7324 289.596,837.7509 290.928,838.7184 C296.793,842.9829 305.2155,842.3274 315.105,845.0874 C322.9305,847.2714 324.7605,848.9874 333.243,847.6194 C345.2655,845.6799 338.298,842.7894 320.3595,832.1709 C304.3785,822.7119 302.8575,816.1269 302.8575,816.1269 L291.2625,777.3579 C289.6065,771.8169 284.13,768.3354 278.4105,769.1829" id="Fill-78" fill="#CE998A"></path>
        <path d="M317.94375,829.00275 C329.33175,835.12275 341.22675,838.91925 342.54375,843.29625 C343.86075,847.67325 341.86875,852.77025 326.07075,852.83325 C315.26025,852.87675 317.26575,849.83325 305.97375,847.16775 C300.33525,845.83725 298.78275,846.75525 293.32575,844.80975 C289.79325,842.57175 285.45975,827.09625 285.45975,827.09625 L307.81425,838.90725 C307.81425,838.90725 300.70275,832.21875 303.48975,829.21425 C306.27975,826.20825 309.00075,823.86675 311.54325,824.59425 C314.08875,825.32175 317.94375,829.00275 317.94375,829.00275" id="Fill-80" fill="#7D4556"></path>
        <path d="M263.10435,675.4329 C282.49035,740.5734 302.36085,808.8024 302.36085,808.8024 L278.54235,814.6149 L227.32035,688.8984 C227.32035,688.8984 222.08235,669.1389 239.95185,663.0234 C256.07685,657.5049 263.10435,675.4329 263.10435,675.4329" id="Fill-82" fill="#597EF7"></path>
        <path d="M302.0106,655.4853 C290.5956,617.9238 278.4141,579.2118 268.0176,548.6388 C268.0176,548.6388 256.7136,527.6808 237.5481,537.9363 C218.7621,547.9893 226.7811,573.1953 226.7811,573.1953 L266.9601,669.5748 C266.9601,669.5748 273.6786,685.1988 291.0771,677.8473 C306.9471,671.1423 302.0106,655.4853 302.0106,655.4853" id="Fill-84" fill="#597EF7"></path>
        <path d="M248.93355,751.7373 L248.93355,751.7373 C242.72355,747.5178 234.20355,750.1863 231.52755,757.2018 C228.44955,765.2733 224.23455,776.1543 219.53805,787.8108 C214.70505,799.8078 210.72255,809.7603 211.04655,811.3743 C212.47305,818.4843 219.11505,823.7073 224.52105,832.4343 C228.79905,839.3403 228.98355,841.8438 236.15055,846.5823 C246.30855,853.2978 243.14055,846.4518 237.13455,826.4898 C231.78255,808.7073 235.12455,802.8333 235.12455,802.8333 L252.85305,766.4568 C255.38655,761.2593 253.71555,754.9878 248.93355,751.7373" id="Fill-86" fill="#CE998A"></path>
        <path d="M237.5034,822.52365 C241.7349,834.73815 247.9164,845.58915 245.9214,849.70215 C243.9249,853.81365 239.0079,856.21365 227.3439,845.56065 C219.3594,838.27065 222.8964,837.39015 216.3939,827.77965 C213.1464,822.98115 211.3824,822.60765 208.6854,817.47915 C207.6024,813.44115 214.8954,799.11915 214.8954,799.11915 L223.3434,822.94965 C223.3434,822.94965 222.6399,813.21165 226.7274,812.89065 C230.8149,812.56665 234.4029,812.68815 235.7814,814.94565 C237.1599,817.20465 237.5034,822.52365 237.5034,822.52365" id="Fill-88" fill="#7D4556"></path>
        <path d="M301.16985,672.3984 C271.31235,733.4529 239.71935,797.1084 239.71935,797.1084 L218.26035,785.2524 L265.72185,658.0674 C265.72185,658.0674 275.25285,639.9834 292.54185,647.5869 C308.14185,654.4494 301.16985,672.3984 301.16985,672.3984" id="Fill-90" fill="#597EF7"></path>
        <path d="M186.474,586.284 C178.974,565.284 185.214,538.152 187.41,533.0625 C248.1915,526.8285 263.172,524.049 263.172,524.049 C263.172,524.049 268.7955,538.2255 273.4215,567.6225 C273.4215,567.6225 256.674,605.235 233.112,599.433 C213.744,594.6615 188.631,579.1935 186.474,586.284" id="Fill-92" fill="#597EF7"></path>
        <path d="M187.41,533.06175 L187.0575,521.51625 L261.321,512.65425 L263.1675,524.02125 C263.1675,524.02125 224.1255,530.69325 187.41,533.06175" id="Fill-94" fill="#597EF7"></path>
        <path d="M233.407718,529.14866 C233.716247,529.112329 233.99581,529.33299 234.03214,529.641518 L234.237244,531.424007 C234.400287,532.859457 234.581952,534.49371 234.777583,536.297398 L235.149792,539.778471 C235.58308,543.88992 236.011359,548.166538 236.417109,552.497821 L236.708611,555.664229 C236.992734,558.807154 237.254315,561.877077 237.489701,564.850986 L237.605195,566.329833 C238.464988,577.492238 238.896215,586.629626 238.786418,593.043927 C238.781101,593.354542 238.524987,593.602035 238.214373,593.596962 C237.903758,593.591401 237.656265,593.335287 237.661582,593.024673 L237.673708,592.072903 C237.726301,585.922342 237.32066,577.450754 236.545482,567.226999 L236.483517,566.416231 C236.144194,562.010905 235.744582,557.380442 235.297014,552.60275 L234.944485,548.910022 C234.587256,545.235769 234.217154,541.624684 233.845214,538.146438 L233.377067,533.846788 L232.91486,529.773082 C232.878529,529.464553 233.09919,529.18499 233.407718,529.14866 Z" id="Stroke-96" fill="#1D39C4" fill-rule="nonzero"></path>
        <path d="M223.180858,532.473157 C223.490603,532.44933 223.761017,532.681113 223.784843,532.990858 L224.055398,536.382819 C224.276565,539.101402 224.534103,542.167514 224.825383,545.515686 C225.657617,555.081923 226.593317,564.990974 227.602212,574.660566 C228.308335,577.983115 229.848175,579.867054 231.977127,580.661272 C233.322521,581.163179 234.774696,581.188134 236.124935,580.925594 C236.430147,580.866249 236.648224,580.808145 236.757685,580.772354 C237.052961,580.675807 237.370598,580.836908 237.467146,581.132185 C237.563693,581.427461 237.402592,581.745098 237.107315,581.841646 C236.955664,581.891232 236.693083,581.961193 236.339658,582.029913 C234.803453,582.328612 233.151811,582.300229 231.58391,581.715315 C229.083524,580.782531 227.285687,578.582942 226.492556,574.836051 C225.601042,566.31785 224.772748,557.661583 224.021716,549.217882 L223.424497,542.359323 C223.29016,540.781837 223.164481,539.28034 223.047788,537.863011 L222.663157,533.077142 C222.63933,532.767397 222.871113,532.496983 223.180858,532.473157 Z" id="Stroke-98" fill="#1D39C4" fill-rule="nonzero"></path>
        <path d="M194.325655,534.386054 C194.634269,534.350462 194.913304,534.57179 194.948896,534.880405 L194.981675,535.205191 L195.035051,535.852306 C195.040823,535.931251 195.046519,536.012484 195.052112,536.095947 C195.269092,539.333592 195.181176,542.893936 194.566718,546.260533 C193.593211,551.59435 191.450566,555.436539 187.810572,557.084291 C187.527558,557.212405 187.194274,557.086835 187.066159,556.803822 C186.938045,556.520808 187.063615,556.187524 187.346628,556.059409 C190.577039,554.597068 192.545998,551.066333 193.46,546.058539 C194.012638,543.030653 194.126074,539.819171 193.970284,536.851498 L193.913085,535.934882 L193.831304,535.009295 C193.795712,534.700681 194.01704,534.421646 194.325655,534.386054 Z" id="Stroke-100" fill="#1D39C4" fill-rule="nonzero"></path>
        <path d="M256.879828,527.500432 C257.188123,527.462174 257.46906,527.681082 257.507318,527.989378 L257.577505,528.494025 C257.591168,528.586294 257.606587,528.688189 257.6238,528.799272 C257.7246,529.449774 257.850795,530.175247 258.004061,530.956792 C258.441741,533.18864 259.007833,535.419847 259.714661,537.497966 C261.567278,542.944777 264.032361,546.326584 267.073983,546.701884 C267.382305,546.739927 267.60141,547.020711 267.563366,547.329033 C267.525323,547.637355 267.244539,547.85646 266.936217,547.818416 C263.318324,547.372012 260.630743,543.684964 258.649583,537.860229 C257.924828,535.729402 257.346768,533.451024 256.900089,531.173288 C256.775082,530.53584 256.667682,529.93466 256.576979,529.379311 L256.412508,528.293258 C256.4036,528.227689 256.396405,528.172432 256.390882,528.127922 C256.352624,527.819627 256.571532,527.53869 256.879828,527.500432 Z" id="Stroke-102" fill="#1D39C4" fill-rule="nonzero"></path>
        <path d="M263.658277,526.475353 C263.966809,526.439055 264.246349,526.659744 264.282647,526.968277 C264.315315,527.245956 264.139824,527.500151 263.879478,527.574675 L263.789723,527.592647 L187.289723,536.592647 C186.981191,536.628945 186.701651,536.408256 186.665353,536.099723 C186.632685,535.822044 186.808176,535.567849 187.068522,535.493325 L187.158277,535.475353 L263.658277,526.475353 Z" id="Stroke-104" fill="#1D39C4" fill-rule="nonzero"></path>
        <path d="M260.655633,511.47567 C260.96399,511.437912 261.244572,511.657276 261.28233,511.965633 C261.316312,512.243154 261.142026,512.498178 260.882036,512.573933 L260.792367,512.59233 L187.292367,521.59233 C186.98401,521.630088 186.703428,521.410724 186.66567,521.102367 C186.631688,520.824846 186.805974,520.569822 187.065964,520.494067 L187.155633,520.47567 L260.655633,511.47567 Z" id="Stroke-106" fill="#1D39C4" fill-rule="nonzero"></path>
        <g id="分组" transform="translate(147.000000, 421.188000)">
            <mask id="mask-2" fill="white">
                <use xlink:href="#path-1"></use>
            </mask>
            <g id="Clip-109"></g>
            <path d="M57.4887,74.4903 C57.4887,74.4903 64.5762,94.2558 46.3587,100.4418 C27.7827,106.7493 21.3957,86.4678 21.3957,86.4678 C21.3957,86.4678 16.2417,72.7563 10.5372,55.9593 C6.0822,42.8358 2.6112,32.7813 0.5592,24.1128 C-1.6548,14.7573 2.8572,5.0448 11.3892,2.1483 C24.3552,-2.2542 32.3802,3.7923 35.8632,12.6993 C39.2502,21.3618 43.4607,33.1908 46.9827,42.8223 C53.7537,61.3398 57.4887,74.4903 57.4887,74.4903" id="Fill-108" fill="#ADC6FF" mask="url(#mask-2)"></path>
        </g>
        <path d="M289.02195,514.7454 C289.02195,514.7454 270.98745,517.5924 266.13645,510.5154 C261.74295,504.1059 269.16345,497.3934 269.16345,497.3934 C269.16345,497.3934 275.56095,492.8064 283.79295,489.7419 C289.18545,487.7334 298.86795,482.3859 300.63945,484.8699 C302.94645,488.1099 292.15395,491.9619 292.01745,494.8509 C291.74145,500.7084 309.36195,496.4379 312.58995,497.2779 C318.90045,498.9219 310.68195,511.4949 289.02195,514.7454" id="Fill-110" fill="#CE998A"></path>
        <path d="M312.570758,499.848724 C312.856663,499.727199 313.18695,499.860454 313.308476,500.146358 C313.430001,500.432263 313.296746,500.76255 313.010842,500.884076 C312.082244,501.278782 311.113226,501.626431 310.108062,501.929346 C305.670345,503.266691 301.036872,503.646766 297.003459,503.479142 L296.457242,503.452927 C296.074518,503.432087 295.80319,503.411075 295.656847,503.396709 C295.347672,503.366359 295.121641,503.091121 295.151991,502.781947 C295.182341,502.472772 295.457579,502.246741 295.766753,502.277091 L296.368383,502.321081 L296.518411,502.329592 C300.557431,502.549526 305.289618,502.206452 309.783453,500.852195 C310.750362,500.560809 311.680897,500.226966 312.570758,499.848724 Z" id="Stroke-112" fill="#965C56" fill-rule="nonzero"></path>
        <path d="M311.030031,504.132036 C311.310268,503.997958 311.646136,504.116443 311.780214,504.396681 C311.914292,504.676918 311.795807,505.012786 311.515569,505.146864 L311.196262,505.28905 L310.78051,505.460565 C310.630446,505.520458 310.468947,505.582945 310.296141,505.647651 C309.314111,506.015363 308.163757,506.382292 306.853423,506.72426 C303.145389,507.691976 298.904218,508.275011 294.196248,508.282951 C293.885589,508.283473 293.633325,508.032058 293.632799,507.721398 C293.632277,507.410739 293.883692,507.158475 294.194352,507.157951 C298.803837,507.150179 302.950673,506.580112 306.569338,505.63572 C307.841543,505.303702 308.955122,504.948503 309.901644,504.594087 L310.3619,504.416347 C310.432952,504.387997 310.501163,504.360314 310.566518,504.333345 L310.753996,504.25463 C310.894428,504.194588 310.986792,504.152723 311.030031,504.132036 Z" id="Stroke-114" fill="#965C56" fill-rule="nonzero"></path>
        <path d="M304.122838,509.294348 C304.42342,509.215861 304.730716,509.395905 304.809202,509.696488 C304.887689,509.99707 304.707645,510.304366 304.407062,510.382852 C301.118652,511.241506 298.167896,511.779342 295.575433,512.057181 L294.857614,512.128452 C293.702198,512.233722 292.75203,512.2729 292.014605,512.26818 L291.597739,512.260259 C291.512147,512.257451 291.45281,512.254547 291.420022,512.252419 C291.110014,512.232301 290.875012,511.96468 290.895131,511.654672 C290.915249,511.344664 291.18287,511.109662 291.492878,511.129781 L291.634625,511.135864 C292.495667,511.164111 293.776058,511.118581 295.455551,510.938587 C297.992857,510.666659 300.888679,510.138836 304.122838,509.294348 Z" id="Stroke-116" fill="#965C56" fill-rule="nonzero"></path>
        <path d="M190.47165,486.02865 C190.47165,486.02865 168.93465,486.77115 168.966115,504.79065 C168.99915,523.37265 189.69315,523.61865 189.69315,523.61865 C189.69315,523.61865 204.25965,523.43115 222.21315,523.27815 C233.17665,523.18515 245.27565,522.84165 254.02665,521.33115 C263.50065,519.69615 264.43215,514.41315 264.415861,505.40415 C264.39615,494.70465 263.29965,490.28415 253.82715,488.95215 C244.79715,487.68165 232.51065,487.56015 222.99465,487.03515 C204.84915,486.03615 190.47165,486.02865 190.47165,486.02865" id="Fill-118" fill="#ADC6FF"></path>
        <path d="M182.657916,434.864021 C182.947246,434.750894 183.273502,434.893735 183.386629,435.183066 L184.054139,436.90267 C185.190353,439.849959 186.453506,443.225275 187.970283,447.35295 L194.510555,465.316267 C197.028787,472.204746 199.286255,478.775701 201.282212,484.918667 L201.999,487.143 L203.482068,487.181161 C209.15537,487.332082 215.046837,487.55656 221.027837,487.867414 L224.897846,488.071197 C226.101757,488.129724 227.43494,488.187775 229.15917,488.258106 L237.312121,488.59165 L239.34416,488.686612 C245.488272,488.98769 250.008777,489.34613 253.906089,489.894382 L254.506253,489.983815 C262.858481,491.301771 264.866225,494.830223 264.973021,506.094348 L264.97746,506.902383 C264.997134,517.785265 262.936112,521.776944 254.433079,523.329636 L254.122928,523.384703 C246.524675,524.696229 236.490182,525.220301 222.218496,525.34138 L201.649806,525.540912 L189.70099,525.680664 C189.390355,525.684352 189.135295,525.435774 189.131297,525.12514 C189.127298,524.814505 189.375876,524.559445 189.68651,524.555447 L208.305265,524.345848 L219.428207,524.240394 L222.208978,524.21642 C236.421734,524.095841 246.411689,523.574095 253.931574,522.276096 L254.527618,522.16729 C262.027839,520.719759 263.825299,517.262507 263.852297,507.295968 L263.852461,506.904358 C263.832796,495.351692 262.174158,492.257885 254.032709,491.049352 L253.749392,491.008416 C249.616461,490.427018 244.754088,490.05971 237.948984,489.746661 L230.824772,489.450999 L226.944733,489.291156 C225.632256,489.234072 224.549881,489.182418 223.491174,489.126128 L222.962836,489.09755 C215.642672,488.694642 208.434058,488.422647 201.572276,488.258239 C201.332546,488.252495 201.122815,488.095401 201.049891,487.866959 C198.995698,481.431991 196.641554,474.487927 193.988527,467.170856 L187.61427,449.649915 C185.462498,443.769665 183.807543,439.34897 182.338871,435.592734 C182.225744,435.303404 182.368585,434.977148 182.657916,434.864021 Z" id="Stroke-120" fill="#597EF7" fill-rule="nonzero"></path>
        <polygon id="Fill-122" fill="#ADC6FF" points="271.473 515.5686 271.437 494.7336 257.355 493.2576 257.397 517.0941"></polygon>
    </g>
</svg>