<?xml version="1.0" encoding="UTF-8"?>
<svg width="512px" height="1024px" viewBox="0 0 512 1024" version="1.1" xmlns="http://www.w3.org/2000/svg" xmlns:xlink="http://www.w3.org/1999/xlink">
    <!-- Generator: Sketch 61.2 (89653) - https://sketch.com -->
    <title>2.人物组件/4.商务拓展/走路/看电脑</title>
    <desc>Created with Sketch.</desc>
    <defs>
        <polygon id="path-1" points="0.878922693 1.03076748 136.8915 1.03076748 136.8915 86.0205326 0.878922693 86.0205326"></polygon>
    </defs>
    <g id="2.人物组件/4.商务拓展/走路/看电脑" stroke="none" stroke-width="1" fill="none" fill-rule="evenodd">
        <path d="M206.19375,269.69815 C206.19375,269.69815 244.64175,274.06015 246.00525,295.88965 C246.70725,307.11865 236.37525,319.88065 241.85475,323.03965 C263.27025,335.38315 243.00825,344.33065 258.80625,350.64715 C281.07375,359.54965 273.48975,394.88065 252.71625,394.13365 C231.20025,393.35965 233.96025,423.47965 196.62975,416.68615 C175.58925,412.85815 180.05025,400.15465 164.91825,393.55615 C149.78775,386.95915 128.00475,357.30565 145.19475,337.42915 C155.86875,324.86065 166.71825,325.48165 171.97275,305.20765 C177.22575,284.93215 182.64075,272.39515 192.60675,273.52765 C195.94575,268.18615 206.19375,269.69815 206.19375,269.69815" id="Fill-1" fill="#253368"></path>
        <path d="M230.89065,315.8611 C230.97315,315.4351 231.55815,315.3811 231.71865,315.7846 C233.13315,319.3486 236.58165,328.9861 232.76565,329.6581 C228.46065,330.4156 230.14065,319.7506 230.89065,315.8611" id="Fill-3" fill="#FFFFFF"></path>
        <path d="M197.99475,350.3341 C198.54075,332.8411 197.81025,326.0416 197.81025,326.0416 L219.96975,330.9451 L222.07125,349.3651 C222.84525,356.1466 217.85325,362.2216 211.05075,362.7751 C203.85675,363.3631 197.76975,357.5476 197.99475,350.3341" id="Fill-5" fill="#F4B784"></path>
        <path d="M206.15895,292.89835 C206.15895,292.89835 208.18995,285.92485 213.09045,288.84535 C216.59295,290.93335 215.55795,289.07485 216.16245,287.18935 C218.40945,280.19185 221.00895,295.98835 232.03995,298.64335 C232.88595,307.13335 235.11495,335.11585 216.82095,337.61185 C209.70495,338.58235 200.72295,334.83535 196.23945,324.76435 C193.53045,318.67885 194.90445,312.11485 197.31195,310.65235 C205.24245,305.83285 204.75345,301.53985 206.15895,292.89835" id="Fill-7" fill="#FFC999"></path>
        <path d="M221.925846,299.24734 C222.205619,299.306363 222.394655,299.55945 222.381855,299.836093 L222.36996,299.928946 L221.448,304.297 L221.540307,305.064698 C221.631106,305.771327 221.750188,306.598182 221.900903,307.537849 L222.111857,308.804185 C222.520667,311.172188 223.051801,313.793133 223.721474,316.631086 C223.78415,316.896697 223.651574,317.16979 223.404104,317.284836 L222.187139,317.855377 L220.035773,318.880978 L218.01557,319.858586 C217.730101,319.998022 217.385649,319.879638 217.246214,319.59417 C217.106778,319.308701 217.225162,318.964249 217.51063,318.824814 L218.805477,318.196663 C219.536876,317.843456 220.27326,317.490237 220.988554,317.1502 L222.495,316.439 L222.421015,316.120314 C221.770993,313.298613 221.258902,310.697581 220.868416,308.353075 L220.764922,307.720051 L220.641812,306.932186 C220.564833,306.425611 220.49794,305.956604 220.440503,305.526546 L220.324501,304.602881 L220.294191,304.325298 L220.30374,304.149454 L221.24424,299.691454 C221.303263,299.411681 221.55635,299.222645 221.832993,299.235445 L221.925846,299.24734 Z" id="Stroke-9" fill="#DD936F" fill-rule="nonzero"></path>
        <path d="M229.446011,304.894429 C229.854686,304.826918 230.240711,305.103487 230.308221,305.512161 L230.328409,305.653718 C230.335789,305.712143 230.343626,305.781475 230.351336,305.860711 C230.424839,306.616096 230.409454,307.432046 230.239658,308.21793 C229.837058,310.081322 228.6439,311.273048 226.574791,311.233761 C224.975813,311.202929 223.97846,310.170743 223.497515,308.596556 C223.275744,307.870678 223.188504,307.14314 223.177843,306.535026 L223.178671,306.245261 C223.192555,305.83128 223.539408,305.506937 223.953389,305.520821 C224.332872,305.533548 224.637033,305.826062 224.674397,306.193596 L224.677829,306.295539 L224.677763,306.507475 C224.686811,306.989589 224.757866,307.588132 224.932056,308.158275 C225.243271,309.176914 225.765987,309.717886 226.603488,309.734035 C227.873227,309.758144 228.5096,309.122536 228.773489,307.901153 C228.9055,307.290156 228.918135,306.620007 228.858388,306.005982 L228.828279,305.756639 C228.760768,305.347964 229.037337,304.961939 229.446011,304.894429 Z" id="Stroke-11" fill="#253368" fill-rule="nonzero"></path>
        <path d="M212.700129,306.047506 C213.110695,305.992652 213.487991,306.281014 213.542844,306.691579 L213.561072,306.86303 L213.567683,306.943481 C213.625276,307.695956 213.58746,308.530965 213.378868,309.339629 C212.911344,311.152117 211.687064,312.301753 209.633892,312.262768 C208.04066,312.2329 207.034901,311.217213 206.537592,309.664407 C206.299569,308.921198 206.206612,308.180778 206.194279,307.579798 L206.193655,307.340355 C206.203345,306.926254 206.546895,306.598415 206.960995,306.608105 C207.340587,306.616988 207.647696,306.906405 207.688781,307.273543 L207.693245,307.375445 C207.687309,307.866613 207.756708,308.553035 207.966119,309.206901 C208.287853,310.211489 208.818343,310.747216 209.662188,310.763035 C210.948007,310.787449 211.618785,310.157569 211.926411,308.964973 C212.087316,308.341178 212.118155,307.660236 212.072057,307.057954 L212.056056,306.890221 C212.001202,306.479655 212.289564,306.102359 212.700129,306.047506 Z" id="Stroke-13" fill="#253368" fill-rule="nonzero"></path>
        <path d="M210.893527,321.670448 C211.002715,321.270884 211.415139,321.035489 211.814702,321.144677 C214.954347,322.002642 217.900714,322.110455 220.375187,321.781386 L220.689866,321.736549 C220.977547,321.692604 221.183358,321.652326 221.29943,321.62463 C221.702333,321.528494 222.106884,321.777177 222.20302,322.18008 C222.299156,322.582983 222.050473,322.987534 221.64757,323.08367 L221.465414,323.123454 C221.253572,323.166372 220.953524,323.217681 220.572924,323.268296 C217.912795,323.622054 214.769109,323.507021 211.419298,322.591623 C211.019734,322.482435 210.784339,322.070011 210.893527,321.670448 Z" id="Stroke-15" fill="#B53026" fill-rule="nonzero"></path>
        <path d="M232.080303,298.124349 C232.161489,298.530528 231.89803,298.925616 231.491851,299.006803 L230.651506,299.170111 L230.126786,299.269463 C229.079551,299.466061 227.981422,299.662653 226.884691,299.846227 L225.629341,300.050287 L225.0233,300.143986 C224.208666,300.267588 223.449645,300.372923 222.756534,300.457347 C222.345359,300.507431 221.971436,300.214708 221.921353,299.803534 C221.871269,299.392359 222.163992,299.018436 222.575166,298.968353 C223.117102,298.902342 223.702129,298.822993 224.324549,298.731673 L224.798285,298.660959 C225.1918,298.601253 225.596269,298.537555 226.00992,298.470302 L226.637062,298.366809 C227.451714,298.23045 228.267732,298.086733 229.062787,297.941179 L230.116323,297.745009 L231.197849,297.535897 C231.604028,297.454711 231.999116,297.71817 232.080303,298.124349 Z" id="Stroke-17" fill="#253368" fill-rule="nonzero"></path>
        <path d="M204.212455,299.05602 C206.823062,299.380311 209.450463,299.591732 211.963253,299.712287 L213.221971,299.765124 C213.487868,299.774624 213.74425,299.782681 213.990511,299.789398 L215.059943,299.811059 C215.126927,299.811781 215.182643,299.812173 215.22671,299.812303 C215.640922,299.813524 215.975717,300.150298 215.974507,300.56451 C215.973276,300.978722 215.636502,301.313517 215.22229,301.312307 L214.658122,301.305161 L213.566996,301.27758 C213.046278,301.261159 212.486135,301.239098 211.891372,301.210563 C209.343068,301.088305 206.678751,300.873914 204.027545,300.54458 C203.616491,300.493518 203.324659,300.118899 203.37572,299.707845 C203.422527,299.331045 203.741211,299.054426 204.110616,299.050269 L204.212455,299.05602 Z" id="Stroke-19" fill="#253368" fill-rule="nonzero"></path>
        <path d="M218.291584,325.898689 C218.608932,325.883713 218.878335,326.128835 218.893311,326.446184 C218.906789,326.731797 218.709588,326.978575 218.438666,327.035991 L218.345816,327.047911 L216.343316,327.142411 C216.025968,327.157387 215.756565,326.912265 215.741589,326.594916 C215.728111,326.309303 215.925312,326.062525 216.196234,326.005109 L216.289084,325.993189 L218.291584,325.898689 Z" id="Stroke-21" fill="#DD936F" fill-rule="nonzero"></path>
        <path d="M184.94625,315.74905 C182.97675,308.65255 189.90975,308.66905 189.90975,308.66905 C189.90975,308.66905 190.48125,315.82555 192.74925,322.11805 C185.81325,322.32955 184.94625,315.74905 184.94625,315.74905" id="Fill-23" fill="#FFC999"></path>
        <path d="M189.15285,320.55085 C189.23535,320.12485 189.82035,320.07085 189.98085,320.47435 C191.39535,324.03835 194.84385,333.67585 191.02785,334.34785 C186.72285,335.10535 188.40285,324.44035 189.15285,320.55085" id="Fill-25" fill="#FFFFFF"></path>
        <path d="M261.36015,456.1939 C261.36015,456.1939 264.07065,402.0649 263.60565,391.9234 C262.48215,367.4299 248.62215,362.8339 238.04715,371.9914 C225.30015,383.0284 235.40715,459.4789 235.40715,459.4789 C235.40715,459.4789 237.42465,468.0994 248.69715,469.1194 C262.02165,470.3239 261.36015,456.1939 261.36015,456.1939" id="Fill-27" fill="#FFC999"></path>
        <path d="M263.51865,416.8768 C263.54115,411.7948 269.90115,367.7293 248.26815,367.0573 C231.75765,366.5443 229.91715,381.2878 232.17615,417.7768 L263.51865,416.8768 Z" id="Fill-29" fill="#597EF7"></path>
        <path d="M355.27935,452.43955 C355.27935,452.43955 340.36785,459.22405 331.73085,457.46755 C324.66885,456.03205 328.84335,448.91455 328.84335,448.91455 C328.84335,448.91455 336.66735,437.49355 342.89535,432.24505 C346.97685,428.80405 353.75985,421.10755 356.08185,422.72305 C359.10885,424.83055 350.88885,431.56705 351.67485,434.13355 C353.26635,439.33405 367.31385,430.09555 370.39485,429.82105 C376.41885,429.28255 373.17435,442.82905 355.27935,452.43955" id="Fill-31" fill="#FFC999"></path>
        <path d="M371.14385,432.031507 C371.377186,431.815895 371.74113,431.830263 371.956743,432.0636 C372.172355,432.296936 372.157987,432.66088 371.92465,432.876493 C370.648763,434.055465 369.205848,435.132633 367.626645,436.112789 C365.420238,437.48223 363.060208,438.598176 360.700451,439.481458 C360.039635,439.728809 359.416242,439.943534 358.840142,440.126868 L358.417089,440.258502 C358.00067,440.385061 357.700825,440.467749 357.536864,440.508925 C357.22873,440.586308 356.916207,440.399247 356.838825,440.091114 C356.761442,439.78298 356.948503,439.470457 357.256636,439.393075 L357.636486,439.289553 C357.762827,439.253428 357.91202,439.209542 358.082535,439.157719 C358.749884,438.954896 359.494583,438.704371 360.297135,438.403967 C362.590443,437.545558 364.883478,436.46129 367.019931,435.135268 C368.539777,434.191952 369.924559,433.158182 371.14385,432.031507 Z" id="Stroke-33" fill="#DD936F" fill-rule="nonzero"></path>
        <path d="M371.13699,436.254693 C371.360586,436.028996 371.72481,436.027293 371.950507,436.25089 C372.176204,436.474486 372.177907,436.83871 371.95431,437.064407 L371.701318,437.306111 C371.61637,437.384499 371.515143,437.475969 371.397624,437.579646 C370.946197,437.977903 370.405835,438.420317 369.776399,438.895748 C367.984725,440.249049 365.835332,441.60043 363.327232,442.86053 C361.597808,443.729414 359.753804,444.524684 357.795106,445.230257 C357.496206,445.337928 357.166615,445.182907 357.058943,444.884006 C356.951272,444.585106 357.106293,444.255515 357.405194,444.147843 C359.320088,443.45805 361.121875,442.680987 362.810729,441.832486 C365.254826,440.604542 367.345369,439.290161 369.082972,437.977701 C369.587814,437.59638 370.031552,437.23841 370.414221,436.910202 L370.833214,436.541014 C370.979236,436.408513 371.080488,436.311726 371.13699,436.254693 Z" id="Stroke-35" fill="#DD936F" fill-rule="nonzero"></path>
        <path d="M366.729103,442.914011 C366.991432,442.734797 367.349374,442.802174 367.528589,443.064503 C367.707803,443.326832 367.640426,443.684774 367.378097,443.863989 C364.501497,445.829191 361.874807,447.316289 359.550337,448.391074 C358.849779,448.714997 358.219107,448.98135 357.662434,449.195322 L357.390283,449.297967 C357.012828,449.437523 356.75007,449.523452 356.608535,449.564002 C356.303121,449.651503 355.9846,449.47485 355.897098,449.169435 C355.809597,448.864021 355.98625,448.5455 356.291665,448.457998 L356.6048,448.357061 C356.676398,448.332494 356.7576,448.303926 356.848255,448.271167 L356.991308,448.218861 C357.583599,447.999875 358.277813,447.71193 359.067488,447.346801 C361.334424,446.298618 363.905516,444.842997 366.729103,442.914011 Z" id="Stroke-37" fill="#DD936F" fill-rule="nonzero"></path>
        <path d="M340.36725,442.2991 C340.36725,442.2991 263.32275,443.1016 253.39425,445.2211 C228.77475,450.4771 233.54175,473.9476 251.18025,474.3946 C274.64625,474.9886 342.41325,456.7486 342.41325,456.7486 L340.36725,442.2991 Z" id="Fill-39" fill="#FFC999"></path>
        <path d="M186.4572,679.63015 C186.5907,679.29715 149.7162,771.19315 146.6442,776.80465 C138.2592,792.11965 135.3477,793.25665 141.2892,801.79915 C142.8117,803.98765 146.6157,804.54715 147.8847,810.09565 C151.3617,825.27865 161.4552,838.33165 166.3467,833.38615 C170.4402,828.48865 158.6472,799.24765 162.7377,786.72415 C166.9887,773.71615 228.1242,681.25465 229.7937,669.40315 C232.2447,651.99715 224.5767,616.80865 186.4572,679.63015" id="Fill-41" fill="#FFC999"></path>
        <path d="M134.94045,800.87755 C134.94045,800.87755 136.84545,791.10355 144.13845,781.86205 C144.13845,781.86205 147.57495,791.94055 149.79945,802.13455 C152.36895,813.90505 153.83295,815.23555 153.83295,815.23555 C161.07645,822.75505 165.79695,818.83855 165.79695,818.83855 C165.79695,818.83855 167.18895,827.58505 172.53795,839.12305 C177.32895,849.45505 145.42545,833.47705 145.48995,823.23505 C145.55445,812.99305 142.45545,805.28305 142.45545,805.28305 L133.42995,815.89255 L130.50045,814.17205 L134.94045,800.87755 Z" id="Fill-43" fill="#253368"></path>
        <path d="M192.9597,635.45275 L145.5042,759.96625 L198.0582,783.13525 C198.0582,783.13525 222.4317,718.98775 245.2767,652.95925 C245.2767,652.95925 258.5397,620.62825 231.5247,610.57525 C204.5097,600.51925 192.9597,635.45275 192.9597,635.45275" id="Fill-45" fill="#A3B5D6"></path>
        <path d="M259.93155,615.6466 C271.88805,553.4791 268.91205,503.0236 264.74205,489.3271 C264.74205,489.3271 254.83605,469.5181 233.40705,480.1171 C208.42305,492.4786 208.42005,514.1311 208.42005,514.1311 L201.18855,611.8831 C200.87655,619.8916 199.24905,644.6971 229.98855,647.7556 C260.24655,650.7676 259.68255,616.9411 259.93155,615.6466" id="Fill-47" fill="#A3B5D6"></path>
        <path d="M199.9203,454.357 C211.7313,457.237 241.4613,455.2975 244.9698,453.7945 C248.4783,452.29 245.2518,445.6285 245.2518,445.6285 C245.2518,445.6285 258.2808,418.348 258.7818,410.8285 C259.2828,403.3105 252.5793,386.3095 252.5793,386.3095 C252.5793,386.3095 254.3268,371.5915 250.3188,369.607 C245.3148,367.1305 232.0773,361.9795 228.1938,359.974 C224.3088,357.9685 223.6593,348.235 223.6593,348.235 L197.4033,346.609 C197.4033,346.609 195.9423,354.055 194.3943,356.635 C191.3883,361.6465 182.6223,354.31 175.0848,361.537 C158.7363,377.2105 187.0458,421.0585 197.2548,443.707 C197.2548,443.707 193.6728,449.212 199.9203,454.357" id="Fill-49" fill="#597EF7"></path>
        <path d="M197.792244,359.094851 L222.854244,362.118851 C223.265475,362.16847 223.558619,362.542063 223.508999,362.953294 C223.463515,363.330256 223.145803,363.607991 222.776414,363.613443 L222.674556,363.608049 L197.612556,360.584049 C197.201325,360.53443 196.908181,360.160837 196.957801,359.749606 C197.003285,359.372644 197.320997,359.094909 197.690386,359.089457 L197.792244,359.094851 Z" id="Stroke-51" fill="#1D39C4" fill-rule="nonzero"></path>
        <path d="M197.688577,363.362824 C197.7844,362.995418 198.136613,362.762987 198.503372,362.807318 L198.603576,362.826377 L211.854576,366.282377 C212.255382,366.386911 212.495558,366.79657 212.391023,367.197376 C212.2952,367.564782 211.942987,367.797213 211.576228,367.752882 L211.476024,367.733823 L198.225024,364.277823 C197.824218,364.173289 197.584042,363.76363 197.688577,363.362824 Z" id="Stroke-53" fill="#1D39C4" fill-rule="nonzero"></path>
        <path d="M197.876102,401.134385 C198.157057,400.830022 198.631551,400.811046 198.935915,401.092002 L199.139321,401.266012 C199.285953,401.385183 199.488443,401.540172 199.745849,401.722585 C200.444716,402.217841 201.276909,402.715158 202.238624,403.180488 C206.679227,405.329097 212.107184,406.052398 218.462515,404.505328 L218.979843,404.374898 C221.232962,403.786994 226.487006,403.792066 233.953815,404.227901 C235.800568,404.335695 237.734647,404.467755 239.724483,404.619382 L240.924824,404.712669 C242.803684,404.86148 244.637024,405.01939 246.372267,405.178607 L248.763429,405.404856 L249.783181,405.506561 C250.195207,405.549076 250.494754,405.917555 250.452239,406.329581 C250.409724,406.741607 250.041245,407.041154 249.629219,406.998639 L247.091495,406.751742 L244.475223,406.514379 C243.282745,406.409748 242.054589,406.306847 240.806391,406.207987 L238.429002,406.026861 C237.254282,405.94106 236.102055,405.862626 234.979208,405.792573 L232.887387,405.670062 C226.286674,405.310168 221.530476,405.319179 219.502,405.790979 L219.358456,405.826329 C212.419863,407.635782 206.454955,406.886943 201.5853,404.530736 C200.546468,404.028092 199.643188,403.488294 198.87856,402.946435 L198.556148,402.711936 C198.261057,402.491288 198.048074,402.313821 197.918485,402.194198 C197.614122,401.913243 197.595146,401.438749 197.876102,401.134385 Z" id="Stroke-55" fill="#1D39C4" fill-rule="nonzero"></path>
        <path d="M251.428655,375.262135 C251.806081,375.220674 252.148809,375.466877 252.238147,375.825341 L252.256065,375.925755 L253.188,384.413 L253.419546,385.000613 C253.590258,385.438928 253.776489,385.925234 253.97514,386.453742 L254.126408,386.857946 C254.857173,388.819039 255.587897,390.89874 256.270218,393.006968 C256.819889,394.705336 257.314963,396.352311 257.742097,397.923333 C258.855752,402.019415 259.456459,405.394547 259.406395,407.834882 C259.366277,409.809795 258.945144,412.164319 258.206367,414.825537 C257.709958,416.613698 257.081039,418.50001 256.350248,420.442267 C255.685972,422.207747 254.974661,423.922652 254.263238,425.520754 L253.835123,426.467674 L253.461342,427.268419 C253.39393,427.410352 253.34308,427.515764 253.310532,427.582184 C253.128259,427.954138 252.67897,428.107904 252.307016,427.925632 C251.935062,427.743359 251.781296,427.29407 251.963568,426.922116 L252.216995,426.390677 C252.379988,426.043696 252.558035,425.65678 252.748117,425.234238 L252.892889,424.910719 C253.592986,423.338059 254.293194,421.649921 254.946336,419.914034 C255.662388,418.010949 256.277514,416.166006 256.761027,414.424298 C257.469088,411.873726 257.86952,409.634943 257.906708,407.804267 C257.953129,405.541469 257.373606,402.28536 256.294641,398.316871 C255.874145,396.770263 255.385822,395.145744 254.843101,393.46885 C254.280542,391.730663 253.684265,390.010759 253.082393,388.362004 L252.720823,387.381711 C252.518272,386.838144 252.327346,386.33517 252.151151,385.878615 L251.758448,384.877075 L251.708535,384.678545 L250.765035,376.089545 C250.719805,375.677808 251.016918,375.307364 251.428655,375.262135 Z" id="Stroke-57" fill="#1D39C4" fill-rule="nonzero"></path>
        <path d="M267.276,504.8128 C267.276,504.8128 264.294,471.9508 249.2355,460.7653 L196.998,461.1238 C196.998,461.1238 172.1085,478.6273 177.7395,519.1723 L223.2105,530.0908 L237.7125,534.9388 C237.7125,534.9388 260.8005,520.2988 267.276,504.8128" id="Fill-59" fill="#E4EBF7"></path>
        <polygon id="Fill-61" fill="#E4EBF7" points="195.9117 461.81605 249.8187 461.73355 245.3142 453.28705 196.7472 453.68005"></polygon>
        <path d="M232.981421,462.483413 C233.284702,462.416101 233.585126,462.607391 233.652437,462.910671 C237.473139,480.125261 238.176286,497.421508 237.093087,512.4263 L237.021279,513.376623 C236.960554,514.144866 236.897839,514.853489 236.834769,515.499559 L236.721759,516.587002 L236.661261,517.103867 C236.621873,517.41202 236.340136,517.629898 236.031983,517.590511 C235.72383,517.551123 235.505952,517.269386 235.545339,516.961233 L235.627295,516.247019 L235.67767,515.765851 C235.777611,514.783112 235.877621,513.638913 235.971007,512.345297 C237.046983,497.440557 236.348062,480.248258 232.554163,463.154429 C232.486851,462.851148 232.678141,462.550724 232.981421,462.483413 Z" id="Stroke-63" fill="#A3B5D6" fill-rule="nonzero"></path>
        <path d="M249.533591,461.170771 C249.844239,461.16806 250.098267,461.417693 250.101,461.728341 C250.103419,462.007924 249.90146,462.241646 249.634582,462.28757 L249.543409,462.295729 L196.092409,462.762229 C195.781761,462.76494 195.527733,462.515307 195.525,462.204659 C195.522581,461.925076 195.72454,461.691354 195.991418,461.64543 L196.082591,461.637271 L249.533591,461.170771 Z" id="Stroke-65" fill="#A3B5D6" fill-rule="nonzero"></path>
        <path d="M221.58705,698.0419 C221.49855,697.6669 245.68455,801.2719 246.43905,808.1059 C248.49855,826.7524 246.63705,829.5469 257.13405,833.4034 C259.82205,834.3919 263.51355,832.5394 268.05105,836.6389 C280.46955,847.8604 297.39705,853.1269 298.65405,845.7604 C299.23905,838.9249 270.83655,820.4584 266.71905,806.9164 C262.44105,792.8479 259.25955,673.7899 253.42455,662.3299 C244.85355,645.4999 216.41655,619.2574 221.58705,698.0419" id="Fill-67" fill="#FFC999"></path>
        <path d="M250.977,836.50615 C250.977,836.50615 246.6285,826.72915 247.353,814.10065 C247.353,814.10065 256.5885,820.85365 264.8295,828.45265 C274.3455,837.22915 276.4545,837.49765 276.4545,837.49765 C287.463,839.65165 289.203,833.29465 289.203,833.29465 C289.203,833.29465 295.8195,840.13465 307.6395,846.99265 C318.2235,853.13365 280.2975,858.73315 274.041,849.68065 C267.786,840.62665 260.3055,835.75165 260.3055,835.75165 L258.9015,850.65265 L255.2625,850.94365 L250.977,836.50615 Z" id="Fill-69" fill="#253368"></path>
        <path d="M207.51765,641.1649 L229.32015,782.6674 L290.71365,776.3974 C290.71365,776.3974 279.41115,703.5379 265.68165,629.7304 C265.68165,629.7304 260.89815,592.4899 230.32665,597.4459 C199.75365,602.4019 207.51765,641.1649 207.51765,641.1649" id="Fill-71" fill="#E4EBF7"></path>
        <path d="M259.17975,605.33335 C243.98025,546.75685 234.23925,501.80035 225.88725,490.17235 C225.88725,490.17235 205.60725,473.68735 190.41075,482.99185 C169.71525,495.66235 178.30275,522.55135 178.30275,522.55135 L207.30375,636.30085 C209.58375,643.98535 215.22225,663.55735 245.31375,656.57335 C274.93575,649.69885 259.51125,606.60985 259.17975,605.33335" id="Fill-73" fill="#E4EBF7"></path>
        <path d="M171.01515,446.69005 C171.01515,446.69005 188.74965,395.47555 191.13765,385.61005 C196.90515,361.77955 184.88115,353.49205 172.16865,359.32705 C156.84465,366.36205 145.17915,442.59055 145.17915,442.59055 C145.17915,442.59055 144.70665,451.43155 155.24415,455.56105 C167.70015,460.44205 171.01515,446.69005 171.01515,446.69005" id="Fill-75" fill="#FFC999"></path>
        <path d="M184.0779,409.54375 C185.5209,404.67175 203.9439,364.13875 183.3624,357.44725 C167.6529,352.33975 161.7639,365.98075 153.7344,401.64625 L184.0779,409.54375 Z" id="Fill-77" fill="#597EF7"></path>
        <path d="M189.676052,392.016227 C189.818057,391.627116 190.248612,391.426797 190.637723,391.568802 C190.994408,391.698973 191.192455,392.071606 191.113606,392.432522 L191.085148,392.530473 L184.782148,409.801473 C184.661669,410.131599 184.331025,410.329317 183.990834,410.289384 L183.888691,410.270169 L153.545191,402.372669 C153.144332,402.268338 152.903949,401.8588 153.008281,401.457941 C153.103918,401.090487 153.456013,400.857878 153.822795,400.902023 L153.923009,400.921031 L183.607,408.646 L189.676052,392.016227 Z" id="Stroke-79" fill="#1D39C4" fill-rule="nonzero"></path>
        <g id="分组" transform="translate(244.500000, 375.928000)">
            <mask id="mask-2" fill="white">
                <use xlink:href="#path-1"></use>
            </mask>
            <g id="Clip-82"></g>
            <path d="M106.09155,86.01465 L6.26805,81.47115 C2.47305,81.29715 -0.06945,77.49915 1.21605,73.92465 L26.11455,4.76265 C26.95305,2.43465 29.20905,0.92415 31.67955,1.03665 L131.50305,5.58015 C135.29805,5.75415 137.84205,9.55215 136.55505,13.12665 L111.65655,82.29015 C110.81805,84.61665 108.56205,86.12715 106.09155,86.01465" id="Fill-81" fill="#2A3049" mask="url(#mask-2)"></path>
        </g>
        <path d="M262.23975,469.33945 C262.23975,469.33945 246.02625,471.68395 238.22325,467.58445 C231.84525,464.23195 237.84225,458.56495 237.84225,458.56495 C237.84225,458.56495 248.54775,449.78695 255.99375,446.48845 C260.87475,444.32545 269.53875,438.83245 271.31625,441.03295 C273.63375,443.90245 263.85975,448.07245 263.89575,450.75595 C263.96925,456.19345 280.04025,451.24945 283.07475,451.84795 C289.00875,453.01495 282.10725,465.11545 262.23975,469.33945" id="Fill-83" fill="#FFC999"></path>
        <path d="M283.177602,454.18 C283.461918,454.03823 283.80733,454.153786 283.9491,454.438102 C284.09087,454.722418 283.975314,455.06783 283.690998,455.2096 C282.709922,455.698799 281.674513,456.13121 280.5914,456.509959 C277.99289,457.418619 275.218939,457.989973 272.417322,458.2905 C270.728203,458.47169 269.271554,458.532454 268.16432,458.523302 L267.742352,458.51565 C267.424871,458.503805 267.177105,458.236833 267.18895,457.919352 C267.200795,457.601871 267.467767,457.354105 267.785248,457.36595 L267.917305,457.369305 L268.449534,457.373598 C269.477897,457.370925 270.790073,457.307953 272.294613,457.146562 C275.014353,456.854819 277.703983,456.300832 280.211637,455.423943 C281.250375,455.060712 282.241247,454.6469 283.177602,454.18 Z" id="Stroke-85" fill="#DD936F" fill-rule="nonzero"></path>
        <path d="M281.98944,458.232554 C282.267209,458.078351 282.617392,458.178521 282.771596,458.45629 C282.925799,458.734059 282.825629,459.084242 282.54786,459.238446 L282.293525,459.371336 L282.19781,459.419153 C281.919068,459.55725 281.589345,459.710461 281.209705,459.874951 C280.130932,460.342362 278.865373,460.808789 277.42157,461.2435 C274.230716,462.204224 270.634744,462.873185 266.670055,463.121128 C266.352972,463.140958 266.079851,462.899987 266.060022,462.582905 C266.040192,462.265822 266.281163,461.992701 266.598245,461.972872 C270.472179,461.730604 273.981325,461.077795 277.089877,460.141851 C278.489984,459.720297 279.713681,459.269298 280.752305,458.819283 C281.023392,458.701827 281.266634,458.590927 281.481575,458.488191 L281.846355,458.308065 C281.913273,458.273762 281.961046,458.248317 281.98944,458.232554 Z" id="Stroke-87" fill="#DD936F" fill-rule="nonzero"></path>
        <path d="M275.895759,463.39404 C276.197727,463.295297 276.522567,463.460042 276.62131,463.762009 C276.720053,464.063977 276.555308,464.388817 276.253341,464.48756 C272.96217,465.563773 270.039338,466.255828 267.515895,466.63984 L266.926046,466.725237 C265.890018,466.867243 265.104223,466.931019 264.580866,466.946633 L264.321499,466.950554 C264.001917,466.949204 263.745461,466.690568 263.7468,466.372869 C263.748015,466.08694 263.957631,465.850618 264.231145,465.807193 L264.324484,465.800059 L264.563128,465.794566 C264.700051,465.789193 264.877917,465.779469 265.09591,465.763621 C265.730902,465.717459 266.481138,465.633562 267.342807,465.502435 C269.804038,465.12789 272.665158,464.450447 275.895759,463.39404 Z" id="Stroke-89" fill="#DD936F" fill-rule="nonzero"></path>
        <path d="M250.7565,455.4352 C250.7565,455.4352 176.559,434.6677 166.434,433.9282 C141.327,432.0922 139.3425,455.9617 156.153,461.3197 C178.518,468.4507 248.6805,469.8787 248.6805,469.8787 L250.7565,455.4352 Z" id="Fill-91" fill="#FFC999"></path>
    </g>
</svg>