<?xml version="1.0" encoding="UTF-8"?>
<svg width="512px" height="1024px" viewBox="0 0 512 1024" version="1.1" xmlns="http://www.w3.org/2000/svg" xmlns:xlink="http://www.w3.org/1999/xlink">
    <!-- Generator: Sketch 61.2 (89653) - https://sketch.com -->
    <title>2.人物组件/2.保安/走路/看电脑</title>
    <desc>Created with Sketch.</desc>
    <defs>
        <polygon id="path-1" points="0.25545 1.4655 69.9337913 1.4655 69.9337913 64.46295 0.25545 64.46295"></polygon>
    </defs>
    <g id="2.人物组件/2.保安/走路/看电脑" stroke="none" stroke-width="1" fill="none" fill-rule="evenodd">
        <path d="M364.87435,431.0251 C338.04835,432.0136 275.21785,437.0161 238.72585,432.1126 C238.72585,432.1126 200.82535,426.0601 206.19685,392.6926 C211.43485,360.1576 249.84235,368.2156 249.84235,368.2156 C293.01385,376.3066 343.36735,387.2701 367.59835,390.9526 C367.59835,390.9526 380.48935,393.5596 380.85385,409.9576 C381.28735,429.4126 364.87435,431.0251 364.87435,431.0251" id="Fill-1" fill="#FFC2BD"></path>
        <path d="M313.849,372.1267 C315.91,360.9697 308.5,330.4342 308.7805,326.5147 C309.562,315.6277 304.666,280.2712 275.4115,275.9302 C252.016,272.4577 240.2755,291.4492 235.531,305.9392 C232.2595,315.9262 245.4115,365.3377 244.1635,377.1952 L313.849,372.1267 Z" id="Fill-3" fill="#597EF7"></path>
        <path d="M204.8299,669.22855 L204.8299,669.22855 C219.9484,670.81405 233.6494,660.25855 235.9729,645.23605 L259.3954,495.51955 C262.5274,475.27555 247.5259,458.45905 227.1529,456.32305 L227.1529,456.32305 C206.7814,454.18705 188.7649,469.53055 187.6294,489.98305 L179.3404,639.29755 C178.4974,654.47455 189.7129,667.64305 204.8299,669.22855" id="Fill-5" fill="#4E5C93"></path>
        <path d="M133.47595,769.77175 L174.11695,785.09875 C188.70595,780.23125 184.22995,760.78825 184.22995,760.78825 L231.78895,649.13875 C238.10845,634.24225 230.76145,617.08075 215.62045,611.37025 C200.47945,605.65975 183.62995,613.69675 178.53895,629.05675 L139.82695,746.23375 C139.82695,746.23375 125.16295,757.14625 133.47595,769.77175" id="Fill-7" fill="#253368"></path>
        <path d="M165.4468,852.11275 L116.8558,829.70575 L133.9138,770.12275 L172.7998,784.78675 L155.3488,821.17825 L169.5913,847.70875 C171.0403,850.40425 168.2263,853.39375 165.4468,852.11275" id="Fill-9" fill="#253368"></path>
        <path d="M148.8139,415.4209 C148.8139,415.4209 117.0274,293.1709 122.5294,282.1684 C128.0314,271.1659 161.5924,254.2954 206.1529,259.3624 C272.6359,266.9224 285.9754,279.6349 285.9754,279.6349 C285.9754,279.6349 271.6369,359.6959 258.3454,407.4199 C265.3459,419.9224 252.6184,428.7979 252.6184,428.7979 C252.6184,428.7979 172.7239,425.1049 153.7189,426.1054 C144.8419,422.2999 148.8139,415.4209 148.8139,415.4209" id="Fill-11" fill="#597EF7"></path>
        <path d="M259.396,495.51925 L226.4245,522.90175 L149.137,506.43025 C149.137,506.43025 140.2675,478.55575 152.053,438.46675 C154.5895,431.49325 155.62,426.26275 155.62,426.26275 C155.62,426.26275 219.3235,428.27875 255.6175,428.79925 L256.885,440.20975 C256.885,440.20975 265.396,459.51925 259.396,495.51925" id="Fill-13" fill="#4E5C93"></path>
        <polygon id="Fill-15" fill="#FFC2BD" points="186.20185 248.3371 194.75335 193.7011 246.80485 198.8191 240.92035 258.1771 223.19785 285.1006"></polygon>
        <path d="M215.3017,164.68945 C215.3017,164.68945 245.1652,160.63045 251.4007,175.11145 C257.4637,189.19495 252.2542,236.83645 236.2762,242.25145 C223.2517,246.66595 198.4462,240.88045 195.2392,217.18645 C195.2392,217.18645 192.3292,198.95545 196.1167,183.44695 C199.9027,167.93995 215.3017,164.68945 215.3017,164.68945" id="Fill-17" fill="#FFC2BD"></path>
        <path d="M196.90915,203.33935 C196.90915,203.33935 190.86415,187.28335 183.89815,194.74585 C176.93065,202.20535 185.17915,218.52685 194.06665,218.96035 C202.95415,219.39385 196.90915,203.33935 196.90915,203.33935" id="Fill-19" fill="#FFC2BD"></path>
        <g id="分组" transform="translate(187.000000, 142.034500)">
            <mask id="mask-2" fill="white">
                <use xlink:href="#path-1"></use>
            </mask>
            <g id="Clip-22"></g>
            <path d="M66.13245,61.06395 C66.13245,61.06395 72.11145,43.26645 69.07245,31.40595 C66.03345,19.54545 61.73595,7.53195 56.92245,13.01745 C56.63595,10.10895 53.54295,3.98895 50.93745,1.75845 C48.33345,-0.47055 38.04045,10.74045 38.04045,10.74045 C38.04045,10.74045 39.35295,5.15145 35.47395,8.19495 C31.59495,11.23845 9.21795,19.39545 5.07345,24.64245 C0.92895,29.88945 0.25545,50.93595 0.25545,50.93595 C0.25545,50.93595 7.09695,51.12345 9.15945,64.46295 C9.46845,53.96295 14.44545,49.05645 16.91445,47.25795 C17.85045,46.57695 18.46395,45.54645 18.68895,44.41095 C19.12245,42.23145 19.81695,38.56845 20.34345,34.97145 C20.57595,33.38745 21.89745,32.21145 23.49795,32.12895 C39.78645,31.29195 57.02595,35.89245 63.14445,37.72245 C64.52745,38.13645 65.47095,39.40095 65.48895,40.84545 L65.63895,52.83795 C65.63895,52.83795 66.22545,55.00845 66.13245,61.06395" id="Fill-21" fill="#253368" mask="url(#mask-2)"></path>
        </g>
        <path d="M214.737688,194.201394 C214.873942,194.182232 215.012099,194.185439 215.146758,194.210599 L215.280052,194.243061 L225.271552,197.258061 C225.941329,197.460171 226.320448,198.166975 226.118339,198.836752 C225.928861,199.464668 225.295804,199.837123 224.665533,199.714694 L224.539648,199.683539 L214.815,196.749 L209.597512,197.482706 C208.948022,197.574046 208.344402,197.155564 208.191207,196.532056 L208.166694,196.404712 C208.075354,195.755222 208.493836,195.151602 209.117344,194.998407 L209.244688,194.973894 L214.737688,194.201394 Z" id="Stroke-23" fill="#253368" fill-rule="nonzero"></path>
        <path d="M245.897146,196.841658 C246.076397,196.816487 246.258424,196.830092 246.431072,196.880923 L246.558609,196.926001 L250.359609,198.502501 C251.005837,198.77053 251.312427,199.511682 251.044399,200.157909 C250.793121,200.763748 250.126014,201.071077 249.511132,200.886277 L249.388991,200.842699 L245.906,199.398 L235.855954,200.810042 C235.206445,200.901249 234.602912,200.482643 234.449845,199.859104 L234.425358,199.731754 C234.334151,199.082245 234.752757,198.478712 235.376296,198.325645 L235.503646,198.301158 L245.897146,196.841658 Z" id="Stroke-25" fill="#253368" fill-rule="nonzero"></path>
        <path d="M196.65025,209.4544 C196.65025,209.4544 204.01825,216.7834 207.46975,223.9054 C214.25275,217.2994 220.84825,214.9039 220.84825,214.9039 C220.84825,214.9039 227.33875,221.0584 231.31375,219.8629 C232.66525,218.5894 232.71175,217.1329 232.71175,217.1329 C232.71175,217.1329 238.80025,220.2619 242.48725,227.4124 C244.94425,222.9199 251.00275,217.4494 251.00275,217.4494 C251.00275,217.4494 248.41525,248.4019 225.69925,246.1399 C202.80475,243.3784 196.70125,229.7899 195.38725,218.8564 C195.18925,215.4544 195.28225,206.8939 196.65025,209.4544" id="Fill-27" fill="#EFADAB"></path>
        <path d="M214.828905,219.869635 C215.094922,219.377303 215.709684,219.193839 216.202015,219.459855 L216.490961,219.609061 L216.890668,219.806128 C217.033794,219.875218 217.186665,219.947555 217.348847,220.022677 C218.279629,220.453814 219.318256,220.885599 220.436552,221.28856 C223.606932,222.430958 226.768989,223.115883 229.68875,223.119064 C230.693552,223.120159 231.653384,223.039039 232.562642,222.870935 C233.112919,222.7692 233.641479,223.132815 233.743215,223.683092 C233.84495,224.233369 233.481335,224.761929 232.931058,224.863665 C231.894898,225.055231 230.811557,225.146789 229.686542,225.145599 C226.500898,225.142092 223.121513,224.410092 219.749572,223.195065 C218.572504,222.770927 217.479499,222.316534 216.49711,221.861494 L216.008081,221.630338 L215.40677,221.331012 C215.332703,221.292828 215.276432,221.26314 215.238685,221.242745 C214.746353,220.976728 214.562889,220.361966 214.828905,219.869635 Z" id="Stroke-29" fill="#D18682" fill-rule="nonzero"></path>
        <path d="M233.02851,199.469986 C233.301898,199.528569 233.485957,199.776632 233.472583,200.047102 L233.460664,200.13786 L232.745,203.477 L232.808508,204.192601 L232.872348,204.986092 C232.904037,205.398022 232.935208,205.831804 232.965098,206.283274 C233.087843,208.137285 233.168832,209.977523 233.188469,211.698712 C233.244308,216.592822 232.850629,219.596607 231.604191,220.345757 C230.506527,221.004781 228.743506,220.532985 226.387358,219.282405 C225.772856,218.956244 225.130403,218.581296 224.468616,218.166874 C223.624379,217.638199 222.791239,217.072602 222.004824,216.507018 L221.430066,216.087152 L220.982561,215.749207 C220.737232,215.55862 220.692856,215.20524 220.883443,214.959911 C221.07403,214.714582 221.42741,214.670206 221.672739,214.860793 L221.935069,215.0602 C222.14915,215.220986 222.392886,215.400376 222.661681,215.593692 C223.429832,216.146141 224.243584,216.698576 225.065699,217.213398 C225.705995,217.614362 226.325662,217.976011 226.914788,218.288704 C228.91424,219.349959 230.41036,219.75033 231.02488,219.38138 C231.726106,218.95992 232.112596,216.010982 232.063543,211.711547 C232.044165,210.013144 231.964044,208.192628 231.842555,206.357592 L231.750677,205.072586 L231.662144,203.9908 L231.617291,203.497443 L231.627136,203.32514 L232.360636,199.90214 C232.419219,199.628752 232.667282,199.444693 232.937752,199.458067 L233.02851,199.469986 Z" id="Stroke-31" fill="#965C56" fill-rule="nonzero"></path>
        <path d="M223.281238,228.863044 L228.585238,229.478044 C228.893831,229.513825 229.114988,229.792995 229.079206,230.101588 C229.047003,230.379321 228.817655,230.586232 228.547143,230.598752 L228.455662,230.595556 L223.151662,229.980556 C222.843069,229.944775 222.621912,229.665605 222.657694,229.357012 C222.689897,229.079279 222.919245,228.872368 223.189757,228.859848 L223.281238,228.863044 Z" id="Stroke-33" fill="#965C56" fill-rule="nonzero"></path>
        <path d="M219.6952,206.24785 C219.4747,208.07335 218.2402,209.42485 216.9367,209.26735 C215.6332,209.10985 214.7542,207.50335 214.9747,205.67935 C215.1952,203.85385 216.4297,202.50085 217.7332,202.65835 C219.0367,202.81585 219.9157,204.42385 219.6952,206.24785" id="Fill-35" fill="#253368"></path>
        <path d="M244.47805,209.23825 C244.25755,211.06225 243.02305,212.41525 241.71955,212.25775 C240.41605,212.10025 239.53705,210.49375 239.75755,208.66825 C239.97805,206.84275 241.21255,205.49125 242.51605,205.64875 C243.81955,205.80625 244.69855,207.41275 244.47805,209.23825" id="Fill-37" fill="#253368"></path>
        <path d="M216.819909,217.395617 C217.145776,217.139914 217.617231,217.196793 217.872933,217.522659 C218.105391,217.818901 218.079516,218.235465 217.828062,218.500869 L217.745891,218.575683 L213.161891,222.172683 C212.836024,222.428386 212.364569,222.371507 212.108867,222.045641 C211.876409,221.749399 211.902284,221.332835 212.153738,221.067431 L212.235909,220.992617 L216.819909,217.395617 Z" id="Stroke-39" fill="#D18682" fill-rule="nonzero"></path>
        <path d="M195.432397,219.200022 C195.77944,219.157853 196.094959,219.405003 196.137128,219.752047 L196.178365,220.039609 C196.203742,220.199769 196.238847,220.402266 196.284998,220.643881 L196.321702,220.832377 C196.49567,221.709604 196.736183,222.688962 197.05367,223.744698 C197.961406,226.76318 199.301925,229.78169 201.156693,232.595524 C207.035468,241.514102 216.616615,246.426991 230.866083,245.260012 C231.214512,245.231477 231.520103,245.490803 231.548638,245.839233 C231.577173,246.187662 231.317847,246.493253 230.969417,246.521788 C216.248652,247.727365 206.227668,242.588942 200.09967,233.292272 C198.172155,230.368075 196.782398,227.238695 195.841305,224.109288 C195.511702,223.013263 195.261526,221.994557 195.079886,221.078649 L194.9937,220.622323 L194.896972,220.028176 C194.889403,219.975272 194.883925,219.933998 194.880372,219.904753 C194.838203,219.55771 195.085353,219.242191 195.432397,219.200022 Z" id="Stroke-41" fill="#D18682" fill-rule="nonzero"></path>
        <path d="M224.930002,235.654327 C225.211652,235.523244 225.546239,235.645302 225.677323,235.926952 C225.774532,236.135819 225.913512,236.493646 226.050987,236.964743 C226.419974,238.22918 226.544817,239.538376 226.273545,240.78291 C225.921882,242.396255 224.930797,243.707453 223.208729,244.572004 C222.931093,244.711389 222.593031,244.599314 222.453646,244.321679 C222.314261,244.044043 222.426336,243.705981 222.703971,243.566596 C224.117566,242.856912 224.893945,241.829768 225.174354,240.543318 C225.399665,239.509644 225.291886,238.379391 224.971031,237.279895 L224.869306,236.953594 C224.7865,236.704901 224.710677,236.51617 224.657377,236.401648 C224.526294,236.119998 224.648352,235.785411 224.930002,235.654327 Z" id="Stroke-43" fill="#965C56" fill-rule="nonzero"></path>
        <path d="M185.021614,199.727474 C185.469052,198.223002 186.718435,197.622736 188.561418,198.599489 C191.394851,200.100482 191.438149,202.31866 189.946858,206.221909 C189.126424,208.367758 189.740778,209.708524 191.746067,210.366938 C192.078217,210.475996 192.259069,210.833666 192.150012,211.165817 C192.040954,211.497967 191.683284,211.678819 191.351133,211.569762 C188.650833,210.683148 187.688647,208.583275 188.764288,205.769931 C190.049576,202.405867 190.018306,200.803933 187.968677,199.718155 C186.860577,199.130879 186.463044,199.321874 186.235085,200.088367 C186.158016,200.347503 186.122719,200.623815 186.114605,200.857783 L186.113388,201.02439 C186.127988,201.381025 185.856522,201.675883 185.507223,201.690311 C185.189679,201.703427 184.917127,201.480267 184.859357,201.177151 L184.84769,201.052031 C184.839363,200.670734 184.881049,200.200112 185.021614,199.727474 Z" id="Stroke-45" fill="#D18682" fill-rule="nonzero"></path>
        <path d="M218.6317,227.647 C218.5402,227.962 218.2102,228.1435 217.8952,228.0505 C217.5802,227.959 217.3987,227.6275 217.4917,227.3125 C217.5832,226.9975 217.9132,226.8175 218.2282,226.909 C218.5432,227.002 218.7247,227.332 218.6317,227.647" id="Fill-47" fill="#D18682"></path>
        <path d="M209.50465,228.799 C209.41315,229.114 209.08315,229.294 208.76815,229.2025 C208.45315,229.111 208.27165,228.7795 208.36465,228.4645 C208.45615,228.1495 208.78615,227.9695 209.10115,228.061 C209.41615,228.154 209.59765,228.484 209.50465,228.799" id="Fill-49" fill="#D18682"></path>
        <path d="M237.81115,234.17065 C237.88765,234.49015 237.69115,234.81115 237.37315,234.88765 C237.05365,234.96415 236.73265,234.76765 236.65465,234.44965 C236.57815,234.13015 236.77465,233.80915 237.09415,233.73265 C237.41365,233.65465 237.73465,233.85265 237.81115,234.17065" id="Fill-51" fill="#D18682"></path>
        <path d="M243.6892,232.018 C243.7657,232.336 243.5692,232.6585 243.2512,232.735 C242.9317,232.8115 242.6107,232.615 242.5327,232.2955 C242.4562,231.9775 242.6527,231.655 242.9722,231.5785 C243.2917,231.502 243.6127,231.6985 243.6892,232.018" id="Fill-53" fill="#D18682"></path>
        <path d="M232.79785,235.3096 C232.87435,235.6291 232.67785,235.9501 232.35985,236.0266 C232.04035,236.1031 231.71935,235.9066 231.64135,235.5886 C231.56485,235.2691 231.76135,234.9481 232.08085,234.8716 C232.40035,234.7936 232.72135,234.9901 232.79785,235.3096" id="Fill-55" fill="#D18682"></path>
        <path d="M226.07485,233.12545 C226.15135,233.44345 225.95485,233.76595 225.63685,233.84245 C225.31735,233.91895 224.99635,233.72245 224.91835,233.40295 C224.84185,233.08495 225.03835,232.76245 225.35785,232.68745 C225.67735,232.60945 225.99835,232.80595 226.07485,233.12545" id="Fill-57" fill="#D18682"></path>
        <path d="M202.9237,225.54265 C203.0002,225.86215 202.8037,226.18315 202.4842,226.25965 C202.1662,226.33615 201.8452,226.13965 201.7672,225.82165 C201.6907,225.50215 201.8872,225.18115 202.2067,225.10465 C202.5262,225.02665 202.8472,225.22315 202.9237,225.54265" id="Fill-59" fill="#D18682"></path>
        <path d="M213.18055,235.39165 C213.08905,235.70665 212.75905,235.88815 212.44405,235.79515 C212.12905,235.70365 211.94755,235.37215 212.04055,235.05715 C212.13205,234.74215 212.46205,234.56215 212.77705,234.65365 C213.09205,234.74665 213.27355,235.07665 213.18055,235.39165" id="Fill-61" fill="#D18682"></path>
        <path d="M217.86925,235.02835 C217.77625,235.34335 217.44775,235.52485 217.13275,235.43185 C216.81625,235.34035 216.63625,235.01035 216.72925,234.69535 C216.82075,234.38035 217.15075,234.19885 217.46575,234.29185 C217.78075,234.38335 217.96225,234.71335 217.86925,235.02835" id="Fill-63" fill="#D18682"></path>
        <path d="M236.16805,238.8487 C236.07505,239.1637 235.74655,239.3452 235.43155,239.2522 C235.11505,239.1607 234.93505,238.8292 235.02655,238.5142 C235.11955,238.1992 235.44955,238.0192 235.76455,238.1107 C236.07955,238.2037 236.26105,238.5337 236.16805,238.8487" id="Fill-65" fill="#D18682"></path>
        <path d="M234.0802,231.52435 C233.9872,231.83935 233.6587,232.02085 233.3422,231.92785 C233.0272,231.83635 232.8472,231.50635 232.9387,231.18985 C233.0317,230.87485 233.3617,230.69485 233.6767,230.78635 C233.9917,230.87935 234.1717,231.20935 234.0802,231.52435" id="Fill-67" fill="#D18682"></path>
        <path d="M236.91625,225.8797 C236.82475,226.1947 236.49475,226.3762 236.17975,226.2847 C235.86475,226.1917 235.68325,225.8617 235.77625,225.5467 C235.86775,225.2317 236.19775,225.0502 236.51275,225.1432 C236.82775,225.2347 237.00925,225.5647 236.91625,225.8797" id="Fill-69" fill="#D18682"></path>
        <path d="M208.4803,232.40695 C208.3873,232.72195 208.0588,232.90345 207.7438,232.81045 C207.4273,232.71895 207.2473,232.38895 207.3403,232.07245 C207.4318,231.75745 207.7618,231.57745 208.0768,231.66895 C208.3918,231.76195 208.5733,232.09195 208.4803,232.40695" id="Fill-71" fill="#D18682"></path>
        <path d="M246.71935,271.2715 L243.31735,250.999 L231.11035,251.4265 L222.02485,276.997 L210.70735,249.442 L183.81385,244.675 L175.63135,259.654 C175.63135,259.654 190.17235,289.7965 223.74985,286.303 C240.33685,284.5765 246.71935,271.2715 246.71935,271.2715" id="Fill-73" fill="#597EF7"></path>
        <path d="M275.31018,310.953449 C275.61957,310.881255 275.928906,311.073539 276.001101,311.38293 L276.057804,311.645094 C276.101466,311.855722 276.149946,312.10566 276.202023,312.394282 C276.32898,313.097897 276.455744,313.90965 276.576163,314.82638 L276.635816,315.293478 C277.461262,321.942893 277.564274,330.149909 276.481682,339.675889 C274.984759,352.847654 271.376101,366.860419 265.193185,381.474294 C265.069393,381.766886 264.731848,381.903726 264.439256,381.779935 C264.146664,381.656143 264.009824,381.318598 264.133615,381.026006 C270.272833,366.515414 273.853874,352.60989 275.33854,339.545975 C276.410531,330.113278 276.308659,321.997091 275.49408,315.435211 L275.376103,314.536566 C275.296209,313.960787 275.21413,313.431802 275.131683,312.950549 L275.009149,312.270562 C274.952496,311.972135 274.90831,311.762697 274.880699,311.64437 C274.808505,311.33498 275.000789,311.025644 275.31018,310.953449 Z" id="Stroke-75" fill="#1D39C4" fill-rule="nonzero"></path>
        <path d="M257.0443,440.3686 C208.9048,442.6381 151.8163,437.7286 151.8163,437.7286 L153.7183,424.1776 C153.7183,424.1776 216.3178,425.7451 257.4343,426.4756 C258.3073,432.9736 257.0443,440.3686 257.0443,440.3686" id="Fill-77" fill="#253368"></path>
        <path d="M224.008766,438.103793 C224.472081,438.050203 224.891116,438.38235 224.944707,438.845666 L225.145117,440.727295 C225.184087,441.111274 225.224809,441.521832 225.267031,441.958071 L225.398447,443.348772 C225.595274,445.482085 225.79011,447.825746 225.974169,450.348309 C226.955768,463.80126 227.320201,477.631617 226.705862,490.552585 C226.189203,501.419107 224.995767,510.980685 223.020083,518.883031 C222.906958,519.335508 222.448447,519.610608 221.995969,519.497483 C221.543492,519.384358 221.268392,518.925847 221.381517,518.473369 C223.32663,510.693299 224.50697,501.236646 225.018768,490.472371 C225.602902,478.186677 225.296413,465.057331 224.413577,452.219868 L224.289647,450.47122 C224.106407,447.959882 223.912477,445.627108 223.716635,443.50443 L223.504067,441.288387 L223.266893,439.039734 C223.213303,438.576419 223.54545,438.157384 224.008766,438.103793 Z" id="Stroke-79" fill="#253368" fill-rule="nonzero"></path>
        <path d="M240.978499,438.73138 C241.444853,438.724839 241.828504,439.097296 241.835407,439.563649 L241.858915,441.767268 C241.930621,450.370067 241.86194,460.143976 241.549875,469.537099 L241.446182,472.411829 C240.754162,490.16989 239.342538,501.064787 236.669094,503.143664 C235.342795,504.175617 233.813144,505.24228 232.118994,506.330887 C229.994393,507.696087 227.72121,509.026967 225.4484,510.271111 L224.522461,510.773013 C224.223671,510.933341 223.935138,511.086554 223.65806,511.232226 L222.681187,511.739072 C222.568102,511.796806 222.477736,511.842474 222.411564,511.875548 C221.99437,512.084071 221.487125,511.914909 221.278602,511.497714 C221.070079,511.08052 221.239241,510.573275 221.656436,510.364752 L222.471708,509.946648 L223.290252,509.516248 C223.71634,509.289912 224.166747,509.047195 224.637394,508.789561 C226.877929,507.563084 229.118091,506.251537 231.205945,504.909949 C232.860195,503.846981 234.349318,502.80858 235.6321,501.810485 C237.720546,500.186505 239.167397,488.578542 239.804381,471.128826 C240.144419,461.813743 240.235813,452.020871 240.181121,443.30748 L240.146593,439.588651 C240.139689,439.122297 240.512146,438.738646 240.978499,438.73138 Z" id="Stroke-81" fill="#253368" fill-rule="nonzero"></path>
        <path d="M247.24585,427.16815 L247.24585,440.70415 C247.24585,442.47115 245.89735,443.91865 244.19035,443.97115 C238.52935,444.14065 225.94885,444.29065 214.53685,442.84465 C212.94535,442.64215 211.74385,441.25465 211.74385,439.59565 L211.74385,426.86815 C211.74385,425.04865 213.17035,423.57865 214.92985,423.60115 C221.39785,423.68065 236.13535,423.85615 244.11535,423.89965 C245.85235,423.91015 247.24585,425.36965 247.24585,427.16815" id="Fill-83" fill="#E1E7F3"></path>
        <path d="M243.5842,429.50395 L243.5812,438.46495 C243.5797,439.63345 242.4787,440.59195 241.0867,440.62645 C236.4682,440.73595 226.2037,440.83195 216.8947,439.87045 C215.5957,439.73545 214.6162,438.81595 214.6162,437.71795 L214.6192,429.29395 C214.6192,428.08945 215.7847,427.11745 217.2202,427.13245 C222.4972,427.18795 234.5212,427.30795 241.0312,427.34095 C242.4472,427.34695 243.5842,428.31445 243.5842,429.50395" id="Fill-85" fill="#253368"></path>
        <polygon id="Fill-87" fill="#E1E7F3" points="214.7158 441.59905 244.6858 428.22355 243.4483 425.49955 213.2293 439.12255"></polygon>
        <polygon id="Fill-89" fill="#E1E7F3" points="213.42775 428.65285 243.46825 441.87235 244.65475 439.12435 214.26475 425.88835"></polygon>
        <path d="M181.569503,262.896497 C181.70187,262.643049 181.996595,262.529365 182.259509,262.616381 L182.345703,262.652903 L194.807703,269.161403 C195.089311,269.308478 195.198372,269.655994 195.051297,269.937603 C194.91893,270.191051 194.624205,270.304735 194.361291,270.217719 L194.275097,270.181197 L181.813097,263.672697 C181.531489,263.525622 181.422428,263.178106 181.569503,262.896497 Z" id="Stroke-91" fill="#1D39C4" fill-rule="nonzero"></path>
        <path d="M217.868398,277.29139 C218.179754,277.228208 218.483377,277.429392 218.54656,277.740748 L218.635043,278.198897 L218.816408,279.203529 L218.865767,279.489618 C219.10398,280.882745 219.342087,282.450573 219.564275,284.158979 C220.417858,290.722163 220.802465,297.40859 220.45471,303.656812 C220.279163,306.810921 219.917652,309.757396 219.351305,312.458209 C219.286103,312.769148 218.98118,312.968357 218.670241,312.903155 C218.359302,312.837953 218.160093,312.53303 218.225295,312.222091 C218.778952,309.581796 219.133495,306.69211 219.305988,303.592878 C219.649278,297.424876 219.268544,290.805786 218.423384,284.307359 C218.230764,282.82631 218.026142,281.452375 217.820091,280.20856 L217.683016,279.401199 L217.46101,278.183333 C217.442324,278.086219 217.428192,278.01465 217.41904,277.969552 C217.355858,277.658196 217.557042,277.354573 217.868398,277.29139 Z" id="Stroke-93" fill="#1D39C4" fill-rule="nonzero"></path>
        <path d="M233.134,673.55125 L233.134,673.55125 C247.7605,669.41125 256.5655,654.52375 253.147,639.71275 L219.517,493.99825 C214.9105,474.03925 194.542,461.99275 174.8335,467.57125 C155.1235,473.14975 144.0895,494.08375 150.628,513.49675 L198.355,655.22125 C203.2075,669.62575 218.5075,677.69125 233.134,673.55125" id="Fill-95" fill="#4E5C93"></path>
        <path d="M226.4122,798.5281 L269.3992,792.3181 C279.8242,781.0096 266.5147,766.1476 266.5147,766.1476 L254.2327,645.4141 C252.5707,629.3176 237.8482,617.8396 221.8327,620.1526 C205.8172,622.4656 194.9437,637.6411 197.9047,653.5501 L220.6042,774.8491 C220.6042,774.8491 213.0337,791.4871 226.4122,798.5281" id="Fill-97" fill="#4E5C93"></path>
        <path d="M294.17695,855.18535 L240.80545,859.03435 L226.96495,798.62335 L268.09645,792.68335 L270.39445,832.97635 L295.67845,849.32785 C298.24945,850.98985 297.22945,854.96485 294.17695,855.18535" id="Fill-99" fill="#253368"></path>
        <path d="M357.73645,427.9036 L257.81395,428.841364 C254.01445,428.8771 251.26795,425.2246 252.35695,421.5841 L273.42295,351.1591 C274.13245,348.7906 276.30145,347.1586 278.77495,347.1361 L378.69745,346.196836 C382.49695,346.1611 385.24345,349.8151 384.15595,353.4556 L363.08845,423.8791 C362.37895,426.2476 360.20995,427.8796 357.73645,427.9036" id="Fill-101" fill="#4E5C93"></path>
        <path d="M362.8045,427.9036 L262.882,428.841364 C259.0825,428.8771 256.336,425.2246 257.425,421.5841 L278.491,351.1591 C279.2005,348.7906 281.3695,347.1586 283.843,347.1361 L383.7655,346.196836 C387.565,346.1611 390.313,349.8151 389.224,353.4556 L368.1565,423.8791 C367.447,426.2476 365.278,427.8796 362.8045,427.9036" id="Fill-103" fill="#253368"></path>
        <path d="M262.91905,427.78045 C236.09305,428.76895 173.26255,433.77145 136.77055,428.86795 C136.77055,428.86795 98.87005,422.81545 104.24155,389.44795 C109.47955,356.91295 147.88705,364.97095 147.88705,364.97095 C191.05855,373.06195 241.41205,384.02545 265.64305,387.70645 C265.64305,387.70645 278.53405,390.31495 278.89855,406.71295 C279.33205,426.16795 262.91905,427.78045 262.91905,427.78045" id="Fill-105" fill="#FFC2BD"></path>
        <path d="M165.83215,394.82965 C165.83215,394.82965 180.01315,326.29765 180.90565,313.85365 C181.68715,302.96665 180.65365,274.20415 151.39915,269.86315 C128.00365,266.39065 116.38615,283.88815 111.64165,298.37665 C103.44415,323.40715 103.13965,356.51215 103.00765,386.63665 C103.00765,386.63665 101.67715,420.83665 134.60965,422.01265 C162.47815,423.00715 165.83215,394.82965 165.83215,394.82965" id="Fill-107" fill="#FFC2BD"></path>
        <path d="M172.60075,359.67775 C174.66175,348.51925 181.84075,317.85775 182.12275,313.93675 C182.90425,303.05125 180.49825,272.67025 151.24375,268.32775 C127.84825,264.85525 116.10775,283.84825 111.36325,298.33525 C108.09175,308.32525 104.97175,340.17775 103.72375,352.03525 L172.60075,359.67775 Z" id="Fill-109" fill="#597EF7"></path>
        <path d="M177.600881,319.826783 C177.917764,319.849582 178.156166,320.124949 178.133367,320.441831 L178.056241,321.435138 C177.385487,329.578214 174.763187,351.778954 173.163282,360.441033 C173.113193,360.712218 172.879704,360.905229 172.612079,360.91169 L172.521811,360.906786 L103.767811,351.768786 C103.452878,351.726928 103.231507,351.437693 103.273364,351.122761 C103.311036,350.839322 103.549084,350.631667 103.825902,350.623484 L103.919389,350.628314 L172.128,359.694 L172.174947,359.437251 C173.824395,350.0469 176.412246,327.924227 176.962872,320.669592 L176.985833,320.359269 C177.008632,320.042386 177.283999,319.803984 177.600881,319.826783 Z" id="Stroke-111" fill="#1D39C4" fill-rule="nonzero"></path>
        <path d="M265.7725,430.0342 C265.7725,430.0342 254.9485,428.5147 250.0375,413.9077 C245.59,400.6792 254.0215,395.8432 254.0215,395.8432 C254.0215,395.8432 265.3465,386.0947 280.9915,384.9367 C291.244,384.1777 310.4965,379.8172 312.3355,384.9787 C314.734,391.7092 294.958,392.6722 293.3215,397.5802 C290.008,407.5237 319.972,409.3642 325.1185,412.4272 C333.0205,417.1282 322.1305,434.6617 292.7695,434.670707 C284.7595,434.6737 276.9475,433.6732 265.7725,430.0342" id="Fill-113" fill="#FFC2BD"></path>
        <path d="M294.623242,413.229266 C294.738633,412.940831 295.065999,412.800552 295.354434,412.915942 L295.863911,413.109761 L296.404577,413.305915 C296.691546,413.408056 297.003233,413.516077 297.338567,413.629002 C298.938019,414.16762 300.741036,414.706562 302.707929,415.209684 C310.131998,417.108728 317.69678,417.979936 324.779555,417.266429 L325.655899,417.169717 C325.96434,417.132658 326.244424,417.352657 326.281483,417.661099 C326.318542,417.96954 326.098543,418.249624 325.790101,418.286683 L325.66773,418.301218 C318.211929,419.17656 310.241056,418.297846 302.429136,416.299592 C300.434108,415.789273 298.604504,415.242384 296.979533,414.695172 L296.327912,414.471754 C296.121467,414.399639 295.925887,414.329978 295.741487,414.26306 L294.936566,413.960458 C294.648131,413.845067 294.507852,413.517701 294.623242,413.229266 Z" id="Stroke-115" fill="#965C56" fill-rule="nonzero"></path>
        <path d="M289.62735,420.928029 C289.713573,420.629575 290.025416,420.457527 290.323871,420.54375 C301.802231,423.859825 311.710353,424.625648 319.261603,423.962211 L319.814602,423.909694 C319.988606,423.891847 320.152236,423.873725 320.305351,423.855525 L320.947391,423.769201 C321.253881,423.718469 321.543467,423.925802 321.594199,424.232291 C321.644931,424.538781 321.437598,424.828367 321.131109,424.879099 L320.669794,424.944109 L320.192911,425.000764 C320.023434,425.019495 319.843488,425.038006 319.653211,425.056097 L319.360064,425.082894 C311.677217,425.757893 301.631155,424.981408 290.011629,421.62455 C289.713175,421.538327 289.541127,421.226484 289.62735,420.928029 Z" id="Stroke-117" fill="#965C56" fill-rule="nonzero"></path>
        <path d="M285.445987,426.972535 C285.548389,426.679237 285.869167,426.524485 286.162465,426.626887 L289.8398,428.000021 C289.950908,428.040146 290.049492,428.075192 290.132195,428.10382 C294.827566,429.729188 300.00385,430.501357 307.950499,430.288651 C308.261048,430.280339 308.519536,430.52535 308.528054,430.835899 C308.536161,431.146448 308.29115,431.404936 307.980601,431.413249 C300.124986,431.623518 294.886592,430.880476 290.16746,429.304084 L289.480936,429.066513 C288.413358,428.68171 286.2091,427.834766 285.791635,427.689013 C285.498337,427.586611 285.343585,427.265833 285.445987,426.972535 Z" id="Stroke-119" fill="#965C56" fill-rule="nonzero"></path>
        <path d="M312.244654,384.424384 C312.551209,384.374045 312.840528,384.581749 312.890866,384.888304 C313.204589,386.798831 312.750791,387.900458 311.226421,388.905682 C310.675167,389.269199 309.97781,389.632387 308.897013,390.13429 L305.067469,391.872442 C304.208297,392.252259 303.314483,392.592166 301.77627,393.14251 L301.185354,393.353197 C297.436813,394.687978 295.872262,395.391375 294.665669,396.4851 C293.181682,397.83027 292.977085,399.458823 294.287938,401.826542 C295.782586,404.526808 301.101159,406.825124 308.958408,408.621758 C312.335943,409.394064 315.958266,410.023709 319.581084,410.521 C320.638036,410.666084 321.631974,410.79102 322.545308,410.896593 L323.842812,411.039282 L324.406593,411.095294 C324.715959,411.123622 324.943785,411.397378 324.915456,411.706743 C324.887128,412.016109 324.613372,412.243935 324.304007,412.215606 L323.487461,412.133181 L322.959213,412.075733 C321.893494,411.957274 320.706375,411.811014 319.428094,411.635549 C315.774844,411.13408 312.1211,410.498973 308.707639,409.718453 L307.738494,409.491442 C300.089302,407.655627 294.949017,405.343895 293.303686,402.371402 C291.748332,399.562055 292.024926,397.360418 293.910114,395.651575 C295.226638,394.458204 296.793893,393.733541 300.424916,392.430305 L302.548007,391.666059 C303.488397,391.318856 304.139207,391.057771 304.788114,390.765101 L308.423182,389.113943 L308.951033,388.865011 C309.690536,388.509977 310.203485,388.232657 310.607093,387.966503 C311.75271,387.211042 312.024049,386.55235 311.780734,385.070596 C311.730395,384.764041 311.938099,384.474722 312.244654,384.424384 Z" id="Stroke-121" fill="#965C56" fill-rule="nonzero"></path>
        <path d="M365.99425,382.6531 C365.99425,382.6531 386.80675,371.7871 392.05675,373.9726 C400.19575,377.3596 389.62075,391.9396 389.62075,391.9396 C389.62075,391.9396 395.37775,398.8171 388.16575,405.6811 C388.77325,414.6151 383.17825,417.1411 383.17825,417.1411 C383.17825,417.1411 386.02975,424.6441 377.88925,427.6051 C369.75025,430.5646 355.05325,424.5916 360.45475,414.7681 C356.13775,407.1211 362.87725,402.8296 362.87725,402.8296 C362.87725,402.8296 360.13975,395.9641 366.78925,391.9471 C363.12325,388.1191 363.83275,383.8081 365.99425,382.6531" id="Fill-123" fill="#FFC2BD"></path>
        <path d="M385.535741,386.879519 C385.837858,386.807165 386.141427,386.993424 386.213781,387.295541 C386.2789,387.567446 386.134542,387.840527 385.884776,387.945171 L385.797759,387.973581 L366.920259,392.494581 C366.618142,392.566935 366.314573,392.380676 366.242219,392.078559 C366.1771,391.806654 366.321458,391.533573 366.571224,391.428929 L366.658241,391.400519 L385.535741,386.879519 Z" id="Stroke-125" fill="#965C56" fill-rule="nonzero"></path>
        <path d="M391.530562,373.775468 C391.63927,373.484448 391.963313,373.336655 392.254332,373.445362 C395.849303,374.788228 396.489385,378.20195 394.974007,382.855993 C394.478206,384.378704 393.765652,385.989139 392.892624,387.63995 C392.277709,388.802694 391.619457,389.917574 390.961059,390.94614 L390.628001,391.458772 L390.283,391.971 L390.421168,392.235893 C390.654669,392.693987 390.887629,393.210106 391.104955,393.774272 C392.025272,396.163363 392.389763,398.621447 391.865867,400.94304 C391.441257,402.824659 390.445034,404.493589 388.809225,405.880258 L388.758,405.922 L388.77157,406.037928 C389.207905,410.260704 388.249694,413.378008 386.347661,415.526858 L386.154329,415.73852 C385.33358,416.609398 384.507588,417.16663 383.840038,417.479536 L383.64,417.567 L381.533496,424.790812 C381.455204,425.059221 381.194423,425.224769 380.925639,425.191778 L380.835988,425.173296 C380.567579,425.095004 380.402031,424.834223 380.435022,424.565439 L380.453504,424.475788 L382.639004,416.983288 C382.690726,416.805969 382.826206,416.665343 383.001474,416.607049 C383.127623,416.565091 383.373947,416.457529 383.70032,416.269725 C384.255917,415.95002 384.81381,415.520617 385.335619,414.966937 C387.197517,412.991319 388.131532,410.005702 387.606728,405.749639 C387.582694,405.554727 387.662055,405.361393 387.8161,405.23958 C389.424389,403.967808 390.375054,402.438745 390.768462,400.695397 C391.235647,398.625111 390.902484,396.378297 390.055152,394.178673 C389.90313,393.784031 389.743024,393.41486 389.581127,393.075733 L389.418866,392.746789 C389.290495,392.494945 389.192325,392.320136 389.139359,392.233017 C389.022324,392.040517 389.031433,391.796756 389.162508,391.613527 L389.39359,391.280068 L389.689355,390.838635 C389.792909,390.681689 389.901201,390.515147 390.013552,390.339629 C390.656113,389.335804 391.298819,388.247255 391.898131,387.114014 C392.743211,385.516051 393.430576,383.962542 393.904284,382.507686 C395.257352,378.352132 394.736335,375.573415 391.860668,374.499238 C391.569648,374.39053 391.421855,374.066487 391.530562,373.775468 Z" id="Stroke-127" fill="#965C56" fill-rule="nonzero"></path>
        <path d="M362.886433,402.26733 L379.699933,402.55083 C380.010549,402.556067 380.258107,402.812117 380.252952,403.122733 C380.248156,403.402288 380.040285,403.630765 379.772318,403.669847 L379.680967,403.67567 L362.867467,403.39217 C362.556851,403.386933 362.309293,403.130883 362.314448,402.820267 C362.319244,402.540712 362.527115,402.312235 362.795082,402.273153 L362.886433,402.26733 Z" id="Stroke-129" fill="#965C56" fill-rule="nonzero"></path>
        <path d="M360.5184,414.208078 L376.2744,415.981078 C376.583112,416.015817 376.805211,416.294239 376.770472,416.60295 C376.739207,416.880791 376.510559,417.088475 376.240091,417.101909 L376.1486,417.099022 L360.3926,415.326022 C360.083888,415.291283 359.861789,415.012861 359.896528,414.70415 C359.927793,414.426309 360.156441,414.218625 360.426909,414.205191 L360.5184,414.208078 Z" id="Stroke-131" fill="#965C56" fill-rule="nonzero"></path>
        <path d="M147.247245,364.885574 L266.245245,386.215574 C266.551031,386.270386 266.754487,386.562708 266.699676,386.868495 C266.650346,387.143703 266.408631,387.336022 266.137863,387.331913 L266.046755,387.322926 L147.048755,365.992926 C146.742969,365.938114 146.539513,365.645792 146.594324,365.340005 C146.643654,365.064797 146.885369,364.872478 147.156137,364.876587 L147.247245,364.885574 Z" id="Stroke-133" fill="#965C56" fill-rule="nonzero"></path>
    </g>
</svg>