<?xml version="1.0" encoding="UTF-8"?>
<svg width="512px" height="1024px" viewBox="0 0 512 1024" version="1.1" xmlns="http://www.w3.org/2000/svg" xmlns:xlink="http://www.w3.org/1999/xlink">
    <!-- Generator: Sketch 61.2 (89653) - https://sketch.com -->
    <title>2.人物组件/4.商务拓展/坐姿/专注工作</title>
    <desc>Created with Sketch.</desc>
    <defs>
        <polygon id="path-1" points="0.716378681 0.687 129.036 0.687 129.036 148.900971 0.716378681 148.900971"></polygon>
        <polygon id="path-3" points="0.292468722 0.9939 48.1467 0.9939 48.1467 58.5 0.292468722 58.5"></polygon>
    </defs>
    <g id="2.人物组件/4.商务拓展/坐姿/专注工作" stroke="none" stroke-width="1" fill="none" fill-rule="evenodd">
        <path d="M352.524058,542.833057 C352.834687,542.828616 353.090101,543.07683 353.094601,543.387458 C353.09854,543.667024 352.897886,543.901866 352.631268,543.949277 L352.540142,543.957943 L303.022142,544.665943 C302.711513,544.670384 302.456099,544.42217 302.451599,544.111542 C302.44766,543.831976 302.648314,543.597134 302.914932,543.549723 L303.006058,543.541057 L352.524058,542.833057 Z" id="Stroke-1" fill="#A3B5D6" fill-rule="nonzero"></path>
        <path d="M198.4254,700.8208 C198.5334,700.4908 174.8049,783.2623 173.6079,789.3238 C170.3409,805.8673 171.7944,808.5118 162.0999,811.1653 C159.6174,811.8463 156.4524,809.9053 152.0754,813.2293 C140.0979,822.3328 124.5354,825.7573 123.9714,819.0643 C123.9699,812.8993 150.8154,798.5263 155.5359,786.7123 C160.4409,774.4378 163.5924,672.4798 173.7564,666.9778 C183.9204,661.4758 209.0679,630.6568 198.4254,700.8208" id="Fill-2" fill="#FFC999"></path>
        <path d="M167.37735,814.41355 C167.37735,814.41355 172.01685,805.99105 172.33185,794.62405 C172.33185,794.62405 163.54635,799.96705 155.58585,806.14405 C146.39385,813.27805 144.48435,813.35905 144.48435,813.35905 C134.45985,814.44655 133.38735,808.62205 133.38735,808.62205 C133.38735,808.62205 126.94035,814.24255 115.83135,819.48205 C105.88335,824.17405 139.42335,832.08355 145.71585,824.45155 C152.00835,816.82105 159.07935,813.02605 159.07935,813.02605 L159.20085,826.47805 L162.43785,827.01655 L167.37735,814.41355 Z" id="Fill-4" fill="#253368"></path>
        <path d="M166.28445,615.50245 L137.86995,760.44895 L189.10395,770.62945 C189.10395,770.62945 207.19095,692.79895 217.97895,626.18995 C217.97895,626.18995 225.96795,591.84895 198.59745,586.76245 C171.22845,581.67445 166.28445,615.50245 166.28445,615.50245" id="Fill-6" fill="#A3B5D6"></path>
        <path d="M198.28395,584.22955 C252.26445,577.53655 292.12545,576.96505 304.60845,580.09555 C304.60845,580.09555 330.52245,585.29005 325.66095,605.23705 C319.72845,629.57905 291.86445,629.98555 291.86445,629.98555 L201.61545,637.06555 C194.43945,637.70305 170.82495,640.43605 169.46295,612.70105 C168.17745,586.54105 197.10795,584.37505 198.28395,584.22955" id="Fill-8" fill="#A3B5D6"></path>
        <path d="M197.52525,549.45115 C197.52525,549.45115 266.56425,525.19465 276.32925,522.41815 C301.01625,515.39665 304.10775,545.47315 288.44925,549.48415 C279.01125,551.90215 259.89675,554.67265 243.24975,557.29465 C219.78825,560.98915 202.53525,562.96765 202.53525,562.96765 L197.52525,549.45115 Z" id="Fill-10" fill="#FFC999"></path>
        <g id="分组" transform="translate(268.500000, 358.813000)">
            <mask id="mask-2" fill="white">
                <use xlink:href="#path-1"></use>
            </mask>
            <g id="Clip-13"></g>
            <path d="M52.03545,1.2105 C52.03545,1.2105 14.04345,8.556 14.38695,30.4275 C14.56395,41.676 25.85895,53.5935 20.64195,57.171 C0.25395,71.1465 22.99245,76.059 10.12695,87.1935 C-9.00705,103.755 3.71745,130.806 24.36795,128.442 C45.75795,125.9925 36.34395,156.6885 73.03395,147.006 C93.70995,141.549 99.65445,136.797 114.22395,129.0405 C128.79495,121.2825 136.81695,82.4535 118.12995,63.9795 C106.50795,52.281 95.74095,53.7465 88.92195,33.9435 C82.10145,14.139 75.72645,2.0625 65.87895,3.969 C62.13345,-1.0965 52.03545,1.2105 52.03545,1.2105" id="Fill-12" fill="#253368" mask="url(#mask-2)"></path>
        </g>
        <path d="M299.51355,407.9722 C299.39805,407.5537 298.81155,407.5462 298.68255,407.9602 C297.54855,411.6247 294.86205,421.5022 298.72155,421.8742 C303.07155,422.2927 300.56505,411.7912 299.51355,407.9722" id="Fill-14" fill="#FFFFFF"></path>
        <path d="M337.48155,436.85605 C335.74905,421.82455 334.10355,409.54405 334.10355,409.54405 L310.94655,422.61355 L312.31305,440.93005 C313.36905,447.67255 319.79505,452.20255 326.50155,450.93055 C333.59205,449.58355 338.30805,444.02455 337.48155,436.85605" id="Fill-16" fill="#F4B784"></path>
        <path d="M322.37895,383.1505 C322.37895,383.1505 319.81095,376.357 315.15345,379.651 C311.82195,382.0045 312.70995,380.071 311.95995,378.241 C309.17445,371.4385 308.24295,388.189 297.45195,391.6975 C297.27195,400.228 296.80395,427.4965 315.23595,428.5585 C322.40745,428.9725 331.59195,423.8665 334.75245,414.1465 C336.81345,407.8105 335.09745,401.4325 332.58345,400.1605 C324.30045,395.974 324.45495,391.6555 322.37895,383.1505" id="Fill-18" fill="#FFC999"></path>
        <path d="M306.075477,390.435441 C306.343196,390.335025 306.638557,390.447045 306.77629,390.687306 L306.816109,390.772027 L308.505109,395.275027 L308.538484,395.415834 L308.580055,395.923852 C308.58633,396.017362 308.592755,396.121049 308.599162,396.234754 C308.759615,399.082686 308.638691,402.765491 308.040912,407.100822 L307.951,407.73 L308.339739,407.758401 C309.172727,407.825973 309.950769,407.928121 310.671563,408.057793 L311.097151,408.138843 C311.511853,408.222282 311.884917,408.310761 312.215144,408.400558 L312.454764,408.468095 C312.691307,408.537221 312.855744,408.59241 312.945746,408.626402 C313.242957,408.738651 313.392898,409.070584 313.280648,409.367796 C313.168399,409.665007 312.836466,409.814948 312.539254,409.702698 L312.347082,409.637676 C312.286917,409.618613 312.215187,409.596703 312.132044,409.572406 C311.777294,409.468735 311.355901,409.36446 310.870216,409.266739 C309.810775,409.053577 308.605329,408.903125 307.263074,408.843738 C306.920835,408.828596 306.667599,408.519551 306.720026,408.181014 C307.430911,403.590654 307.606969,399.694243 307.470945,396.701895 L307.432437,396.005248 L307.401,395.609 L305.738891,391.176073 C305.638475,390.908354 305.750495,390.612993 305.990756,390.47526 L306.075477,390.435441 Z" id="Stroke-20" fill="#DD936F" fill-rule="nonzero"></path>
        <path d="M318.560015,411.183226 C318.955933,411.061483 319.375581,411.283746 319.497324,411.679665 C319.619067,412.075583 319.396804,412.495231 319.000885,412.616974 C318.716857,412.704311 318.427917,412.786918 318.134336,412.864912 C316.361269,413.335953 314.473351,413.627577 312.560604,413.775129 C311.416508,413.863387 310.40015,413.891205 309.575925,413.881995 L309.065128,413.870381 C308.651311,413.852254 308.330542,413.502095 308.348669,413.088278 C308.366796,412.674461 308.716955,412.353692 309.130772,412.371819 L309.310987,412.377261 C310.1357,412.396518 311.211814,412.374721 312.445235,412.279572 C314.272909,412.138582 316.072817,411.860553 317.749199,411.415199 C318.024348,411.342101 318.294717,411.264804 318.560015,411.183226 Z" id="Stroke-22" fill="#B53026" fill-rule="nonzero"></path>
        <path d="M297.871516,391.271526 C299.870651,389.91532 302.668874,389.525506 306.308812,390.631601 C306.705131,390.752033 306.928782,391.170943 306.808349,391.567262 C306.687917,391.963581 306.269007,392.187232 305.872688,392.066799 C302.660017,391.090541 300.332157,391.41483 298.71362,392.512841 C298.172193,392.880143 297.848131,393.234742 297.718233,393.439696 C297.496493,393.789559 297.033117,393.893423 296.683254,393.671683 C296.333391,393.449943 296.229527,392.986567 296.451267,392.636704 C296.684536,392.26865 297.145968,391.763736 297.871516,391.271526 Z" id="Stroke-24" fill="#253368" fill-rule="nonzero"></path>
        <path d="M321.533007,388.648878 C322.672193,388.617406 323.712437,388.686284 324.633782,388.872044 C325.039824,388.95391 325.302622,389.349439 325.220756,389.755482 C325.13889,390.161524 324.743361,390.424322 324.337318,390.342456 C323.538203,390.181339 322.608048,390.11975 321.574431,390.148306 C320.245317,390.185025 318.812168,390.366888 317.367803,390.647405 C316.938633,390.730756 316.530938,390.818558 316.151125,390.907395 L315.52285,391.0615 C315.370077,391.100841 315.256491,391.131731 315.186549,391.151762 C314.788345,391.265808 314.373084,391.035453 314.259038,390.637249 C314.144992,390.239045 314.375347,389.823784 314.773551,389.709738 L315.144629,389.609966 L315.420772,389.540308 C315.925044,389.415613 316.483595,389.291103 317.081824,389.174918 C318.600744,388.879922 320.112117,388.688132 321.533007,388.648878 Z" id="Stroke-26" fill="#253368" fill-rule="nonzero"></path>
        <path d="M314.860705,416.934821 C315.178257,416.925075 315.443584,417.174602 315.453329,417.492155 C315.4621,417.777952 315.26086,418.021446 314.989029,418.074392 L314.895995,418.084779 L312.891995,418.146279 C312.574443,418.156025 312.309116,417.906498 312.299371,417.588945 C312.2906,417.303148 312.49184,417.059654 312.763671,417.006708 L312.856705,416.996321 L314.860705,416.934821 Z" id="Stroke-28" fill="#DD936F" fill-rule="nonzero"></path>
        <path d="M345.30885,404.27785 C346.71885,397.04935 339.80835,397.60735 339.80835,397.60735 C339.80835,397.60735 339.79785,404.78635 338.02785,411.23635 C344.95785,410.90635 345.30885,404.27785 345.30885,404.27785" id="Fill-30" fill="#FFC999"></path>
        <path d="M341.4894,409.39315 C341.3739,408.97465 340.7874,408.96565 340.6584,409.37965 C339.5259,413.04415 336.8394,422.92315 340.6974,423.29365 C345.0474,423.71365 342.5409,413.21215 341.4894,409.39315" id="Fill-32" fill="#FFFFFF"></path>
        <path d="M302.520059,396.861661 C304.125653,396.682789 305.496151,398.20356 305.711047,400.145039 C305.756617,400.556738 305.459811,400.927428 305.048111,400.972997 C304.636412,401.018567 304.265722,400.721761 304.220153,400.310061 C304.086917,399.106347 303.34169,398.279407 302.685057,398.352559 C302.027851,398.424808 301.481634,399.394408 301.615978,400.598914 C301.661893,401.010575 301.365397,401.381514 300.953736,401.427428 C300.542075,401.473343 300.171136,401.176847 300.125222,400.765186 C299.908529,398.822362 300.913586,397.038266 302.520059,396.861661 Z" id="Stroke-34" fill="#253368" fill-rule="nonzero"></path>
        <path d="M319.210957,395.290258 C321.011563,395.024168 322.652725,396.549615 322.957552,398.613623 C323.01807,399.023392 322.734945,399.404635 322.325177,399.465152 C321.915408,399.52567 321.534165,399.242545 321.473648,398.832777 C321.280495,397.524925 320.32975,396.641215 319.430243,396.774142 C318.530561,396.907095 317.875598,398.027507 318.067647,399.33577 C318.127808,399.745591 317.844352,400.126587 317.43453,400.186747 C317.024709,400.246908 316.643713,399.963452 316.583553,399.55363 C316.280573,397.489697 317.410796,395.556281 319.210957,395.290258 Z" id="Stroke-36" fill="#253368" fill-rule="nonzero"></path>
        <path d="M272.9574,538.27 C272.9574,538.27 274.5189,487.738 275.6109,478.003 C278.2479,454.489 291.4419,449.248 301.4184,458.827 C313.4439,470.3725 299.1219,541.0165 299.1219,541.0165 C299.1219,541.0165 297.3009,550.432 285.9984,550.6075 C272.6394,550.8145 272.9574,538.27 272.9574,538.27" id="Fill-38" fill="#FFC999"></path>
        <path d="M273.3822,501.9874 C273.7047,496.9174 269.8182,451.5844 291.0567,451.4104 C307.5762,451.2754 303.6687,472.8694 298.9332,509.1199 L273.3822,501.9874 Z" id="Fill-40" fill="#597EF7"></path>
        <path d="M351.03645,544.5382 C339.22545,547.4197 306.54495,546.0427 303.03645,544.5382 C299.52795,543.0352 301.44195,532.3042 301.44195,532.3042 C280.04295,477.6817 282.06345,459.5317 283.93845,455.4712 C286.47195,449.9812 309.17145,450.2932 310.02945,446.0077 C310.45095,443.8942 310.30245,436.5997 310.30245,436.5997 L339.55995,434.9737 C339.55995,434.9737 341.19195,443.0062 342.73845,445.5832 C345.74595,450.5962 364.22895,446.7097 371.83245,456.8467 C385.41945,474.9637 366.86145,506.0992 356.65095,528.7477 C356.65095,528.7477 357.28395,539.3932 351.03645,544.5382" id="Fill-42" fill="#597EF7"></path>
        <path d="M308.0301,620.80675 L283.0746,594.71275 C283.0746,594.71275 288.4566,565.61725 302.2836,552.94225 L351.6051,551.21275 C351.6051,551.21275 372.7686,565.95175 370.4676,601.65925 L332.6331,621.01225 L308.0301,620.80675 Z" id="Fill-44" fill="#E4EBF7"></path>
        <polygon id="Fill-46" fill="#E4EBF7" points="352.75845 551.78905 302.28495 552.94255 303.53895 545.21755 351.08895 543.78205"></polygon>
        <path d="M319.872957,552.958884 C320.181555,552.994621 320.402752,553.273759 320.367016,553.582357 C319.796117,558.512265 319.364087,563.870889 319.059998,569.592598 C318.377658,582.43147 318.366354,596.092888 318.775138,609.098432 L318.851587,611.386419 C318.918459,613.27608 318.989572,615.00042 319.061148,616.537247 L319.195287,619.175742 C319.213461,619.48587 318.976786,619.752012 318.666658,619.770187 C318.35653,619.788361 318.090388,619.551686 318.072213,619.241558 L318.01291,618.139153 L317.91049,616.003121 C317.856797,614.812479 317.803642,613.517874 317.752618,612.128656 L317.72729,611.426207 C317.241973,597.712341 317.212084,583.165029 317.936584,569.532893 C318.241846,563.789102 318.675723,558.407566 319.249484,553.452943 C319.281647,553.175205 319.510965,552.968261 319.781475,552.955702 L319.872957,552.958884 Z" id="Stroke-48" fill="#A3B5D6" fill-rule="nonzero"></path>
        <path d="M352.612276,551.626536 C352.922889,551.62111 353.179089,551.868514 353.184602,552.179126 C353.189397,552.458678 352.989489,552.694155 352.723021,552.74241 L352.631924,552.751364 L303.166424,553.615364 C302.855811,553.62079 302.599611,553.373386 302.594098,553.062774 C302.589303,552.783222 302.789211,552.547745 303.055679,552.49949 L303.146776,552.490536 L352.612276,551.626536 Z" id="Stroke-50" fill="#A3B5D6" fill-rule="nonzero"></path>
        <path d="M303.40485,695.6866 C303.32385,695.3236 326.65335,784.4941 328.85835,790.7296 C334.87935,807.7471 337.66185,809.3896 330.18435,817.1251 C328.26885,819.1051 324.29385,819.0451 322.07985,824.4976 C316.01835,839.4166 303.55785,851.0656 299.38485,845.2096 C296.01735,839.5321 312.89385,811.6456 310.79235,798.1891 C308.60985,784.2106 255.85935,688.6021 262.21485,677.9866 C268.57035,667.3711 274.90635,625.2661 303.40485,695.6866" id="Fill-52" fill="#FFC999"></path>
        <g id="分组" transform="translate(291.000000, 795.313000)">
            <mask id="mask-4" fill="white">
                <use xlink:href="#path-3"></use>
            </mask>
            <g id="Clip-55"></g>
            <path d="M45.8157,21.9219 C45.8157,21.9219 45.4902,11.6334 39.5772,0.9939 C39.5772,0.9939 34.4022,10.7094 30.4437,20.7444 C25.8732,32.3289 24.1587,33.4464 24.1587,33.4464 C15.5232,39.9204 11.3532,35.1414 11.3532,35.1414 C11.3532,35.1414 8.4852,43.8354 1.1157,54.7254 C-5.4843,64.4754 29.7192,53.4534 31.3482,42.9894 C32.9787,32.5269 37.4172,25.1724 37.4172,25.1724 L44.8722,37.4949 L48.1467,36.2229 L45.8157,21.9219 Z" id="Fill-54" fill="#253368" mask="url(#mask-4)"></path>
        </g>
        <path d="M225.50295,624.95665 L268.96545,776.98165 L322.76745,761.74765 C322.76745,761.74765 302.12745,678.74065 279.99195,609.98515 C279.99195,609.98515 270.89295,573.35665 242.32245,581.82865 C213.75195,590.30065 225.50295,624.95665 225.50295,624.95665" id="Fill-56" fill="#E4EBF7"></path>
        <path d="M253.8309,579.25495 C313.7034,570.44995 332.4744,570.56095 346.4364,573.72595 C346.4364,573.72595 375.3909,578.85145 370.4874,601.16095 C364.5009,628.38595 333.5199,629.53945 333.5199,629.53945 L258.8679,637.93795 C250.9029,638.83045 222.4914,640.70545 222.4914,611.65045 C222.4914,582.51145 252.5274,579.44695 253.8309,579.25495" id="Fill-58" fill="#E4EBF7"></path>
        <path d="M353.7765,528.7003 C353.7765,528.7003 344.151,485.2933 344.5215,475.1488 C345.4125,450.6463 362.5305,448.1758 371.2695,459.0988 C378.027,467.5453 382.2495,531.3193 382.2495,531.3193 C382.2495,531.3193 379.6755,542.2288 368.4135,543.3553 C355.101,544.6843 353.7765,528.7003 353.7765,528.7003" id="Fill-60" fill="#FFC999"></path>
        <path d="M361.4142,450.652 C373.2552,453.097 377.7972,464.785 378.8712,497.9545 L347.6172,503.0215 C347.5467,497.941 327.0642,446.992 363.9042,451.1305" id="Fill-62" fill="#597EF7"></path>
        <path d="M276.98355,551.0479 C276.98355,551.0479 351.68955,520.8034 361.59255,518.5729 C381.68505,514.0459 388.71255,537.7579 371.88555,544.7854 C350.22555,553.8319 280.73055,567.3004 280.73055,567.3004 L276.98355,551.0479 Z" id="Fill-64" fill="#FFC999"></path>
        <path d="M352.882033,456.894164 C353.166646,456.769642 353.498314,456.899421 353.622836,457.184033 C353.747358,457.468646 353.617579,457.800314 353.332967,457.924836 C350.840761,459.015211 348.820788,461.967529 347.274779,466.215858 C346.558862,468.183149 345.993028,470.295862 345.562392,472.409248 C345.44175,473.001311 345.33887,473.559362 345.252721,474.074215 L345.146665,474.740838 L345.088,475.154 L348.176562,502.959402 C348.207428,503.237287 348.030291,503.490339 347.769468,503.563172 L347.679598,503.580562 C347.401713,503.611428 347.148661,503.434291 347.075828,503.173468 L347.058438,503.083598 L343.962438,475.210598 L343.963254,475.079449 L344.033777,474.576197 L344.080016,474.276529 C344.179832,473.644821 344.305796,472.941619 344.460044,472.184627 C344.900985,470.020669 345.480724,467.856039 346.217604,465.831142 C347.859446,461.319471 350.03498,458.139789 352.882033,456.894164 Z" id="Stroke-66" fill="#1D39C4" fill-rule="nonzero"></path>
        <path d="M336.077706,447.095828 C336.388186,447.085227 336.648472,447.328327 336.659072,447.638806 C336.668613,447.918238 336.472656,448.157013 336.20703,448.209701 L336.116094,448.220172 L314.412594,448.961172 C314.102114,448.971773 313.841828,448.728673 313.831228,448.418194 C313.821687,448.138762 314.017644,447.899987 314.28327,447.847299 L314.374206,447.836828 L336.077706,447.095828 Z" id="Stroke-68" fill="#1D39C4" fill-rule="nonzero"></path>
        <path d="M290.424322,465.323416 C290.689568,465.235 290.974122,465.355173 291.099997,465.594942 L291.135834,465.679172 L292.824834,470.746172 C292.854858,470.836244 292.861437,470.931937 292.844682,471.024375 L292.820154,471.115399 L288.451407,483.179389 L288.370253,483.353569 C288.3355,483.432465 288.293516,483.532036 288.24571,483.651794 C288.0829,484.059642 287.919246,484.540582 287.765971,485.090741 C285.938899,491.648754 287.195697,499.717379 293.888655,508.557 C294.076183,508.804675 294.027425,509.157477 293.77975,509.345005 C293.532075,509.532533 293.179273,509.483775 292.991745,509.2361 C286.077831,500.104655 284.764418,491.672571 286.682244,484.788813 C286.846634,484.198757 287.023337,483.679469 287.200883,483.234707 L287.325256,482.93552 C287.360602,482.854431 287.388806,482.793761 287.406787,482.758841 L287.421246,482.732701 L291.695,470.916 L290.068566,466.034928 C289.98015,465.769682 290.100323,465.485128 290.340092,465.359253 L290.424322,465.323416 Z" id="Stroke-70" fill="#1D39C4" fill-rule="nonzero"></path>
        <path d="M335.217886,568.729894 C335.52623,568.692028 335.806889,568.911292 335.844756,569.219636 C335.878836,569.497145 335.704639,569.75223 335.444677,569.828077 L335.355014,569.846506 L249.855014,580.346506 C249.54667,580.384372 249.266011,580.165108 249.228144,579.856764 C249.194064,579.579255 249.368261,579.32417 249.628223,579.248323 L249.717886,579.229894 L335.217886,568.729894 Z" id="Stroke-72" fill="#A3B5D6" fill-rule="nonzero"></path>
        <polygon id="Fill-74" fill="#BAC9E5" points="247.6881 597.66355 335.1411 583.82005 248.4726 557.59105 176.4426 576.25255"></polygon>
        <polygon id="Fill-76" fill="#4E5C93" points="244.3914 591.56845 307.9059 581.51395 246.4584 562.34545 192.6459 576.01645"></polygon>
        <polygon id="Fill-78" fill="#253368" points="335.088 588.334 335.1585 583.8505 245.9055 597.2605 247.4175 602.0485"></polygon>
        <path d="M234.335066,566.337468 C234.397445,566.167324 234.570178,566.069615 234.742653,566.095605 L234.816232,566.114466 L284.800732,584.439966 C284.995182,584.511257 285.095024,584.726682 285.023734,584.921132 C284.961355,585.091276 284.788622,585.188985 284.616147,585.162995 L284.542568,585.144134 L234.558068,566.818634 C234.363618,566.747343 234.263776,566.531918 234.335066,566.337468 Z" id="Stroke-80" fill="#BAC9E5" fill-rule="nonzero"></path>
        <path d="M240.964455,563.68058 C241.023977,563.509416 241.195049,563.408829 241.367935,563.431928 L241.44182,563.449555 L297.33182,582.885055 C297.527436,582.95308 297.63087,583.166803 297.562845,583.36242 C297.503323,583.533584 297.332251,583.634171 297.159365,583.611072 L297.08548,583.593445 L241.19548,564.157945 C240.999864,564.08992 240.89643,563.876197 240.964455,563.68058 Z" id="Stroke-82" fill="#BAC9E5" fill-rule="nonzero"></path>
        <path d="M233.580594,570.881338 C233.645331,570.712077 233.819404,570.616778 233.991501,570.645162 L234.064812,570.665044 L276.040812,586.719544 C276.234253,586.793529 276.331091,587.010321 276.257106,587.203762 C276.192369,587.373023 276.018296,587.468322 275.846199,587.439938 L275.772888,587.420056 L233.796888,571.365556 C233.603447,571.291571 233.506609,571.074779 233.580594,570.881338 Z" id="Stroke-84" fill="#BAC9E5" fill-rule="nonzero"></path>
        <path d="M222.08009,572.029899 C222.144822,571.860636 222.318892,571.765331 222.49099,571.79371 L222.564301,571.81359 L264.540301,587.86659 C264.733744,587.940569 264.830589,588.157358 264.75661,588.350801 C264.691878,588.520064 264.517808,588.615369 264.34571,588.58699 L264.272399,588.56711 L222.296399,572.51411 C222.102956,572.440131 222.006111,572.223342 222.08009,572.029899 Z" id="Stroke-86" fill="#BAC9E5" fill-rule="nonzero"></path>
        <path d="M211.45844,573.837549 C211.523172,573.668286 211.697242,573.572981 211.86934,573.60136 L211.942651,573.62124 L253.918651,589.67424 C254.112094,589.748219 254.208939,589.965008 254.13496,590.158451 C254.070228,590.327714 253.896158,590.423019 253.72406,590.39464 L253.650749,590.37476 L211.674749,574.32176 C211.481306,574.247781 211.384461,574.030992 211.45844,573.837549 Z" id="Stroke-88" fill="#BAC9E5" fill-rule="nonzero"></path>
        <path d="M297.517927,578.761122 C297.723475,578.73576 297.910665,578.881829 297.936028,579.087377 C297.95822,579.267232 297.849159,579.433031 297.683846,579.488661 L297.609773,579.505478 L243.257273,586.211978 C243.051725,586.23734 242.864535,586.091271 242.839172,585.885723 C242.81698,585.705868 242.926041,585.540069 243.091354,585.484439 L243.165427,585.467622 L297.517927,578.761122 Z" id="Stroke-90" fill="#BAC9E5" fill-rule="nonzero"></path>
        <path d="M285.461527,574.510122 C285.667075,574.48476 285.854265,574.630829 285.879628,574.836377 C285.90182,575.016232 285.792759,575.182031 285.627446,575.237661 L285.553373,575.254478 L231.200873,581.960978 C230.995325,581.98634 230.808135,581.840271 230.782772,581.634723 C230.76058,581.454868 230.869641,581.289069 231.034954,581.233439 L231.109027,581.216622 L285.461527,574.510122 Z" id="Stroke-92" fill="#BAC9E5" fill-rule="nonzero"></path>
        <path d="M270.517177,571.674222 C270.722725,571.64886 270.909915,571.794929 270.935278,572.000477 C270.95747,572.180332 270.848409,572.346131 270.683096,572.401761 L270.609023,572.418578 L216.256523,579.125078 C216.050975,579.15044 215.863785,579.004371 215.838422,578.798823 C215.81623,578.618968 215.925291,578.453169 216.090604,578.397539 L216.164677,578.380722 L270.517177,571.674222 Z" id="Stroke-94" fill="#BAC9E5" fill-rule="nonzero"></path>
        <path d="M260.408977,564.152322 C260.614525,564.12696 260.801715,564.273029 260.827078,564.478577 C260.84927,564.658432 260.740209,564.824231 260.574896,564.879861 L260.500823,564.896678 L206.148323,571.603178 C205.942775,571.62854 205.755585,571.482471 205.730222,571.276923 C205.70803,571.097068 205.817091,570.931269 205.982404,570.875639 L206.056477,570.858822 L260.408977,564.152322 Z" id="Stroke-96" fill="#BAC9E5" fill-rule="nonzero"></path>
        <polygon id="Fill-98" fill="#253368" points="247.3467 602.0509 243.4167 602.3929 175.9887 581.2084 148.7382 467.2219 221.3637 481.7209"></polygon>
        <path d="M243.27675,602.3995 L172.17075,580.093 C171.52125,579.889 171.02625,579.3595 170.86725,578.6965 L144.55425,469.153 C144.22425,467.776 145.43325,466.5205 146.82075,466.801 L215.71125,480.6505 C216.46575,480.802 217.05975,481.387 217.22325,482.14 L243.27675,602.3995 Z" id="Fill-100" fill="#4E5C93"></path>
        <path d="M285.18735,564.44245 C283.04535,572.44345 265.22385,569.72695 265.22385,569.72695 L256.48785,576.83995 C255.10485,577.79395 254.51085,576.86245 253.75785,577.03495 C251.72835,577.49545 251.24235,575.36395 251.24235,575.36395 C250.46835,575.19145 249.46185,575.98345 248.71935,574.12495 C248.71935,574.12495 247.27485,574.34695 246.78135,572.64445 C246.59685,572.01145 249.38535,563.44345 251.05035,558.42895 C251.78235,556.22695 253.68585,554.62795 255.98085,554.28295 L277.30785,551.07145 C277.30785,551.07145 288.07035,553.67695 285.18735,564.44245" id="Fill-102" fill="#FFC999"></path>
        <path d="M266.495054,564.053831 C266.787224,563.929045 267.125233,564.064735 267.250019,564.356904 C267.362327,564.619857 267.263648,564.919939 267.029798,565.068296 L266.946946,565.111869 L260.673,567.79 L254.397411,576.43044 C254.231436,576.65892 253.928756,576.729346 253.683015,576.611035 L253.59391,576.557761 C253.36543,576.391786 253.295004,576.089106 253.413315,575.843365 L253.466589,575.75426 L259.835589,566.98676 C259.876324,566.930685 259.926682,566.882668 259.984056,566.844788 L260.075054,566.795831 L266.495054,564.053831 Z" id="Stroke-104" fill="#DD936F" fill-rule="nonzero"></path>
        <path d="M262.202867,561.416573 C262.479687,561.260672 262.830477,561.358697 262.986377,561.635517 C263.126688,561.884655 263.061319,562.193709 262.84504,562.366679 L262.767433,562.419027 L257.006,565.663 L251.893551,574.606802 C251.751641,574.855032 251.452805,574.957426 251.193391,574.860475 L251.108648,574.820701 C250.860418,574.678791 250.758024,574.379955 250.854975,574.120541 L250.894749,574.035798 L256.086249,564.954798 C256.120625,564.894668 256.16543,564.841492 256.218302,564.797617 L256.303367,564.739073 L262.202867,561.416573 Z" id="Stroke-106" fill="#DD936F" fill-rule="nonzero"></path>
        <path d="M258.039826,558.981471 C258.288977,558.784347 258.650755,558.826524 258.847879,559.075676 C259.0231,559.297144 259.009244,559.607601 258.829015,559.812303 L258.753674,559.883729 L254.876,562.951 L250.209611,572.552595 C250.084604,572.809753 249.793278,572.931885 249.527965,572.852484 L249.440755,572.818461 C249.183597,572.693454 249.061465,572.402128 249.140866,572.136815 L249.174889,572.049605 L253.899889,562.329605 C253.925087,562.277768 253.957859,562.230162 253.996996,562.18829 L254.060326,562.129971 L258.039826,558.981471 Z" id="Stroke-108" fill="#DD936F" fill-rule="nonzero"></path>
    </g>
</svg>