<svg xmlns="http://www.w3.org/2000/svg" xmlns:xlink="http://www.w3.org/1999/xlink" width="512" height="1024" version="1.1" viewBox="0 0 512 1024"><title>2.人物组件/2.保安/摆手/欢呼</title><desc>Created with Sketch.</desc><defs><polygon id="path-1" points="0 .513 45.879 .513 45.879 92.058 0 92.058"/></defs><g id="2.人物组件/2.保安/摆手/欢呼" fill="none" fill-rule="evenodd" stroke="none" stroke-width="1"><path id="Fill-1" fill="#4E5C93" d="M169.8868,712.8553 L169.8868,712.8553 C154.7533,711.4333 144.8908,698.5273 145.5688,683.3413 L152.2453,533.9458 C153.1603,513.4828 168.0223,497.6668 188.4163,499.5808 L188.4178,499.5808 C208.8103,501.4978 223.4533,520.0858 220.5418,540.3613 L202.2628,688.6678 C200.1013,703.7143 185.0203,714.2773 169.8868,712.8553"/><path id="Fill-3" fill="#4E5C93" d="M292.45315,780.61975 L262.47715,807.75625 C247.11865,808.57225 241.93615,790.85575 241.93615,790.85575 L154.55665,706.40425 C143.21965,694.85875 142.65565,677.20525 154.65265,666.34525 C166.64815,655.48525 186.38365,655.78375 196.74715,668.21125 L277.91965,761.04475 C277.91965,761.04475 295.56265,765.82675 292.45315,780.61975"/><path id="Fill-5" fill="#253368" d="M297.1018,876.36625 L325.4818,821.72425 L292.1743,781.10725 L263.5888,806.98525 L289.7698,834.94675 L291.4423,875.10775 C291.5698,878.17975 295.6843,879.09325 297.1018,876.36625"/><path id="Fill-7" fill="#4E5C93" d="M286.5733,695.13145 L286.5733,695.13145 C271.7968,698.69545 258.5683,690.87745 254.6488,677.80645 L216.0928,549.22045 C210.8113,531.60745 220.1518,513.53395 240.0643,508.72945 C259.9768,503.92645 279.4468,515.05045 282.7768,533.13445 L310.0048,664.45345 C312.4753,677.87245 301.3498,691.56745 286.5733,695.13145"/><path id="Fill-9" fill="#4E5C93" d="M380.86015,600.3319 L396.26365,637.7164 C393.48715,651.7684 377.88265,649.4929 377.88265,649.4929 L289.45465,694.6924 C277.50265,700.3264 262.98415,693.9454 256.81915,678.9844 C250.65565,664.0219 255.32065,646.4929 267.77365,642.0724 L361.64515,605.6929 C361.64515,605.6929 369.49765,591.7819 380.86015,600.3319"/><path id="Fill-11" fill="#253368" d="M456.3451,620.9986 L421.5571,582.2191 L381.1951,600.7711 L395.8846,636.4216 L424.3321,619.3066 L453.2026,628.6111 C457.2346,629.9101 459.4726,624.4846 456.3451,620.9986"/><path id="Fill-13" fill="#FFC2BD" d="M190.8787,240.51205 C190.8787,240.51205 185.8417,224.11255 178.4257,231.12805 C171.0082,238.14205 178.2292,254.94355 187.0717,255.92755 C195.9157,256.91155 190.8787,240.51205 190.8787,240.51205"/><path id="Stroke-15" fill="#D18682" fill-rule="nonzero" d="M180.110911,237.712477 C180.069678,238.018282 179.809641,238.255907 179.491853,238.260046 C179.174066,238.264186 178.907927,238.033415 178.858744,237.728787 L178.850662,237.635345 C178.848227,237.27105 178.898104,236.792951 179.055541,236.304156 C179.539931,234.800274 180.80682,234.223017 182.632227,235.256876 C185.422016,236.837757 185.402084,239.056048 183.800433,242.913917 C182.920109,245.0384 183.496032,246.395503 185.482337,247.111618 C185.811212,247.230186 185.9817,247.592911 185.863132,247.921787 C185.744564,248.250662 185.381839,248.42115 185.052963,248.302582 C182.453248,247.365316 181.528628,245.330677 182.539628,242.659402 L182.848356,241.890416 C184.006892,238.927053 183.91386,237.43827 182.008196,236.358394 C180.912102,235.737597 180.508901,235.921315 180.260576,236.69229 C180.170296,236.972582 180.129398,237.267094 180.119176,237.493527 L180.116574,237.620558 L180.110911,237.712477 Z"/><path id="Fill-17" fill="#FFC2BD" d="M242.82355,243.54055 C242.82355,243.54055 249.73255,227.83705 256.28305,235.66555 C262.83355,243.49555 253.71055,259.34305 244.81255,259.293666 C235.91455,259.24255 242.82355,243.54055 242.82355,243.54055"/><path id="Stroke-19" fill="#D18682" fill-rule="nonzero" d="M251.624925,239.279617 C253.509524,238.484639 254.70115,239.151108 255.036946,240.647567 C255.13412,241.080616 255.149391,241.523218 255.119049,241.926879 L255.104156,242.080545 C255.059037,242.427218 254.741427,242.671675 254.394755,242.626556 C254.079598,242.585539 253.848916,242.319322 253.843478,242.010798 L253.856611,241.831986 C253.878382,241.542348 253.867141,241.216549 253.801664,240.924757 C253.634224,240.178567 253.254553,239.96622 252.116975,240.446083 C249.978809,241.348023 249.806945,242.939437 250.792332,246.403785 C251.616006,249.301649 250.473014,251.306848 247.704059,251.954228 C247.363643,252.033817 247.023161,251.822375 246.943572,251.481959 C246.863983,251.141543 247.075425,250.801061 247.415841,250.721472 C249.404538,250.256516 250.152713,249.044757 249.632898,246.967961 L249.42418,246.200897 C248.459407,242.527796 248.806917,240.468334 251.624925,239.279617 Z"/><path id="Fill-21" fill="#FFC2BD" d="M187.5367,291.09385 L189.3652,260.74735 C190.2502,246.08185 202.8397,234.90085 217.5067,235.75435 C231.8287,236.58985 242.9182,248.61835 242.5882,262.96135 L241.8892,293.37385 C241.5442,308.43835 228.7822,320.21785 213.7372,319.35685 L212.6062,319.29235 C197.8867,318.45085 186.6502,305.81185 187.5367,291.09385"/><path id="Fill-23" fill="#FFC2BD" d="M246.9712,241.5865 C246.5482,247.705 245.9767,256.3945 244.2787,262.3705 C243.2137,266.1175 236.2117,273.7465 228.9472,278.611 C225.1897,281.128 221.0917,281.1145 215.7052,280.801 C211.5367,280.5565 206.6227,279.8365 202.5592,277.708 C196.1902,274.369 188.0302,262.054 187.5457,259.4875 C186.5017,253.9675 185.7787,245.998 186.2857,238.7545 C188.6422,205.1545 202.4392,200.0695 219.3967,201.058 C236.3557,202.0465 249.2782,208.1965 246.9712,241.5865"/><path id="Fill-25" fill="#253368" d="M246.28135,244.7227 C246.29035,245.0257 246.73435,245.0542 246.76885,244.7527 C247.56985,237.9022 249.32785,221.8087 248.86735,216.3142 C248.49385,211.8502 244.65835,205.0687 239.96785,198.4492 C235.27735,191.8297 231.25885,191.8072 229.79785,195.1072 C228.64285,193.1362 220.14385,182.9107 217.41685,186.1357 C214.68985,189.3607 205.47985,194.9587 205.47985,194.9587 C205.47985,194.9587 204.85735,191.1142 202.13185,194.3407 C199.40635,197.5657 192.61135,203.6692 189.93685,207.5902 C186.09385,213.2227 186.06385,232.1782 186.21835,239.8567 C186.22585,240.1867 186.70435,240.2182 186.75385,239.8927 C187.42285,235.5907 188.86285,228.2722 191.18635,226.0657 C193.65235,223.6717 192.51985,212.2237 195.44335,211.0837 C200.63935,209.0602 232.90735,210.3067 239.68135,213.8752 C242.72185,215.4772 241.21585,226.7527 242.83585,229.0762 C245.85385,233.4097 246.08635,238.6582 246.28135,244.7227"/><path id="Stroke-27" fill="#253368" fill-rule="nonzero" d="M199.496751,228.797851 L199.625085,228.805525 L210.779085,230.043025 C211.474425,230.120171 211.975571,230.746394 211.898425,231.441735 C211.826101,232.093616 211.271189,232.574819 210.629164,232.568857 L210.499715,232.561075 L199.604,231.352 L195.916343,232.473534 C195.288818,232.664302 194.6277,232.344292 194.379845,231.752009 L194.335916,231.629993 C194.145148,231.002468 194.465158,230.34135 195.057441,230.093495 L195.179457,230.049566 L199.116957,228.852566 C199.24028,228.815076 199.368358,228.7967 199.496751,228.797851 Z"/><path id="Stroke-29" fill="#253368" fill-rule="nonzero" d="M224.564257,230.8473 L236.495257,230.9538 C236.623265,230.954943 236.75011,230.975479 236.87152,231.014496 L236.99096,231.05964 L240.76196,232.70664 C241.403086,232.986654 241.695824,233.733385 241.41581,234.37451 C241.153297,234.975565 240.480583,235.270421 239.869248,235.074205 L239.74794,235.02836 L236.213,233.485 L224.541643,233.3807 C223.885788,233.374845 223.3508,232.871584 223.291634,232.232264 L223.28625,232.102693 C223.292105,231.446838 223.795366,230.91185 224.434686,230.852684 L224.564257,230.8473 Z"/><path id="Stroke-31" fill="#253368" fill-rule="nonzero" d="M204.164787,235.993709 C206.255098,236.114501 207.68565,238.386383 207.53424,240.962155 C207.50585,241.445122 207.091313,241.81363 206.608345,241.78524 C206.125378,241.75685 205.75687,241.342313 205.78526,240.859345 C205.885852,239.148072 205.036371,237.798997 204.06286,237.742741 C203.090042,237.685573 202.089677,238.926178 201.990276,240.637545 C201.962223,241.120532 201.547943,241.489329 201.064955,241.461276 C200.581968,241.433223 200.213171,241.018943 200.241224,240.535955 C200.386429,238.035975 201.977759,235.994252 203.981519,235.988572 L204.164787,235.993709 Z"/><path id="Stroke-33" fill="#253368" fill-rule="nonzero" d="M229.72939,237.482809 C231.819067,237.60561 233.249405,239.877152 233.097988,242.45124 C233.069579,242.934207 232.655026,243.302698 232.17206,243.274288 C231.689093,243.245879 231.320602,242.831326 231.349012,242.34836 C231.449597,240.638403 230.599901,239.288988 229.627463,239.231841 C228.653963,239.175586 227.653425,240.41675 227.554026,242.128095 C227.525973,242.611082 227.111693,242.979879 226.628705,242.951826 C226.145718,242.923773 225.776921,242.509493 225.804974,242.026505 C225.950152,239.526989 227.54101,237.485315 229.546006,237.47784 L229.72939,237.482809 Z"/><path id="Fill-35" fill="#EFADAB" d="M186.36115,247.14925 C186.36115,247.14925 194.18815,251.61925 198.07315,258.51475 C203.28565,251.34325 210.44965,249.39925 210.44965,249.39925 C210.44965,249.39925 214.18615,253.03675 217.66765,253.80475 C218.93665,252.44875 222.68365,250.00675 222.68365,250.00675 C222.68365,250.00675 231.47215,253.86325 235.59415,260.77225 C237.76915,256.13575 245.86615,251.46325 245.86615,251.46325 C245.86615,251.46325 246.44965,258.14575 243.70315,264.98125 C240.34015,273.35575 231.14065,282.12325 217.05115,281.30275 C200.36215,280.32925 189.67915,272.65375 187.69165,261.82225 C187.28365,258.43975 186.20665,249.78475 186.36115,247.14925"/><path id="Stroke-37" fill="#D18682" fill-rule="nonzero" d="M191.824205,269.672421 C192.063415,269.474209 192.418016,269.507444 192.616229,269.746655 C193.488654,270.799531 194.433755,271.792965 195.44074,272.727926 C197.414762,274.560757 199.531286,276.088323 201.647112,277.323766 C202.263437,277.683642 202.842529,277.996524 203.373991,278.263426 L203.687069,278.418059 C204.052592,278.595504 204.310792,278.710682 204.43818,278.763151 L204.699379,278.860142 C204.885208,278.925764 205.138648,279.010071 205.458423,279.108672 C206.319666,279.374232 207.340316,279.640444 208.515166,279.889339 C213.297674,280.902525 219.03877,281.326374 225.585111,280.828828 C230.640727,279.925038 235.019761,276.867183 238.699137,272.405664 C238.896792,272.165993 239.251314,272.131932 239.490986,272.329587 C239.730657,272.527242 239.764718,272.881764 239.567063,273.121436 C235.732604,277.771004 231.138799,280.978834 225.726972,281.943414 C219.014793,282.456489 213.166655,282.024737 208.282007,280.989912 C207.073557,280.733899 206.020131,280.459138 205.126935,280.183725 C204.89104,280.110988 204.678776,280.041976 204.490419,279.977643 L204.131623,279.850245 L204.015492,279.805708 C203.861795,279.742443 203.582598,279.617899 203.195763,279.430108 C202.556228,279.119641 201.844967,278.742036 201.079843,278.295276 C198.896485,277.020401 196.713825,275.445102 194.675275,273.552359 C193.633259,272.584872 192.654457,271.556013 191.749971,270.464445 C191.551759,270.225235 191.584994,269.870634 191.824205,269.672421 Z"/><path id="Stroke-39" fill="#D18682" fill-rule="nonzero" d="M213.595845,233.630734 C213.966385,233.547857 214.334201,233.754714 214.46257,234.101123 L214.491466,234.198945 L215.497966,238.698945 C215.53007,238.842479 215.519261,238.992285 215.466886,239.129724 L214.895188,240.655121 C214.609052,241.426972 214.322929,242.209987 214.04536,242.983603 L213.509621,244.496584 L213.031808,245.889072 C212.623241,247.102939 212.305983,248.115676 212.100623,248.874469 L212.033,249.13 L216.917,252.69 L221.530612,250.051159 C221.860183,249.862608 222.272667,249.951688 222.497561,250.244776 L222.554041,250.329712 C222.742592,250.659283 222.653512,251.071767 222.360424,251.296661 L222.275488,251.353141 L217.241488,254.233141 C217.017025,254.361559 216.744884,254.364156 216.520349,254.246184 L216.427312,254.188259 L210.746812,250.048259 C210.507491,249.873839 210.393209,249.574927 210.455127,249.285335 C210.670656,248.277305 211.200968,246.578752 211.968581,244.361395 L212.221402,243.636884 C212.624815,242.489473 213.056782,241.298883 213.488722,240.133725 L213.985,238.806 L213.027634,234.526355 C212.944757,234.155815 213.151614,233.787999 213.498023,233.65963 L213.595845,233.630734 Z"/><path id="Fill-41" fill="#FFF" d="M226.1836,256.51255 C216.3301,256.22005 207.0631,254.89105 207.0631,254.89105 C207.0631,254.89105 209.0071,260.87005 216.3151,261.29605 C223.6231,261.72205 226.1836,256.51255 226.1836,256.51255"/><path id="Stroke-43" fill="#D18682" fill-rule="nonzero" d="M206.099504,255.204352 C206.403612,256.139673 207.113752,257.473587 208.371692,258.802151 C210.285093,260.822975 212.894407,262.11162 216.256135,262.307583 C219.826893,262.51573 222.671967,261.506096 224.822302,259.690965 C226.008707,258.689501 226.74027,257.677043 227.092947,256.959499 C227.41811,256.297935 226.950496,255.521619 226.213665,255.499746 C222.393938,255.386358 218.393636,255.110461 214.397191,254.721558 L213.01373,254.582344 C212.108008,254.48818 211.236465,254.391576 210.405135,254.294172 L208.556253,254.068072 L207.206941,253.888062 C206.464336,253.781563 205.867538,254.490913 206.099504,255.204352 Z M208.935977,256.287189 L208.842,256.146 L210.168844,256.306849 C211.428752,256.454472 212.779514,256.600211 214.200915,256.738531 L215.715354,256.880467 C218.23869,257.107791 220.755431,257.288112 223.221462,257.409223 L224.239,257.454 L224.03865,257.662793 C223.875216,257.825391 223.700781,257.985705 223.51514,258.142407 C221.751224,259.631357 219.411695,260.461588 216.374065,260.284517 C213.545011,260.119605 211.412872,259.066619 209.843222,257.408845 C209.500586,257.046973 209.198883,256.670074 208.935977,256.287189 Z"/><path id="Stroke-45" fill="#D18682" fill-rule="nonzero" d="M213.847113,265.508719 L219.538113,265.840219 C219.951626,265.864306 220.267318,266.219051 220.243231,266.632563 C220.221151,267.011617 219.921227,267.308473 219.552883,267.336764 L219.450887,267.337681 L213.759887,267.006181 C213.346374,266.982094 213.030682,266.627349 213.054769,266.213837 C213.076849,265.834783 213.376773,265.537927 213.745117,265.509636 L213.847113,265.508719 Z"/><path id="Stroke-47" fill="#D18682" fill-rule="nonzero" d="M216.092723,274.149167 C216.471777,274.171226 216.76865,274.471134 216.796961,274.839477 L216.797883,274.941473 L216.454383,280.843973 C216.430318,281.257487 216.075591,281.573198 215.662077,281.549133 C215.283023,281.527074 214.98615,281.227166 214.957839,280.858823 L214.956917,280.756827 L215.300417,274.854327 C215.324482,274.440813 215.679209,274.125102 216.092723,274.149167 Z"/><path id="Fill-49" fill="#D18682" d="M209.81185,265.7908 C209.73985,266.1103 209.42035,266.3113 209.10085,266.2393 C208.78135,266.1658 208.58035,265.8493 208.65235,265.5283 C208.72435,265.2088 209.04235,265.0078 209.36335,265.0798 C209.68435,265.1533 209.88385,265.4713 209.81185,265.7908"/><path id="Fill-51" fill="#D18682" d="M204.69655,265.8772 C204.62455,266.1967 204.30655,266.3977 203.98555,266.3257 C203.66605,266.2522 203.46505,265.9357 203.53705,265.6147 C203.60905,265.2952 203.92855,265.0942 204.24805,265.1662 C204.56905,265.2382 204.76855,265.5577 204.69655,265.8772"/><path id="Fill-53" fill="#D18682" d="M233.28085,269.48965 C233.37685,269.80315 233.20135,270.13615 232.88785,270.23215 C232.57435,270.32965 232.24135,270.15265 232.14535,269.83915 C232.04785,269.52565 232.22485,269.19265 232.53835,269.09665 C232.85185,268.99915 233.18485,269.17615 233.28085,269.48965"/><path id="Fill-55" fill="#D18682" d="M239.0149,266.9773 C239.1109,267.2908 238.9354,267.6238 238.6219,267.7198 C238.3069,267.8173 237.9754,267.6403 237.8794,267.3268 C237.7819,267.0118 237.9589,266.6803 238.2724,266.5843 C238.5859,266.4868 238.9189,266.6638 239.0149,266.9773"/><path id="Fill-57" fill="#D18682" d="M228.3472,270.9361 C228.4432,271.2496 228.2677,271.5826 227.9542,271.6786 C227.6407,271.7761 227.3077,271.5991 227.2117,271.2856 C227.1142,270.9706 227.2912,270.6391 227.6047,270.5431 C227.9182,270.4456 228.2512,270.6226 228.3472,270.9361"/><path id="Fill-59" fill="#D18682" d="M222.8578,272.97805 C222.9538,273.29155 222.7783,273.62455 222.4648,273.72055 C222.1498,273.81655 221.8183,273.64105 221.7223,273.32605 C221.6248,273.01255 221.8018,272.68105 222.1153,272.58355 C222.4288,272.48755 222.7618,272.66455 222.8578,272.97805"/><path id="Fill-61" fill="#D18682" d="M197.92675,263.03395 C198.02275,263.34745 197.84725,263.68045 197.53375,263.77645 C197.21875,263.87395 196.88725,263.69695 196.79125,263.38345 C196.69375,263.06845 196.87075,262.73695 197.18425,262.64095 C197.49775,262.54345 197.83075,262.72045 197.92675,263.03395"/><path id="Fill-63" fill="#D18682" d="M208.77325,272.2303 C208.70125,272.5498 208.38175,272.7508 208.06225,272.6788 C207.74275,272.6053 207.54175,272.2888 207.61375,271.9678 C207.68575,271.6483 208.00375,271.4473 208.32475,271.5193 C208.64575,271.5913 208.84525,271.9108 208.77325,272.2303"/><path id="Fill-65" fill="#D18682" d="M213.43,271.5784 C213.358,271.8979 213.04,272.0989 212.719,272.0269 C212.3995,271.9534 212.1985,271.6369 212.2705,271.3159 C212.3425,270.9949 212.662,270.7954 212.9815,270.8674 C213.3025,270.9394 213.502,271.2589 213.43,271.5784"/><path id="Fill-67" fill="#D18682" d="M231.93025,274.2598 C231.85825,274.5808 231.53875,274.7818 231.21925,274.7083 C230.89975,274.6363 230.69875,274.3183 230.77075,273.9973 C230.84275,273.6778 231.16075,273.4768 231.48175,273.5488 C231.80275,273.6223 232.00225,273.9403 231.93025,274.2598"/><path id="Fill-69" fill="#D18682" d="M229.3939,267.07915 C229.3219,267.39865 229.0024,267.59965 228.6829,267.52765 C228.3634,267.45415 228.1624,267.13765 228.2344,266.81665 C228.3064,266.49565 228.6244,266.29615 228.9454,266.36815 C229.2649,266.44015 229.4659,266.75965 229.3939,267.07915"/><path id="Fill-71" fill="#D18682" d="M231.87535,261.2704 C231.80335,261.5899 231.48535,261.7909 231.16435,261.7189 C230.84485,261.6454 230.64385,261.3274 230.71585,261.0079 C230.78785,260.6869 231.10735,260.4874 231.42685,260.5594 C231.74785,260.6314 231.94735,260.9509 231.87535,261.2704"/><path id="Fill-73" fill="#D18682" d="M203.8975,269.5423 C203.8255,269.8618 203.506,270.0628 203.1865,269.9908 C202.867,269.9173 202.666,269.5993 202.738,269.2798 C202.81,268.9588 203.128,268.7593 203.449,268.8313 C203.7685,268.9033 203.9695,269.2213 203.8975,269.5423"/><path id="Stroke-75" fill="#D18682" fill-rule="nonzero" d="M226.476745,252.743922 C226.713525,252.48672 227.113977,252.470165 227.371178,252.706945 L227.586883,252.909842 C227.755471,253.070391 227.943015,253.252652 228.144825,253.453373 C228.721482,254.026917 229.298244,254.634711 229.837951,255.251382 C230.263494,255.737608 230.648788,256.210163 230.984524,256.663213 C232.450922,258.642005 232.95418,260.155587 231.820826,261.054578 C231.546933,261.271833 231.148778,261.225919 230.931522,260.952026 C230.735992,260.705522 230.75363,260.358366 230.958781,260.133021 L231.034074,260.062722 C231.348874,259.813019 231.028145,258.848408 229.967374,257.416978 C229.653644,256.993623 229.28958,256.547107 228.885281,256.085153 C228.366603,255.49251 227.809381,254.905308 227.252054,254.350989 L226.760242,253.870477 C226.659261,253.773846 226.576089,253.695771 226.513722,253.638355 C226.25652,253.401575 226.239965,253.001123 226.476745,252.743922 Z"/><path id="Stroke-77" fill="#D18682" fill-rule="nonzero" d="M207.207904,251.609448 C207.419596,251.887664 207.365668,252.284813 207.087452,252.496504 L206.748923,252.763461 C206.640914,252.850711 206.516662,252.952647 206.379069,253.067703 C205.843166,253.515826 205.307398,253.996114 204.809126,254.48782 C204.282776,255.007233 203.830199,255.508591 203.474629,255.976939 C202.72003,256.970882 202.511898,257.65334 202.763107,257.992981 L202.815571,258.052638 C203.067474,258.295048 203.075171,258.695767 202.832762,258.947671 C202.590352,259.199574 202.189633,259.207271 201.937729,258.964862 C200.972468,258.035982 201.316116,256.726413 202.466299,255.211416 C202.862328,254.689775 203.353799,254.145332 203.919886,253.586705 C204.445207,253.068306 205.006149,252.565451 205.566953,252.096506 L206.109725,251.653928 L206.320848,251.488996 C206.599064,251.277304 206.996213,251.331232 207.207904,251.609448 Z"/><path id="Fill-79" fill="#597EF7" d="M296.7664,309.8131 C278.2489,292.1731 259.2439,294.7081 235.5214,295.7566 C228.0439,296.0881 224.6134,317.2066 216.7879,317.5966 C211.4944,317.8606 197.5189,295.0141 193.0744,295.5976 C169.6114,298.6786 160.4164,288.3721 133.6354,308.9746 C129.3484,312.2731 130.1974,374.1076 162.1369,449.3476 C162.1369,449.3476 152.4019,466.3681 167.3674,469.0111 C267.9979,469.0111 267.3769,468.5641 267.3769,468.5641 C267.3769,468.5641 275.7154,463.2211 270.5779,449.4961 C270.5779,449.4961 318.5074,330.5236 296.7664,309.8131"/><path id="Fill-81" fill="#597EF7" d="M178.21375,299.8573 L186.84475,284.8903 L203.32075,287.8903 L215.00125,314.5468 L227.67175,289.2508 L242.82325,284.9308 L250.26625,300.1453 C250.26625,300.1453 244.47325,320.9308 215.19325,320.9308 C185.90875,320.9308 178.21375,299.8573 178.21375,299.8573"/><path id="Stroke-83" fill="#1D39C4" fill-rule="nonzero" d="M179.332984,299.443266 C179.561649,299.232975 179.917493,299.24787 180.127784,299.476534 L180.392539,299.749928 C180.454722,299.81226 180.525882,299.882692 180.605937,299.960797 C181.010182,300.355193 181.490252,300.795709 182.043983,301.270849 C183.629903,302.631678 185.484946,303.993665 187.59162,305.265103 C190.096695,306.776988 192.791723,308.057381 195.662685,309.032694 C195.956835,309.132622 196.114283,309.452085 196.014356,309.746235 C195.914428,310.040385 195.594965,310.197833 195.300815,310.097906 C192.350085,309.095494 189.582202,307.780488 187.010315,306.22828 C184.84775,304.92311 182.94275,303.524444 181.311387,302.124621 C180.739069,301.633532 180.241367,301.176837 179.820313,300.766042 L179.498649,300.446011 C179.411797,300.357536 179.345401,300.287742 179.299716,300.238066 C179.089425,300.009401 179.10432,299.653557 179.332984,299.443266 Z"/><path id="Stroke-85" fill="#1D39C4" fill-rule="nonzero" d="M250.701691,299.790549 C250.897946,300.031367 250.86182,300.385686 250.621001,300.581941 L250.025315,301.058496 L249.101421,301.781403 C248.881865,301.951319 248.653145,302.127072 248.415926,302.307979 C246.721511,303.600161 244.939973,304.892394 243.154086,306.099315 C242.025725,306.861874 240.930236,307.566386 239.87894,308.201016 C236.670176,310.138028 234.019427,311.342928 232.07068,311.621249 C231.76314,311.665172 231.478224,311.451469 231.434301,311.14393 C231.390378,310.83639 231.604081,310.551474 231.91162,310.507551 C233.669627,310.25647 236.209917,309.10178 239.29754,307.237896 C240.33141,306.613787 241.410942,305.919535 242.52416,305.167211 C244.290632,303.973411 246.055261,302.693442 247.733726,301.413423 L248.731794,300.644001 L249.910299,299.709859 C250.151117,299.513604 250.505436,299.54973 250.701691,299.790549 Z"/><path id="Stroke-87" fill="#1D39C4" fill-rule="nonzero" d="M215.0011,313.98415 C215.280694,313.98415 215.512644,314.18814 215.556238,314.45541 L215.5636,314.54665 L215.5636,344.85115 C215.5636,345.16181 215.31176,345.41365 215.0011,345.41365 C214.721506,345.41365 214.489556,345.20966 214.445962,344.94239 L214.4386,344.85115 L214.4386,314.54665 C214.4386,314.23599 214.69044,313.98415 215.0011,313.98415 Z"/><path id="Fill-89" fill="#4E5C93" d="M283.81495,551.59795 C283.81495,551.59795 286.55095,552.85045 285.42895,528.68395 C284.50945,508.86595 268.68295,484.44145 268.68295,484.44145 L265.91395,473.02945 C226.10245,473.02945 165.91645,470.49295 165.91645,470.49295 C165.91645,470.49295 165.24445,474.20695 162.70945,481.18045 C150.28045,515.16895 151.97095,558.24745 151.97095,558.24745 L207.09745,584.04145 L228.70795,584.46445 L283.81495,551.59795 Z"/><path id="Fill-91" fill="#253368" d="M268.2328,484.59895 C218.5483,484.59895 161.2618,483.45895 161.2618,483.45895 L163.4068,468.40795 C163.4068,468.40795 230.1898,467.32195 267.7828,467.32195 C268.6543,473.81995 268.2328,484.59895 268.2328,484.59895"/><path id="Stroke-93" fill="#253368" fill-rule="nonzero" d="M254.633645,481.890025 C254.941696,481.849844 255.223994,482.066995 255.264175,482.375045 L255.304662,482.658799 C255.339814,482.894627 255.38349,483.168742 255.436158,483.477938 C255.586979,484.36335 255.779424,485.350773 256.017219,486.414519 C256.696409,489.452797 257.601704,492.490389 258.761454,495.320708 C262.475554,504.384809 267.834358,509.225615 275.159386,507.819881 C275.464479,507.761331 275.75927,507.961193 275.817819,508.266286 C275.876369,508.571379 275.676507,508.86617 275.371414,508.924719 C267.381649,510.458022 261.613091,505.247071 257.720457,495.747266 C256.53425,492.852379 255.611382,489.755821 254.919316,486.659949 C254.717529,485.757276 254.547717,484.908097 254.407634,484.127128 L254.2529,483.218155 L254.148625,482.520555 C254.108444,482.212504 254.325595,481.930206 254.633645,481.890025 Z"/><path id="Stroke-95" fill="#253368" fill-rule="nonzero" d="M202.69108,481.66488 C203.00095,481.687015 203.234206,481.956159 203.21207,482.26603 L203.118417,483.742775 L203.045655,485.030956 C202.981019,486.227236 202.917119,487.553456 202.856576,488.998798 C202.175701,505.253124 202.359939,522.974714 204.018873,539.637394 C205.880079,558.331725 209.428415,573.34475 214.967221,583.31529 C215.118083,583.586861 215.02023,583.92931 214.74866,584.080171 C214.477089,584.231033 214.13464,584.13318 213.983779,583.86161 C208.353829,573.727 204.774533,558.582981 202.899408,539.748848 C201.293872,523.622517 201.064743,506.522462 201.662741,490.70394 L201.732561,488.951714 C201.775948,487.915944 201.821061,486.940994 201.866944,486.030802 L201.995387,483.676225 L202.08993,482.18587 C202.112065,481.876 202.381209,481.642744 202.69108,481.66488 Z"/><path id="Stroke-97" fill="#253368" fill-rule="nonzero" d="M218.189333,480.703863 C218.499986,480.705974 218.750149,480.95948 218.748088,481.270133 L218.734942,483.990772 L218.721838,489.429526 C218.714939,496.201569 218.742983,503.372977 218.822616,510.308136 L218.902987,516.105194 C219.104985,528.350414 219.473975,537.067643 220.040172,540.883713 L220.099449,541.260939 C220.914491,546.151915 218.014097,550.425602 212.745591,554.044305 C211.134674,555.150773 209.41194,556.114628 207.689403,556.932114 C207.207042,557.161034 206.751985,557.365286 206.33143,557.544552 L205.632017,557.832647 C205.524259,557.875242 205.439523,557.907625 205.379571,557.929714 C205.088067,558.037117 204.764689,557.887874 204.657286,557.596371 C204.549883,557.304867 204.699126,556.981489 204.990629,556.874086 L205.454455,556.691523 L205.592326,556.634845 C206.07888,556.433444 206.621868,556.193485 207.20706,555.915762 C208.879221,555.122184 210.551184,554.186735 212.108651,553.116979 C216.948438,549.792744 219.598676,545.970422 219.0323,541.729302 L218.899585,540.856155 C218.279966,536.455112 217.903877,526.356807 217.72072,512.20777 C217.607167,503.435732 217.579703,494.188749 217.603971,485.775987 L217.623112,481.262667 C217.625174,480.952014 217.87868,480.701851 218.189333,480.703863 Z"/><path id="Fill-99" fill="#E1E7F3" d="M190.3675,482.7511 L190.3675,469.2151 C190.3675,467.4466 191.716,465.9991 193.423,465.9481 C199.084,465.7786 211.7935,465.1636 223.2055,466.6096 C224.797,466.8121 225.8695,468.6646 225.8695,470.3236 L225.8695,483.0511 C225.8695,484.8706 224.443,486.3406 222.6835,486.3181 C216.2155,486.2386 201.478,486.0631 193.498,486.0196 C191.761,486.0091 190.3675,484.5496 190.3675,482.7511"/><path id="Fill-101" fill="#253368" d="M194.0296,480.4153 L194.0326,471.4543 C194.0326,470.2858 195.1336,469.3273 196.5271,469.2928 C201.1456,469.1833 210.7726,468.5653 220.0831,469.5253 C221.3806,469.6603 222.3616,470.5798 222.360102,471.6778 L222.360102,480.6253 C222.360102,481.8298 221.1961,482.8018 219.7606,482.7868 C214.4821,482.7313 203.0926,482.6113 196.5826,482.5783 C195.1651,482.5708 194.0296,481.6048 194.0296,480.4153"/><polygon id="Fill-103" fill="#E1E7F3" points="222.898 468.319 192.928 481.695 194.166 484.419 224.385 470.796"/><polygon id="Fill-105" fill="#E1E7F3" points="224.186 481.266 194.147 468.047 192.959 470.795 223.349 484.031"/><path id="Fill-107" fill="#FFC2BD" d="M303.1399,364.82605 C294.4519,371.43355 271.8154,389.13505 250.3204,368.82055 C233.1304,352.57555 239.2294,332.23705 249.3349,320.82205 C270.8479,296.52505 294.7414,272.43655 318.3409,253.71205 C318.3409,253.71205 342.9799,229.95355 364.2589,255.11605 C382.2664,276.40855 363.6124,298.03405 363.6124,298.03405 C363.6124,298.03405 322.2889,350.26405 303.1399,364.82605"/><path id="Fill-109" fill="#597EF7" d="M337.4452,329.29915 C329.9467,337.81465 294.4072,375.08815 281.8162,381.64765 C272.1367,386.69065 265.0117,389.89765 243.5152,369.58315 C226.3252,353.33965 238.7917,332.98015 247.2487,320.29615 C253.0777,311.54965 280.3147,288.18715 288.8647,279.87865 L337.4452,329.29915 Z"/><path id="Stroke-111" fill="#1D39C4" fill-rule="nonzero" d="M289.36062,279.809614 C289.557546,279.61603 289.860823,279.596928 290.078742,279.750668 L290.156086,279.81642 L338.738086,329.23692 C338.955868,329.458461 338.952821,329.814604 338.73128,330.032386 C338.534354,330.22597 338.231077,330.245072 338.013158,330.091332 L337.935814,330.02558 L289.353814,280.60508 C289.136032,280.383539 289.139079,280.027396 289.36062,279.809614 Z"/><path id="Fill-113" fill="#FFC2BD" d="M355.80625,139.6414 C346.16725,164.6959 333.98125,202.6909 312.35425,258.8044 C312.35425,258.8044 305.77975,296.6194 339.08575,302.3659 C371.55775,307.9684 376.49725,269.6689 376.49725,269.6689 C387.58675,225.7279 390.69025,145.7959 389.59975,142.8994 C388.10425,138.9319 387.12775,134.3914 379.43275,131.5579 C361.17025,124.8349 355.80625,139.6414 355.80625,139.6414"/><path id="Fill-115" fill="#FFC2BD" d="M361.12285,156.8761 C361.12285,156.8761 355.86835,149.8546 355.30135,137.9296 C354.73735,126.1021 359.49235,93.7741 360.17035,91.9621 C362.48035,85.7896 368.88085,89.3026 366.98785,108.1021 C376.59835,98.7301 380.85385,89.6956 380.93635,80.3371 C381.02035,70.9771 391.71685,71.8636 395.44135,84.8566 C399.16735,97.8496 405.01135,107.8951 400.81885,120.2086 C395.52835,135.7471 390.01435,149.4121 382.68535,158.5291 C374.61385,168.5716 369.80035,166.3891 361.12285,156.8761"/><path id="Stroke-117" fill="#D18682" fill-rule="nonzero" d="M366.894098,107.358621 C367.270796,107.311006 367.617497,107.551581 367.712674,107.908539 L367.732229,108.008648 L368.813,116.562 L369.039416,116.982397 C369.273011,117.420061 369.532981,117.921109 369.812745,118.477843 C370.611444,120.067264 371.409964,121.786459 372.155684,123.574272 C373.159493,125.980836 373.98868,128.324876 374.583743,130.539539 C376.087823,136.137326 376.003512,140.465168 373.754301,143.043256 C373.481993,143.355381 373.008218,143.387658 372.696094,143.115351 C372.383969,142.843043 372.351692,142.369268 372.623999,142.057144 C374.444529,139.970418 374.520244,136.083823 373.135123,130.928771 C372.558944,128.784385 371.751269,126.501159 370.771288,124.151721 C370.04008,122.3987 369.256176,120.710972 368.472452,119.151353 L368.153462,118.523869 L367.716105,117.688689 C367.580067,117.433807 367.48357,117.257503 367.433219,117.167561 C367.40181,117.111454 367.377811,117.051659 367.361719,116.989677 L367.343571,116.895252 L366.244071,108.196752 C366.192127,107.785809 366.483154,107.410564 366.894098,107.358621 Z"/><path id="Stroke-119" fill="#D18682" fill-rule="nonzero" d="M394.389062,100.371913 C395.307589,97.7134674 396.939766,96.3509727 399.26596,97.5398119 C399.634796,97.728312 399.780988,98.1801228 399.592488,98.5489596 C399.403988,98.9177964 398.952177,99.0639882 398.58334,98.8754881 C397.321822,98.2307684 396.470253,98.9416338 395.806822,100.861767 C395.613797,101.42043 395.463922,102.025831 395.353405,102.632191 L395.283369,103.049996 L395.238987,103.378521 L395.240456,103.429385 C395.25004,103.825243 395.241188,104.358033 395.200246,105.007589 C395.140247,105.959518 395.020744,106.987358 394.827924,108.070946 C394.301369,111.030008 393.314596,113.965115 391.754403,116.712017 C390.684248,118.596149 389.372496,120.334132 387.799245,121.894206 C387.708995,121.983699 387.597483,122.04879 387.475177,122.083365 L387.267472,122.150628 L387.186317,122.179151 C386.937757,122.267838 386.658771,122.380103 386.357114,122.51754 C385.491822,122.911774 384.625835,123.426114 383.820216,124.07176 C381.572782,125.872917 380.221602,128.32272 380.182094,131.56778 C380.177052,131.981963 379.837203,132.313637 379.42302,132.308761 C379.008837,132.303552 378.677163,131.963703 378.682039,131.54952 C378.727547,127.825246 380.303533,124.967853 382.882155,122.901273 C383.79152,122.172482 384.763017,121.595475 385.735208,121.152537 C386.029235,121.018576 386.292279,120.910196 386.516784,120.825421 L386.869,120.7 L387.17785,120.385697 C388.317846,119.190076 389.302594,117.889218 390.142086,116.497377 L390.450107,115.9712 C391.91989,113.383475 392.852793,110.608598 393.351123,107.808154 C393.533676,106.782264 393.646667,105.810433 393.703217,104.913232 L393.728849,104.423703 C393.741457,104.116803 393.745515,103.849448 393.743504,103.625475 L393.738467,103.387644 L393.741419,103.277551 L393.763849,103.084316 C393.787722,102.898594 393.824871,102.653166 393.877716,102.363227 C394.000935,101.687177 394.168538,101.010166 394.389062,100.371913 Z"/><path id="Stroke-121" fill="#D18682" fill-rule="nonzero" d="M392.740688,87.7452207 C394.018315,87.1026382 395.405819,87.6303122 396.769042,89.281024 C397.0328,89.6004057 396.987708,90.0731337 396.668326,90.3368916 C396.348944,90.6006495 395.876216,90.5555576 395.612458,90.236176 C394.648496,89.068924 393.964434,88.8087722 393.414669,89.0852765 C392.886237,89.3510512 392.353431,90.1204501 391.898655,91.2341337 C391.669817,91.7945279 391.476095,92.4006697 391.318043,93.0075549 L391.167991,93.6317356 C391.155248,93.6905843 391.145494,93.7382146 391.138826,93.7728644 C390.403405,98.9608146 389.258882,103.176406 387.812355,106.520596 C386.87402,108.689908 385.861874,110.371482 384.841215,111.624586 L384.536051,111.986774 C384.045511,112.548547 383.647878,112.90327 383.381879,113.085658 C383.040259,113.319898 382.573432,113.23285 382.339192,112.891229 C382.126246,112.580665 382.178829,112.166625 382.446813,111.917923 L382.604319,111.794317 C382.653145,111.754668 382.721805,111.695845 382.808596,111.616171 C383.066755,111.379184 383.359266,111.068845 383.678186,110.677294 C384.610452,109.532713 385.551232,107.969707 386.435628,105.925094 C387.82698,102.708463 388.936431,98.62205 389.658959,93.5301179 L389.711735,93.2742429 L389.80885,92.8568193 C389.827041,92.7829903 389.846242,92.7071597 389.866462,92.6295191 C390.040093,91.9628098 390.25341,91.2953572 390.509976,90.6670631 C391.09046,89.2455344 391.802747,88.2169583 392.740688,87.7452207 Z"/><path id="Stroke-123" fill="#D18682" fill-rule="nonzero" d="M384.499133,89.9485159 L385.395418,85.285857 C386.619039,79.3019575 388.038301,77.2958911 391.736559,78.3390667 C392.135217,78.4515169 392.367234,78.8658515 392.254783,79.2645091 C392.142333,79.6631666 391.727998,79.8951835 391.329341,79.7827333 C388.869633,79.0889181 387.910132,80.4322985 386.861715,85.6003532 L386.617968,86.8626673 C386.466259,87.6669841 386.202725,89.0590441 386.043051,89.8743279 L385.969407,90.2456633 C385.636171,91.8945009 385.30527,93.3102903 384.918261,94.6815868 C384.327959,96.77346 383.636069,98.710047 382.862843,100.493416 C381.939364,102.623328 380.947826,104.430901 379.953452,105.923189 C379.672978,106.344105 379.407686,106.716307 379.161743,107.04026 L378.980978,107.274186 C378.799957,107.504181 378.667065,107.660789 378.590424,107.744933 C378.311502,108.051161 377.837144,108.073296 377.530917,107.794374 C377.224689,107.515452 377.202554,107.041094 377.481476,106.734867 L377.602204,106.594484 C377.656005,106.529787 377.723031,106.447152 377.802276,106.346468 C378.073114,106.002357 378.376763,105.5843 378.70519,105.091419 C379.650873,103.672203 380.599391,101.943056 381.486632,99.8967235 C382.233389,98.1744014 382.902696,96.3010227 383.474645,94.2741913 C383.850172,92.9435787 384.172826,91.5630735 384.499133,89.9485159 Z"/><path id="Fill-125" fill="#FFC2BD" d="M123.3949,361.5001 C131.7409,368.5321 153.4669,387.3421 175.9504,368.1271 C193.9279,352.7596 188.8534,332.1421 179.3284,320.2366 C159.0559,294.8971 136.3954,269.6446 113.7604,249.7651 C113.7604,249.7651 90.3379,224.8066 67.8289,248.8756 C48.7804,269.2426 66.3319,291.7726 66.3319,291.7726 C66.3319,291.7726 104.9974,346.0006 123.3949,361.5001"/><path id="Fill-127" fill="#597EF7" d="M90.9061,324.30475 C97.9696,333.18475 131.6041,372.18475 143.8516,379.36525 C153.2686,384.88375 160.2241,388.44475 182.7076,369.22825 C200.6866,353.86225 189.2536,332.90575 181.4401,319.81525 C176.0551,310.78975 150.0181,286.09675 141.8941,277.36975 L90.9061,324.30475 Z"/><path id="Stroke-129" fill="#1D39C4" fill-rule="nonzero" d="M140.605948,277.244488 C140.834517,277.034094 141.190368,277.048828 141.400762,277.277398 C141.587779,277.480571 141.596917,277.784311 141.436107,277.997067 L141.367852,278.072212 L90.3798522,325.005712 C90.1512825,325.216106 89.7954321,325.201372 89.5850381,324.972802 C89.3980211,324.769629 89.3888833,324.465889 89.5496933,324.253133 L89.6179478,324.177988 L140.605948,277.244488 Z"/><path id="Fill-131" fill="#FFC2BD" d="M82.0357,133.96735 C90.4132,159.47035 100.6867,198.02785 119.4847,255.15235 C119.4847,255.15235 124.1632,293.24635 90.6127,297.32335 C57.9007,301.29835 54.8797,262.79935 54.8797,262.79935 C45.9982,218.35885 46.8877,138.37285 48.1222,135.53335 C49.8127,131.64535 51.0157,127.15885 58.8427,124.71535 C77.4187,118.91185 82.0357,133.96735 82.0357,133.96735"/><g id="分组" transform="translate(37.000000, 66.487000)"><mask id="mask-2" fill="#fff"><use xlink:href="#path-1"/></mask><path id="Fill-133" fill="#FFC2BD" d="M38.86575,84.4272 C38.86575,84.4272 44.46375,77.6772 45.62625,65.7942 C46.77825,54.0117 43.64475,21.4857 43.05825,19.6422 C41.05875,13.3632 34.49025,16.5507 35.44275,35.4222 C26.31075,25.5822 22.51275,16.3467 22.89675,6.9942 C23.28225,-2.3568 12.55425,-2.0073 8.18475,10.7847 C3.81525,23.5752 -2.52225,33.3162 1.05075,45.8247 C5.55675,61.6077 10.38375,75.5307 17.24625,85.0017 C24.80775,95.4357 29.72475,93.4962 38.86575,84.4272" mask="url(#mask-2)"/></g><path id="Stroke-135" fill="#D18682" fill-rule="nonzero" d="M72.4720606,101.159845 L72.5734624,101.170881 C72.9473202,101.237208 73.2070032,101.569838 73.1919548,101.938961 L73.1809185,102.040362 L71.6494185,110.672862 C71.632566,110.767854 71.5975446,110.858702 71.5462745,110.940426 L71.2202815,111.475886 L70.7164961,112.332907 C70.5979868,112.538028 70.4753496,112.752671 70.3490717,112.976316 C69.4464664,114.574876 68.5436951,116.30161 67.7016933,118.091017 C66.6221605,120.385221 65.7235766,122.612933 65.0665642,124.706686 C63.5183615,129.640466 63.4410662,133.411239 65.1189823,135.540086 C65.3753882,135.8654 65.3195274,136.336976 64.9942139,136.593382 C64.6689003,136.849788 64.1973235,136.793927 63.9409177,136.468614 C61.8651965,133.835054 61.9515242,129.623639 63.6353735,124.257583 C64.3146837,122.092771 65.237953,119.803861 66.3444442,117.452366 C67.2033905,115.626949 68.1230635,113.867887 69.0429025,112.238805 L69.5965244,111.274759 L70.197,110.268 L71.7039815,101.778338 C71.770308,101.40448 72.1029384,101.144797 72.4720606,101.159845 Z"/><path id="Stroke-137" fill="#D18682" fill-rule="nonzero" d="M40.7320824,89.7482837 C43.0945704,88.6853962 44.6554925,90.0992498 45.4461256,92.7643269 C45.6410702,93.4214486 45.7791936,94.1181219 45.8714698,94.813709 L45.9124709,95.1485352 C45.9356342,95.3557578 45.9507366,95.5296582 45.9594635,95.6622409 L45.9648395,95.7538059 L45.9623008,95.8641143 L45.9415892,96.1738807 C45.8744414,97.4679565 45.9379178,99.1397624 46.2335621,101.046829 C46.6695016,103.858875 47.5382825,106.627152 48.9384012,109.212391 C49.7010399,110.62056 50.6083516,111.946442 51.6703711,113.177239 L51.956,113.499 L51.9895342,113.512528 C52.205056,113.59652 52.4823527,113.716998 52.8076074,113.876842 L53.0084048,113.977496 C53.9174429,114.441965 54.8256247,115.03223 55.6754653,115.761761 C58.2397147,117.962996 59.7368105,120.937991 59.5927632,124.743122 C59.5770939,125.157039 59.2288453,125.479882 58.8149283,125.464213 C58.4010112,125.448544 58.0781676,125.100295 58.0938368,124.686378 C58.2193277,121.371432 56.9355471,118.820332 54.6984322,116.89992 C53.9447703,116.252952 53.1349136,115.726593 52.3259132,115.313238 C51.8453067,115.067674 51.4780733,114.916497 51.2821559,114.850433 C51.1616296,114.809791 51.0534194,114.739165 50.9677001,114.645194 C49.6454694,113.195679 48.5342219,111.615866 47.6194164,109.926729 C46.1319126,107.180138 45.2121054,104.249272 44.7512683,101.276623 C44.4627828,99.4157347 44.3832232,97.7616513 44.4294699,96.4239287 L44.463,95.777 L44.4352044,95.4408662 C44.4267014,95.3574511 44.4164499,95.2654319 44.4042598,95.1658603 L44.384497,95.01097 C44.30178,94.3874413 44.1783737,93.7649988 44.0080727,93.1909458 C43.4389441,91.2725193 42.6295811,90.5394136 41.3475176,91.1162163 C40.9697735,91.286164 40.5257815,91.1177118 40.3558337,90.7399676 C40.185886,90.3622235 40.3543382,89.9182315 40.7320824,89.7482837 Z"/><path id="Stroke-139" fill="#D18682" fill-rule="nonzero" d="M43.6379572,81.6253199 C45.0719981,80.0551483 46.4740138,79.5921608 47.7139846,80.2783931 C48.6287804,80.7846651 49.291102,81.8351993 49.8026405,83.272161 C50.033294,83.9200894 50.2174695,84.6081281 50.3609646,85.2953249 C50.4110812,85.5353326 50.4526351,85.7585364 50.4861674,85.9596143 L50.5306567,86.2555526 C51.0477862,91.9317044 52.1087988,96.4059329 53.546915,99.8200665 C54.269995,101.536681 55.0388429,102.866115 55.8002925,103.855381 C56.2405075,104.427302 56.5673217,104.751531 56.7287295,104.874486 C57.0582304,105.125488 57.1218662,105.596079 56.8708641,105.92558 C56.6198619,106.25508 56.1492713,106.318716 55.8197705,106.067714 C55.5538634,105.865155 55.1328766,105.447499 54.6116331,104.770306 C53.7706519,103.677715 52.9370689,102.236346 52.1645469,100.402354 C50.664058,96.8401454 49.5674626,92.2158665 49.0405146,86.4241043 L48.9979733,86.152092 C48.9722757,86.0023308 48.9373694,85.8161646 48.8926346,85.6019303 C48.7620722,84.9766686 48.5949264,84.3522487 48.3895106,83.7752157 C47.9903873,82.6540393 47.4982001,81.8733618 46.9876566,81.5908137 C46.4553721,81.2962335 45.7603353,81.5257554 44.7455428,82.6368801 C44.4662082,82.9427314 43.9918212,82.9642275 43.6859699,82.6848928 C43.3801186,82.4055582 43.3586225,81.9311712 43.6379572,81.6253199 Z"/><path id="Stroke-141" fill="#D18682" fill-rule="nonzero" d="M49.2107922,70.9481608 C51.3554218,70.4572215 52.874322,71.1570964 53.821566,72.9410038 C54.4966988,74.2124549 54.8601608,75.8019123 55.3032595,78.9220128 L55.7119971,81.8884259 C55.7597709,82.226016 55.8050664,82.5377675 55.8505401,82.8409868 L55.8961717,83.1420031 C56.1297066,84.6660066 56.3739496,85.9946658 56.6672196,87.2753067 C57.2138942,89.6621273 57.9009046,91.8437556 58.6956458,93.8224185 C59.4350284,95.6632554 60.2253857,97.2279374 61.0132297,98.5197874 C61.232009,98.8785259 61.4375368,99.1943817 61.6263831,99.4675555 L61.7648366,99.6644362 C61.8964922,99.8483434 61.9873453,99.966429 62.0306861,100.019077 C62.2939454,100.33887 62.2481158,100.811527 61.928323,101.074786 C61.6085302,101.338045 61.1358731,101.292216 60.8726139,100.972423 C60.6349105,100.683674 60.236824,100.127595 59.732593,99.3007929 C58.902329,97.9393857 58.0745784,96.3006755 57.3037269,94.3814907 C56.4800348,92.3307488 55.7694398,90.0742267 55.2050746,87.6101681 C54.9459526,86.4786434 54.72481,85.3153731 54.5166139,84.0252693 L54.4134788,83.3692077 C54.3514083,82.9641477 54.291369,82.5548895 54.226988,82.0999721 L53.8710673,79.5099648 L53.7213372,78.4689434 C53.3460875,75.9649017 53.0171833,74.6245802 52.4967519,73.6444721 C51.86671,72.4579389 51.0272651,72.0711417 49.5455078,72.4103392 C49.1417384,72.5027683 48.73949,72.2503772 48.6470608,71.8466078 C48.5546317,71.4428384 48.8070228,71.04059 49.2107922,70.9481608 Z"/><path id="Stroke-143" fill="#253368" fill-rule="nonzero" d="M188.246517,580.492906 L188.338054,580.493243 L228.755554,583.904243 C229.065113,583.930368 229.294882,584.202494 229.268757,584.512054 C229.245245,584.790657 229.022471,585.004631 228.752483,585.025594 L228.660946,585.025257 L188.243446,581.614257 C187.933887,581.588132 187.704118,581.316006 187.730243,581.006446 C187.753755,580.727843 187.976529,580.513869 188.246517,580.492906 Z"/></g></svg>