<?xml version="1.0" encoding="UTF-8"?>
<svg width="512px" height="1024px" viewBox="0 0 512 1024" version="1.1" xmlns="http://www.w3.org/2000/svg" xmlns:xlink="http://www.w3.org/1999/xlink">
    <!-- Generator: Sketch 61.2 (89653) - https://sketch.com -->
    <title>2.人物组件/9.互联网人群/坐姿/专注工作</title>
    <desc>Created with Sketch.</desc>
    <defs>
        <polygon id="path-1" points="1.48414202 0.443966364 48.18 0.443966364 48.18 66.68985 1.48414202 66.68985"></polygon>
        <polygon id="path-3" points="0 0.4269 90.6111514 0.4269 90.6111514 22.6937291 0 22.6937291"></polygon>
    </defs>
    <g id="2.人物组件/9.互联网人群/坐姿/专注工作" stroke="none" stroke-width="1" fill="none" fill-rule="evenodd">
        <path d="M179.88745,571.03165 L179.88745,571.03165 C181.54645,575.36965 186.10195,578.06215 191.00395,577.60165 L290.68195,571.12465 C301.70095,570.09115 311.67145,560.31115 307.59445,547.31815 C305.85145,537.02965 295.14145,530.51815 284.38495,533.20915 L187.55845,557.42215 C181.27645,558.99265 177.70645,565.32715 179.88745,571.03165" id="Fill-1" fill="#FFC999"></path>
        <path d="M268.8607,545.49505 C268.8607,545.49505 266.0467,514.44655 267.6307,485.75755 C269.0767,459.59755 274.4752,436.85905 291.9742,437.05855 C313.9492,437.30755 310.0957,473.82805 309.6472,492.40555 C309.3247,505.77505 305.9122,533.60155 302.9572,548.00905 C298.2442,570.98905 267.4807,565.74055 268.8607,545.49505" id="Fill-3" fill="#FFC999"></path>
        <path d="M309.46615,499.8982 C309.91465,481.3207 314.77465,437.4937 287.50015,436.9102 C268.25815,436.4992 266.75965,465.6112 266.51065,500.5192 L309.46615,499.8982 Z" id="Fill-5" fill="#E4EBF7"></path>
        <path d="M230.03635,668.85985 C289.92235,671.54935 338.03335,663.27835 338.03335,663.27835 C338.03335,663.27835 383.60935,640.33285 350.50585,617.13535 C334.47685,605.90185 296.75485,612.33085 230.63035,622.99885 C230.63035,622.99885 199.68085,626.34235 202.14535,650.75935 C204.20935,671.19535 230.03635,668.85985 230.03635,668.85985" id="Fill-7" fill="#FFC999"></path>
        <path d="M263.1199,668.71915 C262.6279,645.86365 252.2689,617.89765 252.2689,617.89765 C271.5709,615.25015 302.0089,609.66565 370.3789,607.06015 C396.0049,638.98465 353.4769,666.92965 353.4769,666.92965 L263.1199,668.71915 Z" id="Fill-9" fill="#597EF7"></path>
        <path d="M252.048656,617.801415 C252.334758,617.680357 252.664827,617.814153 252.785885,618.100256 C254.326985,621.742426 255.702103,625.675418 256.920723,629.856729 C259.352754,638.201475 261.06173,647.136606 262.173855,656.070895 C262.524116,658.884722 262.791477,661.517885 262.987316,663.916377 L263.049963,664.707109 C263.096684,665.315667 263.136364,665.878839 263.169581,666.393878 L263.232,667.447 L353.470621,666.36749 C353.750195,666.364146 353.984569,666.565347 354.031357,666.832075 L354.039891,666.923221 C354.043154,667.202795 353.841953,667.437169 353.575225,667.483957 L353.484079,667.49241 L262.704079,668.578491 C262.399794,668.58205 262.147787,668.343042 262.135322,668.03899 L262.091498,667.194791 L262.020975,666.073986 C261.99385,665.673338 261.963027,665.246031 261.928264,664.793226 C261.729477,662.20397 261.444375,659.318062 261.057471,656.20986 C259.95222,647.33079 258.254127,638.452562 255.840659,630.171508 C254.633761,626.03042 253.272969,622.138401 251.749815,618.538644 C251.628757,618.252542 251.762553,617.922473 252.048656,617.801415 Z" id="Stroke-11" fill="#1D39C4" fill-rule="nonzero"></path>
        <path d="M268.27465,681.95485 C286.61815,722.82985 295.33015,752.75635 319.00165,790.63735 C321.87415,795.23335 315.50815,799.77985 309.05515,803.31685 C302.38915,823.48585 278.68465,843.46735 271.93915,840.65335 C267.88915,838.96285 269.86465,821.67235 277.18615,813.97285 C293.55415,796.76485 278.80315,774.57235 278.80315,774.57235 C278.80315,774.57235 241.62565,717.74485 213.90865,673.68835 C213.90865,673.68835 189.86515,642.96685 212.70715,631.01035 C243.15865,615.06985 262.01365,668.00485 268.27465,681.95485" id="Fill-13" fill="#F4B887"></path>
        <path d="M261.84985,847.1416 C261.84985,847.1416 268.26085,851.4886 283.13785,842.0191 C298.01485,832.5481 301.32085,821.8036 308.68435,816.0676 C322.44385,805.3441 326.74435,797.8771 326.74435,797.8771 C326.74435,797.8771 328.80235,799.7116 329.26135,803.5051 C329.97085,809.3551 314.99485,815.7526 308.85685,824.3311 C304.41685,830.5381 300.60685,834.7846 291.88135,842.7976 C283.15735,850.8121 268.84285,855.0481 265.46335,852.4891 C262.08385,849.9316 261.84985,847.1416 261.84985,847.1416" id="Fill-15" fill="#96A7CA"></path>
        <path d="M326.596,798.68455 C326.596,798.68455 324.328,802.53805 314.5315,811.63405 C312.1885,813.80905 309.9415,816.04255 306.148,820.32355 C300.316,826.90255 283.309,850.07305 264.49,848.42005 C261.1225,847.28005 260.1805,844.26655 260.065,841.59505 C259.9525,839.05405 260.8675,836.57755 262.5595,834.67855 C267.6895,828.92455 279.967,815.20705 281.251,799.22005 C281.401,797.34805 282.676,795.77605 284.479,795.25105 C286.6615,794.61805 289.693,794.15905 292.597,795.14155 C295.015,795.95905 294.3565,804.57955 296.161,803.95255 C301.1215,802.22605 307.9915,796.70605 311.0545,790.77355 C313.621,785.80555 314.7355,781.80205 314.7355,781.80205 C314.7355,781.80205 324.9355,791.04805 326.596,798.68455" id="Fill-17" fill="#4E5C93"></path>
        <path d="M282.326266,828.977494 C282.594763,828.716492 283.024005,828.722569 283.285006,828.991066 C283.546008,829.259563 283.539931,829.688805 283.271434,829.949806 C278.871593,834.226816 274.516109,836.972116 270.38332,838.481732 C268.898067,839.024262 267.534748,839.370399 266.315647,839.557837 C265.617347,839.665201 265.06774,839.706977 264.68221,839.70977 L264.512399,839.708172 C264.138214,839.694116 263.846272,839.379384 263.860328,839.005199 C263.873106,838.665031 264.134377,838.392832 264.462906,838.356713 L264.563301,838.353128 L264.68257,838.353769 C265.000271,838.350955 265.480954,838.314238 266.109582,838.217586 C267.241504,838.043552 268.518011,837.719456 269.918071,837.208045 C273.870712,835.764233 278.062835,833.121901 282.326266,828.977494 Z" id="Stroke-19" fill="#96A7CA" fill-rule="nonzero"></path>
        <path d="M281.495328,806.093138 C283.544823,805.778207 285.744008,805.803495 287.828571,806.405671 C288.39454,806.569164 288.938907,806.773414 289.458668,807.020995 C289.796724,807.182023 289.940233,807.586611 289.779205,807.924668 C289.618177,808.262724 289.213589,808.406233 288.875532,808.245205 C288.424135,808.030188 287.948879,807.851869 287.452246,807.708404 C285.584831,807.168957 283.572814,807.145822 281.701277,807.433407 L281.217317,807.515988 C281.033846,807.550835 280.893913,807.582135 280.803017,807.605592 C280.440447,807.699159 280.070675,807.481088 279.977108,807.118517 C279.883541,806.755947 280.101612,806.386175 280.464183,806.292608 L280.673049,806.243205 C280.877059,806.198367 281.154582,806.145498 281.495328,806.093138 Z" id="Stroke-21" fill="#96A7CA" fill-rule="nonzero"></path>
        <path d="M310.2469,432.1513 C310.2469,432.1513 316.5139,451.6258 338.5909,449.8033 C364.2154,447.6853 366.1429,426.8383 366.1429,426.8383 L359.8399,425.3773 C358.5319,425.0743 357.5419,424.0228 357.3319,422.6983 C356.5819,417.9733 354.7459,405.9223 352.9099,389.9773 C330.3019,384.5653 315.6844,392.4238 315.6844,392.4238 C315.6844,392.4238 317.6419,411.3703 318.8374,425.3563 C318.9529,426.7138 318.2269,428.0008 317.0029,428.5963 C314.8924,429.6253 311.6914,431.2243 310.2469,432.1513" id="Fill-23" fill="#FFC999"></path>
        <path d="M357.29905,373.7392 C357.29905,373.7392 355.86055,342.8197 332.55055,344.0452 C304.39555,345.5257 304.47205,361.5187 303.39505,369.0907 C302.25355,377.1367 303.30055,410.4172 320.84605,415.8082 C328.25155,417.5842 332.82205,418.5367 344.41405,410.2522 C361.28155,398.1982 357.29905,373.7392 357.29905,373.7392" id="Fill-25" fill="#FFC999"></path>
        <path d="M352.73755,397.2148 L351.36355,379.9483 C351.36355,379.9483 363.92305,370.4038 366.34105,379.0243 C368.80855,387.8128 363.27655,394.6288 357.84355,397.3198 C354.35005,399.0493 352.73755,397.2148 352.73755,397.2148" id="Fill-27" fill="#FFC999"></path>
        <path d="M343.7728,337.6396 C343.7728,337.6396 328.3288,329.3401 321.7393,331.3006 C315.1498,333.2611 321.0088,337.8871 321.0088,337.8871 C321.0088,337.8871 302.0653,336.7471 300.8233,341.1226 C299.5798,345.4981 306.5053,346.7581 306.5053,346.7581 C306.5053,346.7581 288.8428,353.8351 288.5713,359.3836 C288.3013,364.9321 296.7103,362.7826 296.7103,362.7826 C296.7103,362.7826 291.0853,371.2951 293.6683,375.6961 C296.2483,380.0986 300.3913,379.1011 300.3913,379.1011 L303.9883,384.9526 L303.5983,371.8306 C303.5983,371.8306 309.8218,368.2801 321.2518,361.1446 C314.7583,369.4636 319.2823,368.9881 325.2688,367.0951 C332.2858,364.8766 340.4008,361.4821 339.9538,361.3201 C339.9538,361.3201 341.0593,369.7651 347.1178,373.0291 C354.5473,377.0296 350.6443,387.3121 352.5088,387.5431 C356.0968,388.0186 354.6163,378.5476 361.1608,376.1671 C366.3673,375.2011 366.5383,368.6716 364.8418,366.6541 C371.6713,364.9516 370.6468,357.8401 361.0438,352.6126 C368.7043,350.7541 363.1303,344.1151 351.2713,342.3781 C353.5078,329.1946 343.7728,337.6396 343.7728,337.6396" id="Fill-29" fill="#253368"></path>
        <path d="M329.518627,372.553238 C333.230787,371.80498 337.147202,371.715122 340.735836,372.007694 L341.303261,372.058075 L342.086177,372.143729 C342.134901,372.149865 342.174281,372.155078 342.204019,372.159223 C342.819389,372.245004 343.248707,372.813399 343.162927,373.428769 C343.082865,374.003115 342.582392,374.415388 342.0157,374.398062 L341.552815,374.346221 C341.263708,374.313631 340.928852,374.280895 340.553006,374.250254 C337.156363,373.973334 333.436982,374.058671 329.963216,374.758876 C329.196889,374.913344 328.45851,375.096016 327.751292,375.308057 C327.156147,375.486496 326.529032,375.148688 326.350593,374.553542 C326.172154,373.958397 326.509962,373.331282 327.105108,373.152843 C327.88066,372.920314 328.686144,372.721041 329.518627,372.553238 Z" id="Stroke-31" fill="#253368" fill-rule="nonzero"></path>
        <path d="M306.473801,375.653108 C310.145442,373.645613 313.924313,373.351972 317.300134,374.052299 L317.721416,374.145985 C318.112088,374.239092 318.40969,374.328656 318.603106,374.398399 C319.18759,374.609154 319.490557,375.253822 319.279801,375.838306 C319.069046,376.42279 318.424378,376.725757 317.839894,376.515001 L317.685091,376.464164 C317.49748,376.406898 317.212788,376.332085 316.843094,376.255391 C313.948385,375.654873 310.698859,375.90738 307.553199,377.627292 C307.008044,377.925359 306.324476,377.725055 306.026408,377.179899 C305.728341,376.634744 305.928645,375.951176 306.473801,375.653108 Z" id="Stroke-33" fill="#253368" fill-rule="nonzero"></path>
        <path d="M318.674584,376.022305 C318.929149,375.914088 319.219289,376.010041 319.362427,376.236511 L319.404445,376.316734 L320.902945,379.841734 L320.946881,380.037853 L321.44,392.731 L326.150914,393.282714 C326.425655,393.314831 326.630146,393.541924 326.642283,393.809561 L326.639036,393.900064 C326.606919,394.174805 326.379826,394.379296 326.112189,394.391433 L326.021686,394.388186 L320.837686,393.782186 C320.595657,393.753893 320.403988,393.572672 320.356911,393.34036 L320.346219,393.251047 L319.838,380.183 L318.380155,376.752166 C318.271938,376.497601 318.367891,376.207461 318.594361,376.064323 L318.674584,376.022305 Z" id="Stroke-35" fill="#DD936F" fill-rule="nonzero"></path>
        <path d="M331.585413,382.36034 C334.204261,380.126006 336.915796,379.945125 339.316912,380.997062 C339.834939,381.224011 340.215236,381.455502 340.436953,381.623097 C340.767387,381.872869 340.832776,382.343219 340.583003,382.673653 C340.333231,383.004087 339.862881,383.069476 339.532447,382.819703 C339.398708,382.718611 339.116903,382.547073 338.714988,382.370993 C336.803876,381.533729 334.700926,381.674012 332.558987,383.50146 C332.243876,383.770305 331.770485,383.732798 331.50164,383.417687 C331.232795,383.102576 331.270302,382.629185 331.585413,382.36034 Z" id="Stroke-37" fill="#253368" fill-rule="nonzero"></path>
        <path d="M312.156659,382.605516 C313.358777,382.371008 314.610615,382.552335 315.824815,382.990551 C316.327164,383.171853 316.711941,383.355283 316.940928,383.485306 C317.301125,383.689832 317.427321,384.147631 317.222794,384.507828 C317.018268,384.868025 316.560469,384.994221 316.200272,384.789694 L316.027627,384.699261 C315.854876,384.614407 315.612101,384.508482 315.3156,384.401473 C314.334221,384.047284 313.339041,383.903134 312.443864,384.077764 C311.661396,384.230407 310.98893,384.621938 310.43154,385.309008 C310.170581,385.630681 309.698264,385.679899 309.376592,385.41894 C309.054919,385.157981 309.005701,384.685664 309.26666,384.363992 C310.050467,383.397829 311.035708,382.82419 312.156659,382.605516 Z" id="Stroke-39" fill="#253368" fill-rule="nonzero"></path>
        <path d="M334.2586,395.84665 C334.2586,395.84665 326.5276,398.48965 318.8491,398.15815 C318.8491,398.15815 321.3661,402.52015 326.6896,401.91715 C333.4111,401.15815 334.2586,395.84665 334.2586,395.84665" id="Fill-41" fill="#FFFFFF"></path>
        <path d="M334.053346,395.246266 L333.758122,395.342539 C333.511468,395.420966 333.224101,395.508568 332.899206,395.603062 C331.968532,395.873745 330.925756,396.144681 329.796466,396.397625 C326.381114,397.162611 322.943886,397.599689 319.716782,397.548835 L318.876467,397.52424 C318.37632,397.502648 318.049328,398.041663 318.29953,398.475268 C318.608725,399.011106 319.210363,399.782715 320.121075,400.551186 C321.899994,402.052261 324.11832,402.84696 326.761014,402.547618 C329.66898,402.219247 331.792717,401.060208 333.225143,399.331685 C334.264663,398.077285 334.745898,396.819503 334.885174,395.946626 C334.960546,395.474251 334.505976,395.091525 334.053346,395.246266 Z M332.766693,396.960374 L333.289,396.81 L333.383593,396.58247 C333.130943,397.242809 332.759633,397.90463 332.248047,398.521966 C331.023897,399.999161 329.198662,400.995291 326.618404,401.286657 C324.347472,401.543889 322.466852,400.87017 320.939452,399.58133 L320.672093,399.345728 C320.55689,399.239732 320.446522,399.132161 320.340997,399.023573 L320.151,398.82 L320.411714,398.82139 C323.537865,398.804866 326.817293,398.365357 330.07383,397.635942 C331.037398,397.420117 331.939857,397.191394 332.766693,396.960374 Z" id="Stroke-43" fill="#FF7A46" fill-rule="nonzero"></path>
        <path d="M340.229663,413.852414 C340.49721,413.70115 340.836722,413.795417 340.987986,414.062963 C341.13925,414.33051 341.044983,414.670022 340.777437,414.821286 C333.051808,419.189145 326.210223,419.352761 320.63034,416.991547 C319.864596,416.667511 319.193128,416.319543 318.620108,415.970292 L318.347125,415.799175 C318.141647,415.666432 317.991387,415.559417 317.89786,415.48632 C317.6557,415.297058 317.612818,414.94732 317.80208,414.70516 C317.991342,414.463 318.34108,414.420118 318.58324,414.60938 L318.693781,414.691065 C318.807954,414.772087 318.97704,414.884403 319.199361,415.019905 C319.727048,415.341526 320.350153,415.664431 321.064086,415.966543 C326.337479,418.19806 332.81742,418.043093 340.229663,413.852414 Z" id="Stroke-45" fill="#DD936F" fill-rule="nonzero"></path>
        <path d="M329.646277,404.851022 C329.950877,404.81003 330.231036,405.023726 330.272028,405.328327 C330.308921,405.602467 330.139516,405.85681 329.883212,405.93482 L329.794723,405.954078 L326.016223,406.462578 C325.711623,406.50357 325.431464,406.289874 325.390472,405.985273 C325.353579,405.711133 325.522984,405.45679 325.779288,405.37878 L325.867777,405.359522 L329.646277,404.851022 Z" id="Stroke-47" fill="#DD936F" fill-rule="nonzero"></path>
        <path d="M359.216469,381.079297 C360.417048,379.594559 361.77465,379.305735 362.974988,379.755447 C363.164328,379.826384 363.30631,379.900701 363.395446,379.958914 C363.652775,380.126973 363.725144,380.471817 363.557086,380.729146 C363.407701,380.957883 363.118632,381.040479 362.875509,380.937976 L362.716842,380.853372 C362.682738,380.837125 362.638246,380.817835 362.584503,380.7977 C361.81121,380.507981 360.96405,380.688211 360.081927,381.779119 C359.771796,382.162653 359.473677,382.648422 359.191676,383.244378 L358.986896,383.682521 C358.767838,384.157967 358.617216,384.510432 358.524049,384.761426 L358.465,384.928 L358.512008,384.931972 C358.90818,384.964909 359.177067,385.031972 359.476343,385.215001 L359.606925,385.30078 C359.909831,385.512823 360.171107,385.817862 360.390622,386.225494 C361.724255,388.702008 359.390596,390.923489 356.362983,391.239837 C356.0573,391.271777 355.783603,391.049865 355.751663,390.744183 C355.719723,390.4385 355.941635,390.164803 356.247317,390.132863 C358.612436,389.885738 360.255373,388.321777 359.410678,386.753206 C359.270423,386.492757 359.122971,386.320606 358.968646,386.212575 C358.811762,386.102752 358.680959,386.063123 358.415359,386.04084 L358.270581,386.0309 C357.618168,385.993684 357.235994,385.776834 357.296534,385.081102 C357.331822,384.67556 357.57868,384.050982 358.185624,382.768322 C358.503916,382.095673 358.848077,381.534881 359.216469,381.079297 Z" id="Stroke-49" fill="#DD936F" fill-rule="nonzero"></path>
        <path d="M352.896271,396.681415 C353.190852,396.769074 353.358595,397.078941 353.270935,397.373521 L353.149114,397.766263 L352.903263,398.516356 C352.873203,398.605438 352.842249,398.696298 352.810423,398.788802 C352.446466,399.846649 352.043038,400.904853 351.610287,401.895093 C350.747531,403.869291 349.881519,405.32531 348.997777,406.084844 C348.764688,406.285173 348.413334,406.258616 348.213006,406.025527 C348.012677,405.792438 348.039234,405.441084 348.272323,405.240756 C348.991566,404.622601 349.791254,403.278092 350.590423,401.449397 C351.00991,400.489505 351.403053,399.458281 351.757972,398.426702 L351.933956,397.90533 L352.204165,397.056079 C352.291824,396.761498 352.601691,396.593755 352.896271,396.681415 Z" id="Stroke-51" fill="#DD936F" fill-rule="nonzero"></path>
        <path d="M304.01395,563.60635 C297.62545,572.48185 304.36645,580.70935 304.36645,580.70935 C329.06995,582.92485 390.92695,582.41785 390.92695,582.41785 C401.12095,579.12685 395.50795,558.54385 395.50795,558.54385 C395.50795,558.54385 401.43145,512.48035 405.97195,476.24935 C407.92495,460.64785 410.01745,447.66085 405.81295,440.72785 C399.05095,429.57685 381.62395,428.95435 363.19495,425.46085 C362.65495,426.60085 359.48395,434.97085 340.93195,437.54635 C322.15795,440.15485 315.50695,431.41885 314.85295,429.91435 C305.61445,432.23485 295.76695,432.54535 284.95645,436.27435 C281.66995,437.40835 283.71295,441.75685 284.32045,445.17985 L288.13795,459.17335 C288.13795,459.17335 290.43295,488.12035 304.01395,563.60635" id="Fill-53" fill="#E4EBF7"></path>
        <path d="M289.371655,463.701025 C289.681611,463.680123 289.949824,463.914449 289.970725,464.224405 L290.054886,465.347508 L290.20988,467.22241 C290.303243,468.30733 290.413435,469.521361 290.541674,470.862912 L290.756324,473.05661 C291.2302,477.793573 291.836176,483.199639 292.590247,489.253892 L292.710544,490.21521 C295.373179,511.394479 299.249282,535.921439 304.56583,563.49927 C304.58767,563.61256 304.574145,563.729826 304.527089,563.835169 C300.875103,572.01068 301.556473,576.639867 304.776267,578.79162 C305.361589,579.182784 305.991565,579.45578 306.621426,579.630069 L306.883829,579.6974 C307.126718,579.754749 307.306867,579.78308 307.386522,579.790756 L318.515593,579.863666 L326.83082,579.936235 C334.301064,580.007777 341.727028,580.096355 348.887197,580.203757 L357.00321,580.335874 C371.474119,580.591207 383.203601,580.912158 391.26149,581.306422 C391.571779,581.321604 391.81101,581.585451 391.795828,581.89574 C391.780646,582.206029 391.516799,582.44526 391.20651,582.430078 L388.15363,582.291531 C380.66722,581.975542 370.666059,581.710357 358.704807,581.491621 L355.23445,581.430386 C346.162504,581.275924 336.528681,581.154162 326.819906,581.061182 L315.770477,580.967895 L307.338629,580.913917 C307.12265,580.89644 306.768702,580.838098 306.321401,580.714324 C305.582382,580.50983 304.843479,580.189632 304.151179,579.726976 C300.473496,577.26922 299.670413,572.170708 303.319845,563.784675 L303.428,563.538 L303.149815,562.092087 L302.524413,558.806206 C297.885494,534.272611 294.404978,512.228834 291.916937,492.891773 L291.594331,490.35554 C290.782895,483.901176 290.136622,478.163858 289.63685,473.167979 L289.421779,470.969963 C289.256443,469.240322 289.12097,467.721493 289.012775,466.416857 L288.848275,464.300095 C288.827373,463.990139 289.061699,463.721926 289.371655,463.701025 Z" id="Stroke-55" fill="#96A7CA" fill-rule="nonzero"></path>
        <path d="M400.6336,648.9394 C400.6336,648.9394 395.5951,671.6749 334.5376,668.2579 C318.8761,667.3819 303.2266,657.3079 292.100249,646.4689 C291.9841,610.9864 303.9721,591.0019 303.9721,591.0019 L395.8936,591.3154 C395.8936,591.3154 407.3911,624.0214 400.6336,648.9394" id="Fill-57" fill="#597EF7"></path>
        <path d="M303.7063,591.2905 L304.5388,579.3925 L394.9303,579.886 L396.6673,591.3565 C396.6673,591.3565 312.9913,591.616 303.7063,591.2905" id="Fill-59" fill="#597EF7"></path>
        <path d="M371.166664,590.975774 C381.159624,590.99083 389.569122,591.03307 396.049359,591.106336 C396.36,591.109848 396.608976,591.364519 396.605572,591.675159 C396.601952,591.9858 396.347281,592.234776 396.036641,592.231264 L391.436914,592.187 C383.103556,592.119084 372.366597,592.090276 359.737895,592.094916 L352.471765,592.100977 C347.969648,592.106716 343.357406,592.116095 338.678696,592.12863 L303.287825,592.2748 C302.97717,592.276627 302.723846,592.02628 302.72198,591.715625 C302.720173,591.40497 302.97052,591.151646 303.281175,591.14981 L322.096585,591.059633 L338.675808,591.003634 C343.355005,590.991097 347.967751,590.981717 352.470397,590.975978 L371.166664,590.975774 Z" id="Stroke-61" fill="#1D39C4" fill-rule="nonzero"></path>
        <path d="M305.396167,578.902299 L321.754397,578.937931 L338.847321,578.989582 C344.489554,579.009159 350.048674,579.031143 355.441565,579.055669 L370.643611,579.134898 C379.902146,579.190337 387.813975,579.253159 394.09363,579.323836 C394.404271,579.327332 394.653261,579.58199 394.649836,579.89263 C394.646268,580.203271 394.39161,580.452261 394.08097,580.448764 L381.988725,580.336901 C376.221606,580.292357 369.694142,580.25173 362.512447,580.214848 L348.418165,580.150516 C342.898444,580.128146 337.248095,580.10826 331.550241,580.090721 L305.394433,580.027299 C305.083773,580.026821 304.8328,579.774593 304.8328,579.463933 C304.8328,579.153273 305.085507,578.901822 305.396167,578.902299 Z" id="Stroke-63" fill="#1D39C4" fill-rule="nonzero"></path>
        <path d="M343.97485,585.21205 C343.93735,586.29955 342.77035,587.14255 341.37385,587.09305 C339.97435,587.04355 338.87185,586.12255 338.90935,585.03355 C338.94685,583.94605 340.11235,583.10455 341.51035,583.15255 C342.90985,583.20205 344.01235,584.12305 343.97485,585.21205" id="Fill-65" fill="#1D39C4"></path>
        <path d="M330.697513,579.888562 L330.78904,579.889885 C331.067374,579.916398 331.278935,580.141464 331.296988,580.411663 L331.295665,580.50319 L330.169165,592.32919 C330.159352,592.432211 330.121308,592.530529 330.059221,592.613323 L329.724541,593.078239 L329.385664,593.56764 C329.209206,593.826526 329.022596,594.106413 328.827526,594.406062 C327.89757,595.834584 326.967284,597.414403 326.099386,599.099295 C324.096229,602.988118 322.73253,606.83024 322.297798,610.400923 C321.927972,613.438495 322.251726,616.161032 323.360061,618.50107 C323.49304,618.78183 323.37324,619.117232 323.09248,619.250211 C322.81172,619.38319 322.476318,619.26339 322.343339,618.98263 C321.135993,616.433551 320.787161,613.500126 321.181044,610.264957 C321.634228,606.54272 323.040196,602.581509 325.099271,598.58413 C325.985691,596.86328 326.935033,595.251099 327.884704,593.792293 L328.272231,593.205853 C328.397314,593.019473 328.518137,592.842312 328.6342,592.674731 L328.956488,592.216609 L329.064,592.068 L330.175735,580.39651 C330.199302,580.149102 330.379751,579.954453 330.609329,579.901573 L330.697513,579.888562 Z" id="Stroke-67" fill="#1D39C4" fill-rule="nonzero"></path>
        <path d="M413.95495,558.81265 C413.95495,558.81265 419.83045,525.66865 420.75145,494.66065 C421.59295,466.38565 417.85945,441.43015 398.98645,440.03965 C375.29245,438.29365 376.09645,477.93415 374.87695,497.96065 C374.00095,512.37265 375.12745,542.62165 376.99045,558.39115 C379.96495,583.54465 413.58745,580.71865 413.95495,558.81265" id="Fill-69" fill="#FFC999"></path>
        <g id="分组" transform="translate(373.000000, 433.234000)">
            <mask id="mask-2" fill="white">
                <use xlink:href="#path-1"></use>
            </mask>
            <g id="Clip-72"></g>
            <path d="M1.7586,66.68985 C2.9391,47.26935 -5.5284,-1.37265 23.9076,0.49635 C44.6766,1.81635 50.3511,29.29635 47.4891,65.73435 L1.7586,66.68985 Z" id="Fill-71" fill="#E4EBF7" mask="url(#mask-2)"></path>
        </g>
        <path d="M229.8211,666.9679 C293.9161,673.1704 347.2876,664.8229 347.2876,664.8229 C347.2876,664.8229 365.8996,640.5874 352.7686,622.1854 C340.8376,605.4619 299.2726,612.2974 230.0791,615.9844 C230.0791,615.9844 198.3421,616.4659 200.3266,644.8324 C201.7606,665.3344 229.8211,666.9679 229.8211,666.9679" id="Fill-73" fill="#FFC999"></path>
        <path d="M272.6941,671.6752 C273.9751,660.5182 272.1631,650.1082 271.4266,641.5492 C269.9371,624.2407 267.6226,613.6357 267.6226,613.6357 C287.0431,612.0682 337.0711,609.1312 387.7516,612.0862 C420.9346,652.6702 377.0116,669.5632 377.0116,669.5632 L272.6941,671.6752 Z" id="Fill-75" fill="#597EF7"></path>
        <path d="M342.107553,609.131188 C342.417723,609.113738 342.683311,609.351033 342.700762,609.661203 C342.716467,609.940356 342.525828,610.183398 342.26143,610.241936 L342.170747,610.254412 L267.788,614.439 L267.908963,614.877619 C268.714323,617.862985 269.429557,620.990201 270.05889,624.244708 L270.290872,625.471087 C273.019687,640.221552 273.823463,655.595313 273.553512,668.562098 L273.512047,670.233943 L273.467031,671.490685 C273.452459,671.801003 273.189083,672.040753 272.878765,672.026181 C272.568447,672.011609 272.328697,671.748233 272.343269,671.437915 L272.379151,670.472505 C272.387609,670.207994 272.395933,669.919644 272.403918,669.608194 C272.740169,656.492551 271.972507,640.745391 269.184643,625.675737 C268.430693,621.600303 267.544921,617.721684 266.519581,614.068816 C266.430503,613.751468 266.631585,613.433251 266.942246,613.366861 L267.029553,613.355188 L342.107553,609.131188 Z" id="Stroke-77" fill="#1D39C4" fill-rule="nonzero"></path>
        <path d="M227.63845,704.8525 C209.49895,750.9715 192.56845,781.006 180.91795,829.0255 C179.50345,834.85 170.98495,833.332 163.19695,830.962 C142.09195,841.2895 107.95495,837.997 104.96395,830.485 C103.16845,825.9745 118.37095,814.165 130.12345,814.0015 C156.38995,813.6355 162.53245,784.807 162.53245,784.807 C162.53245,784.807 185.13745,695.5345 198.54445,639.5395 C198.54445,639.5395 205.45495,615.2575 226.41895,621.8005 C262.71145,633.13 233.83045,689.1115 227.63845,704.8525" id="Fill-79" fill="#FFC999"></path>
        <g id="分组" transform="translate(89.500000, 826.234000)">
            <mask id="mask-4" fill="white">
                <use xlink:href="#path-3"></use>
            </mask>
            <g id="Clip-82"></g>
            <path d="M1.5945,0.4269 C1.5945,0.4269 3.033,8.8749 21.984,13.5039 C40.935,18.1329 52.044,12.5454 62.2605,14.0319 C81.357,16.8099 90.6111514,14.5254 90.6111514,14.5254 C90.6111514,14.5254 90.7215,17.5749 88.0455,20.8449 C83.916,25.8894 67.344,18.8289 55.7955,20.4969 C47.439,21.7044 41.1315,21.9129 28.056,21.0819 C14.9775,20.2494 0.636,12.0639 0.0915,7.4079 C-0.4515,2.7504 1.5945,0.4269 1.5945,0.4269" id="Fill-81" fill="#96A7CA" mask="url(#mask-4)"></path>
        </g>
        <path d="M179.35285,841.26025 C179.35285,841.26025 174.53935,842.39875 159.77635,841.54075 C156.24685,841.33525 152.74435,841.25275 146.42185,841.50025 C136.70335,841.88125 105.18385,846.03925 92.09635,829.74775 C90.42835,826.18675 92.11285,823.12675 94.15585,820.98925 C96.10135,818.95525 98.77735,817.78975 101.58985,817.68625 C110.10985,817.37725 130.46185,816.67825 144.20935,805.46575 C145.82035,804.15175 148.05235,803.96575 149.85085,805.00525 C152.02735,806.26075 154.71535,808.33075 156.15385,811.40125 C157.35085,813.95725 149.96485,820.03225 151.84735,820.99225 C157.02085,823.63225 166.68985,824.89075 173.77135,822.79525 C179.70235,821.04025 183.75235,818.86525 183.75235,818.86525 C183.75235,818.86525 184.17835,834.08725 179.35285,841.26025" id="Fill-83" fill="#4E5C93"></path>
        <path d="M99.1302904,822.037759 C99.4397858,821.762467 99.9138493,821.790195 100.189141,822.09969 L100.257923,822.172549 C100.304898,822.220592 100.370846,822.285717 100.456205,822.366399 C100.702783,822.599468 101.00736,822.861663 101.371989,823.145951 C102.426696,823.96827 103.746301,824.794523 105.347683,825.568573 C109.509367,827.580182 114.782083,828.875814 121.274606,829.104113 C121.688564,829.118669 122.012343,829.466049 121.997787,829.880006 C121.983231,830.293964 121.635851,830.617743 121.221894,830.603187 C114.522086,830.367599 109.044932,829.021731 104.694896,826.919081 C102.996521,826.098147 101.586832,825.215489 100.449687,824.328897 C99.7554301,823.787609 99.3005573,823.357657 99.068359,823.09661 C98.7930674,822.787114 98.820795,822.313051 99.1302904,822.037759 Z" id="Stroke-85" fill="#96A7CA" fill-rule="nonzero"></path>
        <path d="M136.92886,810.494393 C137.146712,810.142096 137.60891,810.033107 137.961207,810.25096 L138.157526,810.377693 C138.380785,810.526817 138.682507,810.742843 139.041489,811.023366 C139.833514,811.642286 140.624791,812.363843 141.364819,813.183473 C142.678764,814.638746 143.687814,816.244022 144.266682,817.990941 C144.396971,818.38413 144.183848,818.808493 143.790659,818.938782 C143.39747,819.069071 142.973107,818.855948 142.842818,818.462759 C142.335586,816.932022 141.43545,815.500021 140.251474,814.188691 C139.573391,813.437669 138.845264,812.773697 138.117884,812.205294 C137.927661,812.056646 137.748073,811.922934 137.581812,811.804555 L137.265401,811.586768 C137.223836,811.559304 137.192534,811.539257 137.172293,811.52674 C136.819996,811.308888 136.711007,810.84669 136.92886,810.494393 Z" id="Stroke-87" fill="#96A7CA" fill-rule="nonzero"></path>
        <path d="M278.165502,614.518425 C278.467726,614.446519 278.771018,614.633229 278.842925,614.935452 L279.032883,615.775611 L279.270368,616.884252 C279.325747,617.149064 279.382783,617.426034 279.441319,617.714882 L279.530226,618.157027 C280.044081,620.732125 280.557792,623.638687 281.037191,626.816116 C283.041387,640.099809 283.841121,653.713812 282.740371,666.432657 C282.680454,667.124987 282.614908,667.812648 282.543663,668.495519 C282.511427,668.804502 282.234814,669.02885 281.925831,668.996613 C281.616848,668.964377 281.3925,668.687764 281.424737,668.378781 C281.495291,667.702526 281.56021,667.021443 281.619561,666.335657 C282.711628,653.717141 281.916826,640.187113 279.924781,626.983952 L279.661618,625.287851 C279.306788,623.063073 278.937267,620.987005 278.566182,619.083048 L278.426977,618.377178 C278.307952,617.780701 278.194627,617.231112 278.088269,616.730664 L277.748475,615.195848 C277.676569,614.893624 277.863279,614.590332 278.165502,614.518425 Z" id="Stroke-89" fill="#1D39C4" fill-rule="nonzero"></path>
        <path d="M373.61635,464.962596 C373.92008,464.955186 374.177602,465.170477 374.232229,465.459633 L374.242708,465.55855 L375.073,498.75 L418.40065,498.7501 C418.704476,498.7501 418.956528,498.971769 419.0039,499.262202 L419.0119,499.36135 C419.0119,499.665176 418.790231,499.917228 418.499798,499.9646 L418.40065,499.9726 L374.47765,499.9726 C374.179189,499.9726 373.929724,499.758412 373.876764,499.473896 L373.866592,499.37665 L373.020396,465.58915 C373.012141,465.251672 373.278872,464.971242 373.61635,464.962596 Z" id="Stroke-91" fill="#96A7CA" fill-rule="nonzero"></path>
        <path d="M284.84215,579.93715 L284.84215,579.93715 C286.49965,584.27515 291.05665,586.96765 295.95865,586.50715 L395.63515,580.03015 C406.65415,578.99665 416.62615,569.21665 412.54765,556.22365 C410.80615,545.93515 400.09615,539.42365 389.33965,542.11315 L292.51165,566.32615 C286.22965,567.89815 282.65965,574.23115 284.84215,579.93715" id="Fill-93" fill="#FFC999"></path>
        <polygon id="Fill-95" fill="#BAC9E5" points="245.34265 633.75415 333.61165 626.82865 249.27415 593.86765 175.99915 606.80815"></polygon>
        <polygon id="Fill-97" fill="#4E5C93" points="242.5345 627.41785 306.643 622.38685 246.8935 598.44835 192.172 607.84735"></polygon>
        <polygon id="Fill-99" fill="#253368" points="333.20395 631.32325 333.62695 626.85925 243.59695 633.21325 244.72795 638.10325"></polygon>
        <path d="M234.492651,601.475744 C234.56821,601.311029 234.748088,601.227199 234.917986,601.266665 L234.989856,601.291251 L283.378356,623.488251 C283.566601,623.574604 283.649202,623.79721 283.562849,623.985456 C283.48729,624.150171 283.307412,624.234001 283.137514,624.194535 L283.065644,624.169949 L234.677144,601.972949 C234.488899,601.886596 234.406298,601.66399 234.492651,601.475744 Z" id="Stroke-101" fill="#BAC9E5" fill-rule="nonzero"></path>
        <path d="M241.309079,599.348478 C241.381867,599.18252 241.560314,599.095687 241.73085,599.1323 L241.803122,599.155679 L295.993622,622.923179 C296.183288,623.006365 296.269607,623.227555 296.186421,623.417222 C296.113633,623.58318 295.935186,623.670013 295.76465,623.6334 L295.692378,623.610021 L241.501878,599.842521 C241.312212,599.759335 241.225893,599.538145 241.309079,599.348478 Z" id="Stroke-103" fill="#BAC9E5" fill-rule="nonzero"></path>
        <path d="M233.382755,605.945826 C233.460594,605.782176 233.641619,605.700852 233.810953,605.742673 L233.882474,605.768255 L274.466474,625.071755 C274.653502,625.160714 274.733003,625.384446 274.644045,625.571474 C274.566206,625.735124 274.385181,625.816448 274.215847,625.774627 L274.144326,625.749045 L233.560326,606.445545 C233.373298,606.356586 233.293797,606.132854 233.382755,605.945826 Z" id="Stroke-105" fill="#BAC9E5" fill-rule="nonzero"></path>
        <path d="M221.828105,606.185976 C221.905944,606.022326 222.086969,605.941002 222.256303,605.982823 L222.327824,606.008405 L262.911824,625.311905 C263.098852,625.400864 263.178353,625.624596 263.089395,625.811624 C263.011556,625.975274 262.830531,626.056598 262.661197,626.014777 L262.589676,625.989195 L222.005676,606.685695 C221.818648,606.596736 221.739147,606.373004 221.828105,606.185976 Z" id="Stroke-107" fill="#BAC9E5" fill-rule="nonzero"></path>
        <path d="M211.096655,607.153476 C211.174494,606.989826 211.355519,606.908502 211.524853,606.950323 L211.596374,606.975905 L252.180374,626.279405 C252.367402,626.368364 252.446903,626.592096 252.357945,626.779124 C252.280106,626.942774 252.099081,627.024098 251.929747,626.982277 L251.858226,626.956695 L211.274226,607.653195 C211.087198,607.564236 211.007697,607.340504 211.096655,607.153476 Z" id="Stroke-109" fill="#BAC9E5" fill-rule="nonzero"></path>
        <path d="M296.503284,618.826964 C296.71019,618.817842 296.885314,618.978178 296.894807,619.185084 C296.902418,619.366126 296.780658,619.522837 296.611483,619.565296 L296.536316,619.576236 L241.825316,621.988236 C241.61841,621.997358 241.443286,621.837022 241.433793,621.630116 C241.426182,621.449074 241.547942,621.292363 241.717117,621.249904 L241.792284,621.238964 L296.503284,618.826964 Z" id="Stroke-111" fill="#BAC9E5" fill-rule="nonzero"></path>
        <path d="M284.818284,613.641464 C285.02519,613.632342 285.200314,613.792678 285.209807,613.999584 C285.217418,614.180626 285.095658,614.337337 284.926483,614.379796 L284.851316,614.390736 L230.140316,616.802736 C229.93341,616.811858 229.758286,616.651522 229.748793,616.444616 C229.741182,616.263574 229.862942,616.106863 230.032117,616.064404 L230.107284,616.053464 L284.818284,613.641464 Z" id="Stroke-113" fill="#BAC9E5" fill-rule="nonzero"></path>
        <path d="M270.143484,609.639464 C270.35039,609.630342 270.525515,609.790678 270.535007,609.997584 C270.542617,610.178627 270.420858,610.335337 270.251683,610.377796 L270.176516,610.388736 L215.464016,612.800736 C215.25711,612.809858 215.081985,612.649522 215.072493,612.442616 C215.064883,612.261573 215.186642,612.104863 215.355817,612.062404 L215.430984,612.051464 L270.143484,609.639464 Z" id="Stroke-115" fill="#BAC9E5" fill-rule="nonzero"></path>
        <path d="M260.657184,601.346264 C260.86409,601.337142 261.039215,601.497478 261.048707,601.704384 C261.056317,601.885427 260.934558,602.042137 260.765383,602.084596 L260.690216,602.095536 L205.977716,604.507536 C205.77081,604.516658 205.595685,604.356322 205.586193,604.149416 C205.578583,603.968373 205.700342,603.811663 205.869517,603.769204 L205.944684,603.758264 L260.657184,601.346264 Z" id="Stroke-117" fill="#BAC9E5" fill-rule="nonzero"></path>
        <polygon id="Fill-119" fill="#253368" points="244.657 638.101 240.712 638.1325 175.1575 611.7145 156.9505 495.9385 228.2125 516.1"></polygon>
        <path d="M240.5716,638.1274 L171.4396,610.3024 C170.8066,610.0474 170.3551,609.4789 170.2486,608.8069 L152.6296,497.5339 C152.4091,496.1344 153.7126,494.9794 155.0746,495.3664 L222.6616,514.5889 C223.4026,514.7989 223.9486,515.4289 224.0506,516.1924 L240.5716,638.1274 Z" id="Fill-121" fill="#4E5C93"></path>
        <path d="M292.8109,587.63785 C285.6844,592.64185 263.6239,589.36135 263.6239,589.36135 L248.9164,596.63785 C246.6439,597.54835 246.0994,596.03185 244.9744,596.03185 C241.9429,596.03185 241.9429,592.84885 241.9429,592.84885 C240.8974,592.35235 239.2144,593.15185 238.7584,590.27035 C238.7584,590.27035 236.6359,590.11885 236.484058,587.54185 C236.4049,586.17985 250.2244,566.52085 250.2244,566.52085 L270.8479,567.08335 C270.8479,567.08335 300.9754,567.64735 304.3549,574.40485 C307.7329,581.16235 292.8109,587.63785 292.8109,587.63785" id="Fill-123" fill="#FFC999"></path>
        <path d="M262.069967,576.850672 C262.364102,576.745664 262.687671,576.898982 262.792678,577.193117 C262.887185,577.457839 262.772448,577.746402 262.534131,577.878017 L262.450233,577.915828 L254.091,580.9 L243.853557,592.039959 C243.787322,592.104436 243.685065,592.220124 243.575459,592.372108 L243.492324,592.492667 C243.206745,592.926069 243.084362,593.342287 243.177753,593.682107 C243.335273,594.25527 244.117048,594.771845 245.796034,595.107738 C246.102283,595.169005 246.300879,595.466935 246.239612,595.773184 C246.178345,596.079433 245.880415,596.278029 245.574166,596.216762 C243.52072,595.805956 242.381656,595.053295 242.087188,593.981822 C241.890204,593.265059 242.100751,592.548998 242.547914,591.870372 C242.706143,591.630241 242.864568,591.437716 242.979386,591.316278 L243.042693,591.252134 L253.352193,580.032134 C253.393613,579.987055 253.441936,579.949154 253.495174,579.919746 L253.578467,579.882172 L262.069967,576.850672 Z" id="Stroke-125" fill="#DD936F" fill-rule="nonzero"></path>
        <path d="M257.012469,572.021322 C257.294316,571.886769 257.631874,572.006173 257.766428,572.288019 C257.887526,572.541681 257.802918,572.84047 257.57932,572.99578 L257.499731,573.041978 L250.945,576.17 L241.141386,588.383703 L241.066927,588.467128 L240.952235,588.604138 C240.803293,588.78699 240.654068,588.98959 240.515507,589.204729 C240.203368,589.689375 239.994988,590.161182 239.934481,590.573767 C239.807896,591.43693 240.335083,592.015925 242.03253,592.289347 C242.340873,592.339014 242.550571,592.629238 242.500903,592.93758 C242.451236,593.245923 242.161012,593.455621 241.85267,593.405953 C239.590529,593.041573 238.590536,591.943309 238.815451,590.409658 C238.903239,589.811044 239.172762,589.2008 239.564652,588.592327 C239.727537,588.339422 239.90129,588.103521 240.075327,587.889859 L240.233714,587.70181 L240.288082,587.642682 L250.144582,575.362182 C250.180053,575.317987 250.221863,575.279502 250.268525,575.247905 L250.341969,575.205822 L257.012469,572.021322 Z" id="Stroke-127" fill="#DD936F" fill-rule="nonzero"></path>
        <path d="M267.313698,581.98162 C267.620978,581.925755 267.915365,582.129568 267.97123,582.436848 C268.021508,582.7134 267.861448,582.979508 267.604926,583.07069 L267.516002,583.09438 L257.677,584.882 L247.012,595.253 L247.009905,595.272048 C247.00619,595.336483 247.011722,595.401917 247.028633,595.464192 L247.0628,595.554714 C247.222344,595.876175 247.752762,596.103509 248.902261,596.072688 C249.855245,596.048095 251.736348,595.198049 254.182596,593.744728 C254.684672,593.446444 255.204964,593.126238 255.739902,592.787199 C256.607365,592.237407 257.483049,591.657747 258.341369,591.070595 L259.481849,590.279181 L260.659509,589.435658 C260.73941,589.376814 260.833388,589.340031 260.932005,589.329003 L261.494831,589.273874 L262.381366,589.20097 C262.594215,589.18504 262.817405,589.169377 263.050491,589.154154 C265.701148,588.981038 268.647112,588.9218 271.71684,589.043947 L273.837196,589.141309 C282.796097,589.57068 288.029036,589.062588 294.126642,586.197034 L294.534481,586.002489 L294.743225,585.947253 L345.423725,582.567753 C345.73535,582.546973 346.004817,582.78275 346.025597,583.094375 C346.044299,583.374837 345.85519,583.621152 345.590007,583.682759 L345.498975,583.696247 L294.927,587.068 L294.605463,587.221708 C288.440401,590.119333 283.152831,590.684111 274.386219,590.298743 L271.907391,590.183693 L271.671866,590.174053 C268.644829,590.053604 265.737678,590.112062 263.124201,590.282749 L262.466456,590.328764 L261.447917,590.413949 L261.206,590.437 L260.411677,591.007068 C260.230538,591.135504 260.039917,591.269714 259.84075,591.408879 C258.702577,592.204155 257.51767,592.999489 256.345359,593.742491 C255.801591,594.087127 255.272108,594.412989 254.760269,594.717074 L254.117772,595.092832 C251.811422,596.41913 250.052062,597.174392 248.932007,597.203297 C247.386436,597.244737 246.436973,596.837803 246.049711,596.057517 C245.865277,595.685905 245.843408,595.30476 245.91294,594.955707 L245.941956,594.834401 C245.946787,594.817547 245.951535,594.802421 245.956076,594.789093 C245.975256,594.732811 246.003129,594.680086 246.038526,594.632766 L246.09712,594.566071 L257.01262,583.952071 C257.073019,583.89334 257.14551,583.849098 257.224605,583.822171 L257.305698,583.80112 L267.313698,581.98162 Z" id="Stroke-129" fill="#DD936F" fill-rule="nonzero"></path>
        <path d="M383.329212,542.042194 C383.631177,541.96245 383.940613,542.142597 384.020356,542.444562 C384.092125,542.71633 383.953384,542.99415 383.704785,543.10513 L383.617988,543.135706 L288.732488,568.193206 L288.571524,568.211707 L250.525,567.095 L236.982877,587.80893 L236.936208,587.905724 C236.917934,587.946613 236.897405,587.995651 236.876009,588.051407 L236.843439,588.139901 C236.748324,588.409496 236.695123,588.675572 236.702356,588.904939 C236.722167,589.533145 237.19567,589.853529 238.703807,589.708062 C239.014681,589.678077 239.291002,589.905783 239.320988,590.216657 C239.350973,590.527531 239.123267,590.803852 238.812393,590.833838 C236.70968,591.036654 235.614653,590.295731 235.570674,588.940587 C235.559642,588.551299 235.639003,588.154386 235.776871,587.763609 C235.833624,587.602748 235.890983,587.467876 235.950487,587.348132 L236.010763,587.233028 L249.752263,566.212028 C249.841988,566.074771 249.985796,565.984607 250.145067,565.961703 L250.242176,565.956193 L288.52,567.079 L383.329212,542.042194 Z" id="Stroke-131" fill="#DD936F" fill-rule="nonzero"></path>
        <path d="M364.029143,434.576727 C364.264042,434.33427 364.651016,434.328144 364.893473,434.563043 C365.13593,434.797942 365.142056,435.184916 364.907157,435.427373 C360.007643,440.484527 354.19796,443.768089 347.675218,445.487178 C338.881803,447.804709 329.49834,447.180686 320.48817,444.740933 C318.733073,444.265692 317.138587,443.75629 315.733999,443.246422 L315.170953,443.038035 C314.992793,442.970758 314.824235,442.905755 314.665513,442.843295 L313.971647,442.55955 C313.662367,442.424238 313.521338,442.063826 313.65665,441.754547 C313.791962,441.445267 314.152374,441.304238 314.461653,441.43955 L314.890947,441.617321 L315.351676,441.798568 C315.596668,441.892974 315.863421,441.99285 316.151135,442.09729 C317.524661,442.595882 319.086767,443.09494 320.80769,443.560927 C329.629057,445.949557 338.807808,446.559966 347.363663,444.305044 C353.676694,442.641225 359.289352,439.469019 364.029143,434.576727 Z" id="Stroke-133" fill="#96A7CA" fill-rule="nonzero"></path>
    </g>
</svg>