<svg xmlns="http://www.w3.org/2000/svg" xmlns:xlink="http://www.w3.org/1999/xlink" width="512" height="1024" version="1.1" viewBox="0 0 512 1024"><title>2.人物组件/9.互联网人群/坐姿/打招呼</title><desc>Created with Sketch.</desc><defs><polygon id="path-1" points="0 1.046 88.113 1.046 88.113 34.5 0 34.5"/><polygon id="path-3" points="1.324 1.046 89.438 1.046 89.438 34.5 1.324 34.5"/></defs><g id="2.人物组件/9.互联网人群/坐姿/打招呼" fill="none" fill-rule="evenodd" stroke="none" stroke-width="1"><path id="Fill-1" fill="#FFC999" d="M349.34855,454.82855 C349.34855,454.82855 345.47555,423.91505 338.01455,396.16955 C331.21055,370.86905 321.45305,349.69055 305.25605,353.30705 C284.92055,357.85055 296.12255,392.81105 300.41855,410.89055 C303.50855,423.90005 312.48605,450.44555 318.23705,463.95755 C327.40955,485.50955 354.85655,474.35705 349.34855,454.82855"/><path id="Fill-3" fill="#E4EBF7" d="M302.14985,418.1825 C297.85535,400.103 280.00685,358.94 305.19185,353.033 C322.96085,348.866 332.70335,371.384 340.22585,405.473 L302.14985,418.1825 Z"/><path id="Fill-5" fill="#FFC999" d="M161.31965,452.9411 C161.31965,452.9411 164.96015,421.9991 172.21115,394.1981 C178.82315,368.8466 188.42165,347.5961 204.64415,351.0911 C225.01415,355.4801 214.07765,390.5246 209.91665,408.6356 C206.92415,421.6691 198.14765,448.2821 192.49865,461.8361 C183.48965,483.4556 155.95865,472.5101 161.31965,452.9411"/><path id="Fill-7" fill="#E4EBF7" d="M208.2401,415.9406 C212.3981,397.8296 231.1886,357.1511 204.7076,350.8166 C186.9581,346.5701 177.3341,369.3746 170.0711,403.5191 L208.2401,415.9406 Z"/><path id="Fill-9" fill="#FFC999" d="M163.82315,642.4544 C217.19615,604.8419 252.34265,562.7324 252.34265,562.7324 C252.34265,562.7324 276.88565,513.2354 233.42015,515.8949 C212.37065,517.1819 181.38515,547.7504 133.57415,602.7569 C133.57415,602.7569 109.03565,626.1494 126.86465,644.8994 C141.78965,660.5924 163.82315,642.4544 163.82315,642.4544"/><path id="Fill-11" fill="#597EF7" d="M196.4687,618.5336 C180.6902,596.9051 154.7882,576.0686 154.7882,576.0686 C169.1972,561.4361 188.4527,540.6146 243.8492,494.4371 C285.7877,504.5921 268.2722,555.2921 268.2722,555.2921 L196.4687,618.5336 Z"/><path id="Stroke-13" fill="#1D39C4" fill-rule="nonzero" d="M257.793715,561.571446 C258.022749,561.361558 258.378566,561.37708 258.588454,561.606115 C258.775021,561.809701 258.783486,562.113461 258.622206,562.325861 L258.553785,562.400854 L196.848285,618.947854 C196.596006,619.179043 196.197475,619.1333 196.004138,618.850964 L195.591961,618.261897 C195.249895,617.778484 194.84575,617.217329 194.38175,616.584916 L193.560277,615.475426 C192.431316,613.964046 191.168463,612.326638 189.78084,610.589769 C184.82458,604.386081 179.301782,598.182334 173.355811,592.393853 C167.516496,586.709201 161.573683,581.731808 155.597578,577.661042 C155.340825,577.486149 155.274464,577.136231 155.449358,576.879478 C155.624251,576.622725 155.974169,576.556364 156.230922,576.731258 C162.265266,580.841694 168.257224,585.860248 174.140559,591.587754 C180.122804,597.411549 185.676077,603.649528 190.65978,609.887565 C192.404239,612.071082 193.953137,614.098964 195.288799,615.919418 L195.945349,616.821651 L196.561,617.684 L257.793715,561.571446 Z"/><path id="Stroke-15" fill="#1D39C4" fill-rule="nonzero" d="M166.585973,566.016986 C166.772681,565.768692 167.12532,565.718766 167.373614,565.905473 L167.867499,566.28439 C168.267137,566.59428 168.730346,566.959463 169.251835,567.377826 C170.740407,568.572027 172.398516,569.953551 174.183834,571.50552 C179.284133,575.939184 184.384347,580.851522 189.14604,586.108263 C196.102426,593.787866 201.729351,601.540364 205.550165,609.181992 C205.689097,609.459855 205.576471,609.797734 205.298608,609.936665 C205.020745,610.075597 204.682866,609.962971 204.543935,609.685108 C200.774417,602.146073 195.205251,594.473153 188.312254,586.863528 C183.582999,581.642598 178.514339,576.760653 173.445764,572.354564 C171.671977,570.81262 170.025202,569.44054 168.547852,568.255341 L167.956245,567.783642 L167.178118,567.173423 C166.942012,566.990339 166.780034,566.866699 166.697486,566.804627 C166.449192,566.617919 166.399266,566.26528 166.585973,566.016986 Z"/><path id="Fill-17" fill="#FFC999" d="M176.5877,676.7882 C178.2677,726.3167 174.6677,760.6067 183.0572,809.3012 C184.0757,815.2082 175.6547,817.2002 167.5652,818.1212 C152.3027,835.9847 119.6687,846.5282 113.9387,840.8237 C110.4977,837.3977 119.7557,820.5182 130.4762,815.6987 C154.4342,804.9257 148.6157,776.0297 148.6157,776.0297 C148.6157,776.0297 131.9192,698.5967 121.9712,641.8847 C121.9712,641.8847 119.1662,603.6962 141.0047,601.3712 C178.8107,597.3452 176.0147,659.8832 176.5877,676.7882"/><g id="分组" transform="translate(99.500000, 819.344000)"><mask id="mask-2" fill="#fff"><use xlink:href="#path-1"/></mask><path id="Fill-19" fill="#96A7CA" d="M0.1923,23.4813 C0.1923,23.4813 4.8678,30.6618 24.0993,27.3798 C43.3278,24.0963 51.3018,14.5548 61.2693,11.8578 C79.8963,6.8193 87.4803,1.0458 87.4803,1.0458 C87.4803,1.0458 88.7928,3.7998 87.6378,7.8633 C85.8528,14.1348 67.8393,14.2413 57.9048,20.3613 C50.7183,24.7893 45.0123,27.4863 32.6808,31.9203 C20.3493,36.3543 3.9363,34.5423 1.5873,30.4848 C-0.7632,26.4273 0.1923,23.4813 0.1923,23.4813" mask="url(#mask-2)"/></g><path id="Fill-21" fill="#4E5C93" d="M186.48275,821.15075 C186.48275,821.15075 182.51825,824.10875 168.63125,829.18775 C165.30875,830.40125 162.06275,831.71675 156.35825,834.45725 C147.59375,838.66775 120.32075,855.01025 101.83625,845.26025 C98.89025,842.65475 99.22175,839.17775 100.24775,836.40425 C101.22275,833.76425 103.21475,831.63125 105.75725,830.41925 C113.45075,826.74875 131.85125,818.02175 140.01125,802.26875 C140.96525,800.42375 142.94075,799.36625 145.00325,799.60325 C147.50075,799.89275 150.79025,800.72375 153.32975,802.96925 C155.44475,804.83975 151.07825,813.34925 153.18875,813.48125 C158.98625,813.84725 168.35825,811.16225 174.02375,806.42375 C178.76825,802.45625 181.62125,798.85175 181.62125,798.85175 C181.62125,798.85175 188.06075,812.65025 186.48275,821.15075"/><path id="Stroke-23" fill="#96A7CA" fill-rule="nonzero" d="M128.399525,833.181899 C128.725787,833.054032 129.093933,833.214862 129.221801,833.541125 C129.349668,833.867387 129.188838,834.235533 128.862575,834.363401 C120.174027,837.76859 113.063213,838.221182 107.702192,836.936925 C106.699173,836.696647 106.00901,836.452364 105.641531,836.281497 C105.323776,836.13375 105.185957,835.756386 105.333703,835.438631 C105.48145,835.120876 105.858814,834.983057 106.176569,835.130803 L106.292617,835.180351 C106.369924,835.211598 106.476096,835.252101 106.610869,835.299804 C106.996548,835.436315 107.459261,835.573826 107.997822,835.702841 C113.108903,836.927224 119.954912,836.491486 128.399525,833.181899 Z"/><path id="Stroke-25" fill="#96A7CA" fill-rule="nonzero" d="M136.160533,809.257466 L136.413566,809.300806 C136.486679,809.314544 136.570712,809.33112 136.664992,809.350736 C137.052021,809.43126 137.481804,809.537064 137.94388,809.671369 C139.263617,810.054958 140.583781,810.591331 141.820597,811.308372 C143.019703,812.003551 144.07733,812.834774 144.952734,813.815866 C145.186038,814.077337 145.163204,814.47843 144.901734,814.711734 C144.640263,814.945038 144.23917,814.922204 144.005866,814.660734 C143.225447,813.786095 142.272778,813.037362 141.184124,812.406217 C140.043758,811.745092 138.81694,811.246645 137.589695,810.88994 C137.26767,810.796341 136.963296,810.71783 136.681116,810.653191 L136.406502,810.59313 C136.19648,810.549434 136.04976,810.523755 135.977067,810.513134 C135.630324,810.462471 135.390304,810.140311 135.440966,809.793567 C135.487023,809.478347 135.757459,809.251326 136.066761,809.250718 L136.160533,809.257466 Z"/><path id="Fill-27" fill="#FFC999" d="M346.6136,642.4544 C293.2421,604.8419 258.0956,562.7324 258.0956,562.7324 C258.0956,562.7324 233.5511,513.2354 277.0181,515.8949 C298.0676,517.1819 329.0531,547.7504 376.8626,602.7569 C376.8626,602.7569 401.4026,626.1494 383.5736,644.8994 C368.6486,660.5924 346.6136,642.4544 346.6136,642.4544"/><path id="Fill-29" fill="#597EF7" d="M313.96955,618.5336 C329.74655,596.9051 355.65005,576.0686 355.65005,576.0686 C341.24105,561.4361 321.98555,540.6146 266.58905,494.4371 C224.64905,504.5921 242.16455,555.2921 242.16455,555.2921 L313.96955,618.5336 Z"/><path id="Stroke-31" fill="#1D39C4" fill-rule="nonzero" d="M241.742278,554.920021 C241.924792,554.712793 242.225914,554.671959 242.454312,554.809652 L242.536179,554.869678 L313.868,617.695 L314.293795,617.097922 L315.148981,615.919553 L315.975877,614.802805 C317.112146,613.281724 318.382621,611.634518 319.77825,609.887705 C324.762173,603.649672 330.315554,597.411697 336.297743,591.587906 C342.181023,585.860403 348.172766,580.841852 354.206713,576.731417 C354.463461,576.556516 354.813382,576.622866 354.988283,576.879613 C355.163184,577.136361 355.096834,577.486282 354.840087,577.661183 C348.864369,581.73195 342.921762,586.709346 337.082494,592.394001 C331.136573,598.182486 325.61366,604.386236 320.657174,610.589928 C319.096028,612.543907 317.692785,614.372006 316.460442,616.036398 L316.056008,616.585081 C315.669316,617.112092 315.32419,617.589619 315.02192,618.013908 L314.4335,618.851133 C314.261758,619.10191 313.927374,619.166564 313.677459,619.014265 L313.597621,618.955422 L241.792621,555.713922 C241.55949,555.508594 241.536951,555.153152 241.742278,554.920021 Z"/><path id="Stroke-33" fill="#1D39C4" fill-rule="nonzero" d="M343.850767,566.016974 C344.037482,566.265263 343.987565,566.617903 343.739276,566.804617 L343.258656,567.173425 L342.480548,567.783664 C342.292895,567.932318 342.095585,568.089601 341.888956,568.255377 L340.879447,569.073034 C339.673489,570.058833 338.370744,571.155399 336.991165,572.354724 C331.922715,576.760943 326.854181,581.643026 322.125043,586.864093 C315.232561,594.473538 309.663737,602.146264 305.894315,609.685108 C305.755384,609.962971 305.417505,610.075597 305.139642,609.936665 C304.861779,609.797734 304.749153,609.459855 304.888085,609.181992 C308.708798,601.540565 314.335375,593.788267 321.291237,586.108849 C326.052813,580.85197 331.1529,575.939495 336.253072,571.5057 C338.038346,569.953685 339.696414,568.57212 341.184949,567.377881 L342.321888,566.47697 L343.063124,565.905483 C343.311413,565.718768 343.664053,565.768685 343.850767,566.016974 Z"/><path id="Fill-35" fill="#FFC999" d="M333.84905,676.7882 C332.17055,726.3167 335.77055,760.6067 327.38105,809.3012 C326.36255,815.2082 334.78355,817.2002 342.87305,818.1212 C358.13405,835.9847 390.76805,846.5282 396.49955,840.8237 C399.94055,837.3977 390.68255,820.5182 379.96205,815.6987 C356.00405,804.9257 361.82255,776.0297 361.82255,776.0297 C361.82255,776.0297 378.51755,698.5967 388.46705,641.8847 C388.46705,641.8847 391.27055,603.6962 369.43355,601.3712 C331.62755,597.3452 334.42355,659.8832 333.84905,676.7882"/><g id="分组" transform="translate(321.500000, 819.344000)"><mask id="mask-4" fill="#fff"><use xlink:href="#path-3"/></mask><path id="Fill-37" fill="#96A7CA" d="M89.24595,23.4813 C89.24595,23.4813 84.56895,30.6618 65.33895,27.3798 C46.11045,24.0963 38.13645,14.5548 28.16895,11.8578 C9.54045,6.8193 1.95795,1.0458 1.95795,1.0458 C1.95795,1.0458 0.64395,3.7998 1.80045,7.8633 C3.58545,14.1348 21.59745,14.2413 31.53345,20.3613 C38.71995,24.7893 44.42595,27.4863 56.75745,31.9203 C69.08895,36.3543 85.50045,34.5423 87.85095,30.4848 C90.20145,26.4273 89.24595,23.4813 89.24595,23.4813" mask="url(#mask-4)"/></g><path id="Fill-39" fill="#4E5C93" d="M323.9555,821.15075 C323.9555,821.15075 327.9185,824.10875 341.807,829.18775 C345.128,830.40125 348.3755,831.71675 354.0785,834.45725 C362.8445,838.66775 390.1175,855.01025 408.6005,845.26025 C411.548,842.65475 411.2165,839.17775 410.1905,836.40425 C409.2155,833.76425 407.222,831.63125 404.681,830.41925 C396.986,826.74875 378.587,818.02175 370.427,802.26875 C369.473,800.42375 367.4975,799.36625 365.4335,799.60325 C362.9375,799.89275 359.648,800.72375 357.1085,802.96925 C354.992,804.83975 359.3585,813.34925 357.2495,813.48125 C351.452,813.84725 342.08,811.16225 336.4145,806.42375 C331.67,802.45625 328.8155,798.85175 328.8155,798.85175 C328.8155,798.85175 322.376,812.65025 323.9555,821.15075"/><path id="Stroke-41" fill="#96A7CA" fill-rule="nonzero" d="M381.216457,833.541104 C381.344337,833.214846 381.712488,833.054028 382.038746,833.181907 C390.482471,836.491486 397.328528,836.927224 402.440182,835.702837 C402.978808,835.573821 403.441587,835.436308 403.82733,835.299794 L404.145645,835.180336 C404.197194,835.159503 404.235912,835.142783 404.261721,835.130785 C404.579487,834.98306 404.956841,835.120906 405.104565,835.438671 C405.25229,835.756437 405.114444,836.133791 404.796679,836.281515 L404.564261,836.381528 C404.167804,836.541072 403.556512,836.74034 402.735782,836.936929 C397.374195,838.221181 390.263329,837.768589 381.575654,834.363393 C381.249396,834.235513 381.088578,833.867362 381.216457,833.541104 Z"/><path id="Stroke-43" fill="#96A7CA" fill-rule="nonzero" d="M374.277743,809.257462 C374.624489,809.206814 374.94664,809.446848 374.997288,809.793593 C375.047936,810.140339 374.807902,810.46249 374.461157,810.513138 L374.252662,810.549149 C374.189593,810.561048 374.115708,810.575641 374.031695,810.593115 C373.675837,810.66713 373.277833,810.765079 372.848447,810.889842 C371.62115,811.246444 370.394281,811.744741 369.253869,812.40566 C368.164634,813.03692 367.211533,813.785837 366.430884,814.660734 C366.19758,814.922204 365.796487,814.945038 365.535016,814.711734 C365.273546,814.47843 365.250712,814.077337 365.484016,813.815866 C366.359701,812.834459 367.417817,812.003024 368.617564,811.307718 C369.85441,810.590911 371.174604,810.05471 372.49437,809.67124 C372.840934,809.570542 373.169333,809.485871 373.475152,809.415868 L373.773282,809.350704 C374.008985,809.30168 374.180639,809.271646 374.277743,809.257462 Z"/><path id="Fill-45" fill="#FFC999" d="M274.7792,310.8167 L274.8317,293.4962 C274.8317,293.4962 288.1337,285.0182 289.8347,293.8082 C291.5687,302.7707 285.7082,310.3142 279.8612,311.3417 C276.0197,312.0152 274.7792,310.8167 274.7792,310.8167"/><path id="Fill-47" fill="#FFC999" d="M232.69865,310.8167 L232.64615,293.4962 C232.64615,293.4962 219.34415,285.0182 217.64315,293.8082 C215.90915,302.7707 221.79365,311.4407 227.61815,311.3417 C231.51515,311.2757 232.69865,310.8167 232.69865,310.8167"/><path id="Fill-49" fill="#FFC999" d="M280.35875,298.53695 C278.11775,317.53295 272.33375,331.62095 253.32725,331.62095 C233.47775,331.62095 228.83225,312.89645 226.72025,296.98895 C222.77225,267.24695 240.32375,260.10395 255.01775,260.10395 C269.71175,260.10395 283.31525,273.47795 280.35875,298.53695"/><path id="Fill-51" fill="#FFC999" d="M225.83735,344.5829 C225.83735,344.5829 232.86635,363.1559 255.01835,363.1559 C280.73135,363.1559 281.98235,343.8899 281.98235,343.8899 L276.00185,341.9744 C274.61585,341.5289 273.63635,340.2974 273.52685,338.8439 C273.16085,333.9449 272.33885,321.8939 271.83035,306.0644 C249.74435,298.8104 237.52835,305.4389 237.52835,305.4389 C237.52835,305.4389 236.29385,324.6554 235.14935,338.5484 C235.03835,339.9119 234.16235,341.0924 232.88585,341.5874 C230.69735,342.4394 227.35985,343.7744 225.83735,344.5829"/><path id="Fill-53" fill="#253368" d="M275.6288,285.0245 C270.2963,281.387 268.9553,274.886 268.9553,274.886 C269.3873,275.0855 255.4358,282.122 248.2613,283.7555 C242.1383,285.149 238.1483,283.4885 245.3033,275.7305 C237.4028,280.1375 232.4288,283.5545 229.8578,285.4565 C228.5003,286.4615 227.6903,288.0305 227.6603,289.7195 L227.4248,302.6195 L222.3563,290.513 C222.3563,290.513 218.6963,291.9215 217.0073,288.26 C214.8683,283.6265 220.8083,274.253 220.8083,274.253 C220.8083,274.253 215.7173,275.747 216.4448,270.2405 C217.1708,264.734 231.0863,257.57 231.0863,257.57 C231.0863,257.57 226.8473,257.345 228.4463,253.0865 C230.0453,248.828 246.8513,249.968 246.8513,249.968 C246.8513,249.968 244.0358,245.4635 250.1003,245.021 C256.9583,244.52 268.5338,253.3475 268.5338,253.3475 C268.5338,253.3475 276.9788,245.4635 278.6213,258.4925 C287.1158,259.823 290.4938,267.425 284.3003,269.678 C290.4938,275.027 290.9873,278.546 284.7923,279.11 C288.1718,283.6145 289.2263,289.8785 282.8933,292.202 L279.5138,302.9015 L278.8898,290.828 C278.7683,288.491 277.5623,286.343 275.6288,285.0245"/><path id="Stroke-55" fill="#253368" fill-rule="nonzero" d="M260.538885,287.617843 C263.402795,286.921885 266.357996,286.675782 269.15449,287.153345 C270.320147,287.352406 271.425899,287.675793 272.4604,288.135082 C273.028269,288.3872 273.284236,289.051931 273.032118,289.6198 C272.78,290.187669 272.115269,290.443636 271.5474,290.191518 C270.690196,289.810944 269.763462,289.539913 268.775736,289.371237 C266.325133,288.952743 263.661095,289.174598 261.070195,289.804212 C260.605931,289.917033 260.174891,290.036113 259.783011,290.156102 L259.252167,290.326938 C259.108915,290.375485 259.005554,290.412929 258.945474,290.43615 C258.365934,290.660142 257.714543,290.371914 257.49055,289.792374 C257.266558,289.212834 257.554786,288.561443 258.134326,288.33745 L258.399708,288.240799 C258.511957,288.201627 258.647539,288.155939 258.805087,288.105061 C259.32107,287.93843 259.902596,287.772468 260.538885,287.617843 Z"/><path id="Stroke-57" fill="#DD936F" fill-rule="nonzero" d="M246.725795,288.758618 C246.965184,288.626975 247.259142,288.689989 247.425525,288.894763 L247.481582,288.978095 L249.803582,293.200595 C249.834659,293.257108 249.855557,293.318371 249.865583,293.381594 L249.87238,293.47755 L249.667,306.382 L253.712963,307.140273 C253.984841,307.191228 254.173213,307.43186 254.166896,307.699698 L254.157427,307.789763 C254.106472,308.061641 253.86584,308.250013 253.598002,308.24385 L253.507937,308.234227 L249.001937,307.389727 C248.765054,307.345331 248.587258,307.154931 248.553683,306.922766 L248.54802,306.83395 L248.757,293.606 L246.506318,289.514405 C246.374675,289.275016 246.437689,288.981058 246.642463,288.814675 L246.725795,288.758618 Z"/><path id="Fill-59" fill="#253368" d="M243.7553,297.4112 C243.7553,299.7437 242.4323,301.6337 240.7988,301.6337 C239.1653,301.6337 237.8438,299.7437 237.8438,297.4112 C237.8438,295.0787 239.1653,293.1872 240.7988,293.1872 C242.4323,293.1872 243.7553,295.0787 243.7553,297.4112"/><path id="Fill-61" fill="#253368" d="M268.10975,297.4112 C268.10975,299.7437 266.78675,301.6337 265.15325,301.6337 C263.52125,301.6337 262.19825,299.7437 262.19825,297.4112 C262.19825,295.0787 263.52125,293.1872 265.15325,293.1872 C266.78675,293.1872 268.10975,295.0787 268.10975,297.4112"/><path id="Stroke-63" fill="#DD936F" fill-rule="nonzero" d="M256.30535,319.5152 C256.612696,319.5152 256.86185,319.764354 256.86185,320.0717 C256.86185,320.348312 256.660036,320.577787 256.395617,320.620916 L256.30535,320.6282 L251.52035,320.6282 C251.213004,320.6282 250.96385,320.379046 250.96385,320.0717 C250.96385,319.795088 251.165664,319.565613 251.430083,319.522484 L251.52035,319.5152 L256.30535,319.5152 Z"/><path id="Stroke-65" fill="#253368" fill-rule="nonzero" d="M235.031121,287.975179 C238.247323,287.008147 241.640897,287.053154 244.84097,287.702764 L245.331998,287.807706 C245.950507,287.946825 246.42188,288.080355 246.717951,288.179799 C247.306935,288.377628 247.62403,289.015466 247.426201,289.604451 C247.24156,290.15417 246.673623,290.467042 246.119853,290.345473 L245.596734,290.192977 C245.24607,290.096292 244.8425,289.998966 244.393352,289.90779 C241.525962,289.325714 238.487568,289.285417 235.678988,290.129888 C235.152758,290.288112 234.641783,290.47641 234.14725,290.695968 C233.579381,290.948086 232.91465,290.692119 232.662532,290.12425 C232.410414,289.556381 232.666381,288.89165 233.23425,288.639532 C233.816347,288.381097 234.415857,288.160174 235.031121,287.975179 Z"/><path id="Stroke-67" fill="#DD936F" fill-rule="nonzero" d="M241.720992,328.792043 C241.882153,328.530339 242.224953,328.448832 242.486657,328.609992 C246.022426,330.787359 249.813531,332.00585 253.70285,332.00585 C257.593663,332.00585 261.488876,330.840024 265.186134,328.766473 C265.4542,328.616132 265.793386,328.711568 265.943727,328.979634 C266.094068,329.2477 265.998632,329.586886 265.730566,329.737227 C261.876959,331.898464 257.799452,333.11885 253.70285,333.11885 C249.592467,333.11885 245.604431,331.837064 241.903043,329.557708 C241.641339,329.396547 241.559832,329.053747 241.720992,328.792043 Z"/><path id="Fill-69" fill="#FFF" d="M245.4179,311.6972 C245.4179,311.6972 253.5044,312.8762 260.9909,311.1392 C260.9909,311.1392 259.3169,315.8897 253.9724,316.2752 C247.2269,316.7627 245.4179,311.6972 245.4179,311.6972"/><path id="Stroke-71" fill="#FF7A46" fill-rule="nonzero" d="M260.847494,310.521118 C260.349803,310.636591 259.840907,310.740872 259.321539,310.834267 C255.380257,311.543004 251.169438,311.596252 247.276053,311.260509 L246.452682,311.182079 C246.282628,311.164232 246.121394,311.146205 245.969397,311.128191 L245.509441,311.069338 C245.036056,311.000319 244.659469,311.460071 244.820361,311.910594 C245.055637,312.569408 245.598126,313.513951 246.545764,314.453344 C248.297825,316.190162 250.765634,317.143109 254.018136,316.908049 C256.440769,316.733304 258.359475,315.72082 259.810447,314.150148 C260.369835,313.544612 260.820064,312.897014 261.172226,312.248288 C261.386171,311.854177 261.521883,311.541485 261.589332,311.350078 C261.755738,310.877847 261.335231,310.407955 260.847494,310.521118 Z M259.831,312.029 L259.723517,312.202604 C259.481734,312.574055 259.200647,312.940125 258.878313,313.289051 C257.635835,314.63403 256.009757,315.492097 253.926752,315.642344 C251.046364,315.850511 248.935428,315.03537 247.439154,313.552114 L247.214003,313.318463 C246.996757,313.082389 246.803102,312.839531 246.631946,312.594233 L246.547,312.467 L247.167026,312.524816 C251.162388,312.869354 255.478008,312.814781 259.546134,312.083234 L259.831,312.029 Z"/><path id="Fill-73" fill="#E4EBF7" d="M209.3885,468.19085 C198.953,487.12985 214.0265,490.60835 214.0265,490.60835 C238.772,492.28985 301.3745,491.76785 301.3745,491.76785 C314.516,482.10485 303.3635,469.49435 303.3635,469.49435 C303.3635,469.49435 325.8815,361.38335 317.3315,355.27685 C309.4475,349.64435 295.4255,345.20885 276.926,342.11435 C276.4115,343.26485 271.226,352.24985 253.91,352.46135 C234.956,352.69235 230.8805,344.18735 230.1935,342.69635 C214.6715,344.62235 206.2265,346.59335 195.668,350.81585 C192.4385,352.10735 192.3815,397.07435 209.3885,468.19085"/><path id="Stroke-75" fill="#96A7CA" fill-rule="nonzero" d="M280.245923,350.137967 C280.502505,349.962823 280.852488,350.028841 281.027633,350.285423 C281.202777,350.542005 281.136759,350.891988 280.880177,351.067133 C266.891648,360.615782 252.065318,361.368212 238.408279,356.924257 C236.706798,356.370601 235.181807,355.777022 233.854706,355.182744 L233.323372,354.939656 C233.155586,354.861163 232.997183,354.78531 232.848333,354.712411 L232.323638,354.447257 C232.271071,354.419619 232.229264,354.39713 232.198389,354.380101 C231.926361,354.230067 231.827465,353.887918 231.977499,353.615889 C232.127533,353.343861 232.469682,353.244965 232.741711,353.394999 L232.930803,353.495063 L233.136748,353.599782 C233.470351,353.767159 233.863839,353.954188 234.314488,354.155989 C235.606235,354.734436 237.094147,355.313582 238.756384,355.854468 C252.109742,360.199607 266.581833,359.465154 280.245923,350.137967 Z"/><path id="Fill-77" fill="#597EF7" d="M272.11175,580.5692 C272.11175,580.5692 265.16225,575.5067 249.72725,577.6127 C234.18575,579.7322 212.04725,565.1462 200.78525,554.4467 C200.22275,518.9702 211.67525,501.1592 211.67525,501.1592 L303.61175,501.8162 C303.61175,501.8162 310.96625,516.9362 315.47075,549.0347 C315.47075,549.0347 281.68775,579.2087 272.11175,580.5692"/><path id="Fill-79" fill="#597EF7" d="M210.81095,501.98465 L211.90295,491.02565 L303.00245,491.38265 L304.17545,501.82865 C304.17545,501.82865 220.10045,502.19315 210.81095,501.98465"/><path id="Stroke-81" fill="#1D39C4" fill-rule="nonzero" d="M268.5196,501.888832 C268.798805,501.874094 269.041185,502.065575 269.098807,502.330174 L269.117066,502.537233 L269.342081,507.009968 L269.536441,511.079924 C269.600822,512.460352 269.664593,513.861636 269.727146,515.275017 L269.955732,520.638342 C270.00681,521.887717 270.055492,523.118145 270.101545,524.326303 L270.258127,528.647396 C270.532974,536.680177 270.648798,542.934261 270.562107,546.794235 C270.472915,550.748161 267.926301,553.216933 263.830954,554.476451 C262.512952,554.881801 261.108938,555.135996 259.691342,555.269413 C258.880331,555.345741 258.173771,555.373857 257.620999,555.372984 L257.31033,555.368732 C256.999846,555.358283 256.756619,555.098115 256.767068,554.78763 C256.776472,554.508194 256.988149,554.283237 257.256733,554.248657 L257.362634,554.244775 L257.413473,554.245856 C257.954406,554.255386 258.703785,554.232385 259.585929,554.149362 C260.932209,554.022658 262.262614,553.781789 263.500249,553.401156 C267.18063,552.269261 269.360997,550.15554 269.437392,546.76892 L269.454032,545.816362 C269.502811,542.050257 269.392853,536.398477 269.155014,529.31231 L269.065811,526.752485 C268.966861,524.008752 268.852766,521.131536 268.726464,518.163136 L268.540347,513.916586 C268.47709,512.513139 268.412818,511.124686 268.34814,509.759991 L267.987532,502.4802 C267.971157,502.169972 268.209372,501.905207 268.5196,501.888832 Z"/><path id="Stroke-83" fill="#1D39C4" fill-rule="nonzero" d="M210.812733,501.422141 L260.740111,501.549263 L297.717165,501.59 C299.806536,501.58939 301.75453,501.587951 303.553731,501.58565 C303.864391,501.585253 304.11695,501.836771 304.11695,502.147431 C304.11695,502.458091 303.865829,502.710252 303.555169,502.71065 L275.294493,502.699012 L241.276452,502.63123 L210.809167,502.547147 C210.498509,502.546163 210.247468,502.293526 210.248441,501.982867 C210.249437,501.672209 210.502074,501.421168 210.812733,501.422141 Z"/><path id="Stroke-85" fill="#1D39C4" fill-rule="nonzero" d="M295.86934,502.956433 C296.177304,502.915587 296.46007,503.132127 296.500917,503.44009 L296.558824,503.82919 C296.585702,503.997872 296.620329,504.204557 296.66323,504.446306 C296.806889,505.255825 296.99204,506.158788 297.222831,507.131639 C297.882039,509.910394 298.773549,512.688475 299.928912,515.276517 C302.498273,521.031946 305.978081,524.991965 310.47838,526.387282 C310.775105,526.479281 310.941068,526.794405 310.849068,527.09113 C310.757069,527.387855 310.441945,527.553818 310.14522,527.461818 C305.27632,525.952217 301.590051,521.757246 298.90163,515.73512 C297.714877,513.076764 296.802515,510.233703 296.128211,507.391317 C295.931596,506.562526 295.767267,505.782791 295.632715,505.065589 L295.518435,504.430516 L295.385683,503.58801 C295.344837,503.280046 295.561377,502.99728 295.86934,502.956433 Z"/><path id="Stroke-87" fill="#1D39C4" fill-rule="nonzero" d="M216.950489,501.8477 C217.256759,501.899747 217.462846,502.19022 217.4108,502.496489 L217.362547,502.764812 C217.322705,502.97992 217.274472,503.228998 217.217676,503.509227 C217.055725,504.308278 216.857475,505.197991 216.621524,506.155852 C215.947143,508.893558 215.105269,511.631851 214.08357,514.191759 C211.613247,520.381252 208.50424,524.557561 204.61304,525.773642 C204.316523,525.86631 204.001026,525.701057 203.908358,525.40454 C203.81569,525.108023 203.980943,524.792526 204.27746,524.699858 C207.751613,523.614113 210.683586,519.675614 213.038715,513.774741 C214.03921,511.267962 214.866328,508.577661 215.529177,505.886773 C215.683897,505.258675 215.822083,504.660607 215.944115,504.099302 L216.115094,503.285758 C216.210148,502.816766 216.271914,502.483289 216.3017,502.308011 C216.348543,502.032368 216.58851,501.837873 216.859305,501.839648 L216.950489,501.8477 Z"/><path id="Fill-89" fill="#1D39C4" d="M251.40905,496.27175 C251.38355,497.36075 250.23005,498.21725 248.83055,498.18575 C247.43255,498.15425 246.31655,497.24675 246.34205,496.15775 C246.36605,495.07025 247.51955,494.21225 248.91905,494.24375 C250.31855,494.27525 251.43305,495.18425 251.40905,496.27175"/><path id="Stroke-91" fill="#1D39C4" fill-rule="nonzero" d="M257.488704,491.378447 C257.768232,491.384701 257.995664,491.593716 258.033401,491.861875 L258.038765,491.953254 L256.201265,575.935254 C256.19447,576.24584 255.937181,576.492111 255.626596,576.485453 C255.347068,576.479199 255.119636,576.270184 255.081899,576.002025 L255.076535,575.910646 L256.914035,491.928646 C256.92083,491.61806 257.178119,491.371789 257.488704,491.378447 Z"/><path id="Stroke-93" fill="#1D39C4" fill-rule="nonzero" d="M302.1467,490.463 C302.45736,490.463 302.7092,490.71484 302.7092,491.0255 C302.7092,491.305094 302.50521,491.537044 302.23794,491.580638 L302.1467,491.588 L211.9022,491.588 C211.59154,491.588 211.3397,491.33616 211.3397,491.0255 C211.3397,490.745906 211.54369,490.513956 211.81096,490.470362 L211.9022,490.463 L302.1467,490.463 Z"/><path id="Fill-95" fill="#FFC999" d="M169.17125,546.37025 C169.17125,546.37025 156.91025,477.72275 161.64425,452.40725 C164.29175,438.24875 185.44325,433.12925 192.57275,448.65875 C198.42425,461.40425 189.63725,545.48975 189.63725,545.48975 C189.63725,545.48975 190.27325,553.56725 179.64125,554.39375 C168.61025,555.25175 169.17125,546.37025 169.17125,546.37025"/><path id="Fill-97" fill="#FFC999" d="M159.62195,558.83525 C159.62195,558.83525 169.41845,539.78675 179.47895,540.09575 C188.58995,540.37625 189.80645,552.05075 189.80645,552.05075 C189.80645,552.05075 189.71795,561.28625 186.91895,571.20275 C185.08595,577.70075 183.44195,590.57225 179.86295,590.52725 C175.19795,590.46875 179.02745,577.58225 176.38445,575.45075 C171.02795,571.13375 162.86945,590.77475 159.83795,593.24825 C153.90845,598.08575 147.69695,581.59475 159.62195,558.83525"/><path id="Stroke-99" fill="#DD936F" fill-rule="nonzero" d="M165.848597,573.046925 C166.053426,572.817781 166.40523,572.798069 166.634375,573.002897 C166.863519,573.207726 166.883231,573.55953 166.678403,573.788675 L166.438176,574.066928 C166.383646,574.131394 166.322117,574.204778 166.253957,574.286887 L165.823785,574.815245 C165.599781,575.095462 165.362877,575.399487 165.115224,575.726195 C163.93442,577.283935 162.753136,579.031793 161.650976,580.927762 C159.649999,584.369905 158.139245,587.905363 157.316396,591.425954 C157.246446,591.725235 156.947126,591.911145 156.647846,591.841196 C156.348565,591.771246 156.162655,591.471926 156.232604,591.172646 C157.083095,587.533787 158.636142,583.899356 160.688747,580.368402 C161.815054,578.430894 163.021412,576.645936 164.228252,575.053849 C164.566588,574.607509 164.885831,574.201878 165.180892,573.839562 L165.741739,573.168746 C165.784851,573.118924 165.820593,573.078254 165.848597,573.046925 Z"/><path id="Stroke-101" fill="#DD936F" fill-rule="nonzero" d="M162.240467,568.271731 C162.421489,568.02335 162.769589,567.968745 163.017969,568.149767 C163.26635,568.330789 163.320955,568.678889 163.139933,568.927269 C159.941259,573.316177 157.601451,577.655367 155.986531,581.750889 C155.422555,583.181163 154.989586,584.477678 154.670894,585.616084 L154.548256,586.068354 C154.529555,586.139775 154.511712,586.209202 154.49471,586.27661 L154.346653,586.908422 C154.337847,586.950215 154.3314,586.982472 154.32718,587.004996 C154.270573,587.307085 153.979793,587.506087 153.677704,587.44948 C153.375615,587.392873 153.176613,587.102093 153.23322,586.800004 L153.293833,586.512977 L153.415078,586.006122 C153.450723,585.864754 153.4898,585.7153 153.532443,585.557954 L153.5991,585.316041 C153.927869,584.141635 154.372892,582.809024 154.951119,581.342611 C156.599637,577.161883 158.984266,572.739573 162.240467,568.271731 Z"/><path id="Stroke-103" fill="#DD936F" fill-rule="nonzero" d="M160.400558,562.900001 C160.597695,562.664207 160.948655,562.63287 161.184449,562.830008 C161.420243,563.027145 161.45158,563.378105 161.254442,563.613899 L161.035977,563.891338 C160.964239,563.985808 160.879954,564.099206 160.783787,564.231743 L160.683685,564.370669 C160.216265,565.023715 159.691142,565.821425 159.120915,566.767835 C157.485795,569.481662 155.821578,572.838688 154.229104,576.871349 C154.116217,577.157213 153.792966,577.29744 153.507101,577.184554 C153.221237,577.071667 153.08101,576.748416 153.193896,576.462551 C154.809172,572.372149 156.50083,568.95977 158.167585,566.19344 L158.598173,565.492667 C159.020079,564.819793 159.415345,564.230426 159.778628,563.722872 L160.130013,563.244904 L160.334768,562.980932 C160.362889,562.945703 160.384885,562.918747 160.400558,562.900001 Z"/><path id="Fill-105" fill="#FFC999" d="M394.5506,371.2562 C394.5506,371.2562 367.6976,446.6147 349.5236,469.6322 C339.3596,482.5052 317.6411,476.7422 319.8236,457.4477 C321.6131,441.6122 375.7766,361.5857 375.7766,361.5857 C375.7766,361.5857 379.6571,353.1317 389.6126,357.7862 C399.9431,362.6132 394.5506,371.2562 394.5506,371.2562"/><path id="Fill-107" fill="#FFC999" d="M406.013,350.9015 C406.013,350.9015 399.257,371.228 389.2685,372.4655 C380.222,373.5875 377.228,362.2385 377.228,362.2385 C377.228,362.2385 375.8975,353.099 377.141,342.8705 C377.9555,336.1685 377.606,323.1965 381.1475,322.691 C385.7675,322.0325 383.9615,335.3555 386.9,337.055 C392.855,340.499 397.9025,319.8395 400.5185,316.9295 C405.6335,311.24 414.302,326.5805 406.013,350.9015"/><path id="Stroke-109" fill="#DD936F" fill-rule="nonzero" d="M403.885824,317.829885 C404.192295,317.853067 404.421946,318.120303 404.398765,318.426774 C404.080349,322.636386 402.880782,326.95688 401.080855,331.192052 C400.33884,332.937991 399.54388,334.550725 398.748467,335.992428 L398.423679,336.571223 C398.318836,336.754811 398.217552,336.928955 398.120248,337.093349 L397.827603,337.578231 C397.762596,337.683595 397.712686,337.762546 397.679288,337.814056 C397.512081,338.071938 397.167477,338.145446 396.909594,337.978238 C396.651712,337.811031 396.578204,337.466427 396.745412,337.208544 L396.94833,336.883004 L397.307418,336.279246 C397.454888,336.02552 397.61087,335.750346 397.773946,335.454768 C398.551817,334.044862 399.330142,332.465875 400.056525,330.756717 C401.812568,326.624803 402.980733,322.417409 403.288935,318.342826 C403.312117,318.036355 403.579353,317.806704 403.885824,317.829885 Z"/><path id="Stroke-111" fill="#DD936F" fill-rule="nonzero" d="M407.495251,321.714171 C407.802448,321.723753 408.043712,321.980554 408.034129,322.287751 L408.018279,322.580668 L407.976247,323.100107 C407.955952,323.317845 407.93082,323.554746 407.900299,323.810232 C407.755641,325.021143 407.520388,326.406231 407.174051,327.943986 C406.186646,332.328111 404.508976,337.064002 401.977114,341.978754 C401.836361,342.251977 401.500768,342.359366 401.227546,342.218614 C400.954323,342.077861 400.846934,341.742268 400.987686,341.469046 C403.474824,336.64111 405.120966,331.99422 406.088249,327.699439 C406.426052,326.199577 406.654933,324.852004 406.795157,323.678209 L406.84694,323.21249 C406.86198,323.065604 406.874853,322.927128 406.885722,322.797235 L406.920049,322.294853 C406.92078,322.278443 406.921313,322.264501 406.921671,322.253049 C406.931253,321.945852 407.188054,321.704588 407.495251,321.714171 Z"/><path id="Stroke-113" fill="#DD936F" fill-rule="nonzero" d="M409.238939,331.829736 C409.538754,331.897358 409.726985,332.195224 409.659364,332.495039 C409.293063,334.119122 408.896887,335.662954 408.475207,337.127198 C407.637394,340.036424 406.738633,342.505269 405.838385,344.5428 C405.574704,345.139589 405.326247,345.663879 405.097316,346.116333 L404.962335,346.379189 C404.80122,346.688181 404.684328,346.896209 404.619091,347.00442 C404.460409,347.267634 404.118394,347.352374 403.85518,347.193691 C403.591966,347.035009 403.507226,346.692994 403.665909,346.42978 L403.784303,346.222135 L403.975436,345.864601 L404.239269,345.342944 C404.421456,344.97227 404.615873,344.555733 404.820328,344.092989 C405.700365,342.101202 406.581888,339.679709 407.405674,336.819189 C407.82135,335.375796 408.212123,333.853016 408.573636,332.250161 C408.634496,331.980327 408.881853,331.800877 409.149281,331.816981 L409.238939,331.829736 Z"/><path id="Stroke-115" fill="#96A7CA" fill-rule="nonzero" d="M195.138976,397.566169 C195.413515,397.513245 195.679885,397.669643 195.773281,397.923828 L195.797781,398.012026 L209.312781,468.120526 C209.334972,468.235642 209.320641,468.354815 209.27179,468.461388 L209.156997,468.722302 C209.09518,468.867007 209.019618,469.049314 208.932926,469.266332 L208.865861,469.435557 C208.557412,470.219934 208.248662,471.094333 207.96048,472.03545 C207.151296,474.678011 206.661276,477.315153 206.6476,479.762602 C206.614684,485.653638 209.2887,489.480245 215.605655,490.47738 C215.912516,490.525818 216.122009,490.813844 216.07357,491.120705 C216.025132,491.427566 215.737106,491.637059 215.430245,491.58862 C208.514673,490.496994 205.486815,486.164026 205.522618,479.756316 C205.536986,477.18486 206.046105,474.444934 206.884782,471.706059 C207.181896,470.735771 207.500249,469.834175 207.818902,469.02385 L207.980462,468.621208 L208.174,468.159 L194.693119,398.224974 C194.640195,397.950435 194.796593,397.684065 195.050778,397.590669 L195.138976,397.566169 Z"/><path id="Stroke-117" fill="#96A7CA" fill-rule="nonzero" d="M315.81424,394.973939 C316.090012,395.020011 316.285177,395.259434 316.284142,395.530233 L316.276361,395.62144 L303.956,469.363 L304.009741,469.443877 C304.117478,469.60754 304.234155,469.790819 304.358094,469.992647 L304.484391,470.20062 C304.972775,471.013665 305.460648,471.925349 305.916072,472.915705 C307.52413,476.412552 308.331028,479.962876 307.891546,483.305822 C307.503042,486.260998 306.143379,488.874796 303.679493,491.031045 C303.445714,491.235635 303.090345,491.211972 302.885755,490.978193 C302.681165,490.744414 302.704828,490.389045 302.938607,490.184455 C305.193141,488.21142 306.422689,485.847752 306.776144,483.159184 C307.183496,480.060638 306.421315,476.70707 304.893966,473.38573 C304.456685,472.434829 303.988088,471.559166 303.520003,470.779913 L303.284539,470.396319 C303.209383,470.276633 303.137725,470.165234 303.070064,470.06245 L302.932055,469.856857 C302.921581,469.841685 302.91279,469.829112 302.905743,469.819177 C302.836961,469.722203 302.801115,469.606605 302.802066,469.489195 L302.809739,469.40106 L315.166739,395.43606 C315.212811,395.160288 315.452234,394.965123 315.723033,394.966158 L315.81424,394.973939 Z"/><path id="Stroke-119" fill="#1D39C4" fill-rule="nonzero" d="M240.034695,576.628388 L272.133195,577.895888 C272.443613,577.908146 272.68532,578.169726 272.673062,578.480145 C272.66203,578.759521 272.449047,578.983241 272.180265,579.016256 L272.088805,579.020012 L239.990305,577.752512 C239.679887,577.740254 239.43818,577.478674 239.450438,577.168255 C239.46147,576.888879 239.674453,576.665159 239.943235,576.632144 L240.034695,576.628388 Z"/></g></svg>