<svg xmlns="http://www.w3.org/2000/svg" xmlns:xlink="http://www.w3.org/1999/xlink" width="512" height="1024" version="1.1" viewBox="0 0 512 1024"><title>2.人物组件/9.互联网人群/坐姿/讲解</title><desc>Created with Sketch.</desc><defs><polygon id="path-1" points=".685 .427 91.296 .427 91.296 22.694 .685 22.694"/></defs><g id="2.人物组件/9.互联网人群/坐姿/讲解" fill="none" fill-rule="evenodd" stroke="none" stroke-width="1"><path id="Fill-1" fill="#FFC999" d="M282.04745,521.11805 C282.04745,521.11805 269.68295,492.52205 254.75795,467.97155 C241.14845,445.58405 225.85595,427.98005 211.31795,435.98405 C193.06445,446.03405 213.59795,476.46605 222.77945,492.62105 C229.38845,504.24755 245.43095,527.22155 254.73245,538.58555 C269.56745,556.71155 292.79945,538.32605 282.04745,521.11805"/><path id="Fill-3" fill="#E4EBF7" d="M226.4831,499.13795 C217.3016,482.98145 191.4881,447.22895 214.0136,434.51345 C229.9091,425.54195 242.7266,445.66145 259.4831,476.28545 L226.4831,499.13795 Z"/><path id="Fill-5" fill="#FFC999" d="M289.79645,671.1707 C229.91045,673.8602 180.76295,662.6072 180.76295,662.6072 C180.76295,662.6072 135.18845,639.6602 168.28895,616.4627 C184.32095,605.2292 222.04145,611.6582 288.16595,622.3262 C288.16595,622.3262 319.11695,625.6712 316.65095,650.0867 C314.58695,670.5227 289.79645,671.1707 289.79645,671.1707"/><path id="Fill-7" fill="#597EF7" d="M255.90005,672.1793 C256.39205,649.3223 266.52905,617.2253 266.52905,617.2253 C247.22555,614.5778 216.78755,608.9933 148.41905,606.3878 C122.79305,638.3123 165.31955,666.2573 165.31955,666.2573 L255.90005,672.1793 Z"/><path id="Stroke-9" fill="#1D39C4" fill-rule="nonzero" d="M266.011465,617.427906 C266.132523,617.141803 266.462592,617.008007 266.748694,617.129065 C267.034797,617.250123 267.168593,617.580192 267.047535,617.866294 C264.923119,622.887049 263.119352,628.716086 261.612344,635.192911 C259.73188,643.274783 258.402272,651.938891 257.530145,660.603724 C257.25538,663.333594 257.044631,665.887802 256.889303,668.21349 L256.839567,668.980184 C256.793212,669.716797 256.755457,670.384323 256.725446,670.977518 L256.672663,672.149573 C256.662778,672.434939 256.442372,672.662135 256.167587,672.689792 L256.074192,672.691427 L165.283692,666.818927 C164.97368,666.798875 164.738621,666.531305 164.758673,666.221292 C164.77672,665.942281 164.995256,665.723982 165.264782,665.697731 L165.356308,665.696273 L255.572,671.531 L255.620954,670.553393 C255.640988,670.176962 255.663883,669.774128 255.689824,669.346019 L255.716788,668.909527 C255.876661,666.369042 256.104042,663.538793 256.410801,660.491061 C257.287396,651.781832 258.624039,643.071879 260.516614,634.93796 C262.037241,628.402601 263.859542,622.513669 266.011465,617.427906 Z"/><path id="Fill-11" fill="#F4B887" d="M250.5212,681.2825 C232.1777,722.1575 223.4672,752.084 199.7942,789.965 C196.9232,794.561 203.2892,799.1075 209.7422,802.643 C216.4067,822.812 240.1112,842.795 246.8582,839.9795 C250.9082,838.289 248.9312,821 241.6112,813.3005 C225.2432,796.091 239.9942,773.9 239.9942,773.9 C239.9942,773.9 277.1702,717.0725 304.8887,673.016 C304.8887,673.016 328.9307,642.2945 306.0887,630.3365 C275.6372,614.3975 256.7822,667.331 250.5212,681.2825"/><path id="Fill-13" fill="#96A7CA" d="M256.94735,846.46925 C256.94735,846.46925 250.53635,850.81625 235.65785,841.34525 C220.78085,831.87575 217.47635,821.13125 210.11285,815.39525 C196.35335,804.67175 192.05285,797.20475 192.05285,797.20475 C192.05285,797.20475 189.99335,799.03925 189.53585,802.83125 C188.82635,808.68275 203.80235,815.07875 209.93885,823.65875 C214.37885,829.86575 218.18885,834.11225 226.91585,842.12525 C235.63985,850.13975 249.95285,854.37575 253.33235,851.81675 C256.71185,849.25925 256.94735,846.46925 256.94735,846.46925"/><path id="Fill-15" fill="#4E5C93" d="M192.20135,798.0122 C192.20135,798.0122 194.46935,801.8657 204.26585,810.9617 C206.60885,813.1367 208.85585,815.3702 212.64935,819.6512 C218.47985,826.2302 235.48685,849.4007 254.30585,847.7477 C257.67335,846.6077 258.61535,843.5942 258.73235,840.9227 C258.84485,838.3817 257.92985,835.9052 256.23635,834.0062 C251.10785,828.2522 238.83035,814.5347 237.54485,798.5477 C237.39635,796.6757 236.11985,795.1037 234.31685,794.5787 C232.13585,793.9457 229.10285,793.4852 226.19885,794.4692 C223.78235,795.2867 224.43935,803.9072 222.63635,803.2787 C217.67585,801.5537 210.80435,796.0337 207.74135,790.1012 C205.17635,785.1332 204.06185,781.1297 204.06185,781.1297 C204.06185,781.1297 193.86185,790.3757 192.20135,798.0122"/><path id="Stroke-17" fill="#96A7CA" fill-rule="nonzero" d="M254.334294,837.684513 C254.662823,837.720632 254.924094,837.992831 254.936872,838.332999 C254.94965,838.673167 254.709538,838.964201 254.384644,839.024865 L254.27714,839.036234 L254.251849,839.036842 C253.864551,839.044196 253.267151,839.006415 252.481546,838.88561 C251.262413,838.698142 249.899037,838.35195 248.413697,837.809336 C244.280665,836.299484 239.924755,833.553764 235.524265,829.276105 C235.255768,829.015104 235.249693,828.585861 235.510695,828.317365 C235.771696,828.048868 236.200939,828.042793 236.469435,828.303795 C240.733528,832.448863 244.926091,835.091618 248.878987,836.535663 C250.279131,837.047154 251.55569,837.371301 252.687639,837.545364 L253.131138,837.607031 C253.546427,837.658272 253.876375,837.679457 254.114641,837.681569 L254.234,837.68 L254.334294,837.684513 Z"/><path id="Stroke-19" fill="#96A7CA" fill-rule="nonzero" d="M230.970069,805.732684 C233.054068,805.131274 235.25267,805.106161 237.301707,805.420934 L237.679692,805.483461 C237.968286,805.53486 238.189526,805.583351 238.333116,805.620395 C238.695693,805.713933 238.913793,806.083688 238.820255,806.446266 C238.726717,806.808843 238.356962,807.026943 237.994384,806.933405 L237.821884,806.892872 C237.648622,806.855087 237.403017,806.808403 237.095815,806.761211 C235.224609,806.473757 233.213037,806.496734 231.346047,807.035518 C230.84851,807.1791 230.372435,807.357645 229.920318,807.573005 C229.582261,807.734033 229.177673,807.590524 229.016645,807.252468 C228.855617,806.914411 228.999126,806.509823 229.337182,806.348795 C229.85778,806.100816 230.403082,805.896308 230.970069,805.732684 Z"/><path id="Stroke-21" fill="#1D39C4" fill-rule="nonzero" d="M256.82423,615.838585 C257.123521,615.921859 257.298638,616.231989 257.215365,616.53128 L256.790746,618.096803 L256.255349,620.125857 C256.068006,620.844803 255.87219,621.605302 255.669112,622.404237 C254.508536,626.970078 253.347924,631.851792 252.264781,636.849638 C251.186598,641.824602 250.244256,646.647926 249.476348,651.219846 C248.317007,658.122256 247.591676,664.233137 247.381976,669.337091 C247.369223,669.64749 247.107257,669.888779 246.796859,669.876509 C246.48646,669.863273 246.245171,669.601307 246.257924,669.290909 C246.469819,664.133555 247.200389,657.978531 248.366889,651.033499 C249.137927,646.442945 250.083593,641.602606 251.165306,636.611357 C252.14285,632.100764 253.183153,627.685198 254.229759,623.509796 L254.878683,620.954466 C255.123807,620.001973 255.356636,619.112025 255.574805,618.290704 L256.131535,616.22972 C256.214809,615.930429 256.524939,615.755312 256.82423,615.838585 Z"/><path id="Fill-23" fill="#FFC999" d="M202.02605,429.9878 C202.02605,429.9878 195.98105,449.5328 173.88455,447.9593 C148.23755,446.1353 146.07305,425.3108 146.07305,425.3108 L152.35955,423.7793 C153.66305,423.4613 154.64105,422.3978 154.83605,421.0703 C155.53355,416.3378 157.23155,404.2673 158.88455,388.3013 C181.43105,382.6328 196.13705,390.3263 196.13705,390.3263 C196.13705,390.3263 194.39555,409.2923 193.36055,423.2918 C193.25855,424.6493 193.99805,425.9273 195.22955,426.5108 C197.35355,427.5158 200.56955,429.0773 202.02605,429.9878"/><path id="Fill-25" fill="#FFC999" d="M154.31315,372.11405 C154.31315,372.11405 155.39915,341.17955 178.72115,342.14105 C206.89115,343.30205 206.99615,359.29355 208.15865,366.85355 C209.39465,374.88605 208.72415,408.17705 191.24015,413.76605 C183.85715,415.62605 179.29715,416.63105 167.61215,408.48005 C150.60665,396.61655 154.31315,372.11405 154.31315,372.11405"/><path id="Fill-27" fill="#FFC999" d="M159.1397,395.537 L160.3172,378.2555 C160.3172,378.2555 147.6512,368.855 145.3307,377.5025 C142.9637,386.318 148.5722,393.071 154.0352,395.699 C157.5467,397.3895 159.1397,395.537 159.1397,395.537"/><path id="Fill-29" fill="#253368" d="M167.4278,335.86355 C167.4278,335.86355 182.7743,327.38855 189.3878,329.27405 C195.9998,331.15955 190.1918,335.85305 190.1918,335.85305 C190.1918,335.85305 209.1218,334.49555 210.4133,338.85755 C211.7063,343.21955 204.7958,344.55755 204.7958,344.55755 C204.7958,344.55755 222.5378,351.43355 222.8723,356.97905 C223.2068,362.52305 214.7723,360.46955 214.7723,360.46955 C214.7723,360.46955 220.4933,368.91755 217.9613,373.34855 C215.4308,377.77805 211.2758,376.82855 211.2758,376.82855 L207.7478,382.72055 L207.9893,369.59555 C207.9893,369.59555 201.7223,366.11555 190.2128,359.11055 C196.8008,367.35605 192.2723,366.93155 186.2648,365.10755 C179.2223,362.96705 171.0698,359.66705 171.5153,359.49755 C171.5153,359.49755 170.5058,367.95755 164.4848,371.28905 C157.1018,375.37355 161.1203,385.61105 159.2588,385.86305 C155.6768,386.37905 157.0508,376.89305 150.4778,374.58605 C145.2608,373.67855 145.0178,367.15205 146.6903,365.11655 C139.8413,363.49205 140.7848,356.36855 150.3293,351.03305 C142.6463,349.26005 148.1453,342.55955 159.9818,340.68755 C157.5953,327.52955 167.4278,335.86355 167.4278,335.86355"/><path id="Stroke-31" fill="#253368" fill-rule="nonzero" d="M171.013243,370.180831 C174.601308,369.860694 178.482796,369.920383 182.156518,370.628054 C182.963073,370.783422 183.744525,370.968661 184.498239,371.185424 C185.095356,371.357151 185.440203,371.980422 185.268476,372.577539 C185.096749,373.174656 184.473478,373.519503 183.876361,373.347776 C183.189173,373.150146 182.473062,372.980395 181.730924,372.837436 C178.294732,372.175521 174.609991,372.118858 171.2132,372.421929 L170.623607,372.479131 C170.531113,372.48887 170.441564,372.498683 170.355047,372.508528 L169.724482,372.588458 C169.110144,372.681342 168.536827,372.25862 168.443942,371.644282 C168.351058,371.029944 168.77378,370.456627 169.388118,370.363742 L169.830503,370.304884 L170.386093,370.241702 C170.583443,370.220912 170.79272,370.200507 171.013243,370.180831 Z"/><path id="Stroke-33" fill="#253368" fill-rule="nonzero" d="M194.367466,371.960975 C197.728136,371.237747 201.487302,371.498744 205.155364,373.450548 C205.703867,373.742411 205.911915,374.423661 205.620052,374.972164 C205.328189,375.520667 204.646939,375.728715 204.098436,375.436852 C200.955849,373.764657 197.723569,373.540241 194.840837,374.160616 C194.327197,374.271153 193.970327,374.378184 193.800445,374.44162 C193.218381,374.658969 192.570329,374.363309 192.35298,373.781245 C192.135631,373.199181 192.431291,372.551129 193.013355,372.33378 C193.281201,372.233764 193.74182,372.095616 194.367466,371.960975 Z"/><path id="Stroke-35" fill="#DD936F" fill-rule="nonzero" d="M192.234738,374.262296 C192.35199,373.978194 192.677352,373.842936 192.961454,373.960188 C193.217145,374.065715 193.352274,374.339811 193.291266,374.600685 L193.263562,374.686904 L191.841,378.131 L191.484442,391.205799 C191.477786,391.449423 191.314281,391.656471 191.087031,391.723992 L190.999006,391.742571 L185.822506,392.407071 C185.517661,392.446203 185.238812,392.230801 185.199679,391.925956 C185.16446,391.651595 185.335414,391.398292 185.592189,391.321847 L185.680794,391.303129 L190.384,390.699 L190.731858,377.999401 L190.773738,377.802296 L192.234738,374.262296 Z"/><path id="Stroke-37" fill="#253368" fill-rule="nonzero" d="M172.3971,379.157964 C174.783012,378.09062 177.487832,378.248568 180.122848,380.4441 C180.441074,380.709251 180.4841,381.182172 180.21895,381.500398 C179.953799,381.818624 179.480878,381.86165 179.162652,381.5965 C177.006821,379.80023 174.908573,379.677703 173.009631,380.5272 C172.601694,380.709691 172.315832,380.887574 172.180115,380.992548 C171.852473,381.245972 171.381426,381.185806 171.128002,380.858165 C170.874578,380.530523 170.934744,380.059476 171.262385,379.806052 C171.486547,379.632668 171.871682,379.393011 172.3971,379.157964 Z"/><path id="Stroke-39" fill="#253368" fill-rule="nonzero" d="M195.912265,380.885288 C197.139109,380.430546 198.404015,380.240877 199.619124,380.480358 C200.715531,380.696444 201.683531,381.255848 202.461991,382.193675 C202.72655,382.512393 202.682644,382.985233 202.363925,383.249791 C202.045207,383.51435 201.572367,383.470444 201.307809,383.151725 C200.754034,382.484583 200.093087,382.102623 199.329075,381.952048 C198.427148,381.774291 197.423841,381.924733 196.433596,382.291779 C196.012258,382.447952 195.69754,382.601983 195.535043,382.696686 C195.177171,382.905252 194.717981,382.784216 194.509414,382.426343 C194.300848,382.068471 194.421884,381.609281 194.779757,381.400714 C195.012052,381.265334 195.402496,381.07424 195.912265,380.885288 Z"/><path id="Fill-41" fill="#FFF" d="M177.6026,393.95855 C177.6026,393.95855 185.3651,396.51455 193.0376,396.09455 C193.0376,396.09455 190.5701,400.48505 185.2391,399.94355 C178.5101,399.26105 177.6026,393.95855 177.6026,393.95855"/><path id="Stroke-43" fill="#FF7A46" fill-rule="nonzero" d="M176.977193,394.065586 C177.124143,394.924212 177.610575,396.161091 178.643563,397.394466 C180.094826,399.127256 182.241046,400.277223 185.175073,400.574811 C187.807448,400.842197 190.008483,400.031693 191.767316,398.523902 C192.682283,397.739529 193.283489,396.9521 193.590731,396.405414 C193.836027,395.968951 193.502841,395.433632 193.002919,395.460999 L192.744648,395.473995 C189.304151,395.632046 185.602221,395.217889 181.932756,394.429516 C180.834774,394.193618 179.822211,393.940949 178.919508,393.688525 L178.273473,393.502019 L177.801044,393.355881 C177.346703,393.206277 176.896501,393.594103 176.977193,394.065586 Z M178.597784,394.950934 L178.581,394.911 C179.504443,395.169771 180.54191,395.428654 181.666198,395.670204 L182.420134,395.826918 C185.437225,396.432817 188.466528,396.784349 191.365133,396.776196 L191.743,396.771 L191.697026,396.824173 C191.470078,397.075592 191.218184,397.323179 190.941392,397.560465 C189.431396,398.854936 187.565368,399.542077 185.30322,399.312298 C182.700389,399.048302 180.856542,398.06035 179.616425,396.579665 C179.180674,396.059384 178.845452,395.506977 178.597784,394.950934 Z"/><path id="Stroke-45" fill="#DD936F" fill-rule="nonzero" d="M171.081025,412.24925 C171.22923,411.979998 171.567647,411.881869 171.8369,412.030075 C179.262666,416.117456 185.722153,416.217217 190.965056,413.953202 C191.692313,413.639154 192.326533,413.303476 192.863224,412.969112 L193.108499,412.812128 C193.291037,412.691842 193.418708,412.599015 193.489871,412.542076 C193.729852,412.350058 194.080056,412.38894 194.272074,412.628921 C194.464092,412.868902 194.42521,413.219106 194.185229,413.411124 L194.04384,413.518553 C193.903096,413.621274 193.705246,413.755853 193.451761,413.913777 C192.869263,414.27668 192.186089,414.638268 191.406295,414.975003 C185.859019,417.370454 179.039588,417.265134 171.3002,413.005125 C171.030948,412.85692 170.932819,412.518503 171.081025,412.24925 Z"/><path id="Stroke-47" fill="#DD936F" fill-rule="nonzero" d="M182.317259,402.910084 L186.100259,403.376584 C186.405295,403.414199 186.622082,403.691973 186.584466,403.997009 C186.550613,404.271541 186.32223,404.474592 186.054521,404.485035 L185.964041,404.481216 L182.181041,404.014716 C181.876005,403.977101 181.659218,403.699327 181.696834,403.394291 C181.730687,403.119759 181.95907,402.916708 182.226779,402.906265 L182.317259,402.910084 Z"/><path id="Stroke-49" fill="#DD936F" fill-rule="nonzero" d="M148.715176,378.191825 C149.959445,377.714104 151.368347,378.034103 152.609301,379.639633 C152.934137,380.059901 153.240891,380.562828 153.528578,381.153153 L153.744176,381.600802 C154.208613,382.578031 154.407541,383.098111 154.443399,383.452293 C154.508957,384.099835 154.181831,384.339595 153.610867,384.405112 L153.48484,384.416569 C153.122275,384.441628 152.980197,384.47335 152.802728,384.594357 C152.642748,384.703439 152.491163,384.880492 152.348064,385.153309 C151.521028,386.729943 153.182762,388.275575 155.551735,388.495687 C155.857763,388.524121 156.082798,388.795257 156.054363,389.101285 C156.025929,389.407313 155.754793,389.632348 155.448765,389.603913 C152.416392,389.322162 150.056054,387.126736 151.36243,384.636303 C151.587072,384.208026 151.858342,383.89118 152.175714,383.67478 C152.477342,383.469114 152.723947,383.383316 153.076363,383.337528 L153.272,383.317 L153.249753,383.249781 C153.169323,383.025798 153.030923,382.702431 152.823011,382.257588 L152.527993,381.640594 C152.272448,381.116224 152.005104,380.67791 151.728685,380.320283 C150.802999,379.122643 149.918972,378.921857 149.114107,379.230875 C149.031758,379.262492 148.970618,379.292164 148.934586,379.312134 L148.907068,379.328582 C148.651757,379.49969 148.306076,379.43143 148.134968,379.176118 C147.96386,378.920807 148.03212,378.575126 148.287432,378.404018 C148.377887,378.343395 148.522289,378.265882 148.715176,378.191825 Z"/><path id="Stroke-51" fill="#DD936F" fill-rule="nonzero" d="M158.975047,395.005416 C159.268633,394.914481 159.580349,395.078761 159.671284,395.372347 L159.790934,395.743271 L159.950102,396.216029 C160.006905,396.381512 160.067392,396.55453 160.131376,396.733994 C160.496767,397.758847 160.900383,398.783351 161.329631,399.737002 C162.150928,401.561657 162.967716,402.900978 163.695976,403.512251 C163.931387,403.709845 163.962044,404.060866 163.764449,404.296276 C163.566855,404.531687 163.215834,404.562344 162.980424,404.364749 C162.085712,403.613764 161.201297,402.163552 160.314705,400.193831 C159.960457,399.406806 159.624532,398.576558 159.312485,397.737845 L159.083014,397.107767 C158.984716,396.832059 158.89442,396.57104 158.812731,396.328332 L158.623947,395.752252 C158.617877,395.733007 158.612596,395.716117 158.608116,395.701653 C158.517181,395.408067 158.681461,395.096351 158.975047,395.005416 Z"/><path id="Fill-53" fill="#E4EBF7" d="M214.7834,562.93415 C221.1704,571.80815 214.4309,580.03715 214.4309,580.03715 C189.7259,582.25265 127.8689,581.74565 127.8689,581.74565 C117.6764,578.45465 123.2879,557.87165 123.2879,557.87165 C123.2879,557.87165 117.3659,511.80815 112.8239,475.57565 C110.8709,459.97565 110.4029,435.50315 111.4634,435.02915 C123.3659,429.70265 133.2314,427.18415 151.6589,423.69065 C152.2004,424.83065 152.6894,432.96665 171.2429,435.54365 C190.0169,438.15215 194.2934,427.77365 194.9474,426.26765 C204.1859,428.58965 212.4089,428.70815 223.2194,432.43715 C226.5059,433.57115 228.4739,436.94465 227.8664,440.36765 L226.8944,454.24715 C226.8944,454.24715 228.3629,487.44665 214.7834,562.93415"/><path id="Stroke-55" fill="#96A7CA" fill-rule="nonzero" d="M145.401611,432.080693 C145.593589,431.836451 145.947215,431.794083 146.191457,431.986061 C146.799435,432.463941 147.411514,432.924447 148.027593,433.367768 C161.690917,443.199671 176.21212,444.221657 189.567126,440.068424 C191.123754,439.584333 192.515319,439.066043 193.721942,438.548434 L194.201048,438.338435 C194.352064,438.27074 194.494341,438.205443 194.62772,438.142824 L195.188669,437.868166 C195.463228,437.722815 195.803633,437.827559 195.948984,438.102119 C196.094335,438.376678 195.989591,438.717083 195.715031,438.862434 L195.420006,439.010847 L195.308845,439.064705 C194.98335,439.221309 194.601406,439.395309 194.165452,439.582322 C192.924095,440.11483 191.496183,440.646658 189.901204,441.142675 C176.236923,445.39209 161.356196,444.344801 147.370501,434.280925 C146.741494,433.828302 146.116706,433.358233 145.496243,432.870539 C145.252001,432.678561 145.209633,432.324935 145.401611,432.080693 Z"/><path id="Stroke-57" fill="#96A7CA" fill-rule="nonzero" d="M226.348184,454.822661 C226.658818,454.818803 226.913956,455.067301 226.918051,455.377934 L226.92321,456.509901 C226.92321,458.668296 226.878156,461.685988 226.756573,465.503763 C226.543338,472.199453 226.139531,479.763323 225.499626,488.106993 C223.768165,510.683387 220.619555,535.216331 215.716085,561.050538 L215.368,562.867 L215.476753,563.112769 C219.067263,571.363422 218.347458,576.431508 214.820197,578.933037 L214.644468,579.053996 C213.952024,579.516571 213.212969,579.836675 212.473801,580.041072 C212.026413,580.164785 211.6724,580.223077 211.413622,580.242344 L199.350115,580.322749 L191.975634,580.387863 C183.013891,580.473754 174.116011,580.584202 165.664965,580.722297 L155.904285,580.898876 C144.14485,581.134443 134.508915,581.419316 127.591622,581.758862 C127.281334,581.773377 127.017474,581.534161 127.001588,581.223872 C126.987073,580.913584 127.226289,580.649724 127.536578,580.634524 L130.594339,580.495581 C138.805696,580.148543 150.029838,579.862871 163.542562,579.632562 L169.908826,579.53067 C176.352834,579.433915 183.012132,579.35243 189.725239,579.284908 L203.016655,579.169546 L211.365816,579.119176 L211.525792,579.099808 C211.685014,579.075708 211.906739,579.030658 212.173966,578.956764 C212.803973,578.782553 213.434093,578.509631 214.019546,578.11853 C217.239763,575.967321 217.921417,571.338601 214.269511,563.163269 C214.222453,563.057922 214.208929,562.940653 214.230772,562.82736 C219.344054,536.306547 222.605208,511.135226 224.37792,488.020965 L224.562474,485.546452 C225.095198,478.193593 225.440703,471.47927 225.632143,465.467954 L225.706185,462.886995 C225.764,460.606555 225.791273,458.687882 225.797032,457.148529 L225.793149,455.392766 C225.789053,455.082132 226.037551,454.826994 226.348184,454.822661 Z"/><path id="Fill-59" fill="#FFC999" d="M330.5939,443.02865 C330.5939,443.02865 301.4054,517.51565 282.5249,539.95565 C271.9649,552.50465 250.4369,546.06965 253.2179,526.85165 C255.3134,512.37215 305.4254,445.22315 313.6304,434.30615 C314.2604,433.46765 314.7479,432.54215 315.1514,431.57615 C316.0364,429.45965 318.7229,425.69015 326.0774,429.41015 C336.2519,434.55965 330.5939,443.02865 330.5939,443.02865"/><path id="Fill-61" fill="#597EF7" d="M118.16375,648.2672 C118.16375,648.2672 120.06425,669.2747 184.25825,667.5857 C199.94075,667.1732 215.56925,656.6357 226.697101,645.7952 C226.81325,610.3142 214.82525,590.3282 214.82525,590.3282 L122.90225,590.6417 C122.90225,590.6417 111.40625,623.3492 118.16375,648.2672"/><path id="Fill-63" fill="#597EF7" d="M215.0909,590.61755 L214.2584,578.72105 L123.8654,579.21455 L122.1284,590.68355 C122.1284,590.68355 205.8059,590.94305 215.0909,590.61755"/><path id="Stroke-65" fill="#1D39C4" fill-rule="nonzero" d="M122.748019,590.432636 L128.587378,590.378941 C137.367037,590.313576 148.64224,590.288913 161.863775,590.298858 L173.14312,590.314767 C176.972547,590.322511 180.863239,590.332603 184.79006,590.344765 L215.516175,590.47761 C215.82683,590.479446 216.077176,590.73277 216.07536,591.043425 C216.073687,591.323014 215.86833,591.553754 215.600807,591.595767 L215.420941,591.602072 L196.649242,591.512173 C187.112688,591.473721 177.639483,591.445587 168.57718,591.431618 L154.525307,591.421984 C141.475284,591.425607 130.676159,591.468472 122.760681,591.557564 C122.45004,591.561061 122.195382,591.312071 122.191814,591.001431 C122.188389,590.69079 122.437379,590.436132 122.748019,590.432636 Z"/><path id="Stroke-67" fill="#1D39C4" fill-rule="nonzero" d="M213.399683,578.230098 C213.710343,578.229622 213.96305,578.481073 213.96305,578.791733 C213.96305,579.102393 213.712077,579.354621 213.401417,579.355099 L197.04493,579.390726 L177.541108,579.450909 L147.297221,579.592888 C138.411234,579.647033 130.797669,579.708116 124.716381,579.776564 C124.40574,579.780061 124.151082,579.531071 124.147445,579.220431 C124.144089,578.90979 124.393079,578.655132 124.703719,578.651636 L137.555732,578.533948 C143.39001,578.489733 149.979976,578.449431 157.219622,578.412868 L177.536963,578.325916 L213.399683,578.230098 Z"/><path id="Fill-69" fill="#1D39C4" d="M174.82235,584.5391 C174.85985,585.6281 176.02535,586.4696 177.42335,586.4201 C178.82285,586.3721 179.92535,585.4496 179.88785,584.3621 C179.85035,583.2746 178.68335,582.4316 177.28685,582.4811 C175.88735,582.5306 174.78485,583.4516 174.82235,584.5391"/><path id="Stroke-71" fill="#1D39C4" fill-rule="nonzero" d="M188.00681,579.217685 C188.285144,579.191172 188.535392,579.372248 188.604134,579.634179 L188.620115,579.72431 L189.731,591.394 L189.991179,591.758274 L190.339268,592.260857 C190.520328,592.526428 190.711536,592.813146 190.911202,593.119796 C191.86094,594.578415 192.810348,596.190414 193.696831,597.911099 C195.756853,601.909654 197.16319,605.872103 197.615843,609.595503 C198.008992,612.829444 197.65977,615.761933 196.452497,618.310461 C196.319501,618.591213 195.984091,618.710993 195.703339,618.577997 C195.422587,618.445001 195.302807,618.109591 195.435803,617.828839 C196.544083,615.489284 196.868196,612.767642 196.499065,609.73127 C196.064851,606.159538 194.700809,602.31626 192.696751,598.426332 C191.828797,596.741611 190.898452,595.16198 189.968436,593.73365 L189.590053,593.161147 C189.46802,592.97934 189.350248,592.806682 189.23724,592.643542 L188.814006,592.046 C188.782328,592.002563 188.756451,591.967549 188.736665,591.941171 C188.69526,591.885968 188.664544,591.823863 188.645759,591.758062 L188.626685,591.65699 L187.500185,579.83099 C187.470726,579.52173 187.69755,579.247144 188.00681,579.217685 Z"/><path id="Fill-73" fill="#FFC999" d="M83.68565,533.3795 C83.68565,533.3795 87.31715,502.4375 94.56215,474.6335 C101.16815,449.282 110.76215,428.027 126.98465,431.519 C147.35615,435.9035 136.42715,470.9495 132.27215,489.062 C129.28115,502.097 120.51215,528.71 114.86615,542.2655 C105.86165,563.888 78.32915,552.95 83.68565,533.3795"/><path id="Fill-75" fill="#E4EBF7" d="M130.59575,496.3673 C134.75225,478.2548 152.27675,436.9553 127.04825,431.2448 C109.24775,427.2143 99.67925,449.8088 92.42375,483.9548 L130.59575,496.3673 Z"/><path id="Fill-77" fill="#FFC999" d="M288.97625,666.2957 C224.88125,672.4982 171.50825,664.1492 171.50825,664.1492 C171.50825,664.1492 152.89775,639.9152 166.02725,621.5132 C177.95975,604.7897 219.52475,611.6252 288.71825,615.3122 C288.71825,615.3122 320.45375,615.7922 318.46925,644.1602 C317.03525,664.6622 288.97625,666.2957 288.97625,666.2957"/><path id="Fill-79" fill="#597EF7" d="M248.6696,669.77255 C244.7951,636.05105 251.1731,612.96305 251.1731,612.96305 C231.7541,611.39555 181.7261,608.45855 131.0441,611.41505 C102.0446,638.86655 142.4486,665.89655 142.4486,665.89655 L248.6696,669.77255 Z"/><path id="Stroke-81" fill="#1D39C4" fill-rule="nonzero" d="M176.689947,608.458988 L251.767947,612.682988 C252.121056,612.702855 252.368442,613.039792 252.281648,613.382644 C250.851291,619.032823 249.732318,625.865268 248.893382,633.622951 C248.071403,641.223828 247.552989,649.359892 247.279874,657.581725 L247.2189,659.555985 C247.114651,663.210109 247.071082,666.429673 247.067373,669.05531 L247.074314,671.219202 C247.077847,671.529842 246.828888,671.78453 246.518248,671.788137 C246.207608,671.791597 245.95292,671.542638 245.949386,671.231998 L245.94269,669.9603 C245.936005,666.880019 245.986601,662.86434 246.133804,658.213126 L246.155495,657.544375 C246.429471,649.296598 246.949601,641.133602 247.774903,633.501996 C248.548701,626.346652 249.560219,619.96778 250.836416,614.55783 L251.026,613.768 L176.626753,609.582212 C176.3476,609.566506 176.127475,609.349809 176.098963,609.080513 L176.096738,608.989003 C176.112444,608.70985 176.329141,608.489725 176.598437,608.461213 L176.689947,608.458988 Z"/><path id="Fill-83" fill="#FFC999" d="M291.1574,704.18015 C309.2984,750.29915 326.2274,780.33365 337.8779,828.35165 C339.2924,834.17765 347.8124,832.65965 355.6004,830.28965 C376.7054,840.61715 410.8409,837.32465 413.8319,829.81265 C415.6274,825.30215 400.4264,813.49265 388.6739,813.32765 C362.4059,812.96315 356.2634,784.13315 356.2634,784.13315 C356.2634,784.13315 333.6599,694.86215 320.2529,638.86715 C320.2529,638.86715 313.3424,614.58365 292.3784,621.12815 C256.0859,632.45765 284.9654,688.43915 291.1574,704.18015"/><g id="分组" transform="translate(338.000000, 825.561500)"><mask id="mask-2" fill="#fff"><use xlink:href="#path-1"/></mask><path id="Fill-85" fill="#96A7CA" d="M89.70135,0.42705 C89.70135,0.42705 88.26285,8.87505 69.31185,13.50405 C50.36235,18.13305 39.25335,12.54555 29.03685,14.03205 C9.93885,16.81005 0.684698623,14.52555 0.684698623,14.52555 C0.684698623,14.52555 0.57435,17.57355 3.25035,20.84505 C7.37985,25.88955 23.95335,18.82905 35.50185,20.49705 C43.85685,21.70455 50.16435,21.91155 63.24135,21.08205 C76.31985,20.24955 90.66135,12.06405 91.20435,7.40805 C91.74885,2.75055 89.70135,0.42705 89.70135,0.42705" mask="url(#mask-2)"/></g><path id="Fill-87" fill="#4E5C93" d="M339.4445,840.5873 C339.4445,840.5873 344.2565,841.7273 359.021,840.8678 C362.5505,840.6623 366.053,840.5798 372.3755,840.8273 C382.0925,841.2083 413.6135,845.3663 426.701,829.0763 C428.369,825.5138 426.683,822.4553 424.64,820.3163 C422.696,818.2823 420.02,817.1168 417.2075,817.0148 C408.686,816.7043 388.334,816.0068 374.5865,804.7928 C372.977,803.4803 370.745,803.2928 368.9465,804.3323 C366.77,805.5893 364.082,807.6593 362.6435,810.7298 C361.445,813.2858 368.8325,819.3593 366.95,820.3193 C361.775,822.9593 352.1075,824.2178 345.026,822.1223 C339.095,820.3673 335.0435,818.1923 335.0435,818.1923 C335.0435,818.1923 334.6175,833.4143 339.4445,840.5873"/><path id="Stroke-89" fill="#96A7CA" fill-rule="nonzero" d="M418.606709,821.42734 C418.882001,821.117845 419.356064,821.090117 419.66556,821.365409 C419.975055,821.640701 420.002783,822.114764 419.727491,822.42426 C419.495293,822.685307 419.04042,823.115259 418.346163,823.656547 C417.209018,824.543139 415.799329,825.425797 414.100954,826.246731 C409.750918,828.349381 404.273764,829.695249 397.573956,829.930837 C397.159999,829.945393 396.812619,829.621614 396.798063,829.207656 C396.783507,828.793699 397.107286,828.446319 397.521244,828.431763 C404.013767,828.203464 409.286483,826.907832 413.448167,824.896223 C415.049549,824.122173 416.369154,823.29592 417.423861,822.473601 C417.78849,822.189313 418.093067,821.927118 418.339645,821.694049 L418.537927,821.500199 C418.569243,821.46817 418.592127,821.443734 418.606709,821.42734 Z"/><path id="Stroke-91" fill="#96A7CA" fill-rule="nonzero" d="M380.835989,809.578105 C381.188233,809.360168 381.650457,809.469044 381.868395,809.821289 C382.086332,810.173533 381.977456,810.635757 381.625211,810.853695 L381.377383,811.018354 C381.167933,811.162573 380.933197,811.334291 380.679556,811.532558 C379.952149,812.101162 379.223996,812.765283 378.545891,813.516373 C377.36189,814.827809 376.461738,816.259652 375.954509,817.789879 C375.824181,818.183055 375.399797,818.396136 375.006621,818.265809 C374.613445,818.135481 374.400364,817.711097 374.530691,817.317921 C375.109561,815.571567 376.118597,813.966525 377.432516,812.511188 C378.172522,811.691535 378.963774,810.969864 379.755771,810.350771 L380.094865,810.091762 C380.413302,809.854432 380.667411,809.682406 380.835989,809.578105 Z"/><path id="Stroke-93" fill="#1D39C4" fill-rule="nonzero" d="M240.602757,613.839638 C240.908205,613.896306 241.109881,614.18986 241.053212,614.495307 L240.89845,615.363583 C240.774884,616.07232 240.637144,616.891651 240.488771,617.811045 C240.064686,620.438891 239.640543,623.340726 239.244672,626.432228 C238.358015,633.356451 237.743554,640.197068 237.523419,646.588529 L237.476894,648.170697 C237.287021,656.00166 237.740903,662.626289 238.953113,667.676409 C239.025623,667.978489 238.83952,668.282153 238.537441,668.354663 C238.235361,668.427173 237.931697,668.24107 237.859187,667.938991 C236.538066,662.435145 236.102353,655.165189 236.399085,646.549804 C236.62055,640.119734 237.238019,633.24564 238.128784,626.289337 C238.482118,623.530021 238.85789,620.921128 239.236196,618.521673 L239.37814,617.63181 C239.502425,616.861679 239.619336,616.16111 239.726823,615.536186 L239.947088,614.290093 C239.998089,614.015189 240.240968,613.824342 240.511705,613.829852 L240.602757,613.839638 Z"/><path id="Fill-95" fill="#FFC999" d="M314.38385,434.37725 C314.38385,434.37725 313.95185,428.75675 315.86885,421.74725 C317.78885,414.73775 322.99085,406.34675 323.04635,397.91975 C323.10185,389.49425 330.31085,396.56225 326.22785,412.45175 C337.01435,409.71425 348.34085,404.57975 351.72935,396.35075 C352.96835,393.34475 355.87085,393.83225 355.93985,396.72875 C356.00885,399.62675 354.85085,402.34025 354.85085,402.34025 C354.85085,402.34025 356.94185,404.69375 355.51685,407.96225 C358.29185,412.89575 353.70785,416.02475 353.70785,416.02475 C353.70785,416.02475 356.50535,417.79925 350.84135,425.13425 C344.97035,432.73625 332.22035,439.56125 332.22035,439.56125 L318.86285,465.30275 L301.24685,453.63875 L314.38385,434.37725 Z"/><path id="Stroke-97" fill="#DD936F" fill-rule="nonzero" d="M326.016918,411.937532 C326.301162,411.820623 326.62636,411.956275 326.743268,412.240518 L326.879003,412.594239 C326.907839,412.672951 326.939512,412.761233 326.973613,412.858618 C327.142766,413.341682 327.311631,413.88126 327.469177,414.464913 C327.975695,416.341382 328.253322,418.233279 328.180441,420.012877 C328.08485,422.346989 327.38737,424.3007 325.952145,425.718149 C325.733469,425.934118 325.381119,425.931922 325.165151,425.713245 C324.949182,425.494569 324.951378,425.142219 325.170055,424.926251 C326.380677,423.730622 326.983393,422.042355 327.068373,419.967333 C327.135997,418.3161 326.87404,416.53099 326.394636,414.754965 C326.282023,414.337773 326.163414,413.94444 326.043428,413.580455 L325.923154,413.226456 C325.827653,412.953726 325.754249,412.761906 325.713932,412.663882 C325.597023,412.379638 325.732675,412.05444 326.016918,411.937532 Z"/><path id="Stroke-99" fill="#DD936F" fill-rule="nonzero" d="M349.190047,411.688153 C349.903294,411.160047 350.726427,411.457097 351.590535,412.252211 C351.992283,412.621882 352.408436,413.104562 352.833831,413.674902 C353.173097,414.129766 353.499461,414.614972 353.802001,415.099959 L354.150368,415.677725 C354.166081,415.705008 354.1802,415.729802 354.192673,415.751965 C354.343411,416.019808 354.248478,416.359135 353.980635,416.509873 C353.712792,416.660611 353.373465,416.565678 353.222727,416.297835 L353.079626,416.052266 C353.018274,415.949473 352.94378,415.827071 352.857675,415.68904 C352.570339,415.228427 352.260664,414.768033 351.941662,414.340337 C351.554164,413.820807 351.180478,413.387382 350.836902,413.071239 C350.322529,412.597935 349.992539,412.478849 349.852126,412.582815 C349.511514,412.834745 349.364466,413.787216 349.477901,415.160197 C349.525108,415.731572 349.612408,416.34519 349.728237,416.972254 C349.770726,417.202279 349.815249,417.424347 349.860425,417.635228 L350.017846,418.315069 C350.054932,418.457927 350.033748,418.609666 349.958955,418.736905 L349.833145,418.941231 L349.769715,419.040486 C349.619022,419.274304 349.44258,419.53402 349.241533,419.813228 C348.667899,420.609875 348.010146,421.40632 347.276578,422.151393 C345.134782,424.326776 342.791213,425.638979 340.303053,425.623388 C333.531627,425.579017 326.808235,427.438114 325.69789,430.42813 C325.590896,430.716252 325.270592,430.863085 324.98247,430.75609 C324.694348,430.649096 324.547515,430.328792 324.65451,430.04067 C325.999049,426.419997 333.076457,424.46301 340.310187,424.510411 C342.440154,424.523757 344.532227,423.352371 346.483469,421.37053 C347.17397,420.6692 347.796066,419.915929 348.338321,419.162861 L348.604587,418.783323 L348.883,418.361 L348.843517,418.190884 C348.771958,417.877983 348.700483,417.535685 348.633752,417.174424 C348.511634,416.513313 348.419258,415.864014 348.368681,415.25184 C348.22364,413.496321 348.414202,412.261997 349.190047,411.688153 Z"/><path id="Stroke-101" fill="#DD936F" fill-rule="nonzero" d="M350.162805,404.106921 C350.880758,403.04593 351.97951,403.220616 353.128495,404.171462 C353.574164,404.540276 354.036501,405.026844 354.509066,405.604133 C354.879261,406.056367 355.235116,406.538857 355.564773,407.021161 L355.745054,407.288724 C355.853078,407.45153 355.936152,407.581666 355.990527,407.669943 C356.151715,407.93163 356.070244,408.274438 355.808557,408.435627 C355.54687,408.596815 355.204062,408.515344 355.042873,408.253657 L354.887356,408.009917 C354.84288,407.941878 354.792039,407.865174 354.735322,407.780978 L354.645903,407.649211 C354.333121,407.191595 353.995748,406.734165 353.647825,406.309139 C353.217034,405.782882 352.8014,405.345464 352.418899,405.028925 C351.705341,404.438418 351.323447,404.377702 351.084748,404.730452 C350.721182,405.268298 350.683714,406.175508 350.951465,407.347457 C351.09751,407.986701 351.326769,408.674163 351.616565,409.380991 C351.756888,409.723247 351.904895,410.054334 352.05475,410.367527 L352.205005,410.674506 C352.32466,410.913531 352.416826,411.086016 352.467673,411.176365 C352.618411,411.444208 352.523478,411.783535 352.255635,411.934273 C351.987792,412.085011 351.648465,411.990078 351.497727,411.722235 L351.349397,411.446397 C351.307843,411.366662 351.261001,411.275118 351.209746,411.172732 C350.997343,410.748435 350.785115,410.287011 350.586757,409.803206 C350.275449,409.043909 350.027506,408.300419 349.866422,407.595352 C349.536548,406.151486 349.585732,404.960624 350.162805,404.106921 Z"/><path id="Stroke-103" fill="#DD936F" fill-rule="nonzero" d="M348.164147,415.13434 C348.362395,414.899479 348.713499,414.869799 348.94836,415.068047 C349.183221,415.266295 349.212901,415.617399 349.014653,415.85226 C346.851849,418.414493 344.823338,419.945118 341.640952,421.40511 C341.361601,421.533269 341.031248,421.410703 340.90309,421.131352 C340.774931,420.852001 340.897497,420.521648 341.176848,420.39349 C344.211592,419.001232 346.107846,417.570402 348.164147,415.13434 Z"/><path id="Stroke-105" fill="#DD936F" fill-rule="nonzero" d="M349.949951,410.193553 C350.183289,409.993516 350.53461,410.020512 350.734647,410.253851 C350.934684,410.487189 350.907688,410.83851 350.674349,411.038547 L350.507086,411.178224 L350.334015,411.318874 C350.062591,411.537425 349.749471,411.780463 349.398505,412.041885 C348.397112,412.787786 347.291108,413.533389 346.110874,414.229844 C344.289381,415.304706 342.458675,416.162867 340.665375,416.724145 C340.37206,416.815948 340.059859,416.652591 339.968055,416.359275 C339.876252,416.06596 340.039609,415.753759 340.332925,415.661955 C342.036539,415.128748 343.792134,414.305796 345.545234,413.271293 C346.688934,412.596396 347.762452,411.872693 348.733643,411.149289 C348.903362,411.022871 349.063747,410.901041 349.214302,410.784566 L349.861255,410.268136 C349.899145,410.236682 349.928794,410.21169 349.949951,410.193553 Z"/><path id="Stroke-107" fill="#DD936F" fill-rule="nonzero" d="M349.603332,405.117601 C349.834822,404.915427 350.186376,404.939192 350.388549,405.170682 C350.590723,405.402172 350.566958,405.753726 350.335468,405.955899 L349.92556,406.301367 L349.508833,406.640531 C349.289009,406.81695 349.052243,407.003262 348.79965,407.197822 C347.597787,408.123564 346.282686,409.049115 344.895224,409.913683 C343.174393,410.985983 341.462318,411.888261 339.79421,412.565387 C339.509431,412.680986 339.184861,412.543838 339.069263,412.25906 C338.953664,411.974281 339.090812,411.649711 339.37559,411.534113 C340.979327,410.883117 342.636366,410.009843 344.306606,408.969068 C345.660589,408.125362 346.946123,407.22062 348.120475,406.316069 L348.592084,405.947921 C348.742102,405.829186 348.884823,405.714596 349.019908,405.604639 L349.493382,405.212004 C349.540128,405.172324 349.57689,405.140693 349.603332,405.117601 Z"/><path id="Stroke-109" fill="#DD936F" fill-rule="nonzero" d="M337.943832,409.693391 C338.233372,409.590297 338.551665,409.741442 338.654759,410.030982 L338.772137,410.36992 L338.996482,411.042436 L339.077956,411.293311 C339.393861,412.272556 339.709698,413.325197 340.004617,414.411215 C340.344038,415.66111 340.633686,416.875437 340.858141,418.025227 C341.514954,421.389816 341.573153,423.905164 340.795695,425.332363 C340.648669,425.602262 340.310685,425.70187 340.040787,425.554845 C339.770888,425.407819 339.67128,425.069835 339.818305,424.799937 C340.427322,423.681949 340.373393,421.351127 339.765761,418.238474 C339.546865,417.117162 339.26332,415.928421 338.930517,414.702897 C338.698478,413.848432 338.453086,413.014352 338.205058,412.221555 L337.938683,411.3886 L337.606241,410.404318 C337.503147,410.114778 337.654292,409.796485 337.943832,409.693391 Z"/><path id="Stroke-111" fill="#DD936F" fill-rule="nonzero" d="M351.641716,398.486491 C352.240412,398.191395 352.827722,398.490757 353.432614,399.135004 C353.728744,399.4504 354.033537,399.856884 354.344707,400.335068 C354.595541,400.720532 354.836761,401.131282 355.060462,401.541778 L355.311076,402.016849 C355.325611,402.045607 355.338466,402.071378 355.349574,402.093951 C355.48527,402.36972 355.371718,402.703278 355.095949,402.838974 C354.82018,402.97467 354.486622,402.861118 354.350926,402.585349 L354.154825,402.206985 C354.132348,402.165026 354.108435,402.120747 354.083158,402.074363 C353.872329,401.687488 353.645282,401.300869 353.411832,400.942121 C353.133507,400.514411 352.865635,400.157166 352.621212,399.896841 C352.321989,399.57815 352.136367,399.483536 352.133384,399.485006 C351.672797,399.711569 351.41177,400.275461 351.346756,401.124325 C351.307769,401.633368 351.343767,402.190097 351.428225,402.735933 L351.470639,402.987063 C351.490902,403.096927 351.509132,403.182096 351.522557,403.237426 C351.59503,403.536106 351.411653,403.836985 351.112974,403.909457 C350.814294,403.98193 350.513415,403.798553 350.440943,403.499874 L350.400528,403.315607 C350.37815,403.204663 350.35314,403.066568 350.328314,402.906125 C350.23185,402.282699 350.190618,401.64501 350.237006,401.039331 C350.328932,399.839081 350.752595,398.923851 351.641716,398.486491 Z"/><path id="Stroke-113" fill="#96A7CA" fill-rule="nonzero" d="M140.161207,461.77057 C140.248678,461.472478 140.561238,461.301737 140.85933,461.389207 C141.127612,461.467931 141.292742,461.728977 141.259318,461.997708 L141.240693,462.08733 L131.135193,496.52583 C131.054852,496.799624 130.785255,496.965007 130.512344,496.923874 L130.421505,496.902379 L92.2495054,484.489879 C91.954072,484.393813 91.7924536,484.076439 91.8885205,483.781005 C91.9749808,483.515115 92.2406995,483.357615 92.5083496,483.398807 L92.5973946,483.420021 L130.218,495.653 L140.161207,461.77057 Z"/><path id="Fill-115" fill="#FFC999" d="M115.6823,644.76545 C115.6823,644.76545 85.1138,570.83495 83.1788,541.57145 C82.0958,525.20645 102.0803,514.92845 113.3903,530.71295 C122.6723,543.66695 136.0958,639.36395 136.0958,639.36395 C136.0958,639.36395 138.8813,648.23795 128.3738,651.45545 C117.4688,654.79445 115.6823,644.76545 115.6823,644.76545"/><path id="Fill-117" fill="#FFC999" d="M166.1036,674.39855 C169.4111,673.13705 163.5431,658.53155 161.7161,655.54205 C159.2801,651.55505 137.8616,640.30655 137.8616,640.30655 L132.7346,617.74955 L109.4231,626.63405 C109.4231,626.63405 115.0856,647.24105 120.9071,657.25955 C125.2526,664.73705 132.9836,665.29055 143.4926,675.19055 C148.3556,679.77305 154.4441,684.62105 156.9221,680.96405 C157.4111,680.24405 162.4676,681.57005 161.8196,677.10155 C161.8196,677.10155 163.5386,678.44105 165.1571,677.08655 C166.5641,675.90905 166.1036,674.39855 166.1036,674.39855"/><path id="Stroke-119" fill="#DD936F" fill-rule="nonzero" d="M139.206381,663.79764 C139.329215,663.537283 139.639852,663.425798 139.90021,663.548631 L140.113515,663.65291 C140.204528,663.698447 140.314957,663.754699 140.443317,663.821472 C140.8683,664.04255 141.341108,664.302593 141.849877,664.600099 C143.303009,665.44983 144.756174,666.43091 146.114715,667.532275 C147.343548,668.528486 148.435672,669.577239 149.355006,670.67548 L157.483597,680.389589 C157.668315,680.610391 157.639062,680.93913 157.418261,681.123847 C157.197459,681.308565 156.86872,681.279312 156.684003,681.058511 L148.555605,671.344633 C147.682372,670.301463 146.637868,669.298439 145.458203,668.342088 C144.144205,667.276835 142.733937,666.324715 141.323635,665.500031 C140.928888,665.269199 140.556942,665.061886 140.213939,664.878943 L139.45539,664.491469 C139.195033,664.368635 139.083548,664.057998 139.206381,663.79764 Z"/><path id="Stroke-121" fill="#DD936F" fill-rule="nonzero" d="M144.74438,657.426441 C144.921779,657.199717 145.249385,657.159732 145.476109,657.33713 L145.941788,657.712029 L146.401505,658.092636 C146.640683,658.292908 146.893342,658.50787 147.157249,658.736338 C148.413912,659.824249 149.670661,660.995951 150.84506,662.208225 C152.186495,663.592922 153.334464,664.943359 154.230303,666.230991 C154.608081,666.774071 155.017336,667.353527 155.454855,667.965377 L156.566469,669.506265 C157.473852,670.754082 158.433314,672.051983 159.403214,673.348447 L160.862827,675.288272 L161.752259,676.458256 C161.927275,676.686824 161.883863,677.013993 161.655294,677.189009 C161.426726,677.364025 161.099557,677.320613 160.924541,677.092044 L159.298914,674.946508 L157.841504,672.99826 C157.359148,672.349507 156.881968,671.703552 156.415143,671.066802 L155.287056,669.51768 L154.606468,668.571221 C154.166576,667.956049 153.754874,667.373124 153.374518,666.826339 C152.514475,665.590158 151.401528,664.280919 150.096297,662.933594 C148.945043,661.745211 147.71002,660.593765 146.474913,659.524516 L145.971754,659.093638 C145.809447,658.956197 145.652776,658.825058 145.502406,658.700579 L144.833691,658.15817 C144.606967,657.980771 144.566982,657.653165 144.74438,657.426441 Z"/><path id="Stroke-123" fill="#DD936F" fill-rule="nonzero" d="M149.718612,653.015138 C149.880162,652.776862 150.204285,652.714663 150.442562,652.876212 L150.905892,653.203718 L151.361081,653.538799 C151.597862,653.715956 151.847937,653.907363 152.109103,654.112242 C153.352358,655.087549 154.59561,656.168763 155.757605,657.327795 C158.003061,659.567523 159.672594,661.822922 160.52714,664.027453 C160.951036,665.122327 161.421822,666.196881 161.931506,667.24656 C162.744712,668.921333 163.616049,670.453076 164.48683,671.808785 C164.669355,672.092956 164.843929,672.356896 165.008965,672.599719 L165.325851,673.056948 C165.47623,673.269478 165.582518,673.41359 165.637364,673.485196 C165.812413,673.713739 165.769047,674.040915 165.540504,674.215964 C165.311961,674.391013 164.984785,674.347647 164.809736,674.119104 L164.474838,673.659097 L164.147427,673.18671 C163.977152,672.936197 163.797375,672.6644 163.609682,672.372183 C162.717522,670.98319 161.825918,669.41582 160.993712,667.701916 C160.471802,666.627057 159.989519,665.526261 159.555036,664.404044 C158.762347,662.359089 157.173009,660.212027 155.021388,658.065894 C153.891126,656.938515 152.678387,655.883836 151.465651,654.932471 L150.971808,654.550977 C150.892167,654.490426 150.813915,654.431411 150.737132,654.373961 L150.072266,653.888805 C149.976402,653.82082 149.904087,653.770647 149.857538,653.739088 C149.619262,653.577538 149.557063,653.253415 149.718612,653.015138 Z"/></g></svg>