<?xml version="1.0" encoding="UTF-8"?>
<svg width="512px" height="1024px" viewBox="0 0 512 1024" version="1.1" xmlns="http://www.w3.org/2000/svg" xmlns:xlink="http://www.w3.org/1999/xlink">
    <!-- Generator: Sketch 61.2 (89653) - https://sketch.com -->
    <title>2.人物组件/5.用研/坐姿/打招呼</title>
    <desc>Created with Sketch.</desc>
    <defs>
        <polygon id="path-1" points="1.47033074 0.546449679 29.2335 0.546449679 29.2335 56.676019 1.47033074 56.676019"></polygon>
    </defs>
    <g id="2.人物组件/5.用研/坐姿/打招呼" stroke="none" stroke-width="1" fill="none" fill-rule="evenodd">
        <g id="分组" transform="translate(360.000000, 357.135500)">
            <mask id="mask-2" fill="white">
                <use xlink:href="#path-1"></use>
            </mask>
            <g id="Clip-2"></g>
            <path d="M7.33665,53.67045 C7.33665,53.67045 3.55065,49.72545 2.28915,42.38895 C1.03965,35.11395 1.51815,14.74695 1.80015,13.57395 C2.75865,9.57795 6.98865,11.26395 7.24815,23.04195 C12.48165,16.51095 14.42715,10.59495 13.76415,4.79745 C13.10265,-1.00005 19.78965,-1.26705 23.08365,6.48795 C26.37915,14.24595 29.95815,19.88895 29.10615,27.95595 C27.88365,39.50445 27.08715,44.00445 23.24715,50.20245 C19.01715,57.03345 13.42965,58.89645 7.33665,53.67045" id="Fill-1" fill="#FFC6A0" mask="url(#mask-2)"></path>
        </g>
        <path d="M367.137887,379.739773 C367.352751,379.685347 367.570671,379.794911 367.659448,379.9897 L367.686427,380.066587 L368.4349,383.021478 C368.791821,384.429094 369.387209,385.782081 370.194614,387.033633 L370.624429,387.709082 C374.208574,393.42383 376.000865,398.441535 374.084734,401.274409 C373.945028,401.480955 373.664336,401.535139 373.457791,401.395434 C373.251245,401.255728 373.197061,400.975036 373.336766,400.768491 C375.019392,398.28084 373.077294,393.165923 369.43585,387.52321 C368.661945,386.323587 368.070151,385.034671 367.681551,383.692592 L367.559573,383.243313 L366.811073,380.288313 C366.749844,380.046591 366.896164,379.801001 367.137887,379.739773 Z" id="Stroke-3" fill="#DD936F" fill-rule="nonzero"></path>
        <path d="M383.650408,373.221634 C384.026725,371.570372 384.925696,370.654602 386.411464,371.196535 C386.645724,371.281981 386.766361,371.541154 386.680915,371.775414 C386.595469,372.009674 386.336296,372.130311 386.102036,372.044865 C385.276799,371.74386 384.80345,372.226055 384.530834,373.42228 C384.413006,373.939302 384.363641,374.474537 384.355321,374.910713 L384.354,375.104 L384.386955,375.344017 L384.416758,375.62455 C384.680267,378.399961 384.286204,381.628867 382.704978,384.7135 C382.273337,385.555539 381.761578,386.358346 381.164981,387.116018 C381.010718,387.31193 380.726844,387.345694 380.530932,387.191431 C380.33502,387.037168 380.301256,386.753294 380.455519,386.557382 C381.015542,385.84616 381.495951,385.092533 381.901406,384.301577 C383.327647,381.519286 383.731805,378.5948 383.54666,376.053953 L383.504111,375.573563 L383.45186,375.152666 L383.451515,375.130393 C383.445401,374.599003 383.494188,373.907119 383.650408,373.221634 Z" id="Stroke-5" fill="#DD936F" fill-rule="nonzero"></path>
        <path d="M381.677605,365.607824 C382.408027,365.147365 383.284382,365.37494 384.232588,366.272808 C384.41365,366.444258 384.421442,366.730025 384.249992,366.911088 C384.078542,367.09215 383.792775,367.099942 383.611712,366.928492 C382.931821,366.284695 382.482339,366.167972 382.159158,366.371706 C381.853013,366.5647 381.580885,367.062346 381.380791,367.768461 C381.274648,368.14303 381.195623,368.54848 381.140431,368.954528 L381.101944,369.272036 C381.092697,369.359867 381.086886,369.427658 381.084076,369.469301 C381.009585,373.594849 380.417198,376.779823 379.470939,379.143842 C378.849054,380.697484 378.212196,381.602893 377.762068,382.000529 C377.575187,382.165617 377.289859,382.14795 377.124771,381.961068 C376.959683,381.774187 376.97735,381.488859 377.164232,381.323771 L377.245115,381.242907 C377.327313,381.153828 377.445319,381.009618 377.5903,380.8035 C377.942338,380.303015 378.297995,379.644223 378.632604,378.808277 C379.536282,376.550637 380.10863,373.473401 380.182021,369.43312 L380.209793,369.123903 C380.219284,369.03733 380.231138,368.939738 380.245659,368.832906 C380.30616,368.387804 380.393028,367.942105 380.512,367.522268 C380.767729,366.619822 381.133584,365.950776 381.677605,365.607824 Z" id="Stroke-7" fill="#DD936F" fill-rule="nonzero"></path>
        <path d="M377.484678,361.442406 C377.980482,360.217104 378.897473,359.675252 380.293198,359.889161 C380.539677,359.926936 380.708864,360.15737 380.671089,360.403848 C380.633314,360.650327 380.40288,360.819514 380.156402,360.781739 C379.180698,360.632203 378.662814,360.938222 378.321746,361.781116 C378.011763,362.54719 377.887486,363.515138 377.745946,365.765158 L377.631125,367.500712 C377.538403,368.789395 377.459577,369.506943 377.306546,370.503631 C377.019878,372.366218 376.591315,374.047301 376.058174,375.546151 C375.697654,376.559701 375.31048,377.431459 374.922056,378.161079 L374.754683,378.46689 C374.597388,378.745929 374.471512,378.944636 374.387751,379.062903 C374.24363,379.266393 373.961837,379.314521 373.758347,379.170401 C373.554857,379.02628 373.506729,378.744487 373.650849,378.540997 L373.732284,378.419231 C373.827259,378.271015 373.961681,378.043465 374.124971,377.736739 C374.492868,377.045676 374.862014,376.21451 375.207393,375.243528 C375.721687,373.797664 376.136161,372.171846 376.41403,370.36643 L376.513595,369.676076 C376.617171,368.898735 376.682203,368.166244 376.766456,366.917892 L376.884948,365.097283 C377.018745,363.165218 377.156067,362.254514 377.484678,361.442406 Z" id="Stroke-9" fill="#DD936F" fill-rule="nonzero"></path>
        <path d="M170.967,737.40155 C178.5045,737.96405 183.906,743.89205 183.906,754.87205 C183.906,767.79755 184.9395,781.48055 184.095,801.33005 C183.3915,817.87205 187.7085,830.92655 184.3275,835.11755 C180.6855,839.63705 172.851,836.71955 166.674,842.48405 C160.497,848.24855 156.039,852.68255 139.8345,848.74055 C120.8835,844.13105 137.112,838.45355 146.9175,831.55355 C164.0565,819.49055 162.516,811.78055 160.9695,801.33005 C155.6445,765.36155 151.6245,755.71805 153.3675,750.64955 C155.8005,743.56505 163.4985,736.84355 170.967,737.40155" id="Fill-11" fill="#FFC6A0"></path>
        <path d="M181.8771,824.28515 C179.9901,825.97865 177.3261,828.21965 173.6556,831.02615 C166.1796,836.74115 161.3271,840.19415 157.3791,838.35965 C150.1686,835.01165 144.5961,833.27015 144.5961,833.27015 C144.5961,833.27015 137.7201,836.55365 132.5196,840.31715 C127.3176,844.08215 127.7601,850.50665 138.9576,852.58565 C150.1551,854.66165 156.6381,854.18015 167.5281,846.31715 C178.4166,838.45565 184.6581,841.01015 186.4401,836.38415 C189.2256,829.15565 185.9046,820.29815 185.9046,820.29815 C185.9046,820.29815 184.8621,821.60465 181.8771,824.28515" id="Fill-13" fill="#253368"></path>
        <path d="M169.78335,684.632 L225.65985,638.03 C237.06735,628.2305 235.55985,609.608 222.45885,598.508 L222.45885,598.508 C211.12185,588.9005 195.20985,588.563 186.01485,597.7355 L134.34885,649.2755 C134.34885,649.2755 117.60585,664.769 135.42735,682.274 C152.75985,699.296 169.78335,684.632 169.78335,684.632" id="Fill-15" fill="#253368"></path>
        <path d="M177.25125,666.8225 L190.53225,804.899 L151.67775,804.899 L127.13325,665.696 C127.13325,665.696 128.25975,640.919 154.72575,643.1705 C179.41425,645.272 177.25125,666.8225 177.25125,666.8225" id="Fill-17" fill="#253368"></path>
        <path d="M150.10905,806.7569 L190.96905,806.7569 C191.83305,806.7569 192.51855,806.0279 192.46605,805.1639 L191.38455,787.6409 C191.33505,786.8504 190.67955,786.2339 189.88755,786.2339 L146.46405,786.2339 C145.51455,786.2339 144.80355,787.1084 144.99705,788.0384 L148.64055,805.5629 C148.78455,806.2574 149.39655,806.7569 150.10905,806.7569" id="Fill-19" fill="#4E5C93"></path>
        <path d="M295.0305,737.40155 C287.4915,737.96405 282.0915,743.89205 282.0915,754.87205 C282.0915,767.79755 281.058,781.48055 281.901,801.33005 C282.606,817.87205 278.289,830.92655 281.6685,835.11755 C285.312,839.63705 293.1465,836.71955 299.3235,842.48405 C305.5005,848.24855 309.9585,852.68255 326.163,848.74055 C345.114,844.13105 328.8855,838.45355 319.08,831.55355 C301.941,819.49055 303.4815,811.78055 305.028,801.33005 C310.3515,765.36155 314.3715,755.71805 312.63,750.64955 C310.197,743.56505 302.499,736.84355 295.0305,737.40155" id="Fill-21" fill="#FFC6A0"></path>
        <path d="M284.1204,824.28515 C286.0074,825.97865 288.6714,828.21965 292.3404,831.02615 C299.8179,836.74115 304.6689,840.19415 308.6184,838.35965 C315.8289,835.01165 321.4014,833.27015 321.4014,833.27015 C321.4014,833.27015 328.2759,836.55365 333.4779,840.31715 C338.6799,844.08215 338.2374,850.50665 327.0399,852.58565 C315.8409,854.66165 309.3594,854.18015 298.4694,846.31715 C287.5809,838.45565 281.3394,841.01015 279.5574,836.38415 C276.7719,829.15565 280.0929,820.29815 280.0929,820.29815 C280.0929,820.29815 281.1339,821.60465 284.1204,824.28515" id="Fill-23" fill="#253368"></path>
        <path d="M296.21415,684.632 L240.33765,638.03 C228.93015,628.2305 230.43765,609.608 243.53865,598.508 L243.53865,598.508 C254.87565,588.9005 270.78765,588.563 279.98115,597.7355 L331.64865,649.2755 C331.64865,649.2755 348.39165,664.769 330.56865,682.274 C313.23765,699.296 296.21415,684.632 296.21415,684.632" id="Fill-25" fill="#253368"></path>
        <path d="M288.7464,666.8225 L275.4654,804.899 L314.3199,804.899 L338.8644,665.696 C338.8644,665.696 337.7379,640.919 311.2719,643.1705 C286.5834,645.272 288.7464,666.8225 288.7464,666.8225" id="Fill-27" fill="#253368"></path>
        <path d="M315.88845,806.7569 L275.02845,806.7569 C274.16445,806.7569 273.47895,806.0279 273.53145,805.1639 L274.61295,787.6409 C274.66245,786.8504 275.31795,786.2339 276.10995,786.2339 L319.53345,786.2339 C320.48295,786.2339 321.19395,787.1084 321.00045,788.0384 L317.35695,805.5629 C317.21295,806.2574 316.59945,806.7569 315.88845,806.7569" id="Fill-29" fill="#4E5C93"></path>
        <path d="M225.86355,637.0694 L189.62055,612.5369 C186.51855,610.3049 184.83555,606.5924 185.20455,602.7884 L189.41355,559.1864 L288.97155,558.7079 L293.41605,603.6059 C293.50605,606.3989 292.50405,609.1049 290.62905,611.1749 C284.88105,617.5274 280.78005,623.2094 255.42705,637.0694 C251.98755,638.9504 228.95655,639.4799 225.86355,637.0694" id="Fill-31" fill="#253368"></path>
        <path d="M285.09975,571.59485 C285.417452,571.59485 285.675,571.852398 285.675,572.1701 C285.675,572.456032 285.466386,572.693239 285.193059,572.737821 L285.09975,572.74535 L192.18525,572.74535 C191.867548,572.74535 191.61,572.487802 191.61,572.1701 C191.61,571.884168 191.818614,571.646961 192.091941,571.602379 L192.18525,571.59485 L285.09975,571.59485 Z" id="Stroke-33" fill="#253368" fill-rule="nonzero"></path>
        <path d="M218.3958,406.07525 L218.8533,378.78725 L254.4303,379.60775 C254.4303,379.60775 254.2953,398.24075 254.9973,405.79925 C278.8458,439.50125 202.8243,438.23375 213.6828,413.74925 C216.0348,408.44675 218.3958,406.07525 218.3958,406.07525" id="Fill-35" fill="#FFC6A0"></path>
        <path d="M211.58865,363.03815 C213.99015,368.69165 212.28315,374.82665 207.77415,376.74215 C203.26665,378.65915 197.66565,375.62915 195.26265,369.97565 C192.86115,364.32215 194.56665,358.18715 199.07565,356.27015 C203.58465,354.35465 209.18565,357.38465 211.58865,363.03815" id="Fill-37" fill="#FFC6A0"></path>
        <path d="M262.17705,363.03815 C259.77405,368.69165 261.48105,374.82665 265.99005,376.74215 C270.49905,378.65915 276.10005,375.62915 278.50305,369.97565 C280.90305,364.32215 279.19755,358.18715 274.68855,356.27015 C270.18105,354.35465 264.58005,357.38465 262.17705,363.03815" id="Fill-39" fill="#FFC6A0"></path>
        <path d="M250.9329,323.84615 C250.9329,331.82015 244.4694,338.28365 236.4954,338.28365 C228.5229,338.28365 222.0579,331.82015 222.0579,323.84615 C222.0579,315.87215 228.5229,309.40865 236.4954,309.40865 C244.4694,309.40865 250.9329,315.87215 250.9329,323.84615" id="Fill-41" fill="#253368"></path>
        <path d="M252.0594,322.43855 C252.0594,330.41105 245.5944,336.87605 237.6219,336.87605 C229.6494,336.87605 223.1844,330.41105 223.1844,322.43855 C223.1844,314.46455 229.6494,308.00105 237.6219,308.00105 C245.5944,308.00105 252.0594,314.46455 252.0594,322.43855" id="Fill-43" fill="#090D33"></path>
        <path d="M269.7327,362.2397 C269.7327,384.6227 259.5957,396.2597 237.2127,396.2597 C216.2367,396.2597 204.6927,384.8567 204.6927,362.2397 C204.6927,331.4087 219.2532,323.8067 237.2127,323.8067 C255.1722,323.8067 269.7327,333.9422 269.7327,362.2397" id="Fill-45" fill="#FFC6A0"></path>
        <path d="M220.921453,393.038682 C221.040785,392.751855 221.370041,392.616072 221.656868,392.735403 C226.434581,394.723116 231.658776,395.83775 237.0708,395.83775 C242.022113,395.83775 246.506574,394.963146 251.26932,393.28956 C251.562412,393.18657 251.8835,393.340679 251.98649,393.63377 C252.08948,393.926862 251.935371,394.24795 251.64228,394.35094 C246.76682,396.064132 242.159229,396.96275 237.0708,396.96275 C231.50514,396.96275 226.135099,395.816998 221.224732,393.774097 C220.937905,393.654765 220.802122,393.325509 220.921453,393.038682 Z" id="Stroke-47" fill="#DD9987" fill-rule="nonzero"></path>
        <path d="M211.1682,326.20025 C211.1682,326.20025 222.3117,317.09675 238.8582,315.59375 C245.0532,315.02975 251.9262,319.35575 256.5912,322.63175 C269.8257,331.92275 271.1397,337.55525 271.9857,347.40875 C272.6862,355.57925 268.8882,368.80775 268.8882,368.80775 C268.8882,368.80775 268.2282,356.82425 267.1992,352.47725 C264.6642,341.77775 258.7527,336.42875 253.6842,335.02025 C249.4602,355.85675 231.1587,351.91475 231.1587,351.91475 C231.1587,351.91475 236.5782,341.77775 233.2002,335.02025 C231.2997,352.97075 206.9457,350.78825 206.9457,350.78825 C206.9457,350.78825 205.2567,361.48775 205.1142,368.80775 C204.2697,365.85125 201.7227,360.22025 201.3147,351.35075 C200.4687,333.04925 211.1682,326.20025 211.1682,326.20025" id="Fill-49" fill="#253368"></path>
        <path d="M234.7434,363.7778 C234.7434,370.7543 229.0869,376.4093 222.1104,376.4093 C215.1354,376.4093 209.4789,370.7543 209.4789,363.7778 C209.4789,356.8013 215.1354,351.1448 222.1104,351.1448 C229.0869,351.1448 234.7434,356.8013 234.7434,363.7778" id="Fill-51" fill="#FFFFFF"></path>
        <path d="M222.1104,350.3948 C214.720941,350.3948 208.7289,356.387332 208.7289,363.7778 C208.7289,371.168009 214.720682,377.1593 222.1104,377.1593 C229.501372,377.1593 235.4934,371.168255 235.4934,363.7778 C235.4934,356.387086 229.501114,350.3948 222.1104,350.3948 Z M222.1104,351.8948 C228.672686,351.8948 233.9934,357.215514 233.9934,363.7778 C233.9934,370.339773 228.673,375.6593 222.1104,375.6593 C215.549082,375.6593 210.2289,370.339555 210.2289,363.7778 C210.2289,357.215732 215.549395,351.8948 222.1104,351.8948 Z" id="Stroke-53" fill="#253368" fill-rule="nonzero"></path>
        <path d="M265.71465,363.7778 C265.71465,370.7543 260.05815,376.4093 253.08315,376.4093 C246.10665,376.4093 240.45015,370.7543 240.45015,363.7778 C240.45015,356.8013 246.10665,351.1448 253.08315,351.1448 C260.05815,351.1448 265.71465,356.8013 265.71465,363.7778" id="Fill-55" fill="#FFFFFF"></path>
        <path d="M253.08315,350.3948 C245.692436,350.3948 239.70015,356.387086 239.70015,363.7778 C239.70015,371.168255 245.692178,377.1593 253.08315,377.1593 C260.472868,377.1593 266.46465,371.168009 266.46465,363.7778 C266.46465,356.387332 260.472609,350.3948 253.08315,350.3948 Z M253.08315,351.8948 C259.644155,351.8948 264.96465,357.215732 264.96465,363.7778 C264.96465,370.339555 259.644468,375.6593 253.08315,375.6593 C246.52055,375.6593 241.20015,370.339773 241.20015,363.7778 C241.20015,357.215514 246.520864,351.8948 253.08315,351.8948 Z" id="Stroke-57" fill="#253368" fill-rule="nonzero"></path>
        <path d="M235.483767,358.673389 C236.397461,358.404751 237.328482,358.271988 238.221476,358.353644 C239.00611,358.425391 239.717362,358.662559 240.323633,359.095018 C240.660849,359.335556 240.739221,359.803918 240.498682,360.141133 C240.258144,360.478349 239.789782,360.556721 239.452567,360.316182 C239.078349,360.04925 238.619713,359.896317 238.084884,359.847412 C237.406909,359.785417 236.654214,359.892751 235.906878,360.112478 C235.544774,360.218941 235.271911,360.323861 235.129902,360.388398 C234.752804,360.559773 234.308178,360.393001 234.136802,360.015902 C233.965427,359.638804 234.132199,359.194178 234.509298,359.022802 L234.714644,358.935784 C234.911899,358.857086 235.17271,358.764844 235.483767,358.673389 Z" id="Stroke-59" fill="#253368" fill-rule="nonzero"></path>
        <g id="分组" transform="translate(219.000000, 358.635500)">
            <path d="M1.1784,4.9116 C1.1784,2.7321 2.6904,0.9666 4.5564,0.9666 C6.4224,0.9666 7.9359,2.7321 7.9359,4.9116" id="Fill-61" fill="#FFFFFF"></path>
            <path d="M1.1784,4.9116 C1.1784,2.7321 2.6904,0.9666 4.5564,0.9666 C6.4224,0.9666 7.9359,2.7321 7.9359,4.9116" id="Stroke-63" stroke="#253368" stroke-width="1.5" stroke-linecap="round" stroke-linejoin="round"></path>
        </g>
        <g id="分组" transform="translate(247.500000, 358.635500)">
            <path d="M1.2078,4.9116 C1.2078,2.7321 2.7213,0.9666 4.5873,0.9666 C6.4518,0.9666 7.9653,2.7321 7.9653,4.9116" id="Fill-64" fill="#FFFFFF"></path>
            <path d="M1.2078,4.9116 C1.2078,2.7321 2.7213,0.9666 4.5873,0.9666 C6.4518,0.9666 7.9653,2.7321 7.9653,4.9116" id="Stroke-66" stroke="#253368" stroke-width="1.5" stroke-linecap="round" stroke-linejoin="round"></path>
        </g>
        <path d="M237.3537,367.68245 C237.633294,367.68245 237.865244,367.88644 237.908838,368.15371 L237.9162,368.24495 L237.9162,372.74945 C237.9162,373.06011 237.66436,373.31195 237.3537,373.31195 C237.074106,373.31195 236.842156,373.10796 236.798562,372.84069 L236.7912,372.74945 L236.7912,368.24495 C236.7912,367.93429 237.04304,367.68245 237.3537,367.68245 Z" id="Stroke-67" fill="#DD9987" fill-rule="nonzero"></path>
        <path d="M241.723626,375.503828 C242.068291,375.274092 242.533936,375.367261 242.763672,375.711926 C242.993408,376.056591 242.900239,376.522236 242.555574,376.751972 C241.78075,377.268429 240.942435,377.633007 240.052862,377.857144 C238.040497,378.36418 235.920125,378.140102 233.874992,377.465855 C233.120592,377.217141 232.548943,376.966157 232.217267,376.791577 C231.850729,376.598645 231.709992,376.145106 231.902923,375.778567 C232.079777,375.442574 232.475614,375.296316 232.822687,375.42288 L233.180801,375.590795 C233.212788,375.605249 233.24717,375.620575 233.283887,375.636695 C233.596848,375.774102 233.953075,375.912182 234.344652,376.041278 C236.143108,376.6342 237.991807,376.829567 239.686375,376.402604 C240.413532,376.219389 241.094199,375.923371 241.723626,375.503828 Z" id="Stroke-69" fill="#F5222D" fill-rule="nonzero"></path>
        <path d="M201.495292,356.209216 C201.672931,355.873637 202.069109,355.728306 202.415885,355.85568 L202.509034,355.897242 L209.689534,359.698242 C210.05562,359.89203 210.195296,360.345898 210.001508,360.711984 C209.823869,361.047563 209.427691,361.192894 209.080915,361.06552 L208.987766,361.023958 L201.807266,357.222958 C201.44118,357.02917 201.301504,356.575302 201.495292,356.209216 Z" id="Stroke-71" fill="#253368" fill-rule="nonzero"></path>
        <path d="M270.957538,355.547698 C271.283221,355.291762 271.754717,355.348304 272.010652,355.673988 C272.243321,355.970064 272.217744,356.386645 271.96648,356.652229 L271.884362,356.727102 L265.972862,361.372602 C265.647179,361.628538 265.175683,361.571996 264.919748,361.246312 C264.687079,360.950236 264.712656,360.533655 264.96392,360.268071 L265.046038,360.193198 L270.957538,355.547698 Z" id="Stroke-73" fill="#253368" fill-rule="nonzero"></path>
        <path d="M275.22,415.89035 L259.1715,408.28835 C260.658,418.43885 219.702,422.10335 213.4995,410.42585 C213.3405,410.12885 213.216,409.84985 213.1095,409.57985 L186.951,420.11285 L193.9545,591.87935 C193.9545,591.87935 242.382,603.80135 274.1985,591.03485 C284.898,449.12735 275.22,415.89035 275.22,415.89035" id="Fill-75" fill="#597EF7"></path>
        <path d="M253.363359,421.314322 C253.647525,421.172251 253.993058,421.287442 254.135128,421.571609 C254.277199,421.855775 254.162008,422.201308 253.877841,422.343378 C252.777463,422.893518 251.654817,423.385162 250.511317,423.819959 C241.679385,427.178154 232.272232,427.04227 223.408399,424.801905 C222.032895,424.454241 220.79187,424.081496 219.705315,423.708291 L219.167943,423.518944 C219.084257,423.488655 219.003535,423.459032 218.925816,423.430124 L218.343476,423.203985 C218.050414,423.081309 217.912289,422.744287 218.034965,422.451226 C218.157641,422.158164 218.494663,422.020039 218.787724,422.142715 L219.112944,422.271098 L219.560626,422.437532 C219.72175,422.495841 219.894664,422.556854 220.079052,422.620187 C221.136268,422.983314 222.346803,423.346902 223.690327,423.686482 C232.345034,425.873991 241.523484,426.006571 250.10242,422.744574 C251.210222,422.32335 252.297626,421.847141 253.363359,421.314322 Z" id="Stroke-77" fill="#3C65D6" fill-rule="nonzero"></path>
        <path d="M178.75125,699.15305 C178.75125,699.15305 210.17625,653.86955 224.92575,585.96605 C235.01775,539.51555 235.06275,490.23605 217.48275,402.82355 C213.70275,404.14655 208.38225,407.89205 203.59425,410.70755 C196.12125,415.10405 189.09375,417.64805 177.26775,423.55955 C174.24375,425.07155 180.91575,491.84705 186.63525,551.05355 L184.85175,567.38255 C184.85175,567.38255 123.84675,654.80705 123.00225,665.78855 C122.61375,670.84055 178.75125,699.15305 178.75125,699.15305" id="Fill-79" fill="#E4EBF7"></path>
        <path d="M216.335137,401.74945 C216.759339,401.469835 217.33296,401.684031 217.470073,402.173247 L217.787439,403.347936 C217.864057,403.637148 217.946039,403.94991 218.033157,404.285908 L218.385181,405.66107 C218.787137,407.250434 219.220811,409.029153 219.679992,410.988759 L219.833988,411.648649 C221.60378,419.263252 223.373285,427.916433 225.024681,437.447655 C232.352862,479.743112 234.990946,524.145728 230.168697,566.959256 L229.836655,568.623623 L229.559526,569.96049 C229.269773,571.340894 228.935234,572.884315 228.555386,574.579712 C227.199279,580.632503 225.547745,587.376136 223.59257,594.638104 C218.006044,615.387743 211.106577,636.138129 202.826904,655.510612 C195.728703,672.118731 187.918748,686.957402 179.372351,699.574269 C179.140049,699.91721 178.673723,700.006902 178.330781,699.774601 C177.98784,699.542299 177.898148,699.075973 178.130449,698.733031 C186.618259,686.202655 194.384622,671.446807 201.447599,654.921106 C209.696753,635.620028 216.57467,614.934457 222.144148,594.248139 C223.978902,587.43344 225.545314,581.077207 226.850092,575.323497 L227.091673,574.251772 C227.422696,572.7743 227.719082,571.413117 227.981178,570.175632 L228.36702,568.323338 L228.686608,566.735243 C233.482506,524.136518 230.852514,479.870087 223.546701,437.703733 C221.971895,428.614556 220.289633,420.327657 218.602951,412.983805 L218.068198,410.687687 C217.666981,408.989401 217.286506,407.434689 216.931134,406.029507 L216.415303,404.027024 L216.294,403.572 L204.705,411.21 L204.696202,412.012899 C204.692103,412.935009 204.710488,414.057616 204.76088,415.37346 L204.797659,416.243346 C204.942808,419.389332 205.237881,422.936187 205.71755,426.857492 C206.980544,437.182478 209.324708,448.613487 213.001439,460.959186 L214.150312,464.767409 C222.17038,491.439889 224.603678,503.857135 229.048695,536.875085 C229.103959,537.285595 228.815976,537.66318 228.405465,537.718445 C227.994955,537.773709 227.61737,537.485726 227.562105,537.075215 L227.012007,533.020551 C222.958214,503.393368 220.42751,490.940297 212.963268,466.03025 L211.938233,462.63249 C208.021176,449.727871 205.544043,437.792978 204.228648,427.039621 C203.778925,423.363128 203.489674,420.00978 203.333054,417.000749 L203.299253,416.312479 C203.211861,414.418327 203.185906,412.865267 203.198756,411.670505 L203.218625,410.766686 C203.227685,410.560748 203.320923,410.36924 203.473827,410.235377 L203.555137,410.17345 L216.335137,401.74945 Z" id="Stroke-81" fill="#96A7CA" fill-rule="nonzero"></path>
        <path d="M187.990847,567.744646 L216.043847,572.556646 C216.486481,572.632572 216.755912,573.073351 216.640993,573.492447 L216.607555,573.588601 L190.725084,634.630958 C188.773468,640.487537 186.012856,643.240134 181.512628,642.757867 L181.245895,642.725767 L163.161895,640.313767 C162.751317,640.259005 162.462872,639.881773 162.517633,639.471195 C162.567832,639.094832 162.888995,638.821094 163.258423,638.820265 L163.360205,638.826933 L181.444173,641.238929 C185.147609,641.732721 187.416585,639.618083 189.209257,634.436038 L189.323045,634.101099 L214.856,573.875 L187.737253,569.223054 C187.363022,569.158861 187.101446,568.827718 187.114388,568.458516 L187.124846,568.357053 C187.189039,567.982822 187.520182,567.721246 187.889384,567.734188 L187.990847,567.744646 Z" id="Stroke-83" fill="#96A7CA" fill-rule="nonzero"></path>
        <path d="M293.22,699.15305 C293.22,699.15305 261.795,653.86955 247.044,585.96605 C236.9535,539.51555 236.9085,490.23605 254.487,402.82355 C258.2685,404.14655 263.589,407.89205 268.377,410.70755 C275.85,415.10405 287.3775,417.64805 299.2035,423.55955 C302.2275,425.07155 299.5395,487.56005 291.336,551.05355 L293.118,567.38255 C293.118,567.38255 338.448,652.75955 339.294,663.73955 C339.6825,668.79305 293.22,699.15305 293.22,699.15305" id="Fill-85" fill="#E4EBF7"></path>
        <path d="M255.549304,401.700046 L255.635963,401.74945 L268.415963,410.17345 C268.616759,410.305805 268.741905,410.526425 268.752475,410.766686 L268.763741,411.14458 L268.772344,411.670505 C268.785194,412.865267 268.759239,414.418327 268.671847,416.312479 C268.524976,419.495792 268.226769,423.080321 267.742452,427.039621 C266.46949,437.446096 264.10853,448.959108 260.407448,461.386701 L259.007829,466.030261 C251.211846,492.04741 248.79768,504.475701 244.408995,537.075215 C244.35373,537.485726 243.976145,537.773709 243.565635,537.718445 C243.155124,537.66318 242.867141,537.285595 242.922405,536.875085 L243.60864,531.827839 C247.728599,501.859074 250.336949,489.48997 258.334814,463.063564 L258.597533,462.19681 C262.488913,449.376783 264.948456,437.526644 266.25355,426.857492 C266.698957,423.21628 266.985197,419.897936 267.14003,416.923612 L267.173441,416.243346 C267.259447,414.379223 267.284935,412.855875 267.272478,411.69051 L267.265,411.21 L255.676,403.572 L255.30172,405.00375 L255.039966,406.029507 C254.684594,407.434689 254.304119,408.989401 253.902902,410.687687 L253.598168,411.988229 C251.834622,419.57596 250.070787,428.201411 248.424399,437.703733 C241.118586,479.870087 238.488594,524.136518 243.278462,566.692694 L243.496832,567.912492 L243.79761,569.521658 C244.031851,570.753078 244.30154,572.125328 244.607179,573.629098 C245.730362,579.155254 247.104089,585.313834 248.736868,591.94653 C253.401634,610.895809 259.204856,629.844311 266.213121,647.524073 C274.302151,667.930285 283.488387,685.304569 293.813645,698.695687 C294.06657,699.023714 294.005689,699.494669 293.677663,699.747595 C293.349636,700.00052 292.878681,699.939639 292.625755,699.611613 C282.203857,686.095157 272.955162,668.602742 264.818682,648.076829 C257.78275,630.327272 251.960239,611.315789 247.280351,592.305083 L246.713056,589.976836 C245.414461,584.591469 244.291304,579.540777 243.338744,574.913019 L242.882947,572.665867 C242.678371,571.641423 242.492094,570.685477 242.32393,569.801418 L241.971678,567.910365 L241.793908,566.903057 C236.980154,524.145728 239.618238,479.743112 246.946419,437.447655 L247.37982,434.981273 C248.832903,426.827094 250.367546,419.347396 251.906281,412.647735 L252.137112,411.648649 C252.653525,409.426762 253.139301,407.42703 253.585919,405.66107 L253.937943,404.285908 L254.501027,402.173247 C254.628999,401.716646 255.137218,401.499616 255.549304,401.700046 Z" id="Stroke-87" fill="#96A7CA" fill-rule="nonzero"></path>
        <path d="M292.306719,566.267912 C292.706179,566.158349 293.118825,566.393358 293.228388,566.792819 C293.32882,567.158991 293.139717,567.536242 292.799816,567.680966 L292.703481,567.714488 L266.168,574.991 L297.489128,632.490854 C299.744238,637.550075 302.17858,639.556885 305.763389,638.824185 L305.998822,638.772519 L323.763322,634.605519 C324.16659,634.510925 324.570187,634.761155 324.664781,635.164422 C324.751492,635.534084 324.548456,635.904023 324.203395,636.035974 L324.105878,636.065881 L306.341175,640.232928 C301.854181,641.284124 298.800414,638.942695 296.292397,633.479931 L296.14549,633.154993 L264.39799,574.878493 C264.183143,574.484116 264.361957,573.999441 264.762042,573.829787 L264.858219,573.796412 L292.306719,566.267912 Z" id="Stroke-89" fill="#96A7CA" fill-rule="nonzero"></path>
        <path d="M151.4436,527.80805 L151.4436,527.80805 C140.4096,524.41055 134.2176,512.71205 137.6136,501.67655 L157.0701,438.47105 C160.4676,427.43555 172.1646,421.24505 183.2016,424.64105 C194.2356,428.03705 200.4276,439.73705 197.0316,450.77255 L177.5751,513.97805 C174.1776,525.01205 162.4791,531.20555 151.4436,527.80805" id="Fill-91" fill="#E4EBF7"></path>
        <path d="M340.92705,511.8479 L340.92705,511.8479 C331.52955,518.5574 318.47355,516.3794 311.76555,506.9819 L273.33405,453.1619 C266.62605,443.7644 268.80405,430.7084 278.20155,423.9989 C287.59605,417.2894 300.65355,419.4689 307.36305,428.8649 L345.79155,482.6849 C352.50255,492.0809 350.32455,505.1384 340.92705,511.8479" id="Fill-93" fill="#E4EBF7"></path>
        <path d="M142.99725,623.5796 C142.99725,623.5796 149.99925,607.5431 160.30725,607.9871 C169.64325,608.3906 170.36475,617.7506 170.36475,617.7506 C170.36475,617.7506 172.55625,626.9411 170.89275,637.3136 C169.79475,644.1461 166.38975,656.9291 162.72225,656.8376 C157.94175,656.7191 162.63675,642.4766 159.34575,641.3411 C155.96925,640.1756 154.78125,643.0481 149.93325,648.6866 C146.90325,652.2116 145.30125,656.8781 142.16175,659.3756 C136.02675,664.2581 130.48725,646.7591 142.99725,623.5796" id="Fill-95" fill="#FFC6A0"></path>
        <path d="M149.687845,639.132108 C149.892766,638.99003 150.174064,639.040974 150.316142,639.245895 C150.45822,639.450816 150.407276,639.732114 150.202355,639.874192 L150.018956,640.0093 C149.93862,640.070694 149.839562,640.148509 149.723218,640.24293 C149.330499,640.56165 148.891561,640.94982 148.417881,641.408924 C147.059767,642.725247 145.69991,644.343406 144.429724,646.275391 C142.463405,649.266212 140.897928,652.730579 139.882444,656.689822 C139.820493,656.93136 139.574466,657.076945 139.332928,657.014994 C139.09139,656.953043 138.945805,656.707016 139.007756,656.465478 C140.048655,652.407148 141.655377,648.851507 143.675189,645.779321 C144.983035,643.790054 146.385354,642.121367 147.789417,640.760509 C148.282499,640.2826 148.741268,639.876893 149.154184,639.541781 L149.477059,639.286972 C149.566482,639.21876 149.637224,639.167205 149.687845,639.132108 Z" id="Stroke-97" fill="#DD936F" fill-rule="nonzero"></path>
        <path d="M145.450234,634.388475 C145.622367,634.208062 145.908163,634.20135 146.088575,634.373484 C146.268988,634.545617 146.2757,634.831413 146.103566,635.011825 C145.040692,636.125822 144.063608,637.337788 143.168947,638.632827 C141.480876,641.076343 140.15942,643.697001 139.163975,646.317616 C138.815723,647.234429 138.533268,648.085175 138.311384,648.847667 L138.149653,649.427948 C138.1078,649.586426 138.077785,649.709031 138.058948,649.792991 C138.00436,650.036299 137.762867,650.189287 137.519559,650.134698 C137.276251,650.08011 137.123263,649.838617 137.177852,649.595309 L137.243139,649.328188 C137.297293,649.116198 137.364137,648.871004 137.444349,648.59536 C137.672749,647.810476 137.962749,646.937003 138.319824,645.996964 C139.339602,643.312289 140.693317,640.627657 142.425997,638.119569 C143.346836,636.786637 144.353603,635.537851 145.450234,634.388475 Z" id="Stroke-99" fill="#DD936F" fill-rule="nonzero"></path>
        <path d="M144.178245,628.056597 C144.36815,627.894996 144.653102,627.917941 144.814703,628.107845 C144.976304,628.29775 144.953359,628.582702 144.763455,628.744303 L144.65883,628.838205 C144.552859,628.936871 144.400579,629.08695 144.206865,629.291264 C143.747871,629.775376 143.234453,630.381266 142.679988,631.116712 C141.087506,633.228988 139.491718,635.952618 137.999825,639.350098 C137.73527,639.952569 137.47598,640.572276 137.222333,641.209441 C137.130107,641.441115 136.867534,641.55416 136.635859,641.461933 C136.404185,641.369707 136.29114,641.107134 136.383367,640.875459 C136.640896,640.228542 136.904242,639.59914 137.173027,638.987037 C138.69307,635.52545 140.324355,632.741236 141.958947,630.573106 C142.533957,629.810408 143.069339,629.178597 143.551575,628.669972 L143.783237,628.430799 C143.959408,628.253172 144.092719,628.129376 144.178245,628.056597 Z" id="Stroke-101" fill="#DD936F" fill-rule="nonzero"></path>
        <path d="M177.2937,611.76125 L141.5292,613.61975 L133.4742,516.36875 C132.8757,504.83825 141.7377,495.00425 153.2667,494.40575 C164.7987,493.80725 174.6312,502.66775 175.2297,514.19825 L177.2937,611.76125 Z" id="Fill-103" fill="#E4EBF7"></path>
        <path d="M175.219878,596.104211 C175.633533,596.082715 175.986293,596.400623 176.007789,596.814278 C176.027494,597.193462 175.762005,597.521477 175.399,597.59007 L175.297722,597.602189 L144.931722,599.180189 C144.518067,599.201685 144.165307,598.883777 144.143811,598.470122 C144.124106,598.090938 144.389595,597.762923 144.7526,597.69433 L144.853878,597.682211 L175.219878,596.104211 Z" id="Stroke-105" fill="#96A7CA" fill-rule="nonzero"></path>
        <path d="M179.054997,456.823518 C179.433266,456.790635 179.770318,457.044553 179.851497,457.404952 L179.867132,457.505747 L187.944632,550.424747 C187.980505,550.837404 187.67506,551.20101 187.262403,551.236882 C186.884134,551.269765 186.547082,551.015847 186.465903,550.655448 L186.450268,550.554653 L178.372768,457.635653 C178.336895,457.222996 178.64234,456.85939 179.054997,456.823518 Z" id="Stroke-107" fill="#96A7CA" fill-rule="nonzero"></path>
        <path d="M298.754197,454.292793 C299.132732,454.322458 299.423524,454.628266 299.444433,454.997103 L299.443307,455.099097 L292.084307,549.000597 C292.051945,549.413545 291.69095,549.72207 291.278003,549.689707 C290.899468,549.660042 290.608676,549.354234 290.587767,548.985397 L290.588893,548.883403 L297.947893,454.981903 C297.977558,454.603368 298.283366,454.312576 298.652203,454.291667 L298.754197,454.292793 Z" id="Stroke-109" fill="#96A7CA" fill-rule="nonzero"></path>
        <path d="M385.4553,413.90255 L352.9533,398.86355 L309.2703,486.12455 C304.4223,496.60355 308.9853,509.02805 319.4643,513.87605 L319.4643,513.87755 C329.9418,518.72555 342.3678,514.16105 347.2173,503.68355 L385.4553,413.90255 Z" id="Fill-111" fill="#E4EBF7"></path>
        <path d="M352.493729,398.069985 C352.653061,397.725192 353.041021,397.558724 353.39423,397.667401 L353.489501,397.703934 L385.991501,412.742934 C386.367422,412.916877 386.531158,413.36263 386.357216,413.738551 C386.197768,414.083145 385.809925,414.249446 385.456837,414.140789 L385.361599,414.104266 L353.54,399.38 L318.803371,474.551215 C318.644094,474.895888 318.256333,475.06238 317.903191,474.953898 L317.807935,474.917421 C317.463262,474.758144 317.29677,474.370383 317.405252,474.017241 L317.441729,473.921985 L352.493729,398.069985 Z" id="Stroke-113" fill="#96A7CA" fill-rule="nonzero"></path>
        <path d="M348.346835,413.338597 C348.506283,412.994003 348.894127,412.827704 349.247215,412.936362 L349.342453,412.972885 L376.939453,425.742385 C377.315374,425.916329 377.479109,426.362082 377.305165,426.738003 C377.145717,427.082597 376.757873,427.248896 376.404785,427.140238 L376.309547,427.103715 L348.712547,414.334215 C348.336626,414.160271 348.172891,413.714518 348.346835,413.338597 Z" id="Stroke-115" fill="#96A7CA" fill-rule="nonzero"></path>
        <path d="M181.937693,497.755665 C182.069018,497.36282 182.493941,497.150817 182.886785,497.282143 C183.246893,497.402524 183.455043,497.76961 183.38608,498.132544 L183.360307,498.231235 L177.478,515.827 L176.543964,611.768257 C176.540425,612.131484 176.278426,612.434735 175.929969,612.498593 L175.832921,612.509939 L140.068421,614.369468 C139.654766,614.389935 139.302006,614.072027 139.280511,613.658371 C139.260806,613.279187 139.526296,612.951172 139.889301,612.882579 L139.990579,612.870461 L175.051,611.048 L175.980036,515.692143 C175.980545,515.639893 175.986512,515.587912 175.997796,515.537039 L176.018693,515.461665 L181.937693,497.755665 Z" id="Stroke-117" fill="#96A7CA" fill-rule="nonzero"></path>
    </g>
</svg>