<?xml version="1.0" encoding="UTF-8"?>
<svg width="512px" height="1024px" viewBox="0 0 512 1024" version="1.1" xmlns="http://www.w3.org/2000/svg" xmlns:xlink="http://www.w3.org/1999/xlink">
    <!-- Generator: Sketch 61.2 (89653) - https://sketch.com -->
    <title>2.人物组件/5.用研/坐姿/讨论</title>
    <desc>Created with Sketch.</desc>
    <defs>
        <polygon id="path-1" points="0.0908146214 0.0003 55.8045877 0.0003 55.8045877 36 0.0908146214 36"></polygon>
        <polygon id="path-3" points="0.251379568 0.609 85.0199669 0.609 85.0199669 80.163 0.251379568 80.163"></polygon>
        <polygon id="path-5" points="0 0.326002758 54.9082524 0.326002758 54.9082524 40.7856327 0 40.7856327"></polygon>
        <polygon id="path-7" points="0.9051 1.0218406 119.685 1.0218406 119.685 42.8295 0.9051 42.8295"></polygon>
    </defs>
    <g id="2.人物组件/5.用研/坐姿/讨论" stroke="none" stroke-width="1" fill="none" fill-rule="evenodd">
        <path d="M299.9412,632.61055 L340.0107,609.26305 C342.7932,607.64005 344.5047,604.66105 344.5047,601.43905 L352.6707,569.11405 C352.6707,569.11405 296.8842,574.81405 269.8932,568.26955 C260.6907,566.03755 251.3097,586.57105 251.3097,586.57105 C243.0867,591.86455 252.4377,606.08005 253.8447,607.96855 C258.1557,613.76455 270.7872,617.57155 290.9442,631.25155 C293.6802,633.10705 297.1527,634.38355 299.9412,632.61055" id="Fill-1" fill="#253368"></path>
        <path d="M291.756296,570.326417 L291.84352,570.334239 C292.077939,570.376615 292.24237,570.580779 292.242533,570.810846 L292.234711,570.89807 L290.776711,578.96357 C290.729038,579.227291 290.476602,579.402434 290.21288,579.354761 C289.978461,579.312385 289.81403,579.108221 289.813867,578.878154 L289.821689,578.79093 L291.279689,570.72543 C291.322065,570.491011 291.526229,570.32658 291.756296,570.326417 Z" id="Stroke-3" fill="#253368" fill-rule="nonzero"></path>
        <path d="M253.0545,622.60495 L329.4615,590.12395 C345.3495,583.60945 363.333,592.61845 367.629,609.24295 C371.346,623.63245 363.309,638.44795 349.2195,643.17595 L270.048,669.75445 C270.048,669.75445 247.9095,678.56245 239.643,654.96145 C231.603,632.01145 253.0545,622.60495 253.0545,622.60495" id="Fill-5" fill="#253368"></path>
        <path d="M187.5408,657.61105 L269.2128,642.68155 C286.0638,639.37705 296.1198,621.95905 290.5578,605.71405 C285.7428,591.65455 270.8793,583.70605 256.5123,587.51155 L175.7808,608.89255 C175.7808,608.89255 152.4483,613.72105 158.5353,637.97455 C164.4528,661.56205 187.5408,657.61105 187.5408,657.61105" id="Fill-7" fill="#253368"></path>
        <path d="M287.03745,395.3461 L288.73395,395.3071 C287.48295,405.4891 325.88145,406.9726 331.81395,395.1556 C331.96395,394.8541 332.08245,394.5721 332.18445,394.3021 L336.86145,394.1926 L338.85045,571.5766 C338.85045,571.5766 298.61745,583.3951 266.51445,571.3666 C252.53745,429.7456 287.03745,395.3461 287.03745,395.3461" id="Fill-9" fill="#597EF7"></path>
        <path d="M258.3528,736.629015 C265.9128,736.6561 271.8093,743.1781 271.0563,750.7006 C269.7678,763.5616 268.0413,783.3571 267.4653,801.8221 C266.9478,818.3731 269.8638,829.5976 266.7903,834.0181 C263.4753,838.7851 255.9063,835.1986 250.1538,841.3861 C244.3998,847.5736 240.2673,852.3121 223.8243,849.5311 C204.5958,846.2776 221.2023,840.3721 229.6713,831.8836 C244.6278,816.8941 246.2013,810.0586 246.5538,799.5001 C247.2723,777.8746 246.4173,761.2666 245.5383,750.4456 C244.9323,742.9801 250.8633,736.6021 258.3528,736.629015" id="Fill-11" fill="#FFC6A0"></path>
        <path d="M287.991,645.9121 L275.352,793.0771 C275.0505,796.5961 272.2335,799.3726 268.7115,799.6231 L243.8505,801.3901 C239.6625,801.6886 236.115,798.3436 236.166,794.1451 L237.9195,648.3451 C237.9195,648.3451 237.2865,623.5501 263.8455,623.9191 C288.621,624.2626 287.991,645.9121 287.991,645.9121" id="Fill-13" fill="#253368"></path>
        <g id="分组" transform="translate(213.000000, 817.891000)">
            <mask id="mask-2" fill="white">
                <use xlink:href="#path-1"></use>
            </mask>
            <g id="Clip-16"></g>
            <path d="M54.76155,0.0003 C54.76155,0.0003 52.24455,3.6708 43.30455,11.5698 C36.25305,17.8008 31.65855,21.5898 27.58905,20.0403 C20.16105,17.2128 14.47755,15.8703 14.47755,15.8703 C14.47755,15.8703 7.85205,19.6323 2.93055,23.7573 C-1.99095,27.8808 -1.09245,34.2588 10.22355,35.5368 C21.54105,36.8148 27.97305,35.8728 38.27655,27.2583 C48.58155,18.6438 53.36055,21.8163 54.80955,17.0763 C57.07605,9.6678 54.76155,0.0003 54.76155,0.0003" id="Fill-15" fill="#253368" mask="url(#mask-2)"></path>
        </g>
        <path d="M276.18,800.02315 L235.422,802.92115 C234.5595,802.98265 233.8245,802.30465 233.8155,801.43915 L233.651956,783.88315 C233.646,783.09115 234.255,782.42965 235.0455,782.37265 L278.358,779.29315 C279.3075,779.22565 280.0785,780.04765 279.9525,780.98965 L277.56,798.72715 C277.464,799.43065 276.8895,799.97215 276.18,800.02315" id="Fill-17" fill="#4E5C93"></path>
        <path d="M192.23715,723.804369 C199.79715,723.7879 205.72965,730.2769 205.01865,737.8039 C203.80665,750.6709 202.19265,770.4769 201.72015,788.9449 C201.29715,805.4974 204.27615,816.7054 201.22815,821.1439 C197.94165,825.9289 190.35165,822.3859 184.63515,828.6064 C178.91715,834.8284 174.81165,839.5879 158.35215,836.8999 C139.10565,833.7574 155.67765,827.7574 164.09715,819.2209 C178.96815,804.1459 180.50415,797.3014 180.79515,786.7414 C181.39215,765.1129 180.44265,748.5094 179.50215,737.6944 C178.85265,730.2319 184.74765,723.8209 192.23715,723.804369" id="Fill-19" fill="#FFC6A0"></path>
        <path d="M202.1073,805.0117 C202.1073,805.0117 199.6113,808.6972 190.7178,816.6472 C183.7008,822.9187 179.1288,826.7317 175.0503,825.2062 C167.6058,822.4207 161.9148,821.1097 161.9148,821.1097 C161.9148,821.1097 155.3118,824.9122 150.4128,829.0627 C145.5153,833.2147 146.4498,839.5867 157.7733,840.8002 C169.0968,842.0137 175.5228,841.0372 185.7783,832.3627 C196.0338,823.6897 200.8308,826.8352 202.2543,822.0877 C204.4773,814.6672 202.1073,805.0117 202.1073,805.0117" id="Fill-21" fill="#253368"></path>
        <path d="M206.55885,629.0854 L207.277429,776.7904 C207.29385,780.3229 204.73935,783.3409 201.25485,783.9094 L176.65485,787.9174 C172.51185,788.5924 168.67635,785.5834 168.34635,781.3969 L156.91185,636.0349 C156.91185,636.0349 154.03935,611.3974 180.52485,609.3649 C205.22835,607.4674 206.55885,629.0854 206.55885,629.0854" id="Fill-23" fill="#253368"></path>
        <path d="M209.8944,784.4767 L169.2579,788.7457 C168.3969,788.8357 167.6394,788.1817 167.6034,787.3192 L166.8474,769.7782 C166.8129,768.9862 167.4009,768.3052 168.1899,768.2227 L211.3734,763.6852 C212.3199,763.5862 213.1179,764.3812 213.0234,765.3277 L211.2309,783.1357 C211.1589,783.8422 210.6024,784.4032 209.8944,784.4767" id="Fill-25" fill="#4E5C93"></path>
        <path d="M329.7288,342.12625 C329.7288,342.12625 331.3218,310.93225 292.6218,315.64375 C271.1598,319.73125 274.6413,355.67125 274.6413,355.67125 C274.6413,355.67125 273.7578,363.35125 277.2378,370.89175 C281.1363,379.33825 289.6413,381.56725 300.6063,381.64825 C320.7678,379.26025 327.9993,367.46725 327.9993,367.46725 C327.9993,367.46725 342.0108,367.35625 339.3918,349.93375 C336.8538,333.78025 329.7288,342.12625 329.7288,342.12625" id="Fill-27" fill="#FFC6A0"></path>
        <path d="M324.7425,321.10855 C325.239,329.06605 332.0925,335.11555 340.0515,334.61755 C348.0105,334.12105 354.0585,327.26605 353.562,319.30855 C353.0655,311.34955 346.2105,305.30155 338.2515,305.79805 C330.294,306.29605 324.2445,313.14955 324.7425,321.10855" id="Fill-29" fill="#253368"></path>
        <g id="分组" transform="translate(265.500000, 304.891000)">
            <mask id="mask-4" fill="white">
                <use xlink:href="#path-3"></use>
            </mask>
            <g id="Clip-32"></g>
            <path d="M9.40125,51.888 C9.40125,51.888 4.15425,43.9785 0.70275,34.3725 C-2.74875,24.7665 14.64975,4.0395 17.07525,2.3025 C19.50075,0.567 20.66625,-1.089 38.41575,4.1385 C90.07125,2.982 80.79675,50.955 80.79675,50.955 C80.79675,50.955 87.06825,54.921 84.32625,66.8145 C80.95275,78.747 64.84875,80.163 64.84875,80.163 L63.14475,61.932 C63.14475,61.932 68.62275,62.001 72.33075,55.434 C76.04025,48.8655 72.01575,41.418 69.45075,40.944 C67.09875,39.3975 61.53075,40.5915 61.95075,47.337 C62.16375,50.7315 55.22475,43.5255 51.88875,30.756 C33.68325,28.4085 28.39575,16.17 28.39575,16.17 C28.39575,16.17 28.51425,28.2 31.67025,33.072 C22.02525,30.8235 16.65975,26.0895 17.90325,20.6265 C7.46925,26.0295 9.40125,51.888 9.40125,51.888" id="Fill-31" fill="#253368" mask="url(#mask-4)"></path>
        </g>
        <path d="M330.71025,388.91545 L328.33125,360.09445 L292.87275,363.13195 C292.87275,363.13195 294.17175,381.71995 293.93925,389.30695 C271.61625,403.46245 322.90125,413.57395 334.08975,398.48845 C337.54425,393.82945 330.71025,388.91545 330.71025,388.91545" id="Fill-33" fill="#FFC6A0"></path>
        <path d="M294.87285,349.6555 C295.96935,356.5165 301.67385,361.309 307.61535,360.3595 C313.55685,359.41 317.48535,353.0785 316.38885,346.2175 C315.29235,339.3565 309.58785,334.564 303.64635,335.5135 C297.70485,336.463 293.77785,342.7945 294.87285,349.6555" id="Fill-35" fill="#FFFFFF"></path>
        <path d="M303.527996,334.772897 C297.152296,335.791786 292.975363,342.5251 294.132223,349.773702 C295.29067,357.022314 301.357785,362.119026 307.733704,361.100103 C314.109982,360.081122 318.287805,353.347169 317.129452,346.09914 C315.97103,338.850686 309.903915,333.753974 303.527996,334.772897 Z M315.648248,346.33586 C316.68282,352.809366 313.004121,358.738814 307.496996,359.618897 C301.99032,360.498909 296.648105,356.011153 295.613452,349.53714 C294.5802,343.063037 298.258151,337.134095 303.764704,336.254103 C309.27138,335.374091 314.613595,339.861847 315.648248,346.33586 Z" id="Stroke-37" fill="#253368" fill-rule="nonzero"></path>
        <path d="M270.6444,350.2378 C271.7409,357.0988 277.1394,361.9408 282.7014,361.0513 C288.2649,360.1633 291.8844,353.8798 290.7894,347.0188 C289.6929,340.1578 284.2959,335.3173 278.7324,336.2053 C273.1704,337.0948 269.5494,343.3768 270.6444,350.2378" id="Fill-39" fill="#FFFFFF"></path>
        <path d="M278.614187,335.464675 C272.604717,336.425736 268.74834,343.116346 269.903773,350.356002 C271.060859,357.596097 276.810585,362.752916 282.819838,361.791889 C288.829668,360.83265 292.685641,354.141389 291.530027,346.900598 C290.372959,339.66061 284.624858,334.505301 278.614187,335.464675 Z M290.048798,347.13716 C291.083483,353.620239 287.698489,359.494213 282.583187,360.310675 C277.468394,361.128655 272.420977,356.601724 271.385002,350.11944 C270.35049,343.637446 273.735928,337.763889 278.850613,336.945925 C283.966863,336.129311 289.012826,340.654893 290.048798,347.13716 Z" id="Stroke-41" fill="#253368" fill-rule="nonzero"></path>
        <path d="M292.2893,351.495992 C292.48879,351.253539 292.847055,351.21871 293.089508,351.4182 C293.305022,351.595524 293.356487,351.898301 293.225155,352.133678 L293.1673,352.218408 L289.869,356.226 L293.918614,359.351128 C294.139564,359.521631 294.200464,359.822652 294.076551,360.062017 L294.021372,360.148514 C293.850869,360.369464 293.549848,360.430364 293.310483,360.306451 L293.223986,360.251272 L288.710486,356.768272 C288.484638,356.593989 288.426738,356.284346 288.559874,356.04363 L288.6188,355.956992 L292.2893,351.495992 Z" id="Stroke-43" fill="#DD936F" fill-rule="nonzero"></path>
        <path d="M301.44203,361.247056 C301.833458,361.111569 302.260607,361.319051 302.396094,361.71048 C302.531581,362.101908 302.324099,362.529057 301.93267,362.664544 L301.42422,362.832262 C301.333748,362.861161 301.234674,362.89243 301.127561,362.925772 C300.504969,363.119572 299.832602,363.313262 299.134312,363.494189 C298.221961,363.730577 297.333274,363.927336 296.491966,364.071239 C294.975269,364.330665 293.690418,364.406842 292.68785,364.249197 C292.278664,364.184855 291.999112,363.800986 292.063453,363.3918 C292.127795,362.982614 292.511664,362.703062 292.92085,362.767403 C293.729681,362.894586 294.869184,362.827026 296.239069,362.592712 C297.035327,362.456514 297.883905,362.268636 298.758087,362.042136 C299.263153,361.911275 299.754766,361.773313 300.222438,361.633623 L300.965094,361.404254 C301.180373,361.335509 301.342336,361.281564 301.44203,361.247056 Z" id="Stroke-45" fill="#F5222D" fill-rule="nonzero"></path>
        <g id="分组" transform="translate(289.500000, 345.391000)">
            <path d="M5.0037,0.99495 C5.0037,0.99495 3.0282,-0.15105 1.4202,1.21845" id="Fill-47" fill="#FFFFFF"></path>
            <path d="M5.0037,0.99495 C5.0037,0.99495 3.0282,-0.15105 1.4202,1.21845" id="Stroke-49" stroke="#253368" stroke-width="1.5" stroke-linecap="round" stroke-linejoin="round"></path>
        </g>
        <path d="M312.301626,378.292278 C312.601778,378.200144 312.919788,378.368775 313.011922,378.668926 C313.104056,378.969078 312.935425,379.287088 312.635274,379.379222 C311.044597,379.867494 309.216294,380.286209 307.195129,380.641531 C304.620524,381.094148 301.865878,381.422873 299.111783,381.647857 L297.989968,381.733556 C297.808978,381.746406 297.631099,381.758553 297.456512,381.770016 L296.113703,381.848531 C295.803854,381.864289 295.574295,381.874072 295.434629,381.878909 C295.120843,381.889778 294.857659,381.644214 294.846791,381.330429 C294.835922,381.016643 295.081486,380.753459 295.395271,380.742591 L295.912046,380.720175 L296.387742,380.695448 C297.181411,380.651953 298.066201,380.592484 299.019209,380.514632 C301.740932,380.292292 304.462104,379.967562 306.998263,379.521704 C308.976384,379.173949 310.760319,378.765395 312.301626,378.292278 Z" id="Stroke-50" fill="#DD936F" fill-rule="nonzero"></path>
        <path d="M300.9198,347.4883 C301.0263,349.1953 301.8678,350.5318 302.7993,350.4748 C303.7293,350.4163 304.3983,348.9853 304.2918,347.2783 C304.1853,345.5713 303.3438,344.2348 302.4123,344.2918 C301.4808,344.3503 300.8133,345.7813 300.9198,347.4883" id="Fill-52" fill="#253368"></path>
        <path d="M279.0174,349.13845 C279.1239,350.84545 279.9669,352.18195 280.8969,352.12495 C281.8284,352.06645 282.4959,350.63545 282.3894,348.92695 C282.2844,347.22145 281.4414,345.88345 280.5114,345.94195 C279.5799,346.00045 278.9124,347.43145 279.0174,349.13845" id="Fill-54" fill="#253368"></path>
        <g id="分组" transform="translate(315.000000, 343.891000)">
            <line x1="1.38855" y1="2.32725" x2="11.20455" y2="1.92525" id="Fill-56" fill="#FFFFFF"></line>
            <line x1="1.38855" y1="2.32725" x2="11.20455" y2="1.92525" id="Stroke-58" stroke="#253368" stroke-width="1.5" stroke-linecap="round" stroke-linejoin="round"></line>
        </g>
        <path d="M210.1053,504.39565 L210.1053,504.39565 C200.4078,498.12865 197.6268,485.18815 203.8923,475.48915 L239.7873,419.94715 C246.0543,410.24965 258.9963,407.46865 268.6938,413.73565 C278.3898,420.00115 281.1723,432.94315 274.9053,442.64065 L239.0118,498.18415 C232.7448,507.88165 219.8028,510.66265 210.1053,504.39565" id="Fill-59" fill="#E4EBF7"></path>
        <path d="M291.674712,408.720974 C291.810174,408.433599 292.152951,408.310449 292.440326,408.445912 C293.227241,408.816846 294.025091,409.157376 294.833402,409.468138 C303.591132,412.835113 312.964355,412.617113 321.828498,410.221379 C323.072642,409.885122 324.21004,409.528044 325.225988,409.168696 L325.653915,409.014605 C325.947252,408.907067 326.213303,408.805433 326.450914,408.711165 L326.859012,408.545002 C326.935237,408.513034 326.99066,408.489085 327.024691,408.473904 C327.314832,408.344471 327.654963,408.474751 327.784396,408.764891 C327.913829,409.055032 327.783549,409.395163 327.493409,409.524596 L327.113778,409.684593 C326.809771,409.808679 326.454252,409.946575 326.04992,410.094804 C324.898296,410.516993 323.584028,410.938688 322.128676,411.332029 C313.049431,413.785899 303.439476,414.009405 294.420544,410.542009 C293.586065,410.221187 292.762298,409.869595 291.949774,409.486588 C291.662399,409.351126 291.539249,409.008349 291.674712,408.720974 Z" id="Stroke-61" fill="#3C65D6" fill-rule="nonzero"></path>
        <path d="M293.88705,390.76045 C293.88705,390.76045 280.07055,414.69595 280.04955,502.82245 C280.03005,591.07495 238.92105,592.20145 238.92105,592.20145 L215.83455,597.83245 C215.83455,597.83245 240.29655,578.82595 241.42305,533.95345 C243.47805,452.23195 244.90005,429.91795 251.80005,411.73345 C259.48605,407.45545 267.62805,404.54845 279.50505,398.31745 C282.39105,396.80395 287.42805,392.68795 289.26105,391.71295 C294.24555,389.06245 293.88705,390.76045 293.88705,390.76045" id="Fill-63" fill="#E4EBF7"></path>
        <path d="M249.153295,432.076609 C249.562947,432.137909 249.845342,432.519692 249.784041,432.929345 L249.509596,434.852766 L249.163388,437.404145 C249.066472,438.134623 248.966046,438.90467 248.862512,439.713043 L248.784285,440.326489 C248.033641,446.238429 247.282926,452.867512 246.582231,460.05815 C244.606416,480.334258 243.409805,500.996189 243.379797,520.837984 C243.379173,521.252197 243.042879,521.58685 242.628666,521.58685 C242.214453,521.58685 241.879174,521.249929 241.879797,520.835716 C241.909887,500.941186 243.109173,480.23305 245.089302,459.91267 C245.708858,453.554696 246.367484,447.634429 247.030757,442.258594 L247.451977,438.921464 C247.579804,437.932088 247.702623,437.003108 247.819652,436.136952 L248.300559,432.707355 C248.356751,432.33184 248.682237,432.063258 249.051632,432.068048 L249.153295,432.076609 Z" id="Stroke-65" fill="#96A7CA" fill-rule="nonzero"></path>
        <path d="M293.041473,388.722377 C293.395472,388.507302 293.856798,388.619923 294.071873,388.973923 C294.269025,389.298422 294.190821,389.713106 293.903748,389.945629 L293.820327,390.004323 L279.337,398.803 L279.182512,399.719021 C279.136254,400.005211 279.087978,400.315113 279.037917,400.64894 L278.935483,401.348559 C278.585663,403.7936 278.235498,406.795312 277.908447,410.375374 L277.771205,411.923791 C275.57763,437.444209 275.748508,474.224919 279.826364,523.691231 C279.860396,524.104044 279.553332,524.466283 279.140519,524.500314 C278.727706,524.534346 278.365467,524.227282 278.331436,523.814469 L278.086236,520.796757 C274.160739,471.765901 274.117161,435.388603 276.414667,410.238912 L276.539242,408.914011 C276.811369,406.101931 277.097256,403.669757 277.384338,401.605863 L277.554712,400.425106 C277.605633,400.08558 277.654802,399.769974 277.70199,399.478075 L277.883482,398.415872 C277.901384,398.318225 277.915768,398.242862 277.926403,398.18957 C277.960647,398.017977 278.053527,397.864895 278.187383,397.75554 L278.272473,397.695377 L293.041473,388.722377 Z" id="Stroke-67" fill="#96A7CA" fill-rule="nonzero"></path>
        <g id="分组" transform="translate(103.500000, 384.391000)">
            <mask id="mask-6" fill="white">
                <use xlink:href="#path-5"></use>
            </mask>
            <g id="Clip-70"></g>
            <path d="M28.8294,38.35425 C28.8294,38.35425 45.1599,44.64075 52.0884,36.99675 C58.3614,30.07275 52.2099,22.97925 52.2099,22.97925 C52.2099,22.97925 47.2119,14.96175 38.6634,8.85675 C33.0294,4.83525 21.5439,-1.72575 19.0314,0.94875 C15.7554,4.43325 29.1879,11.10225 27.6834,14.24025 C26.1399,17.46075 23.2614,16.28775 15.8424,15.77475 C11.2044,15.45375 6.7599,13.31475 2.7774,13.79175 C-5.0106,14.72625 3.5484,30.96525 28.8294,38.35425" id="Fill-69" fill="#FFC6A0" mask="url(#mask-6)"></path>
        </g>
        <path d="M105.866065,400.294974 C106.024336,400.023811 106.372462,399.932293 106.643626,400.090565 C113.485627,404.084067 119.952271,405.162073 125.0471,404.648209 L125.450007,404.602378 C125.599826,404.583061 125.710193,404.565739 125.779299,404.552784 C126.087897,404.494932 126.384964,404.698201 126.442816,405.006799 C126.500668,405.315397 126.297399,405.612464 125.988801,405.670316 L125.7242,405.712634 C125.576124,405.733529 125.387861,405.756608 125.161199,405.779469 C119.843166,406.315846 113.138976,405.19824 106.070474,401.072535 C105.799311,400.914264 105.707793,400.566138 105.866065,400.294974 Z" id="Stroke-71" fill="#DD936F" fill-rule="nonzero"></path>
        <path d="M109.48938,406.417919 C109.6558,406.151679 110.006541,406.070759 110.272781,406.23718 L110.598482,406.429875 L111.045957,406.680105 C111.206764,406.767775 111.3791,406.859513 111.562602,406.954739 C112.614544,407.500635 113.810757,408.04716 115.127961,408.557427 C118.735292,409.954859 122.543388,410.817362 126.383715,410.883334 C126.697642,410.888727 126.947759,411.147587 126.942535,411.461515 C126.936973,411.775442 126.678113,412.025559 126.364185,412.020166 C122.37707,411.951673 118.440984,411.060181 114.717244,409.617654 C113.359789,409.091794 112.126179,408.528183 111.038886,407.963942 C110.75259,407.815372 110.491684,407.674561 110.25736,407.543463 L109.715906,407.22956 C109.698399,407.218878 109.683129,407.209453 109.670119,407.20132 C109.403879,407.0349 109.322959,406.684159 109.48938,406.417919 Z" id="Stroke-73" fill="#DD936F" fill-rule="nonzero"></path>
        <path d="M115.028983,413.158214 C115.15139,412.869084 115.485006,412.733927 115.774136,412.856333 C119.415883,414.398104 122.685784,415.365911 125.555424,415.871085 C127.303404,416.178801 128.652604,416.276879 129.579861,416.255406 L129.789,416.248 L129.965109,416.167165 C130.187123,416.065435 130.443887,415.952389 130.732521,415.830865 C131.554972,415.484587 132.469993,415.138636 133.454695,414.815749 C136.229762,413.905797 139.005994,413.352587 141.612706,413.334972 C145.571862,413.308219 148.794824,414.527627 150.959978,417.282562 C151.153989,417.529421 151.111147,417.886817 150.864288,418.080828 C150.617429,418.274839 150.260033,418.231997 150.066022,417.985138 C148.144253,415.539884 145.256692,414.447374 141.620389,414.471947 C139.147265,414.488659 136.481192,415.019917 133.808962,415.896149 C132.85515,416.208907 131.968839,416.544003 131.173724,416.878772 L130.843865,417.019802 C130.692225,417.085696 130.560793,417.144392 130.45081,417.194693 L130.186444,417.319213 L129.985207,417.375216 L129.822006,417.384912 C128.811406,417.42932 127.31354,417.335069 125.358296,416.990866 C122.403978,416.470786 119.051514,415.478541 115.330864,413.903367 C115.041734,413.78096 114.906577,413.447344 115.028983,413.158214 Z" id="Stroke-75" fill="#DD936F" fill-rule="nonzero"></path>
        <path d="M165.8934,405.5839 L139.4379,429.7219 L202.9659,503.7964 C210.7464,512.3254 223.9704,512.9314 232.4994,505.1494 C241.0299,497.3674 241.6344,484.1449 233.8524,475.6144 L165.8934,405.5839 Z" id="Fill-77" fill="#E4EBF7"></path>
        <path d="M165.032392,404.639258 C165.338381,404.360074 165.812757,404.381804 166.091942,404.687792 C166.345745,404.965964 166.35086,405.383299 166.119799,405.666634 L166.043408,405.747342 L139.587908,429.885342 C139.281919,430.164526 138.807543,430.142796 138.528358,429.836808 C138.274555,429.558636 138.26944,429.141301 138.500501,428.857966 L138.576892,428.777258 L165.032392,404.639258 Z" id="Stroke-79" fill="#96A7CA" fill-rule="nonzero"></path>
        <path d="M173.510995,418.020307 C173.816984,417.741124 174.291361,417.762855 174.570543,418.068845 C174.824346,418.347017 174.82946,418.764352 174.598397,419.047686 L174.522005,419.128393 L152.058005,439.624393 C151.752016,439.903576 151.277639,439.881845 150.998457,439.575855 C150.744654,439.297683 150.73954,438.880348 150.970603,438.597014 L151.046995,438.516307 L173.510995,418.020307 Z" id="Stroke-81" fill="#96A7CA" fill-rule="nonzero"></path>
        <path d="M282.2826,516.1987 L260.5776,448.3057 C260.2206,447.1867 259.1886,446.4217 258.0126,446.4067 L197.1531,445.58144 C195.2616,445.5562 193.9176,447.4132 194.5311,449.1997 L217.1886,515.2897 C217.5516,516.3532 218.5296,517.0837 219.6516,517.1332 L279.5601,519.7612 C281.4591,519.8437 282.8616,518.0092 282.2826,516.1987" id="Fill-83" fill="#4E5C93"></path>
        <path d="M279.07455,515.37025 L257.74755,448.66075 C257.31405,447.30625 256.06305,446.37925 254.64105,446.36125 L193.03005,445.525594 C191.70855,445.50925 190.76805,446.80675 191.19705,448.05775 L214.16655,515.05975 C214.57005,516.23725 215.65305,517.04725 216.89655,517.10125 L275.77755,519.68425 C278.07705,519.78475 279.77505,517.56325 279.07455,515.37025" id="Fill-85" fill="#253368"></path>
        <path d="M249.4056,452.7886 C248.7171,453.5551 248.9646,454.9006 249.9591,455.7961 C250.9536,456.6901 252.3186,456.7936 253.0071,456.0286 C253.6971,455.2621 253.4496,453.9151 252.4551,453.0211 C251.4591,452.1271 250.0956,452.0221 249.4056,452.7886" id="Fill-87" fill="#253368"></path>
        <path d="M250.22295,453.58975 C249.86595,453.98725 249.99495,454.68625 250.51095,455.15125 C251.02695,455.61625 251.73645,455.66875 252.09345,455.27125 C252.45045,454.87375 252.32295,454.17475 251.80695,453.71125 C251.28945,453.24625 250.58145,453.19225 250.22295,453.58975" id="Fill-89" fill="#E1E7F3"></path>
        <path d="M376.0662,408.7576 C364.1067,403.1206 351.0237,400.8781 343.4502,396.6556 C338.5992,393.9511 334.6932,390.2956 330.8817,389.0596 C306.3387,499.0846 313.1982,625.8031 318.0387,689.0581 C346.8477,692.6161 377.1672,671.3206 377.1672,671.3206 C383.1507,676.7686 376.2552,581.4736 371.9472,522.9151 C368.4327,475.1551 379.1232,410.1991 376.0662,408.7576" id="Fill-91" fill="#E4EBF7"></path>
        <path d="M330.583782,388.257204 C330.795582,387.945857 331.200376,387.84419 331.529536,388.003319 L331.625746,388.058932 L343.499746,396.136432 C343.690356,396.266098 343.810744,396.47622 343.82621,396.706234 L343.858266,397.372022 L343.887315,398.353398 C343.974325,402.253097 343.771343,407.564781 343.076216,414.142089 C341.965781,424.649054 339.793064,436.24853 336.309399,448.760285 L335.137064,452.945556 L329.644486,472.237382 C327.717519,479.062927 326.415208,483.93038 325.249367,488.752998 C322.65224,499.496271 320.890798,509.602131 319.45281,522.539403 C319.407051,522.951081 319.036225,523.247718 318.624547,523.20196 C318.212869,523.156201 317.916232,522.785375 317.96199,522.373697 L318.236872,519.968626 C319.585219,508.496295 321.228766,499.171207 323.54892,489.411784 L324.035738,487.397135 C325.022252,483.376249 326.124745,479.237668 327.620569,473.89389 L333.087107,454.685326 C333.637075,452.742548 334.1523,450.910315 334.67004,449.054975 L334.864383,448.357879 C338.325265,435.92795 340.482665,424.410247 341.584524,413.984438 C342.2972,407.241079 342.486888,401.85402 342.377562,397.985808 L342.348,397.167 L330.782054,389.299168 C330.470707,389.087368 330.36904,388.682574 330.528169,388.353414 L330.583782,388.257204 Z" id="Stroke-93" fill="#96A7CA" fill-rule="nonzero"></path>
        <path d="M372.669989,560.366775 C373.078915,560.300799 373.463899,560.578814 373.529875,560.987739 C373.590353,561.362587 373.361783,561.717318 373.008292,561.824656 L372.908911,561.847625 L347.736,565.909 L348.963246,619.003206 C349.058868,623.101675 352.675164,626.197392 356.70933,625.697909 L356.938105,625.665779 L374.963605,622.835279 C375.372804,622.771023 375.756615,623.050656 375.820871,623.459855 C375.879772,623.834954 375.649712,624.188721 375.295771,624.29457 L375.196295,624.317121 L357.170848,627.147613 C352.234503,627.923116 347.737186,624.248798 347.473494,619.295363 L347.46365,619.038026 L346.221447,565.290026 C346.213781,564.949505 346.435466,564.651194 346.753742,564.554932 L346.851989,564.532275 L372.669989,560.366775 Z" id="Stroke-95" fill="#96A7CA" fill-rule="nonzero"></path>
        <path d="M391.9788,524.88595 L391.9788,524.88595 C403.1493,521.96395 409.8363,510.54145 406.9143,499.36945 L386.2773,420.46795 C383.3568,409.29745 371.9328,402.61045 360.7608,405.53245 C349.5918,408.45295 342.9048,419.87695 345.8253,431.04745 L366.4623,509.95045 C369.3843,521.12095 380.8083,527.80795 391.9788,524.88595" id="Fill-97" fill="#E4EBF7"></path>
        <path d="M254.51055,513.68275 C251.05155,512.73625 249.45405,510.94525 250.29105,508.07275 C246.29055,506.01025 247.38105,502.50775 247.38105,502.50775 C247.38105,502.50775 239.25705,500.97925 238.48455,497.26225 C238.18605,495.81925 239.46855,494.55025 240.93405,494.70175 C258.59055,496.52725 272.62755,489.42325 272.62755,489.42325 C272.62755,489.42325 267.50355,478.16575 269.03055,473.64175 C269.48205,472.30375 271.35555,472.16875 272.00505,473.42275 C277.56405,484.15825 290.70855,494.08975 290.70855,494.08975 C290.70855,494.08975 305.23155,513.30025 285.17655,517.42225 C285.17655,517.42225 269.87205,520.65925 260.02605,518.21875 C255.36405,517.06375 254.51055,513.68275 254.51055,513.68275" id="Fill-99" fill="#FFC999"></path>
        <path d="M260.042956,501.272205 C260.339033,501.167716 260.663756,501.323029 260.768245,501.619106 C260.872734,501.915183 260.717421,502.239906 260.421344,502.344395 C259.180802,502.782198 257.806719,503.090319 256.321484,503.28226 C253.517381,503.644641 250.531511,503.579758 247.679259,503.253412 L247.08177,503.180549 C246.890673,503.155754 246.707817,503.130539 246.533729,503.105173 L246.015367,503.025143 C245.901494,503.006443 245.81511,502.991321 245.758,502.980678 C245.44934,502.923158 245.245751,502.62631 245.303272,502.31765 C245.360792,502.00899 245.65764,501.805401 245.9663,501.862922 L246.452369,501.943303 C246.851139,502.00474 247.305977,502.066284 247.808508,502.123783 C250.576926,502.440536 253.476004,502.503533 256.175759,502.154637 C257.586011,501.972387 258.883119,501.681526 260.042956,501.272205 Z" id="Stroke-101" fill="#DD936F" fill-rule="nonzero"></path>
        <path d="M260.784098,506.877402 C261.085893,506.790803 261.400749,506.965253 261.487348,507.267048 C261.573947,507.568843 261.399497,507.883699 261.097702,507.970298 C257.720832,508.939281 254.241482,509.082779 251.128779,508.748994 C250.891931,508.723596 250.674313,508.696787 250.477314,508.669568 L249.976782,508.591734 C249.668118,508.534231 249.464513,508.237395 249.522016,507.928732 C249.579519,507.620068 249.876355,507.416463 250.185018,507.473966 C250.373586,507.509095 250.737528,507.56352 251.250008,507.618475 C254.228828,507.937903 257.568265,507.800176 260.784098,506.877402 Z" id="Stroke-103" fill="#DD936F" fill-rule="nonzero"></path>
        <path d="M254.578525,513.118328 L255.198265,513.188019 L255.95813,513.266362 C256.220162,513.292187 256.490144,513.317574 256.765697,513.342084 C257.549746,513.411822 258.313004,513.468522 259.030124,513.507561 L259.660854,513.537647 C261.186357,513.59942 262.318084,513.559784 262.856995,513.404875 C263.158749,513.318136 263.473686,513.49244 263.560425,513.794195 C263.647164,514.095949 263.47286,514.410886 263.171105,514.497625 C262.391792,514.721638 260.946972,514.750596 258.968319,514.64288 C258.419899,514.613025 257.846334,514.573138 257.257931,514.525183 L256.664962,514.474612 C256.246057,514.437352 255.83997,514.398102 255.454626,514.358347 L254.442575,514.247172 C254.130854,514.20963 253.908587,513.926496 253.946128,513.614775 C253.979916,513.334226 254.212633,513.126135 254.486083,513.11469 L254.578525,513.118328 Z" id="Stroke-105" fill="#DD936F" fill-rule="nonzero"></path>
        <g id="分组" transform="translate(288.000000, 484.891000)">
            <mask id="mask-8" fill="white">
                <use xlink:href="#path-7"></use>
            </mask>
            <g id="Clip-108"></g>
            <path d="M0.9051,5.949 L1.6131,41.754 L99.1896,42.8295 C110.7351,42.603 119.9076,33.06 119.6811,21.5145 C119.4516,9.972 109.9101,0.798 98.3661,1.026 L0.9051,5.949 Z" id="Fill-107" fill="#E4EBF7" mask="url(#mask-8)"></path>
        </g>
        <path d="M386.327787,485.167649 C386.741476,485.14682 387.093723,485.465297 387.115517,485.878987 C387.133644,486.258202 386.867626,486.585788 386.504511,486.653796 L386.403213,486.665751 L289.141,491.562 L289.82,525.907 L372.947012,526.130203 C373.326707,526.131221 373.639744,526.414216 373.688424,526.780424 L373.694997,526.882212 C373.693979,527.261907 373.410984,527.574944 373.044776,527.623624 L372.942988,527.630197 L289.082488,527.405197 C288.708797,527.404195 288.398569,527.129741 288.343265,526.770062 L288.334646,526.669996 L287.627997,490.864996 C287.620817,490.493556 287.885198,490.17837 288.241091,490.112721 L288.340287,490.101149 L386.327787,485.167649 Z" id="Stroke-109" fill="#96A7CA" fill-rule="nonzero"></path>
        <path d="M304.013901,492.548197 C304.393523,492.540854 304.712825,492.816761 304.769701,493.181786 L304.778554,493.283401 L305.378554,523.685401 C305.386727,524.099534 305.057632,524.441881 304.643499,524.450203 C304.263877,524.457546 303.944575,524.181639 303.887699,523.816614 L303.878846,523.714999 L303.278846,493.312999 C303.270673,492.898866 303.599768,492.556519 304.013901,492.548197 Z" id="Stroke-111" fill="#96A7CA" fill-rule="nonzero"></path>
    </g>
</svg>