<?xml version="1.0" encoding="UTF-8"?>
<svg width="512px" height="1024px" viewBox="0 0 512 1024" version="1.1" xmlns="http://www.w3.org/2000/svg" xmlns:xlink="http://www.w3.org/1999/xlink">
    <!-- Generator: Sketch 61.2 (89653) - https://sketch.com -->
    <title>2.人物组件/8.程序员/站立/双手交叉</title>
    <desc>Created with Sketch.</desc>
    <defs>
        <polygon id="path-1" points="1.23366371 0.957 58.9860265 0.957 58.9860265 54.684 1.23366371 54.684"></polygon>
        <polygon id="path-3" points="0 0.703005483 71.004488 0.703005483 71.004488 131.622278 0 131.622278"></polygon>
    </defs>
    <g id="2.人物组件/8.程序员/站立/双手交叉" stroke="none" stroke-width="1" fill="none" fill-rule="evenodd">
        <path d="M240.28705,797.289 C240.28705,797.289 244.22755,829.965 241.75555,837.099 C235.14355,844.0035 228.47455,839.754 219.79105,846.543 C211.10755,853.335 192.96205,864.444 177.52555,851.478 C175.91155,843.081 181.34005,839.544 188.05105,835.383 C215.72305,818.223 208.17205,810.228 213.49705,799.848 C221.66605,783.9195 240.91555,785.8995 240.28705,797.289" id="Fill-1" fill="#253368"></path>
        <path d="M298.675,802.66125 C298.675,802.66125 297.6625,835.55775 300.7585,842.44275 C307.96,848.73075 314.224,843.90375 323.4775,849.89325 C332.7325,855.88275 351.796,865.33125 366.016,851.04225 C366.874,842.53425 361.153,839.49525 354.097,835.94775 C325.0075,821.32275 331.816,812.68725 325.5865,802.82175 C316.03,787.68525 297.034,791.37225 298.675,802.66125" id="Fill-3" fill="#253368"></path>
        <path d="M227.1871,275.9709 L230.2606,237.0894 L265.2691,239.5644 L266.5861,276.8289 C266.9836,288.0849 257.8966,297.3909 246.6346,297.2604 C235.2136,297.1284 226.2871,287.3574 227.1871,275.9709" id="Fill-5" fill="#FFC999"></path>
        <path d="M221.23165,232.85835 C221.23165,232.85835 215.91865,227.26935 213.63265,230.98335 C211.34665,234.69885 215.18815,248.07435 220.99315,248.46735 C228.74515,248.99085 221.23165,232.85835 221.23165,232.85835" id="Fill-7" fill="#FFC999"></path>
        <path d="M254.7436,267.31515 C254.7436,267.31515 243.2746,276.55365 228.2566,267.17715 C217.4491,260.43015 216.3106,236.31765 218.5546,218.64765 C219.8236,208.64865 224.4841,203.30265 234.2686,200.42415 C244.0546,197.54565 270.5161,197.67315 270.430807,227.12865 C270.3376,259.93815 254.7436,267.31515 254.7436,267.31515" id="Fill-9" fill="#FFC999"></path>
        <path d="M235.44814,223.447197 C235.704254,223.384723 235.962282,223.517315 236.065822,223.749914 L236.097103,223.84164 L237.619603,230.08314 C237.632211,230.134826 237.637033,230.187953 237.63404,230.240779 L237.623685,230.319576 L234.275,246.443 L240.68326,246.555982 C240.950138,246.560634 241.168145,246.759206 241.205309,247.015046 L241.210818,247.10226 C241.206166,247.369138 241.007594,247.587145 240.751754,247.624309 L240.66454,247.629818 L233.60854,247.506818 C233.302529,247.501484 233.069537,247.24431 233.081129,246.949937 L233.092115,246.860724 L236.547,230.22 L235.053697,224.09616 C234.991223,223.840046 235.123815,223.582018 235.356414,223.478478 L235.44814,223.447197 Z" id="Stroke-11" fill="#DD936F" fill-rule="nonzero"></path>
        <path d="M245.547348,251.254006 C245.949325,251.154069 246.356207,251.398921 246.456144,251.800898 C246.556081,252.202875 246.311229,252.609757 245.909252,252.709694 L245.65735,252.766544 C245.582983,252.782264 245.496469,252.799878 245.398031,252.819063 C244.995257,252.897561 244.525,252.975702 243.990754,253.048403 C240.971993,253.459203 237.371859,253.529649 233.33753,253.046018 C232.926261,252.996716 232.632829,252.623349 232.682132,252.21208 C232.731434,251.800811 233.104801,251.507379 233.51607,251.556682 C237.417568,252.024389 240.890809,251.956425 243.788495,251.562102 C244.192883,251.507072 244.556669,251.449056 244.878042,251.390625 L245.340071,251.300483 C245.436572,251.280161 245.505919,251.264306 245.547348,251.254006 Z" id="Stroke-13" fill="#FF7A46" fill-rule="nonzero"></path>
        <g id="分组" transform="translate(215.500000, 185.043000)">
            <mask id="mask-2" fill="white">
                <use xlink:href="#path-1"></use>
            </mask>
            <g id="Clip-16"></g>
            <path d="M51.47805,54.684 L57.30555,43.3815 C57.30555,43.3815 61.06755,27.048 57.33405,19.983 C51.53955,9.0195 38.08455,9.2115 30.12255,6.2385 C22.15905,3.264 22.25505,0.5775 19.01205,1.0005 C15.77055,1.4235 3.16455,10.074 1.68855,19.209 C0.38955,27.24 2.28555,47.739 2.28555,47.739 C2.28555,47.739 4.67955,29.6175 6.46455,24.84 C12.81105,22.245 35.80455,22.2855 45.37755,25.3155 C45.37755,25.3155 46.16355,31.497 46.61055,35.85 C51.72255,39.564 51.47805,54.684 51.47805,54.684" id="Fill-15" fill="#253368" mask="url(#mask-2)"></path>
        </g>
        <path d="M227.29239,266.112204 C227.512971,265.913956 227.852498,265.93206 228.050746,266.15264 C228.160668,266.274945 228.397984,266.504306 228.764208,266.805498 C229.384509,267.31565 230.137083,267.827731 231.023586,268.306862 C236.083017,271.041349 242.851352,271.524874 251.447545,268.296386 C251.725186,268.192112 252.03479,268.332653 252.139064,268.610295 C252.243338,268.887936 252.102797,269.19754 251.825155,269.301814 C242.936867,272.640005 235.844644,272.133341 230.51293,269.251693 C229.563803,268.738715 228.754188,268.187822 228.082003,267.635 C227.672736,267.298408 227.396794,267.031715 227.251954,266.87056 C227.053706,266.649979 227.07181,266.310452 227.29239,266.112204 Z" id="Stroke-17" fill="#DD936F" fill-rule="nonzero"></path>
        <path d="M235.905902,229.170065 L241.094402,229.422065 C241.686857,229.450839 242.14381,229.954446 242.115035,230.546902 C242.088179,231.09986 241.647691,231.534781 241.10739,231.566918 L240.990198,231.567535 L235.801698,231.315535 C235.209243,231.286761 234.75229,230.783154 234.781065,230.190698 C234.807921,229.63774 235.248409,229.202819 235.78871,229.170682 L235.905902,229.170065 Z" id="Stroke-19" fill="#393C68" fill-rule="nonzero"></path>
        <path d="M237.302087,232.063414 C238.3698,231.963341 239.457172,232.214913 240.519197,232.685939 C241.050387,232.921531 241.462564,233.159431 241.714817,233.330858 C242.205407,233.664254 242.332838,234.332227 241.999442,234.822817 C241.666046,235.313407 240.998073,235.440838 240.507483,235.107442 C240.354017,235.003149 240.04964,234.827469 239.648331,234.649481 C238.893062,234.314506 238.146195,234.141713 237.502533,234.202041 C237.067287,234.242835 236.691016,234.388518 236.360132,234.661923 L236.221064,234.786983 C235.79645,235.201149 235.116483,235.192679 234.702317,234.768064 C234.288151,234.34345 234.296621,233.663483 234.721236,233.249317 C235.448826,232.53963 236.330664,232.154462 237.302087,232.063414 Z" id="Stroke-21" fill="#393C68" fill-rule="nonzero"></path>
        <path d="M236.490871,256.914344 L240.720871,257.065844 C241.017258,257.076459 241.248921,257.325334 241.238306,257.621721 C241.228752,257.888469 241.026209,258.102791 240.769729,258.13525 L240.682429,258.139156 L236.452429,257.987656 C236.156042,257.977041 235.924379,257.728166 235.934994,257.431779 C235.944548,257.165031 236.147091,256.950709 236.403571,256.91825 L236.490871,256.914344 Z" id="Stroke-23" fill="#DD936F" fill-rule="nonzero"></path>
        <path d="M260.310003,230.066581 L268.824003,230.321581 C269.416891,230.339339 269.883126,230.834365 269.865369,231.427253 C269.848795,231.980615 269.416468,232.423648 268.876858,232.465823 L268.759697,232.468619 L260.245697,232.213619 C259.652809,232.195861 259.186574,231.700835 259.204331,231.107947 C259.220905,230.554585 259.653232,230.111552 260.192842,230.069377 L260.310003,230.066581 Z" id="Stroke-25" fill="#393C68" fill-rule="nonzero"></path>
        <path d="M259.70065,229.43565 L243.44815,228.85515 C242.31415,228.81465 241.36015,229.69965 241.32865,230.83365 C241.26715,232.95165 241.26565,236.35065 241.71265,239.27565 C242.23915,242.72565 245.24665,244.93515 248.72665,245.22015 C253.07215,245.57715 256.97815,245.71965 259.03465,243.53115 C262.16665,240.19665 261.63115,234.50415 261.67465,231.50115 C261.68965,230.40015 260.80165,229.47465 259.70065,229.43565" id="Fill-27" fill="#FFFFFF"></path>
        <path d="M259.713314,229.078124 L243.46092,228.497628 C242.126963,228.449987 241.008017,229.49248 240.971038,230.823716 C240.882635,233.868205 240.978661,236.840862 241.359006,239.329694 C241.891437,242.818563 244.898942,245.265622 248.697449,245.576706 L249.488953,245.638334 C254.895261,246.034211 257.513899,245.671938 259.295358,243.776133 C260.678226,242.303854 261.460581,240.331499 261.810033,237.879142 L261.877237,237.366455 C262.008182,236.267721 262.046348,235.217702 262.041323,233.634119 L262.029745,231.776126 C262.030164,231.683947 262.031036,231.597873 262.032362,231.506332 C262.050005,230.211348 261.009594,229.124041 259.713314,229.078124 Z M243.435381,229.212672 L259.68788,229.793172 C260.596207,229.825347 261.329261,230.591441 261.316933,231.496276 L261.313972,231.867632 L261.326182,233.979487 C261.324298,235.573197 261.269243,236.602353 261.101688,237.778206 C260.771238,240.09721 260.04168,241.936463 258.773889,243.286224 C257.12121,245.044983 254.472116,245.333207 248.755942,244.863601 C245.269721,244.578092 242.54547,242.361503 242.066305,239.221679 C241.693769,236.783938 241.598979,233.849543 241.686249,230.844034 C241.712174,229.910739 242.497391,229.179172 243.435381,229.212672 Z" id="Stroke-29" fill="#253368" fill-rule="nonzero"></path>
        <path d="M234.35815,228.351 L215.95765,227.6955 C215.18065,230.3595 215.46565,240.7815 218.54515,243.1215 C222.69715,245.4885 231.27415,244.833 232.68265,242.6235 C234.82015,239.271 235.79815,232.764 235.86415,229.9515 C235.88365,229.0935 235.21615,228.3825 234.35815,228.351" id="Fill-31" fill="#FFFFFF"></path>
        <path d="M234.371275,227.993491 L215.970386,227.337977 C215.806758,227.332148 215.660055,227.438147 215.61421,227.59533 C214.484214,231.469603 215.578512,241.316573 218.328706,243.406346 C222.489282,245.781798 231.381435,245.330232 232.984318,242.815806 C234.83533,239.912639 236.128127,233.951694 236.221802,229.959893 C236.245761,228.905669 235.424396,228.032154 234.371275,227.993491 Z M216.188566,228.239094 L216.23,228.063 L234.345414,228.708523 C235.006814,228.732806 235.521564,229.280238 235.506492,229.943371 C235.415609,233.816218 234.148414,239.659116 232.380997,242.431171 C231.021969,244.563064 222.550776,244.993253 218.722329,242.810707 C216.399443,241.041891 215.328473,232.140745 216.188566,228.239094 Z" id="Stroke-33" fill="#253368" fill-rule="nonzero"></path>
        <path d="M241.305646,228.345498 L261.470146,228.535998 C262.063273,228.541601 262.539556,229.026969 262.534001,229.620096 C262.528722,230.173681 262.105565,230.625482 261.566933,230.678706 L261.449854,230.683902 L241.285354,230.493402 C240.692227,230.487799 240.215944,230.002431 240.221499,229.409304 C240.226778,228.855719 240.649935,228.403918 241.188567,228.350694 L241.305646,228.345498 Z" id="Stroke-35" fill="#393C68" fill-rule="nonzero"></path>
        <path d="M215.846428,227.023175 L235.578928,228.004175 C236.17135,228.033627 236.627727,228.537756 236.598275,229.130178 C236.570786,229.683105 236.129802,230.117522 235.589465,230.149042 L235.472272,230.149525 L215.739772,229.168525 C215.14735,229.139073 214.690973,228.634944 214.720425,228.042522 C214.747914,227.489595 215.188898,227.055178 215.729235,227.023658 L215.846428,227.023175 Z" id="Stroke-37" fill="#393C68" fill-rule="nonzero"></path>
        <path d="M269.6287,230.5776 C271.6987,228.4281 274.9207,227.8236 277.2127,230.2836 C280.9042,234.2481 277.5562,249.0561 267.6457,249.7161 C263.8792,249.2106 266.3977,233.9316 269.6287,230.5776" id="Fill-39" fill="#FFC999"></path>
        <path d="M273.808464,231.914806 C274.085597,231.809189 274.395877,231.94823 274.501494,232.225364 C274.607111,232.502497 274.46807,232.812777 274.190936,232.918394 L274.044373,232.980162 C273.953172,233.021199 273.836438,233.077501 273.700218,233.149244 C273.317921,233.350587 272.935395,233.596597 272.580551,233.886786 C271.368462,234.878024 270.782554,236.104553 271.105006,237.627142 C271.192565,238.039815 271.345814,238.236443 271.74113,238.483019 L271.985979,238.627125 C272.799119,239.094044 273.157121,239.4998 273.235597,240.391126 C273.354269,241.728214 272.717655,242.739135 271.627039,243.431425 C271.051175,243.796966 270.482033,244.002372 270.083565,244.091618 C269.794158,244.156437 269.507001,243.974372 269.442182,243.684965 C269.377363,243.395558 269.559428,243.108401 269.848835,243.043582 L269.956014,243.015424 C270.023497,242.995893 270.110751,242.96803 270.212982,242.931135 C270.500116,242.827507 270.787062,242.692513 271.051464,242.524679 C271.831767,242.029366 272.244593,241.373813 272.165769,240.485698 C272.128196,240.058943 272.012586,239.895897 271.577832,239.632958 L271.344478,239.497172 C270.6053,239.069737 270.226842,238.662813 270.054352,237.849858 C269.637962,235.883706 270.40459,234.278862 271.900647,233.055397 C272.31541,232.716207 272.757462,232.431915 273.199744,232.19898 L273.492482,232.052211 C273.623729,231.989968 273.730998,231.944328 273.808464,231.914806 Z" id="Stroke-41" fill="#DD936F" fill-rule="nonzero"></path>
        <path d="M243.889689,220.553548 L248.892144,221.169502 L250.435226,221.347064 C253.980133,221.736808 256.268108,221.847408 257.386485,221.63584 C258.200475,221.481855 258.985174,222.016895 259.13916,222.830885 C259.293145,223.644875 258.758105,224.429574 257.944115,224.58356 C256.382141,224.879044 253.838841,224.751061 249.754477,224.290061 L248.209129,224.10902 L243.537911,223.532852 C242.715199,223.435711 242.127007,222.690023 242.224148,221.867311 C242.315575,221.092994 242.981493,220.526418 243.74542,220.543428 L243.889689,220.553548 Z" id="Stroke-43" fill="#253368" fill-rule="nonzero"></path>
        <path d="M225.002674,219.009372 C227.377842,218.852717 229.859322,219.362006 232.306835,220.299081 C233.583629,220.787924 234.573207,221.279971 235.159808,221.622854 C235.875015,222.040911 236.115902,222.959602 235.697846,223.674808 C235.279789,224.390015 234.361098,224.630902 233.645892,224.212846 L233.45333,224.105909 C233.369156,224.060708 233.265417,224.006452 233.143378,223.944644 L233.015286,223.880373 C232.482296,223.615355 231.883037,223.349187 231.234164,223.100755 C229.156799,222.305398 227.078951,221.878949 225.200111,222.002868 C223.895941,222.088885 222.739836,222.439893 221.743625,223.084948 C221.048245,223.535212 220.119516,223.336505 219.669252,222.641125 C219.218988,221.945745 219.417695,221.017016 220.113075,220.566752 C221.562715,219.6281 223.211491,219.12751 225.002674,219.009372 Z" id="Stroke-45" fill="#253368" fill-rule="nonzero"></path>
        <path d="M248.437497,233.010338 C248.851441,233.025276 249.1749,233.372953 249.159962,233.786897 C249.106653,235.264143 250.078498,236.461024 251.273792,236.50383 C252.468829,236.546628 253.523289,235.422249 253.575416,233.944903 C253.590023,233.530947 253.937441,233.20721 254.351397,233.221816 C254.765353,233.236423 255.08909,233.583841 255.074484,233.997797 C254.994608,236.261549 253.291985,238.077069 251.220108,238.00287 C249.148242,237.92867 247.579253,235.996373 247.660938,233.732803 C247.675876,233.318859 248.023553,232.9954 248.437497,233.010338 Z" id="Stroke-47" fill="#755654" fill-rule="nonzero"></path>
        <path d="M225.470226,232.190716 C225.884182,232.20531 226.207929,232.55272 226.193334,232.966676 C226.141168,234.446292 227.112137,235.642531 228.307142,235.68423 C229.502106,235.727025 230.556955,234.60261 230.610288,233.124703 C230.625226,232.710759 230.972903,232.3873 231.386847,232.402238 C231.800791,232.417176 232.12425,232.764853 232.109312,233.178797 C232.027623,235.442503 230.324959,237.257455 228.254145,237.183294 C226.182369,237.111 224.614395,235.179247 224.694266,232.913824 C224.70886,232.499868 225.05627,232.176121 225.470226,232.190716 Z" id="Stroke-49" fill="#755654" fill-rule="nonzero"></path>
        <g id="分组" transform="translate(145.000000, 288.543000)">
            <mask id="mask-4" fill="white">
                <use xlink:href="#path-3"></use>
            </mask>
            <g id="Clip-52"></g>
            <path d="M14.1216,130.68375 L14.1216,130.68375 C24.5046,133.95675 35.6106,128.40525 39.2271,118.13775 L69.6786,31.66575 C74.0406,19.27575 67.2741,5.73375 54.7461,1.78425 C42.2151,-2.16375 28.9071,5.05125 25.3776,17.70375 L0.7461,106.01025 C-2.1774,116.49525 3.7401,127.41075 14.1216,130.68375" id="Fill-51" fill="#FFC999" mask="url(#mask-4)"></path>
        </g>
        <path d="M155.54365,357.8805 L170.71465,305.7105 C174.47815,293.124 187.91815,286.158 200.37115,290.337 C212.82565,294.516 219.34165,308.1795 214.75015,320.487 L196.20865,370.191 L155.54365,357.8805 Z" id="Fill-53" fill="#597EF7"></path>
        <path d="M285.63205,442.1142 C285.63205,442.1142 212.16655,441.8562 202.12855,441.62941 C196.89955,441.5112 187.22455,477.7242 188.42755,498.8742 C191.86855,505.5432 223.04155,515.5497 237.95005,522.1122 C243.58555,524.5932 248.69605,523.1067 248.69605,523.1067 C256.08505,524.9277 301.41805,501.8862 301.41805,501.8862 C301.41805,501.8862 297.57805,461.5407 285.63205,442.1142" id="Fill-55" fill="#ADC6FF"></path>
        <path d="M200.5093,432.4389 L200.2768,442.5729 C200.2768,442.5729 206.8648,448.7904 234.9688,452.1984 C266.4148,456.0129 286.7323,443.2659 286.7323,443.2659 L284.7388,431.9544 C284.7388,431.9544 250.5208,443.7264 200.5093,432.4389" id="Fill-57" fill="#ADC6FF"></path>
        <path d="M220.89775,651.94725 L220.89775,651.94725 C233.86225,651.68025 244.30375,641.22975 244.56325,628.26675 L247.17775,497.34075 C247.51225,480.59025 233.83975,466.92675 217.09075,467.27325 C200.34025,467.61825 187.24375,481.83225 188.26825,498.55575 L196.27675,629.26125 C197.07025,642.20325 207.93475,652.21425 220.89775,651.94725" id="Fill-59" fill="#ADC6FF"></path>
        <path d="M292.63705,659.16735 L292.63705,659.16735 C305.48905,657.45135 314.69905,645.89985 313.50655,632.98785 L301.46155,502.59135 C299.91955,485.90835 284.80555,473.86035 268.19905,476.07735 C251.59405,478.29285 240.16855,493.88385 243.05755,510.38685 L265.63405,639.37785 C267.86905,652.15035 279.78505,660.88335 292.63705,659.16735" id="Fill-61" fill="#ADC6FF"></path>
        <path d="M207.95725,805.5024 L197.06725,636.8004 C196.27825,623.2329 206.93275,611.7309 220.51975,611.4849 C233.95825,611.2404 244.96225,622.1079 244.884662,635.5479 L242.36425,804.7839 C242.36425,804.7839 228.71725,813.0159 207.95725,805.5024" id="Fill-63" fill="#ADC6FF"></path>
        <path d="M295.47145,812.9313 L266.03995,641.6688 C263.86045,628.2543 273.27745,615.7203 286.76845,614.0778 C300.10945,612.4548 312.17245,622.1343 313.47445,635.5113 L329.62345,808.6818 C329.62345,808.6818 316.89445,818.2713 295.47145,812.9313" id="Fill-65" fill="#ADC6FF"></path>
        <path d="M195.15895,415.15155 C195.15895,415.15155 174.15295,340.08405 192.30445,289.41405 C201.61195,286.93905 210.34945,285.58755 220.30045,283.89855 C224.30545,283.21905 238.45495,291.65355 243.25495,291.43005 C250.34845,291.09855 263.89345,283.65105 270.61045,284.56605 C297.75745,288.25905 309.96595,294.67305 309.96595,294.67305 L291.12445,413.51205 C291.12445,413.51205 301.70095,431.73405 276.73645,437.79705 C253.64395,443.40555 216.02845,442.51305 201.70195,435.39105 C193.35445,431.24205 192.20395,422.96505 195.15895,415.15155" id="Fill-67" fill="#597EF7"></path>
        <polygon id="Fill-69" fill="#597EF7" points="226.45165 277.2438 219.86365 283.7478 226.91965 303.9228 243.29815 290.8083"></polygon>
        <polygon id="Fill-71" fill="#597EF7" points="242.0317 290.77755 266.7067 274.24005 274.3522 284.90655 259.7752 303.78405"></polygon>
        <path d="M219.827172,283.25251 C220.185752,283.127652 220.574878,283.290927 220.742158,283.620313 L220.78209,283.714172 L227.665,303.481 L242.373368,290.65554 C242.609628,290.449511 242.945109,290.414532 243.215556,290.557022 L243.313604,290.618787 L259.634,302.744 L273.25169,285.188612 C273.482489,284.891076 273.892834,284.814844 274.211432,284.994186 L274.303988,285.05569 C274.601524,285.286489 274.677756,285.696834 274.498414,286.015432 L274.43691,286.107988 L260.36841,304.244488 C260.140988,304.537672 259.738387,304.616596 259.420921,304.445633 L259.328496,304.386813 L242.904,292.183 L227.814732,305.34156 C227.441136,305.667352 226.870658,305.544355 226.654261,305.118716 L226.61351,305.022928 L219.36551,284.207428 C219.229301,283.81625 219.435994,283.388719 219.827172,283.25251 Z" id="Stroke-73" fill="#1D39C4" fill-rule="nonzero"></path>
        <path d="M186.545875,321.574694 C186.957496,321.620961 187.253674,321.992154 187.207406,322.403775 C186.38577,329.713477 186.109315,337.728199 186.325834,346.334413 C186.690537,360.830679 188.417295,376.360288 191.068583,391.994877 C192.121874,398.206115 193.250377,404.005494 194.378734,409.233943 L194.763739,410.995073 C195.013659,412.123225 195.249612,413.158527 195.468807,414.095091 L195.880729,415.814685 C195.919373,415.969342 195.907735,416.132289 195.847502,416.279883 L195.728885,416.595338 C195.702793,416.668327 195.67381,416.751248 195.642347,416.843692 C195.482848,417.312315 195.322859,417.844803 195.173333,418.429973 C194.481263,421.138394 194.253843,423.931939 194.761795,426.514693 C195.477145,430.152 197.583025,432.962144 201.444714,434.692038 C201.822732,434.861376 201.9919,435.305096 201.822562,435.683114 C201.653224,436.061132 201.209504,436.2303 200.831486,436.060962 C196.509842,434.125024 194.096397,430.904458 193.289989,426.804154 C192.73271,423.970587 192.9774,420.964896 193.720028,418.058616 C193.847654,417.559151 193.982712,417.094705 194.119508,416.670711 L194.272616,416.214487 L194.368,415.948 L194.008275,414.436917 L193.545802,412.422729 C193.344493,411.53004 193.132851,410.571455 192.91249,409.550375 C191.779616,404.300992 190.646887,398.479898 189.589696,392.245664 C186.927358,376.54591 185.193016,360.948102 184.826308,346.372139 C184.608161,337.701175 184.886942,329.619016 185.716794,322.236225 C185.759206,321.858905 186.074645,321.57859 186.443977,321.57013 L186.545875,321.574694 Z" id="Stroke-75" fill="#1D39C4" fill-rule="nonzero"></path>
        <path d="M242.970807,290.478009 C243.380957,290.535893 243.666524,290.915308 243.608641,291.325457 L243.373625,293.077993 L243.111486,295.134828 C243.020179,295.866823 242.925101,296.644728 242.826724,297.467127 L242.752329,298.092246 C242.109291,303.523182 241.466181,309.65442 240.865912,316.356851 C238.371788,344.205485 237.367291,372.732523 238.709654,399.351502 C239.441083,413.855705 240.8617,427.276591 243.043135,439.39427 C243.116522,439.801931 242.84554,440.191897 242.43788,440.265285 C242.030219,440.338672 241.640253,440.06769 241.566865,439.66003 C239.373237,427.474617 237.946018,413.991358 237.211558,399.427049 C235.865205,372.728956 236.872033,344.135708 239.371891,316.223047 L239.585932,313.876247 C240.089199,308.456755 240.618208,303.435318 241.148979,298.883947 L241.482875,296.08478 C241.601976,295.109568 241.71556,294.205013 241.822709,293.37388 L242.029881,291.798802 L242.123359,291.115843 C242.176419,290.739873 242.499655,290.468585 242.869079,290.470514 L242.970807,290.478009 Z" id="Stroke-77" fill="#1D39C4" fill-rule="nonzero"></path>
        <path d="M245.3569,310.4715 C245.1769,311.7945 245.9239,312.99 247.0279,313.14 C248.1319,313.29 249.1714,312.339 249.3514,311.016 C249.5329,309.6915 248.7844,308.4975 247.6804,308.346 C246.5779,308.196 245.5369,309.147 245.3569,310.4715" id="Fill-79" fill="#FFFFFF"></path>
        <path d="M243.29005,336.4323 C243.11005,337.7568 243.85705,338.9508 244.96105,339.1008 C246.06505,339.2508 247.10455,338.3013 247.28455,336.9768 C247.46605,335.6523 246.71755,334.4583 245.61355,334.3068 C244.51105,334.1568 243.47005,335.1093 243.29005,336.4323" id="Fill-81" fill="#FFFFFF"></path>
        <path d="M241.8619,361.5528 C241.6819,362.8758 242.4289,364.0713 243.5329,364.2213 C244.6369,364.3713 245.6764,363.4218 245.8579,362.0973 C246.0379,360.7728 245.2894,359.5788 244.1854,359.4273 C243.0829,359.2773 242.0434,360.2298 241.8619,361.5528" id="Fill-83" fill="#FFFFFF"></path>
        <path d="M242.98825,416.11905 C243.13825,417.44655 244.15675,418.42155 245.26225,418.29705 C246.36925,418.17255 247.14475,416.99355 246.99325,415.66605 C246.84475,414.33855 245.82625,413.36505 244.71925,413.48955 C243.61375,413.61405 242.83825,414.79155 242.98825,416.11905" id="Fill-85" fill="#FFFFFF"></path>
        <path d="M226.483165,524.854226 C226.554728,524.600501 226.797078,524.441046 227.050524,524.465288 L227.145774,524.483165 L246.645774,529.983165 C246.931214,530.063673 247.097344,530.360334 247.016835,530.645774 C246.945272,530.899499 246.702922,531.058954 246.449476,531.034712 L246.354226,531.016835 L226.854226,525.516835 C226.568786,525.436327 226.402656,525.139666 226.483165,524.854226 Z" id="Stroke-87" fill="#597EF7" fill-rule="nonzero"></path>
        <path d="M192.292014,408.775621 L294.823014,424.011121 C295.213882,424.069201 295.48366,424.433146 295.425579,424.824014 C295.372339,425.18231 295.062087,425.438856 294.70968,425.434502 L294.612686,425.426579 L192.081686,410.191079 C191.690818,410.132999 191.42104,409.769054 191.479121,409.378186 C191.532361,409.01989 191.842613,408.763344 192.19502,408.767698 L192.292014,408.775621 Z" id="Stroke-89" fill="#597EF7" fill-rule="nonzero"></path>
        <path d="M213.422982,382.667288 C213.783294,382.704515 214.053406,383.00303 214.064642,383.355286 L214.061162,383.452532 L211.370162,409.498532 C211.329551,409.891599 210.977985,410.177322 210.584918,410.136712 C210.224606,410.099485 209.954494,409.80097 209.943258,409.448714 L209.946738,409.351468 L212.637738,383.305468 C212.674965,382.945156 212.97348,382.675044 213.325736,382.663808 L213.422982,382.667288 Z" id="Stroke-91" fill="#597EF7" fill-rule="nonzero"></path>
        <path d="M203.7715,390.74715 C202.6045,390.62565 201.766,389.48865 201.898,388.20615 C202.03,386.92215 203.0845,385.98015 204.2515,386.10015 C205.4185,386.22165 206.257,387.36015 206.1235,388.64265 C205.9915,389.92515 204.9385,390.86865 203.7715,390.74715" id="Fill-93" fill="#FFFFFF"></path>
        <path d="M154.833665,357.638796 C154.95603,357.279358 155.324258,357.073235 155.686807,357.144198 L155.785354,357.170515 L186.971854,367.787515 C187.363968,367.921004 187.573625,368.34709 187.440135,368.739204 C187.31777,369.098642 186.949542,369.304765 186.586993,369.233802 L186.488446,369.207485 L155.301946,358.590485 C154.909832,358.456996 154.700175,358.03091 154.833665,357.638796 Z" id="Stroke-95" fill="#1D39C4" fill-rule="nonzero"></path>
        <path d="M195.8401,381.5085 C195.8401,381.5085 180.2911,361.509 174.0091,361.0965 C167.7271,360.684 156.8071,361.902 155.0251,365.232 C150.8251,373.083 151.3591,380.661 151.3591,380.661 L172.1896,381.357 L195.8401,381.5085 Z" id="Fill-97" fill="#FFC999"></path>
        <path d="M166.617838,366.673842 C167.415557,366.668147 168.187034,366.683536 168.929474,366.721293 C169.225668,366.736356 169.45357,366.98868 169.438507,367.284874 C169.423444,367.581068 169.17112,367.80897 168.874926,367.793907 C168.153925,367.757241 167.403107,367.742263 166.625506,367.747815 C163.986209,367.766659 161.153041,368.016845 158.312542,368.422259 C157.448853,368.54553 156.635491,368.676123 155.887245,368.807888 L155.018215,368.9669 L154.363507,369.096832 C154.07343,369.158581 153.788218,368.973485 153.726468,368.683407 C153.664719,368.39333 153.849815,368.108118 154.139893,368.046368 L154.816756,367.911964 C154.953365,367.885937 155.09891,367.858748 155.252993,367.830565 L156.164087,367.670176 C156.792122,367.563794 157.460187,367.459028 158.160791,367.359033 C161.045409,366.947323 163.924617,366.693071 166.617838,366.673842 Z" id="Stroke-99" fill="#DD936F" fill-rule="nonzero"></path>
        <path d="M161.585588,372.024463 C164.596076,372.015581 166.941314,372.115446 168.389622,372.354414 C168.682242,372.402696 168.880318,372.679052 168.832036,372.971672 C168.783754,373.264292 168.507398,373.462368 168.214778,373.414086 C166.911448,373.199039 164.769741,373.099864 162.026813,373.097955 L161.588757,373.098459 C160.135215,373.102747 158.594638,373.132521 157.035405,373.180842 L155.277836,373.242699 L153.408451,373.326006 C153.112285,373.341609 152.859546,373.114167 152.843944,372.818001 C152.828341,372.521835 153.055783,372.269096 153.351949,372.253494 L154.842664,372.185396 C155.228496,372.169435 155.635566,372.153734 156.060111,372.138679 C157.633043,372.082899 159.201275,372.04437 160.697229,372.030076 L161.585588,372.024463 Z" id="Stroke-101" fill="#DD936F" fill-rule="nonzero"></path>
        <path d="M151.963556,376.325985 L168.565556,376.867485 C168.861975,376.877154 169.094433,377.125286 169.084765,377.421706 C169.076063,377.688483 168.874205,377.903452 168.617831,377.936729 L168.530544,377.940915 L151.928544,377.399415 C151.632125,377.389746 151.399667,377.141614 151.409335,376.845194 C151.418037,376.578417 151.619895,376.363448 151.876269,376.330171 L151.963556,376.325985 Z" id="Stroke-103" fill="#DD936F" fill-rule="nonzero"></path>
        <path d="M186.62995,381.96405 L178.90195,403.64355 L289.07695,426.18855 C300.27595,428.56605 311.18845,421.10355 313.03645,409.80705 C314.88595,398.50905 306.92095,387.95805 295.54945,386.64105 L186.62995,381.96405 Z" id="Fill-105" fill="#FFC999"></path>
        <path d="M291.4006,427.35075 L291.4006,427.35075 C302.2456,428.28675 311.8801,420.45225 313.1761,409.64325 L324.0886,318.61875 C325.6531,305.57625 316.1026,293.83125 303.0151,292.70175 C289.9276,291.57225 278.5066,301.50975 277.8136,314.62725 L272.9791,406.17675 C272.4046,417.04725 280.5556,426.41475 291.4006,427.35075" id="Fill-107" fill="#FFC999"></path>
        <path d="M317.926504,369.15105 L324.086537,318.61905 C325.677255,305.57655 315.965177,293.83155 302.658348,292.70205 C289.351519,291.57255 277.739118,301.51005 277.034505,314.62755 L274.257228,366.38205 L317.926504,369.15105 Z" id="Fill-109" fill="#597EF7"></path>
        <path d="M311.644,394.39395 C314.0785,399.72345 307.7215,402.79395 307.7215,402.79395 C307.7215,402.79395 308.5465,407.26545 302.203,407.53095 C295.8595,407.79795 268.696,407.59845 268.696,407.59845 L266.8765,383.93445 L277.5865,383.56095 C277.5865,383.56095 285.3595,376.90845 289.3285,374.35245 C293.299,371.79495 303.214,373.12245 308.4895,370.84845 C313.765,368.57445 310.7425,378.53295 298.396,379.59495 C317.716,380.66595 318.73,377.25045 319.258,382.29945 C319.5235,384.83445 315.289,386.49795 315.289,386.49795 C315.289,386.49795 317.791,391.58145 311.644,394.39395" id="Fill-111" fill="#FFC999"></path>
        <path d="M300.747014,377.421806 L301.664459,377.501727 C302.393098,377.566762 303.204896,377.642161 304.079098,377.727052 C306.57717,377.969631 309.075399,378.239684 311.408136,378.530307 L312.493313,378.66866 C314.617866,378.946025 316.463849,379.227219 317.963326,379.509735 C318.254776,379.564646 318.446527,379.845427 318.391615,380.136876 C318.336704,380.428326 318.055923,380.620077 317.764474,380.565165 L316.996824,380.425986 C315.404443,380.147687 313.473536,379.869927 311.275359,379.596068 C309.340377,379.354999 307.289433,379.12798 305.21907,378.919124 L303.460144,378.7464 L300.657786,378.492094 C300.362235,378.467454 300.142617,378.207888 300.167256,377.912336 C300.191896,377.616785 300.451462,377.397167 300.747014,377.421806 Z" id="Stroke-113" fill="#DD936F" fill-rule="nonzero"></path>
        <path d="M275.74,406.7982 L278.983,384.0132 L165.4045,379.8972 C153.9565,379.8042 144.754,389.2962 145.198,400.7352 C145.642,412.1742 155.554,420.9222 166.96,419.9412 L275.74,406.7982 Z" id="Fill-115" fill="#FFC999"></path>
        <path d="M310.61588,369.675661 C311.59728,369.095364 312.456687,369.397518 312.548055,370.418659 C312.610662,371.118353 312.290929,372.13174 311.689704,373.186828 C310.220581,375.764987 307.613865,377.87256 304.468777,378.506319 C304.178044,378.564904 303.894866,378.37671 303.836281,378.085977 C303.777696,377.795244 303.96589,377.512066 304.256623,377.453481 C307.07436,376.885686 309.432091,374.979422 310.756571,372.655097 C311.220656,371.840676 311.476476,371.080356 311.482147,370.622417 L311.473521,370.431232 C311.465766,370.391675 311.42512,370.444865 311.162702,370.600032 C309.624786,371.51021 305.981406,372.266085 300.556675,372.975133 L299.302616,373.134235 C298.450956,373.239181 297.564918,373.342377 296.625711,373.446792 L292.058636,373.929979 C290.710241,374.071201 288.870647,375.015282 286.693945,376.614047 C285.670105,377.366047 284.592228,378.247439 283.478863,379.231875 C282.139876,380.415807 280.81928,381.685611 279.575605,382.955504 L278.837749,383.718818 L277.972645,384.644414 C277.887485,384.738666 277.772448,384.798901 277.648598,384.816226 L277.554387,384.821034 L194.511387,381.755034 C194.215012,381.744092 193.983623,381.494962 193.993845,381.198587 C194.004414,380.93185 194.207194,380.717751 194.463709,380.685576 L194.551013,380.681766 L277.345,383.738 L278.060189,382.977956 C278.293715,382.733047 278.543599,382.474308 278.808293,382.204034 C280.068774,380.91698 281.407401,379.629838 282.767447,378.427287 C283.903607,377.422695 285.006027,376.521233 286.05817,375.748445 C288.376965,374.045315 290.359047,373.028109 291.946937,372.861803 L295.008457,372.542352 L295.794872,372.45768 C297.479954,372.274335 298.987562,372.09709 300.41748,371.910191 L301.768044,371.727174 C306.138138,371.112541 309.1772,370.452155 310.490334,369.746388 L310.61588,369.675661 Z" id="Stroke-117" fill="#DD936F" fill-rule="nonzero"></path>
        <path d="M166.121496,361.208605 C164.603186,361.477929 163.000589,361.817061 161.349473,362.209978 C160.12477,362.501421 158.926953,362.809446 157.785928,363.120811 L156.380981,363.513863 L155.152281,363.876546 C154.995878,363.924885 154.870067,364.041925 154.810571,364.194433 L153.90706,366.543627 C153.399033,367.876983 152.890994,369.229034 152.401935,370.554615 L151.750995,372.334948 L151.04082,374.322363 C149.922621,377.49849 149.215903,379.764494 149.044471,380.846031 C148.993009,381.170703 149.242711,381.464995 149.57143,381.467089 L168.528362,381.588589 L196.394479,382.049107 C196.833284,382.056277 197.082389,381.571178 196.856712,381.223384 L196.774085,381.121573 L195.007363,379.198397 C194.655311,378.817898 194.286048,378.420229 193.901616,378.00784 C192.070852,376.043937 190.207884,374.079973 188.388224,372.206552 L187.302229,371.094088 C186.856571,370.639943 186.418337,370.196441 185.988245,369.764441 L185.304043,369.079995 C181.029935,364.822377 177.886093,362.039741 176.219634,361.19287 C174.390033,360.263093 170.890597,360.362641 166.121496,361.208605 Z M175.733066,362.15033 C177.340132,362.967018 180.703292,365.978284 185.227133,370.522191 L186.094297,371.397576 L186.535667,371.846325 C188.329042,373.673851 190.181545,375.610637 192.017233,377.565685 L193.862166,379.542571 L195.165,380.954 L167.948677,380.510812 L150.232,380.397 L150.255591,380.30323 C150.57405,379.014422 151.292051,376.814884 152.31093,373.953282 L152.760853,372.700546 L152.929117,372.23708 C153.401901,370.93832 153.900111,369.597636 154.404687,368.260411 L155.442875,365.536468 L155.716,364.827 L156.546331,364.58386 C156.762491,364.5215 156.991317,364.456308 157.231889,364.388689 C158.607162,364.002132 160.082265,363.615527 161.59811,363.254801 C163.230161,362.866422 164.812796,362.531513 166.309078,362.266096 C170.840873,361.462227 174.191472,361.366913 175.733066,362.15033 Z" id="Stroke-119" fill="#DD936F" fill-rule="nonzero"></path>
        <path d="M317.576977,379.583459 C317.82746,379.424664 318.159246,379.498993 318.318041,379.749477 C318.4135,379.900055 318.545842,380.154755 318.675774,380.495033 C319.176219,381.80564 319.195266,383.215921 318.401379,384.543439 C317.917425,385.352696 317.152908,386.07114 316.085265,386.682596 L315.963,386.749 L316.033567,386.994459 C316.115487,387.325021 316.153619,387.66548 316.149873,388.014081 L316.139241,388.277031 C316.03847,389.723255 315.263945,391.219066 314.0439,392.707826 C313.594856,393.255772 313.114988,393.764806 312.634942,394.222992 L312.299775,394.534714 L312.173,394.646 L312.17208,394.661937 C312.153366,394.86293 312.107695,395.096865 312.025034,395.356224 L311.955947,395.555393 C311.683868,396.281427 311.18687,396.994432 310.419686,397.648912 C309.706272,398.257522 308.787315,398.789863 307.643251,399.230346 L307.243,399.376 C307.019926,400.616282 306.482296,401.755489 305.718408,402.7898 L305.504533,403.069276 C305.104659,403.573987 304.676833,404.018637 304.248253,404.400399 L304.007435,404.608399 C303.860297,404.731289 303.741305,404.822456 303.658435,404.880884 C303.602857,404.920069 303.540604,404.948161 303.475089,404.963987 L303.374796,404.97838 L280.180209,406.092214 L167.027709,420.474214 C166.7335,420.511609 166.464681,420.303419 166.427286,420.009209 C166.39363,419.744421 166.558899,419.500198 166.806768,419.426741 L166.892291,419.408786 L280.086704,405.02312 L303.159,403.913 L303.324989,403.779086 L303.533889,403.598426 C303.918414,403.255907 304.303695,402.855475 304.66272,402.402322 C305.501191,401.344025 306.063924,400.169825 306.230587,398.902958 C306.257555,398.697971 306.39981,398.526672 306.596356,398.462511 C307.95012,398.020588 308.978362,397.466782 309.722645,396.831838 C310.350495,396.296224 310.741713,395.734972 310.950246,395.17851 C311.057907,394.89122 311.100749,394.656462 311.10739,394.496679 L311.107827,394.423138 C311.096578,394.256565 311.169162,394.088622 311.30311,393.978575 L311.498749,393.810387 C311.606272,393.714996 311.739768,393.592717 311.893405,393.446076 C312.343618,393.016364 312.79401,392.538598 313.213209,392.027071 C314.305071,390.694726 314.985776,389.380105 315.067839,388.202377 C315.104546,387.675561 315.019783,387.184826 314.803449,386.726868 C314.678199,386.461724 314.788807,386.145129 315.051921,386.015667 C316.239257,385.431456 317.027667,384.747971 317.479629,383.99221 C318.080519,382.987417 318.065951,381.908733 317.672432,380.878151 C317.570162,380.610318 317.470301,380.41813 317.410959,380.324523 C317.252164,380.07404 317.326493,379.742254 317.576977,379.583459 Z" id="Stroke-121" fill="#DD936F" fill-rule="nonzero"></path>
        <path d="M275.526387,329.749991 C275.905848,329.763823 276.209522,330.056842 276.246274,330.424439 L276.249536,330.526387 L274.386686,383.441387 C274.372112,383.855344 274.02472,384.179109 273.610763,384.165009 C273.231302,384.151177 272.927628,383.858158 272.890876,383.490561 L272.887614,383.388613 L274.750464,330.473613 C274.765038,330.059656 275.11243,329.735891 275.526387,329.749991 Z" id="Stroke-123" fill="#1D39C4" fill-rule="nonzero"></path>
        <path d="M258.588795,331.250015 L275.481795,331.358015 C275.896,331.360663 276.229633,331.69859 276.227,332.112795 C276.224557,332.492483 275.940403,332.804468 275.574017,332.851789 L275.472205,332.857985 L259.291,332.754 L257.772,359.21 L273.411255,370.336364 C273.718093,370.554644 273.811251,370.961481 273.645255,371.287232 L273.587636,371.382255 C273.369356,371.689093 272.962519,371.782251 272.636768,371.616255 L272.541745,371.558636 L256.565245,360.193136 C256.385073,360.064964 256.272199,359.865137 256.25294,359.648478 L256.251234,359.538999 L257.835234,331.956999 C257.856223,331.59152 258.136365,331.299878 258.490513,331.255775 L258.588795,331.250015 Z" id="Stroke-125" fill="#1D39C4" fill-rule="nonzero"></path>
        <path d="M284.3361,443.232554 C284.615968,443.134413 284.922405,443.281732 285.020546,443.5616 C285.118687,443.841468 284.971368,444.147905 284.6915,444.246046 C254.661724,454.776546 230.110519,454.9109 211.326257,448.807573 C208.638423,447.93425 206.320136,446.997626 204.375436,446.059721 C203.80623,445.7852 203.302928,445.526604 202.865817,445.288416 L202.344748,444.99636 C202.188362,444.905918 202.074892,444.837145 202.004484,444.792337 C201.754278,444.633105 201.68053,444.30119 201.839763,444.050984 C201.998995,443.800778 202.33091,443.72703 202.581116,443.886263 L202.886987,444.069293 L203.136075,444.210816 C203.609964,444.476074 204.17877,444.772489 204.841987,445.092351 C206.743754,446.009549 209.017135,446.92803 211.658139,447.786137 C230.220765,453.817451 254.530568,453.684418 284.3361,443.232554 Z" id="Stroke-127" fill="#597EF7" fill-rule="nonzero"></path>
        <path d="M231.7201,451.28505 L232.2571,451.28505 L232.268111,452.93436 L232.285666,454.356998 C232.297574,455.187603 232.313169,456.084728 232.332925,457.045555 L232.345281,457.629673 C232.45556,462.702645 232.654078,468.396743 232.962894,474.580462 C233.845213,492.247925 235.433364,510.296868 237.903459,527.674429 C237.945196,527.968054 237.740999,528.239919 237.447374,528.281656 C237.153748,528.323393 236.881884,528.119197 236.840147,527.825571 C234.365002,510.412482 232.77407,492.33193 231.890231,474.634031 L231.779365,472.334449 C231.532557,467.023551 231.368214,462.100405 231.271535,457.653015 L231.227903,455.403266 L231.185693,451.926687 L231.184486,451.709623 C231.183534,451.51731 231.183163,451.381789 231.596734,451.304642 L231.7201,451.28505 Z M231.7201,451.28505 L231.183943,451.315119 L230.678443,442.301619 C230.661836,442.005507 230.888419,441.751999 231.184531,441.735393 C231.451031,441.720446 231.683023,441.902485 231.738863,442.154907 L231.750757,442.241481 L231.7201,451.28505 Z" id="Stroke-129" fill="#597EF7" fill-rule="nonzero"></path>
        <path d="M244.49605,451.956292 C244.7924,451.968309 245.023237,452.21795 245.011639,452.5143 L244.911117,455.298161 C244.835694,457.494585 244.760268,459.906484 244.689872,462.459159 L244.604016,465.756806 C244.523835,469.036676 244.461173,472.255817 244.420509,475.347647 L244.402031,476.882645 C244.387178,478.24585 244.377072,479.568063 244.37197,480.845476 L244.369813,483.955892 C244.385403,489.401116 244.507882,493.727116 244.752732,496.686124 L244.780442,497.009265 L244.773772,497.153496 C244.053548,501.087885 242.011031,504.624405 239.062976,507.736425 C237.761043,509.110769 236.367378,510.310236 234.97317,511.328958 C234.582225,511.614615 234.213237,511.86969 233.87203,512.093762 L233.397151,512.39707 C233.263433,512.479881 233.161874,512.540173 233.095844,512.577692 C232.837987,512.72421 232.510176,512.633951 232.363658,512.376094 C232.21714,512.118237 232.307399,511.790426 232.565256,511.643908 L232.933757,511.420269 L233.043868,511.350512 C233.433967,511.10169 233.869675,510.805107 234.339542,510.461784 C235.684042,509.479382 237.029085,508.321762 238.283281,506.997811 C240.986368,504.144382 242.88219,500.934932 243.629872,497.403241 L243.703,497.028 L243.682605,496.777273 C243.43475,493.783374 243.311504,489.433199 243.295823,483.961733 L243.297978,480.841439 C243.301812,479.881408 243.308465,478.896223 243.31783,477.88748 L243.328095,476.870943 C243.372434,472.801717 243.457246,468.48705 243.571904,464.084374 L243.669995,460.54073 C243.715413,458.990674 243.762306,457.502953 243.809446,456.095789 L243.938461,452.4723 C243.950059,452.17595 244.1997,451.945113 244.49605,451.956292 Z" id="Stroke-131" fill="#597EF7" fill-rule="nonzero" transform="translate(238.652757, 482.301898) rotate(-3.000000) translate(-238.652757, -482.301898) "></path>
        <path d="M274.125942,365.515859 L317.093442,368.008859 C317.506961,368.032852 317.822733,368.387524 317.798741,368.801042 C317.776748,369.180101 317.476891,369.477026 317.108554,369.505401 L317.006558,369.506341 L274.039058,367.013341 C273.625539,366.989348 273.309767,366.634676 273.333759,366.221158 C273.355752,365.842099 273.655609,365.545174 274.023946,365.516799 L274.125942,365.515859 Z" id="Stroke-133" fill="#1D39C4" fill-rule="nonzero"></path>
        <path d="M284.892598,433.508473 C285.156494,433.373135 285.480138,433.477351 285.615477,433.741248 C285.750815,434.005144 285.646599,434.328788 285.382702,434.464127 C277.515593,438.498758 268.069495,440.965014 257.38111,442.067849 C244.250376,443.422688 230.199437,442.672019 216.547119,440.596303 C213.743833,440.170088 211.162605,439.716137 208.846161,439.259555 L208.159214,439.122526 C207.577909,439.005175 207.042274,438.893378 206.554415,438.788372 L205.201242,438.486607 L205.048115,438.4503 C204.759823,438.380693 204.582543,438.090558 204.65215,437.802265 C204.721757,437.513973 205.011892,437.336693 205.300185,437.4063 L205.93252,437.552083 L206.781,437.738546 C207.14342,437.81655 207.532685,437.898387 207.947904,437.983533 L208.371741,438.069764 C210.844666,438.568989 213.642633,439.068359 216.708556,439.534506 C230.278302,441.597667 244.243118,442.343735 257.270879,440.999521 C267.836147,439.909389 277.156309,437.476013 284.892598,433.508473 Z" id="Stroke-135" fill="#1D39C4" fill-rule="nonzero"></path>
    </g>
</svg>