<svg xmlns="http://www.w3.org/2000/svg" xmlns:xlink="http://www.w3.org/1999/xlink" width="512" height="1024" version="1.1" viewBox="0 0 512 1024"><title>2.人物组件/8.程序员/站立/思考</title><desc>Created with Sketch.</desc><defs><polygon id="path-1" points="1.153 1.275 59.048 1.275 59.048 53.703 1.153 53.703"/><polygon id="path-3" points=".412 .538 69.168 .538 69.168 58.5 .412 58.5"/></defs><g id="2.人物组件/8.程序员/站立/思考" fill="none" fill-rule="evenodd" stroke="none" stroke-width="1"><path id="Fill-1" fill="#FFC999" d="M248.69795,299.21945 L250.22945,260.24795 L285.30845,261.33395 L288.09995,298.51595 C288.94295,309.74795 280.23095,319.40645 268.97345,319.72145 C257.55395,320.04245 248.24945,310.63295 248.69795,299.21945"/><path id="Fill-3" fill="#FFC999" d="M241.0391,256.37675 C241.0391,256.37675 235.5071,251.00225 233.3711,254.80475 C231.2351,258.60575 235.6031,271.81925 241.4186,271.98275 C249.1856,272.19875 241.0391,256.37675 241.0391,256.37675"/><path id="Fill-5" fill="#FFC999" d="M275.88995,289.47935 C275.88995,289.47935 264.79445,299.16335 249.41945,290.39135 C238.35245,284.07635 236.25995,260.02835 237.80045,242.28185 C238.67345,232.24085 243.11795,226.71485 252.78095,223.45085 C262.44545,220.18685 288.89045,219.26735 289.97345,248.70335 C291.17795,281.48885 275.88995,289.47935 275.88995,289.47935"/><path id="Stroke-7" fill="#DD936F" fill-rule="nonzero" d="M254.87171,246.409452 C255.125147,246.336874 255.388228,246.459135 255.500906,246.687446 L255.535798,246.77786 L257.304298,252.95336 C257.318947,253.004512 257.325871,253.057412 257.324973,253.110321 L257.317745,253.189475 L254.61,269.435 L261.018066,269.292334 C261.284919,269.286377 261.510644,269.47613 261.557946,269.730291 L261.566916,269.817216 C261.572873,270.084069 261.38312,270.309794 261.128959,270.357096 L261.042034,270.366066 L253.986034,270.523704 C253.680023,270.530397 253.436909,270.282639 253.436909,269.988012 L253.444355,269.898425 L256.238,253.133 L254.503302,247.07354 C254.430724,246.820103 254.552985,246.557022 254.781296,246.444344 L254.87171,246.409452 Z"/><path id="Stroke-9" fill="#253368" fill-rule="nonzero" d="M263.048775,243.248142 L263.186753,243.252356 L268.504757,243.69322 L269.74344,243.785231 C273.317411,244.035849 275.616244,244.055967 276.736387,243.797624 C277.506894,243.619919 278.275571,244.10048 278.453276,244.870987 C278.630981,245.641494 278.15042,246.410171 277.379913,246.587876 C275.837222,246.943673 273.28845,246.915996 269.185145,246.616362 L267.032638,246.447259 L263.163265,246.122885 C263.095669,246.117516 263.02921,246.112278 262.963547,246.107144 C262.175219,246.045507 261.58612,245.356475 261.647756,244.568147 C261.705767,243.826191 262.319534,243.260715 263.048775,243.248142 Z"/><path id="Stroke-11" fill="#FF7A46" fill-rule="nonzero" d="M266.064279,273.79434 C266.461985,273.678569 266.87824,273.907123 266.99401,274.304829 C267.109781,274.702535 266.881227,275.11879 266.483521,275.23456 L266.121878,275.329365 C266.040296,275.349322 265.948178,275.371172 265.845698,275.394638 C265.341476,275.510095 264.753539,275.62509 264.086625,275.732122 C261.157914,276.202146 257.737371,276.372541 253.935228,276.069072 C253.522328,276.036117 253.214322,275.674679 253.247278,275.261778 C253.280233,274.848878 253.641671,274.540872 254.054572,274.573828 C257.732138,274.867353 261.033711,274.702885 263.848934,274.251074 C264.355987,274.169698 264.812973,274.083875 265.217434,273.9974 L265.758488,273.874048 C265.902744,273.838855 266.005149,273.811552 266.064279,273.79434 Z"/><g id="分组" transform="translate(234.500000, 207.725000)"><mask id="mask-2" fill="#fff"><use xlink:href="#path-1"/></mask><path id="Fill-13" fill="#253368" d="M52.5219,53.703 L57.8964,42.1785 C57.8964,42.1785 61.0089,25.71 56.9979,18.798 C50.7729,8.0715 37.3374,8.796 29.2629,6.141 C21.1899,3.4845 21.1779,0.7965 17.9559,1.347 C14.7324,1.8975 2.4789,11.043 1.3659,20.2275 C0.3879,28.3035 3.0909,48.7125 3.0909,48.7125 C3.0909,48.7125 4.7679,30.5085 6.3609,25.665 C12.5994,22.8195 35.5764,21.951 45.2634,24.6 C45.2634,24.6 46.2924,30.744 46.9134,35.076 C52.1664,38.586 52.5219,53.703 52.5219,53.703" mask="url(#mask-2)"/></g><path id="Stroke-15" fill="#DD936F" fill-rule="nonzero" d="M285.254638,275.564651 C285.401572,275.307031 285.729529,275.217303 285.987149,275.364238 C286.244769,275.511172 286.334497,275.839129 286.187562,276.096749 C283.692248,280.471777 281.024262,284.012299 278.20484,286.772159 C269.666071,295.130543 260.532588,295.91407 252.146762,292.222425 C251.139774,291.779125 250.237601,291.303822 249.452365,290.82767 C249.245231,290.702068 249.057164,290.582934 248.888808,290.471902 L248.508413,290.211108 C248.491489,290.198866 248.477045,290.188253 248.465106,290.179329 C248.227553,290.001773 248.178915,289.66526 248.356471,289.427706 C248.534027,289.190153 248.87054,289.141515 249.108094,289.319071 L249.250681,289.421442 C249.421435,289.540326 249.676085,289.707302 250.009236,289.909318 C250.755944,290.362108 251.616999,290.815747 252.579488,291.239458 C260.594379,294.767808 269.260796,294.024349 277.453557,286.004663 C280.198635,283.317576 282.806799,279.85644 285.254638,275.564651 Z"/><path id="Stroke-17" fill="#393C68" fill-rule="nonzero" d="M255.555664,252.109443 L260.750164,252.155943 C261.343294,252.161253 261.819817,252.646384 261.814551,253.239514 C261.809551,253.793102 261.386618,254.245112 260.848012,254.298603 L260.730936,254.303857 L255.536436,254.257357 C254.943306,254.252047 254.466783,253.766916 254.472049,253.173786 C254.477049,252.620198 254.899982,252.168188 255.438588,252.114697 L255.555664,252.109443 Z"/><path id="Stroke-19" fill="#393C68" fill-rule="nonzero" d="M257.273628,254.922238 C258.299361,254.830356 259.347453,255.05102 260.372586,255.467472 C260.884114,255.675276 261.28156,255.885493 261.525198,256.037275 C262.028646,256.350917 262.182516,257.013299 261.868875,257.516748 C261.555233,258.020196 260.892851,258.174066 260.389402,257.860425 L260.229225,257.768039 C260.068047,257.680523 259.84012,257.569641 259.564142,257.457528 C258.828382,257.158632 258.098455,257.004953 257.465272,257.061672 C256.978859,257.105243 256.56909,257.270337 256.220564,257.584772 L256.092708,257.70974 C255.684906,258.140471 255.005141,258.159059 254.57441,257.751258 C254.143679,257.343456 254.125091,256.663691 254.532892,256.23296 C255.283653,255.439986 256.224279,255.016236 257.273628,254.922238 Z"/><path id="Stroke-21" fill="#253368" fill-rule="nonzero" d="M244.652526,242.421414 C246.964913,242.249249 249.387096,242.68749 251.774283,243.517167 C252.986566,243.938501 253.924797,244.362923 254.479775,244.65855 C255.177669,245.030306 255.442056,245.89743 255.0703,246.595325 C254.698544,247.293219 253.83142,247.557606 253.133525,247.18585 L252.908638,247.072911 C252.807964,247.024206 252.682202,246.965129 252.533228,246.897738 C252.025551,246.668084 251.454065,246.437391 250.83422,246.221961 C248.785764,245.510012 246.730384,245.138136 244.865135,245.27701 C243.43156,245.383744 242.178086,245.790947 241.124418,246.534175 C240.478258,246.989958 239.584958,246.835627 239.129175,246.189468 C238.673392,245.543308 238.827723,244.650008 239.473882,244.194225 C240.978176,243.133138 242.727963,242.564704 244.652526,242.421414 Z"/><path id="Stroke-23" fill="#DD936F" fill-rule="nonzero" d="M261.472257,279.79325 C261.768831,279.792098 262.01019,280.031582 262.01135,280.328157 C262.012386,280.595074 261.818508,280.817266 261.563519,280.859878 L261.476443,280.867246 L257.243443,280.88375 C256.946869,280.884902 256.70551,280.645418 256.70435,280.348843 C256.703314,280.081926 256.897192,279.859734 257.152181,279.817122 L257.239257,279.809754 L261.472257,279.79325 Z"/><path id="Stroke-25" fill="#393C68" fill-rule="nonzero" d="M288.493836,251.957799 C289.086963,251.952158 289.572361,252.428409 289.578051,253.021536 C289.583266,253.575122 289.168749,254.034862 288.631223,254.098287 L288.514264,254.105701 L279.997264,254.186701 C279.404137,254.192342 278.918739,253.716091 278.913049,253.122964 C278.907834,252.569378 279.322351,252.109638 279.859877,252.046213 L279.976836,252.038799 L288.493836,251.957799 Z"/><path id="Fill-27" fill="#FFF" d="M279.3425,251.432883 L263.0795,251.4974 C261.944,251.5019 261.0275,252.4229 261.039383,253.5584 C261.0635,255.6764 261.197,259.0724 261.758,261.9779 C262.421,265.4054 265.514,267.4919 269.0015,267.6404 C273.3575,267.8234 277.268,267.8129 279.2345,265.5449 C282.233,262.0889 281.4725,256.4219 281.396,253.4189 C281.369,252.3164 280.445,251.4284 279.3425,251.432883"/><path id="Stroke-29" fill="#253368" fill-rule="nonzero" d="M279.341045,251.075116 L263.078081,251.139653 C261.742889,251.144944 260.667705,252.229359 260.681519,253.562144 C260.716441,256.617318 260.929779,259.575485 261.406738,262.045722 C262.077023,265.510884 265.178089,267.835671 268.986281,267.997826 L269.780638,268.027825 C275.205031,268.207778 277.801795,267.743363 279.504795,265.779263 C280.794359,264.292942 281.496444,262.351953 281.764651,259.973102 C281.9208,258.588143 281.928301,257.331928 281.841174,255.387449 L281.756628,253.525591 C281.755686,253.49037 281.754725,253.452615 281.753634,253.409789 C281.721911,252.114413 280.639742,251.069855 279.341045,251.075116 Z M263.080918,251.855147 L279.343919,251.790602 C280.254268,251.786929 281.016187,252.522367 281.038357,253.427659 L281.073864,254.328447 L281.106433,254.994984 C281.212195,257.151921 281.215459,258.457827 281.053655,259.892939 C280.800315,262.139937 280.146267,263.948121 278.96428,265.310451 C277.384569,267.13236 274.754291,267.524015 269.016516,267.282965 C265.521468,267.134144 262.712434,265.028286 262.109239,261.909958 C261.642061,259.490373 261.431448,256.570007 261.396924,253.554327 C261.38733,252.619774 262.141758,251.858869 263.080918,251.855147 Z"/><path id="Fill-31" fill="#FFF" d="M253.9766,251.35309 L235.5656,251.4266 C234.8936,254.1191 235.5926,264.5216 238.7606,266.7386 C243.0026,268.9391 251.5481,267.9446 252.8681,265.6811 C254.8706,262.2461 255.5906,255.7061 255.5441,252.8921 C255.5306,252.0356 254.8346,251.3501 253.9766,251.35309"/><path id="Stroke-33" fill="#253368" fill-rule="nonzero" d="M253.975353,250.99533 L235.564172,251.068853 C235.400493,251.069506 235.258133,251.181161 235.218497,251.339969 C234.241942,255.252731 235.725783,265.051453 238.555481,267.031706 C242.806618,269.240456 251.675017,268.43712 253.177139,265.861322 C254.911756,262.885837 255.967724,256.875588 255.901801,252.886189 C255.885209,251.833512 255.028613,250.991672 253.975353,250.99533 Z M235.852,251.783 L253.978028,251.71083 C254.639077,251.708534 255.175967,252.236176 255.186394,252.897738 C255.250359,256.768661 254.215317,262.65981 252.559034,265.500924 C251.285476,267.684787 242.836847,268.450098 238.925334,266.421035 L238.785756,266.314153 C236.478365,264.397646 235.123938,255.800095 235.819344,251.951532 L235.852,251.783 Z"/><path id="Stroke-35" fill="#393C68" fill-rule="nonzero" d="M281.075266,250.46424 C281.66815,250.446327 282.163297,250.912433 282.18121,251.505316 C282.197929,252.058674 281.793013,252.526893 281.256914,252.601427 L281.140134,252.61126 L260.983134,253.22026 C260.39025,253.238173 259.895103,252.772067 259.87719,252.179184 C259.860471,251.625826 260.265387,251.157607 260.801486,251.083073 L260.918266,251.07324 L281.075266,250.46424 Z"/><path id="Stroke-37" fill="#393C68" fill-rule="nonzero" d="M235.426295,250.758705 L255.182795,250.958205 C255.775918,250.964194 256.251885,251.449871 256.245951,252.042995 C256.240305,252.596577 255.816854,253.048102 255.278187,253.100975 L255.161105,253.106095 L235.404605,252.906595 C234.811482,252.900606 234.335515,252.414929 234.341449,251.821805 C234.347095,251.268223 234.770546,250.816698 235.309213,250.763825 L235.426295,250.758705 Z"/><path id="Fill-39" fill="#FFC999" d="M289.3079,252.1808 C291.2909,249.9518 294.4874,249.2183 296.8739,251.5868 C300.7184,255.4013 297.9614,270.3308 288.0854,271.3823 C284.3009,271.0268 286.2119,255.6593 289.3079,252.1808"/><path id="Stroke-41" fill="#DD936F" fill-rule="nonzero" d="M293.537462,253.351107 C293.810176,253.234553 294.12574,253.361147 294.242293,253.633862 C294.358847,253.906576 294.232253,254.22214 293.959538,254.338693 L293.820487,254.403816 C293.733917,254.446864 293.623056,254.505628 293.493648,254.580045 C293.130211,254.789038 292.76647,255.041178 292.428901,255.334993 C291.22944,256.378986 290.674665,257.639849 291.061949,259.166607 C291.165503,259.573994 291.326493,259.764978 291.726801,259.993499 L291.978588,260.128514 C292.812913,260.563927 293.186561,260.953605 293.301605,261.843334 C293.475296,263.192528 292.862205,264.235481 291.777041,264.970223 C291.225138,265.343905 290.679056,265.563624 290.296553,265.664984 C290.009871,265.740952 289.715885,265.570135 289.639916,265.283453 C289.563948,264.996771 289.734765,264.702785 290.021447,264.626816 L290.194714,264.571353 C290.245874,264.553172 290.304791,264.531015 290.370105,264.504736 C290.64557,264.393902 290.920955,264.252837 291.174898,264.080898 C291.953441,263.553762 292.351715,262.876243 292.236434,261.980762 C292.181339,261.554669 292.059396,261.396775 291.611978,261.15033 L291.368914,261.021696 C290.619532,260.627058 290.225001,260.233547 290.020985,259.430936 C289.520791,257.459062 290.245805,255.811289 291.723787,254.524875 C292.117787,254.181944 292.537869,253.89075 292.958255,253.649007 C293.212868,253.502592 293.414493,253.403661 293.537462,253.351107 Z"/><path id="Fill-43" fill="#253368" d="M248.8826,256.29035 C248.9471,257.92235 247.9916,259.28435 246.7481,259.33385 C245.5061,259.38185 244.4456,258.09935 244.3811,256.46735 C244.3166,254.83685 245.2721,253.47335 246.5156,253.42535 C247.7576,253.37585 248.8181,254.65835 248.8826,256.29035"/><path id="Fill-45" fill="#253368" d="M272.2835,256.63565 C272.348,258.26765 271.3925,259.62965 270.149,259.67915 C268.907,259.72715 267.8465,258.44465 267.782,256.81265 C267.719,255.18215 268.673,253.81865 269.9165,253.77065 C271.1585,253.72115 272.219,255.00365 272.2835,256.63565"/><path id="Fill-47" fill="#FFC999" d="M177.07295,440.33375 L177.07295,440.33375 C167.73995,436.25975 163.21145,425.60975 166.75295,416.06375 L198.82595,329.58575 C203.54345,316.86725 217.98095,310.72775 230.41445,316.15475 C242.69945,321.51725 248.06345,336.02075 242.22245,348.08675 L202.03295,431.10425 C197.54045,440.38325 186.52145,444.45875 177.07295,440.33375"/><path id="Fill-49" fill="#597EF7" d="M216.74515,401.8234 L175.46065,383.8024 L198.59515,328.1194 C203.65915,315.9319 217.73365,310.2649 229.82965,315.5449 C241.92565,320.8249 247.34065,334.9984 241.84615,346.9984 L216.74515,401.8234 Z"/><path id="Stroke-51" fill="#1D39C4" fill-rule="nonzero" d="M176.770365,386.061391 C176.893365,385.714635 177.252694,385.519465 177.603099,385.592699 L177.698259,385.619415 L219.456759,400.431915 C219.835038,400.566097 220.032918,400.98153 219.898735,401.359809 C219.775735,401.706565 219.416406,401.901735 219.066001,401.828501 L218.970841,401.801785 L177.212341,386.989285 C176.834062,386.855103 176.636182,386.43967 176.770365,386.061391 Z" transform="translate(198.334550, 393.710600) rotate(2.000000) translate(-198.334550, -393.710600)"/><path id="Fill-53" fill="#4E5C93" d="M185.5208,852.95675 C166.1183,860.62475 156.5198,848.73575 156.5198,848.73575 C156.5198,848.73575 156.0668,844.64225 159.5318,840.15425 C163.8698,834.53825 173.2883,832.71725 184.6478,822.04025 C193.3733,813.83825 199.2998,800.90225 199.2998,800.90225 C205.6718,791.94125 224.7188,800.24375 224.7188,800.24375 C224.7188,800.24375 224.9978,822.03275 224.3573,832.78325 C224.3573,832.78325 223.5128,838.69025 208.7183,840.47525 C197.6468,841.81025 197.1413,848.36375 185.5208,852.95675"/><path id="Fill-55" fill="#ADC6FF" d="M227.8379,805.69805 L252.1409,642.78305 C253.9844,628.69355 243.8669,615.84905 229.7384,614.34005 C215.6084,612.83105 203.0069,623.25005 201.8339,637.41005 L188.2604,801.13205 C188.2604,801.13205 207.7649,811.57805 227.8379,805.69805"/><path id="Fill-57" fill="#ADC6FF" d="M224.3984,662.28905 L224.3984,662.28905 C210.7229,660.82955 200.7449,648.67055 201.9824,634.97405 L213.7244,504.85355 C215.0969,489.64505 228.6659,478.51055 243.8504,480.13205 C259.0334,481.75355 269.9444,495.50105 268.0754,510.65705 L252.0779,640.32305 C250.3934,653.97305 238.0739,663.75005 224.3984,662.28905"/><g id="分组" transform="translate(285.500000, 797.225000)"><mask id="mask-4" fill="#fff"><use xlink:href="#path-3"/></mask><path id="Fill-59" fill="#4E5C93" d="M40.16535,55.9698 C59.59635,63.5643 69.15135,51.6408 69.15135,51.6408 C69.15135,51.6408 69.58785,47.5443 66.10635,43.0698 C61.74735,37.4703 52.32135,35.6853 40.92285,25.0503 C32.16735,16.8813 26.19135,3.9678 26.19135,3.9678 C19.78635,-4.9692 0.41235,6.3828 0.41235,6.3828 C0.41235,6.3828 0.57285,25.1943 1.25385,35.9418 C1.25385,35.9418 2.12085,41.8458 16.92135,43.5753 C27.99735,44.8698 28.52835,51.4218 40.16535,55.9698" mask="url(#mask-4)"/></g><path id="Fill-61" fill="#ADC6FF" d="M276.10595,803.8106 L267.89495,639.7331 C267.18545,625.5416 278.29745,613.5461 292.50245,613.1726 C306.70595,612.7991 318.43445,624.1901 318.47195,638.3996 L315.91145,802.7021 C315.91145,802.7021 295.64495,811.2776 276.10595,803.8106"/><path id="Fill-63" fill="#ADC6FF" d="M293.81075,662.88455 L293.81075,662.88455 C307.55975,662.52305 318.47675,651.20105 318.34025,637.44905 L317.03825,506.80655 C316.88675,491.53655 304.25225,479.35205 288.98675,479.75405 C273.72125,480.15605 261.74675,492.98855 262.39925,508.24505 L267.97625,638.77505 C268.56425,652.51655 280.06175,663.24605 293.81075,662.88455"/><path id="Fill-65" fill="#597EF7" d="M310.5788,431.31545 C310.5788,431.31545 316.7213,389.67695 320.0078,373.07645 C323.2958,356.47445 329.2913,316.70645 322.3808,314.02595 C315.4703,311.34545 297.3833,305.88395 297.3833,305.88395 C297.3833,305.88395 282.9218,306.44045 268.4648,310.11995 C257.0213,313.03295 258.3338,305.71895 244.4333,308.58245 C238.5473,309.79595 212.5823,311.01395 211.8143,316.69145 C204.1928,373.05245 219.7793,440.47145 219.7793,440.47145 C219.7793,440.47145 214.4678,446.37845 221.4698,453.49295 C223.7798,455.79245 239.2853,455.07845 257.7188,454.39745 C278.7038,453.62195 304.7873,452.36195 307.9103,451.11245 C317.9633,447.08495 310.5788,431.31545 310.5788,431.31545"/><polygon id="Fill-67" fill="#597EF7" points="250.767 299.685 264.605 310.539 250.155 326.679 241.865 308.412"/><polygon id="Fill-69" fill="#597EF7" points="264.27 310.92 278.237 328.938 296.787 305.311 288.203 295.819"/><path id="Stroke-71" fill="#1D39C4" fill-rule="nonzero" d="M263.057818,313.719173 C263.185493,313.325127 263.608432,313.109192 264.002477,313.236868 C264.396523,313.364543 264.612458,313.787482 264.484782,314.181527 L264.416709,314.407912 C264.378534,314.541058 264.329993,314.718098 264.271867,314.941124 L264.226488,315.117049 C264.013913,315.949342 263.77622,317.001233 263.519635,318.289441 L263.349766,319.162713 C262.670388,322.737699 261.993295,327.298383 261.357507,332.950014 L261.204551,334.338218 C259.766643,347.663351 258.763369,364.904062 258.376633,386.552919 L258.338209,388.848048 C257.971498,412.355447 259.063985,432.463112 260.779923,447.436962 C260.827082,447.848482 260.531708,448.220315 260.120188,448.267473 C259.708668,448.314632 259.336835,448.019258 259.289677,447.607738 L259.116644,446.061014 C257.52246,431.460936 256.518751,412.286714 256.820949,390.020415 L256.876893,386.524977 C257.278026,364.071994 258.341685,346.34033 259.86691,332.782327 L260.027779,331.382708 C260.647693,326.104086 261.30397,321.818499 261.962612,318.432928 L262.048533,317.996428 C262.281158,316.82851 262.49946,315.847049 262.699143,315.04024 L262.866262,314.388664 C262.952349,314.06577 263.017058,313.84497 263.057818,313.719173 Z"/><path id="Stroke-73" fill="#1D39C4" fill-rule="nonzero" d="M280.705778,346.653559 L280.019977,346.877656 C279.708257,346.982173 279.500948,347.277527 279.508398,347.606214 L279.551798,349.317024 C279.681802,354.087526 279.875917,358.206867 280.117794,361.715118 L280.232711,363.28938 C280.349239,364.796892 280.470171,366.1052 280.591662,367.223745 L280.632174,367.589578 C280.681542,368.026731 280.728172,368.407699 280.771324,368.734304 L280.849972,369.296174 C280.858198,369.350688 280.864906,369.393201 280.870004,369.423943 C280.905167,369.635992 281.029619,369.822763 281.211781,369.936861 L292.685281,377.123361 C292.926472,377.274432 293.232389,377.275974 293.475091,377.127342 L307.620091,368.464842 C307.833957,368.333869 307.968209,368.10467 307.977846,367.854071 L308.834346,345.582071 C308.848664,345.209751 308.587485,344.883372 308.221083,344.815717 L307.809355,344.746634 L307.493716,344.698411 C306.912999,344.612203 306.24257,344.52617 305.490598,344.445978 C297.634737,343.608219 288.934468,344.034053 280.705778,346.653559 Z M305.331538,345.937521 L305.760405,345.98491 L306.405148,346.06278 C306.611415,346.089057 306.808944,346.115593 306.997464,346.142203 L307.309,346.187 L306.493,367.395 L293.087,375.605 L282.3,368.848 L282.192876,368.020403 L282.1227,367.421254 C281.976233,366.12428 281.82957,364.545069 281.689772,362.666446 L281.572306,360.990166 L281.491459,359.708319 C281.320749,356.875471 281.179387,353.680866 281.074712,350.106629 L281.022,348.127 L281.160786,348.082883 C289.160909,345.536138 297.664712,345.119921 305.331538,345.937521 Z"/><path id="Fill-75" fill="#FFF" d="M264.03485,325.2362 C264.06635,326.5712 264.99335,327.6332 266.10635,327.6077 C267.21935,327.5807 268.09685,326.4782 268.06535,325.1417 C268.03535,323.8067 267.10685,322.7447 265.99385,322.7702 C264.88085,322.7972 264.00335,323.9012 264.03485,325.2362"/><path id="Fill-77" fill="#FFF" d="M261.78785,349.8884 C261.81935,351.2249 262.74635,352.2854 263.85935,352.2599 C264.97235,352.2344 265.84985,351.1304 265.81835,349.7939 C265.78685,348.4589 264.85985,347.3969 263.74685,347.4224 C262.63385,347.4494 261.75635,348.5534 261.78785,349.8884"/><path id="Fill-79" fill="#FFF" d="M260.79695,376.5281 C260.82845,377.8631 261.75545,378.9251 262.86845,378.8996 C263.98145,378.8726 264.85895,377.7701 264.82745,376.4336 C264.79595,375.0986 263.86895,374.0366 262.75595,374.0621 C261.64145,374.0891 260.76545,375.1931 260.79695,376.5281"/><path id="Fill-81" fill="#FFF" d="M261.57245,403.4618 C261.60395,404.7968 262.53095,405.8588 263.64395,405.8333 C264.75695,405.8063 265.63445,404.7038 265.60295,403.3673 C265.57145,402.0323 264.64445,400.9703 263.53145,400.9958 C262.41845,401.0228 261.54095,402.1268 261.57245,403.4618"/><path id="Fill-83" fill="#FFF" d="M262.1519,434.5685 C262.1834,435.9035 263.1104,436.9655 264.2234,436.94 C265.3364,436.9145 266.2139,435.8105 266.1824,434.474 C266.1509,433.139 265.2239,432.077 264.1109,432.1025 C262.9979,432.1295 262.1204,433.2335 262.1519,434.5685"/><path id="Stroke-85" fill="#1D39C4" fill-rule="nonzero" d="M295.973334,305.557067 C296.22859,305.230851 296.699967,305.173327 297.026183,305.428584 C297.322743,305.660635 297.397244,306.071298 297.21656,306.389138 L297.154666,306.481433 L279.229666,329.389433 C278.953809,329.741977 278.440709,329.770948 278.126097,329.474705 L278.051831,329.393869 L263.902331,311.588869 C263.644625,311.264584 263.698597,310.792788 264.022881,310.535081 C264.317685,310.300803 264.7344,310.32411 265.001349,310.573923 L265.076669,310.655631 L278.634,327.716 L295.973334,305.557067 Z"/><path id="Stroke-87" fill="#1D39C4" fill-rule="nonzero" d="M241.662008,309.651965 C241.994652,309.515329 242.370735,309.647358 242.549287,309.947404 L242.596685,310.042358 L249.946,327.934 L263.718403,310.683625 C263.942769,310.402589 264.335628,310.335276 264.637464,310.510786 L264.725025,310.570753 C265.006061,310.795119 265.073374,311.187978 264.897864,311.489814 L264.837897,311.577375 L250.305897,329.779875 C249.987837,330.17827 249.379527,330.120899 249.131103,329.700703 L249.083615,329.605142 L241.271615,310.586642 C241.121315,310.220733 241.2961,309.802264 241.662008,309.651965 Z"/><path id="Stroke-89" fill="#1D39C4" fill-rule="nonzero" d="M209.778316,343.479492 C210.140762,343.469546 210.448384,343.729892 210.506277,344.077915 L210.521094,344.346138 L210.588823,346.30423 C210.620347,347.164034 210.657266,348.117553 210.699858,349.158803 L210.819972,351.976523 C210.947916,354.863936 211.099541,357.956245 211.276586,361.215785 L211.336545,362.308441 C212.090561,375.911099 213.121197,389.513363 214.470147,402.206201 L214.689934,404.239968 C216.280343,418.712336 218.19933,430.960404 220.475199,440.302825 C220.523887,440.50269 220.484292,440.71384 220.366499,440.882486 C217.415156,445.10798 217.748321,448.524941 220.059322,451.268085 C220.456287,451.739279 220.882344,452.14751 221.307189,452.489767 L221.536239,452.668246 L221.723,452.803 L222.028763,452.840941 C230.236174,453.825855 242.259628,454.018622 257.119252,453.563584 L258.863732,453.507631 C267.498039,453.21837 276.703452,452.72958 286.113575,452.097329 L288.646622,451.924014 C292.834199,451.632336 296.845671,451.327367 300.60216,451.021197 L305.207518,450.634006 L307.84366,450.398707 C308.237518,450.361903 308.586639,450.651352 308.623443,451.04521 C308.660247,451.439068 308.370798,451.788189 307.97694,451.824993 L305.331776,452.061107 C304.449279,452.137839 303.491665,452.219434 302.464216,452.305082 L298.431437,452.632683 C294.570622,452.938324 290.470419,453.240329 286.209606,453.526606 C276.784532,454.159862 267.563541,454.649479 258.911696,454.939327 L257.176035,454.99502 C241.955398,455.461512 229.689622,455.251315 221.380273,454.204483 C221.278982,454.191722 221.18159,454.157455 221.094625,454.103979 C220.545005,453.766012 219.753346,453.128248 218.963781,452.19104 C216.36362,449.104665 215.887273,445.181718 218.801549,440.644724 L219.008,440.33 L218.924023,439.980517 C216.648084,430.43407 214.736564,418.012529 213.155444,403.381906 L213.045669,402.357589 C211.773393,390.386212 210.784054,377.612513 210.042406,364.791946 L209.906241,362.387725 C209.702917,358.719704 209.531257,355.253167 209.388867,352.039722 L209.190687,347.249409 L209.082938,344.217834 C209.072007,343.822438 209.38292,343.492288 209.778316,343.479492 Z"/><path id="Fill-91" fill="#ADC6FF" d="M316.5788,506.78165 L273.0158,527.47565 C273.0158,527.47565 263.4998,529.99715 255.8978,527.51615 C243.6893,523.53215 223.0103,517.35515 214.4558,505.19015 C213.0098,487.26515 220.4633,462.98615 220.4633,462.98615 L221.3318,452.14565 C221.3318,452.14565 260.3393,455.25665 307.2443,449.60465 C307.7363,454.93865 309.1793,461.42465 309.1793,461.42465 C309.1793,461.42465 319.8728,488.47715 316.5788,506.78165"/><path id="Stroke-93" fill="#597EF7" fill-rule="nonzero" d="M306.035135,460.785366 C306.083589,461.077957 305.885676,461.35443 305.593084,461.402885 L304.388205,461.593049 L302.797362,461.83166 C302.228011,461.915136 301.620085,462.002371 300.975068,462.092829 C297.290478,462.609557 293.154937,463.126222 288.663365,463.608417 C272.873057,465.303594 256.882818,466.151199 241.957628,465.691084 C234.776471,465.469703 228.036367,464.944565 221.814534,464.087072 C221.520734,464.04658 221.315387,463.775583 221.355878,463.481784 C221.39637,463.187984 221.667367,462.982637 221.961166,463.023128 C228.142946,463.875101 234.845643,464.397326 241.990721,464.617594 C256.860304,465.075995 272.803621,464.230877 288.548724,462.540553 L290.590645,462.316282 C293.95062,461.938853 297.091576,461.544244 299.970226,461.148108 L302.208678,460.832129 L304.703947,460.457257 L305.417616,460.343315 C305.710207,460.294861 305.98668,460.492774 306.035135,460.785366 Z"/><path id="Stroke-95" fill="#597EF7" fill-rule="nonzero" d="M307.583724,449.974576 C307.616681,450.269316 307.404464,450.534967 307.109724,450.567924 L304.991444,450.790281 C304.420929,450.848064 303.80806,450.908775 303.15443,450.972023 L302.143612,451.068749 C298.46199,451.41722 294.360813,451.765665 289.92163,452.094069 L288.891241,452.169489 C271.762837,453.409873 254.409353,454.025095 238.214027,453.674889 C232.29048,453.546799 226.639717,453.288947 221.300216,452.891771 C221.004456,452.869771 220.78253,452.612175 220.804529,452.316416 C220.826529,452.020656 221.084125,451.79873 221.379884,451.820729 C226.699695,452.216442 232.331781,452.473441 238.237245,452.60114 C254.394693,452.950527 271.71618,452.33644 288.813668,451.098294 C293.641631,450.748669 298.0852,450.374083 302.042409,449.999527 L304.448381,449.765531 L306.990376,449.500576 C307.285116,449.467619 307.550767,449.679836 307.583724,449.974576 Z"/><path id="Stroke-97" fill="#597EF7" fill-rule="nonzero" d="M261.25188,453.224851 C261.548259,453.2364 261.779733,453.485452 261.768891,453.78183 L261.668926,456.971988 C261.630141,458.338363 261.591801,459.839789 261.555478,461.460466 C261.293243,473.161027 261.245226,485.431114 261.546787,496.906404 L261.595935,498.661815 C261.941207,510.267435 262.63992,519.920241 263.751738,526.994324 C263.797785,527.287305 263.597606,527.562141 263.304626,527.608188 C263.011645,527.654235 262.736809,527.454056 262.690762,527.161076 L262.525872,526.072864 C261.447428,518.69089 260.7843,508.774476 260.473158,496.934618 C260.19265,486.260494 260.214072,474.904126 260.428811,463.955318 L260.529504,459.416787 C260.561919,458.11586 260.595325,456.907556 260.628733,455.801818 L260.695609,453.74257 C260.70645,453.446191 260.955502,453.214717 261.25188,453.224851 Z"/><path id="Fill-99" fill="#FFF" d="M252.57035,459.58805 C252.60185,460.92455 253.46885,461.98655 254.50835,461.96255 C255.54635,461.93855 256.36235,460.83605 256.33235,459.50105 C256.30085,458.16455 255.43385,457.10255 254.39435,457.12655 C253.35485,457.15055 252.53885,458.25305 252.57035,459.58805"/><path id="Stroke-101" fill="#597EF7" fill-rule="nonzero" d="M250.323943,465.279925 C250.620119,465.29533 250.84773,465.547916 250.832325,465.844093 L250.764717,467.300429 C250.713927,468.472726 250.663129,469.801858 250.615713,471.261823 C250.390404,478.199291 250.319993,485.377747 250.497585,492.080563 C250.572933,494.924409 250.692116,497.599311 250.858832,500.076059 C251.365179,507.582462 253.696077,510.647557 261.826982,511.383889 C262.122351,511.410637 262.34011,511.671764 262.313361,511.967132 C262.286613,512.262501 262.025486,512.48026 261.730118,512.453511 L260.997314,512.379071 C252.857719,511.458491 250.310637,507.9071 249.787262,500.148265 C249.619501,497.65598 249.499677,494.966704 249.423962,492.109008 C249.261936,485.993721 249.305559,479.488716 249.484581,473.129738 L249.542279,471.22696 C249.569448,470.390412 249.597727,469.596627 249.626484,468.850452 L249.729544,466.411431 L249.759775,465.788307 C249.77518,465.492131 250.027766,465.26452 250.323943,465.279925 Z"/><path id="Fill-103" fill="#FFC999" d="M334.40825,447.7205 L334.40825,447.7205 C324.37175,449.168 314.95025,442.529 312.93875,432.5915 L294.43475,341.174 C291.82925,328.304 300.41375,315.839 313.36625,313.6835 C326.48075,311.501 338.74325,320.762 340.23125,333.9725 L350.67575,426.6575 C351.83225,436.919 344.62925,446.246 334.40825,447.7205"/><path id="Fill-105" fill="#597EF7" d="M347.747,393.11525 L303.1625,399.54875 L293.4905,340.03175 C291.3725,327.00425 300.3515,314.77325 313.4135,312.88775 C326.477,311.00375 338.546,320.19725 340.199,333.29075 L347.747,393.11525 Z"/><path id="Stroke-107" fill="#1D39C4" fill-rule="nonzero" d="M347.639735,392.372638 C348.049703,392.313481 348.430004,392.597868 348.489162,393.007835 C348.54339,393.383639 348.308944,393.734514 347.953714,393.83595 L347.853965,393.857262 L303.269465,400.290762 C302.859497,400.349919 302.479196,400.065532 302.420038,399.655565 C302.36581,399.279761 302.600256,398.928886 302.955486,398.82745 L303.055235,398.806138 L347.639735,392.372638 Z"/><path id="Fill-109" fill="#FFC999" d="M264.09125,312.3605 L264.09125,312.3605 C258.90125,315.344 256.92725,321.8495 259.58525,327.2135 L314.27825,437.591 C319.24025,447.6035 331.58675,451.4 341.31725,445.907 C351.20975,440.321 354.24575,427.49 347.90375,418.064 L279.13775,315.8585 C275.81675,310.9235 269.24825,309.3965 264.09125,312.3605"/><path id="Fill-111" fill="#FFC999" d="M316.41485,432.70955 L316.41485,432.70955 C316.23785,439.02755 311.19185,444.12605 304.87685,444.36755 L184.64735,448.96805 C173.36585,449.40005 164.06435,440.21255 164.35385,428.92655 C164.64485,417.66005 174.37385,408.97055 185.60135,409.95155 L305.46035,420.41555 C311.79035,420.96905 316.59335,426.35855 316.41485,432.70955"/><path id="Fill-113" fill="#FFC999" d="M249.84635,315.90365 C249.84635,315.90365 262.39385,334.74515 272.97185,333.29015 C282.55385,331.97165 282.48185,319.61315 282.48185,319.61315 C282.48185,319.61315 283.49885,308.75765 277.21385,299.88815 C272.90435,293.80565 271.29485,279.99965 267.52385,280.44965 C262.60835,281.03465 268.14485,294.09665 265.60235,296.62415 C260.45435,301.74665 249.56585,282.10115 246.07835,279.85115 C239.26235,275.45465 234.62285,293.41715 249.84635,315.90365"/><path id="Stroke-115" fill="#DD936F" fill-rule="nonzero" d="M242.893273,281.730905 C243.172726,281.631589 243.479779,281.777619 243.579095,282.057073 C244.751968,285.357286 246.541762,288.612687 248.783002,291.755263 C250.258955,293.824784 251.841091,295.721275 253.4228,297.402701 C253.86527,297.873067 254.282196,298.299143 254.666752,298.678272 L255.338716,299.32436 C255.415353,299.395789 255.475928,299.451123 255.519391,299.489957 C255.740549,299.687559 255.759646,300.027032 255.562043,300.248191 C255.364441,300.469349 255.024968,300.488446 254.803809,300.290843 L254.523705,300.032503 C254.432093,299.946296 254.324757,299.84405 254.202743,299.726166 C253.730823,299.270219 253.205654,298.73934 252.640525,298.138583 C251.027328,296.423684 249.414557,294.490472 247.908597,292.378876 C245.613245,289.160427 243.776419,285.819479 242.567105,282.416727 C242.467789,282.137274 242.613819,281.830221 242.893273,281.730905 Z"/><path id="Stroke-117" fill="#DD936F" fill-rule="nonzero" d="M240.266676,286.663051 C240.550273,286.576274 240.850521,286.735828 240.937299,287.019426 L241.022909,287.277084 L241.199607,287.765858 C241.277071,287.972244 241.364642,288.196804 241.46272,288.438797 C241.931851,289.596303 242.540016,290.906499 243.30205,292.342014 C245.483739,296.451864 248.459099,300.735278 252.347041,304.974065 C252.547512,305.192626 252.532847,305.53232 252.314285,305.732791 C252.095724,305.933262 251.75603,305.918597 251.555559,305.700035 C247.603938,301.391822 244.576579,297.033549 242.353425,292.845586 C241.573764,291.376866 240.950089,290.033258 240.467364,288.842209 L240.277833,288.363275 C240.219313,288.211527 240.16541,288.06775 240.116003,287.932162 L239.947738,287.45058 C239.931643,287.401812 239.919204,287.36277 239.910301,287.333674 C239.823524,287.050077 239.983078,286.749829 240.266676,286.663051 Z"/><path id="Stroke-119" fill="#DD936F" fill-rule="nonzero" d="M241.287978,297.424936 C241.54988,297.285776 241.875004,297.385277 242.014164,297.647178 C244.16374,301.69271 246.311078,305.022794 248.353438,307.68267 C248.976862,308.49459 249.55068,309.191172 250.066288,309.776193 L250.283675,310.020097 C250.622302,310.39567 250.8576,310.637494 250.976725,310.751198 C251.191261,310.955972 251.199175,311.29589 250.994402,311.510425 C250.789628,311.724961 250.44971,311.732875 250.235175,311.528102 L250.034364,311.326963 L249.778847,311.058622 C249.68739,310.960704 249.589714,310.854287 249.486022,310.739282 C248.897155,310.086166 248.231375,309.287198 247.501587,308.336755 C245.423165,305.629912 243.243472,302.249653 241.065736,298.151122 C240.926576,297.88922 241.026077,297.564096 241.287978,297.424936 Z"/><path id="Stroke-121" fill="#DD936F" fill-rule="nonzero" d="M242.308106,278.501072 C243.72813,277.714921 245.191599,278.257548 246.554303,279.56135 C246.862882,279.85659 247.143627,280.171281 247.392388,280.486129 L247.618099,280.784574 C247.65847,280.840853 247.692457,280.890291 247.720345,280.932592 L248.064832,281.479037 L248.592613,282.294929 C248.825096,282.649958 249.074375,283.025233 249.33895,283.417364 C250.598649,285.284386 251.945387,287.151218 253.322999,288.891849 C254.692738,290.622533 256.019147,292.133026 257.272341,293.359426 C259.422359,295.463474 261.265278,296.635327 262.638059,296.69638 C264.459481,296.777386 265.344781,296.180997 265.697688,294.891181 C265.967641,293.904547 265.947809,292.855561 265.682112,290.513119 L265.495757,288.91546 C265.395372,288.015624 265.348168,287.432942 265.329438,286.81032 L265.269955,285.036429 C265.152369,281.089232 265.404521,280.540138 267.440332,279.918861 L267.521648,279.909534 C268.150495,279.856659 268.909855,280.04951 269.625413,280.683345 C270.163717,281.160168 270.606519,281.843016 270.931406,282.751822 L271.119106,283.33095 C271.256218,283.768813 271.507891,284.571684 271.626278,284.944247 C271.924379,285.882368 272.214611,286.769775 272.523338,287.678631 C273.342777,290.090968 274.197107,292.370456 275.111388,294.513686 C276.5655,297.922371 278.071439,300.745523 279.619436,302.816999 C280.868415,304.489176 281.722036,307.383109 282.274507,311.179792 C282.574629,313.242289 282.766616,315.447815 282.872304,317.658518 L282.913033,318.620576 C282.946266,319.526798 282.958006,320.258991 282.957384,320.758425 C282.956315,321.061567 282.715158,321.301254 282.418583,321.30036 C282.151665,321.299532 281.930826,321.104113 281.889988,320.848834 L281.883226,320.761709 L281.876165,319.974963 C281.865549,319.368884 281.842086,318.599978 281.799529,317.709804 C281.695374,315.531159 281.506277,313.358834 281.2117,311.334445 C280.683402,307.703882 279.870436,304.947778 278.759041,303.459804 C277.151437,301.308563 275.608292,298.415663 274.123519,294.935101 C273.197503,292.764361 272.333962,290.460297 271.506407,288.024069 C271.298942,287.413317 271.099839,286.812407 270.901233,286.199822 L270.001088,283.354437 C269.726052,282.482777 269.352629,281.87647 268.913279,281.487298 C268.488573,281.111097 268.064385,280.976534 267.722454,280.975358 L267.628,280.978 L267.403517,281.052678 C266.351708,281.418273 266.240516,281.84978 266.342903,285.017199 L266.415549,287.099102 C266.433814,287.475104 266.46519,287.865197 266.515952,288.35778 L266.787823,290.737164 C267.034182,292.994337 267.037658,294.063382 266.733612,295.174621 C266.243742,296.965013 264.897488,297.871928 262.590341,297.76932 C260.875522,297.693055 258.847146,296.403275 256.521159,294.12702 C255.231885,292.865312 253.876666,291.322011 252.480842,289.558368 C251.084676,287.794292 249.722513,285.906081 248.448647,284.01806 L247.934666,283.248788 C247.770475,283.000558 247.613566,282.760855 247.464379,282.530678 L246.815542,281.510949 L246.686901,281.330425 C246.64783,281.278041 246.601961,281.218121 246.54968,281.151951 C246.329941,280.873835 246.081685,280.595562 245.811827,280.337369 C244.749936,279.321378 243.728144,278.942516 242.828295,279.440689 C242.482017,279.632394 242.139725,279.954852 241.80635,280.425323 C241.634881,280.667306 241.299711,280.72447 241.057727,280.553 C240.815744,280.381531 240.75858,280.046361 240.93005,279.804377 C241.351943,279.208987 241.811645,278.775921 242.308106,278.501072 Z"/><path id="Stroke-123" fill="#DD936F" fill-rule="nonzero" d="M189.441043,410.221006 L296.671543,419.519506 C296.944727,419.543195 297.146983,419.783859 297.123294,420.057043 C297.102237,420.299873 296.909743,420.486662 296.675361,420.508534 L296.585757,420.508794 L189.355257,411.210294 C189.082073,411.186605 188.879817,410.945941 188.903506,410.672757 C188.924563,410.429927 189.117057,410.243138 189.351439,410.221266 L189.441043,410.221006 Z"/><path id="Fill-125" fill="#FFC999" d="M314.6219,450.61175 C314.6219,450.61175 296.9639,444.99725 291.5924,435.99875 C283.9094,423.12725 303.3059,419.38325 303.3059,419.38325 C303.3059,419.38325 308.9309,417.80375 321.5549,418.71125 C328.5659,419.21525 346.6559,421.10075 344.5169,424.60025 C341.9819,428.74475 329.6999,425.40275 329.1854,428.89925 C328.6574,432.48875 331.0784,435.35375 337.6199,439.13375 C341.7074,441.49475 347.8334,441.98075 350.9159,444.64325 C356.9444,449.84975 340.1084,458.73725 314.6219,450.61175"/><path id="Stroke-127" fill="#DD936F" fill-rule="nonzero" d="M329.264572,440.264939 C329.457076,440.069663 329.771435,440.067417 329.966711,440.259922 L330.120396,440.403106 C330.168317,440.446325 330.225403,440.496914 330.291628,440.554415 C330.572099,440.797938 330.908891,441.070374 331.301587,441.364567 C332.428841,442.209067 333.77493,443.055046 335.336564,443.845479 C339.150444,445.775902 343.598684,447.057354 348.667231,447.385538 C348.940867,447.403255 349.14833,447.639444 349.130612,447.913081 C349.112895,448.186717 348.876706,448.39418 348.603069,448.376462 C343.39568,448.039289 338.817813,446.720494 334.888122,444.731452 C333.273279,443.914087 331.878372,443.037427 330.706212,442.159286 C330.294112,441.850555 329.938793,441.563133 329.640597,441.30422 L329.376205,441.068263 C329.33137,441.026822 329.295823,440.99294 329.269589,440.967078 C329.074313,440.774574 329.072067,440.460215 329.264572,440.264939 Z"/><path id="Stroke-129" fill="#DD936F" fill-rule="nonzero" d="M325.191776,445.405323 C325.341101,445.175339 325.648592,445.109951 325.878577,445.259276 C326.654681,445.763187 327.460317,446.231109 328.292707,446.664247 C331.319271,448.239133 334.566733,449.297502 337.814864,449.935028 C338.789309,450.126287 339.703656,450.267103 340.540535,450.365177 L340.952438,450.410688 C341.199844,450.436339 341.426089,450.456647 341.62972,450.47226 L342.078414,450.501067 C342.097179,450.501933 342.112788,450.502566 342.125188,450.502991 C342.399236,450.512373 342.613791,450.742139 342.604409,451.016188 C342.595027,451.290236 342.365261,451.504791 342.091212,451.495409 L341.759728,451.477134 L341.334522,451.444492 C341.182764,451.431433 341.021125,451.416132 340.850033,451.398393 C339.875531,451.297357 338.790965,451.138559 337.623612,450.909437 C334.288301,450.254799 330.95232,449.167581 327.834338,447.545125 C326.974199,447.097548 326.141076,446.613662 325.337823,446.092124 C325.107839,445.942799 325.042451,445.635308 325.191776,445.405323 Z"/><path id="Stroke-131" fill="#DD936F" fill-rule="nonzero" d="M319.180989,447.853411 C319.353379,447.640168 319.665996,447.60705 319.879239,447.779439 L319.975412,447.853005 C320.039446,447.900325 320.127511,447.963142 320.240097,448.040065 C320.559838,448.258527 320.952216,448.503296 321.419509,448.767937 C322.764304,449.529534 324.43599,450.293288 326.452907,451.007669 C328.604073,451.769601 331.023806,452.429069 333.723091,452.955222 C333.992235,453.007684 334.167891,453.268397 334.115428,453.537541 C334.062966,453.806685 333.802253,453.982341 333.533109,453.929878 C330.785876,453.39438 328.318826,452.722016 326.121373,451.94369 C324.049632,451.20989 322.325163,450.42202 320.930168,449.631994 C320.53686,449.409253 320.191954,449.198618 319.894301,449.003418 L319.679904,448.859963 C319.470129,448.716635 319.329231,448.611702 319.254961,448.551661 C319.041718,448.379271 319.0086,448.066654 319.180989,447.853411 Z"/><path id="Stroke-133" fill="#DD936F" fill-rule="nonzero" d="M304.024264,419.13492 C309.439362,418.180214 315.397725,417.770796 321.589142,418.215877 C326.519659,418.570242 332.196336,419.218185 336.559495,420.044458 L337.526506,420.234887 C339.878723,420.716966 341.737483,421.244302 343.021182,421.821657 C344.856662,422.647182 345.663406,423.676627 344.940602,424.859167 C343.872108,426.60606 341.642538,427.292528 337.407649,427.691282 L334.858633,427.904369 C331.015636,428.239007 329.632878,428.647145 329.490764,429.613355 C329.055563,432.571982 331.619103,435.061129 338.948572,439.294775 C340.003805,439.904905 341.155793,440.372423 342.657375,440.83673 L343.95876,441.217109 L344.944021,441.489651 C348.268464,442.407479 349.790503,443.015453 351.240575,444.267339 C354.7041,447.258605 351.632621,451.172375 344.720876,453.105009 C337.098424,455.236369 326.486891,454.804622 315.116034,451.287159 L314.283922,451.023512 L313.401852,450.721012 C312.556482,450.422813 311.615068,450.070584 310.601513,449.666051 C307.705245,448.510085 304.808641,447.165906 302.102212,445.646381 C301.806231,445.480203 301.513825,445.312587 301.225156,445.143544 C300.988533,445.004979 300.909041,444.700829 301.047606,444.464206 C301.186171,444.227583 301.490321,444.148091 301.726944,444.286656 C302.010374,444.452631 302.297564,444.617257 302.58835,444.780519 C305.253007,446.27659 308.111139,447.602916 310.969606,448.743795 C311.803441,449.076598 312.587467,449.373411 313.307761,449.633167 L314.503673,450.050104 L314.772863,450.138559 C326.210398,453.785027 336.883532,454.265368 344.453474,452.148691 C350.743101,450.39001 353.194243,447.266692 350.591594,445.01892 C349.340954,443.939209 347.973013,443.370475 345.039398,442.546937 L342.793372,441.915386 C341.0152,441.387943 339.681982,440.865866 338.451713,440.154531 L337.672962,439.700756 C330.567455,435.522035 328.003952,432.897796 328.508335,429.46885 C328.764514,427.727129 330.339927,427.279779 335.105635,426.886678 L336.93038,426.737557 L337.663493,426.668414 C341.338679,426.295368 343.282034,425.667704 344.093418,424.341163 C344.386295,423.862003 343.977768,423.340702 342.613871,422.727277 C341.246353,422.112223 339.11756,421.53954 336.37473,421.020117 C332.05537,420.202139 326.413619,419.558182 321.51795,419.206322 C315.414368,418.767555 309.536138,419.171467 304.196676,420.112838 L303.218658,420.292835 C302.426089,420.445002 301.690194,420.60204 301.015205,420.759806 L300.617554,420.85452 C300.254271,420.942703 299.936982,421.024461 299.66785,421.097671 L299.347321,421.18778 C299.08461,421.266354 298.807944,421.117082 298.72937,420.854371 C298.650796,420.59166 298.800068,420.314994 299.062779,420.23642 L299.4072,420.139491 L299.85985,420.02006 C300.022626,419.978313 300.197204,419.934719 300.383317,419.889542 L301.208335,419.696748 C302.062566,419.504535 303.003626,419.314863 304.024264,419.13492 Z"/><path id="Stroke-135" fill="#597EF7" fill-rule="nonzero" d="M243.497554,514.913441 C243.672329,514.673834 244.008252,514.621278 244.247859,514.796054 L245.128324,515.426206 L246.263524,516.222091 C246.664535,516.500598 247.087505,516.791716 247.530477,517.093638 C250.061824,518.81896 252.725956,520.544255 255.397306,522.15385 C257.133401,523.199916 258.816987,524.162785 260.428781,525.024839 C261.546258,525.622513 262.622071,526.167839 263.651156,526.65627 C263.825171,526.738862 263.94162,526.908329 263.956332,527.100387 L264.071772,528.679213 C264.10905,529.213503 264.145131,529.755692 264.180034,530.30543 C264.437957,534.367805 264.623469,538.686838 264.748365,543.03423 L264.792382,544.665386 C264.817113,545.644241 264.83778,546.58316 264.854774,547.474548 L264.891061,549.689893 L264.907479,551.193596 C264.909214,551.490168 264.670275,551.732065 264.373704,551.733979 C264.077132,551.735714 263.835235,551.496775 263.83341,551.200204 L263.813084,549.412165 L263.767559,546.819205 C263.753452,546.134877 263.737229,545.424909 263.718725,544.692512 C263.595377,539.810363 263.397389,534.928441 263.108192,530.373481 L263.000391,528.75416 L262.908,527.49 L262.558011,527.322059 C261.919966,527.01083 261.265799,526.679436 260.596527,526.328846 L259.922257,525.971893 C258.293341,525.10068 256.594048,524.128828 254.843021,523.073765 C252.152967,521.4529 249.47244,519.716988 246.925596,517.981104 L245.650599,517.10402 L243.994962,515.937688 L243.614941,515.663746 C243.375334,515.488971 243.322778,515.153048 243.497554,514.913441 Z"/></g></svg>