<svg xmlns="http://www.w3.org/2000/svg" xmlns:xlink="http://www.w3.org/1999/xlink" width="512" height="1024" version="1.1" viewBox="0 0 512 1024"><title>2.人物组件/8.程序员/站立/摸后脑勺</title><desc>Created with Sketch.</desc><defs><polygon id="path-1" points=".454 .143 68.142 .143 68.142 59 .454 59"/><polygon id="path-3" points=".373 .143 68.061 .143 68.061 59 .373 59"/><polygon id="path-5" points="1.462 1.19 124.653 1.19 124.653 51.311 1.462 51.311"/></defs><g id="2.人物组件/8.程序员/站立/摸后脑勺" fill="none" fill-rule="evenodd" stroke="none" stroke-width="1"><path id="Fill-1" fill="#FFC999" d="M217.51085,261.2656 L222.69335,222.6091 L257.51735,226.9846 L256.80485,264.2656 C256.59035,275.5261 247.00985,284.3236 235.77185,283.5811 C224.37485,282.8281 215.99285,272.5861 217.51085,261.2656"/><path id="Fill-3" fill="#FFC999" d="M266.18465,214.33195 C268.36865,212.29945 271.61915,211.86895 273.77315,214.45045 C277.24265,218.60995 273.09515,233.21395 263.16365,233.33395 C259.43015,232.62445 262.77665,217.50595 266.18465,214.33195"/><path id="Stroke-5" fill="#DD936F" fill-rule="nonzero" d="M270.47515,216.492865 C270.769481,216.456442 271.037611,216.665518 271.074035,216.95985 C271.106816,217.224748 270.940742,217.468423 270.692632,217.541062 L270.60705,217.558735 C270.525588,217.568816 270.348139,217.613915 270.106608,217.717297 C269.686151,217.897265 269.261642,218.182303 268.861015,218.597589 C268.137129,219.34796 267.575628,220.435313 267.249787,221.929636 C267.165319,222.31726 267.199557,222.414856 267.534277,222.627755 L267.76697,222.770142 C268.456603,223.192734 268.799479,223.633888 268.827792,224.462607 C268.871595,225.754802 268.305915,226.740535 267.359409,227.427096 C266.826655,227.813536 266.298138,228.029001 265.924771,228.121909 C265.636971,228.193524 265.345607,228.018272 265.273991,227.730471 C265.202376,227.442671 265.377628,227.151307 265.665429,227.079691 L265.757345,227.052596 C265.815935,227.033519 265.892504,227.005979 265.982689,226.969212 C266.237816,226.865202 266.493115,226.72868 266.728799,226.557724 C267.404876,226.067323 267.785112,225.404738 267.754413,224.499136 C267.742012,224.136147 267.641955,223.972708 267.321124,223.759238 L267.075925,223.607119 C266.298927,223.135552 265.993187,222.651923 266.200428,221.700894 C266.567635,220.01687 267.222015,218.749656 268.088063,217.85192 C268.957243,216.950939 269.845352,216.570802 270.47515,216.492865 Z"/><path id="Fill-7" fill="#FFC999" d="M215.10125,210.5227 C213.24275,208.1872 210.09125,207.2812 207.57875,209.5147 C203.53025,213.1132 205.46525,228.1702 215.26775,229.7632 C219.06725,229.6147 218.00225,214.1662 215.10125,210.5227"/><path id="Stroke-9" fill="#DD936F" fill-rule="nonzero" d="M210.557865,211.741949 C211.03696,211.875421 211.70612,212.251351 212.360731,212.989883 C213.285248,214.032925 213.882918,215.525938 214.014114,217.528334 C214.073968,218.446932 213.748431,218.876824 213.002073,219.221267 L212.698514,219.351487 C212.277067,219.532117 212.133015,219.673113 212.060816,220.063799 C211.887184,221.003726 212.206682,221.745146 212.868865,222.343829 C213.064413,222.520625 213.275628,222.670276 213.486327,222.792087 L213.645838,222.879129 C213.689746,222.901479 213.723704,222.917181 213.745643,222.926289 C214.019555,223.040001 214.149422,223.354232 214.035711,223.628143 C213.921999,223.902055 213.607768,224.031922 213.333857,223.918211 C213.024183,223.789653 212.587116,223.536971 212.148591,223.140498 C211.230102,222.310087 210.756648,221.211403 211.004691,219.868663 C211.141431,219.128742 211.495145,218.735906 212.114913,218.437196 L212.433667,218.297932 C212.9123,218.098255 212.970669,218.032228 212.942399,217.598359 C212.826457,215.828778 212.319611,214.562647 211.557007,213.702277 C211.260147,213.367359 210.945151,213.11903 210.63358,212.943991 C210.526882,212.884049 210.437675,212.841462 210.371096,212.813562 L210.269635,212.776551 C209.983938,212.696958 209.816857,212.400832 209.896449,212.115135 C209.967198,211.861182 210.209035,211.70095 210.462558,211.724379 L210.557865,211.741949 Z"/><path id="Fill-11" fill="#FFC999" d="M266.4908,218.3251 C264.5003,245.0326 253.4153,255.4666 237.6923,254.2936 C223.1618,253.2091 212.6828,239.4406 214.0478,213.5671 C215.0888,193.8271 220.9688,179.9566 243.4313,181.6336 C267.0173,183.3916 267.9608,198.6136 266.4908,218.3251"/><path id="Stroke-13" fill="#DD936F" fill-rule="nonzero" d="M224.889663,248.855407 C225.080253,248.628177 225.418962,248.598474 225.646193,248.789063 C228.958324,251.567114 233.846454,253.326967 238.796061,253.695989 C244.02276,254.086019 247.917127,253.211801 251.952272,250.766259 C252.205904,250.612542 252.536125,250.69354 252.689841,250.947172 C252.843558,251.200804 252.76256,251.531025 252.508928,251.684741 C248.277821,254.249049 244.160608,255.173292 238.716174,254.767014 C233.555203,254.382233 228.453562,252.545511 224.956007,249.611937 C224.728777,249.421347 224.699074,249.082638 224.889663,248.855407 Z"/><path id="Fill-15" fill="#253368" d="M218.73395,204.6919 C216.38795,207.5809 215.20295,212.4739 214.64795,215.7079 C214.57145,216.1549 213.92195,216.1294 213.88295,215.6764 C213.43295,210.5719 213.02195,198.0844 215.16245,191.0629 C218.52545,180.0199 232.66295,171.8284 240.69695,172.0039 C243.96545,172.0744 249.56345,172.7359 255.08195,178.2289 C260.84945,183.9709 264.57545,183.6559 268.20095,191.6299 C270.66995,197.0644 267.96995,211.7314 266.66195,218.7169 C266.56145,219.2509 265.78295,219.2104 265.74245,218.6689 C265.49645,215.3719 264.84545,210.8194 263.13695,208.4269 C262.92545,204.0559 262.37945,195.8554 262.37945,195.8554 C252.86495,192.8164 231.33845,191.8459 220.08995,193.1254 L218.73395,204.6919 Z"/><path id="Stroke-17" fill="#253368" fill-rule="nonzero" d="M247.296769,206.074394 C250.824308,205.45308 254.860317,205.367641 259.15121,206.158869 C259.965902,206.309096 260.504558,207.091318 260.354331,207.90601 C260.204104,208.720702 259.421882,209.259358 258.60719,209.109131 C254.696243,208.387963 251.013575,208.465923 247.817156,209.028915 C247.390101,209.104134 247.003634,209.183255 246.660683,209.26268 L246.282476,209.354726 L245.963904,209.441873 C245.17255,209.686925 244.332378,209.244059 244.087327,208.452704 C243.842275,207.66135 244.285141,206.821178 245.076496,206.576127 L245.341731,206.498935 C245.787505,206.376122 246.44715,206.224039 247.296769,206.074394 Z"/><path id="Stroke-19" fill="#DD936F" fill-rule="nonzero" d="M235.422841,207.351689 C235.66136,207.239411 235.940642,207.317904 236.088473,207.525192 L236.137411,207.608841 L238.513411,212.656341 C238.540351,212.713572 238.556862,212.77488 238.562432,212.837399 L238.562517,212.931729 L237.147,229.152 L241.661515,229.502153 C241.927638,229.522764 242.133374,229.734024 242.155165,229.991629 L242.155447,230.079015 C242.134836,230.345138 241.923576,230.550874 241.665971,230.572665 L241.578585,230.572947 L236.523585,230.181447 C236.255627,230.160694 236.049231,229.946783 236.029554,229.687337 L236.030083,229.599371 L237.479,212.982 L235.165689,208.066259 C235.053411,207.82774 235.131904,207.548458 235.339192,207.400627 L235.422841,207.351689 Z"/><path id="Stroke-21" fill="#253368" fill-rule="nonzero" d="M221.615325,203.332311 C222.907786,203.207812 224.4063,203.275961 226.079452,203.502688 C227.471826,203.691367 228.943386,203.984284 230.447114,204.353135 C231.209192,204.540067 231.94318,204.737545 232.634113,204.937278 L233.561533,205.214483 L234.227786,205.427482 C235.012814,205.692102 235.434687,206.543009 235.170068,207.328036 C234.905448,208.113064 234.054541,208.534937 233.269514,208.270318 L232.610487,208.060485 L232.282756,207.961086 C231.493355,207.724503 230.632895,207.487639 229.732426,207.266762 C228.324637,206.921444 226.953999,206.648616 225.676607,206.475518 C224.213862,206.277302 222.934534,206.219122 221.902975,206.318489 C221.078365,206.397921 220.345494,205.793835 220.266061,204.969225 C220.186629,204.144615 220.790715,203.411744 221.615325,203.332311 Z"/><path id="Stroke-23" fill="#393C68" fill-rule="nonzero" d="M235.500897,212.679365 L244.767897,213.369365 C245.359413,213.413408 245.803228,213.92863 245.759185,214.520147 C245.718078,215.072229 245.266522,215.495646 244.725572,215.51384 L244.608403,215.511435 L235.341403,214.821435 C234.749887,214.777392 234.306072,214.26217 234.350115,213.670653 C234.391222,213.118571 234.842778,212.695154 235.383728,212.67696 L235.500897,212.679365 Z"/><path id="Stroke-25" fill="#393C68" fill-rule="nonzero" d="M235.964148,217.062031 C238.339729,216.08769 240.659967,216.270785 242.730603,217.158491 C243.383861,217.43855 243.866536,217.724749 244.151377,217.93366 C244.629678,218.284458 244.733039,218.956576 244.38224,219.434877 C244.031442,219.913178 243.359324,220.016539 242.881023,219.66574 C242.719945,219.547602 242.375269,219.343228 241.884231,219.132714 C240.303074,218.454853 238.563462,218.317577 236.779252,219.049369 C236.230464,219.274453 235.603116,219.01204 235.378031,218.463252 C235.152947,217.914464 235.41536,217.287116 235.964148,217.062031 Z"/><path id="Fill-27" fill="#FFF" d="M234.79745,211.9054 L218.60045,210.4429 C217.46945,210.3409 216.47045,211.1719 216.37745,212.3029 C216.20195,214.4134 216.01445,217.8079 216.30095,220.7524 C216.63995,224.2264 219.52145,226.5949 222.98045,227.0689 C227.30045,227.6614 231.19445,228.0169 233.36495,225.9439 C236.67395,222.7849 236.45045,217.0714 236.65595,214.0759 C236.73095,212.9749 235.89395,212.0044 234.79745,211.9054"/><path id="Stroke-29" fill="#253368" fill-rule="nonzero" d="M234.829619,211.549099 L218.632622,210.0866 L218.465,210.077 L218.316845,210.078525 C217.12168,210.125534 216.12135,211.052019 216.020903,212.273582 C215.767405,215.322059 215.701375,218.28441 215.944882,220.787045 C216.287705,224.300228 219.156247,226.905948 222.93188,227.423338 L224.098858,227.575598 C229.223609,228.205902 231.776667,227.955538 233.61204,226.202611 C235.120661,224.762378 236.017737,222.758792 236.489201,220.218355 L236.562105,219.809021 C236.720719,218.875717 236.802208,218.065805 236.876542,216.764471 L237.004823,214.222 C237.007446,214.180781 237.010116,214.140397 237.012861,214.100385 C237.10097,212.806941 236.121641,211.665752 234.829619,211.549099 Z M218.421638,210.792171 L218.547,210.798 L234.765278,212.2617 C235.670758,212.343454 236.360624,213.147339 236.299027,214.051586 L236.25083,214.926311 L236.194076,216.128671 C236.100736,217.971935 236.012779,218.864284 235.785713,220.087799 C235.339282,222.493349 234.501682,224.364096 233.117916,225.685136 C231.373874,227.350833 228.714035,227.494178 223.029061,226.714468 C219.563852,226.239617 216.965535,223.879364 216.657009,220.717655 C216.418518,218.266565 216.483701,215.342181 216.733969,212.332547 C216.80649,211.450608 217.548322,210.787804 218.421638,210.792171 Z"/><path id="Stroke-31" fill="#393C68" fill-rule="nonzero" d="M216.489566,209.817635 L236.613566,211.103135 C237.205514,211.140948 237.654728,211.651469 237.616915,212.243416 C237.581623,212.795901 237.134549,213.224049 236.593821,213.247936 L236.476634,213.246765 L216.352634,211.961265 C215.760686,211.923452 215.311472,211.412931 215.349285,210.820984 C215.384577,210.268499 215.831651,209.840351 216.372379,209.816464 L216.489566,209.817635 Z"/><path id="Stroke-33" fill="#755654" fill-rule="nonzero" d="M227.81132,214.547199 C229.51574,214.674979 230.677723,216.463148 230.528169,218.466435 C230.497332,218.8795 230.137479,219.189356 229.724415,219.158519 C229.31135,219.127682 229.001494,218.767829 229.032331,218.354765 C229.125828,217.102369 228.47524,216.101182 227.699247,216.043006 C226.922274,215.984827 226.129193,216.879165 226.035669,218.131935 C226.004832,218.545 225.644979,218.854856 225.231915,218.824019 C224.81885,218.793182 224.508994,218.433329 224.539831,218.020265 C224.684446,216.083146 226.012512,214.52638 227.641741,214.540126 L227.81132,214.547199 Z"/><path id="Fill-35" fill="#FFF" d="M262.31315,213.9577 L246.11615,212.4952 C244.98515,212.3932 243.98615,213.2227 243.89315,214.3552 C243.71765,216.4657 243.53165,219.8602 243.81815,222.8047 C244.15715,226.2787 247.03865,228.6472 250.49765,229.1212 C254.81765,229.7137 258.71015,230.0692 260.88215,227.9962 C264.19115,224.8372 263.96765,219.1237 264.17165,216.1282 C264.24815,215.0272 263.41115,214.0567 262.31315,213.9577"/><path id="Stroke-37" fill="#253368" fill-rule="nonzero" d="M262.345276,213.601395 L246.148322,212.1389 L245.98,212.129 L245.832438,212.130798 C244.636928,212.177651 243.636991,213.103424 243.5366,214.32592 C243.283858,217.365309 243.218415,220.335064 243.462082,222.839345 C243.804905,226.352528 246.673447,228.958248 250.44908,229.475638 L251.236418,229.580211 C256.615478,230.269488 259.247792,230.050603 261.129151,228.254997 C262.637911,226.81463 263.535003,224.810911 264.006236,222.270628 L264.079172,221.860873 C264.249186,220.859775 264.330557,219.999812 264.409089,218.526527 L264.512944,216.399935 C264.518005,216.313523 264.523141,216.23228 264.528573,216.152507 C264.618419,214.859436 263.638907,213.718034 262.345276,213.601395 Z M245.937254,212.844453 L246.097059,212.85244 L262.280978,214.314 C263.187891,214.395771 263.87757,215.199437 263.81476,216.103402 L263.775353,216.799784 L263.695233,218.476159 C263.607669,220.121406 263.517288,220.983545 263.302738,222.140127 C262.856531,224.545502 262.018924,226.416357 260.635116,227.737436 C258.88984,229.403161 256.23111,229.546461 250.546261,228.766768 C247.081052,228.291917 244.482735,225.931664 244.174209,222.769955 C243.935549,220.317132 244.000153,217.385442 244.249669,214.384847 C244.322165,213.502043 245.063483,212.839964 245.937254,212.844453 Z"/><path id="Stroke-39" fill="#755654" fill-rule="nonzero" d="M252.79997,216.410499 C254.504176,216.538263 255.66604,218.325928 255.518373,220.330499 C255.487943,220.743594 255.128395,221.053804 254.715301,221.023373 C254.302206,220.992943 253.991996,220.633395 254.022427,220.220301 C254.114827,218.965964 253.463933,217.964485 252.687897,217.906306 C251.911368,217.84816 251.119377,218.742023 251.025819,219.995235 C250.994982,220.4083 250.635129,220.718156 250.222065,220.687319 C249.809,220.656482 249.499144,220.296629 249.529981,219.883565 C249.674615,217.946191 251.001347,216.389669 252.630404,216.403426 L252.79997,216.410499 Z"/><path id="Stroke-41" fill="#393C68" fill-rule="nonzero" d="M244.005116,211.869935 L264.129116,213.155435 C264.721064,213.193248 265.170278,213.703769 265.132465,214.295716 C265.097173,214.848201 264.650099,215.276349 264.109371,215.300236 L263.992184,215.299065 L243.868184,214.013565 C243.276236,213.975752 242.827022,213.465231 242.864835,212.873284 C242.900127,212.320799 243.347201,211.892651 243.887929,211.868764 L244.005116,211.869935 Z"/><path id="Fill-43" fill="#FFF" d="M247.3424,233.74555 C239.1344,233.87905 231.6194,232.57255 231.6194,232.57255 C231.6194,232.57255 233.1314,237.68905 239.2394,238.14505 C245.3474,238.59955 247.3424,233.74555 247.3424,233.74555"/><path id="Stroke-45" fill="#FF7A46" fill-rule="nonzero" d="M230.900148,232.785099 C231.136552,233.585074 231.709721,234.733331 232.747959,235.878704 C234.293487,237.583712 236.420441,238.686684 239.183563,238.892969 C242.179825,239.115922 244.530878,238.184888 246.268525,236.498532 C247.207207,235.587558 247.772431,234.672175 248.036095,234.030659 C248.240942,233.53225 247.868996,232.986886 247.330203,232.995649 C243.625809,233.0559 239.789214,232.830802 236.069335,232.418405 C234.911568,232.290051 233.851266,232.15258 232.911491,232.015213 L231.747862,231.833634 C231.199914,231.738371 230.742531,232.251733 230.900148,232.785099 Z M232.988287,233.710844 L232.88,233.526 L233.690463,233.638864 C234.380176,233.731331 235.120295,233.822381 235.904053,233.909271 L237.040907,234.02913 C239.700789,234.295022 242.407267,234.462823 245.077092,234.498274 L246.02,234.504 L245.948466,234.604974 C245.73642,234.883941 245.495251,235.158734 245.223871,235.422104 C243.783324,236.820129 241.846826,237.586997 239.295054,237.397118 C236.929178,237.22049 235.154632,236.300266 233.859322,234.871294 C233.521351,234.498449 233.232094,234.107434 232.988287,233.710844 Z"/><path id="Stroke-47" fill="#DD936F" fill-rule="nonzero" d="M235.682476,240.643677 C235.828816,240.385719 236.156565,240.295235 236.414523,240.441576 L236.595075,240.535334 L236.689355,240.580976 C236.921738,240.691579 237.185205,240.802665 237.47351,240.906457 C238.659385,241.333381 239.867509,241.504355 240.971011,241.280593 C241.361287,241.201455 241.731157,241.073334 242.078972,240.892627 C242.342149,240.755893 242.66634,240.858396 242.803073,241.121572 C242.939807,241.384749 242.837304,241.70894 242.574128,241.845673 C242.135444,242.073591 241.670728,242.234566 241.184447,242.333171 C239.858747,242.601989 238.46439,242.40466 237.109719,241.916968 C236.5544,241.717049 236.131117,241.515587 235.884577,241.375724 C235.626619,241.229384 235.536135,240.901635 235.682476,240.643677 Z"/><g id="分组" transform="translate(276.000000, 791.858000)"><mask id="mask-2" fill="#fff"><use xlink:href="#path-1"/></mask><path id="Fill-49" fill="#394676" d="M39.0197,56.13605 C58.2437,64.24055 68.1092,52.57055 68.1092,52.57055 C68.1092,52.57055 68.6552,48.48755 65.2907,43.92305 C61.0817,38.21105 51.7052,36.17855 40.5917,25.24805 C32.0522,16.85105 26.4212,3.78305 26.4212,3.78305 C20.2517,-5.31895 0.5867,5.51855 0.5867,5.51855 C0.5867,5.51855 0.2507,24.32855 0.6482,35.08955 C0.6482,35.08955 1.3607,41.01455 16.1117,43.13405 C27.1472,44.71955 27.5057,51.28205 39.0197,56.13605" mask="url(#mask-2)"/></g><g id="分组" transform="translate(146.000000, 791.858000)"><mask id="mask-4" fill="#fff"><use xlink:href="#path-3"/></mask><path id="Fill-51" fill="#394676" d="M29.4963,56.13605 C10.2723,64.24055 0.4053,52.57055 0.4053,52.57055 C0.4053,52.57055 -0.1392,48.48755 3.2238,43.92305 C7.4343,38.21105 16.8093,36.17855 27.9243,25.24805 C36.4623,16.85105 42.0948,3.78305 42.0948,3.78305 C48.2643,-5.31895 67.9293,5.51855 67.9293,5.51855 C67.9293,5.51855 68.2638,24.32855 67.8663,35.08955 C67.8663,35.08955 67.1553,41.01455 52.4043,43.13405 C41.3673,44.71955 41.0088,51.28205 29.4963,56.13605" mask="url(#mask-4)"/></g><g id="分组" transform="translate(261.500000, 256.858000)"><mask id="mask-6" fill="#fff"><use xlink:href="#path-5"/></mask><path id="Fill-53" fill="#FFC999" d="M124.52505,18.09945 L124.52505,18.09945 C125.68905,28.26495 118.79355,37.47645 108.93555,38.92245 L25.93155,51.08895 C14.03805,52.83195 3.01455,44.10945 1.61055,31.84245 C0.20355,19.57395 8.97405,8.63895 20.96055,7.71195 L104.61855,1.24395 C114.55455,0.47595 123.35955,7.93395 124.52505,18.09945" mask="url(#mask-6)"/></g><path id="Fill-55" fill="#597EF7" d="M348.71345,302.9287 L289.77665,310.7626 C276.78065,312.6751 264.78365,303.4411 263.30615,290.3881 C261.82865,277.3351 262.95095,265.573663 276.04595,264.531163 L342.96665,259.9966 L348.71345,302.9287 Z"/><path id="Fill-57" fill="#597EF7" d="M278.0309,394.38685 L294.5744,273.02635 C292.0634,270.46585 282.9809,264.26335 262.6559,265.97035 C255.8999,266.53735 240.1319,274.93135 233.0309,275.07835 C228.2279,275.17735 213.5639,265.50385 209.5979,266.37535 C186.5099,271.44235 179.7524,274.82185 167.3654,278.76235 L187.9559,390.47185 C187.9559,390.47185 181.6664,411.42685 193.4879,411.74635 C284.6804,414.20185 272.5019,413.02885 272.5019,413.02885 C272.5019,413.02885 283.7369,410.79535 278.0309,394.38685"/><polygon id="Fill-59" fill="#597EF7" points="217.378 259.53 208.472 266.375 219.734 286.647 234.221 273.762"/><path id="Stroke-61" fill="#1D39C4" fill-rule="nonzero" d="M208.100646,266.286968 C208.430314,266.098586 208.842752,266.188022 209.067495,266.481081 L209.123932,266.566046 L219.929,285.475 L233.727514,273.321848 C234.010084,273.072951 234.427444,273.075139 234.706693,273.311122 L234.786052,273.388914 C235.034949,273.671484 235.032761,274.088844 234.796778,274.368093 L234.718986,274.447452 L220.230486,287.209452 C219.901467,287.499263 219.403414,287.442954 219.143381,287.108203 L219.083568,287.018754 L207.821568,267.310254 C207.61606,266.950616 207.741008,266.492475 208.100646,266.286968 Z"/><polygon id="Fill-63" fill="#597EF7" points="256.854 259.53 263.241 267.077 250.143 287.774 233.914 273.755"/><path id="Stroke-65" fill="#1D39C4" fill-rule="nonzero" d="M261.904375,269.342141 C262.131646,268.995844 262.596613,268.899355 262.942909,269.126625 C263.257724,269.333235 263.366087,269.736288 263.212436,270.06804 L263.158425,270.165159 L251.332425,288.184659 C251.107648,288.527156 250.655752,288.620919 250.316751,288.414753 L250.227351,288.351051 L234.625,275.445 L232.209421,394.966108 L232.106836,395.708346 L232.013915,396.453127 C231.967774,396.840368 231.922364,397.249023 231.878815,397.675213 C231.686741,399.554943 231.565507,401.426114 231.549318,403.168075 C231.517649,406.575647 231.902049,409.081178 232.723368,410.176107 C232.97192,410.507461 232.904796,410.977566 232.573443,411.226118 C232.242089,411.47467 231.771984,411.407546 231.523432,411.076193 C230.434679,409.624736 230.014689,406.887229 230.049383,403.154135 C230.066051,401.360572 230.190157,399.445069 230.386585,397.522734 L230.477679,396.677756 C230.508668,396.404761 230.540171,396.140807 230.571852,395.887024 L230.703733,394.91188 C230.706799,394.893448 230.709543,394.87797 230.711939,394.86567 L230.718052,394.838532 L233.157052,273.862032 C233.168999,273.269456 233.822312,272.937406 234.302224,273.239315 L234.384949,273.299249 L250.537,286.661 L261.904375,269.342141 Z"/><path id="Fill-67" fill="#FFF" d="M237.755,291.7153 C237.5735,293.0383 238.322,294.2338 239.4245,294.3838 C240.5285,294.5338 241.5695,293.5828 241.7495,292.2598 C241.9295,290.9353 241.181,289.7413 240.0785,289.5898 C238.9745,289.4398 237.935,290.3908 237.755,291.7153"/><path id="Fill-69" fill="#FFF" d="M237.446,314.5258 C237.266,315.8503 238.0145,317.0443 239.117,317.1943 C240.221,317.3443 241.2605,316.3948 241.4405,315.0703 C241.622,313.7458 240.8735,312.5518 239.771,312.4003 C238.667,312.2503 237.626,313.2028 237.446,314.5258"/><path id="Fill-71" fill="#FFF" d="M236.3195,339.68665 C236.1395,341.01115 236.888,342.20515 237.9905,342.35515 C239.0945,342.50515 240.134,341.55565 240.3155,340.23115 C240.4955,338.90665 239.747,337.71265 238.6445,337.56115 C237.5405,337.41115 236.501,338.36365 236.3195,339.68665"/><path id="Fill-73" fill="#FFF" d="M235.4303,390.133 C235.2503,391.4575 235.9988,392.6515 237.1013,392.8015 C238.2053,392.953 239.2448,392.002 239.4248,390.6775 C239.6048,389.353 238.8578,388.159 237.7553,388.0075 C236.6513,387.8575 235.6103,388.81 235.4303,390.133"/><path id="Fill-75" fill="#FFF" d="M235.1945,361.83295 C235.0145,363.15595 235.7615,364.35145 236.864,364.50145 C237.968,364.65145 239.009,363.70045 239.189,362.37745 C239.369,361.05295 238.6205,359.85895 237.518,359.70745 C236.414,359.55745 235.3745,360.50995 235.1945,361.83295"/><path id="Stroke-77" fill="#1D39C4" fill-rule="nonzero" d="M281.933556,307.430433 L254.156556,306.737196 C253.753017,306.727366 253.413896,307.038496 253.389249,307.441407 L252.072249,328.970907 C252.056644,329.226007 252.172019,329.471494 252.37838,329.622274 L267.01988,340.320274 C267.295539,340.521688 267.672444,340.511517 267.936839,340.295527 L279.497339,330.851527 C279.645405,330.730569 279.741686,330.55763 279.766504,330.368056 L282.658504,308.277556 C282.716319,307.835942 282.378799,307.441542 281.933556,307.430433 Z M254.842,308.254 L281.063,308.908 L278.318,329.877 L267.435,338.767 L253.594,328.653 L254.842,308.254 Z"/><polygon id="Fill-79" fill="#ADC6FF" points="278.267 421.682 187.647 420.742 189.434 410.087 277.055 410.947"/><path id="Fill-81" fill="#ADC6FF" d="M188.38535,417.7615 C188.38535,417.7615 176.31635,444.7855 177.55985,479.8045 C192.91835,489.9355 223.78085,495.7135 223.78085,495.7135 C226.08185,496.9075 239.86385,496.294 242.19635,495.2815 C242.19635,495.2815 284.23835,482.4595 288.21335,476.089 C285.95585,443.074 278.12135,420.178 278.12135,420.178"/><path id="Fill-83" fill="#FFF" d="M236.76485,414.68305 C236.58485,416.00755 237.33185,417.20155 238.43585,417.35305 C239.53985,417.50305 240.57935,416.55205 240.75935,415.22755 C240.93935,413.90305 240.19085,412.70905 239.08835,412.55755 C237.98435,412.40755 236.94485,413.36005 236.76485,414.68305"/><path id="Fill-85" fill="#FFC999" d="M163.29695,411.8464 L163.29695,411.8464 C152.47895,410.6239 144.57995,401.0434 145.44395,390.1909 L152.70395,298.8019 C153.74345,285.7069 165.42395,276.0769 178.47695,277.5529 C191.52995,279.0289 200.76545,291.0229 198.85595,304.0189 L185.53295,394.7224 C183.95195,405.4939 174.11345,413.0689 163.29695,411.8464"/><path id="Fill-87" fill="#597EF7" d="M200.218009,304.992056 C202.129009,291.994556 191.5298,278.46505 178.4768,276.99055 C165.4238,275.51455 153.7433,285.14455 152.7038,298.23955 L147.2333,360.55705 C147.2333,360.55705 189.3458,363.18655 190.7438,363.18655 L200.218009,304.992056 Z"/><path id="Fill-89" fill="#ADC6FF" d="M202.8551,638.464502 L202.8551,638.464502 C189.8786,638.4118 179.2901,628.0588 178.9481,615.0853 L177.6041,468.4378 C177.4631,453.1108 190.0541,440.7178 205.3781,441.1018 C220.4231,441.4783 232.2776,454.0438 231.7811,469.0858 L226.9421,615.4588 C226.4021,628.3543 215.7626,638.5168 202.8551,638.464502"/><path id="Fill-91" fill="#ADC6FF" d="M216.46205,799.2808 L226.00355,621.0808 C226.75655,607.3783 215.78255,595.8883 202.05905,596.010322 C188.80955,596.1298 178.21655,607.0603 178.51055,620.3068 L182.05055,798.9823 C182.05055,798.9823 195.77405,806.9908 216.46205,799.2808"/><path id="Fill-93" fill="#ADC6FF" d="M278.30045,646.5019 L278.30045,646.5019 C291.22595,645.3304 300.87995,634.0999 300.09995,621.1459 L288.78395,474.9304 C287.60195,459.6484 273.98945,448.3879 258.75695,450.0934 C243.79895,451.7659 233.07245,465.3079 234.86645,480.2509 L252.32045,625.6594 C253.96895,638.4619 265.44695,647.6674 278.30045,646.5019"/><path id="Fill-95" fill="#ADC6FF" d="M276.4826,804.77395 L252.7751,631.00795 C250.8431,617.42095 260.7851,605.02645 274.4666,603.96445 C287.6771,602.93845 299.1761,612.91345 300.0236,626.13745 L309.2411,801.46495 C309.2411,801.46495 297.7586,810.66895 276.4826,804.77395"/><path id="Fill-97" fill="#FFC999" d="M302.2433,217.45135 L283.2263,204.71335 C283.2263,204.71335 274.2068,182.20435 269.6528,178.70185 C265.0988,175.20085 259.1663,175.88485 254.1563,173.63785 C249.1478,171.39085 250.2668,176.91385 256.5203,180.03985 C262.7738,183.16435 265.3178,182.81035 266.8358,189.18985 C268.3538,195.56785 266.0513,218.31985 275.2373,222.36985 C278.5133,225.38185 281.0873,227.68135 283.1018,229.43485 C287.4998,233.26135 294.3173,232.67635 297.7823,227.99035 C297.8678,227.87785 297.9518,227.76385 298.0343,227.64685 C301.6088,222.66235 307.6778,220.29685 302.2433,217.45135"/><path id="Stroke-99" fill="#DD936F" fill-rule="nonzero" d="M249.931457,174.483215 C249.298038,172.312936 251.022879,171.452207 253.708883,172.658053 C253.979445,172.779519 254.100312,173.09732 253.978847,173.367883 C253.857381,173.638445 253.53958,173.759312 253.269017,173.637847 C251.298019,172.752993 250.640976,173.08087 250.962443,174.18231 C251.409885,175.715378 253.363879,177.704607 256.091558,179.06812 L256.559349,179.296061 C258.131111,180.047612 261.067375,181.344469 261.291095,181.451982 C264.339809,182.9171 265.658691,184.469624 266.608024,188.236014 L266.690864,188.574142 C266.928887,189.574449 267.112918,190.927927 267.326082,193.103935 L267.879349,199.145977 L268.007097,200.428258 C268.178337,202.089682 268.354901,203.568692 268.557078,204.994007 L268.703489,205.985004 C270.056584,214.780775 272.372944,220.244909 276.262616,221.9601 C276.533981,222.079761 276.656961,222.396751 276.5373,222.668116 C276.417639,222.939481 276.100649,223.062461 275.829284,222.9428 C271.32253,220.9555 268.874961,214.882363 267.493722,205.144841 C267.289507,203.705157 267.111436,202.213626 266.93895,200.540256 L266.670829,197.746025 L266.328976,193.960171 C266.088541,191.383727 265.894824,189.868309 265.64607,188.822902 C264.792219,185.238918 263.74055,183.872267 261.080071,182.544439 L260.737527,182.37933 C260.130149,182.103758 256.901354,180.673632 255.611342,180.02878 C252.638003,178.542468 250.472885,176.338306 249.931457,174.483215 Z"/><path id="Stroke-101" fill="#1D39C4" fill-rule="nonzero" d="M291.406865,298.95134 C291.818405,298.99832 292.11394,299.370024 292.06696,299.781565 L291.717004,302.783813 L291.425651,305.142515 C290.601646,311.369642 284.785287,351.868629 279.755893,387.515038 L278.803,394.271 L278.894228,394.468007 C281.010049,399.180825 280.825266,403.898469 279.206525,408.218097 L279.064285,408.587367 C278.76574,409.341916 278.445362,410.018888 278.123877,410.609387 L277.966393,410.891811 C277.844211,411.105393 277.745663,411.264107 277.678239,411.364669 C277.447567,411.708708 276.981671,411.800611 276.637631,411.569939 C276.293592,411.339267 276.201689,410.873371 276.432361,410.529331 L276.55432,410.335069 C276.622268,410.222008 276.707588,410.073768 276.806466,409.89215 C277.099788,409.353381 277.394217,408.73124 277.669492,408.035503 C279.325513,403.850035 279.529093,399.270628 277.353382,394.709928 C277.289972,394.577008 277.267097,394.42836 277.287612,394.282525 L289.296257,309.601875 C289.67082,306.928564 289.916578,305.141955 290.002149,304.454506 L290.338457,301.670354 C290.413713,301.02982 290.492182,300.351273 290.57664,299.611435 C290.619705,299.23419 290.935628,298.954421 291.304974,298.946599 L291.406865,298.95134 Z"/><path id="Fill-103" fill="#4E5C93" d="M238.23995,609.22165 L133.46045,606.40015 C130.68545,606.32515 128.49395,604.01365 128.56895,601.23565 L130.54895,527.69965 C130.62395,524.92315 132.93545,522.73165 135.71195,522.80665 L240.49145,525.62815 C243.26795,525.70315 245.45795,528.01465 245.38445,530.79265 L243.40295,604.32865 C243.32945,607.10515 241.01795,609.29665 238.23995,609.22165"/><path id="Fill-105" fill="#253368" d="M234.67295,609.12565 L129.89345,606.30415 C127.11845,606.22915 124.92695,603.91765 125.00195,601.13965 L126.98195,527.60365 C127.05695,524.82715 129.36845,522.63565 132.14495,522.71065 L236.92445,525.53215 C239.70245,525.60715 241.89095,527.91865 241.81745,530.69665 L239.83595,604.23265 C239.76245,607.00915 237.45095,609.20065 234.67295,609.12565"/><path id="Fill-107" fill="#FFC999" d="M185.9039,524.5786 C182.5709,525.6796 183.3539,528.6301 182.9234,535.9261 C182.6534,540.4846 183.7664,546.4306 182.5679,550.1866 C181.3334,554.0611 163.5104,556.0426 159.4814,530.4781 C159.4814,530.4781 155.4689,500.7331 163.7894,494.9401 C171.3254,489.6946 184.2569,500.0701 184.2569,500.0701 C184.2569,500.0701 186.7019,503.3611 191.5784,512.4571 L196.2719,524.1556 L185.9039,524.5786 Z"/><path id="Stroke-109" fill="#607491" fill-rule="nonzero" d="M176.494476,525.678308 C176.759547,525.67476 176.977418,525.886655 176.981104,526.151726 L176.988753,526.51321 C176.996176,526.810243 177.006903,527.155089 177.021541,527.543754 C177.0634,528.655236 177.12817,529.894157 177.220688,531.228537 C177.484947,535.039913 177.918151,538.850736 178.558414,542.403961 C179.030001,545.021102 179.598037,547.39813 180.269917,549.478373 C180.351394,549.730638 180.212942,550.00119 179.960677,550.082667 C179.708412,550.164144 179.43786,550.025692 179.356383,549.773427 C178.670099,547.648584 178.092336,545.230849 177.613629,542.574204 C176.966479,538.982755 176.529483,535.138571 176.262987,531.294939 L176.189794,530.166423 C176.145409,529.430728 176.109697,528.72932 176.081744,528.068136 L176.04291,527.024125 L176.021196,526.165074 C176.01751,525.900003 176.229405,525.682132 176.494476,525.678308 Z"/><path id="Stroke-111" fill="#607491" fill-rule="nonzero" d="M170.82592,527.215898 C171.091016,527.215497 171.306246,527.430073 171.306649,527.69517 C171.309747,529.731199 171.477816,532.032798 171.790665,534.55072 C172.126327,537.252248 172.618422,540.126393 173.225773,543.077211 C173.586244,544.828561 173.968822,546.518059 174.354521,548.101847 L174.547543,548.884728 C174.705182,549.516298 174.851515,550.083391 174.982774,550.577316 L175.146957,551.184279 C175.218269,551.439604 175.069096,551.704395 174.813771,551.775707 C174.558446,551.847019 174.293655,551.697846 174.222343,551.442521 L174.054976,550.823875 L173.710037,549.49122 L173.616118,549.11721 C173.162469,547.299694 172.708881,545.327824 172.285483,543.270745 C171.67334,540.296644 171.177066,537.39809 170.83799,534.669089 C170.520647,532.115 170.349814,529.77553 170.346648,527.69663 C170.346247,527.431534 170.560823,527.216304 170.82592,527.215898 Z"/><path id="Stroke-113" fill="#607491" fill-rule="nonzero" d="M164.507972,528.310295 C164.772077,528.287388 165.004747,528.482917 165.027655,528.747022 L165.117794,529.638114 C165.13771,529.820783 165.159703,530.015965 165.183843,530.223185 C165.321945,531.408668 165.501056,532.741265 165.725603,534.190571 C166.367179,538.331527 167.243605,542.575591 168.389754,546.678867 C168.461072,546.93419 168.311906,547.198985 168.056583,547.270304 C167.80126,547.341622 167.536465,547.192456 167.465146,546.937133 C166.307857,542.793972 165.423939,538.513629 164.776922,534.337554 L164.593912,533.1141 C164.479234,532.318529 164.379075,531.564032 164.292598,530.856254 L164.1634,529.741708 L164.071245,528.829978 C164.048338,528.565873 164.243867,528.333203 164.507972,528.310295 Z"/><path id="Fill-115" fill="#FFC999" d="M184.0832,500.38015 L160.0442,502.32115 L145.8512,396.41965 C144.4847,385.05415 152.8907,374.85115 164.3072,374.01865 C175.7252,373.18615 185.5232,382.06315 185.8187,393.50665 L184.0832,500.38015 Z"/><path id="Stroke-117" fill="#607491" fill-rule="nonzero" d="M196.751948,524.146162 C196.757409,524.411202 196.546979,524.630487 196.281938,524.635948 L194.585381,524.675872 C193.567197,524.701817 192.549046,524.73094 191.574519,524.762974 L189.20124,524.851398 C187.678894,524.916489 186.557089,524.985114 185.960441,525.055726 C183.283972,525.372351 183.031174,529.219352 184.124982,540.97774 L184.410425,544.067877 C184.562399,545.788617 184.665481,547.160677 184.736351,548.472149 C184.750655,548.73686 184.547661,548.963046 184.282951,548.977351 C184.01824,548.991655 183.792054,548.788661 183.777749,548.523951 L183.73616,547.807217 C183.676188,546.838635 183.597604,545.809146 183.494016,544.608846 L182.938792,538.551231 C182.554435,534.203969 182.466756,532.175884 182.590345,530.002079 C182.79614,526.382328 183.760562,524.349276 185.847637,524.102377 L186.282696,524.058538 C187.162228,523.981465 188.599453,523.908971 190.464084,523.840858 L192.283071,523.779962 L194.889602,523.707921 L196.262162,523.676048 C196.527202,523.670691 196.746487,523.881121 196.751948,524.146162 Z"/><path id="Stroke-119" fill="#1D39C4" fill-rule="nonzero" d="M196.088809,314.750793 L196.190711,314.75528 C196.568063,314.797407 196.848616,315.112634 196.857357,315.481959 L196.85287,315.583861 L191.51437,363.403861 C191.473749,363.767724 191.178267,364.04389 190.822217,364.069284 L190.723757,364.069284 L147.213257,361.439784 C146.799798,361.414797 146.484879,361.059367 146.509866,360.645907 C146.53277,360.266903 146.83334,359.9707 147.201744,359.943211 L147.303743,359.942516 L190.102,362.529 L195.36213,315.417439 C195.400427,315.074392 195.664427,314.811344 195.98959,314.759785 L196.088809,314.750793 Z"/><path id="Stroke-121" fill="#1D39C4" fill-rule="nonzero" d="M346.081095,276.143796 C346.458971,276.106659 346.798858,276.356769 346.884087,276.716232 L346.900854,276.816845 L349.459854,302.855345 C349.496047,303.223618 349.259084,303.557588 348.911186,303.652245 L348.813676,303.671973 L289.712176,311.641473 C289.301678,311.696826 288.92403,311.408924 288.868677,310.998426 C288.817936,310.622136 289.055626,310.27345 289.411781,310.175312 L289.511724,310.154927 L347.896,302.282 L345.408046,276.963555 C345.370909,276.585679 345.621019,276.245792 345.980482,276.160563 L346.081095,276.143796 Z"/><path id="Fill-123" fill="#FFC999" d="M281.8409,228.382 L292.2554,211.123 L376.5629,259.4695 C385.5914,264.646 388.6484,276.6535 383.2754,285.832 C377.9024,295.0105 366.2774,297.637 357.7529,291.5995 L281.8409,228.382 Z"/><path id="Stroke-125" fill="#1D39C4" fill-rule="nonzero" d="M321.587691,261.675689 C321.809284,261.414406 322.183747,261.359321 322.468062,261.530408 L322.559161,261.595841 L348.945811,283.974341 C349.236125,284.220555 349.271874,284.655498 349.025659,284.945811 C348.804066,285.207094 348.429603,285.262179 348.145288,285.091092 L348.054189,285.025659 L321.667539,262.647159 C321.377225,262.400945 321.341476,261.966002 321.587691,261.675689 Z"/><path id="Stroke-127" fill="#597EF7" fill-rule="nonzero" d="M278.12105,420.2047 C278.417627,420.2047 278.65805,420.445123 278.65805,420.7417 C278.65805,421.008619 278.463307,421.230054 278.208154,421.271672 L278.12105,421.2787 L187.64705,421.2787 C187.350473,421.2787 187.11005,421.038277 187.11005,420.7417 C187.11005,420.474781 187.304793,420.253346 187.559946,420.211728 L187.64705,420.2047 L278.12105,420.2047 Z"/><path id="Stroke-129" fill="#1D39C4" fill-rule="nonzero" d="M277.00265,409.33705 C277.416864,409.33705 277.75265,409.672836 277.75265,410.08705 C277.75265,410.466746 277.470496,410.780541 277.104421,410.830203 L277.00265,410.83705 L189.43415,410.83705 C189.019936,410.83705 188.68415,410.501264 188.68415,410.08705 C188.68415,409.707354 188.966304,409.393559 189.332379,409.343897 L189.43415,409.33705 L277.00265,409.33705 Z"/><path id="Stroke-131" fill="#597EF7" fill-rule="nonzero" d="M232.12265,410.0884 C232.389569,410.0884 232.611004,410.283143 232.652622,410.538296 L232.65965,410.6254 L232.65965,495.5644 C232.65965,495.860977 232.419227,496.1014 232.12265,496.1014 C231.855731,496.1014 231.634296,495.906657 231.592678,495.651504 L231.58565,495.5644 L231.58565,410.6254 C231.58565,410.328823 231.826073,410.0884 232.12265,410.0884 Z"/><path id="Stroke-133" fill="#597EF7" fill-rule="nonzero" d="M242.183306,494.744198 C242.479802,494.737242 242.725797,494.971961 242.732903,495.268456 C242.739012,495.535302 242.549516,495.761243 242.295409,495.808833 L242.208494,495.817902 L223.792994,496.249902 C223.496498,496.256858 223.250503,496.022139 223.243397,495.725644 C223.237288,495.458798 223.426784,495.232857 223.680891,495.185267 L223.767806,495.176198 L242.183306,494.744198 Z"/><path id="Stroke-135" fill="#597EF7" fill-rule="nonzero" d="M245.44835,421.2586 C245.715269,421.2586 245.936704,421.453343 245.978322,421.708496 L245.98535,421.7956 L245.98535,464.4661 C245.98535,467.882554 244.234885,471.054019 241.363545,472.876513 L241.091092,473.043386 L233.333092,477.628886 C233.077779,477.779793 232.748472,477.695155 232.597564,477.439842 C232.463425,477.212897 232.515394,476.927488 232.707914,476.760878 L232.786608,476.704314 L240.544736,472.118739 C243.163132,470.572065 244.803106,467.795924 244.906186,464.769537 L244.91135,464.4661 L244.91135,421.7956 C244.91135,421.499023 245.151773,421.2586 245.44835,421.2586 Z"/></g></svg>