<?xml version="1.0" encoding="UTF-8"?>
<svg width="512px" height="1024px" viewBox="0 0 512 1024" version="1.1" xmlns="http://www.w3.org/2000/svg" xmlns:xlink="http://www.w3.org/1999/xlink">
    <!-- Generator: Sketch 61.2 (89653) - https://sketch.com -->
    <title>2.人物组件/8.程序员/站立/看手机</title>
    <desc>Created with Sketch.</desc>
    <defs>
        <polygon id="path-1" points="0.167797254 0.143722357 67.8555294 0.143722357 67.8555294 59 0.167797254 59"></polygon>
        <polygon id="path-3" points="0.616994814 0.143722357 68.3045814 0.143722357 68.3045814 59 0.616994814 59"></polygon>
        <polygon id="path-5" points="1.2906 1.44957385 88.965 1.44957385 88.965 80.6493 1.2906 80.6493"></polygon>
        <polygon id="path-7" points="0 0.04515 105.00285 0.04515 105.00285 78.1369402 0 78.1369402"></polygon>
    </defs>
    <g id="2.人物组件/8.程序员/站立/看手机" stroke="none" stroke-width="1" fill="none" fill-rule="evenodd">
        <g id="分组" transform="translate(266.000000, 791.248500)">
            <mask id="mask-2" fill="white">
                <use xlink:href="#path-1"></use>
            </mask>
            <g id="Clip-2"></g>
            <path d="M38.73345,56.1359 C57.95745,64.2404 67.82295,52.5719 67.82295,52.5719 C67.82295,52.5719 68.36745,48.4874 65.00445,43.9229 C60.79545,38.2109 51.41895,36.1784 40.30545,25.2479 C31.76595,16.8509 26.13495,3.7844 26.13495,3.7844 C19.96545,-5.3191 0.30045,5.5184 0.30045,5.5184 C0.30045,5.5184 -0.03555,24.3284 0.36195,35.0894 C0.36195,35.0894 1.07445,41.0144 15.82545,43.1339 C26.86095,44.7194 27.21945,51.2819 38.73345,56.1359" id="Fill-1" fill="#394676" mask="url(#mask-2)"></path>
        </g>
        <g id="分组" transform="translate(144.500000, 791.248500)">
            <mask id="mask-4" fill="white">
                <use xlink:href="#path-3"></use>
            </mask>
            <g id="Clip-4"></g>
            <path d="M29.7393,56.1359 C10.5153,64.2404 0.6498,52.5719 0.6498,52.5719 C0.6498,52.5719 0.1038,48.4874 3.4668,43.9229 C7.6773,38.2109 17.0523,36.1784 28.1673,25.2479 C36.7053,16.8509 42.3378,3.7844 42.3378,3.7844 C48.5073,-5.3191 68.1723,5.5184 68.1723,5.5184 C68.1723,5.5184 68.5083,24.3284 68.1093,35.0894 C68.1093,35.0894 67.3983,41.0144 52.6473,43.1339 C41.6103,44.7194 41.2533,51.2819 29.7393,56.1359" id="Fill-3" fill="#394676" mask="url(#mask-4)"></path>
        </g>
        <path d="M231.7667,262.5536 L234.0602,223.6181 L269.1107,225.3911 L271.1732,262.6211 C271.7972,273.8666 262.8992,283.3526 251.6372,283.4486 C240.2147,283.5461 231.0962,273.9566 231.7667,262.5536" id="Fill-5" fill="#FFC999"></path>
        <path d="M275.93615,213.35315 C277.96415,211.16315 281.17265,210.49265 283.51265,212.90765 C287.28215,216.79565 284.23265,231.66815 274.33865,232.52765 C270.56165,232.09715 272.77265,216.77165 275.93615,213.35315" id="Fill-7" fill="#FFC999"></path>
        <path d="M280.374894,215.188607 C280.665723,215.130503 280.948589,215.319164 281.006693,215.609994 C281.058987,215.87174 280.911401,216.127037 280.669346,216.217836 L280.585306,216.241793 C280.517147,216.255411 280.365589,216.304634 280.158201,216.406553 C279.796067,216.58452 279.43022,216.849672 279.085252,217.220425 C278.335465,218.026256 277.793595,219.208075 277.561886,220.850854 C277.506583,221.244793 277.547504,221.338196 277.904632,221.528875 L278.153737,221.656771 C278.862221,222.022814 279.23609,222.441156 279.324937,223.259005 C279.469038,224.580871 278.946536,225.624357 278.010279,226.382496 C277.525329,226.775187 277.043102,227.011492 276.70196,227.124125 C276.420336,227.217108 276.116657,227.064184 276.023675,226.78256 C275.941023,226.532228 276.052669,226.264469 276.276293,226.142753 L276.506875,226.048257 C276.549308,226.029757 276.59846,226.007163 276.653157,225.98036 C276.88586,225.866329 277.118928,225.722311 277.334404,225.547829 C278.006353,225.003715 278.358176,224.301092 278.257241,223.375196 C278.218312,223.016848 278.106484,222.860239 277.778345,222.67432 L277.611369,222.585673 L277.523424,222.541026 C276.704148,222.124633 276.362372,221.669913 276.498363,220.7012 C276.760083,218.84565 277.39548,217.459849 278.29897,216.488827 C279.053874,215.677496 279.825226,215.298423 280.374894,215.188607 Z" id="Stroke-9" fill="#DD936F" fill-rule="nonzero"></path>
        <path d="M224.71055,213.35315 C222.68255,211.16315 219.47405,210.49265 217.13405,212.90765 C213.36455,216.79565 216.41405,231.66815 226.30805,232.52765 C230.08505,232.09715 227.87405,216.77165 224.71055,213.35315" id="Fill-11" fill="#FFC999"></path>
        <path d="M220.185013,214.897184 L220.271806,214.907357 C220.821474,215.017173 221.592826,215.396246 222.34773,216.207577 C223.25122,217.178599 223.886617,218.5644 224.148386,220.420296 C224.275831,221.32814 223.983408,221.784536 223.271295,222.181137 L222.985943,222.329694 C222.565967,222.546678 222.432714,222.695782 222.389437,223.094145 C222.288524,224.019842 222.640347,224.722465 223.312296,225.266579 C223.527772,225.441061 223.76084,225.585079 223.993543,225.69911 L224.139825,225.767007 C224.203474,225.794758 224.252006,225.8133 224.28146,225.823025 C224.563084,225.916007 224.716008,226.219686 224.623025,226.50131 C224.530043,226.782934 224.226364,226.935858 223.94474,226.842875 C223.603598,226.730242 223.121371,226.493937 222.636421,226.101246 C221.700164,225.343107 221.177662,224.299621 221.321741,222.977954 C221.41061,222.159906 221.784479,221.741564 222.492963,221.375521 L222.636664,221.302339 C223.090961,221.071445 223.145144,220.999356 223.084863,220.56995 C222.853105,218.926825 222.311235,217.745006 221.561448,216.939175 C221.21648,216.568422 220.850633,216.30327 220.488499,216.125303 C220.322589,216.043768 220.19241,215.995958 220.112077,215.973123 L220.061394,215.960543 C219.770564,215.902439 219.581903,215.619573 219.640007,215.328744 C219.6923,215.066997 219.926651,214.888007 220.185013,214.897184 Z" id="Stroke-13" fill="#DD936F" fill-rule="nonzero"></path>
        <path d="M276.53825,217.3127 C276.53825,244.0937 266.26175,255.3227 250.49525,255.3227 C235.92425,255.3227 224.44925,242.3717 223.88675,216.4682 C223.45775,196.7057 228.28925,182.4362 250.81475,182.4362 C274.46375,182.4362 276.53825,197.5457 276.53825,217.3127" id="Fill-15" fill="#FFC999"></path>
        <path d="M237.321607,250.852094 C237.494669,250.611247 237.830209,250.556295 238.071056,250.729357 C241.583458,253.253206 246.589302,254.64545 251.5502,254.64545 C256.791309,254.64545 260.611175,253.483507 264.453503,250.744669 C264.695007,250.572524 265.030335,250.62875 265.202481,250.870253 C265.374626,251.111757 265.3184,251.447085 265.076897,251.619231 C261.048008,254.491049 257.009663,255.71945 251.5502,255.71945 C246.377388,255.71945 241.153029,254.266432 237.444344,251.601543 C237.203497,251.428481 237.148545,251.092941 237.321607,250.852094 Z" id="Stroke-17" fill="#DD936F" fill-rule="nonzero"></path>
        <path d="M227.89955,207.26825 C225.77405,210.32375 224.95805,215.29175 224.64455,218.55725 C224.60105,219.01025 223.95155,219.03125 223.87805,218.58275 C223.05155,213.52625 221.71355,201.10475 223.32455,193.94375 C225.85805,182.68025 239.34605,173.45975 247.36955,173.03675 C250.63505,172.86425 256.26605,173.10725 262.18055,178.17575 C268.35905,183.47225 272.04905,182.88125 276.25655,190.56425 C279.12455,195.79925 277.52255,210.62675 276.73805,217.69025 C276.67805,218.23025 275.89805,218.24675 275.81705,217.70975 C275.32655,214.43975 274.33955,209.95025 272.45555,207.69125 C271.92155,203.34725 270.76655,195.20975 270.76655,195.20975 C261.05405,192.88775 239.51405,193.52075 228.39155,195.63275 L227.89955,207.26825 Z" id="Fill-19" fill="#253368"></path>
        <path d="M257.234527,206.343091 C260.573026,205.587018 264.321982,205.292604 268.313045,205.72508 C269.136651,205.814326 269.731967,206.55434 269.64272,207.377945 C269.553474,208.201551 268.81346,208.796867 267.989855,208.70762 C264.351786,208.313396 260.930199,208.5821 257.897159,209.268995 C257.329015,209.397663 256.813042,209.533148 256.353517,209.669322 L255.777532,209.849726 C255.597859,209.909309 255.473556,209.954262 255.407658,209.980191 C254.636756,210.28351 253.765928,209.904459 253.462609,209.133558 C253.15929,208.362656 253.538341,207.491828 254.309242,207.188509 C254.871607,206.967241 255.867758,206.652624 257.234527,206.343091 Z" id="Stroke-21" fill="#253368" fill-rule="nonzero"></path>
        <path d="M244.740284,208.679347 C244.969791,208.549638 245.254137,208.607139 245.416978,208.802857 L245.472003,208.882634 L248.217003,213.739634 C248.248125,213.794701 248.26915,213.85461 248.279355,213.91654 L248.286458,214.0106 L248.081,230.291 L252.60793,230.304352 C252.874849,230.305063 253.095764,230.500395 253.136702,230.755658 L253.143498,230.84278 C253.142787,231.109699 252.947455,231.330614 252.692192,231.371552 L252.60507,231.378348 L247.53657,231.364848 C247.26778,231.364132 247.045994,231.166162 247.007061,230.908871 L247.001042,230.8211 L247.21,214.143 L244.536997,209.411066 C244.407288,209.181559 244.464789,208.897213 244.660507,208.734372 L244.740284,208.679347 Z" id="Stroke-23" fill="#DD936F" fill-rule="nonzero"></path>
        <path d="M230.671857,205.697579 C231.997,205.469537 233.557322,205.43095 235.31447,205.546782 C236.864383,205.648952 238.508013,205.867145 240.175407,206.166626 C240.83561,206.285205 241.465819,206.410544 242.054522,206.53736 L242.826748,206.709822 C243.084508,206.769528 243.280014,206.817258 243.404963,206.849265 C244.20748,207.054832 244.691403,207.872046 244.485835,208.674563 C244.280268,209.47708 243.463054,209.961003 242.660537,209.755435 L241.995075,209.596907 L241.831522,209.55994 C241.162579,209.409901 240.425867,209.259617 239.645062,209.119376 C238.080005,208.838276 236.543598,208.634317 235.117138,208.540285 C233.576672,208.438737 232.240165,208.471789 231.180643,208.654121 C230.364217,208.794618 229.588477,208.24667 229.447979,207.430243 C229.307482,206.613817 229.85543,205.838077 230.671857,205.697579 Z" id="Stroke-25" fill="#253368" fill-rule="nonzero"></path>
        <path d="M254.507,213.9857 C255.100154,213.9857 255.581,214.466546 255.581,215.0597 C255.581,215.61331 255.16213,216.069088 254.624024,216.127398 L254.507,216.1337 L245.216,216.1337 C244.622846,216.1337 244.142,215.652854 244.142,215.0597 C244.142,214.50609 244.56087,214.050312 245.098976,213.992002 L245.216,213.9857 L254.507,213.9857 Z" id="Stroke-27" fill="#393C68" fill-rule="nonzero"></path>
        <path d="M246.002443,218.322335 C248.381095,217.133009 250.781074,217.186227 252.948853,217.984268 C253.534932,218.200026 253.971194,218.421283 254.231114,218.583791 C254.734057,218.898242 254.88686,219.560871 254.572409,220.063814 C254.257958,220.566757 253.595329,220.71956 253.092386,220.405109 C252.950602,220.316463 252.644045,220.160988 252.206781,220.000015 C250.551044,219.390476 248.749148,219.350519 246.963057,220.243565 C246.432524,220.508831 245.787402,220.29379 245.522135,219.763257 C245.256869,219.232724 245.47191,218.587602 246.002443,218.322335 Z" id="Stroke-29" fill="#393C68" fill-rule="nonzero"></path>
        <path d="M244.4552,213.2675 L228.1937,213.014 C227.0582,212.996 226.1237,213.8975 226.1147,215.033 C226.0967,217.1525 226.1642,220.55 226.6682,223.466 C227.2637,226.9055 230.3147,229.052 233.7992,229.268 C238.1522,229.538 242.0597,229.6025 244.0712,227.3735 C247.1357,223.9775 246.4862,218.297 246.4697,215.294 C246.4637,214.1915 245.5562,213.284 244.4552,213.2675" id="Fill-31" fill="#FFFFFF"></path>
        <path d="M244.460561,212.90979 L228.199276,212.656293 C226.863701,212.635122 225.767524,213.697469 225.756961,215.030165 C225.731079,218.077832 225.886886,221.046066 226.315677,223.52693 C226.917776,227.004544 229.972546,229.389227 233.777066,229.625065 L234.95186,229.69019 C240.10814,229.937921 242.635745,229.498157 244.336793,227.613177 C245.672468,226.133017 246.413744,224.175762 246.721248,221.759643 C246.874066,220.558928 246.914742,219.481249 246.889117,217.917792 L246.827906,215.365036 C246.827734,215.341357 246.827583,215.317135 246.827445,215.292034 C246.820393,213.996264 245.757723,212.92923 244.460561,212.90979 Z M228.18803,213.371705 L244.449624,213.625207 C245.358445,213.638827 246.107028,214.390484 246.111955,215.295947 L246.140583,216.582265 L246.166542,217.556206 C246.204289,219.294446 246.170742,220.417904 246.011474,221.669309 C245.720851,223.952789 245.029948,225.777039 243.805602,227.133828 C242.189082,228.925139 239.547254,229.266092 233.821347,228.910936 C230.32952,228.694482 227.562531,226.534453 227.020706,223.404969 C226.600698,220.974926 226.446886,218.044688 226.472437,215.036038 C226.479843,214.101724 227.248476,213.356811 228.18803,213.371705 Z" id="Stroke-33" fill="#DD936F" fill-rule="nonzero"></path>
        <path d="M246.205975,212.332761 C246.799095,212.326451 247.285029,212.802155 247.291401,213.395275 C247.297228,213.948854 246.88323,214.409062 246.345775,214.473093 L246.228825,214.480639 L226.065825,214.695139 C225.472705,214.701449 224.986771,214.225745 224.980399,213.632625 C224.974572,213.079046 225.38857,212.618838 225.926025,212.554807 L226.042975,212.547261 L246.205975,212.332761 Z" id="Stroke-35" fill="#393C68" fill-rule="nonzero"></path>
        <path d="M237.6833,216.42155 C239.393396,216.42155 240.6863,218.118858 240.6863,220.12805 C240.6863,220.542264 240.350514,220.87805 239.9363,220.87805 C239.522086,220.87805 239.1863,220.542264 239.1863,220.12805 C239.1863,218.872032 238.462282,217.92155 237.6833,217.92155 C236.90568,217.92155 236.1818,218.872288 236.1818,220.12805 C236.1818,220.542264 235.846014,220.87805 235.4318,220.87805 C235.017586,220.87805 234.6818,220.542264 234.6818,220.12805 C234.6818,218.11921 235.974377,216.42155 237.6833,216.42155 Z" id="Stroke-37" fill="#253368" fill-rule="nonzero"></path>
        <path d="M272.04845,213.2675 L255.78695,213.014 C254.65145,212.996 253.71695,213.8975 253.70645,215.033 C253.68995,217.1525 253.75595,220.55 254.26145,223.466 C254.85695,226.9055 257.90795,229.052 261.39245,229.268 C265.74395,229.538 269.65295,229.6025 271.66445,227.3735 C274.72895,223.9775 274.07945,218.297 274.06295,215.294 C274.05695,214.1915 273.14945,213.284 272.04845,213.2675" id="Fill-39" fill="#FFFFFF"></path>
        <path d="M272.053811,212.90979 L255.792526,212.656293 C254.457297,212.635127 253.361038,213.697026 253.348715,215.029692 C253.324804,218.101189 253.479613,221.050412 253.908957,223.527106 C254.511026,227.004544 257.565796,229.389227 261.370316,229.625065 L262.544898,229.690199 C267.700357,229.937958 270.229056,229.498089 271.930043,227.613177 C273.265718,226.133017 274.006994,224.175762 274.314498,221.759643 L274.377234,221.211986 C274.487447,220.125278 274.508117,219.063597 274.475297,217.548093 L274.421742,215.43478 C274.4213,215.388923 274.42097,215.342236 274.420695,215.292034 C274.413643,213.996264 273.350973,212.92923 272.053811,212.90979 Z M255.78128,213.371705 L272.042874,213.625207 C272.951695,213.638827 273.700278,214.390484 273.705205,215.295947 L273.733833,216.582265 L273.759792,217.556206 C273.797539,219.294446 273.763992,220.417904 273.604724,221.669309 C273.314101,223.952789 272.623198,225.777039 271.398852,227.133828 C269.782402,228.925062 267.139317,229.266141 261.414605,228.910937 C257.92277,228.694482 255.155781,226.534453 254.613956,223.404969 C254.193417,220.979072 254.040587,218.067556 254.064189,215.035785 C254.072827,214.101717 254.841835,213.356813 255.78128,213.371705 Z" id="Stroke-41" fill="#DD936F" fill-rule="nonzero"></path>
        <path d="M262.7423,216.42155 C264.45132,216.42155 265.7453,218.11949 265.7453,220.12805 C265.7453,220.542264 265.409514,220.87805 264.9953,220.87805 C264.581086,220.87805 264.2453,220.542264 264.2453,220.12805 C264.2453,218.87276 263.520394,217.92155 262.7423,217.92155 C261.964206,217.92155 261.2393,218.87276 261.2393,220.12805 C261.2393,220.542264 260.903514,220.87805 260.4893,220.87805 C260.075086,220.87805 259.7393,220.542264 259.7393,220.12805 C259.7393,218.11949 261.03328,216.42155 262.7423,216.42155 Z" id="Stroke-43" fill="#253368" fill-rule="nonzero"></path>
        <path d="M273.799225,212.332761 C274.392345,212.326451 274.878279,212.802155 274.884651,213.395275 C274.890478,213.948854 274.47648,214.409062 273.939025,214.473093 L273.822075,214.480639 L253.659075,214.695139 C253.065955,214.701449 252.580021,214.225745 252.573649,213.632625 C252.567822,213.079046 252.98182,212.618838 253.519275,212.554807 L253.636225,212.547261 L273.799225,212.332761 Z" id="Stroke-45" fill="#393C68" fill-rule="nonzero"></path>
        <path d="M258.5894,234.1136 C250.4144,234.8576 242.8214,234.1136 242.8214,234.1136 C242.8214,234.1136 244.7129,239.1026 250.8359,239.1026 C256.9604,239.1026 258.5894,234.1136 258.5894,234.1136" id="Fill-47" fill="#FFFFFF"></path>
        <path d="M242.125701,234.393783 L242.143616,234.438267 C242.268095,234.738161 242.458914,235.113751 242.728137,235.539862 C243.130289,236.176367 243.628566,236.795283 244.232649,237.362508 C245.897835,238.926096 248.088529,239.8526 250.8359,239.8526 C253.729179,239.8526 255.952179,238.827193 257.555721,237.121875 C258.520486,236.095877 259.067262,235.066397 259.302357,234.346393 C259.46963,233.8341 259.058117,233.317843 258.521424,233.366687 C254.021625,233.77621 249.384934,233.77621 245.136088,233.530187 L244.424784,233.486121 L242.894538,233.367175 C242.334138,233.312264 241.915345,233.871467 242.125701,234.393783 Z M257.328,234.968 L257.266536,235.069037 C257.039778,235.419357 256.772767,235.764848 256.462954,236.094325 C255.134465,237.507132 253.301558,238.3526 250.8359,238.3526 C248.483133,238.3526 246.654986,237.579427 245.259425,236.269014 L245.045058,236.060393 C244.698955,235.71126 244.408502,235.356217 244.170239,235.014062 L244.14,234.969 L244.324961,234.982796 C244.555685,234.998068 244.79733,235.013085 245.049378,235.027679 C248.702355,235.239199 252.634673,235.27174 256.534981,235.02403 L257.328,234.968 Z" id="Stroke-49" fill="#FF7A46" fill-rule="nonzero"></path>
        <path d="M253.873284,241.632868 C254.125585,241.476977 254.45649,241.555133 254.612382,241.807434 C254.768273,242.059735 254.690117,242.39064 254.437816,242.546532 C253.895343,242.881713 253.30249,243.108597 252.669561,243.236954 C251.415811,243.491211 250.095469,243.353556 248.816832,242.973061 C248.323989,242.826401 247.949258,242.678324 247.731078,242.575201 C247.462943,242.448467 247.348315,242.128363 247.475049,241.860228 C247.601783,241.592093 247.921887,241.477465 248.190022,241.604199 L248.373832,241.684302 C248.55664,241.758909 248.811497,241.850929 249.123156,241.943672 C250.247497,242.278252 251.400476,242.398459 252.456101,242.18438 C252.968468,242.080473 253.442408,241.899097 253.873284,241.632868 Z" id="Stroke-51" fill="#DD936F" fill-rule="nonzero"></path>
        <path d="M374.96255,388.8839 L374.96255,388.8839 C383.66705,382.3454 385.61855,370.0829 379.37255,361.1669 L326.78105,286.0754 C319.24505,275.3159 304.29605,272.9369 293.79305,280.8269 C283.28855,288.7169 281.40905,303.7379 289.64405,313.9724 L347.11505,385.3994 C353.93855,393.8804 366.25955,395.4224 374.96255,388.8839" id="Fill-53" fill="#FFC999"></path>
        <path d="M364.4918,339.41975 L327.3428,285.51275 C319.8083,274.75175 304.8578,272.37425 294.3548,280.26275 C283.8518,288.15275 281.9723,303.17375 290.2073,313.40975 L330.7058,365.32325 L364.4918,339.41975 Z" id="Fill-55" fill="#597EF7"></path>
        <g id="分组" transform="translate(294.500000, 352.248500)">
            <mask id="mask-6" fill="white">
                <use xlink:href="#path-5"></use>
            </mask>
            <g id="Clip-58"></g>
            <path d="M1.2906,64.3188 L12.5541,80.6493 L80.4036,37.9458 C89.7831,31.3833 91.7781,18.3153 84.7836,9.2523 C77.7891,0.1908 64.6401,-1.1892 55.9161,6.2223 L1.2906,64.3188 Z" id="Fill-57" fill="#FFC999" mask="url(#mask-6)"></path>
        </g>
        <path d="M293.308776,415.388815 C293.614584,415.169094 294.02968,415.212562 294.284212,415.475015 L294.355485,415.560276 L310.013985,437.353776 C310.255679,437.690164 310.178913,438.158792 309.842524,438.400485 C309.536716,438.620206 309.12162,438.576738 308.867088,438.314285 L308.795815,438.229024 L293.137315,416.435524 C292.895621,416.099136 292.972387,415.630508 293.308776,415.388815 Z" id="Stroke-59" fill="#597EF7" fill-rule="nonzero"></path>
        <path d="M212.08505,511.6034 C212.08505,511.6034 197.72555,495.5009 201.65855,486.1559 C205.21955,477.6944 216.63305,480.7754 216.63305,480.7754 C216.63305,480.7754 225.28205,484.2014 233.58905,490.4204 C239.03405,494.4974 250.53905,500.7029 249.19955,504.0494 C247.45655,508.4144 236.73005,500.1494 233.77055,501.8624 C227.77355,505.3334 243.28205,520.1114 244.50905,523.8569 C246.91055,531.1799 229.16255,531.0509 212.08505,511.6034" id="Fill-61" fill="#A08889"></path>
        <path d="M227.976326,510.211633 C228.212216,510.09067 228.501503,510.183836 228.622467,510.419726 L228.824841,510.797281 C228.8938,510.922517 228.976459,511.070222 229.072647,511.238892 C229.448444,511.897869 229.893639,512.632947 230.406046,513.425033 C231.87072,515.689149 233.578439,517.953436 235.510889,520.065101 C237.495238,522.233479 239.60787,524.117049 241.837753,525.633321 C242.056971,525.782385 242.113842,526.080935 241.964779,526.300153 C241.815715,526.519371 241.517165,526.576242 241.297947,526.427179 C239.002105,524.866055 236.834578,522.933543 234.802679,520.713205 C232.831362,518.559069 231.092023,516.252855 229.600003,513.946469 C229.16464,513.273478 228.776499,512.640247 228.436751,512.057768 L228.238719,511.714459 C228.007032,511.308185 227.849519,511.016288 227.768233,510.857774 C227.64727,510.621884 227.740436,510.332597 227.976326,510.211633 Z" id="Stroke-63" fill="#607491" fill-rule="nonzero"></path>
        <path d="M222.114221,511.84981 C222.336924,511.706006 222.634036,511.769967 222.77784,511.992671 C223.04147,512.400945 223.308034,512.80383 223.577421,513.201354 C226.436354,517.42017 229.497937,520.886883 232.557274,523.650802 C233.62593,524.616266 234.617125,525.424489 235.505182,526.081602 C235.73729,526.253349 235.949481,526.405144 236.1404,526.537311 L236.603742,526.846108 C236.829318,526.985362 236.899296,527.281115 236.760042,527.506692 C236.620788,527.732268 236.325035,527.802246 236.099458,527.662992 L235.871975,527.515555 L235.787332,527.458807 C235.540425,527.292257 235.254962,527.090686 234.93416,526.853311 C234.021421,526.177934 233.006016,525.349969 231.913716,524.363146 C228.798896,521.549101 225.686322,518.02465 222.782709,513.7399 C222.509342,513.336503 222.238855,512.927689 221.97136,512.513429 C221.827556,512.290726 221.891517,511.993614 222.114221,511.84981 Z" id="Stroke-65" fill="#607491" fill-rule="nonzero"></path>
        <path d="M216.444293,511.650248 C216.67606,511.521562 216.968266,511.605126 217.096952,511.836893 L217.221397,512.049321 C217.312149,512.199021 217.439335,512.401022 217.604992,512.652782 C218.050927,513.330497 218.612031,514.114767 219.296657,514.995185 C221.258781,517.518448 223.81517,520.301332 227.032734,523.260605 C227.227854,523.440061 227.240552,523.743715 227.061095,523.938834 C226.881639,524.133954 226.577985,524.146652 226.382866,523.967195 C223.125868,520.971655 220.533412,518.149508 218.538818,515.58449 L218.036846,514.927228 C217.637757,514.394728 217.286452,513.900614 216.980892,513.447441 L216.686475,513.001715 L216.394068,512.535188 C216.326195,512.422953 216.28107,512.34509 216.257648,512.302907 C216.128962,512.07114 216.212526,511.778934 216.444293,511.650248 Z" id="Stroke-67" fill="#607491" fill-rule="nonzero"></path>
        <path d="M302.29895,391.67 L315.79895,278.153 C313.22045,275.6615 302.28395,271.022 270.89345,265.919 C264.20345,264.83 257.49395,275.6105 250.39895,275.9495 C245.60045,276.1775 236.43095,265.19 232.41245,265.7795 C208.24295,269.333 195.51245,273.8165 184.59095,278.717 L202.32995,369.3785 L206.94695,392.5145 C206.94695,392.5145 199.49795,410.3735 211.99895,413.6315 C303.22445,413.6315 295.48895,412.787 295.48895,412.787 C295.48895,412.787 308.44445,407.9195 302.29895,391.67" id="Fill-69" fill="#597EF7"></path>
        <polygon id="Fill-71" fill="#597EF7" points="231.52505 260.6537 221.67905 269.9222 236.13905 290.0177 251.55455 274.6022"></polygon>
        <path d="M223.780025,266.750294 C224.11454,266.570659 224.524483,266.670783 224.741427,266.969803 L224.795606,267.056225 L236.268,288.42 L251.037313,274.183604 C251.308408,273.922255 251.725444,273.905677 252.01502,274.128868 L252.097796,274.203013 C252.359145,274.474108 252.375723,274.891144 252.152532,275.18072 L252.078387,275.263496 L236.596887,290.188496 C236.264617,290.508821 235.73361,290.452207 235.471175,290.091884 L235.415594,290.003375 L223.474094,267.765875 C223.278129,267.400949 223.415099,266.946258 223.780025,266.750294 Z" id="Stroke-73" fill="#1D39C4" fill-rule="nonzero"></path>
        <polygon id="Fill-75" fill="#597EF7" points="271.22525 259.8092 278.61575 268.8887 266.66075 290.0177 251.24675 274.6022"></polygon>
        <path d="M277.320195,268.115179 C277.514611,267.749426 277.968717,267.61053 278.334471,267.804945 C278.669745,267.98316 278.814396,268.379586 278.686426,268.726143 L278.644705,268.819221 L267.385705,290.000721 C267.168504,290.40934 266.644177,290.519369 266.283121,290.256069 L266.202913,290.188646 L252.014,276.509 L253.74389,413.179211 C253.748694,413.558876 253.470533,413.876216 253.105115,413.930506 L253.003439,413.938701 C252.623774,413.943444 252.306434,413.665283 252.252144,413.299865 L252.24401,413.198189 L250.491944,274.733189 C250.484026,274.102161 251.201013,273.758697 251.684272,274.117398 L251.762487,274.183754 L266.528,288.418 L277.320195,268.115179 Z" id="Stroke-77" fill="#1D39C4" fill-rule="nonzero"></path>
        <path d="M255.17495,293.67935 C254.99495,295.00385 255.74345,296.19785 256.84595,296.34785 C257.94995,296.49785 258.98945,295.54835 259.16945,294.22385 C259.34945,292.89935 258.60245,291.70535 257.49995,291.55385 C256.39595,291.40385 255.35495,292.35635 255.17495,293.67935" id="Fill-79" fill="#FFFFFF"></path>
        <path d="M255.17495,320.33075 C254.99495,321.65375 255.74345,322.84925 256.84595,322.99925 C257.94995,323.14925 258.98945,322.19825 259.16945,320.87525 C259.34945,319.55075 258.60245,318.35675 257.49995,318.20525 C256.39595,318.05525 255.35495,319.00625 255.17495,320.33075" id="Fill-81" fill="#FFFFFF"></path>
        <path d="M255.17495,347.672 C254.99495,348.9965 255.74345,350.1905 256.84595,350.342 C257.94995,350.492 258.98945,349.541 259.16945,348.2165 C259.34945,346.892 258.60245,345.698 257.49995,345.5465 C256.39595,345.3965 255.35495,346.349 255.17495,347.672" id="Fill-83" fill="#FFFFFF"></path>
        <path d="M255.17495,371.3234 C254.99495,372.6464 255.74345,373.8419 256.84595,373.9919 C257.94995,374.1419 258.98945,373.1909 259.16945,371.8679 C259.34945,370.5434 258.60245,369.3494 257.49995,369.1979 C256.39595,369.0479 255.35495,370.0004 255.17495,371.3234" id="Fill-85" fill="#FFFFFF"></path>
        <path d="M255.17495,394.06145 C254.99495,395.38445 255.74345,396.57995 256.84595,396.72995 C257.94995,396.87995 258.98945,395.92895 259.16945,394.60595 C259.34945,393.28145 258.60245,392.08745 257.49995,391.93595 C256.39595,391.78595 255.35495,392.73695 255.17495,394.06145" id="Fill-87" fill="#FFFFFF"></path>
        <path d="M309.639184,311.51907 C310.053245,311.531135 310.379781,311.875924 310.368523,312.289984 L310.314573,314.086358 C310.085832,321.061671 309.605863,329.057607 308.908871,337.889238 L308.816731,339.045914 C308.293324,345.556661 307.664211,352.390756 306.950627,359.432568 L306.753934,361.358125 C306.004546,368.637038 305.205774,375.764454 304.403192,382.491883 L303.763027,387.766351 L303.065,393.284 L303.165144,393.593396 L303.253442,393.880995 C303.435364,394.484902 303.61696,395.160545 303.786356,395.892683 C304.357422,398.360865 304.656607,400.855965 304.536942,403.201284 C304.249391,408.83704 301.589308,412.648066 295.938595,413.527185 C295.529306,413.590861 295.145891,413.310685 295.082215,412.901395 C295.018539,412.492106 295.298715,412.108691 295.708005,412.045015 C300.568449,411.288844 302.784319,408.114228 303.038891,403.12485 C303.150505,400.937313 302.867137,398.57412 302.324962,396.230807 C302.163232,395.531799 301.99005,394.887463 301.817195,394.313653 L301.612717,393.669944 C301.605099,393.647729 301.598173,393.627864 301.591974,393.610393 C301.552327,393.498653 301.539737,393.379105 301.555236,393.261557 L301.873504,390.786179 C302.076194,389.187318 302.29743,387.408345 302.533502,385.469499 L302.71328,383.985704 C303.582102,376.779924 304.450937,369.080745 305.261821,361.204507 C305.989595,354.135541 306.63488,347.264142 307.176443,340.706343 L307.321554,338.925715 C308.128757,328.884792 308.660992,319.902398 308.869077,312.249216 C308.880335,311.835155 309.225124,311.508619 309.639184,311.51907 Z" id="Stroke-89" fill="#1D39C4" fill-rule="nonzero"></path>
        <path d="M302.567257,310.514383 L274.791757,309.821145 C274.367845,309.810807 274.019473,310.153497 274.023049,310.577525 L274.206077,332.105525 C274.208093,332.34262 274.322103,332.5648 274.513539,332.704694 L289.155039,343.404194 C289.430701,343.605638 289.80763,343.595478 290.072039,343.379477 L301.632539,333.935477 C301.794159,333.803447 301.893458,333.610047 301.906569,333.401766 L303.297069,311.311266 C303.32379,310.886743 302.992488,310.524993 302.567257,310.514383 Z M275.53,311.339 L301.751,311.994 L300.43,332.98 L289.571,341.851 L275.703,331.716 L275.53,311.339 Z" id="Stroke-91" fill="#1D39C4" fill-rule="nonzero"></path>
        <path d="M138.8429,397.69715 L138.8429,397.69715 C129.3254,392.41565 125.7104,380.53565 130.6739,370.84715 L172.4699,289.25165 C178.4579,277.56065 192.9404,273.15365 204.4274,279.52865 C215.9129,285.90365 219.8354,300.52415 213.0824,311.79065 L165.9509,390.42515 C160.3544,399.76265 148.3619,402.98015 138.8429,397.69715" id="Fill-93" fill="#FFC999"></path>
        <path d="M183.6036,364.3234 L214.3641,311.0734 C221.1171,299.8054 217.1961,285.1849 205.7091,278.8099 C194.2221,272.4349 178.41079,276.417412 172.42129,288.108412 C168.42829,295.902412 159.156345,313.816608 144.605454,341.851 L183.6036,364.3234 Z" id="Fill-95" fill="#597EF7"></path>
        <path d="M210.443,653.51375 L210.443,653.51375 C197.51,652.44425 187.766,641.29175 188.444,628.33025 L198.605,482.03075 C199.667,466.73975 213.191,455.37275 228.4355,456.95675 L228.437,456.95675 C243.407,458.51225 254.2385,471.96875 252.5645,486.92375 L236.2595,632.46725 C234.71,645.28175 223.3055,654.57725 210.443,653.51375" id="Fill-97" fill="#ADC6FF"></path>
        <path d="M213.61145,804.143 L235.36745,636.0875 C237.12845,622.478 227.03045,610.2095 213.33695,609.32 C200.11595,608.4605 188.74445,618.5795 188.06045,631.811 L179.31545,801.3065 C179.31545,801.3065 192.41045,810.3065 213.61145,804.143" id="Fill-99" fill="#ADC6FF"></path>
        <path d="M282.77255,651.87605 L282.77255,651.87605 C295.77155,652.05905 306.49805,641.75255 306.84005,628.75805 L310.66955,482.42405 C311.11055,467.34155 299.13905,454.80605 284.05205,454.55255 C268.74305,454.29605 256.26605,466.76555 256.51505,482.07305 L259.36805,628.59905 C259.61855,641.40005 269.97305,651.69605 282.77255,651.87605" id="Fill-101" fill="#ADC6FF"></path>
        <path d="M264.67145,801.08585 L259.21745,631.71635 C258.77495,618.00035 270.00995,606.76235 283.72445,607.19585 C296.96795,607.61585 307.31195,618.78335 306.71495,632.02085 L299.07995,801.56885 C299.07995,801.56885 285.17945,809.26385 264.67145,801.08585" id="Fill-103" fill="#ADC6FF"></path>
        <polygon id="Fill-105" fill="#ADC6FF" points="298.82285 423.48575 208.16885 423.48575 209.66885 412.78625 297.32285 412.78625"></polygon>
        <path d="M310.87115,479.4683 C309.38615,438.3728 298.63865,421.9853 298.63865,421.9853 L208.86965,421.9853 C208.86965,421.9853 197.53115,449.3243 199.71665,484.2983 C215.34215,494.0123 246.34865,495.9563 246.34865,495.9563 C248.68115,497.0888 262.44365,497.6033 264.74615,496.5293 C264.74615,496.5293 307.07015,485.9438 310.87115,479.4683" id="Fill-107" fill="#ADC6FF"></path>
        <path d="M258.7901,416.9591 C258.6101,418.2821 259.3571,419.4776 260.4611,419.6276 C261.5651,419.7776 262.6046,418.8266 262.7846,417.5036 C262.9646,416.1791 262.2161,414.9851 261.1136,414.8336 C260.0096,414.6836 258.9701,415.6346 258.7901,416.9591" id="Fill-109" fill="#FFFFFF"></path>
        <path d="M252.226709,495.875068 L261.940709,496.719568 C262.236172,496.745254 262.454869,497.005597 262.429182,497.301059 C262.406064,497.566976 262.192875,497.770712 261.935076,497.790074 L261.847691,497.789532 L252.647,496.99 L213.420396,804.970899 C213.397655,805.149448 213.287495,805.302594 213.13027,805.382162 L213.047922,805.415591 L212.702909,805.518206 L212.00404,805.712839 C211.918188,805.735939 211.829651,805.759497 211.738479,805.783475 C210.698702,806.056936 209.527845,806.330185 208.250822,806.585133 C203.203901,807.592711 198.051244,808.030157 193.229626,807.573198 C187.326965,807.013786 182.441192,805.143579 178.937716,801.689979 C178.726506,801.481776 178.724068,801.141775 178.932271,800.930566 C179.140474,800.719356 179.480475,800.716918 179.691684,800.925121 C182.996784,804.183169 187.654279,805.965994 193.330958,806.503989 C198.034213,806.94973 203.087803,806.520695 208.040555,805.531917 C209.11636,805.31714 210.114942,805.089281 211.020407,804.859686 L211.465306,804.744797 C211.732389,804.674554 211.97585,804.608138 212.194364,804.546501 L212.399,804.487 L251.647504,496.342201 C251.679875,496.08805 251.88546,495.896906 252.132418,495.875068 L252.226709,495.875068 Z" id="Stroke-111" fill="#597EF7" fill-rule="nonzero"></path>
        <path d="M194.142026,308.704233 C194.555741,308.684842 194.907588,309.00376 194.927898,309.417476 C195.137728,313.691744 195.456993,318.142204 195.8789,322.751084 C197.005441,335.057343 198.827824,348.170418 201.153743,361.5918 C202.491726,369.312436 203.919341,376.69306 205.352488,383.516337 L205.955523,386.353161 C206.319009,388.042218 206.662488,389.599937 206.981582,391.015015 L207.676177,394.029583 C207.71034,394.172239 207.701919,394.321782 207.651956,394.459701 L207.528621,394.827652 C207.501635,394.912172 207.471711,395.007954 207.439266,395.114497 C207.275345,395.652773 207.111046,396.261076 206.957558,396.925739 C206.343971,399.582811 206.083423,402.294715 206.373215,404.804411 C206.735735,407.943957 207.934522,410.465876 210.13325,412.19697 C210.4587,412.453203 210.514812,412.924749 210.25858,413.2502 C210.002347,413.57565 209.530801,413.631762 209.20535,413.37553 C206.660909,411.372249 205.288171,408.484385 204.883116,404.976471 C204.570916,402.272715 204.847058,399.398496 205.496021,396.588232 C205.657538,395.888803 205.830744,395.247524 206.004328,394.677516 L206.166,394.165 L205.730918,392.28256 L205.379683,390.728007 C205.052655,389.267696 204.701875,387.666285 204.33172,385.935061 L204.171908,385.185194 C202.639091,377.969725 201.106359,370.102924 199.675773,361.847932 C197.343451,348.389608 195.515694,335.23786 194.385145,322.887825 C193.961374,318.258581 193.640605,313.787153 193.429702,309.491024 C193.409392,309.077309 193.72831,308.725462 194.142026,308.704233 Z" id="Stroke-113" fill="#1D39C4" fill-rule="nonzero"></path>
        <path d="M293.38535,412.24235 C293.38535,412.24235 304.97285,401.22335 308.81885,401.66885 C314.78285,402.36035 310.59635,413.88935 310.59635,413.88935 C310.59635,413.88935 315.65585,417.31235 312.22085,423.15785 C314.29385,428.89385 311.10485,431.59685 311.10485,431.59685 C311.10485,431.59685 314.38085,435.97535 309.60635,439.44035 C304.83335,442.90535 294.09035,441.75185 295.78385,434.30585 C291.52235,430.11035 295.12985,426.03635 295.12985,426.03635 C295.12985,426.03635 292.04885,422.05535 295.64885,418.17935 C292.53185,416.35985 292.18685,413.40335 293.38535,412.24235" id="Fill-115" fill="#FFC999"></path>
        <path d="M308.880716,400.572458 C311.799976,400.9102 312.829816,403.437034 312.504991,407.245658 C312.401263,408.461878 312.163014,409.754947 311.831009,411.065719 C311.711824,411.53627 311.58627,411.986234 311.459059,412.408396 L311.282015,412.975468 L311.23,413.131 L311.295524,413.184916 C311.585916,413.428676 311.919932,413.755352 312.259503,414.163616 L312.429575,414.374541 C314.184986,416.620208 314.595178,419.405108 312.848714,422.5775 L312.808,422.647 L312.843304,422.749389 C313.813654,425.65067 313.592927,428.045863 312.596755,429.916253 L312.478394,430.129737 C312.27071,430.489914 312.060858,430.784367 311.868795,431.014415 L311.791,431.103 L311.814488,431.142677 C311.892549,431.277432 311.975128,431.43186 312.058586,431.604431 L312.142202,431.782993 C312.957659,433.581773 313.033572,435.510872 311.869115,437.319306 C311.408183,438.035147 310.762796,438.701753 309.92191,439.31201 C309.681881,439.486206 309.346086,439.432838 309.17189,439.19281 C308.997694,438.952781 309.051062,438.616986 309.29109,438.44279 C310.027409,437.908421 310.579724,437.337947 310.96612,436.737864 C311.904051,435.28123 311.842757,433.723624 311.164024,432.226439 C310.975978,431.811637 310.790308,431.50968 310.675029,431.355605 C310.504942,431.128276 310.541201,430.80783 310.757784,430.624254 L310.822116,430.564075 C310.863757,430.522745 310.918938,430.464546 310.984631,430.389449 C311.17511,430.171703 311.367433,429.906375 311.547988,429.593248 C312.528344,427.893066 312.751303,425.642191 311.715969,422.777419 C311.661673,422.62718 311.677085,422.460567 311.758019,422.322838 C313.454146,419.43646 313.135698,417.021779 311.583417,415.035973 C311.296787,414.669293 310.989374,414.35014 310.682945,414.08126 C310.502417,413.922855 310.365909,413.818746 310.29559,413.771172 C310.091756,413.633268 310.007751,413.374457 310.091741,413.143132 L310.217537,412.775532 C310.244849,412.692615 310.275057,412.599306 310.307749,412.496256 C310.47202,411.978448 310.636449,411.407795 310.789887,410.802013 C311.108609,409.543683 311.336663,408.305946 311.434875,407.154391 C311.716741,403.849476 310.917852,401.889307 308.757284,401.639342 C308.462672,401.605257 308.251473,401.338796 308.285558,401.044184 C308.316235,400.779033 308.535136,400.581447 308.793381,400.569429 L308.880716,400.572458 Z" id="Stroke-117" fill="#DD936F" fill-rule="nonzero"></path>
        <path d="M306.895476,411.210017 C307.153715,411.064173 307.481289,411.155287 307.627133,411.413526 C307.756772,411.643072 307.699185,411.927401 307.503418,412.090182 L307.423624,412.145183 L295.912624,418.646183 C295.654385,418.792027 295.326811,418.700913 295.180967,418.442674 C295.051328,418.213128 295.108915,417.928799 295.304682,417.766018 L295.384476,417.711017 L306.895476,411.210017 Z" id="Stroke-119" fill="#DD936F" fill-rule="nonzero"></path>
        <path d="M306.051808,422.548903 C306.338249,422.472029 306.632773,422.641917 306.709647,422.928358 C306.777979,423.182972 306.651339,423.443973 306.421177,423.552821 L306.330192,423.586197 L295.269192,426.554697 C294.982751,426.631571 294.688227,426.461683 294.611353,426.175242 C294.543021,425.920628 294.669661,425.659627 294.899823,425.550779 L294.990808,425.517403 L306.051808,422.548903 Z" id="Stroke-121" fill="#DD936F" fill-rule="nonzero"></path>
        <path d="M306.343376,431.981873 C306.635826,431.932568 306.912873,432.129676 306.962177,432.422126 C307.006551,432.685331 306.851331,432.936059 306.606647,433.019516 L306.521924,433.040927 L295.871924,434.836427 C295.579474,434.885732 295.302427,434.688624 295.253123,434.396174 C295.208749,434.132969 295.363969,433.882241 295.608653,433.798784 L295.693376,433.777373 L306.343376,431.981873 Z" id="Stroke-123" fill="#DD936F" fill-rule="nonzero"></path>
        <path d="M267.79745,332.8412 L247.79945,332.8412 C245.81645,332.8412 244.17545,331.2992 244.05245,329.3192 L241.46195,287.7962 C241.32845,285.6332 243.04445,283.8062 245.21045,283.8062 L270.38795,283.8062 C272.55245,283.8062 274.26845,285.6332 274.13495,287.7962 L271.54595,329.3192 C271.42145,331.2992 269.78045,332.8412 267.79745,332.8412" id="Fill-125" fill="#607493"></path>
        <path d="M267.79745,334.99385 L247.79945,334.99385 C245.81645,334.99385 244.17545,333.45185 244.05245,331.47185 L241.46195,289.94885 C241.32845,287.78585 243.04445,285.95885 245.21045,285.95885 L270.38795,285.95885 C272.55245,285.95885 274.26845,287.78585 274.13495,289.94885 L271.54595,331.47185 C271.42145,333.45185 269.78045,334.99385 267.79745,334.99385" id="Fill-127" fill="#253368"></path>
        <path d="M245.40005,341.4479 C245.40005,341.4479 228.72755,347.5919 222.44405,340.6874 C216.75455,334.4339 221.41205,325.7069 221.41205,325.7069 C221.41205,325.7069 223.53605,321.3164 231.59555,315.3464 C235.39655,312.5309 242.30555,304.2869 242.43455,307.6034 C242.69555,314.2214 242.99555,315.8714 243.28055,319.0064 C243.85655,325.3604 264.59255,318.6854 268.19705,319.1099 C275.24405,319.9409 268.25855,334.7159 245.40005,341.4479" id="Fill-129" fill="#FFC999"></path>
        <path d="M268.596234,321.947346 C268.850701,321.795017 269.180475,321.877816 269.332804,322.132284 C269.485133,322.386751 269.402334,322.716525 269.147866,322.868854 C267.860873,323.639273 266.480342,324.325425 265.01945,324.932196 C261.919752,326.219632 258.604577,327.098309 255.290308,327.644666 C254.13069,327.83583 253.053453,327.971898 252.085739,328.062168 L251.386536,328.120465 L250.855801,328.152679 C250.559456,328.164416 250.309707,327.933695 250.297971,327.637351 C250.286234,327.341006 250.516955,327.091257 250.813299,327.079521 L251.113883,327.062655 C251.302105,327.050486 251.513322,327.034561 251.74609,327.0144 L251.985988,326.99281 C252.929455,326.904803 253.981819,326.771875 255.115617,326.584969 C258.353968,326.051126 261.591412,325.193051 264.607492,323.940345 C266.02179,323.352927 267.35576,322.689917 268.596234,321.947346 Z" id="Stroke-131" fill="#DD936F" fill-rule="nonzero"></path>
        <path d="M267.577753,326.791477 C267.825245,326.628058 268.158354,326.696212 268.321773,326.943703 C268.485192,327.191195 268.417038,327.524304 268.169547,327.687723 L267.936343,327.834281 L267.690981,327.980886 C267.305374,328.207422 266.847964,328.459063 266.320002,328.729467 C264.817385,329.499056 263.047719,330.267499 261.02106,330.983996 C257.702829,332.157111 254.023345,333.074237 250.002195,333.637901 C249.70849,333.679071 249.437019,333.47435 249.395849,333.180645 C249.354679,332.88694 249.5594,332.615469 249.853105,332.574299 C253.80133,332.020858 257.411068,331.121116 260.663076,329.971414 C262.643564,329.27124 264.369416,328.521822 265.830414,327.773549 C266.237856,327.564871 266.600482,327.36847 266.917634,327.187576 L267.146961,327.054863 C267.36484,326.926864 267.508865,326.836964 267.577753,326.791477 Z" id="Stroke-133" fill="#DD936F" fill-rule="nonzero"></path>
        <path d="M260.892413,333.390312 C261.166395,333.27677 261.480545,333.406832 261.594088,333.680813 C261.70763,333.954795 261.577568,334.268945 261.303587,334.382488 C257.533972,335.944676 254.167129,337.018407 251.247053,337.691852 C250.367803,337.89463 249.582694,338.048202 248.895185,338.159519 L248.239173,338.257222 C247.946047,338.296753 247.735023,338.318789 247.608414,338.327988 C247.312617,338.34948 247.055403,338.127111 247.033912,337.831314 C247.01242,337.535517 247.234789,337.278303 247.530586,337.256812 L247.753497,337.235409 C247.912167,337.217761 248.128626,337.189979 248.401545,337.149378 C249.137753,337.039856 250.007614,336.875507 251.005697,336.645323 C253.868121,335.985174 257.178153,334.929561 260.892413,333.390312 Z" id="Stroke-135" fill="#DD936F" fill-rule="nonzero"></path>
        <g id="分组" transform="translate(128.000000, 323.748500)">
            <mask id="mask-8" fill="white">
                <use xlink:href="#path-7"></use>
            </mask>
            <g id="Clip-138"></g>
            <path d="M96.13485,0.04515 L105.00285,18.20565 L27.20685,76.76865 C16.53735,80.91465 4.56435,75.30465 0.92235,64.45215 C-2.71815,53.59815 4.85385,39.03765 15.86385,35.90865 L96.13485,0.04515 Z" id="Fill-137" fill="#FFC999" mask="url(#mask-8)"></path>
        </g>
        <path d="M288.75215,421.44875 C289.048727,421.44875 289.28915,421.689173 289.28915,421.98575 C289.28915,422.252669 289.094407,422.474104 288.839254,422.515722 L288.75215,422.52275 L208.86965,422.52275 C208.573073,422.52275 208.33265,422.282327 208.33265,421.98575 C208.33265,421.718831 208.527393,421.497396 208.782546,421.455778 L208.86965,421.44875 L288.75215,421.44875 Z" id="Stroke-139" fill="#597EF7" fill-rule="nonzero"></path>
        <path d="M291.0974,411.52235 C291.511614,411.52235 291.8474,411.858136 291.8474,412.27235 C291.8474,412.652046 291.565246,412.965841 291.199171,413.015503 L291.0974,413.02235 L209.7134,413.02235 C209.299186,413.02235 208.9634,412.686564 208.9634,412.27235 C208.9634,411.892654 209.245554,411.578859 209.611629,411.529197 L209.7134,411.52235 L291.0974,411.52235 Z" id="Stroke-141" fill="#1D39C4" fill-rule="nonzero"></path>
        <path d="M254.688047,413.77745 C254.954959,413.779401 255.174975,413.975746 255.21474,414.231194 L255.221136,414.318347 L254.657136,492.028847 C254.654983,492.325416 254.412822,492.564088 254.116253,492.56195 C253.849341,492.559999 253.629325,492.363654 253.58956,492.108206 L253.583164,492.021053 L254.147164,414.310553 C254.149317,414.013984 254.391478,413.775312 254.688047,413.77745 Z" id="Stroke-143" fill="#597EF7" fill-rule="nonzero"></path>
        <path d="M267.07235,422.2244 C267.339269,422.2244 267.560704,422.419143 267.602322,422.674296 L267.60935,422.7614 L267.60935,462.3554 C267.60935,465.477033 266.034984,468.37897 263.435855,470.084577 L263.172547,470.251114 L254.399047,475.591114 C254.145706,475.74531 253.815332,475.664937 253.661136,475.411597 C253.524073,475.186405 253.572348,474.900348 253.762697,474.731263 L253.840653,474.673686 L262.613954,469.333808 C264.965616,467.901061 266.431755,465.387266 266.530072,462.649545 L266.53535,462.3554 L266.53535,422.7614 C266.53535,422.464823 266.775773,422.2244 267.07235,422.2244 Z" id="Stroke-145" fill="#597EF7" fill-rule="nonzero"></path>
        <path d="M308.852971,336.571141 C309.152766,336.343284 309.568881,336.375585 309.830372,336.631106 L309.903909,336.714421 L330.847,364.27 L364.035466,338.824553 C364.334301,338.595438 364.750548,338.625991 365.01311,338.88041 L365.086997,338.963416 C365.316112,339.262251 365.285559,339.678498 365.03114,339.94106 L364.948134,340.014947 L331.162134,365.918447 C330.862411,366.148243 330.444783,366.116746 330.182456,365.860619 L330.108691,365.777079 L308.709691,337.622079 C308.459048,337.292304 308.523197,336.821783 308.852971,336.571141 Z" id="Stroke-147" fill="#1D39C4" fill-rule="nonzero"></path>
        <path d="M144.695207,342.661249 C144.875184,342.326917 145.272366,342.184355 145.618245,342.314146 L145.711101,342.356357 L160.997601,350.585357 C161.362326,350.781695 161.498831,351.236527 161.302493,351.601251 C161.122516,351.935583 160.725334,352.078145 160.379455,351.948354 L160.286599,351.906143 L145.000099,343.677143 C144.635374,343.480805 144.498869,343.025973 144.695207,342.661249 Z" id="Stroke-149" fill="#1D39C4" fill-rule="nonzero"></path>
        <path d="M350.016865,358.11173 C350.214842,357.890907 350.554347,357.872387 350.77517,358.070365 C350.971457,358.246344 351.0079,358.534148 350.874529,358.751023 L350.816535,358.82867 L318.293535,395.10467 C318.095558,395.325493 317.756053,395.344013 317.53523,395.146035 C317.338943,394.970056 317.3025,394.682252 317.435871,394.465377 L317.493865,394.38773 L350.016865,358.11173 Z" id="Stroke-151" fill="#DD936F" fill-rule="nonzero"></path>
        <path d="M221.198883,325.214452 C221.47102,325.096557 221.787203,325.221595 221.905098,325.493733 C222.009893,325.735632 221.922742,326.012334 221.71095,326.153638 L221.625817,326.199948 L157.476817,353.990448 C157.20468,354.108343 156.888497,353.983305 156.770602,353.711167 C156.665807,353.469268 156.752958,353.192566 156.96475,353.051262 L157.049883,353.004952 L221.198883,325.214452 Z" id="Stroke-153" fill="#DD936F" fill-rule="nonzero"></path>
    </g>
</svg>