<svg xmlns="http://www.w3.org/2000/svg" xmlns:xlink="http://www.w3.org/1999/xlink" width="512" height="1024" version="1.1" viewBox="0 0 512 1024"><title>2.人物组件/8.程序员/站立/自信</title><desc>Created with Sketch.</desc><defs><polygon id="path-1" points=".505 .991 44.919 .991 44.919 49.737 .505 49.737"/></defs><g id="2.人物组件/8.程序员/站立/自信" fill="none" fill-rule="evenodd" stroke="none" stroke-width="1"><path id="Fill-1" fill="#FFC999" d="M287.8786,420.89955 L271.2496,380.30355 L302.5021,361.82205 C302.5021,361.82205 334.5121,417.70455 327.9766,430.21005 C319.7296,445.99005 301.1446,446.03655 287.8786,420.89955"/><path id="Fill-3" fill="#4E5C93" d="M150.1993,856.04385 C131.0293,864.27285 121.0888,852.66885 121.0888,852.66885 C121.0888,852.66885 120.5158,848.58885 123.8503,844.00335 C128.0218,838.26285 137.3848,836.16885 148.4278,825.16635 C156.9118,816.71385 162.4588,803.61135 162.4588,803.61135 C168.5683,794.46885 188.3038,805.17885 188.3038,805.17885 C188.3038,805.17885 188.7598,823.98435 188.4328,834.74835 C188.4328,834.74835 187.7608,840.67785 173.0248,842.89335 C161.9968,844.54935 161.6803,851.11485 150.1993,856.04385"/><path id="Fill-5" fill="#4E5C93" d="M264.25795,799.4313 C264.25795,799.4313 263.60845,826.8663 265.84645,834.0768 C272.23045,841.1943 277.79545,837.8373 286.25395,844.9083 C294.71245,851.9778 312.48745,863.6733 328.33795,851.2173 C330.22345,842.8758 324.91345,839.1648 318.34195,834.7863 C291.24445,816.7353 295.93495,813.4098 290.95195,802.8618 C283.30345,786.6753 263.99995,788.0268 264.25795,799.4313"/><path id="Fill-7" fill="#597EF7" d="M190.09735,436.5936 C190.09735,436.5936 180.90835,392.1021 176.86285,375.6681 C172.81735,359.2356 166.57885,319.8696 173.36035,316.8756 C180.14035,313.8816 196.38085,307.5096 196.38085,307.5096 C196.38085,307.5096 209.34085,306.9606 223.94935,309.9726 C235.51585,312.3576 235.38085,305.5521 249.39835,307.7766 C255.33385,308.7171 278.59435,315.8286 283.11985,319.3446 C287.64385,322.8591 280.07935,438.3936 280.07935,438.3936 C280.07935,438.3936 285.65635,444.0516 278.98885,451.4796 C275.68285,454.9581 261.26335,453.8796 242.81785,454.0461 C221.81935,454.2336 197.13835,457.0296 192.53035,453.0681 C183.87385,445.6236 190.09735,436.5936 190.09735,436.5936"/><polygon id="Fill-9" fill="#597EF7" points="242.668 299.812 229.343 311.29 244.517 326.749 251.96 308.122"/><path id="Fill-11" fill="#FFC999" d="M187.7053,445.07055 L185.7373,465.14355 C185.7373,465.14355 132.4033,436.77405 121.8163,420.34455 C112.4173,405.75705 134.6623,370.04955 134.6623,370.04955 C134.6623,370.04955 156.8848,385.52055 161.0413,395.26305 L157.3888,406.23405 L187.7053,445.07055 Z"/><path id="Fill-13" fill="#597EF7" d="M283.44745,410.78265 C283.44745,410.78265 261.21595,372.71715 259.49245,350.55015 C257.80045,328.81215 276.92395,312.51915 286.81945,321.98715 C301.23895,335.78265 316.67395,382.07265 316.67395,382.07265 C316.67395,382.07265 300.47545,402.87015 283.44745,410.78265"/><path id="Stroke-15" fill="#1D39C4" fill-rule="nonzero" d="M310.238079,386.085755 C310.470119,385.742636 310.936377,385.652589 311.279495,385.884629 C311.622614,386.116669 311.712661,386.582927 311.480621,386.926045 C309.225196,390.261154 306.72004,393.351553 304.007805,396.204631 C299.700405,400.735709 295.085789,404.461262 290.469419,407.435481 C288.851717,408.477729 287.348248,409.352088 285.997059,410.065252 C285.712247,410.215577 285.446291,410.352287 285.200217,410.47556 L284.501002,410.815425 C284.400364,410.862585 284.324409,410.897141 284.274163,410.919272 C283.89509,411.086235 283.452441,410.914286 283.285478,410.535213 C283.118515,410.15614 283.290464,409.713491 283.669537,409.546528 L283.968592,409.408027 L284.084451,409.352602 C284.363373,409.21838 284.678828,409.060738 285.028377,408.879267 L285.296893,408.73869 C286.610678,408.045268 288.076751,407.192657 289.657017,406.174528 C294.177699,403.261958 298.700136,399.610825 302.920651,395.171144 C305.577106,392.376742 308.030153,389.350626 310.238079,386.085755 Z"/><path id="Fill-17" fill="#597EF7" d="M125.1271,387.99105 C125.1271,387.99105 150.8896,332.84505 164.7646,322.05255 C178.6411,311.26005 184.8316,316.93305 190.4371,324.62055 C193.9681,329.45955 202.0891,343.19205 184.1776,372.15855 C170.6896,393.97005 165.0361,402.05505 163.4266,405.69405 C140.8096,404.17905 125.1271,387.99105 125.1271,387.99105"/><polygon id="Fill-19" fill="#FFC999" points="229.629 313.33 242.607 300.149 240.281 255.152 205.241 257.153 203.823 301.546"/><path id="Fill-21" fill="#FFC999" d="M249.3649,251.04435 C249.3649,251.04435 254.7544,245.52735 256.9894,249.27285 C259.2229,253.01685 255.2029,266.33985 249.3934,266.65485 C241.6354,267.07335 249.3649,251.04435 249.3649,251.04435"/><path id="Fill-23" fill="#FFC999" d="M215.3893,285.0444 C215.3893,285.0444 226.7338,294.4359 241.8748,285.2649 C252.7738,278.6634 254.2378,254.5704 252.2338,236.8704 C251.0998,226.8549 246.5128,221.4459 236.7688,218.4354 C227.0233,215.4249 200.5603,215.1954 200.2468,244.6494 C199.8973,277.4559 215.3893,285.0444 215.3893,285.0444"/><path id="Stroke-25" fill="#DD936F" fill-rule="nonzero" d="M235.27711,241.440867 C235.532355,241.506803 235.69713,241.745567 235.678498,241.999487 L235.662733,242.09511 L234.086,248.197 L237.317013,264.885245 C237.375189,265.185782 237.171766,265.467024 236.881313,265.51659 L236.79174,265.524296 L229.73424,265.549804 C229.437665,265.550868 229.196375,265.311315 229.195296,265.01474 C229.194339,264.747823 229.38828,264.525686 229.643282,264.483147 L229.73036,264.475804 L236.139,264.452 L233.009087,248.281855 C232.998976,248.229621 232.996711,248.176323 233.002238,248.1237 L233.016367,248.04549 L234.622867,241.82649 C234.688803,241.571245 234.927567,241.40647 235.181487,241.425102 L235.27711,241.440867 Z"/><path id="Stroke-27" fill="#253368" fill-rule="nonzero" d="M228.456619,239.777461 C228.538682,240.563925 227.967653,241.268005 227.181189,241.350069 L221.864689,241.93023 L220.53239,242.064158 C216.695113,242.43373 214.276102,242.510184 212.781219,242.206672 C212.006296,242.049336 211.505643,241.293592 211.662978,240.518669 C211.820314,239.743746 212.576058,239.243093 213.350981,239.400428 C214.601912,239.654409 217.295734,239.527637 221.567704,239.082172 L226.884011,238.502031 C227.670475,238.419968 228.374555,238.990997 228.456619,239.777461 Z"/><path id="Stroke-29" fill="#FF7A46" fill-rule="nonzero" d="M223.886727,269.643146 C223.992105,269.242561 224.402269,269.003249 224.802854,269.108627 L225.029095,269.162344 L225.278454,269.215734 C225.686308,269.299948 226.166559,269.384554 226.715248,269.463773 C229.587563,269.87847 233.003152,269.980407 236.82834,269.574145 C237.240237,269.530398 237.609609,269.828843 237.653355,270.24074 C237.697102,270.652637 237.398657,271.022009 236.98676,271.065755 C233.031525,271.48583 229.491722,271.380186 226.500904,270.948379 C226.037748,270.88151 225.618784,270.810646 225.246014,270.738783 L224.975129,270.684745 C224.708369,270.629664 224.522439,270.585893 224.421246,270.559273 C224.020661,270.453895 223.781349,270.043731 223.886727,269.643146 Z"/><path id="Fill-31" fill="#253368" d="M203.53,257.29305 L197.8555,245.91255 C197.8555,245.91255 194.3155,229.52955 198.145,222.51555 C204.088,211.63155 217.5385,212.00505 225.5395,209.14005 C233.542,206.27505 233.4835,203.58705 236.719,204.05355 C239.9545,204.52005 252.442,213.34155 253.795,222.49605 C254.9845,230.54205 252.8125,251.01405 252.8125,251.01405 C252.8125,251.01405 250.663,232.86105 248.9425,228.05955 C242.632,225.37905 219.6415,225.10905 210.0265,228.01005 C210.0265,228.01005 209.158,234.17955 208.651,238.52655 C203.491,242.17155 203.53,257.29305 203.53,257.29305"/><path id="Stroke-33" fill="#DD936F" fill-rule="nonzero" d="M242.095908,284.243258 C242.297129,284.025386 242.636871,284.011888 242.854742,284.213108 C243.072614,284.414329 243.086112,284.754071 242.884892,284.971942 C242.741428,285.127278 242.46884,285.38417 242.065457,285.708312 C241.403074,286.240575 240.606885,286.770952 239.675352,287.264809 C234.302637,290.11318 227.176654,290.549831 218.281323,287.071219 C218.005115,286.963205 217.868767,286.651731 217.976781,286.375523 C218.084795,286.099315 218.396269,285.962967 218.672477,286.070981 C227.275065,289.435113 234.074625,289.018464 239.17229,286.315913 C240.042038,285.854812 240.781805,285.36202 241.392719,284.871114 L241.639457,284.667294 C241.862501,284.477503 242.014512,284.33139 242.095908,284.243258 Z"/><path id="Stroke-35" fill="#393C68" fill-rule="nonzero" d="M234.741975,247.157606 C235.334766,247.136881 235.83212,247.600633 235.852844,248.193425 C235.872187,248.746697 235.469497,249.216832 234.933758,249.293907 L234.817025,249.304294 L229.625525,249.485794 C229.032734,249.506519 228.53538,249.042767 228.514656,248.449975 C228.495313,247.896703 228.898003,247.426568 229.433742,247.349493 L229.550475,247.339106 L234.741975,247.157606 Z"/><path id="Stroke-37" fill="#393C68" fill-rule="nonzero" d="M230.059281,250.620241 C231.108378,250.168401 232.181911,249.927548 233.234808,250.024271 C234.233296,250.115996 235.135909,250.514264 235.87257,251.252456 C236.291558,251.672314 236.290852,252.352333 235.870994,252.77132 C235.481126,253.16038 234.866935,253.187562 234.445718,252.853298 L234.35213,252.769744 C233.983843,252.400692 233.552881,252.210535 233.038312,252.163265 C232.398303,252.104471 231.65739,252.270699 230.908956,252.593045 C230.625827,252.714987 230.391689,252.835728 230.225895,252.931147 L230.060987,253.031949 C229.565947,253.358701 228.899753,253.222277 228.573001,252.727237 C228.246249,252.232197 228.382673,251.566003 228.877713,251.239251 C229.127177,251.074592 229.534549,250.84624 230.059281,250.620241 Z"/><path id="Stroke-39" fill="#253368" fill-rule="nonzero" d="M238.421459,238.423016 C240.841854,237.525964 243.295852,237.042602 245.64092,237.203141 C247.471879,237.328486 249.149534,237.849621 250.613219,238.825813 C251.271065,239.264558 251.448682,240.153522 251.009937,240.811369 C250.571192,241.469215 249.682228,241.646832 249.024381,241.208087 C248.000149,240.524984 246.802125,240.152837 245.445348,240.059955 C243.564357,239.931186 241.488945,240.339978 239.416588,241.108039 C238.903963,241.298029 238.422894,241.498842 237.981685,241.701268 L237.658383,241.853245 C237.349429,242.002051 237.136401,242.114258 237.035006,242.171697 C236.346999,242.561448 235.473303,242.319664 235.083553,241.631656 C234.693802,240.943649 234.935586,240.069953 235.623594,239.680203 C236.19785,239.354891 237.168434,238.887414 238.421459,238.423016 Z"/><path id="Stroke-41" fill="#DD936F" fill-rule="nonzero" d="M233.781451,274.89238 C234.077956,274.885863 234.323604,275.120945 234.33012,275.417451 C234.335985,275.684305 234.146155,275.909966 233.891978,275.95718 L233.805049,275.96612 L229.573549,276.05912 C229.277044,276.065637 229.031396,275.830555 229.02488,275.534049 C229.019015,275.267195 229.208845,275.041534 229.463022,274.99432 L229.549951,274.98538 L233.781451,274.89238 Z"/><path id="Stroke-43" fill="#393C68" fill-rule="nonzero" d="M210.328072,247.723047 C210.921145,247.713229 211.409884,248.18605 211.419703,248.779122 C211.428867,249.332657 211.017598,249.795305 210.480532,249.862515 L210.363628,249.870753 L201.846628,250.011753 C201.253555,250.021571 200.764816,249.54875 200.754997,248.955678 C200.745833,248.402143 201.157102,247.939495 201.694168,247.872285 L201.811072,247.864047 L210.328072,247.723047 Z"/><path id="Fill-45" fill="#FFF" d="M210.94645,247.101 L227.20495,246.741 C228.34045,246.7155 229.28095,247.6125 229.29745,248.748 C229.32895,250.866 229.28545,254.265 228.79795,257.184 C228.22645,260.6265 225.18745,262.794 221.70595,263.0325 C217.35445,263.331 213.44695,263.421 211.42045,261.2055 C208.33495,257.8275 208.94695,252.144 208.94395,249.1395 C208.94395,248.0385 209.84395,247.125 210.94645,247.101"/><path id="Stroke-47" fill="#253368" fill-rule="nonzero" d="M227.355999,246.384905 L227.197,246.383 L210.938531,246.743338 C209.64112,246.771581 208.5862,247.844492 208.5862,249.1395 L208.579194,249.811581 L208.54679,251.369363 C208.519278,253.147857 208.559804,254.286109 208.730708,255.578612 C209.0517,258.006187 209.805993,259.968454 211.156305,261.446773 C212.995591,263.457598 215.775953,263.797871 221.730433,263.389411 C225.53223,263.128969 228.573086,260.722938 229.15087,257.242589 C229.565061,254.762542 229.700717,251.805831 229.65516,248.74268 C229.636568,247.4632 228.618866,246.438316 227.355999,246.384905 Z M210.954236,247.458665 L227.212869,247.098662 C228.152147,247.077569 228.926158,247.81866 228.939738,248.753198 C228.98471,251.777079 228.850797,254.695804 228.445087,257.125069 C227.92512,260.257151 225.17068,262.43656 221.6815,262.675587 L220.527758,262.747055 C215.593625,263.015969 213.199425,262.620337 211.684426,260.964043 C210.446657,259.608935 209.74347,257.779618 209.440034,255.48482 C209.274602,254.233698 209.235176,253.121865 209.262332,251.372958 L209.301101,249.37235 C209.30163,249.295507 209.301782,249.221033 209.3017,249.139143 C209.3017,248.234357 210.044922,247.47846 210.954236,247.458665 Z"/><path id="Stroke-49" fill="#253368" fill-rule="nonzero" d="M222.161908,250.861068 C222.557389,250.852511 222.884926,251.166176 222.893482,251.561658 C222.942101,253.808932 221.360912,255.702498 219.308667,255.747726 C217.254936,255.792946 215.592446,253.970853 215.543818,251.723142 C215.535261,251.327661 215.848926,251.000124 216.244408,250.991568 C216.639889,250.983011 216.967426,251.296676 216.975982,251.692158 C217.008358,253.188628 218.061022,254.34235 219.277119,254.315574 C220.492012,254.288799 221.493696,253.089226 221.461318,251.592642 C221.452761,251.197161 221.766426,250.869624 222.161908,250.861068 Z"/><path id="Fill-51" fill="#FFF" d="M236.3014,246.3594 L254.7079,245.9529 C255.4489,248.6274 255.0214,259.0434 251.9119,261.3429 C247.7299,263.6529 239.1604,262.8819 237.7819,260.6529 C235.6924,257.2719 234.7999,250.7529 234.772838,247.9389 C234.7654,247.0809 235.4434,246.3789 236.3014,246.3594"/><path id="Stroke-53" fill="#253368" fill-rule="nonzero" d="M254.700001,245.595149 L236.293501,246.001737 C235.240025,246.02568 234.405965,246.888066 234.415027,247.942001 C234.453435,251.928095 235.667259,257.911717 237.477577,260.840976 C239.046133,263.377293 247.933224,263.949289 252.084875,261.656053 C254.901768,259.576814 256.129851,249.745292 255.052662,245.85738 C255.008946,245.699594 254.863692,245.591622 254.700001,245.595149 Z M254.43,246.316 L254.469618,246.493197 C255.276511,250.405134 254.08317,259.292283 251.699186,261.055258 C247.882395,263.159968 239.416005,262.615049 238.086165,260.464731 C236.357547,257.667671 235.167761,251.80254 235.130525,247.93546 C235.124827,247.272769 235.647738,246.732098 236.309529,246.717058 L254.43,246.316 Z"/><path id="Stroke-55" fill="#253368" fill-rule="nonzero" d="M245.136508,250.353168 C245.531989,250.344611 245.859526,250.658276 245.868082,251.053758 C245.916713,253.301592 244.336544,255.194617 242.283281,255.239826 C240.230595,255.285064 238.567034,253.46242 238.518418,251.215242 C238.509861,250.819761 238.823526,250.492224 239.219008,250.483668 C239.614489,250.475111 239.942026,250.788776 239.950582,251.184258 C239.982944,252.680098 241.036547,253.834455 242.251733,253.807674 C243.467525,253.780904 244.46831,252.581976 244.435918,251.084742 C244.427361,250.689261 244.741026,250.361724 245.136508,250.353168 Z"/><path id="Stroke-57" fill="#393C68" fill-rule="nonzero" d="M209.188644,246.177459 L229.353144,246.259959 C229.946293,246.262386 230.425168,246.745195 230.42275,247.338344 C230.420476,247.89195 229.999744,248.34601 229.461405,248.402118 L229.344356,248.407941 L209.179856,248.325441 C208.586707,248.323014 208.107832,247.840205 208.11025,247.247056 C208.112524,246.69345 208.533256,246.23939 209.071595,246.183282 L209.188644,246.177459 Z"/><path id="Stroke-59" fill="#393C68" fill-rule="nonzero" d="M254.829437,245.282202 C255.422204,245.260766 255.920113,245.723921 255.941548,246.316687 C255.961555,246.869936 255.559429,247.340553 255.023783,247.418271 L254.907063,247.428798 L235.162563,248.142798 C234.569796,248.164234 234.071887,247.701079 234.050452,247.108313 C234.030445,246.555064 234.432571,246.084447 234.968217,246.006729 L235.084937,245.996202 L254.829437,245.282202 Z"/><path id="Fill-61" fill="#FFC999" d="M201.0031,248.1084 C198.9631,245.9319 195.7486,245.2824 193.4236,247.7109 C189.6796,251.6259 192.8266,266.4774 202.7266,267.2724 C206.5006,266.8179 204.1891,251.5059 201.0031,248.1084"/><path id="Fill-63" fill="#FFC999" d="M293.8522,419.15085 C293.8522,419.15085 300.2857,442.12635 320.6227,437.90385 C334.5097,435.01935 348.0427,362.59935 349.1137,354.18735 C349.8787,348.17385 331.7497,347.18535 331.7497,347.18535 L293.8522,419.15085 Z"/><g id="分组" transform="translate(331.000000, 305.493000)"><mask id="mask-2" fill="#fff"><use xlink:href="#path-1"/></mask><path id="Fill-65" fill="#FFC999" d="M0.5046,42.7734 C0.5046,42.7734 1.2201,38.7249 2.6496,30.6264 C4.0806,22.5294 19.5936,4.8999 20.5986,4.0089 C24.0261,0.9744 26.8101,5.2134 19.5291,16.1319 C28.4751,13.5099 34.0281,9.3519 37.1256,3.6354 C40.2231,-2.0796 46.4961,1.9464 44.5536,11.1309 C42.6096,20.3154 42.2736,27.7524 36.3456,34.5714 C27.8556,44.3349 20.7756,47.5584 16.7826,49.2609 C13.5366,50.6454 3.0681,49.1679 0.5046,42.7734" mask="url(#mask-2)"/></g><path id="Fill-67" fill="#ADC6FF" d="M193.14865,809.505 L234.49765,529.104 L237.17365,528.507 L259.14415,808.0365 C259.14415,808.0365 282.34765,814.7505 294.53965,807.3255 C294.66115,752.772 291.57565,575.7705 285.61465,494.883 C284.65465,481.86 280.53565,464.1765 279.70165,459.2595 C242.47915,453.2175 191.81665,462.108 191.81665,462.108 L157.52815,805.47 C157.52815,805.47 175.97665,815.1345 193.14865,809.505"/><path id="Stroke-69" fill="#597EF7" fill-rule="nonzero" d="M256.06125,517.538818 C256.326862,517.406877 256.649141,517.515239 256.781082,517.78085 C256.898363,518.016949 256.825775,518.297823 256.621649,518.449991 L256.53905,518.500682 L234.19955,529.597682 C233.933938,529.729623 233.611659,529.621261 233.479718,529.35565 C233.362437,529.119551 233.435025,528.838677 233.639151,528.686509 L233.72175,528.635818 L256.06125,517.538818 Z"/><path id="Fill-71" fill="#ADC6FF" d="M192.3034,452.9526 C192.3034,452.9526 239.6044,445.6461 279.0079,452.2851 C279.3544,455.7726 279.7189,460.0656 279.7189,460.0656 C279.7189,460.0656 247.8244,452.4516 192.1504,463.3866 C192.2419,453.9171 192.3034,452.9526 192.3034,452.9526"/><path id="Stroke-73" fill="#597EF7" fill-rule="nonzero" d="M208.51109,462.784428 C225.573749,461.314202 243.013343,460.69354 259.295477,461.406701 C266.204312,461.709309 272.725364,462.250719 278.795072,463.051311 C279.089102,463.090094 279.296021,463.359892 279.257239,463.653922 C279.218456,463.947952 278.948658,464.154871 278.654628,464.116089 C272.617735,463.319825 266.127522,462.780976 259.248481,462.479672 C243.018899,461.768813 225.623355,462.387908 208.603291,463.854463 C205.027141,464.162607 201.705672,464.489358 198.68912,464.818943 L197.074269,464.998903 C196.388088,465.076901 195.747859,465.151706 195.155516,465.222713 L192.795826,465.518355 C192.501925,465.558106 192.231446,465.352077 192.191695,465.058176 C192.151944,464.764275 192.357973,464.493796 192.651874,464.454045 L194.171557,464.260391 L195.954939,464.046701 L196.95297,463.931775 C200.394376,463.540596 204.274681,463.149464 208.51109,462.784428 Z"/><path id="Stroke-75" fill="#1D39C4" fill-rule="nonzero" d="M208.228457,450.748786 C225.29779,449.277941 242.744009,448.656797 259.034577,449.369765 C265.950109,449.672428 272.477951,450.214173 278.5547,451.015487 C278.965359,451.069639 279.254365,451.446442 279.200213,451.8571 C279.146061,452.267759 278.769258,452.556765 278.3586,452.502613 C272.327681,451.707343 265.842911,451.169173 258.968992,450.868331 C243.352437,450.184861 226.653245,450.733502 210.248681,452.083899 L208.357233,452.243248 C204.457283,452.579302 200.86037,452.937487 197.631751,453.297322 L195.838274,453.50177 L193.433914,453.792938 L192.557675,453.906283 C192.147199,453.961801 191.769436,453.674051 191.713917,453.263575 C191.658399,452.853099 191.946149,452.475336 192.356625,452.419817 L193.478122,452.275588 C194.130879,452.193944 194.86077,452.105661 195.66402,452.011925 L196.662893,451.896901 C200.10669,451.505445 203.989476,451.114054 208.228457,450.748786 Z"/><path id="Stroke-77" fill="#597EF7" fill-rule="nonzero" d="M239.750919,451.55865 C240.017839,451.55865 240.23934,451.753226 240.281044,452.008365 L240.288102,452.095467 L240.2759,455.996928 C240.260714,458.963704 240.233165,462.255008 240.19019,465.788988 C240.068157,475.82402 239.847656,485.847145 239.50415,495.203891 L239.398561,497.959332 C238.963712,508.836091 238.378394,517.958257 237.622355,524.804097 C237.5898,525.098881 237.324438,525.31146 237.029653,525.278905 C236.734869,525.24635 236.52229,524.980988 236.554845,524.686203 L236.735012,522.979667 C237.462025,515.780318 238.020924,506.331093 238.430873,495.164488 C238.749509,486.485175 238.962235,477.230097 239.088626,467.924125 L239.148027,462.942423 C239.166989,461.091718 239.181612,459.319823 239.192394,457.640031 L239.214104,452.101098 C239.214001,451.799256 239.454342,451.55865 239.750919,451.55865 Z"/><path id="Fill-79" fill="#FFF" d="M248.9665,455.38275 C248.9965,456.71775 248.179,457.82025 247.1395,457.84425 C246.1015,457.86675 245.2345,456.80325 245.203,455.46825 C245.1745,454.13175 245.992,453.03075 247.03,453.00675 C248.068,452.98275 248.935,454.04775 248.9665,455.38275"/><path id="Stroke-81" fill="#DD936F" fill-rule="nonzero" d="M350.026281,321.434032 C350.13128,321.156664 350.44125,321.016931 350.718618,321.121931 C350.965168,321.215264 351.102968,321.470549 351.056802,321.720931 L351.030719,321.814268 L348.911,327.412 L348.91204,327.445457 C348.920684,328.173789 348.907649,329.121885 348.8573,330.219832 L348.836639,330.638449 C348.734669,332.568753 348.538185,334.477032 348.224195,336.26502 C347.381035,341.06632 345.840848,344.31166 343.313569,345.279626 C343.036611,345.385703 342.726101,345.247177 342.620024,344.970219 C342.513947,344.693261 342.652473,344.382751 342.929431,344.276674 C344.979327,343.491549 346.384756,340.530159 347.166382,336.079257 C347.47211,334.338318 347.664292,332.471815 347.764135,330.581793 L347.801219,329.774866 C347.826505,329.126057 347.838249,328.53863 347.840213,328.029862 L347.836136,327.330243 L347.870781,327.128032 L350.026281,321.434032 Z"/><path id="Stroke-83" fill="#DD936F" fill-rule="nonzero" d="M371.659923,324.715049 C372.479379,324.539297 373.22657,324.844557 373.783486,325.641298 C373.953397,325.884379 373.894082,326.219175 373.651002,326.389086 C373.407921,326.558997 373.073125,326.499682 372.903214,326.256602 C372.590691,325.809497 372.276656,325.681199 371.885146,325.765168 C371.435594,325.861585 370.895588,326.237413 370.339898,326.807233 C370.175795,326.975509 370.017981,327.15262 369.868884,327.332683 L369.65208,327.604256 C369.52699,327.766727 369.438374,327.891317 369.432484,327.889641 L369.322387,328.107663 C369.289194,328.170675 369.250151,328.243103 369.205196,328.324361 C369.020739,328.657783 368.79744,329.027943 368.534288,329.42569 C367.784605,330.558811 366.863789,331.690951 365.76315,332.748301 C363.804962,334.629471 361.494141,336.065778 358.813725,336.875981 C358.529833,336.961792 358.23013,336.801216 358.144319,336.517325 C358.058508,336.233433 358.219084,335.93373 358.502975,335.847919 C361.010614,335.089941 363.177088,333.743354 365.019101,331.97379 C366.059168,330.97463 366.930472,329.903365 367.63858,328.833082 C367.823885,328.552999 367.987601,328.288383 368.130051,328.043121 L368.265424,327.804454 C368.36636,327.622004 368.431354,327.494534 368.500165,327.362387 L368.650902,327.148721 C368.694545,327.089192 368.744744,327.022236 368.801084,326.949059 C369.034657,326.645685 369.29316,326.34229 369.570991,326.057394 C370.261428,325.3494 370.955955,324.866032 371.659923,324.715049 Z"/><path id="Stroke-85" fill="#DD936F" fill-rule="nonzero" d="M371.873357,317.752298 C373.342745,317.082623 374.523856,317.725709 374.943358,319.767054 C375.003058,320.05756 374.815952,320.341458 374.525446,320.401158 C374.23494,320.460858 373.951042,320.273752 373.891342,319.983246 C373.607796,318.603478 373.146529,318.352329 372.318757,318.729587 C371.936515,318.903794 371.508871,319.210362 371.066248,319.610862 C370.796933,319.854546 370.539233,320.117155 370.303219,320.379765 L370.097604,320.614681 C370.063703,320.654591 370.038413,320.685116 370.023233,320.703872 C367.24731,324.523095 364.609138,327.085915 362.18892,328.626185 C360.703831,329.571322 359.600719,329.962193 358.966442,330.034221 C358.671759,330.067685 358.405743,329.855925 358.372279,329.561242 C358.342162,329.296027 358.510675,329.054033 358.759503,328.983891 L358.960543,328.946843 C359.082489,328.920489 359.26867,328.868965 359.515686,328.781439 C360.117976,328.568027 360.820019,328.224324 361.61228,327.720115 C363.913312,326.255697 366.45464,323.786955 369.168602,320.053844 L369.269809,319.930738 C369.331863,319.857087 369.41068,319.766157 369.504415,319.66186 C369.763603,319.373464 370.046609,319.085067 370.345657,318.814479 C370.863129,318.346255 371.374548,317.97963 371.873357,317.752298 Z"/><path id="Stroke-87" fill="#DD936F" fill-rule="nonzero" d="M373.008893,310.529081 C373.846302,310.380831 374.64631,310.67552 375.412439,311.407405 C375.626889,311.612269 375.634659,311.952189 375.429795,312.166639 C375.224931,312.381089 374.885011,312.388859 374.670561,312.183995 C374.136912,311.674199 373.670979,311.502569 373.196116,311.586636 C372.538997,311.702969 371.78618,312.294296 370.735948,313.494189 L370.535495,313.726333 C370.29323,314.010516 367.915313,316.986956 366.934141,318.117188 L366.834521,318.231013 C366.524295,318.582161 366.217848,318.916472 365.910598,319.237846 C363.981808,321.254732 362.051827,322.800436 360.211319,323.935855 C359.671401,324.268933 359.17053,324.546754 358.71523,324.773762 L358.447571,324.903904 C358.127553,325.055454 357.897563,325.150476 357.768833,325.196658 C357.489676,325.296805 357.18219,325.151689 357.082042,324.872533 C356.981895,324.593376 357.127011,324.28589 357.406167,324.185742 L357.53581,324.135222 C357.644211,324.090699 357.796009,324.024119 357.987898,323.933246 C358.476811,323.701712 359.033692,323.400413 359.647431,323.021795 C361.41161,321.933464 363.270067,320.445043 365.134351,318.495608 C365.332429,318.288425 365.530444,318.075374 365.729688,317.855345 L366.029638,317.51993 C366.916042,316.5166 369.449793,313.344399 369.718179,313.029575 C371.030545,311.490134 371.982888,310.710719 373.008893,310.529081 Z"/><path id="Stroke-89" fill="#DD936F" fill-rule="nonzero" d="M315.568129,377.38697 C315.713839,377.128655 316.041365,377.03737 316.29968,377.183079 C316.529294,377.312599 316.626932,377.585776 316.543459,377.826306 L316.503571,377.91463 L300.605071,406.09963 C300.459361,406.357945 300.131835,406.44923 299.87352,406.303521 C299.643906,406.174001 299.546268,405.900824 299.629741,405.660294 L299.669629,405.57197 L315.568129,377.38697 Z"/><polygon id="Fill-91" fill="#597EF7" points="229.488 313.064 216.57 330.293 196.955 307.543 204.024 298.583"/><path id="Stroke-93" fill="#1D39C4" fill-rule="nonzero" d="M230.078977,313.987928 C230.449296,313.84885 230.862244,314.036308 231.001322,314.406627 L231.149151,314.836929 L231.295761,315.298416 C231.373233,315.549288 231.456883,315.83058 231.546394,316.143314 L231.825086,317.150981 C232.173384,318.451841 232.549295,320.008352 232.947057,321.838886 C234.389462,328.476948 235.830387,337.343823 237.174411,348.742351 C238.524213,360.18987 239.7021,373.60333 240.659194,389.137395 L240.801074,391.518237 C242.096461,414.025364 241.904417,433.354742 240.90789,447.967183 C240.880976,448.36184 240.539224,448.659955 240.144567,448.63304 C239.74991,448.606126 239.451795,448.264374 239.47871,447.869717 L239.580206,446.320272 C240.515747,431.436372 240.626179,411.891484 239.229406,389.225496 L239.058513,386.510729 C238.163866,372.597876 237.08868,360.44092 235.870137,349.922862 L235.545055,347.183171 C234.300457,336.941022 232.979342,328.843922 231.657387,322.65444 L231.547224,322.14306 C231.047388,319.842778 230.584018,317.986826 230.169194,316.537493 L230.00418,315.974364 C229.951906,315.800448 229.902395,315.640225 229.855744,315.493394 L229.721091,315.082816 C229.69286,314.999936 229.67248,314.942761 229.660278,314.910273 C229.5212,314.539954 229.708658,314.127006 230.078977,313.987928 Z"/><path id="Stroke-95" fill="#1D39C4" fill-rule="nonzero" d="M283.732208,322.784387 C284.146054,322.767618 284.495687,323.088963 284.513134,323.502808 L284.542345,324.464013 C284.637568,328.479835 284.532598,333.077863 284.070846,337.451369 C283.782875,340.178904 283.371176,342.604131 282.818269,344.655793 L282.697,345.09 L282.738999,345.167434 L282.786357,345.267375 C282.90718,345.540139 283.018266,345.936443 283.128161,346.466299 C283.342641,347.500402 283.553846,349.060678 283.744007,351.04113 L283.831197,351.995004 C284.214291,356.397276 284.470816,362.268051 284.539262,369.028745 C284.72599,387.472682 283.553367,409.735663 280.745675,433.988406 L280.601,435.222 L280.794083,435.714745 L280.855512,435.878348 C281.100544,436.536491 281.345259,437.264035 281.573689,438.041532 C282.122115,439.90818 282.490499,441.761488 282.594829,443.506784 C282.768847,446.417875 282.195146,448.794221 280.650363,450.409731 C280.364097,450.709105 279.889342,450.71973 279.589969,450.433463 C279.290595,450.147197 279.27997,449.672442 279.566237,449.373069 C280.770286,448.113893 281.249016,446.130927 281.097502,443.59629 C281.00075,441.977759 280.653511,440.230834 280.134518,438.464363 C279.960156,437.870895 279.77581,437.307812 279.58963,436.785573 L279.449778,436.401715 C279.310802,436.028433 279.203798,435.762969 279.144729,435.625509 C279.092775,435.504608 279.073545,435.372165 279.088971,435.241481 C281.953547,410.973608 283.181554,388.660002 283.04872,370.129578 L283.039338,369.04393 C282.971271,362.320641 282.716461,356.488691 282.337182,352.128877 L282.250874,351.184499 C282.065467,349.253549 281.860915,347.742425 281.659419,346.770925 C281.607959,346.522814 281.557713,346.315904 281.511382,346.15542 L281.464,346.006 C281.203964,345.853012 281.034427,345.561882 281.096752,345.226394 L281.119609,345.133871 C281.775523,343.00706 282.256215,340.352451 282.579137,337.293876 C283.000555,333.302389 283.120002,329.103652 283.059794,325.356085 L283.021271,323.744967 C283.018762,323.673238 283.016466,323.613432 283.014466,323.565992 C282.997018,323.152146 283.318363,322.802513 283.732208,322.784387 Z"/><path id="Stroke-97" fill="#1D39C4" fill-rule="nonzero" d="M247.118153,336.116751 L246.96508,336.116246 C246.528876,336.11484 246.183496,336.48455 246.214553,336.919649 L248.121053,363.628649 C248.139156,363.882261 248.284516,364.109432 248.507206,364.232134 L263.036206,372.237634 C263.285499,372.374995 263.591063,372.359402 263.825079,372.197379 L274.956579,364.490379 C275.13865,364.364321 275.255704,364.164244 275.276375,363.94376 L275.347356,363.029453 L275.406256,362.11397 C275.432258,361.677969 275.457916,361.203089 275.482797,360.689124 L275.547008,359.228014 C275.742142,354.324984 275.793186,348.129656 275.622958,340.605287 C275.616424,340.316472 275.444591,340.057085 275.181194,339.938431 C271.593972,338.322472 265.869182,337.273627 258.778488,336.663739 C256.227095,336.444287 253.646924,336.296125 251.1399,336.206536 L249.583374,336.158109 C248.612617,336.132613 247.780769,336.12007 247.118153,336.116751 Z M249.588,363.115 L247.768,337.622 L248.978033,337.643818 C249.612702,337.658002 250.319046,337.67816 251.086332,337.705579 C253.569762,337.794325 256.125397,337.941078 258.649944,338.158221 L259.276351,338.213602 L260.506499,338.331502 C266.175319,338.904023 270.825257,339.790077 273.924834,341.034017 L274.133,341.12 L274.157417,342.282405 C274.289635,349.308215 274.222893,355.103912 274.026153,359.702333 L273.966003,360.989737 C273.9473,361.356148 273.92824,361.700601 273.909007,362.023181 L273.811,363.458 L263.354,370.699 L249.588,363.115 Z"/><path id="Fill-99" fill="#FFC999" d="M201.2272,436.6998 C201.2272,436.6998 189.2737,425.4813 185.3332,425.9643 C179.2252,426.7113 183.5947,438.5043 183.5947,438.5043 C183.5947,438.5043 178.4302,442.0458 181.9897,448.0158 C179.9017,453.9093 183.1897,456.6603 183.1897,456.6603 C183.1897,456.6603 179.8612,461.1693 184.7782,464.6898 C189.6967,468.2103 200.6992,466.9578 198.9142,459.3348 C203.2552,455.0058 199.5292,450.8523 199.5292,450.8523 C199.5292,450.8523 202.6612,446.7513 198.9457,442.8003 C202.1302,440.9148 202.4632,437.8818 201.2272,436.6998"/><path id="Stroke-101" fill="#DD936F" fill-rule="nonzero" d="M186.631662,435.951418 C186.759808,435.721035 187.032398,435.621766 187.273422,435.703802 L187.361982,435.743162 L199.205982,442.331162 C199.465163,442.475326 199.558402,442.802302 199.414238,443.061482 C199.286092,443.291865 199.013502,443.391134 198.772478,443.309098 L198.683918,443.269738 L186.839918,436.681738 C186.580737,436.537574 186.487498,436.210598 186.631662,435.951418 Z"/><path id="Stroke-103" fill="#DD936F" fill-rule="nonzero" d="M183.228102,438.111444 C183.44474,437.908894 183.784557,437.920315 183.987106,438.136952 C184.189656,438.35359 184.178235,438.693407 183.961598,438.895956 L183.800506,439.05712 C183.732119,439.128618 183.649964,439.217554 183.556809,439.32292 C183.242703,439.678201 182.927983,440.083552 182.634633,440.530416 C181.058888,442.93077 180.743043,445.390341 182.424076,447.700762 C182.534361,447.852339 182.557624,448.050453 182.485452,448.223454 C181.207575,451.286601 181.445554,453.583152 182.587296,455.244156 C182.792682,455.542952 183.011767,455.793346 183.228978,455.996433 C183.354164,456.113479 183.446173,456.185841 183.488808,456.214623 C183.610577,456.296825 183.692258,456.424473 183.717253,456.566759 L183.725316,456.65364 L183.786816,462.10314 C183.790163,462.399698 183.552468,462.642819 183.25591,462.646201 C182.989008,462.649178 182.76539,462.456946 182.720895,462.202279 L182.712884,462.11526 L182.654,456.928 L182.537568,456.826152 C182.324977,456.633583 182.087022,456.377406 181.846595,456.054391 L181.702225,455.852536 C180.443749,454.021706 180.117807,451.563881 181.233028,448.480292 L181.383,448.085 L181.228881,447.848215 C179.665555,445.336093 180.021927,442.686352 181.582088,440.182835 L181.736806,439.941025 C182.059951,439.448774 182.405761,439.003379 182.752184,438.611545 L182.946692,438.397088 C183.065489,438.269681 183.161455,438.173757 183.228102,438.111444 Z"/><path id="Stroke-105" fill="#DD936F" fill-rule="nonzero" d="M188.306902,447.363218 L199.664902,450.333218 C199.951832,450.408247 200.123611,450.701673 200.048582,450.988602 C199.981889,451.243651 199.742637,451.407716 199.488773,451.388331 L199.393198,451.372282 L188.035198,448.402282 C187.748268,448.327253 187.576489,448.033827 187.651518,447.746898 C187.718211,447.491849 187.957463,447.327784 188.211327,447.347169 L188.306902,447.363218 Z"/><path id="Stroke-107" fill="#DD936F" fill-rule="nonzero" d="M188.072412,457.035609 L198.999912,458.805609 C199.292674,458.853029 199.491562,459.128801 199.444141,459.421562 C199.401463,459.685048 199.17382,459.872495 198.915295,459.87278 L198.828188,459.865791 L187.900688,458.095791 C187.607926,458.048371 187.409038,457.772599 187.456459,457.479838 C187.499137,457.216352 187.72678,457.028905 187.985305,457.02862 L188.072412,457.035609 Z"/><path id="Fill-109" fill="#FFF" d="M230.58565,325.9443 C230.61715,327.2793 229.73815,328.3833 228.62515,328.4088 C227.51215,328.4328 226.58515,327.3708 226.55515,326.0358 C226.52515,324.6993 227.40265,323.5968 228.51565,323.5713 C229.62865,323.5458 230.55565,324.6078 230.58565,325.9443"/><path id="Fill-111" fill="#FFF" d="M233.96215,350.46765 C233.99365,351.80265 233.11465,352.90665 232.00165,352.93215 C230.88865,352.95615 229.96165,351.89415 229.93015,350.55915 C229.90165,349.22265 230.77915,348.12015 231.89215,348.09465 C233.00515,348.06915 233.93215,349.13265 233.96215,350.46765"/><path id="Fill-113" fill="#FFF" d="M236.1754,377.0337 C236.2054,378.3687 235.3279,379.4727 234.2134,379.4982 C233.1004,379.5222 232.1749,378.4602 232.1434,377.1252 C232.1134,375.7887 232.9924,374.6862 234.1054,374.6607 C235.2169,374.6352 236.1439,375.6972 236.1754,377.0337"/><path id="Fill-115" fill="#FFF" d="M237.1423,402.0144 C237.1723,403.3509 236.2948,404.4534 235.1803,404.4789 C234.0673,404.5029 233.1418,403.4409 233.1103,402.1059 C233.0818,400.7694 233.9593,399.6669 235.0723,399.6414 C236.1853,399.6159 237.1108,400.6794 237.1423,402.0144"/><path id="Fill-117" fill="#FFF" d="M237.48505,435.0753 C237.51505,436.4103 236.63755,437.5143 235.52305,437.5398 C234.41005,437.5638 233.48455,436.5018 233.45305,435.1668 C233.42455,433.8303 234.30205,432.7278 235.41505,432.7023 C236.52805,432.6768 237.45355,433.7388 237.48505,435.0753"/><path id="Stroke-119" fill="#1D39C4" fill-rule="nonzero" d="M196.742337,307.697469 C197.01508,307.463093 197.413604,307.470062 197.677508,307.698674 L197.752381,307.773887 L216.164,329.199 L229.10795,313.940865 C229.34058,313.66663 229.735268,313.611039 230.031748,313.795454 L230.117485,313.858 C230.39172,314.09063 230.447311,314.485318 230.262896,314.781798 L230.20035,314.867535 L216.71385,330.766035 C216.452726,331.07386 215.996066,331.100901 215.700705,330.846018 L215.624419,330.769513 L196.665919,308.707513 C196.408106,308.407495 196.442319,307.955283 196.742337,307.697469 Z"/><path id="Stroke-121" fill="#1D39C4" fill-rule="nonzero" d="M251.288963,308.299032 C251.413568,307.923596 251.818932,307.720257 252.194368,307.844863 C252.538518,307.959084 252.738058,308.309221 252.672947,308.655965 L252.648537,308.750268 L245.726037,329.607768 C245.568167,330.083432 244.992252,330.245081 244.61154,329.951779 L244.53317,329.881913 L229.67117,314.623913 C229.395159,314.340547 229.401121,313.887082 229.684487,313.61107 C229.939516,313.36266 230.332326,313.342648 230.60955,313.547704 L230.69733,313.624387 L244.737,328.038 L251.288963,308.299032 Z"/><path id="Stroke-123" fill="#597EF7" fill-rule="nonzero" d="M251.582024,461.831352 C251.875065,461.785692 252.149637,461.986233 252.195298,462.279274 L252.24751,462.632082 C252.28863,462.918007 252.334401,463.251359 252.383658,463.629036 L252.503906,464.58653 C252.603737,465.412043 252.702174,466.305354 252.795817,467.257418 C253.364754,473.041771 253.578066,478.986081 253.227525,484.542925 L253.161817,485.492673 C252.215431,498.04158 248.449845,505.995437 240.909169,507.073049 C240.615575,507.115006 240.343557,506.911013 240.301601,506.617419 C240.259644,506.323825 240.463637,506.051807 240.757231,506.009851 C247.791601,505.004593 251.358666,497.10934 252.155656,484.475308 C252.502074,478.98383 252.290721,473.094122 251.726975,467.362547 L251.613538,466.258734 C251.536692,465.542363 251.457695,464.865778 251.378285,464.233634 L251.248495,463.242095 L251.134102,462.444626 C251.088442,462.151585 251.288983,461.877013 251.582024,461.831352 Z"/><path id="Stroke-125" fill="#1D39C4" fill-rule="nonzero" d="M164.775381,327.037422 C164.983773,326.679448 165.442904,326.558188 165.800878,326.766581 L165.939463,326.850666 C166.075014,326.935491 166.260023,327.057371 166.489216,327.217593 C167.014646,327.584904 167.597575,328.034354 168.223487,328.569487 C170.002728,330.090676 171.778637,331.99662 173.43413,334.315313 C179.882055,343.346317 182.712661,355.786987 179.916222,372.064736 C179.846089,372.472969 179.458297,372.747054 179.050064,372.676922 C178.641831,372.606789 178.367746,372.218997 178.437878,371.810764 C181.166652,355.92689 178.428278,343.891586 172.213351,335.186921 C170.63126,332.971035 168.93833,331.154146 167.248732,329.709598 C166.75858,329.290535 166.298803,328.92918 165.877727,328.623628 L165.629792,328.446979 C165.343615,328.246922 165.144279,328.120003 165.046222,328.062919 C164.688248,327.854527 164.566988,327.395396 164.775381,327.037422 Z"/><path id="Stroke-127" fill="#DD936F" fill-rule="nonzero" d="M124.605462,387.452168 C124.903078,387.164075 125.377889,387.171796 125.665982,387.469412 L125.950654,387.754538 C126.076747,387.878394 126.233767,388.030343 126.420883,388.20822 L126.984985,388.736206 C127.476686,389.189644 128.022101,389.675862 128.6188,390.188554 C131.00853,392.241839 133.721041,394.295929 136.702444,396.21253 C145.31426,401.748653 154.369417,405.032143 163.419303,404.944086 C163.833497,404.940055 164.172534,405.272559 164.176671,405.686753 C164.180595,406.100947 163.848091,406.439984 163.433897,406.444014 C154.049995,406.535322 144.728325,403.155192 135.891312,397.4743 C132.848141,395.517991 130.081005,393.422535 127.641257,391.326274 L126.933459,390.709742 C126.478366,390.307722 126.057017,389.924245 125.670624,389.562533 L125.222848,389.138181 L124.588218,388.512688 C124.300125,388.215072 124.307846,387.740261 124.605462,387.452168 Z"/><path id="Stroke-129" fill="#DD936F" fill-rule="nonzero" d="M196.10788,249.689863 C196.217225,249.41418 196.529353,249.279335 196.805037,249.38868 L196.994827,249.471018 C197.107556,249.523186 197.245763,249.591942 197.403716,249.677687 C197.838545,249.913732 198.273117,250.200472 198.680809,250.541007 C200.17134,251.786013 200.924063,253.405871 200.478768,255.375046 C200.309504,256.12188 199.969147,256.522355 199.334038,256.906404 L199.059387,257.063267 C198.514852,257.365796 198.379369,257.515121 198.332265,257.980974 C198.241211,258.871459 198.649193,259.534448 199.428987,260.040521 C199.689824,260.209799 199.972826,260.346928 200.255978,260.45309 L200.436427,260.516686 C200.5154,260.542592 200.576445,260.559797 200.614834,260.56893 C200.903359,260.637571 201.08161,260.92711 201.01297,261.215634 C200.944329,261.504159 200.65479,261.68241 200.366266,261.61377 C199.973251,261.520271 199.411986,261.309837 198.844314,260.941428 C197.755448,260.234772 197.126687,259.213009 197.263774,257.872328 C197.34791,257.040234 197.670098,256.63584 198.379743,256.215018 L198.64434,256.065164 C199.146843,255.783799 199.327888,255.594077 199.431275,255.137907 C199.776101,253.613023 199.200602,252.37455 197.992306,251.365289 C197.643339,251.073804 197.267205,250.825624 196.891327,250.621579 L196.650841,250.496865 C196.545138,250.444824 196.462564,250.40824 196.409063,250.38702 C196.13338,250.277675 195.998535,249.965547 196.10788,249.689863 Z"/><path id="Stroke-131" fill="#597EF7" fill-rule="nonzero" d="M261.540406,526.658971 C261.836253,526.638181 262.092939,526.861159 262.113729,527.157006 C262.13244,527.423269 261.953699,527.65781 261.702091,527.717212 L261.615694,527.730329 L243.899194,528.975329 C243.603347,528.996119 243.346661,528.773141 243.325871,528.477294 C243.30716,528.211031 243.485901,527.97649 243.737509,527.917088 L243.823906,527.903971 L261.540406,526.658971 Z"/></g></svg>