<svg xmlns="http://www.w3.org/2000/svg" xmlns:xlink="http://www.w3.org/1999/xlink" width="512" height="1024" version="1.1" viewBox="0 0 512 1024"><title>2.人物组件/8.程序员/站立/讨论</title><desc>Created with Sketch.</desc><defs><polygon id="path-1" points="1.197 .249 58.935 .249 58.935 54.35 1.197 54.35"/></defs><g id="2.人物组件/8.程序员/站立/讨论" fill="none" fill-rule="evenodd" stroke="none" stroke-width="1"><path id="Fill-1" fill="#FFC999" d="M217.89565,449.7381 L209.56315,467.5311 C209.56315,467.5311 145.90315,437.0331 135.31615,420.6021 C125.91715,406.0146 148.16215,370.3071 148.16215,370.3071 C148.16215,370.3071 170.38465,385.7781 174.54115,395.5206 L170.88865,406.4916 L217.89565,449.7381 Z"/><path id="Fill-3" fill="#FFC999" d="M301.3786,421.15755 L284.7496,380.56155 L316.0021,362.08005 C316.0021,362.08005 348.0121,417.96255 341.4766,430.46805 C333.2296,446.24805 314.6446,446.29455 301.3786,421.15755"/><path id="Fill-5" fill="#4E5C93" d="M163.6993,856.30185 C144.5293,864.53085 134.5888,852.92685 134.5888,852.92685 C134.5888,852.92685 134.0158,848.84685 137.3503,844.26135 C141.5218,838.52085 150.8848,836.42685 161.9278,825.42435 C170.4118,816.97185 175.9588,803.86935 175.9588,803.86935 C182.0683,794.72685 201.8038,805.43685 201.8038,805.43685 C201.8038,805.43685 202.2598,824.24235 201.9328,835.00635 C201.9328,835.00635 201.2608,840.93585 186.5248,843.15135 C175.4968,844.80735 175.1818,851.37285 163.6993,856.30185"/><path id="Fill-7" fill="#4E5C93" d="M258.25795,799.81635 C258.25795,799.81635 257.60845,827.25135 259.84795,834.46185 C266.23045,841.57935 271.79695,838.22235 280.25395,845.29335 C288.71245,852.36285 306.48745,864.05835 322.33795,851.60235 C324.22495,843.26085 318.91495,839.54985 312.34195,835.17135 C285.24445,817.12035 289.93495,813.79485 284.95195,803.24685 C277.30495,787.06035 258.00145,788.41185 258.25795,799.81635"/><path id="Fill-9" fill="#597EF7" d="M203.59735,436.8516 C203.59735,436.8516 194.40835,392.3601 190.36285,375.9261 C186.31735,359.4936 180.07885,320.1276 186.86035,317.1336 C193.64035,314.1396 209.88085,307.7676 209.88085,307.7676 C209.88085,307.7676 222.84085,307.2186 237.44935,310.2306 C249.01585,312.6156 248.88085,305.8101 262.89835,308.0346 C268.83385,308.9751 292.09435,316.0866 296.61985,319.6026 C301.14385,323.1171 293.57935,438.6516 293.57935,438.6516 C293.57935,438.6516 299.15635,444.3096 292.48885,451.7376 C289.18285,455.2161 274.76335,454.1376 256.31785,454.3041 C235.32085,454.4916 210.63835,457.2876 206.03035,453.3261 C197.37385,445.8816 203.59735,436.8516 203.59735,436.8516"/><polygon id="Fill-11" fill="#597EF7" points="256.168 300.07 242.843 311.548 258.017 327.007 265.46 308.38"/><path id="Fill-13" fill="#597EF7" d="M296.94745,411.04065 C296.94745,411.04065 274.71595,372.97515 272.99245,350.80815 C271.30045,329.07015 290.42395,312.77715 300.31945,322.24515 C314.73895,336.04065 330.17395,382.33065 330.17395,382.33065 C330.17395,382.33065 313.97545,403.12815 296.94745,411.04065"/><path id="Stroke-15" fill="#1D39C4" fill-rule="nonzero" d="M323.738079,386.343755 C323.970119,386.000636 324.436377,385.910589 324.779495,386.142629 C325.122614,386.374669 325.212661,386.840927 324.980621,387.184045 C322.725196,390.519154 320.22004,393.609553 317.507805,396.462631 C313.200405,400.993709 308.585789,404.719262 303.969419,407.693481 C302.351717,408.735729 300.848248,409.610088 299.497059,410.323252 C299.212247,410.473577 298.946291,410.610287 298.700217,410.73356 L298.001002,411.073425 C297.900364,411.120585 297.824409,411.155141 297.774163,411.177272 C297.39509,411.344235 296.952441,411.172286 296.785478,410.793213 C296.618515,410.41414 296.790464,409.971491 297.169537,409.804528 L297.468592,409.666027 L297.584451,409.610602 C297.863373,409.47638 298.178828,409.318738 298.528377,409.137267 L298.796893,408.99669 C300.110678,408.303268 301.576751,407.450657 303.157017,406.432528 C307.677699,403.519958 312.200136,399.868825 316.420651,395.429144 C319.077106,392.634742 321.530153,389.608626 323.738079,386.343755 Z"/><path id="Fill-17" fill="#597EF7" d="M138.6271,388.24905 C138.6271,388.24905 164.3896,333.10305 178.2646,322.31055 C192.1411,311.51805 198.3316,317.19105 203.9386,324.87855 C207.4681,329.71755 215.5891,343.45005 197.6776,372.41655 C184.1896,394.22805 178.5361,402.31305 176.9266,405.95205 C154.3096,404.43705 138.6271,388.24905 138.6271,388.24905"/><polygon id="Fill-19" fill="#FFC999" points="243.024 314.958 256.342 300.259 252.193 256.53 217.218 259.419 216.927 303.832"/><path id="Fill-21" fill="#FFC999" d="M261.17305,252.1908 C261.17305,252.1908 266.42005,246.5388 268.74955,250.2258 C271.07905,253.9128 267.39505,267.3333 261.59605,267.7953 C253.85005,268.4118 261.17305,252.1908 261.17305,252.1908"/><path id="Fill-23" fill="#FFC999" d="M228.07045,287.0424 C228.07045,287.0424 239.65045,296.1429 254.55295,286.5909 C265.28245,279.7149 266.13445,255.5919 263.68045,237.9489 C262.29145,227.9649 257.56945,222.6744 247.75195,219.9129 C237.93295,217.1499 211.47445,217.5924 211.90795,247.0449 C212.39095,279.8499 228.07045,287.0424 228.07045,287.0424"/><path id="Stroke-25" fill="#DD936F" fill-rule="nonzero" d="M246.844984,242.948141 C247.101813,243.007608 247.272566,243.242134 247.260354,243.496444 L247.247009,243.592434 L245.825,249.732 L249.478799,266.33288 C249.544591,266.631823 249.348407,266.918133 249.059328,266.975084 L248.969986,266.985072 L241.915486,267.190572 C241.619035,267.199208 241.371713,266.965888 241.363078,266.669436 C241.355306,266.40263 241.543518,266.175619 241.797351,266.126589 L241.884214,266.117028 L248.29,265.93 L244.750401,249.84472 C244.738961,249.792742 244.735344,249.7395 244.73954,249.686736 L244.751691,249.608166 L246.200691,243.350166 C246.260158,243.093337 246.494684,242.922584 246.748994,242.934796 L246.844984,242.948141 Z"/><path id="Stroke-27" fill="#253368" fill-rule="nonzero" d="M223.706777,241.688713 C228.399642,238.055131 234.273415,237.755481 239.24804,240.308763 C239.985057,240.687045 240.27587,241.591173 239.897587,242.32819 C239.519305,243.065207 238.615177,243.35602 237.87816,242.977737 C233.899444,240.935617 229.274966,241.171534 225.543423,244.060787 C224.888392,244.567963 223.946239,244.448103 223.439063,243.793073 C222.931887,243.138042 223.051747,242.195889 223.706777,241.688713 Z"/><path id="Fill-29" fill="#FFF" d="M250.5133,269.81685 C243.0928,270.79635 235.7278,269.27985 235.7278,269.27985 C235.7278,269.27985 237.2518,274.58985 243.1558,274.93335 C249.7048,275.31285 250.5133,269.81685 250.5133,269.81685"/><path id="Stroke-31" fill="#FF7A46" fill-rule="nonzero" d="M235.006903,269.486751 C235.237409,270.28989 235.786788,271.445716 236.771586,272.601682 C238.292434,274.386867 240.38921,275.523656 243.112238,275.682084 C246.316664,275.867773 248.581597,274.769303 249.996271,272.825882 C250.779336,271.750141 251.144737,270.677686 251.255314,269.926005 C251.327789,269.433336 250.908842,269.008133 250.415152,269.0733 C246.589897,269.57823 242.496197,269.464844 238.583559,268.969039 C237.993992,268.894329 237.448877,268.815411 236.95458,268.735738 L236.10218,268.588619 C236.006607,268.570773 235.931907,268.556143 235.879057,268.545261 C235.326889,268.431566 234.851382,268.944876 235.006903,269.486751 Z M237.079896,270.451105 L236.971,270.257 L237.107633,270.278007 C237.509706,270.339246 237.939705,270.399445 238.394989,270.457139 L239.152668,270.548212 C242.444465,270.922339 245.841063,271.026235 249.111705,270.727402 L249.474,270.69 L249.381904,270.910425 C249.222641,271.264014 249.024497,271.612096 248.783546,271.943104 C247.666074,273.478242 245.888318,274.340435 243.199188,274.184606 C240.905224,274.051141 239.180196,273.1159 237.913409,271.628933 C237.591332,271.250876 237.314407,270.853966 237.079896,270.451105 Z"/><g id="分组" transform="translate(206.500000, 205.251000)"><mask id="mask-2" fill="#fff"><use xlink:href="#path-1"/></mask><path id="Fill-33" fill="#253368" d="M9.00945,54.3501 L3.04845,43.1166 C3.04845,43.1166 -0.90555,26.8296 2.74395,19.7211 C8.40945,8.6886 21.86445,8.7216 29.79045,5.6541 C37.71795,2.5866 37.59045,-0.0984 40.83795,0.2856 C44.08395,0.6696 56.79045,9.1716 58.37595,18.2871 C59.76945,26.3016 58.11795,46.8216 58.11795,46.8216 C58.11795,46.8216 55.50795,28.7301 53.66595,23.9736 C47.29095,21.4536 24.29895,21.7671 14.76195,24.9111 C14.76195,24.9111 14.04945,31.1016 13.65345,35.4591 C8.58795,39.2346 9.00945,54.3501 9.00945,54.3501" mask="url(#mask-2)"/></g><path id="Stroke-35" fill="#DD936F" fill-rule="nonzero" d="M254.747333,285.563551 C254.942924,285.340612 255.28221,285.318441 255.505149,285.514033 C255.728088,285.709624 255.750259,286.04891 255.554667,286.271849 L255.420245,286.416519 C255.260834,286.580498 255.026334,286.800675 254.715589,287.06151 C254.034972,287.632808 253.213672,288.202141 252.249096,288.732305 C246.954145,291.642591 239.892829,292.210334 231.013175,288.99512 C230.734315,288.894148 230.590109,288.586234 230.69108,288.307375 C230.792052,288.028515 231.099966,287.884309 231.378825,287.98528 C239.967004,291.094955 246.706676,290.553073 251.731779,287.791104 C252.632994,287.295766 253.396716,286.766346 254.025097,286.238893 C254.396169,285.927422 254.636246,285.69017 254.747333,285.563551 Z"/><path id="Stroke-37" fill="#393C68" fill-rule="nonzero" d="M246.444987,247.176007 C247.03706,247.140212 247.546048,247.591165 247.581843,248.183237 C247.615251,248.735839 247.224649,249.216063 246.691043,249.30674 L246.574613,249.320093 L241.389113,249.633593 C240.79704,249.669388 240.288052,249.218435 240.252257,248.626363 C240.218849,248.073761 240.609451,247.593537 241.143057,247.50286 L241.259487,247.489507 L246.444987,247.176007 Z"/><path id="Stroke-39" fill="#393C68" fill-rule="nonzero" d="M241.894138,250.737588 C242.968798,250.248691 244.069788,249.987507 245.152008,250.091797 C246.098175,250.182976 246.960265,250.556561 247.678445,251.240288 C248.108046,251.64928 248.124753,252.329094 247.715762,252.758695 C247.30677,253.188296 246.626956,253.205003 246.197355,252.796012 C245.838382,252.45426 245.42777,252.276322 244.945967,252.229892 C244.298509,252.167499 243.545643,252.346099 242.783612,252.692771 C242.378148,252.877229 242.07041,253.059424 241.915084,253.167703 C241.428492,253.506907 240.759052,253.387426 240.419847,252.900834 C240.080643,252.414242 240.200124,251.744802 240.686716,251.405597 C240.94128,251.22814 241.357475,250.981733 241.894138,250.737588 Z"/><path id="Stroke-41" fill="#253368" fill-rule="nonzero" d="M250.002083,239.742105 C252.470089,238.770377 254.972185,238.239568 257.368376,238.395039 C259.111327,238.508127 260.721475,238.988245 262.146588,239.886979 C262.847311,240.328883 263.057125,241.255165 262.615221,241.955888 C262.173317,242.656611 261.247035,242.866425 260.546312,242.424521 C259.56717,241.807034 258.439767,241.470862 257.174136,241.388744 C255.284543,241.266142 253.19328,241.709795 251.101151,242.53353 C250.443803,242.792347 249.836494,243.069683 249.296185,243.345851 L248.943818,243.530785 C248.812497,243.601797 248.715654,243.656973 248.656339,243.692602 C247.946182,244.119181 247.024677,243.889295 246.598098,243.179139 C246.171519,242.468982 246.401405,241.547477 247.111561,241.120898 C247.705881,240.7639 248.70854,240.251412 250.002083,239.742105 Z"/><path id="Stroke-43" fill="#DD936F" fill-rule="nonzero" d="M245.782303,277.273806 C246.078545,277.259724 246.330113,277.48846 246.344194,277.784703 C246.356868,278.051321 246.172859,278.281752 245.91997,278.335438 L245.833297,278.346594 L241.604797,278.547594 C241.308555,278.561676 241.056987,278.33294 241.042906,278.036697 C241.030232,277.770079 241.214241,277.539648 241.46713,277.485962 L241.553803,277.474806 L245.782303,277.273806 Z"/><path id="Stroke-45" fill="#393C68" fill-rule="nonzero" d="M222.06354,249.861944 C222.656173,249.837085 223.156748,250.297357 223.181606,250.88999 C223.204808,251.443114 222.805406,251.916045 222.270217,251.996856 L222.15356,252.008056 L213.64256,252.365056 C213.049927,252.389915 212.549352,251.929643 212.524494,251.33701 C212.501292,250.783886 212.900694,250.310955 213.435883,250.230144 L213.55254,250.218944 L222.06354,249.861944 Z"/><path id="Fill-47" fill="#FFF" d="M222.655,247.7241 L238.9,246.9516 C240.034,246.8976 240.997,247.7706 241.0435,248.9046 C241.1275,251.0211 241.171,254.4201 240.7585,257.3496 C240.2725,260.8071 237.292,263.0511 233.815,263.3781 C229.4755,263.7861 225.5695,263.9751 223.489,261.8121 C220.3165,258.5136 220.7845,252.8151 220.7065,249.8136 C220.678,248.7111 221.5555,247.7766 222.655,247.7241"/><path id="Stroke-49" fill="#253368" fill-rule="nonzero" d="M238.882984,246.594255 L222.638007,247.366754 C221.342402,247.428618 220.315387,248.527589 220.348869,249.822845 L220.359171,250.5966 L220.360695,251.114946 C220.365107,253.465569 220.414361,254.667509 220.638233,256.142123 C221.013466,258.613721 221.820665,260.593585 223.231156,262.060095 C225.119176,264.022982 227.907962,264.292808 233.848488,263.734279 C237.644082,263.377316 240.621338,260.89552 241.112767,257.399397 C241.437899,255.090372 241.512942,252.384051 241.424277,249.546877 L241.40095,248.889943 C241.346362,247.558712 240.216379,246.53076 238.882984,246.594255 Z M238.916993,247.308946 C239.805445,247.266639 240.563896,247.911841 240.673823,248.773691 L240.686031,248.918787 C240.806514,251.954506 240.747184,254.864224 240.404245,257.299718 C239.961954,260.446259 237.265122,262.694299 233.781503,263.021922 C228.07135,263.558791 225.418573,263.302124 223.746837,261.564097 C222.453501,260.219395 221.70056,258.372615 221.345628,256.034728 L221.275886,255.53875 C221.13907,254.476968 221.092291,253.466722 221.079752,251.88596 L221.064129,249.804306 C221.040726,248.898971 221.764215,248.124792 222.672063,248.081443 L238.916993,247.308946 Z"/><path id="Fill-51" fill="#FFF" d="M247.98355,246.33915 L266.37505,245.46465 C267.18355,248.12115 267.02005,258.54315 263.97055,260.92065 C259.84705,263.33715 251.26255,262.78365 249.82705,260.59065 C247.65055,257.26365 246.59455,250.77015 246.49705,247.95765 C246.46555,247.09965 247.12705,246.37965 247.98355,246.33915"/><path id="Stroke-53" fill="#253368" fill-rule="nonzero" d="M266.358058,245.107304 L247.966558,245.981804 C246.914111,246.031569 246.100852,246.916954 246.139541,247.970775 C246.277637,251.95434 247.641999,257.90406 249.527672,260.786501 C251.161251,263.282106 260.058377,263.627962 264.151431,261.229304 C266.914177,259.07932 267.892411,249.221564 266.7173,245.360487 C266.669618,245.203816 266.52164,245.099526 266.358058,245.107304 Z M266.106,245.835 L266.150497,246.010937 C267.056114,249.902615 266.088659,258.815667 263.750586,260.638514 C259.987452,262.840214 251.51148,262.51073 250.126375,260.394717 C248.325891,257.642496 246.98859,251.810784 246.854585,247.945255 C246.830254,247.282506 247.339829,246.727738 248.000447,246.696501 L266.106,245.835 Z"/><path id="Stroke-55" fill="#393C68" fill-rule="nonzero" d="M241.035801,246.416493 C241.62882,246.403874 242.119788,246.874381 242.132407,247.467401 C242.144185,248.020886 241.735106,248.485472 241.198363,248.555217 L241.081499,248.564007 L220.921499,248.993007 C220.32848,249.005626 219.837512,248.535119 219.824893,247.942099 C219.813115,247.388614 220.222194,246.924028 220.758937,246.854283 L220.875801,246.845493 L241.035801,246.416493 Z"/><path id="Stroke-57" fill="#393C68" fill-rule="nonzero" d="M266.47775,244.791833 C267.069781,244.755355 267.579289,245.205719 267.615767,245.79775 C267.649814,246.350312 267.259766,246.830988 266.726265,246.92228 L266.60985,246.935767 L246.89085,248.150767 C246.298819,248.187245 245.789311,247.736881 245.752833,247.14485 C245.718786,246.592288 246.108834,246.111612 246.642335,246.02032 L246.75875,246.006833 L266.47775,244.791833 Z"/><path id="Fill-59" fill="#FFC999" d="M212.7511,250.4835 C210.6556,248.3595 207.4261,247.7925 205.1641,250.2795 C201.5221,254.2875 205.0426,269.0535 214.9606,269.5965 C218.7211,269.0475 216.0226,253.7985 212.7511,250.4835"/><path id="Fill-61" fill="#253368" d="M235.63045,253.04325 C235.68895,254.88525 234.67045,256.41375 233.35345,256.45425 C232.03795,256.49625 230.92345,255.03825 230.86495,253.19625 C230.80645,251.35275 231.82645,249.82575 233.14195,249.78375 C234.45745,249.74175 235.57195,251.20125 235.63045,253.04325"/><path id="Fill-63" fill="#253368" d="M257.86975,252.33585 C257.92825,254.17785 256.90825,255.70485 255.59275,255.74685 C254.27725,255.78885 253.16275,254.32935 253.10425,252.48735 C253.04575,250.64535 254.06575,249.11835 255.38125,249.07635 C256.69675,249.03435 257.81125,250.49385 257.86975,252.33585"/><path id="Fill-65" fill="#FFC999" d="M307.3522,419.40885 C307.3522,419.40885 313.7857,442.38435 334.1227,438.16185 C348.0097,435.27735 361.5427,362.85735 362.6137,354.44535 C363.3787,348.43185 345.2497,347.44335 345.2497,347.44335 L307.3522,419.40885 Z"/><path id="Fill-67" fill="#ADC6FF" d="M206.64865,809.763 L247.99765,529.362 L250.67365,528.765 L253.14415,808.4205 C253.14415,808.4205 276.34765,815.136 288.53965,807.711 C288.66115,753.1575 305.07565,576.0285 299.11465,495.141 C298.15465,482.118 294.03565,464.4345 293.20165,459.5175 C255.97915,453.4755 205.31665,462.366 205.31665,462.366 L171.02815,805.728 C171.02815,805.728 189.47665,815.3925 206.64865,809.763"/><path id="Stroke-69" fill="#597EF7" fill-rule="nonzero" d="M269.562763,517.796811 C269.828378,517.664878 270.150655,517.773248 270.282589,518.038863 C270.399863,518.274965 270.327268,518.555837 270.123138,518.708 L270.040537,518.758689 L247.699537,529.855689 C247.433922,529.987622 247.111645,529.879252 246.979711,529.613637 C246.862437,529.377535 246.935032,529.096663 247.139162,528.9445 L247.221763,528.893811 L269.562763,517.796811 Z"/><path id="Fill-71" fill="#ADC6FF" d="M205.8034,453.2106 C205.8034,453.2106 253.1044,445.9041 292.5079,452.5431 C292.8544,456.0306 293.2189,460.3236 293.2189,460.3236 C293.2189,460.3236 261.3244,452.7096 205.6504,463.6446 C205.7419,454.1751 205.8034,453.2106 205.8034,453.2106"/><path id="Stroke-73" fill="#597EF7" fill-rule="nonzero" d="M222.011997,463.042428 C239.075008,461.572135 256.515018,460.951484 272.797544,461.664793 C279.705529,461.96742 286.225834,462.508801 292.294922,463.309311 C292.588952,463.348094 292.795871,463.617892 292.757089,463.911922 C292.718306,464.205952 292.448508,464.412871 292.154478,464.374089 C286.118201,463.577907 279.628732,463.039085 272.750539,462.737764 C256.520569,462.026758 239.124612,462.64584 222.1042,464.112463 C218.528142,464.420606 215.206763,464.747358 212.190297,465.076943 L210.575493,465.256903 C209.889331,465.3349 209.249121,465.409706 208.656796,465.480713 L206.297178,465.776354 C206.003277,465.816107 205.732798,465.610079 205.693046,465.316178 C205.653293,465.022277 205.859321,464.751798 206.153222,464.712046 L206.824181,464.624699 L208.528595,464.414392 C209.123199,464.343111 209.765708,464.268036 210.454191,464.189775 L212.073349,464.009329 C215.097833,463.678865 218.427435,463.351304 222.011997,463.042428 Z"/><path id="Stroke-75" fill="#1D39C4" fill-rule="nonzero" d="M221.728457,451.006786 C238.79779,449.535941 256.244009,448.914797 272.534577,449.627765 C279.450109,449.930428 285.977951,450.472173 292.0547,451.273487 C292.465359,451.327639 292.754365,451.704442 292.700213,452.1151 C292.646061,452.525759 292.269258,452.814765 291.8586,452.760613 C285.827681,451.965343 279.342911,451.427173 272.468992,451.126331 C256.852437,450.442861 240.153245,450.991502 223.748681,452.341899 L221.857233,452.501248 C217.957283,452.837302 214.36037,453.195487 211.131751,453.555322 L209.338274,453.75977 L206.933914,454.050938 L206.057675,454.164283 C205.647199,454.219801 205.269436,453.932051 205.213917,453.521575 C205.158399,453.111099 205.446149,452.733336 205.856625,452.677817 L206.978122,452.533588 C207.630879,452.451944 208.36077,452.363661 209.16402,452.269925 L210.162893,452.154901 C213.60669,451.763445 217.489476,451.372054 221.728457,451.006786 Z"/><path id="Stroke-77" fill="#597EF7" fill-rule="nonzero" d="M253.250919,451.81665 C253.517839,451.81665 253.73934,452.011226 253.781044,452.266365 L253.788102,452.353467 L253.7759,456.254928 C253.760714,459.221704 253.733165,462.513008 253.69019,466.046988 C253.568157,476.08202 253.347656,486.105145 253.00415,495.461891 L252.898561,498.217332 C252.463712,509.094091 251.878394,518.216257 251.122355,525.062097 C251.0898,525.356881 250.824438,525.56946 250.529653,525.536905 C250.234869,525.50435 250.02229,525.238988 250.054845,524.944203 L250.235012,523.237667 C250.962025,516.038318 251.520924,506.589093 251.930873,495.422488 C252.249509,486.743175 252.462235,477.488097 252.588626,468.182125 L252.648027,463.200423 C252.666989,461.349718 252.681612,459.577823 252.692394,457.898031 L252.714104,452.359098 C252.714001,452.057256 252.954342,451.81665 253.250919,451.81665 Z"/><path id="Fill-79" fill="#FFF" d="M262.4665,455.64075 C262.4965,456.97575 261.679,458.07825 260.6395,458.10225 C259.6015,458.12475 258.7345,457.06125 258.703,455.72625 C258.6745,454.38975 259.492,453.28875 260.53,453.26475 C261.568,453.24075 262.435,454.30575 262.4665,455.64075"/><path id="Stroke-81" fill="#DD936F" fill-rule="nonzero" d="M329.067979,377.64497 C329.213689,377.386655 329.541215,377.29537 329.79953,377.441079 C330.029144,377.570599 330.126782,377.843776 330.043309,378.084306 L330.003421,378.17263 L314.104921,406.35763 C313.959211,406.615945 313.631685,406.70723 313.37337,406.561521 C313.143756,406.432001 313.046118,406.158824 313.129591,405.918294 L313.169479,405.82997 L329.067979,377.64497 Z"/><polygon id="Fill-83" fill="#597EF7" points="242.988 313.322 230.07 330.551 210.455 307.801 217.524 298.841"/><path id="Stroke-85" fill="#1D39C4" fill-rule="nonzero" d="M243.578827,314.245928 C243.949146,314.10685 244.362094,314.294308 244.501172,314.664627 L244.649001,315.094929 L244.795611,315.556416 C244.873083,315.807288 244.956733,316.08858 245.046244,316.401314 L245.230635,317.060525 C245.605068,318.429104 246.012985,320.09994 246.446907,322.096886 L246.668791,323.135751 C248.036845,329.651029 249.399161,338.186363 250.674261,349.000351 L250.910667,351.040941 C252.122774,361.689752 253.189575,373.980443 254.074023,388.030242 L254.159044,389.395395 C255.608797,412.921109 255.439233,433.100025 254.40774,448.225183 C254.380826,448.61984 254.039074,448.917955 253.644417,448.89104 C253.24976,448.864126 252.951645,448.522374 252.97856,448.127717 L253.080056,446.578272 C254.015597,431.694372 254.126029,412.149484 252.729256,389.483496 L252.558363,386.768729 C251.663716,372.855876 250.58853,360.69892 249.369987,350.180862 L249.251617,349.168098 C247.947095,338.104588 246.552634,329.445782 245.157237,322.91244 L245.047074,322.40106 C244.547238,320.100778 244.083868,318.244826 243.669044,316.795493 L243.50403,316.232364 C243.451756,316.058448 243.402245,315.898225 243.355594,315.751394 L243.160128,315.168273 C243.02105,314.797954 243.208508,314.385006 243.578827,314.245928 Z"/><path id="Stroke-87" fill="#1D39C4" fill-rule="nonzero" d="M297.232208,323.042387 C297.646054,323.025618 297.995687,323.346963 298.013134,323.760808 L298.042345,324.722013 C298.137568,328.737835 298.032598,333.335863 297.570846,337.709369 C297.282875,340.436904 296.871176,342.862131 296.318269,344.913793 L296.197,345.348 L296.238999,345.425434 L296.286357,345.525375 C296.40718,345.798139 296.518266,346.194443 296.628161,346.724299 C296.842641,347.758402 297.053846,349.318678 297.244007,351.29913 L297.331197,352.253004 C297.714291,356.655276 297.970816,362.526051 298.039262,369.286745 C298.22599,387.730682 297.053367,409.993663 294.245675,434.246406 L294.101,435.48 L294.294083,435.972745 L294.355512,436.136348 C294.600544,436.794491 294.845259,437.522035 295.073689,438.299532 C295.622115,440.16618 295.990499,442.019488 296.094829,443.764784 C296.268847,446.675875 295.695146,449.052221 294.150363,450.667731 C293.864097,450.967105 293.389342,450.97773 293.089969,450.691463 C292.790595,450.405197 292.77997,449.930442 293.066237,449.631069 C294.270286,448.371893 294.749016,446.388927 294.597502,443.85429 C294.50075,442.235759 294.153511,440.488834 293.634518,438.722363 C293.460156,438.128895 293.27581,437.565812 293.08963,437.043573 L292.949778,436.659715 C292.810802,436.286433 292.703798,436.020969 292.644729,435.883509 C292.592775,435.762608 292.573545,435.630165 292.588971,435.499481 C295.453547,411.231608 296.681554,388.918002 296.54872,370.387578 L296.539338,369.30193 C296.471271,362.578641 296.216461,356.746691 295.837182,352.386877 L295.750874,351.442499 C295.565467,349.511549 295.360915,348.000425 295.159419,347.028925 C295.107959,346.780814 295.057713,346.573904 295.011382,346.41342 L294.964,346.264 C294.703964,346.111012 294.534427,345.819882 294.596752,345.484394 L294.619609,345.391871 C295.275523,343.26506 295.756215,340.610451 296.079137,337.551876 C296.500555,333.560389 296.620002,329.361652 296.559794,325.614085 L296.521271,324.002967 C296.518762,323.931238 296.516466,323.871432 296.514466,323.823992 C296.497018,323.410146 296.818363,323.060513 297.232208,323.042387 Z"/><path id="Stroke-89" fill="#1D39C4" fill-rule="nonzero" d="M260.618003,336.374751 L260.46493,336.374246 C260.028726,336.37284 259.683346,336.74255 259.714403,337.177649 L261.620903,363.886649 C261.639006,364.140261 261.784366,364.367432 262.007056,364.490134 L276.536056,372.495634 C276.785349,372.632995 277.090913,372.617402 277.324929,372.455379 L288.456429,364.748379 C288.6385,364.622321 288.755554,364.422244 288.776225,364.20176 L288.847206,363.287453 L288.906106,362.37197 C288.932108,361.935969 288.957766,361.461089 288.982647,360.947124 L289.001155,360.554319 C289.233216,355.493518 289.305646,348.945017 289.122808,340.863287 C289.116274,340.574472 288.944441,340.315085 288.681044,340.196431 C285.093822,338.580472 279.369032,337.531627 272.278338,336.921739 C269.726945,336.702287 267.146774,336.554125 264.63975,336.464536 L263.083224,336.416109 C262.112467,336.390613 261.280619,336.37807 260.618003,336.374751 Z M263.088,363.373 L261.268,337.88 L262.477883,337.901818 C263.112552,337.916002 263.818896,337.93616 264.586182,337.963579 C267.069612,338.052325 269.625247,338.199078 272.149794,338.416221 L272.776201,338.471602 L274.006349,338.589502 C279.675169,339.162023 284.325107,340.048077 287.424684,341.292017 L287.633,341.378 L287.657267,342.540405 C287.789485,349.566215 287.722743,355.361912 287.526003,359.960333 L287.447038,361.606832 C287.42181,362.075874 287.396057,362.505929 287.370213,362.897204 L287.311,363.716 L276.853,370.957 L263.088,363.373 Z"/><path id="Fill-91" fill="#FFF" d="M244.08565,326.2023 C244.11715,327.5373 243.23815,328.6413 242.12515,328.6668 C241.01215,328.6908 240.08515,327.6288 240.05515,326.2938 C240.02515,324.9573 240.90265,323.8548 242.01565,323.8293 C243.12865,323.8038 244.05565,324.8658 244.08565,326.2023"/><path id="Fill-93" fill="#FFF" d="M247.462,350.72565 C247.4935,352.06065 246.6145,353.16465 245.5015,353.19015 C244.3885,353.21415 243.4615,352.15215 243.4315,350.81715 C243.4015,349.48065 244.279,348.37815 245.392,348.35265 C246.505,348.32715 247.432,349.39065 247.462,350.72565"/><path id="Fill-95" fill="#FFF" d="M249.6754,377.2917 C249.7054,378.6267 248.8279,379.7307 247.7134,379.7562 C246.6004,379.7802 245.6749,378.7182 245.6434,377.3832 C245.6134,376.0467 246.4924,374.9442 247.6054,374.9187 C248.7169,374.8932 249.6439,375.9552 249.6754,377.2917"/><path id="Fill-97" fill="#FFF" d="M250.6423,402.2724 C250.6723,403.6089 249.7948,404.7114 248.6803,404.7369 C247.5673,404.7609 246.6418,403.6989 246.6103,402.3639 C246.5818,401.0274 247.4593,399.9249 248.5723,399.8994 C249.6853,399.8739 250.6108,400.9374 250.6423,402.2724"/><path id="Fill-99" fill="#FFF" d="M250.98505,435.3333 C251.01505,436.6683 250.13755,437.7723 249.02305,437.7978 C247.91005,437.8218 246.98455,436.7598 246.95305,435.4248 C246.92455,434.0883 247.80205,432.9858 248.91505,432.9603 C250.02805,432.9348 250.95355,433.9968 250.98505,435.3333"/><path id="Stroke-101" fill="#1D39C4" fill-rule="nonzero" d="M210.242337,307.955469 C210.51508,307.721093 210.913604,307.728062 211.177508,307.956674 L211.252381,308.031887 L229.664,329.457 L242.60795,314.198865 C242.84058,313.92463 243.235268,313.869039 243.531748,314.053454 L243.617485,314.116 C243.89172,314.34863 243.947311,314.743318 243.762896,315.039798 L243.70035,315.125535 L230.21385,331.024035 C229.952726,331.33186 229.496066,331.358901 229.200705,331.104018 L229.124419,331.027513 L210.165919,308.965513 C209.908106,308.665495 209.942319,308.213283 210.242337,307.955469 Z"/><path id="Stroke-103" fill="#1D39C4" fill-rule="nonzero" d="M264.788963,308.557032 C264.913568,308.181596 265.318932,307.978257 265.694368,308.102863 C266.038518,308.217084 266.238058,308.567221 266.172947,308.913965 L266.148537,309.008268 L259.226037,329.865768 C259.068167,330.341432 258.492252,330.503081 258.11154,330.209779 L258.03317,330.139913 L243.17117,314.881913 C242.895159,314.598547 242.901121,314.145082 243.184487,313.86907 C243.439516,313.62066 243.832326,313.600648 244.10955,313.805704 L244.19733,313.882387 L258.237,328.296 L264.788963,308.557032 Z"/><path id="Stroke-105" fill="#597EF7" fill-rule="nonzero" d="M265.082024,462.089352 C265.375065,462.043692 265.649637,462.244233 265.695298,462.537274 L265.74751,462.890082 C265.78863,463.176007 265.834401,463.509359 265.883658,463.887036 L266.003906,464.84453 C266.103737,465.670043 266.202174,466.563354 266.295817,467.515418 C266.864754,473.299771 267.078066,479.244081 266.727525,484.800925 L266.661817,485.750673 C265.715431,498.29958 261.949845,506.253437 254.409169,507.331049 C254.115575,507.373006 253.843557,507.169013 253.801601,506.875419 C253.759644,506.581825 253.963637,506.309807 254.257231,506.267851 C261.291601,505.262593 264.858666,497.36734 265.655656,484.733308 C266.002074,479.24183 265.790721,473.352122 265.226975,467.620547 L265.113538,466.516734 C265.036692,465.800363 264.957695,465.123778 264.878285,464.491634 L264.748495,463.500095 L264.634102,462.702626 C264.588442,462.409585 264.788983,462.135013 265.082024,462.089352 Z"/><path id="Stroke-107" fill="#1D39C4" fill-rule="nonzero" d="M178.275231,327.295422 C178.483623,326.937448 178.942754,326.816188 179.300728,327.024581 L179.439313,327.108666 C179.574864,327.193491 179.759873,327.315371 179.989066,327.475593 C180.514496,327.842904 181.097425,328.292354 181.723337,328.827487 C183.502578,330.348676 185.278487,332.25462 186.93398,334.573313 C193.381905,343.604317 196.212511,356.044987 193.416072,372.322736 C193.345939,372.730969 192.958147,373.005054 192.549914,372.934922 C192.141681,372.864789 191.867596,372.476997 191.937728,372.068764 C194.666502,356.18489 191.928128,344.149586 185.713201,335.444921 C184.13111,333.229035 182.43818,331.412146 180.748582,329.967598 C180.25843,329.548535 179.798653,329.18718 179.377577,328.881628 L179.129642,328.704979 C178.843465,328.504922 178.644129,328.378003 178.546072,328.320919 C178.188098,328.112527 178.066838,327.653396 178.275231,327.295422 Z"/><path id="Stroke-109" fill="#DD936F" fill-rule="nonzero" d="M138.105462,387.710168 C138.403078,387.422075 138.877889,387.429796 139.165982,387.727412 L139.450654,388.012538 C139.576747,388.136394 139.733767,388.288343 139.920883,388.46622 L140.484985,388.994206 C140.976686,389.447644 141.522101,389.933862 142.1188,390.446554 C144.50853,392.499839 147.221041,394.553929 150.202444,396.47053 C158.81426,402.006653 167.869417,405.290143 176.919303,405.202086 C177.333497,405.198055 177.672534,405.530559 177.676671,405.944753 C177.680595,406.358947 177.348091,406.697984 176.933897,406.702014 C167.549995,406.793322 158.228325,403.413192 149.391312,397.7323 C146.348141,395.775991 143.581005,393.680535 141.141257,391.584274 L140.433459,390.967742 C139.978366,390.565722 139.557017,390.182245 139.170624,389.820533 L138.722848,389.396181 L138.088218,388.770688 C137.800125,388.473072 137.807846,387.998261 138.105462,387.710168 Z"/><path id="Stroke-111" fill="#DD936F" fill-rule="nonzero" d="M208.10788,252.947863 C208.217225,252.67218 208.529353,252.537335 208.805037,252.64668 L208.994827,252.729018 C209.107556,252.781186 209.245763,252.849942 209.403716,252.935687 C209.838545,253.171732 210.273117,253.458472 210.680809,253.799007 C212.17134,255.044013 212.924063,256.663871 212.478768,258.633046 C212.309504,259.37988 211.969147,259.780355 211.334038,260.164404 L211.059387,260.321267 C210.514852,260.623796 210.379369,260.773121 210.332265,261.238974 C210.241211,262.129459 210.649193,262.792448 211.428987,263.298521 C211.689824,263.467799 211.972826,263.604928 212.255978,263.71109 L212.436427,263.774686 C212.5154,263.800592 212.576445,263.817797 212.614834,263.82693 C212.903359,263.895571 213.08161,264.18511 213.01297,264.473634 C212.944329,264.762159 212.65479,264.94041 212.366266,264.87177 C211.973251,264.778271 211.411986,264.567837 210.844314,264.199428 C209.755448,263.492772 209.126687,262.471009 209.263774,261.130328 C209.34791,260.298234 209.670098,259.89384 210.379743,259.473018 L210.64434,259.323164 C211.146843,259.041799 211.327888,258.852077 211.431275,258.395907 C211.776101,256.871023 211.200602,255.63255 209.992306,254.623289 C209.643339,254.331804 209.267205,254.083624 208.891327,253.879579 L208.650841,253.754865 C208.545138,253.702824 208.462564,253.66624 208.409063,253.64502 C208.13338,253.535675 207.998535,253.223547 208.10788,252.947863 Z"/><path id="Stroke-113" fill="#597EF7" fill-rule="nonzero" d="M275.040406,526.916971 C275.336253,526.896181 275.592939,527.119159 275.613729,527.415006 C275.63244,527.681269 275.453699,527.91581 275.202091,527.975212 L275.115694,527.988329 L257.399194,529.233329 C257.103347,529.254119 256.846661,529.031141 256.825871,528.735294 C256.80716,528.469031 256.985901,528.23449 257.237509,528.175088 L257.323906,528.161971 L275.040406,526.916971 Z"/><path id="Fill-115" fill="#FFC999" d="M342.3151,353.6514 L352.7386,314.1009 C352.7386,314.1009 370.3981,281.8449 377.0191,283.6884 C383.1826,286.2564 369.5236,295.6449 366.9436,304.7154 C372.7576,304.1934 370.2706,312.9009 370.2706,312.9009 C370.2706,312.9009 374.9026,312.6489 373.7836,319.7274 C378.1321,322.1964 374.8306,330.3549 374.8306,330.3549 C374.8306,330.3549 366.5686,351.8439 357.2476,366.2439 C357.2476,366.2439 341.5771,378.8034 342.3151,353.6514"/><path id="Fill-117" fill="#FFC999" d="M344.5489,340.31145 C344.5489,340.31145 345.9664,326.78595 347.0839,319.88895 C348.2029,312.99345 345.0754,300.63045 350.1469,303.82845 C353.5579,305.98095 353.1049,313.37595 353.0824,318.82395 C353.0599,324.27345 362.0884,337.02345 355.6954,346.07745 C351.3754,352.19445 344.4049,353.11545 344.5489,340.31145"/><path id="Stroke-119" fill="#DD936F" fill-rule="nonzero" d="M367.306456,304.319229 C367.525007,304.519712 367.539654,304.859406 367.339171,305.077956 L367.023705,305.430739 L366.406572,306.144698 C366.3332,306.231152 366.258343,306.31989 366.182115,306.410822 C365.310758,307.450261 364.439407,308.561337 363.627097,309.697309 C362.825111,310.818846 362.124555,311.904646 361.55455,312.930665 C359.54154,316.554115 359.392659,318.907448 361.447193,319.721184 C361.72293,319.830395 361.857927,320.142456 361.748716,320.418193 C361.639505,320.69393 361.327444,320.828927 361.051707,320.719716 C358.133623,319.563956 358.325464,316.531554 360.615703,312.409088 C361.207272,311.344255 361.929341,310.225109 362.753475,309.072601 C363.583175,307.912309 364.471119,306.780076 365.359057,305.720857 L365.807867,305.191944 L366.547729,304.351944 C366.748212,304.133393 367.087906,304.118746 367.306456,304.319229 Z"/><path id="Stroke-121" fill="#DD936F" fill-rule="nonzero" d="M370.143914,312.837451 C370.32857,313.069529 370.290127,313.407358 370.058049,313.592014 L369.723469,313.865377 L369.29706,314.223787 C369.147796,314.350882 368.991731,314.485418 368.829844,314.626842 C367.904796,315.434956 366.979849,316.300646 366.118004,317.187872 C365.217344,318.115054 364.438641,319.012332 363.818713,319.857055 C362.063075,322.249314 361.784791,323.871048 363.136721,324.667089 C363.646324,324.967227 364.209342,325.042402 364.839804,324.912774 C365.852504,324.704555 366.98662,323.980745 368.142237,322.900619 C368.644637,322.431038 369.116669,321.926303 369.543341,321.421615 L369.906417,320.978239 C369.977949,320.88752 370.034558,320.813117 370.075129,320.75778 C370.250491,320.518602 370.586542,320.466868 370.82572,320.642229 C371.064898,320.817591 371.116632,321.153642 370.941271,321.39282 L370.670983,321.742242 C370.582992,321.851884 370.480154,321.977041 370.363516,322.115006 C369.911362,322.649833 369.411231,323.184614 368.875609,323.685247 C367.588469,324.888305 366.303727,325.708247 365.056102,325.964768 C364.175854,326.145754 363.341985,326.034415 362.59173,325.592541 C360.476969,324.347332 360.869359,322.060633 362.952861,319.221621 C363.605119,318.332845 364.415058,317.399574 365.347632,316.439537 C366.231797,315.529335 367.177577,314.644147 368.123255,313.81801 C368.454235,313.528869 368.761735,313.267612 369.037998,313.038573 L369.389351,312.751586 C369.621429,312.56693 369.959258,312.605373 370.143914,312.837451 Z"/><path id="Stroke-123" fill="#DD936F" fill-rule="nonzero" d="M372.147164,319.740206 C372.439237,319.688713 372.717752,319.883742 372.769244,320.175814 C372.820737,320.467887 372.625708,320.746402 372.333636,320.797894 C371.358871,320.969746 370.154118,321.855012 368.736266,323.586903 C365.747394,327.23451 365.141719,329.615019 366.169122,330.191171 C367.189226,330.76323 369.441619,329.687156 370.852833,327.589318 C371.225205,327.035769 372.072463,327.522618 371.781724,328.123074 C369.958934,331.887635 367.772764,334.417976 364.957501,336.398124 C364.390783,336.796732 363.803624,337.171171 363.14363,337.560276 L362.738473,337.79581 C362.479353,337.944455 362.21565,338.092376 361.90402,338.264396 L360.616227,338.970189 C356.132324,341.441559 354.386681,343.414118 353.489214,348.343242 C353.436089,348.635022 353.156488,348.82849 352.864708,348.775364 C352.572928,348.722239 352.37946,348.442638 352.432586,348.150858 C353.353462,343.093157 355.184331,340.845756 359.481969,338.375966 L361.814163,337.085395 C361.949044,337.009676 362.07723,336.936966 362.204057,336.864211 C363.006904,336.403654 363.68932,335.977056 364.339622,335.519658 C366.118574,334.268412 367.629382,332.789011 368.955051,330.875832 L369.05,330.734 L368.9703,330.780908 C367.824653,331.410507 366.660785,331.600576 365.793677,331.204027 L365.643803,331.127929 C363.762711,330.073041 364.541679,327.011432 367.905385,322.906379 C369.470536,320.994565 370.871525,319.965102 372.147164,319.740206 Z"/><path id="Stroke-125" fill="#DD936F" fill-rule="nonzero" d="M353.056884,311.479674 C353.32245,311.452825 353.56235,311.624306 353.629422,311.873979 L353.645176,311.959934 L354.68,322.192 L354.770205,322.341271 C354.894022,322.548203 355.031578,322.787541 355.179433,323.056644 C355.600729,323.82342 356.021635,324.677152 356.414582,325.596937 C357.546608,328.246711 358.225484,330.902724 358.220618,333.402698 C358.216974,335.251767 357.832898,336.944929 357.015519,338.439163 C356.873188,338.699355 356.546879,338.7949 356.286687,338.652569 C356.026495,338.510238 355.93095,338.183929 356.073281,337.923737 C356.799055,336.596965 357.143309,335.079352 357.146594,333.400597 C357.151158,331.067902 356.506557,328.545981 355.426936,326.018875 C355.048632,325.133366 354.643198,324.311017 354.238154,323.573818 L353.920283,323.012543 C353.830414,322.8593 353.757783,322.740811 353.705836,322.659791 C353.675465,322.612421 353.652823,322.560723 353.638588,322.506639 L353.623624,322.423966 L352.576624,312.067966 C352.546791,311.772893 352.761812,311.509506 353.056884,311.479674 Z"/></g></svg>