<svg xmlns="http://www.w3.org/2000/svg" xmlns:xlink="http://www.w3.org/1999/xlink" width="512" height="1024" version="1.1" viewBox="0 0 512 1024"><title>2.人物组件/8.程序员/站立/讲解</title><desc>Created with Sketch.</desc><defs><polygon id="path-1" points="0 .675 77.605 .675 77.605 129.038 0 129.038"/></defs><g id="2.人物组件/8.程序员/站立/讲解" fill="none" fill-rule="evenodd" stroke="none" stroke-width="1"><path id="Fill-1" fill="#FFC999" d="M346.67005,401.017 L346.67005,401.017 C340.70755,409.2715 329.33755,411.4345 320.76205,405.946 L243.06955,356.2375 C231.64105,348.9265 228.71005,333.514 236.65255,322.5175 C244.50355,311.6515 259.81405,309.4915 270.36505,317.761 L342.95155,374.6665 C351.06505,381.0265 352.70605,392.6605 346.67005,401.017"/><path id="Fill-3" fill="#597EF7" d="M289.12075,389.2711 L239.77075,357.9691 C229.35025,349.8691 229.34425,329.0926 237.62875,318.8176 L237.62875,318.8176 C245.91325,308.5441 261.01225,307.0606 271.13725,315.5266 L317.39725,354.2041 C317.39725,354.2041 303.55375,382.1626 289.12075,389.2711"/><path id="Fill-5" fill="#FFC999" d="M379.4218,290.36485 L379.4218,290.36485 C384.4108,292.94485 386.6863,298.84435 384.7228,304.10785 L350.2018,396.61435 C346.2358,407.23735 333.9718,412.12135 323.7898,407.13235 C313.8388,402.25585 310.0783,389.98435 315.5893,380.36935 L364.6903,294.70585 C367.6468,289.54735 374.1403,287.63335 379.4218,290.36485"/><polygon id="Fill-7" fill="#FFC999" points="210.319 311.492 222.815 297.854 218.876 252.971 183.931 256.226 184.106 300.641"/><path id="Fill-9" fill="#FFC999" d="M227.80825,248.5381 C227.80825,248.5381 232.99525,242.8321 235.36375,246.4936 C237.73075,250.1566 234.18925,263.6146 228.39625,264.1366 C220.65775,264.8341 227.80825,248.5381 227.80825,248.5381"/><path id="Fill-11" fill="#FFC999" d="M195.07345,283.73455 C195.07345,283.73455 206.74795,292.71355 221.54995,283.00555 C232.20595,276.01705 232.80445,251.88655 230.16745,234.27055 C228.67495,224.30155 223.89595,219.06205 214.04995,216.40255 C204.20245,213.74305 177.74995,214.46155 178.49245,243.90805 C179.32045,276.70705 195.07345,283.73455 195.07345,283.73455"/><path id="Stroke-13" fill="#DD936F" fill-rule="nonzero" d="M213.28914,239.43381 L213.385265,239.446144 C213.642707,239.502901 213.815921,239.735616 213.80639,239.99004 L213.794056,240.086165 L212.437,246.242 L216.263369,262.802673 C216.33227,263.100914 216.139081,263.38925 215.850613,263.449212 L215.76138,263.46013 L208.70988,263.73913 C208.413535,263.750855 208.163795,263.520125 208.15207,263.22378 C208.141517,262.95707 208.327353,262.728109 208.580661,262.676436 L208.66742,262.66597 L215.07,262.412 L211.363431,246.364427 C211.351454,246.312585 211.347282,246.259398 211.350922,246.206607 L211.362244,246.127935 L212.745244,239.854935 C212.802001,239.597493 213.034716,239.424279 213.28914,239.43381 Z"/><path id="Stroke-15" fill="#253368" fill-rule="nonzero" d="M206.508266,238.029187 C206.618316,238.812225 206.072751,239.536216 205.289713,239.646266 L200.583359,240.333122 L199.978483,240.419012 C195.388608,241.064366 192.600238,241.295513 190.93097,241.017786 C190.150959,240.88801 189.623838,240.150482 189.753614,239.37047 C189.875756,238.636342 190.536253,238.126228 191.263837,238.176949 L191.671182,238.22918 C192.876688,238.35564 195.077521,238.18531 198.353749,237.751073 L200.491934,237.453283 L204.891187,236.810634 C205.674225,236.700584 206.398216,237.246149 206.508266,238.029187 Z"/><path id="Stroke-17" fill="#FF7A46" fill-rule="nonzero" d="M203.012773,268.038701 C203.103651,267.63458 203.504927,267.380646 203.909049,267.471523 L204.176389,267.5242 L204.282279,267.543174 C204.604679,267.59988 204.985271,267.656886 205.421166,267.710288 C208.354047,268.069595 211.919514,268.07938 215.944686,267.505752 C216.354757,267.447313 216.734559,267.732366 216.792998,268.142436 C216.851437,268.552507 216.566384,268.932309 216.156314,268.990748 C211.993719,269.58396 208.296954,269.573815 205.238765,269.199156 L204.711132,269.129427 C204.544297,269.105671 204.386564,269.081489 204.238118,269.057131 L203.709511,268.962191 C203.655693,268.951439 203.612445,268.942284 203.579951,268.934977 C203.17583,268.844099 202.921896,268.442823 203.012773,268.038701 Z"/><path id="Fill-19" fill="#253368" d="M182.22595,256.4263 L176.14795,245.2558 C176.14795,245.2558 172.02295,229.0123 175.59745,221.8648 C181.14595,210.7738 194.60095,210.6658 202.49545,207.5158 C210.38995,204.3643 210.23395,201.6808 213.48445,202.0318 C216.73645,202.3813 229.53145,210.7498 231.21145,219.8488 C232.68895,227.8483 231.25345,248.3848 231.25345,248.3848 C231.25345,248.3848 228.45295,230.3203 226.56295,225.5833 C220.15945,223.1308 197.17345,223.6858 187.66945,226.9288 C187.66945,226.9288 187.02145,233.1268 186.67195,237.4888 C181.64545,241.3153 182.22595,256.4263 182.22595,256.4263"/><path id="Stroke-21" fill="#DD936F" fill-rule="nonzero" d="M221.734225,281.976264 C221.92749,281.751304 222.266527,281.725611 222.491486,281.918875 C222.716446,282.11214 222.742139,282.451177 222.548875,282.676136 C222.401926,282.847185 222.120661,283.130554 221.701866,283.488338 C221.013802,284.076163 220.182129,284.661989 219.203785,285.207525 C213.94058,288.142354 206.906528,288.76338 198.036015,285.656004 C197.756115,285.557954 197.608696,285.251565 197.706746,284.971665 C197.804796,284.691765 198.111185,284.544346 198.391085,284.642396 C206.970743,287.647885 213.685192,287.055076 218.680731,284.269501 C219.595076,283.75965 220.368714,283.214705 221.004247,282.671757 L221.260898,282.44615 C221.492715,282.236031 221.650146,282.074132 221.734225,281.976264 Z"/><path id="Stroke-23" fill="#393C68" fill-rule="nonzero" d="M213.055832,245.17809 C213.6475,245.136134 214.161154,245.581763 214.20311,246.173432 C214.242269,246.725655 213.856687,247.20992 213.324054,247.306146 L213.207768,247.32071 L208.025268,247.68821 C207.4336,247.730166 206.919946,247.284537 206.87799,246.692868 C206.838831,246.140645 207.224413,245.65638 207.757046,245.560154 L207.873332,245.54559 L213.055832,245.17809 Z"/><path id="Stroke-25" fill="#393C68" fill-rule="nonzero" d="M208.558103,248.778893 C209.643739,248.274023 210.756606,248.004272 211.851535,248.112456 C212.776153,248.203813 213.621186,248.567721 214.330697,249.229742 C214.764384,249.634399 214.787916,250.314011 214.383258,250.747697 C213.978601,251.181384 213.298989,251.204916 212.865303,250.800258 C212.510768,250.469455 212.108755,250.29633 211.64033,250.250047 C210.989715,250.185763 210.23172,250.369496 209.463869,250.726582 C209.05485,250.916795 208.74423,251.104793 208.587298,251.216629 C208.104254,251.560867 207.43361,251.448342 207.089371,250.965298 C206.745133,250.482254 206.857658,249.81161 207.340702,249.467371 C207.597204,249.284576 208.016794,249.030627 208.558103,248.778893 Z"/><path id="Stroke-27" fill="#253368" fill-rule="nonzero" d="M216.580742,236.251194 C219.055946,235.25277 221.56441,234.704837 223.965234,234.857318 C225.65682,234.964755 227.223236,235.42391 228.616712,236.282672 C229.289879,236.697527 229.499283,237.579544 229.084428,238.252712 C228.669573,238.925879 227.787556,239.135283 227.114388,238.720428 C226.140769,238.120413 225.027363,237.794046 223.783733,237.715061 C221.874663,237.593812 219.763956,238.054861 217.651931,238.906789 C217.118421,239.121991 216.617268,239.349534 216.157264,239.578968 L215.820113,239.751235 C215.497481,239.920112 215.274606,240.047616 215.16805,240.113143 C214.494487,240.527357 213.61267,240.317113 213.198457,239.64355 C212.784243,238.969987 212.994487,238.08817 213.66805,237.673957 L213.972903,237.493384 C214.583933,237.143529 215.477311,236.696285 216.580742,236.251194 Z"/><path id="Stroke-29" fill="#DD936F" fill-rule="nonzero" d="M213.08994,272.928558 C213.386015,272.911321 213.640005,273.137364 213.657242,273.43344 C213.672755,273.699908 213.491212,273.932287 213.238909,273.988663 L213.15236,274.000742 L208.92686,274.246742 C208.630785,274.263979 208.376795,274.037936 208.359558,273.74186 C208.344045,273.475392 208.525588,273.243013 208.777891,273.186637 L208.86444,273.174558 L213.08994,272.928558 Z"/><path id="Stroke-31" fill="#393C68" fill-rule="nonzero" d="M188.676431,246.61883 C189.268768,246.587699 189.774188,247.042645 189.80532,247.634981 C189.834376,248.187828 189.440004,248.664962 188.905701,248.751434 L188.789169,248.76387 L180.284169,249.21087 C179.691832,249.242001 179.186412,248.787055 179.15528,248.194719 C179.126224,247.641872 179.520596,247.164738 180.054899,247.078266 L180.171431,247.06583 L188.676431,246.61883 Z"/><path id="Fill-33" fill="#FFF" d="M189.27265,245.9749 L205.50865,245.0329 C206.64115,244.9669 207.61315,245.8294 207.67165,246.9619 C207.77815,249.0784 207.85615,252.4759 207.47515,255.4114 C207.02515,258.8719 204.06865,261.1474 200.59615,261.5104 C196.25965,261.9649 192.35815,262.1944 190.25365,260.0524 C187.04815,256.7884 187.45465,251.0854 187.34515,248.0839 C187.30465,246.9829 188.17165,246.0379 189.27265,245.9749"/><path id="Stroke-35" fill="#253368" fill-rule="nonzero" d="M205.487836,244.675756 L189.251928,245.617751 C187.955997,245.691905 186.940012,246.802234 186.987642,248.097051 L187.005048,248.804426 L187.023613,250.086332 C187.05747,251.991046 187.12663,253.055006 187.336149,254.364791 C187.734503,256.855052 188.563585,258.842064 189.998406,260.30307 C191.908472,262.247172 194.700739,262.487996 200.633441,261.866201 C204.423557,261.469999 207.37483,258.957118 207.829913,255.457533 C208.153576,252.963796 208.18314,250.008211 208.028924,246.943445 C207.96024,245.613798 206.819607,244.598143 205.487836,244.675756 Z M205.529372,245.390049 C206.416566,245.338345 207.181596,245.975253 207.300612,246.835068 L207.314352,246.979879 C207.466575,250.005036 207.437389,252.922852 207.120376,255.365354 C206.710832,258.514741 204.037514,260.790955 200.558955,261.154589 L199.782774,261.232557 C194.611135,261.727757 192.121591,261.443163 190.508841,259.801676 C189.193148,258.461971 188.419582,256.608012 188.042667,254.251773 L187.972685,253.784451 C187.823294,252.709356 187.767984,251.707578 187.738877,250.066243 L187.70636,248.177897 C187.705196,248.142151 187.703967,248.106629 187.702662,248.070857 C187.669376,247.165979 188.384879,246.384034 189.293087,246.332066 L205.529372,245.390049 Z"/><path id="Stroke-37" fill="#253368" fill-rule="nonzero" d="M200.61528,249.330693 C201.010196,249.307873 201.348837,249.609515 201.371657,250.00443 C201.501309,252.248128 199.989924,254.19669 197.939505,254.317302 C195.889422,254.436011 194.162717,252.674659 194.033043,250.43057 C194.010223,250.035654 194.311865,249.697013 194.70678,249.674193 C195.101696,249.651373 195.440337,249.953015 195.463157,250.34793 C195.549495,251.842061 196.64297,252.957478 197.85604,252.887236 C199.070346,252.815806 200.027886,251.581292 199.941543,250.08707 C199.918723,249.692154 200.220365,249.353513 200.61528,249.330693 Z"/><path id="Fill-39" fill="#FFF" d="M214.5844,244.32475 L232.9654,243.25825 C233.8024,245.90425 233.7484,256.32925 230.7229,258.73825 C226.6249,261.19675 218.0344,260.73475 216.5779,258.55675 C214.3669,255.25225 213.2419,248.76925 213.1144,245.95825 C213.0754,245.10175 213.7279,244.37425 214.5844,244.32475"/><path id="Stroke-41" fill="#253368" fill-rule="nonzero" d="M232.944678,242.901101 L214.563678,243.967601 C213.512264,244.028365 212.709085,244.921795 212.75702,245.974523 C212.937649,249.956862 214.365064,255.892834 216.280567,258.755692 C217.937776,261.233825 226.838576,261.485751 230.906944,259.045028 C233.648023,256.866476 234.523032,246.996191 233.306492,243.150354 C233.257119,242.994274 233.108105,242.891618 232.944678,242.901101 Z M232.7,243.632 L232.746729,243.806711 C233.693849,247.686361 232.819717,256.611394 230.500059,258.458381 C226.759594,260.698752 218.280205,260.458754 216.875282,258.357881 C215.046157,255.624121 213.647033,249.805795 213.471783,245.94204 C213.441642,245.280105 213.945129,244.720043 214.605041,244.681904 L232.7,243.632 Z"/><path id="Stroke-43" fill="#253368" fill-rule="nonzero" d="M223.556459,247.998876 C223.951355,247.97574 224.290238,248.277112 224.313374,248.672009 C224.444859,250.916254 222.932995,252.866734 220.882755,252.985452 C218.832521,253.10417 217.104455,251.342587 216.974793,249.09872 C216.951973,248.703804 217.253615,248.365163 217.64853,248.342343 C218.043446,248.319523 218.382087,248.621165 218.404907,249.01608 C218.491222,250.509813 219.58583,251.62565 220.799945,251.555348 C222.01342,251.485082 222.970861,250.249872 222.883326,248.755791 C222.86019,248.360895 223.161562,248.022012 223.556459,247.998876 Z"/><path id="Stroke-45" fill="#393C68" fill-rule="nonzero" d="M207.638438,244.474842 C208.231292,244.456002 208.727168,244.921333 208.746008,245.514188 C208.763592,246.067519 208.359409,246.536371 207.823427,246.611742 L207.706662,246.621758 L187.551162,247.262258 C186.958308,247.281098 186.462432,246.815767 186.443592,246.222912 C186.426008,245.669581 186.830191,245.200729 187.366173,245.125358 L187.482938,245.115342 L207.638438,244.474842 Z"/><path id="Stroke-47" fill="#393C68" fill-rule="nonzero" d="M233.061948,242.583036 C233.653564,242.540343 234.167772,242.985333 234.210464,243.576948 C234.250311,244.129123 233.865332,244.613867 233.332819,244.710756 L233.216552,244.725464 L213.511052,246.147464 C212.919436,246.190157 212.405228,245.745167 212.362536,245.153552 C212.322689,244.601377 212.707668,244.116633 213.240181,244.019744 L213.356448,244.005036 L233.061948,242.583036 Z"/><path id="Fill-49" fill="#FFC999" d="M179.3725,247.3384 C177.2545,245.2354 174.019,244.7029 171.784,247.2139 C168.1825,251.2594 171.859,265.9894 181.7815,266.4274 C185.536,265.8379 182.6785,250.6189 179.3725,247.3384"/><path id="Fill-51" fill="#4E5C93" d="M140.13295,850.9159 C120.90895,859.0204 111.04345,847.3504 111.04345,847.3504 C111.04345,847.3504 110.49895,843.2689 113.86195,838.7029 C118.07095,832.9909 127.44595,830.9584 138.56095,820.0279 C147.09895,811.6309 152.73295,798.5644 152.73295,798.5644 C158.90095,789.4609 178.56745,800.2999 178.56745,800.2999 C178.56745,800.2999 178.90045,819.1084 178.50445,829.8694 C178.50445,829.8694 177.79195,835.7944 163.04095,837.9139 C152.00545,839.4994 151.64545,846.0619 140.13295,850.9159"/><path id="Fill-53" fill="#4E5C93" d="M251.8852,795.232 C251.8852,795.232 251.0587,822.6625 253.2487,829.8865 C259.5862,837.0445 265.1737,833.725 273.5857,840.85 C281.9977,847.975 299.6962,859.786 315.6262,847.4335 C317.5672,839.1055 312.2827,835.3585 305.7382,830.938 C278.7592,812.71 283.4707,809.416 278.5552,798.835 C271.0147,782.6005 251.7022,783.826 251.8852,795.232"/><path id="Fill-55" fill="#597EF7" d="M169.1749,431.734 C169.1749,431.734 160.2754,387.1825 156.3364,370.7245 C152.3989,354.265 146.4169,314.86 153.2164,311.9095 C160.0174,308.959 176.2984,302.6935 176.2984,302.6935 C176.2984,302.6935 192.4504,304.768 207.0409,307.8745 C218.5894,310.3345 215.3104,299.491 229.3129,301.804 C235.2424,302.785 253.8529,305.7175 263.1439,310.786 C266.8699,312.8185 266.2684,325.1605 266.7979,337.1575 C268.4869,375.4495 259.1434,434.119 259.1434,434.119 C259.1434,434.119 264.6844,439.813 257.9674,447.1975 C254.6389,450.655 240.2284,449.4835 221.7814,449.5285 C200.7829,449.5795 176.0824,452.2165 171.4999,448.2235 C162.8914,440.7235 169.1749,431.734 169.1749,431.734"/><polygon id="Fill-57" fill="#597EF7" points="223.37 296.05 209.293 309.565 226.186 321.391 233.506 303.37"/><path id="Fill-59" fill="#ADC6FF" d="M184.88245,804.6571 L214.47445,524.5321 L215.65345,523.9516 L246.71545,805.3021 C246.71545,805.3021 269.87545,810.6691 282.11395,803.3236 C282.59095,748.7716 269.74645,571.5676 264.31045,490.6426 C263.43595,477.6136 259.43095,459.9046 258.63145,454.9816 C221.44795,448.6981 171.07345,457.7596 171.07345,457.7596 L168.89695,464.2921 C168.47395,465.5626 168.21745,466.8841 168.13645,468.2206 L144.78895,801.8911 C144.78895,801.8911 167.67445,810.1756 184.88245,804.6571"/><path id="Stroke-61" fill="#597EF7" fill-rule="nonzero" d="M234.610472,513.106679 C234.876934,512.976463 235.198504,513.086911 235.328721,513.353372 C235.444469,513.590227 235.370062,513.870624 235.164954,514.021466 L235.082028,514.071621 L212.672028,525.023121 C212.405566,525.153337 212.083996,525.042889 211.953779,524.776428 C211.838031,524.539573 211.912438,524.259176 212.117546,524.108334 L212.200472,524.058179 L234.610472,513.106679 Z"/><path id="Fill-63" fill="#ADC6FF" d="M171.2755,448.10695 C171.2755,448.10695 218.623,441.10945 257.9815,448.00345 C258.3055,451.49245 258.643,455.78845 258.643,455.78845 C258.643,455.78845 224.965,458.10745 170.512,459.44995 C170.6635,449.98045 171.2755,448.10695 171.2755,448.10695"/><path id="Stroke-65" fill="#597EF7" fill-rule="nonzero" d="M186.613447,458.108855 C203.860549,456.705742 221.564382,456.165818 238.097404,456.991118 C245.045618,457.337961 251.600855,457.923545 257.698333,458.768179 C257.992104,458.808873 258.197265,459.080011 258.156571,459.373783 C258.115877,459.667554 257.844739,459.872715 257.550967,459.832021 C251.486434,458.991951 244.962157,458.409132 238.043858,458.063782 C221.56401,457.241137 203.904613,457.779706 186.700533,459.179319 L183.969771,459.409507 C181.296305,459.642854 178.797542,459.884812 176.498801,460.127613 L173.920629,460.409846 L172.084924,460.625898 C171.909668,460.647383 171.776352,460.66411 171.686165,460.675711 C171.392012,460.713551 171.122879,460.505768 171.085039,460.211615 C171.047199,459.917462 171.254982,459.648329 171.549135,459.610489 L172.608637,459.481027 C173.349745,459.393 174.196633,459.296374 175.143304,459.192994 L177.161543,458.97846 C180.032778,458.681248 183.198798,458.386649 186.613447,458.108855 Z"/><path id="Stroke-67" fill="#597EF7" fill-rule="nonzero" d="M186.423697,446.284355 C203.670799,444.881242 221.374632,444.341318 237.907654,445.166618 C244.855868,445.513461 251.411105,446.099045 257.508583,446.943679 C257.802354,446.984373 258.007515,447.255511 257.966821,447.549283 C257.926127,447.843054 257.654989,448.048215 257.361217,448.007521 C251.296684,447.167451 244.772407,446.584632 237.854108,446.239282 C221.37426,445.416637 203.714863,445.955206 186.510783,447.354819 L184.677611,447.507554 C181.965635,447.738891 179.425549,447.979704 177.082671,448.222221 L174.160453,448.53682 L171.496415,448.851211 C171.202262,448.889051 170.933129,448.681268 170.895289,448.387115 C170.857449,448.092962 171.065232,447.823829 171.359385,447.785989 L172.418887,447.656527 C173.036477,447.583171 173.727525,447.503844 174.488562,447.419613 L176.971793,447.15396 C179.843028,446.856748 183.009048,446.562149 186.423697,446.284355 Z"/><path id="Stroke-69" fill="#597EF7" fill-rule="nonzero" d="M218.713621,447.021381 C219.010107,447.014504 219.256423,447.248886 219.263785,447.545371 L219.323062,450.347362 C219.346036,451.549903 219.368742,452.875056 219.390253,454.309962 C219.568512,466.200899 219.579253,478.816295 219.312511,490.636194 L219.246429,493.325325 C218.955664,504.238827 218.428337,513.389082 217.62531,520.251116 C217.590839,520.545683 217.324101,520.756532 217.029534,520.72206 C216.734967,520.687589 216.524118,520.420851 216.55859,520.126284 L216.685716,518.999511 C217.475764,511.736808 217.979955,502.081277 218.238785,490.611963 C218.484686,479.71553 218.494459,468.138842 218.354447,457.079441 L218.307094,453.718514 L218.190115,447.572029 C218.182754,447.275543 218.417136,447.029227 218.713621,447.021381 Z"/><path id="Fill-71" fill="#FFF" d="M227.9203,450.9058 C227.9413,452.2408 227.1163,453.3373 226.0768,453.3553 C225.0388,453.3718 224.1793,452.3023 224.1583,450.9658 C224.1373,449.6308 224.9608,448.5343 226.0003,448.5163 C227.0398,448.4998 227.8993,449.5693 227.9203,450.9058"/><polygon id="Fill-73" fill="#597EF7" points="209.369 308.463 196.338 325.608 176.87 302.73 183.999 293.817"/><path id="Stroke-75" fill="#1D39C4" fill-rule="nonzero" d="M209.954108,309.390849 C210.325326,309.254191 210.737042,309.444339 210.873701,309.815558 L211.008763,310.215844 L211.142476,310.643742 C211.189576,310.798723 211.239178,310.966142 211.291194,311.14627 L211.371019,311.426026 C211.697728,312.584333 212.055257,314.008661 212.437052,315.719459 L212.647671,316.681155 C213.925571,322.624284 215.202127,330.481641 216.397463,340.501236 L216.715387,343.235119 C217.999372,354.563442 219.102048,367.870479 219.972239,383.314638 L220.044216,384.606602 C221.341055,408.147049 221.040738,428.342266 219.911304,443.437939 C219.88179,443.832411 219.538082,444.128267 219.143611,444.098754 C218.749139,444.06924 218.453283,443.725532 218.482796,443.331061 L218.594325,441.784462 C219.608138,427.186812 219.854769,408.050485 218.678276,385.876198 L218.613884,384.685392 C217.734325,368.717091 216.60848,355.01165 215.292114,343.397442 L215.076988,341.53236 C213.857408,331.142373 212.551584,323.048679 211.247181,316.98229 L211.039489,316.0339 C210.697403,314.500859 210.375989,313.204841 210.080257,312.13055 L209.992312,311.8149 C209.887262,311.442456 209.79193,311.121463 209.707022,310.849768 L209.561321,310.401177 C209.547427,310.360584 209.536757,310.330429 209.529399,310.310442 C209.392741,309.939224 209.582889,309.527508 209.954108,309.390849 Z"/><path id="Stroke-77" fill="#1D39C4" fill-rule="nonzero" d="M266.90147,334.355796 C267.250812,334.063276 267.742706,334.115705 268.027538,334.461548 C268.148566,334.6085 268.213703,334.773926 268.265303,334.988772 C268.324264,335.234266 268.367368,335.577754 268.398353,336.028294 L268.412853,336.262527 C268.465502,337.209414 268.474159,338.585881 268.438384,340.348911 L268.418717,341.189909 C268.301178,345.66025 267.939533,352.065005 267.357182,359.75592 L267.139696,362.559549 C265.685695,380.883225 263.258967,403.629563 260.000204,428.342364 L259.652,430.958 L259.785124,431.299819 L259.900262,431.609616 C260.138039,432.260255 260.375517,432.979845 260.597182,433.749213 C261.135421,435.617355 261.494662,437.472924 261.590961,439.219508 C261.751825,442.137129 261.16665,444.511948 259.613796,446.115255 C259.338589,446.399403 258.885143,446.406652 258.600995,446.131446 C258.316847,445.856239 258.309598,445.402793 258.584804,445.118645 C259.809072,443.854599 260.30163,441.85565 260.160633,439.29837 C260.070994,437.67256 259.731384,435.918396 259.220675,434.145804 C259.051113,433.557279 258.871847,432.999133 258.690795,432.481649 L258.446891,431.810888 C258.363913,431.591436 258.299042,431.42939 258.257927,431.331986 C258.208217,431.214219 258.19093,431.085294 258.207859,430.958591 L258.763348,426.760037 C261.987496,402.146557 264.377508,379.546446 265.79277,361.416039 L265.984236,358.910201 C266.495911,352.058501 266.827225,346.273833 266.961061,342.036417 L267.005032,340.375604 C267.038827,338.744773 267.034349,337.453608 266.992806,336.544938 L266.982562,336.342055 C266.966277,336.049165 266.945681,335.806785 266.92233,335.620268 L266.897,335.448 L266.88605,335.440944 L266.812146,335.36478 C266.558189,335.061491 266.59818,334.609753 266.90147,334.355796 Z"/><path id="Stroke-79" fill="#1D39C4" fill-rule="nonzero" d="M230.396927,331.254646 L229.412827,331.339348 C229.094621,331.368098 228.786488,331.397291 228.489166,331.426709 L227.037179,331.581568 L226.593035,331.634881 C226.200259,331.685206 225.914281,332.032212 225.939924,332.427367 L227.673924,359.148367 C227.690389,359.402084 227.834272,359.630184 228.056156,359.754324 L242.531156,367.852824 C242.779538,367.991789 243.085177,367.978189 243.320234,367.81771 L254.501234,360.18421 C254.705457,360.044783 254.827829,359.813652 254.828348,359.566374 L254.818123,354.703304 L254.801017,351.601766 C254.765816,346.228605 254.699863,340.248173 254.595753,333.766255 C254.591113,333.477376 254.420953,333.216848 254.158303,333.096484 C251.33502,331.80267 247.256916,331.122342 242.231671,330.93092 C238.435611,330.78632 234.375782,330.928839 230.396927,331.254646 Z M242.709082,332.452268 C246.954005,332.647205 250.448043,333.213687 252.933259,334.203747 L253.103,334.273 L253.197286,340.859912 C253.240302,344.283367 253.272132,347.535643 253.294092,350.597902 L253.324423,356.392822 L253.328,359.168 L242.858,366.316 L229.144,358.644 L227.482,333.04 L227.79118,333.006773 C228.603681,332.919162 229.519763,332.831493 230.519344,332.749643 C234.443236,332.428336 238.446227,332.287812 242.174575,332.429833 L242.709082,332.452268 Z"/><path id="Fill-81" fill="#FFF" d="M210.38245,321.35035 C210.40345,322.68685 209.51845,323.78335 208.40545,323.80135 C207.29245,323.81935 206.37295,322.75135 206.35045,321.41485 C206.32945,320.07985 207.21445,318.98185 208.32745,318.96385 C209.44195,318.94585 210.36145,320.01385 210.38245,321.35035"/><path id="Fill-83" fill="#FFF" d="M213.5992,345.8953 C213.6202,347.2303 212.7352,348.3283 211.6222,348.3463 C210.5092,348.3643 209.5897,347.2963 209.5672,345.9598 C209.5462,344.6248 210.4312,343.5268 211.5442,343.5088 C212.6587,343.4908 213.5782,344.5588 213.5992,345.8953"/><path id="Fill-85" fill="#FFF" d="M215.63905,372.47485 C215.66005,373.81135 214.77505,374.90785 213.66205,374.92585 C212.54905,374.94385 211.62955,373.87585 211.60705,372.53935 C211.58605,371.20435 212.47105,370.10635 213.58405,370.08835 C214.69855,370.07035 215.61805,371.13985 215.63905,372.47485"/><path id="Fill-87" fill="#FFF" d="M216.44395,397.4617 C216.46495,398.7967 215.57995,399.8947 214.46695,399.9127 C213.35395,399.9307 212.43445,398.8627 212.41195,397.5262 C212.39095,396.1912 213.27595,395.0932 214.38895,395.0752 C215.50195,395.0572 216.42145,396.1252 216.44395,397.4617"/><path id="Fill-89" fill="#FFF" d="M216.57145,430.52365 C216.59245,431.86015 215.70745,432.95665 214.59445,432.97465 C213.48145,432.99265 212.56195,431.92465 212.53945,430.58815 C212.51845,429.25315 213.40345,428.15515 214.51645,428.13715 C215.63095,428.11915 216.55045,429.18715 216.57145,430.52365"/><path id="Stroke-91" fill="#1D39C4" fill-rule="nonzero" d="M176.658505,302.883574 C176.932778,302.650989 177.331247,302.660567 177.593648,302.890903 L177.668026,302.966605 L195.938,324.511 L208.981588,309.337957 C209.216004,309.065248 209.611048,309.012236 209.906316,309.198583 L209.991643,309.261688 C210.264352,309.496104 210.317364,309.891148 210.131017,310.186416 L210.067912,310.271743 L196.477912,326.081743 C196.21478,326.387859 195.757946,326.411913 195.464258,326.155098 L195.388474,326.078095 L176.575474,303.893095 C176.31963,303.591395 176.356805,303.139417 176.658505,302.883574 Z"/><path id="Stroke-93" fill="#1D39C4" fill-rule="nonzero" d="M231.195994,303.853245 C231.31598,303.476308 231.718817,303.268008 232.095755,303.387994 C232.441281,303.497982 232.645105,303.845642 232.584256,304.193159 L232.561006,304.287755 L226.868506,322.170755 C226.727831,322.612684 226.217302,322.798861 225.829824,322.575148 L225.748856,322.520879 L209.620856,310.094879 C209.307501,309.853451 209.249193,309.403711 209.490621,309.090356 C209.710101,308.805488 210.101739,308.731402 210.406561,308.901675 L210.495144,308.960121 L225.813,320.762 L231.195994,303.853245 Z"/><path id="Stroke-95" fill="#597EF7" fill-rule="nonzero" d="M230.49473,457.371126 C230.788062,457.327373 231.061322,457.529698 231.105074,457.82303 L231.243688,458.847964 L231.276741,459.110332 C231.404827,460.139082 231.532853,461.303287 231.652313,462.579881 C232.197793,468.409057 232.383609,474.422221 231.995635,480.045064 C231.090489,493.163213 227.27356,501.486756 219.52692,502.541838 C219.233056,502.581861 218.962386,502.376083 218.922362,502.08222 C218.882339,501.788356 219.088117,501.517686 219.38198,501.477662 C226.432404,500.517405 230.050973,492.626423 230.924183,479.971134 C231.307609,474.414199 231.12349,468.455964 230.582985,462.679946 L230.479627,461.623328 C230.40961,460.937919 230.337633,460.291236 230.265281,459.687608 L230.147029,458.741362 L230.042826,457.98147 C229.999073,457.688138 230.201398,457.414878 230.49473,457.371126 Z"/><path id="Stroke-97" fill="#DD936F" fill-rule="nonzero" d="M174.901951,249.373041 C175.013187,249.098114 175.326232,248.965416 175.601159,249.076651 L175.78937,249.15982 C175.901154,249.212461 176.038194,249.281764 176.194807,249.368087 C176.625901,249.605702 177.056725,249.893692 177.460873,250.234944 C178.947998,251.49063 179.69364,253.117633 179.234785,255.08712 C179.061239,255.833161 178.718326,256.231408 178.080293,256.611306 L177.805477,256.765801 C177.257791,257.06519 177.121111,257.213564 177.070626,257.678289 C176.973937,258.570764 177.379714,259.237638 178.159206,259.74893 C178.418386,259.918934 178.699555,260.057076 178.980854,260.164411 L179.232399,260.252108 C179.276421,260.265754 179.31183,260.275593 179.337234,260.281802 C179.625333,260.35221 179.801806,260.642836 179.731398,260.930934 C179.66099,261.219033 179.370364,261.395506 179.082266,261.325098 C178.691735,261.229657 178.134071,261.01687 177.57015,260.646977 C176.482297,259.933422 175.857303,258.906278 176.002891,257.562454 C176.093215,256.731007 176.418217,256.329304 177.131485,255.913005 L177.396273,255.765424 C177.900787,255.487446 178.082768,255.299226 178.188757,254.843602 C178.544171,253.318102 177.973915,252.073796 176.767984,251.055541 C176.42196,250.763368 176.049029,250.514078 175.676367,250.30867 C175.455135,250.186729 175.286701,250.107999 175.198341,250.072249 C174.923414,249.961013 174.790716,249.647968 174.901951,249.373041 Z"/><path id="Stroke-99" fill="#597EF7" fill-rule="nonzero" d="M240.029845,522.262487 C240.325821,522.243624 240.581049,522.468269 240.599913,522.764245 C240.61689,523.030624 240.436625,523.263996 240.184636,523.321758 L240.098155,523.334313 L222.375655,524.463813 C222.079679,524.482676 221.824451,524.258031 221.805587,523.962055 C221.78861,523.695676 221.968875,523.462304 222.220864,523.404542 L222.307345,523.391987 L240.029845,522.262487 Z"/><path id="Fill-101" fill="#FFC999" d="M363.56995,297.2569 C363.56995,297.2569 378.99895,251.2639 396.46795,240.1009 C401.66845,240.2929 396.79195,247.1434 393.17245,252.7489 C391.32145,255.6154 390.10045,259.2364 390.10045,259.2364 C390.10045,259.2364 397.23295,258.4909 395.86495,264.5449 C401.57995,264.2689 399.51145,270.6649 399.51145,270.6649 C399.51145,270.6649 403.90495,270.6739 402.49195,276.6154 C401.52145,280.6999 396.01795,285.5209 394.75645,289.8184 C389.89195,306.3904 381.90145,307.3069 378.69295,307.8154 C370.57195,309.0994 365.58595,306.0079 363.56995,297.2569"/><path id="Stroke-103" fill="#DD936F" fill-rule="nonzero" d="M373.593236,276.48776 L379.846942,262.945341 L380.002941,262.359019 C381.386606,257.390014 383.579362,255.356149 385.457318,257.149972 C387.072469,258.692764 387.357856,262.630403 385.911265,266.209846 C383.031475,273.33419 382.741025,276.631298 383.776416,280.518988 L384.118433,281.762557 C384.310863,282.498782 384.422134,283.089974 384.468437,283.716988 C384.667446,286.407485 384.536139,288.912652 383.787344,291.329462 C382.693434,294.860166 380.431158,297.348144 376.754355,298.352134 C376.468252,298.430258 376.172989,298.261657 376.094866,297.975555 C376.016742,297.689452 376.185343,297.394189 376.471445,297.316066 C382.289793,295.727304 383.896334,290.542036 383.397358,283.796148 C383.362357,283.322177 383.28397,282.864556 383.150638,282.316315 L383.0034,281.750537 C382.956281,281.578173 382.897489,281.368256 382.809733,281.056361 L382.672535,280.54127 C381.655535,276.529079 382.011511,272.991655 384.915522,265.807388 C386.213671,262.59525 385.96157,259.116866 384.715482,257.926603 C383.710298,256.966452 382.225566,258.350191 381.01795,262.691985 L380.855064,263.30244 L374.568564,276.93744 C374.444388,277.20677 374.125389,277.32444 373.85606,277.200264 C373.616656,277.089885 373.497082,276.825572 373.560678,276.57904 L373.593236,276.48776 Z"/><path id="Stroke-105" fill="#DD936F" fill-rule="nonzero" d="M396.10161,264.063241 C396.367954,264.193696 396.478114,264.515366 396.347659,264.78171 L396.143946,265.186753 C395.980982,265.505952 395.795012,265.861328 395.589112,266.243903 C395.000601,267.337389 394.369613,268.431118 393.720177,269.453865 C393.024907,270.548793 392.348663,271.497918 391.703384,272.260279 C390.387416,273.815025 389.237558,274.57642 388.184124,274.253952 C385.817788,273.529117 385.091382,271.786974 385.68396,269.522729 C385.908363,268.665285 386.311028,267.764854 386.840603,266.850669 C387.129722,266.351574 387.43887,265.879345 387.748223,265.44779 L387.995547,265.11149 C388.066305,265.018036 388.124554,264.943825 388.16781,264.890646 C388.354954,264.66057 388.693178,264.625766 388.923254,264.81291 C389.15333,265.000054 389.188134,265.338278 389.00099,265.568354 L388.78026,265.855228 C388.732136,265.920043 388.678841,265.992988 388.62112,266.073511 C388.330881,266.478402 388.040435,266.922063 387.769934,267.389018 C387.284831,268.226433 386.919701,269.04293 386.722967,269.794649 C386.264512,271.54641 386.74075,272.688575 388.498582,273.227019 C388.977603,273.373653 389.8338,272.806709 390.883615,271.56641 C391.493164,270.846262 392.14241,269.935028 392.813521,268.878146 C393.447703,267.879422 394.066232,266.807289 394.643381,265.734914 L394.931339,265.193043 L395.383141,264.30929 C395.513596,264.042946 395.835266,263.932786 396.10161,264.063241 Z"/><path id="Stroke-107" fill="#DD936F" fill-rule="nonzero" d="M398.736121,270.802414 C398.831244,270.521506 399.136078,270.370897 399.416986,270.466021 C399.697894,270.561144 399.848503,270.865978 399.753379,271.146886 L399.632125,271.482908 L399.472718,271.895869 C399.415321,272.040234 399.353689,272.19101 399.287896,272.347299 C398.911783,273.24074 398.476651,274.134518 397.986303,274.97178 C396.463411,277.572096 394.743992,279.107922 392.782448,278.952981 C390.853032,278.800518 389.951963,277.538612 389.900289,275.679291 C389.881476,275.002345 389.974746,274.289148 390.141112,273.581768 C390.231943,273.195562 390.323491,272.89494 390.387041,272.717019 C390.486801,272.437724 390.794086,272.292181 391.073381,272.391941 C391.352676,272.491701 391.498219,272.798986 391.398459,273.078281 L391.338873,273.259508 C391.294061,273.405155 391.240484,273.598485 391.186587,273.82765 C391.039766,274.451923 390.957975,275.077349 390.973875,275.649454 C391.011751,277.01231 391.559188,277.778971 392.867035,277.882317 C394.28272,277.994141 395.727292,276.703815 397.059543,274.429017 C397.523824,273.636264 397.938941,272.783598 398.298031,271.930594 L398.474453,271.499706 L398.695065,270.919208 C398.713423,270.868179 398.727137,270.828942 398.736121,270.802414 Z"/><path id="Stroke-109" fill="#DD936F" fill-rule="nonzero" d="M402.772391,275.210915 C403.060455,275.281464 403.236785,275.572177 403.166235,275.860241 L403.084112,276.167376 L402.93294,276.676331 C402.90479,276.766407 402.875158,276.858946 402.844043,276.95371 C402.577142,277.766573 402.255802,278.579891 401.878086,279.342611 C400.477531,282.170741 398.659589,283.64361 396.402881,282.7784 C394.804384,282.165433 394.177686,281.018314 394.419151,279.602271 C394.537359,278.909055 394.853677,278.193032 395.305265,277.475145 C395.50302,277.160774 395.714203,276.866628 395.925647,276.599867 L396.124355,276.357494 C396.160809,276.314772 396.191705,276.279722 396.2162,276.252838 C396.415941,276.033608 396.755583,276.017809 396.974812,276.21755 C397.194042,276.417291 397.209841,276.756933 397.0101,276.976162 L396.888046,277.117982 C396.85262,277.160663 396.812089,277.210516 396.767315,277.267003 C396.578757,277.504891 396.389937,277.767888 396.214356,278.047009 C395.831361,278.655856 395.568622,279.250596 395.477869,279.782804 C395.321152,280.701852 395.674644,281.348891 396.787389,281.775589 C398.351145,282.375125 399.731771,281.256563 400.915639,278.865985 C401.268456,278.153544 401.57158,277.386331 401.823641,276.618664 C401.882501,276.439401 401.935671,276.268803 401.983141,276.10885 L402.123065,275.604759 C402.185775,275.348702 402.422443,275.180929 402.676577,275.196357 L402.772391,275.210915 Z"/><path id="Stroke-111" fill="#1D39C4" fill-rule="nonzero" d="M317.76786,353.5917 C318.106162,353.796714 318.214213,354.237158 318.0092,354.57546 L317.198126,355.889308 L316.434359,357.105139 C315.811102,358.090695 315.130734,359.151137 314.400239,360.271521 C311.617116,364.540085 308.676745,368.808908 305.710929,372.795238 C303.562553,375.682853 301.478531,378.315143 299.485237,380.634586 C295.686558,385.05482 292.323474,388.220518 289.482884,389.888857 C289.284531,390.005354 289.044623,390.018429 288.837365,389.929333 L288.736801,389.876277 L265.294801,375.023277 C264.960654,374.811559 264.861405,374.369048 265.073123,374.034901 C265.265594,373.731131 265.648803,373.621492 265.967936,373.763135 L266.061499,373.813223 L289.127,388.428 L289.318881,388.307454 C291.787995,386.715162 294.723595,383.929934 298.017193,380.142386 L298.398806,379.700925 C300.368433,377.40902 302.43207,374.802479 304.561626,371.94016 C307.507986,367.979981 310.43215,363.734687 313.200268,359.489135 L313.910058,358.395047 C314.487237,357.500841 315.028091,356.651623 315.528556,355.856069 L316.276004,354.659437 L316.7841,353.83304 C316.989114,353.494738 317.429558,353.386687 317.76786,353.5917 Z"/><path id="Stroke-113" fill="#DD936F" fill-rule="nonzero" d="M327.709127,356.148372 C327.847076,355.88583 328.171737,355.784828 328.434278,355.922777 C328.667649,356.045398 328.773383,356.315545 328.697112,356.558455 L328.659873,356.647928 L316.064373,380.619428 C315.926424,380.88197 315.601763,380.982972 315.339222,380.845023 C315.105851,380.722402 315.000117,380.452255 315.076388,380.209345 L315.113627,380.119872 L327.709127,356.148372 Z"/><g id="分组" transform="translate(109.000000, 309.280000)"><mask id="mask-2" fill="#fff"><use xlink:href="#path-1"/></mask><path id="Fill-115" fill="#FFC999" d="M11.81895,127.55745 L11.81895,127.55745 C2.41995,123.64095 -2.28705,113.06895 1.09245,103.46445 L31.70745,16.45845 C36.21045,3.66345 50.54295,-2.71755 63.06495,2.49945 C75.43995,7.65495 81.04545,22.06545 75.40845,34.22745 L36.61995,117.90945 C32.28495,127.26345 21.33495,131.52195 11.81895,127.55745" mask="url(#mask-2)"/></g><path id="Fill-117" fill="#597EF7" d="M122.08675,378.1276 L141.26725,322.9246 C146.76775,310.9276 166.99225,306.1681 178.89025,311.8816 C190.78675,317.5951 195.68575,331.9561 189.76075,343.7491 L162.69175,397.6291 C162.69175,397.6291 132.30775,390.5506 122.08675,378.1276"/><path id="Stroke-119" fill="#1D39C4" fill-rule="nonzero" d="M177.173697,356.96263 C177.328596,356.598645 177.749235,356.429148 178.11322,356.584047 C178.444115,356.724865 178.614277,357.085301 178.526103,357.423139 L178.491803,357.52357 L161.597303,397.22257 C161.452382,397.563108 161.071886,397.737162 160.71948,397.624122 L159.228667,397.130839 L157.849403,396.66108 C156.731385,396.276096 155.528427,395.851972 154.257471,395.392045 C149.414945,393.639657 144.572009,391.727853 140.048976,389.719216 L138.743309,389.132538 C131.871843,386.007797 126.484336,382.952144 123.085158,380.047627 C122.5232,379.567447 122.017133,379.092289 121.568492,378.621992 C121.295447,378.335766 121.306133,377.882387 121.592358,377.609342 C121.878584,377.336297 122.331963,377.346983 122.605008,377.633208 C123.018603,378.066769 123.489409,378.508819 124.015742,378.958558 C127.496488,381.932773 133.251327,385.133039 140.630382,388.410009 C145.119223,390.403462 149.931868,392.303307 154.744922,394.04503 L155.985331,394.490297 C156.999128,394.851239 157.961916,395.186638 158.863856,395.494546 L160.536,396.057 L177.173697,356.96263 Z"/><path id="Fill-121" fill="#FFC999" d="M238.7419,426.42205 L238.7419,426.42205 C238.1899,432.01105 233.5489,436.30705 227.9329,436.42855 L129.2179,438.55855 C117.8824,438.80305 108.8089,429.21355 109.6804,417.90805 C110.5309,406.85905 120.5434,398.82805 131.5144,400.39405 L229.2619,414.33955 C235.1479,415.17955 239.3269,420.50605 238.7419,426.42205"/><path id="Fill-123" fill="#7B8DAF" d="M230.66245,451.8067 L252.36595,383.9152 C252.72445,382.7947 253.75645,382.0297 254.93245,382.0147 L315.79195,381.19094 C317.68195,381.1657 319.02595,383.0212 318.41245,384.8092 L295.75645,450.8977 C295.39195,451.9612 294.41395,452.6917 293.29195,452.7412 L233.38495,455.3692 C231.48445,455.4517 230.08345,453.6187 230.66245,451.8067"/><path id="Fill-125" fill="#253368" d="M233.8705,450.9787 L255.196,384.2692 C255.6295,382.9147 256.8805,381.9877 258.304,381.9682 L319.915,381.134044 C321.2365,381.1177 322.177,382.4152 321.748,383.6647 L298.777,450.6682 C298.3735,451.8457 297.292,452.6557 296.0485,452.7097 L237.1675,455.2927 C234.8665,455.3932 233.1685,453.1717 233.8705,450.9787"/><path id="Fill-127" fill="#ADC6FF" d="M263.5387,388.3969 C264.2272,389.1634 263.9797,390.5089 262.9852,391.4044 C261.9907,392.2984 260.6257,392.4019 259.9357,391.6369 C259.2472,390.8704 259.4947,389.5234 260.4892,388.6294 C261.4837,387.7339 262.8502,387.6304 263.5387,388.3969"/><path id="Fill-129" fill="#E1E7F3" d="M262.7206,389.1982 C263.0791,389.5957 262.9501,390.2947 262.4341,390.7597 C261.9166,391.2232 261.2086,391.2772 260.8501,390.8797 C260.4931,390.4822 260.6221,389.7832 261.1381,389.3182 C261.6541,388.8547 262.3636,388.8007 262.7206,389.1982"/><path id="Fill-131" fill="#FFC999" d="M257.7541,439.04095 C261.2506,438.70195 263.0896,437.23945 262.7581,434.32645 C266.9641,433.00345 266.4946,429.44095 266.4946,429.44095 C266.4946,429.44095 274.5901,429.31645 275.9521,425.85745 C276.4816,424.51345 275.4541,423.07645 274.0141,422.97895 C256.6696,421.80295 244.3021,412.61245 244.3021,412.61245 C244.3021,412.61245 251.1211,402.59995 250.3996,397.97845 C250.1866,396.61195 248.4001,396.17095 247.5646,397.27345 C240.4141,406.70995 226.0756,414.10945 226.0756,414.10945 C226.0756,414.10945 208.8631,430.23595 227.5336,437.54845 C227.5336,437.54845 241.7671,443.21995 251.6761,442.50145 C256.3681,442.16245 257.7541,439.04095 257.7541,439.04095"/><path id="Stroke-133" fill="#DD936F" fill-rule="nonzero" d="M253.738487,426.366237 C253.88322,426.107374 254.210399,426.014853 254.469263,426.159587 C255.711087,426.853904 257.162567,427.419735 258.781466,427.866735 C260.710805,428.399452 262.782674,428.74014 264.867377,428.925392 L265.501243,428.977094 C266.318026,429.037649 267.018159,429.065624 267.563666,429.072337 L267.966962,429.073349 C268.263512,429.069352 268.507154,429.306512 268.511201,429.603062 C268.514749,429.869957 268.323008,430.093997 268.068439,430.139049 L267.981438,430.147251 L267.760227,430.147881 C267.03437,430.145705 266.005959,430.104801 264.772313,429.995176 C262.627613,429.804593 260.493773,429.453715 258.495616,428.901997 C256.798794,428.433481 255.268535,427.836939 253.945137,427.097013 C253.686274,426.95228 253.593753,426.625101 253.738487,426.366237 Z"/><path id="Stroke-135" fill="#DD936F" fill-rule="nonzero" d="M252.106123,431.696493 C252.235195,431.429476 252.55629,431.31765 252.823307,431.446723 C252.983189,431.524008 253.144551,431.599362 253.307345,431.672804 C255.366747,432.601874 257.578385,433.197889 259.799364,433.524886 C261.171077,433.726845 262.270212,433.792053 262.953948,433.787322 C263.258825,433.783205 263.502505,434.020327 263.506601,434.316876 C263.510191,434.58377 263.318486,434.80784 263.063924,434.852934 L262.976924,434.86115 L262.784317,434.86115 L262.387258,434.852235 C261.679065,434.827245 260.742992,434.749395 259.642924,434.587431 C257.329805,434.246868 255.023966,433.625467 252.865689,432.651791 C252.694303,432.574473 252.524355,432.495109 252.355893,432.413677 C252.088876,432.284605 251.97705,431.96351 252.106123,431.696493 Z"/><path id="Stroke-137" fill="#DD936F" fill-rule="nonzero" d="M249.019177,437.652132 C249.148311,437.385145 249.469431,437.273393 249.736418,437.402527 C250.307573,437.678778 251.656249,437.936635 253.490493,438.148173 C254.428161,438.256311 255.434574,438.346412 256.441234,438.419218 L257.781357,438.504642 C258.077552,438.519696 258.305462,438.772013 258.290408,439.068207 C258.275354,439.364402 258.023037,439.592312 257.726843,439.577258 L256.626659,439.509035 L256.363759,439.49042 C255.343015,439.416595 254.322023,439.32519 253.367447,439.215101 L252.697885,439.133341 C251.081938,438.924064 249.905175,438.677178 249.268782,438.369373 C249.001795,438.240239 248.890043,437.919119 249.019177,437.652132 Z"/><path id="Stroke-139" fill="#DD936F" fill-rule="nonzero" d="M131.586483,399.861542 L226.896483,412.881542 C227.190331,412.921683 227.396,413.192435 227.355858,413.486283 C227.319731,413.750746 227.096809,413.943784 226.838371,413.950484 L226.751117,413.945658 L131.441117,400.925658 C131.147269,400.885517 130.9416,400.614765 130.981742,400.320917 C131.017869,400.056454 131.240791,399.863416 131.499229,399.856716 L131.586483,399.861542 Z"/></g></svg>