<?xml version="1.0" encoding="UTF-8"?>
<svg width="512px" height="1024px" viewBox="0 0 512 1024" version="1.1" xmlns="http://www.w3.org/2000/svg" xmlns:xlink="http://www.w3.org/1999/xlink">
    <!-- Generator: Sketch 61.2 (89653) - https://sketch.com -->
    <title>2.人物组件/9.互联网人群/跪姿/介绍</title>
    <desc>Created with Sketch.</desc>
    <defs>
        <polygon id="path-1" points="1.1165832 0.4635 80.6614855 0.4635 80.6614855 60.7417066 1.1165832 60.7417066"></polygon>
        <polygon id="path-3" points="1.0131 0.89505 135.396 0.89505 135.396 123.13755 1.0131 123.13755"></polygon>
        <polygon id="path-5" points="1.0131 0.0507 135.396 0.0507 135.396 18.3972 1.0131 18.3972"></polygon>
        <polygon id="path-7" points="12.5 853.0365 498.896 853.0365 498.896 310.5 12.5 310.5"></polygon>
    </defs>
    <g id="2.人物组件/9.互联网人群/跪姿/介绍" stroke="none" stroke-width="1" fill="none" fill-rule="evenodd">
        <path d="M185.11775,758.7189 C169.58675,703.3164 164.23325,685.2084 158.41175,638.9664 C158.41175,638.9664 184.23425,595.5114 215.98475,643.5324 C221.73875,652.2339 224.25575,685.6674 235.53425,743.4159 C235.53425,743.4159 245.20925,777.4779 219.36425,785.4384 C195.13325,792.9009 185.11775,758.7189 185.11775,758.7189" id="Fill-1" fill="#FFC999"></path>
        <path d="M152.03135,637.1391 C152.03135,637.1391 170.22035,581.1471 217.21985,635.2941 C223.53635,672.8061 233.35985,720.4716 233.35985,720.4716 C233.35985,720.4716 207.46235,738.0621 175.62935,733.7406 C153.19235,644.4576 152.03135,637.1391 152.03135,637.1391" id="Fill-3" fill="#4A71DD"></path>
        <path d="M226.230479,709.753457 C226.509268,709.591819 226.866305,709.68679 227.027943,709.965579 C227.189581,710.244368 227.09461,710.601405 226.815821,710.763043 L226.263607,711.073012 L225.898632,711.272558 C225.15767,711.674465 224.30001,712.121921 223.335788,712.603534 C220.583015,713.9785 217.526047,715.353101 214.245748,716.636151 C205.623579,720.008613 197.035561,722.151658 188.998912,722.470283 C184.074398,722.665522 179.495083,722.159446 175.329805,720.871717 C175.021924,720.776533 174.849499,720.449785 174.944683,720.141905 C175.039867,719.834024 175.366615,719.661599 175.674495,719.756783 C179.704963,721.002834 184.153576,721.494466 188.952681,721.304199 C196.841601,720.991431 205.309552,718.878347 213.82065,715.54933 C217.066404,714.279791 220.091607,712.919474 222.814321,711.559522 L223.604254,711.160504 C224.113226,710.900432 224.58658,710.652596 225.022411,710.419123 L225.997409,709.886016 C226.095404,709.831011 226.173273,709.786624 226.230479,709.753457 Z" id="Stroke-5" fill="#1D39C4" fill-rule="nonzero"></path>
        <path d="M217.111218,634.720801 C217.396179,634.666805 217.671977,634.829916 217.768024,635.093897 L217.793149,635.185468 L233.933149,720.362968 C233.972692,720.571654 233.895714,720.785344 233.732174,720.920874 L233.523152,721.08787 C233.355394,721.219272 233.155692,721.371101 232.92431,721.54165 L232.330278,721.970234 C231.810121,722.337952 231.227241,722.731415 230.582404,723.145643 C228.009039,724.798714 224.975414,726.450337 221.498387,727.991022 C208.487653,733.75613 193.083342,736.435672 175.559408,734.319893 C175.239473,734.281265 175.011429,733.990593 175.050057,733.670658 C175.088685,733.350723 175.379357,733.122679 175.699292,733.161307 C193.004217,735.250644 208.199188,732.607516 221.025618,726.924074 C224.446187,725.408406 227.427312,723.785366 229.951674,722.163774 C230.707187,721.678449 231.374071,721.223369 231.950959,720.807113 L232.368323,720.501179 L232.72,720.233 L216.646551,635.402732 C216.592555,635.117771 216.755666,634.841973 217.019647,634.745926 L217.111218,634.720801 Z" id="Stroke-7" fill="#1D39C4" fill-rule="nonzero"></path>
        <path d="M167.61725,738.5913 C122.00825,743.3343 91.03475,751.1223 45.34325,749.4138 C39.80225,749.2083 39.03875,757.4238 39.21725,765.1878 C24.77375,781.9023 19.23275,814.1013 25.18625,818.7888 C28.76075,821.6043 43.06175,810.6933 46.12475,799.9428 C52.97075,775.9158 80.19125,777.7233 80.19125,777.7233 C80.19125,777.7233 152.15975,787.3818 205.39625,789.5373 C205.39625,789.5373 241.50125,788.8653 237.90875,759.6543 C233.48375,723.6603 183.18275,736.9713 167.61725,738.5913" id="Fill-9" fill="#FFC999"></path>
        <path d="M25.151,832.5141 C25.151,832.5141 17.9795,829.0101 18.557,810.4116 C19.1375,791.8116 26.8745,783.0531 28.0865,773.2866 C30.353,755.0316 34.6835,747.1236 34.6835,747.1236 C34.6835,747.1236 31.9955,746.2341 28.4165,747.8466 C22.895,750.3351 25.073,767.3796 20.7185,777.5541 C17.5685,784.9146 15.8165,790.6536 13.3115,802.8786 C10.8065,815.1036 14.5415,830.3871 18.557,832.0911 C22.571,833.7936 25.151,832.5141 25.151,832.5141" id="Fill-11" fill="#96A7CA"></path>
        <path d="M34.0514,747.6909 C34.0514,747.6909 31.8404,751.8159 28.9409,765.5964 C28.2479,768.8919 27.4529,772.1289 25.6604,777.8709 C22.9094,786.6954 11.3774,814.5699 22.6484,830.7969 C25.4084,833.2494 28.5539,832.4919 30.9659,831.1674 C33.2624,829.9089 34.9649,827.7519 35.7554,825.1944 C38.1464,817.4499 43.8224,798.9399 57.2294,789.2124 C58.7999,788.0739 59.5199,786.0714 59.0399,784.1514 C58.4594,781.8279 57.2834,778.8234 54.9029,776.7099 C52.9229,774.9489 45.6749,780.1644 45.2864,778.1874 C44.2184,772.7529 45.4964,763.5489 49.1234,757.5879 C52.1594,752.5944 55.1039,749.4369 55.1039,749.4369 C55.1039,749.4369 41.6429,745.1124 34.0514,747.6909" id="Fill-13" fill="#4E5C93"></path>
        <path d="M29.9301386,803.408405 C30.2556252,803.484531 30.4577716,803.810102 30.3816455,804.135589 C28.5873607,811.807266 28.8218716,817.98731 30.2855272,822.693609 C30.5005171,823.384896 30.7278594,823.989128 30.956016,824.506447 L31.0701087,824.757864 C31.2261674,825.091968 31.34404,825.30813 31.4053749,825.406487 C31.5822513,825.690127 31.4957026,826.063449 31.212063,826.240325 C30.9284234,826.417201 30.5551015,826.330653 30.3782251,826.047013 C30.2915327,825.907993 30.1503576,825.649096 29.9733549,825.270155 C29.6843781,824.651489 29.3969103,823.912494 29.1296364,823.05309 C27.6021952,818.141692 27.3593645,811.742399 29.2029545,803.859911 C29.2714681,803.566973 29.5420323,803.373941 29.8327397,803.39376 L29.9301386,803.408405 Z" id="Stroke-15" fill="#96A7CA" fill-rule="nonzero"></path>
        <path d="M45.195852,786.170428 C45.386706,785.895999 45.7638926,785.828248 46.0383218,786.019102 C47.1845506,786.816256 48.1808422,787.856649 49.0391288,789.080174 C49.7540408,790.099313 50.3343977,791.187743 50.7926419,792.276163 C50.9531924,792.657501 51.0872477,793.012268 51.1961733,793.331807 L51.3289653,793.748883 C51.4193284,794.070708 51.2316916,794.404852 50.9098669,794.495215 C50.5880421,794.585578 50.2538978,794.397942 50.1635347,794.076117 L50.0832351,793.819927 L50.050414,793.722378 C49.9503271,793.428768 49.8262138,793.100312 49.6769884,792.745873 C49.2501589,791.732069 48.7095988,790.718276 48.0481412,789.775339 C47.2667774,788.66147 46.3677956,787.722695 45.3471782,787.012898 C45.072749,786.822044 45.0049979,786.444857 45.195852,786.170428 Z" id="Stroke-17" fill="#96A7CA" fill-rule="nonzero"></path>
        <path d="M308.2277,507.7458 C308.2277,507.7458 296.9492,478.7028 282.9617,453.6063 C270.2072,430.7223 255.5897,412.5543 240.7592,420.0033 C222.1397,429.3573 241.5107,460.5423 250.0757,477.0333 C256.2407,488.9013 271.4057,512.4633 280.2707,524.1693 C294.4112,542.8413 318.3212,525.3468 308.2277,507.7458" id="Fill-19" fill="#FFC999"></path>
        <path d="M278.2232,467.9292 L252.3122,485.2962 C243.7457,468.8037 217.6397,431.6112 240.6302,419.7537 C256.8512,411.3882 271.7807,430.8597 287.3702,462.0927 L278.2232,467.9292" id="Fill-21" fill="#E4EBF7"></path>
        <path d="M359.68475,431.54385 C359.68475,431.54385 327.70775,504.87585 307.99325,526.58685 C296.96675,538.72935 275.69675,531.48585 279.20225,512.38785 C282.07925,496.71135 341.62175,420.60435 341.62175,420.60435 C341.62175,420.60435 346.07525,412.43685 355.68575,417.76485 C365.65925,423.29385 359.68475,431.54385 359.68475,431.54385" id="Fill-23" fill="#FFC999"></path>
        <path d="M371.3537,425.02755 C371.3537,425.02755 354.9272,438.77355 345.7757,434.57805 C337.4912,430.78005 340.9052,419.54955 340.9052,419.54955 C340.9052,419.54955 344.5742,411.07455 351.0077,403.02555 C355.2227,397.75005 361.7402,386.52855 365.0177,387.96105 C369.2957,389.82855 360.7592,400.21455 362.3672,403.20405 C365.6237,409.26405 380.7722,394.33605 384.5282,393.23505 C391.8692,391.08105 391.1867,408.68955 371.3537,425.02755" id="Fill-25" fill="#FFC999"></path>
        <path d="M386.142381,395.894011 C386.32311,395.645417 386.671145,395.590402 386.919739,395.771131 C387.168333,395.95186 387.223348,396.299895 387.042619,396.548489 C385.464142,398.719692 383.540545,400.759652 381.34761,402.664447 C379.116412,404.602479 376.728125,406.299622 374.339687,407.7453 C373.503354,408.251517 372.726255,408.690399 372.028017,409.060498 L371.425657,409.372514 C371.305869,409.432792 371.209869,409.479724 371.139203,409.513193 C370.861436,409.644749 370.529613,409.526221 370.398057,409.248453 C370.266501,408.970686 370.385029,408.638863 370.662797,408.507307 L371.188212,408.244035 C371.284459,408.194228 371.390799,408.13857 371.506771,408.0771 C372.186887,407.716607 372.945669,407.28807 373.76336,406.793136 C376.100708,405.378382 378.438207,403.717329 380.617742,401.824172 C382.750416,399.97172 384.616869,397.992361 386.142381,395.894011 Z" id="Stroke-27" fill="#DD936F" fill-rule="nonzero"></path>
        <path d="M387.180037,401.129231 C387.349626,400.872909 387.694896,400.802597 387.951219,400.972187 C388.207541,401.141776 388.277853,401.487046 388.108263,401.743369 L387.905111,402.034055 L387.632738,402.403271 C387.583063,402.469124 387.531244,402.537106 387.477268,402.607169 L387.308866,402.823557 C386.645965,403.667077 385.837011,404.605174 384.876993,405.614082 C382.140466,408.489973 378.739888,411.36336 374.635463,414.043586 C373.973816,414.475648 373.297757,414.899811 372.607182,415.315565 C372.343872,415.474088 372.001908,415.389142 371.843385,415.125832 C371.684862,414.862522 371.769808,414.520558 372.033118,414.362035 C372.71203,413.953302 373.376596,413.53635 374.026922,413.111682 C378.056893,410.480074 381.39176,407.662211 384.070689,404.846851 C385.006081,403.863822 385.792152,402.952263 386.433762,402.135835 L386.743218,401.734298 L387.096199,401.251173 C387.135697,401.194937 387.163599,401.154076 387.180037,401.129231 Z" id="Stroke-29" fill="#DD936F" fill-rule="nonzero"></path>
        <path d="M383.333002,410.503129 C383.548101,410.283597 383.900439,410.280003 384.119971,410.495102 C384.339503,410.710201 384.343097,411.062539 384.127998,411.282071 C381.049467,414.42405 378.164357,416.91134 375.553493,418.812818 C374.751083,419.397208 374.024343,419.889286 373.38004,420.294828 L373.108976,420.46335 C372.921521,420.578412 372.751514,420.679551 372.599486,420.767225 L372.216193,420.979897 C371.942924,421.12056 371.607366,421.013062 371.466703,420.739793 C371.32604,420.466524 371.433538,420.130966 371.706807,419.990303 L371.91941,419.874561 C372.009546,419.823717 372.118775,419.76046 372.246566,419.684333 L372.526742,419.514787 C373.211182,419.094674 374.005031,418.563664 374.898257,417.913132 C377.45958,416.047735 380.297908,413.600775 383.333002,410.503129 Z" id="Stroke-31" fill="#DD936F" fill-rule="nonzero"></path>
        <path d="M226.91705,411.0405 C226.91705,411.0405 221.88755,430.872 199.74155,430.4415 C174.03305,429.9435 170.79605,409.2585 170.79605,409.2585 L176.99555,407.4045 C178.27955,407.019 179.20205,405.9075 179.32955,404.5725 C179.78105,399.81 180.85355,387.666 181.68155,371.637 C203.90255,364.812 218.98805,371.7345 218.98805,371.7345 C218.98805,371.7345 218.22755,390.7665 217.91555,404.8005 C217.88555,406.1625 218.69105,407.4 219.94955,407.919 C222.12305,408.813 225.41555,410.2065 226.91705,411.0405" id="Fill-33" fill="#FFC999"></path>
        <path d="M172.68275,357.75165 C172.68275,357.75165 169.57775,326.95515 192.81725,324.75465 C220.88525,322.09665 223.15175,337.92765 225.32375,345.26115 C227.63375,353.05215 231.46925,386.12715 214.90175,394.03065 C207.83825,396.87165 203.45675,398.48265 190.77725,391.98615 C172.32425,382.53015 172.68275,357.75165 172.68275,357.75165" id="Fill-35" fill="#FFC999"></path>
        <path d="M180.63245,380.30655 L179.46395,363.02505 C179.46395,363.02505 165.64295,355.42305 164.51195,364.30605 C163.35845,373.36005 169.82795,379.29255 175.59695,381.15855 C179.30495,382.35855 180.63245,380.30655 180.63245,380.30655" id="Fill-37" fill="#FFC999"></path>
        <g id="分组" transform="translate(158.000000, 310.036500)">
            <mask id="mask-2" fill="white">
                <use xlink:href="#path-1"></use>
            </mask>
            <g id="Clip-40"></g>
            <path d="M22.7775,10.0248 C22.7775,10.0248 36.84,-0.4467 43.6455,0.5268 C50.451,1.5018 45.3315,6.9363 45.3315,6.9363 C45.3315,6.9363 63.9045,3.0348 65.7735,7.1808 C67.644,11.3283 60.978,13.5873 60.978,13.5873 C60.978,13.5873 79.488,18.0018 80.568,23.4513 C81.648,28.8993 73.014,28.0053 73.014,28.0053 C73.014,28.0053 79.824,35.6013 77.916,40.3338 C76.005,45.0663 71.7615,44.6868 71.7615,44.6868 L69.0615,51.0018 L67.527,37.9638 C67.527,37.9638 60.849,35.3628 48.4965,29.9778 C56.139,37.2573 51.594,37.4493 45.3945,36.4533 C38.1285,35.2848 29.6055,33.1173 30.0225,32.8908 C30.0225,32.8908 30.1665,41.4078 24.6495,45.5223 C17.8875,50.5668 23.253,60.1683 21.4425,60.6693 C17.9625,61.6653 18.042,52.0803 11.2185,50.6838 C5.9265,50.4903 4.803,44.0553 6.1845,41.8113 C-0.819,41.1288 -0.849,33.9423 7.8855,27.3663 C0.0345,26.6478 4.5765,19.2648 16.053,15.8103 C11.91,3.0963 22.7775,10.0248 22.7775,10.0248" id="Fill-39" fill="#253368" mask="url(#mask-2)"></path>
        </g>
        <path d="M190.763646,353.589263 C194.208441,352.94361 197.726784,352.664184 201.027293,352.960418 C201.497045,353.00258 201.958853,353.05643 202.412224,353.122356 C202.822127,353.18196 203.106099,353.562571 203.046494,353.972474 C202.98689,354.382377 202.606279,354.666349 202.196376,354.606744 C201.77061,354.544833 201.33604,354.494158 200.893201,354.454412 C197.748447,354.172158 194.360513,354.441227 191.039977,355.06359 C190.367996,355.189539 189.741253,355.32261 189.16851,355.456968 L188.43139,355.637923 C188.192016,355.699477 188.017171,355.747617 187.913061,355.778181 C187.51562,355.894857 187.098845,355.667252 186.982169,355.269811 C186.865493,354.87237 187.093098,354.455595 187.490539,354.338919 L188.053304,354.186354 C188.155136,354.160148 188.267362,354.13182 188.38959,354.101635 C189.097768,353.926749 189.894683,353.752131 190.763646,353.589263 Z" id="Stroke-41" fill="#253368" fill-rule="nonzero"></path>
        <path d="M213.101323,352.32835 C216.17011,351.369919 219.601849,351.262019 223.110525,352.556083 C223.49915,352.699415 223.697998,353.130651 223.554667,353.519275 C223.411335,353.9079 222.980099,354.106748 222.591475,353.963417 C219.425485,352.795741 216.32419,352.893252 213.548496,353.760145 C213.094809,353.901839 212.691554,354.0531 212.34456,354.2034 L212.134314,354.297436 L211.945345,354.389996 C211.580425,354.585971 211.12573,354.449015 210.929754,354.084095 C210.733779,353.719175 210.870735,353.26448 211.235655,353.068504 L211.483819,352.94367 C211.858193,352.7658 212.40469,352.54592 213.101323,352.32835 Z" id="Stroke-43" fill="#253368" fill-rule="nonzero"></path>
        <path d="M210.547156,354.754444 C210.62481,354.45707 210.928831,354.278951 211.226206,354.356606 C211.493843,354.426495 211.664883,354.679741 211.639804,354.946477 L211.624044,355.035656 L210.682,358.64 L212.094845,371.64395 C212.121166,371.886243 211.98713,372.113485 211.771082,372.211088 L211.686373,372.241389 L206.647873,373.598889 C206.351109,373.678845 206.045717,373.503087 205.965761,373.206323 C205.893801,372.939235 206.028969,372.665159 206.273063,372.554727 L206.358327,372.524211 L210.936,371.29 L209.564855,358.66015 L209.579656,358.459444 L210.547156,354.754444 Z" id="Stroke-45" fill="#DD936F" fill-rule="nonzero"></path>
        <path d="M191.804496,362.136982 C193.999434,360.891185 196.606408,360.778472 199.383158,362.515513 C199.734321,362.735189 199.840913,363.197945 199.621237,363.549108 C199.401561,363.900271 198.938805,364.006863 198.587642,363.787187 C196.312715,362.364069 194.28907,362.451562 192.544914,363.441505 C192.070501,363.710771 191.742275,363.974909 191.586753,364.133118 C191.29638,364.428509 190.821524,364.432577 190.526132,364.142203 C190.230741,363.85183 190.226673,363.376974 190.517047,363.081582 C190.76363,362.830738 191.197858,362.481296 191.804496,362.136982 Z" id="Stroke-47" fill="#253368" fill-rule="nonzero"></path>
        <path d="M215.329202,360.694295 C216.777326,359.976051 218.281876,359.682503 219.731647,360.086975 C220.461923,360.290715 221.141401,360.668878 221.75385,361.230916 C222.059034,361.51098 222.079398,361.985417 221.799334,362.2906 C221.51927,362.595784 221.044833,362.616148 220.73965,362.336084 C220.30109,361.933623 219.830935,361.671958 219.328555,361.531799 C218.296838,361.24396 217.142887,361.469104 215.995699,362.038088 C215.711601,362.178996 215.451521,362.33007 215.222333,362.480348 L215.029614,362.611726 C214.997771,362.634502 214.973457,362.652643 214.957087,362.665437 C214.630721,362.920503 214.159378,362.862702 213.904313,362.536337 C213.649247,362.209971 213.707048,361.738628 214.033413,361.483563 C214.297155,361.27744 214.743378,360.984853 215.329202,360.694295 Z" id="Stroke-49" fill="#253368" fill-rule="nonzero"></path>
        <path d="M198.7115,376.24755 C198.7115,376.24755 206.747,377.73105 214.295,376.27755 C214.295,376.27755 212.441,380.96055 207.0875,381.14505 C200.3285,381.37755 198.7115,376.24755 198.7115,376.24755" id="Fill-51" fill="#FFFFFF"></path>
        <path d="M198.826694,375.623594 C198.356219,375.536736 197.962524,375.982001 198.10635,376.438296 C198.326858,377.137867 198.861262,378.141899 199.826811,379.141055 C201.512265,380.885175 203.913963,381.88909 207.109313,381.779175 C209.584707,381.693864 211.567051,380.719289 213.084924,379.156114 C213.63996,378.584513 214.093026,377.973064 214.453019,377.36042 C214.671859,376.987995 214.813204,376.69233 214.884949,376.511111 C215.069299,376.045461 214.666799,375.559796 214.17502,375.654497 C213.758292,375.734745 213.334098,375.806993 212.902849,375.87143 C209.105844,376.438774 205.034677,376.384576 201.175148,375.95117 L200.4348,375.862483 C200.198453,375.83233 199.972756,375.801697 199.758359,375.770917 L198.967298,375.648342 C198.909246,375.638473 198.862253,375.630159 198.826694,375.623594 Z M199.923627,377.240062 L199.81,377.059 L199.916949,377.074307 C200.265001,377.121461 200.637916,377.167817 201.033535,377.212243 L201.778425,377.290999 C205.265276,377.636673 208.894422,377.672361 212.352172,377.228916 L213.101,377.124 L213.020254,377.246022 C212.775996,377.596768 212.494551,377.942492 212.17451,378.272085 C210.873864,379.611549 209.193653,380.437588 207.065646,380.510926 C204.234999,380.608297 202.178844,379.748819 200.739345,378.259215 C200.42262,377.931466 200.151784,377.588102 199.923627,377.240062 Z" id="Stroke-53" fill="#FF7A46" fill-rule="nonzero"></path>
        <path d="M216.966058,392.512627 C217.1779,392.28995 217.530146,392.281166 217.752823,392.493008 C217.9755,392.70485 217.984284,393.057096 217.772442,393.279773 L217.634365,393.417676 C217.471248,393.574132 217.233072,393.784591 216.920366,394.034166 C216.234503,394.581565 215.419036,395.127307 214.475249,395.635768 C209.337236,398.403845 202.824755,398.968834 195.042732,395.971512 C194.755924,395.861045 194.612971,395.53899 194.723438,395.252182 C194.833905,394.965374 195.15596,394.822421 195.442768,394.932888 C202.912458,397.809912 209.087381,397.274208 213.94736,394.655919 C214.830448,394.18016 215.590683,393.671382 216.22608,393.164261 L216.48382,392.953173 C216.717405,392.756504 216.878435,392.604732 216.966058,392.512627 Z" id="Stroke-55" fill="#DD936F" fill-rule="nonzero"></path>
        <path d="M208.40447,384.430697 C208.711791,384.426704 208.96416,384.6726 208.968201,384.97992 C208.971747,385.256509 208.77293,385.488587 208.509094,385.535147 L208.41893,385.543603 L204.60893,385.593103 C204.301609,385.597096 204.04924,385.3512 204.045199,385.04388 C204.041653,384.767291 204.24047,384.535213 204.504306,384.488653 L204.59447,384.480197 L208.40447,384.430697 Z" id="Stroke-57" fill="#DD936F" fill-rule="nonzero"></path>
        <path d="M168.066783,364.473523 C169.602047,363.714771 171.416243,364.250806 173.127591,366.813317 L173.393136,367.21563 C174.645302,369.138283 174.762651,369.748812 173.682343,370.01751 L173.278838,370.109209 C173.163361,370.139247 173.107827,370.16392 173.024806,370.21134 C172.813502,370.332035 172.640173,370.54683 172.499471,370.935859 C171.892473,372.611297 173.748195,373.917323 176.125158,373.814322 C176.432216,373.801016 176.691922,374.039149 176.705228,374.346208 C176.718534,374.653266 176.480401,374.912972 176.173342,374.926278 C173.130619,375.05813 170.494386,373.202793 171.452926,370.557026 C171.680805,369.926962 172.02466,369.500846 172.472778,369.244886 C172.677055,369.128205 172.795421,369.080032 173.041717,369.020688 L173.166,368.991 L173.155468,368.969907 C173.034688,368.730183 172.814365,368.364395 172.469284,367.835923 L172.201965,367.431367 C170.794522,365.323913 169.582674,364.965852 168.55991,365.471319 C168.478596,365.511505 168.413845,365.550174 168.36784,365.581076 L168.301468,365.630677 C168.07151,365.834591 167.719787,365.813477 167.515873,365.583518 C167.311959,365.35356 167.333073,365.001837 167.563032,364.797923 C167.666014,364.706604 167.835241,364.587955 168.066783,364.473523 Z" id="Stroke-59" fill="#DD936F" fill-rule="nonzero"></path>
        <path d="M180.397512,379.802074 C180.676126,379.672321 181.007173,379.792997 181.136926,380.071612 L181.29913,380.40976 C181.431909,380.682102 181.584112,380.98591 181.753231,381.313242 C182.236199,382.24803 182.757121,383.18255 183.295322,384.052629 C183.963698,385.133153 184.610706,386.035037 185.211882,386.695196 C185.577989,387.097223 185.918823,387.399777 186.224204,387.592275 C186.484206,387.756168 186.562118,388.099802 186.398225,388.359804 C186.234332,388.619806 185.890698,388.697718 185.630696,388.533825 C185.22987,388.281164 184.817251,387.914887 184.388969,387.444585 C183.734356,386.725746 183.050164,385.772031 182.348773,384.638132 C181.793976,383.741223 181.259585,382.782541 180.764411,381.824127 L180.517756,381.340028 L180.127974,380.541488 C179.998221,380.262874 180.118897,379.931827 180.397512,379.802074 Z" id="Stroke-61" fill="#DD936F" fill-rule="nonzero"></path>
        <path d="M239.43275,546.99345 C245.47925,556.10295 238.43375,564.07095 238.43375,564.07095 C213.66425,565.35345 151.87025,562.51245 151.87025,562.51245 C141.80825,558.83745 148.19375,538.48245 148.19375,538.48245 C148.19375,538.48245 144.01325,492.22845 140.84225,455.85045 C139.47875,440.18745 136.63025,418.21845 137.70725,417.78495 C149.80175,412.91145 159.01025,409.53645 177.55775,406.74045 C178.05425,407.89995 184.71875,417.27795 202.02875,417.76995 C220.97675,418.30695 220.77125,409.48695 221.48075,408.00795 C230.62475,410.67645 242.12525,412.77495 252.78575,416.90895 C256.02725,418.16595 259.52525,422.77095 258.78725,426.16845 C258.78725,426.16845 255.85025,472.07295 239.43275,546.99345" id="Fill-63" fill="#E4EBF7"></path>
        <path d="M174.950218,415.155136 C175.129497,414.901426 175.480505,414.841088 175.734214,415.020368 C175.990451,415.201433 176.247399,415.379524 176.50505,415.554655 C189.915114,424.669765 204.1816,425.458821 217.357508,421.33434 C218.966199,420.830768 220.406076,420.291594 221.65603,419.753091 L222.152538,419.534567 C222.387344,419.428898 222.601852,419.328836 222.795492,419.235364 L223.177431,419.044875 C223.451848,418.899254 223.792355,419.003665 223.937975,419.278081 C224.083596,419.552498 223.979185,419.893005 223.704769,420.038625 L223.284548,420.248502 L222.852299,420.452119 C222.622347,420.557978 222.371777,420.669696 222.10115,420.786287 C220.816606,421.339691 219.340518,421.892425 217.693587,422.407967 C204.217645,426.626369 189.603254,425.818071 175.872628,416.485068 C175.609338,416.306104 175.346787,416.12413 175.084986,415.939132 C174.831276,415.759853 174.770938,415.408845 174.950218,415.155136 Z" id="Stroke-65" fill="#96A7CA" fill-rule="nonzero"></path>
        <path d="M255.715738,446.723258 C256.026062,446.737693 256.265928,447.000963 256.251492,447.311288 L256.167356,448.749266 L256.087098,449.928614 C256.021655,450.848393 255.943161,451.863991 255.85045,452.97417 L255.752957,454.115831 C255.287155,459.456274 254.613484,465.691122 253.69408,472.780261 L253.56718,473.752254 C250.864976,494.314471 246.684866,517.809208 240.719868,543.911224 L240.02,546.949 L240.119771,547.20013 C243.357112,555.48234 242.505104,560.503396 238.975253,562.908958 L238.796536,563.02706 C238.070475,563.492256 237.295711,563.803382 236.521039,563.990969 C236.052496,564.104427 235.681987,564.151954 235.413405,564.161839 L227.101035,563.899789 L220.516767,563.703723 C218.281052,563.638691 216.007909,563.574144 213.707933,563.510568 L206.738102,563.323238 C201.423679,563.184541 196.239333,563.059039 191.24826,562.949625 L184.932357,562.817832 C170.88401,562.540311 159.478306,562.425564 151.592881,562.513615 C151.28224,562.517084 151.027604,562.268071 151.023931,561.957431 C151.020666,561.64679 151.269679,561.392154 151.580319,561.388685 L154.107421,561.367982 C162.363975,561.322719 173.773255,561.460492 187.565453,561.745867 L193.154024,561.866685 C197.564077,561.965935 202.115988,562.077226 206.767453,562.198621 L213.738991,562.385997 C217.189788,562.481384 220.580183,562.578955 223.874427,562.677072 L235.408008,563.037666 L235.576127,563.023571 C235.743353,563.004396 235.976017,562.965433 236.256272,562.897569 C236.916435,562.73771 237.576504,562.472643 238.189622,562.079811 C241.411229,560.015688 242.214715,555.41991 238.91071,547.203001 C238.86767,547.095963 238.858584,546.978279 238.884682,546.865902 C245.236905,519.513831 249.643956,494.971523 252.45177,473.605671 L252.822529,470.727895 C253.616232,464.438955 254.209982,458.85897 254.632212,454.018078 L254.774296,452.336179 C254.861925,451.262198 254.93556,450.282995 254.99637,449.399806 L255.062071,448.404209 L255.127708,447.259012 C255.142143,446.948688 255.405413,446.708822 255.715738,446.723258 Z" id="Stroke-67" fill="#96A7CA" fill-rule="nonzero"></path>
        <path d="M185.58215,658.7361 C185.58215,658.7361 196.28165,658.1736 209.79665,656.4846 C225.02315,654.5796 237.00065,639.5196 248.09765,629.0376 C243.02015,592.2891 237.47615,573.3291 237.47615,573.3291 L147.39515,572.3661 C147.39515,572.3661 140.59415,596.2581 142.78565,630.5796 C144.47465,657.0471 185.58215,658.7361 185.58215,658.7361" id="Fill-69" fill="#597EF7"></path>
        <path d="M238.3166,574.16775 L237.3116,563.20875 L148.0526,561.96225 L146.8436,572.36925 C146.8436,572.36925 229.2146,574.21275 238.3166,574.16775" id="Fill-71" fill="#597EF7"></path>
        <path d="M147.460436,572.136854 L174.155062,572.606065 L197.505733,572.982233 L238.324882,573.605311 C238.635508,573.609885 238.883613,573.865405 238.879334,574.176032 C238.874465,574.486658 238.618945,574.734763 238.308318,574.730189 L197.487999,574.107093 L156.110811,573.42206 C152.918213,573.364952 150.020333,573.311384 147.438764,573.261646 C147.128162,573.255661 146.88122,572.999017 146.886707,572.688414 C146.893189,572.377812 147.149833,572.13087 147.460436,572.136854 Z" id="Stroke-73" fill="#1D39C4" fill-rule="nonzero"></path>
        <path d="M192.69545,567.64545 C192.71345,568.73295 193.83995,569.60745 195.21095,569.601481 C196.58195,569.59395 197.67845,568.70745 197.66195,567.62145 C197.64395,566.53395 196.51745,565.65795 195.14645,565.66545 C193.77545,565.67295 192.67745,566.55795 192.69545,567.64545" id="Fill-75" fill="#1D39C4"></path>
        <path d="M110.83565,525.072 C110.83565,525.072 112.54415,492.8805 118.03115,463.647 C123.03365,436.992 131.25215,414.3345 147.56765,416.6865 C168.05315,419.6415 159.35465,456.627 156.33965,475.6275 C154.17215,489.3 147.09815,517.4235 142.32515,531.8385 C134.71415,554.8305 106.71815,545.667 110.83565,525.072" id="Fill-77" fill="#FFC999"></path>
        <path d="M155.1236,483.29025 C158.1386,464.28975 173.0021,420.34875 147.6131,416.39925 C129.7001,413.61225 121.5896,437.65125 116.4791,473.42475 L155.1236,483.29025 Z" id="Fill-79" fill="#E4EBF7"></path>
        <path d="M231.653,555.0237 C231.653,555.0237 151.7345,558.6282 123.557,550.4952 C107.7995,545.9487 104.93,523.6617 123.6185,518.3937 C138.9575,514.0692 233.516,533.9892 233.516,533.9892 C233.516,533.9892 242.8085,534.3882 242.2595,545.3637 C241.691,556.7517 231.653,555.0237 231.653,555.0237" id="Fill-81" fill="#FFC999"></path>
        <path d="M256.40735,557.14695 C256.40735,557.14695 235.03385,558.57045 230.11385,549.78945 C225.65885,541.83645 235.03685,534.77595 235.03685,534.77595 C235.03685,534.77595 242.99585,530.09295 252.93635,527.38095 C259.44935,525.60345 271.32785,520.37745 273.13235,523.46745 C275.48885,527.49645 262.47035,530.85645 262.00685,534.21945 C261.06635,541.03395 282.10385,537.90345 285.78635,539.22645 C292.98635,541.81245 282.05735,555.63645 256.40735,557.14695" id="Fill-83" fill="#FFC999"></path>
        <path d="M285.523783,542.325748 C285.816301,542.231436 286.129889,542.392114 286.224202,542.684633 C286.318514,542.977151 286.157836,543.290739 285.865317,543.385052 C285.053307,543.646856 284.218868,543.877888 283.363752,544.079307 C278.216304,545.291764 272.752785,545.383754 267.696821,544.815033 L266.967548,544.72726 C266.851392,544.712325 266.737973,544.697264 266.627358,544.682117 L265.99782,544.590528 C265.698356,544.544227 265.488554,544.507903 265.37655,544.486596 C265.074618,544.429158 264.876417,544.137832 264.933854,543.8359 C264.991292,543.533968 265.282618,543.335767 265.58455,543.393204 L266.032115,543.469319 L266.167882,543.490597 C266.648763,543.564947 267.202619,543.639423 267.821232,543.709008 C272.761075,544.264668 278.104229,544.174704 283.108574,542.995954 C283.935115,542.801266 284.740774,542.578202 285.523783,542.325748 Z" id="Stroke-85" fill="#DD936F" fill-rule="nonzero"></path>
        <path d="M283.276302,547.166828 C283.564359,547.059658 283.884753,547.206296 283.991922,547.494352 C284.099092,547.782409 283.952454,548.102803 283.664398,548.209972 L283.391519,548.304474 L283.0364,548.418425 C282.908232,548.458215 282.770306,548.499729 282.622734,548.542715 C281.784195,548.786971 280.80219,549.030696 279.683932,549.25783 C274.950385,550.219277 269.385617,550.592867 263.142735,550.039728 C262.836588,550.012603 262.610396,549.742432 262.637522,549.436285 C262.664647,549.130138 262.934818,548.903946 263.240965,548.931072 C269.372541,549.474348 274.830293,549.107943 279.46239,548.167101 C280.394572,547.977763 281.227253,547.777102 281.955858,547.575158 L282.311466,547.474126 C282.792674,547.333956 283.11671,547.226203 283.276302,547.166828 Z" id="Stroke-87" fill="#DD936F" fill-rule="nonzero"></path>
        <path d="M274.643231,552.473035 C274.946388,552.422463 275.233142,552.627223 275.283715,552.930381 C275.334287,553.233538 275.129527,553.520292 274.826369,553.570865 C268.996982,554.543317 264.325872,554.756066 260.887862,554.52128 L260.524225,554.494426 C260.302814,554.476821 260.10392,554.458219 259.927707,554.439314 L259.532822,554.391369 C259.515445,554.388895 259.500663,554.386694 259.488479,554.384793 C259.184809,554.337395 258.97706,554.052799 259.024457,553.749129 C259.071855,553.445459 259.356451,553.23771 259.660121,553.285107 L259.902593,553.317194 C260.075667,553.337439 260.312536,553.361081 260.612445,553.384927 C263.992384,553.653676 268.696383,553.465083 274.643231,552.473035 Z" id="Stroke-89" fill="#DD936F" fill-rule="nonzero"></path>
        <g id="分组" transform="translate(363.500000, 326.536500)">
            <mask id="mask-4" fill="white">
                <use xlink:href="#path-3"></use>
            </mask>
            <g id="Clip-92"></g>
            <path d="M127.7526,0.89505 L8.6586,0.89505 C4.4361,0.89505 1.0131,4.31805 1.0131,8.53905 L1.0131,115.49355 C1.0131,119.71455 4.4361,123.13755 8.6586,123.13755 L127.7526,123.13755 C131.9736,123.13755 135.3966,119.71455 135.3966,115.49355 L135.3966,8.53905 C135.3966,4.31805 131.9736,0.89505 127.7526,0.89505" id="Fill-91" fill="#ADC6FF" mask="url(#mask-4)"></path>
        </g>
        <g id="分组" transform="translate(363.500000, 326.536500)">
            <mask id="mask-6" fill="white">
                <use xlink:href="#path-5"></use>
            </mask>
            <g id="Clip-94"></g>
            <path d="M127.7526,0.0507 L8.6586,0.0507 C4.4361,0.0507 1.0131,3.4722 1.0131,7.6947 L1.0131,18.3972 L135.3966,18.3972 L135.3966,7.6947 C135.3966,3.4722 131.9736,0.0507 127.7526,0.0507" id="Fill-93" fill="#435175" mask="url(#mask-6)"></path>
        </g>
        <path d="M466.0202,339.02115 C464.3867,339.02115 463.0652,337.69665 463.0652,336.06465 C463.0652,334.43265 464.3867,333.10815 466.0202,333.10815 C467.6537,333.10815 468.9767,334.43265 468.9767,336.06465 C468.9767,337.69665 467.6537,339.02115 466.0202,339.02115 Z" id="Fill-95" fill="#FFFFFF"></path>
        <path d="M475.73345,339.02115 C474.10145,339.02115 472.77845,337.69665 472.77845,336.06465 C472.77845,334.43265 474.10145,333.10815 475.73345,333.10815 C477.36695,333.10815 478.69145,334.43265 478.69145,336.06465 C478.69145,337.69665 477.36695,339.02115 475.73345,339.02115 Z" id="Fill-97" fill="#FFFFFF"></path>
        <path d="M485.8703,339.02115 C484.2368,339.02115 482.9153,337.69665 482.9153,336.06465 C482.9153,334.43265 484.2368,333.10815 485.8703,333.10815 C487.5038,333.10815 488.8268,334.43265 488.8268,336.06465 C488.8268,337.69665 487.5038,339.02115 485.8703,339.02115 Z" id="Fill-99" fill="#FFFFFF"></path>
        <mask id="mask-8" fill="white">
            <use xlink:href="#path-7"></use>
        </mask>
        <g id="Clip-102"></g>
        <polygon id="Fill-101" fill="#FFFFFF" mask="url(#mask-8)" points="380.435 408.7185 484.6475 408.7185 484.6475 355.7985 380.435 355.7985"></polygon>
        <path d="M409.6319,390.64875 C401.2529,390.64875 394.4594,383.85675 394.4594,375.47775 C394.4594,367.09875 401.2529,360.30675 409.6319,360.30675 C418.0109,360.30675 424.8029,367.09875 424.8029,375.47775 C424.8029,383.85675 418.0109,390.64875 409.6319,390.64875 Z" id="Fill-103" fill="#FF7131" mask="url(#mask-8)"></path>
        <path d="M483.42875,408.9399 L383.07875,408.9399 C383.07875,408.9399 394.52075,385.8414 403.11425,383.9514 C420.07775,380.2209 423.73775,399.0864 432.46625,399.0864 C441.19475,399.0864 447.67025,368.1144 459.91775,368.1144 C472.16675,368.1144 483.42875,408.9399 483.42875,408.9399" id="Fill-104" fill="#547CFF" mask="url(#mask-8)"></path>
        <polygon id="Fill-105" fill="#FFFFFF" mask="url(#mask-8)" points="377.1845 424.1445 485.7245 424.1445 485.7245 419.0775 377.1845 419.0775"></polygon>
        <polygon id="Fill-106" fill="#FFFFFF" mask="url(#mask-8)" points="418.151 434.70285 377.183 434.70285 377.183 429.63435 443.9135 429.63435 443.9135 434.70285"></polygon>
        <path d="M325.6388,651.93705 C261.8348,660.64155 208.1783,654.38505 208.1783,654.38505 C208.1783,654.38505 157.2248,636.13005 190.4108,609.70905 C206.4818,596.91255 249.3848,597.89505 320.8463,604.83105 C320.8463,604.83105 354.2783,605.04555 353.9813,629.59755 C353.7323,650.14905 325.6388,651.93705 325.6388,651.93705" id="Fill-107" fill="#FFC999" mask="url(#mask-8)"></path>
        <path d="M282.03035,656.94315 C290.56385,630.24165 280.37885,600.58515 280.37885,600.58515 C260.91335,599.77815 237.10835,597.74715 168.79985,601.63065 C146.31185,635.83965 191.29685,659.62965 191.29685,659.62965 L282.03035,656.94315 Z" id="Fill-108" fill="#597EF7" mask="url(#mask-8)"></path>
        <path d="M268.419431,603.277253 C268.716641,603.186833 269.030877,603.35447 269.121297,603.651681 L269.287255,604.232183 L269.450281,604.8373 C269.535077,605.159508 269.624622,605.511023 269.71812,605.891088 C270.162539,607.697634 270.606649,609.779323 271.02097,612.10817 C273.449932,625.76104 273.804007,640.92101 270.754953,656.331577 C270.694656,656.636329 270.398726,656.8345 270.093973,656.774203 C269.789221,656.713906 269.59105,656.417976 269.651347,656.113223 C272.670483,640.85387 272.319594,625.83033 269.913362,612.305222 C269.54442,610.231448 269.151918,608.357219 268.757284,606.703044 L268.62569,606.159831 C268.503077,605.661411 268.387566,605.213644 268.28104,604.818329 L268.045003,603.979119 C267.954583,603.681909 268.12222,603.367673 268.419431,603.277253 Z" id="Stroke-109" fill="#1D39C4" fill-rule="nonzero" mask="url(#mask-8)"></path>
        <path d="M181.665841,595.667197 L280.404841,600.023197 C280.630208,600.033139 280.827835,600.176758 280.906884,600.38804 C287.154908,617.08774 287.528792,634.221115 284.41932,649.770437 C284.059565,651.569436 283.676786,653.199047 283.291185,654.642177 L283.146492,655.174576 C282.994166,655.725588 282.852536,656.207763 282.725198,656.618055 L282.562316,657.125082 C282.495969,657.319188 282.330371,657.45948 282.133023,657.496168 L282.046698,657.505404 L191.313198,660.191904 C191.002674,660.201098 190.743491,659.956822 190.734296,659.646298 C190.726022,659.366826 190.923058,659.128941 191.18892,659.077456 L191.279902,659.067396 L281.617,656.392 L281.806139,655.77128 L282.062164,654.874814 C282.489343,653.329579 282.916895,651.546415 283.316161,649.549833 C286.338303,634.437215 286.029447,617.806298 280.147019,601.579942 L279.982,601.131 L181.616259,596.791103 C181.336936,596.778781 181.114202,596.564766 181.08243,596.295835 L181.079097,596.204359 C181.091419,595.925036 181.305434,595.702302 181.574365,595.67053 L181.665841,595.667197 Z" id="Stroke-110" fill="#1D39C4" fill-rule="nonzero" mask="url(#mask-8)"></path>
        <path d="M306.7247,685.1238 C311.6597,734.4363 319.7957,767.9388 317.9672,817.3173 C317.7467,823.3083 326.3582,824.1603 334.4972,823.9953 C352.0052,839.6658 385.7522,845.7693 390.6707,839.3508 C393.6242,835.4973 382.1987,820.0023 370.9337,816.6543 C345.7532,809.1678 347.6702,779.7543 347.6702,779.7543 C347.6702,779.7543 352.0082,704.7648 354.3137,647.2338 C354.3137,647.2338 362.1197,607.7748 331.9427,605.6388 C294.0182,602.9538 305.0417,668.2938 306.7247,685.1238" id="Fill-111" fill="#FFC999" mask="url(#mask-8)"></path>
        <path d="M405.05675,839.43705 C405.05675,839.43705 401.37875,847.17705 381.88325,846.48555 C362.38775,845.79255 353.21375,837.40005 342.97625,836.05455 C323.84225,833.54205 315.55775,828.83205 315.55775,828.83205 C315.55775,828.83205 314.62325,831.73455 316.31075,835.60905 C318.91325,841.58505 336.78125,839.29155 347.44325,844.03305 C355.15475,847.46355 361.16975,849.37755 373.98125,852.12855 C386.79425,854.88105 402.81875,850.89705 404.60675,846.56355 C406.39625,842.23005 405.05675,839.43705 405.05675,839.43705" id="Fill-112" fill="#96A7CA" mask="url(#mask-8)"></path>
        <path d="M316.151,829.5186 C316.151,829.5186 320.474,831.9216 334.916,835.1046 C338.3705,835.8666 341.762,836.7366 347.78,838.6926 C357.0275,841.6986 386.2355,854.2611 403.2545,842.1366 C405.8285,839.1621 405.0365,835.7601 403.6505,833.1471 C402.332,830.6616 400.073,828.8121 397.394,827.9496 C389.2775,825.3381 369.8795,819.1386 359.6945,804.6126 C358.502,802.9116 356.405,802.1256 354.3905,802.6371 C351.9545,803.2566 348.806,804.5181 346.5875,807.0816 C344.741,809.2176 350.1995,817.0701 348.1265,817.4826 C342.431,818.6166 332.7845,817.2036 326.5385,813.2631 C321.3065,809.9631 317.999,806.7696 317.999,806.7696 C317.999,806.7696 313.4555,821.3046 316.151,829.5186" id="Fill-113" fill="#4E5C93" mask="url(#mask-8)"></path>
        <path d="M397.59944,832.666391 C397.899225,832.474742 398.297611,832.562404 398.489259,832.86219 C398.680908,833.161975 398.593246,833.560361 398.29346,833.752009 L398.138766,833.845144 C397.98445,833.933811 397.766613,834.049149 397.485193,834.183923 C396.842306,834.491806 396.074525,834.798041 395.181784,835.082736 C390.026269,836.726833 383.302017,836.972909 375.015906,834.946508 C374.670282,834.861984 374.458618,834.51328 374.543142,834.167656 C374.627666,833.822032 374.97637,833.610368 375.321994,833.694892 C383.376862,835.664742 389.859767,835.427498 394.790305,833.855147 C395.506448,833.626768 396.132377,833.385292 396.66823,833.142983 L396.928651,833.021815 C397.274478,832.856197 397.498035,832.731217 397.59944,832.666391 Z" id="Stroke-114" fill="#96A7CA" fill-rule="nonzero" mask="url(#mask-8)"></path>
        <path d="M364.438095,811.017728 C364.780165,810.919806 365.136849,811.117726 365.234772,811.459795 C365.332694,811.801865 365.134774,812.158549 364.792705,812.256472 L364.524983,812.342135 L364.422904,812.377217 C364.115368,812.484311 363.771269,812.61726 363.399902,812.777266 C362.337436,813.235038 361.274899,813.815747 360.286502,814.527434 C359.120341,815.367118 358.136949,816.334395 357.392404,817.434253 C357.192944,817.728899 356.792393,817.806063 356.497747,817.606604 C356.203101,817.407144 356.125937,817.006593 356.325396,816.711947 C357.161023,815.477541 358.251418,814.405014 359.533596,813.481793 C360.60379,812.711209 361.746887,812.086471 362.890053,811.593929 C363.190507,811.464476 363.475282,811.351107 363.740546,811.253184 L363.999164,811.160387 C364.203921,811.089083 364.353267,811.042012 364.438095,811.017728 Z" id="Stroke-115" fill="#96A7CA" fill-rule="nonzero" mask="url(#mask-8)"></path>
        <path d="M162.807306,448.412011 L162.897962,448.424681 C163.170855,448.485527 163.352853,448.735106 163.337239,449.005456 L163.324569,449.096112 L155.673069,483.413112 C155.610903,483.691924 155.352332,483.87478 155.077047,483.851329 L154.984913,483.83572 L116.340413,473.97022 C116.039406,473.893377 115.857686,473.587069 115.93453,473.286063 C116.003689,473.015157 116.258714,472.840873 116.528461,472.864744 L116.618687,472.88018 L154.701,482.602 L162.226531,448.851288 C162.287377,448.578395 162.536956,448.396397 162.807306,448.412011 Z" id="Stroke-116" fill="#96A7CA" fill-rule="nonzero" mask="url(#mask-8)"></path>
    </g>
</svg>